<svg width="679px" height="653px" class="d3plus-viz" aria-hidden="true" aria-labelledby="edc46360-b5ed-0804-84a2-53a8ceb1f755-title edc46360-b5ed-0804-84a2-53a8ceb1f755-desc" role="img"
    xmlns="http://www.w3.org/2000/svg"
    xmlns:xlink="http://www.w3.org/1999/xlink" style="display: inline; width: 679px; height: 653px;">
    <title id="edc46360-b5ed-0804-84a2-53a8ceb1f755-title"></title>
    <desc id="edc46360-b5ed-0804-84a2-53a8ceb1f755-desc"></desc>
    <g class="d3plus-viz-back" transform=""></g>
    <g transform="translate(0, 0)" class="d3plus-viz-title"></g>
    <g transform="translate(0, 0)" class="d3plus-viz-total"></g>
    <svg class="d3plus-geomap" opacity="1" width="679" height="653" x="0" y="0" style="background-color: transparent;">
        <rect class="d3plus-geomap-ocean" width="679" height="653" fill="transparent"></rect>
        <g class="d3plus-geomap-tileGroup"></g>
        <g class="d3plus-geomap-zoomGroup">
            <g class="d3plus-geomap-paths">
                <g class="d3plus-Path-group">
                    <g class="d3plus-Path-shape" opacity="1">
                        <path class="d3plus-Shape d3plus-Path d3plus-id-Angola" transform="
        translate(0,0)
        scale(1)
        rotate(0)" aria-label="undefined." role="presentation" opacity="1" shape-rendering="geometricPrecision" pointer-events="visiblePainted" d="M394.7780922844954,425.4377617069498L395.0591673300098,442.6560149080347L379.03788973569,442.6560149080347L379.1315814175281,468.5278162320924L380.44326496326187,472.1169840258607L390.18719987442717,480.6865273933304L374.35330564378353,483.8147857608267L369.7624132337153,484.0105223139509L353.64744395755736,481.5656834111862L351.1177685479279,478.63716470903654L336.50186618117993,478.63716470903654L315.51492944943936,478.8322222659253L310.9240370393711,475.13037916272776L304.4593109925402,477.36990013022483L298.27565999122385,477.46734464808674L297.99458494570945,466.30070606070854L302.3044023102633,456.9403585346709L304.1782359470259,446.09749270193856L313.07894572164804,436.552188416957L314.67170431289617,427.33384773040694L314.0158625400293,423.6378650907847L309.6123534936373,416.07348692724383L308.01959490238914,411.1681588788391L311.0177287212092,408.4361718888868L310.9240370393711,404.95415542961575L306.52052799297905,393.96790977580605L302.3044023102633,387.59790949487086L309.5186618117991,385.2584703394411L334.2532658170649,385.2584703394411L336.50186618117993,385.8198211696352L339.5936916818382,396.78157501768084L343.90350904639206,402.509658524886L358.33202804946376,402.41567655554144L359.64371159519754,394.43670447760195L365.7336709146758,394.43670447760195L367.5138128696003,396.687751018271L377.53882282627995,396.687751018271L378.7568146901756,405.7066890451321L378.1009729173087,415.3182521818015L381.7549485089957,421.36619415306427L380.5369566451001,425.2482358856638L387.2827577374452,427.23900739720875ZM308.58174499341783,375.6322683288363L304.271927628864,379.74215864234213L301.74225221923456,384.5101126421688L300.14949362798643,378.6209613328521L306.14576126562656,373.6718125128848Z" fill="#122B39" fill-opacity="1" rx="0" ry="0" stroke="rgb(13, 30, 40)" stroke-dasharray="0" stroke-linecap="butt" stroke-opacity="1" stroke-width="1" vector-effect="non-scaling-stroke"></path>
                        <path class="d3plus-Shape d3plus-Path d3plus-id-Burundi" transform="
        translate(0,0)
        scale(1)
        rotate(0)" aria-label="undefined." role="presentation" opacity="1" shape-rendering="geometricPrecision" pointer-events="visiblePainted" d="M446.9643590683326,357.9153047107452L445.8400588862751,361.45551042217465L449.1192677506096,363.97174353027344L442.5608500219406,372.73849257743575L437.78257424819606,374.13852743923337L436.2835073387861,369.7528117838461L436.47089070246227,362.94652265911543L434.784440429376,360.4305820421982L440.12486629414934,361.08279612393414Z" fill="#122B39" fill-opacity="1" rx="0" ry="0" stroke="rgb(13, 30, 40)" stroke-dasharray="0" stroke-linecap="butt" stroke-opacity="1" stroke-width="1" vector-effect="non-scaling-stroke"></path>
                        <path class="d3plus-Shape d3plus-Path d3plus-id-Benin" transform="
        translate(0,0)
        scale(1)
        rotate(0)" aria-label="undefined." role="presentation" opacity="1" shape-rendering="geometricPrecision" pointer-events="visiblePainted" d="M233.62839952291563,245.6753117215813L232.69148270453437,248.1449518823927L235.50223315967818,254.49697703597934L232.97255775004874,260.54931371755197L227.0699817942467,266.87059792758805L226.32044833954166,276.2799689772751L226.50783170321793,288.3791821178973L217.98188865594827,289.59635772913725L217.79450529227202,266.964837427054L215.6395966099951,259.3210847783214L211.2360875636031,256.3898805222734L212.2666960638225,251.37048865890367L221.0737141566065,247.86013028815182L224.07184797542658,244.05907565032464L227.63213188527544,239.96559490027315Z" fill="#122B39" fill-opacity="1" rx="0" ry="0" stroke="rgb(13, 30, 40)" stroke-dasharray="0" stroke-linecap="butt" stroke-opacity="1" stroke-width="1" vector-effect="non-scaling-stroke"></path>
                        <path class="d3plus-Shape d3plus-Path d3plus-id-Burkina-Faso" transform="
        translate(0,0)
        scale(1)
        rotate(0)" aria-label="undefined." role="presentation" opacity="1" shape-rendering="geometricPrecision" pointer-events="visiblePainted" d="M206.9262701990492,219.56442995351483L206.36412010802044,222.54741066029982L212.82884615485125,234.52703563639693L221.54217256579713,240.72776441445814L224.07184797542658,244.05907565032464L221.0737141566065,247.86013028815182L212.2666960638225,251.37048865890367L203.83444469839097,250.23257149118575L201.02369424324715,251.37048865890367L183.4096580576791,251.37048865890367L183.87811646686976,263.47588874635875L176.28909023798144,259.7935484419261L171.32343110056064,261.3992922359847L165.88931355394922,260.1714581454439L161.48580450755725,255.91678920880855L164.29655496270107,243.67861287281335L170.29282260034122,240.72776441445814L173.66572314651384,231.85009481951795L179.47460742047775,232.71093540993144L182.6601246029741,226.5810457604938L189.12485064980493,225.33348425514492L199.1498606064846,218.21562790483296Z" fill="#122B39" fill-opacity="1" rx="0" ry="0" stroke="rgb(13, 30, 40)" stroke-dasharray="0" stroke-linecap="butt" stroke-opacity="1" stroke-width="1" vector-effect="non-scaling-stroke"></path>
                        <path class="d3plus-Shape d3plus-Path d3plus-id-French-Southern-and-Antarctic-Lands" transform="
        translate(0,0)
        scale(1)
        rotate(0)" aria-label="undefined." role="presentation" opacity="1" shape-rendering="geometricPrecision" pointer-events="visiblePainted" fill="#122B39" fill-opacity="1" rx="0" ry="0" stroke="rgb(13, 30, 40)" stroke-dasharray="0" stroke-linecap="butt" stroke-opacity="1" stroke-width="1" vector-effect="non-scaling-stroke"></path>
                        <path class="d3plus-Shape d3plus-Path d3plus-id-Botswana" transform="
        translate(0,0)
        scale(1)
        rotate(0)" aria-label="undefined." role="presentation" opacity="1" shape-rendering="geometricPrecision" pointer-events="visiblePainted" d="M404.9904856048514,481.95658606830557L410.4246031514628,491.36988734838167L411.92367006087284,496.19890103762873L424.2909720635057,504.71633860272897L424.10358869982946,509.69405888167546L426.6332641094589,513.5903551713808L434.9718237930523,515.693451362456L437.40780752084356,519.0056695337984L429.72508961011715,522.3270517274054L418.8568545168943,531.5351790846198L417.6388626529987,536.7285623512882L409.95614474227216,542.2542110973246L407.613852696319,548.7368688375776L401.3365100131644,550.596395770634L394.4970172389811,548.8400891718932L390.74934996545596,545.7478738090151L387.1890660556071,545.9537402156158L384.940465691492,551.9414560246175L376.7892893715749,559.6317263342823L368.3570380061434,559.0060145963512L369.66872155187724,551.1135203381367L366.2958210057046,543.5886768368314L363.29768718688456,541.1263375759215L363.20399550504635,517.398613640074L371.07409677944906,517.398613640074L371.1677884612873,486.3614136180866L389.1565913742078,483.71692728527L392.24841687486605,487.5382940860135L395.5276257392005,484.6958065959568Z" fill="#122B39" fill-opacity="1" rx="0" ry="0" stroke="rgb(13, 30, 40)" stroke-dasharray="0" stroke-linecap="butt" stroke-opacity="1" stroke-width="1" vector-effect="non-scaling-stroke"></path>
                        <path class="d3plus-Shape d3plus-Path d3plus-id-Central-African-Republic" transform="
        translate(0,0)
        scale(1)
        rotate(0)" aria-label="undefined." role="presentation" opacity="1" shape-rendering="geometricPrecision" pointer-events="visiblePainted" d="M386.06476587354956,251.9392426968959L392.06103351118975,260.0769858049422L390.93673332913227,269.1315039946494L396.37085087574366,269.88475440174886L396.0897758302292,272.6137189662087L401.61758505867874,274.0243114807071L405.83371074139455,280.69289403088203L413.8911953794735,286.13112961005504L415.2028789252073,291.0939354506909L419.79377133527555,293.15226042172L422.323446744905,298.6677975089533L414.5470371523404,298.76122777732724L407.613852696319,296.2380010922658L405.3652523322039,299.0415084047466L398.71314292169683,298.3874964701447L390.18719987442717,302.49708796182944L386.34584091906396,300.6294816812881L383.1603237365676,305.8572490665708L368.1696546424671,303.9907281400718L361.2364701864457,298.2006205428702L356.17711936718683,299.97566811688677L353.27267723020486,304.17740626776896L352.5231437754998,311.3603525886004L342.3107504551439,310.24143143923436L336.2207911356656,311.4535883699236L333.3163489986836,321.14452709779675L332.4731238621405,316.2071649552612L324.50933090589956,308.0963398651119L320.1058218595076,297.07921913104144L321.60488876891765,289.2218802369413L327.69484808839593,279.1912576427093L334.72172422625556,277.97069932250184L337.8135497269137,278.9096288241227L345.0278092284496,275.4342807677906L352.2420687299855,274.96435939387135L356.4581944127011,269.97889737512986L356.2708110490249,267.24753745611025L366.2958210057046,266.39935406911536L376.5082143260605,257.4303695191411L377.0703644170893,254.21291683716578L382.87924869105325,251.27568311678803Z" fill="#122B39" fill-opacity="1" rx="0" ry="0" stroke="rgb(13, 30, 40)" stroke-dasharray="0" stroke-linecap="butt" stroke-opacity="1" stroke-width="1" vector-effect="non-scaling-stroke"></path>
                        <path class="d3plus-Shape d3plus-Path d3plus-id-Ivory-Coast" transform="
        translate(0,0)
        scale(1)
        rotate(0)" aria-label="undefined." role="presentation" opacity="1" shape-rendering="geometricPrecision" pointer-events="visiblePainted" d="M161.48580450755725,255.91678920880855L165.88931355394922,260.1714581454439L171.32343110056064,261.3992922359847L176.28909023798144,259.7935484419261L183.87811646686976,263.47588874635875L185.28349169444166,273.64821498945537L182.6601246029741,276.8436407340823L179.38091573863963,286.4122056608764L182.6601246029741,298.1071799968114L172.54142296445633,296.79882920120355L158.86243741608965,299.0415084047466L145.4645269132374,304.3640785250407L144.99606850404675,300.0690749637016L146.2140603679424,292.4974427088397L137.40704227515837,286.8806211944973L139.56195095743533,283.2254753635292L137.96919236618714,278.9096288241227L140.87363450316911,277.688970013941L142.93485150360792,264.0419595552428L140.59255945765472,262.72094630335846L141.90424300338853,257.9977298050643L144.15284336750358,256.10603642644185L149.96172764146752,257.9977298050643L155.48953686991703,253.54998173010088L157.55075387035586,257.8086236771612Z" fill="#122B39" fill-opacity="1" rx="0" ry="0" stroke="rgb(13, 30, 40)" stroke-dasharray="0" stroke-linecap="butt" stroke-opacity="1" stroke-width="1" vector-effect="non-scaling-stroke"></path>
                        <path class="d3plus-Shape d3plus-Path d3plus-id-Cameroon" transform="
        translate(0,0)
        scale(1)
        rotate(0)" aria-label="undefined." role="presentation" opacity="1" shape-rendering="geometricPrecision" pointer-events="visiblePainted" d="M327.69484808839593,279.1912576427093L321.60488876891765,289.2218802369413L320.1058218595076,297.07921913104144L324.50933090589956,308.0963398651119L332.4731238621405,316.2071649552612L333.3163489986836,321.14452709779675L329.943448452511,323.7520597061341L320.386896905022,321.42393210539524L310.3618869483423,321.796461831386L294.9964511268893,320.6788370785964L294.715376081375,321.70333048995286L284.22190771550464,321.70333048995286L282.7228408060946,320.3062712738921L283.47237426079965,312.9452060583795L276.1644230774257,306.41709500707054L273.16628925860556,300.72287711093355L275.2275062590444,292.4974427088397L285.25251621572403,283.4130043133304L289.0938751710873,282.8503890108742L296.214442990785,286.4122056608764L301.6485605373964,275.52825690186296L302.11701894658705,272.0493043359014L306.4268363111409,269.03733430393487L306.89529472033155,264.3249515589278L309.6123534936373,263.00407412484435L309.9871202209898,258.6594918382449L315.7960044949537,249.0941026723823L320.66797195053636,247.29038063460564L321.23012204156515,241.87050747837375L317.66983813171623,240.34671392541344L316.4518462678206,234.43149266515422L319.2625967229644,234.43149266515422L322.54180558729894,238.24970359407047L324.8840976332521,247.00545234146836L324.32194754222337,252.981608146742L328.0696148157485,258.6594918382449L317.48245476804004,259.5100804779117L315.51492944943936,262.24900115570983L325.2588643606046,271.4847868663111Z" fill="#122B39" fill-opacity="1" rx="0" ry="0" stroke="rgb(13, 30, 40)" stroke-dasharray="0" stroke-linecap="butt" stroke-opacity="1" stroke-width="1" vector-effect="non-scaling-stroke"></path>
                        <path class="d3plus-Shape d3plus-Path d3plus-id-Democratic-Republic-of-the-Congo" transform="
        translate(0,0)
        scale(1)
        rotate(0)" aria-label="undefined." role="presentation" opacity="1" shape-rendering="geometricPrecision" pointer-events="visiblePainted" d="M422.323446744905,298.6677975089533L424.9468138363726,302.49708796182944L429.91247297379334,305.0173856554061L432.7232234289372,302.7771750192862L437.0330407934911,304.08406793971307L440.9680914306925,302.7771750192862L444.1536086131888,307.62992622306257L449.21295943244775,311.26711564520855L448.27604261406645,319.56110182182414L452.398476614944,322.6346119697316L441.9986999309118,332.68890697916265L440.21855797598744,338.08686660188755L439.18794947576805,349.81411614364146L433.4727568836422,358.0084522077624L434.784440429376,360.4305820421982L436.47089070246227,362.94652265911543L436.2835073387861,369.7528117838461L437.78257424819606,374.13852743923337L437.2204241571674,377.873631571995L439.28164115760615,383.3878077905775L438.438416021063,386.47482119083804L440.49963302150184,391.6248053230104L445.4652921589226,396.8754014839346L448.46342597774276,403.91971640528556L433.9412152928329,406.1771152819514L429.631397928279,412.2993926336635L432.0673816560703,416.82893392129364L430.28723970114584,432.7461992538967L434.87813211121414,437.60001417312503L440.9680914306925,435.79045624680987L439.18794947576805,444.47160597659064L436.0024322932717,446.19317508003894L430.09985633746965,438.74368945124337L423.8225136543151,436.93315623242063L422.1360633812288,433.887299583161L410.7993698788153,433.79218532187156L405.7400190595564,431.70070562208053L403.95987710463197,428.5671215180976L394.7780922844954,425.4377617069498L387.2827577374452,427.23900739720875L380.5369566451001,425.2482358856638L381.7549485089957,421.36619415306427L378.1009729173087,415.3182521818015L378.7568146901756,405.7066890451321L377.53882282627995,396.687751018271L367.5138128696003,396.687751018271L365.7336709146758,394.43670447760195L359.64371159519754,394.43670447760195L358.33202804946376,402.41567655554144L343.90350904639206,402.509658524886L339.5936916818382,396.78157501768084L336.50186618117993,385.8198211696352L334.2532658170649,385.2584703394411L309.5186618117991,385.2584703394411L303.70977753783524,386.8491512837674L301.74225221923456,384.5101126421688L304.271927628864,379.74215864234213L308.58174499341783,375.6322683288363L310.83034535753296,376.846225326074L318.887829995612,372.73849257743575L319.07521335928817,377.3132037305339L322.54180558729894,377.0330118368685L325.44624772428085,373.20513439140007L330.78667358905415,370.12594611771993L333.4100406805218,365.4632042399885L333.59742404419796,355.6799967547548L338.3756998179425,348.8832176940225L345.58995931947834,343.01936847848543L347.08902622888843,336.0394191716585L346.52687613785963,330.8273771398259L348.1196347291078,321.796461831386L352.42945209366167,314.0637345082346L352.5231437754998,311.3603525886004L353.27267723020486,304.17740626776896L356.17711936718683,299.97566811688677L361.2364701864457,298.2006205428702L368.1696546424671,303.9907281400718L383.1603237365676,305.8572490665708L386.34584091906396,300.6294816812881L390.18719987442717,302.49708796182944L398.71314292169683,298.3874964701447L405.3652523322039,299.0415084047466L407.613852696319,296.2380010922658L414.5470371523404,298.76122777732724Z" fill="#36B7B4" fill-opacity="1" rx="0" ry="0" stroke="rgb(38, 128, 126)" stroke-dasharray="0" stroke-linecap="butt" stroke-opacity="1" stroke-width="1" vector-effect="non-scaling-stroke"></path>
                        <path class="d3plus-Shape d3plus-Path d3plus-id-Republic-of-Congo" transform="
        translate(0,0)
        scale(1)
        rotate(0)" aria-label="undefined." role="presentation" opacity="1" shape-rendering="geometricPrecision" pointer-events="visiblePainted" d="M352.5231437754998,311.3603525886004L352.42945209366167,314.0637345082346L348.1196347291078,321.796461831386L346.52687613785963,330.8273771398259L347.08902622888843,336.0394191716585L345.58995931947834,343.01936847848543L338.3756998179425,348.8832176940225L333.59742404419796,355.6799967547548L333.4100406805218,365.4632042399885L330.78667358905415,370.12594611771993L325.44624772428085,373.20513439140007L322.54180558729894,377.0330118368685L319.07521335928817,377.3132037305339L318.887829995612,372.73849257743575L310.83034535753296,376.846225326074L308.58174499341783,375.6322683288363L306.14576126562656,373.6718125128848L300.14949362798643,378.6209613328521L298.5567350367382,375.16543228248435L293.12261749012674,370.0326605623867L298.74411840041444,366.95495246678604L296.5892097181375,357.44957919836065L308.11328658422724,357.44957919836065L315.0464710402487,358.56735428252045L317.7635298135544,357.2632945071509L319.7310551321551,349.9072084609726L319.9184384958313,343.8569958628298L314.95277935841057,337.34234430959174L319.63736345031697,331.6650804703332L317.3887630862019,327.94172652948026L309.9871202209898,329.24497139424034L310.3618869483423,321.796461831386L320.386896905022,321.42393210539524L329.943448452511,323.7520597061341L333.3163489986836,321.14452709779675L336.2207911356656,311.4535883699236L342.3107504551439,310.24143143923436Z" fill="#122B39" fill-opacity="1" rx="0" ry="0" stroke="rgb(13, 30, 40)" stroke-dasharray="0" stroke-linecap="butt" stroke-opacity="1" stroke-width="1" vector-effect="non-scaling-stroke"></path>
                        <path class="d3plus-Shape d3plus-Path d3plus-id-Comoros" transform="
        translate(0,0)
        scale(1)
        rotate(0)" aria-label="undefined." role="presentation" opacity="1" shape-rendering="geometricPrecision" pointer-events="visiblePainted" fill="#122B39" fill-opacity="1" rx="0" ry="0" stroke="rgb(13, 30, 40)" stroke-dasharray="0" stroke-linecap="butt" stroke-opacity="1" stroke-width="1" vector-effect="non-scaling-stroke"></path>
                        <path class="d3plus-Shape d3plus-Path d3plus-id-Cape-Verde" transform="
        translate(0,0)
        scale(1)
        rotate(0)" aria-label="undefined." role="presentation" opacity="1" shape-rendering="geometricPrecision" pointer-events="visiblePainted" fill="#122B39" fill-opacity="1" rx="0" ry="0" stroke="rgb(13, 30, 40)" stroke-dasharray="0" stroke-linecap="butt" stroke-opacity="1" stroke-width="1" vector-effect="non-scaling-stroke"></path>
                        <path class="d3plus-Shape d3plus-Path d3plus-id-Djibouti" transform="
        translate(0,0)
        scale(1)
        rotate(0)" aria-label="undefined." role="presentation" opacity="1" shape-rendering="geometricPrecision" pointer-events="visiblePainted" d="M547.3081503169675,247.38534879693532L544.778474907338,251.27568311678803L535.8777651327159,251.56008840957048L535.5029984053634,246.91046829392582L540.4686575427842,239.48909931078566L546.3712334985862,237.48663119112996L548.4324504990251,243.20294144104074Z" fill="#122B39" fill-opacity="1" rx="0" ry="0" stroke="rgb(13, 30, 40)" stroke-dasharray="0" stroke-linecap="butt" stroke-opacity="1" stroke-width="1" vector-effect="non-scaling-stroke"></path>
                        <path class="d3plus-Shape d3plus-Path d3plus-id-Algeria" transform="
        translate(0,0)
        scale(1)
        rotate(0)" aria-label="undefined." role="presentation" opacity="1" shape-rendering="geometricPrecision" pointer-events="visiblePainted" d="M273.2599809404437,23.96912293236113L271.6672223491955,26.874320689611352L270.35553880346174,46.34417940238842L264.3592711658215,53.55133123565639L266.5141798480985,60.028052191512586L271.01138057632863,66.12329683745594L276.7265731684544,70.74828785145007L280.47424044197953,87.71345228140652L282.91022416977086,97.78272820940657L282.53545744241836,105.52788614731111L283.753449306314,109.11383629886322L282.0669990332277,114.2586573335322L283.003915851609,121.25046654303821L279.53732362359824,124.67650537162754L284.0345243518284,130.9797548124868L284.50298276101904,135.70823568724265L296.68290139997566,140.82449843340925L299.868418582472,147.3389486688831L290.12448367130673,153.5134452432503L264.3592711658215,169.9566018681451L251.3361273903218,181.65652301627125L238.59405866033643,184.51631505063756L231.37979915880055,185.89478396058658L230.63026570409554,178.98854109219803L220.13679733822522,175.32374217002592L214.23422138242316,170.55405771972437L214.23422138242316,167.96304912253015L187.90685878590926,149.46833542412105L167.01361373600676,134.47673318458067L150.52387773249626,123.63952192851661L136.4701254567771,114.36337368264145L136.4701254567771,111.00691564714879L136.4701254567771,101.9284528929744L144.9023768222086,95.43596541900575L159.61197087079466,93.40440970523537L170.57389764585562,85.12457644041152L176.28909023798144,83.28624096287294L176.1953985561433,74.69271333795922L182.75381628481225,73.27042469784175L185.28349169444166,70.08911447617038L195.30850165112136,70.63846097768334L195.4958850147976,67.66776663916676L191.93560110494874,59.69429708727273L190.99868428656748,45.21218717134121L187.53209205855677,42.033993811293215L213.39099624588002,28.38063921730526L225.94568161218913,27.22219746768144L228.3816653399805,25.24878387555526L242.9975677067284,24.31833640472547L247.12000170760604,26.874320689611352L262.6728208927352,22.687287837416363L267.7321717119941,24.783703301198955Z" fill="#122B39" fill-opacity="1" rx="0" ry="0" stroke="rgb(13, 30, 40)" stroke-dasharray="0" stroke-linecap="butt" stroke-opacity="1" stroke-width="1" vector-effect="non-scaling-stroke"></path>
                        <path class="d3plus-Shape d3plus-Path d3plus-id-Egypt" transform="
        translate(0,0)
        scale(1)
        rotate(0)" aria-label="undefined." role="presentation" opacity="1" shape-rendering="geometricPrecision" pointer-events="visiblePainted" d="M496.9957171698928,160.3583421949746L478.63214752961983,160.3583421949746L452.398476614944,160.3583421949746L428.97555615541205,160.3583421949746L402.83557692257443,160.3583421949746L402.83557692257443,135.19528094813964L402.83557692257443,110.9018410114397L402.83557692257443,97.24989369437338L400.49328487662126,88.46713831625146L402.9292686044126,82.63650777185103L401.89866010419314,77.09434874547088L404.1472604683082,74.58338971684128L421.29283824468564,77.09434874547088L434.87813211121414,82.20308746007305L445.3716004770845,75.8943622804286L452.2110932512678,75.23912418046416L458.76951097993674,79.92413341947332L471.417888028084,79.5980862709514L475.72770539263786,77.74818993102906L480.6933645300586,92.22618883516313L479.1942976206486,100.97336975428624L475.91508875631416,109.95565955544461L470.3872795278646,111.2170310186514L474.322330165066,120.31409031709705L486.12748207667005,143.37372461136124L487.62654898608014,152.40244503012462Z" fill="#122B39" fill-opacity="1" rx="0" ry="0" stroke="rgb(13, 30, 40)" stroke-dasharray="0" stroke-linecap="butt" stroke-opacity="1" stroke-width="1" vector-effect="non-scaling-stroke"></path>
                        <path class="d3plus-Shape d3plus-Path d3plus-id-Eritrea" transform="
        translate(0,0)
        scale(1)
        rotate(0)" aria-label="undefined." role="presentation" opacity="1" shape-rendering="geometricPrecision" pointer-events="visiblePainted" d="M546.3712334985862,237.48663119112996L540.4686575427842,239.48909931078566L528.2887389038275,226.10131350862594L522.4798546298637,223.12418923511072L509.1756358088495,223.6046979757501L504.95951012613375,219.75703146206308L502.4298347165043,226.00535222568817L494.18496671474907,224.85342905121377L493.34174157820587,217.9264634753831L497.46417557908353,208.55019528521197L497.9326339882741,201.7501680284562L508.5197940359826,196.87469149592252L510.5810110364215,194.039643484644L513.204378127889,199.02183051884953L515.6403618556803,209.71301549109208L517.607887174281,213.77642899197264L520.9807877204537,215.0321543440053L522.9483130390543,218.98649897713523L530.818414313457,221.7780856943226L534.9408483143346,227.4442537629971L539.8128157699173,230.41451666630843L543.5604830434424,236.0551069028366Z" fill="#122B39" fill-opacity="1" rx="0" ry="0" stroke="rgb(13, 30, 40)" stroke-dasharray="0" stroke-linecap="butt" stroke-opacity="1" stroke-width="1" vector-effect="non-scaling-stroke"></path>
                        <path class="d3plus-Shape d3plus-Path d3plus-id-Spain" transform="
        translate(0,0)
        scale(1)
        rotate(0)" aria-label="undefined." role="presentation" opacity="1" shape-rendering="geometricPrecision" pointer-events="visiblePainted" d="M77.63174926243283,102.77660603926117L73.2282402160408,107.95513455423205L71.26071489744015,104.78793765170994Z" fill="#122B39" fill-opacity="1" rx="0" ry="0" stroke="rgb(13, 30, 40)" stroke-dasharray="0" stroke-linecap="butt" stroke-opacity="1" stroke-width="1" vector-effect="non-scaling-stroke"></path>
                        <path class="d3plus-Shape d3plus-Path d3plus-id-Ethiopia" transform="
        translate(0,0)
        scale(1)
        rotate(0)" aria-label="undefined." role="presentation" opacity="1" shape-rendering="geometricPrecision" pointer-events="visiblePainted" d="M540.4686575427842,239.48909931078566L535.5029984053634,246.91046829392582L535.8777651327159,251.56008840957048L544.778474907338,251.27568311678803L544.1226331344711,257.6195035931672L548.7135255445394,264.0419595552428L553.4918013182839,267.43598879274214L576.914721777816,275.4342807677906L584.7848230522186,275.4342807677906L572.7922877769383,287.06797190963505L560.799752501658,299.97566811688677L553.1170345909314,299.60202421971445L546.3712334985862,302.03024536061065L543.7478664071186,304.9240603925881L536.6272985874209,307.35006222257635L530.4436475861045,307.5366395487749L527.7265888127988,304.9240603925881L520.5123293112629,308.2828961889423L517.2331204469285,311.4535883699236L506.64596039922003,310.24143143923436L496.71464212437854,303.80404411011364L489.4066909410045,302.31035556708673L488.46977412262333,296.70536233059426L482.8482732123356,294.27458472728006L480.0375227571918,286.2248238640088L471.9800381191128,278.06460389223787L466.63961225433945,276.9375767404978L467.67022075455884,272.1433805584339L473.9475634377135,271.7670585118816L474.79078857425657,263.7589386554717L476.38354716550475,254.78100449312666L481.7239730302781,249.0941026723823L486.97070721321313,238.53578334478078L490.9994495322527,237.39122731556228L494.18496671474907,224.85342905121377L502.4298347165043,226.00535222568817L504.95951012613375,219.75703146206308L509.1756358088495,223.6046979757501L522.4798546298637,223.12418923511072L528.2887389038275,226.10131350862594Z" fill="#122B39" fill-opacity="1" rx="0" ry="0" stroke="rgb(13, 30, 40)" stroke-dasharray="0" stroke-linecap="butt" stroke-opacity="1" stroke-width="1" vector-effect="non-scaling-stroke"></path>
                        <path class="d3plus-Shape d3plus-Path d3plus-id-French-Southern-and-Antarctic-Lands" transform="
        translate(0,0)
        scale(1)
        rotate(0)" aria-label="undefined." role="presentation" opacity="1" shape-rendering="geometricPrecision" pointer-events="visiblePainted" fill="#122B39" fill-opacity="1" rx="0" ry="0" stroke="rgb(13, 30, 40)" stroke-dasharray="0" stroke-linecap="butt" stroke-opacity="1" stroke-width="1" vector-effect="non-scaling-stroke"></path>
                        <path class="d3plus-Shape d3plus-Path d3plus-id-Gabon" transform="
        translate(0,0)
        scale(1)
        rotate(0)" aria-label="undefined." role="presentation" opacity="1" shape-rendering="geometricPrecision" pointer-events="visiblePainted" d="M310.3618869483423,321.796461831386L309.9871202209898,329.24497139424034L317.3887630862019,327.94172652948026L319.63736345031697,331.6650804703332L314.95277935841057,337.34234430959174L319.9184384958313,343.8569958628298L319.7310551321551,349.9072084609726L317.7635298135544,357.2632945071509L315.0464710402487,358.56735428252045L308.11328658422724,357.44957919836065L296.5892097181375,357.44957919836065L298.74411840041444,366.95495246678604L293.12261749012674,370.0326605623867L289.28125853476354,365.0903127406503L283.47237426079965,360.2442434094681L278.3193317597026,352.9795394331992L274.7590478498537,344.69464026711614L278.5067151233788,342.0886878684643L278.78779016889325,333.99191399461233L282.7228408060946,331.0135357077733L294.9027594450512,330.9204565913378L294.715376081375,321.70333048995286L294.9964511268893,320.6788370785964Z" fill="#122B39" fill-opacity="1" rx="0" ry="0" stroke="rgb(13, 30, 40)" stroke-dasharray="0" stroke-linecap="butt" stroke-opacity="1" stroke-width="1" vector-effect="non-scaling-stroke"></path>
                        <path class="d3plus-Shape d3plus-Path d3plus-id-Ghana" transform="
        translate(0,0)
        scale(1)
        rotate(0)" aria-label="undefined." role="presentation" opacity="1" shape-rendering="geometricPrecision" pointer-events="visiblePainted" d="M203.83444469839097,250.23257149118575L204.39659478941977,254.11822280837544L208.05057038110672,256.8628830172775L208.05057038110672,269.1315039946494L210.01809569970743,271.4847868663111L210.2991707452218,280.78672506444013L209.26856224500239,284.72544443828025L214.51529642793756,290.532405536448L198.8687855609702,297.5465003144683L188.65639224061428,301.37660012037054L180.50521592069714,298.5743655376311L180.50521592069714,298.3874964701447L182.6601246029741,298.1071799968114L179.38091573863963,286.4122056608764L182.6601246029741,276.8436407340823L185.28349169444166,273.64821498945537L183.87811646686976,263.47588874635875L183.4096580576791,251.37048865890367L201.02369424324715,251.37048865890367Z" fill="#122B39" fill-opacity="1" rx="0" ry="0" stroke="rgb(13, 30, 40)" stroke-dasharray="0" stroke-linecap="butt" stroke-opacity="1" stroke-width="1" vector-effect="non-scaling-stroke"></path>
                        <path class="d3plus-Shape d3plus-Path d3plus-id-Guinea" transform="
        translate(0,0)
        scale(1)
        rotate(0)" aria-label="undefined." role="presentation" opacity="1" shape-rendering="geometricPrecision" pointer-events="visiblePainted" d="M115.01473031584582,239.96559490027315L120.35515618061912,244.05907565032464L123.91544009046797,241.4896609098455L128.22525745502185,243.01264383534755L134.0341417289858,240.0608810972185L135.1584419110433,245.9604080848942L139.46825927559718,251.46529042173273L141.90424300338853,257.9977298050643L140.59255945765472,262.72094630335846L142.93485150360792,264.0419595552428L140.87363450316911,277.688970013941L137.96919236618714,278.9096288241227L134.50260013817643,281.34965944658194L130.47385781913692,279.9421561942297L130.56754950097505,275.152336100619L128.50633250053625,271.4847868663111L123.82174840862984,271.4847868663111L120.72992290797163,264.8908493307796L115.9516471342271,259.4155843366268L106.20771222306182,260.45485488456575L104.61495363181363,263.947622471587L99.93036953990725,267.059073845515L97.30700244843966,262.15460227156007L89.15582612852256,255.25431114207151L86.25138399154059,251.56008840957048L88.9684427648463,247.1954085074735L96.55746899373466,245.5802715290966L96.55746899373466,237.7728163399695L101.71051149483168,238.05896186497716L107.33201240511934,240.72776441445814Z" fill="#122B39" fill-opacity="1" rx="0" ry="0" stroke="rgb(13, 30, 40)" stroke-dasharray="0" stroke-linecap="butt" stroke-opacity="1" stroke-width="1" vector-effect="non-scaling-stroke"></path>
                        <path class="d3plus-Shape d3plus-Path d3plus-id-Gambia" transform="
        translate(0,0)
        scale(1)
        rotate(0)" aria-label="undefined." role="presentation" opacity="1" shape-rendering="geometricPrecision" pointer-events="visiblePainted" d="M72.57239844317397,234.6225740539382L74.071465352584,230.3187736526262L82.31633335433922,230.41451666630843L79.88034962654791,233.8581389601066Z" fill="#122B39" fill-opacity="1" rx="0" ry="0" stroke="rgb(13, 30, 40)" stroke-dasharray="0" stroke-linecap="butt" stroke-opacity="1" stroke-width="1" vector-effect="non-scaling-stroke"></path>
                        <path class="d3plus-Shape d3plus-Path d3plus-id-Equatorial-Guinea" transform="
        translate(0,0)
        scale(1)
        rotate(0)" aria-label="undefined." role="presentation" opacity="1" shape-rendering="geometricPrecision" pointer-events="visiblePainted" fill="#122B39" fill-opacity="1" rx="0" ry="0" stroke="rgb(13, 30, 40)" stroke-dasharray="0" stroke-linecap="butt" stroke-opacity="1" stroke-width="1" vector-effect="non-scaling-stroke"></path>
                        <path class="d3plus-Shape d3plus-Path d3plus-id-Guinea-Bissau" transform="
        translate(0,0)
        scale(1)
        rotate(0)" aria-label="undefined." role="presentation" opacity="1" shape-rendering="geometricPrecision" pointer-events="visiblePainted" d="M86.25138399154059,251.56008840957048L83.62801690007304,250.13772026226104L81.84787494514859,244.4394726256923L78.75604944449037,245.10500983562463L72.75978180685019,240.537247719351L81.09834149044357,239.67971048515352L84.9397004458068,237.67742569890572L96.55746899373466,237.7728163399695L96.55746899373466,245.5802715290966L88.9684427648463,247.1954085074735Z" fill="#122B39" fill-opacity="1" rx="0" ry="0" stroke="rgb(13, 30, 40)" stroke-dasharray="0" stroke-linecap="butt" stroke-opacity="1" stroke-width="1" vector-effect="non-scaling-stroke"></path>
                        <path class="d3plus-Shape d3plus-Path d3plus-id-Equatorial-Guinea" transform="
        translate(0,0)
        scale(1)
        rotate(0)" aria-label="undefined." role="presentation" opacity="1" shape-rendering="geometricPrecision" pointer-events="visiblePainted" fill="#122B39" fill-opacity="1" rx="0" ry="0" stroke="rgb(13, 30, 40)" stroke-dasharray="0" stroke-linecap="butt" stroke-opacity="1" stroke-width="1" vector-effect="non-scaling-stroke"></path>
                        <path class="d3plus-Shape d3plus-Path d3plus-id-Equatorial-Guinea" transform="
        translate(0,0)
        scale(1)
        rotate(0)" aria-label="undefined." role="presentation" opacity="1" shape-rendering="geometricPrecision" pointer-events="visiblePainted" d="M294.715376081375,321.70333048995286L294.9027594450512,330.9204565913378L282.7228408060946,331.0135357077733L279.6310153054364,328.68644824650585L282.7228408060946,323.8451761131025L282.7228408060946,320.3062712738921L284.22190771550464,321.70333048995286Z" fill="#122B39" fill-opacity="1" rx="0" ry="0" stroke="rgb(13, 30, 40)" stroke-dasharray="0" stroke-linecap="butt" stroke-opacity="1" stroke-width="1" vector-effect="non-scaling-stroke"></path>
                        <path class="d3plus-Shape d3plus-Path d3plus-id-French-Southern-and-Antarctic-Lands" transform="
        translate(0,0)
        scale(1)
        rotate(0)" aria-label="undefined." role="presentation" opacity="1" shape-rendering="geometricPrecision" pointer-events="visiblePainted" fill="#122B39" fill-opacity="1" rx="0" ry="0" stroke="rgb(13, 30, 40)" stroke-dasharray="0" stroke-linecap="butt" stroke-opacity="1" stroke-width="1" vector-effect="non-scaling-stroke"></path>
                        <path class="d3plus-Shape d3plus-Path d3plus-id-Kenya" transform="
        translate(0,0)
        scale(1)
        rotate(0)" aria-label="undefined." role="presentation" opacity="1" shape-rendering="geometricPrecision" pointer-events="visiblePainted" d="M489.4066909410045,302.31035556708673L496.71464212437854,303.80404411011364L506.64596039922003,310.24143143923436L517.2331204469285,311.4535883699236L520.5123293112629,308.2828961889423L527.7265888127988,304.9240603925881L530.4436475861045,307.5366395487749L536.6272985874209,307.35006222257635L529.319347404047,316.57988246246725L529.4130390858852,345.7184551572607L533.816548132277,352.3277834967034L528.8508889948563,355.3074865991737L528.1950472219894,357.63586702452847L523.0420047208924,360.7100968249905L522.66723799354,364.6242232508334L518.0763455834716,373.765152537847L515.2655951283278,375.9123885947725L504.02259330775246,367.79419327830345L502.9919848075331,362.94652265911543L483.6914983488788,352.1415726801898L473.3854133466847,346.83538413386304L473.3854133466847,337.9938014721434L481.9113563939543,325.614271942497L481.5365896666018,319.2816499439492L477.69523071123854,313.87732375828585L474.0412551195516,305.4839905719219L477.22677230204795,302.31035556708673L484.0662650762313,299.415192309253Z" fill="#122B39" fill-opacity="1" rx="0" ry="0" stroke="rgb(13, 30, 40)" stroke-dasharray="0" stroke-linecap="butt" stroke-opacity="1" stroke-width="1" vector-effect="non-scaling-stroke"></path>
                        <path class="d3plus-Shape d3plus-Path d3plus-id-Liberia" transform="
        translate(0,0)
        scale(1)
        rotate(0)" aria-label="undefined." role="presentation" opacity="1" shape-rendering="geometricPrecision" pointer-events="visiblePainted" d="M137.96919236618714,278.9096288241227L139.56195095743533,283.2254753635292L137.40704227515837,286.8806211944973L146.2140603679424,292.4974427088397L144.99606850404675,300.0690749637016L145.4645269132374,304.3640785250407L139.84302600294973,302.5904518482846L131.69184968303256,298.1071799968114L122.88483159024857,289.8771938608943L115.29580536136022,285.7563301294792L114.35888854297895,283.9755346473469L121.19838131716226,277.21936892237693L123.82174840862984,271.4847868663111L128.50633250053625,271.4847868663111L130.56754950097505,275.152336100619L130.47385781913692,279.9421561942297L134.50260013817643,281.34965944658194Z" fill="#122B39" fill-opacity="1" rx="0" ry="0" stroke="rgb(13, 30, 40)" stroke-dasharray="0" stroke-linecap="butt" stroke-opacity="1" stroke-width="1" vector-effect="non-scaling-stroke"></path>
                        <path class="d3plus-Shape d3plus-Path d3plus-id-Libya" transform="
        translate(0,0)
        scale(1)
        rotate(0)" aria-label="undefined." role="presentation" opacity="1" shape-rendering="geometricPrecision" pointer-events="visiblePainted" d="M404.1472604683082,74.58338971684128L401.89866010419314,77.09434874547088L402.9292686044126,82.63650777185103L400.49328487662126,88.46713831625146L402.83557692257443,97.24989369437338L402.83557692257443,110.9018410114397L402.83557692257443,135.19528094813964L402.83557692257443,160.3583421949746L402.74188524073634,177.30597332046676L394.87178396633357,177.30597332046676L394.87178396633357,181.55780269520034L371.4488635068016,169.15955735312843L359.7374032770357,162.96524001681834L331.62989872559734,147.9477504635031L323.6661057693565,151.79599793622899L317.7635298135544,155.02674849134436L311.8609538577523,150.2784901011602L299.868418582472,147.3389486688831L296.68290139997566,140.82449843340925L284.50298276101904,135.70823568724265L284.0345243518284,130.9797548124868L279.53732362359824,124.67650537162754L283.003915851609,121.25046654303821L282.0669990332277,114.2586573335322L283.753449306314,109.11383629886322L282.53545744241836,105.52788614731111L282.91022416977086,97.78272820940657L280.47424044197953,87.71345228140652L286.3768163977816,81.44409037137461L285.15882453388593,76.87629256059637L291.1550921715261,70.08911447617038L295.74598458159437,67.88817495028684L296.214442990785,60.25048085334737L302.8665524012921,63.57978417765128L310.83034535753296,62.91498711677809L325.35255604244276,67.77797796848517L327.69484808839593,74.47405225927787L332.098357134788,78.07492677465598L342.5918255006583,79.8154644913015L348.96285986565096,82.63650777185103L355.24020254880554,87.28249123899869L358.14464468578745,87.06693325368312L363.672453914237,82.3114624369764L362.82922877769386,74.03656390228377L367.88857959695275,66.12329683745594L376.133447598708,62.69327042303547L387.844907828474,65.34999956308741L387.93859951031214,68.32881956980384L395.80870078471486,71.29721054202253L402.83557692257443,71.62639511064344Z" fill="#122B39" fill-opacity="1" rx="0" ry="0" stroke="rgb(13, 30, 40)" stroke-dasharray="0" stroke-linecap="butt" stroke-opacity="1" stroke-width="1" vector-effect="non-scaling-stroke"></path>
                        <path class="d3plus-Shape d3plus-Path d3plus-id-Lesotho" transform="
        translate(0,0)
        scale(1)
        rotate(0)" aria-label="undefined." role="presentation" opacity="1" shape-rendering="geometricPrecision" pointer-events="visiblePainted" d="M434.50336538386165,577.953134090408L438.06364929371057,581.8948401114616L435.8150489295955,587.1409542681893L429.631397928279,589.3985590029854L427.1017225186496,593.8226489890175L421.66760497203813,590.583369397368L418.95054619873235,584.4606160676009L424.7594304726963,577.953134090408L431.97368997423223,575.1931764449693Z" fill="#122B39" fill-opacity="1" rx="0" ry="0" stroke="rgb(13, 30, 40)" stroke-dasharray="0" stroke-linecap="butt" stroke-opacity="1" stroke-width="1" vector-effect="non-scaling-stroke"></path>
                        <path class="d3plus-Shape d3plus-Path d3plus-id-Morocco" transform="
        translate(0,0)
        scale(1)
        rotate(0)" aria-label="undefined." role="presentation" opacity="1" shape-rendering="geometricPrecision" pointer-events="visiblePainted" d="M162.42272132593848,33.91687327942526L162.89117973512913,34.72092420108373L167.38838046335928,40.55404556624609L170.57389764585562,41.46511212964748L181.81689946643095,39.755994869467486L182.09797451194535,40.212123187786574L187.53209205855677,42.033993811293215L190.99868428656748,45.21218717134121L191.93560110494874,59.69429708727273L195.4958850147976,67.66776663916676L195.30850165112136,70.63846097768334L185.28349169444166,70.08911447617038L182.75381628481225,73.27042469784175L176.1953985561433,74.69271333795922L176.28909023798144,83.28624096287294L170.57389764585562,85.12457644041152L159.61197087079466,93.40440970523537L144.9023768222086,95.43596541900575L136.4701254567771,101.9284528929744L136.4701254567771,111.00691564714879L135.9079753657483,115.2007060051175L128.13156577318372,118.12583235741181L118.76239758937093,116.7688040680627L112.39136322437825,124.78014624455852L109.95537949658693,125.40177281565124L106.76986231409059,135.9133492635137L101.80420317666982,139.70097376986453L99.83667785806914,143.37372461136124L94.49625199329584,147.3389486688831L92.62241835653327,157.7458172738914L87.75045090095064,165.0667704615059L70.51118144273514,165.2667299735527L72.10394003398329,159.25373564329158L81.5667998996342,142.96624135878588L87.18830080992188,137.24563992806424L88.2189093101413,130.56758727266958L91.12335144712324,123.43199951075894L97.4006941302778,119.58519851561522L102.55373663137483,108.69265066199313L114.26519686114082,104.9994099646157L121.47945636267664,99.06028987752893L128.78740754605062,88.68236158133249L127.19464895480245,76.87629256059637L131.0360079101657,71.07768376843637L131.87923304670883,66.0128692870511L139.93671768478782,58.13498785638404L151.17971950536315,52.09258010546813L155.3958451880789,44.078581203405065L158.30028732506088,35.29473540552971Z" fill="#122B39" fill-opacity="1" rx="0" ry="0" stroke="rgb(13, 30, 40)" stroke-dasharray="0" stroke-linecap="butt" stroke-opacity="1" stroke-width="1" vector-effect="non-scaling-stroke"></path>
                        <path class="d3plus-Shape d3plus-Path d3plus-id-Madagascar" transform="
        translate(0,0)
        scale(1)
        rotate(0)" aria-label="undefined." role="presentation" opacity="1" shape-rendering="geometricPrecision" pointer-events="visiblePainted" d="M595.6530581454415,435.21933404184966L600.337642237348,442.9425777338575L603.0547010106535,457.9993010027415L604.7411512837399,461.56589972368977L602.679934283301,466.7846038924708L597.9016585095565,463.40026824501217L599.5881087826427,471.72857794319555L596.3088999183084,477.75971548623426L595.7467498272796,487.24398354528785L589.375715462287,505.3126447942525L584.2226729611899,521.5210157191715L581.5993058697223,533.2636287606015L578.1327136417115,542.4594057409078L565.1095698662118,548.3240890544985L556.2088600915897,545.542047317423L553.5854930001221,543.2805759868502L550.587359181302,536.2183347973511L550.0252090902733,526.5678415024419L547.1207669532912,519.6088696370566L549.1819839537301,512.2902347613322L557.1457769099709,499.6587079016482L556.9583935462947,495.5080014909292L553.6791846819602,487.24398354528785L552.835959545417,479.22241277356875L560.1439107287911,469.01237225320597L571.7616792767188,464.0765884106148L583.0046810972941,455.6896922897475L584.5037480067043,450.79153136638575L591.1558574172113,445.71481003114275L592.5612326447832,441.12836510754903L591.0621657353732,438.1717740628155Z" fill="#122B39" fill-opacity="1" rx="0" ry="0" stroke="rgb(13, 30, 40)" stroke-dasharray="0" stroke-linecap="butt" stroke-opacity="1" stroke-width="1" vector-effect="non-scaling-stroke"></path>
                        <path class="d3plus-Shape d3plus-Path d3plus-id-Mali" transform="
        translate(0,0)
        scale(1)
        rotate(0)" aria-label="undefined." role="presentation" opacity="1" shape-rendering="geometricPrecision" pointer-events="visiblePainted" d="M238.59405866033643,184.51631505063756L238.21929193298388,207.19251572645865L235.78330820519255,212.9065325537448L232.8788660682106,215.9009593545144L215.73328829183322,216.47991770453268L212.82884615485125,218.8901586583228L206.9262701990492,219.56442995351483L199.1498606064846,218.21562790483296L189.12485064980493,225.33348425514492L182.6601246029741,226.5810457604938L179.47460742047775,232.71093540993144L173.66572314651384,231.85009481951795L170.29282260034122,240.72776441445814L164.29655496270107,243.67861287281335L161.48580450755725,255.91678920880855L157.55075387035586,257.8086236771612L155.48953686991703,253.54998173010088L149.96172764146752,257.9977298050643L144.15284336750358,256.10603642644185L141.90424300338853,257.9977298050643L139.46825927559718,251.46529042173273L135.1584419110433,245.9604080848942L134.0341417289858,240.0608810972185L128.22525745502185,243.01264383534755L123.91544009046797,241.4896609098455L120.35515618061912,244.05907565032464L115.01473031584582,239.96559490027315L114.54627190665519,234.52703563639693L110.23645454210131,230.70171724674518L110.23645454210131,225.62145750024035L108.08154585982437,220.6234787449249L110.42383790577756,220.6234787449249L112.39136322437825,214.3561103124647L127.28834063664058,215.80444728506558L131.12969959200382,214.74245417177693L161.57949618939534,214.74245417177693L162.797488053291,208.0654408856939L160.64257937101408,206.22204146541375L157.2696788248415,174.13296521715586L155.48953686991703,157.7458172738914L152.9598614602876,134.47673318458067L167.01361373600676,134.47673318458067L187.90685878590926,149.46833542412105L214.23422138242316,167.96304912253015L214.23422138242316,170.55405771972437L220.13679733822522,175.32374217002592L230.63026570409554,178.98854109219803L231.37979915880055,185.89478396058658Z" fill="#122B39" fill-opacity="1" rx="0" ry="0" stroke="rgb(13, 30, 40)" stroke-dasharray="0" stroke-linecap="butt" stroke-opacity="1" stroke-width="1" vector-effect="non-scaling-stroke"></path>
                        <path class="d3plus-Shape d3plus-Path d3plus-id-Mozambique" transform="
        translate(0,0)
        scale(1)
        rotate(0)" aria-label="undefined." role="presentation" opacity="1" shape-rendering="geometricPrecision" pointer-events="visiblePainted" d="M465.4216203904439,559.5274139732728L459.2379693891274,559.4231124496631L457.9262858433936,551.6309026194278L458.30105257074615,538.2606635753629L454.553385297221,529.5050854477456L452.77324334229655,520.8161835369617L461.5802614350806,511.39094822887773L462.0487198442712,506.20762155006105L466.54592057250136,498.66928177337724L464.4847035720625,495.11335890511L466.26484552698696,487.63641103946634L466.45222889066315,478.44213223098046L465.515312072282,472.9912458835979L457.64521079787926,470.6609490486066L452.4921682967822,467.3654688024671L445.746367204437,467.1718243801241L445.6526755225988,464.1732277324037L444.247300295027,458.76983993564625L467.85760411823514,450.88744901175176L471.0431213007315,455.01661729161646L476.94569725653355,453.9594333975671L478.7258392114579,461.1799675603854L476.00878043815226,466.2039434839656L477.22677230204795,468.72162130846647L483.7851900307169,471.1461464534035L488.3760824407851,467.1718243801241L488.8445408499757,456.2668142435112L481.2555146210874,446.9588034355006L478.5384558477816,445.2365617496541L476.94569725653355,436.1712885153937L479.3816809843248,431.03564523579416L481.8176647121162,431.03564523579416L491.5615996232815,432.0808285141065L496.52725876070224,431.03564523579416L501.3055345344468,432.27091417825045L504.86581844429566,429.0416316268801L509.7377858998783,429.80105085529135L521.7303211751587,424.96397510638474L525.1032217213312,422.21782773897974L526.4149052670649,424.96397510638474L524.7284549939786,429.13654533306544L525.9464468578743,434.4580718663275L526.5085969489031,451.94286847211174L528.2887389038275,454.53600285941377L526.2275219033887,463.1104995690262L520.0438709020723,470.9520498386528L514.5160616736229,475.2276821802336L505.14689348981005,478.3446253842287L500.2749260342274,481.0771994541259L491.936366350634,491.07477949049303L487.34547394056574,493.1418475453611L481.1618229392493,499.26284945161603L479.5690643480011,503.3260235012584L486.03379039483195,518.603704504724L485.75271534931755,536.0143096648949L482.9419648941737,539.7949085786711L472.0737298009509,544.2051445906989L465.2342370267676,548.0146106714687L463.7351701173575,553.703024960156Z" fill="#122B39" fill-opacity="1" rx="0" ry="0" stroke="rgb(13, 30, 40)" stroke-dasharray="0" stroke-linecap="butt" stroke-opacity="1" stroke-width="1" vector-effect="non-scaling-stroke"></path>
                        <path class="d3plus-Shape d3plus-Path d3plus-id-Mauritania" transform="
        translate(0,0)
        scale(1)
        rotate(0)" aria-label="undefined." role="presentation" opacity="1" shape-rendering="geometricPrecision" pointer-events="visiblePainted" d="M108.08154585982437,220.6234787449249L91.685501538152,205.34810912094756L76.03899067118468,206.51324562183393L74.25884871626025,212.13291158648275L74.91469048912714,205.2509758046822L78.38128271713786,194.33317677721408L76.97590748956594,185.7963672150066L74.82099880728899,183.43226799693812L76.97590748956594,175.5220996760944L75.47684058015591,172.54356555731334L70.23010639722071,170.85268078064718L70.97963985192578,166.06624639890381L102.17896990402232,166.06624639890381L102.17896990402232,151.59377849777158L110.04907117842507,147.54191880081902L110.04907117842507,125.71244582030155L136.4701254567771,125.60889852606914L136.4701254567771,114.36337368264145L150.52387773249626,123.63952192851661L167.01361373600676,134.47673318458067L152.9598614602876,134.47673318458067L155.48953686991703,157.7458172738914L157.2696788248415,174.13296521715586L160.64257937101408,206.22204146541375L162.797488053291,208.0654408856939L161.57949618939534,214.74245417177693L131.12969959200382,214.74245417177693L127.28834063664058,215.80444728506558L112.39136322437825,214.3561103124647L110.42383790577756,220.6234787449249Z" fill="#122B39" fill-opacity="1" rx="0" ry="0" stroke="rgb(13, 30, 40)" stroke-dasharray="0" stroke-linecap="butt" stroke-opacity="1" stroke-width="1" vector-effect="non-scaling-stroke"></path>
                        <path class="d3plus-Shape d3plus-Path d3plus-id-Malawi" transform="
        translate(0,0)
        scale(1)
        rotate(0)" aria-label="undefined." role="presentation" opacity="1" shape-rendering="geometricPrecision" pointer-events="visiblePainted" d="M481.8176647121162,431.03564523579416L479.3816809843248,431.03564523579416L476.94569725653355,436.1712885153937L478.5384558477816,445.2365617496541L481.2555146210874,446.9588034355006L488.8445408499757,456.2668142435112L488.3760824407851,467.1718243801241L483.7851900307169,471.1461464534035L477.22677230204795,468.72162130846647L476.00878043815226,466.2039434839656L478.7258392114579,461.1799675603854L476.94569725653355,453.9594333975671L471.0431213007315,455.01661729161646L467.85760411823514,450.88744901175176L464.10993684471,447.2459919754902L466.26484552698696,444.3760073079817L468.32606252742573,435.12416167454876L468.51344589110204,425.7220784772723L471.6052713917603,423.0697522530741L467.67022075455884,415.2238626549996L465.60900375412007,413.61973888202317L469.45036270948333,415.2238626549996L474.322330165066,414.18579331693115L477.97630575675294,417.96250709945315L478.9132225751342,426.575231745911Z" fill="#122B39" fill-opacity="1" rx="0" ry="0" stroke="rgb(13, 30, 40)" stroke-dasharray="0" stroke-linecap="butt" stroke-opacity="1" stroke-width="1" vector-effect="non-scaling-stroke"></path>
                        <path class="d3plus-Shape d3plus-Path d3plus-id-Mayotte" transform="
        translate(0,0)
        scale(1)
        rotate(0)" aria-label="undefined." role="presentation" opacity="1" shape-rendering="geometricPrecision" pointer-events="visiblePainted" fill="#122B39" fill-opacity="1" rx="0" ry="0" stroke="rgb(13, 30, 40)" stroke-dasharray="0" stroke-linecap="butt" stroke-opacity="1" stroke-width="1" vector-effect="non-scaling-stroke"></path>
                        <path class="d3plus-Shape d3plus-Path d3plus-id-Namibia" transform="
        translate(0,0)
        scale(1)
        rotate(0)" aria-label="undefined." role="presentation" opacity="1" shape-rendering="geometricPrecision" pointer-events="visiblePainted" d="M390.18719987442717,480.6865273933304L396.83930928493425,479.4175458030661L402.64819355889824,480.00309646721695L404.9904856048514,481.95658606830557L395.5276257392005,484.6958065959568L392.24841687486605,487.5382940860135L389.1565913742078,483.71692728527L371.1677884612873,486.3614136180866L371.07409677944906,517.398613640074L363.20399550504635,517.398613640074L363.29768718688456,541.1263375759215L363.29768718688456,573.6045489576115L356.17711936718683,578.484825054317L342.8729005461727,576.1476325461738L342.40444213698197,571.8073008361373L338.84415822713316,570.5406818568249L335.6586410446368,574.9812057588102L329.2876066796441,569.381076125909L326.1957811789859,563.7084327652353L322.6354972691371,549.9761853443865L322.0733471781083,541.5363371820114L319.5436717684788,534.4853156613276L319.9184384958313,522.1254912256729L311.1114204030473,507.30233044076294L309.2375867662848,501.7389040253184L302.3980939921014,489.50191731848207L298.9315017640907,484.89166122626307L298.27565999122385,477.46734464808674L304.4593109925402,477.36990013022483L310.9240370393711,475.13037916272776L315.51492944943936,478.8322222659253L336.50186618117993,478.63716470903654L351.1177685479279,478.63716470903654L353.64744395755736,481.5656834111862L369.7624132337153,484.0105223139509L374.35330564378353,483.8147857608267Z" fill="#122B39" fill-opacity="1" rx="0" ry="0" stroke="rgb(13, 30, 40)" stroke-dasharray="0" stroke-linecap="butt" stroke-opacity="1" stroke-width="1" vector-effect="non-scaling-stroke"></path>
                        <path class="d3plus-Shape d3plus-Path d3plus-id-Niger" transform="
        translate(0,0)
        scale(1)
        rotate(0)" aria-label="undefined." role="presentation" opacity="1" shape-rendering="geometricPrecision" pointer-events="visiblePainted" d="M323.6661057693565,151.79599793622899L325.2588643606046,164.5667304892742L331.34882368008294,174.13296521715586L329.6623734069966,178.09803470696818L327.41377304288153,203.40430447604766L318.887829995612,212.61646671006176L311.57987881223795,223.8929423548375L312.7978706761336,229.3610814700089L300.4305686735008,234.0492751539424L295.6522928997562,232.13708363233442L289.65602526211603,232.04142536623283L283.753449306314,233.9537093472643L281.4111572603608,236.53239298747673L273.8221310314725,235.76868149791028L266.5141798480985,232.42403045544742L259.7683787557533,235.10019799216275L255.55225307303755,230.03151608789437L249.08752702620671,228.01950566276463L240.84265902445148,229.4568721960431L237.84452520563138,231.27599074005087L237.46975847827886,235.10019799216275L234.00316625026815,238.9171618911899L233.62839952291563,245.6753117215813L227.63213188527544,239.96559490027315L224.07184797542658,244.05907565032464L221.54217256579713,240.72776441445814L212.82884615485125,234.52703563639693L206.36412010802044,222.54741066029982L206.9262701990492,219.56442995351483L212.82884615485125,218.8901586583228L215.73328829183322,216.47991770453268L232.8788660682106,215.9009593545144L235.78330820519255,212.9065325537448L238.21929193298388,207.19251572645865L238.59405866033643,184.51631505063756L251.3361273903218,181.65652301627125L264.3592711658215,169.9566018681451L290.12448367130673,153.5134452432503L299.868418582472,147.3389486688831L311.8609538577523,150.2784901011602L317.7635298135544,155.02674849134436Z" fill="#122B39" fill-opacity="1" rx="0" ry="0" stroke="rgb(13, 30, 40)" stroke-dasharray="0" stroke-linecap="butt" stroke-opacity="1" stroke-width="1" vector-effect="non-scaling-stroke"></path>
                        <path class="d3plus-Shape d3plus-Path d3plus-id-Nigeria" transform="
        translate(0,0)
        scale(1)
        rotate(0)" aria-label="undefined." role="presentation" opacity="1" shape-rendering="geometricPrecision" pointer-events="visiblePainted" d="M312.7978706761336,229.3610814700089L316.4518462678206,234.43149266515422L317.66983813171623,240.34671392541344L321.23012204156515,241.87050747837375L320.66797195053636,247.29038063460564L315.7960044949537,249.0941026723823L309.9871202209898,258.6594918382449L309.6123534936373,263.00407412484435L306.89529472033155,264.3249515589278L306.4268363111409,269.03733430393487L302.11701894658705,272.0493043359014L301.6485605373964,275.52825690186296L296.214442990785,286.4122056608764L289.0938751710873,282.8503890108742L285.25251621572403,283.4130043133304L275.2275062590444,292.4974427088397L273.16628925860556,300.72287711093355L270.8239972126524,302.7771750192862L261.92328743803023,302.40372253609195L260.33052884678204,304.17740626776896L253.49103607259872,305.0173856554061L249.4622937535592,302.12361698333194L244.77770966165284,292.4974427088397L239.9994338879083,288.4728237692318L233.159941113725,287.72363026570315L226.50783170321793,288.3791821178973L226.32044833954166,276.2799689772751L227.0699817942467,266.87059792758805L232.97255775004874,260.54931371755197L235.50223315967818,254.49697703597934L232.69148270453437,248.1449518823927L233.62839952291563,245.6753117215813L234.00316625026815,238.9171618911899L237.46975847827886,235.10019799216275L237.84452520563138,231.27599074005087L240.84265902445148,229.4568721960431L249.08752702620671,228.01950566276463L255.55225307303755,230.03151608789437L259.7683787557533,235.10019799216275L266.5141798480985,232.42403045544742L273.8221310314725,235.76868149791028L281.4111572603608,236.53239298747673L283.753449306314,233.9537093472643L289.65602526211603,232.04142536623283L295.6522928997562,232.13708363233442L300.4305686735008,234.0492751539424Z" fill="#122B39" fill-opacity="1" rx="0" ry="0" stroke="rgb(13, 30, 40)" stroke-dasharray="0" stroke-linecap="butt" stroke-opacity="1" stroke-width="1" vector-effect="non-scaling-stroke"></path>
                        <path class="d3plus-Shape d3plus-Path d3plus-id-Madeira" transform="
        translate(0,0)
        scale(1)
        rotate(0)" aria-label="undefined." role="presentation" opacity="1" shape-rendering="geometricPrecision" pointer-events="visiblePainted" fill="#122B39" fill-opacity="1" rx="0" ry="0" stroke="rgb(13, 30, 40)" stroke-dasharray="0" stroke-linecap="butt" stroke-opacity="1" stroke-width="1" vector-effect="non-scaling-stroke"></path>
                        <path class="d3plus-Shape d3plus-Path d3plus-id-Rwanda" transform="
        translate(0,0)
        scale(1)
        rotate(0)" aria-label="undefined." role="presentation" opacity="1" shape-rendering="geometricPrecision" pointer-events="visiblePainted" d="M446.3085172954658,347.3007850845337L449.1192677506096,351.4898522408424L449.1192677506096,357.44957919836065L446.9643590683326,357.9153047107452L440.12486629414934,361.08279612393414L434.784440429376,360.4305820421982L433.4727568836422,358.0084522077624L439.18794947576805,349.81411614364146L443.59145852216,349.62793288896Z" fill="#122B39" fill-opacity="1" rx="0" ry="0" stroke="rgb(13, 30, 40)" stroke-dasharray="0" stroke-linecap="butt" stroke-opacity="1" stroke-width="1" vector-effect="non-scaling-stroke"></path>
                        <path class="d3plus-Shape d3plus-Path d3plus-id-Western-Sahara" transform="
        translate(0,0)
        scale(1)
        rotate(0)" aria-label="undefined." role="presentation" opacity="1" shape-rendering="geometricPrecision" pointer-events="visiblePainted" d="M136.4701254567771,111.00691564714879L136.4701254567771,114.36337368264145L136.4701254567771,125.60889852606914L110.04907117842507,125.71244582030155L110.04907117842507,147.54191880081902L102.17896990402232,151.59377849777158L102.17896990402232,166.06624639890381L70.97963985192578,166.06624639890381L70.23010639722071,170.85268078064718L70.51118144273514,165.2667299735527L87.75045090095064,165.0667704615059L92.62241835653327,157.7458172738914L94.49625199329584,147.3389486688831L99.83667785806914,143.37372461136124L101.80420317666982,139.70097376986453L106.76986231409059,135.9133492635137L109.95537949658693,125.40177281565124L112.39136322437825,124.78014624455852L118.76239758937093,116.7688040680627L128.13156577318372,118.12583235741181L135.9079753657483,115.2007060051175Z" fill="#122B39" fill-opacity="1" rx="0" ry="0" stroke="rgb(13, 30, 40)" stroke-dasharray="0" stroke-linecap="butt" stroke-opacity="1" stroke-width="1" vector-effect="non-scaling-stroke"></path>
                        <path class="d3plus-Shape d3plus-Path d3plus-id-Sudan" transform="
        translate(0,0)
        scale(1)
        rotate(0)" aria-label="undefined." role="presentation" opacity="1" shape-rendering="geometricPrecision" pointer-events="visiblePainted" d="M496.9957171698928,160.3583421949746L499.1506258521698,167.36436880370408L499.8064676250367,180.1749625810649L501.3992262162849,186.87857020144293L510.5810110364215,194.039643484644L508.5197940359826,196.87469149592252L497.9326339882741,201.7501680284562L497.46417557908353,208.55019528521197L493.34174157820587,217.9264634753831L494.18496671474907,224.85342905121377L490.9994495322527,237.39122731556228L486.97070721321313,238.53578334478078L481.7239730302781,249.0941026723823L476.38354716550475,254.78100449312666L474.79078857425657,263.7589386554717L473.3854133466847,257.8086236771612L467.76391243639705,252.50786160789815L466.92068729985385,246.53049223897594L467.95129580007324,241.4896609098455L461.1118030258899,245.5802715290966L461.6739531169187,250.89642306951436L452.3047849331059,261.02155747198026L448.46342597774276,261.4937175955144L442.65454170377876,257.146642102516L433.3790652018041,264.796540992307L427.1017225186496,264.70222947668526L425.8837306547539,262.6265638295566L415.2965706070454,263.19280971459125L409.67506969675776,256.0114146025036L403.67880205911763,256.9574729048378L401.3365100131644,260.9271154284326L399.4626763764019,268.28386881145093L396.37085087574366,269.88475440174886L390.93673332913227,269.1315039946494L392.06103351118975,260.0769858049422L386.06476587354956,251.9392426968959L383.90985719127264,243.29808401379242L380.8180316906144,237.20040629892094L379.787423190395,228.88205580862964L386.43953260090206,217.83006465535675L387.93859951031214,213.00320999156298L394.9654756481717,212.9065325537448L394.87178396633357,181.55780269520034L394.87178396633357,177.30597332046676L402.74188524073634,177.30597332046676L402.83557692257443,160.3583421949746L428.97555615541205,160.3583421949746L452.398476614944,160.3583421949746L478.63214752961983,160.3583421949746Z" fill="#122B39" fill-opacity="1" rx="0" ry="0" stroke="rgb(13, 30, 40)" stroke-dasharray="0" stroke-linecap="butt" stroke-opacity="1" stroke-width="1" vector-effect="non-scaling-stroke"></path>
                        <path class="d3plus-Shape d3plus-Path d3plus-id-South-Sudan" transform="
        translate(0,0)
        scale(1)
        rotate(0)" aria-label="undefined." role="presentation" opacity="1" shape-rendering="geometricPrecision" pointer-events="visiblePainted" d="M474.79078857425657,263.7589386554717L473.9475634377135,271.7670585118816L467.67022075455884,272.1433805584339L466.63961225433945,276.9375767404978L471.9800381191128,278.06460389223787L480.0375227571918,286.2248238640088L482.8482732123356,294.27458472728006L488.46977412262333,296.70536233059426L489.4066909410045,302.31035556708673L484.0662650762313,299.415192309253L477.22677230204795,302.31035556708673L474.0412551195516,305.4839905719219L470.4809712097027,309.02907008902775L466.45222889066315,308.1896186754164L457.9262858433936,310.42793020845795L451.5552514784009,308.9358028069636L449.21295943244775,311.26711564520855L444.1536086131888,307.62992622306257L440.9680914306925,302.7771750192862L437.0330407934911,304.08406793971307L432.7232234289372,302.7771750192862L429.91247297379334,305.0173856554061L424.9468138363726,302.49708796182944L422.323446744905,298.6677975089533L419.79377133527555,293.15226042172L415.2028789252073,291.0939354506909L413.8911953794735,286.13112961005504L405.83371074139455,280.69289403088203L401.61758505867874,274.0243114807071L396.0897758302292,272.6137189662087L396.37085087574366,269.88475440174886L399.4626763764019,268.28386881145093L401.3365100131644,260.9271154284326L403.67880205911763,256.9574729048378L409.67506969675776,256.0114146025036L415.2965706070454,263.19280971459125L425.8837306547539,262.6265638295566L427.1017225186496,264.70222947668526L433.3790652018041,264.796540992307L442.65454170377876,257.146642102516L448.46342597774276,261.4937175955144L452.3047849331059,261.02155747198026L461.6739531169187,250.89642306951436L461.1118030258899,245.5802715290966L467.95129580007324,241.4896609098455L466.92068729985385,246.53049223897594L467.76391243639705,252.50786160789815L473.3854133466847,257.8086236771612Z" fill="#122B39" fill-opacity="1" rx="0" ry="0" stroke="rgb(13, 30, 40)" stroke-dasharray="0" stroke-linecap="butt" stroke-opacity="1" stroke-width="1" vector-effect="non-scaling-stroke"></path>
                        <path class="d3plus-Shape d3plus-Path d3plus-id-Spain" transform="
        translate(0,0)
        scale(1)
        rotate(0)" aria-label="undefined." role="presentation" opacity="1" shape-rendering="geometricPrecision" pointer-events="visiblePainted" d="M162.89117973512913,34.72092420108373L162.42272132593848,33.91687327942526L162.89117973512913,34.72092420108373Z" fill="#122B39" fill-opacity="1" rx="0" ry="0" stroke="rgb(13, 30, 40)" stroke-dasharray="0" stroke-linecap="butt" stroke-opacity="1" stroke-width="1" vector-effect="non-scaling-stroke"></path>
                        <path class="d3plus-Shape d3plus-Path d3plus-id-Spain" transform="
        translate(0,0)
        scale(1)
        rotate(0)" aria-label="undefined." role="presentation" opacity="1" shape-rendering="geometricPrecision" pointer-events="visiblePainted" d="M182.09797451194535,40.212123187786574L181.81689946643095,39.755994869467486L182.09797451194535,40.212123187786574Z" fill="#122B39" fill-opacity="1" rx="0" ry="0" stroke="rgb(13, 30, 40)" stroke-dasharray="0" stroke-linecap="butt" stroke-opacity="1" stroke-width="1" vector-effect="non-scaling-stroke"></path>
                        <path class="d3plus-Shape d3plus-Path d3plus-id-Senegal" transform="
        translate(0,0)
        scale(1)
        rotate(0)" aria-label="undefined." role="presentation" opacity="1" shape-rendering="geometricPrecision" pointer-events="visiblePainted" d="M108.08154585982437,220.6234787449249L110.23645454210131,225.62145750024035L110.23645454210131,230.70171724674518L114.54627190665519,234.52703563639693L115.01473031584582,239.96559490027315L107.33201240511934,240.72776441445814L101.71051149483168,238.05896186497716L96.55746899373466,237.7728163399695L84.9397004458068,237.67742569890572L81.09834149044357,239.67971048515352L72.75978180685019,240.537247719351L72.57239844317397,234.6225740539382L79.88034962654791,233.8581389601066L82.31633335433922,230.41451666630843L74.071465352584,230.3187736526262L69.19949789700135,221.6818969183307L74.25884871626025,212.13291158648275L76.03899067118468,206.51324562183393L91.685501538152,205.34810912094756Z" fill="#122B39" fill-opacity="1" rx="0" ry="0" stroke="rgb(13, 30, 40)" stroke-dasharray="0" stroke-linecap="butt" stroke-opacity="1" stroke-width="1" vector-effect="non-scaling-stroke"></path>
                        <path class="d3plus-Shape d3plus-Path d3plus-id-Sierra-Leone" transform="
        translate(0,0)
        scale(1)
        rotate(0)" aria-label="undefined." role="presentation" opacity="1" shape-rendering="geometricPrecision" pointer-events="visiblePainted" d="M123.82174840862984,271.4847868663111L121.19838131716226,277.21936892237693L114.35888854297895,283.9755346473469L106.20771222306182,280.2237016043093L103.30327008607986,276.7497020812607L99.93036953990725,267.059073845515L104.61495363181363,263.947622471587L106.20771222306182,260.45485488456575L115.9516471342271,259.4155843366268L120.72992290797163,264.8908493307796Z" fill="#122B39" fill-opacity="1" rx="0" ry="0" stroke="rgb(13, 30, 40)" stroke-dasharray="0" stroke-linecap="butt" stroke-opacity="1" stroke-width="1" vector-effect="non-scaling-stroke"></path>
                        <path class="d3plus-Shape d3plus-Path d3plus-id-Somaliland" transform="
        translate(0,0)
        scale(1)
        rotate(0)" aria-label="undefined." role="presentation" opacity="1" shape-rendering="geometricPrecision" pointer-events="visiblePainted" d="M592.373849281107,249.28388610056072L592.373849281107,263.7589386554717L584.7848230522186,275.4342807677906L576.914721777816,275.4342807677906L553.4918013182839,267.43598879274214L548.7135255445394,264.0419595552428L544.1226331344711,257.6195035931672L544.778474907338,251.27568311678803L547.3081503169675,247.38534879693532L555.4593266368846,255.63289156660946L560.8934441834961,256.0114146025036L567.5455535940031,252.31833692780333L572.6985960951002,253.7394101000267L579.912855596636,249.8531435470152Z" fill="#122B39" fill-opacity="1" rx="0" ry="0" stroke="rgb(13, 30, 40)" stroke-dasharray="0" stroke-linecap="butt" stroke-opacity="1" stroke-width="1" vector-effect="non-scaling-stroke"></path>
                        <path class="d3plus-Shape d3plus-Path d3plus-id-Puntland" transform="
        translate(0,0)
        scale(1)
        rotate(0)" aria-label="undefined." role="presentation" opacity="1" shape-rendering="geometricPrecision" pointer-events="visiblePainted" d="M592.4675409629451,291.28109582068475L572.7922877769383,287.06797190963505L584.7848230522186,275.4342807677906L592.373849281107,263.7589386554717L592.373849281107,249.28388610056072L602.9610093288154,246.53049223897594L607.083443329693,243.29808401379242L609.7068104211606,247.1954085074735L609.8005021029987,253.92882378138546L608.1140518299125,256.67369264346837L607.4582100570456,263.66459191462206L603.0547010106535,271.4847868663111L599.5881087826427,275.62223033196943Z" fill="#122B39" fill-opacity="1" rx="0" ry="0" stroke="rgb(13, 30, 40)" stroke-dasharray="0" stroke-linecap="butt" stroke-opacity="1" stroke-width="1" vector-effect="non-scaling-stroke"></path>
                        <path class="d3plus-Shape d3plus-Path d3plus-id-Somalia" transform="
        translate(0,0)
        scale(1)
        rotate(0)" aria-label="undefined." role="presentation" opacity="1" shape-rendering="geometricPrecision" pointer-events="visiblePainted" d="M592.4675409629451,291.28109582068475L584.5974396885423,303.52400692878354L569.3256955489276,319.56110182182414L557.7079270009997,326.54529225796404L549.0882922718919,333.99191399461233L538.126365496831,345.7184551572607L533.816548132277,352.3277834967034L529.4130390858852,345.7184551572607L529.319347404047,316.57988246246725L536.6272985874209,307.35006222257635L543.7478664071186,304.9240603925881L546.3712334985862,302.03024536061065L553.1170345909314,299.60202421971445L560.799752501658,299.97566811688677L572.7922877769383,287.06797190963505Z" fill="#122B39" fill-opacity="1" rx="0" ry="0" stroke="rgb(13, 30, 40)" stroke-dasharray="0" stroke-linecap="butt" stroke-opacity="1" stroke-width="1" vector-effect="non-scaling-stroke"></path>
                        <path class="d3plus-Shape d3plus-Path d3plus-id-Sao-Tome-and-Principe" transform="
        translate(0,0)
        scale(1)
        rotate(0)" aria-label="undefined." role="presentation" opacity="1" shape-rendering="geometricPrecision" pointer-events="visiblePainted" fill="#122B39" fill-opacity="1" rx="0" ry="0" stroke="rgb(13, 30, 40)" stroke-dasharray="0" stroke-linecap="butt" stroke-opacity="1" stroke-width="1" vector-effect="non-scaling-stroke"></path>
                        <path class="d3plus-Shape d3plus-Path d3plus-id-Sao-Tome-and-Principe" transform="
        translate(0,0)
        scale(1)
        rotate(0)" aria-label="undefined." role="presentation" opacity="1" shape-rendering="geometricPrecision" pointer-events="visiblePainted" fill="#122B39" fill-opacity="1" rx="0" ry="0" stroke="rgb(13, 30, 40)" stroke-dasharray="0" stroke-linecap="butt" stroke-opacity="1" stroke-width="1" vector-effect="non-scaling-stroke"></path>
                        <path class="d3plus-Shape d3plus-Path d3plus-id-Swaziland" transform="
        translate(0,0)
        scale(1)
        rotate(0)" aria-label="undefined." role="presentation" opacity="1" shape-rendering="geometricPrecision" pointer-events="visiblePainted" d="M457.9262858433936,551.6309026194278L459.2379693891274,559.4231124496631L458.11366920706985,563.7084327652353L451.648943160239,562.7661696410189L448.74450102325704,558.3806918099621L451.3678681147247,551.2169761516346Z" fill="#122B39" fill-opacity="1" rx="0" ry="0" stroke="rgb(13, 30, 40)" stroke-dasharray="0" stroke-linecap="butt" stroke-opacity="1" stroke-width="1" vector-effect="non-scaling-stroke"></path>
                        <path class="d3plus-Shape d3plus-Path d3plus-id-Chad" transform="
        translate(0,0)
        scale(1)
        rotate(0)" aria-label="undefined." role="presentation" opacity="1" shape-rendering="geometricPrecision" pointer-events="visiblePainted" d="M394.87178396633357,181.55780269520034L394.9654756481717,212.9065325537448L387.93859951031214,213.00320999156298L386.43953260090206,217.83006465535675L379.787423190395,228.88205580862964L380.8180316906144,237.20040629892094L383.90985719127264,243.29808401379242L386.06476587354956,251.9392426968959L382.87924869105325,251.27568311678803L377.0703644170893,254.21291683716578L376.5082143260605,257.4303695191411L366.2958210057046,266.39935406911536L356.2708110490249,267.24753745611025L356.4581944127011,269.97889737512986L352.2420687299855,274.96435939387135L345.0278092284496,275.4342807677906L337.8135497269137,278.9096288241227L334.72172422625556,277.97069932250184L327.69484808839593,279.1912576427093L325.2588643606046,271.4847868663111L315.51492944943936,262.24900115570983L317.48245476804004,259.5100804779117L328.0696148157485,258.6594918382449L324.32194754222337,252.981608146742L324.8840976332521,247.00545234146836L322.54180558729894,238.24970359407047L319.2625967229644,234.43149266515422L316.4518462678206,234.43149266515422L312.7978706761336,229.3610814700089L311.57987881223795,223.8929423548375L318.887829995612,212.61646671006176L327.41377304288153,203.40430447604766L329.6623734069966,178.09803470696818L331.34882368008294,174.13296521715586L325.2588643606046,164.5667304892742L323.6661057693565,151.79599793622899L331.62989872559734,147.9477504635031L359.7374032770357,162.96524001681834L371.4488635068016,169.15955735312843Z" fill="#122B39" fill-opacity="1" rx="0" ry="0" stroke="rgb(13, 30, 40)" stroke-dasharray="0" stroke-linecap="butt" stroke-opacity="1" stroke-width="1" vector-effect="non-scaling-stroke"></path>
                        <path class="d3plus-Shape d3plus-Path d3plus-id-Togo" transform="
        translate(0,0)
        scale(1)
        rotate(0)" aria-label="undefined." role="presentation" opacity="1" shape-rendering="geometricPrecision" pointer-events="visiblePainted" d="M212.2666960638225,251.37048865890367L211.2360875636031,256.3898805222734L215.6395966099951,259.3210847783214L217.79450529227202,266.964837427054L217.98188865594827,289.59635772913725L214.51529642793756,290.532405536448L209.26856224500239,284.72544443828025L210.2991707452218,280.78672506444013L210.01809569970743,271.4847868663111L208.05057038110672,269.1315039946494L208.05057038110672,256.8628830172775L204.39659478941977,254.11822280837544L203.83444469839097,250.23257149118575Z" fill="#122B39" fill-opacity="1" rx="0" ry="0" stroke="rgb(13, 30, 40)" stroke-dasharray="0" stroke-linecap="butt" stroke-opacity="1" stroke-width="1" vector-effect="non-scaling-stroke"></path>
                        <path class="d3plus-Shape d3plus-Path d3plus-id-Tunisia" transform="
        translate(0,0)
        scale(1)
        rotate(0)" aria-label="undefined." role="presentation" opacity="1" shape-rendering="geometricPrecision" pointer-events="visiblePainted" d="M296.214442990785,60.25048085334737L295.74598458159437,67.88817495028684L291.1550921715261,70.08911447617038L285.15882453388593,76.87629256059637L286.3768163977816,81.44409037137461L280.47424044197953,87.71345228140652L276.7265731684544,70.74828785145007L271.01138057632863,66.12329683745594L266.5141798480985,60.028052191512586L264.3592711658215,53.55133123565639L270.35553880346174,46.34417940238842L271.6672223491955,26.874320689611352L273.2599809404437,23.96912293236113L281.59854062403707,20L288.5317250800585,25.59740680770176L289.0938751710873,34.60611093129006L293.12261749012674,40.89581920975428L289.00018348924914,47.24861757784089L285.25251621572403,49.392570757837575L286.93896648881037,55.34313299505578L293.0289258082887,56.796083335114645Z" fill="#122B39" fill-opacity="1" rx="0" ry="0" stroke="rgb(13, 30, 40)" stroke-dasharray="0" stroke-linecap="butt" stroke-opacity="1" stroke-width="1" vector-effect="non-scaling-stroke"></path>
                        <path class="d3plus-Shape d3plus-Path d3plus-id-Tanzania" transform="
        translate(0,0)
        scale(1)
        rotate(0)" aria-label="undefined." role="presentation" opacity="1" shape-rendering="geometricPrecision" pointer-events="visiblePainted" d="M473.3854133466847,346.83538413386304L483.6914983488788,352.1415726801898L502.9919848075331,362.94652265911543L504.02259330775246,367.79419327830345L515.2655951283278,375.9123885947725L511.98638626399327,386.66198217979996L512.5485363550221,389.18946294867095L517.4205038106047,393.21795995967017L515.9214369011947,399.12798735236873L515.9214369011947,404.8601014799616L518.8258790381766,411.9222646963509L520.0438709020723,417.77354442597664L525.1032217213312,422.21782773897974L521.7303211751587,424.96397510638474L509.7377858998783,429.80105085529135L504.86581844429566,429.0416316268801L501.3055345344468,432.27091417825045L496.52725876070224,431.03564523579416L491.5615996232815,432.0808285141065L481.8176647121162,431.03564523579416L478.9132225751342,426.575231745911L477.97630575675294,417.96250709945315L474.322330165066,414.18579331693115L469.45036270948333,415.2238626549996L465.60900375412007,413.61973888202317L450.14987625082904,406.7417217848813L448.46342597774276,403.91971640528556L445.4652921589226,396.8754014839346L440.49963302150184,391.6248053230104L438.438416021063,386.47482119083804L439.28164115760615,383.3878077905775L437.2204241571674,377.873631571995L437.78257424819606,374.13852743923337L442.5608500219406,372.73849257743575L449.1192677506096,363.97174353027344L445.8400588862751,361.45551042217465L446.9643590683326,357.9153047107452L449.1192677506096,357.44957919836065L449.1192677506096,351.4898522408424L446.3085172954658,347.3007850845337L449.1192677506096,346.83538413386304Z" fill="#36B7B4" fill-opacity="1" rx="0" ry="0" stroke="rgb(38, 128, 126)" stroke-dasharray="0" stroke-linecap="butt" stroke-opacity="1" stroke-width="1" vector-effect="non-scaling-stroke"></path>
                        <path class="d3plus-Shape d3plus-Path d3plus-id-Zanzibar" transform="
        translate(0,0)
        scale(1)
        rotate(0)" aria-label="undefined." role="presentation" opacity="1" shape-rendering="geometricPrecision" pointer-events="visiblePainted" fill="#122B39" fill-opacity="1" rx="0" ry="0" stroke="rgb(13, 30, 40)" stroke-dasharray="0" stroke-linecap="butt" stroke-opacity="1" stroke-width="1" vector-effect="non-scaling-stroke"></path>
                        <path class="d3plus-Shape d3plus-Path d3plus-id-Uganda" transform="
        translate(0,0)
        scale(1)
        rotate(0)" aria-label="undefined." role="presentation" opacity="1" shape-rendering="geometricPrecision" pointer-events="visiblePainted" d="M473.3854133466847,346.83538413386304L449.1192677506096,346.83538413386304L446.3085172954658,347.3007850845337L443.59145852216,349.62793288896L439.18794947576805,349.81411614364146L440.21855797598744,338.08686660188755L441.9986999309118,332.68890697916265L452.398476614944,322.6346119697316L448.27604261406645,319.56110182182414L449.21295943244775,311.26711564520855L451.5552514784009,308.9358028069636L457.9262858433936,310.42793020845795L466.45222889066315,308.1896186754164L470.4809712097027,309.02907008902775L474.0412551195516,305.4839905719219L477.69523071123854,313.87732375828585L481.5365896666018,319.2816499439492L481.9113563939543,325.614271942497L473.3854133466847,337.9938014721434Z" fill="#122B39" fill-opacity="1" rx="0" ry="0" stroke="rgb(13, 30, 40)" stroke-dasharray="0" stroke-linecap="butt" stroke-opacity="1" stroke-width="1" vector-effect="non-scaling-stroke"></path>
                        <path class="d3plus-Shape d3plus-Path d3plus-id-South-Africa" transform="
        translate(0,0)
        scale(1)
        rotate(0)" aria-label="undefined." role="presentation" opacity="1" shape-rendering="geometricPrecision" pointer-events="visiblePainted" d="M452.77324334229655,520.8161835369617L454.553385297221,529.5050854477456L458.30105257074615,538.2606635753629L457.9262858433936,551.6309026194278L451.3678681147247,551.2169761516346L448.74450102325704,558.3806918099621L451.648943160239,562.7661696410189L458.11366920706985,563.7084327652353L459.2379693891274,559.4231124496631L465.4216203904439,559.5274139732728L461.3928780714043,574.7692824654082L451.9300182057534,583.9254892903017L445.6526755225988,595.6634830628566L433.5664485654803,609.099288568796L425.8837306547539,616.1747824247334L414.9218038796929,622.8631705724076L410.51829483330096,622.5274544560472L407.7075443781571,625.666201112827L401.80496842235505,627.0151051734456L392.1547251930279,625.1048206712551L384.19093223678703,625.2170656600845L376.882981053413,628.9299229318881L367.5138128696003,629.6068317116237L363.01661214137016,633L354.02221068490985,628.704413502865L346.4331844560215,614.1787589775374L349.712393320356,612.4085078762539L348.96285986565096,603.2842751670776L341.9359837277914,591.1224359496765L338.1883164542662,579.5491142500333L335.6586410446368,574.9812057588102L338.84415822713316,570.5406818568249L342.40444213698197,571.8073008361373L342.8729005461727,576.1476325461738L356.17711936718683,578.484825054317L363.29768718688456,573.6045489576115L363.29768718688456,541.1263375759215L366.2958210057046,543.5886768368314L369.66872155187724,551.1135203381367L368.3570380061434,559.0060145963512L376.7892893715749,559.6317263342823L384.940465691492,551.9414560246175L387.1890660556071,545.9537402156158L390.74934996545596,545.7478738090151L394.4970172389811,548.8400891718932L401.3365100131644,550.596395770634L407.613852696319,548.7368688375776L409.95614474227216,542.2542110973246L417.6388626529987,536.7285623512882L418.8568545168943,531.5351790846198L429.72508961011715,522.3270517274054L437.40780752084356,519.0056695337984ZM434.50336538386165,577.953134090408L431.97368997423223,575.1931764449693L424.7594304726963,577.953134090408L418.95054619873235,584.4606160676009L421.66760497203813,590.583369397368L427.1017225186496,593.8226489890175L429.631397928279,589.3985590029854L435.8150489295955,587.1409542681893L438.06364929371057,581.8948401114616Z" fill="#122B39" fill-opacity="1" rx="0" ry="0" stroke="rgb(13, 30, 40)" stroke-dasharray="0" stroke-linecap="butt" stroke-opacity="1" stroke-width="1" vector-effect="non-scaling-stroke"></path>
                        <path class="d3plus-Shape d3plus-Path d3plus-id-Zambia" transform="
        translate(0,0)
        scale(1)
        rotate(0)" aria-label="undefined." role="presentation" opacity="1" shape-rendering="geometricPrecision" pointer-events="visiblePainted" d="M465.60900375412007,413.61973888202317L467.67022075455884,415.2238626549996L471.6052713917603,423.0697522530741L468.51344589110204,425.7220784772723L468.32606252742573,435.12416167454876L466.26484552698696,444.3760073079817L464.10993684471,447.2459919754902L467.85760411823514,450.88744901175176L444.247300295027,458.76983993564625L445.6526755225988,464.1732277324037L436.0961239751098,465.6234865527929L432.53584006526097,471.72857794319555L425.6963472910776,474.83850665293437L419.13792956240866,483.2277327177888L404.9904856048514,481.95658606830557L402.64819355889824,480.00309646721695L396.83930928493425,479.4175458030661L390.18719987442717,480.6865273933304L380.44326496326187,472.1169840258607L379.1315814175281,468.5278162320924L379.03788973569,442.6560149080347L395.0591673300098,442.6560149080347L394.7780922844954,425.4377617069498L403.95987710463197,428.5671215180976L405.7400190595564,431.70070562208053L410.7993698788153,433.79218532187156L422.1360633812288,433.887299583161L423.8225136543151,436.93315623242063L430.09985633746965,438.74368945124337L436.0024322932717,446.19317508003894L439.18794947576805,444.47160597659064L440.9680914306925,435.79045624680987L434.87813211121414,437.60001417312503L430.28723970114584,432.7461992538967L432.0673816560703,416.82893392129364L429.631397928279,412.2993926336635L433.9412152928329,406.1771152819514L448.46342597774276,403.91971640528556L450.14987625082904,406.7417217848813Z" fill="#122B39" fill-opacity="1" rx="0" ry="0" stroke="rgb(13, 30, 40)" stroke-dasharray="0" stroke-linecap="butt" stroke-opacity="1" stroke-width="1" vector-effect="non-scaling-stroke"></path>
                        <path class="d3plus-Shape d3plus-Path d3plus-id-Zimbabwe" transform="
        translate(0,0)
        scale(1)
        rotate(0)" aria-label="undefined." role="presentation" opacity="1" shape-rendering="geometricPrecision" pointer-events="visiblePainted" d="M445.6526755225988,464.1732277324037L445.746367204437,467.1718243801241L452.4921682967822,467.3654688024671L457.64521079787926,470.6609490486066L465.515312072282,472.9912458835979L466.45222889066315,478.44213223098046L466.26484552698696,487.63641103946634L464.4847035720625,495.11335890511L466.54592057250136,498.66928177337724L462.0487198442712,506.20762155006105L461.5802614350806,511.39094822887773L452.77324334229655,520.8161835369617L437.40780752084356,519.0056695337984L434.9718237930523,515.693451362456L426.6332641094589,513.5903551713808L424.10358869982946,509.69405888167546L424.2909720635057,504.71633860272897L411.92367006087284,496.19890103762873L410.4246031514628,491.36988734838167L404.9904856048514,481.95658606830557L419.13792956240866,483.2277327177888L425.6963472910776,474.83850665293437L432.53584006526097,471.72857794319555L436.0961239751098,465.6234865527929Z" fill="#122B39" fill-opacity="1" rx="0" ry="0" stroke="rgb(13, 30, 40)" stroke-dasharray="0" stroke-linecap="butt" stroke-opacity="1" stroke-width="1" vector-effect="non-scaling-stroke"></path>
                    </g>
                    <g class="d3plus-Path-image" opacity="1"></g>
                    <g class="d3plus-Path-text" opacity="1">
                        <g class="d3plus-textBox" id="d3plus-textBox-Democratic-Republic-of-the-Congo_0" transform="translate(355.3770977688132, 327.6470325449255) rotate(0, 35.09074418258538, 35.09074418258538)" style="pointer-events: none;">
                            <text dominant-baseline="alphabetic" opacity="1" aria-hidden="false" dir="ltr" fill="#122B39" text-anchor="middle" font-family="Georgia" font-size="13px" font-weight="normal" x="35.09074418258538px" y="18px" style="baseline-shift: 0%; opacity: 1; font-family: Georgia; font-size: 13px; font-weight: normal;">Democratic</text>
                            <text dominant-baseline="alphabetic" opacity="1" aria-hidden="false" dir="ltr" fill="#122B39" text-anchor="middle" font-family="Georgia" font-size="13px" font-weight="normal" x="35.09074418258538px" y="33.6px" style="baseline-shift: 0%; opacity: 1; font-family: Georgia; font-size: 13px; font-weight: normal;">Republic of</text>
                            <text dominant-baseline="alphabetic" opacity="1" aria-hidden="false" dir="ltr" fill="#122B39" text-anchor="middle" font-family="Georgia" font-size="13px" font-weight="normal" x="35.09074418258538px" y="49.199999999999996px" style="baseline-shift: 0%; opacity: 1; font-family: Georgia; font-size: 13px; font-weight: normal;">the Congo</text>
                        </g>
                        <g class="d3plus-textBox" id="d3plus-textBox-Tanzania_0" transform="translate(455.455414615991, 382.6148628260824) rotate(0, 22.2240622845401, 22.2240622845401)" style="pointer-events: none;">
                            <text dominant-baseline="alphabetic" opacity="1" aria-hidden="false" dir="ltr" fill="#122B39" text-anchor="middle" font-family="Georgia" font-size="13px" font-weight="normal" x="21.2240622845401px" y="10px" style="baseline-shift: 0%; opacity: 1; font-family: Georgia; font-size: 13px; font-weight: normal;">Tanzania</text>
                        </g>
                        <g class="d3plus-textBox" id="d3plus-textBox-Gombe_0" transform="translate(448.455414615991, 364.6148628260824) rotate(0, 22.2240622845401, 22.2240622845401)" style="pointer-events: none;">
                            <text dominant-baseline="alphabetic" opacity="1" aria-hidden="false" dir="ltr" fill="#af0f37" text-anchor="middle" font-family="Georgia" font-size="11px" font-weight="bold" x="21.2240622845401px" y="10px" style="baseline-shift: 0%; opacity: 1; font-family: Georgia; font-size: 11px; font-weight: bold;">Gombe</text>
                        </g>
                        <g class="d3plus-textBox" id="d3plus-textBox-Dar_0" transform="translate(505.455414615991, 400) rotate(0, 22.2240622845401, 22.2240622845401)" style="pointer-events: none;">
                            <text dominant-baseline="alphabetic" opacity="1" aria-hidden="false" dir="ltr" fill="#af0f37" text-anchor="middle" font-family="Georgia" font-size="11px" font-weight="bold" x="21.2240622845401px" y="10px" style="baseline-shift: 0%; opacity: 1; font-family: Georgia; font-size: 11px; font-weight: bold;">Dar es Salaam</text>
                        </g>
                        <g class="d3plus-textBox" id="d3plus-textBox-Kinshasa_0" transform="translate(251.455414615991, 375) rotate(0, 22.2240622845401, 22.2240622845401)" style="pointer-events: none;">
                            <text dominant-baseline="alphabetic" opacity="1" aria-hidden="false" dir="ltr" fill="#af0f37" text-anchor="middle" font-family="Georgia" font-size="11px" font-weight="bold" x="21.2240622845401px" y="10px" style="baseline-shift: 0%; opacity: 1; font-family: Georgia; font-size: 11px; font-weight: bold;">Kinshasa</text>
                        </g>
                    </g>
                    <g class="d3plus-Path-hover"></g>
                    <g class="d3plus-Path-active"></g>
                </g>
            </g>
            <g class="d3plus-geomap-pins">
                <g class="d3plus-Circle-group">
                    <g class="d3plus-Circle-shape" opacity="1">
                        <circle class="d3plus-Shape d3plus-Circle d3plus-id-0" transform="
        translate(439.7011513143256,376.09558897131865)
        scale(1)
        rotate(0)" aria-label="Gombe, 20" role="presentation" opacity="1" shape-rendering="geometricPrecision" pointer-events="visiblePainted" fill="#F4134D" fill-opacity="1" rx="0" ry="0" stroke="rgb(171, 13, 54)" stroke-dasharray="0" stroke-linecap="butt" stroke-opacity="1" stroke-width="0" vector-effect="non-scaling-stroke" r="7.5" x="-3.75" y="-3.75"></circle>
                        <circle class="d3plus-Shape d3plus-Circle d3plus-id-1" transform="
        translate(515.4392753625052,392.8010295821395)
        scale(1)
        rotate(0)" aria-label="Dar es Salaam, 20" role="presentation" opacity="1" shape-rendering="geometricPrecision" pointer-events="visiblePainted" fill="#F4134D" fill-opacity="1" rx="0" ry="0" stroke="rgb(171, 13, 54)" stroke-dasharray="0" stroke-linecap="butt" stroke-opacity="1" stroke-width="0" vector-effect="non-scaling-stroke" r="7.5" x="-3.75" y="-3.75"></circle>
                        <circle class="d3plus-Shape d3plus-Circle d3plus-id-2" transform="
        translate(325.9708284181524,373.8836704543629)
        scale(1)
        rotate(0)" aria-label="Kinshasa, 20" role="presentation" opacity="1" shape-rendering="geometricPrecision" pointer-events="visiblePainted" fill="#F4134D" fill-opacity="1" rx="0" ry="0" stroke="rgb(171, 13, 54)" stroke-dasharray="0" stroke-linecap="butt" stroke-opacity="1" stroke-width="0" vector-effect="non-scaling-stroke" r="7.5" x="-3.75" y="-3.75"></circle>
                    </g>
                    <g class="d3plus-Circle-image" opacity="1"></g>
                    <g class="d3plus-Circle-text" opacity="1"></g>
                    <g class="d3plus-Circle-hover"></g>
                    <g class="d3plus-Circle-active"></g>
                </g>
            </g>
        </g>
        <g class="brush" fill="none" pointer-events="all" style="touch-action: none; -webkit-tap-highlight-color: rgba(0, 0, 0, 0); display: none;">
            <rect class="overlay" pointer-events="all" cursor="crosshair" x="0" y="0" width="679" height="653"></rect>
            <rect class="selection" cursor="move" fill="#777" fill-opacity="0.3" stroke="#fff" shape-rendering="crispEdges" style="display: none;"></rect>
            <rect class="handle handle--n" cursor="ns-resize" style="display: none;"></rect>
            <rect class="handle handle--w" cursor="ew-resize" style="display: none;"></rect>
            <rect class="handle handle--e" cursor="ew-resize" style="display: none;"></rect>
            <rect class="handle handle--s" cursor="ns-resize" style="display: none;"></rect>
            <rect class="handle handle--nw" cursor="nwse-resize" style="display: none;"></rect>
            <rect class="handle handle--ne" cursor="nesw-resize" style="display: none;"></rect>
            <rect class="handle handle--sw" cursor="nesw-resize" style="display: none;"></rect>
            <rect class="handle handle--se" cursor="nwse-resize" style="display: none;"></rect>
        </g>
    </svg>
</svg>