<svg xmlns="http://www.w3.org/2000/svg" xmlns:xlink="http://www.w3.org/1999/xlink" version="1.1" class="marks" width="428" height="361" viewBox="0 0 428 361"><rect width="428" height="361" fill="#122B39"/><g fill="none" stroke-miterlimit="10" transform="translate(7,38)"><g class="mark-group role-frame root" role="graphics-object" aria-roledescription="group mark container"><g transform="translate(0,0)"><path class="background" aria-hidden="true" d="M0,0h400v300h-400Z"/><g><g class="mark-group role-axis" aria-hidden="true"><g transform="translate(0.5,0.5)"><path class="background" aria-hidden="true" d="M0,0h0v0h0Z" pointer-events="none"/><g><g class="mark-rule role-axis-grid" pointer-events="none"><line transform="translate(0,300)" x2="400" y2="0" stroke="#676A86" stroke-opacity="0.1" stroke-width="1" opacity="1"/><line transform="translate(0,233)" x2="400" y2="0" stroke="#676A86" stroke-opacity="0.1" stroke-width="1" opacity="1"/><line transform="translate(0,167)" x2="400" y2="0" stroke="#676A86" stroke-opacity="0.1" stroke-width="1" opacity="1"/><line transform="translate(0,100)" x2="400" y2="0" stroke="#676A86" stroke-opacity="0.1" stroke-width="1" opacity="1"/><line transform="translate(0,33)" x2="400" y2="0" stroke="#676A86" stroke-opacity="0.1" stroke-width="1" opacity="1"/></g></g><path class="foreground" aria-hidden="true" d="" pointer-events="none" display="none"/></g></g><g class="mark-group role-axis" role="graphics-symbol" aria-roledescription="axis" aria-label="X-axis titled '⬅ historical   projection ➡' for a linear scale with values from 1990 to 2030"><g transform="translate(0.5,300.5)"><path class="background" aria-hidden="true" d="M0,0h0v0h0Z" pointer-events="none"/><g><g class="mark-rule role-axis-tick" pointer-events="none"><line transform="translate(0,0)" x2="0" y2="5" stroke="#676A86" stroke-width="1" opacity="1"/><line transform="translate(100,0)" x2="0" y2="5" stroke="#676A86" stroke-width="1" opacity="1"/><line transform="translate(200,0)" x2="0" y2="5" stroke="#676A86" stroke-width="1" opacity="1"/><line transform="translate(300,0)" x2="0" y2="5" stroke="#676A86" stroke-width="1" opacity="1"/><line transform="translate(400,0)" x2="0" y2="5" stroke="#676A86" stroke-width="1" opacity="1"/></g><g class="mark-text role-axis-label" pointer-events="none"><text text-anchor="start" transform="translate(0,16)" font-family="Georgia" font-size="12px" fill="#676A86" opacity="1">1990</text><text text-anchor="middle" transform="translate(100,16)" font-family="Georgia" font-size="12px" fill="#676A86" opacity="1">2000</text><text text-anchor="middle" transform="translate(200,16)" font-family="Georgia" font-size="12px" fill="#676A86" opacity="1">2010</text><text text-anchor="middle" transform="translate(300,16)" font-family="Georgia" font-size="12px" fill="#676A86" opacity="1">2020</text><text text-anchor="end" transform="translate(400,16)" font-family="Georgia" font-size="12px" fill="#676A86" opacity="1">2030</text></g><g class="mark-rule role-axis-domain" pointer-events="none"><line transform="translate(0,0)" x2="400" y2="0" stroke="#676A86" stroke-width="1" opacity="1"/></g><g class="mark-text role-axis-title" pointer-events="none"><text text-anchor="middle" transform="translate(302,-6)" font-family="Georgia" font-size="12px" font-weight="normal" fill="#676A86" opacity="1">⬅ historical   projection ➡</text></g></g><path class="foreground" aria-hidden="true" d="" pointer-events="none" display="none"/></g></g><g class="mark-group role-axis" role="graphics-symbol" aria-roledescription="axis" aria-label="Y-axis titled 'GtCO₂e per year' for a linear scale with values from 0 to 900"><g transform="translate(0.5,0.5)"><path class="background" aria-hidden="true" d="M0,0h0v0h0Z" pointer-events="none"/><g><g class="mark-text role-axis-label" pointer-events="none"><text text-anchor="start" transform="translate(5,294)" font-family="Georgia" font-size="12px" fill="#676A86" opacity="1">0</text><text text-anchor="start" transform="translate(5,227.33333333333334)" font-family="Georgia" font-size="12px" fill="#676A86" opacity="1">200</text><text text-anchor="start" transform="translate(5,160.66666666666669)" font-family="Georgia" font-size="12px" fill="#676A86" opacity="1">400</text><text text-anchor="start" transform="translate(5,94.00000000000001)" font-family="Georgia" font-size="12px" fill="#676A86" opacity="1">600</text><text text-anchor="start" transform="translate(5,27.33333333333335)" font-family="Georgia" font-size="12px" fill="#676A86" opacity="1">800</text></g><g class="mark-rule role-axis-domain" pointer-events="none"><line transform="translate(0,300)" x2="0" y2="-300" stroke="#676A86" stroke-width="1" opacity="1"/></g><g class="mark-text role-axis-title" pointer-events="none"><text text-anchor="start" transform="translate(31,27.5)" font-family="Georgia" font-size="12px" font-weight="normal" fill="#676A86" opacity="1">GtCO₂e per year</text></g></g><path class="foreground" aria-hidden="true" d="" pointer-events="none" display="none"/></g></g><g class="mark-line role-mark layer_0_marks" role="graphics-object" aria-roledescription="line mark container"><path aria-label="year: 1990; y: 254" role="graphics-symbol" aria-roledescription="line mark" d="M0,215.33333333333334L10,215.33333333333334L20,215.33333333333334L30,215.33333333333334L40,215.33333333333334L50,215.33333333333334L60,215.33333333333334L70,215.33333333333334L80,215.33333333333334L90,215.33333333333334L100,215.33333333333334L110.00000000000001,215.33333333333334L120,215.33333333333334L130,215.33333333333334L140,215.33333333333334L150,215.33333333333334L160,215.33333333333334L170,215.33333333333334L180,215.33333333333334L190,215.33333333333334L200,215.33333333333334L210,215.33333333333334L220.00000000000003,215.33333333333334L229.99999999999997,215.33333333333334L240,215.33333333333334L250,215.33333333333334L260,215.33333333333334L270,215.33333333333334L280,215.33333333333334L290,215.33333333333334L300,215.33333333333334L310,215.33333333333334L320,215.33333333333334L330,215.33333333333334L340,215.33333333333334L350,215.33333333333334L360,215.33333333333334L370,215.33333333333334L380,215.33333333333334L390,215.33333333333334L400,215.33333333333334" stroke="#676A86" stroke-width="2"/></g><g class="mark-rule role-mark layer_1_marks" role="graphics-object" aria-roledescription="rule mark container"><line aria-label="x: 2020" role="graphics-symbol" aria-roledescription="rule mark" transform="translate(300,0)" x2="0" y2="300" stroke="#484a5e" stroke-width="0.5" stroke-dasharray="5,5"/><line aria-label="x: 2020" role="graphics-symbol" aria-roledescription="rule mark" transform="translate(300,0)" x2="0" y2="300" stroke="#484a5e" stroke-width="0.5" stroke-dasharray="5,5"/><line aria-label="x: 2020" role="graphics-symbol" aria-roledescription="rule mark" transform="translate(300,0)" x2="0" y2="300" stroke="#484a5e" stroke-width="0.5" stroke-dasharray="5,5"/><line aria-label="x: 2020" role="graphics-symbol" aria-roledescription="rule mark" transform="translate(300,0)" x2="0" y2="300" stroke="#484a5e" stroke-width="0.5" stroke-dasharray="5,5"/><line aria-label="x: 2020" role="graphics-symbol" aria-roledescription="rule mark" transform="translate(300,0)" x2="0" y2="300" stroke="#484a5e" stroke-width="0.5" stroke-dasharray="5,5"/><line aria-label="x: 2020" role="graphics-symbol" aria-roledescription="rule mark" transform="translate(300,0)" x2="0" y2="300" stroke="#484a5e" stroke-width="0.5" stroke-dasharray="5,5"/><line aria-label="x: 2020" role="graphics-symbol" aria-roledescription="rule mark" transform="translate(300,0)" x2="0" y2="300" stroke="#484a5e" stroke-width="0.5" stroke-dasharray="5,5"/><line aria-label="x: 2020" role="graphics-symbol" aria-roledescription="rule mark" transform="translate(300,0)" x2="0" y2="300" stroke="#484a5e" stroke-width="0.5" stroke-dasharray="5,5"/><line aria-label="x: 2020" role="graphics-symbol" aria-roledescription="rule mark" transform="translate(300,0)" x2="0" y2="300" stroke="#484a5e" stroke-width="0.5" stroke-dasharray="5,5"/><line aria-label="x: 2020" role="graphics-symbol" aria-roledescription="rule mark" transform="translate(300,0)" x2="0" y2="300" stroke="#484a5e" stroke-width="0.5" stroke-dasharray="5,5"/><line aria-label="x: 2020" role="graphics-symbol" aria-roledescription="rule mark" transform="translate(300,0)" x2="0" y2="300" stroke="#484a5e" stroke-width="0.5" stroke-dasharray="5,5"/><line aria-label="x: 2020" role="graphics-symbol" aria-roledescription="rule mark" transform="translate(300,0)" x2="0" y2="300" stroke="#484a5e" stroke-width="0.5" stroke-dasharray="5,5"/><line aria-label="x: 2020" role="graphics-symbol" aria-roledescription="rule mark" transform="translate(300,0)" x2="0" y2="300" stroke="#484a5e" stroke-width="0.5" stroke-dasharray="5,5"/><line aria-label="x: 2020" role="graphics-symbol" aria-roledescription="rule mark" transform="translate(300,0)" x2="0" y2="300" stroke="#484a5e" stroke-width="0.5" stroke-dasharray="5,5"/><line aria-label="x: 2020" role="graphics-symbol" aria-roledescription="rule mark" transform="translate(300,0)" x2="0" y2="300" stroke="#484a5e" stroke-width="0.5" stroke-dasharray="5,5"/><line aria-label="x: 2020" role="graphics-symbol" aria-roledescription="rule mark" transform="translate(300,0)" x2="0" y2="300" stroke="#484a5e" stroke-width="0.5" stroke-dasharray="5,5"/><line aria-label="x: 2020" role="graphics-symbol" aria-roledescription="rule mark" transform="translate(300,0)" x2="0" y2="300" stroke="#484a5e" stroke-width="0.5" stroke-dasharray="5,5"/><line aria-label="x: 2020" role="graphics-symbol" aria-roledescription="rule mark" transform="translate(300,0)" x2="0" y2="300" stroke="#484a5e" stroke-width="0.5" stroke-dasharray="5,5"/><line aria-label="x: 2020" role="graphics-symbol" aria-roledescription="rule mark" transform="translate(300,0)" x2="0" y2="300" stroke="#484a5e" stroke-width="0.5" stroke-dasharray="5,5"/><line aria-label="x: 2020" role="graphics-symbol" aria-roledescription="rule mark" transform="translate(300,0)" x2="0" y2="300" stroke="#484a5e" stroke-width="0.5" stroke-dasharray="5,5"/><line aria-label="x: 2020" role="graphics-symbol" aria-roledescription="rule mark" transform="translate(300,0)" x2="0" y2="300" stroke="#484a5e" stroke-width="0.5" stroke-dasharray="5,5"/><line aria-label="x: 2020" role="graphics-symbol" aria-roledescription="rule mark" transform="translate(300,0)" x2="0" y2="300" stroke="#484a5e" stroke-width="0.5" stroke-dasharray="5,5"/><line aria-label="x: 2020" role="graphics-symbol" aria-roledescription="rule mark" transform="translate(300,0)" x2="0" y2="300" stroke="#484a5e" stroke-width="0.5" stroke-dasharray="5,5"/><line aria-label="x: 2020" role="graphics-symbol" aria-roledescription="rule mark" transform="translate(300,0)" x2="0" y2="300" stroke="#484a5e" stroke-width="0.5" stroke-dasharray="5,5"/><line aria-label="x: 2020" role="graphics-symbol" aria-roledescription="rule mark" transform="translate(300,0)" x2="0" y2="300" stroke="#484a5e" stroke-width="0.5" stroke-dasharray="5,5"/><line aria-label="x: 2020" role="graphics-symbol" aria-roledescription="rule mark" transform="translate(300,0)" x2="0" y2="300" stroke="#484a5e" stroke-width="0.5" stroke-dasharray="5,5"/><line aria-label="x: 2020" role="graphics-symbol" aria-roledescription="rule mark" transform="translate(300,0)" x2="0" y2="300" stroke="#484a5e" stroke-width="0.5" stroke-dasharray="5,5"/><line aria-label="x: 2020" role="graphics-symbol" aria-roledescription="rule mark" transform="translate(300,0)" x2="0" y2="300" stroke="#484a5e" stroke-width="0.5" stroke-dasharray="5,5"/><line aria-label="x: 2020" role="graphics-symbol" aria-roledescription="rule mark" transform="translate(300,0)" x2="0" y2="300" stroke="#484a5e" stroke-width="0.5" stroke-dasharray="5,5"/><line aria-label="x: 2020" role="graphics-symbol" aria-roledescription="rule mark" transform="translate(300,0)" x2="0" y2="300" stroke="#484a5e" stroke-width="0.5" stroke-dasharray="5,5"/><line aria-label="x: 2020" role="graphics-symbol" aria-roledescription="rule mark" transform="translate(300,0)" x2="0" y2="300" stroke="#484a5e" stroke-width="0.5" stroke-dasharray="5,5"/><line aria-label="x: 2020" role="graphics-symbol" aria-roledescription="rule mark" transform="translate(300,0)" x2="0" y2="300" stroke="#484a5e" stroke-width="0.5" stroke-dasharray="5,5"/><line aria-label="x: 2020" role="graphics-symbol" aria-roledescription="rule mark" transform="translate(300,0)" x2="0" y2="300" stroke="#484a5e" stroke-width="0.5" stroke-dasharray="5,5"/><line aria-label="x: 2020" role="graphics-symbol" aria-roledescription="rule mark" transform="translate(300,0)" x2="0" y2="300" stroke="#484a5e" stroke-width="0.5" stroke-dasharray="5,5"/><line aria-label="x: 2020" role="graphics-symbol" aria-roledescription="rule mark" transform="translate(300,0)" x2="0" y2="300" stroke="#484a5e" stroke-width="0.5" stroke-dasharray="5,5"/><line aria-label="x: 2020" role="graphics-symbol" aria-roledescription="rule mark" transform="translate(300,0)" x2="0" y2="300" stroke="#484a5e" stroke-width="0.5" stroke-dasharray="5,5"/><line aria-label="x: 2020" role="graphics-symbol" aria-roledescription="rule mark" transform="translate(300,0)" x2="0" y2="300" stroke="#484a5e" stroke-width="0.5" stroke-dasharray="5,5"/><line aria-label="x: 2020" role="graphics-symbol" aria-roledescription="rule mark" transform="translate(300,0)" x2="0" y2="300" stroke="#484a5e" stroke-width="0.5" stroke-dasharray="5,5"/><line aria-label="x: 2020" role="graphics-symbol" aria-roledescription="rule mark" transform="translate(300,0)" x2="0" y2="300" stroke="#484a5e" stroke-width="0.5" stroke-dasharray="5,5"/><line aria-label="x: 2020" role="graphics-symbol" aria-roledescription="rule mark" transform="translate(300,0)" x2="0" y2="300" stroke="#484a5e" stroke-width="0.5" stroke-dasharray="5,5"/><line aria-label="x: 2020" role="graphics-symbol" aria-roledescription="rule mark" transform="translate(300,0)" x2="0" y2="300" stroke="#484a5e" stroke-width="0.5" stroke-dasharray="5,5"/></g><g class="mark-line role-mark layer_2_marks" role="graphics-object" aria-roledescription="line mark container"><path aria-label="year: 2020; projected: 402.57342" role="graphics-symbol" aria-roledescription="line mark" d="M300,165.80885999999998L310,168.24024333333335L320,170.6488533333333L330,172.00153333333336L340,172.4862566666667L350,175.90787L360,178.22316999999998L370,179.69858333333335L380,179.89691333333334L390,179.57960333333332L400,181.35859" stroke="#36B7B4" stroke-width="2"/></g><g class="mark-line role-mark layer_3_marks" role="graphics-object" aria-roledescription="line mark container"><path aria-label="year: 1990; historic: 794" role="graphics-symbol" aria-roledescription="line mark" d="M0,35.40420333333336L10,32.45198666666666L20,39.65534333333336L30,46.28715666666668L40,49.34535000000001L50,51.55598L60,44.53674000000001L70,53.16557666666666L80,53.88747999999999L90,63.82862666666664L100,64.05821333333333L110.00000000000001,63.27807000000001L120,70.10223666666666L130,67.80193000000001L140,69.23710000000003L150,72.0522566666667L160,74.69583666666665L170,78.85065333333334L180,85.78080333333334L190,104.42353666666668L200,99.70103333333334L210,115.61488666666668L220.00000000000003,109.98599666666668L229.99999999999997,114.62482L240,128.00683666666666L250,134.04183333333333L260,142.54844L270,146.35422333333335L280,149.52943L290,163.13290333333333L300,165.80885999999998" stroke="#0063AF" stroke-width="2"/></g><g class="mark-text role-mark layer_4_marks" role="graphics-object" aria-roledescription="text mark container"><text aria-label="t: 2030 target; x: 2000; y: 290" role="graphics-symbol" aria-roledescription="text mark" text-anchor="middle" transform="translate(100,207.33333333333334)" font-family="Georgia" font-size="12px" fill="#676A86">2030 target</text></g><g class="mark-group role-title"><g transform="translate(-2,-32.5)"><path class="background" aria-hidden="true" d="M0,0h0v0h0Z" pointer-events="none"/><g><g class="mark-text role-title-text" role="graphics-symbol" aria-roledescription="title" aria-label="Title text 'UK emissions up to date and projected reduction to 2030'" pointer-events="none"><text text-anchor="start" transform="translate(5,11)" font-family="Georgia" font-size="14px" font-weight="bold" fill="#F4134D" opacity="1">UK emissions up to date and projected reduction to 2030</text></g><g class="mark-text role-title-subtitle" role="graphics-symbol" aria-roledescription="subtitle" aria-label="Subtitle text 'Source: BEIS (2020)'" pointer-events="none"><text text-anchor="start" transform="translate(5,26)" font-family="Georgia" font-size="12px" font-style="italic" fill="#F4134D" opacity="1">Source: BEIS (2020)</text></g></g><path class="foreground" aria-hidden="true" d="" pointer-events="none" display="none"/></g></g></g><path class="foreground" aria-hidden="true" d="" display="none"/></g></g></g></svg>