<svg xmlns="http://www.w3.org/2000/svg" xmlns:xlink="http://www.w3.org/1999/xlink" version="1.1" class="marks" width="407" height="297" viewBox="0 0 407 297"><rect width="407" height="297" fill="white"/><g fill="none" stroke-miterlimit="10" transform="translate(7,55)"><g class="mark-group role-frame root" role="graphics-object" aria-roledescription="group mark container"><g transform="translate(0,0)"><path class="background" aria-hidden="true" d="M0,0h300v220h-300Z"/><g><g class="mark-group role-axis" aria-hidden="true"><g transform="translate(0.5,0.5)"><path class="background" aria-hidden="true" d="M0,0h0v0h0Z" pointer-events="none"/><g><g class="mark-rule role-axis-grid" pointer-events="none"><line transform="translate(0,220)" x2="300" y2="0" stroke="#676A86" stroke-opacity="0.1" stroke-width="1" opacity="1"/><line transform="translate(0,196)" x2="300" y2="0" stroke="#676A86" stroke-opacity="0.1" stroke-width="1" opacity="1"/><line transform="translate(0,171)" x2="300" y2="0" stroke="#676A86" stroke-opacity="0.1" stroke-width="1" opacity="1"/><line transform="translate(0,147)" x2="300" y2="0" stroke="#676A86" stroke-opacity="0.1" stroke-width="1" opacity="1"/><line transform="translate(0,122)" x2="300" y2="0" stroke="#676A86" stroke-opacity="0.1" stroke-width="1" opacity="1"/><line transform="translate(0,98)" x2="300" y2="0" stroke="#676A86" stroke-opacity="0.1" stroke-width="1" opacity="1"/><line transform="translate(0,73)" x2="300" y2="0" stroke="#676A86" stroke-opacity="0.1" stroke-width="1" opacity="1"/><line transform="translate(0,49)" x2="300" y2="0" stroke="#676A86" stroke-opacity="0.1" stroke-width="1" opacity="1"/><line transform="translate(0,24)" x2="300" y2="0" stroke="#676A86" stroke-opacity="0.1" stroke-width="1" opacity="1"/><line transform="translate(0,0)" x2="300" y2="0" stroke="#676A86" stroke-opacity="0.1" stroke-width="1" opacity="1"/></g></g><path class="foreground" aria-hidden="true" d="" pointer-events="none" display="none"/></g></g><g class="mark-group role-axis" role="graphics-symbol" aria-roledescription="axis" aria-label="X-axis for a time scale with values from Saturday, 01 January 2000, 12:00:00 AM to Monday, 01 January 2018, 12:00:00 AM"><g transform="translate(0.5,220.5)"><path class="background" aria-hidden="true" d="M0,0h0v0h0Z" pointer-events="none"/><g><g class="mark-rule role-axis-tick" pointer-events="none"><line transform="translate(0,0)" x2="0" y2="5" stroke="#676A86" stroke-width="1" opacity="1"/><line transform="translate(33,0)" x2="0" y2="5" stroke="#676A86" stroke-width="1" opacity="1"/><line transform="translate(67,0)" x2="0" y2="5" stroke="#676A86" stroke-width="1" opacity="1"/><line transform="translate(100,0)" x2="0" y2="5" stroke="#676A86" stroke-width="1" opacity="1"/><line transform="translate(133,0)" x2="0" y2="5" stroke="#676A86" stroke-width="1" opacity="1"/><line transform="translate(167,0)" x2="0" y2="5" stroke="#676A86" stroke-width="1" opacity="1"/><line transform="translate(200,0)" x2="0" y2="5" stroke="#676A86" stroke-width="1" opacity="1"/><line transform="translate(233,0)" x2="0" y2="5" stroke="#676A86" stroke-width="1" opacity="1"/><line transform="translate(267,0)" x2="0" y2="5" stroke="#676A86" stroke-width="1" opacity="1"/><line transform="translate(300,0)" x2="0" y2="5" stroke="#676A86" stroke-width="1" opacity="1"/></g><g class="mark-text role-axis-label" pointer-events="none"><text text-anchor="start" transform="translate(0,15)" font-family="sans-serif" font-size="10px" fill="#676A86" opacity="1">2000</text><text text-anchor="middle" transform="translate(33.353612167300376,15)" font-family="sans-serif" font-size="10px" fill="#676A86" opacity="0">2002</text><text text-anchor="middle" transform="translate(66.6615969581749,15)" font-family="sans-serif" font-size="10px" fill="#676A86" opacity="1">2004</text><text text-anchor="middle" transform="translate(100.01520912547528,15)" font-family="sans-serif" font-size="10px" fill="#676A86" opacity="0">2006</text><text text-anchor="middle" transform="translate(133.3231939163498,15)" font-family="sans-serif" font-size="10px" fill="#676A86" opacity="1">2008</text><text text-anchor="middle" transform="translate(166.6768060836502,15)" font-family="sans-serif" font-size="10px" fill="#676A86" opacity="0">2010</text><text text-anchor="middle" transform="translate(199.98479087452472,15)" font-family="sans-serif" font-size="10px" fill="#676A86" opacity="1">2012</text><text text-anchor="middle" transform="translate(233.33840304182507,15)" font-family="sans-serif" font-size="10px" fill="#676A86" opacity="0">2014</text><text text-anchor="middle" transform="translate(266.6463878326996,15)" font-family="sans-serif" font-size="10px" fill="#676A86" opacity="1">2016</text><text text-anchor="end" transform="translate(300,15)" font-family="sans-serif" font-size="10px" fill="#676A86" opacity="0">2018</text></g><g class="mark-rule role-axis-domain" pointer-events="none"><line transform="translate(0,0)" x2="300" y2="0" stroke="#676A86" stroke-width="1" opacity="1"/></g></g><path class="foreground" aria-hidden="true" d="" pointer-events="none" display="none"/></g></g><g class="mark-group role-axis" role="graphics-symbol" aria-roledescription="axis" aria-label="Y-axis for a linear scale with values from 0% to 18%"><g transform="translate(0.5,0.5)"><path class="background" aria-hidden="true" d="M0,0h0v0h0Z" pointer-events="none"/><g><g class="mark-text role-axis-label" pointer-events="none"><text text-anchor="start" transform="translate(5,213)" font-family="sans-serif" font-size="10px" fill="#676A86" opacity="1">0%</text><text text-anchor="start" transform="translate(5,188.55555555555554)" font-family="sans-serif" font-size="10px" fill="#676A86" opacity="1">2%</text><text text-anchor="start" transform="translate(5,164.11111111111111)" font-family="sans-serif" font-size="10px" fill="#676A86" opacity="1">4%</text><text text-anchor="start" transform="translate(5,139.66666666666669)" font-family="sans-serif" font-size="10px" fill="#676A86" opacity="1">6%</text><text text-anchor="start" transform="translate(5,115.22222222222223)" font-family="sans-serif" font-size="10px" fill="#676A86" opacity="1">8%</text><text text-anchor="start" transform="translate(5,90.77777777777777)" font-family="sans-serif" font-size="10px" fill="#676A86" opacity="1">10%</text><text text-anchor="start" transform="translate(5,66.33333333333334)" font-family="sans-serif" font-size="10px" fill="#676A86" opacity="1">12%</text><text text-anchor="start" transform="translate(5,41.888888888888864)" font-family="sans-serif" font-size="10px" fill="#676A86" opacity="1">14%</text><text text-anchor="start" transform="translate(5,17.444444444444432)" font-family="sans-serif" font-size="10px" fill="#676A86" opacity="1">16%</text><text text-anchor="start" transform="translate(5,-7)" font-family="sans-serif" font-size="10px" fill="#676A86" opacity="1">18%</text></g><g class="mark-rule role-axis-domain" pointer-events="none"><line transform="translate(0,220)" x2="0" y2="-220" stroke="#676A86" stroke-width="1" opacity="1"/></g></g><path class="foreground" aria-hidden="true" d="" pointer-events="none" display="none"/></g></g><g class="mark-group role-scope layer_0_pathgroup" role="graphics-object" aria-roledescription="group mark container"><g transform="translate(0,0)"><path class="background" aria-hidden="true" d="M0,0h300v220h-300Z"/><g><g class="mark-line role-mark layer_0_marks" role="graphics-object" aria-roledescription="line mark container"><path aria-label="Country: Canada; Year: 2000; Green patents (%): 7.82; Time: Jan 01, 2000; m: 8%" role="graphics-symbol" aria-roledescription="line mark" d="M0,124.42222222222223L16.69961977186312,126.13333333333334L33.353612167300376,116.35555555555555L50.00760456273764,103.76666666666667L66.6615969581749,105.35555555555554L83.36121673003802,101.81111111111113L100.01520912547528,100.95555555555556L116.66920152091254,95.45555555555555L133.3231939163498,93.13333333333334L150.02281368821292,83.11111111111111L166.6768060836502,73.2111111111111L183.33079847908743,65.75555555555557L199.98479087452472,69.29999999999998L216.68441064638785,84.94444444444443L233.33840304182507,74.67777777777778L249.99239543726236,82.01111111111113L266.6463878326996,84.69999999999997L283.3460076045627,76.14444444444445L300,94.47777777777777" stroke="rgb(212, 238, 180)" stroke-width="2"/></g></g><path class="foreground" aria-hidden="true" d="" display="none"/></g><g transform="translate(0,0)"><path class="background" aria-hidden="true" d="M0,0h300v220h-300Z"/><g><g class="mark-line role-mark layer_0_marks" role="graphics-object" aria-roledescription="line mark container"><path aria-label="Country: France; Year: 2000; Green patents (%): 6.15; Time: Jan 01, 2000; m: 6%" role="graphics-symbol" aria-roledescription="line mark" d="M0,144.83333333333331L16.69961977186312,148.86666666666667L33.353612167300376,141.53333333333333L50.00760456273764,122.09999999999998L66.6615969581749,122.95555555555555L83.36121673003802,121.36666666666663L100.01520912547528,109.26666666666668L116.66920152091254,92.27777777777777L133.3231939163498,86.65555555555555L150.02281368821292,67.10000000000001L166.6768060836502,61.966666666666654L183.33079847908743,52.8L199.98479087452472,43.38888888888891L216.68441064638785,51.08888888888889L233.33840304182507,55.97777777777778L249.99239543726236,59.88888888888887L266.6463878326996,74.06666666666666L283.3460076045627,68.81111111111112L300,63.31111111111109" stroke="rgb(169, 221, 183)" stroke-width="2"/></g></g><path class="foreground" aria-hidden="true" d="" display="none"/></g><g transform="translate(0,0)"><path class="background" aria-hidden="true" d="M0,0h300v220h-300Z"/><g><g class="mark-line role-mark layer_0_marks" role="graphics-object" aria-roledescription="line mark container"><path aria-label="Country: Germany; Year: 2000; Green patents (%): 9.41; Time: Jan 01, 2000; m: 9%" role="graphics-symbol" aria-roledescription="line mark" d="M0,104.98888888888888L16.69961977186312,103.27777777777777L33.353612167300376,103.64444444444445L50.00760456273764,109.87777777777778L66.6615969581749,107.8L83.36121673003802,103.88888888888889L100.01520912547528,88.48888888888887L116.66920152091254,80.78888888888889L133.3231939163498,57.199999999999974L150.02281368821292,43.87777777777777L166.6768060836502,34.588888888888874L183.33079847908743,31.89999999999998L199.98479087452472,36.91111111111109L216.68441064638785,48.64444444444445L233.33840304182507,48.888888888888864L249.99239543726236,55.36666666666665L266.6463878326996,55.97777777777778L283.3460076045627,49.86666666666667L300,45.34444444444445" stroke="rgb(116, 201, 189)" stroke-width="2"/></g></g><path class="foreground" aria-hidden="true" d="" display="none"/></g><g transform="translate(0,0)"><path class="background" aria-hidden="true" d="M0,0h300v220h-300Z"/><g><g class="mark-line role-mark layer_0_marks" role="graphics-object" aria-roledescription="line mark container"><path aria-label="Country: Italy; Year: 2000; Green patents (%): 5.47; Time: Jan 01, 2000; m: 5%" role="graphics-symbol" aria-roledescription="line mark" d="M0,153.14444444444445L16.69961977186312,141.41111111111113L33.353612167300376,148.5L50.00760456273764,127.1111111111111L66.6615969581749,135.17777777777775L83.36121673003802,135.9111111111111L100.01520912547528,127.35555555555553L116.66920152091254,110.73333333333335L133.3231939163498,94.1111111111111L150.02281368821292,76.75555555555553L166.6768060836502,85.43333333333332L183.33079847908743,84.82222222222222L199.98479087452472,76.87777777777775L216.68441064638785,91.30000000000001L233.33840304182507,94.60000000000001L249.99239543726236,95.94444444444441L266.6463878326996,98.99999999999999L283.3460076045627,95.94444444444441L300,105.35555555555554" stroke="rgb(69, 180, 194)" stroke-width="2"/></g></g><path class="foreground" aria-hidden="true" d="" display="none"/></g><g transform="translate(0,0)"><path class="background" aria-hidden="true" d="M0,0h300v220h-300Z"/><g><g class="mark-line role-mark layer_0_marks" role="graphics-object" aria-roledescription="line mark container"><path aria-label="Country: Japan; Year: 2000; Green patents (%): 8.49; Time: Jan 01, 2000; m: 8%" role="graphics-symbol" aria-roledescription="line mark" d="M0,116.23333333333333L16.69961977186312,109.63333333333335L33.353612167300376,114.4L50.00760456273764,107.06666666666668L66.6615969581749,110.12222222222219L83.36121673003802,107.67777777777778L100.01520912547528,104.13333333333333L116.66920152091254,98.99999999999999L133.3231939163498,100.83333333333331L150.02281368821292,82.25555555555556L166.6768060836502,66.48888888888885L183.33079847908743,55.36666666666665L199.98479087452472,60.62222222222222L216.68441064638785,65.51111111111109L233.33840304182507,68.19999999999999L249.99239543726236,70.88888888888889L266.6463878326996,75.4111111111111L283.3460076045627,77.36666666666667L300,92.76666666666667" stroke="rgb(41, 151, 190)" stroke-width="2"/></g></g><path class="foreground" aria-hidden="true" d="" display="none"/></g><g transform="translate(0,0)"><path class="background" aria-hidden="true" d="M0,0h300v220h-300Z"/><g><g class="mark-line role-mark layer_0_marks" role="graphics-object" aria-roledescription="line mark container"><path aria-label="Country: Great Britain; Year: 2000; Green patents (%): 5.39; Time: Jan 01, 2000; m: 5%" role="graphics-symbol" aria-roledescription="line mark" d="M0,154.12222222222223L16.69961977186312,151.92222222222222L33.353612167300376,150.33333333333334L50.00760456273764,142.0222222222222L66.6615969581749,138.96666666666664L83.36121673003802,134.07777777777778L100.01520912547528,120.14444444444445L116.66920152091254,114.76666666666668L133.3231939163498,98.14444444444442L150.02281368821292,81.4L166.6768060836502,67.58888888888887L183.33079847908743,60.49999999999998L199.98479087452472,63.80000000000001L216.68441064638785,69.54444444444445L233.33840304182507,73.45555555555553L249.99239543726236,70.76666666666664L266.6463878326996,78.58888888888889L283.3460076045627,89.09999999999998L300,83.72222222222221" stroke="rgb(33, 115, 177)" stroke-width="2"/></g></g><path class="foreground" aria-hidden="true" d="" display="none"/></g><g transform="translate(0,0)"><path class="background" aria-hidden="true" d="M0,0h300v220h-300Z"/><g><g class="mark-line role-mark layer_0_marks" role="graphics-object" aria-roledescription="line mark container"><path aria-label="Country: United States; Year: 2000; Green patents (%): 5.64; Time: Jan 01, 2000; m: 6%" role="graphics-symbol" aria-roledescription="line mark" d="M0,151.06666666666666L16.69961977186312,147.76666666666665L33.353612167300376,139.33333333333331L50.00760456273764,140.92222222222222L66.6615969581749,135.54444444444442L83.36121673003802,129.67777777777778L100.01520912547528,121.00000000000001L116.66920152091254,102.66666666666667L133.3231939163498,82.13333333333333L150.02281368821292,68.56666666666663L166.6768060836502,65.51111111111109L183.33079847908743,71.01111111111112L199.98479087452472,68.93333333333334L216.68441064638785,79.44444444444443L233.33840304182507,82.5L249.99239543726236,84.21111111111111L266.6463878326996,84.82222222222222L283.3460076045627,92.76666666666667L300,104.25555555555553" stroke="rgb(35, 78, 160)" stroke-width="2"/></g></g><path class="foreground" aria-hidden="true" d="" display="none"/></g></g><g class="mark-text role-mark layer_1_marks" role="graphics-object" aria-roledescription="text mark container"><text aria-label="Country: France; Year: 2018; Green patents (%): 12.82; Time: Jan 01, 2018; m: 13%" role="graphics-symbol" aria-roledescription="text mark" text-anchor="start" transform="translate(305,66.31111111111109)" font-family="sans-serif" font-size="11px" fill="rgb(169, 221, 183)">France</text><text aria-label="Country: Germany; Year: 2018; Green patents (%): 14.29; Time: Jan 01, 2018; m: 14%" role="graphics-symbol" aria-roledescription="text mark" text-anchor="start" transform="translate(305,48.34444444444445)" font-family="sans-serif" font-size="11px" fill="rgb(116, 201, 189)">Germany</text><text aria-label="Country: Japan; Year: 2018; Green patents (%): 10.41; Time: Jan 01, 2018; m: 10%" role="graphics-symbol" aria-roledescription="text mark" text-anchor="start" transform="translate(305,95.76666666666667)" font-family="sans-serif" font-size="11px" fill="rgb(41, 151, 190)">Japan</text></g><g class="mark-text role-mark layer_2_marks" role="graphics-object" aria-roledescription="text mark container"><text aria-label="Country: Italy; Year: 2018; Green patents (%): 9.38; Time: Jan 01, 2018; m: 9%" role="graphics-symbol" aria-roledescription="text mark" text-anchor="start" transform="translate(305,121.35555555555554)" font-family="sans-serif" font-size="11px" fill="rgb(69, 180, 194)">Italy</text></g><g class="mark-text role-mark layer_3_marks" role="graphics-object" aria-roledescription="text mark container"><text aria-label="Country: Canada; Year: 2018; Green patents (%): 10.27; Time: Jan 01, 2018; m: 10%" role="graphics-symbol" aria-roledescription="text mark" text-anchor="start" transform="translate(340,97.47777777777777)" font-family="sans-serif" font-size="11px" fill="rgb(212, 238, 180)">Canada</text></g><g class="mark-text role-mark layer_4_marks" role="graphics-object" aria-roledescription="text mark container"><text aria-label="Country: Great Britain; Year: 2018; Green patents (%): 11.15; Time: Jan 01, 2018; m: 11%" role="graphics-symbol" aria-roledescription="text mark" text-anchor="start" transform="translate(305,83.72222222222221)" font-family="sans-serif" font-size="11px" fill="rgb(33, 115, 177)">United Kingdom</text></g><g class="mark-text role-mark layer_5_marks" role="graphics-object" aria-roledescription="text mark container"><text aria-label="Country: United States; Year: 2018; Green patents (%): 9.47; Time: Jan 01, 2018; m: 9%" role="graphics-symbol" aria-roledescription="text mark" text-anchor="start" transform="translate(305,109.25555555555553)" font-family="sans-serif" font-size="11px" fill="rgb(35, 78, 160)">United States</text></g><g class="mark-group role-title"><g transform="translate(-2,-45)"><path class="background" aria-hidden="true" d="M0,0h0v0h0Z" pointer-events="none"/><g><g class="mark-text role-title-text" role="graphics-symbol" aria-roledescription="title" aria-label="Title text 'Innovation: environmental technology patents'" pointer-events="none"><text text-anchor="start" transform="translate(0,5)" font-family="sans-serif" font-size="13px" font-weight="bold" fill="black" opacity="1">Innovation: environmental technology patents</text></g><g class="mark-text role-title-subtitle" role="graphics-symbol" aria-roledescription="subtitle" aria-label="Subtitle text 'Environmental patents as share national total, G7. Source: OECD'" pointer-events="none"><text text-anchor="start" transform="translate(0,19)" font-family="sans-serif" font-size="10px" font-style="italic" fill="#000" opacity="1">Environmental patents as share national total, G7. Source: OECD</text></g></g><path class="foreground" aria-hidden="true" d="" pointer-events="none" display="none"/></g></g></g><path class="foreground" aria-hidden="true" d="" display="none"/></g></g></g></svg>