<svg xmlns="http://www.w3.org/2000/svg" xmlns:xlink="http://www.w3.org/1999/xlink" version="1.1" class="marks" width="533" height="410" viewBox="0 0 533 410"><rect width="533" height="410" fill="#122B39"/><g fill="none" stroke-miterlimit="10" transform="translate(27,38)"><g class="mark-group role-frame root" role="graphics-object" aria-roledescription="group mark container"><g transform="translate(0,0)"><path class="background" aria-hidden="true" d="M0.5,0.5h500v350h-500Z" stroke="#ddd"/><g><g class="mark-group role-axis" aria-hidden="true"><g transform="translate(0.5,0.5)"><path class="background" aria-hidden="true" d="M0,0h0v0h0Z" pointer-events="none"/><g><g class="mark-rule role-axis-grid" pointer-events="none"><line transform="translate(0,350)" x2="500" y2="0" stroke="#b4c8d8" stroke-opacity="0.5" stroke-width="1" stroke-dasharray="1,5" opacity="1"/><line transform="translate(0,292)" x2="500" y2="0" stroke="#b4c8d8" stroke-opacity="0.5" stroke-width="1" stroke-dasharray="1,5" opacity="1"/><line transform="translate(0,233)" x2="500" y2="0" stroke="#b4c8d8" stroke-opacity="0.5" stroke-width="1" stroke-dasharray="1,5" opacity="1"/><line transform="translate(0,175)" x2="500" y2="0" stroke="#b4c8d8" stroke-opacity="0.5" stroke-width="1" stroke-dasharray="1,5" opacity="1"/><line transform="translate(0,117)" x2="500" y2="0" stroke="#b4c8d8" stroke-opacity="0.5" stroke-width="1" stroke-dasharray="1,5" opacity="1"/><line transform="translate(0,58)" x2="500" y2="0" stroke="#b4c8d8" stroke-opacity="0.5" stroke-width="1" stroke-dasharray="1,5" opacity="1"/><line transform="translate(0,0)" x2="500" y2="0" stroke="#b4c8d8" stroke-opacity="0.5" stroke-width="1" stroke-dasharray="1,5" opacity="1"/></g></g><path class="foreground" aria-hidden="true" d="" pointer-events="none" display="none"/></g></g><g class="mark-group role-axis" role="graphics-symbol" aria-roledescription="axis" aria-label="X-axis titled 'Percentage of variation in performance Greater socio-economic fairness ➜                  accounted for by socio-economic status' for a linear scale with values from 30 to 0"><g transform="translate(0.5,350.5)"><path class="background" aria-hidden="true" d="M0,0h0v0h0Z" pointer-events="none"/><g><g class="mark-rule role-axis-tick" pointer-events="none"><line transform="translate(0,0)" x2="0" y2="5" stroke="#b4c8d8" stroke-opacity="0.5" stroke-width="1" opacity="1"/><line transform="translate(83,0)" x2="0" y2="5" stroke="#b4c8d8" stroke-opacity="0.5" stroke-width="1" opacity="1"/><line transform="translate(167,0)" x2="0" y2="5" stroke="#b4c8d8" stroke-opacity="0.5" stroke-width="1" opacity="1"/><line transform="translate(250,0)" x2="0" y2="5" stroke="#b4c8d8" stroke-opacity="0.5" stroke-width="1" opacity="1"/><line transform="translate(333,0)" x2="0" y2="5" stroke="#b4c8d8" stroke-opacity="0.5" stroke-width="1" opacity="1"/><line transform="translate(417,0)" x2="0" y2="5" stroke="#b4c8d8" stroke-opacity="0.5" stroke-width="1" opacity="1"/><line transform="translate(500,0)" x2="0" y2="5" stroke="#b4c8d8" stroke-opacity="0.5" stroke-width="1" opacity="1"/></g><g class="mark-text role-axis-label" pointer-events="none"><text text-anchor="start" transform="translate(0,15)" font-family="sans-serif" font-size="10px" fill="#b4c8d8" fill-opacity="0.7" opacity="1">30</text><text text-anchor="middle" transform="translate(83.33333333333331,15)" font-family="sans-serif" font-size="10px" fill="#b4c8d8" fill-opacity="0.7" opacity="1">25</text><text text-anchor="middle" transform="translate(166.66666666666669,15)" font-family="sans-serif" font-size="10px" fill="#b4c8d8" fill-opacity="0.7" opacity="1">20</text><text text-anchor="middle" transform="translate(250,15)" font-family="sans-serif" font-size="10px" fill="#b4c8d8" fill-opacity="0.7" opacity="1">15</text><text text-anchor="middle" transform="translate(333.33333333333337,15)" font-family="sans-serif" font-size="10px" fill="#b4c8d8" fill-opacity="0.7" opacity="1">10</text><text text-anchor="middle" transform="translate(416.6666666666667,15)" font-family="sans-serif" font-size="10px" fill="#b4c8d8" fill-opacity="0.7" opacity="1">5</text><text text-anchor="end" transform="translate(500,15)" font-family="sans-serif" font-size="10px" fill="#b4c8d8" fill-opacity="0.7" opacity="1">0</text></g><g class="mark-rule role-axis-domain" pointer-events="none"><line transform="translate(0,0)" x2="500" y2="0" stroke="#b4c8d8" stroke-opacity="0.5" stroke-width="1" opacity="1"/></g><g class="mark-text role-axis-title" pointer-events="none"><text text-anchor="end" transform="translate(497,-21)" font-family="sans-serif" font-size="12px" font-weight="bold" fill="#b4c8d8" fill-opacity="0.8" opacity="1"><tspan>Percentage of variation in performance</tspan><tspan x="0" dy="14">Greater socio-economic fairness ➜                  accounted for by socio-economic status</tspan></text></g></g><path class="foreground" aria-hidden="true" d="" pointer-events="none" display="none"/></g></g><g class="mark-group role-axis" role="graphics-symbol" aria-roledescription="axis" aria-label="Y-axis titled 'Mean score in mathematics (higher is better)' for a linear scale with values from 300 to 600"><g transform="translate(0.5,0.5)"><path class="background" aria-hidden="true" d="M0,0h0v0h0Z" pointer-events="none"/><g><g class="mark-text role-axis-label" pointer-events="none"><text text-anchor="end" transform="translate(-5,353)" font-family="sans-serif" font-size="10px" fill="#b4c8d8" fill-opacity="0.7" opacity="1">300</text><text text-anchor="end" transform="translate(-5,294.6666666666667)" font-family="sans-serif" font-size="10px" fill="#b4c8d8" fill-opacity="0.7" opacity="1">350</text><text text-anchor="end" transform="translate(-5,236.33333333333337)" font-family="sans-serif" font-size="10px" fill="#b4c8d8" fill-opacity="0.7" opacity="1">400</text><text text-anchor="end" transform="translate(-5,178)" font-family="sans-serif" font-size="10px" fill="#b4c8d8" fill-opacity="0.7" opacity="1">450</text><text text-anchor="end" transform="translate(-5,119.66666666666669)" font-family="sans-serif" font-size="10px" fill="#b4c8d8" fill-opacity="0.7" opacity="1">500</text><text text-anchor="end" transform="translate(-5,61.33333333333332)" font-family="sans-serif" font-size="10px" fill="#b4c8d8" fill-opacity="0.7" opacity="1">550</text><text text-anchor="end" transform="translate(-5,3)" font-family="sans-serif" font-size="10px" fill="#b4c8d8" fill-opacity="0.7" opacity="1">600</text></g><g class="mark-rule role-axis-domain" pointer-events="none"><line transform="translate(0,350)" x2="0" y2="-350" stroke="#b4c8d8" stroke-opacity="0.5" stroke-width="1" opacity="1"/></g><g class="mark-text role-axis-title" pointer-events="none"><text text-anchor="start" transform="translate(0,-10)" font-family="sans-serif" font-size="12px" font-weight="bold" fill="#b4c8d8" fill-opacity="0.8" opacity="1">Mean score in mathematics (higher is better)</text></g></g><path class="foreground" aria-hidden="true" d="" pointer-events="none" display="none"/></g></g><g class="mark-line role-mark layer_0_marks" clip-path="url(#clip13)" role="graphics-object" aria-roledescription="line mark container"><path aria-label="x: 30; y: 472" role="graphics-symbol" aria-roledescription="line mark" d="M0,148.913L500,148.913" stroke="#b4c8d8" stroke-width="1" opacity="0.3"/></g><g class="mark-line role-mark layer_1_marks" clip-path="url(#clip14)" role="graphics-object" aria-roledescription="line mark container"><path aria-label="x: 15.46; y: 300" role="graphics-symbol" aria-roledescription="line mark" d="M242.333,350L242.333,0" stroke="#b4c8d8" stroke-width="1" opacity="0.3"/></g><g class="mark-symbol role-mark layer_2_marks" role="graphics-object" aria-roledescription="symbol mark container"><path aria-label="p: 14.5532169756; score: 487.084253512; country: Australia" role="graphics-symbol" aria-roledescription="point" transform="translate(257.4463837401305,131.73503756918078)" d="M2.739,0A2.739,2.739,0,1,1,-2.739,0A2.739,2.739,0,1,1,2.739,0" fill="#179FDB" fill-opacity="0.5" stroke="#179FDB" stroke-width="2" opacity="0.7"/><path aria-label="p: 19.3804265728; score: 487.267498967; country: Austria" role="graphics-symbol" aria-roledescription="point" transform="translate(176.99289045260653,131.5212512047498)" d="M2.739,0A2.739,2.739,0,1,1,-2.739,0A2.739,2.739,0,1,1,2.739,0" fill="#179FDB" fill-opacity="0.5" stroke="#179FDB" stroke-width="2" opacity="0.7"/><path aria-label="p: 21.8277086175; score: 489.486816745; country: Belgium" role="graphics-symbol" aria-roledescription="point" transform="translate(136.20485637457318,128.93204713089747)" d="M2.739,0A2.739,2.739,0,1,1,-2.739,0A2.739,2.739,0,1,1,2.739,0" fill="#179FDB" fill-opacity="0.5" stroke="#179FDB" stroke-width="2" opacity="0.7"/><path aria-label="p: 10.211405073; score: 496.947894436; country: Canada" role="graphics-symbol" aria-roledescription="point" transform="translate(329.8099154492933,120.22745649167878)" d="M2.739,0A2.739,2.739,0,1,1,-2.739,0A2.739,2.739,0,1,1,2.739,0" fill="#179FDB" fill-opacity="0.5" stroke="#179FDB" stroke-width="2" opacity="0.7"/><path aria-label="p: 12.4706305568; score: 411.696570708; country: Chile" role="graphics-symbol" aria-roledescription="point" transform="translate(292.15615738677815,219.68733417388788)" d="M2.739,0A2.739,2.739,0,1,1,-2.739,0A2.739,2.739,0,1,1,2.739,0" fill="#179FDB" fill-opacity="0.5" stroke="#179FDB" stroke-width="2" opacity="0.7"/><path aria-label="p: 16.1616238046; score: 382.69683513; country: Colombia" role="graphics-symbol" aria-roledescription="point" transform="translate(230.63960325644945,253.52035901550474)" d="M2.739,0A2.739,2.739,0,1,1,-2.739,0A2.739,2.739,0,1,1,2.739,0" fill="#179FDB" fill-opacity="0.5" stroke="#179FDB" stroke-width="2" opacity="0.7"/><path aria-label="p: 22.0445745522; score: 486.999207852; country: Czech Republic" role="graphics-symbol" aria-roledescription="point" transform="translate(132.5904241300735,131.83425750608822)" d="M2.739,0A2.739,2.739,0,1,1,-2.739,0A2.739,2.739,0,1,1,2.739,0" fill="#179FDB" fill-opacity="0.5" stroke="#179FDB" stroke-width="2" opacity="0.7"/><path aria-label="p: 12.1853100011; score: 489.273876942; country: Denmark" role="graphics-symbol" aria-roledescription="point" transform="translate(296.91149998180725,129.18047690052052)" d="M2.739,0A2.739,2.739,0,1,1,-2.739,0A2.739,2.739,0,1,1,2.739,0" fill="#179FDB" fill-opacity="0.5" stroke="#179FDB" stroke-width="2" opacity="0.7"/><path aria-label="p: 13.4482888568; score: 509.946953225; country: Estonia" role="graphics-symbol" aria-roledescription="point" transform="translate(275.8618523866548,105.06188790444493)" d="M2.739,0A2.739,2.739,0,1,1,-2.739,0A2.739,2.739,0,1,1,2.739,0" fill="#179FDB" fill-opacity="0.5" stroke="#179FDB" stroke-width="2" opacity="0.7"/><path aria-label="p: 12.4361340586; score: 484.139225638; country: Finland" role="graphics-symbol" aria-roledescription="point" transform="translate(292.7310990236265,135.1709034226052)" d="M2.739,0A2.739,2.739,0,1,1,-2.739,0A2.739,2.739,0,1,1,2.739,0" fill="#179FDB" fill-opacity="0.5" stroke="#179FDB" stroke-width="2" opacity="0.7"/><path aria-label="p: 21.4792572536; score: 473.944418421; country: France" role="graphics-symbol" aria-roledescription="point" transform="translate(142.01237910599323,147.06484517596851)" d="M2.739,0A2.739,2.739,0,1,1,-2.739,0A2.739,2.739,0,1,1,2.739,0" fill="#179FDB" fill-opacity="0.5" stroke="#179FDB" stroke-width="2" opacity="0.7"/><path aria-label="p: 18.7018560041; score: 474.826453908; country: Germany" role="graphics-symbol" aria-roledescription="point" transform="translate(188.3023999310019,146.03580377416674)" d="M2.739,0A2.739,2.739,0,1,1,-2.739,0A2.739,2.739,0,1,1,2.739,0" fill="#179FDB" fill-opacity="0.5" stroke="#179FDB" stroke-width="2" opacity="0.7"/><path aria-label="p: 11.8075321382; score: 430.146321853; country: Greece" role="graphics-symbol" aria-roledescription="point" transform="translate(303.2077976959423,198.16262450450597)" d="M2.739,0A2.739,2.739,0,1,1,-2.739,0A2.739,2.739,0,1,1,2.739,0" fill="#179FDB" fill-opacity="0.5" stroke="#179FDB" stroke-width="2" opacity="0.7"/><path aria-label="p: 25.1154683289; score: 472.776122372; country: Hungary" role="graphics-symbol" aria-roledescription="point" transform="translate(81.40886118479068,148.42785723273684)" d="M2.739,0A2.739,2.739,0,1,1,-2.739,0A2.739,2.739,0,1,1,2.739,0" fill="#179FDB" fill-opacity="0.5" stroke="#179FDB" stroke-width="2" opacity="0.7"/><path aria-label="p: 9.26158157745; score: 458.89644981; country: Iceland" role="graphics-symbol" aria-roledescription="point" transform="translate(345.640307042455,164.62080855455682)" d="M2.739,0A2.739,2.739,0,1,1,-2.739,0A2.739,2.739,0,1,1,2.739,0" fill="#179FDB" fill-opacity="0.5" stroke="#179FDB" stroke-width="2" opacity="0.7"/><path aria-label="p: 12.9636349831; score: 491.648279592; country: Ireland" role="graphics-symbol" aria-roledescription="point" transform="translate(283.9394169483922,126.41034047613677)" d="M2.739,0A2.739,2.739,0,1,1,-2.739,0A2.739,2.739,0,1,1,2.739,0" fill="#179FDB" fill-opacity="0.5" stroke="#179FDB" stroke-width="2" opacity="0.7"/><path aria-label="p: 19.6185488449; score: 457.896666593; country: Israel" role="graphics-symbol" aria-roledescription="point" transform="translate(173.0241859184623,165.78722230779883)" d="M2.739,0A2.739,2.739,0,1,1,-2.739,0A2.739,2.739,0,1,1,2.739,0" fill="#179FDB" fill-opacity="0.5" stroke="#179FDB" stroke-width="2" opacity="0.7"/><path aria-label="p: 13.4782567208; score: 471.259475476; country: Italy" role="graphics-symbol" aria-roledescription="point" transform="translate(275.36238798609827,150.19727861099898)" d="M2.739,0A2.739,2.739,0,1,1,-2.739,0A2.739,2.739,0,1,1,2.739,0" fill="#179FDB" fill-opacity="0.5" stroke="#179FDB" stroke-width="2" opacity="0.7"/><path aria-label="p: 11.8623223999; score: 535.579305996; country: Japan" role="graphics-symbol" aria-roledescription="point" transform="translate(302.29462666875185,75.15747633833158)" d="M2.739,0A2.739,2.739,0,1,1,-2.739,0A2.739,2.739,0,1,1,2.739,0" fill="#179FDB" fill-opacity="0.5" stroke="#179FDB" stroke-width="2" opacity="0.7"/><path aria-label="p: 12.6029639402; score: 527.30250178; country: Korea" role="graphics-symbol" aria-roledescription="point" transform="translate(289.9506009964089,84.8137479227986)" d="M2.739,0A2.739,2.739,0,1,1,-2.739,0A2.739,2.739,0,1,1,2.739,0" fill="#179FDB" fill-opacity="0.5" stroke="#179FDB" stroke-width="2" opacity="0.7"/><path aria-label="p: 13.2451260525; score: 483.159455202; country: Latvia" role="graphics-symbol" aria-roledescription="point" transform="translate(279.2478991244405,136.31396893121266)" d="M2.739,0A2.739,2.739,0,1,1,-2.739,0A2.739,2.739,0,1,1,2.739,0" fill="#179FDB" fill-opacity="0.5" stroke="#179FDB" stroke-width="2" opacity="0.7"/><path aria-label="p: 16.5279561633; score: 475.146761977; country: Lithuania" role="graphics-symbol" aria-roledescription="point" transform="translate(224.5340639451809,145.66211102653335)" d="M2.739,0A2.739,2.739,0,1,1,-2.739,0A2.739,2.739,0,1,1,2.739,0" fill="#179FDB" fill-opacity="0.5" stroke="#179FDB" stroke-width="2" opacity="0.7"/><path aria-label="p: 10.3961720762; score: 395.029919219; country: Mexico" role="graphics-symbol" aria-roledescription="point" transform="translate(326.7304653962735,239.13176091150473)" d="M2.739,0A2.739,2.739,0,1,1,-2.739,0A2.739,2.739,0,1,1,2.739,0" fill="#179FDB" fill-opacity="0.5" stroke="#179FDB" stroke-width="2" opacity="0.7"/><path aria-label="p: 15.1329547074; score: 492.675638978; country: Netherlands" role="graphics-symbol" aria-roledescription="point" transform="translate(247.78408820995918,125.2117545250878)" d="M2.739,0A2.739,2.739,0,1,1,-2.739,0A2.739,2.739,0,1,1,2.739,0" fill="#179FDB" fill-opacity="0.5" stroke="#179FDB" stroke-width="2" opacity="0.7"/><path aria-label="p: 15.8474929874; score: 479.074193452; country: New Zealand" role="graphics-symbol" aria-roledescription="point" transform="translate(235.87511687660856,141.08010763889249)" d="M2.739,0A2.739,2.739,0,1,1,-2.739,0A2.739,2.739,0,1,1,2.739,0" fill="#179FDB" fill-opacity="0.5" stroke="#179FDB" stroke-width="2" opacity="0.7"/><path aria-label="p: 9.60125404424; score: 468.449949892; country: Norway" role="graphics-symbol" aria-roledescription="point" transform="translate(339.97909926258507,153.4750584596979)" d="M2.739,0A2.739,2.739,0,1,1,-2.739,0A2.739,2.739,0,1,1,2.739,0" fill="#179FDB" fill-opacity="0.5" stroke="#179FDB" stroke-width="2" opacity="0.7"/><path aria-label="p: 16.2507794916; score: 488.960053764; country: Poland" role="graphics-symbol" aria-roledescription="point" transform="translate(229.15367513983765,129.5466039423482)" d="M2.739,0A2.739,2.739,0,1,1,-2.739,0A2.739,2.739,0,1,1,2.739,0" fill="#179FDB" fill-opacity="0.5" stroke="#179FDB" stroke-width="2" opacity="0.7"/><path aria-label="p: 18.2394948594; score: 471.910522106; country: Portugal" role="graphics-symbol" aria-roledescription="point" transform="translate(196.00841900922472,149.43772420996)" d="M2.739,0A2.739,2.739,0,1,1,-2.739,0A2.739,2.739,0,1,1,2.739,0" fill="#179FDB" fill-opacity="0.5" stroke="#179FDB" stroke-width="2" opacity="0.7"/><path aria-label="p: 25.7158084707; score: 463.994618478; country: Slovak Republic" role="graphics-symbol" aria-roledescription="point" transform="translate(71.40319215432633,158.67294510869095)" d="M2.739,0A2.739,2.739,0,1,1,-2.739,0A2.739,2.739,0,1,1,2.739,0" fill="#179FDB" fill-opacity="0.5" stroke="#179FDB" stroke-width="2" opacity="0.7"/><path aria-label="p: 15.7378641037; score: 484.529008648; country: Slovenia" role="graphics-symbol" aria-roledescription="point" transform="translate(237.70226493883578,134.71615657692516)" d="M2.739,0A2.739,2.739,0,1,1,-2.739,0A2.739,2.739,0,1,1,2.739,0" fill="#179FDB" fill-opacity="0.5" stroke="#179FDB" stroke-width="2" opacity="0.7"/><path aria-label="p: 14.1972326812; score: 473.140208025; country: Spain" role="graphics-symbol" aria-roledescription="point" transform="translate(263.37945531376386,148.0030906379586)" d="M2.739,0A2.739,2.739,0,1,1,-2.739,0A2.739,2.739,0,1,1,2.739,0" fill="#179FDB" fill-opacity="0.5" stroke="#179FDB" stroke-width="2" opacity="0.7"/><path aria-label="p: 14.9651902147; score: 481.766065397; country: Sweden" role="graphics-symbol" aria-roledescription="point" transform="translate(250.58016308818776,137.93959037015804)" d="M2.739,0A2.739,2.739,0,1,1,-2.739,0A2.739,2.739,0,1,1,2.739,0" fill="#179FDB" fill-opacity="0.5" stroke="#179FDB" stroke-width="2" opacity="0.7"/><path aria-label="p: 20.8245812772; score: 507.990586449; country: Switzerland" role="graphics-symbol" aria-roledescription="point" transform="translate(152.9236453796588,107.34431580984653)" d="M2.739,0A2.739,2.739,0,1,1,-2.739,0A2.739,2.739,0,1,1,2.739,0" fill="#179FDB" fill-opacity="0.5" stroke="#179FDB" stroke-width="2" opacity="0.7"/><path aria-label="p: 12.5875875896; score: 453.151767402; country: Türkiye" role="graphics-symbol" aria-roledescription="point" transform="translate(290.2068735058416,171.3229380311956)" d="M2.739,0A2.739,2.739,0,1,1,-2.739,0A2.739,2.739,0,1,1,2.739,0" fill="#179FDB" fill-opacity="0.5" stroke="#179FDB" stroke-width="2" opacity="0.7"/><path aria-label="p: 14.9059207251; score: 464.888043012; country: United States" role="graphics-symbol" aria-roledescription="point" transform="translate(251.56798791450785,157.63061648585645)" d="M2.739,0A2.739,2.739,0,1,1,-2.739,0A2.739,2.739,0,1,1,2.739,0" fill="#179FDB" fill-opacity="0.5" stroke="#179FDB" stroke-width="2" opacity="0.7"/><path aria-label="p: 4.48092327129; score: 368.221719951; country: Albania" role="graphics-symbol" aria-roledescription="point" transform="translate(425.3179454784974,270.4079933904474)" d="M2.739,0A2.739,2.739,0,1,1,-2.739,0A2.739,2.739,0,1,1,2.739,0" fill="#179FDB" fill-opacity="0.5" stroke="#179FDB" stroke-width="2" opacity="0.7"/><path aria-label="p: 15.376894965; score: 377.529028648; country: Argentina" role="graphics-symbol" aria-roledescription="point" transform="translate(243.71841725080245,259.5494665768037)" d="M2.739,0A2.739,2.739,0,1,1,-2.739,0A2.739,2.739,0,1,1,2.739,0" fill="#179FDB" fill-opacity="0.5" stroke="#179FDB" stroke-width="2" opacity="0.7"/><path aria-label="p: 5.2132753845; score: 396.882292871; country: Baku" role="graphics-symbol" aria-roledescription="point" transform="translate(413.11207692501966,236.97065831735367)" d="M2.739,0A2.739,2.739,0,1,1,-2.739,0A2.739,2.739,0,1,1,2.739,0" fill="#179FDB" fill-opacity="0.5" stroke="#179FDB" stroke-width="2" opacity="0.7"/><path aria-label="p: 14.8439753305; score: 378.691366947; country: Brazil" role="graphics-symbol" aria-roledescription="point" transform="translate(252.60041115780007,258.1934052285204)" d="M2.739,0A2.739,2.739,0,1,1,-2.739,0A2.739,2.739,0,1,1,2.739,0" fill="#179FDB" fill-opacity="0.5" stroke="#179FDB" stroke-width="2" opacity="0.7"/><path aria-label="p: 15.9971043619; score: 442.093104471; country: Brunei Darussalam" role="graphics-symbol" aria-roledescription="point" transform="translate(233.38159396832248,184.22471145052174)" d="M2.739,0A2.739,2.739,0,1,1,-2.739,0A2.739,2.739,0,1,1,2.739,0" fill="#179FDB" fill-opacity="0.5" stroke="#179FDB" stroke-width="2" opacity="0.7"/><path aria-label="p: 17.241715011; score: 417.303900375; country: Bulgaria" role="graphics-symbol" aria-roledescription="point" transform="translate(212.63808315038202,213.1454495626537)" d="M2.739,0A2.739,2.739,0,1,1,-2.739,0A2.739,2.739,0,1,1,2.739,0" fill="#179FDB" fill-opacity="0.5" stroke="#179FDB" stroke-width="2" opacity="0.7"/><path aria-label="p: 1.9245521827; score: 336.396041259; country: Cambodia" role="graphics-symbol" aria-roledescription="point" transform="translate(467.9241302883601,307.5379518641423)" d="M2.739,0A2.739,2.739,0,1,1,-2.739,0A2.739,2.739,0,1,1,2.739,0" fill="#179FDB" fill-opacity="0.5" stroke="#179FDB" stroke-width="2" opacity="0.7"/><path aria-label="p: 12.9773618272; score: 463.105189367; country: Croatia" role="graphics-symbol" aria-roledescription="point" transform="translate(283.7106362136947,159.71061240459323)" d="M2.739,0A2.739,2.739,0,1,1,-2.739,0A2.739,2.739,0,1,1,2.739,0" fill="#179FDB" fill-opacity="0.5" stroke="#179FDB" stroke-width="2" opacity="0.7"/><path aria-label="p: 10.9285281848; score: 418.306680024; country: Cyprus" role="graphics-symbol" aria-roledescription="point" transform="translate(317.85786358714205,211.97553997257205)" d="M2.739,0A2.739,2.739,0,1,1,-2.739,0A2.739,2.739,0,1,1,2.739,0" fill="#179FDB" fill-opacity="0.5" stroke="#179FDB" stroke-width="2" opacity="0.7"/><path aria-label="p: 10.1310456506; score: 339.107246733; country: Dominican Republic" role="graphics-symbol" aria-roledescription="point" transform="translate(331.14923915590464,304.374878811983)" d="M2.739,0A2.739,2.739,0,1,1,-2.739,0A2.739,2.739,0,1,1,2.739,0" fill="#179FDB" fill-opacity="0.5" stroke="#179FDB" stroke-width="2" opacity="0.7"/><path aria-label="p: 14.3597869651; score: 343.469100977; country: El Salvador" role="graphics-symbol" aria-roledescription="point" transform="translate(260.67021724894585,299.28604886049015)" d="M2.739,0A2.739,2.739,0,1,1,-2.739,0A2.739,2.739,0,1,1,2.739,0" fill="#179FDB" fill-opacity="0.5" stroke="#179FDB" stroke-width="2" opacity="0.7"/><path aria-label="p: 7.81671572597; score: 390.024220322; country: Georgia" role="graphics-symbol" aria-roledescription="point" transform="translate(369.7214045672229,244.97174295803697)" d="M2.739,0A2.739,2.739,0,1,1,-2.739,0A2.739,2.739,0,1,1,2.739,0" fill="#179FDB" fill-opacity="0.5" stroke="#179FDB" stroke-width="2" opacity="0.7"/><path aria-label="p: 12.1226209544; score: 344.199488137; country: Guatemala" role="graphics-symbol" aria-roledescription="point" transform="translate(297.9563174266645,298.43393050649775)" d="M2.739,0A2.739,2.739,0,1,1,-2.739,0A2.739,2.739,0,1,1,2.739,0" fill="#179FDB" fill-opacity="0.5" stroke="#179FDB" stroke-width="2" opacity="0.7"/><path aria-label="p: 5.75039858107; score: 540.351801229; country: Hong Kong" role="graphics-symbol" aria-roledescription="point" transform="translate(404.16002364887584,69.58956523319584)" d="M2.739,0A2.739,2.739,0,1,1,-2.739,0A2.739,2.739,0,1,1,2.739,0" fill="#179FDB" fill-opacity="0.5" stroke="#179FDB" stroke-width="2" opacity="0.7"/><path aria-label="p: 5.51498748632; score: 365.525253872; country: Indonesia" role="graphics-symbol" aria-roledescription="point" transform="translate(408.0835418946315,273.5538704831602)" d="M2.739,0A2.739,2.739,0,1,1,-2.739,0A2.739,2.739,0,1,1,2.739,0" fill="#179FDB" fill-opacity="0.5" stroke="#179FDB" stroke-width="2" opacity="0.7"/><path aria-label="p: 6.11705150402; score: 377.416939219; country: Jamaica" role="graphics-symbol" aria-roledescription="point" transform="translate(398.0491415996467,259.6802375782593)" d="M2.739,0A2.739,2.739,0,1,1,-2.739,0A2.739,2.739,0,1,1,2.739,0" fill="#179FDB" fill-opacity="0.5" stroke="#179FDB" stroke-width="2" opacity="0.7"/><path aria-label="p: 5.24329267565; score: 361.228028367; country: Jordan" role="graphics-symbol" aria-roledescription="point" transform="translate(412.61178873924166,278.5673002389917)" d="M2.739,0A2.739,2.739,0,1,1,-2.739,0A2.739,2.739,0,1,1,2.739,0" fill="#179FDB" fill-opacity="0.5" stroke="#179FDB" stroke-width="2" opacity="0.7"/><path aria-label="p: 3.93980096186; score: 425.439128836; country: Kazakhstan" role="graphics-symbol" aria-roledescription="point" transform="translate(434.33665063573216,203.65434969172662)" d="M2.739,0A2.739,2.739,0,1,1,-2.739,0A2.739,2.739,0,1,1,2.739,0" fill="#179FDB" fill-opacity="0.5" stroke="#179FDB" stroke-width="2" opacity="0.7"/><path aria-label="p: 5.67754003517; score: 354.962443826; country: Kosovo" role="graphics-symbol" aria-roledescription="point" transform="translate(405.3743327471657,285.87714886918974)" d="M2.739,0A2.739,2.739,0,1,1,-2.739,0A2.739,2.739,0,1,1,2.739,0" fill="#179FDB" fill-opacity="0.5" stroke="#179FDB" stroke-width="2" opacity="0.7"/><path aria-label="p: 4.95597522681; score: 551.923153065; country: Macao" role="graphics-symbol" aria-roledescription="point" transform="translate(417.40041288646995,56.08965475794093)" d="M2.739,0A2.739,2.739,0,1,1,-2.739,0A2.739,2.739,0,1,1,2.739,0" fill="#179FDB" fill-opacity="0.5" stroke="#179FDB" stroke-width="2" opacity="0.7"/><path aria-label="p: 18.051274073; score: 408.687432194; country: Malaysia" role="graphics-symbol" aria-roledescription="point" transform="translate(199.1454321172127,223.19799577336764)" d="M2.739,0A2.739,2.739,0,1,1,-2.739,0A2.739,2.739,0,1,1,2.739,0" fill="#179FDB" fill-opacity="0.5" stroke="#179FDB" stroke-width="2" opacity="0.7"/><path aria-label="p: 9.98650890696; score: 466.016112911; country: Malta" role="graphics-symbol" aria-roledescription="point" transform="translate(333.55818488404776,156.31453493710035)" d="M2.739,0A2.739,2.739,0,1,1,-2.739,0A2.739,2.739,0,1,1,2.739,0" fill="#179FDB" fill-opacity="0.5" stroke="#179FDB" stroke-width="2" opacity="0.7"/><path aria-label="p: 15.6110077649; score: 414.198063198; country: Moldova" role="graphics-symbol" aria-roledescription="point" transform="translate(239.81653725131247,216.76892626943086)" d="M2.739,0A2.739,2.739,0,1,1,-2.739,0A2.739,2.739,0,1,1,2.739,0" fill="#179FDB" fill-opacity="0.5" stroke="#179FDB" stroke-width="2" opacity="0.7"/><path aria-label="p: 18.1307245749; score: 424.593128543; country: Mongolia" role="graphics-symbol" aria-roledescription="point" transform="translate(197.82125708475274,204.64135003334783)" d="M2.739,0A2.739,2.739,0,1,1,-2.739,0A2.739,2.739,0,1,1,2.739,0" fill="#179FDB" fill-opacity="0.5" stroke="#179FDB" stroke-width="2" opacity="0.7"/><path aria-label="p: 9.4708259157; score: 405.601173338; country: Montenegro" role="graphics-symbol" aria-roledescription="point" transform="translate(342.15290140504686,226.798631105674)" d="M2.739,0A2.739,2.739,0,1,1,-2.739,0A2.739,2.739,0,1,1,2.739,0" fill="#179FDB" fill-opacity="0.5" stroke="#179FDB" stroke-width="2" opacity="0.7"/><path aria-label="p: 8.46444622038; score: 364.766240696; country: Morocco" role="graphics-symbol" aria-roledescription="point" transform="translate(358.9258963269902,274.43938585462865)" d="M2.739,0A2.739,2.739,0,1,1,-2.739,0A2.739,2.739,0,1,1,2.739,0" fill="#179FDB" fill-opacity="0.5" stroke="#179FDB" stroke-width="2" opacity="0.7"/><path aria-label="p: 12.5329854271; score: 388.575506783; country: North Macedonia" role="graphics-symbol" aria-roledescription="point" transform="translate(291.11690954883227,246.66190875286088)" d="M2.739,0A2.739,2.739,0,1,1,-2.739,0A2.739,2.739,0,1,1,2.739,0" fill="#179FDB" fill-opacity="0.5" stroke="#179FDB" stroke-width="2" opacity="0.7"/><path aria-label="p: 7.41521666532; score: 365.746676442; country: Palestinian Authority" role="graphics-symbol" aria-roledescription="point" transform="translate(376.41305557799615,273.29554415043367)" d="M2.739,0A2.739,2.739,0,1,1,-2.739,0A2.739,2.739,0,1,1,2.739,0" fill="#179FDB" fill-opacity="0.5" stroke="#179FDB" stroke-width="2" opacity="0.7"/><path aria-label="p: 20.0060055615; score: 356.573503919; country: Panama" role="graphics-symbol" aria-roledescription="point" transform="translate(166.56657397424107,283.9975787616384)" d="M2.739,0A2.739,2.739,0,1,1,-2.739,0A2.739,2.739,0,1,1,2.739,0" fill="#179FDB" fill-opacity="0.5" stroke="#179FDB" stroke-width="2" opacity="0.7"/><path aria-label="p: 11.1999504278; score: 337.539750436; country: Paraguay" role="graphics-symbol" aria-roledescription="point" transform="translate(313.3341595372879,306.20362449115817)" d="M2.739,0A2.739,2.739,0,1,1,-2.739,0A2.739,2.739,0,1,1,2.739,0" fill="#179FDB" fill-opacity="0.5" stroke="#179FDB" stroke-width="2" opacity="0.7"/><path aria-label="p: 17.2839517425; score: 391.23578464; country: Peru" role="graphics-symbol" aria-roledescription="point" transform="translate(211.93413762573894,243.55825125306566)" d="M2.739,0A2.739,2.739,0,1,1,-2.739,0A2.739,2.739,0,1,1,2.739,0" fill="#179FDB" fill-opacity="0.5" stroke="#179FDB" stroke-width="2" opacity="0.7"/><path aria-label="p: 4.77488640884; score: 354.719712789; country: Philippines" role="graphics-symbol" aria-roledescription="point" transform="translate(420.4185598527061,286.1603350796658)" d="M2.739,0A2.739,2.739,0,1,1,-2.739,0A2.739,2.739,0,1,1,2.739,0" fill="#179FDB" fill-opacity="0.5" stroke="#179FDB" stroke-width="2" opacity="0.7"/><path aria-label="p: 11.6763852882; score: 414.106221786; country: Qatar" role="graphics-symbol" aria-roledescription="point" transform="translate(305.39357853003804,216.8760745835581)" d="M2.739,0A2.739,2.739,0,1,1,-2.739,0A2.739,2.739,0,1,1,2.739,0" fill="#179FDB" fill-opacity="0.5" stroke="#179FDB" stroke-width="2" opacity="0.7"/><path aria-label="p: 25.8375295008; score: 427.759996669; country: Romania" role="graphics-symbol" aria-roledescription="point" transform="translate(69.37450832057823,200.94667055286519)" d="M2.739,0A2.739,2.739,0,1,1,-2.739,0A2.739,2.739,0,1,1,2.739,0" fill="#179FDB" fill-opacity="0.5" stroke="#179FDB" stroke-width="2" opacity="0.7"/><path aria-label="p: 6.41731548143; score: 388.781606996; country: Saudi Arabia" role="graphics-symbol" aria-roledescription="point" transform="translate(393.0447419761938,246.42145850470402)" d="M2.739,0A2.739,2.739,0,1,1,-2.739,0A2.739,2.739,0,1,1,2.739,0" fill="#179FDB" fill-opacity="0.5" stroke="#179FDB" stroke-width="2" opacity="0.7"/><path aria-label="p: 13.3903486153; score: 439.876666681; country: Serbia" role="graphics-symbol" aria-roledescription="point" transform="translate(276.82752307796153,186.81055553829947)" d="M2.739,0A2.739,2.739,0,1,1,-2.739,0A2.739,2.739,0,1,1,2.739,0" fill="#179FDB" fill-opacity="0.5" stroke="#179FDB" stroke-width="2" opacity="0.7"/><path aria-label="p: 17.0407864526; score: 574.663819593; country: Singapore" role="graphics-symbol" aria-roledescription="point" transform="translate(215.98689245634677,29.558877141242863)" d="M2.739,0A2.739,2.739,0,1,1,-2.739,0A2.739,2.739,0,1,1,2.739,0" fill="#179FDB" fill-opacity="0.5" stroke="#179FDB" stroke-width="2" opacity="0.7"/><path aria-label="p: 15.6510060974; score: 547.094164389; country: Chinese Taipei" role="graphics-symbol" aria-roledescription="point" transform="translate(239.14989837615752,61.72347487996003)" d="M2.739,0A2.739,2.739,0,1,1,-2.739,0A2.739,2.739,0,1,1,2.739,0" fill="#179FDB" fill-opacity="0.5" stroke="#179FDB" stroke-width="2" opacity="0.7"/><path aria-label="p: 10.1350086488; score: 393.945355917; country: Thailand" role="graphics-symbol" aria-roledescription="point" transform="translate(331.0831891864056,240.3970847638106)" d="M2.739,0A2.739,2.739,0,1,1,-2.739,0A2.739,2.739,0,1,1,2.739,0" fill="#179FDB" fill-opacity="0.5" stroke="#179FDB" stroke-width="2" opacity="0.7"/><path aria-label="p: 13.7548274517; score: 440.845308889; country: Ukrainian regions" role="graphics-symbol" aria-roledescription="point" transform="translate(270.7528758047557,185.6804729625251)" d="M2.739,0A2.739,2.739,0,1,1,-2.739,0A2.739,2.739,0,1,1,2.739,0" fill="#179FDB" fill-opacity="0.5" stroke="#179FDB" stroke-width="2" opacity="0.7"/><path aria-label="p: 5.82248391136; score: 431.110476584; country: United Arab Emirates" role="graphics-symbol" aria-roledescription="point" transform="translate(402.95860147735135,197.03777731918578)" d="M2.739,0A2.739,2.739,0,1,1,-2.739,0A2.739,2.739,0,1,1,2.739,0" fill="#179FDB" fill-opacity="0.5" stroke="#179FDB" stroke-width="2" opacity="0.7"/><path aria-label="p: 17.898127006; score: 408.712066392; country: Uruguay" role="graphics-symbol" aria-roledescription="point" transform="translate(201.69788323380277,223.16925587580144)" d="M2.739,0A2.739,2.739,0,1,1,-2.739,0A2.739,2.739,0,1,1,2.739,0" fill="#179FDB" fill-opacity="0.5" stroke="#179FDB" stroke-width="2" opacity="0.7"/><path aria-label="p: 2.00952199758; score: 363.935374681; country: Uzbekistan" role="graphics-symbol" aria-roledescription="point" transform="translate(466.5079667069425,275.40872953832866)" d="M2.739,0A2.739,2.739,0,1,1,-2.739,0A2.739,2.739,0,1,1,2.739,0" fill="#179FDB" fill-opacity="0.5" stroke="#179FDB" stroke-width="2" opacity="0.7"/><path aria-label="p: 13.7709562998; score: 469.402427481; country: Viet Nam" role="graphics-symbol" aria-roledescription="point" transform="translate(270.4840616705859,152.36383460514517)" d="M2.739,0A2.739,2.739,0,1,1,-2.739,0A2.739,2.739,0,1,1,2.739,0" fill="#179FDB" fill-opacity="0.5" stroke="#179FDB" stroke-width="2" opacity="0.7"/></g><g class="mark-text role-mark layer_3_marks" role="graphics-object" aria-roledescription="text mark container"><text aria-label="p: 12.4361340586; score: 484.139225638; country: Finland" role="graphics-symbol" aria-roledescription="text mark" text-anchor="middle" transform="translate(292.7310990236265,126.17090342260519)" font-family="sans-serif" font-size="11px" fill="#179FDB">Finland</text><text aria-label="p: 21.4792572536; score: 473.944418421; country: France" role="graphics-symbol" aria-roledescription="text mark" text-anchor="middle" transform="translate(142.01237910599323,138.06484517596851)" font-family="sans-serif" font-size="11px" fill="#179FDB">France</text><text aria-label="p: 18.7018560041; score: 474.826453908; country: Germany" role="graphics-symbol" aria-roledescription="text mark" text-anchor="middle" transform="translate(188.3023999310019,137.03580377416674)" font-family="sans-serif" font-size="11px" fill="#179FDB">Germany</text><text aria-label="p: 25.1154683289; score: 472.776122372; country: Hungary" role="graphics-symbol" aria-roledescription="text mark" text-anchor="middle" transform="translate(81.40886118479068,139.42785723273684)" font-family="sans-serif" font-size="11px" fill="#179FDB">Hungary</text><text aria-label="p: 11.8623223999; score: 535.579305996; country: Japan" role="graphics-symbol" aria-roledescription="text mark" text-anchor="middle" transform="translate(302.29462666875185,66.15747633833158)" font-family="sans-serif" font-size="11px" fill="#179FDB">Japan</text><text aria-label="p: 9.60125404424; score: 468.449949892; country: Norway" role="graphics-symbol" aria-roledescription="text mark" text-anchor="middle" transform="translate(339.97909926258507,144.4750584596979)" font-family="sans-serif" font-size="11px" fill="#179FDB">Norway</text><text aria-label="p: 16.2507794916; score: 488.960053764; country: Poland" role="graphics-symbol" aria-roledescription="text mark" text-anchor="middle" transform="translate(229.15367513983765,120.54660394234821)" font-family="sans-serif" font-size="11px" fill="#179FDB">Poland</text><text aria-label="p: 20.8245812772; score: 507.990586449; country: Switzerland" role="graphics-symbol" aria-roledescription="text mark" text-anchor="middle" transform="translate(152.9236453796588,98.34431580984653)" font-family="sans-serif" font-size="11px" fill="#179FDB">Switzerland</text><text aria-label="p: 14.9059207251; score: 464.888043012; country: United States" role="graphics-symbol" aria-roledescription="text mark" text-anchor="middle" transform="translate(251.56798791450785,148.63061648585645)" font-family="sans-serif" font-size="11px" fill="#179FDB">United States</text><text aria-label="p: 1.9245521827; score: 336.396041259; country: Cambodia" role="graphics-symbol" aria-roledescription="text mark" text-anchor="middle" transform="translate(467.9241302883601,298.5379518641423)" font-family="sans-serif" font-size="11px" fill="#179FDB">Cambodia</text><text aria-label="p: 7.81671572597; score: 390.024220322; country: Georgia" role="graphics-symbol" aria-roledescription="text mark" text-anchor="middle" transform="translate(369.7214045672229,235.97174295803697)" font-family="sans-serif" font-size="11px" fill="#179FDB">Georgia</text><text aria-label="p: 5.75039858107; score: 540.351801229; country: Hong Kong" role="graphics-symbol" aria-roledescription="text mark" text-anchor="middle" transform="translate(404.16002364887584,60.58956523319584)" font-family="sans-serif" font-size="11px" fill="#179FDB">Hong Kong</text><text aria-label="p: 4.95597522681; score: 551.923153065; country: Macao" role="graphics-symbol" aria-roledescription="text mark" text-anchor="middle" transform="translate(417.40041288646995,47.08965475794093)" font-family="sans-serif" font-size="11px" fill="#179FDB">Macao</text><text aria-label="p: 18.1307245749; score: 424.593128543; country: Mongolia" role="graphics-symbol" aria-roledescription="text mark" text-anchor="middle" transform="translate(197.82125708475274,195.64135003334783)" font-family="sans-serif" font-size="11px" fill="#179FDB">Mongolia</text><text aria-label="p: 20.0060055615; score: 356.573503919; country: Panama" role="graphics-symbol" aria-roledescription="text mark" text-anchor="middle" transform="translate(166.56657397424107,274.9975787616384)" font-family="sans-serif" font-size="11px" fill="#179FDB">Panama</text><text aria-label="p: 11.1999504278; score: 337.539750436; country: Paraguay" role="graphics-symbol" aria-roledescription="text mark" text-anchor="middle" transform="translate(313.3341595372879,297.20362449115817)" font-family="sans-serif" font-size="11px" fill="#179FDB">Paraguay</text><text aria-label="p: 25.8375295008; score: 427.759996669; country: Romania" role="graphics-symbol" aria-roledescription="text mark" text-anchor="middle" transform="translate(69.37450832057823,191.94667055286519)" font-family="sans-serif" font-size="11px" fill="#179FDB">Romania</text><text aria-label="p: 17.0407864526; score: 574.663819593; country: Singapore" role="graphics-symbol" aria-roledescription="text mark" text-anchor="middle" transform="translate(215.98689245634677,20.558877141242863)" font-family="sans-serif" font-size="11px" fill="#179FDB">Singapore</text><text aria-label="p: 5.82248391136; score: 431.110476584; country: United Arab Emirates" role="graphics-symbol" aria-roledescription="text mark" text-anchor="middle" transform="translate(402.95860147735135,188.03777731918578)" font-family="sans-serif" font-size="11px" fill="#179FDB">United Arab Emirates</text><text aria-label="p: 2.00952199758; score: 363.935374681; country: Uzbekistan" role="graphics-symbol" aria-roledescription="text mark" text-anchor="middle" transform="translate(466.5079667069425,266.40872953832866)" font-family="sans-serif" font-size="11px" fill="#179FDB">Uzbekistan</text></g><g class="mark-symbol role-mark layer_4_marks" role="graphics-object" aria-roledescription="symbol mark container"><path aria-label="p: 10.9529203127; score: 488.975085066; country: United Kingdom" role="graphics-symbol" aria-roledescription="point" transform="translate(317.4513281210053,129.5290674232758)" d="M4.743,0A4.743,4.743,0,1,1,-4.743,0A4.743,4.743,0,1,1,4.743,0" fill="#0063AF" fill-opacity="0.7" stroke="#0063AF" stroke-width="2" opacity="0.7"/></g><g class="mark-text role-mark layer_5_marks" role="graphics-object" aria-roledescription="text mark container"><text aria-label="p: 10.9529203127; score: 488.975085066; country: United Kingdom" role="graphics-symbol" aria-roledescription="text mark" text-anchor="middle" transform="translate(331.4513281210053,112.52906742327579)" font-family="sans-serif" font-size="11px" font-weight="bold" fill="#0063AF">United Kingdom</text></g><g class="mark-text role-mark layer_6_marks" role="graphics-object" aria-roledescription="text mark container"><text aria-label="x: 0; y: 472.36; t: OECD average: 472" role="graphics-symbol" aria-roledescription="text mark" text-anchor="end" transform="translate(495,141.91333333333333)" font-family="sans-serif" font-size="11px" fill="#b4c8d8" opacity="0.8">OECD average: 472</text></g><g class="mark-text role-mark layer_7_marks" role="graphics-object" aria-roledescription="text mark container"><text aria-label="x: 15.46; y: 600; t: OECD average: 15%" role="graphics-symbol" aria-roledescription="text mark" text-anchor="start" transform="translate(247.33333333333334,14)" font-family="sans-serif" font-size="11px" fill="#b4c8d8" opacity="0.8">OECD average: 15%</text></g><g class="mark-image role-mark layer_8_marks" role="graphics-object" aria-roledescription="image mark container"><image aria-label="x: 0; y: 600; img: https://raw.githubusercontent.com/EconomicsObservatory/ECOvisualisations/main/guidelines/logos/eco-icon-light.png" role="graphics-symbol" aria-roledescription="image mark" xlink:href="https://raw.githubusercontent.com/EconomicsObservatory/ECOvisualisations/main/guidelines/logos/eco-icon-light.png" transform="translate(460,-33)" width="40" height="40" preserveAspectRatio="xMidYMid" opacity="0.5"/></g></g><path class="foreground" aria-hidden="true" d="" display="none"/></g></g></g><defs><clipPath id="clip13"><rect x="0" y="0" width="500" height="350"/></clipPath><clipPath id="clip14"><rect x="0" y="0" width="500" height="350"/></clipPath></defs></svg>