<svg xmlns="http://www.w3.org/2000/svg" xmlns:xlink="http://www.w3.org/1999/xlink" version="1.1" class="marks" width="439" height="360" viewBox="0 0 439 360"><rect width="439" height="360" fill="#122B39"/><g fill="none" stroke-miterlimit="10" transform="translate(5,37)"><g class="mark-group role-frame root" role="graphics-object" aria-roledescription="group mark container"><g transform="translate(0,0)"><path class="background" aria-hidden="true" d="M0,0h400v300h-400Z"/><g><g class="mark-group role-axis" role="graphics-symbol" aria-roledescription="axis" aria-label="X-axis titled 'Pollution' for a linear scale with values from −1.6 to 1.4"><g transform="translate(0.5,300.5)"><path class="background" aria-hidden="true" d="M0,0h0v0h0Z" pointer-events="none"/><g><g class="mark-rule role-axis-tick" pointer-events="none"><line transform="translate(80,0)" x2="0" y2="5" stroke="#676A86" stroke-width="1" opacity="1"/><line transform="translate(213,0)" x2="0" y2="5" stroke="#676A86" stroke-width="1" opacity="1"/><line transform="translate(347,0)" x2="0" y2="5" stroke="#676A86" stroke-width="1" opacity="1"/></g><g class="mark-text role-axis-label" pointer-events="none"><text text-anchor="middle" transform="translate(80.00000000000001,16)" font-family="Georgia" font-size="12px" fill="#676A86" opacity="1">−1.0</text><text text-anchor="middle" transform="translate(213.33333333333334,16)" font-family="Georgia" font-size="12px" fill="#676A86" opacity="1">0.0</text><text text-anchor="middle" transform="translate(346.6666666666667,16)" font-family="Georgia" font-size="12px" fill="#676A86" opacity="1">1.0</text></g><g class="mark-rule role-axis-domain" pointer-events="none"><line transform="translate(0,0)" x2="400" y2="0" stroke="#676A86" stroke-width="1" opacity="1"/></g><g class="mark-text role-axis-title" pointer-events="none"><text text-anchor="end" transform="translate(400,-6)" font-family="Georgia" font-size="12px" font-weight="normal" fill="#676A86" opacity="1">Pollution</text></g></g><path class="foreground" aria-hidden="true" d="" pointer-events="none" display="none"/></g></g><g class="mark-group role-axis" role="graphics-symbol" aria-roledescription="axis" aria-label="Y-axis titled 'Share of low-skilled workers (standardised)' for a linear scale with values from −0.5 to 0.5"><g transform="translate(0.5,0.5)"><path class="background" aria-hidden="true" d="M0,0h0v0h0Z" pointer-events="none"/><g><g class="mark-text role-axis-label" pointer-events="none"><text text-anchor="start" transform="translate(5,264)" font-family="Georgia" font-size="12px" fill="#676A86" opacity="1">−0.4</text><text text-anchor="start" transform="translate(5,204)" font-family="Georgia" font-size="12px" fill="#676A86" opacity="1">−0.2</text><text text-anchor="start" transform="translate(5,144)" font-family="Georgia" font-size="12px" fill="#676A86" opacity="1">0.0</text><text text-anchor="start" transform="translate(5,84.00000000000001)" font-family="Georgia" font-size="12px" fill="#676A86" opacity="1">0.2</text><text text-anchor="start" transform="translate(5,23.999999999999993)" font-family="Georgia" font-size="12px" fill="#676A86" opacity="1">0.4</text></g><g class="mark-rule role-axis-domain" pointer-events="none"><line transform="translate(0,300)" x2="0" y2="-300" stroke="#676A86" stroke-width="1" opacity="1"/></g><g class="mark-text role-axis-title" pointer-events="none"><text text-anchor="start" transform="translate(27,24)" font-family="Georgia" font-size="12px" font-weight="normal" fill="#676A86" opacity="1">Share of low-skilled workers (standardised)</text></g></g><path class="foreground" aria-hidden="true" d="" pointer-events="none" display="none"/></g></g><g class="mark-group role-scope layer_0_pathgroup" role="graphics-object" aria-roledescription="group mark container"><g transform="translate(0,0)"><path class="background" aria-hidden="true" d="M0,0h400v300h-400Z"/><g><g class="mark-line role-mark layer_0_marks" role="graphics-object" aria-roledescription="line mark container"><path aria-label="year: 1881; x: −1.4; y: −0.2" role="graphics-symbol" aria-roledescription="line mark" d="M29.06906906906907,203.06704494549794L32.192192192192195,201.00492757951318C35.315315315315324,198.94281021352842,41.56156156156157,194.8185754815589,48.2882882882883,191.66268478423171C55.015015015015024,188.50679408690453,62.22222222222223,186.31924742421975,68.22822822822823,185.50918321636553C74.23423423423424,184.69911900851127,79.03903903903905,185.26653725548752,83.6836836836837,185.6953362201981C88.32832832832833,186.12413518490868,92.81281281281281,186.41431486735357,98.17817817817819,186.15474590612712C103.54354354354355,185.89517694490073,109.78978978978982,185.085859340003,115.63563563563567,184.27529739684437C121.48148148148151,183.46473545368573,126.92692692692695,182.6529291722662,132.77277277277278,181.42800258822362C138.61861861861863,180.20307600418099,144.8648648648649,178.56502911751534,150.95095095095098,176.51211985466134C157.03703703703707,174.45921059180728,162.96296296296296,171.99143895276492,168.8888888888889,169.7999104076452C174.8148148148148,167.60838186252548,180.74074074074076,165.69309641132847,186.5865865865866,163.36319745159525C192.43243243243242,161.03329849186204,198.19819819819818,158.28878602359268,203.8838838838839,155.5440246876711C209.56956956956958,152.79926335174954,215.1751751751752,150.0542531481758,220.86086086086087,146.89512717137026C226.54654654654658,143.73600119456475,232.31231231231234,140.1627594445274,237.7577577577578,137.14100841172663C243.2032032032032,134.11925737892588,248.32832832832833,131.6489970633617,253.61361361361364,128.6267482952566C258.89889889889884,125.60449952715146,264.34434434434434,122.03026230650539,269.70970970970967,118.59389776516848C275.07507507507506,115.15753322383154,280.36036036036035,111.85904136180376,286.2062062062062,108.7004131203026C292.05205205205203,105.54178487880142,298.45845845845844,102.52302025782687,305.1851851851852,99.78149420138368C311.911911911912,97.03996814494052,318.95895895895904,94.57568065302871,325.4454454454455,92.93838036931959C331.931931931932,91.30108008561047,337.8578578578579,90.49076701010402,343.943943943944,90.09531631078592C350.03003003003005,89.69986561146781,356.2762762762763,89.71927728833805,362.12212212212216,89.3230799860634C367.967967967968,88.92688268378875,373.4134134134135,88.11507640236921,378.1381381381382,88.26788114080931C382.86286286286287,88.4206858792494,386.8668668668668,89.53810163754913,390.39039039039034,90.93026728385843C393.91391391391386,92.32243293016774,396.95695695695696,93.98934846448658,398.4784784784785,94.82280623164603L400,95.65626399880544" stroke="#0063AF" stroke-width="2"/></g></g><path class="foreground" aria-hidden="true" d="" display="none"/></g><g transform="translate(0,0)"><path class="background" aria-hidden="true" d="M0,0h400v300h-400Z"/><g><g class="mark-line role-mark layer_0_marks" role="graphics-object" aria-roledescription="line mark container"><path aria-label="year: 1817; x: −1.4; y: −0.1" role="graphics-symbol" aria-roledescription="line mark" d="M32.612612612612615,170.7756816484993L34.283163163163174,169.5562980003484C35.95371371371372,168.33691435219748,39.29481481481483,165.89814705589566,43.04750083416752,163.79264090056907C46.80018685352021,161.68713474524247,50.96445779112448,159.9148897308911,54.81398732065401,158.8463454511141C58.663516850183534,157.77780117133707,62.19830497163832,157.4129576261344,66.48363029696364,157.40539590695667C70.76895562228897,157.39783418777893,75.80481815148482,157.7475542946261,80.59857190523859,157.63717576692713C85.39232565899233,157.52679723922816,89.94397063730399,156.95632007698305,94.15666332999668,156.46830703631807C98.36935602268937,155.9802939956531,102.24309642976311,155.5747450765683,106.29236569903237,155.32111711504322C110.34163496830165,155.06748915351815,114.56643309976646,154.96578214955287,118.53701701701702,154.93636292369717C122.50760093426761,154.90694369784148,126.22397063730398,154.9498122500954,130.23692359025694,154.64909283592985C134.2498765432099,154.3483734217643,138.5594127460794,153.7040660411793,142.69342008675343,153.48202048388166C146.82742742742744,153.25997492658405,150.7859059059059,153.4601911925738,154.99859859859862,153.6142188977652C159.2112912912913,153.76824660295657,163.6781981981982,153.87608574734955,169.7993793793794,153.6311066833408C175.92056056056057,153.38612761933203,183.69601601601605,152.7883303469215,193.26942942942947,151.95461512617587C202.84284284284286,151.12089990543026,214.2142142142142,150.0512667363496,225.26526526526527,149.39500273754416C236.31631631631635,148.7387387387387,247.04704704704704,148.49584391020855,256.6244377711044,147.4890517312893C266.2018284951618,146.48225955237004,274.6258792125459,144.71157002306174,280.80503837170505,143.9001965535978C286.9841975308642,143.08882308413385,290.9184651317985,143.2367656745143,294.8648381715049,143.20727120767177C298.8112112112113,143.17777674082922,302.76968968968976,142.9708452167637,306.9133813813815,142.72377450724204C311.0570730730731,142.47670379772038,315.38597797797803,142.18949390274253,319.39893093093093,142.09234838360462C323.4118838838839,141.99520286446668,327.1088848848849,142.08812172116868,331.19083883883883,142.1885007217162C335.2727927927928,142.2888797222637,339.73969969969977,142.3967188666567,343.70180980980984,142.24304103205415C347.6639199199199,142.0893631974516,351.1212332332332,141.67416838385347,355.05377148577145,141.3553024559682C358.9863097383097,141.03643652808293,363.3940729300729,140.81389948591053,367.3743411983412,141.4025398223796C371.3546094666095,141.99118015884864,374.90738281138283,143.39099787395918,377.8749446589447,144.75439680169512C380.8425065065065,146.1177957294311,383.2248568568569,147.44477586979244,385.9413173173173,148.57235234682193C388.65777777777777,149.69992882385145,391.70834834834835,150.62810163754912,393.2336336336336,151.092188044398L394.7589189189189,151.55627445124682" stroke="#36B7B4" stroke-width="2"/></g></g><path class="foreground" aria-hidden="true" d="" display="none"/></g><g transform="translate(0,0)"><path class="background" aria-hidden="true" d="M0,0h400v300h-400Z"/><g><g class="mark-line role-mark layer_0_marks" role="graphics-object" aria-roledescription="line mark container"><path aria-label="year: 2011; x: −1.4; y: −0.4" role="graphics-symbol" aria-roledescription="line mark" d="M25.93041041041042,265.4637549151362L27.334641307974653,265.2661584035065C28.738872205538886,265.06856189187687,31.54733400066735,264.6733688686175,34.578535869202554,264.496246748668C37.60973773773776,264.31912462871855,40.8636796796797,264.3600734120789,44.05951551551553,263.3294531547046C47.25535135135136,262.29883289733016,50.3930810810811,260.196643599221,53.55986386386388,257.2850377081358C56.72664664664666,254.3734318170506,59.9224824824825,250.65240933298946,63.28174174174175,246.5623298084624C66.64100100100102,242.47225028393532,70.16368368368369,238.01311371894244,73.30141341341341,234.303299405885C76.43914314314316,230.5934850928276,79.19191991991993,227.63299303170572,82.22433233233234,224.43933120438365C85.25674474474476,221.24566937706163,88.5687927927928,217.81883778353946,91.91212874412876,214.19589571418575C95.25546469546471,210.57295364483207,98.63008855008856,206.75390109964692,103.13331177331179,202.349061166796C107.63653499653502,197.94422123394497,113.26835758835762,192.9535939134282,117.65313374913377,189.75211828331445C122.03790990990994,186.5506426532007,125.17563963963966,185.13831871349,128.37147547547548,183.6164637331958C131.56731131131133,182.09460875290156,134.82125325325327,180.4632227320238,138.04614214214214,178.88375504409478C141.27103103103104,177.3042873561658,144.46686686686687,175.77673800118546,147.61912312312313,174.1602209673259C150.7713793793794,172.54370393346633,153.88005605605608,170.8382192207275,158.5388748748749,168.67290100949768C163.1976936936937,166.50758279826786,169.40665465465466,163.88243108854712,174.91353753753756,161.8867135284456C180.42042042042044,159.89099596834404,185.22522522522524,158.52471255786173,190.0958078078078,157.13105069434073C194.96639039039042,155.73738883081975,199.90275075075078,154.3163485142601,204.02695495495496,153.12239749141403C208.1511591591592,151.928446468568,211.46320720720723,150.96158473943555,214.71714914914915,150.14867017343812C217.9710910910911,149.3357556074407,221.16692692692695,148.67678820457826,228.63771199771202,146.6510996842844C236.1084970684971,144.6254111639905,247.8542313742314,141.23300152626516,255.74572286572288,139.207583530419C263.63721435721436,137.1821655345728,267.6744630344631,136.5237391806058,272.3267246467247,135.09341423263484C276.97898625898625,133.66308928466387,282.2462608062608,131.46086574268892,286.3391536991537,129.42194586562957C290.4320465920466,127.38302598857018,293.3505578305579,125.50740977642636,296.53847010647013,123.77445868344488C299.7263823823824,122.04150759046338,303.1836956956957,120.45122161664426,306.40374240907573,118.58240981174544C309.6237891224558,116.71359800684661,312.60656923590255,114.56626037086811,316.39462929596266,111.76720392768459C320.18268935602276,108.96814748450107,324.7760293626961,105.51737223411256,329.2861699795033,101.03340801634307C333.7963105963106,96.54944379857362,338.2232518232518,91.03229061342319,342.2395681395681,86.20331047306183C346.2558844558844,81.37433033270048,349.86157586157583,77.2335232371282,354.69683397683394,71.41016180356648C359.532092092092,65.58680037000477,365.5969169169169,58.08088459845363,370.22724724724725,53.308772888551864C374.85757757757756,48.5366611786501,378.05341341341347,46.49835353039771,382.4561361361362,43.513669686045354C386.8588588588589,40.528985841693,392.46846846846853,36.597925801240685,395.27327327327333,34.63239578101453L398.07807807807814,32.66686576078837" stroke="#676A86" stroke-width="2"/></g></g><path class="foreground" aria-hidden="true" d="" display="none"/></g><g transform="translate(0,0)"><path class="background" aria-hidden="true" d="M0,0h400v300h-400Z"/><g><g class="mark-line role-mark layer_0_marks" role="graphics-object" aria-roledescription="line mark container"><path aria-label="year: 1971; x: −1.4; y: −0.4" role="graphics-symbol" aria-roledescription="line mark" d="M32.612612612612615,270.5274596495037L34.25411011011011,270.78615047443213C35.89560760760761,271.04484129936054,39.17860260260261,271.5622229492174,42.374438438438446,270.6886535456853C45.57027427427428,269.81508414215324,48.67895095095096,267.55056368523225,51.802154154154174,265.0756242845055C54.92535735735737,262.60068488377885,58.0630870870871,259.91532653924645,61.24278233789346,257.1063535234129C64.42247758869982,254.29738050757942,67.64413836058282,251.36479282044476,70.88355377599824,248.31811973299264C74.12296919141365,245.27144664554058,77.38013925036148,242.11068815777102,80.57758914470027,238.99428673977846C83.77503903903904,235.87788532178593,86.91276876876879,232.80584097357033,90.05049849849853,229.80896237121104C93.18822822822824,226.81208376885175,96.32595795795795,223.8903709123488,99.47175798020243,221.041064965518C102.61755800244687,218.19175901868718,105.77142831720609,215.41485998152848,108.99631720609499,212.71891523014725C112.22120609498387,210.02297047876607,115.51711355800246,207.40798001316236,118.76137114892673,204.99605493891684C122.00562873985098,202.58412986467133,125.19823645868091,200.37527018178403,128.40859882104328,198.25555100404276C131.61896118340562,196.13583182630146,134.84707818930042,194.10525315370623,138.0751951951952,192.13870456091453C141.30331220109,190.17215596812284,144.53142920698477,188.2696374551347,147.74179156934716,186.2559854965463C150.95215393170952,184.24233353795785,154.14476165053944,182.1175481337691,157.29540384829275,180.0498417962161C160.44604604604606,177.98213545866307,163.55472272272277,175.97150818774574,166.73603203203209,174.2490142239175C169.9173413413414,172.5265202600893,173.17128328328332,171.0921596033502,179.42858458458463,167.61953036015674C185.6858858858859,164.14690111696328,194.94654654654656,158.63600328731545,201.29463863863865,155.10813604463326C207.64273073073073,151.5802688019511,211.07825425425426,150.03543214623463,216.0535895895896,147.55058915061468C221.02892492492492,145.06574615499477,227.5440720720721,141.6408968194714,232.52667067067068,138.9316231272709C237.5092692692693,136.22234943507044,240.95931931931932,134.2286513861928,244.28226226226226,132.57906799064259C247.60520520520518,130.9294845950923,250.80104104104103,129.62401585286943,253.93877077077082,128.1742988527201C257.0765005005005,126.72458185257081,260.1561241241241,125.13061659449504,263.35195995995997,123.44552287319966C266.5477957957958,121.76042915190426,269.85984384384386,119.98420696738924,273.1299263708152,118.12125768938198C276.4000088977867,116.25830841137468,279.62812590368145,114.30863203987515,282.8239617395173,112.43752207883426C286.01979757535315,110.56641211779338,289.18335224113,108.77386856721112,292.3339944388833,106.91936383596055C295.48463663663665,105.06485910470995,298.62236636636635,103.148393192791,301.9198878878879,101.1244205648391C305.2174094094094,99.10044793688719,308.6747227227227,96.9689685929023,312.0448768768769,94.7005533888987C315.41503103103105,92.4321381848951,318.69802602602607,90.02678712087273,322.0681801801802,87.32920587802766C325.43833433433434,84.6316246351826,328.8956476476476,81.64181321351485,332.25288933377817,78.8472398405437C335.61013101990875,76.05266646757254,338.8673010788566,73.45333114329797,342.0921899677455,71.04552175103278C345.3170788566344,68.63771235876759,348.5096865754643,66.42142889851176,351.6748552997442,63.89418948783037C354.840024024024,61.366950077148964,357.9777537537538,58.528754716041995,361.15906306306306,56.09043989167469C364.3403723723724,53.652125067307374,367.56526126126124,51.61369077967972,370.77562362362363,49.78704208578241C373.98598598598596,47.9603933918851,377.1818218218218,46.34553029171812,380.3195515515515,45.2168241738725C383.45728128128127,44.08811805602688,386.536904904905,43.445568920502616,389.296944944945,43.67053263107406C392.0569849849851,43.89549634164552,394.4974414414415,44.98797289831267,395.7176696696697,45.534211176646245L396.9378978978979,46.08044945497982" stroke="#179FDB" stroke-width="2"/></g></g><path class="foreground" aria-hidden="true" d="" display="none"/></g><g transform="translate(0,0)"><path class="background" aria-hidden="true" d="M0,0h400v300h-400Z"/><g><g class="mark-line role-mark layer_0_marks" role="graphics-object" aria-roledescription="line mark container"><path aria-label="year: 1991; x: −1.4; y: −0.4" role="graphics-symbol" aria-roledescription="line mark" d="M28.588588588588593,269.3638942810213L29.259259259259267,269.7681340808412C29.929929929929937,270.17237388066115,31.271271271271274,270.98085348030094,33.49628028028028,270.65607070443116C35.721289289289295,270.3312879285614,38.82996596596598,268.873242777182,41.70299010121234,266.60273427772324C44.57601423645871,264.33222577826444,47.21338583027475,261.2492539307263,50.01700544989436,258.6245463196748C52.82062506951399,255.99983870862323,55.79049271493718,253.8333953340583,58.82976487598712,250.9248320940227C61.86903703703706,248.01626885398707,64.97771371371374,244.36558574848075,68.17354954954958,240.6058415165542C71.3693853853854,236.8460972846277,74.6523803803804,232.9772919262809,77.92084884884885,229.291800288234C81.18931731731732,225.60630865018712,84.44325925925928,222.10413073244013,87.59551551551554,218.84193941430132C90.7477717717718,215.57974809616246,93.79834234234237,212.5575433776318,96.96512512512514,209.46053406998158C100.13190790790793,206.3635247623314,103.41490290290291,203.1917108655617,106.76730241352466,200.2261224815976C110.1197019241464,197.26053409763355,113.54150595039486,194.5011712264751,116.66470915359805,192.15985981838193C119.78791235680126,189.81854841028874,122.6125147369592,187.89528846526085,125.69536647758873,185.9700471742461C128.77821821821826,184.0448058832313,132.11931931931937,182.11758324622963,135.38778778778783,180.4725758706974C138.65625625625628,178.82756849516514,141.8520920920921,177.46477638110233,145.04792792792796,176.0006243976272C148.24376376376378,174.53647241415197,151.43959959959963,172.97096056126443,154.63543543543545,171.59374269799684C157.83127127127128,170.21652483472926,161.02710710710713,169.02760096108162,164.22294294294298,168.05961882525415C167.4187787787788,167.09163668942674,170.61461461461462,166.34459629141944,173.81045045045047,165.11657104492735C177.00628628628633,163.88854579843527,180.20212212212218,162.17953570345833,184.9958758758759,160.2181057778019C189.78962962962964,158.25667585214546,196.18130130130132,156.04282609580952,201.18488266043823,154.12912175611072C206.18846401957512,152.2154174164119,209.8039550661773,150.60185849335022,213.30484795907023,149.3159394115361C216.80574085196312,148.030020329722,220.19203559114672,147.07174108915544,223.46857435212993,146.12868538025717C226.74511311311312,145.18562967135892,229.9118958958959,144.25779749412897,234.66207007007014,143.0135335326537C239.4122442442443,141.7692695711784,245.74580980980986,140.20857382545782,253.3057697697698,137.72485530155976C260.86572972972976,135.24113677766167,269.65208408408415,131.8343954755861,277.7433593593594,128.06993465979792C285.8346346346347,124.30547384400974,293.2308308308309,120.18329351450897,301.8114559003448,114.07981863078548C310.3920809698588,107.97634374706199,320.15713491269054,99.89157430911574,326.30669780892003,94.99707287397894C332.4562607051496,90.10257143884213,334.990332554777,88.39833800651479,340.63953731509287,82.4289552334856C346.2887420754087,76.45957246045641,355.05307974641306,66.2250403467254,361.0331664998332,59.91730113589225C367.01325325325325,53.609561925059126,370.2090890890891,51.228615617123864,373.3613453453454,49.093530861851264C376.5136016016016,46.95844610657866,379.6222782782782,45.06922290396873,382.81811411411405,43.01133745322417C386.0139499499499,40.9534520024796,389.296944944945,38.72690430360041,391.9552992992994,37.03976060741805C394.6136536536537,35.35261691123568,396.6473673673674,34.20487721775012,397.66422422422426,33.63100737100735L398.6810810810811,33.057137524264576" stroke="#00A767" stroke-width="2"/></g></g><path class="foreground" aria-hidden="true" d="" display="none"/></g></g><g class="mark-text role-mark layer_1_marks" role="graphics-object" aria-roledescription="text mark container"><text aria-label="year: 1881; x: 1.4; y: 0.2" role="graphics-symbol" aria-roledescription="text mark" text-anchor="start" transform="translate(405,98.65626399880544)" font-family="Georgia" font-size="11px" fill="#0063AF">1881</text><text aria-label="year: 1817; x: 1.4; y: 0.0" role="graphics-symbol" aria-roledescription="text mark" text-anchor="start" transform="translate(399.7589189189189,154.55627445124682)" font-family="Georgia" font-size="11px" fill="#36B7B4">1817</text><text aria-label="year: 1971; x: 1.4; y: 0.3" role="graphics-symbol" aria-roledescription="text mark" text-anchor="start" transform="translate(401.9378978978979,49.08044945497982)" font-family="Georgia" font-size="11px" fill="#179FDB">1971</text><text aria-label="year: 1991; x: 1.4; y: 0.4" role="graphics-symbol" aria-roledescription="text mark" text-anchor="start" transform="translate(403.6810810810811,36.057137524264576)" font-family="Georgia" font-size="11px" fill="#00A767">1991</text></g><g class="mark-text role-mark layer_2_marks" role="graphics-object" aria-roledescription="text mark container"><text aria-label="year: 1881; x: −1.4; y: −0.2" role="graphics-symbol" aria-roledescription="text mark" text-anchor="start" transform="translate(49.06906906906907,206.06704494549794)" font-family="Georgia" font-size="11px" fill="#0063AF">1881</text><text aria-label="year: 1817; x: −1.4; y: −0.1" role="graphics-symbol" aria-roledescription="text mark" text-anchor="start" transform="translate(52.612612612612615,173.7756816484993)" font-family="Georgia" font-size="11px" fill="#36B7B4">1817</text><text aria-label="year: 1971; x: −1.4; y: −0.4" role="graphics-symbol" aria-roledescription="text mark" text-anchor="start" transform="translate(52.612612612612615,273.5274596495037)" font-family="Georgia" font-size="11px" fill="#179FDB">1971</text></g><g class="mark-text role-mark layer_3_marks" role="graphics-object" aria-roledescription="text mark container"><text aria-label="t: 2021; x: 0.95; y: 0.11" role="graphics-symbol" aria-roledescription="text mark" text-anchor="middle" transform="translate(340,120)" font-family="Georgia" font-size="11px" fill="#676A86">2021</text></g><g class="mark-group role-title"><g transform="translate(0,-32)"><path class="background" aria-hidden="true" d="M0,0h0v0h0Z" pointer-events="none"/><g><g class="mark-text role-title-text" role="graphics-symbol" aria-roledescription="title" aria-label="Title text 'Pollution and shares of low-skilled workers'" pointer-events="none"><text text-anchor="start" transform="translate(5,11)" font-family="Georgia" font-size="14px" font-weight="bold" fill="#F4134D" opacity="1">Pollution and shares of low-skilled workers</text></g><g class="mark-text role-title-subtitle" role="graphics-symbol" aria-roledescription="subtitle" aria-label="Subtitle text 'Source: Heblich et al. (2021)'" pointer-events="none"><text text-anchor="start" transform="translate(5,26)" font-family="Georgia" font-size="12px" font-style="italic" fill="#F4134D" opacity="1">Source: Heblich et al. (2021)</text></g></g><path class="foreground" aria-hidden="true" d="" pointer-events="none" display="none"/></g></g></g><path class="foreground" aria-hidden="true" d="" display="none"/></g></g></g></svg>