<svg xmlns="http://www.w3.org/2000/svg" xmlns:xlink="http://www.w3.org/1999/xlink" version="1.1" class="marks" width="459" height="360" viewBox="0 0 459 360"><rect width="459" height="360" fill="white"/><g fill="none" stroke-miterlimit="10" transform="translate(21,38)"><g class="mark-group role-frame root" role="graphics-object" aria-roledescription="group mark container"><g transform="translate(0,0)"><path class="background" aria-hidden="true" d="M0,0h400v300h-400Z"/><g><g class="mark-group role-axis" aria-hidden="true"><g transform="translate(0.5,0.5)"><path class="background" aria-hidden="true" d="M0,0h0v0h0Z" pointer-events="none"/><g><g class="mark-rule role-axis-grid" pointer-events="none"><line transform="translate(0,300)" x2="400" y2="0" stroke="#676A86" stroke-opacity="0.5" stroke-width="1" stroke-dasharray="1,5" opacity="1"/><line transform="translate(0,263)" x2="400" y2="0" stroke="#676A86" stroke-opacity="0.5" stroke-width="1" stroke-dasharray="1,5" opacity="1"/><line transform="translate(0,225)" x2="400" y2="0" stroke="#676A86" stroke-opacity="0.5" stroke-width="1" stroke-dasharray="1,5" opacity="1"/><line transform="translate(0,188)" x2="400" y2="0" stroke="#676A86" stroke-opacity="0.5" stroke-width="1" stroke-dasharray="1,5" opacity="1"/><line transform="translate(0,150)" x2="400" y2="0" stroke="#676A86" stroke-opacity="0.5" stroke-width="1" stroke-dasharray="1,5" opacity="1"/><line transform="translate(0,113)" x2="400" y2="0" stroke="#676A86" stroke-opacity="0.5" stroke-width="1" stroke-dasharray="1,5" opacity="1"/><line transform="translate(0,75)" x2="400" y2="0" stroke="#676A86" stroke-opacity="0.5" stroke-width="1" stroke-dasharray="1,5" opacity="1"/><line transform="translate(0,38)" x2="400" y2="0" stroke="#676A86" stroke-opacity="0.5" stroke-width="1" stroke-dasharray="1,5" opacity="1"/><line transform="translate(0,0)" x2="400" y2="0" stroke="#676A86" stroke-opacity="0.5" stroke-width="1" stroke-dasharray="1,5" opacity="1"/></g></g><path class="foreground" aria-hidden="true" d="" pointer-events="none" display="none"/></g></g><g class="mark-group role-axis" role="graphics-symbol" aria-roledescription="axis" aria-label="X-axis for a time scale with values from Tuesday, 01 October 2013, 12:00:00 AM to Sunday, 01 October 2023, 12:00:00 AM"><g transform="translate(0.5,300.5)"><path class="background" aria-hidden="true" d="M0,0h0v0h0Z" pointer-events="none"/><g><g class="mark-rule role-axis-tick" pointer-events="none"><line transform="translate(10,0)" x2="0" y2="5" stroke="#676A86" stroke-opacity="0.5" stroke-width="1" opacity="1"/><line transform="translate(50,0)" x2="0" y2="5" stroke="#676A86" stroke-opacity="0.5" stroke-width="1" opacity="1"/><line transform="translate(90,0)" x2="0" y2="5" stroke="#676A86" stroke-opacity="0.5" stroke-width="1" opacity="1"/><line transform="translate(130,0)" x2="0" y2="5" stroke="#676A86" stroke-opacity="0.5" stroke-width="1" opacity="1"/><line transform="translate(170,0)" x2="0" y2="5" stroke="#676A86" stroke-opacity="0.5" stroke-width="1" opacity="1"/><line transform="translate(210,0)" x2="0" y2="5" stroke="#676A86" stroke-opacity="0.5" stroke-width="1" opacity="1"/><line transform="translate(250,0)" x2="0" y2="5" stroke="#676A86" stroke-opacity="0.5" stroke-width="1" opacity="1"/><line transform="translate(290,0)" x2="0" y2="5" stroke="#676A86" stroke-opacity="0.5" stroke-width="1" opacity="1"/><line transform="translate(330,0)" x2="0" y2="5" stroke="#676A86" stroke-opacity="0.5" stroke-width="1" opacity="1"/><line transform="translate(370,0)" x2="0" y2="5" stroke="#676A86" stroke-opacity="0.5" stroke-width="1" opacity="1"/></g><g class="mark-text role-axis-label" pointer-events="none"><text text-anchor="middle" transform="translate(10.076670317634173,15)" font-family="Circular Std Book" font-size="10px" fill="#676A86" fill-opacity="0.7" opacity="1">2014</text><text text-anchor="middle" transform="translate(50.05476451259584,15)" font-family="Circular Std Book" font-size="10px" fill="#676A86" fill-opacity="0.7" opacity="1">2015</text><text text-anchor="middle" transform="translate(90.03285870755751,15)" font-family="Circular Std Book" font-size="10px" fill="#676A86" fill-opacity="0.7" opacity="1">2016</text><text text-anchor="middle" transform="translate(130.12048192771084,15)" font-family="Circular Std Book" font-size="10px" fill="#676A86" fill-opacity="0.7" opacity="1">2017</text><text text-anchor="middle" transform="translate(170.0985761226725,15)" font-family="Circular Std Book" font-size="10px" fill="#676A86" fill-opacity="0.7" opacity="1">2018</text><text text-anchor="middle" transform="translate(210.07667031763418,15)" font-family="Circular Std Book" font-size="10px" fill="#676A86" fill-opacity="0.7" opacity="1">2019</text><text text-anchor="middle" transform="translate(250.05476451259585,15)" font-family="Circular Std Book" font-size="10px" fill="#676A86" fill-opacity="0.7" opacity="1">2020</text><text text-anchor="middle" transform="translate(290.14238773274917,15)" font-family="Circular Std Book" font-size="10px" fill="#676A86" fill-opacity="0.7" opacity="1">2021</text><text text-anchor="middle" transform="translate(330.12048192771084,15)" font-family="Circular Std Book" font-size="10px" fill="#676A86" fill-opacity="0.7" opacity="1">2022</text><text text-anchor="middle" transform="translate(370.0985761226725,15)" font-family="Circular Std Book" font-size="10px" fill="#676A86" fill-opacity="0.7" opacity="1">2023</text></g><g class="mark-rule role-axis-domain" pointer-events="none"><line transform="translate(0,0)" x2="400" y2="0" stroke="#676A86" stroke-opacity="0.5" stroke-width="1" opacity="1"/></g></g><path class="foreground" aria-hidden="true" d="" pointer-events="none" display="none"/></g></g><g class="mark-group role-axis" role="graphics-symbol" aria-roledescription="axis" aria-label="Y-axis titled '%' for a linear scale with values from −2 to 14"><g transform="translate(0.5,0.5)"><path class="background" aria-hidden="true" d="M0,0h0v0h0Z" pointer-events="none"/><g><g class="mark-text role-axis-label" pointer-events="none"><text text-anchor="end" transform="translate(-5,303)" font-family="Circular Std Book" font-size="10px" fill="#676A86" fill-opacity="0.7" opacity="1">−2</text><text text-anchor="end" transform="translate(-5,265.5)" font-family="Circular Std Book" font-size="10px" fill="#676A86" fill-opacity="0.7" opacity="1">0</text><text text-anchor="end" transform="translate(-5,228)" font-family="Circular Std Book" font-size="10px" fill="#676A86" fill-opacity="0.7" opacity="1">2</text><text text-anchor="end" transform="translate(-5,190.5)" font-family="Circular Std Book" font-size="10px" fill="#676A86" fill-opacity="0.7" opacity="1">4</text><text text-anchor="end" transform="translate(-5,153)" font-family="Circular Std Book" font-size="10px" fill="#676A86" fill-opacity="0.7" opacity="1">6</text><text text-anchor="end" transform="translate(-5,115.5)" font-family="Circular Std Book" font-size="10px" fill="#676A86" fill-opacity="0.7" opacity="1">8</text><text text-anchor="end" transform="translate(-5,78)" font-family="Circular Std Book" font-size="10px" fill="#676A86" fill-opacity="0.7" opacity="1">10</text><text text-anchor="end" transform="translate(-5,40.5)" font-family="Circular Std Book" font-size="10px" fill="#676A86" fill-opacity="0.7" opacity="1">12</text><text text-anchor="end" transform="translate(-5,3)" font-family="Circular Std Book" font-size="10px" fill="#676A86" fill-opacity="0.7" opacity="1">14</text></g><g class="mark-rule role-axis-domain" pointer-events="none"><line transform="translate(0,300)" x2="0" y2="-300" stroke="#676A86" stroke-opacity="0.5" stroke-width="1" opacity="1"/></g><g class="mark-text role-axis-title" pointer-events="none"><text text-anchor="start" transform="translate(0,-10)" font-family="Circular Std Book" font-size="12px" font-weight="bold" fill="#676A86" fill-opacity="0.8" opacity="1">%</text></g></g><path class="foreground" aria-hidden="true" d="" pointer-events="none" display="none"/></g></g><g class="mark-line role-mark layer_0_marks" role="graphics-object" aria-roledescription="line mark container"><path aria-label="x: Oct 01, 2013; y: 0" role="graphics-symbol" aria-roledescription="line mark" d="M0,262.5L400,262.5" stroke="#676A86" stroke-width="1" opacity="0.3"/></g><g class="mark-line role-mark layer_1_marks" role="graphics-object" aria-roledescription="line mark container"><path aria-label="time: Oct 01, 2013; OOH: 1.3" role="graphics-symbol" aria-roledescription="line mark" d="M0,238.125L3.395,236.25L6.681,238.125L10.077,238.125L13.472,238.125L16.539,240L19.934,238.125L23.22,238.125L26.616,236.25L29.901,234.375L33.297,232.5L36.692,230.625L39.978,230.625L43.373,232.5L46.659,230.625L50.055,226.875L53.45,226.875L56.517,225L59.912,226.875L63.198,228.75L66.594,226.875L69.88,228.75L73.275,228.75L76.67,228.75L79.956,228.75L83.352,226.875L86.637,226.875L90.033,225L93.428,225L96.605,223.125L100,221.25L103.286,219.375L106.681,219.375L109.967,217.5L113.363,217.5L116.758,217.5L120.044,211.875L123.439,213.75L126.725,213.75L130.12,215.625L133.516,215.625L136.583,217.5L139.978,221.25L143.264,223.125L146.659,225L149.945,225L153.341,226.875L156.736,226.875L160.022,232.5L163.417,234.375L166.703,238.125L170.099,240L173.494,240L176.561,240L179.956,240L183.242,241.875L186.637,241.875L189.923,241.875L193.319,243.75L196.714,243.75L200,241.875L203.395,241.875L206.681,240L210.077,241.875L213.472,241.875L216.539,241.875L219.934,240L223.22,240L226.616,240L229.901,240L233.297,241.875L236.692,241.875L239.978,240L243.373,240L246.659,240L250.055,238.125L253.45,240L256.627,238.125L260.022,241.875L263.308,241.875L266.703,240L269.989,241.875L273.384,241.875L276.78,240L280.066,240L283.461,240L286.747,238.125L290.142,238.125L293.538,236.25L296.605,238.125L300,236.25L303.286,234.375L306.681,232.5L309.967,232.5L313.363,230.625L316.758,228.75L320.044,226.875L323.439,223.125L326.725,221.25L330.12,217.5L333.516,215.625L336.583,211.875L339.978,208.125L343.264,206.25L346.659,202.5L349.945,198.75L353.341,196.875L356.736,196.875L360.022,195L363.417,193.125L366.703,191.25L370.099,191.25L373.494,189.375L376.561,187.5L379.956,187.5L383.242,183.75L386.637,180L389.923,178.125L393.319,172.5L396.714,168.75L400,161.25" stroke="#36B7B4" stroke-width="2"/></g><g class="mark-line role-mark layer_2_marks" role="graphics-object" aria-roledescription="line mark container"><path aria-label="time: Oct 01, 2013; CPIH: 2" role="graphics-symbol" aria-roledescription="line mark" d="M0,225L3.395,226.875L6.681,226.875L10.077,228.75L13.472,232.5L16.539,234.375L19.934,230.625L23.22,234.375L26.616,228.75L29.901,232.5L33.297,234.375L36.692,238.125L39.978,238.125L43.373,241.875L46.659,249.375L50.055,253.125L53.45,255L56.517,256.875L59.912,256.875L63.198,255L66.594,256.875L69.88,253.125L73.275,255L76.67,258.75L79.956,258.75L83.352,255L86.637,253.125L90.033,251.25L93.428,251.25L96.605,247.5L100,249.375L103.286,249.375L106.681,247.5L109.967,245.625L113.363,243.75L116.758,238.125L120.044,238.125L123.439,234.375L126.725,228.75L130.12,226.875L133.516,219.375L136.583,219.375L139.978,213.75L143.264,211.875L146.659,213.75L149.945,213.75L153.341,211.875L156.736,210L160.022,210L163.417,210L166.703,211.875L170.099,211.875L173.494,215.625L176.561,219.375L179.956,221.25L183.242,219.375L186.637,219.375L189.923,219.375L193.319,217.5L196.714,221.25L200,221.25L203.395,221.25L206.681,225L210.077,228.75L213.472,228.75L216.539,228.75L219.934,225L223.22,226.875L226.616,226.875L229.901,225L233.297,230.625L236.692,230.625L239.978,234.375L243.373,234.375L246.659,236.25L250.055,228.75L253.45,230.625L256.627,234.375L260.022,245.625L263.308,249.375L266.703,247.5L269.989,241.875L273.384,253.125L276.78,249.375L280.066,245.625L283.461,251.25L286.747,247.5L290.142,245.625L293.538,249.375L296.605,243.75L300,232.5L303.286,223.125L306.681,217.5L309.967,223.125L313.363,206.25L316.758,208.125L320.044,191.25L323.439,176.25L326.725,172.5L330.12,170.625L333.516,159.375L336.583,146.25L339.978,116.25L343.264,114.375L346.659,108.75L349.945,97.5L353.341,101.25L356.736,97.5L360.022,82.5L363.417,88.125L366.703,90L370.099,97.5L373.494,90L376.561,95.625L379.956,116.25L383.242,114.375L386.637,125.625L389.923,142.5L393.319,144.375L396.714,144.375L400,174.375" stroke="#179FDB" stroke-width="2"/></g><g class="mark-line role-mark layer_3_marks" role="graphics-object" aria-roledescription="line mark container"><path aria-label="time: Oct 01, 2013; CPI: 2.2" role="graphics-symbol" aria-roledescription="line mark" d="M0,221.25L3.395,223.125L6.681,225L10.077,226.875L13.472,230.625L16.539,232.5L19.934,228.75L23.22,234.375L26.616,226.875L29.901,232.5L33.297,234.375L36.692,240L39.978,238.125L43.373,243.75L46.659,253.125L50.055,256.875L53.45,262.5L56.517,262.5L59.912,264.375L63.198,260.625L66.594,262.5L69.88,260.625L73.275,262.5L76.67,264.375L79.956,264.375L83.352,260.625L86.637,258.75L90.033,256.875L93.428,256.875L96.605,253.125L100,256.875L103.286,256.875L106.681,253.125L109.967,251.25L113.363,251.25L116.758,243.75L120.044,245.625L123.439,240L126.725,232.5L130.12,228.75L133.516,219.375L136.583,219.375L139.978,211.875L143.264,208.125L146.659,213.75L149.945,213.75L153.341,208.125L156.736,206.25L160.022,206.25L163.417,204.375L166.703,206.25L170.099,206.25L173.494,211.875L176.561,215.625L179.956,217.5L183.242,217.5L186.637,217.5L189.923,215.625L193.319,211.875L196.714,217.5L200,217.5L203.395,219.375L206.681,223.125L210.077,228.75L213.472,226.875L216.539,226.875L219.934,223.125L223.22,225L226.616,225L229.901,223.125L233.297,230.625L236.692,230.625L239.978,234.375L243.373,234.375L246.659,238.125L250.055,228.75L253.45,230.625L256.627,234.375L260.022,247.5L263.308,253.125L266.703,251.25L269.989,243.75L273.384,258.75L276.78,253.125L280.066,249.375L283.461,256.875L286.747,251.25L290.142,249.375L293.538,255L296.605,249.375L300,234.375L303.286,223.125L306.681,215.625L309.967,225L313.363,202.5L316.758,204.375L320.044,183.75L323.439,166.875L326.725,161.25L330.12,159.375L333.516,146.25L336.583,131.25L339.978,93.75L343.264,91.875L346.659,86.25L349.945,73.125L353.341,76.875L356.736,73.125L360.022,54.375L363.417,61.875L366.703,65.625L370.099,73.125L373.494,67.5L376.561,73.125L379.956,99.375L383.242,99.375L386.637,114.375L389.923,135L393.319,136.875L396.714,136.875L400,176.25" stroke="#F4134D" stroke-width="2"/></g><g class="mark-text role-mark layer_4_marks" role="graphics-object" aria-roledescription="text mark container"><text aria-label="time: Oct 01, 2023; CPI: 4.6" role="graphics-symbol" aria-roledescription="text mark" text-anchor="start" transform="translate(405,180.25)" font-family="Circular Std Book" font-size="12px" fill="#F4134D">CPI</text></g><g class="mark-text role-mark layer_5_marks" role="graphics-object" aria-roledescription="text mark container"><text aria-label="time: Oct 01, 2023; CPIH: 4.7" role="graphics-symbol" aria-roledescription="text mark" text-anchor="start" transform="translate(405,193.375)" font-family="Circular Std Book" font-size="12px" fill="#179FDB">CPIH</text></g><g class="mark-text role-mark layer_6_marks" role="graphics-object" aria-roledescription="text mark container"><text aria-label="time: Oct 01, 2023; OOH: 5.4" role="graphics-symbol" aria-roledescription="text mark" text-anchor="start" transform="translate(405,165.25)" font-family="Circular Std Book" font-size="12px" fill="#36B7B4">OOH</text></g><g class="mark-image role-mark layer_7_marks" role="graphics-object" aria-roledescription="image mark container"><image aria-label="x: Oct 01, 2023; y: 14; img: https://raw.githubusercontent.com/EconomicsObservatory/ECOvisualisations/main/guidelines/logos/eco-icon-dark.png" role="graphics-symbol" aria-roledescription="image mark" xlink:href="https://raw.githubusercontent.com/EconomicsObservatory/ECOvisualisations/main/guidelines/logos/eco-icon-dark.png" transform="translate(360,-33)" width="40" height="40" preserveAspectRatio="xMidYMid" opacity="0.5"/></g></g><path class="foreground" aria-hidden="true" d="" display="none"/></g></g></g></svg>