<svg xmlns="http://www.w3.org/2000/svg" xmlns:xlink="http://www.w3.org/1999/xlink" version="1.1" class="marks" width="458" height="347" viewBox="0 0 458 347"><rect width="458" height="347" fill="white"/><g fill="none" stroke-miterlimit="10" transform="translate(20,25)"><g class="mark-group role-frame root" role="graphics-object" aria-roledescription="group mark container"><g transform="translate(0,0)"><path class="background" aria-hidden="true" d="M0,0h400v300h-400Z"/><g><g class="mark-group role-axis" aria-hidden="true"><g transform="translate(0.5,0.5)"><path class="background" aria-hidden="true" d="M0,0h0v0h0Z" pointer-events="none"/><g><g class="mark-rule role-axis-grid" pointer-events="none"><line transform="translate(0,277)" x2="400" y2="0" stroke="#676A86" stroke-opacity="0.5" stroke-width="1" stroke-dasharray="1,5" opacity="1"/><line transform="translate(0,231)" x2="400" y2="0" stroke="#676A86" stroke-opacity="0.5" stroke-width="1" stroke-dasharray="1,5" opacity="1"/><line transform="translate(0,185)" x2="400" y2="0" stroke="#676A86" stroke-opacity="0.5" stroke-width="1" stroke-dasharray="1,5" opacity="1"/><line transform="translate(0,138)" x2="400" y2="0" stroke="#676A86" stroke-opacity="0.5" stroke-width="1" stroke-dasharray="1,5" opacity="1"/><line transform="translate(0,92)" x2="400" y2="0" stroke="#676A86" stroke-opacity="0.5" stroke-width="1" stroke-dasharray="1,5" opacity="1"/><line transform="translate(0,46)" x2="400" y2="0" stroke="#676A86" stroke-opacity="0.5" stroke-width="1" stroke-dasharray="1,5" opacity="1"/><line transform="translate(0,0)" x2="400" y2="0" stroke="#676A86" stroke-opacity="0.5" stroke-width="1" stroke-dasharray="1,5" opacity="1"/></g></g><path class="foreground" aria-hidden="true" d="" pointer-events="none" display="none"/></g></g><g class="mark-group role-axis" role="graphics-symbol" aria-roledescription="axis" aria-label="X-axis for a time scale with values from Tuesday, 01 October 2013, 12:00:00 AM to Sunday, 01 October 2023, 12:00:00 AM"><g transform="translate(0.5,300.5)"><path class="background" aria-hidden="true" d="M0,0h0v0h0Z" pointer-events="none"/><g><g class="mark-rule role-axis-tick" pointer-events="none"><line transform="translate(10,0)" x2="0" y2="5" stroke="#676A86" stroke-opacity="0.5" stroke-width="1" opacity="1"/><line transform="translate(50,0)" x2="0" y2="5" stroke="#676A86" stroke-opacity="0.5" stroke-width="1" opacity="1"/><line transform="translate(90,0)" x2="0" y2="5" stroke="#676A86" stroke-opacity="0.5" stroke-width="1" opacity="1"/><line transform="translate(130,0)" x2="0" y2="5" stroke="#676A86" stroke-opacity="0.5" stroke-width="1" opacity="1"/><line transform="translate(170,0)" x2="0" y2="5" stroke="#676A86" stroke-opacity="0.5" stroke-width="1" opacity="1"/><line transform="translate(210,0)" x2="0" y2="5" stroke="#676A86" stroke-opacity="0.5" stroke-width="1" opacity="1"/><line transform="translate(250,0)" x2="0" y2="5" stroke="#676A86" stroke-opacity="0.5" stroke-width="1" opacity="1"/><line transform="translate(290,0)" x2="0" y2="5" stroke="#676A86" stroke-opacity="0.5" stroke-width="1" opacity="1"/><line transform="translate(330,0)" x2="0" y2="5" stroke="#676A86" stroke-opacity="0.5" stroke-width="1" opacity="1"/><line transform="translate(370,0)" x2="0" y2="5" stroke="#676A86" stroke-opacity="0.5" stroke-width="1" opacity="1"/></g><g class="mark-text role-axis-label" pointer-events="none"><text text-anchor="middle" transform="translate(10.076670317634173,15)" font-family="Circular Std Book" font-size="10px" fill="#676A86" fill-opacity="0.7" opacity="1">2014</text><text text-anchor="middle" transform="translate(50.05476451259584,15)" font-family="Circular Std Book" font-size="10px" fill="#676A86" fill-opacity="0.7" opacity="1">2015</text><text text-anchor="middle" transform="translate(90.03285870755751,15)" font-family="Circular Std Book" font-size="10px" fill="#676A86" fill-opacity="0.7" opacity="1">2016</text><text text-anchor="middle" transform="translate(130.12048192771084,15)" font-family="Circular Std Book" font-size="10px" fill="#676A86" fill-opacity="0.7" opacity="1">2017</text><text text-anchor="middle" transform="translate(170.0985761226725,15)" font-family="Circular Std Book" font-size="10px" fill="#676A86" fill-opacity="0.7" opacity="1">2018</text><text text-anchor="middle" transform="translate(210.07667031763418,15)" font-family="Circular Std Book" font-size="10px" fill="#676A86" fill-opacity="0.7" opacity="1">2019</text><text text-anchor="middle" transform="translate(250.05476451259585,15)" font-family="Circular Std Book" font-size="10px" fill="#676A86" fill-opacity="0.7" opacity="1">2020</text><text text-anchor="middle" transform="translate(290.14238773274917,15)" font-family="Circular Std Book" font-size="10px" fill="#676A86" fill-opacity="0.7" opacity="1">2021</text><text text-anchor="middle" transform="translate(330.12048192771084,15)" font-family="Circular Std Book" font-size="10px" fill="#676A86" fill-opacity="0.7" opacity="1">2022</text><text text-anchor="middle" transform="translate(370.0985761226725,15)" font-family="Circular Std Book" font-size="10px" fill="#676A86" fill-opacity="0.7" opacity="1">2023</text></g><g class="mark-rule role-axis-domain" pointer-events="none"><line transform="translate(0,0)" x2="400" y2="0" stroke="#676A86" stroke-opacity="0.5" stroke-width="1" opacity="1"/></g></g><path class="foreground" aria-hidden="true" d="" pointer-events="none" display="none"/></g></g><g class="mark-group role-axis" role="graphics-symbol" aria-roledescription="axis" aria-label="Y-axis titled '%' for a linear scale with values from −1 to 12"><g transform="translate(0.5,0.5)"><path class="background" aria-hidden="true" d="M0,0h0v0h0Z" pointer-events="none"/><g><g class="mark-text role-axis-label" pointer-events="none"><text text-anchor="end" transform="translate(-5,279.92307692307696)" font-family="Circular Std Book" font-size="10px" fill="#676A86" fill-opacity="0.7" opacity="1">0</text><text text-anchor="end" transform="translate(-5,233.76923076923075)" font-family="Circular Std Book" font-size="10px" fill="#676A86" fill-opacity="0.7" opacity="1">2</text><text text-anchor="end" transform="translate(-5,187.6153846153846)" font-family="Circular Std Book" font-size="10px" fill="#676A86" fill-opacity="0.7" opacity="1">4</text><text text-anchor="end" transform="translate(-5,141.46153846153848)" font-family="Circular Std Book" font-size="10px" fill="#676A86" fill-opacity="0.7" opacity="1">6</text><text text-anchor="end" transform="translate(-5,95.3076923076923)" font-family="Circular Std Book" font-size="10px" fill="#676A86" fill-opacity="0.7" opacity="1">8</text><text text-anchor="end" transform="translate(-5,49.15384615384615)" font-family="Circular Std Book" font-size="10px" fill="#676A86" fill-opacity="0.7" opacity="1">10</text><text text-anchor="end" transform="translate(-5,3)" font-family="Circular Std Book" font-size="10px" fill="#676A86" fill-opacity="0.7" opacity="1">12</text></g><g class="mark-rule role-axis-domain" pointer-events="none"><line transform="translate(0,300)" x2="0" y2="-300" stroke="#676A86" stroke-opacity="0.5" stroke-width="1" opacity="1"/></g><g class="mark-text role-axis-title" pointer-events="none"><text text-anchor="start" transform="translate(0,-10)" font-family="Circular Std Book" font-size="12px" font-weight="bold" fill="#676A86" fill-opacity="0.8" opacity="1">%</text></g></g><path class="foreground" aria-hidden="true" d="" pointer-events="none" display="none"/></g></g><g class="mark-line role-mark layer_0_marks" role="graphics-object" aria-roledescription="line mark container"><path aria-label="x: Oct 01, 2013; y: 0" role="graphics-symbol" aria-roledescription="line mark" d="M0,276.923L400,276.923" stroke="#676A86" stroke-width="1" opacity="0.3"/></g><g class="mark-line role-mark layer_1_marks" role="graphics-object" aria-roledescription="line mark container"><path aria-label="time: Oct 01, 2013; OOH: 1.3" role="graphics-symbol" aria-roledescription="line mark" d="M0,246.923L3.395,244.615L6.681,246.923L10.077,246.923L13.472,246.923L16.539,249.231L19.934,246.923L23.22,246.923L26.616,244.615L29.901,242.308L33.297,240L36.692,237.692L39.978,237.692L43.373,240L46.659,237.692L50.055,233.077L53.45,233.077L56.517,230.769L59.912,233.077L63.198,235.385L66.594,233.077L69.88,235.385L73.275,235.385L76.67,235.385L79.956,235.385L83.352,233.077L86.637,233.077L90.033,230.769L93.428,230.769L96.605,228.462L100,226.154L103.286,223.846L106.681,223.846L109.967,221.538L113.363,221.538L116.758,221.538L120.044,214.615L123.439,216.923L126.725,216.923L130.12,219.231L133.516,219.231L136.583,221.538L139.978,226.154L143.264,228.462L146.659,230.769L149.945,230.769L153.341,233.077L156.736,233.077L160.022,240L163.417,242.308L166.703,246.923L170.099,249.231L173.494,249.231L176.561,249.231L179.956,249.231L183.242,251.538L186.637,251.538L189.923,251.538L193.319,253.846L196.714,253.846L200,251.538L203.395,251.538L206.681,249.231L210.077,251.538L213.472,251.538L216.539,251.538L219.934,249.231L223.22,249.231L226.616,249.231L229.901,249.231L233.297,251.538L236.692,251.538L239.978,249.231L243.373,249.231L246.659,249.231L250.055,246.923L253.45,249.231L256.627,246.923L260.022,251.538L263.308,251.538L266.703,249.231L269.989,251.538L273.384,251.538L276.78,249.231L280.066,249.231L283.461,249.231L286.747,246.923L290.142,246.923L293.538,244.615L296.605,246.923L300,244.615L303.286,242.308L306.681,240L309.967,240L313.363,237.692L316.758,235.385L320.044,233.077L323.439,228.462L326.725,226.154L330.12,221.538L333.516,219.231L336.583,214.615L339.978,210L343.264,207.692L346.659,203.077L349.945,198.462L353.341,196.154L356.736,196.154L360.022,193.846L363.417,191.538L366.703,189.231L370.099,189.231L373.494,186.923L376.561,184.615L379.956,184.615L383.242,180L386.637,175.385L389.923,173.077L393.319,166.154L396.714,161.538L400,152.308" stroke="#36B7B4" stroke-width="2"/></g><g class="mark-line role-mark layer_2_marks" role="graphics-object" aria-roledescription="line mark container"><path aria-label="time: Oct 01, 2013; CPIH: 2" role="graphics-symbol" aria-roledescription="line mark" d="M0,230.769L3.395,233.077L6.681,233.077L10.077,235.385L13.472,240L16.539,242.308L19.934,237.692L23.22,242.308L26.616,235.385L29.901,240L33.297,242.308L36.692,246.923L39.978,246.923L43.373,251.538L46.659,260.769L50.055,265.385L53.45,267.692L56.517,270L59.912,270L63.198,267.692L66.594,270L69.88,265.385L73.275,267.692L76.67,272.308L79.956,272.308L83.352,267.692L86.637,265.385L90.033,263.077L93.428,263.077L96.605,258.462L100,260.769L103.286,260.769L106.681,258.462L109.967,256.154L113.363,253.846L116.758,246.923L120.044,246.923L123.439,242.308L126.725,235.385L130.12,233.077L133.516,223.846L136.583,223.846L139.978,216.923L143.264,214.615L146.659,216.923L149.945,216.923L153.341,214.615L156.736,212.308L160.022,212.308L163.417,212.308L166.703,214.615L170.099,214.615L173.494,219.231L176.561,223.846L179.956,226.154L183.242,223.846L186.637,223.846L189.923,223.846L193.319,221.538L196.714,226.154L200,226.154L203.395,226.154L206.681,230.769L210.077,235.385L213.472,235.385L216.539,235.385L219.934,230.769L223.22,233.077L226.616,233.077L229.901,230.769L233.297,237.692L236.692,237.692L239.978,242.308L243.373,242.308L246.659,244.615L250.055,235.385L253.45,237.692L256.627,242.308L260.022,256.154L263.308,260.769L266.703,258.462L269.989,251.538L273.384,265.385L276.78,260.769L280.066,256.154L283.461,263.077L286.747,258.462L290.142,256.154L293.538,260.769L296.605,253.846L300,240L303.286,228.462L306.681,221.538L309.967,228.462L313.363,207.692L316.758,210L320.044,189.231L323.439,170.769L326.725,166.154L330.12,163.846L333.516,150L336.583,133.846L339.978,96.923L343.264,94.615L346.659,87.692L349.945,73.846L353.341,78.462L356.736,73.846L360.022,55.385L363.417,62.308L366.703,64.615L370.099,73.846L373.494,64.615L376.561,71.538L379.956,96.923L383.242,94.615L386.637,108.462L389.923,129.231L393.319,131.538L396.714,131.538L400,168.462" stroke="#179FDB" stroke-width="2"/></g><g class="mark-line role-mark layer_3_marks" role="graphics-object" aria-roledescription="line mark container"><path aria-label="time: Oct 01, 2013; CPI: 2.2" role="graphics-symbol" aria-roledescription="line mark" d="M0,226.154L3.395,228.462L6.681,230.769L10.077,233.077L13.472,237.692L16.539,240L19.934,235.385L23.22,242.308L26.616,233.077L29.901,240L33.297,242.308L36.692,249.231L39.978,246.923L43.373,253.846L46.659,265.385L50.055,270L53.45,276.923L56.517,276.923L59.912,279.231L63.198,274.615L66.594,276.923L69.88,274.615L73.275,276.923L76.67,279.231L79.956,279.231L83.352,274.615L86.637,272.308L90.033,270L93.428,270L96.605,265.385L100,270L103.286,270L106.681,265.385L109.967,263.077L113.363,263.077L116.758,253.846L120.044,256.154L123.439,249.231L126.725,240L130.12,235.385L133.516,223.846L136.583,223.846L139.978,214.615L143.264,210L146.659,216.923L149.945,216.923L153.341,210L156.736,207.692L160.022,207.692L163.417,205.385L166.703,207.692L170.099,207.692L173.494,214.615L176.561,219.231L179.956,221.538L183.242,221.538L186.637,221.538L189.923,219.231L193.319,214.615L196.714,221.538L200,221.538L203.395,223.846L206.681,228.462L210.077,235.385L213.472,233.077L216.539,233.077L219.934,228.462L223.22,230.769L226.616,230.769L229.901,228.462L233.297,237.692L236.692,237.692L239.978,242.308L243.373,242.308L246.659,246.923L250.055,235.385L253.45,237.692L256.627,242.308L260.022,258.462L263.308,265.385L266.703,263.077L269.989,253.846L273.384,272.308L276.78,265.385L280.066,260.769L283.461,270L286.747,263.077L290.142,260.769L293.538,267.692L296.605,260.769L300,242.308L303.286,228.462L306.681,219.231L309.967,230.769L313.363,203.077L316.758,205.385L320.044,180L323.439,159.231L326.725,152.308L330.12,150L333.516,133.846L336.583,115.385L339.978,69.231L343.264,66.923L346.659,60L349.945,43.846L353.341,48.462L356.736,43.846L360.022,20.769L363.417,30L366.703,34.615L370.099,43.846L373.494,36.923L376.561,43.846L379.956,76.154L383.242,76.154L386.637,94.615L389.923,120L393.319,122.308L396.714,122.308L400,170.769" stroke="#F4134D" stroke-width="2"/></g><g class="mark-text role-mark layer_4_marks" role="graphics-object" aria-roledescription="text mark container"><text aria-label="time: Oct 01, 2023; CPI: 4.6" role="graphics-symbol" aria-roledescription="text mark" text-anchor="start" transform="translate(405,174.76923076923077)" font-family="Circular Std Book" font-size="12px" fill="#F4134D">CPI</text></g><g class="mark-text role-mark layer_5_marks" role="graphics-object" aria-roledescription="text mark container"><text aria-label="time: Oct 01, 2023; CPIH: 4.7" role="graphics-symbol" aria-roledescription="text mark" text-anchor="start" transform="translate(405,187.46153846153845)" font-family="Circular Std Book" font-size="12px" fill="#179FDB">CPIH</text></g><g class="mark-text role-mark layer_6_marks" role="graphics-object" aria-roledescription="text mark container"><text aria-label="time: Oct 01, 2023; OOH: 5.4" role="graphics-symbol" aria-roledescription="text mark" text-anchor="start" transform="translate(405,156.3076923076923)" font-family="Circular Std Book" font-size="12px" fill="#36B7B4">OOH</text></g></g><path class="foreground" aria-hidden="true" d="" display="none"/></g></g></g></svg>