<svg xmlns="http://www.w3.org/2000/svg" xmlns:xlink="http://www.w3.org/1999/xlink" version="1.1" class="marks" width="524" height="347" viewBox="0 0 524 347"><rect width="524" height="347" fill="white"/><g fill="none" stroke-miterlimit="10" transform="translate(26,25)"><g class="mark-group role-frame root" role="graphics-object" aria-roledescription="group mark container"><g transform="translate(0,0)"><path class="background" aria-hidden="true" d="M0,0h400v300h-400Z"/><g><g class="mark-group role-axis" aria-hidden="true"><g transform="translate(0.5,0.5)"><path class="background" aria-hidden="true" d="M0,0h0v0h0Z" pointer-events="none"/><g><g class="mark-rule role-axis-grid" pointer-events="none"><line transform="translate(0,300)" x2="400" y2="0" stroke="#676A86" stroke-opacity="0.5" stroke-width="1" stroke-dasharray="1,5" opacity="1"/><line transform="translate(0,270)" x2="400" y2="0" stroke="#676A86" stroke-opacity="0.5" stroke-width="1" stroke-dasharray="1,5" opacity="1"/><line transform="translate(0,240)" x2="400" y2="0" stroke="#676A86" stroke-opacity="0.5" stroke-width="1" stroke-dasharray="1,5" opacity="1"/><line transform="translate(0,210)" x2="400" y2="0" stroke="#676A86" stroke-opacity="0.5" stroke-width="1" stroke-dasharray="1,5" opacity="1"/><line transform="translate(0,180)" x2="400" y2="0" stroke="#676A86" stroke-opacity="0.5" stroke-width="1" stroke-dasharray="1,5" opacity="1"/><line transform="translate(0,150)" x2="400" y2="0" stroke="#676A86" stroke-opacity="0.5" stroke-width="1" stroke-dasharray="1,5" opacity="1"/><line transform="translate(0,120)" x2="400" y2="0" stroke="#676A86" stroke-opacity="0.5" stroke-width="1" stroke-dasharray="1,5" opacity="1"/><line transform="translate(0,90)" x2="400" y2="0" stroke="#676A86" stroke-opacity="0.5" stroke-width="1" stroke-dasharray="1,5" opacity="1"/><line transform="translate(0,60)" x2="400" y2="0" stroke="#676A86" stroke-opacity="0.5" stroke-width="1" stroke-dasharray="1,5" opacity="1"/><line transform="translate(0,30)" x2="400" y2="0" stroke="#676A86" stroke-opacity="0.5" stroke-width="1" stroke-dasharray="1,5" opacity="1"/><line transform="translate(0,0)" x2="400" y2="0" stroke="#676A86" stroke-opacity="0.5" stroke-width="1" stroke-dasharray="1,5" opacity="1"/></g></g><path class="foreground" aria-hidden="true" d="" pointer-events="none" display="none"/></g></g><g class="mark-group role-axis" role="graphics-symbol" aria-roledescription="axis" aria-label="X-axis for a time scale with values from Monday, 01 January 2001, 12:00:00 AM to Sunday, 01 October 2023, 12:00:00 AM"><g transform="translate(0.5,300.5)"><path class="background" aria-hidden="true" d="M0,0h0v0h0Z" pointer-events="none"/><g><g class="mark-rule role-axis-tick" pointer-events="none"><line transform="translate(18,0)" x2="0" y2="5" stroke="#676A86" stroke-opacity="0.5" stroke-width="1" opacity="1"/><line transform="translate(53,0)" x2="0" y2="5" stroke="#676A86" stroke-opacity="0.5" stroke-width="1" opacity="1"/><line transform="translate(88,0)" x2="0" y2="5" stroke="#676A86" stroke-opacity="0.5" stroke-width="1" opacity="1"/><line transform="translate(123,0)" x2="0" y2="5" stroke="#676A86" stroke-opacity="0.5" stroke-width="1" opacity="1"/><line transform="translate(158,0)" x2="0" y2="5" stroke="#676A86" stroke-opacity="0.5" stroke-width="1" opacity="1"/><line transform="translate(193,0)" x2="0" y2="5" stroke="#676A86" stroke-opacity="0.5" stroke-width="1" opacity="1"/><line transform="translate(229,0)" x2="0" y2="5" stroke="#676A86" stroke-opacity="0.5" stroke-width="1" opacity="1"/><line transform="translate(264,0)" x2="0" y2="5" stroke="#676A86" stroke-opacity="0.5" stroke-width="1" opacity="1"/><line transform="translate(299,0)" x2="0" y2="5" stroke="#676A86" stroke-opacity="0.5" stroke-width="1" opacity="1"/><line transform="translate(334,0)" x2="0" y2="5" stroke="#676A86" stroke-opacity="0.5" stroke-width="1" opacity="1"/><line transform="translate(369,0)" x2="0" y2="5" stroke="#676A86" stroke-opacity="0.5" stroke-width="1" opacity="1"/></g><g class="mark-text role-axis-label" pointer-events="none"><text text-anchor="middle" transform="translate(17.573423206547904,15)" font-family="Circular Std Book" font-size="10px" fill="#676A86" fill-opacity="0.7" opacity="1">2002</text><text text-anchor="middle" transform="translate(52.72026961964371,15)" font-family="Circular Std Book" font-size="10px" fill="#676A86" fill-opacity="0.7" opacity="1">2004</text><text text-anchor="middle" transform="translate(87.91526239768898,15)" font-family="Circular Std Book" font-size="10px" fill="#676A86" fill-opacity="0.7" opacity="1">2006</text><text text-anchor="middle" transform="translate(123.06210881078479,15)" font-family="Circular Std Book" font-size="10px" fill="#676A86" fill-opacity="0.7" opacity="1">2008</text><text text-anchor="middle" transform="translate(158.25710158883004,15)" font-family="Circular Std Book" font-size="10px" fill="#676A86" fill-opacity="0.7" opacity="1">2010</text><text text-anchor="middle" transform="translate(193.40394800192587,15)" font-family="Circular Std Book" font-size="10px" fill="#676A86" fill-opacity="0.7" opacity="1">2012</text><text text-anchor="middle" transform="translate(228.59894077997112,15)" font-family="Circular Std Book" font-size="10px" fill="#676A86" fill-opacity="0.7" opacity="1">2014</text><text text-anchor="middle" transform="translate(263.7457871930669,15)" font-family="Circular Std Book" font-size="10px" fill="#676A86" fill-opacity="0.7" opacity="1">2016</text><text text-anchor="middle" transform="translate(298.9407799711122,15)" font-family="Circular Std Book" font-size="10px" fill="#676A86" fill-opacity="0.7" opacity="1">2018</text><text text-anchor="middle" transform="translate(334.08762638420797,15)" font-family="Circular Std Book" font-size="10px" fill="#676A86" fill-opacity="0.7" opacity="1">2020</text><text text-anchor="middle" transform="translate(369.28261916225324,15)" font-family="Circular Std Book" font-size="10px" fill="#676A86" fill-opacity="0.7" opacity="1">2022</text></g><g class="mark-rule role-axis-domain" pointer-events="none"><line transform="translate(0,0)" x2="400" y2="0" stroke="#676A86" stroke-opacity="0.5" stroke-width="1" opacity="1"/></g></g><path class="foreground" aria-hidden="true" d="" pointer-events="none" display="none"/></g></g><g class="mark-group role-axis" role="graphics-symbol" aria-roledescription="axis" aria-label="Y-axis titled '%' for a linear scale with values from −10 to 10"><g transform="translate(0.5,0.5)"><path class="background" aria-hidden="true" d="M0,0h0v0h0Z" pointer-events="none"/><g><g class="mark-text role-axis-label" pointer-events="none"><text text-anchor="end" transform="translate(-5,303)" font-family="Circular Std Book" font-size="10px" fill="#676A86" fill-opacity="0.7" opacity="1">−10</text><text text-anchor="end" transform="translate(-5,273)" font-family="Circular Std Book" font-size="10px" fill="#676A86" fill-opacity="0.7" opacity="1">−8</text><text text-anchor="end" transform="translate(-5,243)" font-family="Circular Std Book" font-size="10px" fill="#676A86" fill-opacity="0.7" opacity="1">−6</text><text text-anchor="end" transform="translate(-5,213)" font-family="Circular Std Book" font-size="10px" fill="#676A86" fill-opacity="0.7" opacity="1">−4</text><text text-anchor="end" transform="translate(-5,183)" font-family="Circular Std Book" font-size="10px" fill="#676A86" fill-opacity="0.7" opacity="1">−2</text><text text-anchor="end" transform="translate(-5,153)" font-family="Circular Std Book" font-size="10px" fill="#676A86" fill-opacity="0.7" opacity="1">0</text><text text-anchor="end" transform="translate(-5,123)" font-family="Circular Std Book" font-size="10px" fill="#676A86" fill-opacity="0.7" opacity="1">2</text><text text-anchor="end" transform="translate(-5,93.00000000000001)" font-family="Circular Std Book" font-size="10px" fill="#676A86" fill-opacity="0.7" opacity="1">4</text><text text-anchor="end" transform="translate(-5,62.999999999999986)" font-family="Circular Std Book" font-size="10px" fill="#676A86" fill-opacity="0.7" opacity="1">6</text><text text-anchor="end" transform="translate(-5,32.99999999999999)" font-family="Circular Std Book" font-size="10px" fill="#676A86" fill-opacity="0.7" opacity="1">8</text><text text-anchor="end" transform="translate(-5,3)" font-family="Circular Std Book" font-size="10px" fill="#676A86" fill-opacity="0.7" opacity="1">10</text></g><g class="mark-rule role-axis-domain" pointer-events="none"><line transform="translate(0,300)" x2="0" y2="-300" stroke="#676A86" stroke-opacity="0.5" stroke-width="1" opacity="1"/></g><g class="mark-text role-axis-title" pointer-events="none"><text text-anchor="start" transform="translate(0,-10)" font-family="Circular Std Book" font-size="12px" font-weight="bold" fill="#676A86" fill-opacity="0.8" opacity="1">%</text></g></g><path class="foreground" aria-hidden="true" d="" pointer-events="none" display="none"/></g></g><g class="mark-line role-mark layer_0_marks" role="graphics-object" aria-roledescription="line mark container"><path aria-label="x: Oct 01, 2013; y: 0" role="graphics-symbol" aria-roledescription="line mark" d="M224.169,150L400,150" stroke="#676A86" stroke-width="1" opacity="0.3"/></g><g class="mark-line role-mark layer_1_marks" role="graphics-object" aria-roledescription="line mark container"><path aria-label="time: Jan 01, 2001; Total pay (real): 4.2" role="graphics-symbol" aria-roledescription="line mark" d="M0,87L1.493,43.5L2.841,99L4.333,85.5L5.778,103.5L7.27,94.5L8.714,102L10.207,105L11.7,108L13.144,100.5L14.636,103.5L16.081,120L17.573,126L19.066,132L20.414,138L21.907,121.5L23.351,114L24.844,112.5L26.288,112.5L27.78,123L29.273,123L30.717,130.5L32.21,130.5L33.654,136.5L35.147,142.5L36.639,139.5L37.987,109.5L39.48,133.5L40.924,127.5L42.417,130.5L43.861,127.5L45.354,120L46.846,114L48.291,108L49.783,111L51.228,106.5L52.72,61.5L54.213,121.5L55.609,112.5L57.102,103.5L58.546,109.5L60.039,112.5L61.483,114L62.975,108L64.468,108L65.912,106.5L67.405,111L68.849,109.5L70.342,117L71.834,94.5L73.182,118.5L74.675,114L76.119,111L77.612,114L79.056,111L80.549,108L82.041,115.5L83.486,121.5L84.978,111L86.423,115.5L87.915,136.5L89.408,100.5L90.756,93L92.248,120L93.693,117L95.185,106.5L96.63,117L98.122,132L99.615,130.5L101.059,121.5L102.552,124.5L103.996,109.5L105.489,100.5L106.981,91.5L108.329,124.5L109.822,127.5L111.266,117L112.759,121.5L114.203,108L115.696,102L117.188,97.5L118.633,118.5L120.125,115.5L121.57,139.5L123.062,132L124.555,132L125.951,114L127.443,124.5L128.888,138L130.38,154.5L131.825,162L133.317,168L134.81,181.5L136.254,162L137.747,172.5L139.191,159L140.684,213L142.176,280.5L143.524,204L145.017,163.5L146.461,169.5L147.954,159L149.398,166.5L150.891,162L152.383,151.5L153.828,163.5L155.32,159L156.765,166.5L158.257,148.5L159.75,51L161.098,151.5L162.59,168L164.035,163.5L165.527,171L166.972,163.5L168.464,162L169.957,162L171.401,160.5L172.894,162L174.338,162L175.831,133.5L177.323,178.5L178.671,165L180.164,174L181.608,174L183.101,160.5L184.545,165L186.038,178.5L187.53,187.5L188.974,181.5L190.467,181.5L191.911,177L193.404,192L194.896,181.5L196.293,183L197.785,162L199.23,165L200.722,166.5L202.167,163.5L203.659,151.5L205.152,154.5L206.596,165L208.089,163.5L209.533,171L211.026,168L212.518,169.5L213.866,198L215.359,127.5L216.803,162L218.296,171L219.74,174L221.233,177L222.725,169.5L224.169,166.5L225.662,166.5L227.106,159L228.599,153L230.091,144L231.44,150L232.932,199.5L234.377,168L235.869,165L237.313,168L238.806,160.5L240.299,148.5L241.743,141L243.235,139.5L244.68,127.5L246.172,136.5L247.665,135L249.013,94.5L250.506,117L251.95,118.5L253.442,118.5L254.887,103.5L256.379,108L257.872,123L259.316,126L260.809,126L262.253,132L263.746,120L265.238,135L266.635,133.5L268.127,117L269.571,124.5L271.064,123L272.508,124.5L274.001,130.5L275.494,132L276.938,129L278.43,130.5L279.875,148.5L281.367,153L282.86,144L284.208,147L285.701,168L287.145,159L288.637,142.5L290.082,165L291.574,154.5L293.067,148.5L294.511,157.5L296.004,159L297.448,145.5L298.941,153L300.433,150L301.781,144L303.274,141L304.718,144L306.211,151.5L307.655,135L309.148,135L310.64,141L312.085,121.5L313.577,135L315.022,135L316.514,124.5L318.007,129L319.355,135L320.847,121.5L322.292,117L323.784,118.5L325.229,118.5L326.721,126L328.214,117L329.658,136.5L331.151,124.5L332.595,135L334.088,133.5L335.58,139.5L336.976,154.5L338.469,172.5L339.913,175.5L341.406,183L342.85,168L344.343,127.5L345.835,124.5L347.28,106.5L348.772,87L350.217,87L351.709,100.5L353.202,102L354.55,103.5L356.042,42L357.487,45L358.979,57L360.424,72L361.916,112.5L363.409,124.5L364.853,141L366.346,165L367.79,133.5L369.283,145.5L370.775,145.5L372.123,99L373.616,192L375.06,198L376.553,177L377.997,192L379.49,187.5L380.982,192L382.427,189L383.919,181.5L385.364,210L386.856,190.5L388.349,181.5L389.697,195L391.189,151.5L392.634,147L394.126,123L395.571,124.5L397.063,138L398.556,121.5L400,132" stroke="#179FDB" stroke-width="2"/></g><g class="mark-line role-mark layer_2_marks" role="graphics-object" aria-roledescription="line mark container"><path aria-label="time: Jan 01, 2001; Regular pay (real): 2.4" role="graphics-symbol" aria-roledescription="line mark" d="M0,114L1.493,114L2.841,100.5L4.333,93L5.778,106.5L7.27,106.5L8.714,94.5L10.207,97.5L11.7,103.5L13.144,102L14.636,99L16.081,105L17.573,109.5L19.066,100.5L20.414,103.5L21.907,114L23.351,108L24.844,99L26.288,112.5L27.78,124.5L29.273,120L30.717,126L32.21,129L33.654,132L35.147,121.5L36.639,127.5L37.987,133.5L39.48,126L40.924,121.5L42.417,124.5L43.861,124.5L45.354,117L46.846,115.5L48.291,115.5L49.783,114L51.228,105L52.72,121.5L54.213,123L55.609,115.5L57.102,114L58.546,118.5L60.039,120L61.483,115.5L62.975,112.5L64.468,114L65.912,111L67.405,117L68.849,114L70.342,112.5L71.834,112.5L73.182,111L74.675,117L76.119,115.5L77.612,115.5L79.056,120L80.549,118.5L82.041,120L83.486,123L84.978,120L86.423,127.5L87.915,123L89.408,120L90.756,124.5L92.248,127.5L93.693,127.5L95.185,127.5L96.63,133.5L98.122,139.5L99.615,135L101.059,127.5L102.552,130.5L103.996,132L105.489,133.5L106.981,133.5L108.329,133.5L109.822,132L111.266,124.5L112.759,124.5L114.203,111L115.696,106.5L117.188,112.5L118.633,126L120.125,123L121.57,126L123.062,124.5L124.555,126L125.951,124.5L127.443,127.5L128.888,144L130.38,153L131.825,162L133.317,166.5L134.81,171L136.254,157.5L137.747,157.5L139.191,148.5L140.684,153L142.176,157.5L143.524,162L145.017,154.5L146.461,147L147.954,145.5L149.398,153L150.891,153L152.383,142.5L153.828,153L155.32,157.5L156.765,160.5L158.257,160.5L159.75,159L161.098,154.5L162.59,168L164.035,169.5L165.527,165L166.972,151.5L168.464,151.5L169.957,153L171.401,154.5L172.894,153L174.338,168L175.831,166.5L177.323,172.5L178.671,177L180.164,175.5L181.608,172.5L183.101,174L184.545,183L186.038,183L187.53,190.5L188.974,186L190.467,184.5L191.911,174L193.404,183L194.896,171L196.293,166.5L197.785,166.5L199.23,162L200.722,154.5L202.167,157.5L203.659,153L205.152,157.5L206.596,166.5L208.089,165L209.533,168L211.026,171L212.518,175.5L213.866,177L215.359,165L216.803,171L218.296,175.5L219.74,171L221.233,178.5L222.725,175.5L224.169,166.5L225.662,169.5L227.106,160.5L228.599,151.5L230.091,159L231.44,162L232.932,168L234.377,163.5L235.869,166.5L237.313,165L238.806,157.5L240.299,144L241.743,144L243.235,142.5L244.68,139.5L246.172,135L247.665,123L249.013,112.5L250.506,112.5L251.95,115.5L253.442,114L254.887,112.5L256.379,118.5L257.872,126L259.316,129L260.809,124.5L262.253,127.5L263.746,126L265.238,123L266.635,129L268.127,124.5L269.571,130.5L271.064,129L272.508,130.5L274.001,129L275.494,130.5L276.938,130.5L278.43,132L279.875,142.5L281.367,148.5L282.86,159L284.208,157.5L285.701,160.5L287.145,154.5L288.637,154.5L290.082,157.5L291.574,156L293.067,156L294.511,154.5L296.004,157.5L297.448,150L298.941,150L300.433,144L301.781,139.5L303.274,144L304.718,145.5L306.211,144L307.655,138L309.148,136.5L310.64,136.5L312.085,130.5L313.577,130.5L315.022,130.5L316.514,123L318.007,129L319.355,130.5L320.847,121.5L322.292,121.5L323.784,118.5L325.229,123L326.721,123L328.214,121.5L329.658,126L331.151,124.5L332.595,123L334.088,136.5L335.58,132L336.976,136.5L338.469,163.5L339.913,162L341.406,163.5L342.85,151.5L344.343,127.5L345.835,118.5L347.28,108L348.772,97.5L350.217,96L351.709,100.5L353.202,94.5L354.55,91.5L356.042,63L357.487,73.5L358.979,81L360.424,93L361.916,123L363.409,133.5L364.853,150L366.346,165L367.79,166.5L369.283,159L370.775,168L372.123,177L373.616,202.5L375.06,189L376.553,192L377.997,196.5L379.49,190.5L380.982,189L382.427,192L383.919,184.5L385.364,186L386.856,186L388.349,180L389.697,174L391.189,151.5L392.634,151.5L394.126,141L395.571,130.5L397.063,127.5L398.556,133.5L400,127.5" stroke="#36B7B4" stroke-width="2"/></g><g class="mark-line role-mark layer_3_marks" role="graphics-object" aria-roledescription="line mark container"><path aria-label="time: Jan 01, 2001; CPIH: 1.2" role="graphics-symbol" aria-roledescription="line mark" d="M0,132L1.493,132L2.841,130.5L4.333,127.5L5.778,121.5L7.27,121.5L8.714,124.5L10.207,118.5L11.7,124.5L13.144,126L14.636,132L16.081,129L17.573,123L19.066,124.5L20.414,124.5L21.907,126L23.351,132L24.844,133.5L26.288,129L27.78,130.5L29.273,132L30.717,127.5L32.21,126L33.654,124.5L35.147,129L36.639,126L37.987,126L39.48,127.5L40.924,130.5L42.417,132L43.861,130.5L45.354,129L46.846,130.5L48.291,130.5L49.783,130.5L51.228,130.5L52.72,127.5L54.213,129L55.609,132L57.102,133.5L58.546,129L60.039,127.5L61.483,129L62.975,129L64.468,132L65.912,130.5L67.405,127.5L68.849,123L70.342,124.5L71.834,124.5L73.182,120L74.675,121.5L76.119,121.5L77.612,120L79.056,115.5L80.549,114L82.041,112.5L83.486,114L84.978,117L86.423,118.5L87.915,117L89.408,117L90.756,120L92.248,117L93.693,114L95.185,111L96.63,112.5L98.122,111L99.615,112.5L101.059,112.5L102.552,108L103.996,106.5L105.489,109.5L106.981,109.5L108.329,106.5L109.822,109.5L111.266,112.5L112.759,112.5L114.203,120L115.696,120L117.188,120L118.633,115.5L120.125,117L121.57,115.5L123.062,114L124.555,111L125.951,111L127.443,105L128.888,100.5L130.38,94.5L131.825,87L133.317,84L134.81,78L136.254,87L137.747,93L139.191,105L140.684,106.5L142.176,103.5L143.524,108L145.017,115.5L146.461,118.5L147.954,124.5L149.398,126L150.891,129L152.383,135L153.828,132L155.32,127.5L156.765,118.5L158.257,111L159.75,118.5L161.098,114L162.59,109.5L164.035,112.5L165.527,114L166.972,115.5L168.464,114L169.957,114L171.401,112.5L172.894,111L174.338,103.5L175.831,99L177.323,94.5L178.671,97.5L180.164,93L181.608,93L183.101,96L184.545,93L186.038,91.5L187.53,82.5L188.974,85.5L190.467,88.5L191.911,94.5L193.404,102L194.896,103.5L196.293,103.5L197.785,108L199.23,112.5L200.722,115.5L202.167,114L203.659,115.5L205.152,118.5L206.596,114L208.089,114L209.533,114L211.026,114L212.518,112.5L213.866,112.5L215.359,117L216.803,114L218.296,111L219.74,112.5L221.233,114L222.725,114L224.169,120L225.662,121.5L227.106,121.5L228.599,123L230.091,126L231.44,127.5L232.932,124.5L234.377,127.5L235.869,123L237.313,126L238.806,127.5L240.299,130.5L241.743,130.5L243.235,133.5L244.68,139.5L246.172,142.5L247.665,144L249.013,145.5L250.506,145.5L251.95,144L253.442,145.5L254.887,142.5L256.379,144L257.872,147L259.316,147L260.809,144L262.253,142.5L263.746,141L265.238,141L266.635,138L268.127,139.5L269.571,139.5L271.064,138L272.508,136.5L274.001,135L275.494,130.5L276.938,130.5L278.43,127.5L279.875,123L281.367,121.5L282.86,115.5L284.208,115.5L285.701,111L287.145,109.5L288.637,111L290.082,111L291.574,109.5L293.067,108L294.511,108L296.004,108L297.448,109.5L298.941,109.5L300.433,112.5L301.781,115.5L303.274,117L304.718,115.5L306.211,115.5L307.655,115.5L309.148,114L310.64,117L312.085,117L313.577,117L315.022,120L316.514,123L318.007,123L319.355,123L320.847,120L322.292,121.5L323.784,121.5L325.229,120L326.721,124.5L328.214,124.5L329.658,127.5L331.151,127.5L332.595,129L334.088,123L335.58,124.5L336.976,127.5L338.469,136.5L339.913,139.5L341.406,138L342.85,133.5L344.343,142.5L345.835,139.5L347.28,136.5L348.772,141L350.217,138L351.709,136.5L353.202,139.5L354.55,135L356.042,126L357.487,118.5L358.979,114L360.424,118.5L361.916,105L363.409,106.5L364.853,93L366.346,81L367.79,78L369.283,76.5L370.775,67.5L372.123,57L373.616,33L375.06,31.5L376.553,27L377.997,18L379.49,21L380.982,18L382.427,6L383.919,10.5L385.364,12L386.856,18L388.349,12L389.697,16.5L391.189,33L392.634,31.5L394.126,40.5L395.571,54L397.063,55.5L398.556,55.5L400,79.5" stroke="#F4134D" stroke-width="2"/></g><g class="mark-text role-mark layer_4_marks" role="graphics-object" aria-roledescription="text mark container"><text aria-label="time: Oct 01, 2023; CPIH: 4.7" role="graphics-symbol" aria-roledescription="text mark" text-anchor="start" transform="translate(405,83.5)" font-family="Circular Std Book" font-size="12px" fill="#F4134D">CPIH</text></g><g class="mark-text role-mark layer_5_marks" role="graphics-object" aria-roledescription="text mark container"><text aria-label="time: Oct 01, 2023; Total pay (real): 1.2" role="graphics-symbol" aria-roledescription="text mark" text-anchor="start" transform="translate(405,151.00000000000003)" font-family="Circular Std Book" font-size="12px" fill="#179FDB">Total pay (real)</text></g><g class="mark-text role-mark layer_6_marks" role="graphics-object" aria-roledescription="text mark container"><text aria-label="time: Oct 01, 2023; Regular pay (real): 1.5" role="graphics-symbol" aria-roledescription="text mark" text-anchor="start" transform="translate(405,131.5)" font-family="Circular Std Book" font-size="12px" fill="#36B7B4">Regular pay (real)</text></g></g><path class="foreground" aria-hidden="true" d="" display="none"/></g></g></g></svg>