<svg xmlns="http://www.w3.org/2000/svg" xmlns:xlink="http://www.w3.org/1999/xlink" version="1.1" class="marks" width="524" height="360" viewBox="0 0 524 360"><rect width="524" height="360" fill="#122B39"/><g fill="none" stroke-miterlimit="10" transform="translate(26,38)"><g class="mark-group role-frame root" role="graphics-object" aria-roledescription="group mark container"><g transform="translate(0,0)"><path class="background" aria-hidden="true" d="M0,0h400v300h-400Z"/><g><g class="mark-group role-axis" aria-hidden="true"><g transform="translate(0.5,0.5)"><path class="background" aria-hidden="true" d="M0,0h0v0h0Z" pointer-events="none"/><g><g class="mark-rule role-axis-grid" pointer-events="none"><line transform="translate(0,300)" x2="400" y2="0" stroke="#b4c8d8" stroke-opacity="0.5" stroke-width="1" stroke-dasharray="1,5" opacity="1"/><line transform="translate(0,275)" x2="400" y2="0" stroke="#b4c8d8" stroke-opacity="0.5" stroke-width="1" stroke-dasharray="1,5" opacity="1"/><line transform="translate(0,250)" x2="400" y2="0" stroke="#b4c8d8" stroke-opacity="0.5" stroke-width="1" stroke-dasharray="1,5" opacity="1"/><line transform="translate(0,225)" x2="400" y2="0" stroke="#b4c8d8" stroke-opacity="0.5" stroke-width="1" stroke-dasharray="1,5" opacity="1"/><line transform="translate(0,200)" x2="400" y2="0" stroke="#b4c8d8" stroke-opacity="0.5" stroke-width="1" stroke-dasharray="1,5" opacity="1"/><line transform="translate(0,175)" x2="400" y2="0" stroke="#b4c8d8" stroke-opacity="0.5" stroke-width="1" stroke-dasharray="1,5" opacity="1"/><line transform="translate(0,150)" x2="400" y2="0" stroke="#b4c8d8" stroke-opacity="0.5" stroke-width="1" stroke-dasharray="1,5" opacity="1"/><line transform="translate(0,125)" x2="400" y2="0" stroke="#b4c8d8" stroke-opacity="0.5" stroke-width="1" stroke-dasharray="1,5" opacity="1"/><line transform="translate(0,100)" x2="400" y2="0" stroke="#b4c8d8" stroke-opacity="0.5" stroke-width="1" stroke-dasharray="1,5" opacity="1"/><line transform="translate(0,75)" x2="400" y2="0" stroke="#b4c8d8" stroke-opacity="0.5" stroke-width="1" stroke-dasharray="1,5" opacity="1"/><line transform="translate(0,50)" x2="400" y2="0" stroke="#b4c8d8" stroke-opacity="0.5" stroke-width="1" stroke-dasharray="1,5" opacity="1"/><line transform="translate(0,25)" x2="400" y2="0" stroke="#b4c8d8" stroke-opacity="0.5" stroke-width="1" stroke-dasharray="1,5" opacity="1"/><line transform="translate(0,0)" x2="400" y2="0" stroke="#b4c8d8" stroke-opacity="0.5" stroke-width="1" stroke-dasharray="1,5" opacity="1"/></g></g><path class="foreground" aria-hidden="true" d="" pointer-events="none" display="none"/></g></g><g class="mark-group role-axis" role="graphics-symbol" aria-roledescription="axis" aria-label="X-axis for a time scale with values from Monday, 01 January 2001, 12:00:00 AM to Sunday, 01 October 2023, 12:00:00 AM"><g transform="translate(0.5,300.5)"><path class="background" aria-hidden="true" d="M0,0h0v0h0Z" pointer-events="none"/><g><g class="mark-rule role-axis-tick" pointer-events="none"><line transform="translate(18,0)" x2="0" y2="5" stroke="#b4c8d8" stroke-opacity="0.5" stroke-width="1" opacity="1"/><line transform="translate(53,0)" x2="0" y2="5" stroke="#b4c8d8" stroke-opacity="0.5" stroke-width="1" opacity="1"/><line transform="translate(88,0)" x2="0" y2="5" stroke="#b4c8d8" stroke-opacity="0.5" stroke-width="1" opacity="1"/><line transform="translate(123,0)" x2="0" y2="5" stroke="#b4c8d8" stroke-opacity="0.5" stroke-width="1" opacity="1"/><line transform="translate(158,0)" x2="0" y2="5" stroke="#b4c8d8" stroke-opacity="0.5" stroke-width="1" opacity="1"/><line transform="translate(193,0)" x2="0" y2="5" stroke="#b4c8d8" stroke-opacity="0.5" stroke-width="1" opacity="1"/><line transform="translate(229,0)" x2="0" y2="5" stroke="#b4c8d8" stroke-opacity="0.5" stroke-width="1" opacity="1"/><line transform="translate(264,0)" x2="0" y2="5" stroke="#b4c8d8" stroke-opacity="0.5" stroke-width="1" opacity="1"/><line transform="translate(299,0)" x2="0" y2="5" stroke="#b4c8d8" stroke-opacity="0.5" stroke-width="1" opacity="1"/><line transform="translate(334,0)" x2="0" y2="5" stroke="#b4c8d8" stroke-opacity="0.5" stroke-width="1" opacity="1"/><line transform="translate(369,0)" x2="0" y2="5" stroke="#b4c8d8" stroke-opacity="0.5" stroke-width="1" opacity="1"/></g><g class="mark-text role-axis-label" pointer-events="none"><text text-anchor="middle" transform="translate(17.573423206547904,15)" font-family="Circular Std Book" font-size="10px" fill="#b4c8d8" fill-opacity="0.7" opacity="1">2002</text><text text-anchor="middle" transform="translate(52.72026961964371,15)" font-family="Circular Std Book" font-size="10px" fill="#b4c8d8" fill-opacity="0.7" opacity="1">2004</text><text text-anchor="middle" transform="translate(87.91526239768898,15)" font-family="Circular Std Book" font-size="10px" fill="#b4c8d8" fill-opacity="0.7" opacity="1">2006</text><text text-anchor="middle" transform="translate(123.06210881078479,15)" font-family="Circular Std Book" font-size="10px" fill="#b4c8d8" fill-opacity="0.7" opacity="1">2008</text><text text-anchor="middle" transform="translate(158.25710158883004,15)" font-family="Circular Std Book" font-size="10px" fill="#b4c8d8" fill-opacity="0.7" opacity="1">2010</text><text text-anchor="middle" transform="translate(193.40394800192587,15)" font-family="Circular Std Book" font-size="10px" fill="#b4c8d8" fill-opacity="0.7" opacity="1">2012</text><text text-anchor="middle" transform="translate(228.59894077997112,15)" font-family="Circular Std Book" font-size="10px" fill="#b4c8d8" fill-opacity="0.7" opacity="1">2014</text><text text-anchor="middle" transform="translate(263.7457871930669,15)" font-family="Circular Std Book" font-size="10px" fill="#b4c8d8" fill-opacity="0.7" opacity="1">2016</text><text text-anchor="middle" transform="translate(298.9407799711122,15)" font-family="Circular Std Book" font-size="10px" fill="#b4c8d8" fill-opacity="0.7" opacity="1">2018</text><text text-anchor="middle" transform="translate(334.08762638420797,15)" font-family="Circular Std Book" font-size="10px" fill="#b4c8d8" fill-opacity="0.7" opacity="1">2020</text><text text-anchor="middle" transform="translate(369.28261916225324,15)" font-family="Circular Std Book" font-size="10px" fill="#b4c8d8" fill-opacity="0.7" opacity="1">2022</text></g><g class="mark-rule role-axis-domain" pointer-events="none"><line transform="translate(0,0)" x2="400" y2="0" stroke="#b4c8d8" stroke-opacity="0.5" stroke-width="1" opacity="1"/></g></g><path class="foreground" aria-hidden="true" d="" pointer-events="none" display="none"/></g></g><g class="mark-group role-axis" role="graphics-symbol" aria-roledescription="axis" aria-label="Y-axis titled '%' for a linear scale with values from −10 to 14"><g transform="translate(0.5,0.5)"><path class="background" aria-hidden="true" d="M0,0h0v0h0Z" pointer-events="none"/><g><g class="mark-text role-axis-label" pointer-events="none"><text text-anchor="end" transform="translate(-5,303)" font-family="Circular Std Book" font-size="10px" fill="#b4c8d8" fill-opacity="0.7" opacity="1">−10</text><text text-anchor="end" transform="translate(-5,278)" font-family="Circular Std Book" font-size="10px" fill="#b4c8d8" fill-opacity="0.7" opacity="1">−8</text><text text-anchor="end" transform="translate(-5,253)" font-family="Circular Std Book" font-size="10px" fill="#b4c8d8" fill-opacity="0.7" opacity="1">−6</text><text text-anchor="end" transform="translate(-5,228)" font-family="Circular Std Book" font-size="10px" fill="#b4c8d8" fill-opacity="0.7" opacity="1">−4</text><text text-anchor="end" transform="translate(-5,203.00000000000003)" font-family="Circular Std Book" font-size="10px" fill="#b4c8d8" fill-opacity="0.7" opacity="1">−2</text><text text-anchor="end" transform="translate(-5,177.99999999999997)" font-family="Circular Std Book" font-size="10px" fill="#b4c8d8" fill-opacity="0.7" opacity="1">0</text><text text-anchor="end" transform="translate(-5,153)" font-family="Circular Std Book" font-size="10px" fill="#b4c8d8" fill-opacity="0.7" opacity="1">2</text><text text-anchor="end" transform="translate(-5,127.99999999999999)" font-family="Circular Std Book" font-size="10px" fill="#b4c8d8" fill-opacity="0.7" opacity="1">4</text><text text-anchor="end" transform="translate(-5,103.00000000000001)" font-family="Circular Std Book" font-size="10px" fill="#b4c8d8" fill-opacity="0.7" opacity="1">6</text><text text-anchor="end" transform="translate(-5,78)" font-family="Circular Std Book" font-size="10px" fill="#b4c8d8" fill-opacity="0.7" opacity="1">8</text><text text-anchor="end" transform="translate(-5,52.999999999999986)" font-family="Circular Std Book" font-size="10px" fill="#b4c8d8" fill-opacity="0.7" opacity="1">10</text><text text-anchor="end" transform="translate(-5,28.00000000000001)" font-family="Circular Std Book" font-size="10px" fill="#b4c8d8" fill-opacity="0.7" opacity="1">12</text><text text-anchor="end" transform="translate(-5,3)" font-family="Circular Std Book" font-size="10px" fill="#b4c8d8" fill-opacity="0.7" opacity="1">14</text></g><g class="mark-rule role-axis-domain" pointer-events="none"><line transform="translate(0,300)" x2="0" y2="-300" stroke="#b4c8d8" stroke-opacity="0.5" stroke-width="1" opacity="1"/></g><g class="mark-text role-axis-title" pointer-events="none"><text text-anchor="start" transform="translate(0,-10)" font-family="Circular Std Book" font-size="12px" font-weight="bold" fill="#b4c8d8" fill-opacity="0.8" opacity="1">%</text></g></g><path class="foreground" aria-hidden="true" d="" pointer-events="none" display="none"/></g></g><g class="mark-line role-mark layer_0_marks" role="graphics-object" aria-roledescription="line mark container"><path aria-label="x: Oct 01, 2013; y: 0" role="graphics-symbol" aria-roledescription="line mark" d="M224.169,175L400,175" stroke="#b4c8d8" stroke-width="1" opacity="0.3"/></g><g class="mark-line role-mark layer_1_marks" role="graphics-object" aria-roledescription="line mark container"><path aria-label="time: Jan 01, 2001; Total pay (real): 4.2" role="graphics-symbol" aria-roledescription="line mark" d="M0,122.5L1.493,86.25L2.841,132.5L4.333,121.25L5.778,136.25L7.27,128.75L8.714,135L10.207,137.5L11.7,140L13.144,133.75L14.636,136.25L16.081,150L17.573,155L19.066,160L20.414,165L21.907,151.25L23.351,145L24.844,143.75L26.288,143.75L27.78,152.5L29.273,152.5L30.717,158.75L32.21,158.75L33.654,163.75L35.147,168.75L36.639,166.25L37.987,141.25L39.48,161.25L40.924,156.25L42.417,158.75L43.861,156.25L45.354,150L46.846,145L48.291,140L49.783,142.5L51.228,138.75L52.72,101.25L54.213,151.25L55.609,143.75L57.102,136.25L58.546,141.25L60.039,143.75L61.483,145L62.975,140L64.468,140L65.912,138.75L67.405,142.5L68.849,141.25L70.342,147.5L71.834,128.75L73.182,148.75L74.675,145L76.119,142.5L77.612,145L79.056,142.5L80.549,140L82.041,146.25L83.486,151.25L84.978,142.5L86.423,146.25L87.915,163.75L89.408,133.75L90.756,127.5L92.248,150L93.693,147.5L95.185,138.75L96.63,147.5L98.122,160L99.615,158.75L101.059,151.25L102.552,153.75L103.996,141.25L105.489,133.75L106.981,126.25L108.329,153.75L109.822,156.25L111.266,147.5L112.759,151.25L114.203,140L115.696,135L117.188,131.25L118.633,148.75L120.125,146.25L121.57,166.25L123.062,160L124.555,160L125.951,145L127.443,153.75L128.888,165L130.38,178.75L131.825,185L133.317,190L134.81,201.25L136.254,185L137.747,193.75L139.191,182.5L140.684,227.5L142.176,283.75L143.524,220L145.017,186.25L146.461,191.25L147.954,182.5L149.398,188.75L150.891,185L152.383,176.25L153.828,186.25L155.32,182.5L156.765,188.75L158.257,173.75L159.75,92.5L161.098,176.25L162.59,190L164.035,186.25L165.527,192.5L166.972,186.25L168.464,185L169.957,185L171.401,183.75L172.894,185L174.338,185L175.831,161.25L177.323,198.75L178.671,187.5L180.164,195L181.608,195L183.101,183.75L184.545,187.5L186.038,198.75L187.53,206.25L188.974,201.25L190.467,201.25L191.911,197.5L193.404,210L194.896,201.25L196.293,202.5L197.785,185L199.23,187.5L200.722,188.75L202.167,186.25L203.659,176.25L205.152,178.75L206.596,187.5L208.089,186.25L209.533,192.5L211.026,190L212.518,191.25L213.866,215L215.359,156.25L216.803,185L218.296,192.5L219.74,195L221.233,197.5L222.725,191.25L224.169,188.75L225.662,188.75L227.106,182.5L228.599,177.5L230.091,170L231.44,175L232.932,216.25L234.377,190L235.869,187.5L237.313,190L238.806,183.75L240.299,173.75L241.743,167.5L243.235,166.25L244.68,156.25L246.172,163.75L247.665,162.5L249.013,128.75L250.506,147.5L251.95,148.75L253.442,148.75L254.887,136.25L256.379,140L257.872,152.5L259.316,155L260.809,155L262.253,160L263.746,150L265.238,162.5L266.635,161.25L268.127,147.5L269.571,153.75L271.064,152.5L272.508,153.75L274.001,158.75L275.494,160L276.938,157.5L278.43,158.75L279.875,173.75L281.367,177.5L282.86,170L284.208,172.5L285.701,190L287.145,182.5L288.637,168.75L290.082,187.5L291.574,178.75L293.067,173.75L294.511,181.25L296.004,182.5L297.448,171.25L298.941,177.5L300.433,175L301.781,170L303.274,167.5L304.718,170L306.211,176.25L307.655,162.5L309.148,162.5L310.64,167.5L312.085,151.25L313.577,162.5L315.022,162.5L316.514,153.75L318.007,157.5L319.355,162.5L320.847,151.25L322.292,147.5L323.784,148.75L325.229,148.75L326.721,155L328.214,147.5L329.658,163.75L331.151,153.75L332.595,162.5L334.088,161.25L335.58,166.25L336.976,178.75L338.469,193.75L339.913,196.25L341.406,202.5L342.85,190L344.343,156.25L345.835,153.75L347.28,138.75L348.772,122.5L350.217,122.5L351.709,133.75L353.202,135L354.55,136.25L356.042,85L357.487,87.5L358.979,97.5L360.424,110L361.916,143.75L363.409,153.75L364.853,167.5L366.346,187.5L367.79,161.25L369.283,171.25L370.775,171.25L372.123,132.5L373.616,210L375.06,215L376.553,197.5L377.997,210L379.49,206.25L380.982,210L382.427,207.5L383.919,201.25L385.364,225L386.856,208.75L388.349,201.25L389.697,212.5L391.189,176.25L392.634,172.5L394.126,152.5L395.571,153.75L397.063,165L398.556,151.25L400,160" stroke="#179FDB" stroke-width="2"/></g><g class="mark-line role-mark layer_2_marks" role="graphics-object" aria-roledescription="line mark container"><path aria-label="time: Jan 01, 2001; Regular pay (real): 2.4" role="graphics-symbol" aria-roledescription="line mark" d="M0,145L1.493,145L2.841,133.75L4.333,127.5L5.778,138.75L7.27,138.75L8.714,128.75L10.207,131.25L11.7,136.25L13.144,135L14.636,132.5L16.081,137.5L17.573,141.25L19.066,133.75L20.414,136.25L21.907,145L23.351,140L24.844,132.5L26.288,143.75L27.78,153.75L29.273,150L30.717,155L32.21,157.5L33.654,160L35.147,151.25L36.639,156.25L37.987,161.25L39.48,155L40.924,151.25L42.417,153.75L43.861,153.75L45.354,147.5L46.846,146.25L48.291,146.25L49.783,145L51.228,137.5L52.72,151.25L54.213,152.5L55.609,146.25L57.102,145L58.546,148.75L60.039,150L61.483,146.25L62.975,143.75L64.468,145L65.912,142.5L67.405,147.5L68.849,145L70.342,143.75L71.834,143.75L73.182,142.5L74.675,147.5L76.119,146.25L77.612,146.25L79.056,150L80.549,148.75L82.041,150L83.486,152.5L84.978,150L86.423,156.25L87.915,152.5L89.408,150L90.756,153.75L92.248,156.25L93.693,156.25L95.185,156.25L96.63,161.25L98.122,166.25L99.615,162.5L101.059,156.25L102.552,158.75L103.996,160L105.489,161.25L106.981,161.25L108.329,161.25L109.822,160L111.266,153.75L112.759,153.75L114.203,142.5L115.696,138.75L117.188,143.75L118.633,155L120.125,152.5L121.57,155L123.062,153.75L124.555,155L125.951,153.75L127.443,156.25L128.888,170L130.38,177.5L131.825,185L133.317,188.75L134.81,192.5L136.254,181.25L137.747,181.25L139.191,173.75L140.684,177.5L142.176,181.25L143.524,185L145.017,178.75L146.461,172.5L147.954,171.25L149.398,177.5L150.891,177.5L152.383,168.75L153.828,177.5L155.32,181.25L156.765,183.75L158.257,183.75L159.75,182.5L161.098,178.75L162.59,190L164.035,191.25L165.527,187.5L166.972,176.25L168.464,176.25L169.957,177.5L171.401,178.75L172.894,177.5L174.338,190L175.831,188.75L177.323,193.75L178.671,197.5L180.164,196.25L181.608,193.75L183.101,195L184.545,202.5L186.038,202.5L187.53,208.75L188.974,205L190.467,203.75L191.911,195L193.404,202.5L194.896,192.5L196.293,188.75L197.785,188.75L199.23,185L200.722,178.75L202.167,181.25L203.659,177.5L205.152,181.25L206.596,188.75L208.089,187.5L209.533,190L211.026,192.5L212.518,196.25L213.866,197.5L215.359,187.5L216.803,192.5L218.296,196.25L219.74,192.5L221.233,198.75L222.725,196.25L224.169,188.75L225.662,191.25L227.106,183.75L228.599,176.25L230.091,182.5L231.44,185L232.932,190L234.377,186.25L235.869,188.75L237.313,187.5L238.806,181.25L240.299,170L241.743,170L243.235,168.75L244.68,166.25L246.172,162.5L247.665,152.5L249.013,143.75L250.506,143.75L251.95,146.25L253.442,145L254.887,143.75L256.379,148.75L257.872,155L259.316,157.5L260.809,153.75L262.253,156.25L263.746,155L265.238,152.5L266.635,157.5L268.127,153.75L269.571,158.75L271.064,157.5L272.508,158.75L274.001,157.5L275.494,158.75L276.938,158.75L278.43,160L279.875,168.75L281.367,173.75L282.86,182.5L284.208,181.25L285.701,183.75L287.145,178.75L288.637,178.75L290.082,181.25L291.574,180L293.067,180L294.511,178.75L296.004,181.25L297.448,175L298.941,175L300.433,170L301.781,166.25L303.274,170L304.718,171.25L306.211,170L307.655,165L309.148,163.75L310.64,163.75L312.085,158.75L313.577,158.75L315.022,158.75L316.514,152.5L318.007,157.5L319.355,158.75L320.847,151.25L322.292,151.25L323.784,148.75L325.229,152.5L326.721,152.5L328.214,151.25L329.658,155L331.151,153.75L332.595,152.5L334.088,163.75L335.58,160L336.976,163.75L338.469,186.25L339.913,185L341.406,186.25L342.85,176.25L344.343,156.25L345.835,148.75L347.28,140L348.772,131.25L350.217,130L351.709,133.75L353.202,128.75L354.55,126.25L356.042,102.5L357.487,111.25L358.979,117.5L360.424,127.5L361.916,152.5L363.409,161.25L364.853,175L366.346,187.5L367.79,188.75L369.283,182.5L370.775,190L372.123,197.5L373.616,218.75L375.06,207.5L376.553,210L377.997,213.75L379.49,208.75L380.982,207.5L382.427,210L383.919,203.75L385.364,205L386.856,205L388.349,200L389.697,195L391.189,176.25L392.634,176.25L394.126,167.5L395.571,158.75L397.063,156.25L398.556,161.25L400,156.25" stroke="#36B7B4" stroke-width="2"/></g><g class="mark-line role-mark layer_3_marks" role="graphics-object" aria-roledescription="line mark container"><path aria-label="time: Jan 01, 2001; CPIH: 1.2" role="graphics-symbol" aria-roledescription="line mark" d="M0,160L1.493,160L2.841,158.75L4.333,156.25L5.778,151.25L7.27,151.25L8.714,153.75L10.207,148.75L11.7,153.75L13.144,155L14.636,160L16.081,157.5L17.573,152.5L19.066,153.75L20.414,153.75L21.907,155L23.351,160L24.844,161.25L26.288,157.5L27.78,158.75L29.273,160L30.717,156.25L32.21,155L33.654,153.75L35.147,157.5L36.639,155L37.987,155L39.48,156.25L40.924,158.75L42.417,160L43.861,158.75L45.354,157.5L46.846,158.75L48.291,158.75L49.783,158.75L51.228,158.75L52.72,156.25L54.213,157.5L55.609,160L57.102,161.25L58.546,157.5L60.039,156.25L61.483,157.5L62.975,157.5L64.468,160L65.912,158.75L67.405,156.25L68.849,152.5L70.342,153.75L71.834,153.75L73.182,150L74.675,151.25L76.119,151.25L77.612,150L79.056,146.25L80.549,145L82.041,143.75L83.486,145L84.978,147.5L86.423,148.75L87.915,147.5L89.408,147.5L90.756,150L92.248,147.5L93.693,145L95.185,142.5L96.63,143.75L98.122,142.5L99.615,143.75L101.059,143.75L102.552,140L103.996,138.75L105.489,141.25L106.981,141.25L108.329,138.75L109.822,141.25L111.266,143.75L112.759,143.75L114.203,150L115.696,150L117.188,150L118.633,146.25L120.125,147.5L121.57,146.25L123.062,145L124.555,142.5L125.951,142.5L127.443,137.5L128.888,133.75L130.38,128.75L131.825,122.5L133.317,120L134.81,115L136.254,122.5L137.747,127.5L139.191,137.5L140.684,138.75L142.176,136.25L143.524,140L145.017,146.25L146.461,148.75L147.954,153.75L149.398,155L150.891,157.5L152.383,162.5L153.828,160L155.32,156.25L156.765,148.75L158.257,142.5L159.75,148.75L161.098,145L162.59,141.25L164.035,143.75L165.527,145L166.972,146.25L168.464,145L169.957,145L171.401,143.75L172.894,142.5L174.338,136.25L175.831,132.5L177.323,128.75L178.671,131.25L180.164,127.5L181.608,127.5L183.101,130L184.545,127.5L186.038,126.25L187.53,118.75L188.974,121.25L190.467,123.75L191.911,128.75L193.404,135L194.896,136.25L196.293,136.25L197.785,140L199.23,143.75L200.722,146.25L202.167,145L203.659,146.25L205.152,148.75L206.596,145L208.089,145L209.533,145L211.026,145L212.518,143.75L213.866,143.75L215.359,147.5L216.803,145L218.296,142.5L219.74,143.75L221.233,145L222.725,145L224.169,150L225.662,151.25L227.106,151.25L228.599,152.5L230.091,155L231.44,156.25L232.932,153.75L234.377,156.25L235.869,152.5L237.313,155L238.806,156.25L240.299,158.75L241.743,158.75L243.235,161.25L244.68,166.25L246.172,168.75L247.665,170L249.013,171.25L250.506,171.25L251.95,170L253.442,171.25L254.887,168.75L256.379,170L257.872,172.5L259.316,172.5L260.809,170L262.253,168.75L263.746,167.5L265.238,167.5L266.635,165L268.127,166.25L269.571,166.25L271.064,165L272.508,163.75L274.001,162.5L275.494,158.75L276.938,158.75L278.43,156.25L279.875,152.5L281.367,151.25L282.86,146.25L284.208,146.25L285.701,142.5L287.145,141.25L288.637,142.5L290.082,142.5L291.574,141.25L293.067,140L294.511,140L296.004,140L297.448,141.25L298.941,141.25L300.433,143.75L301.781,146.25L303.274,147.5L304.718,146.25L306.211,146.25L307.655,146.25L309.148,145L310.64,147.5L312.085,147.5L313.577,147.5L315.022,150L316.514,152.5L318.007,152.5L319.355,152.5L320.847,150L322.292,151.25L323.784,151.25L325.229,150L326.721,153.75L328.214,153.75L329.658,156.25L331.151,156.25L332.595,157.5L334.088,152.5L335.58,153.75L336.976,156.25L338.469,163.75L339.913,166.25L341.406,165L342.85,161.25L344.343,168.75L345.835,166.25L347.28,163.75L348.772,167.5L350.217,165L351.709,163.75L353.202,166.25L354.55,162.5L356.042,155L357.487,148.75L358.979,145L360.424,148.75L361.916,137.5L363.409,138.75L364.853,127.5L366.346,117.5L367.79,115L369.283,113.75L370.775,106.25L372.123,97.5L373.616,77.5L375.06,76.25L376.553,72.5L377.997,65L379.49,67.5L380.982,65L382.427,55L383.919,58.75L385.364,60L386.856,65L388.349,60L389.697,63.75L391.189,77.5L392.634,76.25L394.126,83.75L395.571,95L397.063,96.25L398.556,96.25L400,116.25" stroke="#F4134D" stroke-width="2"/></g><g class="mark-text role-mark layer_4_marks" role="graphics-object" aria-roledescription="text mark container"><text aria-label="time: Oct 01, 2023; CPIH: 4.7" role="graphics-symbol" aria-roledescription="text mark" text-anchor="start" transform="translate(405,120.25000000000001)" font-family="Circular Std Book" font-size="12px" fill="#F4134D">CPIH</text></g><g class="mark-text role-mark layer_5_marks" role="graphics-object" aria-roledescription="text mark container"><text aria-label="time: Oct 01, 2023; Total pay (real): 1.2" role="graphics-symbol" aria-roledescription="text mark" text-anchor="start" transform="translate(405,179.00000000000003)" font-family="Circular Std Book" font-size="12px" fill="#179FDB">Total pay (real)</text></g><g class="mark-text role-mark layer_6_marks" role="graphics-object" aria-roledescription="text mark container"><text aria-label="time: Oct 01, 2023; Regular pay (real): 1.5" role="graphics-symbol" aria-roledescription="text mark" text-anchor="start" transform="translate(405,160.24999999999997)" font-family="Circular Std Book" font-size="12px" fill="#36B7B4">Regular pay (real)</text></g><g class="mark-image role-mark layer_7_marks" role="graphics-object" aria-roledescription="image mark container"><image aria-label="x: Oct 01, 2023; y: 14; img: https://raw.githubusercontent.com/EconomicsObservatory/ECOvisualisations/main/guidelines/logos/eco-icon-light.png" role="graphics-symbol" aria-roledescription="image mark" xlink:href="https://raw.githubusercontent.com/EconomicsObservatory/ECOvisualisations/main/guidelines/logos/eco-icon-light.png" transform="translate(360,-33)" width="40" height="40" preserveAspectRatio="xMidYMid" opacity="0.5"/></g></g><path class="foreground" aria-hidden="true" d="" display="none"/></g></g></g></svg>