<svg xmlns="http://www.w3.org/2000/svg" xmlns:xlink="http://www.w3.org/1999/xlink" version="1.1" class="marks" width="432" height="360" viewBox="0 0 432 360"><rect width="432" height="360" fill="white"/><g fill="none" stroke-miterlimit="10" transform="translate(26,38)"><g class="mark-group role-frame root" role="graphics-object" aria-roledescription="group mark container"><g transform="translate(0,0)"><path class="background" aria-hidden="true" d="M0,0h400v300h-400Z"/><g><g class="mark-group role-axis" aria-hidden="true"><g transform="translate(0.5,0.5)"><path class="background" aria-hidden="true" d="M0,0h0v0h0Z" pointer-events="none"/><g><g class="mark-rule role-axis-grid" pointer-events="none"><line transform="translate(0,300)" x2="400" y2="0" stroke="#676A86" stroke-opacity="0.5" stroke-width="1" stroke-dasharray="1,5" opacity="1"/><line transform="translate(0,250)" x2="400" y2="0" stroke="#676A86" stroke-opacity="0.5" stroke-width="1" stroke-dasharray="1,5" opacity="1"/><line transform="translate(0,200)" x2="400" y2="0" stroke="#676A86" stroke-opacity="0.5" stroke-width="1" stroke-dasharray="1,5" opacity="1"/><line transform="translate(0,150)" x2="400" y2="0" stroke="#676A86" stroke-opacity="0.5" stroke-width="1" stroke-dasharray="1,5" opacity="1"/><line transform="translate(0,100)" x2="400" y2="0" stroke="#676A86" stroke-opacity="0.5" stroke-width="1" stroke-dasharray="1,5" opacity="1"/><line transform="translate(0,50)" x2="400" y2="0" stroke="#676A86" stroke-opacity="0.5" stroke-width="1" stroke-dasharray="1,5" opacity="1"/><line transform="translate(0,0)" x2="400" y2="0" stroke="#676A86" stroke-opacity="0.5" stroke-width="1" stroke-dasharray="1,5" opacity="1"/></g></g><path class="foreground" aria-hidden="true" d="" pointer-events="none" display="none"/></g></g><g class="mark-group role-axis" role="graphics-symbol" aria-roledescription="axis" aria-label="X-axis for a linear scale with values from 2013 to 2024"><g transform="translate(0.5,300.5)"><path class="background" aria-hidden="true" d="M0,0h0v0h0Z" pointer-events="none"/><g><g class="mark-rule role-axis-tick" pointer-events="none"><line transform="translate(0,0)" x2="0" y2="5" stroke="#676A86" stroke-opacity="0.5" stroke-width="1" opacity="1"/><line transform="translate(36,0)" x2="0" y2="5" stroke="#676A86" stroke-opacity="0.5" stroke-width="1" opacity="1"/><line transform="translate(73,0)" x2="0" y2="5" stroke="#676A86" stroke-opacity="0.5" stroke-width="1" opacity="1"/><line transform="translate(109,0)" x2="0" y2="5" stroke="#676A86" stroke-opacity="0.5" stroke-width="1" opacity="1"/><line transform="translate(145,0)" x2="0" y2="5" stroke="#676A86" stroke-opacity="0.5" stroke-width="1" opacity="1"/><line transform="translate(182,0)" x2="0" y2="5" stroke="#676A86" stroke-opacity="0.5" stroke-width="1" opacity="1"/><line transform="translate(218,0)" x2="0" y2="5" stroke="#676A86" stroke-opacity="0.5" stroke-width="1" opacity="1"/><line transform="translate(255,0)" x2="0" y2="5" stroke="#676A86" stroke-opacity="0.5" stroke-width="1" opacity="1"/><line transform="translate(291,0)" x2="0" y2="5" stroke="#676A86" stroke-opacity="0.5" stroke-width="1" opacity="1"/><line transform="translate(327,0)" x2="0" y2="5" stroke="#676A86" stroke-opacity="0.5" stroke-width="1" opacity="1"/><line transform="translate(364,0)" x2="0" y2="5" stroke="#676A86" stroke-opacity="0.5" stroke-width="1" opacity="1"/><line transform="translate(400,0)" x2="0" y2="5" stroke="#676A86" stroke-opacity="0.5" stroke-width="1" opacity="1"/></g><g class="mark-text role-axis-label" pointer-events="none"><text text-anchor="start" transform="translate(0,15)" font-family="Circular Std Book" font-size="10px" fill="#676A86" fill-opacity="0.7" opacity="1">2013</text><text text-anchor="middle" transform="translate(36.36363636363637,15)" font-family="Circular Std Book" font-size="10px" fill="#676A86" fill-opacity="0.7" opacity="1">2014</text><text text-anchor="middle" transform="translate(72.72727272727273,15)" font-family="Circular Std Book" font-size="10px" fill="#676A86" fill-opacity="0.7" opacity="1">2015</text><text text-anchor="middle" transform="translate(109.09090909090908,15)" font-family="Circular Std Book" font-size="10px" fill="#676A86" fill-opacity="0.7" opacity="1">2016</text><text text-anchor="middle" transform="translate(145.45454545454547,15)" font-family="Circular Std Book" font-size="10px" fill="#676A86" fill-opacity="0.7" opacity="1">2017</text><text text-anchor="middle" transform="translate(181.8181818181818,15)" font-family="Circular Std Book" font-size="10px" fill="#676A86" fill-opacity="0.7" opacity="1">2018</text><text text-anchor="middle" transform="translate(218.18181818181816,15)" font-family="Circular Std Book" font-size="10px" fill="#676A86" fill-opacity="0.7" opacity="1">2019</text><text text-anchor="middle" transform="translate(254.54545454545453,15)" font-family="Circular Std Book" font-size="10px" fill="#676A86" fill-opacity="0.7" opacity="1">2020</text><text text-anchor="middle" transform="translate(290.90909090909093,15)" font-family="Circular Std Book" font-size="10px" fill="#676A86" fill-opacity="0.7" opacity="1">2021</text><text text-anchor="middle" transform="translate(327.2727272727273,15)" font-family="Circular Std Book" font-size="10px" fill="#676A86" fill-opacity="0.7" opacity="1">2022</text><text text-anchor="middle" transform="translate(363.6363636363636,15)" font-family="Circular Std Book" font-size="10px" fill="#676A86" fill-opacity="0.7" opacity="1">2023</text><text text-anchor="end" transform="translate(400,15)" font-family="Circular Std Book" font-size="10px" fill="#676A86" fill-opacity="0.7" opacity="1">2024</text></g><g class="mark-rule role-axis-domain" pointer-events="none"><line transform="translate(0,0)" x2="400" y2="0" stroke="#676A86" stroke-opacity="0.5" stroke-width="1" opacity="1"/></g></g><path class="foreground" aria-hidden="true" d="" pointer-events="none" display="none"/></g></g><g class="mark-group role-axis" role="graphics-symbol" aria-roledescription="axis" aria-label="Y-axis for a linear scale with values from −50 to 10"><g transform="translate(0.5,0.5)"><path class="background" aria-hidden="true" d="M0,0h0v0h0Z" pointer-events="none"/><g><g class="mark-text role-axis-label" pointer-events="none"><text text-anchor="end" transform="translate(-5,303)" font-family="Circular Std Book" font-size="10px" fill="#676A86" fill-opacity="0.7" opacity="1">−50</text><text text-anchor="end" transform="translate(-5,253)" font-family="Circular Std Book" font-size="10px" fill="#676A86" fill-opacity="0.7" opacity="1">−40</text><text text-anchor="end" transform="translate(-5,203.00000000000003)" font-family="Circular Std Book" font-size="10px" fill="#676A86" fill-opacity="0.7" opacity="1">−30</text><text text-anchor="end" transform="translate(-5,153)" font-family="Circular Std Book" font-size="10px" fill="#676A86" fill-opacity="0.7" opacity="1">−20</text><text text-anchor="end" transform="translate(-5,103.00000000000001)" font-family="Circular Std Book" font-size="10px" fill="#676A86" fill-opacity="0.7" opacity="1">−10</text><text text-anchor="end" transform="translate(-5,52.999999999999986)" font-family="Circular Std Book" font-size="10px" fill="#676A86" fill-opacity="0.7" opacity="1">0</text><text text-anchor="end" transform="translate(-5,3)" font-family="Circular Std Book" font-size="10px" fill="#676A86" fill-opacity="0.7" opacity="1">10</text></g><g class="mark-rule role-axis-domain" pointer-events="none"><line transform="translate(0,300)" x2="0" y2="-300" stroke="#676A86" stroke-opacity="0.5" stroke-width="1" opacity="1"/></g></g><path class="foreground" aria-hidden="true" d="" pointer-events="none" display="none"/></g></g><g class="mark-line role-mark layer_0_marks" role="graphics-object" aria-roledescription="line mark container"><path aria-label="x: 2013; y: 0" role="graphics-symbol" aria-roledescription="line mark" d="M0,50L400,50" stroke="#676A86" stroke-width="1" opacity="0.3"/></g><g class="mark-line role-mark layer_1_marks" clip-path="url(#clip117)" role="graphics-object" aria-roledescription="line mark container"><path aria-label="d: 2013.83386923; v: −12.1897947014" role="graphics-symbol" aria-roledescription="line mark" d="M30.323,110.949L32.581,113.07L33.871,104.091L35.161,94.616L36.129,85.707L38.71,83.798L40.968,77.435L42.904,71.213L44.839,65.274L46.129,58.557L48.388,49.436L50.968,47.103L53.549,56.436L55.485,51.981L57.42,47.527L60.001,53.678L62.582,58.981L65.162,60.254L67.42,64.143L69.356,67.466L70.646,57.921L72.098,48.376L73.657,44.628L75.485,43.073L76.883,36.426L78.711,30.558L81.292,31.831L83.227,40.315L84.195,46.042L84.84,40.103L85.485,31.194L87.206,19.457L89.357,24.619L90.217,27.376L93.099,19.231L94.733,24.265L95.808,32.043L98.066,37.558L100.647,41.8L103.228,43.285L105.486,39.255L107.744,32.679L109.572,37.558L110.648,44.557L112.906,50.285L115.164,53.396L116.712,61.484L119.035,59.9L121.293,55.375L123.551,56.224L123.874,63.436L124.519,72.556L125.164,83.798L125.809,92.707L126.454,100.555L126.906,106.961L128.39,95.677L129.358,87.192L130.326,79.132L130.971,72.344L131.938,63.648L133.551,57.708L135.487,64.284L136.455,71.708L137.745,81.677L139.358,88.253L141.939,84.011L144.519,76.799L147.1,78.496L149.681,79.556L152.262,82.102L154.52,82.526L156.842,78.453L158.391,87.404L159.466,97.232L160.972,103.171L163.23,107.343L165.81,101.192L168.391,96.313L170.972,98.222L173.23,103.737L175.488,109.888L178.284,112.363L180.198,103.058L181.94,96.525L184.585,98.137L186.134,91.435L187.747,87.829L190.327,92.707L192.908,86.768L195.166,91.293L197.424,96.949L199.682,96.949L201.876,88.635L204.199,90.727L206.457,96.525L208.715,101.757L210.651,110.242L211.726,115.333L214.199,119.221L216.78,119.858L219.36,116.888L221.941,114.767L224.522,114.767L227.167,112.391L229.146,104.02L230.866,107.131L232.909,112.01L235.684,108.319L237.318,113.919L238.716,118.161L241.297,112.222L243.877,116.676L246.458,119.858L248.716,116.888L250.007,109.464L251.942,100.909L253.878,94.97L256.136,87.616L258.394,89.879L259.899,110.525L260.007,96.101L260.007,102.889L260.652,127.494L260.652,134.281L260.76,119.292L260.975,141.352L261.297,159.735L261.405,151.533L261.62,165.25L261.942,171.613L261.942,178.401L261.942,185.189L262.104,193.037L262.588,201.309L262.588,208.097L263.018,217.996L265.813,219.127L267.426,211.703L268.717,203.43L270.007,195.936L271.297,189.219L273.556,184.34L275.814,182.361L278.136,179.25L279.685,189.148L280.007,197.067L281.233,204.929L284.094,212.056L285.491,202.158L286.137,192.825L286.997,184.34L288.502,184.623L290.653,186.886L291.943,177.128L293.234,167.371L293.879,159.169L294.524,151.533L295.169,143.897L295.814,135.342L297.427,128.13L299.363,123.252L300.331,114.767L300.976,106.282L302.524,96.61L305.169,93.556L307.75,86.98L310.331,88.253L312.159,96.101L313.234,105.646L314.525,115.828L315.815,125.161L317.363,132.585L319.686,124.736L321.944,122.191L324.202,128.908L324.847,135.413L326.138,142.554L327.106,152.311L328.073,161.432L328.719,170.482L329.364,178.118L330.654,187.734L330.654,191.976L331.944,199.612L331.944,203.855L333.074,212.127L333.45,219.692L334.525,228.036L335.17,237.227L336.783,244.793L339.364,251.368L341.945,255.186L344.525,256.671L346.461,264.095L347.644,271.165L348.719,277.67L349.364,285.023L350.977,292.306L353.558,286.367L355.171,279.155L357.107,269.751L359.365,263.034L361.838,268.62L363.3,272.41L364.203,262.115L364.526,255.61L365.494,247.409L366.139,239.773L368.075,233.551L369.042,228.036L369.688,221.672L370.655,212.551L371.946,201.946L373.236,194.946L374.526,188.158L375.817,180.381L378.139,175.007L379.365,184.34L380.656,192.825L381.301,197.491L382.914,185.189L384.204,175.219L385.494,166.735L387.107,160.442L388.075,169.917L388.398,177.553L389.527,187.31L390.269,195.37L391.946,184.128L392.591,174.159" stroke="#36B7B4" stroke-width="2"/></g><g class="mark-text role-mark layer_2_marks" role="graphics-object" aria-roledescription="text mark container"/><g class="mark-image role-mark layer_3_marks" role="graphics-object" aria-roledescription="image mark container"><image aria-label="x: 2024; y: 10; img: https://raw.githubusercontent.com/EconomicsObservatory/ECOvisualisations/main/guidelines/logos/eco-icon-dark.png" role="graphics-symbol" aria-roledescription="image mark" xlink:href="https://raw.githubusercontent.com/EconomicsObservatory/ECOvisualisations/main/guidelines/logos/eco-icon-dark.png" transform="translate(360,-33)" width="40" height="40" preserveAspectRatio="xMidYMid" opacity="0.5"/></g></g><path class="foreground" aria-hidden="true" d="" display="none"/></g></g></g><defs><clipPath id="clip117"><rect x="0" y="0" width="400" height="300"/></clipPath></defs></svg>