<svg xmlns="http://www.w3.org/2000/svg" xmlns:xlink="http://www.w3.org/1999/xlink" version="1.1" class="marks" width="473" height="347" viewBox="0 0 473 347"><rect width="473" height="347" fill="white"/><g fill="none" stroke-miterlimit="10" transform="translate(25,25)"><g class="mark-group role-frame root" role="graphics-object" aria-roledescription="group mark container"><g transform="translate(0,0)"><path class="background" aria-hidden="true" d="M0,0h400v300h-400Z"/><g><g class="mark-group role-axis" aria-hidden="true"><g transform="translate(0.5,0.5)"><path class="background" aria-hidden="true" d="M0,0h0v0h0Z" pointer-events="none"/><g><g class="mark-rule role-axis-grid" pointer-events="none"><line transform="translate(0,300)" x2="400" y2="0" stroke="#676A86" stroke-opacity="0.5" stroke-width="1" stroke-dasharray="1,5" opacity="1"/><line transform="translate(0,250)" x2="400" y2="0" stroke="#676A86" stroke-opacity="0.5" stroke-width="1" stroke-dasharray="1,5" opacity="1"/><line transform="translate(0,200)" x2="400" y2="0" stroke="#676A86" stroke-opacity="0.5" stroke-width="1" stroke-dasharray="1,5" opacity="1"/><line transform="translate(0,150)" x2="400" y2="0" stroke="#676A86" stroke-opacity="0.5" stroke-width="1" stroke-dasharray="1,5" opacity="1"/><line transform="translate(0,100)" x2="400" y2="0" stroke="#676A86" stroke-opacity="0.5" stroke-width="1" stroke-dasharray="1,5" opacity="1"/><line transform="translate(0,50)" x2="400" y2="0" stroke="#676A86" stroke-opacity="0.5" stroke-width="1" stroke-dasharray="1,5" opacity="1"/><line transform="translate(0,0)" x2="400" y2="0" stroke="#676A86" stroke-opacity="0.5" stroke-width="1" stroke-dasharray="1,5" opacity="1"/></g></g><path class="foreground" aria-hidden="true" d="" pointer-events="none" display="none"/></g></g><g class="mark-group role-axis" role="graphics-symbol" aria-roledescription="axis" aria-label="X-axis for a time scale with values from 2019 to 2023"><g transform="translate(0.5,300.5)"><path class="background" aria-hidden="true" d="M0,0h0v0h0Z" pointer-events="none"/><g><g class="mark-rule role-axis-tick" pointer-events="none"><line transform="translate(25,0)" x2="0" y2="5" stroke="#676A86" stroke-opacity="0.5" stroke-width="1" opacity="1"/><line transform="translate(125,0)" x2="0" y2="5" stroke="#676A86" stroke-opacity="0.5" stroke-width="1" opacity="1"/><line transform="translate(225,0)" x2="0" y2="5" stroke="#676A86" stroke-opacity="0.5" stroke-width="1" opacity="1"/><line transform="translate(325,0)" x2="0" y2="5" stroke="#676A86" stroke-opacity="0.5" stroke-width="1" opacity="1"/></g><g class="mark-text role-axis-label" pointer-events="none"><text text-anchor="middle" transform="translate(25.18822724161533,15)" font-family="Circular Std Book" font-size="10px" fill="#676A86" fill-opacity="0.7" opacity="1">2020</text><text text-anchor="middle" transform="translate(125.39356605065024,15)" font-family="Circular Std Book" font-size="10px" fill="#676A86" fill-opacity="0.7" opacity="1">2021</text><text text-anchor="middle" transform="translate(225.32511978097193,15)" font-family="Circular Std Book" font-size="10px" fill="#676A86" fill-opacity="0.7" opacity="1">2022</text><text text-anchor="middle" transform="translate(325.2566735112936,15)" font-family="Circular Std Book" font-size="10px" fill="#676A86" fill-opacity="0.7" opacity="1">2023</text></g><g class="mark-rule role-axis-domain" pointer-events="none"><line transform="translate(0,0)" x2="400" y2="0" stroke="#676A86" stroke-opacity="0.5" stroke-width="1" opacity="1"/></g></g><path class="foreground" aria-hidden="true" d="" pointer-events="none" display="none"/></g></g><g class="mark-group role-axis" role="graphics-symbol" aria-roledescription="axis" aria-label="Y-axis titled 'Index, 2019 = 100' for a linear scale with values from 80 to 140"><g transform="translate(0.5,0.5)"><path class="background" aria-hidden="true" d="M0,0h0v0h0Z" pointer-events="none"/><g><g class="mark-text role-axis-label" pointer-events="none"><text text-anchor="end" transform="translate(-5,303)" font-family="Circular Std Book" font-size="10px" fill="#676A86" fill-opacity="0.7" opacity="1">80</text><text text-anchor="end" transform="translate(-5,253)" font-family="Circular Std Book" font-size="10px" fill="#676A86" fill-opacity="0.7" opacity="1">90</text><text text-anchor="end" transform="translate(-5,203.00000000000003)" font-family="Circular Std Book" font-size="10px" fill="#676A86" fill-opacity="0.7" opacity="1">100</text><text text-anchor="end" transform="translate(-5,153)" font-family="Circular Std Book" font-size="10px" fill="#676A86" fill-opacity="0.7" opacity="1">110</text><text text-anchor="end" transform="translate(-5,103.00000000000001)" font-family="Circular Std Book" font-size="10px" fill="#676A86" fill-opacity="0.7" opacity="1">120</text><text text-anchor="end" transform="translate(-5,52.999999999999986)" font-family="Circular Std Book" font-size="10px" fill="#676A86" fill-opacity="0.7" opacity="1">130</text><text text-anchor="end" transform="translate(-5,3)" font-family="Circular Std Book" font-size="10px" fill="#676A86" fill-opacity="0.7" opacity="1">140</text></g><g class="mark-rule role-axis-domain" pointer-events="none"><line transform="translate(0,300)" x2="0" y2="-300" stroke="#676A86" stroke-opacity="0.5" stroke-width="1" opacity="1"/></g><g class="mark-text role-axis-title" pointer-events="none"><text text-anchor="start" transform="translate(0,-10)" font-family="Circular Std Book" font-size="12px" font-weight="bold" fill="#676A86" fill-opacity="0.8" opacity="1">Index, 2019 = 100</text></g></g><path class="foreground" aria-hidden="true" d="" pointer-events="none" display="none"/></g></g><g class="mark-line role-mark layer_0_marks" role="graphics-object" aria-roledescription="line mark container"><path aria-label="x: 2019; y: 100" role="graphics-symbol" aria-roledescription="line mark" d="M0,200L400,200" stroke="#676A86" stroke-width="1" opacity="0.3"/></g><g class="mark-line role-mark layer_1_marks" role="graphics-object" aria-roledescription="line mark container"><path aria-label="time: Oct 01, 2019; Volume: 100.7" role="graphics-symbol" aria-roledescription="line mark" d="M0,196.5L8.487,198.5L16.701,205L25.188,197.5L33.676,200L41.615,153.5L50.103,171L58.316,167L66.804,169.5L75.017,186L83.504,179.5L91.992,175.5L100.205,180.5L108.693,167.5L116.906,185.5L125.394,171.5L133.881,164L141.547,153L150.034,158L158.248,187L166.735,169.5L174.949,178L183.436,183.5L191.923,187L200.137,183.5L208.624,186.5L216.838,183L225.325,197L233.812,200L241.478,198L249.966,200L258.179,212L266.667,199.5L274.88,197L283.368,201L291.855,214L300.068,213.5L308.556,210.5L316.769,217L325.257,214.5L333.744,212L341.41,215.5L349.897,213.5L358.111,216L366.598,211.5L374.812,224.5L383.299,218L391.786,218L400,219.5" stroke="#36B7B4" stroke-width="2"/></g><g class="mark-line role-mark layer_2_marks" role="graphics-object" aria-roledescription="line mark container"><path aria-label="time: Oct 01, 2019; Value: 101" role="graphics-symbol" aria-roledescription="line mark" d="M0,195L8.487,197L16.701,204L25.188,191L33.676,195.5L41.615,154L50.103,170L58.316,163L66.804,163L75.017,181L83.504,176.5L91.992,171.5L100.205,176.5L108.693,166.5L116.906,185L125.394,166L133.881,160.5L141.547,155L150.034,158L158.248,183L166.735,159L174.949,170L183.436,173.5L191.923,173.5L200.137,168.5L208.624,168.5L216.838,161L225.325,169.5L233.812,171L241.478,168.5L249.966,165L258.179,167.5L266.667,143L274.88,133L283.368,134.5L291.855,138.5L300.068,131L308.556,126.5L316.769,127L325.257,119.5L333.744,111L341.41,116L349.897,101.5L358.111,97.5L366.598,85L374.812,101L383.299,91.5L391.786,85L400,87" stroke="#F4134D" stroke-width="2"/></g><g class="mark-text role-mark layer_3_marks" role="graphics-object" aria-roledescription="text mark container"><text aria-label="time: Oct 01, 2023; Value: 122.6" role="graphics-symbol" aria-roledescription="text mark" text-anchor="start" transform="translate(405,91.00000000000004)" font-family="Circular Std Book" font-size="12px" fill="#F4134D">Value</text></g><g class="mark-text role-mark layer_4_marks" role="graphics-object" aria-roledescription="text mark container"><text aria-label="time: Oct 01, 2023; Volume: 96.1" role="graphics-symbol" aria-roledescription="text mark" text-anchor="start" transform="translate(405,223.5)" font-family="Circular Std Book" font-size="12px" fill="#36B7B4">Volume</text></g></g><path class="foreground" aria-hidden="true" d="" display="none"/></g></g></g></svg>