<svg xmlns="http://www.w3.org/2000/svg" xmlns:xlink="http://www.w3.org/1999/xlink" version="1.1" class="marks" width="526" height="360" viewBox="0 0 526 360"><rect width="526" height="360" fill="#122B39"/><g fill="none" stroke-miterlimit="10" transform="translate(28,38)"><g class="mark-group role-frame root" role="graphics-object" aria-roledescription="group mark container"><g transform="translate(0,0)"><path class="background" aria-hidden="true" d="M0,0h400v300h-400Z"/><g><g class="mark-group role-axis" aria-hidden="true"><g transform="translate(0.5,0.5)"><path class="background" aria-hidden="true" d="M0,0h0v0h0Z" pointer-events="none"/><g><g class="mark-rule role-axis-grid" pointer-events="none"><line transform="translate(0,300)" x2="400" y2="0" stroke="#b4c8d8" stroke-opacity="0.5" stroke-width="1" stroke-dasharray="1,5" opacity="1"/><line transform="translate(0,270)" x2="400" y2="0" stroke="#b4c8d8" stroke-opacity="0.5" stroke-width="1" stroke-dasharray="1,5" opacity="1"/><line transform="translate(0,240)" x2="400" y2="0" stroke="#b4c8d8" stroke-opacity="0.5" stroke-width="1" stroke-dasharray="1,5" opacity="1"/><line transform="translate(0,210)" x2="400" y2="0" stroke="#b4c8d8" stroke-opacity="0.5" stroke-width="1" stroke-dasharray="1,5" opacity="1"/><line transform="translate(0,180)" x2="400" y2="0" stroke="#b4c8d8" stroke-opacity="0.5" stroke-width="1" stroke-dasharray="1,5" opacity="1"/><line transform="translate(0,150)" x2="400" y2="0" stroke="#b4c8d8" stroke-opacity="0.5" stroke-width="1" stroke-dasharray="1,5" opacity="1"/><line transform="translate(0,120)" x2="400" y2="0" stroke="#b4c8d8" stroke-opacity="0.5" stroke-width="1" stroke-dasharray="1,5" opacity="1"/><line transform="translate(0,90)" x2="400" y2="0" stroke="#b4c8d8" stroke-opacity="0.5" stroke-width="1" stroke-dasharray="1,5" opacity="1"/><line transform="translate(0,60)" x2="400" y2="0" stroke="#b4c8d8" stroke-opacity="0.5" stroke-width="1" stroke-dasharray="1,5" opacity="1"/><line transform="translate(0,30)" x2="400" y2="0" stroke="#b4c8d8" stroke-opacity="0.5" stroke-width="1" stroke-dasharray="1,5" opacity="1"/><line transform="translate(0,0)" x2="400" y2="0" stroke="#b4c8d8" stroke-opacity="0.5" stroke-width="1" stroke-dasharray="1,5" opacity="1"/></g></g><path class="foreground" aria-hidden="true" d="" pointer-events="none" display="none"/></g></g><g class="mark-group role-axis" role="graphics-symbol" aria-roledescription="axis" aria-label="X-axis titled 'months since March 2020' for a linear scale with values from 0 to 28"><g transform="translate(0.5,300.5)"><path class="background" aria-hidden="true" d="M0,0h0v0h0Z" pointer-events="none"/><g><g class="mark-rule role-axis-tick" pointer-events="none"><line transform="translate(0,0)" x2="0" y2="5" stroke="#b4c8d8" stroke-opacity="0.5" stroke-width="1" opacity="1"/><line transform="translate(29,0)" x2="0" y2="5" stroke="#b4c8d8" stroke-opacity="0.5" stroke-width="1" opacity="1"/><line transform="translate(57,0)" x2="0" y2="5" stroke="#b4c8d8" stroke-opacity="0.5" stroke-width="1" opacity="1"/><line transform="translate(86,0)" x2="0" y2="5" stroke="#b4c8d8" stroke-opacity="0.5" stroke-width="1" opacity="1"/><line transform="translate(114,0)" x2="0" y2="5" stroke="#b4c8d8" stroke-opacity="0.5" stroke-width="1" opacity="1"/><line transform="translate(143,0)" x2="0" y2="5" stroke="#b4c8d8" stroke-opacity="0.5" stroke-width="1" opacity="1"/><line transform="translate(171,0)" x2="0" y2="5" stroke="#b4c8d8" stroke-opacity="0.5" stroke-width="1" opacity="1"/><line transform="translate(200,0)" x2="0" y2="5" stroke="#b4c8d8" stroke-opacity="0.5" stroke-width="1" opacity="1"/><line transform="translate(229,0)" x2="0" y2="5" stroke="#b4c8d8" stroke-opacity="0.5" stroke-width="1" opacity="1"/><line transform="translate(257,0)" x2="0" y2="5" stroke="#b4c8d8" stroke-opacity="0.5" stroke-width="1" opacity="1"/><line transform="translate(286,0)" x2="0" y2="5" stroke="#b4c8d8" stroke-opacity="0.5" stroke-width="1" opacity="1"/><line transform="translate(314,0)" x2="0" y2="5" stroke="#b4c8d8" stroke-opacity="0.5" stroke-width="1" opacity="1"/><line transform="translate(343,0)" x2="0" y2="5" stroke="#b4c8d8" stroke-opacity="0.5" stroke-width="1" opacity="1"/><line transform="translate(371,0)" x2="0" y2="5" stroke="#b4c8d8" stroke-opacity="0.5" stroke-width="1" opacity="1"/><line transform="translate(400,0)" x2="0" y2="5" stroke="#b4c8d8" stroke-opacity="0.5" stroke-width="1" opacity="1"/></g><g class="mark-text role-axis-label" pointer-events="none"><text text-anchor="start" transform="translate(0,15)" font-family="Circular Std Book" font-size="10px" fill="#b4c8d8" fill-opacity="0.7" opacity="1">0</text><text text-anchor="middle" transform="translate(28.57142857142857,15)" font-family="Circular Std Book" font-size="10px" fill="#b4c8d8" fill-opacity="0.7" opacity="1">2</text><text text-anchor="middle" transform="translate(57.14285714285714,15)" font-family="Circular Std Book" font-size="10px" fill="#b4c8d8" fill-opacity="0.7" opacity="1">4</text><text text-anchor="middle" transform="translate(85.71428571428571,15)" font-family="Circular Std Book" font-size="10px" fill="#b4c8d8" fill-opacity="0.7" opacity="1">6</text><text text-anchor="middle" transform="translate(114.28571428571428,15)" font-family="Circular Std Book" font-size="10px" fill="#b4c8d8" fill-opacity="0.7" opacity="1">8</text><text text-anchor="middle" transform="translate(142.85714285714286,15)" font-family="Circular Std Book" font-size="10px" fill="#b4c8d8" fill-opacity="0.7" opacity="1">10</text><text text-anchor="middle" transform="translate(171.42857142857142,15)" font-family="Circular Std Book" font-size="10px" fill="#b4c8d8" fill-opacity="0.7" opacity="1">12</text><text text-anchor="middle" transform="translate(200,15)" font-family="Circular Std Book" font-size="10px" fill="#b4c8d8" fill-opacity="0.7" opacity="1">14</text><text text-anchor="middle" transform="translate(228.57142857142856,15)" font-family="Circular Std Book" font-size="10px" fill="#b4c8d8" fill-opacity="0.7" opacity="1">16</text><text text-anchor="middle" transform="translate(257.14285714285717,15)" font-family="Circular Std Book" font-size="10px" fill="#b4c8d8" fill-opacity="0.7" opacity="1">18</text><text text-anchor="middle" transform="translate(285.7142857142857,15)" font-family="Circular Std Book" font-size="10px" fill="#b4c8d8" fill-opacity="0.7" opacity="1">20</text><text text-anchor="middle" transform="translate(314.2857142857143,15)" font-family="Circular Std Book" font-size="10px" fill="#b4c8d8" fill-opacity="0.7" opacity="1">22</text><text text-anchor="middle" transform="translate(342.85714285714283,15)" font-family="Circular Std Book" font-size="10px" fill="#b4c8d8" fill-opacity="0.7" opacity="1">24</text><text text-anchor="middle" transform="translate(371.42857142857144,15)" font-family="Circular Std Book" font-size="10px" fill="#b4c8d8" fill-opacity="0.7" opacity="1">26</text><text text-anchor="end" transform="translate(400,15)" font-family="Circular Std Book" font-size="10px" fill="#b4c8d8" fill-opacity="0.7" opacity="1">28</text></g><g class="mark-rule role-axis-domain" pointer-events="none"><line transform="translate(0,0)" x2="400" y2="0" stroke="#b4c8d8" stroke-opacity="0.5" stroke-width="1" opacity="1"/></g><g class="mark-text role-axis-title" pointer-events="none"><text text-anchor="middle" transform="translate(328,-6)" font-family="Circular Std Book" font-size="12px" font-weight="bold" fill="#b4c8d8" fill-opacity="0.8" opacity="1">months since March 2020</text></g></g><path class="foreground" aria-hidden="true" d="" pointer-events="none" display="none"/></g></g><g class="mark-group role-axis" role="graphics-symbol" aria-roledescription="axis" aria-label="Y-axis titled '%' for a linear scale with values from 0.0 to 0.2"><g transform="translate(0.5,0.5)"><path class="background" aria-hidden="true" d="M0,0h0v0h0Z" pointer-events="none"/><g><g class="mark-text role-axis-label" pointer-events="none"><text text-anchor="end" transform="translate(-5,303)" font-family="Circular Std Book" font-size="10px" fill="#b4c8d8" fill-opacity="0.7" opacity="1">0.0</text><text text-anchor="end" transform="translate(-5,273)" font-family="Circular Std Book" font-size="10px" fill="#b4c8d8" fill-opacity="0.7" opacity="1">0.0</text><text text-anchor="end" transform="translate(-5,243)" font-family="Circular Std Book" font-size="10px" fill="#b4c8d8" fill-opacity="0.7" opacity="1">0.0</text><text text-anchor="end" transform="translate(-5,213)" font-family="Circular Std Book" font-size="10px" fill="#b4c8d8" fill-opacity="0.7" opacity="1">0.1</text><text text-anchor="end" transform="translate(-5,183.00000000000003)" font-family="Circular Std Book" font-size="10px" fill="#b4c8d8" fill-opacity="0.7" opacity="1">0.1</text><text text-anchor="end" transform="translate(-5,153)" font-family="Circular Std Book" font-size="10px" fill="#b4c8d8" fill-opacity="0.7" opacity="1">0.1</text><text text-anchor="end" transform="translate(-5,123)" font-family="Circular Std Book" font-size="10px" fill="#b4c8d8" fill-opacity="0.7" opacity="1">0.1</text><text text-anchor="end" transform="translate(-5,92.99999999999999)" font-family="Circular Std Book" font-size="10px" fill="#b4c8d8" fill-opacity="0.7" opacity="1">0.1</text><text text-anchor="end" transform="translate(-5,63.00000000000002)" font-family="Circular Std Book" font-size="10px" fill="#b4c8d8" fill-opacity="0.7" opacity="1">0.2</text><text text-anchor="end" transform="translate(-5,33.00000000000003)" font-family="Circular Std Book" font-size="10px" fill="#b4c8d8" fill-opacity="0.7" opacity="1">0.2</text><text text-anchor="end" transform="translate(-5,3)" font-family="Circular Std Book" font-size="10px" fill="#b4c8d8" fill-opacity="0.7" opacity="1">0.2</text></g><g class="mark-rule role-axis-domain" pointer-events="none"><line transform="translate(0,300)" x2="0" y2="-300" stroke="#b4c8d8" stroke-opacity="0.5" stroke-width="1" opacity="1"/></g><g class="mark-text role-axis-title" pointer-events="none"><text text-anchor="start" transform="translate(0,-10)" font-family="Circular Std Book" font-size="12px" font-weight="bold" fill="#b4c8d8" fill-opacity="0.8" opacity="1">%</text></g></g><path class="foreground" aria-hidden="true" d="" pointer-events="none" display="none"/></g></g><g class="mark-line role-mark layer_0_marks" role="graphics-object" aria-roledescription="line mark container"><path aria-label="x: 1; y: 0.0" role="graphics-symbol" aria-roledescription="line mark" d="M14.285714285714285,300L400,300" stroke="#b4c8d8" stroke-width="1" opacity="0.3"/></g><g class="mark-line role-mark layer_1_marks" role="graphics-object" aria-roledescription="line mark container"><path aria-label="x1: 0.968568102445; y1: −0.000576369" role="graphics-symbol" aria-roledescription="line mark" d="M13.836687177781457,300.86455350000006L27.307500415765812,298.270893L30.26272533541664,290.8384155L37.18609679028768,272.03019234635747L44.92398253396708,256.107012L53.88363971085901,252.1150785L62.843296887750924,247.69543839981466L71.80295406464286,241.493685L80.76261124153478,228.6624705L84.78297023116579,223.05475500000003L89.72226841842674,221.0350275L98.68192559531865,219.03906L107.64158277221057,215.68868769458535L116.60123994910252,210.4849175353833L125.56089712857141,203.28518100000002L134.52055430288635,200.2912305L143.4802114797783,199.079394L152.43986865667023,197.51113500000002L161.3995258335621,195.3725985L170.35918301045405,192.80635650000002L179.31884018734598,187.602585L188.27849736423786,182.826522L197.23815454112983,180.18899550000003L206.1978117180218,176.4109155L215.1574688949137,171.3497145L224.11712607180561,162.65300249999999L233.07678324869755,155.381982L242.03644042558946,149.53665060226277L250.99609757142858,143.6913197385015L259.9557547793733,137.3469972156387L268.91541195626525,130.86010564731828L277.8750691331572,123.51779980625236L286.8347263100492,116.46063205610146L295.79438348694106,109.68860239686585L304.754040663833,103.55813344218947L313.7136978407249,97.49894901024183L322.6733550176168,91.79618719193807L331.6330121945087,85.66571823726166L340.5926693714007,79.03625762348358L349.5523265482926,71.19496012331614L358.51198372518456,63.13980905496209L367.47164090207644,55.29851155479465L376.4312980789684,49.025473554660614L385.3909552558604,44.035556963644815L394.3506124327522,42.182159372696105L399.64495531000665,42.182159372696105" stroke="#36B7B4" stroke-width="3" opacity="0.8"/></g><g class="mark-line role-mark layer_2_marks" role="graphics-object" aria-roledescription="line mark container"><path aria-label="x2: 0; y2: 0" role="graphics-symbol" aria-roledescription="line mark" d="M13.972439559249509,300.517269L22.932096736141435,300.1608465L31.891753913033373,300.1608465L40.85141108571428,300.1608465L49.81106826681723,300.1608465L58.77072544285714,299.37671700000004L67.73038262060108,299.09157899999997L76.6900398,298.8777255L85.64969697438492,298.7351565L94.60935415127686,298.521303L103.56901132816878,297.4163925L112.52866850506071,297.2595675L121.48832568195265,296.382768L130.44798285714285,296.240199L139.40764003573648,294.458085L148.36729721262842,294.4224435L157.32695438952038,293.075166L166.2866115664123,292.711614L175.24626874330423,290.772675L184.20592592019614,285.54751949999996L193.16558309708807,281.9120093096367L202.12524027397993,276.06667799999997L211.08489745087192,268.0115273775216L220.0445546277638,258.1029787182189L229.00421180465577,248.7647055L237.96386898154768,244.84405800000002L246.92352615843967,240.09175649999997L255.88318333533158,234.4365165L264.84284051222346,230.658438L273.80249768911546,227.16549585392144L282.76215486600734,223.03099350000002L291.7218120428993,219.46676700000003L300.6814692197912,216.47281744460207L309.64112639668315,213.83529000000001L318.600783573575,211.6254705L327.56044075046697,209.914641L336.5200979273589,207.633537L345.47975510425084,205.20986249999999L354.43941228114284,202.71490500000002L363.39906945803466,200.86150650000002L372.35872663492665,199.15067850000003L381.31838385714286,197.653704L390.2780409887105,197.43985049999998L397.60866958798573,197.43985049999998" stroke="#179FDB" stroke-width="3" opacity="0.8"/></g><g class="mark-line role-mark layer_3_marks" role="graphics-object" aria-roledescription="line mark container"><path aria-label="x3: 0; y3: 0" role="graphics-symbol" aria-roledescription="line mark" d="M17.230496714482932,280.9140259914336L26.190153891374862,286.545504L35.14981106826679,289.3255995L44.10946824515872,289.96716L53.069125422050654,289.96716L62.0287826,287.7573405L70.98843977583451,286.33164899999997L79.94809695714285,290.109729L88.90775412961837,292.1056965L97.8674113,291.0364275L106.8270684834022,289.396884L115.78672566029415,288.6127545L124.74638283718609,289.6107375L135.33506858571428,289.18303050000003L144.29472576858663,287.686056L152.03261151226604,286.830642L158.87244304007984,287.896254L171.89422917013135,290.489913L186.2630966239813,287.0317005L197.93780143023446,278.38616714697406L213.85424603282038,270.9128074525836L222.4880974941889,267.084828L231.44775467108082,266.3719833547593L240.40741184797275,268.5818035593519L249.3670690248647,263.16417983196345L258.3267262017566,257.1762799227445L267.2863834285714,257.0337108772869L276.2460405555405,252.61407000000003L285.2056977324324,244.6302045L294.1653549093243,237.07404451322412L303.12501208621626,231.5851365L312.0846692631082,229.16146249032778L321.04432644000013,227.52191846756548L330.00398361689207,225.6685208766168L338.963640793784,220.17961262649945L347.92329797067595,214.33428176273821L356.06844085875946,209.3760465L366.6571266132681,190.3113975L375.61678379016007,183.18294600000002L384.57644096705195,181.97110800000002L393.53609814394395,179.832573L399.23769816560235,178.6207365" stroke="#F4134D" stroke-width="3" opacity="0.8"/></g><g class="mark-text role-mark layer_4_marks" role="graphics-object" aria-roledescription="text mark container"><text aria-label="x1: 27.9751468717; y1: 0.171878560418" role="graphics-symbol" aria-roledescription="text mark" text-anchor="start" transform="translate(404.64495531000665,46.182159372696105)" font-family="Circular Std Book" font-size="13px" fill="#36B7B4">Repaid CBIL</text></g><g class="mark-text role-mark layer_5_marks" role="graphics-object" aria-roledescription="text mark container"><text aria-label="x2: 27.8326068712; y2: 0.068373433" role="graphics-symbol" aria-roledescription="text mark" text-anchor="start" transform="translate(402.60866958798573,201.43985049999998)" font-family="Circular Std Book" font-size="13px" fill="#179FDB">Repaid BBL</text></g><g class="mark-text role-mark layer_6_marks" role="graphics-object" aria-roledescription="text mark container"><text aria-label="x3: 27.9466388716; y3: 0.080919509" role="graphics-symbol" aria-roledescription="text mark" text-anchor="start" transform="translate(404.23769816560235,182.6207365)" font-family="Circular Std Book" font-size="13px" fill="#F4134D">Inflation</text></g><g class="mark-image role-mark layer_7_marks" role="graphics-object" aria-roledescription="image mark container"><image aria-label="x: 28; y: 0.2; img: https://raw.githubusercontent.com/EconomicsObservatory/ECOvisualisations/main/guidelines/logos/eco-icon-light.png" role="graphics-symbol" aria-roledescription="image mark" xlink:href="" transform="translate(360,-33)" width="40" height="40" preserveAspectRatio="xMidYMid" opacity="0.5"/></g></g><path class="foreground" aria-hidden="true" d="" display="none"/></g></g></g></svg>