<svg xmlns="http://www.w3.org/2000/svg" xmlns:xlink="http://www.w3.org/1999/xlink" version="1.1" class="marks" width="511" height="360" viewBox="0 0 511 360"><rect width="511" height="360" fill="white"/><g fill="none" stroke-miterlimit="10" transform="translate(26,38)"><g class="mark-group role-frame root" role="graphics-object" aria-roledescription="group mark container"><g transform="translate(0,0)"><path class="background" aria-hidden="true" d="M0,0h400v300h-400Z"/><g><g class="mark-group role-axis" aria-hidden="true"><g transform="translate(0.5,0.5)"><path class="background" aria-hidden="true" d="M0,0h0v0h0Z" pointer-events="none"/><g><g class="mark-rule role-axis-grid" pointer-events="none"><line transform="translate(0,300)" x2="400" y2="0" stroke="#676A86" stroke-opacity="0.5" stroke-width="1" stroke-dasharray="1,5" opacity="1"/><line transform="translate(0,270)" x2="400" y2="0" stroke="#676A86" stroke-opacity="0.5" stroke-width="1" stroke-dasharray="1,5" opacity="1"/><line transform="translate(0,240)" x2="400" y2="0" stroke="#676A86" stroke-opacity="0.5" stroke-width="1" stroke-dasharray="1,5" opacity="1"/><line transform="translate(0,210)" x2="400" y2="0" stroke="#676A86" stroke-opacity="0.5" stroke-width="1" stroke-dasharray="1,5" opacity="1"/><line transform="translate(0,180)" x2="400" y2="0" stroke="#676A86" stroke-opacity="0.5" stroke-width="1" stroke-dasharray="1,5" opacity="1"/><line transform="translate(0,150)" x2="400" y2="0" stroke="#676A86" stroke-opacity="0.5" stroke-width="1" stroke-dasharray="1,5" opacity="1"/><line transform="translate(0,120)" x2="400" y2="0" stroke="#676A86" stroke-opacity="0.5" stroke-width="1" stroke-dasharray="1,5" opacity="1"/><line transform="translate(0,90)" x2="400" y2="0" stroke="#676A86" stroke-opacity="0.5" stroke-width="1" stroke-dasharray="1,5" opacity="1"/><line transform="translate(0,60)" x2="400" y2="0" stroke="#676A86" stroke-opacity="0.5" stroke-width="1" stroke-dasharray="1,5" opacity="1"/><line transform="translate(0,30)" x2="400" y2="0" stroke="#676A86" stroke-opacity="0.5" stroke-width="1" stroke-dasharray="1,5" opacity="1"/><line transform="translate(0,0)" x2="400" y2="0" stroke="#676A86" stroke-opacity="0.5" stroke-width="1" stroke-dasharray="1,5" opacity="1"/></g></g><path class="foreground" aria-hidden="true" d="" pointer-events="none" display="none"/></g></g><g class="mark-group role-axis" role="graphics-symbol" aria-roledescription="axis" aria-label="X-axis for a linear scale with values from 1971 to 2022"><g transform="translate(0.5,300.5)"><path class="background" aria-hidden="true" d="M0,0h0v0h0Z" pointer-events="none"/><g><g class="mark-rule role-axis-tick" pointer-events="none"><line transform="translate(31,0)" x2="0" y2="5" stroke="#676A86" stroke-opacity="0.5" stroke-width="1" opacity="1"/><line transform="translate(71,0)" x2="0" y2="5" stroke="#676A86" stroke-opacity="0.5" stroke-width="1" opacity="1"/><line transform="translate(110,0)" x2="0" y2="5" stroke="#676A86" stroke-opacity="0.5" stroke-width="1" opacity="1"/><line transform="translate(149,0)" x2="0" y2="5" stroke="#676A86" stroke-opacity="0.5" stroke-width="1" opacity="1"/><line transform="translate(188,0)" x2="0" y2="5" stroke="#676A86" stroke-opacity="0.5" stroke-width="1" opacity="1"/><line transform="translate(227,0)" x2="0" y2="5" stroke="#676A86" stroke-opacity="0.5" stroke-width="1" opacity="1"/><line transform="translate(267,0)" x2="0" y2="5" stroke="#676A86" stroke-opacity="0.5" stroke-width="1" opacity="1"/><line transform="translate(306,0)" x2="0" y2="5" stroke="#676A86" stroke-opacity="0.5" stroke-width="1" opacity="1"/><line transform="translate(345,0)" x2="0" y2="5" stroke="#676A86" stroke-opacity="0.5" stroke-width="1" opacity="1"/><line transform="translate(384,0)" x2="0" y2="5" stroke="#676A86" stroke-opacity="0.5" stroke-width="1" opacity="1"/></g><g class="mark-text role-axis-label" pointer-events="none"><text text-anchor="middle" transform="translate(31.372549019607842,15)" font-family="Circular Std Book" font-size="10px" fill="#676A86" fill-opacity="0.7" opacity="1">1975</text><text text-anchor="middle" transform="translate(70.58823529411765,15)" font-family="Circular Std Book" font-size="10px" fill="#676A86" fill-opacity="0.7" opacity="1">1980</text><text text-anchor="middle" transform="translate(109.80392156862746,15)" font-family="Circular Std Book" font-size="10px" fill="#676A86" fill-opacity="0.7" opacity="1">1985</text><text text-anchor="middle" transform="translate(149.01960784313727,15)" font-family="Circular Std Book" font-size="10px" fill="#676A86" fill-opacity="0.7" opacity="1">1990</text><text text-anchor="middle" transform="translate(188.23529411764704,15)" font-family="Circular Std Book" font-size="10px" fill="#676A86" fill-opacity="0.7" opacity="1">1995</text><text text-anchor="middle" transform="translate(227.45098039215685,15)" font-family="Circular Std Book" font-size="10px" fill="#676A86" fill-opacity="0.7" opacity="1">2000</text><text text-anchor="middle" transform="translate(266.66666666666663,15)" font-family="Circular Std Book" font-size="10px" fill="#676A86" fill-opacity="0.7" opacity="1">2005</text><text text-anchor="middle" transform="translate(305.88235294117646,15)" font-family="Circular Std Book" font-size="10px" fill="#676A86" fill-opacity="0.7" opacity="1">2010</text><text text-anchor="middle" transform="translate(345.0980392156863,15)" font-family="Circular Std Book" font-size="10px" fill="#676A86" fill-opacity="0.7" opacity="1">2015</text><text text-anchor="middle" transform="translate(384.3137254901961,15)" font-family="Circular Std Book" font-size="10px" fill="#676A86" fill-opacity="0.7" opacity="1">2020</text></g><g class="mark-rule role-axis-domain" pointer-events="none"><line transform="translate(0,0)" x2="400" y2="0" stroke="#676A86" stroke-opacity="0.5" stroke-width="1" opacity="1"/></g></g><path class="foreground" aria-hidden="true" d="" pointer-events="none" display="none"/></g></g><g class="mark-group role-axis" role="graphics-symbol" aria-roledescription="axis" aria-label="Y-axis titled 'Annual GDP growth (%)' for a linear scale with values from −12 to 8"><g transform="translate(0.5,0.5)"><path class="background" aria-hidden="true" d="M0,0h0v0h0Z" pointer-events="none"/><g><g class="mark-text role-axis-label" pointer-events="none"><text text-anchor="end" transform="translate(-5,303)" font-family="Circular Std Book" font-size="10px" fill="#676A86" fill-opacity="0.7" opacity="1">−12</text><text text-anchor="end" transform="translate(-5,273)" font-family="Circular Std Book" font-size="10px" fill="#676A86" fill-opacity="0.7" opacity="1">−10</text><text text-anchor="end" transform="translate(-5,243)" font-family="Circular Std Book" font-size="10px" fill="#676A86" fill-opacity="0.7" opacity="1">−8</text><text text-anchor="end" transform="translate(-5,213)" font-family="Circular Std Book" font-size="10px" fill="#676A86" fill-opacity="0.7" opacity="1">−6</text><text text-anchor="end" transform="translate(-5,183)" font-family="Circular Std Book" font-size="10px" fill="#676A86" fill-opacity="0.7" opacity="1">−4</text><text text-anchor="end" transform="translate(-5,153)" font-family="Circular Std Book" font-size="10px" fill="#676A86" fill-opacity="0.7" opacity="1">−2</text><text text-anchor="end" transform="translate(-5,123)" font-family="Circular Std Book" font-size="10px" fill="#676A86" fill-opacity="0.7" opacity="1">0</text><text text-anchor="end" transform="translate(-5,93.00000000000001)" font-family="Circular Std Book" font-size="10px" fill="#676A86" fill-opacity="0.7" opacity="1">2</text><text text-anchor="end" transform="translate(-5,62.999999999999986)" font-family="Circular Std Book" font-size="10px" fill="#676A86" fill-opacity="0.7" opacity="1">4</text><text text-anchor="end" transform="translate(-5,32.99999999999999)" font-family="Circular Std Book" font-size="10px" fill="#676A86" fill-opacity="0.7" opacity="1">6</text><text text-anchor="end" transform="translate(-5,3)" font-family="Circular Std Book" font-size="10px" fill="#676A86" fill-opacity="0.7" opacity="1">8</text></g><g class="mark-rule role-axis-domain" pointer-events="none"><line transform="translate(0,300)" x2="0" y2="-300" stroke="#676A86" stroke-opacity="0.5" stroke-width="1" opacity="1"/></g><g class="mark-text role-axis-title" pointer-events="none"><text text-anchor="start" transform="translate(0,-10)" font-family="Circular Std Book" font-size="12px" font-weight="bold" fill="#676A86" fill-opacity="0.8" opacity="1">Annual GDP growth (%)</text></g></g><path class="foreground" aria-hidden="true" d="" pointer-events="none" display="none"/></g></g><g class="mark-line role-mark layer_0_marks" role="graphics-object" aria-roledescription="line mark container"><path aria-label="index: 1971; Euro area: 0" role="graphics-symbol" aria-roledescription="line mark" d="M0,120L400,120" stroke="#676A86" stroke-width="1" opacity="0.3"/></g><g class="mark-line role-mark layer_1_marks" role="graphics-object" aria-roledescription="line mark container"><path aria-label="index: 1971; Euro area: 3.77288978001" role="graphics-symbol" aria-roledescription="line mark" d="M0,63.407L7.843,46.631L15.686,27.726L23.529,71.794L31.373,131.586L39.216,44.595L47.059,73.713L54.902,73.145L62.745,61.898L70.588,87.61L78.431,112.141L86.275,109.309L94.118,99.148L101.961,84.319L109.804,85.307L117.647,82.387L125.49,81.996L133.333,55.411L141.176,58.506L149.02,65.942L156.863,79.839L164.706,98.735L172.549,129.922L180.392,83.097L188.235,83.695L196.078,94.643L203.922,79.383L211.765,74.455L219.608,75.526L227.451,62.023L235.294,87.064L243.137,105.895L250.98,109.767L258.824,85.591L266.667,94.778L274.51,71.537L282.353,74.975L290.196,113.75L298.039,187.817L305.882,87.29L313.725,94.287L321.569,132.627L329.412,123.295L337.255,98.961L345.098,89.256L352.941,92.04L360.784,80.733L368.627,93.25L376.471,96.24L384.314,211.986L392.157,39.2L400,67.794" stroke="#0063AF" stroke-width="2"/></g><g class="mark-text role-mark layer_2_marks" role="graphics-object" aria-roledescription="text mark container"><text aria-label="index: 2022; Euro area: 3.48041902879" role="graphics-symbol" aria-roledescription="text mark" text-anchor="start" transform="translate(405,70.79371456820995)" font-family="Circular Std Book" font-size="11px" fill="#0063AF">Euro area</text></g><g class="mark-line role-mark layer_3_marks" role="graphics-object" aria-roledescription="line mark container"><path aria-label="index: 1971; United Kingdom: 3.50471742557" role="graphics-symbol" aria-roledescription="line mark" d="M0,67.429L7.843,55.175L15.686,22.142L23.529,157.266L31.373,142.105L39.216,76.346L47.059,83.134L54.902,56.936L62.745,63.765L70.588,150.471L78.431,131.816L86.275,90.077L94.118,56.672L101.961,85.963L109.804,57.789L117.647,72.745L125.49,39.109L133.333,34.014L141.176,81.336L149.02,108.994L156.863,136.547L164.706,113.984L172.549,82.653L180.392,62.31L188.235,82.025L196.078,91.384L203.922,52.139L211.765,72.641L219.608,74.789L227.451,58.61L235.294,87.639L243.137,93.439L250.98,73.154L258.824,84.825L266.667,79.975L274.51,87.594L282.353,81.548L290.196,122.315L298.039,187.657L305.882,83.549L313.725,103.986L321.569,98.273L329.412,92.702L337.255,72.004L345.098,84.103L352.941,87.522L360.784,83.346L368.627,94.425L376.471,95.935L384.314,285.463L392.157,6.038L400,58.476" stroke="#36B7B4" stroke-width="2"/></g><g class="mark-text role-mark layer_4_marks" role="graphics-object" aria-roledescription="text mark container"><text aria-label="index: 2022; United Kingdom: 4.10162138081" role="graphics-symbol" aria-roledescription="text mark" text-anchor="start" transform="translate(405,56.47567928779627)" font-family="Circular Std Book" font-size="11px" fill="#36B7B4">United Kingdom</text></g><g class="mark-line role-mark layer_5_marks" role="graphics-object" aria-roledescription="line mark container"><path aria-label="index: 1971; United States: 3.29335163922" role="graphics-symbol" aria-roledescription="line mark" d="M0,70.6L7.843,41.116L15.686,35.314L23.529,128.108L31.373,123.082L39.216,39.178L47.059,50.638L54.902,36.97L62.745,72.508L70.588,123.851L78.431,81.934L86.275,147.043L94.118,51.241L101.961,11.451L109.804,57.455L117.647,68.06L125.49,68.111L133.333,57.344L141.176,64.91L149.02,91.711L156.863,121.624L164.706,67.163L172.549,78.723L180.392,59.568L188.235,79.737L196.078,63.412L203.922,53.292L211.765,52.779L219.608,48.083L227.451,58.843L235.294,105.685L243.137,94.561L250.98,78.057L258.824,62.212L266.667,67.752L274.51,78.258L282.353,89.842L290.196,118.167L298.039,158.998L305.882,79.367L313.725,96.752L321.569,85.79L329.412,92.372L337.255,85.683L345.098,79.404L352.941,94.988L360.784,86.371L368.627,75.819L376.471,85.583L384.314,161.517L392.157,30.818L400,89.076" stroke="#E54753" stroke-width="2"/></g><g class="mark-text role-mark layer_6_marks" role="graphics-object" aria-roledescription="text mark container"><text aria-label="index: 2022; United States: 2.06159311851" role="graphics-symbol" aria-roledescription="text mark" text-anchor="start" transform="translate(405,92.07610322228514)" font-family="Circular Std Book" font-size="11px" fill="#E54753">United States</text></g><g class="mark-image role-mark layer_7_marks" role="graphics-object" aria-roledescription="image mark container"><image aria-label="Date: 2022; Index: 8; img: https://raw.githubusercontent.com/EconomicsObservatory/ECOvisualisations/main/guidelines/logos/eco-icon-dark.png" role="graphics-symbol" aria-roledescription="image mark" xlink:href="https://raw.githubusercontent.com/EconomicsObservatory/ECOvisualisations/main/guidelines/logos/eco-icon-dark.png" transform="translate(360,-33)" width="40" height="40" preserveAspectRatio="xMidYMid" opacity="0.5"/></g></g><path class="foreground" aria-hidden="true" d="" display="none"/></g></g></g></svg>