<svg xmlns="http://www.w3.org/2000/svg" xmlns:xlink="http://www.w3.org/1999/xlink" version="1.1" class="marks" width="432" height="347" viewBox="0 0 432 347"><rect width="432" height="347" fill="white"/><g fill="none" stroke-miterlimit="10" transform="translate(25,25)"><g class="mark-group role-frame root" role="graphics-object" aria-roledescription="group mark container"><g transform="translate(0,0)"><path class="background" aria-hidden="true" d="M0,0h400v300h-400Z"/><g><g class="mark-group role-axis" aria-hidden="true"><g transform="translate(0.5,0.5)"><path class="background" aria-hidden="true" d="M0,0h0v0h0Z" pointer-events="none"/><g><g class="mark-rule role-axis-grid" pointer-events="none"><line transform="translate(0,300)" x2="400" y2="0" stroke="#676A86" stroke-opacity="0.5" stroke-width="1" stroke-dasharray="1,5" opacity="1"/><line transform="translate(0,270)" x2="400" y2="0" stroke="#676A86" stroke-opacity="0.5" stroke-width="1" stroke-dasharray="1,5" opacity="1"/><line transform="translate(0,240)" x2="400" y2="0" stroke="#676A86" stroke-opacity="0.5" stroke-width="1" stroke-dasharray="1,5" opacity="1"/><line transform="translate(0,210)" x2="400" y2="0" stroke="#676A86" stroke-opacity="0.5" stroke-width="1" stroke-dasharray="1,5" opacity="1"/><line transform="translate(0,180)" x2="400" y2="0" stroke="#676A86" stroke-opacity="0.5" stroke-width="1" stroke-dasharray="1,5" opacity="1"/><line transform="translate(0,150)" x2="400" y2="0" stroke="#676A86" stroke-opacity="0.5" stroke-width="1" stroke-dasharray="1,5" opacity="1"/><line transform="translate(0,120)" x2="400" y2="0" stroke="#676A86" stroke-opacity="0.5" stroke-width="1" stroke-dasharray="1,5" opacity="1"/><line transform="translate(0,90)" x2="400" y2="0" stroke="#676A86" stroke-opacity="0.5" stroke-width="1" stroke-dasharray="1,5" opacity="1"/><line transform="translate(0,60)" x2="400" y2="0" stroke="#676A86" stroke-opacity="0.5" stroke-width="1" stroke-dasharray="1,5" opacity="1"/><line transform="translate(0,30)" x2="400" y2="0" stroke="#676A86" stroke-opacity="0.5" stroke-width="1" stroke-dasharray="1,5" opacity="1"/><line transform="translate(0,0)" x2="400" y2="0" stroke="#676A86" stroke-opacity="0.5" stroke-width="1" stroke-dasharray="1,5" opacity="1"/></g></g><path class="foreground" aria-hidden="true" d="" pointer-events="none" display="none"/></g></g><g class="mark-group role-axis" role="graphics-symbol" aria-roledescription="axis" aria-label="X-axis for a linear scale with values from 1972 to 2023"><g transform="translate(0.5,300.5)"><path class="background" aria-hidden="true" d="M0,0h0v0h0Z" pointer-events="none"/><g><g class="mark-rule role-axis-tick" pointer-events="none"><line transform="translate(24,0)" x2="0" y2="5" stroke="#676A86" stroke-opacity="0.5" stroke-width="1" opacity="1"/><line transform="translate(63,0)" x2="0" y2="5" stroke="#676A86" stroke-opacity="0.5" stroke-width="1" opacity="1"/><line transform="translate(102,0)" x2="0" y2="5" stroke="#676A86" stroke-opacity="0.5" stroke-width="1" opacity="1"/><line transform="translate(141,0)" x2="0" y2="5" stroke="#676A86" stroke-opacity="0.5" stroke-width="1" opacity="1"/><line transform="translate(180,0)" x2="0" y2="5" stroke="#676A86" stroke-opacity="0.5" stroke-width="1" opacity="1"/><line transform="translate(220,0)" x2="0" y2="5" stroke="#676A86" stroke-opacity="0.5" stroke-width="1" opacity="1"/><line transform="translate(259,0)" x2="0" y2="5" stroke="#676A86" stroke-opacity="0.5" stroke-width="1" opacity="1"/><line transform="translate(298,0)" x2="0" y2="5" stroke="#676A86" stroke-opacity="0.5" stroke-width="1" opacity="1"/><line transform="translate(337,0)" x2="0" y2="5" stroke="#676A86" stroke-opacity="0.5" stroke-width="1" opacity="1"/><line transform="translate(376,0)" x2="0" y2="5" stroke="#676A86" stroke-opacity="0.5" stroke-width="1" opacity="1"/></g><g class="mark-text role-axis-label" pointer-events="none"><text text-anchor="middle" transform="translate(23.52941176470588,15)" font-family="Circular Std Book" font-size="10px" fill="#676A86" fill-opacity="0.7" opacity="1">1975</text><text text-anchor="middle" transform="translate(62.745098039215684,15)" font-family="Circular Std Book" font-size="10px" fill="#676A86" fill-opacity="0.7" opacity="1">1980</text><text text-anchor="middle" transform="translate(101.96078431372548,15)" font-family="Circular Std Book" font-size="10px" fill="#676A86" fill-opacity="0.7" opacity="1">1985</text><text text-anchor="middle" transform="translate(141.1764705882353,15)" font-family="Circular Std Book" font-size="10px" fill="#676A86" fill-opacity="0.7" opacity="1">1990</text><text text-anchor="middle" transform="translate(180.3921568627451,15)" font-family="Circular Std Book" font-size="10px" fill="#676A86" fill-opacity="0.7" opacity="1">1995</text><text text-anchor="middle" transform="translate(219.60784313725492,15)" font-family="Circular Std Book" font-size="10px" fill="#676A86" fill-opacity="0.7" opacity="1">2000</text><text text-anchor="middle" transform="translate(258.8235294117647,15)" font-family="Circular Std Book" font-size="10px" fill="#676A86" fill-opacity="0.7" opacity="1">2005</text><text text-anchor="middle" transform="translate(298.03921568627453,15)" font-family="Circular Std Book" font-size="10px" fill="#676A86" fill-opacity="0.7" opacity="1">2010</text><text text-anchor="middle" transform="translate(337.2549019607843,15)" font-family="Circular Std Book" font-size="10px" fill="#676A86" fill-opacity="0.7" opacity="1">2015</text><text text-anchor="middle" transform="translate(376.4705882352941,15)" font-family="Circular Std Book" font-size="10px" fill="#676A86" fill-opacity="0.7" opacity="1">2020</text></g><g class="mark-rule role-axis-domain" pointer-events="none"><line transform="translate(0,0)" x2="400" y2="0" stroke="#676A86" stroke-opacity="0.5" stroke-width="1" opacity="1"/></g></g><path class="foreground" aria-hidden="true" d="" pointer-events="none" display="none"/></g></g><g class="mark-group role-axis" role="graphics-symbol" aria-roledescription="axis" aria-label="Y-axis titled 'UK public sector net debt/GDP (%)' for a linear scale with values from 0 to 100"><g transform="translate(0.5,0.5)"><path class="background" aria-hidden="true" d="M0,0h0v0h0Z" pointer-events="none"/><g><g class="mark-text role-axis-label" pointer-events="none"><text text-anchor="end" transform="translate(-5,303)" font-family="Circular Std Book" font-size="10px" fill="#676A86" fill-opacity="0.7" opacity="1">0</text><text text-anchor="end" transform="translate(-5,273)" font-family="Circular Std Book" font-size="10px" fill="#676A86" fill-opacity="0.7" opacity="1">10</text><text text-anchor="end" transform="translate(-5,243)" font-family="Circular Std Book" font-size="10px" fill="#676A86" fill-opacity="0.7" opacity="1">20</text><text text-anchor="end" transform="translate(-5,213)" font-family="Circular Std Book" font-size="10px" fill="#676A86" fill-opacity="0.7" opacity="1">30</text><text text-anchor="end" transform="translate(-5,183)" font-family="Circular Std Book" font-size="10px" fill="#676A86" fill-opacity="0.7" opacity="1">40</text><text text-anchor="end" transform="translate(-5,153)" font-family="Circular Std Book" font-size="10px" fill="#676A86" fill-opacity="0.7" opacity="1">50</text><text text-anchor="end" transform="translate(-5,123)" font-family="Circular Std Book" font-size="10px" fill="#676A86" fill-opacity="0.7" opacity="1">60</text><text text-anchor="end" transform="translate(-5,93.00000000000001)" font-family="Circular Std Book" font-size="10px" fill="#676A86" fill-opacity="0.7" opacity="1">70</text><text text-anchor="end" transform="translate(-5,62.999999999999986)" font-family="Circular Std Book" font-size="10px" fill="#676A86" fill-opacity="0.7" opacity="1">80</text><text text-anchor="end" transform="translate(-5,32.99999999999999)" font-family="Circular Std Book" font-size="10px" fill="#676A86" fill-opacity="0.7" opacity="1">90</text><text text-anchor="end" transform="translate(-5,3)" font-family="Circular Std Book" font-size="10px" fill="#676A86" fill-opacity="0.7" opacity="1">100</text></g><g class="mark-rule role-axis-domain" pointer-events="none"><line transform="translate(0,300)" x2="0" y2="-300" stroke="#676A86" stroke-opacity="0.5" stroke-width="1" opacity="1"/></g><g class="mark-text role-axis-title" pointer-events="none"><text text-anchor="start" transform="translate(0,-10)" font-family="Circular Std Book" font-size="12px" font-weight="bold" fill="#676A86" fill-opacity="0.8" opacity="1">UK public sector net debt/GDP (%)</text></g></g><path class="foreground" aria-hidden="true" d="" pointer-events="none" display="none"/></g></g><g class="mark-line role-mark layer_0_marks" role="graphics-object" aria-roledescription="line mark container"><path aria-label="year: 1972; debt: 0" role="graphics-symbol" aria-roledescription="line mark" d="M0,300L376.471,300" stroke="#676A86" stroke-width="1" opacity="0.3"/></g><g class="mark-area role-mark layer_1_layer_0_marks" role="graphics-object" aria-roledescription="area mark container"><path aria-label="year: 1972; debt: 52.6" role="graphics-symbol" aria-roledescription="area mark" d="M0,142.2C2.614,149.8,5.229,157.4,7.843,160.2C10.458,163,13.072,164.4,15.686,164.4C18.301,164.4,20.915,158.95,23.529,156.9C26.144,154.85,28.758,152.1,31.373,152.1C33.987,152.1,36.601,154.1,39.216,156.6C41.83,159.1,44.444,164.3,47.059,167.1C49.673,169.9,52.288,170.8,54.902,173.4C57.516,176,60.131,182.7,62.745,182.7C65.359,182.7,67.974,179.1,70.588,179.1C73.203,179.1,75.817,179.4,78.431,180C81.046,180.6,83.66,183.9,86.275,183.9C88.889,183.9,91.503,183.6,94.118,183.6C96.732,183.6,99.346,183.7,101.961,183.9C104.575,184.1,107.19,186.75,109.804,188.7C112.418,190.65,115.033,192.5,117.647,195.6C120.261,198.7,122.876,202.7,125.49,207.3C128.105,211.9,130.719,219.25,133.333,223.2C135.948,227.15,138.562,229.05,141.176,231C143.791,232.95,146.405,234.9,149.02,234.9C151.634,234.9,154.248,233.8,156.863,231.6C159.477,229.4,162.092,224.35,164.706,220.2C167.32,216.05,169.935,210.65,172.549,206.7C175.163,202.75,177.778,198.95,180.392,196.5C183.007,194.05,185.621,193.05,188.235,192C190.85,190.95,193.464,190.2,196.078,190.2C198.693,190.2,201.307,190.2,203.922,190.2C206.536,190.2,209.15,192.35,211.765,194.4C214.379,196.45,216.993,199.05,219.608,202.5C222.222,205.95,224.837,214.7,227.451,215.1C230.065,215.5,232.68,215.7,235.294,215.7C237.908,215.7,240.523,212.3,243.137,210.9C245.752,209.5,248.366,209.15,250.98,207.3C253.595,205.45,256.209,201.5,258.824,199.8C261.438,198.1,264.052,197.95,266.667,197.1C269.281,196.25,271.895,195.35,274.51,194.7C277.124,194.05,279.739,194.2,282.353,193.2C284.967,192.2,287.582,162.95,290.196,148.5C292.81,134.05,295.425,116.65,298.039,106.5C300.654,96.35,303.268,92.45,305.882,87.6C308.497,82.75,311.111,80.75,313.725,77.4C316.34,74.05,318.954,70,321.569,67.5C324.183,65,326.797,64.4,329.412,62.4C332.026,60.4,334.641,55.5,337.255,55.5C339.869,55.5,342.484,56.7,345.098,56.7C347.712,56.7,350.327,50.4,352.941,50.4C355.556,50.4,358.17,52.2,360.784,53.7C363.399,55.2,366.013,59.4,368.627,59.4C371.242,59.4,373.856,54.05,376.471,45.6C379.085,37.15,381.699,9.1,384.314,8.7C386.928,8.3,389.542,8.5,392.157,8.1C394.771,7.7,397.386,5.05,400,2.4L400,300C397.386,300,394.771,300,392.157,300C389.542,300,386.928,300,384.314,300C381.699,300,379.085,300,376.471,300C373.856,300,371.242,300,368.627,300C366.013,300,363.399,300,360.784,300C358.17,300,355.556,300,352.941,300C350.327,300,347.712,300,345.098,300C342.484,300,339.869,300,337.255,300C334.641,300,332.026,300,329.412,300C326.797,300,324.183,300,321.569,300C318.954,300,316.34,300,313.725,300C311.111,300,308.497,300,305.882,300C303.268,300,300.654,300,298.039,300C295.425,300,292.81,300,290.196,300C287.582,300,284.967,300,282.353,300C279.739,300,277.124,300,274.51,300C271.895,300,269.281,300,266.667,300C264.052,300,261.438,300,258.824,300C256.209,300,253.595,300,250.98,300C248.366,300,245.752,300,243.137,300C240.523,300,237.908,300,235.294,300C232.68,300,230.065,300,227.451,300C224.837,300,222.222,300,219.608,300C216.993,300,214.379,300,211.765,300C209.15,300,206.536,300,203.922,300C201.307,300,198.693,300,196.078,300C193.464,300,190.85,300,188.235,300C185.621,300,183.007,300,180.392,300C177.778,300,175.163,300,172.549,300C169.935,300,167.32,300,164.706,300C162.092,300,159.477,300,156.863,300C154.248,300,151.634,300,149.02,300C146.405,300,143.791,300,141.176,300C138.562,300,135.948,300,133.333,300C130.719,300,128.105,300,125.49,300C122.876,300,120.261,300,117.647,300C115.033,300,112.418,300,109.804,300C107.19,300,104.575,300,101.961,300C99.346,300,96.732,300,94.118,300C91.503,300,88.889,300,86.275,300C83.66,300,81.046,300,78.431,300C75.817,300,73.203,300,70.588,300C67.974,300,65.359,300,62.745,300C60.131,300,57.516,300,54.902,300C52.288,300,49.673,300,47.059,300C44.444,300,41.83,300,39.216,300C36.601,300,33.987,300,31.373,300C28.758,300,26.144,300,23.529,300C20.915,300,18.301,300,15.686,300C13.072,300,10.458,300,7.843,300C5.229,300,2.614,300,0,300Z" fill="url(#gradient_22)" opacity="1"/></g><g class="mark-line role-mark layer_1_layer_1_marks" role="graphics-object" aria-roledescription="line mark container"><path aria-label="year: 1972; debt: 52.6" role="graphics-symbol" aria-roledescription="line mark" d="M0,142.2C2.614,149.8,5.229,157.4,7.843,160.2C10.458,163,13.072,164.4,15.686,164.4C18.301,164.4,20.915,158.95,23.529,156.9C26.144,154.85,28.758,152.1,31.373,152.1C33.987,152.1,36.601,154.1,39.216,156.6C41.83,159.1,44.444,164.3,47.059,167.1C49.673,169.9,52.288,170.8,54.902,173.4C57.516,176,60.131,182.7,62.745,182.7C65.359,182.7,67.974,179.1,70.588,179.1C73.203,179.1,75.817,179.4,78.431,180C81.046,180.6,83.66,183.9,86.275,183.9C88.889,183.9,91.503,183.6,94.118,183.6C96.732,183.6,99.346,183.7,101.961,183.9C104.575,184.1,107.19,186.75,109.804,188.7C112.418,190.65,115.033,192.5,117.647,195.6C120.261,198.7,122.876,202.7,125.49,207.3C128.105,211.9,130.719,219.25,133.333,223.2C135.948,227.15,138.562,229.05,141.176,231C143.791,232.95,146.405,234.9,149.02,234.9C151.634,234.9,154.248,233.8,156.863,231.6C159.477,229.4,162.092,224.35,164.706,220.2C167.32,216.05,169.935,210.65,172.549,206.7C175.163,202.75,177.778,198.95,180.392,196.5C183.007,194.05,185.621,193.05,188.235,192C190.85,190.95,193.464,190.2,196.078,190.2C198.693,190.2,201.307,190.2,203.922,190.2C206.536,190.2,209.15,192.35,211.765,194.4C214.379,196.45,216.993,199.05,219.608,202.5C222.222,205.95,224.837,214.7,227.451,215.1C230.065,215.5,232.68,215.7,235.294,215.7C237.908,215.7,240.523,212.3,243.137,210.9C245.752,209.5,248.366,209.15,250.98,207.3C253.595,205.45,256.209,201.5,258.824,199.8C261.438,198.1,264.052,197.95,266.667,197.1C269.281,196.25,271.895,195.35,274.51,194.7C277.124,194.05,279.739,194.2,282.353,193.2C284.967,192.2,287.582,162.95,290.196,148.5C292.81,134.05,295.425,116.65,298.039,106.5C300.654,96.35,303.268,92.45,305.882,87.6C308.497,82.75,311.111,80.75,313.725,77.4C316.34,74.05,318.954,70,321.569,67.5C324.183,65,326.797,64.4,329.412,62.4C332.026,60.4,334.641,55.5,337.255,55.5C339.869,55.5,342.484,56.7,345.098,56.7C347.712,56.7,350.327,50.4,352.941,50.4C355.556,50.4,358.17,52.2,360.784,53.7C363.399,55.2,366.013,59.4,368.627,59.4C371.242,59.4,373.856,54.05,376.471,45.6C379.085,37.15,381.699,9.1,384.314,8.7C386.928,8.3,389.542,8.5,392.157,8.1C394.771,7.7,397.386,5.05,400,2.4" stroke="#36B7B4" stroke-width="2"/></g></g><path class="foreground" aria-hidden="true" d="" display="none"/></g></g></g><defs><linearGradient id="gradient_22" x1="1" x2="1" y1="1" y2="0"><stop offset="0.2" stop-color="#ffffff00"/><stop offset="0.8" stop-color="#36B7B4"/></linearGradient></defs></svg>