<svg xmlns="http://www.w3.org/2000/svg" xmlns:xlink="http://www.w3.org/1999/xlink" version="1.1" class="marks" width="427" height="347" viewBox="0 0 427 347"><rect width="427" height="347" fill="white"/><g fill="none" stroke-miterlimit="10" transform="translate(20,25)"><g class="mark-group role-frame root" role="graphics-object" aria-roledescription="group mark container"><g transform="translate(0,0)"><path class="background" aria-hidden="true" d="M0,0h400v300h-400Z"/><g><g class="mark-group role-axis" aria-hidden="true"><g transform="translate(0.5,0.5)"><path class="background" aria-hidden="true" d="M0,0h0v0h0Z" pointer-events="none"/><g><g class="mark-rule role-axis-grid" pointer-events="none"><line transform="translate(0,300)" x2="400" y2="0" stroke="#676A86" stroke-opacity="0.5" stroke-width="1" stroke-dasharray="1,5" opacity="1"/><line transform="translate(0,267)" x2="400" y2="0" stroke="#676A86" stroke-opacity="0.5" stroke-width="1" stroke-dasharray="1,5" opacity="1"/><line transform="translate(0,233)" x2="400" y2="0" stroke="#676A86" stroke-opacity="0.5" stroke-width="1" stroke-dasharray="1,5" opacity="1"/><line transform="translate(0,200)" x2="400" y2="0" stroke="#676A86" stroke-opacity="0.5" stroke-width="1" stroke-dasharray="1,5" opacity="1"/><line transform="translate(0,167)" x2="400" y2="0" stroke="#676A86" stroke-opacity="0.5" stroke-width="1" stroke-dasharray="1,5" opacity="1"/><line transform="translate(0,133)" x2="400" y2="0" stroke="#676A86" stroke-opacity="0.5" stroke-width="1" stroke-dasharray="1,5" opacity="1"/><line transform="translate(0,100)" x2="400" y2="0" stroke="#676A86" stroke-opacity="0.5" stroke-width="1" stroke-dasharray="1,5" opacity="1"/><line transform="translate(0,67)" x2="400" y2="0" stroke="#676A86" stroke-opacity="0.5" stroke-width="1" stroke-dasharray="1,5" opacity="1"/><line transform="translate(0,33)" x2="400" y2="0" stroke="#676A86" stroke-opacity="0.5" stroke-width="1" stroke-dasharray="1,5" opacity="1"/><line transform="translate(0,0)" x2="400" y2="0" stroke="#676A86" stroke-opacity="0.5" stroke-width="1" stroke-dasharray="1,5" opacity="1"/></g></g><path class="foreground" aria-hidden="true" d="" pointer-events="none" display="none"/></g></g><g class="mark-group role-axis" role="graphics-symbol" aria-roledescription="axis" aria-label="X-axis for a time scale with values from Friday, 01 January 1971, 12:00:00 AM to Thursday, 22 June 2023, 12:00:00 AM"><g transform="translate(0.5,300.5)"><path class="background" aria-hidden="true" d="M0,0h0v0h0Z" pointer-events="none"/><g><g class="mark-rule role-axis-tick" pointer-events="none"><line transform="translate(30,0)" x2="0" y2="5" stroke="#676A86" stroke-opacity="0.5" stroke-width="1" opacity="1"/><line transform="translate(69,0)" x2="0" y2="5" stroke="#676A86" stroke-opacity="0.5" stroke-width="1" opacity="1"/><line transform="translate(107,0)" x2="0" y2="5" stroke="#676A86" stroke-opacity="0.5" stroke-width="1" opacity="1"/><line transform="translate(145,0)" x2="0" y2="5" stroke="#676A86" stroke-opacity="0.5" stroke-width="1" opacity="1"/><line transform="translate(183,0)" x2="0" y2="5" stroke="#676A86" stroke-opacity="0.5" stroke-width="1" opacity="1"/><line transform="translate(221,0)" x2="0" y2="5" stroke="#676A86" stroke-opacity="0.5" stroke-width="1" opacity="1"/><line transform="translate(259,0)" x2="0" y2="5" stroke="#676A86" stroke-opacity="0.5" stroke-width="1" opacity="1"/><line transform="translate(297,0)" x2="0" y2="5" stroke="#676A86" stroke-opacity="0.5" stroke-width="1" opacity="1"/><line transform="translate(335,0)" x2="0" y2="5" stroke="#676A86" stroke-opacity="0.5" stroke-width="1" opacity="1"/><line transform="translate(374,0)" x2="0" y2="5" stroke="#676A86" stroke-opacity="0.5" stroke-width="1" opacity="1"/></g><g class="mark-text role-axis-label" pointer-events="none"><text text-anchor="middle" transform="translate(30.493086355335247,15)" font-family="Circular Std Book" font-size="10px" fill="#676A86" fill-opacity="0.7" opacity="1">1975</text><text text-anchor="middle" transform="translate(68.6042264544743,15)" font-family="Circular Std Book" font-size="10px" fill="#676A86" fill-opacity="0.7" opacity="1">1980</text><text text-anchor="middle" transform="translate(106.73623793373336,15)" font-family="Circular Std Book" font-size="10px" fill="#676A86" fill-opacity="0.7" opacity="1">1985</text><text text-anchor="middle" transform="translate(144.84737803287243,15)" font-family="Circular Std Book" font-size="10px" fill="#676A86" fill-opacity="0.7" opacity="1">1990</text><text text-anchor="middle" transform="translate(182.95851813201148,15)" font-family="Circular Std Book" font-size="10px" fill="#676A86" fill-opacity="0.7" opacity="1">1995</text><text text-anchor="middle" transform="translate(221.06965823115053,15)" font-family="Circular Std Book" font-size="10px" fill="#676A86" fill-opacity="0.7" opacity="1">2000</text><text text-anchor="middle" transform="translate(259.2016697104096,15)" font-family="Circular Std Book" font-size="10px" fill="#676A86" fill-opacity="0.7" opacity="1">2005</text><text text-anchor="middle" transform="translate(297.31280980954864,15)" font-family="Circular Std Book" font-size="10px" fill="#676A86" fill-opacity="0.7" opacity="1">2010</text><text text-anchor="middle" transform="translate(335.4239499086877,15)" font-family="Circular Std Book" font-size="10px" fill="#676A86" fill-opacity="0.7" opacity="1">2015</text><text text-anchor="middle" transform="translate(373.5350900078268,15)" font-family="Circular Std Book" font-size="10px" fill="#676A86" fill-opacity="0.7" opacity="1">2020</text></g><g class="mark-rule role-axis-domain" pointer-events="none"><line transform="translate(0,0)" x2="400" y2="0" stroke="#676A86" stroke-opacity="0.5" stroke-width="1" opacity="1"/></g></g><path class="foreground" aria-hidden="true" d="" pointer-events="none" display="none"/></g></g><g class="mark-group role-axis" role="graphics-symbol" aria-roledescription="axis" aria-label="Y-axis titled 'Bank of England interest rates (%)' for a linear scale with values from 0 to 18"><g transform="translate(0.5,0.5)"><path class="background" aria-hidden="true" d="M0,0h0v0h0Z" pointer-events="none"/><g><g class="mark-text role-axis-label" pointer-events="none"><text text-anchor="end" transform="translate(-5,303)" font-family="Circular Std Book" font-size="10px" fill="#676A86" fill-opacity="0.7" opacity="1">0</text><text text-anchor="end" transform="translate(-5,269.66666666666663)" font-family="Circular Std Book" font-size="10px" fill="#676A86" fill-opacity="0.7" opacity="1">2</text><text text-anchor="end" transform="translate(-5,236.33333333333334)" font-family="Circular Std Book" font-size="10px" fill="#676A86" fill-opacity="0.7" opacity="1">4</text><text text-anchor="end" transform="translate(-5,203.00000000000003)" font-family="Circular Std Book" font-size="10px" fill="#676A86" fill-opacity="0.7" opacity="1">6</text><text text-anchor="end" transform="translate(-5,169.66666666666669)" font-family="Circular Std Book" font-size="10px" fill="#676A86" fill-opacity="0.7" opacity="1">8</text><text text-anchor="end" transform="translate(-5,136.33333333333331)" font-family="Circular Std Book" font-size="10px" fill="#676A86" fill-opacity="0.7" opacity="1">10</text><text text-anchor="end" transform="translate(-5,103.00000000000001)" font-family="Circular Std Book" font-size="10px" fill="#676A86" fill-opacity="0.7" opacity="1">12</text><text text-anchor="end" transform="translate(-5,69.66666666666666)" font-family="Circular Std Book" font-size="10px" fill="#676A86" fill-opacity="0.7" opacity="1">14</text><text text-anchor="end" transform="translate(-5,36.33333333333335)" font-family="Circular Std Book" font-size="10px" fill="#676A86" fill-opacity="0.7" opacity="1">16</text><text text-anchor="end" transform="translate(-5,3)" font-family="Circular Std Book" font-size="10px" fill="#676A86" fill-opacity="0.7" opacity="1">18</text></g><g class="mark-rule role-axis-domain" pointer-events="none"><line transform="translate(0,300)" x2="0" y2="-300" stroke="#676A86" stroke-opacity="0.5" stroke-width="1" opacity="1"/></g><g class="mark-text role-axis-title" pointer-events="none"><text text-anchor="start" transform="translate(0,-10)" font-family="Circular Std Book" font-size="12px" font-weight="bold" fill="#676A86" fill-opacity="0.8" opacity="1">Bank of England interest rates (%)</text></g></g><path class="foreground" aria-hidden="true" d="" pointer-events="none" display="none"/></g></g><g class="mark-line role-mark layer_0_marks" role="graphics-object" aria-roledescription="line mark container"><path aria-label="Date: Jan 01, 1971; Base rate: 0" role="graphics-symbol" aria-roledescription="line mark" d="M0,300L0,300" stroke="#676A86" stroke-width="1" opacity="0.3"/></g><g class="mark-area role-mark layer_1_layer_0_marks" role="graphics-object" aria-roledescription="area mark container"><path aria-label="Date: Jan 01, 1971; Base rate: 7" role="graphics-symbol" aria-roledescription="area mark" d="M0,183.333L0.939,183.333L0.939,200L3.486,200L3.486,216.667L8.161,216.667L8.161,200L12.439,200L12.439,179.167L13.796,179.167L13.796,175L14.307,175L14.307,170.833L14.746,170.833L14.746,166.667L14.986,166.667L14.986,150L15.424,150L15.424,154.167L16.353,154.167L16.353,158.333L17.229,158.333L17.229,166.667L17.532,166.667L17.532,162.5L17.824,162.5L17.824,166.667L18.106,166.667L18.106,170.833L18.544,170.833L18.544,175L19.202,175L19.202,150L19.567,150L19.567,108.333L20.517,108.333L20.517,112.5L21.623,112.5L21.623,83.333L22.426,83.333L22.426,87.5L23.292,87.5L23.292,91.667L24.242,91.667L24.242,95.833L24.983,95.833L24.983,100L25.505,100L25.505,104.167L27.175,104.167L27.175,108.333L29.648,108.333L29.648,112.5L30.963,112.5L30.963,116.667L31.182,116.667L31.182,120.833L31.401,120.833L31.401,125L31.693,125L31.693,129.167L32.058,129.167L32.058,133.333L32.497,133.333L32.497,137.5L32.935,137.5L32.935,133.333L33.958,133.333L33.958,116.667L35.565,116.667L35.565,100L36.734,100L36.734,104.167L37.318,104.167L37.318,108.333L37.756,108.333L37.756,112.5L38.122,112.5L38.122,116.667L38.341,116.667L38.341,120.833L38.56,120.833L38.56,125L38.706,125L38.706,133.333L38.852,133.333L38.852,141.667L39.144,141.667L39.144,145.833L39.436,145.833L39.436,150L40.021,150L40.021,125L40.824,125L40.824,108.333L42.285,108.333L42.285,83.333L43.705,83.333L43.705,50L44.435,50L44.435,54.167L45.207,54.167L45.207,58.333L45.594,58.333L45.594,62.5L45.813,62.5L45.813,66.667L46.084,66.667L46.084,79.167L46.303,79.167L46.303,95.833L46.408,95.833L46.408,100L46.804,100L46.804,116.667L47.284,116.667L47.284,125L47.503,125L47.503,141.667L47.733,141.667L47.733,145.833L47.921,145.833L47.921,150L48.056,150L48.056,154.167L48.202,154.167L48.202,162.5L48.422,162.5L48.422,166.667L49.444,166.667L49.444,175L50.394,175L50.394,183.333L50.759,183.333L50.759,191.667L51.124,191.667L51.124,200L51.417,200L51.417,208.333L51.709,208.333L51.709,216.667L52.22,216.667L52.22,183.333L53.097,183.333L53.097,191.667L54.506,191.667L54.506,175L55.747,175L55.747,154.167L56.092,154.167L56.092,150L56.415,150L56.415,133.333L58.273,133.333L58.273,91.667L60.83,91.667L60.83,66.667L61.998,66.667L61.998,83.333L62.583,83.333L62.583,100L63.668,100L63.668,66.667L66.006,66.667L66.006,16.667L70.034,16.667L70.034,33.333L73.958,33.333L73.958,66.667L76.577,66.667L76.577,100L79.426,100L79.426,88.542L81.388,88.542L81.388,66.667L81.889,66.667L81.889,50L82.338,50L82.338,47.917L82.598,47.917L82.598,48.958L82.724,48.958L82.724,56.25L82.922,56.25L82.922,57.292L83.183,57.292L83.183,60.417L83.746,60.417L83.746,61.458L84.226,61.458L84.226,62.5L84.247,62.5L84.247,64.583L84.268,64.583L84.268,66.667L84.289,66.667L84.289,68.75L84.623,68.75L84.623,69.792L84.978,69.792L84.978,72.917L85.145,72.917L85.145,79.167L85.667,79.167L85.667,81.25L86.084,81.25L86.084,83.333L86.126,83.333L86.126,81.25L86.648,81.25L86.648,89.583L87.482,89.583L87.482,91.667L87.837,91.667L87.837,95.833L87.879,95.833L87.879,97.917L87.973,97.917L87.973,98.958L88.109,98.958L88.109,101.042L88.182,101.042L88.182,103.125L88.213,103.125L88.213,104.167L88.234,104.167L88.234,106.25L88.276,106.25L88.276,107.292L88.328,107.292L88.328,108.333L88.474,108.333L88.474,110.417L88.609,110.417L88.609,112.5L88.693,112.5L88.693,114.583L88.776,114.583L88.776,116.667L88.797,116.667L88.797,118.75L88.818,118.75L88.818,122.917L89.152,122.917L89.152,125L89.486,125L89.486,127.083L89.507,127.083L89.507,129.167L89.528,129.167L89.528,131.25L89.663,131.25L89.663,139.583L89.997,139.583L89.997,143.75L90.217,143.75L90.217,147.917L90.477,147.917L90.477,133.333L91.218,133.333L91.218,116.667L92.356,116.667L92.356,123.958L93.306,123.958L93.306,128.125L93.619,128.125L93.619,132.292L94.255,132.292L94.255,136.458L94.892,136.458L94.892,140.625L95.487,140.625L95.487,142.708L96.081,142.708L96.081,140.625L96.655,140.625L96.655,148.958L98.847,148.958L98.847,153.125L100.548,153.125L100.548,157.292L101.216,157.292L101.216,148.958L102.332,148.958L102.332,152.083L102.927,152.083L102.927,133.333L103.052,133.333L103.052,100L103.397,100L103.397,108.333L103.699,108.333L103.699,116.667L103.783,116.667L103.783,120.833L103.866,120.833L103.866,125L104.712,125L104.712,133.333L105.693,133.333L105.693,137.5L105.881,137.5L105.881,141.667L106.465,141.667L106.465,102.083L107.154,102.083L107.154,68.75L107.832,68.75L107.832,77.083L108.448,77.083L108.448,85.417L108.761,85.417L108.761,93.75L109.857,93.75L109.857,102.083L110.879,102.083L110.879,110.417L112.841,110.417L112.841,93.75L115.304,93.75L115.304,110.417L116.201,110.417L116.201,118.75L116.514,118.75L116.514,127.083L116.953,127.083L116.953,135.417L118.831,135.417L118.831,118.75L121.858,118.75L121.858,127.083L123.465,127.083L123.465,135.417L123.986,135.417L123.986,143.75L124.519,143.75L124.519,152.083L125.562,152.083L125.562,135.417L127.315,135.417L127.315,143.75L128.255,143.75L128.255,152.083L128.682,152.083L128.682,160.417L129.611,160.417L129.611,152.083L130.707,152.083L130.707,160.417L131.406,160.417L131.406,168.75L132.043,168.75L132.043,177.083L132.627,177.083L132.627,168.75L132.878,168.75L132.878,160.417L133.097,160.417L133.097,152.083L133.379,152.083L133.379,135.417L133.66,135.417L133.66,127.083L133.994,127.083L133.994,118.75L134.36,118.75L134.36,102.083L135.497,102.083L135.497,85.417L138.346,85.417L138.346,70.833L141.258,70.833L141.258,69.27L142.322,69.27L142.322,68.75L142.405,68.75L142.405,70.833L142.739,70.833L142.739,52.083L146.861,52.083L146.861,68.75L152.027,68.75L152.027,77.083L153.509,77.083L153.509,85.417L153.895,85.417L153.895,93.75L154.354,93.75L154.354,102.083L155.012,102.083L155.012,110.417L155.961,110.417L155.961,118.75L157.036,118.75L157.036,127.083L160.146,127.083L160.146,135.417L164.153,135.417L164.153,152.083L165.865,152.083L165.865,168.75L166.408,168.75L166.408,185.417L167.472,185.417L167.472,202.083L171.385,202.083L171.385,210.417L175.33,210.417L175.33,214.583L178.398,214.583L178.398,206.25L181.55,206.25L181.55,197.917L183.032,197.917L183.032,189.583L186.903,189.583L186.903,193.75L190.556,193.75L190.556,197.917L191.453,197.917L191.453,201.042L192.914,201.042L192.914,205.208L195.377,205.208L195.377,201.042L198.863,201.042L198.863,195.833L201.148,195.833L201.148,191.667L201.826,191.667L201.826,187.5L202.473,187.5L202.473,183.333L203.715,183.333L203.715,179.167L206.856,179.167L206.856,175L210.363,175L210.363,179.167L211.97,179.167L211.97,187.5L212.627,187.5L212.627,195.833L213.285,195.833L213.285,200L213.869,200L213.869,208.333L214.819,208.333L214.819,212.5L216.134,212.5L216.134,216.667L217.73,216.667L217.73,212.5L219.264,212.5L219.264,208.333L220.59,208.333L220.59,204.167L221.612,204.167L221.612,200L225.703,200L225.703,204.167L230.086,204.167L230.086,208.333L231.036,208.333L231.036,212.5L232.278,212.5L232.278,216.667L233.645,216.667L233.645,220.833L234.302,220.833L234.302,225L234.834,225L234.834,233.333L239.948,233.333L239.948,237.5L246.303,237.5L246.303,241.667L249.152,241.667L249.152,237.5L251.344,237.5L251.344,233.333L253.243,233.333L253.243,229.167L254.558,229.167L254.558,225L255.507,225L255.507,220.833L259.89,220.833L259.89,225L267.488,225L267.488,220.833L272.309,220.833L272.309,216.667L273.989,216.667L273.989,212.5L275.888,212.5L275.888,208.333L277.715,208.333L277.715,204.167L279.906,204.167L279.906,208.333L282.171,208.333L282.171,212.5L283.486,212.5L283.486,216.667L286.032,216.667L286.032,225L288.223,225L288.223,250L288.818,250L288.818,266.667L289.476,266.667L289.476,275L290.133,275L290.133,283.333L290.717,283.333L290.717,291.667L319.28,291.667L319.28,295.833L352.288,295.833L352.288,291.667L359.885,291.667L359.885,287.5L368.87,287.5L368.87,295.833L375.08,295.833L375.08,298.333L381.811,298.333L381.811,295.833L388.969,295.833L388.969,291.667L389.919,291.667L389.919,287.5L390.869,287.5L390.869,283.333L391.818,283.333L391.818,279.167L392.768,279.167L392.768,270.833L393.791,270.833L393.791,262.5L394.74,262.5L394.74,250L395.617,250L395.617,241.667L396.567,241.667L396.567,233.333L397.297,233.333L397.297,229.167L398.32,229.167L398.32,225L399.562,225L399.562,216.667L400,216.667L400,300L399.562,300L399.562,300L398.32,300L398.32,300L397.297,300L397.297,300L396.567,300L396.567,300L395.617,300L395.617,300L394.74,300L394.74,300L393.791,300L393.791,300L392.768,300L392.768,300L391.818,300L391.818,300L390.869,300L390.869,300L389.919,300L389.919,300L388.969,300L388.969,300L381.811,300L381.811,300L375.08,300L375.08,300L368.87,300L368.87,300L359.885,300L359.885,300L352.288,300L352.288,300L319.28,300L319.28,300L290.717,300L290.717,300L290.133,300L290.133,300L289.476,300L289.476,300L288.818,300L288.818,300L288.223,300L288.223,300L286.032,300L286.032,300L283.486,300L283.486,300L282.171,300L282.171,300L279.906,300L279.906,300L277.715,300L277.715,300L275.888,300L275.888,300L273.989,300L273.989,300L272.309,300L272.309,300L267.488,300L267.488,300L259.89,300L259.89,300L255.507,300L255.507,300L254.558,300L254.558,300L253.243,300L253.243,300L251.344,300L251.344,300L249.152,300L249.152,300L246.303,300L246.303,300L239.948,300L239.948,300L234.834,300L234.834,300L234.302,300L234.302,300L233.645,300L233.645,300L232.278,300L232.278,300L231.036,300L231.036,300L230.086,300L230.086,300L225.703,300L225.703,300L221.612,300L221.612,300L220.59,300L220.59,300L219.264,300L219.264,300L217.73,300L217.73,300L216.134,300L216.134,300L214.819,300L214.819,300L213.869,300L213.869,300L213.285,300L213.285,300L212.627,300L212.627,300L211.97,300L211.97,300L210.363,300L210.363,300L206.856,300L206.856,300L203.715,300L203.715,300L202.473,300L202.473,300L201.826,300L201.826,300L201.148,300L201.148,300L198.863,300L198.863,300L195.377,300L195.377,300L192.914,300L192.914,300L191.453,300L191.453,300L190.556,300L190.556,300L186.903,300L186.903,300L183.032,300L183.032,300L181.55,300L181.55,300L178.398,300L178.398,300L175.33,300L175.33,300L171.385,300L171.385,300L167.472,300L167.472,300L166.408,300L166.408,300L165.865,300L165.865,300L164.153,300L164.153,300L160.146,300L160.146,300L157.036,300L157.036,300L155.961,300L155.961,300L155.012,300L155.012,300L154.354,300L154.354,300L153.895,300L153.895,300L153.509,300L153.509,300L152.027,300L152.027,300L146.861,300L146.861,300L142.739,300L142.739,300L142.405,300L142.405,300L142.322,300L142.322,300L141.258,300L141.258,300L138.346,300L138.346,300L135.497,300L135.497,300L134.36,300L134.36,300L133.994,300L133.994,300L133.66,300L133.66,300L133.379,300L133.379,300L133.097,300L133.097,300L132.878,300L132.878,300L132.627,300L132.627,300L132.043,300L132.043,300L131.406,300L131.406,300L130.707,300L130.707,300L129.611,300L129.611,300L128.682,300L128.682,300L128.255,300L128.255,300L127.315,300L127.315,300L125.562,300L125.562,300L124.519,300L124.519,300L123.986,300L123.986,300L123.465,300L123.465,300L121.858,300L121.858,300L118.831,300L118.831,300L116.953,300L116.953,300L116.514,300L116.514,300L116.201,300L116.201,300L115.304,300L115.304,300L112.841,300L112.841,300L110.879,300L110.879,300L109.857,300L109.857,300L108.761,300L108.761,300L108.448,300L108.448,300L107.832,300L107.832,300L107.154,300L107.154,300L106.465,300L106.465,300L105.881,300L105.881,300L105.693,300L105.693,300L104.712,300L104.712,300L103.866,300L103.866,300L103.783,300L103.783,300L103.699,300L103.699,300L103.397,300L103.397,300L103.052,300L103.052,300L102.927,300L102.927,300L102.332,300L102.332,300L101.216,300L101.216,300L100.548,300L100.548,300L98.847,300L98.847,300L96.655,300L96.655,300L96.081,300L96.081,300L95.487,300L95.487,300L94.892,300L94.892,300L94.255,300L94.255,300L93.619,300L93.619,300L93.306,300L93.306,300L92.356,300L92.356,300L91.218,300L91.218,300L90.477,300L90.477,300L90.217,300L90.217,300L89.997,300L89.997,300L89.663,300L89.663,300L89.528,300L89.528,300L89.507,300L89.507,300L89.486,300L89.486,300L89.152,300L89.152,300L88.818,300L88.818,300L88.797,300L88.797,300L88.776,300L88.776,300L88.693,300L88.693,300L88.609,300L88.609,300L88.474,300L88.474,300L88.328,300L88.328,300L88.276,300L88.276,300L88.234,300L88.234,300L88.213,300L88.213,300L88.182,300L88.182,300L88.109,300L88.109,300L87.973,300L87.973,300L87.879,300L87.879,300L87.837,300L87.837,300L87.482,300L87.482,300L86.648,300L86.648,300L86.126,300L86.126,300L86.084,300L86.084,300L85.667,300L85.667,300L85.145,300L85.145,300L84.978,300L84.978,300L84.623,300L84.623,300L84.289,300L84.289,300L84.268,300L84.268,300L84.247,300L84.247,300L84.226,300L84.226,300L83.746,300L83.746,300L83.183,300L83.183,300L82.922,300L82.922,300L82.724,300L82.724,300L82.598,300L82.598,300L82.338,300L82.338,300L81.889,300L81.889,300L81.388,300L81.388,300L79.426,300L79.426,300L76.577,300L76.577,300L73.958,300L73.958,300L70.034,300L70.034,300L66.006,300L66.006,300L63.668,300L63.668,300L62.583,300L62.583,300L61.998,300L61.998,300L60.83,300L60.83,300L58.273,300L58.273,300L56.415,300L56.415,300L56.092,300L56.092,300L55.747,300L55.747,300L54.506,300L54.506,300L53.097,300L53.097,300L52.22,300L52.22,300L51.709,300L51.709,300L51.417,300L51.417,300L51.124,300L51.124,300L50.759,300L50.759,300L50.394,300L50.394,300L49.444,300L49.444,300L48.422,300L48.422,300L48.202,300L48.202,300L48.056,300L48.056,300L47.921,300L47.921,300L47.733,300L47.733,300L47.503,300L47.503,300L47.284,300L47.284,300L46.804,300L46.804,300L46.408,300L46.408,300L46.303,300L46.303,300L46.084,300L46.084,300L45.813,300L45.813,300L45.594,300L45.594,300L45.207,300L45.207,300L44.435,300L44.435,300L43.705,300L43.705,300L42.285,300L42.285,300L40.824,300L40.824,300L40.021,300L40.021,300L39.436,300L39.436,300L39.144,300L39.144,300L38.852,300L38.852,300L38.706,300L38.706,300L38.56,300L38.56,300L38.341,300L38.341,300L38.122,300L38.122,300L37.756,300L37.756,300L37.318,300L37.318,300L36.734,300L36.734,300L35.565,300L35.565,300L33.958,300L33.958,300L32.935,300L32.935,300L32.497,300L32.497,300L32.058,300L32.058,300L31.693,300L31.693,300L31.401,300L31.401,300L31.182,300L31.182,300L30.963,300L30.963,300L29.648,300L29.648,300L27.175,300L27.175,300L25.505,300L25.505,300L24.983,300L24.983,300L24.242,300L24.242,300L23.292,300L23.292,300L22.426,300L22.426,300L21.623,300L21.623,300L20.517,300L20.517,300L19.567,300L19.567,300L19.202,300L19.202,300L18.544,300L18.544,300L18.106,300L18.106,300L17.824,300L17.824,300L17.532,300L17.532,300L17.229,300L17.229,300L16.353,300L16.353,300L15.424,300L15.424,300L14.986,300L14.986,300L14.746,300L14.746,300L14.307,300L14.307,300L13.796,300L13.796,300L12.439,300L12.439,300L8.161,300L8.161,300L3.486,300L3.486,300L0.939,300L0.939,300L0,300Z" fill="url(#gradient_26)" opacity="1"/></g><g class="mark-line role-mark layer_1_layer_1_marks" role="graphics-object" aria-roledescription="line mark container"><path aria-label="Date: Jan 01, 1971; Base rate: 7" role="graphics-symbol" aria-roledescription="line mark" d="M0,183.333L0.939,183.333L0.939,200L3.486,200L3.486,216.667L8.161,216.667L8.161,200L12.439,200L12.439,179.167L13.796,179.167L13.796,175L14.307,175L14.307,170.833L14.746,170.833L14.746,166.667L14.986,166.667L14.986,150L15.424,150L15.424,154.167L16.353,154.167L16.353,158.333L17.229,158.333L17.229,166.667L17.532,166.667L17.532,162.5L17.824,162.5L17.824,166.667L18.106,166.667L18.106,170.833L18.544,170.833L18.544,175L19.202,175L19.202,150L19.567,150L19.567,108.333L20.517,108.333L20.517,112.5L21.623,112.5L21.623,83.333L22.426,83.333L22.426,87.5L23.292,87.5L23.292,91.667L24.242,91.667L24.242,95.833L24.983,95.833L24.983,100L25.505,100L25.505,104.167L27.175,104.167L27.175,108.333L29.648,108.333L29.648,112.5L30.963,112.5L30.963,116.667L31.182,116.667L31.182,120.833L31.401,120.833L31.401,125L31.693,125L31.693,129.167L32.058,129.167L32.058,133.333L32.497,133.333L32.497,137.5L32.935,137.5L32.935,133.333L33.958,133.333L33.958,116.667L35.565,116.667L35.565,100L36.734,100L36.734,104.167L37.318,104.167L37.318,108.333L37.756,108.333L37.756,112.5L38.122,112.5L38.122,116.667L38.341,116.667L38.341,120.833L38.56,120.833L38.56,125L38.706,125L38.706,133.333L38.852,133.333L38.852,141.667L39.144,141.667L39.144,145.833L39.436,145.833L39.436,150L40.021,150L40.021,125L40.824,125L40.824,108.333L42.285,108.333L42.285,83.333L43.705,83.333L43.705,50L44.435,50L44.435,54.167L45.207,54.167L45.207,58.333L45.594,58.333L45.594,62.5L45.813,62.5L45.813,66.667L46.084,66.667L46.084,79.167L46.303,79.167L46.303,95.833L46.408,95.833L46.408,100L46.804,100L46.804,116.667L47.284,116.667L47.284,125L47.503,125L47.503,141.667L47.733,141.667L47.733,145.833L47.921,145.833L47.921,150L48.056,150L48.056,154.167L48.202,154.167L48.202,162.5L48.422,162.5L48.422,166.667L49.444,166.667L49.444,175L50.394,175L50.394,183.333L50.759,183.333L50.759,191.667L51.124,191.667L51.124,200L51.417,200L51.417,208.333L51.709,208.333L51.709,216.667L52.22,216.667L52.22,183.333L53.097,183.333L53.097,191.667L54.506,191.667L54.506,175L55.747,175L55.747,154.167L56.092,154.167L56.092,150L56.415,150L56.415,133.333L58.273,133.333L58.273,91.667L60.83,91.667L60.83,66.667L61.998,66.667L61.998,83.333L62.583,83.333L62.583,100L63.668,100L63.668,66.667L66.006,66.667L66.006,16.667L70.034,16.667L70.034,33.333L73.958,33.333L73.958,66.667L76.577,66.667L76.577,100L79.426,100L79.426,88.542L81.388,88.542L81.388,66.667L81.889,66.667L81.889,50L82.338,50L82.338,47.917L82.598,47.917L82.598,48.958L82.724,48.958L82.724,56.25L82.922,56.25L82.922,57.292L83.183,57.292L83.183,60.417L83.746,60.417L83.746,61.458L84.226,61.458L84.226,62.5L84.247,62.5L84.247,64.583L84.268,64.583L84.268,66.667L84.289,66.667L84.289,68.75L84.623,68.75L84.623,69.792L84.978,69.792L84.978,72.917L85.145,72.917L85.145,79.167L85.667,79.167L85.667,81.25L86.084,81.25L86.084,83.333L86.126,83.333L86.126,81.25L86.648,81.25L86.648,89.583L87.482,89.583L87.482,91.667L87.837,91.667L87.837,95.833L87.879,95.833L87.879,97.917L87.973,97.917L87.973,98.958L88.109,98.958L88.109,101.042L88.182,101.042L88.182,103.125L88.213,103.125L88.213,104.167L88.234,104.167L88.234,106.25L88.276,106.25L88.276,107.292L88.328,107.292L88.328,108.333L88.474,108.333L88.474,110.417L88.609,110.417L88.609,112.5L88.693,112.5L88.693,114.583L88.776,114.583L88.776,116.667L88.797,116.667L88.797,118.75L88.818,118.75L88.818,122.917L89.152,122.917L89.152,125L89.486,125L89.486,127.083L89.507,127.083L89.507,129.167L89.528,129.167L89.528,131.25L89.663,131.25L89.663,139.583L89.997,139.583L89.997,143.75L90.217,143.75L90.217,147.917L90.477,147.917L90.477,133.333L91.218,133.333L91.218,116.667L92.356,116.667L92.356,123.958L93.306,123.958L93.306,128.125L93.619,128.125L93.619,132.292L94.255,132.292L94.255,136.458L94.892,136.458L94.892,140.625L95.487,140.625L95.487,142.708L96.081,142.708L96.081,140.625L96.655,140.625L96.655,148.958L98.847,148.958L98.847,153.125L100.548,153.125L100.548,157.292L101.216,157.292L101.216,148.958L102.332,148.958L102.332,152.083L102.927,152.083L102.927,133.333L103.052,133.333L103.052,100L103.397,100L103.397,108.333L103.699,108.333L103.699,116.667L103.783,116.667L103.783,120.833L103.866,120.833L103.866,125L104.712,125L104.712,133.333L105.693,133.333L105.693,137.5L105.881,137.5L105.881,141.667L106.465,141.667L106.465,102.083L107.154,102.083L107.154,68.75L107.832,68.75L107.832,77.083L108.448,77.083L108.448,85.417L108.761,85.417L108.761,93.75L109.857,93.75L109.857,102.083L110.879,102.083L110.879,110.417L112.841,110.417L112.841,93.75L115.304,93.75L115.304,110.417L116.201,110.417L116.201,118.75L116.514,118.75L116.514,127.083L116.953,127.083L116.953,135.417L118.831,135.417L118.831,118.75L121.858,118.75L121.858,127.083L123.465,127.083L123.465,135.417L123.986,135.417L123.986,143.75L124.519,143.75L124.519,152.083L125.562,152.083L125.562,135.417L127.315,135.417L127.315,143.75L128.255,143.75L128.255,152.083L128.682,152.083L128.682,160.417L129.611,160.417L129.611,152.083L130.707,152.083L130.707,160.417L131.406,160.417L131.406,168.75L132.043,168.75L132.043,177.083L132.627,177.083L132.627,168.75L132.878,168.75L132.878,160.417L133.097,160.417L133.097,152.083L133.379,152.083L133.379,135.417L133.66,135.417L133.66,127.083L133.994,127.083L133.994,118.75L134.36,118.75L134.36,102.083L135.497,102.083L135.497,85.417L138.346,85.417L138.346,70.833L141.258,70.833L141.258,69.27L142.322,69.27L142.322,68.75L142.405,68.75L142.405,70.833L142.739,70.833L142.739,52.083L146.861,52.083L146.861,68.75L152.027,68.75L152.027,77.083L153.509,77.083L153.509,85.417L153.895,85.417L153.895,93.75L154.354,93.75L154.354,102.083L155.012,102.083L155.012,110.417L155.961,110.417L155.961,118.75L157.036,118.75L157.036,127.083L160.146,127.083L160.146,135.417L164.153,135.417L164.153,152.083L165.865,152.083L165.865,168.75L166.408,168.75L166.408,185.417L167.472,185.417L167.472,202.083L171.385,202.083L171.385,210.417L175.33,210.417L175.33,214.583L178.398,214.583L178.398,206.25L181.55,206.25L181.55,197.917L183.032,197.917L183.032,189.583L186.903,189.583L186.903,193.75L190.556,193.75L190.556,197.917L191.453,197.917L191.453,201.042L192.914,201.042L192.914,205.208L195.377,205.208L195.377,201.042L198.863,201.042L198.863,195.833L201.148,195.833L201.148,191.667L201.826,191.667L201.826,187.5L202.473,187.5L202.473,183.333L203.715,183.333L203.715,179.167L206.856,179.167L206.856,175L210.363,175L210.363,179.167L211.97,179.167L211.97,187.5L212.627,187.5L212.627,195.833L213.285,195.833L213.285,200L213.869,200L213.869,208.333L214.819,208.333L214.819,212.5L216.134,212.5L216.134,216.667L217.73,216.667L217.73,212.5L219.264,212.5L219.264,208.333L220.59,208.333L220.59,204.167L221.612,204.167L221.612,200L225.703,200L225.703,204.167L230.086,204.167L230.086,208.333L231.036,208.333L231.036,212.5L232.278,212.5L232.278,216.667L233.645,216.667L233.645,220.833L234.302,220.833L234.302,225L234.834,225L234.834,233.333L239.948,233.333L239.948,237.5L246.303,237.5L246.303,241.667L249.152,241.667L249.152,237.5L251.344,237.5L251.344,233.333L253.243,233.333L253.243,229.167L254.558,229.167L254.558,225L255.507,225L255.507,220.833L259.89,220.833L259.89,225L267.488,225L267.488,220.833L272.309,220.833L272.309,216.667L273.989,216.667L273.989,212.5L275.888,212.5L275.888,208.333L277.715,208.333L277.715,204.167L279.906,204.167L279.906,208.333L282.171,208.333L282.171,212.5L283.486,212.5L283.486,216.667L286.032,216.667L286.032,225L288.223,225L288.223,250L288.818,250L288.818,266.667L289.476,266.667L289.476,275L290.133,275L290.133,283.333L290.717,283.333L290.717,291.667L319.28,291.667L319.28,295.833L352.288,295.833L352.288,291.667L359.885,291.667L359.885,287.5L368.87,287.5L368.87,295.833L375.08,295.833L375.08,298.333L381.811,298.333L381.811,295.833L388.969,295.833L388.969,291.667L389.919,291.667L389.919,287.5L390.869,287.5L390.869,283.333L391.818,283.333L391.818,279.167L392.768,279.167L392.768,270.833L393.791,270.833L393.791,262.5L394.74,262.5L394.74,250L395.617,250L395.617,241.667L396.567,241.667L396.567,233.333L397.297,233.333L397.297,229.167L398.32,229.167L398.32,225L399.562,225L399.562,216.667L400,216.667" stroke="#179FDB" stroke-width="2"/></g></g><path class="foreground" aria-hidden="true" d="" display="none"/></g></g></g><defs><linearGradient id="gradient_26" x1="1" x2="1" y1="1" y2="0"><stop offset="0.2" stop-color="#ffffff00"/><stop offset="0.8" stop-color="#179FDB"/></linearGradient></defs></svg>