<svg xmlns="http://www.w3.org/2000/svg" xmlns:xlink="http://www.w3.org/1999/xlink" version="1.1" class="marks" width="410" height="466" viewBox="0 0 410 466"><rect width="410" height="466" fill="white"/><g fill="none" stroke-miterlimit="10" transform="translate(5,57)"><g class="mark-group role-frame root" role="graphics-object" aria-roledescription="group mark container"><g transform="translate(0,0)"><path class="background" aria-hidden="true" d="M0,0h400v0h-400Z"/><g><g class="mark-group role-scope concat_0_group" role="graphics-object" aria-roledescription="group mark container"><g transform="translate(0,0)"><path class="background" aria-hidden="true" d="M0,0h400v300h-400Z"/><g><g class="mark-group role-axis" aria-hidden="true"><g transform="translate(0.5,0.5)"><path class="background" aria-hidden="true" d="M0,0h0v0h0Z" pointer-events="none"/><g><g class="mark-rule role-axis-grid" pointer-events="none"><line transform="translate(0,300)" x2="400" y2="0" stroke="#676A86" stroke-opacity="0.1" stroke-width="1" opacity="1"/><line transform="translate(0,263)" x2="400" y2="0" stroke="#676A86" stroke-opacity="0.1" stroke-width="1" opacity="1"/><line transform="translate(0,225)" x2="400" y2="0" stroke="#676A86" stroke-opacity="0.1" stroke-width="1" opacity="1"/><line transform="translate(0,188)" x2="400" y2="0" stroke="#676A86" stroke-opacity="0.1" stroke-width="1" opacity="1"/><line transform="translate(0,150)" x2="400" y2="0" stroke="#676A86" stroke-opacity="0.1" stroke-width="1" opacity="1"/><line transform="translate(0,113)" x2="400" y2="0" stroke="#676A86" stroke-opacity="0.1" stroke-width="1" opacity="1"/><line transform="translate(0,75)" x2="400" y2="0" stroke="#676A86" stroke-opacity="0.1" stroke-width="1" opacity="1"/><line transform="translate(0,38)" x2="400" y2="0" stroke="#676A86" stroke-opacity="0.1" stroke-width="1" opacity="1"/><line transform="translate(0,0)" x2="400" y2="0" stroke="#676A86" stroke-opacity="0.1" stroke-width="1" opacity="1"/></g></g><path class="foreground" aria-hidden="true" d="" pointer-events="none" display="none"/></g></g><g class="mark-group role-axis" role="graphics-symbol" aria-roledescription="axis" aria-label="X-axis titled 'Temperature bin (°C)' for a discrete scale with 14 values: &lt; 6, 6-9, 9-12, 12-15, 15-18, ending with 42 &lt;"><g transform="translate(0.5,300.5)"><path class="background" aria-hidden="true" d="M0,0h0v0h0Z" pointer-events="none"/><g><g class="mark-rule role-axis-tick" pointer-events="none"><line transform="translate(14,0)" x2="0" y2="5" stroke="#676A86" stroke-width="1" opacity="1"/><line transform="translate(43,0)" x2="0" y2="5" stroke="#676A86" stroke-width="1" opacity="1"/><line transform="translate(71,0)" x2="0" y2="5" stroke="#676A86" stroke-width="1" opacity="1"/><line transform="translate(100,0)" x2="0" y2="5" stroke="#676A86" stroke-width="1" opacity="1"/><line transform="translate(129,0)" x2="0" y2="5" stroke="#676A86" stroke-width="1" opacity="1"/><line transform="translate(157,0)" x2="0" y2="5" stroke="#676A86" stroke-width="1" opacity="1"/><line transform="translate(186,0)" x2="0" y2="5" stroke="#676A86" stroke-width="1" opacity="1"/><line transform="translate(214,0)" x2="0" y2="5" stroke="#676A86" stroke-width="1" opacity="1"/><line transform="translate(243,0)" x2="0" y2="5" stroke="#676A86" stroke-width="1" opacity="1"/><line transform="translate(271,0)" x2="0" y2="5" stroke="#676A86" stroke-width="1" opacity="1"/><line transform="translate(300,0)" x2="0" y2="5" stroke="#676A86" stroke-width="1" opacity="1"/><line transform="translate(329,0)" x2="0" y2="5" stroke="#676A86" stroke-width="1" opacity="1"/><line transform="translate(357,0)" x2="0" y2="5" stroke="#676A86" stroke-width="1" opacity="1"/><line transform="translate(386,0)" x2="0" y2="5" stroke="#676A86" stroke-width="1" opacity="1"/></g><g class="mark-text role-axis-label" pointer-events="none"><text text-anchor="middle" transform="translate(14.285714285714278,15)" font-family="sans-serif" font-size="10px" fill="#676A86" opacity="1">&lt; 6</text><text text-anchor="middle" transform="translate(42.85714285714285,15)" font-family="sans-serif" font-size="10px" fill="#676A86" opacity="1">6-9</text><text text-anchor="middle" transform="translate(71.42857142857142,15)" font-family="sans-serif" font-size="10px" fill="#676A86" opacity="1">9-12</text><text text-anchor="middle" transform="translate(100,15)" font-family="sans-serif" font-size="10px" fill="#676A86" opacity="1">12-15</text><text text-anchor="middle" transform="translate(128.57142857142856,15)" font-family="sans-serif" font-size="10px" fill="#676A86" opacity="1">15-18</text><text text-anchor="middle" transform="translate(157.14285714285714,15)" font-family="sans-serif" font-size="10px" fill="#676A86" opacity="1">18-21</text><text text-anchor="middle" transform="translate(185.71428571428572,15)" font-family="sans-serif" font-size="10px" fill="#676A86" opacity="1">21-24</text><text text-anchor="middle" transform="translate(214.28571428571428,15)" font-family="sans-serif" font-size="10px" fill="#676A86" opacity="1">24-27</text><text text-anchor="middle" transform="translate(242.85714285714286,15)" font-family="sans-serif" font-size="10px" fill="#676A86" opacity="1">27-30</text><text text-anchor="middle" transform="translate(271.42857142857144,15)" font-family="sans-serif" font-size="10px" fill="#676A86" opacity="1">30-33</text><text text-anchor="middle" transform="translate(300,15)" font-family="sans-serif" font-size="10px" fill="#676A86" opacity="1">33-36</text><text text-anchor="middle" transform="translate(328.57142857142856,15)" font-family="sans-serif" font-size="10px" fill="#676A86" opacity="1">36-39</text><text text-anchor="middle" transform="translate(357.14285714285717,15)" font-family="sans-serif" font-size="10px" fill="#676A86" opacity="1">39-42</text><text text-anchor="middle" transform="translate(385.7142857142857,15)" font-family="sans-serif" font-size="10px" fill="#676A86" opacity="1">42 &lt;</text></g><g class="mark-rule role-axis-domain" pointer-events="none"><line transform="translate(0,0)" x2="400" y2="0" stroke="#676A86" stroke-width="1" opacity="1"/></g><g class="mark-text role-axis-title" pointer-events="none"><text text-anchor="end" transform="translate(400,-6)" font-family="sans-serif" font-size="11px" font-weight="bold" fill="#676A86" opacity="1">Temperature bin (°C)</text></g></g><path class="foreground" aria-hidden="true" d="" pointer-events="none" display="none"/></g></g><g class="mark-group role-axis" role="graphics-symbol" aria-roledescription="axis" aria-label="Y-axis for a linear scale with values from −3.0 to 1.0"><g transform="translate(0.5,0.5)"><path class="background" aria-hidden="true" d="M0,0h0v0h0Z" pointer-events="none"/><g><g class="mark-text role-axis-label" pointer-events="none"><text text-anchor="start" transform="translate(5,293)" font-family="sans-serif" font-size="10px" fill="#676A86" opacity="1">−3.0</text><text text-anchor="start" transform="translate(5,255.5)" font-family="sans-serif" font-size="10px" fill="#676A86" opacity="1">−2.5</text><text text-anchor="start" transform="translate(5,218)" font-family="sans-serif" font-size="10px" fill="#676A86" opacity="1">−2.0</text><text text-anchor="start" transform="translate(5,180.5)" font-family="sans-serif" font-size="10px" fill="#676A86" opacity="1">−1.5</text><text text-anchor="start" transform="translate(5,143)" font-family="sans-serif" font-size="10px" fill="#676A86" opacity="1">−1.0</text><text text-anchor="start" transform="translate(5,105.5)" font-family="sans-serif" font-size="10px" fill="#676A86" opacity="1">−0.5</text><text text-anchor="start" transform="translate(5,68)" font-family="sans-serif" font-size="10px" fill="#676A86" opacity="1">0.0</text><text text-anchor="start" transform="translate(5,30.5)" font-family="sans-serif" font-size="10px" fill="#676A86" opacity="1">0.5</text><text text-anchor="start" transform="translate(5,-7)" font-family="sans-serif" font-size="10px" fill="#676A86" opacity="1">1.0</text></g><g class="mark-rule role-axis-domain" pointer-events="none"><line transform="translate(0,300)" x2="0" y2="-300" stroke="#676A86" stroke-width="1" opacity="1"/></g></g><path class="foreground" aria-hidden="true" d="" pointer-events="none" display="none"/></g></g><g class="mark-line role-mark concat_0_layer_0_marks" role="graphics-object" aria-roledescription="line mark container"><path aria-label="x: &lt; 6; z: 0" role="graphics-symbol" aria-roledescription="line mark" d="M14.285714285714278,75L42.85714285714285,75L71.42857142857142,75L100,75L128.57142857142856,75L157.14285714285714,75L185.71428571428572,75L214.28571428571428,75L242.85714285714286,75L271.42857142857144,75L300,75L328.57142857142856,75L357.14285714285717,75L385.7142857142857,75" stroke="#676A86" stroke-width="2" opacity="0.5"/></g><g class="mark-area role-mark concat_0_layer_1_marks" role="graphics-object" aria-roledescription="area mark container"><path aria-label="x: &lt; 6; bottom: −2.35985146851; top: −0.123321515813" role="graphics-symbol" aria-roledescription="area mark" d="M14.285714285714278,251.9888601383832L42.85714285714285,218.0984064279518L71.42857142857142,146.82117443749434L100,172.54845670443925L128.57142857142856,188.4251504641774L157.14285714285714,204.30184422391557L185.71428571428572,125.95082003142771L214.28571428571428,159.76371711273478L242.85714285714286,169.8294916429452L271.42857142857144,73.28942055185905L300,194.50774204774729L328.57142857142856,201.03236158690385L357.14285714285717,203.0192458659709L385.7142857142857,302.008851185582L385.7142857142857,95.87364197030686L357.14285714285717,73.17196484763619L328.57142857142856,108.07379286618475L300,84.87180824003062L271.42857142857144,73.28942055185905L242.85714285714286,65.7507368792978L214.28571428571428,63.26220018410348L185.71428571428572,27.429244311849587L157.14285714285714,95.67683642010148L128.57142857142856,82.32387123640301L100,68.97090605270452L71.42857142857142,37.18479232556308L42.85714285714285,92.295277729442L14.285714285714278,84.24911368596383Z" fill="#36B7B4" opacity="0.2"/></g><g class="mark-line role-mark concat_0_layer_2_marks" role="graphics-object" aria-roledescription="line mark container"><path aria-label="x: &lt; 6; a: −1.2" role="graphics-symbol" aria-roledescription="line mark" d="M14.285714285714278,167.61352391022223L42.85714285714285,154.43920795603822L71.42857142857142,92.76196241683118L100,118.99448353362008L128.57142857142856,135.62925972023154L157.14285714285714,151.2526615987258L185.71428571428572,75.93262220108727L214.28571428571428,112.27036861897054L242.85714285714286,118.29468065464364L271.42857142857144,73.28942055185905L300,139.43670741475233L328.57142857142856,154.55576705183185L357.14285714285717,137.84388254031072L385.7142857142857,201.46542345819867" stroke="#36B7B4" stroke-width="2"/></g></g><path class="foreground" aria-hidden="true" d="" display="none"/></g></g><g class="mark-group role-scope concat_1_group" role="graphics-object" aria-roledescription="group mark container"><g transform="translate(0,337)"><path class="background" aria-hidden="true" d="M0,0h400v50h-400Z"/><g><g class="mark-group role-axis" role="graphics-symbol" aria-roledescription="axis" aria-label="X-axis for a discrete scale with 14 values: &lt; 6, 6-9, 9-12, 12-15, 15-18, ending with 42 &lt;"><g transform="translate(0.5,50.5)"><path class="background" aria-hidden="true" d="M0,0h0v0h0Z" pointer-events="none"/><g><g class="mark-rule role-axis-tick" pointer-events="none"><line transform="translate(14,0)" x2="0" y2="5" stroke="#676A86" stroke-width="1" opacity="1"/><line transform="translate(42,0)" x2="0" y2="5" stroke="#676A86" stroke-width="1" opacity="1"/><line transform="translate(71,0)" x2="0" y2="5" stroke="#676A86" stroke-width="1" opacity="1"/><line transform="translate(100,0)" x2="0" y2="5" stroke="#676A86" stroke-width="1" opacity="1"/><line transform="translate(128,0)" x2="0" y2="5" stroke="#676A86" stroke-width="1" opacity="1"/><line transform="translate(157,0)" x2="0" y2="5" stroke="#676A86" stroke-width="1" opacity="1"/><line transform="translate(185,0)" x2="0" y2="5" stroke="#676A86" stroke-width="1" opacity="1"/><line transform="translate(214,0)" x2="0" y2="5" stroke="#676A86" stroke-width="1" opacity="1"/><line transform="translate(242,0)" x2="0" y2="5" stroke="#676A86" stroke-width="1" opacity="1"/><line transform="translate(271,0)" x2="0" y2="5" stroke="#676A86" stroke-width="1" opacity="1"/><line transform="translate(299,0)" x2="0" y2="5" stroke="#676A86" stroke-width="1" opacity="1"/><line transform="translate(328,0)" x2="0" y2="5" stroke="#676A86" stroke-width="1" opacity="1"/><line transform="translate(357,0)" x2="0" y2="5" stroke="#676A86" stroke-width="1" opacity="1"/><line transform="translate(385,0)" x2="0" y2="5" stroke="#676A86" stroke-width="1" opacity="1"/></g><g class="mark-text role-axis-label" pointer-events="none"><text text-anchor="middle" transform="translate(13.785714285714274,15)" font-family="sans-serif" font-size="10px" fill="#676A86" opacity="1">&lt; 6</text><text text-anchor="middle" transform="translate(42.35714285714285,15)" font-family="sans-serif" font-size="10px" fill="#676A86" opacity="1">6-9</text><text text-anchor="middle" transform="translate(70.92857142857142,15)" font-family="sans-serif" font-size="10px" fill="#676A86" opacity="1">9-12</text><text text-anchor="middle" transform="translate(99.5,15)" font-family="sans-serif" font-size="10px" fill="#676A86" opacity="1">12-15</text><text text-anchor="middle" transform="translate(128.07142857142856,15)" font-family="sans-serif" font-size="10px" fill="#676A86" opacity="1">15-18</text><text text-anchor="middle" transform="translate(156.64285714285714,15)" font-family="sans-serif" font-size="10px" fill="#676A86" opacity="1">18-21</text><text text-anchor="middle" transform="translate(185.21428571428572,15)" font-family="sans-serif" font-size="10px" fill="#676A86" opacity="1">21-24</text><text text-anchor="middle" transform="translate(213.78571428571428,15)" font-family="sans-serif" font-size="10px" fill="#676A86" opacity="1">24-27</text><text text-anchor="middle" transform="translate(242.35714285714286,15)" font-family="sans-serif" font-size="10px" fill="#676A86" opacity="1">27-30</text><text text-anchor="middle" transform="translate(270.9285714285714,15)" font-family="sans-serif" font-size="10px" fill="#676A86" opacity="1">30-33</text><text text-anchor="middle" transform="translate(299.49999999999994,15)" font-family="sans-serif" font-size="10px" fill="#676A86" opacity="1">33-36</text><text text-anchor="middle" transform="translate(328.0714285714285,15)" font-family="sans-serif" font-size="10px" fill="#676A86" opacity="1">36-39</text><text text-anchor="middle" transform="translate(356.64285714285717,15)" font-family="sans-serif" font-size="10px" fill="#676A86" opacity="1">39-42</text><text text-anchor="middle" transform="translate(385.2142857142857,15)" font-family="sans-serif" font-size="10px" fill="#676A86" opacity="1">42 &lt;</text></g><g class="mark-rule role-axis-domain" pointer-events="none"><line transform="translate(0,0)" x2="400" y2="0" stroke="#676A86" stroke-width="1" opacity="1"/></g></g><path class="foreground" aria-hidden="true" d="" pointer-events="none" display="none"/></g></g><g class="mark-rect role-mark concat_1_marks" role="graphics-object" aria-roledescription="rect mark container"><path aria-label="x: &lt; 6; bin: 0.298799221975" role="graphics-symbol" aria-roledescription="bar" d="M4.285714285714274,36.41821718294403h20v13.581782817055966h-20Z" fill="#179FDB" opacity="0.5"/><path aria-label="x: 6-9; bin: 0.393388774214" role="graphics-symbol" aria-roledescription="bar" d="M32.85714285714285,32.118692081180164h20v17.881307918819836h-20Z" fill="#179FDB" opacity="0.5"/><path aria-label="x: 9-12; bin: 0.588671006669" role="graphics-symbol" aria-roledescription="bar" d="M61.428571428571416,23.242226969600733h20v26.757773030399267h-20Z" fill="#179FDB" opacity="0.5"/><path aria-label="x: 12-15; bin: 0.763803985392" role="graphics-symbol" aria-roledescription="bar" d="M90,15.281637027627776h20v34.718362972372226h-20Z" fill="#179FDB" opacity="0.5"/><path aria-label="x: 15-18; bin: 0.918829390283" role="graphics-symbol" aria-roledescription="bar" d="M118.57142857142856,8.235027714425936h20v41.76497228557406h-20Z" fill="#179FDB" opacity="0.5"/><path aria-label="x: 18-21; bin: 1.04023102572" role="graphics-symbol" aria-roledescription="bar" d="M147.14285714285714,2.716771558070347h20v47.28322844192965h-20Z" fill="#179FDB" opacity="0.5"/><path aria-label="x: 21-24; bin: 1.08776992696" role="graphics-symbol" aria-roledescription="bar" d="M175.71428571428572,0.555912410866316h20v49.44408758913369h-20Z" fill="#179FDB" opacity="0.5"/><path aria-label="x: 24-27; bin: 1.03454469673" role="graphics-symbol" aria-roledescription="bar" d="M204.28571428571428,2.975241057767253h20v47.02475894223275h-20Z" fill="#179FDB" opacity="0.5"/><path aria-label="x: 27-30; bin: 0.920877659574" role="graphics-symbol" aria-roledescription="bar" d="M232.85714285714286,8.141924564796899h20v41.858075435203105h-20Z" fill="#179FDB" opacity="0.5"/><path aria-label="x: 30-33; bin: 0.807234439505" role="graphics-symbol" aria-roledescription="bar" d="M261.4285714285714,13.307525477063376h20v36.69247452293662h-20Z" fill="#179FDB" opacity="0.5"/><path aria-label="x: 33-36; bin: 0.753991346459" role="graphics-symbol" aria-roledescription="bar" d="M289.99999999999994,15.727666070036667h20v34.27233392996333h-20Z" fill="#179FDB" opacity="0.5"/><path aria-label="x: 36-39; bin: 0.640336217847" role="graphics-symbol" aria-roledescription="bar" d="M318.5714285714285,20.893808279684727h20v29.106191720315273h-20Z" fill="#179FDB" opacity="0.5"/><path aria-label="x: 39-42; bin: 0.419224356939" role="graphics-symbol" aria-roledescription="bar" d="M347.14285714285717,30.944347411876784h20v19.055652588123216h-20Z" fill="#179FDB" opacity="0.5"/><path aria-label="x: 42 &lt;; bin: 0.312273737695" role="graphics-symbol" aria-roledescription="bar" d="M375.7142857142857,35.80573919570427h20v14.19426080429573h-20Z" fill="#179FDB" opacity="0.5"/></g></g><path class="foreground" aria-hidden="true" d="" display="none"/></g></g><g class="mark-group role-title"><g transform="translate(0,-46)"><path class="background" aria-hidden="true" d="M0,0h0v0h0Z" pointer-events="none"/><g><g class="mark-text role-title-text" role="graphics-symbol" aria-roledescription="title" aria-label="Title text 'Change in productivity at different temperatures'" pointer-events="none"><text text-anchor="start" transform="translate(5,4)" font-family="sans-serif" font-size="12px" font-weight="bold" fill="#000" opacity="1">Change in productivity at different temperatures</text></g><g class="mark-text role-title-subtitle" role="graphics-symbol" aria-roledescription="subtitle" aria-label="Subtitle text 'Change in output per ha.'" pointer-events="none"><text text-anchor="start" transform="translate(5,19)" font-family="sans-serif" font-size="11px" font-style="italic" fill="#000" opacity="1">Change in output per ha.</text></g></g><path class="foreground" aria-hidden="true" d="" pointer-events="none" display="none"/></g></g></g><path class="foreground" aria-hidden="true" d="" display="none"/></g></g></g></svg>