<svg xmlns="http://www.w3.org/2000/svg" xmlns:xlink="http://www.w3.org/1999/xlink" version="1.1" class="marks" width="410" height="366" viewBox="0 0 410 366"><rect width="410" height="366" fill="#122B39"/><g fill="none" stroke-miterlimit="10" transform="translate(5,44)"><g class="mark-group role-frame root" role="graphics-object" aria-roledescription="group mark container"><g transform="translate(0,0)"><path class="background" aria-hidden="true" d="M0,0h400v300h-400Z"/><g><g class="mark-group role-axis" aria-hidden="true"><g transform="translate(0.5,0.5)"><path class="background" aria-hidden="true" d="M0,0h0v0h0Z" pointer-events="none"/><g><g class="mark-rule role-axis-grid" pointer-events="none"><line transform="translate(0,245)" x2="400" y2="0" stroke="#676A86" stroke-opacity="0.1" stroke-width="1" opacity="1"/><line transform="translate(0,177)" x2="400" y2="0" stroke="#676A86" stroke-opacity="0.1" stroke-width="1" opacity="1"/><line transform="translate(0,109)" x2="400" y2="0" stroke="#676A86" stroke-opacity="0.1" stroke-width="1" opacity="1"/><line transform="translate(0,41)" x2="400" y2="0" stroke="#676A86" stroke-opacity="0.1" stroke-width="1" opacity="1"/></g></g><path class="foreground" aria-hidden="true" d="" pointer-events="none" display="none"/></g></g><g class="mark-group role-axis" role="graphics-symbol" aria-roledescription="axis" aria-label="X-axis titled 'Temperature (°C)' for a discrete scale with 16 values: -5, -1, 0, 4, 5, ending with 34"><g transform="translate(0.5,300.5)"><path class="background" aria-hidden="true" d="M0,0h0v0h0Z" pointer-events="none"/><g><g class="mark-rule role-axis-tick" pointer-events="none"><line transform="translate(13,0)" x2="0" y2="5" stroke="#676A86" stroke-width="1" opacity="1"/><line transform="translate(38,0)" x2="0" y2="5" stroke="#676A86" stroke-width="1" opacity="1"/><line transform="translate(63,0)" x2="0" y2="5" stroke="#676A86" stroke-width="1" opacity="1"/><line transform="translate(88,0)" x2="0" y2="5" stroke="#676A86" stroke-width="1" opacity="1"/><line transform="translate(113,0)" x2="0" y2="5" stroke="#676A86" stroke-width="1" opacity="1"/><line transform="translate(138,0)" x2="0" y2="5" stroke="#676A86" stroke-width="1" opacity="1"/><line transform="translate(163,0)" x2="0" y2="5" stroke="#676A86" stroke-width="1" opacity="1"/><line transform="translate(188,0)" x2="0" y2="5" stroke="#676A86" stroke-width="1" opacity="1"/><line transform="translate(213,0)" x2="0" y2="5" stroke="#676A86" stroke-width="1" opacity="1"/><line transform="translate(238,0)" x2="0" y2="5" stroke="#676A86" stroke-width="1" opacity="1"/><line transform="translate(263,0)" x2="0" y2="5" stroke="#676A86" stroke-width="1" opacity="1"/><line transform="translate(288,0)" x2="0" y2="5" stroke="#676A86" stroke-width="1" opacity="1"/><line transform="translate(313,0)" x2="0" y2="5" stroke="#676A86" stroke-width="1" opacity="1"/><line transform="translate(338,0)" x2="0" y2="5" stroke="#676A86" stroke-width="1" opacity="1"/><line transform="translate(363,0)" x2="0" y2="5" stroke="#676A86" stroke-width="1" opacity="1"/><line transform="translate(388,0)" x2="0" y2="5" stroke="#676A86" stroke-width="1" opacity="1"/></g><g class="mark-text role-axis-label" pointer-events="none"><text text-anchor="middle" transform="translate(12.5,15)" font-family="Georgia" font-size="10px" fill="#676A86" opacity="1">-5</text><text text-anchor="middle" transform="translate(37.5,15)" font-family="Georgia" font-size="10px" fill="#676A86" opacity="1">-1</text><text text-anchor="middle" transform="translate(62.5,15)" font-family="Georgia" font-size="10px" fill="#676A86" opacity="1">0</text><text text-anchor="middle" transform="translate(87.5,15)" font-family="Georgia" font-size="10px" fill="#676A86" opacity="1">4</text><text text-anchor="middle" transform="translate(112.5,15)" font-family="Georgia" font-size="10px" fill="#676A86" opacity="1">5</text><text text-anchor="middle" transform="translate(137.5,15)" font-family="Georgia" font-size="10px" fill="#676A86" opacity="1">9</text><text text-anchor="middle" transform="translate(162.5,15)" font-family="Georgia" font-size="10px" fill="#676A86" opacity="1">10</text><text text-anchor="middle" transform="translate(187.5,15)" font-family="Georgia" font-size="10px" fill="#676A86" opacity="1">14</text><text text-anchor="middle" transform="translate(212.5,15)" font-family="Georgia" font-size="10px" fill="#676A86" opacity="1">15</text><text text-anchor="middle" transform="translate(237.5,15)" font-family="Georgia" font-size="10px" fill="#676A86" opacity="1">19</text><text text-anchor="middle" transform="translate(262.5,15)" font-family="Georgia" font-size="10px" fill="#676A86" opacity="1">20</text><text text-anchor="middle" transform="translate(287.5,15)" font-family="Georgia" font-size="10px" fill="#676A86" opacity="1">24</text><text text-anchor="middle" transform="translate(312.5,15)" font-family="Georgia" font-size="10px" fill="#676A86" opacity="1">25</text><text text-anchor="middle" transform="translate(337.5,15)" font-family="Georgia" font-size="10px" fill="#676A86" opacity="1">29</text><text text-anchor="middle" transform="translate(362.5,15)" font-family="Georgia" font-size="10px" fill="#676A86" opacity="1">30</text><text text-anchor="middle" transform="translate(387.5,15)" font-family="Georgia" font-size="10px" fill="#676A86" opacity="1">34</text></g><g class="mark-rule role-axis-domain" pointer-events="none"><line transform="translate(0,0)" x2="400" y2="0" stroke="#676A86" stroke-width="1" opacity="1"/></g><g class="mark-text role-axis-title" pointer-events="none"><text text-anchor="end" transform="translate(400,-6)" font-family="Georgia" font-size="11px" font-weight="bold" fill="#676A86" opacity="1">Temperature (°C)</text></g></g><path class="foreground" aria-hidden="true" d="" pointer-events="none" display="none"/></g></g><g class="mark-group role-axis" role="graphics-symbol" aria-roledescription="axis" aria-label="Y-axis titled 'log-yield (bu per hectare)' for a linear scale with values from −0.14 to 0.08"><g transform="translate(0.5,0.5)"><path class="background" aria-hidden="true" d="M0,0h0v0h0Z" pointer-events="none"/><g><g class="mark-text role-axis-label" pointer-events="none"><text text-anchor="start" transform="translate(5,239.45454545454544)" font-family="Georgia" font-size="12px" fill="#676A86" opacity="1">−0.10</text><text text-anchor="start" transform="translate(5,171.27272727272728)" font-family="Georgia" font-size="12px" fill="#676A86" opacity="1">−0.05</text><text text-anchor="start" transform="translate(5,103.0909090909091)" font-family="Georgia" font-size="12px" fill="#676A86" opacity="1">0.00</text><text text-anchor="start" transform="translate(5,34.90909090909094)" font-family="Georgia" font-size="12px" fill="#676A86" opacity="1">0.05</text></g><g class="mark-rule role-axis-domain" pointer-events="none"><line transform="translate(0,300)" x2="0" y2="-300" stroke="#676A86" stroke-width="1" opacity="1"/></g><g class="mark-text role-axis-title" pointer-events="none"><text text-anchor="start" transform="translate(33,37)" font-family="Georgia" font-size="12px" font-weight="normal" fill="#676A86" opacity="1">log-yield (bu per hectare)</text></g></g><path class="foreground" aria-hidden="true" d="" pointer-events="none" display="none"/></g></g><g class="mark-line role-mark layer_0_marks" role="graphics-object" aria-roledescription="line mark container"><path aria-label="x: -5; z: 0" role="graphics-symbol" aria-roledescription="line mark" d="M12.5,109.0909090909091L37.5,109.0909090909091L62.5,109.0909090909091L87.5,109.0909090909091L112.5,109.0909090909091L137.5,109.0909090909091L162.5,109.0909090909091L187.5,109.0909090909091L212.5,109.0909090909091L237.5,109.0909090909091L262.5,109.0909090909091L287.5,109.0909090909091L312.5,109.0909090909091L337.5,109.0909090909091L362.5,109.0909090909091L387.5,109.0909090909091" stroke="#676A86" stroke-width="2" opacity="0.5"/></g><g class="mark-area role-mark layer_1_marks" role="graphics-object" aria-roledescription="area mark container"><path aria-label="x: -5; bottom: −0.00744347542403; top: 0.0492188790391" role="graphics-symbol" aria-roledescription="area mark" d="M12.5,119.24110285095055L37.5,119.27495758132845L62.5,137.63205559860697L87.5,137.66674970246538L112.5,112.27290400747665L137.5,111.95534104070917L162.5,150.774126181896L187.5,150.4560036328083L212.5,129.29651735549223L237.5,128.97811501524436L262.5,147.68663072966822L287.5,147.36906776290078L312.5,93.04453631749881L337.5,93.0792304213571L362.5,283.2566394675462L387.5,283.2566394675462L387.5,177.79915434054465L362.5,178.1172768896325L337.5,16.51773694091088L312.5,16.83585948999861L287.5,85.97924994145382L262.5,85.94371646411498L237.5,64.76604376138924L212.5,64.73162944869111L187.5,79.89239325244448L162.5,80.2113551750126L137.5,54.445387237027774L112.5,54.445387237027774L87.5,55.11101040701878L62.5,55.07267901807862L37.5,42.36148682141675L12.5,41.97425585577243Z" fill="#36B7B4" opacity="0.2"/></g><g class="mark-line role-mark layer_2_marks" role="graphics-object" aria-roledescription="line mark container"><path aria-label="x: -5; a: 0.02" role="graphics-symbol" aria-roledescription="line mark" d="M12.5,81.13662454162048L37.5,81.17215801895922L62.5,96.70476427454865L87.5,96.0343846548352L112.5,82.98912181295726L137.5,83.37775173440208L162.5,115.49246088729411L187.5,116.23278829704451L212.5,97.18992214624448L237.5,97.22573541474328L262.5,116.63876527041846L287.5,117.37965226248915L312.5,55.64569131406066L337.5,55.68094500023919L362.5,230.6872379697495L387.5,230.6872379697495" stroke="#36B7B4" stroke-width="2"/></g><g class="mark-group role-title"><g transform="translate(0,-32)"><path class="background" aria-hidden="true" d="M0,0h0v0h0Z" pointer-events="none"/><g><g class="mark-text role-title-text" role="graphics-symbol" aria-roledescription="title" aria-label="Title text 'Effects of temperature on wheat yields'" pointer-events="none"><text text-anchor="start" transform="translate(5,4)" font-family="Georgia" font-size="14px" font-weight="bold" fill="#F4134D" opacity="1">Effects of temperature on wheat yields</text></g><g class="mark-text role-title-subtitle" role="graphics-symbol" aria-roledescription="subtitle" aria-label="Subtitle text 'Data from South Africa. Source: Shew et al. (2020)'" pointer-events="none"><text text-anchor="start" transform="translate(5,19)" font-family="Georgia" font-size="12px" font-style="italic" fill="#F4134D" opacity="1">Data from South Africa. Source: Shew et al. (2020)</text></g></g><path class="foreground" aria-hidden="true" d="" pointer-events="none" display="none"/></g></g></g><path class="foreground" aria-hidden="true" d="" display="none"/></g></g></g></svg>