<svg xmlns="http://www.w3.org/2000/svg" xmlns:xlink="http://www.w3.org/1999/xlink" version="1.1" class="marks" width="517" height="367" viewBox="0 0 517 367"><rect width="517" height="367" fill="white"/><g fill="none" stroke-miterlimit="10" transform="translate(6,45)"><g class="mark-group role-frame root" role="graphics-object" aria-roledescription="group mark container"><g transform="translate(0,0)"><path class="background" aria-hidden="true" d="M0,0h400v300h-400Z"/><g><g class="mark-group role-axis" aria-hidden="true"><g transform="translate(0.5,0.5)"><path class="background" aria-hidden="true" d="M0,0h0v0h0Z" pointer-events="none"/><g><g class="mark-rule role-axis-grid" pointer-events="none"><line transform="translate(0,263)" x2="400" y2="0" stroke="#676A86" stroke-opacity="0.1" stroke-width="1" opacity="1"/><line transform="translate(0,200)" x2="400" y2="0" stroke="#676A86" stroke-opacity="0.1" stroke-width="1" opacity="1"/><line transform="translate(0,138)" x2="400" y2="0" stroke="#676A86" stroke-opacity="0.1" stroke-width="1" opacity="1"/><line transform="translate(0,75)" x2="400" y2="0" stroke="#676A86" stroke-opacity="0.1" stroke-width="1" opacity="1"/><line transform="translate(0,13)" x2="400" y2="0" stroke="#676A86" stroke-opacity="0.1" stroke-width="1" opacity="1"/></g></g><path class="foreground" aria-hidden="true" d="" pointer-events="none" display="none"/></g></g><g class="mark-group role-axis" role="graphics-symbol" aria-roledescription="axis" aria-label="X-axis for a linear scale with values from 1894 to 2027"><g transform="translate(0.5,300.5)"><path class="background" aria-hidden="true" d="M0,0h0v0h0Z" pointer-events="none"/><g><g class="mark-rule role-axis-tick" pointer-events="none"><line transform="translate(17,0)" x2="0" y2="5" stroke="#676A86" stroke-width="1" opacity="1"/><line transform="translate(78,0)" x2="0" y2="5" stroke="#676A86" stroke-width="1" opacity="1"/><line transform="translate(138,0)" x2="0" y2="5" stroke="#676A86" stroke-width="1" opacity="1"/><line transform="translate(198,0)" x2="0" y2="5" stroke="#676A86" stroke-width="1" opacity="1"/><line transform="translate(259,0)" x2="0" y2="5" stroke="#676A86" stroke-width="1" opacity="1"/><line transform="translate(319,0)" x2="0" y2="5" stroke="#676A86" stroke-width="1" opacity="1"/><line transform="translate(380,0)" x2="0" y2="5" stroke="#676A86" stroke-width="1" opacity="1"/></g><g class="mark-text role-axis-label" pointer-events="none"><text text-anchor="middle" transform="translate(17.09302325581405,15)" font-family="sans-serif" font-size="10px" fill="#676A86" opacity="1">1900</text><text text-anchor="middle" transform="translate(77.55813953488378,15)" font-family="sans-serif" font-size="10px" fill="#676A86" opacity="1">1920</text><text text-anchor="middle" transform="translate(138.0232558139535,15)" font-family="sans-serif" font-size="10px" fill="#676A86" opacity="1">1940</text><text text-anchor="middle" transform="translate(198.48837209302326,15)" font-family="sans-serif" font-size="10px" fill="#676A86" opacity="1">1960</text><text text-anchor="middle" transform="translate(258.953488372093,15)" font-family="sans-serif" font-size="10px" fill="#676A86" opacity="1">1980</text><text text-anchor="middle" transform="translate(319.4186046511627,15)" font-family="sans-serif" font-size="10px" fill="#676A86" opacity="1">2000</text><text text-anchor="middle" transform="translate(379.88372093023247,15)" font-family="sans-serif" font-size="10px" fill="#676A86" opacity="1">2020</text></g><g class="mark-rule role-axis-domain" pointer-events="none"><line transform="translate(0,0)" x2="400" y2="0" stroke="#676A86" stroke-width="1" opacity="1"/></g></g><path class="foreground" aria-hidden="true" d="" pointer-events="none" display="none"/></g></g><g class="mark-group role-axis" role="graphics-symbol" aria-roledescription="axis" aria-label="Y-axis titled '°C' for a linear scale with values from −0.8 to 1.6"><g transform="translate(0.5,0.5)"><path class="background" aria-hidden="true" d="M0,0h0v0h0Z" pointer-events="none"/><g><g class="mark-text role-axis-label" pointer-events="none"><text text-anchor="start" transform="translate(5,255.5)" font-family="sans-serif" font-size="10px" fill="#676A86" opacity="1">−0.5</text><text text-anchor="start" transform="translate(5,193.00000000000003)" font-family="sans-serif" font-size="10px" fill="#676A86" opacity="1">0.0</text><text text-anchor="start" transform="translate(5,130.5)" font-family="sans-serif" font-size="10px" fill="#676A86" opacity="1">0.5</text><text text-anchor="start" transform="translate(5,68.00000000000003)" font-family="sans-serif" font-size="10px" fill="#676A86" opacity="1">1.0</text><text text-anchor="start" transform="translate(5,5.500000000000055)" font-family="sans-serif" font-size="10px" fill="#676A86" opacity="1">1.5</text></g><g class="mark-rule role-axis-domain" pointer-events="none"><line transform="translate(0,300)" x2="0" y2="-300" stroke="#676A86" stroke-width="1" opacity="1"/></g><g class="mark-text role-axis-title" pointer-events="none"><text text-anchor="start" transform="translate(22,5)" font-family="sans-serif" font-size="10px" font-weight="normal" fill="#676A86" opacity="1">°C</text></g></g><path class="foreground" aria-hidden="true" d="" pointer-events="none" display="none"/></g></g><g class="mark-rect role-mark layer_0_marks" role="graphics-object" aria-roledescription="rect mark container"><path aria-label="Year: 1926; Value: 0.0" role="graphics-symbol" aria-roledescription="bar" d="M93.1976744186047,196.25h5v3.7500000000000284h-5Z" fill="#F4134D"/><path aria-label="Year: 1931; Value: 0.3" role="graphics-symbol" aria-roledescription="bar" d="M108.31395348837214,163.75000000000003h5v36.25h-5Z" fill="#F4134D"/><path aria-label="Year: 1937; Value: 0.0" role="graphics-symbol" aria-roledescription="bar" d="M126.45348837209306,195h5v5.000000000000028h-5Z" fill="#F4134D"/><path aria-label="Year: 1940; Value: 0.1" role="graphics-symbol" aria-roledescription="bar" d="M135.5232558139535,185h5v15.000000000000028h-5Z" fill="#F4134D"/><path aria-label="Year: 1941; Value: 0.4" role="graphics-symbol" aria-roledescription="bar" d="M138.546511627907,150h5v50.00000000000003h-5Z" fill="#F4134D"/><path aria-label="Year: 1942; Value: 0.2" role="graphics-symbol" aria-roledescription="bar" d="M141.56976744186048,173.75000000000003h5v26.25h-5Z" fill="#F4134D"/><path aria-label="Year: 1947; Value: 0.1" role="graphics-symbol" aria-roledescription="bar" d="M156.68604651162792,182.50000000000003h5v17.5h-5Z" fill="#F4134D"/><path aria-label="Year: 1958; Value: 0.2" role="graphics-symbol" aria-roledescription="bar" d="M189.9418604651163,176.25000000000003h5v23.75h-5Z" fill="#F4134D"/><path aria-label="Year: 1960; Value: 0.1" role="graphics-symbol" aria-roledescription="bar" d="M195.98837209302326,192.49999999999997h5v7.500000000000057h-5Z" fill="#F4134D"/><path aria-label="Year: 1963; Value: 0.0" role="graphics-symbol" aria-roledescription="bar" d="M205.05813953488374,195h5v5.000000000000028h-5Z" fill="#F4134D"/><path aria-label="Year: 1966; Value: 0.1" role="graphics-symbol" aria-roledescription="bar" d="M214.12790697674419,186.25h5v13.750000000000028h-5Z" fill="#F4134D"/><path aria-label="Year: 1969; Value: 0.3" role="graphics-symbol" aria-roledescription="bar" d="M223.19767441860463,160.00000000000003h5v40h-5Z" fill="#F4134D"/><path aria-label="Year: 1970; Value: 0.1" role="graphics-symbol" aria-roledescription="bar" d="M226.22093023255812,183.75h5v16.25000000000003h-5Z" fill="#F4134D"/><path aria-label="Year: 1973; Value: 0.3" role="graphics-symbol" aria-roledescription="bar" d="M235.2906976744186,167.5h5v32.50000000000003h-5Z" fill="#F4134D"/><path aria-label="Year: 1977; Value: 0.1" role="graphics-symbol" aria-roledescription="bar" d="M247.38372093023253,183.75h5v16.25000000000003h-5Z" fill="#F4134D"/><path aria-label="Year: 1978; Value: 0.1" role="graphics-symbol" aria-roledescription="bar" d="M250.406976744186,191.25h5v8.750000000000028h-5Z" fill="#F4134D"/><path aria-label="Year: 1979; Value: 0.3" role="graphics-symbol" aria-roledescription="bar" d="M253.4302325581395,157.5h5v42.50000000000003h-5Z" fill="#F4134D"/><path aria-label="Year: 1980; Value: 0.3" role="graphics-symbol" aria-roledescription="bar" d="M256.453488372093,160.00000000000003h5v40h-5Z" fill="#F4134D"/><path aria-label="Year: 1981; Value: 0.1" role="graphics-symbol" aria-roledescription="bar" d="M259.47674418604646,187.5h5v12.500000000000028h-5Z" fill="#F4134D"/><path aria-label="Year: 1982; Value: 0.1" role="graphics-symbol" aria-roledescription="bar" d="M262.49999999999994,193.75h5v6.250000000000028h-5Z" fill="#F4134D"/><path aria-label="Year: 1983; Value: 0.4" role="graphics-symbol" aria-roledescription="bar" d="M265.5232558139534,148.75000000000003h5v51.25h-5Z" fill="#F4134D"/><path aria-label="Year: 1984; Value: 0.2" role="graphics-symbol" aria-roledescription="bar" d="M268.54651162790697,172.50000000000003h5v27.5h-5Z" fill="#F4134D"/><path aria-label="Year: 1985; Value: 0.2" role="graphics-symbol" aria-roledescription="bar" d="M271.56976744186045,172.50000000000003h5v27.5h-5Z" fill="#F4134D"/><path aria-label="Year: 1986; Value: 0.2" role="graphics-symbol" aria-roledescription="bar" d="M274.59302325581393,175h5v25.00000000000003h-5Z" fill="#F4134D"/><path aria-label="Year: 1987; Value: 0.8" role="graphics-symbol" aria-roledescription="bar" d="M277.6162790697674,103.75000000000003h5v96.25h-5Z" fill="#F4134D"/><path aria-label="Year: 1988; Value: 0.4" role="graphics-symbol" aria-roledescription="bar" d="M280.6395348837209,148.75000000000003h5v51.25h-5Z" fill="#F4134D"/><path aria-label="Year: 1989; Value: 0.0" role="graphics-symbol" aria-roledescription="bar" d="M283.6627906976744,195h5v5.000000000000028h-5Z" fill="#F4134D"/><path aria-label="Year: 1990; Value: 0.6" role="graphics-symbol" aria-roledescription="bar" d="M286.68604651162786,131.25h5v68.75000000000003h-5Z" fill="#F4134D"/><path aria-label="Year: 1991; Value: 0.3" role="graphics-symbol" aria-roledescription="bar" d="M289.70930232558135,165h5v35.00000000000003h-5Z" fill="#F4134D"/><path aria-label="Year: 1992; Value: 0.1" role="graphics-symbol" aria-roledescription="bar" d="M292.73255813953483,185h5v15.000000000000028h-5Z" fill="#F4134D"/><path aria-label="Year: 1993; Value: 0.4" role="graphics-symbol" aria-roledescription="bar" d="M295.7558139534883,148.75000000000003h5v51.25h-5Z" fill="#F4134D"/><path aria-label="Year: 1994; Value: 0.3" role="graphics-symbol" aria-roledescription="bar" d="M298.7790697674418,165h5v35.00000000000003h-5Z" fill="#F4134D"/><path aria-label="Year: 1995; Value: 0.5" role="graphics-symbol" aria-roledescription="bar" d="M301.8023255813953,132.50000000000003h5v67.5h-5Z" fill="#F4134D"/><path aria-label="Year: 1996; Value: 0.5" role="graphics-symbol" aria-roledescription="bar" d="M304.82558139534876,138.75h5v61.25000000000003h-5Z" fill="#F4134D"/><path aria-label="Year: 1997; Value: 0.5" role="graphics-symbol" aria-roledescription="bar" d="M307.84883720930225,140.00000000000003h5v60h-5Z" fill="#F4134D"/><path aria-label="Year: 1998; Value: 0.9" role="graphics-symbol" aria-roledescription="bar" d="M310.87209302325573,83.75000000000003h5v116.25h-5Z" fill="#F4134D"/><path aria-label="Year: 1999; Value: 0.7" role="graphics-symbol" aria-roledescription="bar" d="M313.8953488372092,116.24999999999999h5v83.75000000000004h-5Z" fill="#F4134D"/><path aria-label="Year: 2000; Value: 0.5" role="graphics-symbol" aria-roledescription="bar" d="M316.9186046511627,142.50000000000003h5v57.5h-5Z" fill="#F4134D"/><path aria-label="Year: 2001; Value: 0.7" role="graphics-symbol" aria-roledescription="bar" d="M319.9418604651162,115.00000000000003h5v85h-5Z" fill="#F4134D"/><path aria-label="Year: 2002; Value: 0.8" role="graphics-symbol" aria-roledescription="bar" d="M322.96511627906966,93.75000000000003h5v106.25h-5Z" fill="#F4134D"/><path aria-label="Year: 2003; Value: 0.9" role="graphics-symbol" aria-roledescription="bar" d="M325.98837209302314,83.75000000000003h5v116.25h-5Z" fill="#F4134D"/><path aria-label="Year: 2004; Value: 0.8" role="graphics-symbol" aria-roledescription="bar" d="M329.0116279069767,96.25000000000006h5v103.74999999999997h-5Z" fill="#F4134D"/><path aria-label="Year: 2005; Value: 1.0" role="graphics-symbol" aria-roledescription="bar" d="M332.03488372093017,70.00000000000001h5v130h-5Z" fill="#F4134D"/><path aria-label="Year: 2006; Value: 0.8" role="graphics-symbol" aria-roledescription="bar" d="M335.05813953488365,100.00000000000001h5v100.00000000000001h-5Z" fill="#F4134D"/><path aria-label="Year: 2007; Value: 0.8" role="graphics-symbol" aria-roledescription="bar" d="M338.08139534883713,100.00000000000001h5v100.00000000000001h-5Z" fill="#F4134D"/><path aria-label="Year: 2008; Value: 0.7" role="graphics-symbol" aria-roledescription="bar" d="M341.1046511627906,111.25000000000004h5v88.74999999999999h-5Z" fill="#F4134D"/><path aria-label="Year: 2009; Value: 1.0" role="graphics-symbol" aria-roledescription="bar" d="M344.1279069767441,78.75000000000001h5v121.25000000000001h-5Z" fill="#F4134D"/><path aria-label="Year: 2010; Value: 1.4" role="graphics-symbol" aria-roledescription="bar" d="M347.15116279069764,20.00000000000003h5v180h-5Z" fill="#F4134D"/><path aria-label="Year: 2011; Value: 0.8" role="graphics-symbol" aria-roledescription="bar" d="M350.1744186046511,100.00000000000001h5v100.00000000000001h-5Z" fill="#F4134D"/><path aria-label="Year: 2012; Value: 0.8" role="graphics-symbol" aria-roledescription="bar" d="M353.1976744186046,96.25000000000006h5v103.74999999999997h-5Z" fill="#F4134D"/><path aria-label="Year: 2013; Value: 0.9" role="graphics-symbol" aria-roledescription="bar" d="M356.2209302325581,83.75000000000003h5v116.25h-5Z" fill="#F4134D"/><path aria-label="Year: 2014; Value: 1.0" role="graphics-symbol" aria-roledescription="bar" d="M359.2441860465116,76.25000000000003h5v123.75h-5Z" fill="#F4134D"/><path aria-label="Year: 2015; Value: 1.2" role="graphics-symbol" aria-roledescription="bar" d="M362.26744186046506,53.75000000000004h5v146.25h-5Z" fill="#F4134D"/><path aria-label="Year: 2016; Value: 1.4" role="graphics-symbol" aria-roledescription="bar" d="M365.29069767441854,21.250000000000057h5v178.74999999999997h-5Z" fill="#F4134D"/><path aria-label="Year: 2017; Value: 1.1" role="graphics-symbol" aria-roledescription="bar" d="M368.313953488372,61.250000000000014h5v138.75h-5Z" fill="#F4134D"/><path aria-label="Year: 2018; Value: 1.1" role="graphics-symbol" aria-roledescription="bar" d="M371.3372093023255,58.75000000000006h5v141.24999999999997h-5Z" fill="#F4134D"/><path aria-label="Year: 2019; Value: 1.3" role="graphics-symbol" aria-roledescription="bar" d="M374.360465116279,38.750000000000064h5v161.24999999999997h-5Z" fill="#F4134D"/><path aria-label="Year: 2020; Value: 1.2" role="graphics-symbol" aria-roledescription="bar" d="M377.38372093023247,51.25000000000005h5v148.74999999999997h-5Z" fill="#F4134D"/></g><g class="mark-rect role-mark layer_1_marks" role="graphics-object" aria-roledescription="rect mark container"><path aria-label="Year: 1910; Value: −0.35" role="graphics-symbol" aria-roledescription="bar" d="M44.82558139534892,200.00000000000003h5v43.74999999999997h-5Z" fill="#179FDB"/><path aria-label="Year: 1911; Value: −0.56" role="graphics-symbol" aria-roledescription="bar" d="M47.8488372093024,200.00000000000003h5v69.99999999999997h-5Z" fill="#179FDB"/><path aria-label="Year: 1912; Value: −0.19" role="graphics-symbol" aria-roledescription="bar" d="M50.87209302325589,200.00000000000003h5v23.74999999999997h-5Z" fill="#179FDB"/><path aria-label="Year: 1913; Value: −0.08" role="graphics-symbol" aria-roledescription="bar" d="M53.89534883720938,200.00000000000003h5v9.999999999999972h-5Z" fill="#179FDB"/><path aria-label="Year: 1915; Value: −0.02" role="graphics-symbol" aria-roledescription="bar" d="M59.94186046511635,200.00000000000003h5v2.4999999999999716h-5Z" fill="#179FDB"/><path aria-label="Year: 1916; Value: −0.41" role="graphics-symbol" aria-roledescription="bar" d="M62.96511627906983,200.00000000000003h5v51.24999999999997h-5Z" fill="#179FDB"/><path aria-label="Year: 1917; Value: −0.47" role="graphics-symbol" aria-roledescription="bar" d="M65.98837209302333,200.00000000000003h5v58.74999999999997h-5Z" fill="#179FDB"/><path aria-label="Year: 1918; Value: −0.64" role="graphics-symbol" aria-roledescription="bar" d="M69.01162790697681,200.00000000000003h5v79.99999999999997h-5Z" fill="#179FDB"/><path aria-label="Year: 1919; Value: −0.11" role="graphics-symbol" aria-roledescription="bar" d="M72.0348837209303,200.00000000000003h5v13.749999999999972h-5Z" fill="#179FDB"/><path aria-label="Year: 1920; Value: −0.4" role="graphics-symbol" aria-roledescription="bar" d="M75.05813953488378,200.00000000000003h5v49.99999999999997h-5Z" fill="#179FDB"/><path aria-label="Year: 1921; Value: −0.46" role="graphics-symbol" aria-roledescription="bar" d="M78.08139534883728,200.00000000000003h5v57.49999999999997h-5Z" fill="#179FDB"/><path aria-label="Year: 1922; Value: −0.18" role="graphics-symbol" aria-roledescription="bar" d="M81.10465116279076,200.00000000000003h5v22.49999999999997h-5Z" fill="#179FDB"/><path aria-label="Year: 1923; Value: −0.37" role="graphics-symbol" aria-roledescription="bar" d="M84.12790697674426,200.00000000000003h5v46.24999999999997h-5Z" fill="#179FDB"/><path aria-label="Year: 1924; Value: −0.07" role="graphics-symbol" aria-roledescription="bar" d="M87.15116279069774,200.00000000000003h5v8.749999999999972h-5Z" fill="#179FDB"/><path aria-label="Year: 1925; Value: −0.27" role="graphics-symbol" aria-roledescription="bar" d="M90.17441860465122,200.00000000000003h5v33.74999999999997h-5Z" fill="#179FDB"/><path aria-label="Year: 1927; Value: −0.09" role="graphics-symbol" aria-roledescription="bar" d="M96.22093023255819,200.00000000000003h5v11.249999999999943h-5Z" fill="#179FDB"/><path aria-label="Year: 1928; Value: −0.07" role="graphics-symbol" aria-roledescription="bar" d="M99.24418604651167,200.00000000000003h5v8.749999999999972h-5Z" fill="#179FDB"/><path aria-label="Year: 1929; Value: −0.3" role="graphics-symbol" aria-roledescription="bar" d="M102.26744186046515,200.00000000000003h5v37.5h-5Z" fill="#179FDB"/><path aria-label="Year: 1930; Value: −0.19" role="graphics-symbol" aria-roledescription="bar" d="M105.29069767441865,200.00000000000003h5v23.74999999999997h-5Z" fill="#179FDB"/><path aria-label="Year: 1932; Value: −0.13" role="graphics-symbol" aria-roledescription="bar" d="M111.33720930232563,200.00000000000003h5v16.25h-5Z" fill="#179FDB"/><path aria-label="Year: 1933; Value: −0.03" role="graphics-symbol" aria-roledescription="bar" d="M114.36046511627912,200.00000000000003h5v3.7499999999999716h-5Z" fill="#179FDB"/><path aria-label="Year: 1934; Value: −0.11" role="graphics-symbol" aria-roledescription="bar" d="M117.38372093023261,200.00000000000003h5v13.749999999999972h-5Z" fill="#179FDB"/><path aria-label="Year: 1935; Value: −0.18" role="graphics-symbol" aria-roledescription="bar" d="M120.4069767441861,200.00000000000003h5v22.49999999999997h-5Z" fill="#179FDB"/><path aria-label="Year: 1936; Value: −0.1" role="graphics-symbol" aria-roledescription="bar" d="M123.43023255813958,200.00000000000003h5v12.499999999999972h-5Z" fill="#179FDB"/><path aria-label="Year: 1938; Value: −0.07" role="graphics-symbol" aria-roledescription="bar" d="M129.47674418604655,200.00000000000003h5v8.749999999999972h-5Z" fill="#179FDB"/><path aria-label="Year: 1939; Value: −0.13" role="graphics-symbol" aria-roledescription="bar" d="M132.50000000000003,200.00000000000003h5v16.25h-5Z" fill="#179FDB"/><path aria-label="Year: 1943; Value: −0.26" role="graphics-symbol" aria-roledescription="bar" d="M144.59302325581396,200.00000000000003h5v32.49999999999997h-5Z" fill="#179FDB"/><path aria-label="Year: 1945; Value: −0.1" role="graphics-symbol" aria-roledescription="bar" d="M150.63953488372096,200.00000000000003h5v12.499999999999972h-5Z" fill="#179FDB"/><path aria-label="Year: 1946; Value: −0.04" role="graphics-symbol" aria-roledescription="bar" d="M153.66279069767444,200.00000000000003h5v4.999999999999972h-5Z" fill="#179FDB"/><path aria-label="Year: 1948; Value: −0.26" role="graphics-symbol" aria-roledescription="bar" d="M159.7093023255814,200.00000000000003h5v32.49999999999997h-5Z" fill="#179FDB"/><path aria-label="Year: 1949; Value: −0.01" role="graphics-symbol" aria-roledescription="bar" d="M162.7325581395349,200.00000000000003h5v1.25h-5Z" fill="#179FDB"/><path aria-label="Year: 1950; Value: −0.32" role="graphics-symbol" aria-roledescription="bar" d="M165.7558139534884,200.00000000000003h5v39.99999999999997h-5Z" fill="#179FDB"/><path aria-label="Year: 1951; Value: −0.15" role="graphics-symbol" aria-roledescription="bar" d="M168.77906976744188,200.00000000000003h5v18.75h-5Z" fill="#179FDB"/><path aria-label="Year: 1952; Value: −0.02" role="graphics-symbol" aria-roledescription="bar" d="M171.80232558139537,200.00000000000003h5v2.4999999999999716h-5Z" fill="#179FDB"/><path aria-label="Year: 1953; Value: −0.2" role="graphics-symbol" aria-roledescription="bar" d="M174.82558139534885,200.00000000000003h5v24.99999999999997h-5Z" fill="#179FDB"/><path aria-label="Year: 1954; Value: −0.3" role="graphics-symbol" aria-roledescription="bar" d="M177.84883720930233,200.00000000000003h5v37.5h-5Z" fill="#179FDB"/><path aria-label="Year: 1955; Value: −0.13" role="graphics-symbol" aria-roledescription="bar" d="M180.87209302325584,200.00000000000003h5v16.25h-5Z" fill="#179FDB"/><path aria-label="Year: 1956; Value: −0.39" role="graphics-symbol" aria-roledescription="bar" d="M183.89534883720933,200.00000000000003h5v48.75h-5Z" fill="#179FDB"/><path aria-label="Year: 1957; Value: −0.17" role="graphics-symbol" aria-roledescription="bar" d="M186.9186046511628,200.00000000000003h5v21.24999999999997h-5Z" fill="#179FDB"/><path aria-label="Year: 1959; Value: −0.09" role="graphics-symbol" aria-roledescription="bar" d="M192.96511627906978,200.00000000000003h5v11.249999999999943h-5Z" fill="#179FDB"/><path aria-label="Year: 1961; Value: −0.2" role="graphics-symbol" aria-roledescription="bar" d="M199.01162790697677,200.00000000000003h5v24.99999999999997h-5Z" fill="#179FDB"/><path aria-label="Year: 1962; Value: −0.03" role="graphics-symbol" aria-roledescription="bar" d="M202.03488372093025,200.00000000000003h5v3.7499999999999716h-5Z" fill="#179FDB"/><path aria-label="Year: 1964; Value: −0.28" role="graphics-symbol" aria-roledescription="bar" d="M208.08139534883722,200.00000000000003h5v34.99999999999997h-5Z" fill="#179FDB"/><path aria-label="Year: 1965; Value: −0.28" role="graphics-symbol" aria-roledescription="bar" d="M211.1046511627907,200.00000000000003h5v34.99999999999997h-5Z" fill="#179FDB"/><path aria-label="Year: 1967; Value: −0.33" role="graphics-symbol" aria-roledescription="bar" d="M217.15116279069767,200.00000000000003h5v41.24999999999997h-5Z" fill="#179FDB"/><path aria-label="Year: 1968; Value: −0.23" role="graphics-symbol" aria-roledescription="bar" d="M220.17441860465115,200.00000000000003h5v28.74999999999997h-5Z" fill="#179FDB"/><path aria-label="Year: 1971; Value: −0.24" role="graphics-symbol" aria-roledescription="bar" d="M229.2441860465116,200.00000000000003h5v30h-5Z" fill="#179FDB"/><path aria-label="Year: 1972; Value: −0.02" role="graphics-symbol" aria-roledescription="bar" d="M232.2674418604651,200.00000000000003h5v2.4999999999999716h-5Z" fill="#179FDB"/><path aria-label="Year: 1974; Value: −0.3" role="graphics-symbol" aria-roledescription="bar" d="M238.31395348837208,200.00000000000003h5v37.5h-5Z" fill="#179FDB"/><path aria-label="Year: 1975; Value: −0.26" role="graphics-symbol" aria-roledescription="bar" d="M241.33720930232556,200.00000000000003h5v32.49999999999997h-5Z" fill="#179FDB"/><path aria-label="Year: 1976; Value: −0.27" role="graphics-symbol" aria-roledescription="bar" d="M244.36046511627904,200.00000000000003h5v33.74999999999997h-5Z" fill="#179FDB"/></g><g class="mark-line role-mark layer_2_marks" role="graphics-object" aria-roledescription="line mark container"><path aria-label="x: 1895; y: 0" role="graphics-symbol" aria-roledescription="line mark" d="M1.9767441860466164,200.00000000000003L394.9999999999999,200.00000000000003" stroke="#676A86" stroke-width="2"/></g><g class="mark-text role-mark layer_3_marks" role="graphics-object" aria-roledescription="text mark container"><text aria-label="t: 20th century average; x: 2025; y: 0" role="graphics-symbol" aria-roledescription="text mark" text-anchor="end" transform="translate(394.9999999999999,214.00000000000003)" font-family="sans-serif" font-size="11px" fill="#676A86">20th century average</text></g><g class="mark-group role-title"><g transform="translate(-0.02325581395338361,-34)"><path class="background" aria-hidden="true" d="M0,0h0v0h0Z" pointer-events="none"/><g><g class="mark-text role-title-text" role="graphics-symbol" aria-roledescription="title" aria-label="Title text 'Temperature anomaly in Africa'" pointer-events="none"><text text-anchor="start" transform="translate(5,4)" font-family="sans-serif" font-size="12px" font-weight="bold" fill="#000" opacity="1">Temperature anomaly in Africa</text></g><g class="mark-text role-title-subtitle" role="graphics-symbol" aria-roledescription="subtitle" aria-label="Subtitle text 'January-December temperatures compared to the 20th century average. Source: NOAA'" pointer-events="none"><text text-anchor="start" transform="translate(5,19)" font-family="sans-serif" font-size="11px" font-style="italic" fill="#000" opacity="1">January-December temperatures compared to the 20th century average. Source: NOAA</text></g></g><path class="foreground" aria-hidden="true" d="" pointer-events="none" display="none"/></g></g></g><path class="foreground" aria-hidden="true" d="" display="none"/></g></g></g></svg>