<svg xmlns="http://www.w3.org/2000/svg" xmlns:xlink="http://www.w3.org/1999/xlink" version="1.1" class="marks" width="431" height="343" viewBox="0 0 431 343"><rect width="431" height="343" fill="white"/><g fill="none" stroke-miterlimit="10" transform="translate(24,21)"><g class="mark-group role-frame root" role="graphics-object" aria-roledescription="group mark container"><g transform="translate(0,0)"><path class="background" aria-hidden="true" d="M0,0h400v300h-400Z"/><g><g class="mark-group role-axis" role="graphics-symbol" aria-roledescription="axis" aria-label="X-axis for a time scale with values from Saturday, 01 February 1997, 12:00:00 AM to Tuesday, 01 November 2022, 12:00:00 AM"><g transform="translate(0.5,300.5)"><path class="background" aria-hidden="true" d="M0,0h0v0h0Z" pointer-events="none"/><g><g class="mark-rule role-axis-tick" pointer-events="none"><line transform="translate(14,0)" x2="0" y2="5" stroke="#676A86" stroke-width="1" opacity="1"/><line transform="translate(45,0)" x2="0" y2="5" stroke="#676A86" stroke-width="1" opacity="1"/><line transform="translate(76,0)" x2="0" y2="5" stroke="#676A86" stroke-width="1" opacity="1"/><line transform="translate(107,0)" x2="0" y2="5" stroke="#676A86" stroke-width="1" opacity="1"/><line transform="translate(138,0)" x2="0" y2="5" stroke="#676A86" stroke-width="1" opacity="1"/><line transform="translate(170,0)" x2="0" y2="5" stroke="#676A86" stroke-width="1" opacity="1"/><line transform="translate(201,0)" x2="0" y2="5" stroke="#676A86" stroke-width="1" opacity="1"/><line transform="translate(232,0)" x2="0" y2="5" stroke="#676A86" stroke-width="1" opacity="1"/><line transform="translate(263,0)" x2="0" y2="5" stroke="#676A86" stroke-width="1" opacity="1"/><line transform="translate(294,0)" x2="0" y2="5" stroke="#676A86" stroke-width="1" opacity="1"/><line transform="translate(325,0)" x2="0" y2="5" stroke="#676A86" stroke-width="1" opacity="1"/><line transform="translate(356,0)" x2="0" y2="5" stroke="#676A86" stroke-width="1" opacity="1"/><line transform="translate(387,0)" x2="0" y2="5" stroke="#676A86" stroke-width="1" opacity="1"/></g><g class="mark-text role-axis-label" pointer-events="none"><text text-anchor="middle" transform="translate(14.206720544449169,15)" font-family="sans-serif" font-size="10px" fill="#676A86" opacity="1">1998</text><text text-anchor="middle" transform="translate(45.2573373032752,15)" font-family="sans-serif" font-size="10px" fill="#676A86" opacity="1">2000</text><text text-anchor="middle" transform="translate(76.35048915355168,15)" font-family="sans-serif" font-size="10px" fill="#676A86" opacity="1">2002</text><text text-anchor="middle" transform="translate(107.4011059123777,15)" font-family="sans-serif" font-size="10px" fill="#676A86" opacity="1">2004</text><text text-anchor="middle" transform="translate(138.49425776265417,15)" font-family="sans-serif" font-size="10px" fill="#676A86" opacity="1">2006</text><text text-anchor="middle" transform="translate(169.5448745214802,15)" font-family="sans-serif" font-size="10px" fill="#676A86" opacity="1">2008</text><text text-anchor="middle" transform="translate(200.6380263717567,15)" font-family="sans-serif" font-size="10px" fill="#676A86" opacity="1">2010</text><text text-anchor="middle" transform="translate(231.68864313058273,15)" font-family="sans-serif" font-size="10px" fill="#676A86" opacity="1">2012</text><text text-anchor="middle" transform="translate(262.7817949808592,15)" font-family="sans-serif" font-size="10px" fill="#676A86" opacity="1">2014</text><text text-anchor="middle" transform="translate(293.83241173968526,15)" font-family="sans-serif" font-size="10px" fill="#676A86" opacity="1">2016</text><text text-anchor="middle" transform="translate(324.9255635899617,15)" font-family="sans-serif" font-size="10px" fill="#676A86" opacity="1">2018</text><text text-anchor="middle" transform="translate(355.97618034878775,15)" font-family="sans-serif" font-size="10px" fill="#676A86" opacity="1">2020</text><text text-anchor="middle" transform="translate(387.0693321990642,15)" font-family="sans-serif" font-size="10px" fill="#676A86" opacity="1">2022</text></g><g class="mark-rule role-axis-domain" pointer-events="none"><line transform="translate(0,0)" x2="400" y2="0" stroke="#676A86" stroke-width="1" opacity="1"/></g></g><path class="foreground" aria-hidden="true" d="" pointer-events="none" display="none"/></g></g><g class="mark-group role-axis" role="graphics-symbol" aria-roledescription="axis" aria-label="Y-axis titled '£ billion, adjusted for inflation, 2019 constant prices' for a linear scale with values from 25 to 65"><g transform="translate(0.5,0.5)"><path class="background" aria-hidden="true" d="M0,0h0v0h0Z" pointer-events="none"/><g><g class="mark-rule role-axis-tick" pointer-events="none"><line transform="translate(0,300)" x2="-5" y2="0" stroke="#676A86" stroke-width="1" opacity="1"/><line transform="translate(0,263)" x2="-5" y2="0" stroke="#676A86" stroke-width="1" opacity="1"/><line transform="translate(0,225)" x2="-5" y2="0" stroke="#676A86" stroke-width="1" opacity="1"/><line transform="translate(0,188)" x2="-5" y2="0" stroke="#676A86" stroke-width="1" opacity="1"/><line transform="translate(0,150)" x2="-5" y2="0" stroke="#676A86" stroke-width="1" opacity="1"/><line transform="translate(0,113)" x2="-5" y2="0" stroke="#676A86" stroke-width="1" opacity="1"/><line transform="translate(0,75)" x2="-5" y2="0" stroke="#676A86" stroke-width="1" opacity="1"/><line transform="translate(0,38)" x2="-5" y2="0" stroke="#676A86" stroke-width="1" opacity="1"/><line transform="translate(0,0)" x2="-5" y2="0" stroke="#676A86" stroke-width="1" opacity="1"/></g><g class="mark-text role-axis-label" pointer-events="none"><text text-anchor="end" transform="translate(-7,303)" font-family="sans-serif" font-size="10px" fill="#676A86" opacity="1">25</text><text text-anchor="end" transform="translate(-7,265.5)" font-family="sans-serif" font-size="10px" fill="#676A86" opacity="1">30</text><text text-anchor="end" transform="translate(-7,228)" font-family="sans-serif" font-size="10px" fill="#676A86" opacity="1">35</text><text text-anchor="end" transform="translate(-7,190.5)" font-family="sans-serif" font-size="10px" fill="#676A86" opacity="1">40</text><text text-anchor="end" transform="translate(-7,153)" font-family="sans-serif" font-size="10px" fill="#676A86" opacity="1">45</text><text text-anchor="end" transform="translate(-7,115.5)" font-family="sans-serif" font-size="10px" fill="#676A86" opacity="1">50</text><text text-anchor="end" transform="translate(-7,78)" font-family="sans-serif" font-size="10px" fill="#676A86" opacity="1">55</text><text text-anchor="end" transform="translate(-7,40.5)" font-family="sans-serif" font-size="10px" fill="#676A86" opacity="1">60</text><text text-anchor="end" transform="translate(-7,3)" font-family="sans-serif" font-size="10px" fill="#676A86" opacity="1">65</text></g><g class="mark-rule role-axis-domain" pointer-events="none"><line transform="translate(0,300)" x2="0" y2="-300" stroke="#676A86" stroke-width="1" opacity="1"/></g><g class="mark-text role-axis-title" pointer-events="none"><text text-anchor="start" transform="translate(-5,-7)" font-family="sans-serif" font-size="11px" font-weight="bold" fill="#676A86" opacity="1">£ billion, adjusted for inflation, 2019 constant prices</text></g></g><path class="foreground" aria-hidden="true" d="" pointer-events="none" display="none"/></g></g><g class="mark-line role-mark layer_0_marks" role="graphics-object" aria-roledescription="line mark container"><path aria-label="date: Feb 01, 1997; bi: 34.459" role="graphics-symbol" aria-roledescription="line mark" d="M0,229.05749999999998L3.7856231390897492,213.075L7.698851552530837,198.35250000000002L11.612079965971926,192.1425L15.525308379413016,186.51749999999998L19.310931518502763,186.93L23.224159931943852,184.63500000000002L27.137388345384945,175.97250000000003L31.05061675882603,178.0125L34.83623989791578,186.975L38.74946831135687,173.68500000000003L42.66269672479796,179.76000000000002L46.57592513823905,169.86L50.40408336877924,147.7875L54.31731178222034,174.885L58.23054019566142,165.435L62.14376860910251,161.955L65.92939174819226,159.33L69.84262016163335,168.98999999999998L73.75584857507444,181.47750000000002L77.66907698851553,180.3375L81.45470012760528,174.57000000000002L85.36792854104637,171.28500000000003L89.28115695448746,154.605L93.19438536792855,152.35500000000002L96.98000850701828,171.51000000000002L100.89323692045937,175.1475L104.80646533390048,178.5L108.71969374734157,169.425L112.54785197788175,192.1125L116.46108039132284,182.3025L120.37430880476394,177.45L124.28753721820502,178.995L128.07316035729477,128.475L131.98638877073586,163.28250000000003L135.89961718417695,164.60250000000002L139.81284559761804,151.3425L143.5984687367078,154.82250000000002L147.51169715014888,133.905L151.42492556358997,138.8775L155.33815397703106,125.02500000000002L159.1237771161208,112.65000000000002L163.0370055295619,131.925L166.95023394300296,105.88500000000003L170.86346235644407,135.29999999999998L174.69162058698427,121.98000000000002L178.60484900042536,135.80249999999998L182.51807741386642,147.66750000000002L186.43130582730754,179.95499999999998L190.2169289663973,194.14500000000004L194.13015737983835,200.20500000000004L198.04338579327944,201.2625L201.95661420672053,190.1325L205.7422373458103,191.1525L209.6554657592514,180.945L213.56869417269246,160.4775L217.48192258613358,188.39249999999998L221.2675457252233,175.1925L225.1807741386644,161.54999999999998L229.0940025521055,151.73250000000002L233.00723096554657,144.50250000000003L236.83538919608677,165.135L240.74861760952788,160.1775L244.66184602296894,139.63500000000002L248.57507443641003,153.96L252.36069757549978,146.44500000000002L256.2739259889409,134.7075L260.18715440238196,131.04000000000002L264.100382815823,130.62750000000003L267.88600595491283,121.42499999999998L271.7992343683539,117.84000000000002L275.71246278179495,112.89749999999998L279.6256911952361,91.305L283.4113143343258,93.8925L287.3245427477669,93.67500000000001L291.237771161208,71.96999999999997L295.15099957464906,67.44750000000002L298.9791578051893,67.6125L302.89238621863035,60.824999999999996L306.80561463207147,79.77000000000001L310.7188430455126,68.69999999999996L314.5044661846023,62.54249999999999L318.4176945980434,65.925L322.3309230114845,60.270000000000024L326.2441514249256,63.89249999999998L330.0297745640153,74.06999999999996L333.9430029774564,73.10999999999997L337.8562313908975,71.3025L341.76945980433857,69.23250000000002L345.5550829434283,68.07749999999999L349.46831135686944,63.23249999999998L353.38153977031055,60.00749999999997L357.2947681837516,71.42250000000001L361.1229264142918,157.7775L365.03615482773284,121.45500000000001L368.94938324117396,111.24749999999999L372.8626116546151,130.66499999999996L376.6482347937048,107.98500000000003L380.5614632071459,99.51749999999998L384.474691620587,110.055L388.38792003402807,105.63000000000002L392.1735431731178,84.47249999999997L396.0867715865589,94.51499999999999L400,99.77945624999994" stroke="#0063AF" stroke-width="2"/></g><g class="mark-line role-mark layer_1_marks" role="graphics-object" aria-roledescription="line mark container"><path aria-label="date: Feb 01, 2016; ci: 56.007" role="graphics-symbol" aria-roledescription="line mark" d="M295.15099957464906,67.44750000000002L298.9791578051893,65.34723750000005L302.89238621863035,63.236473687500094L306.80561463207147,61.11515605593764L310.7188430455126,58.983231836217406L314.5044661846023,56.84064799539854L318.4176945980434,54.68735123537557L322.3309230114845,52.523287991552536L326.2441514249256,50.34840443151032L330.0297745640153,48.162646453667904L333.9430029774564,45.96595968593632L337.8562313908975,43.75828948436611L341.76945980433857,41.53958093178795L345.5550829434283,39.30977883644696L349.46831135686944,37.06882773062921L353.38153977031055,34.81667186928241L357.2947681837516,44.64090633505096L361.1229264142918,134.34000929234804L365.03615482773284,93.66981621283665L368.94938324117396,80.71835000204473L372.8626116546151,99.67747884505853L376.6482347937048,73.08883696162314L380.5614632071459,61.7706999031933L384.474691620587,71.20474630708024L388.38792003402807,64.24280666622728L392.1735431731178,38.67596404949614L396.0867715865589,47.61548612996893L400,51.308789182007075" stroke="#36B7B4" stroke-width="2"/></g><g class="mark-line role-mark layer_2_marks" role="graphics-object" aria-roledescription="line mark container"><path aria-label="date: Feb 01, 1997; it: 38.337308261" role="graphics-symbol" aria-roledescription="line mark" d="M0,199.97018804255535L3.7856231390897492,198.53253898276816L7.698851552530837,197.08770167768205L11.612079965971926,195.63564018607042L15.525308379413016,194.17631838700086L19.310931518502763,192.70969997893587L23.224159931943852,191.23574847883057L27.137388345384945,189.7544272212248L31.05061675882603,188.2656993573309L34.83623989791578,186.76952785411757L38.74946831135687,185.26587549338817L42.66269672479796,183.75470487085516L46.57592513823905,182.23597839520946L50.40408336877924,180.70965828718553L54.31731178222034,179.17570657862154L58.23054019566142,177.63408511151468L62.14376860910251,176.08475553707228L65.92939174819226,174.52767931475773L69.84262016163335,172.96281771133152L73.75584857507444,171.39013179988822L77.66907698851553,169.80958245888772L81.45470012760528,168.22113037118217L85.36792854104637,166.6247360230381L89.28115695448746,165.0203597031533L93.19438536792855,163.4079615016691L96.98000850701828,161.78750130917746L100.89323692045937,160.1589388157234L104.80646533390048,158.52223350980205L108.71969374734157,156.877344677351L112.54785197788175,155.2242314007379L116.46108039132284,153.56285255774156L120.37430880476394,151.8931668205303L124.28753721820502,150.21513265463298L128.07316035729477,148.52870831790622L131.98638877073586,146.8338518594958L135.89961718417695,145.13052111879333L139.81284559761804,143.41867372438733L143.5984687367078,141.6982670930093L147.51169715014888,139.96925842847438L151.42492556358997,138.23160472061676L155.33815397703106,136.48526274421988L159.1237771161208,134.73018905794103L163.0370055295619,132.96634000323078L166.95023394300296,131.193671703247L170.86346235644407,129.41214006176327L174.69162058698427,127.62170076207211L178.60484900042536,125.82230926588248L182.51807741386642,124.01392081221196L186.43130582730754,122.19649041627304L190.2169289663973,120.36997286835447L194.13015737983835,118.53432273269622L198.04338579327944,116.68949434635978L201.95661420672053,114.83544181809158L205.7422373458103,112.97211902718207L209.6554657592514,111.09947962231807L213.56869417269246,109.2174770204297L217.48192258613358,107.32606440553188L221.2675457252233,105.42519472755963L225.1807741386644,103.51482070119748L229.0940025521055,101.59489480470346L233.00723096554657,99.66536927872704L236.83538919608677,97.72619612512071L240.74861760952788,95.77732710574638L244.66184602296894,93.81871374127516L248.57507443641003,91.85030730998153L252.36069757549978,89.87205884653149L256.2739259889409,87.8839191407642L260.18715440238196,85.88583873646805L264.100382815823,83.87776793015044L267.88600595491283,81.85965676980125L271.7992343683539,79.83145505365023L275.71246278179495,77.79311232891854L279.6256911952361,75.74457789056322L283.4113143343258,73.68580078001604L287.3245427477669,71.61672978391618L291.237771161208,69.5373134328358" stroke="#36B7B4" stroke-width="2" stroke-dasharray="5,5"/></g><g class="mark-rule role-mark layer_3_marks" role="graphics-object" aria-roledescription="rule mark container"><line aria-label="date: Feb 01, 2016" role="graphics-symbol" aria-roledescription="rule mark" transform="translate(295.15099957464906,0)" x2="0" y2="300" stroke="#676A86" opacity="0.5"/></g><g class="mark-text role-mark layer_4_marks" role="graphics-object" aria-roledescription="text mark container"><text aria-label="date: Feb 01, 2010; bi: 39.649" role="graphics-symbol" aria-roledescription="text mark" text-anchor="middle" transform="translate(201.95661420672053,223.1325)" font-family="sans-serif" font-size="11px" fill="#0063AF">Business investment</text></g><g class="mark-text role-mark layer_5_marks" role="graphics-object" aria-roledescription="text mark container"><text aria-label="date: Aug 01, 2019; ci: 60.0574896359" role="graphics-symbol" aria-roledescription="text mark" text-anchor="middle" transform="translate(349.46831135686944,10.06882773062921)" font-family="sans-serif" font-size="11px" fill="#36B7B4">Counterfactual</text></g><g class="mark-text role-mark layer_6_marks" role="graphics-object" aria-roledescription="text mark container"><text aria-label="date: Aug 01, 2019; ci: 60.0574896359" role="graphics-symbol" aria-roledescription="text mark" text-anchor="middle" transform="translate(349.46831135686944,23.06882773062921)" font-family="sans-serif" font-size="11px" fill="#36B7B4">investment</text></g><g class="mark-text role-mark layer_7_marks" role="graphics-object" aria-roledescription="text mark container"><text aria-label="date: Feb 01, 2009; it: 48.7071346112" role="graphics-symbol" aria-roledescription="text mark" text-anchor="middle" transform="translate(186.43130582730754,80.19649041627304)" font-family="sans-serif" font-size="11px" fill="#36B7B4">Memo: Investment trend</text></g></g><path class="foreground" aria-hidden="true" d="" display="none"/></g></g></g></svg>