<svg xmlns="http://www.w3.org/2000/svg" xmlns:xlink="http://www.w3.org/1999/xlink" version="1.1" class="marks" width="524" height="343" viewBox="0 0 524 343"><rect width="524" height="343" fill="white"/><g fill="none" stroke-miterlimit="10" transform="translate(30,21)"><g class="mark-group role-frame root" role="graphics-object" aria-roledescription="group mark container"><g transform="translate(0,0)"><path class="background" aria-hidden="true" d="M0,0h400v300h-400Z"/><g><g class="mark-group role-axis" role="graphics-symbol" aria-roledescription="axis" aria-label="X-axis for a time scale with values from Sunday, 01 February 2009, 12:00:00 AM to Sunday, 01 May 2022, 12:00:00 AM"><g transform="translate(0.5,300.5)"><path class="background" aria-hidden="true" d="M0,0h0v0h0Z" pointer-events="none"/><g><g class="mark-rule role-axis-tick" pointer-events="none"><line transform="translate(28,0)" x2="0" y2="5" stroke="#676A86" stroke-width="1" opacity="1"/><line transform="translate(58,0)" x2="0" y2="5" stroke="#676A86" stroke-width="1" opacity="1"/><line transform="translate(88,0)" x2="0" y2="5" stroke="#676A86" stroke-width="1" opacity="1"/><line transform="translate(118,0)" x2="0" y2="5" stroke="#676A86" stroke-width="1" opacity="1"/><line transform="translate(148,0)" x2="0" y2="5" stroke="#676A86" stroke-width="1" opacity="1"/><line transform="translate(179,0)" x2="0" y2="5" stroke="#676A86" stroke-width="1" opacity="1"/><line transform="translate(209,0)" x2="0" y2="5" stroke="#676A86" stroke-width="1" opacity="1"/><line transform="translate(239,0)" x2="0" y2="5" stroke="#676A86" stroke-width="1" opacity="1"/><line transform="translate(269,0)" x2="0" y2="5" stroke="#676A86" stroke-width="1" opacity="1"/><line transform="translate(299,0)" x2="0" y2="5" stroke="#676A86" stroke-width="1" opacity="1"/><line transform="translate(330,0)" x2="0" y2="5" stroke="#676A86" stroke-width="1" opacity="1"/><line transform="translate(360,0)" x2="0" y2="5" stroke="#676A86" stroke-width="1" opacity="1"/><line transform="translate(390,0)" x2="0" y2="5" stroke="#676A86" stroke-width="1" opacity="1"/></g><g class="mark-text role-axis-label" pointer-events="none"><text text-anchor="middle" transform="translate(27.62042588381228,15)" font-family="sans-serif" font-size="10px" fill="#676A86" opacity="1">2010</text><text text-anchor="middle" transform="translate(57.80442422989456,15)" font-family="sans-serif" font-size="10px" fill="#676A86" opacity="1">2011</text><text text-anchor="middle" transform="translate(87.98842257597684,15)" font-family="sans-serif" font-size="10px" fill="#676A86" opacity="1">2012</text><text text-anchor="middle" transform="translate(118.2551168079388,15)" font-family="sans-serif" font-size="10px" fill="#676A86" opacity="1">2013</text><text text-anchor="middle" transform="translate(148.4391151540211,15)" font-family="sans-serif" font-size="10px" fill="#676A86" opacity="1">2014</text><text text-anchor="middle" transform="translate(178.6231135001034,15)" font-family="sans-serif" font-size="10px" fill="#676A86" opacity="1">2015</text><text text-anchor="middle" transform="translate(208.80711184618565,15)" font-family="sans-serif" font-size="10px" fill="#676A86" opacity="1">2016</text><text text-anchor="middle" transform="translate(239.0738060781476,15)" font-family="sans-serif" font-size="10px" fill="#676A86" opacity="1">2017</text><text text-anchor="middle" transform="translate(269.2578044242299,15)" font-family="sans-serif" font-size="10px" fill="#676A86" opacity="1">2018</text><text text-anchor="middle" transform="translate(299.44180277031217,15)" font-family="sans-serif" font-size="10px" fill="#676A86" opacity="1">2019</text><text text-anchor="middle" transform="translate(329.6258011163945,15)" font-family="sans-serif" font-size="10px" fill="#676A86" opacity="1">2020</text><text text-anchor="middle" transform="translate(359.8924953483564,15)" font-family="sans-serif" font-size="10px" fill="#676A86" opacity="1">2021</text><text text-anchor="middle" transform="translate(390.0764936944387,15)" font-family="sans-serif" font-size="10px" fill="#676A86" opacity="1">2022</text></g><g class="mark-rule role-axis-domain" pointer-events="none"><line transform="translate(0,0)" x2="400" y2="0" stroke="#676A86" stroke-width="1" opacity="1"/></g></g><path class="foreground" aria-hidden="true" d="" pointer-events="none" display="none"/></g></g><g class="mark-group role-axis" role="graphics-symbol" aria-roledescription="axis" aria-label="Y-axis titled '£ billion, adjusted for inflation, chained volume measures' for a linear scale with values from 60 to 120"><g transform="translate(0.5,0.5)"><path class="background" aria-hidden="true" d="M0,0h0v0h0Z" pointer-events="none"/><g><g class="mark-rule role-axis-tick" pointer-events="none"><line transform="translate(0,300)" x2="-5" y2="0" stroke="#676A86" stroke-width="1" opacity="1"/><line transform="translate(0,250)" x2="-5" y2="0" stroke="#676A86" stroke-width="1" opacity="1"/><line transform="translate(0,200)" x2="-5" y2="0" stroke="#676A86" stroke-width="1" opacity="1"/><line transform="translate(0,150)" x2="-5" y2="0" stroke="#676A86" stroke-width="1" opacity="1"/><line transform="translate(0,100)" x2="-5" y2="0" stroke="#676A86" stroke-width="1" opacity="1"/><line transform="translate(0,50)" x2="-5" y2="0" stroke="#676A86" stroke-width="1" opacity="1"/><line transform="translate(0,0)" x2="-5" y2="0" stroke="#676A86" stroke-width="1" opacity="1"/></g><g class="mark-text role-axis-label" pointer-events="none"><text text-anchor="end" transform="translate(-7,303)" font-family="sans-serif" font-size="10px" fill="#676A86" opacity="1">60</text><text text-anchor="end" transform="translate(-7,253)" font-family="sans-serif" font-size="10px" fill="#676A86" opacity="1">70</text><text text-anchor="end" transform="translate(-7,203.00000000000003)" font-family="sans-serif" font-size="10px" fill="#676A86" opacity="1">80</text><text text-anchor="end" transform="translate(-7,153)" font-family="sans-serif" font-size="10px" fill="#676A86" opacity="1">90</text><text text-anchor="end" transform="translate(-7,103.00000000000001)" font-family="sans-serif" font-size="10px" fill="#676A86" opacity="1">100</text><text text-anchor="end" transform="translate(-7,52.999999999999986)" font-family="sans-serif" font-size="10px" fill="#676A86" opacity="1">110</text><text text-anchor="end" transform="translate(-7,3)" font-family="sans-serif" font-size="10px" fill="#676A86" opacity="1">120</text></g><g class="mark-rule role-axis-domain" pointer-events="none"><line transform="translate(0,300)" x2="0" y2="-300" stroke="#676A86" stroke-width="1" opacity="1"/></g><g class="mark-text role-axis-title" pointer-events="none"><text text-anchor="start" transform="translate(-5,-7)" font-family="sans-serif" font-size="11px" font-weight="bold" fill="#676A86" opacity="1">£ billion, adjusted for inflation, chained volume measures</text></g></g><path class="foreground" aria-hidden="true" d="" pointer-events="none" display="none"/></g></g><g class="mark-line role-mark layer_0_marks" role="graphics-object" aria-roledescription="line mark container"><path aria-label="date: Feb 01, 2009; uk: 76.32" role="graphics-symbol" aria-roledescription="line mark" d="M0,218.40000000000003L7.359933843291295,233.96999999999997L14.967955344221625,229.76500000000001L22.575976845151953,235.415L30.18399834608228,220.32L37.54393218937358,222.115L45.151953690303905,208.225L52.75997519123423,198.615L60.36799669216456,217.32L67.72793053545585,221.115L75.33595203638619,211.85000000000002L82.94397353731652,205.82999999999998L90.55199503824684,201.06499999999997L97.99462476741783,218.62499999999997L105.60264626834814,222.06000000000003L113.21066776927849,202.58499999999998L120.81868927020881,218.10999999999999L128.1786231135001,198.555L135.78664461443043,188.78L143.39466611536076,185.63L151.0026876162911,175.035L158.36262145958239,177.10000000000002L165.97064296051272,168.395L173.57866446144303,163.68000000000004L181.18668596237336,145.06999999999996L188.54661980566468,144.36999999999998L196.15464130659498,147.8L203.76266280752532,134.91500000000002L211.37068430845565,127.24499999999998L218.81331403762664,121.62999999999997L226.42133553855697,113.01L234.0293570394873,120.87000000000005L241.63737854041761,111.25L248.9973123837089,103.22000000000003L256.60533388463926,104.18500000000002L264.21335538556957,96.80999999999996L271.8213768864999,105.40500000000002L279.18131072979116,105.845L286.7893322307215,103.32500000000005L294.39735373165183,105.58999999999996L302.0053752325822,94.51999999999998L309.3653090758735,100.17000000000003L316.9733305768038,91.81500000000001L324.58135207773415,96.67000000000002L332.18937357866446,115.875L339.6320033078355,205.94000000000003L347.2400248087657,143.955L354.8480463096961,129.21999999999997L362.45606781062645,135.82999999999998L369.81600165391774,123.58499999999998L377.42402315484804,120.43999999999996L385.03204465577835,114.73500000000001L392.6400661567087,97.94500000000001L400,105.05499999999999" stroke="#0063AF" stroke-width="2"/></g><g class="mark-line role-mark layer_1_marks" role="graphics-object" aria-roledescription="line mark container"><path aria-label="date: Feb 01, 2009; dg: 74.3628447071" role="graphics-symbol" aria-roledescription="line mark" d="M0,228.1857764646812L7.359933843291295,235.45563021152518L14.967955344221625,236.74630717758987L22.575976845151953,238.24389460532012L30.18399834608228,244.96839125430157L37.54393218937358,235.71002824752574L45.151953690303905,236.0761393394187L52.75997519123423,229.43932844483658L60.36799669216456,228.89578562487648L67.72793053545585,223.40490942361214L75.33595203638619,219.6778253850255L82.94397353731652,210.53706370921668L90.55199503824684,204.93085912988803L97.99462476741783,203.12418694036182L105.60264626834814,210.4061917847979L113.21066776927849,204.85493292808295L120.81868927020881,204.57390834500032L128.1786231135001,194.08171435686788L135.78664461443043,191.47892962046944L143.39466611536076,187.8045328136865L151.0026876162911,180.2109510576344L158.36262145958239,176.50561737784807L165.97064296051272,163.06582333808237L173.57866446144303,160.9255500740728L181.18668596237336,156.70934192391178L188.54661980566468,150.58883129329345L196.15464130659498,147.03764120625607L203.76266280752532,138.56765018474317L211.37068430845565,136.30731905136642L218.81331403762664,125.04070987136194L226.42133553855697,123.68878714094144L234.0293570394873,116.36147014167038L241.63737854041761,123.68042524038431L248.9973123837089,89.35322594773503L256.60533388463926,103.76451498835088L264.21335538556957,98.39531892286394L271.8213768864999,94.38203028328566L279.18131072979116,76.79994869500412L286.7893322307215,92.23731292264185L294.39735373165183,75.8385897253609L302.0053752325822,81.97572288247578L309.3653090758735,56.379842807154844L316.9733305768038,71.20890107026648L324.58135207773415,36.993346547867446L332.18937357866446,51.744873940494564L339.6320033078355,128.05002912446406L347.2400248087657,78.34904224787935L354.8480463096961,59.091214836831384L362.45606781062645,63.422480467856424L369.81600165391774,50.570932524008406L377.42402315484804,63.138424370036304L385.03204465577835,35.60995939058791L392.6400661567087,39.71714903377872L400,43.931318237189465" stroke="#36B7B4" stroke-width="2"/></g><g class="mark-rule role-mark layer_2_marks" role="graphics-object" aria-roledescription="rule mark container"><line aria-label="date: Aug 01, 2016" role="graphics-symbol" aria-roledescription="rule mark" transform="translate(226.42133553855697,0)" x2="0" y2="300" stroke="#676A86" opacity="0.5"/></g><g class="mark-rule role-mark layer_3_marks" role="graphics-object" aria-roledescription="rule mark container"><line aria-label="date: Feb 01, 2021" role="graphics-symbol" aria-roledescription="rule mark" transform="translate(362.45606781062645,0)" x2="0" y2="300" stroke="#676A86" opacity="0.5"/></g><g class="mark-text role-mark layer_4_marks" role="graphics-object" aria-roledescription="text mark container"><text aria-label="date: Feb 01, 2020; uk: 96.825" role="graphics-symbol" aria-roledescription="text mark" text-anchor="end" transform="translate(332.18937357866446,178.875)" font-family="sans-serif" font-size="11px" fill="#0063AF">UK</text></g><g class="mark-text role-mark layer_5_marks" role="graphics-object" aria-roledescription="text mark container"><text aria-label="date: Feb 01, 2020; dg: 109.651025212" role="graphics-symbol" aria-roledescription="text mark" text-anchor="end" transform="translate(327.18937357866446,144.74487394049456)" font-family="sans-serif" font-size="11px" fill="#36B7B4">Doppelgänger UK</text></g><g class="mark-text role-mark layer_6_marks" role="graphics-object" aria-roledescription="text mark container"><text aria-label="date: Aug 01, 2016" role="graphics-symbol" aria-roledescription="text mark" text-anchor="end" transform="translate(221.42133553855697,288)" font-family="sans-serif" font-size="11px" fill="#676A86">EU Referendum</text></g><g class="mark-text role-mark layer_7_marks" role="graphics-object" aria-roledescription="text mark container"><text aria-label="date: Feb 01, 2021" role="graphics-symbol" aria-roledescription="text mark" text-anchor="end" transform="translate(357.45606781062645,288)" font-family="sans-serif" font-size="11px" fill="#676A86">Single market exit</text></g><g class="mark-rule role-mark layer_8_marks" role="graphics-object" aria-roledescription="rule mark container"><line aria-label="date: May 01, 2022; uk: 98.989; dg: 111.213736353" role="graphics-symbol" aria-roledescription="rule mark" transform="translate(400,105.05499999999999)" x2="0" y2="-61.12368176281053" stroke="#F4134D"/></g><g class="mark-text role-mark layer_9_marks" role="graphics-object" aria-roledescription="text mark container"><text aria-label="date: May 01, 2022; uk: 98.989" role="graphics-symbol" aria-roledescription="text mark" text-anchor="start" transform="translate(405,53.05499999999999)" font-family="sans-serif" font-size="11px" fill="#F4134D">UK shortfall</text></g><g class="mark-text role-mark layer_10_marks" role="graphics-object" aria-roledescription="text mark container"><text aria-label="date: May 01, 2022; uk: 98.989" role="graphics-symbol" aria-roledescription="text mark" text-anchor="start" transform="translate(405,68.05499999999999)" font-family="sans-serif" font-size="11px" fill="#F4134D">in 2022 Q2</text></g><g class="mark-text role-mark layer_11_marks" role="graphics-object" aria-roledescription="text mark container"><text aria-label="date: May 01, 2022; uk: 98.989" role="graphics-symbol" aria-roledescription="text mark" text-anchor="start" transform="translate(405,88.05499999999999)" font-family="sans-serif" font-size="11px" fill="#F4134D">11% or</text></g><g class="mark-text role-mark layer_12_marks" role="graphics-object" aria-roledescription="text mark container"><text aria-label="date: May 01, 2022; uk: 98.989" role="graphics-symbol" aria-roledescription="text mark" text-anchor="start" transform="translate(405,103.05499999999999)" font-family="sans-serif" font-size="11px" fill="#F4134D">£12 billion</text></g></g><path class="foreground" aria-hidden="true" d="" display="none"/></g></g></g></svg>