<svg xmlns="http://www.w3.org/2000/svg" xmlns:xlink="http://www.w3.org/1999/xlink" version="1.1" class="marks" width="482" height="343" viewBox="0 0 482 343"><rect width="482" height="343" fill="white"/><g fill="none" stroke-miterlimit="10" transform="translate(30,21)"><g class="mark-group role-frame root" role="graphics-object" aria-roledescription="group mark container"><g transform="translate(0,0)"><path class="background" aria-hidden="true" d="M0,0h400v300h-400Z"/><g><g class="mark-group role-axis" role="graphics-symbol" aria-roledescription="axis" aria-label="X-axis for a time scale with values from Monday, 01 February 2016, 12:00:00 AM to Tuesday, 01 November 2022, 12:00:00 AM"><g transform="translate(0.5,300.5)"><path class="background" aria-hidden="true" d="M0,0h0v0h0Z" pointer-events="none"/><g><g class="mark-rule role-axis-tick" pointer-events="none"><line transform="translate(54,0)" x2="0" y2="5" stroke="#676A86" stroke-width="1" opacity="1"/><line transform="translate(114,0)" x2="0" y2="5" stroke="#676A86" stroke-width="1" opacity="1"/><line transform="translate(173,0)" x2="0" y2="5" stroke="#676A86" stroke-width="1" opacity="1"/><line transform="translate(232,0)" x2="0" y2="5" stroke="#676A86" stroke-width="1" opacity="1"/><line transform="translate(291,0)" x2="0" y2="5" stroke="#676A86" stroke-width="1" opacity="1"/><line transform="translate(351,0)" x2="0" y2="5" stroke="#676A86" stroke-width="1" opacity="1"/></g><g class="mark-text role-axis-label" pointer-events="none"><text text-anchor="middle" transform="translate(54.361054766734284,15)" font-family="sans-serif" font-size="10px" fill="#676A86" opacity="1">2017</text><text text-anchor="middle" transform="translate(113.59026369168357,15)" font-family="sans-serif" font-size="10px" fill="#676A86" opacity="1">2018</text><text text-anchor="middle" transform="translate(172.81947261663285,15)" font-family="sans-serif" font-size="10px" fill="#676A86" opacity="1">2019</text><text text-anchor="middle" transform="translate(232.04868154158214,15)" font-family="sans-serif" font-size="10px" fill="#676A86" opacity="1">2020</text><text text-anchor="middle" transform="translate(291.4401622718053,15)" font-family="sans-serif" font-size="10px" fill="#676A86" opacity="1">2021</text><text text-anchor="middle" transform="translate(350.6693711967546,15)" font-family="sans-serif" font-size="10px" fill="#676A86" opacity="1">2022</text></g><g class="mark-rule role-axis-domain" pointer-events="none"><line transform="translate(0,0)" x2="400" y2="0" stroke="#676A86" stroke-width="1" opacity="1"/></g></g><path class="foreground" aria-hidden="true" d="" pointer-events="none" display="none"/></g></g><g class="mark-group role-axis" role="graphics-symbol" aria-roledescription="axis" aria-label="Y-axis titled 'Index, 2016 = 100' for a linear scale with values from 75 to 135"><g transform="translate(0.5,0.5)"><path class="background" aria-hidden="true" d="M0,0h0v0h0Z" pointer-events="none"/><g><g class="mark-rule role-axis-tick" pointer-events="none"><line transform="translate(0,275)" x2="-5" y2="0" stroke="#676A86" stroke-width="1" opacity="1"/><line transform="translate(0,225)" x2="-5" y2="0" stroke="#676A86" stroke-width="1" opacity="1"/><line transform="translate(0,175)" x2="-5" y2="0" stroke="#676A86" stroke-width="1" opacity="1"/><line transform="translate(0,125)" x2="-5" y2="0" stroke="#676A86" stroke-width="1" opacity="1"/><line transform="translate(0,75)" x2="-5" y2="0" stroke="#676A86" stroke-width="1" opacity="1"/><line transform="translate(0,25)" x2="-5" y2="0" stroke="#676A86" stroke-width="1" opacity="1"/></g><g class="mark-text role-axis-label" pointer-events="none"><text text-anchor="end" transform="translate(-7,278)" font-family="sans-serif" font-size="10px" fill="#676A86" opacity="1">80</text><text text-anchor="end" transform="translate(-7,228)" font-family="sans-serif" font-size="10px" fill="#676A86" opacity="1">90</text><text text-anchor="end" transform="translate(-7,177.99999999999997)" font-family="sans-serif" font-size="10px" fill="#676A86" opacity="1">100</text><text text-anchor="end" transform="translate(-7,127.99999999999999)" font-family="sans-serif" font-size="10px" fill="#676A86" opacity="1">110</text><text text-anchor="end" transform="translate(-7,78)" font-family="sans-serif" font-size="10px" fill="#676A86" opacity="1">120</text><text text-anchor="end" transform="translate(-7,28.00000000000001)" font-family="sans-serif" font-size="10px" fill="#676A86" opacity="1">130</text></g><g class="mark-rule role-axis-domain" pointer-events="none"><line transform="translate(0,300)" x2="0" y2="-300" stroke="#676A86" stroke-width="1" opacity="1"/></g><g class="mark-text role-axis-title" pointer-events="none"><text text-anchor="start" transform="translate(-5,-7)" font-family="sans-serif" font-size="11px" font-weight="bold" fill="#676A86" opacity="1">Index, 2016 = 100</text></g></g><path class="foreground" aria-hidden="true" d="" pointer-events="none" display="none"/></g></g><g class="mark-group role-scope layer_0_pathgroup" role="graphics-object" aria-roledescription="group mark container"><g transform="translate(0,0)"><path class="background" aria-hidden="true" d="M0,0h400v300h-400Z"/><g><g class="mark-line role-mark layer_0_marks" role="graphics-object" aria-roledescription="line mark container"><path aria-label="country: UK; date: Feb 01, 2016; value: 100.350286231" role="graphics-symbol" aria-roledescription="line mark" d="M0,173.24856884333875L14.60446247464503,173.44566084050777L29.53346855983773,165.33801277514485L44.462474645030426,187.96775754100858L59.39148073022312,174.74467627639464L73.83367139959432,167.38956129113177L88.76267748478702,171.42994723309707L103.69168356997972,164.67506696648545L118.62068965517241,169.00213217706025L133.0628803245436,181.15912491153261L147.9918864097363,180.01240783709446L162.920892494929,177.8533545953791L177.8498985801217,175.380745903622L192.2920892494929,174.0011019234387L207.22109533468557,168.21376418838412L222.1501014198783,164.3615115164437L237.07910750507097,177.99669422968387L251.68356997971603,281.1474785662453L266.61257606490875,237.76036300762385L281.5415821501014,225.56753536457543L296.47058823529414,248.761679940514L310.91277890466534,221.6704890569148L325.841784989858,211.55608611128528L340.77079107505074,224.14309774867186L355.6997971602434,218.85744873368387L370.1419878296146,193.58487946032625L385.0709939148073,205.58061510620567L400,211.86899205360896" stroke="#012169" stroke-width="2" opacity="0.7"/></g></g><path class="foreground" aria-hidden="true" d="" display="none"/></g><g transform="translate(0,0)"><path class="background" aria-hidden="true" d="M0,0h400v300h-400Z"/><g><g class="mark-line role-mark layer_0_marks" role="graphics-object" aria-roledescription="line mark container"><path aria-label="country: Germany; date: Feb 01, 2016; value: 99.9241843013" role="graphics-symbol" aria-roledescription="line mark" d="M0,175.3790784934695L14.60446247464503,180.02017233862773L29.53346855983773,171.24694694258798L44.462474645030426,173.35380222531475L59.39148073022312,165.19729520495062L73.83367139959432,159.92693380160057L88.76267748478702,150.1525380080748L103.69168356997972,142.9205850875754L118.62068965517241,148.35966269584654L133.0628803245436,141.07851868618368L147.9918864097363,134.19401146060792L162.920892494929,128.8532483290613L177.8498985801217,122.41319280820753L192.2920892494929,128.40689348811011L207.22109533468557,124.20796326520276L222.1501014198783,127.41302749446575L237.07910750507097,152.70774200185352L251.68356997971603,222.30706932221614L266.61257606490875,162.8864888477893L281.5415821501014,151.07178428993853L296.47058823529414,160.9268653258583L310.91277890466534,155.5275676838148L325.841784989858,161.62507975841342L340.77079107505074,163.687687762044L355.6997971602434,154.33028777273063L370.1419878296146,154.67264961858604L385.0709939148073,147.7482432342636" stroke="#FFCD00" stroke-width="2" opacity="0.7"/></g></g><path class="foreground" aria-hidden="true" d="" display="none"/></g><g transform="translate(0,0)"><path class="background" aria-hidden="true" d="M0,0h400v300h-400Z"/><g><g class="mark-line role-mark layer_0_marks" role="graphics-object" aria-roledescription="line mark container"><path aria-label="country: France; date: Feb 01, 2016; value: 100.474252144" role="graphics-symbol" aria-roledescription="line mark" d="M0,172.62873928082016L14.60446247464503,177.3994900134558L29.53346855983773,176.82078948079885L44.462474645030426,173.15098122492515L59.39148073022312,157.09819240410587L73.83367139959432,149.9138370108764L88.76267748478702,140.99338001967595L103.69168356997972,135.50278228300343L118.62068965517241,138.7909639711789L133.0628803245436,130.28688907054868L147.9918864097363,126.35595984262253L162.920892494929,123.28602409011296L177.8498985801217,118.47306262914957L192.2920892494929,109.22796875377557L207.22109533468557,104.71833899319243L222.1501014198783,104.48544731541583L237.07910750507097,159.92049048362395L251.68356997971603,221.93319268431893L266.61257606490875,124.64798728582343L281.5415821501014,109.48885625963781L296.47058823529414,102.51367805328377L310.91277890466534,90.049835028815L325.841784989858,83.56777905221341L340.77079107505074,85.15434622619972L355.6997971602434,83.57492575119535L370.1419878296146,80.27315082154823L385.0709939148073,58.91881426357073L400,52.258090812421244" stroke="#0055A4" stroke-width="2" opacity="0.7"/></g></g><path class="foreground" aria-hidden="true" d="" display="none"/></g><g transform="translate(0,0)"><path class="background" aria-hidden="true" d="M0,0h400v300h-400Z"/><g><g class="mark-line role-mark layer_0_marks" role="graphics-object" aria-roledescription="line mark container"><path aria-label="country: Italy; date: Feb 01, 2016; value: 99.6403686134" role="graphics-symbol" aria-roledescription="line mark" d="M0,176.79815693310965L14.60446247464503,181.19623741329175L29.53346855983773,170.0007868613512L44.462474645030426,172.00481879224753L59.39148073022312,155.30642646331012L73.83367139959432,150.08746733417254L88.76267748478702,148.18635801040406L103.69168356997972,136.93098875531746L118.62068965517241,119.32618913934228L133.0628803245436,126.53411171846273L147.9918864097363,121.24892940379758L162.920892494929,125.48079024612504L177.8498985801217,115.40952304955441L192.2920892494929,126.99786775544005L207.22109533468557,113.33956477444048L222.1501014198783,124.33821370380576L237.07910750507097,165.06482178420538L251.68356997971603,256.20717455529444L266.61257606490875,143.61242412659442L281.5415821501014,145.6047739614101L296.47058823529414,117.52338438589548L310.91277890466534,111.30356101052072L325.841784989858,112.67520683732498L340.77079107505074,97.88582872298704L355.6997971602434,46.505360721710375L370.1419878296146,33.77267362293992L385.0709939148073,31.821432903295477" stroke="#007A33" stroke-width="2" opacity="0.7"/></g></g><path class="foreground" aria-hidden="true" d="" display="none"/></g><g transform="translate(0,0)"><path class="background" aria-hidden="true" d="M0,0h400v300h-400Z"/><g><g class="mark-line role-mark layer_0_marks" role="graphics-object" aria-roledescription="line mark container"><path aria-label="country: US; date: Feb 01, 2016; value: 98.9542913515" role="graphics-symbol" aria-roledescription="line mark" d="M0,180.22854324235456L14.60446247464503,177.54850378165082L29.53346855983773,173.05984873396915L44.462474645030426,169.16310424202572L59.39148073022312,162.4383426504439L73.83367139959432,157.4071029266689L88.76267748478702,154.62841170667542L103.69168356997972,143.6780664255179L118.62068965517241,136.6080236764222L133.0628803245436,128.50213745478464L147.9918864097363,126.34824071029266L162.920892494929,125.082209799408L177.8498985801217,123.94771456757645L192.2920892494929,115.54587306806974L207.22109533468557,109.88983886879318L222.1501014198783,111.74778033541591L237.07910750507097,116.05557382439984L251.68356997971603,161.79710621506075L266.61257606490875,127.91022689904635L281.5415821501014,106.239723775074L296.47058823529414,92.8888523512002L310.91277890466534,84.58566261098326L325.841784989858,86.19697467938174L340.77079107505074,85.3584347254192L355.6997971602434,78.38704373561328L370.1419878296146,86.06543900032891L385.0709939148073,91.22821440315683L400,101.24136797106218" stroke="#BF0D3E" stroke-width="2" opacity="0.7"/></g></g><path class="foreground" aria-hidden="true" d="" display="none"/></g><g transform="translate(0,0)"><path class="background" aria-hidden="true" d="M0,0h400v300h-400Z"/><g><g class="mark-line role-mark layer_0_marks" role="graphics-object" aria-roledescription="line mark container"><path aria-label="country: Canada; date: Feb 01, 2016; value: 101.704590766" role="graphics-symbol" aria-roledescription="line mark" d="M0,166.47704616952112L14.60446247464503,173.02355075266945L29.53346855983773,169.27656958398748L44.462474645030426,191.22283349382187L59.39148073022312,173.24970272917824L73.83367139959432,163.78226682838522L88.76267748478702,158.8093038923136L103.69168356997972,143.84518468879696L118.62068965517241,135.90606003977896L133.0628803245436,127.17897429366195L147.9918864097363,137.91524181002524L162.920892494929,136.3155141446159L177.8498985801217,111.66970979940324L192.2920892494929,123.41056820088967L207.22109533468557,112.38387393574664L222.1501014198783,121.30854509291872L237.07910750507097,120.80386910323598L251.68356997971603,212.46445545579738L266.61257606490875,181.11979151168313L281.5415821501014,172.96403707464086L296.47058823529414,169.50034101337516L310.91277890466534,148.98002482910647L325.841784989858,147.82545947535127L340.77079107505074,135.0823907358629L355.6997971602434,125.60781319370633L370.1419878296146,105.74214746775253L385.0709939148073,100.8477425866787" stroke="#EF3340" stroke-width="2" opacity="0.7"/></g></g><path class="foreground" aria-hidden="true" d="" display="none"/></g><g transform="translate(0,0)"><path class="background" aria-hidden="true" d="M0,0h400v300h-400Z"/><g><g class="mark-line role-mark layer_0_marks" role="graphics-object" aria-roledescription="line mark container"><path aria-label="country: Japan; date: Feb 01, 2016; value: 99.4532661868" role="graphics-symbol" aria-roledescription="line mark" d="M0,177.73366906614763L14.60446247464503,176.68734056934233L29.53346855983773,174.69365286493215L44.462474645030426,170.88533749957813L59.39148073022312,169.16109797559182L73.83367139959432,164.89683738773715L88.76267748478702,160.63086056943385L103.69168356997972,157.4157888624653L118.62068965517241,152.3500486551332L133.0628803245436,144.52460988651708L147.9918864097363,159.75215057977132L162.920892494929,148.58406697417706L177.8498985801217,149.10408480009067L192.2920892494929,151.6217948681278L207.22109533468557,140.47258979746766L222.1501014198783,178.38126002207076L237.07910750507097,155.23331580871357L251.68356997971603,191.5773559410463L266.61257606490875,192.59336436659368L281.5415821501014,184.8834851148473L296.47058823529414,177.50712664693765L310.91277890466534,170.59243416969053L325.841784989858,179.3686646068088L340.77079107505074,176.44992869062492L355.6997971602434,177.84980065983342L370.1419878296146,167.26752371401423L385.0709939148073,159.46439594122953L400,162.14629205551205" stroke="gray" stroke-width="2" opacity="0.7"/></g></g><path class="foreground" aria-hidden="true" d="" display="none"/></g></g><g class="mark-group role-scope layer_1_pathgroup" role="graphics-object" aria-roledescription="group mark container"><g transform="translate(0,0)"><path class="background" aria-hidden="true" d="M0,0h400v300h-400Z"/><g><g class="mark-line role-mark layer_1_marks" role="graphics-object" aria-roledescription="line mark container"><path aria-label="country: UK; date: Feb 01, 2016; value: 100.350286231" role="graphics-symbol" aria-roledescription="line mark" d="M0,173.24856884333875L14.60446247464503,173.44566084050777L29.53346855983773,165.33801277514485L44.462474645030426,187.96775754100858L59.39148073022312,174.74467627639464L73.83367139959432,167.38956129113177L88.76267748478702,171.42994723309707L103.69168356997972,164.67506696648545L118.62068965517241,169.00213217706025L133.0628803245436,181.15912491153261L147.9918864097363,180.01240783709446L162.920892494929,177.8533545953791L177.8498985801217,175.380745903622L192.2920892494929,174.0011019234387L207.22109533468557,168.21376418838412L222.1501014198783,164.3615115164437L237.07910750507097,177.99669422968387L251.68356997971603,281.1474785662453L266.61257606490875,237.76036300762385L281.5415821501014,225.56753536457543L296.47058823529414,248.761679940514L310.91277890466534,221.6704890569148L325.841784989858,211.55608611128528L340.77079107505074,224.14309774867186L355.6997971602434,218.85744873368387L370.1419878296146,193.58487946032625L385.0709939148073,205.58061510620567L400,211.86899205360896" stroke="#012169" stroke-width="3"/></g></g><path class="foreground" aria-hidden="true" d="" display="none"/></g></g><g class="mark-text role-mark layer_2_marks" role="graphics-object" aria-roledescription="text mark container"><text aria-label="country: UK; date: Nov 01, 2022; value: 92.6262015893" role="graphics-symbol" aria-roledescription="text mark" text-anchor="start" transform="translate(405,214.86899205360896)" font-family="sans-serif" font-size="11px" fill="#012169">UK</text><text aria-label="country: France; date: Nov 01, 2022; value: 124.548381838" role="graphics-symbol" aria-roledescription="text mark" text-anchor="start" transform="translate(405,55.258090812421244)" font-family="sans-serif" font-size="11px" fill="#0055A4">France</text><text aria-label="country: US; date: Nov 01, 2022; value: 114.751726406" role="graphics-symbol" aria-roledescription="text mark" text-anchor="start" transform="translate(405,104.24136797106218)" font-family="sans-serif" font-size="11px" fill="#BF0D3E">US</text><text aria-label="country: Japan; date: Nov 01, 2022; value: 102.570741589" role="graphics-symbol" aria-roledescription="text mark" text-anchor="start" transform="translate(405,165.14629205551205)" font-family="sans-serif" font-size="11px" fill="gray">Japan</text></g><g class="mark-text role-mark layer_3_marks" role="graphics-object" aria-roledescription="text mark container"><text aria-label="country: Germany; date: Aug 01, 2022; value: 105.450351353" role="graphics-symbol" aria-roledescription="text mark" text-anchor="start" transform="translate(390.0709939148073,150.7482432342636)" font-family="sans-serif" font-size="11px" fill="#FFCD00">Germany</text></g><g class="mark-text role-mark layer_4_marks" role="graphics-object" aria-roledescription="text mark container"><text aria-label="country: Italy; date: Aug 01, 2022; value: 128.635713419" role="graphics-symbol" aria-roledescription="text mark" text-anchor="start" transform="translate(390.0709939148073,34.821432903295474)" font-family="sans-serif" font-size="11px" fill="#007A33">Italy</text></g><g class="mark-text role-mark layer_5_marks" role="graphics-object" aria-roledescription="text mark container"><text aria-label="country: Canada; date: Aug 01, 2022; value: 114.830451483" role="graphics-symbol" aria-roledescription="text mark" text-anchor="start" transform="translate(370.0709939148073,118.8477425866787)" font-family="sans-serif" font-size="11px" fill="#EF3340">Canada</text></g></g><path class="foreground" aria-hidden="true" d="" display="none"/></g></g></g></svg>