<svg xmlns="http://www.w3.org/2000/svg" xmlns:xlink="http://www.w3.org/1999/xlink" version="1.1" class="marks" width="412" height="381" viewBox="0 0 412 381"><rect width="412" height="381" fill="#122B39"/><g fill="none" stroke-miterlimit="10" transform="translate(6,58)"><g class="mark-group role-frame root" role="graphics-object" aria-roledescription="group mark container"><g transform="translate(0,0)"><path class="background" aria-hidden="true" d="M0,0h400v300h-400Z"/><g><g class="mark-group role-axis" aria-hidden="true"><g transform="translate(0.5,0.5)"><path class="background" aria-hidden="true" d="M0,0h0v0h0Z" pointer-events="none"/><g><g class="mark-rule role-axis-grid" pointer-events="none"><line transform="translate(0,300)" x2="400" y2="0" stroke="#676A86" stroke-opacity="0.1" stroke-width="1" opacity="1"/><line transform="translate(0,263)" x2="400" y2="0" stroke="#676A86" stroke-opacity="0.1" stroke-width="1" opacity="1"/><line transform="translate(0,225)" x2="400" y2="0" stroke="#676A86" stroke-opacity="0.1" stroke-width="1" opacity="1"/><line transform="translate(0,188)" x2="400" y2="0" stroke="#676A86" stroke-opacity="0.1" stroke-width="1" opacity="1"/><line transform="translate(0,150)" x2="400" y2="0" stroke="#676A86" stroke-opacity="0.1" stroke-width="1" opacity="1"/><line transform="translate(0,113)" x2="400" y2="0" stroke="#676A86" stroke-opacity="0.1" stroke-width="1" opacity="1"/><line transform="translate(0,75)" x2="400" y2="0" stroke="#676A86" stroke-opacity="0.1" stroke-width="1" opacity="1"/><line transform="translate(0,38)" x2="400" y2="0" stroke="#676A86" stroke-opacity="0.1" stroke-width="1" opacity="1"/><line transform="translate(0,0)" x2="400" y2="0" stroke="#676A86" stroke-opacity="0.1" stroke-width="1" opacity="1"/></g></g><path class="foreground" aria-hidden="true" d="" pointer-events="none" display="none"/></g></g><g class="mark-group role-axis" role="graphics-symbol" aria-roledescription="axis" aria-label="X-axis for a linear scale with values from 2008 to 2024"><g transform="translate(0.5,300.5)"><path class="background" aria-hidden="true" d="M0,0h0v0h0Z" pointer-events="none"/><g><g class="mark-rule role-axis-tick" pointer-events="none"><line transform="translate(0,0)" x2="0" y2="5" stroke="#676A86" stroke-width="1" opacity="1"/><line transform="translate(50,0)" x2="0" y2="5" stroke="#676A86" stroke-width="1" opacity="1"/><line transform="translate(100,0)" x2="0" y2="5" stroke="#676A86" stroke-width="1" opacity="1"/><line transform="translate(150,0)" x2="0" y2="5" stroke="#676A86" stroke-width="1" opacity="1"/><line transform="translate(200,0)" x2="0" y2="5" stroke="#676A86" stroke-width="1" opacity="1"/><line transform="translate(250,0)" x2="0" y2="5" stroke="#676A86" stroke-width="1" opacity="1"/><line transform="translate(300,0)" x2="0" y2="5" stroke="#676A86" stroke-width="1" opacity="1"/><line transform="translate(350,0)" x2="0" y2="5" stroke="#676A86" stroke-width="1" opacity="1"/><line transform="translate(400,0)" x2="0" y2="5" stroke="#676A86" stroke-width="1" opacity="1"/></g><g class="mark-text role-axis-label" pointer-events="none"><text text-anchor="start" transform="translate(0,16)" font-family="Georgia" font-size="12px" fill="#676A86" opacity="1">2008</text><text text-anchor="middle" transform="translate(50,16)" font-family="Georgia" font-size="12px" fill="#676A86" opacity="1">2010</text><text text-anchor="middle" transform="translate(100,16)" font-family="Georgia" font-size="12px" fill="#676A86" opacity="1">2012</text><text text-anchor="middle" transform="translate(150,16)" font-family="Georgia" font-size="12px" fill="#676A86" opacity="1">2014</text><text text-anchor="middle" transform="translate(200,16)" font-family="Georgia" font-size="12px" fill="#676A86" opacity="1">2016</text><text text-anchor="middle" transform="translate(250,16)" font-family="Georgia" font-size="12px" fill="#676A86" opacity="1">2018</text><text text-anchor="middle" transform="translate(300,16)" font-family="Georgia" font-size="12px" fill="#676A86" opacity="1">2020</text><text text-anchor="middle" transform="translate(350,16)" font-family="Georgia" font-size="12px" fill="#676A86" opacity="1">2022</text><text text-anchor="end" transform="translate(400,16)" font-family="Georgia" font-size="12px" fill="#676A86" opacity="1">2024</text></g><g class="mark-rule role-axis-domain" pointer-events="none"><line transform="translate(0,0)" x2="400" y2="0" stroke="#676A86" stroke-width="1" opacity="1"/></g></g><path class="foreground" aria-hidden="true" d="" pointer-events="none" display="none"/></g></g><g class="mark-group role-axis" role="graphics-symbol" aria-roledescription="axis" aria-label="Y-axis titled '$/kWh' for a linear scale with values from 0.00 to 0.40"><g transform="translate(0.5,0.5)"><path class="background" aria-hidden="true" d="M0,0h0v0h0Z" pointer-events="none"/><g><g class="mark-text role-axis-label" pointer-events="none"><text text-anchor="start" transform="translate(5,294)" font-family="Georgia" font-size="12px" fill="#676A86" opacity="1">0.00</text><text text-anchor="start" transform="translate(5,256.5)" font-family="Georgia" font-size="12px" fill="#676A86" opacity="1">0.05</text><text text-anchor="start" transform="translate(5,219)" font-family="Georgia" font-size="12px" fill="#676A86" opacity="1">0.10</text><text text-anchor="start" transform="translate(5,181.5)" font-family="Georgia" font-size="12px" fill="#676A86" opacity="1">0.15</text><text text-anchor="start" transform="translate(5,144)" font-family="Georgia" font-size="12px" fill="#676A86" opacity="1">0.20</text><text text-anchor="start" transform="translate(5,106.5)" font-family="Georgia" font-size="12px" fill="#676A86" opacity="1">0.25</text><text text-anchor="start" transform="translate(5,69.00000000000003)" font-family="Georgia" font-size="12px" fill="#676A86" opacity="1">0.30</text><text text-anchor="start" transform="translate(5,31.500000000000036)" font-family="Georgia" font-size="12px" fill="#676A86" opacity="1">0.35</text><text text-anchor="start" transform="translate(5,-6)" font-family="Georgia" font-size="12px" fill="#676A86" opacity="1">0.40</text></g><g class="mark-rule role-axis-domain" pointer-events="none"><line transform="translate(0,300)" x2="0" y2="-300" stroke="#676A86" stroke-width="1" opacity="1"/></g><g class="mark-text role-axis-title" pointer-events="none"><text text-anchor="start" transform="translate(32,-6)" font-family="Georgia" font-size="12px" font-weight="normal" fill="#676A86" opacity="1">$/kWh</text></g></g><path class="foreground" aria-hidden="true" d="" pointer-events="none" display="none"/></g></g><g class="mark-area role-mark layer_0_marks" role="graphics-object" aria-roledescription="area mark container"><path aria-label="x: 2008; y: 0.05; y2: 0.177" role="graphics-symbol" aria-roledescription="area mark" d="M0,262.5L400,262.5L400,167.25000000000003L0,167.25000000000003Z" fill="#676A86" opacity="0.2"/></g><g class="mark-group role-scope layer_1_pathgroup" role="graphics-object" aria-roledescription="group mark container"><g transform="translate(0,0)"><path class="background" aria-hidden="true" d="M0,0h400v300h-400Z"/><g><g class="mark-line role-mark layer_1_marks" role="graphics-object" aria-roledescription="line mark container"><path aria-label="tech: csp; year: 2010; avg: 0.35" role="graphics-symbol" aria-roledescription="line mark" d="M50,40.500000000000036L75,39.000000000000036L100,35.250000000000014L125,98.99999999999999L150,117.75000000000003L175,111.75000000000001L200,82.50000000000004L225,110.25000000000001L250,162L275,163.5" stroke="#EB5C2E" stroke-width="2"/></g></g><path class="foreground" aria-hidden="true" d="" display="none"/></g><g transform="translate(0,0)"><path class="background" aria-hidden="true" d="M0,0h400v300h-400Z"/><g><g class="mark-line role-mark layer_1_marks" role="graphics-object" aria-roledescription="line mark container"><path aria-label="tech: offwind; year: 2010; avg: 0.16" role="graphics-symbol" aria-roledescription="line mark" d="M50,179.25L75,168.75L100,184.5L125,167.25000000000003L150,162.75L175,173.25L200,190.5L225,201.75L250,204.75L275,213.75" stroke="#179FDB" stroke-width="2"/></g></g><path class="foreground" aria-hidden="true" d="" display="none"/></g><g transform="translate(0,0)"><path class="background" aria-hidden="true" d="M0,0h400v300h-400Z"/><g><g class="mark-line role-mark layer_1_marks" role="graphics-object" aria-roledescription="line mark container"><path aria-label="tech: onwind; year: 2010; avg: 0.09" role="graphics-symbol" aria-roledescription="line mark" d="M50,235.5L75,238.5L100,237.75L125,238.5L150,243.75L175,248.25L200,250.5L225,252L250,256.5L275,260.25" stroke="#00A767" stroke-width="2"/></g></g><path class="foreground" aria-hidden="true" d="" display="none"/></g><g transform="translate(0,0)"><path class="background" aria-hidden="true" d="M0,0h400v300h-400Z"/><g><g class="mark-line role-mark layer_1_marks" role="graphics-object" aria-roledescription="line mark container"><path aria-label="tech: pv; year: 2010; avg: 0.38" role="graphics-symbol" aria-roledescription="line mark" d="M50,16.500000000000014L75,85.50000000000004L100,132.75L125,168.75L150,177.00000000000003L175,205.50000000000003L200,214.50000000000003L225,231L250,240.75L275,249" stroke="#cf970c" stroke-width="2"/></g></g><path class="foreground" aria-hidden="true" d="" display="none"/></g></g><g class="mark-symbol role-mark layer_2_marks" role="graphics-object" aria-roledescription="symbol mark container"><path aria-label="tech: onwind; year: 2010; avg: 0.082" role="graphics-symbol" aria-roledescription="point" transform="translate(50,238.5)" d="M2.7386127875258306,0A2.7386127875258306,2.7386127875258306,0,1,1,-2.7386127875258306,0A2.7386127875258306,2.7386127875258306,0,1,1,2.7386127875258306,0" fill="#00A767" stroke="#00A767" stroke-opacity="0.8" stroke-width="2" opacity="0.6"/><path aria-label="tech: pv; year: 2010; avg: 0.17" role="graphics-symbol" aria-roledescription="point" transform="translate(50,172.5)" d="M2.7386127875258306,0A2.7386127875258306,2.7386127875258306,0,1,1,-2.7386127875258306,0A2.7386127875258306,2.7386127875258306,0,1,1,2.7386127875258306,0" fill="#cf970c" stroke="#cf970c" stroke-opacity="0.8" stroke-width="2" opacity="0.6"/><path aria-label="tech: onwind; year: 2011; avg: 0.108" role="graphics-symbol" aria-roledescription="point" transform="translate(75,219)" d="M2.7386127875258306,0A2.7386127875258306,2.7386127875258306,0,1,1,-2.7386127875258306,0A2.7386127875258306,2.7386127875258306,0,1,1,2.7386127875258306,0" fill="#00A767" stroke="#00A767" stroke-opacity="0.8" stroke-width="2" opacity="0.6"/><path aria-label="tech: pv; year: 2011; avg: 0.186" role="graphics-symbol" aria-roledescription="point" transform="translate(75,160.5)" d="M2.7386127875258306,0A2.7386127875258306,2.7386127875258306,0,1,1,-2.7386127875258306,0A2.7386127875258306,2.7386127875258306,0,1,1,2.7386127875258306,0" fill="#cf970c" stroke="#cf970c" stroke-opacity="0.8" stroke-width="2" opacity="0.6"/><path aria-label="tech: onwind; year: 2012; avg: 0.105" role="graphics-symbol" aria-roledescription="point" transform="translate(100,221.25)" d="M2.7386127875258306,0A2.7386127875258306,2.7386127875258306,0,1,1,-2.7386127875258306,0A2.7386127875258306,2.7386127875258306,0,1,1,2.7386127875258306,0" fill="#00A767" stroke="#00A767" stroke-opacity="0.8" stroke-width="2" opacity="0.6"/><path aria-label="tech: pv; year: 2012; avg: 0.167" role="graphics-symbol" aria-roledescription="point" transform="translate(100,174.75)" d="M2.7386127875258306,0A2.7386127875258306,2.7386127875258306,0,1,1,-2.7386127875258306,0A2.7386127875258306,2.7386127875258306,0,1,1,2.7386127875258306,0" fill="#cf970c" stroke="#cf970c" stroke-opacity="0.8" stroke-width="2" opacity="0.6"/><path aria-label="tech: onwind; year: 2013; avg: 0.09" role="graphics-symbol" aria-roledescription="point" transform="translate(125,232.5)" d="M2.7386127875258306,0A2.7386127875258306,2.7386127875258306,0,1,1,-2.7386127875258306,0A2.7386127875258306,2.7386127875258306,0,1,1,2.7386127875258306,0" fill="#00A767" stroke="#00A767" stroke-opacity="0.8" stroke-width="2" opacity="0.6"/><path aria-label="tech: pv; year: 2013; avg: 0.195" role="graphics-symbol" aria-roledescription="point" transform="translate(125,153.75)" d="M2.7386127875258306,0A2.7386127875258306,2.7386127875258306,0,1,1,-2.7386127875258306,0A2.7386127875258306,2.7386127875258306,0,1,1,2.7386127875258306,0" fill="#cf970c" stroke="#cf970c" stroke-opacity="0.8" stroke-width="2" opacity="0.6"/><path aria-label="tech: onwind; year: 2014; avg: 0.08" role="graphics-symbol" aria-roledescription="point" transform="translate(150,240)" d="M2.7386127875258306,0A2.7386127875258306,2.7386127875258306,0,1,1,-2.7386127875258306,0A2.7386127875258306,2.7386127875258306,0,1,1,2.7386127875258306,0" fill="#00A767" stroke="#00A767" stroke-opacity="0.8" stroke-width="2" opacity="0.6"/><path aria-label="tech: pv; year: 2014; avg: 0.151" role="graphics-symbol" aria-roledescription="point" transform="translate(150,186.75000000000003)" d="M2.7386127875258306,0A2.7386127875258306,2.7386127875258306,0,1,1,-2.7386127875258306,0A2.7386127875258306,2.7386127875258306,0,1,1,2.7386127875258306,0" fill="#cf970c" stroke="#cf970c" stroke-opacity="0.8" stroke-width="2" opacity="0.6"/><path aria-label="tech: onwind; year: 2015; avg: 0.075" role="graphics-symbol" aria-roledescription="point" transform="translate(175,243.75)" d="M2.7386127875258306,0A2.7386127875258306,2.7386127875258306,0,1,1,-2.7386127875258306,0A2.7386127875258306,2.7386127875258306,0,1,1,2.7386127875258306,0" fill="#00A767" stroke="#00A767" stroke-opacity="0.8" stroke-width="2" opacity="0.6"/><path aria-label="tech: pv; year: 2015; avg: 0.119" role="graphics-symbol" aria-roledescription="point" transform="translate(175,210.75)" d="M2.7386127875258306,0A2.7386127875258306,2.7386127875258306,0,1,1,-2.7386127875258306,0A2.7386127875258306,2.7386127875258306,0,1,1,2.7386127875258306,0" fill="#cf970c" stroke="#cf970c" stroke-opacity="0.8" stroke-width="2" opacity="0.6"/><path aria-label="tech: onwind; year: 2016; avg: 0.064" role="graphics-symbol" aria-roledescription="point" transform="translate(200,252)" d="M2.7386127875258306,0A2.7386127875258306,2.7386127875258306,0,1,1,-2.7386127875258306,0A2.7386127875258306,2.7386127875258306,0,1,1,2.7386127875258306,0" fill="#00A767" stroke="#00A767" stroke-opacity="0.8" stroke-width="2" opacity="0.6"/><path aria-label="tech: pv; year: 2016; avg: 0.091" role="graphics-symbol" aria-roledescription="point" transform="translate(200,231.75)" d="M2.7386127875258306,0A2.7386127875258306,2.7386127875258306,0,1,1,-2.7386127875258306,0A2.7386127875258306,2.7386127875258306,0,1,1,2.7386127875258306,0" fill="#cf970c" stroke="#cf970c" stroke-opacity="0.8" stroke-width="2" opacity="0.6"/><path aria-label="tech: onwind; year: 2017; avg: 0.058" role="graphics-symbol" aria-roledescription="point" transform="translate(225,256.5)" d="M2.7386127875258306,0A2.7386127875258306,2.7386127875258306,0,1,1,-2.7386127875258306,0A2.7386127875258306,2.7386127875258306,0,1,1,2.7386127875258306,0" fill="#00A767" stroke="#00A767" stroke-opacity="0.8" stroke-width="2" opacity="0.6"/><path aria-label="tech: pv; year: 2017; avg: 0.078" role="graphics-symbol" aria-roledescription="point" transform="translate(225,241.50000000000003)" d="M2.7386127875258306,0A2.7386127875258306,2.7386127875258306,0,1,1,-2.7386127875258306,0A2.7386127875258306,2.7386127875258306,0,1,1,2.7386127875258306,0" fill="#cf970c" stroke="#cf970c" stroke-opacity="0.8" stroke-width="2" opacity="0.6"/><path aria-label="tech: onwind; year: 2018; avg: 0.058" role="graphics-symbol" aria-roledescription="point" transform="translate(250,256.5)" d="M2.7386127875258306,0A2.7386127875258306,2.7386127875258306,0,1,1,-2.7386127875258306,0A2.7386127875258306,2.7386127875258306,0,1,1,2.7386127875258306,0" fill="#00A767" stroke="#00A767" stroke-opacity="0.8" stroke-width="2" opacity="0.6"/><path aria-label="tech: pv; year: 2018; avg: 0.063" role="graphics-symbol" aria-roledescription="point" transform="translate(250,252.75)" d="M2.7386127875258306,0A2.7386127875258306,2.7386127875258306,0,1,1,-2.7386127875258306,0A2.7386127875258306,2.7386127875258306,0,1,1,2.7386127875258306,0" fill="#cf970c" stroke="#cf970c" stroke-opacity="0.8" stroke-width="2" opacity="0.6"/><path aria-label="tech: onwind; year: 2019; avg: 0.059" role="graphics-symbol" aria-roledescription="point" transform="translate(275,255.75)" d="M2.7386127875258306,0A2.7386127875258306,2.7386127875258306,0,1,1,-2.7386127875258306,0A2.7386127875258306,2.7386127875258306,0,1,1,2.7386127875258306,0" fill="#00A767" stroke="#00A767" stroke-opacity="0.8" stroke-width="2" opacity="0.6"/><path aria-label="tech: pv; year: 2019; avg: 0.052" role="graphics-symbol" aria-roledescription="point" transform="translate(275,261)" d="M2.7386127875258306,0A2.7386127875258306,2.7386127875258306,0,1,1,-2.7386127875258306,0A2.7386127875258306,2.7386127875258306,0,1,1,2.7386127875258306,0" fill="#cf970c" stroke="#cf970c" stroke-opacity="0.8" stroke-width="2" opacity="0.6"/><path aria-label="tech: csp; year: 2020; avg: 0.094" role="graphics-symbol" aria-roledescription="point" transform="translate(300,229.5)" d="M2.7386127875258306,0A2.7386127875258306,2.7386127875258306,0,1,1,-2.7386127875258306,0A2.7386127875258306,2.7386127875258306,0,1,1,2.7386127875258306,0" fill="#EB5C2E" stroke="#EB5C2E" stroke-opacity="0.8" stroke-width="2" opacity="0.6"/><path aria-label="tech: offwind; year: 2020; avg: 0.127" role="graphics-symbol" aria-roledescription="point" transform="translate(300,204.75)" d="M2.7386127875258306,0A2.7386127875258306,2.7386127875258306,0,1,1,-2.7386127875258306,0A2.7386127875258306,2.7386127875258306,0,1,1,2.7386127875258306,0" fill="#179FDB" stroke="#179FDB" stroke-opacity="0.8" stroke-width="2" opacity="0.6"/><path aria-label="tech: onwind; year: 2020; avg: 0.045" role="graphics-symbol" aria-roledescription="point" transform="translate(300,266.25)" d="M2.7386127875258306,0A2.7386127875258306,2.7386127875258306,0,1,1,-2.7386127875258306,0A2.7386127875258306,2.7386127875258306,0,1,1,2.7386127875258306,0" fill="#00A767" stroke="#00A767" stroke-opacity="0.8" stroke-width="2" opacity="0.6"/><path aria-label="tech: pv; year: 2020; avg: 0.045" role="graphics-symbol" aria-roledescription="point" transform="translate(300,266.25)" d="M2.7386127875258306,0A2.7386127875258306,2.7386127875258306,0,1,1,-2.7386127875258306,0A2.7386127875258306,2.7386127875258306,0,1,1,2.7386127875258306,0" fill="#cf970c" stroke="#cf970c" stroke-opacity="0.8" stroke-width="2" opacity="0.6"/><path aria-label="tech: csp; year: 2021; avg: 0.075" role="graphics-symbol" aria-roledescription="point" transform="translate(325,243.75)" d="M2.7386127875258306,0A2.7386127875258306,2.7386127875258306,0,1,1,-2.7386127875258306,0A2.7386127875258306,2.7386127875258306,0,1,1,2.7386127875258306,0" fill="#EB5C2E" stroke="#EB5C2E" stroke-opacity="0.8" stroke-width="2" opacity="0.6"/><path aria-label="tech: offwind; year: 2021; avg: 0.139" role="graphics-symbol" aria-roledescription="point" transform="translate(325,195.75)" d="M2.7386127875258306,0A2.7386127875258306,2.7386127875258306,0,1,1,-2.7386127875258306,0A2.7386127875258306,2.7386127875258306,0,1,1,2.7386127875258306,0" fill="#179FDB" stroke="#179FDB" stroke-opacity="0.8" stroke-width="2" opacity="0.6"/><path aria-label="tech: onwind; year: 2021; avg: 0.043" role="graphics-symbol" aria-roledescription="point" transform="translate(325,267.75)" d="M2.7386127875258306,0A2.7386127875258306,2.7386127875258306,0,1,1,-2.7386127875258306,0A2.7386127875258306,2.7386127875258306,0,1,1,2.7386127875258306,0" fill="#00A767" stroke="#00A767" stroke-opacity="0.8" stroke-width="2" opacity="0.6"/><path aria-label="tech: pv; year: 2021; avg: 0.039" role="graphics-symbol" aria-roledescription="point" transform="translate(325,270.75)" d="M2.7386127875258306,0A2.7386127875258306,2.7386127875258306,0,1,1,-2.7386127875258306,0A2.7386127875258306,2.7386127875258306,0,1,1,2.7386127875258306,0" fill="#cf970c" stroke="#cf970c" stroke-opacity="0.8" stroke-width="2" opacity="0.6"/><path aria-label="tech: csp; year: 2022; avg: 0.073" role="graphics-symbol" aria-roledescription="point" transform="translate(350,245.25)" d="M2.7386127875258306,0A2.7386127875258306,2.7386127875258306,0,1,1,-2.7386127875258306,0A2.7386127875258306,2.7386127875258306,0,1,1,2.7386127875258306,0" fill="#EB5C2E" stroke="#EB5C2E" stroke-opacity="0.8" stroke-width="2" opacity="0.6"/><path aria-label="tech: offwind; year: 2022; avg: 0.097" role="graphics-symbol" aria-roledescription="point" transform="translate(350,227.25000000000003)" d="M2.7386127875258306,0A2.7386127875258306,2.7386127875258306,0,1,1,-2.7386127875258306,0A2.7386127875258306,2.7386127875258306,0,1,1,2.7386127875258306,0" fill="#179FDB" stroke="#179FDB" stroke-opacity="0.8" stroke-width="2" opacity="0.6"/><path aria-label="tech: offwind; year: 2023; avg: 0.082" role="graphics-symbol" aria-roledescription="point" transform="translate(375,238.5)" d="M2.7386127875258306,0A2.7386127875258306,2.7386127875258306,0,1,1,-2.7386127875258306,0A2.7386127875258306,2.7386127875258306,0,1,1,2.7386127875258306,0" fill="#179FDB" stroke="#179FDB" stroke-opacity="0.8" stroke-width="2" opacity="0.6"/></g><g class="mark-text role-mark layer_3_marks" role="graphics-object" aria-roledescription="text mark container"><text aria-label="t: Fossil fuel range; x: 2024; y: 0.165" role="graphics-symbol" aria-roledescription="text mark" text-anchor="end" transform="translate(400,176.25) rotate(270) translate(-5,-4)" font-family="Georgia" font-size="10px" fill="#676A86">Fossil fuel range</text></g><g class="mark-text role-mark layer_4_marks" role="graphics-object" aria-roledescription="text mark container"><text aria-label="t: Circles:; x: 2023; y: 0.055" role="graphics-symbol" aria-roledescription="text mark" text-anchor="end" transform="translate(370,261.75)" font-family="Georgia" font-size="10px" fill="#676A86">Circles:</text><text aria-label="t: Auctions; x: 2023.2; y: 0.04" role="graphics-symbol" aria-roledescription="text mark" text-anchor="end" transform="translate(375.00000000000114,273)" font-family="Georgia" font-size="10px" fill="#676A86">Auctions</text><text aria-label="t: &amp; PPAs; x: 2023; y: 0.025" role="graphics-symbol" aria-roledescription="text mark" text-anchor="end" transform="translate(370,284.25)" font-family="Georgia" font-size="10px" fill="#676A86">&amp; PPAs</text><text aria-label="t: Lines:; x: 2018.5; y: 0.31" role="graphics-symbol" aria-roledescription="text mark" text-anchor="end" transform="translate(257.5,70.50000000000003)" font-family="Georgia" font-size="10px" fill="#676A86">Lines:</text><text aria-label="t: LCOE; x: 2018.5; y: 0.295" role="graphics-symbol" aria-roledescription="text mark" text-anchor="end" transform="translate(257.5,81.75000000000001)" font-family="Georgia" font-size="10px" fill="#676A86">LCOE</text><text aria-label="t: database; x: 2018.7; y: 0.28" role="graphics-symbol" aria-roledescription="text mark" text-anchor="end" transform="translate(262.50000000000114,92.99999999999999)" font-family="Georgia" font-size="10px" fill="#676A86">database</text></g><g class="mark-text role-mark layer_5_marks" role="graphics-object" aria-roledescription="text mark container"><text aria-label="t: Offshore wind; x: 2011; y: 0.14" role="graphics-symbol" aria-roledescription="text mark" text-anchor="start" transform="translate(75,197.99999999999997)" font-family="Georgia" font-size="10px" fill="#179FDB">Offshore wind</text><text aria-label="t: Onshore wind; x: 2010.5; y: 0.064" role="graphics-symbol" aria-roledescription="text mark" text-anchor="start" transform="translate(62.5,255)" font-family="Georgia" font-size="10px" fill="#00A767">Onshore wind</text><text aria-label="t: Concentrated solar; x: 2011; y: 0.364" role="graphics-symbol" aria-roledescription="text mark" text-anchor="start" transform="translate(75,30.000000000000025)" font-family="Georgia" font-size="10px" fill="#EB5C2E">Concentrated solar</text><text aria-label="t: Solar PV; x: 2012.7; y: 0.21" role="graphics-symbol" aria-roledescription="text mark" text-anchor="start" transform="translate(117.50000000000114,145.50000000000003)" font-family="Georgia" font-size="10px" fill="#cf970c">Solar PV</text></g><g class="mark-group role-title"><g transform="translate(-1,-48)"><path class="background" aria-hidden="true" d="M0,0h0v0h0Z" pointer-events="none"/><g><g class="mark-text role-title-text" role="graphics-symbol" aria-roledescription="title" aria-label="Title text 'Evolution of LCOE for renewable energy technologies'" pointer-events="none"><text text-anchor="start" transform="translate(5,6)" font-family="Georgia" font-size="14px" font-weight="bold" fill="#F4134D" opacity="1">Evolution of LCOE for renewable energy technologies</text></g><g class="mark-text role-title-subtitle" role="graphics-symbol" aria-roledescription="subtitle" aria-label="Subtitle text 'Levelised cost of electricity. Source: CCC, based on IRENA (2020)'" pointer-events="none"><text text-anchor="start" transform="translate(5,21)" font-family="Georgia" font-size="12px" font-style="italic" fill="#F4134D" opacity="1">Levelised cost of electricity. Source: CCC, based on IRENA (2020)</text></g></g><path class="foreground" aria-hidden="true" d="" pointer-events="none" display="none"/></g></g></g><path class="foreground" aria-hidden="true" d="" display="none"/></g></g></g></svg>