<svg xmlns="http://www.w3.org/2000/svg" xmlns:xlink="http://www.w3.org/1999/xlink" version="1.1" class="marks" width="560" height="379" viewBox="0 0 560 379"><rect width="560" height="379" fill="white"/><g fill="none" stroke-miterlimit="10" transform="translate(6,57)"><g class="mark-group role-frame root" role="graphics-object" aria-roledescription="group mark container"><g transform="translate(0,0)"><path class="background" aria-hidden="true" d="M0,0h400v300h-400Z"/><g><g class="mark-group role-axis" aria-hidden="true"><g transform="translate(0.5,0.5)"><path class="background" aria-hidden="true" d="M0,0h0v0h0Z" pointer-events="none"/><g><g class="mark-rule role-axis-grid" pointer-events="none"><line transform="translate(0,300)" x2="400" y2="0" stroke="#676A86" stroke-opacity="0.1" stroke-width="1" opacity="1"/><line transform="translate(0,250)" x2="400" y2="0" stroke="#676A86" stroke-opacity="0.1" stroke-width="1" opacity="1"/><line transform="translate(0,200)" x2="400" y2="0" stroke="#676A86" stroke-opacity="0.1" stroke-width="1" opacity="1"/><line transform="translate(0,150)" x2="400" y2="0" stroke="#676A86" stroke-opacity="0.1" stroke-width="1" opacity="1"/><line transform="translate(0,100)" x2="400" y2="0" stroke="#676A86" stroke-opacity="0.1" stroke-width="1" opacity="1"/><line transform="translate(0,50)" x2="400" y2="0" stroke="#676A86" stroke-opacity="0.1" stroke-width="1" opacity="1"/><line transform="translate(0,0)" x2="400" y2="0" stroke="#676A86" stroke-opacity="0.1" stroke-width="1" opacity="1"/></g></g><path class="foreground" aria-hidden="true" d="" pointer-events="none" display="none"/></g></g><g class="mark-group role-axis" role="graphics-symbol" aria-roledescription="axis" aria-label="X-axis for a linear scale with values from 2020 to 2050"><g transform="translate(0.5,300.5)"><path class="background" aria-hidden="true" d="M0,0h0v0h0Z" pointer-events="none"/><g><g class="mark-rule role-axis-tick" pointer-events="none"><line transform="translate(0,0)" x2="0" y2="5" stroke="#676A86" stroke-width="1" opacity="1"/><line transform="translate(67,0)" x2="0" y2="5" stroke="#676A86" stroke-width="1" opacity="1"/><line transform="translate(133,0)" x2="0" y2="5" stroke="#676A86" stroke-width="1" opacity="1"/><line transform="translate(200,0)" x2="0" y2="5" stroke="#676A86" stroke-width="1" opacity="1"/><line transform="translate(267,0)" x2="0" y2="5" stroke="#676A86" stroke-width="1" opacity="1"/><line transform="translate(333,0)" x2="0" y2="5" stroke="#676A86" stroke-width="1" opacity="1"/><line transform="translate(400,0)" x2="0" y2="5" stroke="#676A86" stroke-width="1" opacity="1"/></g><g class="mark-text role-axis-label" pointer-events="none"><text text-anchor="start" transform="translate(0,15)" font-family="sans-serif" font-size="10px" fill="#676A86" opacity="1">2020</text><text text-anchor="middle" transform="translate(66.66666666666666,15)" font-family="sans-serif" font-size="10px" fill="#676A86" opacity="1">2025</text><text text-anchor="middle" transform="translate(133.33333333333331,15)" font-family="sans-serif" font-size="10px" fill="#676A86" opacity="1">2030</text><text text-anchor="middle" transform="translate(200,15)" font-family="sans-serif" font-size="10px" fill="#676A86" opacity="1">2035</text><text text-anchor="middle" transform="translate(266.66666666666663,15)" font-family="sans-serif" font-size="10px" fill="#676A86" opacity="1">2040</text><text text-anchor="middle" transform="translate(333.33333333333337,15)" font-family="sans-serif" font-size="10px" fill="#676A86" opacity="1">2045</text><text text-anchor="end" transform="translate(400,15)" font-family="sans-serif" font-size="10px" fill="#676A86" opacity="1">2050</text></g><g class="mark-rule role-axis-domain" pointer-events="none"><line transform="translate(0,0)" x2="400" y2="0" stroke="#676A86" stroke-width="1" opacity="1"/></g></g><path class="foreground" aria-hidden="true" d="" pointer-events="none" display="none"/></g></g><g class="mark-group role-axis" role="graphics-symbol" aria-roledescription="axis" aria-label="Y-axis titled '£ billion / year' for a linear scale with values from −60 to 60"><g transform="translate(0.5,0.5)"><path class="background" aria-hidden="true" d="M0,0h0v0h0Z" pointer-events="none"/><g><g class="mark-text role-axis-label" pointer-events="none"><text text-anchor="start" transform="translate(5,293)" font-family="sans-serif" font-size="10px" fill="#676A86" opacity="1">−60</text><text text-anchor="start" transform="translate(5,243)" font-family="sans-serif" font-size="10px" fill="#676A86" opacity="1">−40</text><text text-anchor="start" transform="translate(5,193.00000000000003)" font-family="sans-serif" font-size="10px" fill="#676A86" opacity="1">−20</text><text text-anchor="start" transform="translate(5,143)" font-family="sans-serif" font-size="10px" fill="#676A86" opacity="1">0</text><text text-anchor="start" transform="translate(5,93.00000000000001)" font-family="sans-serif" font-size="10px" fill="#676A86" opacity="1">20</text><text text-anchor="start" transform="translate(5,42.999999999999986)" font-family="sans-serif" font-size="10px" fill="#676A86" opacity="1">40</text><text text-anchor="start" transform="translate(5,-7)" font-family="sans-serif" font-size="10px" fill="#676A86" opacity="1">60</text></g><g class="mark-rule role-axis-domain" pointer-events="none"><line transform="translate(0,300)" x2="0" y2="-300" stroke="#676A86" stroke-width="1" opacity="1"/></g><g class="mark-text role-axis-title" pointer-events="none"><text text-anchor="start" transform="translate(30,-7)" font-family="sans-serif" font-size="10px" font-weight="normal" fill="#676A86" opacity="1">£ billion / year</text></g></g><path class="foreground" aria-hidden="true" d="" pointer-events="none" display="none"/></g></g><g class="mark-group role-scope layer_0_pathgroup" role="graphics-object" aria-roledescription="group mark container"><g transform="translate(0,0)"><path class="background" aria-hidden="true" d="M0,0h400v300h-400Z"/><g><g class="mark-area role-mark layer_0_marks" role="graphics-object" aria-roledescription="area mark container"><path aria-label="sector: Surface transport CAPEX; year: 2020; value: 2" role="graphics-symbol" aria-roledescription="area mark" d="M0,144.19210484012385L13.333333333333334,141.2940506250597L26.666666666666668,138.08810528957693L40,134.32564659403172L53.333333333333336,129.81805962705587L66.66666666666666,122.19965243679425L80,123.82303822316224L93.33333333333333,124.08187787435844L106.66666666666667,124.6288424310496L120,125.5757199754633L133.33333333333331,124.77489190083972L146.66666666666666,125.30633967116053L160,124.0289281001394L173.33333333333334,122.77835502890197L186.66666666666666,121.41406722885452L200,118.89443706457159L213.33333333333334,119.63178770540898L226.66666666666666,119.41049410167454L240,119.25670324275549L253.33333333333331,119.16312921388418L266.66666666666663,117.60675629660382L280,118.83611895660458L293.3333333333333,118.57760432373466L306.6666666666667,118.35687267831467L320,118.16208642806802L333.33333333333337,117.67857381684516L346.6666666666667,117.88811153057726L360,117.76274158735322L373.3333333333333,117.6527756051772L386.6666666666667,117.54177075054507L400,117.8006844889843L400,150L386.6666666666667,150L373.3333333333333,150L360,150L346.6666666666667,150L333.33333333333337,150L320,150L306.6666666666667,150L293.3333333333333,150L280,150L266.66666666666663,150L253.33333333333331,150L240,150L226.66666666666666,150L213.33333333333334,150L200,150L186.66666666666666,150L173.33333333333334,150L160,150L146.66666666666666,150L133.33333333333331,150L120,150L106.66666666666667,150L93.33333333333333,150L80,150L66.66666666666666,150L53.333333333333336,150L40,150L26.666666666666668,150L13.333333333333334,150L0,150Z" fill="#36B7B4" opacity="0.7"/></g></g><path class="foreground" aria-hidden="true" d="" display="none"/></g><g transform="translate(0,0)"><path class="background" aria-hidden="true" d="M0,0h400v300h-400Z"/><g><g class="mark-area role-mark layer_0_marks" role="graphics-object" aria-roledescription="area mark container"><path aria-label="sector: Electricity supply CAPEX; year: 2020; value: 4" role="graphics-symbol" aria-roledescription="area mark" d="M0,130.92867717086008L13.333333333333334,132.92402800189555L26.666666666666668,118.90494178952535L40,105.56973140045446L53.333333333333336,87.7856614174127L66.66666666666666,74.63220986752988L80,61.448208608953294L93.33333333333333,64.61767415972088L106.66666666666667,64.51432243616189L120,67.75520447243828L133.33333333333331,57.83657078864318L146.66666666666666,51.068110871494376L160,49.57402531364834L173.33333333333334,48.55714355636892L186.66666666666666,47.43209315630932L200,41.91429097085185L213.33333333333334,48.85400491750844L226.66666666666666,58.82413646490302L240,64.76829650746903L253.33333333333331,56.88800701648831L266.66666666666663,53.63276628647065L280,56.35768976485214L293.3333333333333,56.92589288464778L306.6666666666667,55.71276006303945L320,54.89575776201422L333.33333333333337,55.60217046644571L346.6666666666667,53.83666206680602L360,52.10862063058504L373.3333333333333,45.144181838612454L386.6666666666667,45.3886920138136L400,45.19915464173479L400,60.37921097953875L386.6666666666667,62.75344823859265L373.3333333333333,62.71440332903392L360,69.01281116212733L346.6666666666667,67.76107110832207L333.33333333333337,69.48888193394207L320,70.51609221522865L306.6666666666667,74.7952985159729L293.3333333333333,76.51200603384586L280,79.71488599792693L266.66666666666663,77.33680929502971L253.33333333333331,82.1276920499114L240,85.48055193413897L226.66666666666666,83.23219117729876L213.33333333333334,83.4488242477971L200,83.64860994644772L186.66666666666666,92.30404185078297L173.33333333333334,93.69528859962927L160,94.79405370559128L146.66666666666666,96.90329597878485L133.33333333333331,97.39278188905568L120,103.49412688923964L106.66666666666667,105.00532371672392L93.33333333333333,105.99513632274724L80,107.30969790554855L66.66666666666666,109.43368892113583L53.333333333333336,118.07819298874006L40,122.8535818155716L26.666666666666668,130.13906496869697L13.333333333333334,136.56519614750084L0,141.15422568930055Z" fill="#E6224B" opacity="0.7"/></g></g><path class="foreground" aria-hidden="true" d="" display="none"/></g><g transform="translate(0,0)"><path class="background" aria-hidden="true" d="M0,0h400v300h-400Z"/><g><g class="mark-area role-mark layer_0_marks" role="graphics-object" aria-roledescription="area mark container"><path aria-label="sector: Networks CAPEX; year: 2020; value: 0" role="graphics-symbol" aria-roledescription="area mark" d="M0,143.58786784221365L13.333333333333334,139.80739054702346L26.666666666666668,134.18190099275412L40,127.2772001785341L53.333333333333336,123.80863161222723L66.66666666666666,114.63216016140525L80,114.70440518951422L93.33333333333333,114.2350250737762L106.66666666666667,112.69562931717594L120,113.44884649115009L133.33333333333331,111.53350216928455L146.66666666666666,111.67346659829171L160,110.18125672408729L173.33333333333334,107.45649918751874L186.66666666666666,105.47459664061172L200,100.13755946466084L213.33333333333334,101.40360881592379L226.66666666666666,99.11729075447091L240,98.68432004451257L253.33333333333331,98.0700683135192L266.66666666666663,92.99084121255929L280,92.93612962618758L293.3333333333333,90.71429524859536L306.6666666666667,88.47384340055723L320,86.70114377987753L333.33333333333337,84.3951612134343L346.6666666666667,84.08961177525934L360,81.62012194640488L373.3333333333333,80.88406931005105L386.6666666666667,79.70040845793952L400,78.30877517468522L400,102.20351522599826L386.6666666666667,102.30733876273959L373.3333333333333,102.54220317923011L360,103.28379273624068L346.6666666666667,104.30470616461169L333.33333333333337,104.77758609262969L320,106.05909303474405L306.6666666666667,107.1937576259606L293.3333333333333,109.09265153598892L280,109.46531685392303L266.66666666666663,109.30832255520352L253.33333333333331,110.99696397039655L240,111.65643825822558L226.66666666666666,112.1935443120815L213.33333333333334,113.9904501467153L200,113.23676567199156L186.66666666666666,117.13694773958497L173.33333333333334,118.62314843834183L160,119.95394625333695L146.66666666666666,120.97461514178583L133.33333333333331,119.47818934052144L120,120.26994230271613L106.66666666666667,119.44808502660209L93.33333333333333,119.43653412991047L80,119.33474723581523L66.66666666666666,118.12301114394583L53.333333333333336,125.53003871084752L40,128.84013073057406L26.666666666666668,134.9266565389087L13.333333333333334,140.31475354202584L0,143.89927156602502Z" fill="#F4C245" opacity="0.7"/></g></g><path class="foreground" aria-hidden="true" d="" display="none"/></g><g transform="translate(0,0)"><path class="background" aria-hidden="true" d="M0,0h400v300h-400Z"/><g><g class="mark-area role-mark layer_0_marks" role="graphics-object" aria-roledescription="area mark container"><path aria-label="sector: Buildings CAPEX; year: 2020; value: 1" role="graphics-symbol" aria-roledescription="area mark" d="M0,129.25355888159834L13.333333333333334,121.82970676709019L26.666666666666668,104.59895662816524L40,88.72818670153444L53.333333333333336,67.94988455352573L66.66666666666666,49.303284036226124L80,31.13099753981522L93.33333333333333,26.455529444819405L106.66666666666667,15.164090128427643L120,23.93731563298789L133.33333333333331,14.454954795861807L146.66666666666666,15.970440578238865L160,14.149256352783501L173.33333333333334,10.795042710466241L186.66666666666666,8.250475512559952L200,3.824805427166067L213.33333333333334,12.093062498804786L226.66666666666666,21.950202980086154L240,28.91127466712503L253.33333333333331,20.336186160536485L266.66666666666663,19.604492566013644L280,21.393744173046215L293.3333333333333,22.76255870855892L306.6666666666667,23.826362491155738L320,27.676258376177778L333.33333333333337,30.0054834135708L346.6666666666667,28.3495671569555L360,26.773067627921066L373.3333333333333,20.181227414433167L386.6666666666667,29.53721722803252L400,30.02611280902955L400,45.19915464173479L386.6666666666667,45.3886920138136L373.3333333333333,45.144181838612454L360,52.10862063058504L346.6666666666667,53.83666206680602L333.33333333333337,55.60217046644571L320,54.89575776201422L306.6666666666667,55.71276006303945L293.3333333333333,56.92589288464778L280,56.35768976485214L266.66666666666663,53.632766286470655L253.33333333333331,56.88800701648831L240,64.76829650746903L226.66666666666666,58.82413646490302L213.33333333333334,48.85400491750844L200,41.91429097085185L186.66666666666666,47.43209315630932L173.33333333333334,48.55714355636892L160,49.57402531364834L146.66666666666666,50.62459174711199L133.33333333333331,56.64988741895753L120,66.18075640696414L106.66666666666667,62.65524219562495L93.33333333333333,62.42460289943283L80,59.250571706562795L66.66666666666666,72.61850086143008L53.333333333333336,86.03565764284033L40,104.1339472763849L26.666666666666668,117.87705327653786L13.333333333333334,132.3249917051574L0,130.77989960523902Z" fill="#0063AF" opacity="0.7"/></g></g><path class="foreground" aria-hidden="true" d="" display="none"/></g><g transform="translate(0,0)"><path class="background" aria-hidden="true" d="M0,0h400v300h-400Z"/><g><g class="mark-area role-mark layer_0_marks" role="graphics-object" aria-roledescription="area mark container"><path aria-label="sector: M&amp;C / Fuel supply CAPEX; year: 2020; value: 0" role="graphics-symbol" aria-roledescription="area mark" d="M0,141.15422568930055L13.333333333333334,136.56519614750084L26.666666666666668,130.13906496869697L40,122.8535818155716L53.333333333333336,118.07819298874006L66.66666666666666,109.43368892113583L80,107.30969790554855L93.33333333333333,105.99513632274724L106.66666666666667,105.00532371672392L120,103.49412688923964L133.33333333333331,97.39278188905568L146.66666666666666,96.90329597878485L160,94.79405370559128L173.33333333333334,93.69528859962927L186.66666666666666,92.30404185078297L200,83.64860994644772L213.33333333333334,83.4488242477971L226.66666666666666,83.23219117729876L240,85.48055193413897L253.33333333333331,82.1276920499114L266.66666666666663,77.33680929502971L280,79.71488599792693L293.3333333333333,76.51200603384586L306.6666666666667,74.7952985159729L320,70.51609221522865L333.33333333333337,69.48888193394207L346.6666666666667,67.76107110832207L360,69.01281116212733L373.3333333333333,62.71440332903392L386.6666666666667,62.75344823859265L400,60.37921097953875L400,78.30877517468522L386.6666666666667,79.70040845793952L373.3333333333333,80.88406931005105L360,81.62012194640488L346.6666666666667,84.08961177525934L333.33333333333337,84.3951612134343L320,86.70114377987753L306.6666666666667,88.47384340055723L293.3333333333333,90.71429524859536L280,92.93612962618758L266.66666666666663,92.99084121255929L253.33333333333331,98.04943386678163L240,97.72439268644408L226.66666666666666,97.74392867157792L213.33333333333334,99.58806720992767L200,98.34087905623569L186.66666666666666,102.95030175057974L173.33333333333334,105.05370311159575L160,106.68663660769711L146.66666666666666,108.4310425815468L133.33333333333331,109.13909793551959L120,111.87630459556408L106.66666666666667,110.27578750572798L93.33333333333333,111.40627836133734L80,112.03801083403184L66.66666666666666,112.94737613295018L53.333333333333336,121.08712889717327L40,124.5633274629137L26.666666666666668,131.5731993310811L13.333333333333334,137.68148855639322L0,141.90785953088312Z" fill="#00A767" opacity="0.7"/></g></g><path class="foreground" aria-hidden="true" d="" display="none"/></g><g transform="translate(0,0)"><path class="background" aria-hidden="true" d="M0,0h400v300h-400Z"/><g><g class="mark-area role-mark layer_0_marks" role="graphics-object" aria-roledescription="area mark container"><path aria-label="sector: Other CAPEX; year: 2020; value: 0" role="graphics-symbol" aria-roledescription="area mark" d="M0,143.89927156602502L13.333333333333334,140.31475354202584L26.666666666666668,134.9266565389087L40,128.84013073057406L53.333333333333336,125.53003871084752L66.66666666666666,118.12301114394583L80,119.33474723581523L93.33333333333333,119.43653412991047L106.66666666666667,119.44808502660209L120,120.26994230271613L133.33333333333331,119.47818934052144L146.66666666666666,120.97461514178583L160,119.95394625333695L173.33333333333334,118.62314843834183L186.66666666666666,117.13694773958497L200,113.23676567199156L213.33333333333334,113.9904501467153L226.66666666666666,112.1935443120815L240,111.65643825822558L253.33333333333331,110.99696397039655L266.66666666666663,109.30832255520352L280,109.46531685392303L293.3333333333333,109.09265153598892L306.6666666666667,107.1937576259606L320,106.05909303474405L333.33333333333337,104.77758609262969L346.6666666666667,104.30470616461169L360,103.28379273624068L373.3333333333333,102.54220317923011L386.6666666666667,102.30733876273959L400,102.20351522599826L400,110.74884013852497L386.6666666666667,110.88506225273179L373.3333333333333,111.15566816138357L360,111.92072300165378L346.6666666666667,112.53863261684405L333.33333333333337,113.18595920806746L320,114.52954470811015L306.6666666666667,115.91966595037107L293.3333333333333,117.41114294320964L280,118.01879262642454L266.66666666666663,117.60675629660382L253.33333333333331,119.13039382360573L240,119.25670324275549L226.66666666666666,119.41049410167454L213.33333333333334,119.63178770540898L200,118.89443706457159L186.66666666666666,121.41406722885452L173.33333333333334,122.77835502890197L160,124.0289281001394L146.66666666666666,125.30633967116053L133.33333333333331,124.77489190083972L120,125.5757199754633L106.66666666666667,124.6288424310496L93.33333333333333,124.08187787435844L80,123.82303822316224L66.66666666666666,122.19965243679425L53.333333333333336,129.81805962705587L40,134.32564659403172L26.666666666666668,138.08810528957693L13.333333333333334,141.2940506250597L0,144.19210484012385Z" fill="#179FDB" opacity="0.7"/></g></g><path class="foreground" aria-hidden="true" d="" display="none"/></g><g transform="translate(0,0)"><path class="background" aria-hidden="true" d="M0,0h400v300h-400Z"/><g><g class="mark-area role-mark layer_0_marks" role="graphics-object" aria-roledescription="area mark container"><path aria-label="sector: Surface transport OPEX; year: 2020; value: −1" role="graphics-symbol" aria-roledescription="area mark" d="M0,151.7131183166772L13.333333333333334,152.3629787928101L26.666666666666668,153.74299623607138L40,155.53099745639514L53.333333333333336,158.10010351371716L66.66666666666666,162.8124317721844L80,166.81074107268697L93.33333333333333,170.69847945853178L106.66666666666667,174.85310194290963L120,180.03190535579904L133.33333333333331,188.30573301124005L146.66666666666666,192.98404311655824L160,197.53129233233167L173.33333333333334,202.00437102940182L186.66666666666666,206.26799508032684L200,212.64507434618773L213.33333333333334,216.58442828857508L226.66666666666666,220.27115595231152L240,223.66216170737988L253.33333333333331,226.77611649605367L266.66666666666663,231.93733036640361L280,234.2830126746891L293.3333333333333,236.30616724252582L306.6666666666667,238.10439044646515L320,239.71608412755344L333.33333333333337,242.25569495227487L346.6666666666667,243.16235794254857L360,243.74215923332866L373.3333333333333,244.4657286083221L386.6666666666667,245.15556215530606L400,246.8544041346164L400,150L386.6666666666667,150L373.3333333333333,150L360,150L346.6666666666667,150L333.33333333333337,150L320,150L306.6666666666667,150L293.3333333333333,150L280,150L266.66666666666663,150L253.33333333333331,150L240,150L226.66666666666666,150L213.33333333333334,150L200,150L186.66666666666666,150L173.33333333333334,150L160,150L146.66666666666666,150L133.33333333333331,150L120,150L106.66666666666667,150L93.33333333333333,150L80,150L66.66666666666666,150L53.333333333333336,150L40,150L26.666666666666668,150L13.333333333333334,150L0,150Z" fill="#EB5C2E" opacity="0.7"/></g></g><path class="foreground" aria-hidden="true" d="" display="none"/></g><g transform="translate(0,0)"><path class="background" aria-hidden="true" d="M0,0h400v300h-400Z"/><g><g class="mark-area role-mark layer_0_marks" role="graphics-object" aria-roledescription="area mark container"><path aria-label="sector: Electricity supply OPEX; year: 2020; value: −1" role="graphics-symbol" aria-roledescription="area mark" d="M0,155.48628489538666L13.333333333333334,156.48032445589357L26.666666666666668,158.08925026837255L40,161.15976061765033L53.333333333333336,164.9947016647525L66.66666666666666,167.8414101710701L80,174.24061978554414L93.33333333333333,177.81553140292672L106.66666666666667,185.18202415035293L120,188.0866152244708L133.33333333333331,199.6319548431323L146.66666666666666,203.89569978962308L160,208.57940812882262L173.33333333333334,212.30379212810166L186.66666666666666,215.613400546785L200,223.93952357080548L213.33333333333334,229.4240016436479L226.66666666666666,233.0069426022603L240,236.029893480445L253.33333333333331,239.75863168647004L266.66666666666663,247.13117524283234L280,250.13569159793525L293.3333333333333,253.87827060835687L306.6666666666667,257.84154097878826L320,261.3305120633661L333.33333333333337,265.0625276933757L346.6666666666667,267.35126469106126L360,269.8094717202122L373.3333333333333,272.0019455964886L386.6666666666667,274.78333406019317L400,278.2101079101633L400,252.6108513088357L386.6666666666667,250.06549712198145L373.3333333333333,248.6380301269449L360,247.31888334107327L346.6666666666667,245.86388065796734L333.33333333333337,244.26584662156608L320,241.0617775751053L306.6666666666667,239.1062730007171L293.3333333333333,237.00397582567243L280,234.7287473382685L266.66666666666663,233.00300033722178L253.33333333333331,226.77611649605367L240,223.98174370879838L226.66666666666666,220.8265215118918L213.33333333333334,217.41109510650116L200,214.27702712063763L186.66666666666666,207.78702137408683L173.33333333333334,204.14795225209005L160,199.80032343383417L146.66666666666666,195.4780691509076L133.33333333333331,190.96203486397755L120,182.75334703106589L106.66666666666667,177.68896209989302L93.33333333333333,172.46394059676476L80,167.65772483835897L66.66666666666666,163.41707532070498L53.333333333333336,159.45559544787153L40,156.4035023056655L26.666666666666668,154.3387972717622L13.333333333333334,152.73205479437092L0,151.8608293212356Z" fill="#36B7B4" opacity="0.7"/></g></g><path class="foreground" aria-hidden="true" d="" display="none"/></g><g transform="translate(0,0)"><path class="background" aria-hidden="true" d="M0,0h400v300h-400Z"/><g><g class="mark-area role-mark layer_0_marks" role="graphics-object" aria-roledescription="area mark container"><path aria-label="sector: Buildings OPEX; year: 2020; value: 0" role="graphics-symbol" aria-roledescription="area mark" d="M0,130.77989960523902L13.333333333333334,132.3249917051574L26.666666666666668,117.87705327653786L40,104.1339472763849L53.333333333333336,86.03565764284033L66.66666666666666,72.61850086143008L80,59.250571706562795L93.33333333333333,62.42460289943283L106.66666666666667,62.65524219562495L120,66.18075640696414L133.33333333333331,56.64988741895753L146.66666666666666,50.62459174711199L160,209.0007074360673L173.33333333333334,214.1058198946303L186.66666666666666,218.93543359475964L200,228.82613323636664L213.33333333333334,235.76200490283713L226.66666666666666,240.75199465833884L240,245.13262826525266L253.33333333333331,250.20368356173736L266.66666666666663,258.90579099472114L280,263.11195712156047L293.3333333333333,267.9803059627797L306.6666666666667,273.0696128368849L320,277.4641175547658L333.33333333333337,282.0829615225726L346.6666666666667,285.21904065181343L360,288.5040603135558L373.3333333333333,291.1660528448589L386.6666666666667,294.0160922142964L400,297.58710937059584L400,278.2101079101633L386.6666666666667,274.78333406019317L373.3333333333333,272.0019455964886L360,269.8094717202122L346.6666666666667,267.35126469106126L333.33333333333337,265.0625276933757L320,261.3305120633661L306.6666666666667,257.84154097878826L293.3333333333333,253.87827060835687L280,250.13569159793525L266.66666666666663,247.13117524283234L253.33333333333331,239.75863168647004L240,236.029893480445L226.66666666666666,233.0069426022603L213.33333333333334,229.4240016436479L200,223.93952357080548L186.66666666666666,215.613400546785L173.33333333333334,212.30379212810166L160,208.57940812882262L146.66666666666666,51.068110871494376L133.33333333333331,57.83657078864318L120,67.75520447243828L106.66666666666667,64.51432243616189L93.33333333333333,64.61767415972088L80,61.448208608953294L66.66666666666666,74.63220986752988L53.333333333333336,87.7856614174127L40,105.56973140045446L26.666666666666668,118.90494178952535L13.333333333333334,132.92402800189555L0,130.92867717086008Z" fill="#E6224B" opacity="0.7"/></g></g><path class="foreground" aria-hidden="true" d="" display="none"/></g><g transform="translate(0,0)"><path class="background" aria-hidden="true" d="M0,0h400v300h-400Z"/><g><g class="mark-area role-mark layer_0_marks" role="graphics-object" aria-roledescription="area mark container"><path aria-label="sector: M&amp;C / Fuel supply OPEX; year: 2020; value: 1" role="graphics-symbol" aria-roledescription="area mark" d="M0,141.90785953088312L13.333333333333334,137.68148855639322L26.666666666666668,131.5731993310811L40,124.5633274629137L53.333333333333336,121.08712889717327L66.66666666666666,112.94737613295018L80,112.03801083403184L93.33333333333333,111.40627836133734L106.66666666666667,110.27578750572798L120,111.87630459556408L133.33333333333331,109.13909793551959L146.66666666666666,108.4310425815468L160,106.68663660769711L173.33333333333334,105.05370311159575L186.66666666666666,102.95030175057974L200,98.34087905623569L213.33333333333334,99.58806720992767L226.66666666666666,97.74392867157792L240,97.72439268644408L253.33333333333331,98.04943386678163L266.66666666666663,233.00300033722178L280,234.7287473382685L293.3333333333333,237.00397582567243L306.6666666666667,239.1062730007171L320,241.0617775751053L333.33333333333337,244.26584662156608L346.6666666666667,245.86388065796734L360,247.31888334107327L373.3333333333333,248.6380301269449L386.6666666666667,250.06549712198145L400,252.6108513088357L400,246.8544041346164L386.6666666666667,245.15556215530606L373.3333333333333,244.4657286083221L360,243.74215923332866L346.6666666666667,243.16235794254857L333.33333333333337,242.25569495227487L320,239.71608412755344L306.6666666666667,238.10439044646515L293.3333333333333,236.30616724252582L280,234.2830126746891L266.66666666666663,232.28570369061939L253.33333333333331,98.0700683135192L240,98.68432004451257L226.66666666666666,99.11729075447091L213.33333333333334,101.40360881592379L200,100.13755946466084L186.66666666666666,105.47459664061172L173.33333333333334,107.45649918751874L160,110.18125672408729L146.66666666666666,111.67346659829171L133.33333333333331,111.53350216928455L120,113.44884649115009L106.66666666666667,112.69562931717594L93.33333333333333,114.2350250737762L80,114.70440518951422L66.66666666666666,114.63216016140525L53.333333333333336,123.80863161222723L40,127.2772001785341L26.666666666666668,134.18190099275412L13.333333333333334,139.80739054702346L0,143.58786784221365Z" fill="#F4C245" opacity="0.7"/></g></g><path class="foreground" aria-hidden="true" d="" display="none"/></g><g transform="translate(0,0)"><path class="background" aria-hidden="true" d="M0,0h400v300h-400Z"/><g><g class="mark-area role-mark layer_0_marks" role="graphics-object" aria-roledescription="area mark container"><path aria-label="sector: Other OPEX; year: 2020; value: 0" role="graphics-symbol" aria-roledescription="area mark" d="M0,151.8608293212356L13.333333333333334,152.73205479437092L26.666666666666668,154.3387972717622L40,156.4035023056655L53.333333333333336,159.45559544787153L66.66666666666666,163.41707532070498L80,167.65772483835897L93.33333333333333,172.46394059676476L106.66666666666667,177.68896209989302L120,182.75334703106589L133.33333333333331,190.96203486397755L146.66666666666666,195.4780691509076L160,199.80032343383417L173.33333333333334,204.14795225209005L186.66666666666666,207.78702137408683L200,214.27702712063763L213.33333333333334,217.41109510650116L226.66666666666666,220.8265215118918L240,223.98174370879838L253.33333333333331,119.13039382360573L266.66666666666663,232.28570369061939L280,118.01879262642454L293.3333333333333,117.41114294320964L306.6666666666667,115.91966595037107L320,114.52954470811015L333.33333333333337,113.18595920806746L346.6666666666667,112.53863261684405L360,111.92072300165378L373.3333333333333,111.15566816138357L386.6666666666667,110.88506225273179L400,110.74884013852497L400,117.8006844889843L386.6666666666667,117.54177075054507L373.3333333333333,117.6527756051772L360,117.76274158735322L346.6666666666667,117.88811153057726L333.33333333333337,117.67857381684516L320,118.16208642806802L306.6666666666667,118.35687267831467L293.3333333333333,118.57760432373466L280,118.83611895660458L266.66666666666663,231.93733036640361L253.33333333333331,119.16312921388418L240,223.66216170737988L226.66666666666666,220.27115595231152L213.33333333333334,216.58442828857508L200,212.64507434618773L186.66666666666666,206.26799508032684L173.33333333333334,202.00437102940182L160,197.53129233233167L146.66666666666666,192.98404311655824L133.33333333333331,188.30573301124005L120,180.03190535579904L106.66666666666667,174.85310194290963L93.33333333333333,170.69847945853178L80,166.81074107268697L66.66666666666666,162.8124317721844L53.333333333333336,158.10010351371716L40,155.53099745639514L26.666666666666668,153.74299623607138L13.333333333333334,152.3629787928101L0,151.7131183166772Z" fill="#0063AF" opacity="0.7"/></g></g><path class="foreground" aria-hidden="true" d="" display="none"/></g></g><g class="mark-text role-mark layer_1_marks" role="graphics-object" aria-roledescription="text mark container"><text aria-label="sector: Surface transport CAPEX; year: 2050; value: 13" role="graphics-symbol" aria-roledescription="text mark" text-anchor="start" transform="translate(405,120.8006844889843)" font-family="sans-serif" font-size="11px" fill="#36B7B4">Surface transport CAPEX</text><text aria-label="sector: Electricity supply CAPEX; year: 2050; value: 6" role="graphics-symbol" aria-roledescription="text mark" text-anchor="start" transform="translate(405,48.19915464173479)" font-family="sans-serif" font-size="11px" fill="#E6224B">Electricity supply CAPEX</text><text aria-label="sector: Networks CAPEX; year: 2050; value: 10" role="graphics-symbol" aria-roledescription="text mark" text-anchor="start" transform="translate(405,81.30877517468522)" font-family="sans-serif" font-size="11px" fill="#F4C245">Networks CAPEX</text><text aria-label="sector: Buildings CAPEX; year: 2050; value: 6" role="graphics-symbol" aria-roledescription="text mark" text-anchor="start" transform="translate(405,33.02611280902955)" font-family="sans-serif" font-size="11px" fill="#0063AF">Buildings CAPEX</text><text aria-label="sector: M&amp;C / Fuel supply CAPEX; year: 2050; value: 7" role="graphics-symbol" aria-roledescription="text mark" text-anchor="start" transform="translate(405,63.37921097953875)" font-family="sans-serif" font-size="11px" fill="#00A767">M&amp;C / Fuel supply CAPEX</text><text aria-label="sector: Other CAPEX; year: 2050; value: 3" role="graphics-symbol" aria-roledescription="text mark" text-anchor="start" transform="translate(405,105.20351522599826)" font-family="sans-serif" font-size="11px" fill="#179FDB">Other CAPEX</text><text aria-label="sector: Surface transport OPEX; year: 2050; value: −39" role="graphics-symbol" aria-roledescription="text mark" text-anchor="start" transform="translate(405,249.8544041346164)" font-family="sans-serif" font-size="11px" fill="#EB5C2E">Surface transport OPEX</text><text aria-label="sector: Electricity supply OPEX; year: 2050; value: −10" role="graphics-symbol" aria-roledescription="text mark" text-anchor="start" transform="translate(405,281.2101079101633)" font-family="sans-serif" font-size="11px" fill="#36B7B4">Electricity supply OPEX</text><text aria-label="sector: Buildings OPEX; year: 2050; value: −8" role="graphics-symbol" aria-roledescription="text mark" text-anchor="start" transform="translate(405,300.58710937059584)" font-family="sans-serif" font-size="11px" fill="#E6224B">Buildings OPEX</text><text aria-label="sector: M&amp;C / Fuel supply OPEX; year: 2050; value: −2" role="graphics-symbol" aria-roledescription="text mark" text-anchor="start" transform="translate(405,255.6108513088357)" font-family="sans-serif" font-size="11px" fill="#F4C245">M&amp;C / Fuel supply OPEX</text><text aria-label="sector: Other OPEX; year: 2050; value: 3" role="graphics-symbol" aria-roledescription="text mark" text-anchor="start" transform="translate(405,113.74884013852497)" font-family="sans-serif" font-size="11px" fill="#0063AF">Other OPEX</text></g><g class="mark-group role-title"><g transform="translate(-1,-46)"><path class="background" aria-hidden="true" d="M0,0h0v0h0Z" pointer-events="none"/><g><g class="mark-text role-title-text" role="graphics-symbol" aria-roledescription="title" aria-label="Title text 'Capital investment costs and operating cost savings'" pointer-events="none"><text text-anchor="start" transform="translate(5,4)" font-family="sans-serif" font-size="12px" font-weight="bold" fill="#000" opacity="1">Capital investment costs and operating cost savings</text></g><g class="mark-text role-title-subtitle" role="graphics-symbol" aria-roledescription="subtitle" aria-label="Subtitle text 'The Sixth Carbon Budget - Balanced Pathway. Source: CCC (2020)'" pointer-events="none"><text text-anchor="start" transform="translate(5,19)" font-family="sans-serif" font-size="11px" font-style="italic" fill="#000" opacity="1">The Sixth Carbon Budget - Balanced Pathway. Source: CCC (2020)</text></g></g><path class="foreground" aria-hidden="true" d="" pointer-events="none" display="none"/></g></g></g><path class="foreground" aria-hidden="true" d="" display="none"/></g></g></g></svg>