<svg xmlns="http://www.w3.org/2000/svg" xmlns:xlink="http://www.w3.org/1999/xlink" version="1.1" class="marks" width="437" height="327" viewBox="0 0 437 327"><rect width="437" height="327" fill="white"/><g fill="none" stroke-miterlimit="10" transform="translate(30,5)"><g class="mark-group role-frame root" role="graphics-object" aria-roledescription="group mark container"><g transform="translate(0,0)"><path class="background" aria-hidden="true" d="M0,0h400v300h-400Z"/><g><g class="mark-group role-axis" aria-hidden="true"><g transform="translate(0.5,0.5)"><path class="background" aria-hidden="true" d="M0,0h0v0h0Z" pointer-events="none"/><g><g class="mark-rule role-axis-grid" pointer-events="none"><line transform="translate(0,300)" x2="400" y2="0" stroke="#676A86" stroke-opacity="0.2" stroke-width="1" opacity="1"/><line transform="translate(0,246)" x2="400" y2="0" stroke="#676A86" stroke-opacity="0.2" stroke-width="1" opacity="1"/><line transform="translate(0,193)" x2="400" y2="0" stroke="#676A86" stroke-opacity="0.2" stroke-width="1" opacity="1"/><line transform="translate(0,139)" x2="400" y2="0" stroke="#676A86" stroke-opacity="0.2" stroke-width="1" opacity="1"/><line transform="translate(0,86)" x2="400" y2="0" stroke="#676A86" stroke-opacity="0.2" stroke-width="1" opacity="1"/><line transform="translate(0,32)" x2="400" y2="0" stroke="#676A86" stroke-opacity="0.2" stroke-width="1" opacity="1"/></g></g><path class="foreground" aria-hidden="true" d="" pointer-events="none" display="none"/></g></g><g class="mark-group role-axis" role="graphics-symbol" aria-roledescription="axis" aria-label="X-axis for a time scale with values from Friday, 01 February 2019, 12:00:00 AM to Tuesday, 01 February 2022, 12:00:00 AM"><g transform="translate(0.5,300.5)"><path class="background" aria-hidden="true" d="M0,0h0v0h0Z" pointer-events="none"/><g><g class="mark-rule role-axis-tick" pointer-events="none"><line transform="translate(22,0)" x2="0" y2="5" stroke="#676A86" stroke-width="1" opacity="1"/><line transform="translate(55,0)" x2="0" y2="5" stroke="#676A86" stroke-width="1" opacity="1"/><line transform="translate(88,0)" x2="0" y2="5" stroke="#676A86" stroke-width="1" opacity="1"/><line transform="translate(122,0)" x2="0" y2="5" stroke="#676A86" stroke-width="1" opacity="1"/><line transform="translate(155,0)" x2="0" y2="5" stroke="#676A86" stroke-width="1" opacity="1"/><line transform="translate(188,0)" x2="0" y2="5" stroke="#676A86" stroke-width="1" opacity="1"/><line transform="translate(222,0)" x2="0" y2="5" stroke="#676A86" stroke-width="1" opacity="1"/><line transform="translate(255,0)" x2="0" y2="5" stroke="#676A86" stroke-width="1" opacity="1"/><line transform="translate(288,0)" x2="0" y2="5" stroke="#676A86" stroke-width="1" opacity="1"/><line transform="translate(322,0)" x2="0" y2="5" stroke="#676A86" stroke-width="1" opacity="1"/><line transform="translate(355,0)" x2="0" y2="5" stroke="#676A86" stroke-width="1" opacity="1"/><line transform="translate(389,0)" x2="0" y2="5" stroke="#676A86" stroke-width="1" opacity="1"/></g><g class="mark-text role-axis-label" pointer-events="none"><text text-anchor="middle" transform="translate(21.532846715328464,15)" font-family="sans-serif" font-size="10px" fill="#676A86" opacity="1">April</text><text text-anchor="middle" transform="translate(54.74452554744526,15)" font-family="sans-serif" font-size="10px" fill="#676A86" opacity="1">July</text><text text-anchor="middle" transform="translate(88.32116788321169,15)" font-family="sans-serif" font-size="10px" fill="#676A86" opacity="1">October</text><text text-anchor="middle" transform="translate(121.8978102189781,15)" font-family="sans-serif" font-size="10px" fill="#676A86" opacity="1">2020</text><text text-anchor="middle" transform="translate(155.1094890510949,15)" font-family="sans-serif" font-size="10px" fill="#676A86" opacity="1">April</text><text text-anchor="middle" transform="translate(188.32116788321167,15)" font-family="sans-serif" font-size="10px" fill="#676A86" opacity="1">July</text><text text-anchor="middle" transform="translate(221.8978102189781,15)" font-family="sans-serif" font-size="10px" fill="#676A86" opacity="1">October</text><text text-anchor="middle" transform="translate(255.47445255474454,15)" font-family="sans-serif" font-size="10px" fill="#676A86" opacity="1">2021</text><text text-anchor="middle" transform="translate(288.3211678832117,15)" font-family="sans-serif" font-size="10px" fill="#676A86" opacity="1">April</text><text text-anchor="middle" transform="translate(321.53284671532845,15)" font-family="sans-serif" font-size="10px" fill="#676A86" opacity="1">July</text><text text-anchor="middle" transform="translate(355.1094890510949,15)" font-family="sans-serif" font-size="10px" fill="#676A86" opacity="1">October</text><text text-anchor="middle" transform="translate(388.6861313868613,15)" font-family="sans-serif" font-size="10px" fill="#676A86" opacity="1">2022</text></g><g class="mark-rule role-axis-domain" pointer-events="none"><line transform="translate(0,0)" x2="400" y2="0" stroke="#676A86" stroke-width="1" opacity="1"/></g></g><path class="foreground" aria-hidden="true" d="" pointer-events="none" display="none"/></g></g><g class="mark-group role-axis" role="graphics-symbol" aria-roledescription="axis" aria-label="Y-axis titled 'Gas price (pence per therm)' for a linear scale with values from 0 to 280"><g transform="translate(0.5,0.5)"><path class="background" aria-hidden="true" d="M0,0h0v0h0Z" pointer-events="none"/><g><g class="mark-rule role-axis-tick" pointer-events="none"><line transform="translate(0,300)" x2="-5" y2="0" stroke="#676A86" stroke-width="1" opacity="1"/><line transform="translate(0,246)" x2="-5" y2="0" stroke="#676A86" stroke-width="1" opacity="1"/><line transform="translate(0,193)" x2="-5" y2="0" stroke="#676A86" stroke-width="1" opacity="1"/><line transform="translate(0,139)" x2="-5" y2="0" stroke="#676A86" stroke-width="1" opacity="1"/><line transform="translate(0,86)" x2="-5" y2="0" stroke="#676A86" stroke-width="1" opacity="1"/><line transform="translate(0,32)" x2="-5" y2="0" stroke="#676A86" stroke-width="1" opacity="1"/></g><g class="mark-text role-axis-label" pointer-events="none"><text text-anchor="end" transform="translate(-7,303)" font-family="sans-serif" font-size="10px" fill="#676A86" opacity="1">0</text><text text-anchor="end" transform="translate(-7,249.42857142857142)" font-family="sans-serif" font-size="10px" fill="#676A86" opacity="1">50</text><text text-anchor="end" transform="translate(-7,195.85714285714283)" font-family="sans-serif" font-size="10px" fill="#676A86" opacity="1">100</text><text text-anchor="end" transform="translate(-7,142.28571428571428)" font-family="sans-serif" font-size="10px" fill="#676A86" opacity="1">150</text><text text-anchor="end" transform="translate(-7,88.71428571428571)" font-family="sans-serif" font-size="10px" fill="#676A86" opacity="1">200</text><text text-anchor="end" transform="translate(-7,35.14285714285713)" font-family="sans-serif" font-size="10px" fill="#676A86" opacity="1">250</text></g><g class="mark-rule role-axis-domain" pointer-events="none"><line transform="translate(0,300)" x2="0" y2="-300" stroke="#676A86" stroke-width="1" opacity="1"/></g><g class="mark-text role-axis-title" pointer-events="none"><text text-anchor="start" transform="translate(5,26)" font-family="sans-serif" font-size="11px" font-weight="bold" fill="#676A86" opacity="1">Gas price (pence per therm)</text></g></g><path class="foreground" aria-hidden="true" d="" pointer-events="none" display="none"/></g></g><g class="mark-line role-mark marks" role="graphics-object" aria-roledescription="line mark container"><path aria-label="Date: Feb 01, 2019; Price: 47.09" role="graphics-symbol" aria-roledescription="line mark" d="M0,249.54642857142858L10.218978102189782,257.8821428571428L21.532846715328464,262.5214285714286L32.481751824817515,266.325L43.79562043795621,270.04285714285714L54.74452554744526,268.2857142857143L66.05839416058394,270.26785714285717L77.37226277372264,273.3535714285714L88.32116788321169,272.5178571428571L99.63503649635037,259.24285714285713L110.58394160583941,265.56428571428575L121.8978102189781,270.10714285714283L133.2116788321168,274.82142857142856L143.7956204379562,275.4428571428571L155.1094890510949,285.2678571428571L166.05839416058393,287.58214285714286L177.3722627737226,285.87857142857143L188.32116788321167,285.81428571428575L199.63503649635038,278.3357142857143L210.94890510948906,267.9642857142857L221.8978102189781,259.0392857142857L233.2116788321168,259.74642857142857L244.16058394160584,251.04642857142858L255.47445255474454,236.775L266.7883211678832,250.77857142857144L277.007299270073,251.82857142857142L288.3211678832117,241.31785714285715L299.27007299270076,230.14285714285714L310.5839416058394,222.84642857142856L321.53284671532845,202.62857142857143L332.84671532846716,182.1L344.16058394160586,126.32142857142856L355.1094890510949,70.97142857142859L366.4233576642336,84.54642857142856L377.37226277372264,9.685714285714308L388.6861313868613,81.69642857142858L400,98.81785714285715" stroke="#F4134D" stroke-width="2"/></g></g><path class="foreground" aria-hidden="true" d="" display="none"/></g></g></g></svg>