<svg xmlns="http://www.w3.org/2000/svg" xmlns:xlink="http://www.w3.org/1999/xlink" version="1.1" class="marks" width="522" height="424" viewBox="0 0 522 424"><rect width="522" height="424" fill="white"/><g fill="none" stroke-miterlimit="10" transform="translate(41,65)"><g class="mark-group role-frame root" role="graphics-object" aria-roledescription="group mark container"><g transform="translate(0,0)"><path class="background" aria-hidden="true" d="M0,0h400v0h-400Z"/><g><g class="mark-group role-scope concat_0_group" role="graphics-object" aria-roledescription="group mark container"><g transform="translate(0,0)"><path class="background" aria-hidden="true" d="M0,0h400v250h-400Z"/><g><g class="mark-group role-axis" role="graphics-symbol" aria-roledescription="axis" aria-label="Y-axis titled '% of total evaluations' for a linear scale with values from 0% to 100%"><g transform="translate(0.5,0.5)"><path class="background" aria-hidden="true" d="M0,0h0v0h0Z" pointer-events="none"/><g><g class="mark-rule role-axis-tick" pointer-events="none"><line transform="translate(0,250)" x2="-5" y2="0" stroke="#676A86" stroke-width="1" opacity="1"/><line transform="translate(0,200)" x2="-5" y2="0" stroke="#676A86" stroke-width="1" opacity="1"/><line transform="translate(0,150)" x2="-5" y2="0" stroke="#676A86" stroke-width="1" opacity="1"/><line transform="translate(0,100)" x2="-5" y2="0" stroke="#676A86" stroke-width="1" opacity="1"/><line transform="translate(0,50)" x2="-5" y2="0" stroke="#676A86" stroke-width="1" opacity="1"/><line transform="translate(0,0)" x2="-5" y2="0" stroke="#676A86" stroke-width="1" opacity="1"/></g><g class="mark-text role-axis-label" pointer-events="none"><text text-anchor="end" transform="translate(-7,253)" font-family="sans-serif" font-size="10px" fill="#676A86" opacity="1">0%</text><text text-anchor="end" transform="translate(-7,203)" font-family="sans-serif" font-size="10px" fill="#676A86" opacity="1">20%</text><text text-anchor="end" transform="translate(-7,153)" font-family="sans-serif" font-size="10px" fill="#676A86" opacity="1">40%</text><text text-anchor="end" transform="translate(-7,103)" font-family="sans-serif" font-size="10px" fill="#676A86" opacity="1">60%</text><text text-anchor="end" transform="translate(-7,52.999999999999986)" font-family="sans-serif" font-size="10px" fill="#676A86" opacity="1">80%</text><text text-anchor="end" transform="translate(-7,3)" font-family="sans-serif" font-size="10px" fill="#676A86" opacity="1">100%</text></g><g class="mark-rule role-axis-domain" pointer-events="none"><line transform="translate(0,250)" x2="0" y2="-250" stroke="#676A86" stroke-width="1" opacity="1"/></g><g class="mark-text role-axis-title" pointer-events="none"><text text-anchor="start" transform="translate(-5,-7)" font-family="sans-serif" font-size="11px" font-weight="bold" fill="#676A86" opacity="1">% of total evaluations</text></g></g><path class="foreground" aria-hidden="true" d="" pointer-events="none" display="none"/></g></g><g class="mark-rect role-mark concat_0_layer_0_marks" role="graphics-object" aria-roledescription="rect mark container"><path aria-label="a: neg; cat: Building codes; value: 0%" role="graphics-symbol" aria-roledescription="bar" d="M38.18181818181815,250h32.727272727272734v0h-32.727272727272734Z" fill="#F4134D" opacity="0.8"/><path aria-label="a: o; cat: Building codes; value: 0%" role="graphics-symbol" aria-roledescription="bar" d="M38.18181818181815,250h32.727272727272734v0h-32.727272727272734Z" fill="#676A86" opacity="0.8"/><path aria-label="a: pos; cat: Building codes; value: 100%" role="graphics-symbol" aria-roledescription="bar" d="M38.18181818181815,0h32.727272727272734v250h-32.727272727272734Z" fill="#179FDB" opacity="0.8"/><path aria-label="a: neg; cat: Renewable Portfolio Standards; value: 50%" role="graphics-symbol" aria-roledescription="bar" d="M256.3636363636364,125h32.727272727272734v125h-32.727272727272734Z" fill="#F4134D" opacity="0.8"/><path aria-label="a: o; cat: Renewable Portfolio Standards; value: 0%" role="graphics-symbol" aria-roledescription="bar" d="M256.3636363636364,125h32.727272727272734v0h-32.727272727272734Z" fill="#676A86" opacity="0.8"/><path aria-label="a: pos; cat: Renewable Portfolio Standards; value: 50%" role="graphics-symbol" aria-roledescription="bar" d="M256.3636363636364,0h32.727272727272734v125h-32.727272727272734Z" fill="#179FDB" opacity="0.8"/><path aria-label="a: neg; cat: R&amp;D funding; value: 0%" role="graphics-symbol" aria-roledescription="bar" d="M219.99999999999997,250h32.727272727272734v0h-32.727272727272734Z" fill="#F4134D" opacity="0.8"/><path aria-label="a: o; cat: R&amp;D funding; value: 0%" role="graphics-symbol" aria-roledescription="bar" d="M219.99999999999997,250h32.727272727272734v0h-32.727272727272734Z" fill="#676A86" opacity="0.8"/><path aria-label="a: pos; cat: R&amp;D funding; value: 100%" role="graphics-symbol" aria-roledescription="bar" d="M219.99999999999997,0h32.727272727272734v250h-32.727272727272734Z" fill="#179FDB" opacity="0.8"/><path aria-label="a: neg; cat: Government procurement; value: 0%" role="graphics-symbol" aria-roledescription="bar" d="M147.27272727272725,250h32.727272727272734v0h-32.727272727272734Z" fill="#F4134D" opacity="0.8"/><path aria-label="a: o; cat: Government procurement; value: 0%" role="graphics-symbol" aria-roledescription="bar" d="M147.27272727272725,250h32.727272727272734v0h-32.727272727272734Z" fill="#676A86" opacity="0.8"/><path aria-label="a: pos; cat: Government procurement; value: 100%" role="graphics-symbol" aria-roledescription="bar" d="M147.27272727272725,0h32.727272727272734v250h-32.727272727272734Z" fill="#179FDB" opacity="0.8"/><path aria-label="a: neg; cat: Auctions; value: 100%" role="graphics-symbol" aria-roledescription="bar" d="M1.8181818181817846,0h32.727272727272734v250h-32.727272727272734Z" fill="#F4134D" opacity="0.8"/><path aria-label="a: o; cat: Auctions; value: 0%" role="graphics-symbol" aria-roledescription="bar" d="M1.8181818181817846,0h32.727272727272734v0h-32.727272727272734Z" fill="#676A86" opacity="0.8"/><path aria-label="a: pos; cat: Auctions; value: 0%" role="graphics-symbol" aria-roledescription="bar" d="M1.8181818181817846,0h32.727272727272734v0h-32.727272727272734Z" fill="#179FDB" opacity="0.8"/><path aria-label="a: neg; cat: FITs/FIPs; value: 92%" role="graphics-symbol" aria-roledescription="bar" d="M74.54545454545452,19.23076923076922h32.727272727272734v230.76923076923077h-32.727272727272734Z" fill="#F4134D" opacity="0.8"/><path aria-label="a: o; cat: FITs/FIPs; value: 8%" role="graphics-symbol" aria-roledescription="bar" d="M74.54545454545452,0h32.727272727272734v19.23076923076922h-32.727272727272734Z" fill="#676A86" opacity="0.8"/><path aria-label="a: pos; cat: FITs/FIPs; value: 0%" role="graphics-symbol" aria-roledescription="bar" d="M74.54545454545452,0h32.727272727272734v0h-32.727272727272734Z" fill="#179FDB" opacity="0.8"/><path aria-label="a: neg; cat: Taxes and Tax exemptions; value: 63%" role="graphics-symbol" aria-roledescription="bar" d="M292.72727272727275,93.75h32.727272727272734v156.25h-32.727272727272734Z" fill="#F4134D" opacity="0.8"/><path aria-label="a: o; cat: Taxes and Tax exemptions; value: 13%" role="graphics-symbol" aria-roledescription="bar" d="M292.72727272727275,62.5h32.727272727272734v31.25h-32.727272727272734Z" fill="#676A86" opacity="0.8"/><path aria-label="a: pos; cat: Taxes and Tax exemptions; value: 25%" role="graphics-symbol" aria-roledescription="bar" d="M292.72727272727275,0h32.727272727272734v62.5h-32.727272727272734Z" fill="#179FDB" opacity="0.8"/><path aria-label="a: neg; cat: GHG emission allowance tradings schemes; value: 60%" role="graphics-symbol" aria-roledescription="bar" d="M110.90909090909088,100h32.727272727272734v150h-32.727272727272734Z" fill="#F4134D" opacity="0.8"/><path aria-label="a: o; cat: GHG emission allowance tradings schemes; value: 20%" role="graphics-symbol" aria-roledescription="bar" d="M110.90909090909088,49.999999999999986h32.727272727272734v50.000000000000014h-32.727272727272734Z" fill="#676A86" opacity="0.8"/><path aria-label="a: pos; cat: GHG emission allowance tradings schemes; value: 20%" role="graphics-symbol" aria-roledescription="bar" d="M110.90909090909088,0h32.727272727272734v49.999999999999986h-32.727272727272734Z" fill="#179FDB" opacity="0.8"/><path aria-label="a: neg; cat: Green certificates; value: 83%" role="graphics-symbol" aria-roledescription="bar" d="M183.63636363636363,41.66666666666666h32.727272727272734v208.33333333333334h-32.727272727272734Z" fill="#F4134D" opacity="0.8"/><path aria-label="a: o; cat: Green certificates; value: 0%" role="graphics-symbol" aria-roledescription="bar" d="M183.63636363636363,41.66666666666666h32.727272727272734v0h-32.727272727272734Z" fill="#676A86" opacity="0.8"/><path aria-label="a: pos; cat: Green certificates; value: 17%" role="graphics-symbol" aria-roledescription="bar" d="M183.63636363636363,0h32.727272727272734v41.66666666666666h-32.727272727272734Z" fill="#179FDB" opacity="0.8"/><path aria-label="a: neg; cat: White certificates; value: 27%" role="graphics-symbol" aria-roledescription="bar" d="M329.0909090909091,181.8181818181818h32.727272727272734v68.18181818181819h-32.727272727272734Z" fill="#F4134D" opacity="0.8"/><path aria-label="a: o; cat: White certificates; value: 9%" role="graphics-symbol" aria-roledescription="bar" d="M329.0909090909091,159.0909090909091h32.727272727272734v22.72727272727272h-32.727272727272734Z" fill="#676A86" opacity="0.8"/><path aria-label="a: pos; cat: White certificates; value: 64%" role="graphics-symbol" aria-roledescription="bar" d="M329.0909090909091,0h32.727272727272734v159.0909090909091h-32.727272727272734Z" fill="#179FDB" opacity="0.8"/></g><g class="mark-text role-mark concat_0_layer_1_marks" role="graphics-object" aria-roledescription="text mark container"><text aria-label="t: negative; x:  ; y: 0.1" role="graphics-symbol" aria-roledescription="text mark" text-anchor="middle" transform="translate(381.81818181818187,225) rotate(270) translate(0,3)" font-family="sans-serif" font-size="11px" fill="#F4134D">negative</text></g><g class="mark-text role-mark concat_0_layer_2_marks" role="graphics-object" aria-roledescription="text mark container"><text aria-label="t: neutral; x:  ; y: 0.3" role="graphics-symbol" aria-roledescription="text mark" text-anchor="middle" transform="translate(381.81818181818187,175) rotate(270) translate(0,3)" font-family="sans-serif" font-size="11px" fill="#676A86">neutral</text></g><g class="mark-text role-mark concat_0_layer_3_marks" role="graphics-object" aria-roledescription="text mark container"><text aria-label="t: positive; x:  ; y: 0.5" role="graphics-symbol" aria-roledescription="text mark" text-anchor="middle" transform="translate(381.81818181818187,125) rotate(270) translate(0,3)" font-family="sans-serif" font-size="11px" fill="#179FDB">positive</text></g><g class="mark-group role-axis" role="graphics-symbol" aria-roledescription="axis" aria-label="X-axis for a discrete scale with 11 values: Auctions, Building codes, FITs/FIPs, GHG emission allowance tradings schemes, Government procurement, ending with  "><g transform="translate(0.5,250.5)"><path class="background" aria-hidden="true" d="M0,0h0v0h0Z" pointer-events="none"/><g><g class="mark-rule role-axis-tick" pointer-events="none"><line transform="translate(18,0)" x2="0" y2="5" stroke="#676A86" stroke-width="1" opacity="1"/><line transform="translate(54,0)" x2="0" y2="5" stroke="#676A86" stroke-width="1" opacity="1"/><line transform="translate(90,0)" x2="0" y2="5" stroke="#676A86" stroke-width="1" opacity="1"/><line transform="translate(127,0)" x2="0" y2="5" stroke="#676A86" stroke-width="1" opacity="1"/><line transform="translate(163,0)" x2="0" y2="5" stroke="#676A86" stroke-width="1" opacity="1"/><line transform="translate(200,0)" x2="0" y2="5" stroke="#676A86" stroke-width="1" opacity="1"/><line transform="translate(236,0)" x2="0" y2="5" stroke="#676A86" stroke-width="1" opacity="1"/><line transform="translate(272,0)" x2="0" y2="5" stroke="#676A86" stroke-width="1" opacity="1"/><line transform="translate(309,0)" x2="0" y2="5" stroke="#676A86" stroke-width="1" opacity="1"/><line transform="translate(345,0)" x2="0" y2="5" stroke="#676A86" stroke-width="1" opacity="1"/><line transform="translate(381,0)" x2="0" y2="5" stroke="#676A86" stroke-width="1" opacity="1"/></g><g class="mark-text role-axis-label" pointer-events="none"><text text-anchor="start" transform="translate(17.68181818181815,-5) rotate(270) translate(0,3)" font-family="sans-serif" font-size="11px" font-weight="bold" fill="#ebebef" opacity="1">Auctions</text><text text-anchor="start" transform="translate(54.04545454545452,-5) rotate(270) translate(0,3)" font-family="sans-serif" font-size="11px" font-weight="bold" fill="#ebebef" opacity="1">Building codes</text><text text-anchor="start" transform="translate(90.40909090909088,-5) rotate(270) translate(0,3)" font-family="sans-serif" font-size="11px" font-weight="bold" fill="#ebebef" opacity="1">FITs/FIPs</text><text text-anchor="start" transform="translate(126.77272727272725,-5) rotate(270) translate(0,3)" font-family="sans-serif" font-size="11px" font-weight="bold" fill="#ebebef" opacity="1">GHG emission allowance tradings schemes</text><text text-anchor="start" transform="translate(163.13636363636363,-5) rotate(270) translate(0,3)" font-family="sans-serif" font-size="11px" font-weight="bold" fill="#ebebef" opacity="1">Government procurement</text><text text-anchor="start" transform="translate(199.5,-5) rotate(270) translate(0,3)" font-family="sans-serif" font-size="11px" font-weight="bold" fill="#ebebef" opacity="1">Green certificates</text><text text-anchor="start" transform="translate(235.86363636363635,-5) rotate(270) translate(0,3)" font-family="sans-serif" font-size="11px" font-weight="bold" fill="#ebebef" opacity="1">R&amp;D funding</text><text text-anchor="start" transform="translate(272.22727272727275,-5) rotate(270) translate(0,3)" font-family="sans-serif" font-size="11px" font-weight="bold" fill="#ebebef" opacity="1">Renewable Portfolio Standards</text><text text-anchor="start" transform="translate(308.5909090909091,-5) rotate(270) translate(0,3)" font-family="sans-serif" font-size="11px" font-weight="bold" fill="#ebebef" opacity="1">Taxes and Tax exemptions</text><text text-anchor="start" transform="translate(344.9545454545455,-5) rotate(270) translate(0,3)" font-family="sans-serif" font-size="11px" font-weight="bold" fill="#ebebef" opacity="1">White certificates</text><text text-anchor="start" transform="translate(381.31818181818187,-5) rotate(270) translate(0,3)" font-family="sans-serif" font-size="11px" font-weight="bold" fill="#ebebef" opacity="1"/></g><g class="mark-rule role-axis-domain" pointer-events="none"><line transform="translate(0,0)" x2="400" y2="0" stroke="#676A86" stroke-width="1" opacity="1"/></g></g><path class="foreground" aria-hidden="true" d="" pointer-events="none" display="none"/></g></g></g><path class="foreground" aria-hidden="true" d="" display="none"/></g></g><g class="mark-group role-scope concat_1_group" role="graphics-object" aria-roledescription="group mark container"><g transform="translate(0,269)"><path class="background" aria-hidden="true" d="M0,0h400v80h-400Z"/><g><g class="mark-group role-axis" aria-hidden="true"><g transform="translate(0.5,0.5)"><path class="background" aria-hidden="true" d="M0,0h0v0h0Z" pointer-events="none"/><g><g class="mark-rule role-axis-grid" pointer-events="none"><line transform="translate(18,80)" x2="0" y2="-80" stroke="#676A86" stroke-opacity="0.1" stroke-width="1" opacity="1"/><line transform="translate(55,80)" x2="0" y2="-80" stroke="#676A86" stroke-opacity="0.1" stroke-width="1" opacity="1"/><line transform="translate(91,80)" x2="0" y2="-80" stroke="#676A86" stroke-opacity="0.1" stroke-width="1" opacity="1"/><line transform="translate(127,80)" x2="0" y2="-80" stroke="#676A86" stroke-opacity="0.1" stroke-width="1" opacity="1"/><line transform="translate(164,80)" x2="0" y2="-80" stroke="#676A86" stroke-opacity="0.1" stroke-width="1" opacity="1"/><line transform="translate(200,80)" x2="0" y2="-80" stroke="#676A86" stroke-opacity="0.1" stroke-width="1" opacity="1"/><line transform="translate(236,80)" x2="0" y2="-80" stroke="#676A86" stroke-opacity="0.1" stroke-width="1" opacity="1"/><line transform="translate(273,80)" x2="0" y2="-80" stroke="#676A86" stroke-opacity="0.1" stroke-width="1" opacity="1"/><line transform="translate(309,80)" x2="0" y2="-80" stroke="#676A86" stroke-opacity="0.1" stroke-width="1" opacity="1"/><line transform="translate(345,80)" x2="0" y2="-80" stroke="#676A86" stroke-opacity="0.1" stroke-width="1" opacity="1"/><line transform="translate(382,80)" x2="0" y2="-80" stroke="#676A86" stroke-opacity="0.1" stroke-width="1" opacity="1"/></g></g><path class="foreground" aria-hidden="true" d="" pointer-events="none" display="none"/></g></g><g class="mark-group role-axis" aria-hidden="true"><g transform="translate(0.5,0.5)"><path class="background" aria-hidden="true" d="M0,0h0v0h0Z" pointer-events="none"/><g><g class="mark-rule role-axis-grid" pointer-events="none"><line transform="translate(0,80)" x2="400" y2="0" stroke="#676A86" stroke-opacity="0.1" stroke-width="1" opacity="1"/><line transform="translate(0,47)" x2="400" y2="0" stroke="#676A86" stroke-opacity="0.1" stroke-width="1" opacity="1"/><line transform="translate(0,13)" x2="400" y2="0" stroke="#676A86" stroke-opacity="0.1" stroke-width="1" opacity="1"/></g></g><path class="foreground" aria-hidden="true" d="" pointer-events="none" display="none"/></g></g><g class="mark-group role-axis" role="graphics-symbol" aria-roledescription="axis" aria-label="X-axis for a discrete scale with 11 values: Auctions, Building codes, FITs/FIPs, GHG emission allowance tradings schemes, Government procurement, ending with  "><g transform="translate(0.5,0.5)"><path class="background" aria-hidden="true" d="M0,0h0v0h0Z" pointer-events="none"/><g><g class="mark-rule role-axis-tick" pointer-events="none"><line transform="translate(18,0)" x2="0" y2="-5" stroke="#ffffff" stroke-width="1" opacity="1"/><line transform="translate(55,0)" x2="0" y2="-5" stroke="#ffffff" stroke-width="1" opacity="1"/><line transform="translate(91,0)" x2="0" y2="-5" stroke="#ffffff" stroke-width="1" opacity="1"/><line transform="translate(127,0)" x2="0" y2="-5" stroke="#ffffff" stroke-width="1" opacity="1"/><line transform="translate(164,0)" x2="0" y2="-5" stroke="#ffffff" stroke-width="1" opacity="1"/><line transform="translate(200,0)" x2="0" y2="-5" stroke="#ffffff" stroke-width="1" opacity="1"/><line transform="translate(236,0)" x2="0" y2="-5" stroke="#ffffff" stroke-width="1" opacity="1"/><line transform="translate(273,0)" x2="0" y2="-5" stroke="#ffffff" stroke-width="1" opacity="1"/><line transform="translate(309,0)" x2="0" y2="-5" stroke="#ffffff" stroke-width="1" opacity="1"/><line transform="translate(345,0)" x2="0" y2="-5" stroke="#ffffff" stroke-width="1" opacity="1"/><line transform="translate(382,0)" x2="0" y2="-5" stroke="#ffffff" stroke-width="1" opacity="1"/></g><g class="mark-text role-axis-label" pointer-events="none"><text text-anchor="start" transform="translate(18.18181818181816,-7) rotate(270)" font-family="sans-serif" font-size="0px" fill="#000" opacity="1">Auctions</text><text text-anchor="start" transform="translate(54.545454545454525,-7) rotate(270)" font-family="sans-serif" font-size="0px" fill="#000" opacity="1">Building codes</text><text text-anchor="start" transform="translate(90.90909090909089,-7) rotate(270)" font-family="sans-serif" font-size="0px" fill="#000" opacity="1">FITs/FIPs</text><text text-anchor="start" transform="translate(127.27272727272725,-7) rotate(270)" font-family="sans-serif" font-size="0px" fill="#000" opacity="1">GHG emission allowance tradi…</text><text text-anchor="start" transform="translate(163.63636363636363,-7) rotate(270)" font-family="sans-serif" font-size="0px" fill="#000" opacity="1">Government procurement</text><text text-anchor="start" transform="translate(200,-7) rotate(270)" font-family="sans-serif" font-size="0px" fill="#000" opacity="1">Green certificates</text><text text-anchor="start" transform="translate(236.36363636363635,-7) rotate(270)" font-family="sans-serif" font-size="0px" fill="#000" opacity="1">R&amp;D funding</text><text text-anchor="start" transform="translate(272.72727272727275,-7) rotate(270)" font-family="sans-serif" font-size="0px" fill="#000" opacity="1">Renewable Portfolio Standards</text><text text-anchor="start" transform="translate(309.0909090909091,-7) rotate(270)" font-family="sans-serif" font-size="0px" fill="#000" opacity="1">Taxes and Tax exemptions</text><text text-anchor="start" transform="translate(345.4545454545455,-7) rotate(270)" font-family="sans-serif" font-size="0px" fill="#000" opacity="1">White certificates</text><text text-anchor="start" transform="translate(381.81818181818187,-7) rotate(270)" font-family="sans-serif" font-size="0px" fill="#000" opacity="1"/></g></g><path class="foreground" aria-hidden="true" d="" pointer-events="none" display="none"/></g></g><g class="mark-group role-axis" role="graphics-symbol" aria-roledescription="axis" aria-label="Y-axis titled 'Number of total evaluations' for a linear scale with values from 0 to 24"><g transform="translate(0.5,0.5)"><path class="background" aria-hidden="true" d="M0,0h0v0h0Z" pointer-events="none"/><g><g class="mark-rule role-axis-tick" pointer-events="none"><line transform="translate(0,80)" x2="-5" y2="0" stroke="#676A86" stroke-width="1" opacity="1"/><line transform="translate(0,47)" x2="-5" y2="0" stroke="#676A86" stroke-width="1" opacity="1"/><line transform="translate(0,13)" x2="-5" y2="0" stroke="#676A86" stroke-width="1" opacity="1"/></g><g class="mark-text role-axis-label" pointer-events="none"><text text-anchor="end" transform="translate(-7,83)" font-family="sans-serif" font-size="10px" fill="#676A86" opacity="1">0</text><text text-anchor="end" transform="translate(-7,49.66666666666666)" font-family="sans-serif" font-size="10px" fill="#676A86" opacity="1">10</text><text text-anchor="end" transform="translate(-7,16.33333333333333)" font-family="sans-serif" font-size="10px" fill="#676A86" opacity="1">20</text></g><g class="mark-rule role-axis-domain" pointer-events="none"><line transform="translate(0,80)" x2="0" y2="-80" stroke="#676A86" stroke-width="1" opacity="1"/></g><g class="mark-text role-axis-title" pointer-events="none"><text text-anchor="start" transform="translate(5,11)" font-family="sans-serif" font-size="11px" font-weight="bold" fill="#676A86" opacity="1">Number of total evaluations</text></g></g><path class="foreground" aria-hidden="true" d="" pointer-events="none" display="none"/></g></g><g class="mark-line role-mark concat_1_layer_0_marks" role="graphics-object" aria-roledescription="line mark container"><path aria-label="cat: Auctions; value: 2" role="graphics-symbol" aria-roledescription="line mark" d="M18.18181818181816,73.33333333333333L54.545454545454525,70L90.90909090909089,36.66666666666667L127.27272727272725,63.33333333333333L163.63636363636363,76.66666666666667L200,40L236.36363636363635,70L272.72727272727275,53.33333333333334L309.0909090909091,0L345.4545454545455,43.33333333333334" stroke="#36B7B4" stroke-width="2"/></g><g class="mark-symbol role-mark concat_1_layer_1_marks" role="graphics-object" aria-roledescription="symbol mark container"><path aria-label="cat: Building codes; value: 3" role="graphics-symbol" aria-roledescription="point" transform="translate(54.545454545454525,70)" d="M2.7386127875258306,0A2.7386127875258306,2.7386127875258306,0,1,1,-2.7386127875258306,0A2.7386127875258306,2.7386127875258306,0,1,1,2.7386127875258306,0" fill="#36B7B4" stroke="#36B7B4" stroke-width="2" opacity="0.7"/><path aria-label="cat: Renewable Portfolio Standards; value: 8" role="graphics-symbol" aria-roledescription="point" transform="translate(272.72727272727275,53.33333333333334)" d="M2.7386127875258306,0A2.7386127875258306,2.7386127875258306,0,1,1,-2.7386127875258306,0A2.7386127875258306,2.7386127875258306,0,1,1,2.7386127875258306,0" fill="#36B7B4" stroke="#36B7B4" stroke-width="2" opacity="0.7"/><path aria-label="cat: R&amp;D funding; value: 3" role="graphics-symbol" aria-roledescription="point" transform="translate(236.36363636363635,70)" d="M2.7386127875258306,0A2.7386127875258306,2.7386127875258306,0,1,1,-2.7386127875258306,0A2.7386127875258306,2.7386127875258306,0,1,1,2.7386127875258306,0" fill="#36B7B4" stroke="#36B7B4" stroke-width="2" opacity="0.7"/><path aria-label="cat: Government procurement; value: 1" role="graphics-symbol" aria-roledescription="point" transform="translate(163.63636363636363,76.66666666666667)" d="M2.7386127875258306,0A2.7386127875258306,2.7386127875258306,0,1,1,-2.7386127875258306,0A2.7386127875258306,2.7386127875258306,0,1,1,2.7386127875258306,0" fill="#36B7B4" stroke="#36B7B4" stroke-width="2" opacity="0.7"/><path aria-label="cat: Auctions; value: 2" role="graphics-symbol" aria-roledescription="point" transform="translate(18.18181818181816,73.33333333333333)" d="M2.7386127875258306,0A2.7386127875258306,2.7386127875258306,0,1,1,-2.7386127875258306,0A2.7386127875258306,2.7386127875258306,0,1,1,2.7386127875258306,0" fill="#36B7B4" stroke="#36B7B4" stroke-width="2" opacity="0.7"/><path aria-label="cat: FITs/FIPs; value: 13" role="graphics-symbol" aria-roledescription="point" transform="translate(90.90909090909089,36.66666666666667)" d="M2.7386127875258306,0A2.7386127875258306,2.7386127875258306,0,1,1,-2.7386127875258306,0A2.7386127875258306,2.7386127875258306,0,1,1,2.7386127875258306,0" fill="#36B7B4" stroke="#36B7B4" stroke-width="2" opacity="0.7"/><path aria-label="cat: Taxes and Tax exemptions; value: 24" role="graphics-symbol" aria-roledescription="point" transform="translate(309.0909090909091,0)" d="M2.7386127875258306,0A2.7386127875258306,2.7386127875258306,0,1,1,-2.7386127875258306,0A2.7386127875258306,2.7386127875258306,0,1,1,2.7386127875258306,0" fill="#36B7B4" stroke="#36B7B4" stroke-width="2" opacity="0.7"/><path aria-label="cat: GHG emission allowance tradings schemes; value: 5" role="graphics-symbol" aria-roledescription="point" transform="translate(127.27272727272725,63.33333333333333)" d="M2.7386127875258306,0A2.7386127875258306,2.7386127875258306,0,1,1,-2.7386127875258306,0A2.7386127875258306,2.7386127875258306,0,1,1,2.7386127875258306,0" fill="#36B7B4" stroke="#36B7B4" stroke-width="2" opacity="0.7"/><path aria-label="cat: Green certificates; value: 12" role="graphics-symbol" aria-roledescription="point" transform="translate(200,40)" d="M2.7386127875258306,0A2.7386127875258306,2.7386127875258306,0,1,1,-2.7386127875258306,0A2.7386127875258306,2.7386127875258306,0,1,1,2.7386127875258306,0" fill="#36B7B4" stroke="#36B7B4" stroke-width="2" opacity="0.7"/><path aria-label="cat: White certificates; value: 11" role="graphics-symbol" aria-roledescription="point" transform="translate(345.4545454545455,43.33333333333334)" d="M2.7386127875258306,0A2.7386127875258306,2.7386127875258306,0,1,1,-2.7386127875258306,0A2.7386127875258306,2.7386127875258306,0,1,1,2.7386127875258306,0" fill="#36B7B4" stroke="#36B7B4" stroke-width="2" opacity="0.7"/></g><g class="mark-text role-mark concat_1_layer_2_marks" role="graphics-object" aria-roledescription="text mark container"><text aria-label="t: ; x:  ; y: 0.5" role="graphics-symbol" aria-roledescription="text mark" text-anchor="middle" transform="translate(381.81818181818187,78.33333333333333) rotate(270) translate(0,3)" font-family="sans-serif" font-size="11px" fill="black"/></g></g><path class="foreground" aria-hidden="true" d="" display="none"/></g></g><g class="mark-group role-title"><g transform="translate(-36,-54)"><path class="background" aria-hidden="true" d="M0,0h0v0h0Z" pointer-events="none"/><g><g class="mark-text role-title-text" role="graphics-symbol" aria-roledescription="title" aria-label="Title text 'Percentage of impacts on distributional outcomes by policy instrument type'" pointer-events="none"><text text-anchor="start" transform="translate(5,4)" font-family="sans-serif" font-size="12px" font-weight="bold" fill="#000" opacity="1">Percentage of impacts on distributional outcomes by policy instrument type</text></g><g class="mark-text role-title-subtitle" role="graphics-symbol" aria-roledescription="subtitle" aria-label="Subtitle text 'positive impacts (blue), no impact (grey), negative impacts (red)'" pointer-events="none"><text text-anchor="start" transform="translate(5,19)" font-family="sans-serif" font-size="11px" font-style="italic" fill="#000" opacity="1">positive impacts (blue), no impact (grey), negative impacts (red)</text></g></g><path class="foreground" aria-hidden="true" d="" pointer-events="none" display="none"/></g></g></g><path class="foreground" aria-hidden="true" d="" display="none"/></g></g></g></svg>