<svg xmlns="http://www.w3.org/2000/svg" xmlns:xlink="http://www.w3.org/1999/xlink" version="1.1" class="marks" width="538" height="347" viewBox="0 0 538 347"><rect width="538" height="347" fill="white"/><g fill="none" stroke-miterlimit="10" transform="translate(22,25)"><g class="mark-group role-frame root" role="graphics-object" aria-roledescription="group mark container"><g transform="translate(0,0)"><path class="background" aria-hidden="true" d="M0,0h400v300h-400Z"/><g><g class="mark-group role-axis" aria-hidden="true"><g transform="translate(0.5,0.5)"><path class="background" aria-hidden="true" d="M0,0h0v0h0Z" pointer-events="none"/><g><g class="mark-rule role-axis-grid" pointer-events="none"><line transform="translate(0,300)" x2="400" y2="0" stroke="#676A86" stroke-opacity="0.5" stroke-width="1" stroke-dasharray="1,5" opacity="1"/><line transform="translate(0,267)" x2="400" y2="0" stroke="#676A86" stroke-opacity="0.5" stroke-width="1" stroke-dasharray="1,5" opacity="1"/><line transform="translate(0,233)" x2="400" y2="0" stroke="#676A86" stroke-opacity="0.5" stroke-width="1" stroke-dasharray="1,5" opacity="1"/><line transform="translate(0,200)" x2="400" y2="0" stroke="#676A86" stroke-opacity="0.5" stroke-width="1" stroke-dasharray="1,5" opacity="1"/><line transform="translate(0,167)" x2="400" y2="0" stroke="#676A86" stroke-opacity="0.5" stroke-width="1" stroke-dasharray="1,5" opacity="1"/><line transform="translate(0,133)" x2="400" y2="0" stroke="#676A86" stroke-opacity="0.5" stroke-width="1" stroke-dasharray="1,5" opacity="1"/><line transform="translate(0,100)" x2="400" y2="0" stroke="#676A86" stroke-opacity="0.5" stroke-width="1" stroke-dasharray="1,5" opacity="1"/><line transform="translate(0,67)" x2="400" y2="0" stroke="#676A86" stroke-opacity="0.5" stroke-width="1" stroke-dasharray="1,5" opacity="1"/><line transform="translate(0,33)" x2="400" y2="0" stroke="#676A86" stroke-opacity="0.5" stroke-width="1" stroke-dasharray="1,5" opacity="1"/><line transform="translate(0,0)" x2="400" y2="0" stroke="#676A86" stroke-opacity="0.5" stroke-width="1" stroke-dasharray="1,5" opacity="1"/></g></g><path class="foreground" aria-hidden="true" d="" pointer-events="none" display="none"/></g></g><g class="mark-group role-axis" role="graphics-symbol" aria-roledescription="axis" aria-label="X-axis for a time scale with values from Tuesday, 01 January 2019, 12:00:00 AM to Friday, 01 April 2022, 12:00:00 AM"><g transform="translate(0.5,300.5)"><path class="background" aria-hidden="true" d="M0,0h0v0h0Z" pointer-events="none"/><g><g class="mark-rule role-axis-tick" pointer-events="none"><line transform="translate(0,0)" x2="0" y2="5" stroke="#676A86" stroke-opacity="0.5" stroke-width="1" opacity="1"/><line transform="translate(30,0)" x2="0" y2="5" stroke="#676A86" stroke-opacity="0.5" stroke-width="1" opacity="1"/><line transform="translate(61,0)" x2="0" y2="5" stroke="#676A86" stroke-opacity="0.5" stroke-width="1" opacity="1"/><line transform="translate(92,0)" x2="0" y2="5" stroke="#676A86" stroke-opacity="0.5" stroke-width="1" opacity="1"/><line transform="translate(123,0)" x2="0" y2="5" stroke="#676A86" stroke-opacity="0.5" stroke-width="1" opacity="1"/><line transform="translate(154,0)" x2="0" y2="5" stroke="#676A86" stroke-opacity="0.5" stroke-width="1" opacity="1"/><line transform="translate(184,0)" x2="0" y2="5" stroke="#676A86" stroke-opacity="0.5" stroke-width="1" opacity="1"/><line transform="translate(216,0)" x2="0" y2="5" stroke="#676A86" stroke-opacity="0.5" stroke-width="1" opacity="1"/><line transform="translate(247,0)" x2="0" y2="5" stroke="#676A86" stroke-opacity="0.5" stroke-width="1" opacity="1"/><line transform="translate(277,0)" x2="0" y2="5" stroke="#676A86" stroke-opacity="0.5" stroke-width="1" opacity="1"/><line transform="translate(308,0)" x2="0" y2="5" stroke="#676A86" stroke-opacity="0.5" stroke-width="1" opacity="1"/><line transform="translate(339,0)" x2="0" y2="5" stroke="#676A86" stroke-opacity="0.5" stroke-width="1" opacity="1"/><line transform="translate(370,0)" x2="0" y2="5" stroke="#676A86" stroke-opacity="0.5" stroke-width="1" opacity="1"/><line transform="translate(400,0)" x2="0" y2="5" stroke="#676A86" stroke-opacity="0.5" stroke-width="1" opacity="1"/></g><g class="mark-text role-axis-label" pointer-events="none"><text text-anchor="start" transform="translate(0,15)" font-family="Circular Std Book" font-size="10px" fill="#676A86" fill-opacity="0.7" opacity="1">2019</text><text text-anchor="middle" transform="translate(30.354131534569984,15)" font-family="Circular Std Book" font-size="10px" fill="#676A86" fill-opacity="0.7" opacity="0">April</text><text text-anchor="middle" transform="translate(61.04553119730185,15)" font-family="Circular Std Book" font-size="10px" fill="#676A86" fill-opacity="0.7" opacity="1">July</text><text text-anchor="middle" transform="translate(92.0741989881956,15)" font-family="Circular Std Book" font-size="10px" fill="#676A86" fill-opacity="0.7" opacity="0">October</text><text text-anchor="middle" transform="translate(123.10286677908937,15)" font-family="Circular Std Book" font-size="10px" fill="#676A86" fill-opacity="0.7" opacity="1">2020</text><text text-anchor="middle" transform="translate(153.79426644182124,15)" font-family="Circular Std Book" font-size="10px" fill="#676A86" fill-opacity="0.7" opacity="0">April</text><text text-anchor="middle" transform="translate(184.48566610455313,15)" font-family="Circular Std Book" font-size="10px" fill="#676A86" fill-opacity="0.7" opacity="1">July</text><text text-anchor="middle" transform="translate(215.51433389544687,15)" font-family="Circular Std Book" font-size="10px" fill="#676A86" fill-opacity="0.7" opacity="0">October</text><text text-anchor="middle" transform="translate(246.54300168634063,15)" font-family="Circular Std Book" font-size="10px" fill="#676A86" fill-opacity="0.7" opacity="1">2021</text><text text-anchor="middle" transform="translate(276.89713322091063,15)" font-family="Circular Std Book" font-size="10px" fill="#676A86" fill-opacity="0.7" opacity="0">April</text><text text-anchor="middle" transform="translate(307.5885328836425,15)" font-family="Circular Std Book" font-size="10px" fill="#676A86" fill-opacity="0.7" opacity="1">July</text><text text-anchor="middle" transform="translate(338.61720067453626,15)" font-family="Circular Std Book" font-size="10px" fill="#676A86" fill-opacity="0.7" opacity="0">October</text><text text-anchor="middle" transform="translate(369.64586846543,15)" font-family="Circular Std Book" font-size="10px" fill="#676A86" fill-opacity="0.7" opacity="1">2022</text><text text-anchor="end" transform="translate(400,15)" font-family="Circular Std Book" font-size="10px" fill="#676A86" fill-opacity="0.7" opacity="0">April</text></g><g class="mark-rule role-axis-domain" pointer-events="none"><line transform="translate(0,0)" x2="400" y2="0" stroke="#676A86" stroke-opacity="0.5" stroke-width="1" opacity="1"/></g></g><path class="foreground" aria-hidden="true" d="" pointer-events="none" display="none"/></g></g><g class="mark-group role-axis" role="graphics-symbol" aria-roledescription="axis" aria-label="Y-axis titled 'Percentage point change from 2019 Q4' for a linear scale with values from −4 to 14"><g transform="translate(0.5,0.5)"><path class="background" aria-hidden="true" d="M0,0h0v0h0Z" pointer-events="none"/><g><g class="mark-text role-axis-label" pointer-events="none"><text text-anchor="end" transform="translate(-5,303)" font-family="Circular Std Book" font-size="10px" fill="#676A86" fill-opacity="0.7" opacity="1">−4</text><text text-anchor="end" transform="translate(-5,269.66666666666663)" font-family="Circular Std Book" font-size="10px" fill="#676A86" fill-opacity="0.7" opacity="1">−2</text><text text-anchor="end" transform="translate(-5,236.33333333333334)" font-family="Circular Std Book" font-size="10px" fill="#676A86" fill-opacity="0.7" opacity="1">0</text><text text-anchor="end" transform="translate(-5,203.00000000000003)" font-family="Circular Std Book" font-size="10px" fill="#676A86" fill-opacity="0.7" opacity="1">2</text><text text-anchor="end" transform="translate(-5,169.66666666666669)" font-family="Circular Std Book" font-size="10px" fill="#676A86" fill-opacity="0.7" opacity="1">4</text><text text-anchor="end" transform="translate(-5,136.33333333333331)" font-family="Circular Std Book" font-size="10px" fill="#676A86" fill-opacity="0.7" opacity="1">6</text><text text-anchor="end" transform="translate(-5,103.00000000000001)" font-family="Circular Std Book" font-size="10px" fill="#676A86" fill-opacity="0.7" opacity="1">8</text><text text-anchor="end" transform="translate(-5,69.66666666666666)" font-family="Circular Std Book" font-size="10px" fill="#676A86" fill-opacity="0.7" opacity="1">10</text><text text-anchor="end" transform="translate(-5,36.33333333333335)" font-family="Circular Std Book" font-size="10px" fill="#676A86" fill-opacity="0.7" opacity="1">12</text><text text-anchor="end" transform="translate(-5,3)" font-family="Circular Std Book" font-size="10px" fill="#676A86" fill-opacity="0.7" opacity="1">14</text></g><g class="mark-rule role-axis-domain" pointer-events="none"><line transform="translate(0,300)" x2="0" y2="-300" stroke="#676A86" stroke-opacity="0.5" stroke-width="1" opacity="1"/></g><g class="mark-text role-axis-title" pointer-events="none"><text text-anchor="start" transform="translate(0,-10)" font-family="Circular Std Book" font-size="12px" font-weight="bold" fill="#676A86" fill-opacity="0.8" opacity="1">Percentage point change from 2019 Q4</text></g></g><path class="foreground" aria-hidden="true" d="" pointer-events="none" display="none"/></g></g><g class="mark-line role-mark layer_0_marks" role="graphics-object" aria-roledescription="line mark container"><path aria-label="x: Jan 01, 2019; y: 0" role="graphics-symbol" aria-roledescription="line mark" d="M0,233.333L400,233.333" stroke="#676A86" stroke-width="1" opacity="0.3"/></g><g class="mark-line role-mark layer_1_marks" role="graphics-object" aria-roledescription="line mark container"><path aria-label="x: Jan 01, 2020; y: −4" role="graphics-symbol" aria-roledescription="line mark" d="M123.103,300L123.103,0" stroke="#676A86" stroke-width="1" opacity="0.3"/></g><g class="mark-text role-mark layer_2_marks" role="graphics-object" aria-roledescription="text mark container"><text aria-label="x: Jan 01, 2019; y: −3.2; t: ↓ decrease" role="graphics-symbol" aria-roledescription="text mark" text-anchor="start" transform="translate(5,289.6666666666667)" font-family="Circular Std Book" font-size="11px" fill="#676A86" opacity="0.6">↓ decrease</text><text aria-label="x: Jan 01, 2019; y: 13; t: ↑ increase" role="graphics-symbol" aria-roledescription="text mark" text-anchor="start" transform="translate(5,19.666666666666675)" font-family="Circular Std Book" font-size="11px" fill="#676A86" opacity="0.6">↑ increase</text></g><g class="mark-text role-mark layer_3_marks" role="graphics-object" aria-roledescription="text mark container"><text aria-label="x: Apr 01, 2022; y: 14; t: Aged 16-24" role="graphics-symbol" aria-roledescription="text mark" text-anchor="end" transform="translate(395,-8)" font-family="Circular Std Book" font-size="12px" font-weight="bold" fill="#676A86" opacity="0.8">Aged 16-24</text></g><g class="mark-area role-mark layer_4_layer_0_marks" role="graphics-object" aria-roledescription="area mark container"><path aria-label="myr: Jan 01, 2019; Employed and working zero hours: −0.769291818142" role="graphics-symbol" aria-roledescription="area mark" d="M0,246.155C10.118,245.701,20.236,245.248,30.354,243.433C40.585,241.599,50.815,233.297,61.046,233.297C71.388,233.297,81.731,233.333,92.074,233.333C102.417,233.333,112.76,226.727,123.103,213.516C126.588,209.064,130.073,176.451,133.558,148.621C136.818,122.586,140.079,77.109,143.339,54.243C146.824,29.799,150.309,10.368,153.794,10.368C157.167,10.368,160.54,22.144,163.912,31.837C167.397,41.853,170.883,54.123,174.368,70.011C177.74,85.387,181.113,110.038,184.486,125.028C187.971,140.518,191.456,152.239,194.941,160.77C198.426,169.302,201.911,176.218,205.396,176.218C208.769,176.218,212.142,163.347,215.514,157.827C218.999,152.122,222.485,146.727,225.97,142.665C229.342,138.735,232.715,136.374,236.088,133.661C239.573,130.857,243.058,126.171,246.543,126.171C250.028,126.171,253.513,136.174,256.998,143.789C260.146,150.668,263.294,159.946,266.442,168.692C269.927,178.375,273.412,196.33,276.897,199.377C280.27,202.327,283.642,202.684,287.015,203.801C290.5,204.956,293.985,204.574,297.47,206.119C300.843,207.615,304.216,213.74,307.589,217.4C311.074,221.181,314.559,224.823,318.044,228.421C321.529,232.018,325.014,238.986,328.499,238.986C331.872,238.986,335.245,216.58,338.617,216.331C342.102,216.074,345.587,215.945,349.073,215.945C352.445,215.945,355.818,216.077,359.191,216.341C362.676,216.613,366.161,231.686,369.646,231.686C373.131,231.686,376.616,229.58,380.101,229.58C383.249,229.58,386.397,230.359,389.545,231.917C393.03,233.641,396.515,237.571,400,241.501L400,233.333C396.515,233.333,393.03,233.333,389.545,233.333C386.397,233.333,383.249,233.333,380.101,233.333C376.616,233.333,373.131,233.333,369.646,233.333C366.161,233.333,362.676,233.333,359.191,233.333C355.818,233.333,352.445,233.333,349.073,233.333C345.587,233.333,342.102,233.333,338.617,233.333C335.245,233.333,331.872,233.333,328.499,233.333C325.014,233.333,321.529,233.333,318.044,233.333C314.559,233.333,311.074,233.333,307.589,233.333C304.216,233.333,300.843,233.333,297.47,233.333C293.985,233.333,290.5,233.333,287.015,233.333C283.642,233.333,280.27,233.333,276.897,233.333C273.412,233.333,269.927,233.333,266.442,233.333C263.294,233.333,260.146,233.333,256.998,233.333C253.513,233.333,250.028,233.333,246.543,233.333C243.058,233.333,239.573,233.333,236.088,233.333C232.715,233.333,229.342,233.333,225.97,233.333C222.485,233.333,218.999,233.333,215.514,233.333C212.142,233.333,208.769,233.333,205.396,233.333C201.911,233.333,198.426,233.333,194.941,233.333C191.456,233.333,187.971,233.333,184.486,233.333C181.113,233.333,177.74,233.333,174.368,233.333C170.883,233.333,167.397,233.333,163.912,233.333C160.54,233.333,157.167,233.333,153.794,233.333C150.309,233.333,146.824,233.333,143.339,233.333C140.079,233.333,136.818,233.333,133.558,233.333C130.073,233.333,126.588,233.333,123.103,233.333C112.76,233.333,102.417,233.333,92.074,233.333C81.731,233.333,71.388,233.333,61.046,233.333C50.815,233.333,40.585,233.333,30.354,233.333C20.236,233.333,10.118,233.333,0,233.333Z" fill="url(#gradient_0)" opacity="1"/></g><g class="mark-line role-mark layer_4_layer_1_marks" role="graphics-object" aria-roledescription="line mark container"><path aria-label="myr: Jan 01, 2019; Employed and working zero hours: −0.769291818142" role="graphics-symbol" aria-roledescription="line mark" d="M0,246.155C10.118,245.701,20.236,245.248,30.354,243.433C40.585,241.599,50.815,233.297,61.046,233.297C71.388,233.297,81.731,233.333,92.074,233.333C102.417,233.333,112.76,226.727,123.103,213.516C126.588,209.064,130.073,176.451,133.558,148.621C136.818,122.586,140.079,77.109,143.339,54.243C146.824,29.799,150.309,10.368,153.794,10.368C157.167,10.368,160.54,22.144,163.912,31.837C167.397,41.853,170.883,54.123,174.368,70.011C177.74,85.387,181.113,110.038,184.486,125.028C187.971,140.518,191.456,152.239,194.941,160.77C198.426,169.302,201.911,176.218,205.396,176.218C208.769,176.218,212.142,163.347,215.514,157.827C218.999,152.122,222.485,146.727,225.97,142.665C229.342,138.735,232.715,136.374,236.088,133.661C239.573,130.857,243.058,126.171,246.543,126.171C250.028,126.171,253.513,136.174,256.998,143.789C260.146,150.668,263.294,159.946,266.442,168.692C269.927,178.375,273.412,196.33,276.897,199.377C280.27,202.327,283.642,202.684,287.015,203.801C290.5,204.956,293.985,204.574,297.47,206.119C300.843,207.615,304.216,213.74,307.589,217.4C311.074,221.181,314.559,224.823,318.044,228.421C321.529,232.018,325.014,238.986,328.499,238.986C331.872,238.986,335.245,216.58,338.617,216.331C342.102,216.074,345.587,215.945,349.073,215.945C352.445,215.945,355.818,216.077,359.191,216.341C362.676,216.613,366.161,231.686,369.646,231.686C373.131,231.686,376.616,229.58,380.101,229.58C383.249,229.58,386.397,230.359,389.545,231.917C393.03,233.641,396.515,237.571,400,241.501" stroke="#36B7B4" stroke-width="2"/></g><g class="mark-area role-mark layer_5_layer_0_marks" role="graphics-object" aria-roledescription="area mark container"><path aria-label="myr: Jan 01, 2019; Inactive (student): 1.84288322926" role="graphics-symbol" aria-roledescription="area mark" d="M0,202.619C10.118,203.294,20.236,203.969,30.354,206.669C40.585,209.4,50.815,261.47,61.046,261.47C71.388,261.47,81.731,240.301,92.074,233.333C102.417,226.366,112.76,223.597,123.103,219.666C126.588,218.342,130.073,215.906,133.558,215.906C136.818,215.906,140.079,218.474,143.339,221.039C146.824,223.78,150.309,229.084,153.794,232.189C157.167,235.194,160.54,237.078,163.912,239.487C167.397,241.977,170.883,246.881,174.368,246.881C177.74,246.881,181.113,240.394,184.486,237.984C187.971,235.493,191.456,235.408,194.941,232.292C198.426,229.176,201.911,224.482,205.396,219.287C208.769,214.261,212.142,208.036,215.514,201.794C218.999,195.343,222.485,188.009,225.97,181.125C229.342,174.464,232.715,166.016,236.088,161.156C239.573,156.135,243.058,155.786,246.543,151.849C250.028,147.912,253.513,141.644,256.998,137.534C260.146,133.823,263.294,128.019,266.442,128.019C269.927,128.019,273.412,140.222,276.897,150.768C280.27,160.974,283.642,175.987,287.015,189.712C290.5,203.893,293.985,234.637,297.47,234.637C300.843,234.637,304.216,233.203,307.589,231.877C311.074,230.507,314.559,228.379,318.044,226.466C321.529,224.552,325.014,220.397,328.499,220.397C331.872,220.397,335.245,226.789,338.617,226.789C342.102,226.789,345.587,211.921,349.073,206.584C352.445,201.418,355.818,199.362,359.191,195.013C362.676,190.52,366.161,179.956,369.646,179.956C373.131,179.956,376.616,185.36,380.101,185.36C383.249,185.36,386.397,175.553,389.545,175.553C393.03,175.553,396.515,177.259,400,178.964L400,233.333C396.515,233.333,393.03,233.333,389.545,233.333C386.397,233.333,383.249,233.333,380.101,233.333C376.616,233.333,373.131,233.333,369.646,233.333C366.161,233.333,362.676,233.333,359.191,233.333C355.818,233.333,352.445,233.333,349.073,233.333C345.587,233.333,342.102,233.333,338.617,233.333C335.245,233.333,331.872,233.333,328.499,233.333C325.014,233.333,321.529,233.333,318.044,233.333C314.559,233.333,311.074,233.333,307.589,233.333C304.216,233.333,300.843,233.333,297.47,233.333C293.985,233.333,290.5,233.333,287.015,233.333C283.642,233.333,280.27,233.333,276.897,233.333C273.412,233.333,269.927,233.333,266.442,233.333C263.294,233.333,260.146,233.333,256.998,233.333C253.513,233.333,250.028,233.333,246.543,233.333C243.058,233.333,239.573,233.333,236.088,233.333C232.715,233.333,229.342,233.333,225.97,233.333C222.485,233.333,218.999,233.333,215.514,233.333C212.142,233.333,208.769,233.333,205.396,233.333C201.911,233.333,198.426,233.333,194.941,233.333C191.456,233.333,187.971,233.333,184.486,233.333C181.113,233.333,177.74,233.333,174.368,233.333C170.883,233.333,167.397,233.333,163.912,233.333C160.54,233.333,157.167,233.333,153.794,233.333C150.309,233.333,146.824,233.333,143.339,233.333C140.079,233.333,136.818,233.333,133.558,233.333C130.073,233.333,126.588,233.333,123.103,233.333C112.76,233.333,102.417,233.333,92.074,233.333C81.731,233.333,71.388,233.333,61.046,233.333C50.815,233.333,40.585,233.333,30.354,233.333C20.236,233.333,10.118,233.333,0,233.333Z" fill="url(#gradient_1)" opacity="1"/></g><g class="mark-line role-mark layer_5_layer_1_marks" role="graphics-object" aria-roledescription="line mark container"><path aria-label="myr: Jan 01, 2019; Inactive (student): 1.84288322926" role="graphics-symbol" aria-roledescription="line mark" d="M0,202.619C10.118,203.294,20.236,203.969,30.354,206.669C40.585,209.4,50.815,261.47,61.046,261.47C71.388,261.47,81.731,240.301,92.074,233.333C102.417,226.366,112.76,223.597,123.103,219.666C126.588,218.342,130.073,215.906,133.558,215.906C136.818,215.906,140.079,218.474,143.339,221.039C146.824,223.78,150.309,229.084,153.794,232.189C157.167,235.194,160.54,237.078,163.912,239.487C167.397,241.977,170.883,246.881,174.368,246.881C177.74,246.881,181.113,240.394,184.486,237.984C187.971,235.493,191.456,235.408,194.941,232.292C198.426,229.176,201.911,224.482,205.396,219.287C208.769,214.261,212.142,208.036,215.514,201.794C218.999,195.343,222.485,188.009,225.97,181.125C229.342,174.464,232.715,166.016,236.088,161.156C239.573,156.135,243.058,155.786,246.543,151.849C250.028,147.912,253.513,141.644,256.998,137.534C260.146,133.823,263.294,128.019,266.442,128.019C269.927,128.019,273.412,140.222,276.897,150.768C280.27,160.974,283.642,175.987,287.015,189.712C290.5,203.893,293.985,234.637,297.47,234.637C300.843,234.637,304.216,233.203,307.589,231.877C311.074,230.507,314.559,228.379,318.044,226.466C321.529,224.552,325.014,220.397,328.499,220.397C331.872,220.397,335.245,226.789,338.617,226.789C342.102,226.789,345.587,211.921,349.073,206.584C352.445,201.418,355.818,199.362,359.191,195.013C362.676,190.52,366.161,179.956,369.646,179.956C373.131,179.956,376.616,185.36,380.101,185.36C383.249,185.36,386.397,175.553,389.545,175.553C393.03,175.553,396.515,177.259,400,178.964" stroke="#179FDB" stroke-width="2"/></g><g class="mark-area role-mark layer_6_layer_0_marks" role="graphics-object" aria-roledescription="area mark container"><path aria-label="myr: Jan 01, 2019; Inactive (other): −0.0395111739635" role="graphics-symbol" aria-roledescription="area mark" d="M0,233.992C10.118,233.03,20.236,232.069,30.354,228.222C40.585,224.333,50.815,208.945,61.046,208.945C71.388,208.945,81.731,232.873,92.074,233.333C102.417,233.793,112.76,234.023,123.103,234.023C126.588,234.023,130.073,225.524,133.558,221.813C136.818,218.34,140.079,216.306,143.339,212.336C146.824,208.092,150.309,196.978,153.794,196.821C157.167,196.67,160.54,196.594,163.912,196.594C167.397,196.594,170.883,198.218,174.368,200.343C177.74,202.398,181.113,208.968,184.486,208.968C187.971,208.968,191.456,207.159,194.941,207.159C198.426,207.159,201.911,218.529,205.396,221.661C208.769,224.691,212.142,224.575,215.514,226.207C218.999,227.893,222.485,231.361,225.97,231.64C229.342,231.911,232.715,231.804,236.088,232.046C239.573,232.296,243.058,232.638,246.543,233.135C250.028,233.633,253.513,233.767,256.998,235.029C260.146,236.169,263.294,243.287,266.442,243.287C269.927,243.287,273.412,241.972,276.897,240.403C280.27,238.884,283.642,238.184,287.015,234.139C290.5,229.959,293.985,215.329,297.47,215.329C300.843,215.329,304.216,217.863,307.589,217.863C311.074,217.863,314.559,216.432,318.044,216.432C321.529,216.432,325.014,223.049,328.499,223.982C331.872,224.884,335.245,224.433,338.617,225.335C342.102,226.267,345.587,232.821,349.073,233.089C352.445,233.347,355.818,233.218,359.191,233.476C362.676,233.743,366.161,236.781,369.646,237.25C373.131,237.718,376.616,237.953,380.101,237.953C383.249,237.953,386.397,231.265,389.545,229.745C393.03,228.062,396.515,227.641,400,227.221L400,233.333C396.515,233.333,393.03,233.333,389.545,233.333C386.397,233.333,383.249,233.333,380.101,233.333C376.616,233.333,373.131,233.333,369.646,233.333C366.161,233.333,362.676,233.333,359.191,233.333C355.818,233.333,352.445,233.333,349.073,233.333C345.587,233.333,342.102,233.333,338.617,233.333C335.245,233.333,331.872,233.333,328.499,233.333C325.014,233.333,321.529,233.333,318.044,233.333C314.559,233.333,311.074,233.333,307.589,233.333C304.216,233.333,300.843,233.333,297.47,233.333C293.985,233.333,290.5,233.333,287.015,233.333C283.642,233.333,280.27,233.333,276.897,233.333C273.412,233.333,269.927,233.333,266.442,233.333C263.294,233.333,260.146,233.333,256.998,233.333C253.513,233.333,250.028,233.333,246.543,233.333C243.058,233.333,239.573,233.333,236.088,233.333C232.715,233.333,229.342,233.333,225.97,233.333C222.485,233.333,218.999,233.333,215.514,233.333C212.142,233.333,208.769,233.333,205.396,233.333C201.911,233.333,198.426,233.333,194.941,233.333C191.456,233.333,187.971,233.333,184.486,233.333C181.113,233.333,177.74,233.333,174.368,233.333C170.883,233.333,167.397,233.333,163.912,233.333C160.54,233.333,157.167,233.333,153.794,233.333C150.309,233.333,146.824,233.333,143.339,233.333C140.079,233.333,136.818,233.333,133.558,233.333C130.073,233.333,126.588,233.333,123.103,233.333C112.76,233.333,102.417,233.333,92.074,233.333C81.731,233.333,71.388,233.333,61.046,233.333C50.815,233.333,40.585,233.333,30.354,233.333C20.236,233.333,10.118,233.333,0,233.333Z" fill="url(#gradient_2)" opacity="1"/></g><g class="mark-line role-mark layer_6_layer_1_marks" role="graphics-object" aria-roledescription="line mark container"><path aria-label="myr: Jan 01, 2019; Inactive (other): −0.0395111739635" role="graphics-symbol" aria-roledescription="line mark" d="M0,233.992C10.118,233.03,20.236,232.069,30.354,228.222C40.585,224.333,50.815,208.945,61.046,208.945C71.388,208.945,81.731,232.873,92.074,233.333C102.417,233.793,112.76,234.023,123.103,234.023C126.588,234.023,130.073,225.524,133.558,221.813C136.818,218.34,140.079,216.306,143.339,212.336C146.824,208.092,150.309,196.978,153.794,196.821C157.167,196.67,160.54,196.594,163.912,196.594C167.397,196.594,170.883,198.218,174.368,200.343C177.74,202.398,181.113,208.968,184.486,208.968C187.971,208.968,191.456,207.159,194.941,207.159C198.426,207.159,201.911,218.529,205.396,221.661C208.769,224.691,212.142,224.575,215.514,226.207C218.999,227.893,222.485,231.361,225.97,231.64C229.342,231.911,232.715,231.804,236.088,232.046C239.573,232.296,243.058,232.638,246.543,233.135C250.028,233.633,253.513,233.767,256.998,235.029C260.146,236.169,263.294,243.287,266.442,243.287C269.927,243.287,273.412,241.972,276.897,240.403C280.27,238.884,283.642,238.184,287.015,234.139C290.5,229.959,293.985,215.329,297.47,215.329C300.843,215.329,304.216,217.863,307.589,217.863C311.074,217.863,314.559,216.432,318.044,216.432C321.529,216.432,325.014,223.049,328.499,223.982C331.872,224.884,335.245,224.433,338.617,225.335C342.102,226.267,345.587,232.821,349.073,233.089C352.445,233.347,355.818,233.218,359.191,233.476C362.676,233.743,366.161,236.781,369.646,237.25C373.131,237.718,376.616,237.953,380.101,237.953C383.249,237.953,386.397,231.265,389.545,229.745C393.03,228.062,396.515,227.641,400,227.221" stroke="#243B5A" stroke-width="2"/></g><g class="mark-area role-mark layer_7_layer_0_marks" role="graphics-object" aria-roledescription="area mark container"><path aria-label="myr: Jan 01, 2019; Unemployed: −0.6771042943" role="graphics-symbol" aria-roledescription="area mark" d="M0,244.618C10.118,242.634,20.236,240.65,30.354,235.055C40.585,229.399,50.815,210.702,61.046,210.702C71.388,210.702,81.731,233.333,92.074,233.333C102.417,233.333,112.76,229.787,123.103,229.787C126.588,229.787,130.073,233.451,133.558,233.451C136.818,233.451,140.079,232.944,143.339,231.931C146.824,230.849,150.309,228.084,153.794,223.53C157.167,219.124,160.54,210.871,163.912,205.385C167.397,199.716,170.883,193.861,174.368,190.18C177.74,186.617,181.113,183.389,184.486,183.389C187.971,183.389,191.456,185.026,194.941,187.052C198.426,189.079,201.911,192.724,205.396,195.55C208.769,198.285,212.142,201.361,215.514,203.737C218.999,206.192,222.485,208.003,225.97,209.97C229.342,211.875,232.715,212.602,236.088,215.373C239.573,218.237,243.058,223.674,246.543,227.072C250.028,230.47,253.513,235.761,256.998,235.761C260.146,235.761,263.294,235.735,266.442,235.683C269.927,235.624,273.412,231.791,276.897,228.215C280.27,224.754,283.642,217.839,287.015,214.777C290.5,211.613,293.985,209.827,297.47,209.827C300.843,209.827,304.216,212.604,307.589,214.693C311.074,216.852,314.559,219.914,318.044,222.664C321.529,225.415,325.014,228.865,328.499,231.198C331.872,233.455,335.245,235.205,338.617,236.531C342.102,237.9,345.587,238.348,349.073,239.191C352.445,240.008,355.818,239.967,359.191,241.518C362.676,243.121,366.161,251.166,369.646,252.591C373.131,254.016,376.616,253.303,380.101,254.728C383.249,256.015,386.397,261.446,389.545,261.446C393.03,261.446,396.515,257.049,400,252.652L400,233.333C396.515,233.333,393.03,233.333,389.545,233.333C386.397,233.333,383.249,233.333,380.101,233.333C376.616,233.333,373.131,233.333,369.646,233.333C366.161,233.333,362.676,233.333,359.191,233.333C355.818,233.333,352.445,233.333,349.073,233.333C345.587,233.333,342.102,233.333,338.617,233.333C335.245,233.333,331.872,233.333,328.499,233.333C325.014,233.333,321.529,233.333,318.044,233.333C314.559,233.333,311.074,233.333,307.589,233.333C304.216,233.333,300.843,233.333,297.47,233.333C293.985,233.333,290.5,233.333,287.015,233.333C283.642,233.333,280.27,233.333,276.897,233.333C273.412,233.333,269.927,233.333,266.442,233.333C263.294,233.333,260.146,233.333,256.998,233.333C253.513,233.333,250.028,233.333,246.543,233.333C243.058,233.333,239.573,233.333,236.088,233.333C232.715,233.333,229.342,233.333,225.97,233.333C222.485,233.333,218.999,233.333,215.514,233.333C212.142,233.333,208.769,233.333,205.396,233.333C201.911,233.333,198.426,233.333,194.941,233.333C191.456,233.333,187.971,233.333,184.486,233.333C181.113,233.333,177.74,233.333,174.368,233.333C170.883,233.333,167.397,233.333,163.912,233.333C160.54,233.333,157.167,233.333,153.794,233.333C150.309,233.333,146.824,233.333,143.339,233.333C140.079,233.333,136.818,233.333,133.558,233.333C130.073,233.333,126.588,233.333,123.103,233.333C112.76,233.333,102.417,233.333,92.074,233.333C81.731,233.333,71.388,233.333,61.046,233.333C50.815,233.333,40.585,233.333,30.354,233.333C20.236,233.333,10.118,233.333,0,233.333Z" fill="url(#gradient_3)" opacity="1"/></g><g class="mark-line role-mark layer_7_layer_1_marks" role="graphics-object" aria-roledescription="line mark container"><path aria-label="myr: Jan 01, 2019; Unemployed: −0.6771042943" role="graphics-symbol" aria-roledescription="line mark" d="M0,244.618C10.118,242.634,20.236,240.65,30.354,235.055C40.585,229.399,50.815,210.702,61.046,210.702C71.388,210.702,81.731,233.333,92.074,233.333C102.417,233.333,112.76,229.787,123.103,229.787C126.588,229.787,130.073,233.451,133.558,233.451C136.818,233.451,140.079,232.944,143.339,231.931C146.824,230.849,150.309,228.084,153.794,223.53C157.167,219.124,160.54,210.871,163.912,205.385C167.397,199.716,170.883,193.861,174.368,190.18C177.74,186.617,181.113,183.389,184.486,183.389C187.971,183.389,191.456,185.026,194.941,187.052C198.426,189.079,201.911,192.724,205.396,195.55C208.769,198.285,212.142,201.361,215.514,203.737C218.999,206.192,222.485,208.003,225.97,209.97C229.342,211.875,232.715,212.602,236.088,215.373C239.573,218.237,243.058,223.674,246.543,227.072C250.028,230.47,253.513,235.761,256.998,235.761C260.146,235.761,263.294,235.735,266.442,235.683C269.927,235.624,273.412,231.791,276.897,228.215C280.27,224.754,283.642,217.839,287.015,214.777C290.5,211.613,293.985,209.827,297.47,209.827C300.843,209.827,304.216,212.604,307.589,214.693C311.074,216.852,314.559,219.914,318.044,222.664C321.529,225.415,325.014,228.865,328.499,231.198C331.872,233.455,335.245,235.205,338.617,236.531C342.102,237.9,345.587,238.348,349.073,239.191C352.445,240.008,355.818,239.967,359.191,241.518C362.676,243.121,366.161,251.166,369.646,252.591C373.131,254.016,376.616,253.303,380.101,254.728C383.249,256.015,386.397,261.446,389.545,261.446C393.03,261.446,396.515,257.049,400,252.652" stroke="#F4134D" stroke-width="2"/></g><g class="mark-text role-mark layer_8_marks" role="graphics-object" aria-roledescription="text mark container"><text aria-label="myr: Apr 01, 2022; Unemployed: −1.15914416313; t: Unemployed" role="graphics-symbol" aria-roledescription="text mark" text-anchor="start" transform="translate(405,256.6524027188619)" font-family="Circular Std Book" font-size="12px" fill="#F4134D">Unemployed</text></g><g class="mark-text role-mark layer_9_marks" role="graphics-object" aria-roledescription="text mark container"><text aria-label="myr: Apr 01, 2022; Inactive (student): 3.26214742661; t: Inactive (student)" role="graphics-symbol" aria-roledescription="text mark" text-anchor="start" transform="translate(405,182.9642095565796)" font-family="Circular Std Book" font-size="12px" fill="#179FDB">Inactive (student)</text></g><g class="mark-text role-mark layer_10_marks" role="graphics-object" aria-roledescription="text mark container"><text aria-label="myr: Apr 01, 2022; Inactive (other): 0.366757810116; t: Inactive (other)" role="graphics-symbol" aria-roledescription="text mark" text-anchor="start" transform="translate(405,231.22070316473642)" font-family="Circular Std Book" font-size="12px" fill="#243B5A">Inactive (other)</text></g><g class="mark-text role-mark layer_11_marks" role="graphics-object" aria-roledescription="text mark container"><text aria-label="myr: Apr 01, 2022; Employed and working zero hours: −0.490073859692; t: Working zero hours" role="graphics-symbol" aria-roledescription="text mark" text-anchor="start" transform="translate(405,245.50123099486032)" font-family="Circular Std Book" font-size="12px" fill="#36B7B4">Working zero hours</text></g></g><path class="foreground" aria-hidden="true" d="" display="none"/></g></g></g><defs><linearGradient id="gradient_0" x1="1" x2="1" y1="1" y2="0"><stop offset="0.2" stop-color="#ffffff00"/><stop offset="0.8" stop-color="#36B7B4"/></linearGradient><linearGradient id="gradient_1" x1="1" x2="1" y1="1" y2="0"><stop offset="0.2" stop-color="#ffffff00"/><stop offset="0.8" stop-color="#179FDB"/></linearGradient><linearGradient id="gradient_2" x1="1" x2="1" y1="1" y2="0"><stop offset="0.2" stop-color="#ffffff00"/><stop offset="0.8" stop-color="#243B5A"/></linearGradient><linearGradient id="gradient_3" x1="1" x2="1" y1="1" y2="0"><stop offset="0.2" stop-color="#ffffff00"/><stop offset="0.8" stop-color="#F4134D"/></linearGradient></defs></svg>