<svg xmlns="http://www.w3.org/2000/svg" xmlns:xlink="http://www.w3.org/1999/xlink" version="1.1" class="marks" width="538" height="360" viewBox="0 0 538 360"><rect width="538" height="360" fill="white"/><g fill="none" stroke-miterlimit="10" transform="translate(22,38)"><g class="mark-group role-frame root" role="graphics-object" aria-roledescription="group mark container"><g transform="translate(0,0)"><path class="background" aria-hidden="true" d="M0,0h400v300h-400Z"/><g><g class="mark-group role-axis" aria-hidden="true"><g transform="translate(0.5,0.5)"><path class="background" aria-hidden="true" d="M0,0h0v0h0Z" pointer-events="none"/><g><g class="mark-rule role-axis-grid" pointer-events="none"><line transform="translate(0,300)" x2="400" y2="0" stroke="#676A86" stroke-opacity="0.5" stroke-width="1" stroke-dasharray="1,5" opacity="1"/><line transform="translate(0,267)" x2="400" y2="0" stroke="#676A86" stroke-opacity="0.5" stroke-width="1" stroke-dasharray="1,5" opacity="1"/><line transform="translate(0,233)" x2="400" y2="0" stroke="#676A86" stroke-opacity="0.5" stroke-width="1" stroke-dasharray="1,5" opacity="1"/><line transform="translate(0,200)" x2="400" y2="0" stroke="#676A86" stroke-opacity="0.5" stroke-width="1" stroke-dasharray="1,5" opacity="1"/><line transform="translate(0,167)" x2="400" y2="0" stroke="#676A86" stroke-opacity="0.5" stroke-width="1" stroke-dasharray="1,5" opacity="1"/><line transform="translate(0,133)" x2="400" y2="0" stroke="#676A86" stroke-opacity="0.5" stroke-width="1" stroke-dasharray="1,5" opacity="1"/><line transform="translate(0,100)" x2="400" y2="0" stroke="#676A86" stroke-opacity="0.5" stroke-width="1" stroke-dasharray="1,5" opacity="1"/><line transform="translate(0,67)" x2="400" y2="0" stroke="#676A86" stroke-opacity="0.5" stroke-width="1" stroke-dasharray="1,5" opacity="1"/><line transform="translate(0,33)" x2="400" y2="0" stroke="#676A86" stroke-opacity="0.5" stroke-width="1" stroke-dasharray="1,5" opacity="1"/><line transform="translate(0,0)" x2="400" y2="0" stroke="#676A86" stroke-opacity="0.5" stroke-width="1" stroke-dasharray="1,5" opacity="1"/></g></g><path class="foreground" aria-hidden="true" d="" pointer-events="none" display="none"/></g></g><g class="mark-group role-axis" role="graphics-symbol" aria-roledescription="axis" aria-label="X-axis for a time scale with values from Tuesday, 01 January 2019, 12:00:00 AM to Friday, 01 April 2022, 12:00:00 AM"><g transform="translate(0.5,300.5)"><path class="background" aria-hidden="true" d="M0,0h0v0h0Z" pointer-events="none"/><g><g class="mark-rule role-axis-tick" pointer-events="none"><line transform="translate(0,0)" x2="0" y2="5" stroke="#676A86" stroke-opacity="0.5" stroke-width="1" opacity="1"/><line transform="translate(30,0)" x2="0" y2="5" stroke="#676A86" stroke-opacity="0.5" stroke-width="1" opacity="1"/><line transform="translate(61,0)" x2="0" y2="5" stroke="#676A86" stroke-opacity="0.5" stroke-width="1" opacity="1"/><line transform="translate(92,0)" x2="0" y2="5" stroke="#676A86" stroke-opacity="0.5" stroke-width="1" opacity="1"/><line transform="translate(123,0)" x2="0" y2="5" stroke="#676A86" stroke-opacity="0.5" stroke-width="1" opacity="1"/><line transform="translate(154,0)" x2="0" y2="5" stroke="#676A86" stroke-opacity="0.5" stroke-width="1" opacity="1"/><line transform="translate(184,0)" x2="0" y2="5" stroke="#676A86" stroke-opacity="0.5" stroke-width="1" opacity="1"/><line transform="translate(216,0)" x2="0" y2="5" stroke="#676A86" stroke-opacity="0.5" stroke-width="1" opacity="1"/><line transform="translate(247,0)" x2="0" y2="5" stroke="#676A86" stroke-opacity="0.5" stroke-width="1" opacity="1"/><line transform="translate(277,0)" x2="0" y2="5" stroke="#676A86" stroke-opacity="0.5" stroke-width="1" opacity="1"/><line transform="translate(308,0)" x2="0" y2="5" stroke="#676A86" stroke-opacity="0.5" stroke-width="1" opacity="1"/><line transform="translate(339,0)" x2="0" y2="5" stroke="#676A86" stroke-opacity="0.5" stroke-width="1" opacity="1"/><line transform="translate(370,0)" x2="0" y2="5" stroke="#676A86" stroke-opacity="0.5" stroke-width="1" opacity="1"/><line transform="translate(400,0)" x2="0" y2="5" stroke="#676A86" stroke-opacity="0.5" stroke-width="1" opacity="1"/></g><g class="mark-text role-axis-label" pointer-events="none"><text text-anchor="start" transform="translate(0,15)" font-family="Circular Std Book" font-size="10px" fill="#676A86" fill-opacity="0.7" opacity="1">2019</text><text text-anchor="middle" transform="translate(30.354131534569984,15)" font-family="Circular Std Book" font-size="10px" fill="#676A86" fill-opacity="0.7" opacity="0">April</text><text text-anchor="middle" transform="translate(61.04553119730185,15)" font-family="Circular Std Book" font-size="10px" fill="#676A86" fill-opacity="0.7" opacity="1">July</text><text text-anchor="middle" transform="translate(92.0741989881956,15)" font-family="Circular Std Book" font-size="10px" fill="#676A86" fill-opacity="0.7" opacity="0">October</text><text text-anchor="middle" transform="translate(123.10286677908937,15)" font-family="Circular Std Book" font-size="10px" fill="#676A86" fill-opacity="0.7" opacity="1">2020</text><text text-anchor="middle" transform="translate(153.79426644182124,15)" font-family="Circular Std Book" font-size="10px" fill="#676A86" fill-opacity="0.7" opacity="0">April</text><text text-anchor="middle" transform="translate(184.48566610455313,15)" font-family="Circular Std Book" font-size="10px" fill="#676A86" fill-opacity="0.7" opacity="1">July</text><text text-anchor="middle" transform="translate(215.51433389544687,15)" font-family="Circular Std Book" font-size="10px" fill="#676A86" fill-opacity="0.7" opacity="0">October</text><text text-anchor="middle" transform="translate(246.54300168634063,15)" font-family="Circular Std Book" font-size="10px" fill="#676A86" fill-opacity="0.7" opacity="1">2021</text><text text-anchor="middle" transform="translate(276.89713322091063,15)" font-family="Circular Std Book" font-size="10px" fill="#676A86" fill-opacity="0.7" opacity="0">April</text><text text-anchor="middle" transform="translate(307.5885328836425,15)" font-family="Circular Std Book" font-size="10px" fill="#676A86" fill-opacity="0.7" opacity="1">July</text><text text-anchor="middle" transform="translate(338.61720067453626,15)" font-family="Circular Std Book" font-size="10px" fill="#676A86" fill-opacity="0.7" opacity="0">October</text><text text-anchor="middle" transform="translate(369.64586846543,15)" font-family="Circular Std Book" font-size="10px" fill="#676A86" fill-opacity="0.7" opacity="1">2022</text><text text-anchor="end" transform="translate(400,15)" font-family="Circular Std Book" font-size="10px" fill="#676A86" fill-opacity="0.7" opacity="0">April</text></g><g class="mark-rule role-axis-domain" pointer-events="none"><line transform="translate(0,0)" x2="400" y2="0" stroke="#676A86" stroke-opacity="0.5" stroke-width="1" opacity="1"/></g></g><path class="foreground" aria-hidden="true" d="" pointer-events="none" display="none"/></g></g><g class="mark-group role-axis" role="graphics-symbol" aria-roledescription="axis" aria-label="Y-axis titled 'Percentage point change from 2019 Q4' for a linear scale with values from −4 to 14"><g transform="translate(0.5,0.5)"><path class="background" aria-hidden="true" d="M0,0h0v0h0Z" pointer-events="none"/><g><g class="mark-text role-axis-label" pointer-events="none"><text text-anchor="end" transform="translate(-5,303)" font-family="Circular Std Book" font-size="10px" fill="#676A86" fill-opacity="0.7" opacity="1">−4</text><text text-anchor="end" transform="translate(-5,269.66666666666663)" font-family="Circular Std Book" font-size="10px" fill="#676A86" fill-opacity="0.7" opacity="1">−2</text><text text-anchor="end" transform="translate(-5,236.33333333333334)" font-family="Circular Std Book" font-size="10px" fill="#676A86" fill-opacity="0.7" opacity="1">0</text><text text-anchor="end" transform="translate(-5,203.00000000000003)" font-family="Circular Std Book" font-size="10px" fill="#676A86" fill-opacity="0.7" opacity="1">2</text><text text-anchor="end" transform="translate(-5,169.66666666666669)" font-family="Circular Std Book" font-size="10px" fill="#676A86" fill-opacity="0.7" opacity="1">4</text><text text-anchor="end" transform="translate(-5,136.33333333333331)" font-family="Circular Std Book" font-size="10px" fill="#676A86" fill-opacity="0.7" opacity="1">6</text><text text-anchor="end" transform="translate(-5,103.00000000000001)" font-family="Circular Std Book" font-size="10px" fill="#676A86" fill-opacity="0.7" opacity="1">8</text><text text-anchor="end" transform="translate(-5,69.66666666666666)" font-family="Circular Std Book" font-size="10px" fill="#676A86" fill-opacity="0.7" opacity="1">10</text><text text-anchor="end" transform="translate(-5,36.33333333333335)" font-family="Circular Std Book" font-size="10px" fill="#676A86" fill-opacity="0.7" opacity="1">12</text><text text-anchor="end" transform="translate(-5,3)" font-family="Circular Std Book" font-size="10px" fill="#676A86" fill-opacity="0.7" opacity="1">14</text></g><g class="mark-rule role-axis-domain" pointer-events="none"><line transform="translate(0,300)" x2="0" y2="-300" stroke="#676A86" stroke-opacity="0.5" stroke-width="1" opacity="1"/></g><g class="mark-text role-axis-title" pointer-events="none"><text text-anchor="start" transform="translate(0,-10)" font-family="Circular Std Book" font-size="12px" font-weight="bold" fill="#676A86" fill-opacity="0.8" opacity="1">Percentage point change from 2019 Q4</text></g></g><path class="foreground" aria-hidden="true" d="" pointer-events="none" display="none"/></g></g><g class="mark-line role-mark layer_0_marks" role="graphics-object" aria-roledescription="line mark container"><path aria-label="x: Jan 01, 2019; y: 0" role="graphics-symbol" aria-roledescription="line mark" d="M0,233.333L400,233.333" stroke="#676A86" stroke-width="1" opacity="0.3"/></g><g class="mark-line role-mark layer_1_marks" role="graphics-object" aria-roledescription="line mark container"><path aria-label="x: Jan 01, 2020; y: −4" role="graphics-symbol" aria-roledescription="line mark" d="M123.103,300L123.103,0" stroke="#676A86" stroke-width="1" opacity="0.3"/></g><g class="mark-text role-mark layer_2_marks" role="graphics-object" aria-roledescription="text mark container"><text aria-label="x: Jan 01, 2019; y: −3.2; t: ↓ decrease" role="graphics-symbol" aria-roledescription="text mark" text-anchor="start" transform="translate(5,289.6666666666667)" font-family="Circular Std Book" font-size="11px" fill="#676A86" opacity="0.6">↓ decrease</text><text aria-label="x: Jan 01, 2019; y: 13; t: ↑ increase" role="graphics-symbol" aria-roledescription="text mark" text-anchor="start" transform="translate(5,19.666666666666675)" font-family="Circular Std Book" font-size="11px" fill="#676A86" opacity="0.6">↑ increase</text></g><g class="mark-text role-mark layer_3_marks" role="graphics-object" aria-roledescription="text mark container"><text aria-label="x: Apr 01, 2022; y: 14; t: Aged 25-64" role="graphics-symbol" aria-roledescription="text mark" text-anchor="end" transform="translate(395,-8)" font-family="Circular Std Book" font-size="12px" font-weight="bold" fill="#676A86" opacity="0.8">Aged 25-64</text></g><g class="mark-area role-mark layer_4_layer_0_marks" role="graphics-object" aria-roledescription="area mark container"><path aria-label="myr: Jan 01, 2019; Employed and working zero hours: −2.20280146599" role="graphics-symbol" aria-roledescription="area mark" d="M0,270.047C10.118,268.058,20.236,266.07,30.354,258.117C40.585,250.076,50.815,221.119,61.046,221.119C71.388,221.119,81.731,229.466,92.074,233.333C102.417,237.201,112.76,244.322,123.103,244.322C126.588,244.322,130.073,209.084,133.558,188.362C136.818,168.976,140.079,139.771,143.339,124.772C146.824,108.738,150.309,97.914,153.794,97.914C157.167,97.914,160.54,111.935,163.912,111.935C167.397,111.935,170.883,107.379,174.368,107.379C177.74,107.379,181.113,126.096,184.486,136.322C187.971,146.889,191.456,156.108,194.941,169.874C198.426,183.641,201.911,218.919,205.396,218.919C208.769,218.919,212.142,177.633,215.514,177.258C218.999,176.871,222.485,176.677,225.97,176.677C229.342,176.677,232.715,176.678,236.088,176.679C239.573,176.68,243.058,203.007,246.543,205.554C250.028,208.102,253.513,206.828,256.998,209.376C260.146,211.677,263.294,215.92,266.442,221.471C269.927,227.616,273.412,245.49,276.897,245.49C280.27,245.49,283.642,245.107,287.015,244.342C290.5,243.551,293.985,215.51,297.47,215.51C300.843,215.51,304.216,215.835,307.589,216.486C311.074,217.159,314.559,218.968,318.044,223.931C321.529,228.894,325.014,252.356,328.499,252.356C331.872,252.356,335.245,216.732,338.617,216.732C342.102,216.732,345.587,222.791,349.073,225.657C352.445,228.43,355.818,228.328,359.191,233.669C362.676,239.188,366.161,265.02,369.646,265.02C373.131,265.02,376.616,258.351,380.101,256.567C383.249,254.955,386.397,254.149,389.545,254.149C393.03,254.149,396.515,258.119,400,262.089L400,233.333C396.515,233.333,393.03,233.333,389.545,233.333C386.397,233.333,383.249,233.333,380.101,233.333C376.616,233.333,373.131,233.333,369.646,233.333C366.161,233.333,362.676,233.333,359.191,233.333C355.818,233.333,352.445,233.333,349.073,233.333C345.587,233.333,342.102,233.333,338.617,233.333C335.245,233.333,331.872,233.333,328.499,233.333C325.014,233.333,321.529,233.333,318.044,233.333C314.559,233.333,311.074,233.333,307.589,233.333C304.216,233.333,300.843,233.333,297.47,233.333C293.985,233.333,290.5,233.333,287.015,233.333C283.642,233.333,280.27,233.333,276.897,233.333C273.412,233.333,269.927,233.333,266.442,233.333C263.294,233.333,260.146,233.333,256.998,233.333C253.513,233.333,250.028,233.333,246.543,233.333C243.058,233.333,239.573,233.333,236.088,233.333C232.715,233.333,229.342,233.333,225.97,233.333C222.485,233.333,218.999,233.333,215.514,233.333C212.142,233.333,208.769,233.333,205.396,233.333C201.911,233.333,198.426,233.333,194.941,233.333C191.456,233.333,187.971,233.333,184.486,233.333C181.113,233.333,177.74,233.333,174.368,233.333C170.883,233.333,167.397,233.333,163.912,233.333C160.54,233.333,157.167,233.333,153.794,233.333C150.309,233.333,146.824,233.333,143.339,233.333C140.079,233.333,136.818,233.333,133.558,233.333C130.073,233.333,126.588,233.333,123.103,233.333C112.76,233.333,102.417,233.333,92.074,233.333C81.731,233.333,71.388,233.333,61.046,233.333C50.815,233.333,40.585,233.333,30.354,233.333C20.236,233.333,10.118,233.333,0,233.333Z" fill="url(#gradient_0)" opacity="1"/></g><g class="mark-line role-mark layer_4_layer_1_marks" role="graphics-object" aria-roledescription="line mark container"><path aria-label="myr: Jan 01, 2019; Employed and working zero hours: −2.20280146599" role="graphics-symbol" aria-roledescription="line mark" d="M0,270.047C10.118,268.058,20.236,266.07,30.354,258.117C40.585,250.076,50.815,221.119,61.046,221.119C71.388,221.119,81.731,229.466,92.074,233.333C102.417,237.201,112.76,244.322,123.103,244.322C126.588,244.322,130.073,209.084,133.558,188.362C136.818,168.976,140.079,139.771,143.339,124.772C146.824,108.738,150.309,97.914,153.794,97.914C157.167,97.914,160.54,111.935,163.912,111.935C167.397,111.935,170.883,107.379,174.368,107.379C177.74,107.379,181.113,126.096,184.486,136.322C187.971,146.889,191.456,156.108,194.941,169.874C198.426,183.641,201.911,218.919,205.396,218.919C208.769,218.919,212.142,177.633,215.514,177.258C218.999,176.871,222.485,176.677,225.97,176.677C229.342,176.677,232.715,176.678,236.088,176.679C239.573,176.68,243.058,203.007,246.543,205.554C250.028,208.102,253.513,206.828,256.998,209.376C260.146,211.677,263.294,215.92,266.442,221.471C269.927,227.616,273.412,245.49,276.897,245.49C280.27,245.49,283.642,245.107,287.015,244.342C290.5,243.551,293.985,215.51,297.47,215.51C300.843,215.51,304.216,215.835,307.589,216.486C311.074,217.159,314.559,218.968,318.044,223.931C321.529,228.894,325.014,252.356,328.499,252.356C331.872,252.356,335.245,216.732,338.617,216.732C342.102,216.732,345.587,222.791,349.073,225.657C352.445,228.43,355.818,228.328,359.191,233.669C362.676,239.188,366.161,265.02,369.646,265.02C373.131,265.02,376.616,258.351,380.101,256.567C383.249,254.955,386.397,254.149,389.545,254.149C393.03,254.149,396.515,258.119,400,262.089" stroke="#36B7B4" stroke-width="2"/></g><g class="mark-area role-mark layer_5_layer_0_marks" role="graphics-object" aria-roledescription="area mark container"><path aria-label="myr: Jan 01, 2019; Inactive (student): 0.015727058053" role="graphics-symbol" aria-roledescription="area mark" d="M0,233.071C10.118,232.887,20.236,232.704,30.354,232.704C40.585,232.704,50.815,234.296,61.046,234.296C71.388,234.296,81.731,233.333,92.074,233.333C102.417,233.333,112.76,234.183,123.103,234.183C126.588,234.183,130.073,233.949,133.558,233.949C136.818,233.949,140.079,234.093,143.339,234.093C146.824,234.093,150.309,234.002,153.794,234.002C157.167,234.002,160.54,234.427,163.912,234.427C167.397,234.427,170.883,234.379,174.368,234.283C177.74,234.19,181.113,233.787,184.486,233.616C187.971,233.44,191.456,233.409,194.941,233.253C198.426,233.098,201.911,232.682,205.396,232.682C208.769,232.682,212.142,232.878,215.514,232.878C218.999,232.878,222.485,232.572,225.97,232.423C229.342,232.278,232.715,232.278,236.088,231.997C239.573,231.708,243.058,230.799,246.543,230.684C250.028,230.568,253.513,230.51,256.998,230.51C260.146,230.51,263.294,231.44,266.442,231.625C269.927,231.83,273.412,231.752,276.897,231.932C280.27,232.106,283.642,232.463,287.015,232.673C290.5,232.89,293.985,232.878,297.47,233.204C300.843,233.52,304.216,234.571,307.589,234.571C311.074,234.571,314.559,234.478,318.044,234.292C321.529,234.106,325.014,233.288,328.499,232.958C331.872,232.638,335.245,232.48,338.617,232.321C342.102,232.157,345.587,232.002,349.073,232.002C352.445,232.002,355.818,232.202,359.191,232.28C362.676,232.361,366.161,232.429,369.646,232.473C373.131,232.518,376.616,232.498,380.101,232.547C383.249,232.592,386.397,232.954,389.545,232.954C393.03,232.954,396.515,232.756,400,232.557L400,233.333C396.515,233.333,393.03,233.333,389.545,233.333C386.397,233.333,383.249,233.333,380.101,233.333C376.616,233.333,373.131,233.333,369.646,233.333C366.161,233.333,362.676,233.333,359.191,233.333C355.818,233.333,352.445,233.333,349.073,233.333C345.587,233.333,342.102,233.333,338.617,233.333C335.245,233.333,331.872,233.333,328.499,233.333C325.014,233.333,321.529,233.333,318.044,233.333C314.559,233.333,311.074,233.333,307.589,233.333C304.216,233.333,300.843,233.333,297.47,233.333C293.985,233.333,290.5,233.333,287.015,233.333C283.642,233.333,280.27,233.333,276.897,233.333C273.412,233.333,269.927,233.333,266.442,233.333C263.294,233.333,260.146,233.333,256.998,233.333C253.513,233.333,250.028,233.333,246.543,233.333C243.058,233.333,239.573,233.333,236.088,233.333C232.715,233.333,229.342,233.333,225.97,233.333C222.485,233.333,218.999,233.333,215.514,233.333C212.142,233.333,208.769,233.333,205.396,233.333C201.911,233.333,198.426,233.333,194.941,233.333C191.456,233.333,187.971,233.333,184.486,233.333C181.113,233.333,177.74,233.333,174.368,233.333C170.883,233.333,167.397,233.333,163.912,233.333C160.54,233.333,157.167,233.333,153.794,233.333C150.309,233.333,146.824,233.333,143.339,233.333C140.079,233.333,136.818,233.333,133.558,233.333C130.073,233.333,126.588,233.333,123.103,233.333C112.76,233.333,102.417,233.333,92.074,233.333C81.731,233.333,71.388,233.333,61.046,233.333C50.815,233.333,40.585,233.333,30.354,233.333C20.236,233.333,10.118,233.333,0,233.333Z" fill="url(#gradient_1)" opacity="1"/></g><g class="mark-line role-mark layer_5_layer_1_marks" role="graphics-object" aria-roledescription="line mark container"><path aria-label="myr: Jan 01, 2019; Inactive (student): 0.015727058053" role="graphics-symbol" aria-roledescription="line mark" d="M0,233.071C10.118,232.887,20.236,232.704,30.354,232.704C40.585,232.704,50.815,234.296,61.046,234.296C71.388,234.296,81.731,233.333,92.074,233.333C102.417,233.333,112.76,234.183,123.103,234.183C126.588,234.183,130.073,233.949,133.558,233.949C136.818,233.949,140.079,234.093,143.339,234.093C146.824,234.093,150.309,234.002,153.794,234.002C157.167,234.002,160.54,234.427,163.912,234.427C167.397,234.427,170.883,234.379,174.368,234.283C177.74,234.19,181.113,233.787,184.486,233.616C187.971,233.44,191.456,233.409,194.941,233.253C198.426,233.098,201.911,232.682,205.396,232.682C208.769,232.682,212.142,232.878,215.514,232.878C218.999,232.878,222.485,232.572,225.97,232.423C229.342,232.278,232.715,232.278,236.088,231.997C239.573,231.708,243.058,230.799,246.543,230.684C250.028,230.568,253.513,230.51,256.998,230.51C260.146,230.51,263.294,231.44,266.442,231.625C269.927,231.83,273.412,231.752,276.897,231.932C280.27,232.106,283.642,232.463,287.015,232.673C290.5,232.89,293.985,232.878,297.47,233.204C300.843,233.52,304.216,234.571,307.589,234.571C311.074,234.571,314.559,234.478,318.044,234.292C321.529,234.106,325.014,233.288,328.499,232.958C331.872,232.638,335.245,232.48,338.617,232.321C342.102,232.157,345.587,232.002,349.073,232.002C352.445,232.002,355.818,232.202,359.191,232.28C362.676,232.361,366.161,232.429,369.646,232.473C373.131,232.518,376.616,232.498,380.101,232.547C383.249,232.592,386.397,232.954,389.545,232.954C393.03,232.954,396.515,232.756,400,232.557" stroke="#179FDB" stroke-width="2"/></g><g class="mark-area role-mark layer_6_layer_0_marks" role="graphics-object" aria-roledescription="area mark container"><path aria-label="myr: Jan 01, 2019; Inactive (other): 0.236362218857" role="graphics-symbol" aria-roledescription="area mark" d="M0,229.394C10.118,229.611,20.236,229.827,30.354,229.827C40.585,229.827,50.815,228.959,61.046,228.959C71.388,228.959,81.731,233.291,92.074,233.333C102.417,233.376,112.76,233.397,123.103,233.397C126.588,233.397,130.073,229.628,133.558,228.262C136.818,226.984,140.079,225.552,143.339,225.334C146.824,225.1,150.309,224.983,153.794,224.983C157.167,224.983,160.54,228.292,163.912,228.639C167.397,228.997,170.883,229.176,174.368,229.176C177.74,229.176,181.113,228.838,184.486,228.838C187.971,228.838,191.456,231.202,194.941,231.729C198.426,232.256,201.911,232.519,205.396,232.519C208.769,232.519,212.142,229.533,215.514,229.533C218.999,229.533,222.485,229.91,225.97,230.567C229.342,231.202,232.715,233.351,236.088,233.351C239.573,233.351,243.058,233.147,246.543,232.902C250.028,232.656,253.513,232.559,256.998,231.875C260.146,231.257,263.294,227.521,266.442,227.521C269.927,227.521,273.412,227.903,276.897,227.903C280.27,227.903,283.642,226.219,287.015,225.651C290.5,225.063,293.985,224.796,297.47,224.471C300.843,224.157,304.216,223.721,307.589,223.721C311.074,223.721,314.559,224.285,318.044,224.285C321.529,224.285,325.014,224.103,328.499,223.739C331.872,223.387,335.245,222.444,338.617,222.167C342.102,221.881,345.587,222.024,349.073,221.738C352.445,221.461,355.818,219.491,359.191,219.491C362.676,219.491,366.161,221.766,369.646,221.766C373.131,221.766,376.616,220.068,380.101,220.068C383.249,220.068,386.397,222.986,389.545,222.986C393.03,222.986,396.515,220.533,400,218.08L400,233.333C396.515,233.333,393.03,233.333,389.545,233.333C386.397,233.333,383.249,233.333,380.101,233.333C376.616,233.333,373.131,233.333,369.646,233.333C366.161,233.333,362.676,233.333,359.191,233.333C355.818,233.333,352.445,233.333,349.073,233.333C345.587,233.333,342.102,233.333,338.617,233.333C335.245,233.333,331.872,233.333,328.499,233.333C325.014,233.333,321.529,233.333,318.044,233.333C314.559,233.333,311.074,233.333,307.589,233.333C304.216,233.333,300.843,233.333,297.47,233.333C293.985,233.333,290.5,233.333,287.015,233.333C283.642,233.333,280.27,233.333,276.897,233.333C273.412,233.333,269.927,233.333,266.442,233.333C263.294,233.333,260.146,233.333,256.998,233.333C253.513,233.333,250.028,233.333,246.543,233.333C243.058,233.333,239.573,233.333,236.088,233.333C232.715,233.333,229.342,233.333,225.97,233.333C222.485,233.333,218.999,233.333,215.514,233.333C212.142,233.333,208.769,233.333,205.396,233.333C201.911,233.333,198.426,233.333,194.941,233.333C191.456,233.333,187.971,233.333,184.486,233.333C181.113,233.333,177.74,233.333,174.368,233.333C170.883,233.333,167.397,233.333,163.912,233.333C160.54,233.333,157.167,233.333,153.794,233.333C150.309,233.333,146.824,233.333,143.339,233.333C140.079,233.333,136.818,233.333,133.558,233.333C130.073,233.333,126.588,233.333,123.103,233.333C112.76,233.333,102.417,233.333,92.074,233.333C81.731,233.333,71.388,233.333,61.046,233.333C50.815,233.333,40.585,233.333,30.354,233.333C20.236,233.333,10.118,233.333,0,233.333Z" fill="url(#gradient_2)" opacity="1"/></g><g class="mark-line role-mark layer_6_layer_1_marks" role="graphics-object" aria-roledescription="line mark container"><path aria-label="myr: Jan 01, 2019; Inactive (other): 0.236362218857" role="graphics-symbol" aria-roledescription="line mark" d="M0,229.394C10.118,229.611,20.236,229.827,30.354,229.827C40.585,229.827,50.815,228.959,61.046,228.959C71.388,228.959,81.731,233.291,92.074,233.333C102.417,233.376,112.76,233.397,123.103,233.397C126.588,233.397,130.073,229.628,133.558,228.262C136.818,226.984,140.079,225.552,143.339,225.334C146.824,225.1,150.309,224.983,153.794,224.983C157.167,224.983,160.54,228.292,163.912,228.639C167.397,228.997,170.883,229.176,174.368,229.176C177.74,229.176,181.113,228.838,184.486,228.838C187.971,228.838,191.456,231.202,194.941,231.729C198.426,232.256,201.911,232.519,205.396,232.519C208.769,232.519,212.142,229.533,215.514,229.533C218.999,229.533,222.485,229.91,225.97,230.567C229.342,231.202,232.715,233.351,236.088,233.351C239.573,233.351,243.058,233.147,246.543,232.902C250.028,232.656,253.513,232.559,256.998,231.875C260.146,231.257,263.294,227.521,266.442,227.521C269.927,227.521,273.412,227.903,276.897,227.903C280.27,227.903,283.642,226.219,287.015,225.651C290.5,225.063,293.985,224.796,297.47,224.471C300.843,224.157,304.216,223.721,307.589,223.721C311.074,223.721,314.559,224.285,318.044,224.285C321.529,224.285,325.014,224.103,328.499,223.739C331.872,223.387,335.245,222.444,338.617,222.167C342.102,221.881,345.587,222.024,349.073,221.738C352.445,221.461,355.818,219.491,359.191,219.491C362.676,219.491,366.161,221.766,369.646,221.766C373.131,221.766,376.616,220.068,380.101,220.068C383.249,220.068,386.397,222.986,389.545,222.986C393.03,222.986,396.515,220.533,400,218.08" stroke="#243B5A" stroke-width="2"/></g><g class="mark-area role-mark layer_7_layer_0_marks" role="graphics-object" aria-roledescription="area mark container"><path aria-label="myr: Jan 01, 2019; Unemployed: 0.250513672829" role="graphics-symbol" aria-roledescription="area mark" d="M0,229.158C10.118,229.728,20.236,230.298,30.354,230.739C40.585,231.184,50.815,231.382,61.046,231.811C71.388,232.245,81.731,233.333,92.074,233.333C102.417,233.333,112.76,229.249,123.103,229.249C126.588,229.249,130.073,230.035,133.558,230.374C136.818,230.692,140.079,231.234,143.339,231.234C146.824,231.234,150.309,231.214,153.794,231.175C157.167,231.136,160.54,229.8,163.912,228.802C167.397,227.77,170.883,226.416,174.368,225.044C177.74,223.716,181.113,222.185,184.486,220.724C187.971,219.214,191.456,216.692,194.941,216.125C198.426,215.558,201.911,215.609,205.396,215.274C208.769,214.951,212.142,214.161,215.514,214.161C218.999,214.161,222.485,215.215,225.97,215.225C229.342,215.234,232.715,215.229,236.088,215.239C239.573,215.248,243.058,215.409,246.543,215.751C250.028,216.092,253.513,217.112,256.998,217.777C260.146,218.378,263.294,219.014,266.442,219.554C269.927,220.153,273.412,220.522,276.897,221.159C280.27,221.776,283.642,223.296,287.015,223.296C290.5,223.296,293.985,223.004,297.47,223.004C300.843,223.004,304.216,224.473,307.589,224.473C311.074,224.473,314.559,223.618,318.044,223.618C321.529,223.618,325.014,224.873,328.499,225.423C331.872,225.955,335.245,226.422,338.617,226.873C342.102,227.339,345.587,227.662,349.073,228.168C352.445,228.658,355.818,229.495,359.191,229.847C362.676,230.212,366.161,230.254,369.646,230.395C373.131,230.535,376.616,230.502,380.101,230.688C383.249,230.857,386.397,231.409,389.545,231.409C393.03,231.409,396.515,231.203,400,230.997L400,233.333C396.515,233.333,393.03,233.333,389.545,233.333C386.397,233.333,383.249,233.333,380.101,233.333C376.616,233.333,373.131,233.333,369.646,233.333C366.161,233.333,362.676,233.333,359.191,233.333C355.818,233.333,352.445,233.333,349.073,233.333C345.587,233.333,342.102,233.333,338.617,233.333C335.245,233.333,331.872,233.333,328.499,233.333C325.014,233.333,321.529,233.333,318.044,233.333C314.559,233.333,311.074,233.333,307.589,233.333C304.216,233.333,300.843,233.333,297.47,233.333C293.985,233.333,290.5,233.333,287.015,233.333C283.642,233.333,280.27,233.333,276.897,233.333C273.412,233.333,269.927,233.333,266.442,233.333C263.294,233.333,260.146,233.333,256.998,233.333C253.513,233.333,250.028,233.333,246.543,233.333C243.058,233.333,239.573,233.333,236.088,233.333C232.715,233.333,229.342,233.333,225.97,233.333C222.485,233.333,218.999,233.333,215.514,233.333C212.142,233.333,208.769,233.333,205.396,233.333C201.911,233.333,198.426,233.333,194.941,233.333C191.456,233.333,187.971,233.333,184.486,233.333C181.113,233.333,177.74,233.333,174.368,233.333C170.883,233.333,167.397,233.333,163.912,233.333C160.54,233.333,157.167,233.333,153.794,233.333C150.309,233.333,146.824,233.333,143.339,233.333C140.079,233.333,136.818,233.333,133.558,233.333C130.073,233.333,126.588,233.333,123.103,233.333C112.76,233.333,102.417,233.333,92.074,233.333C81.731,233.333,71.388,233.333,61.046,233.333C50.815,233.333,40.585,233.333,30.354,233.333C20.236,233.333,10.118,233.333,0,233.333Z" fill="url(#gradient_3)" opacity="1"/></g><g class="mark-line role-mark layer_7_layer_1_marks" role="graphics-object" aria-roledescription="line mark container"><path aria-label="myr: Jan 01, 2019; Unemployed: 0.250513672829" role="graphics-symbol" aria-roledescription="line mark" d="M0,229.158C10.118,229.728,20.236,230.298,30.354,230.739C40.585,231.184,50.815,231.382,61.046,231.811C71.388,232.245,81.731,233.333,92.074,233.333C102.417,233.333,112.76,229.249,123.103,229.249C126.588,229.249,130.073,230.035,133.558,230.374C136.818,230.692,140.079,231.234,143.339,231.234C146.824,231.234,150.309,231.214,153.794,231.175C157.167,231.136,160.54,229.8,163.912,228.802C167.397,227.77,170.883,226.416,174.368,225.044C177.74,223.716,181.113,222.185,184.486,220.724C187.971,219.214,191.456,216.692,194.941,216.125C198.426,215.558,201.911,215.609,205.396,215.274C208.769,214.951,212.142,214.161,215.514,214.161C218.999,214.161,222.485,215.215,225.97,215.225C229.342,215.234,232.715,215.229,236.088,215.239C239.573,215.248,243.058,215.409,246.543,215.751C250.028,216.092,253.513,217.112,256.998,217.777C260.146,218.378,263.294,219.014,266.442,219.554C269.927,220.153,273.412,220.522,276.897,221.159C280.27,221.776,283.642,223.296,287.015,223.296C290.5,223.296,293.985,223.004,297.47,223.004C300.843,223.004,304.216,224.473,307.589,224.473C311.074,224.473,314.559,223.618,318.044,223.618C321.529,223.618,325.014,224.873,328.499,225.423C331.872,225.955,335.245,226.422,338.617,226.873C342.102,227.339,345.587,227.662,349.073,228.168C352.445,228.658,355.818,229.495,359.191,229.847C362.676,230.212,366.161,230.254,369.646,230.395C373.131,230.535,376.616,230.502,380.101,230.688C383.249,230.857,386.397,231.409,389.545,231.409C393.03,231.409,396.515,231.203,400,230.997" stroke="#F4134D" stroke-width="2"/></g><g class="mark-text role-mark layer_8_marks" role="graphics-object" aria-roledescription="text mark container"><text aria-label="myr: Apr 01, 2022; Unemployed: 0.140165165067; t: Unemployed" role="graphics-symbol" aria-roledescription="text mark" text-anchor="start" transform="translate(405,234.99724724888802)" font-family="Circular Std Book" font-size="12px" fill="#F4134D">Unemployed</text></g><g class="mark-text role-mark layer_9_marks" role="graphics-object" aria-roledescription="text mark container"><text aria-label="myr: Apr 01, 2022; Inactive (student): 0.0465779080987; t: Inactive (student)" role="graphics-symbol" aria-roledescription="text mark" text-anchor="start" transform="translate(405,248.5570348650217)" font-family="Circular Std Book" font-size="12px" fill="#179FDB">Inactive (student)</text></g><g class="mark-text role-mark layer_10_marks" role="graphics-object" aria-roledescription="text mark container"><text aria-label="myr: Apr 01, 2022; Inactive (other): 0.915183126926; t: Inactive (other)" role="graphics-symbol" aria-roledescription="text mark" text-anchor="start" transform="translate(405,222.08028121789297)" font-family="Circular Std Book" font-size="12px" fill="#243B5A">Inactive (other)</text></g><g class="mark-text role-mark layer_11_marks" role="graphics-object" aria-roledescription="text mark container"><text aria-label="myr: Apr 01, 2022; Employed and working zero hours: −1.7253484726; t: Working zero hours" role="graphics-symbol" aria-roledescription="text mark" text-anchor="start" transform="translate(405,266.0891412099203)" font-family="Circular Std Book" font-size="12px" fill="#36B7B4">Working zero hours</text></g><g class="mark-image role-mark layer_12_marks" role="graphics-object" aria-roledescription="image mark container"><image aria-label="x: Apr 01, 2022; y: 14; img: https://raw.githubusercontent.com/EconomicsObservatory/ECOvisualisations/main/guidelines/logos/eco-icon-dark.png" role="graphics-symbol" aria-roledescription="image mark" xlink:href="" transform="translate(465,-33)" width="40" height="40" preserveAspectRatio="xMidYMid" opacity="0.5"/></g></g><path class="foreground" aria-hidden="true" d="" display="none"/></g></g></g><defs><linearGradient id="gradient_0" x1="1" x2="1" y1="1" y2="0"><stop offset="0.2" stop-color="#ffffff00"/><stop offset="0.8" stop-color="#36B7B4"/></linearGradient><linearGradient id="gradient_1" x1="1" x2="1" y1="1" y2="0"><stop offset="0.2" stop-color="#ffffff00"/><stop offset="0.8" stop-color="#179FDB"/></linearGradient><linearGradient id="gradient_2" x1="1" x2="1" y1="1" y2="0"><stop offset="0.2" stop-color="#ffffff00"/><stop offset="0.8" stop-color="#243B5A"/></linearGradient><linearGradient id="gradient_3" x1="1" x2="1" y1="1" y2="0"><stop offset="0.2" stop-color="#ffffff00"/><stop offset="0.8" stop-color="#F4134D"/></linearGradient></defs></svg>