<svg xmlns="http://www.w3.org/2000/svg" xmlns:xlink="http://www.w3.org/1999/xlink" version="1.1" class="marks" width="442" height="360" viewBox="0 0 442 360"><rect width="442" height="360" fill="white"/><g fill="none" stroke-miterlimit="10" transform="translate(32,38)"><g class="mark-group role-frame root" role="graphics-object" aria-roledescription="group mark container"><g transform="translate(0,0)"><path class="background" aria-hidden="true" d="M0,0h400v300h-400Z"/><g><g class="mark-group role-axis" aria-hidden="true"><g transform="translate(0.5,0.5)"><path class="background" aria-hidden="true" d="M0,0h0v0h0Z" pointer-events="none"/><g><g class="mark-rule role-axis-grid" pointer-events="none"><line transform="translate(0,300)" x2="400" y2="0" stroke="#676A86" stroke-opacity="0.5" stroke-width="1" stroke-dasharray="1,5" opacity="1"/><line transform="translate(0,257)" x2="400" y2="0" stroke="#676A86" stroke-opacity="0.5" stroke-width="1" stroke-dasharray="1,5" opacity="1"/><line transform="translate(0,214)" x2="400" y2="0" stroke="#676A86" stroke-opacity="0.5" stroke-width="1" stroke-dasharray="1,5" opacity="1"/><line transform="translate(0,171)" x2="400" y2="0" stroke="#676A86" stroke-opacity="0.5" stroke-width="1" stroke-dasharray="1,5" opacity="1"/><line transform="translate(0,129)" x2="400" y2="0" stroke="#676A86" stroke-opacity="0.5" stroke-width="1" stroke-dasharray="1,5" opacity="1"/><line transform="translate(0,86)" x2="400" y2="0" stroke="#676A86" stroke-opacity="0.5" stroke-width="1" stroke-dasharray="1,5" opacity="1"/><line transform="translate(0,43)" x2="400" y2="0" stroke="#676A86" stroke-opacity="0.5" stroke-width="1" stroke-dasharray="1,5" opacity="1"/><line transform="translate(0,0)" x2="400" y2="0" stroke="#676A86" stroke-opacity="0.5" stroke-width="1" stroke-dasharray="1,5" opacity="1"/></g></g><path class="foreground" aria-hidden="true" d="" pointer-events="none" display="none"/></g></g><g class="mark-group role-axis" role="graphics-symbol" aria-roledescription="axis" aria-label="X-axis for a time scale with values from Sunday, 01 April 2001, 12:00:00 AM to Sunday, 01 October 2023, 12:00:00 AM"><g transform="translate(0.5,300.5)"><path class="background" aria-hidden="true" d="M0,0h0v0h0Z" pointer-events="none"/><g><g class="mark-rule role-axis-tick" pointer-events="none"><line transform="translate(13,0)" x2="0" y2="5" stroke="#676A86" stroke-opacity="0.5" stroke-width="1" opacity="1"/><line transform="translate(49,0)" x2="0" y2="5" stroke="#676A86" stroke-opacity="0.5" stroke-width="1" opacity="1"/><line transform="translate(84,0)" x2="0" y2="5" stroke="#676A86" stroke-opacity="0.5" stroke-width="1" opacity="1"/><line transform="translate(120,0)" x2="0" y2="5" stroke="#676A86" stroke-opacity="0.5" stroke-width="1" opacity="1"/><line transform="translate(156,0)" x2="0" y2="5" stroke="#676A86" stroke-opacity="0.5" stroke-width="1" opacity="1"/><line transform="translate(191,0)" x2="0" y2="5" stroke="#676A86" stroke-opacity="0.5" stroke-width="1" opacity="1"/><line transform="translate(227,0)" x2="0" y2="5" stroke="#676A86" stroke-opacity="0.5" stroke-width="1" opacity="1"/><line transform="translate(262,0)" x2="0" y2="5" stroke="#676A86" stroke-opacity="0.5" stroke-width="1" opacity="1"/><line transform="translate(298,0)" x2="0" y2="5" stroke="#676A86" stroke-opacity="0.5" stroke-width="1" opacity="1"/><line transform="translate(333,0)" x2="0" y2="5" stroke="#676A86" stroke-opacity="0.5" stroke-width="1" opacity="1"/><line transform="translate(369,0)" x2="0" y2="5" stroke="#676A86" stroke-opacity="0.5" stroke-width="1" opacity="1"/></g><g class="mark-text role-axis-label" pointer-events="none"><text text-anchor="middle" transform="translate(13.385251886103674,15)" font-family="Circular Std Book" font-size="10px" fill="#676A86" fill-opacity="0.7" opacity="1">2002</text><text text-anchor="middle" transform="translate(48.917011438306155,15)" font-family="Circular Std Book" font-size="10px" fill="#676A86" fill-opacity="0.7" opacity="1">2004</text><text text-anchor="middle" transform="translate(84.49744463373084,15)" font-family="Circular Std Book" font-size="10px" fill="#676A86" fill-opacity="0.7" opacity="1">2006</text><text text-anchor="middle" transform="translate(120.02920418593332,15)" font-family="Circular Std Book" font-size="10px" fill="#676A86" fill-opacity="0.7" opacity="1">2008</text><text text-anchor="middle" transform="translate(155.609637381358,15)" font-family="Circular Std Book" font-size="10px" fill="#676A86" fill-opacity="0.7" opacity="1">2010</text><text text-anchor="middle" transform="translate(191.14139693356046,15)" font-family="Circular Std Book" font-size="10px" fill="#676A86" fill-opacity="0.7" opacity="1">2012</text><text text-anchor="middle" transform="translate(226.72183012898515,15)" font-family="Circular Std Book" font-size="10px" fill="#676A86" fill-opacity="0.7" opacity="1">2014</text><text text-anchor="middle" transform="translate(262.25358968118763,15)" font-family="Circular Std Book" font-size="10px" fill="#676A86" fill-opacity="0.7" opacity="1">2016</text><text text-anchor="middle" transform="translate(297.8340228766123,15)" font-family="Circular Std Book" font-size="10px" fill="#676A86" fill-opacity="0.7" opacity="1">2018</text><text text-anchor="middle" transform="translate(333.3657824288148,15)" font-family="Circular Std Book" font-size="10px" fill="#676A86" fill-opacity="0.7" opacity="1">2020</text><text text-anchor="middle" transform="translate(368.94621562423947,15)" font-family="Circular Std Book" font-size="10px" fill="#676A86" fill-opacity="0.7" opacity="1">2022</text></g><g class="mark-rule role-axis-domain" pointer-events="none"><line transform="translate(0,0)" x2="400" y2="0" stroke="#676A86" stroke-opacity="0.5" stroke-width="1" opacity="1"/></g></g><path class="foreground" aria-hidden="true" d="" pointer-events="none" display="none"/></g></g><g class="mark-group role-axis" role="graphics-symbol" aria-roledescription="axis" aria-label="Y-axis titled 'Vacancies (thousands)' for a linear scale with values from 0 to 1400"><g transform="translate(0.5,0.5)"><path class="background" aria-hidden="true" d="M0,0h0v0h0Z" pointer-events="none"/><g><g class="mark-text role-axis-label" pointer-events="none"><text text-anchor="end" transform="translate(-5,303)" font-family="Circular Std Book" font-size="10px" fill="#676A86" fill-opacity="0.7" opacity="1">0</text><text text-anchor="end" transform="translate(-5,260.14285714285717)" font-family="Circular Std Book" font-size="10px" fill="#676A86" fill-opacity="0.7" opacity="1">200</text><text text-anchor="end" transform="translate(-5,217.28571428571428)" font-family="Circular Std Book" font-size="10px" fill="#676A86" fill-opacity="0.7" opacity="1">400</text><text text-anchor="end" transform="translate(-5,174.42857142857142)" font-family="Circular Std Book" font-size="10px" fill="#676A86" fill-opacity="0.7" opacity="1">600</text><text text-anchor="end" transform="translate(-5,131.57142857142858)" font-family="Circular Std Book" font-size="10px" fill="#676A86" fill-opacity="0.7" opacity="1">800</text><text text-anchor="end" transform="translate(-5,88.71428571428571)" font-family="Circular Std Book" font-size="10px" fill="#676A86" fill-opacity="0.7" opacity="1">1000</text><text text-anchor="end" transform="translate(-5,45.85714285714287)" font-family="Circular Std Book" font-size="10px" fill="#676A86" fill-opacity="0.7" opacity="1">1200</text><text text-anchor="end" transform="translate(-5,3)" font-family="Circular Std Book" font-size="10px" fill="#676A86" fill-opacity="0.7" opacity="1">1400</text></g><g class="mark-rule role-axis-domain" pointer-events="none"><line transform="translate(0,300)" x2="0" y2="-300" stroke="#676A86" stroke-opacity="0.5" stroke-width="1" opacity="1"/></g><g class="mark-text role-axis-title" pointer-events="none"><text text-anchor="start" transform="translate(0,-10)" font-family="Circular Std Book" font-size="12px" font-weight="bold" fill="#676A86" fill-opacity="0.8" opacity="1">Vacancies (thousands)</text></g></g><path class="foreground" aria-hidden="true" d="" pointer-events="none" display="none"/></g></g><g class="mark-line role-mark layer_0_marks" role="graphics-object" aria-roledescription="line mark container"><path aria-label="x: Apr 01, 2001; y: 0" role="graphics-symbol" aria-roledescription="line mark" d="M0,300L382.234,300" stroke="#676A86" stroke-width="1" opacity="0.3"/></g><g class="mark-area role-mark layer_1_layer_0_marks" role="graphics-object" aria-roledescription="area mark container"><path aria-label="myr: Apr 01, 2001; Vacancies: 669" role="graphics-symbol" aria-roledescription="area mark" d="M0,156.643C0.487,154.707,0.973,152.772,1.46,152.357C1.963,151.929,2.466,151.714,2.969,151.714C3.456,151.714,3.943,156.014,4.429,156.429C4.932,156.857,5.435,157.071,5.938,157.071C6.441,157.071,6.944,142.929,7.447,142.929C7.934,142.929,8.421,156.452,8.907,160.929C9.41,165.555,9.913,166.278,10.416,169.929C10.903,173.462,11.39,179.869,11.876,182.357C12.379,184.929,12.882,186.214,13.385,186.214C13.888,186.214,14.391,165.643,14.894,165.643C15.348,165.643,15.803,168.664,16.257,169.714C16.76,170.877,17.263,172.071,17.766,172.071C18.253,172.071,18.739,168.726,19.226,167.143C19.729,165.507,20.232,162.429,20.735,162.429C21.222,162.429,21.708,170.786,22.195,170.786C22.698,170.786,23.201,165.75,23.704,163.5C24.207,161.25,24.71,157.286,25.213,157.286C25.7,157.286,26.186,158.24,26.673,160.071C27.176,161.964,27.679,164.575,28.182,168.643C28.669,172.58,29.156,180.954,29.642,183.857C30.145,186.857,30.648,188.357,31.151,188.357C31.654,188.357,32.157,175.76,32.66,175.286C33.114,174.857,33.569,174.643,34.023,174.643C34.526,174.643,35.029,179.357,35.532,179.357C36.018,179.357,36.505,170.357,36.992,170.357C37.495,170.357,37.998,174.423,38.501,175.714C38.988,176.963,39.474,178.071,39.961,178.071C40.464,178.071,40.967,169.286,41.47,166.071C41.973,162.857,42.476,158.786,42.979,158.786C43.466,158.786,43.952,159.143,44.439,159.857C44.942,160.595,45.445,163.019,45.948,166.286C46.435,169.447,46.921,175.393,47.408,178.929C47.911,182.582,48.414,187.714,48.917,187.714C49.42,187.714,49.923,168.394,50.426,166.714C50.896,165.143,51.367,164.357,51.837,164.357C52.34,164.357,52.843,169.286,53.346,169.286C53.833,169.286,54.32,160.735,54.807,159.214C55.309,157.643,55.812,157.005,56.315,156.857C56.802,156.714,57.289,156.781,57.776,156.643C58.279,156.5,58.782,156.429,59.284,156C59.787,155.571,60.29,152.271,60.793,150.643C61.28,149.067,61.767,146.357,62.254,146.357C62.757,146.357,63.26,154.544,63.762,158.571C64.249,162.469,64.736,168.069,65.223,170.143C65.726,172.286,66.229,173.357,66.732,173.357C67.235,173.357,67.737,165.214,68.24,165.214C68.695,165.214,69.149,166.929,69.603,166.929C70.106,166.929,70.609,165.321,71.112,163.929C71.599,162.581,72.086,158.786,72.572,158.786C73.075,158.786,73.578,161.986,74.081,162.429C74.568,162.857,75.055,162.933,75.541,163.071C76.044,163.214,76.547,163.286,77.05,163.286C77.553,163.286,78.056,158.357,78.559,158.357C79.046,158.357,79.533,160.685,80.019,162.429C80.522,164.23,81.025,166.445,81.528,169.071C82.015,171.614,82.502,175.213,82.989,177.857C83.492,180.589,83.994,185.143,84.497,185.143C85,185.143,85.503,173.357,86.006,173.357C86.461,173.357,86.915,174.214,87.369,174.214C87.872,174.214,88.375,172.3,88.878,171.857C89.365,171.429,89.852,171.643,90.338,171.214C90.841,170.771,91.344,167.694,91.847,166.286C92.334,164.923,92.821,162.857,93.307,162.857C93.81,162.857,94.313,168.214,94.816,168.214C95.319,168.214,95.822,163.961,96.325,160.929C96.812,157.994,97.299,150.429,97.785,150.429C98.288,150.429,98.791,165.648,99.294,170.786C99.781,175.758,100.268,181.071,100.754,181.071C101.257,181.071,101.76,179.929,102.263,177.643C102.766,175.357,103.269,170.036,103.772,166.929C104.226,164.122,104.681,159.643,105.135,159.643C105.638,159.643,106.141,160.389,106.644,160.714C107.131,161.029,107.617,161.571,108.104,161.571C108.607,161.571,109.11,154.118,109.613,151.714C110.1,149.388,110.587,147.214,111.073,147.214C111.576,147.214,112.079,153.643,112.582,153.643C113.085,153.643,113.588,147.744,114.091,145.286C114.578,142.907,115.064,139.071,115.551,139.071C116.054,139.071,116.557,148.42,117.06,153.214C117.547,157.854,118.034,165.836,118.52,167.357C119.023,168.929,119.526,169.714,120.029,169.714C120.532,169.714,121.035,152.658,121.538,150.214C122.009,147.929,122.479,146.786,122.95,146.786C123.453,146.786,123.956,159.214,124.459,159.214C124.945,159.214,125.432,156.857,125.919,156.857C126.422,156.857,126.925,157.465,127.428,158.571C127.914,159.642,128.401,161.807,128.888,163.286C129.391,164.814,129.894,167.571,130.397,167.571C130.9,167.571,131.403,161.143,131.906,161.143C132.392,161.143,132.879,163.837,133.366,168.643C133.869,173.609,134.372,185.175,134.875,190.929C135.361,196.497,135.848,199.638,136.335,202.929C136.838,206.329,137.341,210.857,137.844,210.857C138.347,210.857,138.85,208.177,139.353,206.143C139.807,204.306,140.261,199.5,140.716,199.5C141.218,199.5,141.721,202.795,142.224,204.429C142.711,206.009,143.198,209.143,143.685,209.143C144.188,209.143,144.691,207.102,145.193,205.714C145.68,204.372,146.167,201,146.654,201C147.157,201,147.66,203.143,148.163,203.571C148.666,204,149.168,204.214,149.671,204.214C150.158,204.214,150.645,196.5,151.132,196.5C151.635,196.5,152.138,199.516,152.641,201.857C153.127,204.123,153.614,208.417,154.101,210.214C154.604,212.071,155.107,213,155.61,213C156.113,213,156.616,202.332,157.119,201.857C157.573,201.429,158.027,201.643,158.481,201.214C158.984,200.74,159.487,200.429,159.99,198.857C160.477,197.336,160.964,190.071,161.45,190.071C161.953,190.071,162.456,194.242,162.959,195.643C163.446,196.999,163.933,197.243,164.42,198.429C164.923,199.654,165.425,202.929,165.928,202.929C166.431,202.929,166.934,198.237,167.437,196.286C167.924,194.397,168.411,191.357,168.898,191.357C169.401,191.357,169.903,191.571,170.406,192C170.893,192.415,171.38,205.652,171.867,205.929C172.37,206.214,172.873,206.357,173.376,206.357C173.878,206.357,174.381,196.929,174.884,196.929C175.339,196.929,175.793,201.643,176.247,201.643C176.75,201.643,177.253,200.505,177.756,200.357C178.243,200.214,178.73,200.286,179.216,200.143C179.719,199.995,180.222,198.857,180.725,198.857C181.212,198.857,181.699,199.714,182.185,199.714C182.688,199.714,183.191,199.25,183.694,198.429C184.197,197.607,184.7,196.171,185.203,194.786C185.69,193.445,186.177,190.286,186.663,190.286C187.166,190.286,187.669,199.493,188.172,202.286C188.659,204.988,189.146,207,189.633,207C190.135,207,190.638,207,191.141,207C191.644,207,192.147,205.856,192.65,205.071C193.121,204.338,193.591,203.912,194.062,202.5C194.565,200.991,195.068,196.071,195.571,196.071C196.057,196.071,196.544,197.786,197.031,197.786C197.534,197.786,198.037,197.214,198.54,196.071C199.027,194.965,199.513,190.5,200,190.5C200.503,190.5,201.006,196.714,201.509,196.714C202.012,196.714,202.515,193.386,203.018,190.714C203.505,188.129,203.991,181.071,204.478,181.071C204.981,181.071,205.484,191.308,205.987,194.571C206.474,197.73,206.96,198.977,207.447,200.571C207.95,202.219,208.453,204.214,208.956,204.214C209.459,204.214,209.962,196.803,210.465,194.571C210.919,192.556,211.373,192.24,211.828,190.929C212.331,189.476,212.834,186.51,213.337,186.214C213.823,185.929,214.31,186.071,214.797,185.786C215.3,185.49,215.803,179.571,216.306,179.571C216.792,179.571,217.279,179.929,217.766,180.643C218.269,181.381,218.772,188.786,219.275,188.786C219.778,188.786,220.281,170.733,220.784,170.143C221.27,169.571,221.757,169.286,222.244,169.286C222.747,169.286,223.25,176.493,223.753,178.714C224.239,180.863,224.726,181.136,225.213,182.571C225.716,184.055,226.219,187.5,226.722,187.5C227.225,187.5,227.728,177.186,228.231,172.286C228.685,167.86,229.139,159.429,229.594,159.429C230.097,159.429,230.599,160.286,231.102,160.286C231.589,160.286,232.076,159.929,232.563,159.214C233.066,158.476,233.569,150.214,234.072,150.214C234.558,150.214,235.045,153.429,235.532,153.429C236.035,153.429,236.538,152.607,237.041,151.286C237.544,149.964,238.047,148.436,238.55,145.5C239.036,142.658,239.523,134.143,240.01,134.143C240.513,134.143,241.016,145.458,241.519,149.786C242.005,153.973,242.492,159.857,242.979,159.857C243.482,159.857,243.985,159.071,244.488,157.5C244.991,155.929,245.494,147.714,245.997,145.5C246.451,143.5,246.905,142.5,247.359,142.5C247.862,142.5,248.365,147.429,248.868,147.429C249.355,147.429,249.842,142.353,250.329,140.786C250.832,139.166,251.334,138,251.837,138C252.324,138,252.811,138.071,253.298,138.214C253.801,138.362,254.304,139.5,254.807,139.5C255.309,139.5,255.812,138.643,256.315,136.929C256.802,135.27,257.289,128.357,257.776,128.357C258.279,128.357,258.782,134.481,259.284,138.643C259.771,142.67,260.258,152.786,260.745,152.786C261.248,152.786,261.751,152.286,262.254,151.286C262.757,150.286,263.26,145.862,263.762,143.786C264.233,141.843,264.703,139.071,265.174,139.071C265.677,139.071,266.18,142.071,266.683,142.071C267.17,142.071,267.656,138.325,268.143,137.357C268.646,136.357,269.149,135.857,269.652,135.857C270.139,135.857,270.625,139.286,271.112,139.286C271.615,139.286,272.118,134.929,272.621,133.929C273.124,132.929,273.627,133.429,274.13,132.429C274.617,131.461,275.103,121.714,275.59,121.714C276.093,121.714,276.596,133.129,277.099,138.643C277.586,143.978,278.073,154.286,278.559,154.286C279.062,154.286,279.565,153.357,280.068,151.5C280.571,149.643,281.074,133.071,281.577,133.071C282.031,133.071,282.486,135.214,282.94,135.214C283.443,135.214,283.946,125.143,284.449,125.143C284.936,125.143,285.422,131.295,285.909,131.571C286.412,131.857,286.915,132,287.418,132C287.905,132,288.391,125.495,288.878,125.357C289.381,125.214,289.884,125.286,290.387,125.143C290.89,125,291.393,124.786,291.896,124.071C292.383,123.38,292.869,108.857,293.356,108.857C293.859,108.857,294.362,115.347,294.865,121.286C295.352,127.033,295.838,143.571,296.325,143.571C296.828,143.571,297.331,138.714,297.834,136.071C298.337,133.429,298.84,127.714,299.343,127.714C299.797,127.714,300.251,127.714,300.706,127.714C301.209,127.714,301.712,126.452,302.215,124.5C302.701,122.611,303.188,116.357,303.675,116.357C304.178,116.357,304.681,116.714,305.184,117.429C305.67,118.12,306.157,120.643,306.644,120.643C307.147,120.643,307.65,113.714,308.153,112.714C308.656,111.714,309.159,112.214,309.662,111.214C310.148,110.247,310.635,101.143,311.122,101.143C311.625,101.143,312.128,110.204,312.631,115.929C313.118,121.469,313.604,134.786,314.091,134.786C314.594,134.786,315.097,128.071,315.6,127.071C316.103,126.071,316.606,126.571,317.109,125.571C317.563,124.668,318.017,122.156,318.472,120.429C318.975,118.516,319.478,114.643,319.981,114.643C320.467,114.643,320.954,121.68,321.441,122.786C321.944,123.929,322.447,124.5,322.95,124.5C323.436,124.5,323.923,116.786,324.41,116.786C324.913,116.786,325.416,126.214,325.919,126.214C326.422,126.214,326.925,121.165,327.428,119.143C327.914,117.186,328.401,114.214,328.888,114.214C329.391,114.214,329.894,127.205,330.397,131.143C330.883,134.954,331.37,137.786,331.857,137.786C332.36,137.786,332.863,137.643,333.366,137.357C333.869,137.071,334.372,129.643,334.875,129.643C335.345,129.643,335.816,132.429,336.286,138C336.789,143.956,337.292,216.538,337.795,222C338.282,227.286,338.769,229.929,339.255,229.929C339.758,229.929,340.261,228.643,340.764,226.071C341.251,223.583,341.738,200.813,342.224,197.357C342.727,193.786,343.23,194.214,343.733,192C344.236,189.786,344.739,188.897,345.242,184.071C345.729,179.401,346.216,163.929,346.702,163.929C347.205,163.929,347.708,178.5,348.211,178.5C348.698,178.5,349.185,178.357,349.671,178.071C350.174,177.776,350.677,176.357,351.18,176.357C351.683,176.357,352.186,178.071,352.689,178.071C353.144,178.071,353.598,164.872,354.052,158.357C354.555,151.145,355.058,146.143,355.561,136.929C356.048,128.011,356.534,112.424,357.021,104.357C357.524,96.021,358.027,93.471,358.53,88.286C359.017,83.268,359.504,79.65,359.99,73.714C360.493,67.58,360.996,57.5,361.499,51.857C362.002,46.214,362.505,44.788,363.008,39.857C363.495,35.086,363.982,22.929,364.468,22.929C364.971,22.929,365.474,36.127,365.977,40.286C366.464,44.31,366.951,47.786,367.437,47.786C367.94,47.786,368.443,39.321,368.946,36.214C369.449,33.107,369.952,30.968,370.455,29.143C370.909,27.494,371.364,27.929,371.818,25.5C372.321,22.811,372.824,8.786,373.327,8.786C373.814,8.786,374.3,15.419,374.787,18C375.29,20.667,375.793,24.429,376.296,24.429C376.783,24.429,377.269,24,377.756,24C378.259,24,378.762,28.036,379.265,30.429C379.768,32.821,380.271,38.357,380.774,38.357C381.261,38.357,381.747,32.25,382.234,26.143L382.234,300C381.747,300,381.261,300,380.774,300C380.271,300,379.768,300,379.265,300C378.762,300,378.259,300,377.756,300C377.269,300,376.783,300,376.296,300C375.793,300,375.29,300,374.787,300C374.3,300,373.814,300,373.327,300C372.824,300,372.321,300,371.818,300C371.364,300,370.909,300,370.455,300C369.952,300,369.449,300,368.946,300C368.443,300,367.94,300,367.437,300C366.951,300,366.464,300,365.977,300C365.474,300,364.971,300,364.468,300C363.982,300,363.495,300,363.008,300C362.505,300,362.002,300,361.499,300C360.996,300,360.493,300,359.99,300C359.504,300,359.017,300,358.53,300C358.027,300,357.524,300,357.021,300C356.534,300,356.048,300,355.561,300C355.058,300,354.555,300,354.052,300C353.598,300,353.144,300,352.689,300C352.186,300,351.683,300,351.18,300C350.677,300,350.174,300,349.671,300C349.185,300,348.698,300,348.211,300C347.708,300,347.205,300,346.702,300C346.216,300,345.729,300,345.242,300C344.739,300,344.236,300,343.733,300C343.23,300,342.727,300,342.224,300C341.738,300,341.251,300,340.764,300C340.261,300,339.758,300,339.255,300C338.769,300,338.282,300,337.795,300C337.292,300,336.789,300,336.286,300C335.816,300,335.345,300,334.875,300C334.372,300,333.869,300,333.366,300C332.863,300,332.36,300,331.857,300C331.37,300,330.883,300,330.397,300C329.894,300,329.391,300,328.888,300C328.401,300,327.914,300,327.428,300C326.925,300,326.422,300,325.919,300C325.416,300,324.913,300,324.41,300C323.923,300,323.436,300,322.95,300C322.447,300,321.944,300,321.441,300C320.954,300,320.467,300,319.981,300C319.478,300,318.975,300,318.472,300C318.017,300,317.563,300,317.109,300C316.606,300,316.103,300,315.6,300C315.097,300,314.594,300,314.091,300C313.604,300,313.118,300,312.631,300C312.128,300,311.625,300,311.122,300C310.635,300,310.148,300,309.662,300C309.159,300,308.656,300,308.153,300C307.65,300,307.147,300,306.644,300C306.157,300,305.67,300,305.184,300C304.681,300,304.178,300,303.675,300C303.188,300,302.701,300,302.215,300C301.712,300,301.209,300,300.706,300C300.251,300,299.797,300,299.343,300C298.84,300,298.337,300,297.834,300C297.331,300,296.828,300,296.325,300C295.838,300,295.352,300,294.865,300C294.362,300,293.859,300,293.356,300C292.869,300,292.383,300,291.896,300C291.393,300,290.89,300,290.387,300C289.884,300,289.381,300,288.878,300C288.391,300,287.905,300,287.418,300C286.915,300,286.412,300,285.909,300C285.422,300,284.936,300,284.449,300C283.946,300,283.443,300,282.94,300C282.486,300,282.031,300,281.577,300C281.074,300,280.571,300,280.068,300C279.565,300,279.062,300,278.559,300C278.073,300,277.586,300,277.099,300C276.596,300,276.093,300,275.59,300C275.103,300,274.617,300,274.13,300C273.627,300,273.124,300,272.621,300C272.118,300,271.615,300,271.112,300C270.625,300,270.139,300,269.652,300C269.149,300,268.646,300,268.143,300C267.656,300,267.17,300,266.683,300C266.18,300,265.677,300,265.174,300C264.703,300,264.233,300,263.762,300C263.26,300,262.757,300,262.254,300C261.751,300,261.248,300,260.745,300C260.258,300,259.771,300,259.284,300C258.782,300,258.279,300,257.776,300C257.289,300,256.802,300,256.315,300C255.812,300,255.309,300,254.807,300C254.304,300,253.801,300,253.298,300C252.811,300,252.324,300,251.837,300C251.334,300,250.832,300,250.329,300C249.842,300,249.355,300,248.868,300C248.365,300,247.862,300,247.359,300C246.905,300,246.451,300,245.997,300C245.494,300,244.991,300,244.488,300C243.985,300,243.482,300,242.979,300C242.492,300,242.005,300,241.519,300C241.016,300,240.513,300,240.01,300C239.523,300,239.036,300,238.55,300C238.047,300,237.544,300,237.041,300C236.538,300,236.035,300,235.532,300C235.045,300,234.558,300,234.072,300C233.569,300,233.066,300,232.563,300C232.076,300,231.589,300,231.102,300C230.599,300,230.097,300,229.594,300C229.139,300,228.685,300,228.231,300C227.728,300,227.225,300,226.722,300C226.219,300,225.716,300,225.213,300C224.726,300,224.239,300,223.753,300C223.25,300,222.747,300,222.244,300C221.757,300,221.27,300,220.784,300C220.281,300,219.778,300,219.275,300C218.772,300,218.269,300,217.766,300C217.279,300,216.792,300,216.306,300C215.803,300,215.3,300,214.797,300C214.31,300,213.823,300,213.337,300C212.834,300,212.331,300,211.828,300C211.373,300,210.919,300,210.465,300C209.962,300,209.459,300,208.956,300C208.453,300,207.95,300,207.447,300C206.96,300,206.474,300,205.987,300C205.484,300,204.981,300,204.478,300C203.991,300,203.505,300,203.018,300C202.515,300,202.012,300,201.509,300C201.006,300,200.503,300,200,300C199.513,300,199.027,300,198.54,300C198.037,300,197.534,300,197.031,300C196.544,300,196.057,300,195.571,300C195.068,300,194.565,300,194.062,300C193.591,300,193.121,300,192.65,300C192.147,300,191.644,300,191.141,300C190.638,300,190.135,300,189.633,300C189.146,300,188.659,300,188.172,300C187.669,300,187.166,300,186.663,300C186.177,300,185.69,300,185.203,300C184.7,300,184.197,300,183.694,300C183.191,300,182.688,300,182.185,300C181.699,300,181.212,300,180.725,300C180.222,300,179.719,300,179.216,300C178.73,300,178.243,300,177.756,300C177.253,300,176.75,300,176.247,300C175.793,300,175.339,300,174.884,300C174.381,300,173.878,300,173.376,300C172.873,300,172.37,300,171.867,300C171.38,300,170.893,300,170.406,300C169.903,300,169.401,300,168.898,300C168.411,300,167.924,300,167.437,300C166.934,300,166.431,300,165.928,300C165.425,300,164.923,300,164.42,300C163.933,300,163.446,300,162.959,300C162.456,300,161.953,300,161.45,300C160.964,300,160.477,300,159.99,300C159.487,300,158.984,300,158.481,300C158.027,300,157.573,300,157.119,300C156.616,300,156.113,300,155.61,300C155.107,300,154.604,300,154.101,300C153.614,300,153.127,300,152.641,300C152.138,300,151.635,300,151.132,300C150.645,300,150.158,300,149.671,300C149.168,300,148.666,300,148.163,300C147.66,300,147.157,300,146.654,300C146.167,300,145.68,300,145.193,300C144.691,300,144.188,300,143.685,300C143.198,300,142.711,300,142.224,300C141.721,300,141.218,300,140.716,300C140.261,300,139.807,300,139.353,300C138.85,300,138.347,300,137.844,300C137.341,300,136.838,300,136.335,300C135.848,300,135.361,300,134.875,300C134.372,300,133.869,300,133.366,300C132.879,300,132.392,300,131.906,300C131.403,300,130.9,300,130.397,300C129.894,300,129.391,300,128.888,300C128.401,300,127.914,300,127.428,300C126.925,300,126.422,300,125.919,300C125.432,300,124.945,300,124.459,300C123.956,300,123.453,300,122.95,300C122.479,300,122.009,300,121.538,300C121.035,300,120.532,300,120.029,300C119.526,300,119.023,300,118.52,300C118.034,300,117.547,300,117.06,300C116.557,300,116.054,300,115.551,300C115.064,300,114.578,300,114.091,300C113.588,300,113.085,300,112.582,300C112.079,300,111.576,300,111.073,300C110.587,300,110.1,300,109.613,300C109.11,300,108.607,300,108.104,300C107.617,300,107.131,300,106.644,300C106.141,300,105.638,300,105.135,300C104.681,300,104.226,300,103.772,300C103.269,300,102.766,300,102.263,300C101.76,300,101.257,300,100.754,300C100.268,300,99.781,300,99.294,300C98.791,300,98.288,300,97.785,300C97.299,300,96.812,300,96.325,300C95.822,300,95.319,300,94.816,300C94.313,300,93.81,300,93.307,300C92.821,300,92.334,300,91.847,300C91.344,300,90.841,300,90.338,300C89.852,300,89.365,300,88.878,300C88.375,300,87.872,300,87.369,300C86.915,300,86.461,300,86.006,300C85.503,300,85,300,84.497,300C83.994,300,83.492,300,82.989,300C82.502,300,82.015,300,81.528,300C81.025,300,80.522,300,80.019,300C79.533,300,79.046,300,78.559,300C78.056,300,77.553,300,77.05,300C76.547,300,76.044,300,75.541,300C75.055,300,74.568,300,74.081,300C73.578,300,73.075,300,72.572,300C72.086,300,71.599,300,71.112,300C70.609,300,70.106,300,69.603,300C69.149,300,68.695,300,68.24,300C67.737,300,67.235,300,66.732,300C66.229,300,65.726,300,65.223,300C64.736,300,64.249,300,63.762,300C63.26,300,62.757,300,62.254,300C61.767,300,61.28,300,60.793,300C60.29,300,59.787,300,59.284,300C58.782,300,58.279,300,57.776,300C57.289,300,56.802,300,56.315,300C55.812,300,55.309,300,54.807,300C54.32,300,53.833,300,53.346,300C52.843,300,52.34,300,51.837,300C51.367,300,50.896,300,50.426,300C49.923,300,49.42,300,48.917,300C48.414,300,47.911,300,47.408,300C46.921,300,46.435,300,45.948,300C45.445,300,44.942,300,44.439,300C43.952,300,43.466,300,42.979,300C42.476,300,41.973,300,41.47,300C40.967,300,40.464,300,39.961,300C39.474,300,38.988,300,38.501,300C37.998,300,37.495,300,36.992,300C36.505,300,36.018,300,35.532,300C35.029,300,34.526,300,34.023,300C33.569,300,33.114,300,32.66,300C32.157,300,31.654,300,31.151,300C30.648,300,30.145,300,29.642,300C29.156,300,28.669,300,28.182,300C27.679,300,27.176,300,26.673,300C26.186,300,25.7,300,25.213,300C24.71,300,24.207,300,23.704,300C23.201,300,22.698,300,22.195,300C21.708,300,21.222,300,20.735,300C20.232,300,19.729,300,19.226,300C18.739,300,18.253,300,17.766,300C17.263,300,16.76,300,16.257,300C15.803,300,15.348,300,14.894,300C14.391,300,13.888,300,13.385,300C12.882,300,12.379,300,11.876,300C11.39,300,10.903,300,10.416,300C9.913,300,9.41,300,8.907,300C8.421,300,7.934,300,7.447,300C6.944,300,6.441,300,5.938,300C5.435,300,4.932,300,4.429,300C3.943,300,3.456,300,2.969,300C2.466,300,1.963,300,1.46,300C0.973,300,0.487,300,0,300Z" fill="url(#gradient_0)" opacity="1"/></g><g class="mark-line role-mark layer_1_layer_1_marks" role="graphics-object" aria-roledescription="line mark container"><path aria-label="myr: Apr 01, 2001; Vacancies: 669" role="graphics-symbol" aria-roledescription="line mark" d="M0,156.643C0.487,154.707,0.973,152.772,1.46,152.357C1.963,151.929,2.466,151.714,2.969,151.714C3.456,151.714,3.943,156.014,4.429,156.429C4.932,156.857,5.435,157.071,5.938,157.071C6.441,157.071,6.944,142.929,7.447,142.929C7.934,142.929,8.421,156.452,8.907,160.929C9.41,165.555,9.913,166.278,10.416,169.929C10.903,173.462,11.39,179.869,11.876,182.357C12.379,184.929,12.882,186.214,13.385,186.214C13.888,186.214,14.391,165.643,14.894,165.643C15.348,165.643,15.803,168.664,16.257,169.714C16.76,170.877,17.263,172.071,17.766,172.071C18.253,172.071,18.739,168.726,19.226,167.143C19.729,165.507,20.232,162.429,20.735,162.429C21.222,162.429,21.708,170.786,22.195,170.786C22.698,170.786,23.201,165.75,23.704,163.5C24.207,161.25,24.71,157.286,25.213,157.286C25.7,157.286,26.186,158.24,26.673,160.071C27.176,161.964,27.679,164.575,28.182,168.643C28.669,172.58,29.156,180.954,29.642,183.857C30.145,186.857,30.648,188.357,31.151,188.357C31.654,188.357,32.157,175.76,32.66,175.286C33.114,174.857,33.569,174.643,34.023,174.643C34.526,174.643,35.029,179.357,35.532,179.357C36.018,179.357,36.505,170.357,36.992,170.357C37.495,170.357,37.998,174.423,38.501,175.714C38.988,176.963,39.474,178.071,39.961,178.071C40.464,178.071,40.967,169.286,41.47,166.071C41.973,162.857,42.476,158.786,42.979,158.786C43.466,158.786,43.952,159.143,44.439,159.857C44.942,160.595,45.445,163.019,45.948,166.286C46.435,169.447,46.921,175.393,47.408,178.929C47.911,182.582,48.414,187.714,48.917,187.714C49.42,187.714,49.923,168.394,50.426,166.714C50.896,165.143,51.367,164.357,51.837,164.357C52.34,164.357,52.843,169.286,53.346,169.286C53.833,169.286,54.32,160.735,54.807,159.214C55.309,157.643,55.812,157.005,56.315,156.857C56.802,156.714,57.289,156.781,57.776,156.643C58.279,156.5,58.782,156.429,59.284,156C59.787,155.571,60.29,152.271,60.793,150.643C61.28,149.067,61.767,146.357,62.254,146.357C62.757,146.357,63.26,154.544,63.762,158.571C64.249,162.469,64.736,168.069,65.223,170.143C65.726,172.286,66.229,173.357,66.732,173.357C67.235,173.357,67.737,165.214,68.24,165.214C68.695,165.214,69.149,166.929,69.603,166.929C70.106,166.929,70.609,165.321,71.112,163.929C71.599,162.581,72.086,158.786,72.572,158.786C73.075,158.786,73.578,161.986,74.081,162.429C74.568,162.857,75.055,162.933,75.541,163.071C76.044,163.214,76.547,163.286,77.05,163.286C77.553,163.286,78.056,158.357,78.559,158.357C79.046,158.357,79.533,160.685,80.019,162.429C80.522,164.23,81.025,166.445,81.528,169.071C82.015,171.614,82.502,175.213,82.989,177.857C83.492,180.589,83.994,185.143,84.497,185.143C85,185.143,85.503,173.357,86.006,173.357C86.461,173.357,86.915,174.214,87.369,174.214C87.872,174.214,88.375,172.3,88.878,171.857C89.365,171.429,89.852,171.643,90.338,171.214C90.841,170.771,91.344,167.694,91.847,166.286C92.334,164.923,92.821,162.857,93.307,162.857C93.81,162.857,94.313,168.214,94.816,168.214C95.319,168.214,95.822,163.961,96.325,160.929C96.812,157.994,97.299,150.429,97.785,150.429C98.288,150.429,98.791,165.648,99.294,170.786C99.781,175.758,100.268,181.071,100.754,181.071C101.257,181.071,101.76,179.929,102.263,177.643C102.766,175.357,103.269,170.036,103.772,166.929C104.226,164.122,104.681,159.643,105.135,159.643C105.638,159.643,106.141,160.389,106.644,160.714C107.131,161.029,107.617,161.571,108.104,161.571C108.607,161.571,109.11,154.118,109.613,151.714C110.1,149.388,110.587,147.214,111.073,147.214C111.576,147.214,112.079,153.643,112.582,153.643C113.085,153.643,113.588,147.744,114.091,145.286C114.578,142.907,115.064,139.071,115.551,139.071C116.054,139.071,116.557,148.42,117.06,153.214C117.547,157.854,118.034,165.836,118.52,167.357C119.023,168.929,119.526,169.714,120.029,169.714C120.532,169.714,121.035,152.658,121.538,150.214C122.009,147.929,122.479,146.786,122.95,146.786C123.453,146.786,123.956,159.214,124.459,159.214C124.945,159.214,125.432,156.857,125.919,156.857C126.422,156.857,126.925,157.465,127.428,158.571C127.914,159.642,128.401,161.807,128.888,163.286C129.391,164.814,129.894,167.571,130.397,167.571C130.9,167.571,131.403,161.143,131.906,161.143C132.392,161.143,132.879,163.837,133.366,168.643C133.869,173.609,134.372,185.175,134.875,190.929C135.361,196.497,135.848,199.638,136.335,202.929C136.838,206.329,137.341,210.857,137.844,210.857C138.347,210.857,138.85,208.177,139.353,206.143C139.807,204.306,140.261,199.5,140.716,199.5C141.218,199.5,141.721,202.795,142.224,204.429C142.711,206.009,143.198,209.143,143.685,209.143C144.188,209.143,144.691,207.102,145.193,205.714C145.68,204.372,146.167,201,146.654,201C147.157,201,147.66,203.143,148.163,203.571C148.666,204,149.168,204.214,149.671,204.214C150.158,204.214,150.645,196.5,151.132,196.5C151.635,196.5,152.138,199.516,152.641,201.857C153.127,204.123,153.614,208.417,154.101,210.214C154.604,212.071,155.107,213,155.61,213C156.113,213,156.616,202.332,157.119,201.857C157.573,201.429,158.027,201.643,158.481,201.214C158.984,200.74,159.487,200.429,159.99,198.857C160.477,197.336,160.964,190.071,161.45,190.071C161.953,190.071,162.456,194.242,162.959,195.643C163.446,196.999,163.933,197.243,164.42,198.429C164.923,199.654,165.425,202.929,165.928,202.929C166.431,202.929,166.934,198.237,167.437,196.286C167.924,194.397,168.411,191.357,168.898,191.357C169.401,191.357,169.903,191.571,170.406,192C170.893,192.415,171.38,205.652,171.867,205.929C172.37,206.214,172.873,206.357,173.376,206.357C173.878,206.357,174.381,196.929,174.884,196.929C175.339,196.929,175.793,201.643,176.247,201.643C176.75,201.643,177.253,200.505,177.756,200.357C178.243,200.214,178.73,200.286,179.216,200.143C179.719,199.995,180.222,198.857,180.725,198.857C181.212,198.857,181.699,199.714,182.185,199.714C182.688,199.714,183.191,199.25,183.694,198.429C184.197,197.607,184.7,196.171,185.203,194.786C185.69,193.445,186.177,190.286,186.663,190.286C187.166,190.286,187.669,199.493,188.172,202.286C188.659,204.988,189.146,207,189.633,207C190.135,207,190.638,207,191.141,207C191.644,207,192.147,205.856,192.65,205.071C193.121,204.338,193.591,203.912,194.062,202.5C194.565,200.991,195.068,196.071,195.571,196.071C196.057,196.071,196.544,197.786,197.031,197.786C197.534,197.786,198.037,197.214,198.54,196.071C199.027,194.965,199.513,190.5,200,190.5C200.503,190.5,201.006,196.714,201.509,196.714C202.012,196.714,202.515,193.386,203.018,190.714C203.505,188.129,203.991,181.071,204.478,181.071C204.981,181.071,205.484,191.308,205.987,194.571C206.474,197.73,206.96,198.977,207.447,200.571C207.95,202.219,208.453,204.214,208.956,204.214C209.459,204.214,209.962,196.803,210.465,194.571C210.919,192.556,211.373,192.24,211.828,190.929C212.331,189.476,212.834,186.51,213.337,186.214C213.823,185.929,214.31,186.071,214.797,185.786C215.3,185.49,215.803,179.571,216.306,179.571C216.792,179.571,217.279,179.929,217.766,180.643C218.269,181.381,218.772,188.786,219.275,188.786C219.778,188.786,220.281,170.733,220.784,170.143C221.27,169.571,221.757,169.286,222.244,169.286C222.747,169.286,223.25,176.493,223.753,178.714C224.239,180.863,224.726,181.136,225.213,182.571C225.716,184.055,226.219,187.5,226.722,187.5C227.225,187.5,227.728,177.186,228.231,172.286C228.685,167.86,229.139,159.429,229.594,159.429C230.097,159.429,230.599,160.286,231.102,160.286C231.589,160.286,232.076,159.929,232.563,159.214C233.066,158.476,233.569,150.214,234.072,150.214C234.558,150.214,235.045,153.429,235.532,153.429C236.035,153.429,236.538,152.607,237.041,151.286C237.544,149.964,238.047,148.436,238.55,145.5C239.036,142.658,239.523,134.143,240.01,134.143C240.513,134.143,241.016,145.458,241.519,149.786C242.005,153.973,242.492,159.857,242.979,159.857C243.482,159.857,243.985,159.071,244.488,157.5C244.991,155.929,245.494,147.714,245.997,145.5C246.451,143.5,246.905,142.5,247.359,142.5C247.862,142.5,248.365,147.429,248.868,147.429C249.355,147.429,249.842,142.353,250.329,140.786C250.832,139.166,251.334,138,251.837,138C252.324,138,252.811,138.071,253.298,138.214C253.801,138.362,254.304,139.5,254.807,139.5C255.309,139.5,255.812,138.643,256.315,136.929C256.802,135.27,257.289,128.357,257.776,128.357C258.279,128.357,258.782,134.481,259.284,138.643C259.771,142.67,260.258,152.786,260.745,152.786C261.248,152.786,261.751,152.286,262.254,151.286C262.757,150.286,263.26,145.862,263.762,143.786C264.233,141.843,264.703,139.071,265.174,139.071C265.677,139.071,266.18,142.071,266.683,142.071C267.17,142.071,267.656,138.325,268.143,137.357C268.646,136.357,269.149,135.857,269.652,135.857C270.139,135.857,270.625,139.286,271.112,139.286C271.615,139.286,272.118,134.929,272.621,133.929C273.124,132.929,273.627,133.429,274.13,132.429C274.617,131.461,275.103,121.714,275.59,121.714C276.093,121.714,276.596,133.129,277.099,138.643C277.586,143.978,278.073,154.286,278.559,154.286C279.062,154.286,279.565,153.357,280.068,151.5C280.571,149.643,281.074,133.071,281.577,133.071C282.031,133.071,282.486,135.214,282.94,135.214C283.443,135.214,283.946,125.143,284.449,125.143C284.936,125.143,285.422,131.295,285.909,131.571C286.412,131.857,286.915,132,287.418,132C287.905,132,288.391,125.495,288.878,125.357C289.381,125.214,289.884,125.286,290.387,125.143C290.89,125,291.393,124.786,291.896,124.071C292.383,123.38,292.869,108.857,293.356,108.857C293.859,108.857,294.362,115.347,294.865,121.286C295.352,127.033,295.838,143.571,296.325,143.571C296.828,143.571,297.331,138.714,297.834,136.071C298.337,133.429,298.84,127.714,299.343,127.714C299.797,127.714,300.251,127.714,300.706,127.714C301.209,127.714,301.712,126.452,302.215,124.5C302.701,122.611,303.188,116.357,303.675,116.357C304.178,116.357,304.681,116.714,305.184,117.429C305.67,118.12,306.157,120.643,306.644,120.643C307.147,120.643,307.65,113.714,308.153,112.714C308.656,111.714,309.159,112.214,309.662,111.214C310.148,110.247,310.635,101.143,311.122,101.143C311.625,101.143,312.128,110.204,312.631,115.929C313.118,121.469,313.604,134.786,314.091,134.786C314.594,134.786,315.097,128.071,315.6,127.071C316.103,126.071,316.606,126.571,317.109,125.571C317.563,124.668,318.017,122.156,318.472,120.429C318.975,118.516,319.478,114.643,319.981,114.643C320.467,114.643,320.954,121.68,321.441,122.786C321.944,123.929,322.447,124.5,322.95,124.5C323.436,124.5,323.923,116.786,324.41,116.786C324.913,116.786,325.416,126.214,325.919,126.214C326.422,126.214,326.925,121.165,327.428,119.143C327.914,117.186,328.401,114.214,328.888,114.214C329.391,114.214,329.894,127.205,330.397,131.143C330.883,134.954,331.37,137.786,331.857,137.786C332.36,137.786,332.863,137.643,333.366,137.357C333.869,137.071,334.372,129.643,334.875,129.643C335.345,129.643,335.816,132.429,336.286,138C336.789,143.956,337.292,216.538,337.795,222C338.282,227.286,338.769,229.929,339.255,229.929C339.758,229.929,340.261,228.643,340.764,226.071C341.251,223.583,341.738,200.813,342.224,197.357C342.727,193.786,343.23,194.214,343.733,192C344.236,189.786,344.739,188.897,345.242,184.071C345.729,179.401,346.216,163.929,346.702,163.929C347.205,163.929,347.708,178.5,348.211,178.5C348.698,178.5,349.185,178.357,349.671,178.071C350.174,177.776,350.677,176.357,351.18,176.357C351.683,176.357,352.186,178.071,352.689,178.071C353.144,178.071,353.598,164.872,354.052,158.357C354.555,151.145,355.058,146.143,355.561,136.929C356.048,128.011,356.534,112.424,357.021,104.357C357.524,96.021,358.027,93.471,358.53,88.286C359.017,83.268,359.504,79.65,359.99,73.714C360.493,67.58,360.996,57.5,361.499,51.857C362.002,46.214,362.505,44.788,363.008,39.857C363.495,35.086,363.982,22.929,364.468,22.929C364.971,22.929,365.474,36.127,365.977,40.286C366.464,44.31,366.951,47.786,367.437,47.786C367.94,47.786,368.443,39.321,368.946,36.214C369.449,33.107,369.952,30.968,370.455,29.143C370.909,27.494,371.364,27.929,371.818,25.5C372.321,22.811,372.824,8.786,373.327,8.786C373.814,8.786,374.3,15.419,374.787,18C375.29,20.667,375.793,24.429,376.296,24.429C376.783,24.429,377.269,24,377.756,24C378.259,24,378.762,28.036,379.265,30.429C379.768,32.821,380.271,38.357,380.774,38.357C381.261,38.357,381.747,32.25,382.234,26.143" stroke="#36B7B4" stroke-width="2"/></g><g class="mark-area role-mark layer_2_marks" role="graphics-object" aria-roledescription="area mark container"><path aria-label="x: Nov 01, 2007; y: 0; y2: 1400" role="graphics-symbol" aria-roledescription="area mark" d="M117.06,300L186.663,300L186.663,0L117.06,0Z" fill="#676A86" opacity="0.1"/></g><g class="mark-area role-mark layer_3_marks" role="graphics-object" aria-roledescription="area mark container"><path aria-label="x: Mar 01, 2020; y: 0; y2: 1400" role="graphics-symbol" aria-roledescription="area mark" d="M336.286,300L382.234,300L382.234,0L336.286,0Z" fill="#676A86" opacity="0.1"/></g><g class="mark-area role-mark layer_4_marks" role="graphics-object" aria-roledescription="area mark container"><path aria-label="x: Oct 01, 2022; y: 0; y2: 1400" role="graphics-symbol" aria-roledescription="area mark" d="M382.234,300L400,300L400,0L382.234,0Z" fill="url(#gradient_1)" opacity="0.1"/></g><g class="mark-text role-mark layer_5_marks" role="graphics-object" aria-roledescription="text mark container"><text aria-label="x: Oct 01, 2007; y: 0; t: Global Financial Crisis" role="graphics-symbol" aria-roledescription="text mark" text-anchor="start" transform="translate(120.55122900949135,293)" font-family="Circular Std Book" font-size="11px" fill="#676A86" opacity="0.6">Global Financial Crisis</text></g><g class="mark-text role-mark layer_6_marks" role="graphics-object" aria-roledescription="text mark container"><text aria-label="x: Mar 01, 2020; y: 0; t: COVID-19 →" role="graphics-symbol" aria-roledescription="text mark" text-anchor="start" transform="translate(341.28620102214654,293)" font-family="Circular Std Book" font-size="11px" fill="#676A86" opacity="0.8">COVID-19 →</text></g><g class="mark-image role-mark layer_7_marks" role="graphics-object" aria-roledescription="image mark container"><image aria-label="x: Oct 01, 2023; y: 1400; img: https://raw.githubusercontent.com/EconomicsObservatory/ECOvisualisations/main/guidelines/logos/eco-icon-dark.png" role="graphics-symbol" aria-roledescription="image mark" xlink:href="" transform="translate(365,-33)" width="40" height="40" preserveAspectRatio="xMidYMid" opacity="0.5"/></g></g><path class="foreground" aria-hidden="true" d="" display="none"/></g></g></g><defs><linearGradient id="gradient_0" x1="1" x2="1" y1="1" y2="0"><stop offset="0.2" stop-color="#ffffff00"/><stop offset="0.8" stop-color="#36B7B4"/></linearGradient><linearGradient id="gradient_1" x1="1" x2="0" y1="1" y2="1"><stop offset="0" stop-color="#ffffff00"/><stop offset="1" stop-color="#676A86"/></linearGradient></defs></svg>