<svg xmlns="http://www.w3.org/2000/svg" xmlns:xlink="http://www.w3.org/1999/xlink" version="1.1" class="marks" width="506" height="360" viewBox="0 0 506 360"><rect width="506" height="360" fill="white"/><g fill="none" stroke-miterlimit="10" transform="translate(26,38)"><g class="mark-group role-frame root" role="graphics-object" aria-roledescription="group mark container"><g transform="translate(0,0)"><path class="background" aria-hidden="true" d="M0,0h400v300h-400Z"/><g><g class="mark-group role-axis" aria-hidden="true"><g transform="translate(0.5,0.5)"><path class="background" aria-hidden="true" d="M0,0h0v0h0Z" pointer-events="none"/><g><g class="mark-rule role-axis-grid" pointer-events="none"><line transform="translate(0,300)" x2="400" y2="0" stroke="#676A86" stroke-opacity="0.5" stroke-width="1" stroke-dasharray="1,5" opacity="1"/><line transform="translate(0,270)" x2="400" y2="0" stroke="#676A86" stroke-opacity="0.5" stroke-width="1" stroke-dasharray="1,5" opacity="1"/><line transform="translate(0,240)" x2="400" y2="0" stroke="#676A86" stroke-opacity="0.5" stroke-width="1" stroke-dasharray="1,5" opacity="1"/><line transform="translate(0,210)" x2="400" y2="0" stroke="#676A86" stroke-opacity="0.5" stroke-width="1" stroke-dasharray="1,5" opacity="1"/><line transform="translate(0,180)" x2="400" y2="0" stroke="#676A86" stroke-opacity="0.5" stroke-width="1" stroke-dasharray="1,5" opacity="1"/><line transform="translate(0,150)" x2="400" y2="0" stroke="#676A86" stroke-opacity="0.5" stroke-width="1" stroke-dasharray="1,5" opacity="1"/><line transform="translate(0,120)" x2="400" y2="0" stroke="#676A86" stroke-opacity="0.5" stroke-width="1" stroke-dasharray="1,5" opacity="1"/><line transform="translate(0,90)" x2="400" y2="0" stroke="#676A86" stroke-opacity="0.5" stroke-width="1" stroke-dasharray="1,5" opacity="1"/><line transform="translate(0,60)" x2="400" y2="0" stroke="#676A86" stroke-opacity="0.5" stroke-width="1" stroke-dasharray="1,5" opacity="1"/><line transform="translate(0,30)" x2="400" y2="0" stroke="#676A86" stroke-opacity="0.5" stroke-width="1" stroke-dasharray="1,5" opacity="1"/><line transform="translate(0,0)" x2="400" y2="0" stroke="#676A86" stroke-opacity="0.5" stroke-width="1" stroke-dasharray="1,5" opacity="1"/></g></g><path class="foreground" aria-hidden="true" d="" pointer-events="none" display="none"/></g></g><g class="mark-group role-axis" role="graphics-symbol" aria-roledescription="axis" aria-label="X-axis for a time scale with values from Thursday, 01 January 2004, 12:00:00 AM to Friday, 01 January 2021, 12:00:00 AM"><g transform="translate(0.5,300.5)"><path class="background" aria-hidden="true" d="M0,0h0v0h0Z" pointer-events="none"/><g><g class="mark-rule role-axis-tick" pointer-events="none"><line transform="translate(0,0)" x2="0" y2="5" stroke="#676A86" stroke-opacity="0.5" stroke-width="1" opacity="1"/><line transform="translate(47,0)" x2="0" y2="5" stroke="#676A86" stroke-opacity="0.5" stroke-width="1" opacity="1"/><line transform="translate(94,0)" x2="0" y2="5" stroke="#676A86" stroke-opacity="0.5" stroke-width="1" opacity="1"/><line transform="translate(141,0)" x2="0" y2="5" stroke="#676A86" stroke-opacity="0.5" stroke-width="1" opacity="1"/><line transform="translate(188,0)" x2="0" y2="5" stroke="#676A86" stroke-opacity="0.5" stroke-width="1" opacity="1"/><line transform="translate(235,0)" x2="0" y2="5" stroke="#676A86" stroke-opacity="0.5" stroke-width="1" opacity="1"/><line transform="translate(282,0)" x2="0" y2="5" stroke="#676A86" stroke-opacity="0.5" stroke-width="1" opacity="1"/><line transform="translate(329,0)" x2="0" y2="5" stroke="#676A86" stroke-opacity="0.5" stroke-width="1" opacity="1"/><line transform="translate(376,0)" x2="0" y2="5" stroke="#676A86" stroke-opacity="0.5" stroke-width="1" opacity="1"/></g><g class="mark-text role-axis-label" pointer-events="none"><text text-anchor="start" transform="translate(0,15)" font-family="Circular Std Book" font-size="10px" fill="#676A86" fill-opacity="0.7" opacity="1">2004</text><text text-anchor="middle" transform="translate(47.085346215781,15)" font-family="Circular Std Book" font-size="10px" fill="#676A86" fill-opacity="0.7" opacity="1">2006</text><text text-anchor="middle" transform="translate(94.10628019323671,15)" font-family="Circular Std Book" font-size="10px" fill="#676A86" fill-opacity="0.7" opacity="1">2008</text><text text-anchor="middle" transform="translate(141.19162640901772,15)" font-family="Circular Std Book" font-size="10px" fill="#676A86" fill-opacity="0.7" opacity="1">2010</text><text text-anchor="middle" transform="translate(188.21256038647343,15)" font-family="Circular Std Book" font-size="10px" fill="#676A86" fill-opacity="0.7" opacity="1">2012</text><text text-anchor="middle" transform="translate(235.29790660225441,15)" font-family="Circular Std Book" font-size="10px" fill="#676A86" fill-opacity="0.7" opacity="1">2014</text><text text-anchor="middle" transform="translate(282.3188405797101,15)" font-family="Circular Std Book" font-size="10px" fill="#676A86" fill-opacity="0.7" opacity="1">2016</text><text text-anchor="middle" transform="translate(329.40418679549117,15)" font-family="Circular Std Book" font-size="10px" fill="#676A86" fill-opacity="0.7" opacity="1">2018</text><text text-anchor="middle" transform="translate(376.42512077294685,15)" font-family="Circular Std Book" font-size="10px" fill="#676A86" fill-opacity="0.7" opacity="1">2020</text></g><g class="mark-rule role-axis-domain" pointer-events="none"><line transform="translate(0,0)" x2="400" y2="0" stroke="#676A86" stroke-opacity="0.5" stroke-width="1" opacity="1"/></g></g><path class="foreground" aria-hidden="true" d="" pointer-events="none" display="none"/></g></g><g class="mark-group role-axis" role="graphics-symbol" aria-roledescription="axis" aria-label="Y-axis titled 'Employment rates by graduation cohort (%)' for a linear scale with values from 0 to 100"><g transform="translate(0.5,0.5)"><path class="background" aria-hidden="true" d="M0,0h0v0h0Z" pointer-events="none"/><g><g class="mark-text role-axis-label" pointer-events="none"><text text-anchor="end" transform="translate(-5,303)" font-family="Circular Std Book" font-size="10px" fill="#676A86" fill-opacity="0.7" opacity="1">0</text><text text-anchor="end" transform="translate(-5,273)" font-family="Circular Std Book" font-size="10px" fill="#676A86" fill-opacity="0.7" opacity="1">10</text><text text-anchor="end" transform="translate(-5,243)" font-family="Circular Std Book" font-size="10px" fill="#676A86" fill-opacity="0.7" opacity="1">20</text><text text-anchor="end" transform="translate(-5,213)" font-family="Circular Std Book" font-size="10px" fill="#676A86" fill-opacity="0.7" opacity="1">30</text><text text-anchor="end" transform="translate(-5,183)" font-family="Circular Std Book" font-size="10px" fill="#676A86" fill-opacity="0.7" opacity="1">40</text><text text-anchor="end" transform="translate(-5,153)" font-family="Circular Std Book" font-size="10px" fill="#676A86" fill-opacity="0.7" opacity="1">50</text><text text-anchor="end" transform="translate(-5,123)" font-family="Circular Std Book" font-size="10px" fill="#676A86" fill-opacity="0.7" opacity="1">60</text><text text-anchor="end" transform="translate(-5,93.00000000000001)" font-family="Circular Std Book" font-size="10px" fill="#676A86" fill-opacity="0.7" opacity="1">70</text><text text-anchor="end" transform="translate(-5,62.999999999999986)" font-family="Circular Std Book" font-size="10px" fill="#676A86" fill-opacity="0.7" opacity="1">80</text><text text-anchor="end" transform="translate(-5,32.99999999999999)" font-family="Circular Std Book" font-size="10px" fill="#676A86" fill-opacity="0.7" opacity="1">90</text><text text-anchor="end" transform="translate(-5,3)" font-family="Circular Std Book" font-size="10px" fill="#676A86" fill-opacity="0.7" opacity="1">100</text></g><g class="mark-rule role-axis-domain" pointer-events="none"><line transform="translate(0,300)" x2="0" y2="-300" stroke="#676A86" stroke-opacity="0.5" stroke-width="1" opacity="1"/></g><g class="mark-text role-axis-title" pointer-events="none"><text text-anchor="start" transform="translate(0,-10)" font-family="Circular Std Book" font-size="12px" font-weight="bold" fill="#676A86" fill-opacity="0.8" opacity="1">Employment rates by graduation cohort (%)</text></g></g><path class="foreground" aria-hidden="true" d="" pointer-events="none" display="none"/></g></g><g class="mark-line role-mark layer_0_marks" role="graphics-object" aria-roledescription="line mark container"><path aria-label="dt: Jan 01, 1970; y: 0" role="graphics-symbol" aria-roledescription="line mark" stroke="#676A86" stroke-width="1" opacity="0.3"/></g><g class="mark-area role-mark layer_1_layer_0_marks" role="graphics-object" aria-roledescription="area mark container"><path aria-label="dt: Jan 01, 2004; 1-2 years: 5.49719929695" role="graphics-symbol" aria-roledescription="area mark" d="M0,283.508C7.858,279.803,15.717,276.098,23.575,276.098C31.412,276.098,39.249,276.107,47.085,276.125C54.922,276.142,62.759,295.402,70.596,295.402C78.433,295.402,86.269,290.077,94.106,287.499C101.965,284.913,109.823,279.913,117.681,279.913C125.518,279.913,133.355,288.486,141.192,288.486C149.028,288.486,156.865,276.801,164.702,273.383C172.539,269.966,180.376,267.979,188.213,267.979C196.071,267.979,203.929,280.709,211.787,280.709C219.624,280.709,227.461,272.051,235.298,272.051C243.135,272.051,250.972,281.209,258.808,281.209C266.645,281.209,274.482,278.58,282.319,278.4C290.177,278.22,298.035,278.31,305.894,278.13C313.731,277.95,321.567,277.355,329.404,276.568C337.241,275.781,345.078,274.265,352.915,273.409C360.751,272.552,368.588,271.992,376.425,271.431L376.425,300C368.588,300,360.751,300,352.915,300C345.078,300,337.241,300,329.404,300C321.567,300,313.731,300,305.894,300C298.035,300,290.177,300,282.319,300C274.482,300,266.645,300,258.808,300C250.972,300,243.135,300,235.298,300C227.461,300,219.624,300,211.787,300C203.929,300,196.071,300,188.213,300C180.376,300,172.539,300,164.702,300C156.865,300,149.028,300,141.192,300C133.355,300,125.518,300,117.681,300C109.823,300,101.965,300,94.106,300C86.269,300,78.433,300,70.596,300C62.759,300,54.922,300,47.085,300C39.249,300,31.412,300,23.575,300C15.717,300,7.858,300,0,300Z" fill="url(#gradient_0)" opacity="1"/></g><g class="mark-line role-mark layer_1_layer_1_marks" role="graphics-object" aria-roledescription="line mark container"><path aria-label="dt: Jan 01, 2004; 1-2 years: 5.49719929695" role="graphics-symbol" aria-roledescription="line mark" d="M0,283.508C7.858,279.803,15.717,276.098,23.575,276.098C31.412,276.098,39.249,276.107,47.085,276.125C54.922,276.142,62.759,295.402,70.596,295.402C78.433,295.402,86.269,290.077,94.106,287.499C101.965,284.913,109.823,279.913,117.681,279.913C125.518,279.913,133.355,288.486,141.192,288.486C149.028,288.486,156.865,276.801,164.702,273.383C172.539,269.966,180.376,267.979,188.213,267.979C196.071,267.979,203.929,280.709,211.787,280.709C219.624,280.709,227.461,272.051,235.298,272.051C243.135,272.051,250.972,281.209,258.808,281.209C266.645,281.209,274.482,278.58,282.319,278.4C290.177,278.22,298.035,278.31,305.894,278.13C313.731,277.95,321.567,277.355,329.404,276.568C337.241,275.781,345.078,274.265,352.915,273.409C360.751,272.552,368.588,271.992,376.425,271.431" stroke="#F4134D" stroke-width="2"/></g><g class="mark-area role-mark layer_2_layer_0_marks" role="graphics-object" aria-roledescription="area mark container"><path aria-label="dt: Jan 01, 2004; 9-12 months: 3.25877070427" role="graphics-symbol" aria-roledescription="area mark" d="M0,290.224C7.858,291.303,15.717,292.383,23.575,292.383C31.412,292.383,39.249,292.154,47.085,291.695C54.922,291.237,62.759,287.159,70.596,287.159C78.433,287.159,86.269,300,94.106,300C101.965,300,109.823,294.354,117.681,291.742C125.518,289.136,133.355,286.761,141.192,284.343C149.028,281.924,156.865,277.231,164.702,277.231C172.539,277.231,180.376,297.848,188.213,297.848C196.071,297.848,203.929,278.002,211.787,278.002C219.624,278.002,227.461,298.288,235.298,298.529C243.135,298.77,250.972,298.891,258.808,298.891C266.645,298.891,274.482,295.598,282.319,293.737C290.177,291.871,298.035,287.71,305.894,287.71C313.731,287.71,321.567,288.873,329.404,289.89C337.241,290.908,345.078,293.817,352.915,293.817C360.751,293.817,368.588,269.365,376.425,269.365C384.283,269.365,392.142,273.922,400,278.479L400,300C392.142,300,384.283,300,376.425,300C368.588,300,360.751,300,352.915,300C345.078,300,337.241,300,329.404,300C321.567,300,313.731,300,305.894,300C298.035,300,290.177,300,282.319,300C274.482,300,266.645,300,258.808,300C250.972,300,243.135,300,235.298,300C227.461,300,219.624,300,211.787,300C203.929,300,196.071,300,188.213,300C180.376,300,172.539,300,164.702,300C156.865,300,149.028,300,141.192,300C133.355,300,125.518,300,117.681,300C109.823,300,101.965,300,94.106,300C86.269,300,78.433,300,70.596,300C62.759,300,54.922,300,47.085,300C39.249,300,31.412,300,23.575,300C15.717,300,7.858,300,0,300Z" fill="url(#gradient_1)" opacity="1"/></g><g class="mark-line role-mark layer_2_layer_1_marks" role="graphics-object" aria-roledescription="line mark container"><path aria-label="dt: Jan 01, 2004; 9-12 months: 3.25877070427" role="graphics-symbol" aria-roledescription="line mark" d="M0,290.224C7.858,291.303,15.717,292.383,23.575,292.383C31.412,292.383,39.249,292.154,47.085,291.695C54.922,291.237,62.759,287.159,70.596,287.159C78.433,287.159,86.269,300,94.106,300C101.965,300,109.823,294.354,117.681,291.742C125.518,289.136,133.355,286.761,141.192,284.343C149.028,281.924,156.865,277.231,164.702,277.231C172.539,277.231,180.376,297.848,188.213,297.848C196.071,297.848,203.929,278.002,211.787,278.002C219.624,278.002,227.461,298.288,235.298,298.529C243.135,298.77,250.972,298.891,258.808,298.891C266.645,298.891,274.482,295.598,282.319,293.737C290.177,291.871,298.035,287.71,305.894,287.71C313.731,287.71,321.567,288.873,329.404,289.89C337.241,290.908,345.078,293.817,352.915,293.817C360.751,293.817,368.588,269.365,376.425,269.365C384.283,269.365,392.142,273.922,400,278.479" stroke="#179FDB" stroke-width="2"/></g><g class="mark-area role-mark layer_3_layer_0_marks" role="graphics-object" aria-roledescription="area mark container"><path aria-label="dt: Jan 01, 2004; 3-6 months: 68.1269288063" role="graphics-symbol" aria-roledescription="area mark" d="M0,95.619C7.858,99.458,15.717,103.296,23.575,103.761C31.412,104.224,39.249,104.456,47.085,104.456C54.922,104.456,62.759,99.077,70.596,99.077C78.433,99.077,86.269,100.036,94.106,101.955C101.965,103.879,109.823,118.996,117.681,119.868C125.518,120.738,133.355,120.303,141.192,121.173C149.028,122.043,156.865,132.005,164.702,132.005C172.539,132.005,180.376,106.203,188.213,106.203C196.071,106.203,203.929,111.001,211.787,111.001C219.624,111.001,227.461,97.89,235.298,93.117C243.135,88.344,250.972,82.362,258.808,82.362C266.645,82.362,274.482,97.823,282.319,97.823C290.177,97.823,298.035,96.729,305.894,96.729C313.731,96.729,321.567,103.903,329.404,103.903C337.241,103.903,345.078,97.291,352.915,97.291C360.751,97.291,368.588,125.692,376.425,125.692C384.283,125.692,392.142,112.24,400,98.788L400,300C392.142,300,384.283,300,376.425,300C368.588,300,360.751,300,352.915,300C345.078,300,337.241,300,329.404,300C321.567,300,313.731,300,305.894,300C298.035,300,290.177,300,282.319,300C274.482,300,266.645,300,258.808,300C250.972,300,243.135,300,235.298,300C227.461,300,219.624,300,211.787,300C203.929,300,196.071,300,188.213,300C180.376,300,172.539,300,164.702,300C156.865,300,149.028,300,141.192,300C133.355,300,125.518,300,117.681,300C109.823,300,101.965,300,94.106,300C86.269,300,78.433,300,70.596,300C62.759,300,54.922,300,47.085,300C39.249,300,31.412,300,23.575,300C15.717,300,7.858,300,0,300Z" fill="url(#gradient_2)" opacity="1"/></g><g class="mark-line role-mark layer_3_layer_1_marks" role="graphics-object" aria-roledescription="line mark container"><path aria-label="dt: Jan 01, 2004; 3-6 months: 68.1269288063" role="graphics-symbol" aria-roledescription="line mark" d="M0,95.619C7.858,99.458,15.717,103.296,23.575,103.761C31.412,104.224,39.249,104.456,47.085,104.456C54.922,104.456,62.759,99.077,70.596,99.077C78.433,99.077,86.269,100.036,94.106,101.955C101.965,103.879,109.823,118.996,117.681,119.868C125.518,120.738,133.355,120.303,141.192,121.173C149.028,122.043,156.865,132.005,164.702,132.005C172.539,132.005,180.376,106.203,188.213,106.203C196.071,106.203,203.929,111.001,211.787,111.001C219.624,111.001,227.461,97.89,235.298,93.117C243.135,88.344,250.972,82.362,258.808,82.362C266.645,82.362,274.482,97.823,282.319,97.823C290.177,97.823,298.035,96.729,305.894,96.729C313.731,96.729,321.567,103.903,329.404,103.903C337.241,103.903,345.078,97.291,352.915,97.291C360.751,97.291,368.588,125.692,376.425,125.692C384.283,125.692,392.142,112.24,400,98.788" stroke="#36B7B4" stroke-width="2"/></g><g class="mark-line role-mark layer_4_marks" role="graphics-object" aria-roledescription="line mark container"><path aria-label="dt: Jan 01, 2004; y: 76.8828988075" role="graphics-symbol" aria-roledescription="line mark" d="M0,69.351C7.858,70.785,15.717,72.219,23.575,72.241C31.412,72.264,39.249,72.253,47.085,72.275C54.922,72.298,62.759,78.19,70.596,81.638C78.433,85.085,86.269,92.958,94.106,92.958C101.965,92.958,109.823,91.523,117.681,91.523C125.518,91.523,133.355,94.002,141.192,94.002C149.028,94.002,156.865,86.281,164.702,82.619C172.539,78.957,180.376,73.571,188.213,72.03C196.071,70.484,203.929,71.104,211.787,69.712C219.624,68.323,227.461,64.521,235.298,63.697C243.135,62.874,250.972,62.462,258.808,62.462C266.645,62.462,274.482,69.96,282.319,69.96C290.177,69.96,298.035,62.569,305.894,62.569C313.731,62.569,321.567,70.361,329.404,70.361C337.241,70.361,345.078,64.517,352.915,64.517C360.751,64.517,368.588,65.174,376.425,66.488C384.283,67.805,392.142,72.536,400,77.267" stroke="#243B5A" stroke-width="2" stroke-dasharray="5,5" opacity="0.7"/></g><g class="mark-text role-mark layer_5_marks" role="graphics-object" aria-roledescription="text mark container"><text aria-label="dt: Jan 01, 2020; 1-2 years: 9.52308773994; t: 1-2 years" role="graphics-symbol" aria-roledescription="text mark" text-anchor="start" transform="translate(406.42512077294685,265.4307367801666)" font-family="Circular Std Book" font-size="12px" fill="#F4134D">1-2 years</text></g><g class="mark-text role-mark layer_6_marks" role="graphics-object" aria-roledescription="text mark container"><text aria-label="dt: Jan 01, 2021; 9-12 months: 7.17354416847; t: 9-12 months" role="graphics-symbol" aria-roledescription="text mark" text-anchor="start" transform="translate(405,282.47936749458313)" font-family="Circular Std Book" font-size="12px" fill="#179FDB">9-12 months</text></g><g class="mark-text role-mark layer_7_marks" role="graphics-object" aria-roledescription="text mark container"><text aria-label="dt: Jan 01, 2021; 3-6 months: 67.0707166195; t: 3-6 months" role="graphics-symbol" aria-roledescription="text mark" text-anchor="start" transform="translate(405,102.78785014152527)" font-family="Circular Std Book" font-size="12px" fill="#36B7B4">3-6 months</text></g><g class="mark-text role-mark layer_8_marks" role="graphics-object" aria-roledescription="text mark container"><text aria-label="dt: Jan 01, 2021; y: 74.244260788; t: Cumulative" role="graphics-symbol" aria-roledescription="text mark" text-anchor="start" transform="translate(405,81.2672176361084)" font-family="Circular Std Book" font-size="12px" fill="#243B5A">Cumulative</text></g><g class="mark-image role-mark layer_9_marks" role="graphics-object" aria-roledescription="image mark container"><image aria-label="x: Jan 01, 2021; y: 100; img: https://raw.githubusercontent.com/EconomicsObservatory/ECOvisualisations/main/guidelines/logos/eco-icon-dark.png" role="graphics-symbol" aria-roledescription="image mark" xlink:href="" transform="translate(435,-33)" width="40" height="40" preserveAspectRatio="xMidYMid" opacity="0.5"/></g></g><path class="foreground" aria-hidden="true" d="" display="none"/></g></g></g><defs><linearGradient id="gradient_0" x1="1" x2="1" y1="1" y2="0"><stop offset="0.2" stop-color="#ffffff00"/><stop offset="0.8" stop-color="#F4134D"/></linearGradient><linearGradient id="gradient_1" x1="1" x2="1" y1="1" y2="0"><stop offset="0.2" stop-color="#ffffff00"/><stop offset="0.8" stop-color="#179FDB"/></linearGradient><linearGradient id="gradient_2" x1="1" x2="1" y1="1" y2="0"><stop offset="0.2" stop-color="#ffffff00"/><stop offset="0.8" stop-color="#36B7B4"/></linearGradient></defs></svg>