<svg xmlns="http://www.w3.org/2000/svg" xmlns:xlink="http://www.w3.org/1999/xlink" version="1.1" class="marks" width="511" height="360" viewBox="0 0 511 360"><rect width="511" height="360" fill="white"/><g fill="none" stroke-miterlimit="10" transform="translate(26,38)"><g class="mark-group role-frame root" role="graphics-object" aria-roledescription="group mark container"><g transform="translate(0,0)"><path class="background" aria-hidden="true" d="M0,0h400v300h-400Z"/><g><g class="mark-group role-axis" aria-hidden="true"><g transform="translate(0.5,0.5)"><path class="background" aria-hidden="true" d="M0,0h0v0h0Z" pointer-events="none"/><g><g class="mark-rule role-axis-grid" pointer-events="none"><line transform="translate(0,300)" x2="400" y2="0" stroke="#676A86" stroke-opacity="0.5" stroke-width="1" stroke-dasharray="1,5" opacity="1"/><line transform="translate(0,270)" x2="400" y2="0" stroke="#676A86" stroke-opacity="0.5" stroke-width="1" stroke-dasharray="1,5" opacity="1"/><line transform="translate(0,240)" x2="400" y2="0" stroke="#676A86" stroke-opacity="0.5" stroke-width="1" stroke-dasharray="1,5" opacity="1"/><line transform="translate(0,210)" x2="400" y2="0" stroke="#676A86" stroke-opacity="0.5" stroke-width="1" stroke-dasharray="1,5" opacity="1"/><line transform="translate(0,180)" x2="400" y2="0" stroke="#676A86" stroke-opacity="0.5" stroke-width="1" stroke-dasharray="1,5" opacity="1"/><line transform="translate(0,150)" x2="400" y2="0" stroke="#676A86" stroke-opacity="0.5" stroke-width="1" stroke-dasharray="1,5" opacity="1"/><line transform="translate(0,120)" x2="400" y2="0" stroke="#676A86" stroke-opacity="0.5" stroke-width="1" stroke-dasharray="1,5" opacity="1"/><line transform="translate(0,90)" x2="400" y2="0" stroke="#676A86" stroke-opacity="0.5" stroke-width="1" stroke-dasharray="1,5" opacity="1"/><line transform="translate(0,60)" x2="400" y2="0" stroke="#676A86" stroke-opacity="0.5" stroke-width="1" stroke-dasharray="1,5" opacity="1"/><line transform="translate(0,30)" x2="400" y2="0" stroke="#676A86" stroke-opacity="0.5" stroke-width="1" stroke-dasharray="1,5" opacity="1"/><line transform="translate(0,0)" x2="400" y2="0" stroke="#676A86" stroke-opacity="0.5" stroke-width="1" stroke-dasharray="1,5" opacity="1"/></g></g><path class="foreground" aria-hidden="true" d="" pointer-events="none" display="none"/></g></g><g class="mark-group role-axis" role="graphics-symbol" aria-roledescription="axis" aria-label="X-axis for a time scale with values from Thursday, 01 January 2004, 12:00:00 AM to Sunday, 01 January 2023, 12:00:00 AM"><g transform="translate(0.5,300.5)"><path class="background" aria-hidden="true" d="M0,0h0v0h0Z" pointer-events="none"/><g><g class="mark-rule role-axis-tick" pointer-events="none"><line transform="translate(0,0)" x2="0" y2="5" stroke="#676A86" stroke-opacity="0.5" stroke-width="1" opacity="1"/><line transform="translate(42,0)" x2="0" y2="5" stroke="#676A86" stroke-opacity="0.5" stroke-width="1" opacity="1"/><line transform="translate(84,0)" x2="0" y2="5" stroke="#676A86" stroke-opacity="0.5" stroke-width="1" opacity="1"/><line transform="translate(126,0)" x2="0" y2="5" stroke="#676A86" stroke-opacity="0.5" stroke-width="1" opacity="1"/><line transform="translate(168,0)" x2="0" y2="5" stroke="#676A86" stroke-opacity="0.5" stroke-width="1" opacity="1"/><line transform="translate(211,0)" x2="0" y2="5" stroke="#676A86" stroke-opacity="0.5" stroke-width="1" opacity="1"/><line transform="translate(253,0)" x2="0" y2="5" stroke="#676A86" stroke-opacity="0.5" stroke-width="1" opacity="1"/><line transform="translate(295,0)" x2="0" y2="5" stroke="#676A86" stroke-opacity="0.5" stroke-width="1" opacity="1"/><line transform="translate(337,0)" x2="0" y2="5" stroke="#676A86" stroke-opacity="0.5" stroke-width="1" opacity="1"/><line transform="translate(379,0)" x2="0" y2="5" stroke="#676A86" stroke-opacity="0.5" stroke-width="1" opacity="1"/></g><g class="mark-text role-axis-label" pointer-events="none"><text text-anchor="start" transform="translate(0,15)" font-family="Circular Std Book" font-size="10px" fill="#676A86" fill-opacity="0.7" opacity="1">2004</text><text text-anchor="middle" transform="translate(42.13256484149856,15)" font-family="Circular Std Book" font-size="10px" fill="#676A86" fill-opacity="0.7" opacity="1">2006</text><text text-anchor="middle" transform="translate(84.20749279538904,15)" font-family="Circular Std Book" font-size="10px" fill="#676A86" fill-opacity="0.7" opacity="1">2008</text><text text-anchor="middle" transform="translate(126.34005763688761,15)" font-family="Circular Std Book" font-size="10px" fill="#676A86" fill-opacity="0.7" opacity="1">2010</text><text text-anchor="middle" transform="translate(168.4149855907781,15)" font-family="Circular Std Book" font-size="10px" fill="#676A86" fill-opacity="0.7" opacity="1">2012</text><text text-anchor="middle" transform="translate(210.54755043227664,15)" font-family="Circular Std Book" font-size="10px" fill="#676A86" fill-opacity="0.7" opacity="1">2014</text><text text-anchor="middle" transform="translate(252.62247838616716,15)" font-family="Circular Std Book" font-size="10px" fill="#676A86" fill-opacity="0.7" opacity="1">2016</text><text text-anchor="middle" transform="translate(294.75504322766574,15)" font-family="Circular Std Book" font-size="10px" fill="#676A86" fill-opacity="0.7" opacity="1">2018</text><text text-anchor="middle" transform="translate(336.8299711815562,15)" font-family="Circular Std Book" font-size="10px" fill="#676A86" fill-opacity="0.7" opacity="1">2020</text><text text-anchor="middle" transform="translate(378.9625360230548,15)" font-family="Circular Std Book" font-size="10px" fill="#676A86" fill-opacity="0.7" opacity="1">2022</text></g><g class="mark-rule role-axis-domain" pointer-events="none"><line transform="translate(0,0)" x2="400" y2="0" stroke="#676A86" stroke-opacity="0.5" stroke-width="1" opacity="1"/></g></g><path class="foreground" aria-hidden="true" d="" pointer-events="none" display="none"/></g></g><g class="mark-group role-axis" role="graphics-symbol" aria-roledescription="axis" aria-label="Y-axis titled 'Job quality measures by graduation cohort (%)' for a linear scale with values from 0 to 100"><g transform="translate(0.5,0.5)"><path class="background" aria-hidden="true" d="M0,0h0v0h0Z" pointer-events="none"/><g><g class="mark-text role-axis-label" pointer-events="none"><text text-anchor="end" transform="translate(-5,303)" font-family="Circular Std Book" font-size="10px" fill="#676A86" fill-opacity="0.7" opacity="1">0</text><text text-anchor="end" transform="translate(-5,273)" font-family="Circular Std Book" font-size="10px" fill="#676A86" fill-opacity="0.7" opacity="1">10</text><text text-anchor="end" transform="translate(-5,243)" font-family="Circular Std Book" font-size="10px" fill="#676A86" fill-opacity="0.7" opacity="1">20</text><text text-anchor="end" transform="translate(-5,213)" font-family="Circular Std Book" font-size="10px" fill="#676A86" fill-opacity="0.7" opacity="1">30</text><text text-anchor="end" transform="translate(-5,183)" font-family="Circular Std Book" font-size="10px" fill="#676A86" fill-opacity="0.7" opacity="1">40</text><text text-anchor="end" transform="translate(-5,153)" font-family="Circular Std Book" font-size="10px" fill="#676A86" fill-opacity="0.7" opacity="1">50</text><text text-anchor="end" transform="translate(-5,123)" font-family="Circular Std Book" font-size="10px" fill="#676A86" fill-opacity="0.7" opacity="1">60</text><text text-anchor="end" transform="translate(-5,93.00000000000001)" font-family="Circular Std Book" font-size="10px" fill="#676A86" fill-opacity="0.7" opacity="1">70</text><text text-anchor="end" transform="translate(-5,62.999999999999986)" font-family="Circular Std Book" font-size="10px" fill="#676A86" fill-opacity="0.7" opacity="1">80</text><text text-anchor="end" transform="translate(-5,32.99999999999999)" font-family="Circular Std Book" font-size="10px" fill="#676A86" fill-opacity="0.7" opacity="1">90</text><text text-anchor="end" transform="translate(-5,3)" font-family="Circular Std Book" font-size="10px" fill="#676A86" fill-opacity="0.7" opacity="1">100</text></g><g class="mark-rule role-axis-domain" pointer-events="none"><line transform="translate(0,300)" x2="0" y2="-300" stroke="#676A86" stroke-opacity="0.5" stroke-width="1" opacity="1"/></g><g class="mark-text role-axis-title" pointer-events="none"><text text-anchor="start" transform="translate(0,-10)" font-family="Circular Std Book" font-size="12px" font-weight="bold" fill="#676A86" fill-opacity="0.8" opacity="1">Job quality measures by graduation cohort (%)</text></g></g><path class="foreground" aria-hidden="true" d="" pointer-events="none" display="none"/></g></g><g class="mark-line role-mark layer_0_marks" role="graphics-object" aria-roledescription="line mark container"><path aria-label="dt: Jan 01, 1970; y: 0" role="graphics-symbol" aria-roledescription="line mark" stroke="#676A86" stroke-width="1" opacity="0.3"/></g><g class="mark-area role-mark layer_1_marks" role="graphics-object" aria-roledescription="area mark container"><path aria-label="x: Nov 01, 2007; y: 0; y2: 100" role="graphics-symbol" aria-roledescription="area mark" d="M80.692,300L163.112,300L163.112,0L80.692,0Z" fill="#676A86" opacity="0.1"/></g><g class="mark-area role-mark layer_2_marks" role="graphics-object" aria-roledescription="area mark container"><path aria-label="x: Mar 01, 2020; y: 0; y2: 100" role="graphics-symbol" aria-roledescription="area mark" d="M340.288,300L357.925,300L357.925,0L340.288,0Z" fill="#676A86" opacity="0.1"/></g><g class="mark-area role-mark layer_3_marks" role="graphics-object" aria-roledescription="area mark container"><path aria-label="x: Jan 01, 2021; y: 0; y2: 100" role="graphics-symbol" aria-roledescription="area mark" d="M357.925,300L400,300L400,0L357.925,0Z" fill="url(#gradient_0)" opacity="0.1"/></g><g class="mark-text role-mark layer_4_marks" role="graphics-object" aria-roledescription="text mark container"><text aria-label="x: Oct 01, 2007; y: 0; t: Global Financial Crisis" role="graphics-symbol" aria-roledescription="text mark" text-anchor="start" transform="translate(83.90489913544668,293)" font-family="Circular Std Book" font-size="11px" fill="#676A86" opacity="0.6">Global Financial Crisis</text></g><g class="mark-text role-mark layer_5_marks" role="graphics-object" aria-roledescription="text mark container"><text aria-label="x: Mar 01, 2020; y: 0; t: COVID-19 →" role="graphics-symbol" aria-roledescription="text mark" text-anchor="start" transform="translate(345.2881844380404,293)" font-family="Circular Std Book" font-size="11px" fill="#676A86" opacity="0.8">COVID-19 →</text></g><g class="mark-line role-mark layer_6_marks" role="graphics-object" aria-roledescription="line mark container"><path aria-label="dt: Jan 01, 2004; % Large firm: 22.0485448837" role="graphics-symbol" aria-roledescription="line mark" d="M0,233.854C7.032,233.862,14.063,233.87,21.095,233.901C28.108,233.932,35.12,234.768,42.133,235.012C49.145,235.256,56.158,235.378,63.17,235.378C70.183,235.378,77.195,229.331,84.207,229.331C91.239,229.331,98.271,234.675,105.303,236.565C112.315,238.449,119.328,240.661,126.34,240.661C133.353,240.661,140.365,240.553,147.378,240.336C154.39,240.119,161.402,237.947,168.415,236.666C175.447,235.381,182.478,234.296,189.51,232.639C196.523,230.987,203.535,226.742,210.548,226.742C217.56,226.742,224.573,230.587,231.585,231.991C238.598,233.394,245.61,235.162,252.622,235.162C259.654,235.162,266.686,232.712,273.718,231.902C280.73,231.094,287.743,230.302,294.755,230.302C301.768,230.302,308.78,230.765,315.793,230.765C322.805,230.765,329.817,222.14,336.83,222.14C343.862,222.14,350.893,222.838,357.925,223.537" stroke="#F4134D" stroke-width="2"/></g><g class="mark-line role-mark layer_7_marks" role="graphics-object" aria-roledescription="line mark container"><path aria-label="dt: Jan 01, 2004; % Full-time, permanent: 64.2299175262" role="graphics-symbol" aria-roledescription="line mark" d="M0,107.31C7.032,108.562,14.063,109.815,21.095,110.784C28.108,111.751,35.12,113.123,42.133,113.123C49.145,113.123,56.158,106.766,63.17,106.766C70.183,106.766,77.195,119.699,84.207,125.902C91.239,132.122,98.271,144.034,105.303,144.034C112.315,144.034,119.328,143.348,126.34,142.222C133.353,141.097,140.365,138.593,147.378,137.28C154.39,135.966,161.402,135.973,168.415,134.34C175.447,132.702,182.478,129.854,189.51,127.453C196.523,125.059,203.535,122.134,210.548,119.954C217.56,117.775,224.573,114.377,231.585,114.377C238.598,114.377,245.61,118.624,252.622,119.85C259.654,121.08,266.686,121.246,273.718,121.734C280.73,122.221,287.743,122.779,294.755,122.779C301.768,122.779,308.78,120.597,315.793,120.597C322.805,120.597,329.817,125.761,336.83,125.761C343.862,125.761,350.893,124.114,357.925,122.468" stroke="#179FDB" stroke-width="2"/></g><g class="mark-line role-mark layer_8_marks" role="graphics-object" aria-roledescription="line mark container"><path aria-label="dt: Jan 01, 2004; % Different job: 76.5992164612" role="graphics-symbol" aria-roledescription="line mark" d="M0,70.202C7.032,74.335,14.063,78.467,21.095,78.467C28.108,78.467,35.12,75.466,42.133,74.782C49.145,74.098,56.158,73.757,63.17,73.757C70.183,73.757,77.195,94.441,84.207,98.302C91.239,102.174,98.271,104.11,105.303,104.11C112.315,104.11,119.328,90.769,126.34,90.769C133.353,90.769,140.365,91.339,147.378,91.339C154.39,91.339,161.402,91.261,168.415,91.105C175.447,90.948,182.478,88.898,189.51,87.873C196.523,86.85,203.535,85.208,210.548,84.96C217.56,84.711,224.573,84.587,231.585,84.587C238.598,84.587,245.61,89.004,252.622,89.418C259.654,89.833,266.686,89.737,273.718,90.041C280.73,90.344,287.743,90.439,294.755,91.236C301.768,92.033,308.78,99.709,315.793,103.82C322.805,107.931,329.817,115.903,336.83,115.903C343.862,115.903,350.893,103.202,357.925,90.502" stroke="#36B7B4" stroke-width="2"/></g><g class="mark-line role-mark layer_9_marks" role="graphics-object" aria-roledescription="line mark container"><path aria-label="dt: Jan 01, 2004; % On-the-job training: 40.4941469431" role="graphics-symbol" aria-roledescription="line mark" d="M0,178.518C7.032,179.781,14.063,181.045,21.095,181.926C28.108,182.805,35.12,183.801,42.133,183.801C49.145,183.801,56.158,180.143,63.17,180.143C70.183,180.143,77.195,189.953,84.207,191.298C91.239,192.647,98.271,192.835,105.303,193.322C112.315,193.807,119.328,194.219,126.34,194.219C133.353,194.219,140.365,192.3,147.378,191.384C154.39,190.468,161.402,188.723,168.415,188.723C175.447,188.723,182.478,190.192,189.51,190.192C196.523,190.192,203.535,183.887,210.548,183.887C217.56,183.887,224.573,189.287,231.585,191.65C238.598,194.012,245.61,195.629,252.622,198.063C259.654,200.504,266.686,206.282,273.718,206.282C280.73,206.282,287.743,205.904,294.755,205.229C301.768,204.553,308.78,202.229,315.793,202.229C322.805,202.229,329.817,211.37,336.83,211.37C343.862,211.37,350.893,204.992,357.925,198.615" stroke="#00A767" stroke-width="2"/></g><g class="mark-line role-mark layer_10_marks" role="graphics-object" aria-roledescription="line mark container"><path aria-label="dt: Jan 01, 2004; % Professional job: 12.0917394757" role="graphics-symbol" aria-roledescription="line mark" d="M0,263.725C7.032,261.201,14.063,258.678,21.095,258.561C28.108,258.444,35.12,258.503,42.133,258.386C49.145,258.27,56.158,256.47,63.17,256.47C70.183,256.47,77.195,258.92,84.207,258.92C91.239,258.92,98.271,258.439,105.303,257.866C112.315,257.294,119.328,255.491,126.34,255.491C133.353,255.491,140.365,258.105,147.378,259.128C154.39,260.151,161.402,261.627,168.415,261.627C175.447,261.627,182.478,252.612,189.51,252.032C196.523,251.453,203.535,251.164,210.548,251.164C217.56,251.164,224.573,253.976,231.585,253.976C238.598,253.976,245.61,249.701,252.622,249.701C259.654,249.701,266.686,258.019,273.718,258.019C280.73,258.019,287.743,245.812,294.755,245.812C301.768,245.812,308.78,246.798,315.793,246.798C322.805,246.798,329.817,237.931,336.83,237.931C343.862,237.931,350.893,240.623,357.925,243.315" stroke="#F4C245" stroke-width="2"/></g><g class="mark-text role-mark layer_11_marks" role="graphics-object" aria-roledescription="text mark container"><text aria-label="dt: Jan 01, 2021; % Large firm: 25.4875600338; t: Large firm" role="graphics-symbol" aria-roledescription="text mark" text-anchor="start" transform="translate(362.9250720461095,227.53731989860535)" font-family="Circular Std Book" font-size="12px" fill="#F4134D">Large firm</text></g><g class="mark-text role-mark layer_12_marks" role="graphics-object" aria-roledescription="text mark container"><text aria-label="dt: Jan 01, 2021; % Full-time, permanent: 59.1774463654; t: Full-time, permanent" role="graphics-symbol" aria-roledescription="text mark" text-anchor="start" transform="translate(362.9250720461095,126.46766090393066)" font-family="Circular Std Book" font-size="12px" fill="#179FDB">Full-time, permanent</text></g><g class="mark-text role-mark layer_13_marks" role="graphics-object" aria-roledescription="text mark container"><text aria-label="dt: Jan 01, 2021; % Different job: 69.8327720165; t: Different job" role="graphics-symbol" aria-roledescription="text mark" text-anchor="start" transform="translate(362.9250720461095,94.5016839504242)" font-family="Circular Std Book" font-size="12px" fill="#36B7B4">Different job</text></g><g class="mark-text role-mark layer_14_marks" role="graphics-object" aria-roledescription="text mark container"><text aria-label="dt: Jan 01, 2021; % On-the-job training: 33.7949842215; t: On-the-job training" role="graphics-symbol" aria-roledescription="text mark" text-anchor="start" transform="translate(362.9250720461095,202.6150473356247)" font-family="Circular Std Book" font-size="12px" fill="#00A767">On-the-job training</text></g><g class="mark-text role-mark layer_15_marks" role="graphics-object" aria-roledescription="text mark container"><text aria-label="dt: Jan 01, 2021; % Professional job: 18.8950315118; t: Professional job" role="graphics-symbol" aria-roledescription="text mark" text-anchor="start" transform="translate(362.9250720461095,247.3149054646492)" font-family="Circular Std Book" font-size="12px" fill="#F4C245">Professional job</text></g><g class="mark-image role-mark layer_16_marks" role="graphics-object" aria-roledescription="image mark container"><image aria-label="x: Jan 01, 2023; y: 100; img: https://raw.githubusercontent.com/EconomicsObservatory/ECOvisualisations/main/guidelines/logos/eco-icon-dark.png" role="graphics-symbol" aria-roledescription="image mark" xlink:href="" transform="translate(440,-33)" width="40" height="40" preserveAspectRatio="xMidYMid" opacity="0.5"/></g></g><path class="foreground" aria-hidden="true" d="" display="none"/></g></g></g><defs><linearGradient id="gradient_0" x1="1" x2="0" y1="1" y2="1"><stop offset="0" stop-color="#ffffff00"/><stop offset="1" stop-color="#676A86"/></linearGradient></defs></svg>