<svg xmlns="http://www.w3.org/2000/svg" xmlns:xlink="http://www.w3.org/1999/xlink" version="1.1" class="marks" width="460" height="333" viewBox="0 0 460 333"><rect width="460" height="333" fill="white"/><g fill="none" stroke-miterlimit="10" transform="translate(36,11)"><g class="mark-group role-frame root" role="graphics-object" aria-roledescription="group mark container"><g transform="translate(0,0)"><path class="background" aria-hidden="true" d="M0,0h400v300h-400Z"/><g><g class="mark-group role-axis" role="graphics-symbol" aria-roledescription="axis" aria-label="X-axis for a linear scale with values from 1860 to 2020"><g transform="translate(0.5,300.5)"><path class="background" aria-hidden="true" d="M0,0h0v0h0Z" pointer-events="none"/><g><g class="mark-rule role-axis-tick" pointer-events="none"><line transform="translate(0,0)" x2="0" y2="5" stroke="#676A86" stroke-width="1" opacity="1"/><line transform="translate(50,0)" x2="0" y2="5" stroke="#676A86" stroke-width="1" opacity="1"/><line transform="translate(100,0)" x2="0" y2="5" stroke="#676A86" stroke-width="1" opacity="1"/><line transform="translate(150,0)" x2="0" y2="5" stroke="#676A86" stroke-width="1" opacity="1"/><line transform="translate(200,0)" x2="0" y2="5" stroke="#676A86" stroke-width="1" opacity="1"/><line transform="translate(250,0)" x2="0" y2="5" stroke="#676A86" stroke-width="1" opacity="1"/><line transform="translate(300,0)" x2="0" y2="5" stroke="#676A86" stroke-width="1" opacity="1"/><line transform="translate(350,0)" x2="0" y2="5" stroke="#676A86" stroke-width="1" opacity="1"/><line transform="translate(400,0)" x2="0" y2="5" stroke="#676A86" stroke-width="1" opacity="1"/></g><g class="mark-text role-axis-label" pointer-events="none"><text text-anchor="start" transform="translate(0,15)" font-family="sans-serif" font-size="10px" fill="#676A86" opacity="1">1860</text><text text-anchor="middle" transform="translate(50,15)" font-family="sans-serif" font-size="10px" fill="#676A86" opacity="1">1880</text><text text-anchor="middle" transform="translate(100,15)" font-family="sans-serif" font-size="10px" fill="#676A86" opacity="1">1900</text><text text-anchor="middle" transform="translate(150,15)" font-family="sans-serif" font-size="10px" fill="#676A86" opacity="1">1920</text><text text-anchor="middle" transform="translate(200,15)" font-family="sans-serif" font-size="10px" fill="#676A86" opacity="1">1940</text><text text-anchor="middle" transform="translate(250,15)" font-family="sans-serif" font-size="10px" fill="#676A86" opacity="1">1960</text><text text-anchor="middle" transform="translate(300,15)" font-family="sans-serif" font-size="10px" fill="#676A86" opacity="1">1980</text><text text-anchor="middle" transform="translate(350,15)" font-family="sans-serif" font-size="10px" fill="#676A86" opacity="1">2000</text><text text-anchor="end" transform="translate(400,15)" font-family="sans-serif" font-size="10px" fill="#676A86" opacity="1">2020</text></g><g class="mark-rule role-axis-domain" pointer-events="none"><line transform="translate(0,0)" x2="400" y2="0" stroke="#676A86" stroke-width="1" opacity="1"/></g></g><path class="foreground" aria-hidden="true" d="" pointer-events="none" display="none"/></g></g><g class="mark-group role-axis" role="graphics-symbol" aria-roledescription="axis" aria-label="Y-axis titled 'Population' for a linear scale with values from 0G to 8G"><g transform="translate(400.5,0.5)"><path class="background" aria-hidden="true" d="M0,0h0v0h0Z" pointer-events="none"/><g><g class="mark-rule role-axis-tick" pointer-events="none"><line transform="translate(0,300)" x2="5" y2="0" stroke="#36B7B4" stroke-width="1" opacity="1"/><line transform="translate(0,263)" x2="5" y2="0" stroke="#36B7B4" stroke-width="1" opacity="1"/><line transform="translate(0,225)" x2="5" y2="0" stroke="#36B7B4" stroke-width="1" opacity="1"/><line transform="translate(0,188)" x2="5" y2="0" stroke="#36B7B4" stroke-width="1" opacity="1"/><line transform="translate(0,150)" x2="5" y2="0" stroke="#36B7B4" stroke-width="1" opacity="1"/><line transform="translate(0,113)" x2="5" y2="0" stroke="#36B7B4" stroke-width="1" opacity="1"/><line transform="translate(0,75)" x2="5" y2="0" stroke="#36B7B4" stroke-width="1" opacity="1"/><line transform="translate(0,38)" x2="5" y2="0" stroke="#36B7B4" stroke-width="1" opacity="1"/><line transform="translate(0,0)" x2="5" y2="0" stroke="#36B7B4" stroke-width="1" opacity="1"/></g><g class="mark-text role-axis-label" pointer-events="none"><text text-anchor="start" transform="translate(7,303)" font-family="sans-serif" font-size="10px" fill="#36B7B4" opacity="1">0G</text><text text-anchor="start" transform="translate(7,265.5)" font-family="sans-serif" font-size="10px" fill="#36B7B4" opacity="1">1G</text><text text-anchor="start" transform="translate(7,228)" font-family="sans-serif" font-size="10px" fill="#36B7B4" opacity="1">2G</text><text text-anchor="start" transform="translate(7,190.5)" font-family="sans-serif" font-size="10px" fill="#36B7B4" opacity="1">3G</text><text text-anchor="start" transform="translate(7,153)" font-family="sans-serif" font-size="10px" fill="#36B7B4" opacity="1">4G</text><text text-anchor="start" transform="translate(7,115.5)" font-family="sans-serif" font-size="10px" fill="#36B7B4" opacity="1">5G</text><text text-anchor="start" transform="translate(7,78)" font-family="sans-serif" font-size="10px" fill="#36B7B4" opacity="1">6G</text><text text-anchor="start" transform="translate(7,40.5)" font-family="sans-serif" font-size="10px" fill="#36B7B4" opacity="1">7G</text><text text-anchor="start" transform="translate(7,3)" font-family="sans-serif" font-size="10px" fill="#36B7B4" opacity="1">8G</text></g><g class="mark-rule role-axis-domain" pointer-events="none"><line transform="translate(0,300)" x2="0" y2="-300" stroke="#36B7B4" stroke-width="1" opacity="1"/></g><g class="mark-text role-axis-title" pointer-events="none"><text text-anchor="end" transform="translate(-10,3)" font-family="sans-serif" font-size="11px" font-weight="bold" fill="#36B7B4" opacity="1">Population</text></g></g><path class="foreground" aria-hidden="true" d="" pointer-events="none" display="none"/></g></g><g class="mark-group role-axis" role="graphics-symbol" aria-roledescription="axis" aria-label="Y-axis titled 'Population growth' for a linear scale with values from 0.0% to 2.2%"><g transform="translate(0.5,0.5)"><path class="background" aria-hidden="true" d="M0,0h0v0h0Z" pointer-events="none"/><g><g class="mark-rule role-axis-tick" pointer-events="none"><line transform="translate(0,300)" x2="-5" y2="0" stroke="#F4134D" stroke-width="1" opacity="1"/><line transform="translate(0,273)" x2="-5" y2="0" stroke="#F4134D" stroke-width="1" opacity="1"/><line transform="translate(0,245)" x2="-5" y2="0" stroke="#F4134D" stroke-width="1" opacity="1"/><line transform="translate(0,218)" x2="-5" y2="0" stroke="#F4134D" stroke-width="1" opacity="1"/><line transform="translate(0,191)" x2="-5" y2="0" stroke="#F4134D" stroke-width="1" opacity="1"/><line transform="translate(0,164)" x2="-5" y2="0" stroke="#F4134D" stroke-width="1" opacity="1"/><line transform="translate(0,136)" x2="-5" y2="0" stroke="#F4134D" stroke-width="1" opacity="1"/><line transform="translate(0,109)" x2="-5" y2="0" stroke="#F4134D" stroke-width="1" opacity="1"/><line transform="translate(0,82)" x2="-5" y2="0" stroke="#F4134D" stroke-width="1" opacity="1"/><line transform="translate(0,55)" x2="-5" y2="0" stroke="#F4134D" stroke-width="1" opacity="1"/><line transform="translate(0,27)" x2="-5" y2="0" stroke="#F4134D" stroke-width="1" opacity="1"/><line transform="translate(0,0)" x2="-5" y2="0" stroke="#F4134D" stroke-width="1" opacity="1"/></g><g class="mark-text role-axis-label" pointer-events="none"><text text-anchor="end" transform="translate(-7,303)" font-family="sans-serif" font-size="10px" fill="#F4134D" opacity="1">0.0%</text><text text-anchor="end" transform="translate(-7,275.7272727272727)" font-family="sans-serif" font-size="10px" fill="#F4134D" opacity="1">0.2%</text><text text-anchor="end" transform="translate(-7,248.45454545454544)" font-family="sans-serif" font-size="10px" fill="#F4134D" opacity="1">0.4%</text><text text-anchor="end" transform="translate(-7,221.1818181818182)" font-family="sans-serif" font-size="10px" fill="#F4134D" opacity="1">0.6%</text><text text-anchor="end" transform="translate(-7,193.9090909090909)" font-family="sans-serif" font-size="10px" fill="#F4134D" opacity="1">0.8%</text><text text-anchor="end" transform="translate(-7,166.63636363636363)" font-family="sans-serif" font-size="10px" fill="#F4134D" opacity="1">1.0%</text><text text-anchor="end" transform="translate(-7,139.36363636363635)" font-family="sans-serif" font-size="10px" fill="#F4134D" opacity="1">1.2%</text><text text-anchor="end" transform="translate(-7,112.09090909090907)" font-family="sans-serif" font-size="10px" fill="#F4134D" opacity="1">1.4%</text><text text-anchor="end" transform="translate(-7,84.81818181818181)" font-family="sans-serif" font-size="10px" fill="#F4134D" opacity="1">1.6%</text><text text-anchor="end" transform="translate(-7,57.54545454545456)" font-family="sans-serif" font-size="10px" fill="#F4134D" opacity="1">1.8%</text><text text-anchor="end" transform="translate(-7,30.27272727272725)" font-family="sans-serif" font-size="10px" fill="#F4134D" opacity="1">2.0%</text><text text-anchor="end" transform="translate(-7,3)" font-family="sans-serif" font-size="10px" fill="#F4134D" opacity="1">2.2%</text></g><g class="mark-rule role-axis-domain" pointer-events="none"><line transform="translate(0,300)" x2="0" y2="-300" stroke="#F4134D" stroke-width="1" opacity="1"/></g><g class="mark-text role-axis-title" pointer-events="none"><text text-anchor="start" transform="translate(10,3)" font-family="sans-serif" font-size="11px" font-weight="bold" fill="#F4134D" opacity="1">Population growth</text></g></g><path class="foreground" aria-hidden="true" d="" pointer-events="none" display="none"/></g></g><g class="mark-area role-mark layer_0_layer_0_marks" role="graphics-object" aria-roledescription="area mark container"><path aria-label="year: 1870; population: 1.27181G" role="graphics-symbol" aria-roledescription="area mark" d="M25,252.3071222877036C25.833333333333336,252.199162781506,26.666666666666668,252.0912032753084,27.500000000000004,251.982692035847C28.333333333333336,251.87418079638562,29.166666666666668,251.76530423685443,30,251.6560548509352C30.833333333333332,251.54680546501595,31.666666666666668,251.4371882739414,32.5,251.32719572033153C33.333333333333336,251.21720316672167,34.166666666666664,251.10684030596613,35,250.99609952927597C35.833333333333336,250.8853587525858,36.666666666666664,250.77424514973987,37.5,250.66275106019052C38.333333333333336,250.55125697064116,39.166666666666664,250.43938751879043,40,250.32713499197982C40.833333333333336,250.2148824651692,41.666666666666664,250.10225202265948,42.5,249.9892358993269C43.333333333333336,249.87621977599431,44.166666666666664,249.76282316619537,45,249.64903825198425C45.833333333333336,249.53525333777313,46.666666666666664,249.42108534884088,47.5,249.3065264140601C48.333333333333336,249.19196747927933,49.166666666666664,249.077022863916,50,248.96168464329955C50.833333333333336,248.8463464226831,51.666666666666664,248.73061989789645,52.5,248.6144970903614C53.333333333333336,248.49837428282635,54.16666666666667,248.38186052968643,55.00000000000001,248.2649477980893C55.833333333333336,248.14803506649218,56.666666666666664,248.0307287298872,57.49999999999999,247.91302070077865C58.33333333333333,247.79531267167008,59.166666666666664,247.67720836006012,60,247.55869962343797C60.833333333333336,247.44019088681583,61.666666666666664,247.32128317198513,62.5,247.20196828104574C63.333333333333336,247.08265339010634,64.16666666666667,246.96293680691372,65,246.84281027780162C65.83333333333333,246.72268374868952,66.66666666666667,246.60215279481724,67.5,246.48120910637311C68.33333333333333,246.36026541792899,69.16666666666667,246.2389145536299,70,246.1171481471368C70.83333333333333,245.99538174064367,71.66666666666667,245.87320538848653,72.5,245.75061066741432C73.33333333333333,245.62801594634212,74.16666666666667,245.50500849095528,75,245.38157982070362C75.83333333333333,245.25815115045197,76.66666666666667,245.13430693826524,77.5,245.01003864590444C78.33333333333333,244.88577035354365,79.16666666666667,244.76108369252853,80,244.63597006653887C80.83333333333333,244.51085644054922,81.66666666666667,244.38532159995728,82.5,244.25935688996643C83.33333333333333,244.13339217997557,84.16666666666667,244.00700339007497,85,243.88018180659384C85.83333333333333,243.7533602231127,86.66666666666667,243.62611167492312,87.5,243.49842738907964C88.33333333333333,243.37074310323615,89.16666666666667,243.2426289482617,90,243.11407609153298C90.83333333333333,242.98552323480425,91.66666666666667,242.85653758476477,92.5,242.72711024870733C93.33333333333333,242.5976829126499,94.16666666666667,242.46781983921014,95,242.33751207518844C95.83333333333333,242.20720431116675,96.66666666666667,242.07645784566424,97.5,241.9452636645772C98.33333333333333,241.81406948349016,99.16666666666667,241.71932870298681,100,241.55034698866618C100.83333333333333,241.38136527434554,101.66666666666666,241.138790389246,102.49999999999999,240.93137337865332C103.33333333333333,240.72395636806064,104.16666666666666,240.5154584526915,105,240.30584492511008C105.83333333333333,240.09623139752867,106.66666666666667,239.88552551854116,107.5,239.67369221316483C108.33333333333334,239.4618589077885,109.16666666666667,239.24892168315822,110.00000000000001,239.03484509285215C110.83333333333334,238.8207685025461,111.66666666666667,238.6055763026363,112.5,238.3892326713284C113.33333333333333,238.17288904002046,114.16666666666666,237.95541798495992,114.99999999999999,237.73678330500456C115.83333333333333,237.5181486250492,116.66666666666666,237.29837458208218,117.5,237.07742459159624C118.33333333333333,236.8564746011103,119.16666666666667,236.6343731819185,120,236.4110833620889C120.83333333333334,236.1877935422593,121.66666666666667,235.96334010025572,122.50000000000001,235.73768567261857C123.33333333333334,235.51203124498142,124.16666666666667,235.28520087257502,125,235.05715679626599C125.83333333333333,234.82911271995695,126.66666666666666,234.59988024578885,127.49999999999999,234.3694212147644C128.33333333333331,234.13896218373995,129.16666666666666,233.90730216989016,130,233.67440261011924C130.83333333333334,233.44150305034836,131.66666666666666,233.1508432789049,132.5,232.972023856139C133.33333333333334,232.79320443337312,134.16666666666666,232.72534006310903,135,232.60148607352394C135.83333333333334,232.47763208393886,136.66666666666666,232.3534385862437,137.5,232.22889991862849C138.33333333333334,232.10436125101327,139.16666666666666,231.97948119845103,140,231.8542540678327C140.83333333333334,231.72902693721437,141.66666666666666,231.60345653443673,142.5,231.4775371349186C143.33333333333334,231.35161773540048,144.16666666666666,231.22535316607798,145,231.0987376707239C145.83333333333334,230.9721221753698,146.66666666666666,230.84515960207594,147.5,230.71784416279408C148.33333333333334,230.59052872351222,149.16666666666666,230.52130490153766,150,230.3348450350327C150.83333333333334,230.14838516852777,151.66666666666666,229.84563342762263,152.5,229.59908496376437C153.33333333333334,229.3525364999061,154.16666666666666,229.10470660739182,155,228.85555425188312C155.83333333333334,228.60640189637442,156.66666666666666,228.35595457855663,157.5,228.10417083071215C158.33333333333334,227.85238708286766,159.16666666666666,227.599294696127,160,227.34485176481624C160.83333333333334,227.09040883350548,161.66666666666666,226.8346434422678,162.5,226.57751324284763C163.33333333333334,226.32038304342746,164.16666666666666,226.0619164170805,165,225.80207056829522C165.83333333333334,225.54222471950993,166.66666666666666,225.28102832928724,167.5,225.01843815013598C168.33333333333334,224.75584797098472,169.16666666666666,224.49189298681668,170,224.22652949338766C170.83333333333334,223.96116599995864,171.66666666666666,223.69442328729048,172.5,223.42625718956185C173.33333333333334,223.15809109183323,174.16666666666666,222.88853120840903,175,222.61753290701597C175.83333333333334,222.3465346056229,176.66666666666666,222.0741277982359,177.5,221.80026738120344C178.33333333333334,221.52640696417097,179.16666666666666,221.2511231653796,180,220.9743704048211C180.83333333333334,220.69761764426258,181.66666666666666,220.4194264690717,182.5,220.13975081785236C183.33333333333334,219.860075166633,184.16666666666666,219.5789459091399,185,219.29631649750507C185.83333333333334,219.01368708587026,186.66666666666666,218.72958871587556,187.5,218.44397434804347C188.33333333333334,218.15835998021137,189.16666666666666,217.87126113979417,190,217.58263029051253C190.83333333333334,217.29399944123088,191.66666666666666,217.00386844128724,192.5,216.71218925235365C193.33333333333334,216.42051006342007,194.16666666666666,216.12731488016553,195,215.8325551569111C195.83333333333334,215.53779543365667,196.66666666666666,215.2415037050914,197.5,214.9436309128271C198.33333333333334,214.64575812056282,199.16666666666666,214.33156985366003,200,214.0453184033254C200.83333333333334,213.7590669529908,201.66666666666666,213.5004888413071,202.5,213.22612221081937C203.33333333333331,212.95175558033165,204.16666666666666,212.6761001183364,204.99999999999997,212.3991186203991C205.83333333333331,212.1221371224618,206.66666666666669,211.84385450973184,207.50000000000003,211.5642332231956C208.33333333333334,211.28461193665936,209.16666666666669,211.0036771349787,210,210.72139090118165C210.83333333333334,210.4391046673846,211.66666666666666,210.15549239990915,212.5,209.87051582041332C213.33333333333334,209.58553924091748,214.16666666666666,209.2992239899006,215,209.0115314242067C215.83333333333331,208.7238388585128,216.66666666666666,208.4347948630095,217.49999999999997,208.14436042624993C218.33333333333331,207.85392598949036,219.16666666666669,207.5621272430394,220.00000000000003,207.2689248036493C220.83333333333334,206.9757223642592,221.66666666666669,206.68114261254328,222.5,206.38514578990936C223.33333333333334,206.08914896727543,224.16666666666666,205.91394754702605,225,205.4929438678458C225.83333333333334,205.07194018866556,226.66666666666666,204.41982697464496,227.5,203.85912371482792C228.33333333333331,203.29842045501087,229.16666666666666,202.71626661899955,229.99999999999997,202.1287243089435C230.83333333333331,201.54118199888742,231.66666666666669,200.95058258617004,232.50000000000003,200.33386985449155C233.33333333333334,199.7171571228131,234.16666666666669,199.07093025623973,235,198.4284479188727C235.83333333333334,197.78596558150568,236.66666666666666,197.13678591014684,237.5,196.47897583028936C238.33333333333334,195.82116575043187,239.16666666666666,195.17233251355816,240,194.48158743972778C240.83333333333331,193.7908423658974,241.66666666666666,193.0619652729885,242.49999999999997,192.33450538730702C243.33333333333331,191.60704550162552,244.16666666666669,190.8394467504731,245.00000000000003,190.11682812563882C245.83333333333334,189.39420950080458,246.66666666666669,188.63590709674125,247.5,187.99879363830144C248.33333333333334,187.36168017986162,249.16666666666666,186.8247549918002,250,186.29414737499997C250.83333333333334,185.76353975819973,251.66666666666666,185.39267878124997,252.5,184.81514793749997C253.33333333333331,184.23761709374998,254.16666666666666,183.56683501249998,254.99999999999997,182.82896231249998C255.83333333333331,182.09108961249999,256.66666666666663,181.20406603125,257.5,180.3879117375C258.3333333333333,179.57175744375,259.1666666666667,178.759480975,260,177.93203655C260.8333333333333,177.10459212499998,261.6666666666667,176.27919541875,262.5,175.4232451875C263.3333333333333,174.56729495624998,264.1666666666667,173.66866596875002,265,172.79633516250001C265.8333333333333,171.92400435625,266.6666666666667,171.06854324999998,267.5,170.18926034999998C268.3333333333333,169.30997745,269.1666666666667,168.42647544375,270,167.5206377625C270.8333333333333,166.61480008125,271.6666666666667,165.68668998125,272.5,164.7542342625C273.3333333333333,163.82177854375,274.1666666666667,162.888172225,275,161.92590345C275.8333333333333,160.96363467499998,276.6666666666667,159.94890219375003,277.5,158.98062161250002C278.3333333333333,158.01234103125,279.1666666666667,157.06914254999998,280,156.11621996249997C280.8333333333333,155.16329737499996,281.6666666666667,154.21050193125,282.5,153.2630860875C283.3333333333333,152.31567024375,284.1666666666667,151.36624149999997,285,150.43172489999998C285.8333333333333,149.49720829999998,286.6666666666667,148.57439229375,287.5,147.6559864875C288.3333333333333,146.73758068125,289.1666666666667,145.82928628125,290,144.9212900625C290.8333333333333,144.01329384374998,291.6666666666667,143.11992863124996,292.5,142.20800917499997C293.3333333333333,141.29608971874998,294.1666666666667,140.38097298125,295,139.44977332500002C295.8333333333333,138.51857366875004,296.6666666666667,137.56846295625,297.5,136.6208112375C298.3333333333333,135.67315951875,299.1666666666667,134.72877404375,300,133.7638630125C300.8333333333333,132.79895198124999,301.6666666666667,131.82774229999998,302.5,130.83134504999998C303.3333333333333,129.83494779999998,304.1666666666667,128.80526794999997,305,127.78547951249999C305.8333333333333,126.76569107499999,306.6666666666667,125.73517365000001,307.5,124.71261442500001C308.3333333333333,123.69005520000002,309.1666666666667,122.6804144875,310,121.6501241625C310.8333333333333,120.61983383750001,311.6666666666667,119.58556775625001,312.5,118.53087247500001C313.3333333333333,117.47617719375,314.1666666666667,116.40557443750001,315,115.321952475C315.8333333333333,114.2383305125,316.6666666666667,113.13251408125001,317.5,112.0291407C318.3333333333333,110.92576731874999,319.1666666666667,109.81059227499999,320,108.7017121875C320.8333333333333,107.5928321,321.6666666666667,106.49310030625001,322.5,105.37586017500001C323.3333333333333,104.25862004375001,324.1666666666667,103.11178643749999,325,101.99827139999998C325.8333333333333,100.88475636249997,326.6666666666667,99.77308464375001,327.5,98.69476995000001C328.3333333333333,97.61645525625,329.1666666666667,96.5892962625,330,95.5283832375C330.8333333333333,94.46747021249999,331.6666666666667,93.38872518125001,332.5,92.32929180000001C333.3333333333333,91.26985841875,334.1666666666667,90.22721012500001,335,89.17178295000001C335.8333333333333,88.116355775,336.6666666666667,87.04404013125,337.5,85.99672875C338.3333333333333,84.94941736875,339.1666666666667,83.92249455624997,340,82.88791466249998C340.8333333333333,81.85333476874999,341.6666666666667,80.81643874375001,342.5,79.78924938750002C343.3333333333333,78.76206003125003,344.1666666666667,77.73855938125001,345,76.724778525C345.8333333333333,75.71099766875,346.6666666666667,74.70860556875,347.5,73.70656425C348.3333333333333,72.70452293125,349.1666666666667,71.707406075,350,70.71253061249999C350.8333333333333,69.71765514999998,351.6666666666667,68.72743955000001,352.5,67.73731147500001C353.3333333333333,66.74718340000001,354.1666666666667,65.76057898125,355,64.77176216250001C355.8333333333333,63.78294534375001,356.6666666666667,62.79690251250001,357.5,61.80441056250001C358.3333333333333,60.81191861250001,359.1666666666667,59.815972262500004,360,58.8168104625C360.8333333333333,57.8176486625,361.6666666666667,56.81683249999999,362.5,55.80943976249999C363.3333333333333,54.80204702499999,364.1666666666667,53.787800437499996,365,52.7724540375C365.8333333333333,51.7571076375,366.6666666666667,50.74415052499999,367.5,49.71736136249999C368.3333333333333,48.6905722,369.1666666666667,47.64528491250001,370,46.611719062500015C370.8333333333333,45.57815321250002,371.6666666666667,44.54631780000002,372.5,43.515966262500015C373.3333333333333,42.48561472500001,374.1666666666667,41.450276593750004,375,40.4296098375C375.8333333333333,39.40894308125,376.6666666666667,38.416424268749985,377.5,37.391965724999984C378.3333333333333,36.367507181249984,379.1666666666667,35.325322843749994,380,34.282858575C380.8333333333333,33.24039430625,381.6666666666667,32.190320175,382.5,31.137180112499998C383.3333333333333,30.084040049999995,384.1666666666667,29.022777306249985,385,27.964018199999984C385.8333333333333,26.905259093749983,386.6666666666667,25.848324806249984,387.5,24.784625474999988C388.3333333333333,23.720926143749992,389.1666666666667,22.64640705000001,390,21.58182221250001C390.8333333333333,20.51723737500001,391.6666666666667,19.447059412499996,392.5,18.397116449999995C393.3333333333333,17.347173487499994,394.1666666666667,16.30675920625001,395,15.282164437500011C395.8333333333333,14.257569668750014,396.6666666666667,13.251828662500008,397.5,12.249547837500007C398.3333333333333,11.247267012500005,399.1666666666667,10.257873250000003,400,9.268479487500002L400,300C399.1666666666667,300,398.3333333333333,300,397.5,300C396.6666666666667,300,395.8333333333333,300,395,300C394.1666666666667,300,393.3333333333333,300,392.5,300C391.6666666666667,300,390.8333333333333,300,390,300C389.1666666666667,300,388.3333333333333,300,387.5,300C386.6666666666667,300,385.8333333333333,300,385,300C384.1666666666667,300,383.3333333333333,300,382.5,300C381.6666666666667,300,380.8333333333333,300,380,300C379.1666666666667,300,378.3333333333333,300,377.5,300C376.6666666666667,300,375.8333333333333,300,375,300C374.1666666666667,300,373.3333333333333,300,372.5,300C371.6666666666667,300,370.8333333333333,300,370,300C369.1666666666667,300,368.3333333333333,300,367.5,300C366.6666666666667,300,365.8333333333333,300,365,300C364.1666666666667,300,363.3333333333333,300,362.5,300C361.6666666666667,300,360.8333333333333,300,360,300C359.1666666666667,300,358.3333333333333,300,357.5,300C356.6666666666667,300,355.8333333333333,300,355,300C354.1666666666667,300,353.3333333333333,300,352.5,300C351.6666666666667,300,350.8333333333333,300,350,300C349.1666666666667,300,348.3333333333333,300,347.5,300C346.6666666666667,300,345.8333333333333,300,345,300C344.1666666666667,300,343.3333333333333,300,342.5,300C341.6666666666667,300,340.8333333333333,300,340,300C339.1666666666667,300,338.3333333333333,300,337.5,300C336.6666666666667,300,335.8333333333333,300,335,300C334.1666666666667,300,333.3333333333333,300,332.5,300C331.6666666666667,300,330.8333333333333,300,330,300C329.1666666666667,300,328.3333333333333,300,327.5,300C326.6666666666667,300,325.8333333333333,300,325,300C324.1666666666667,300,323.3333333333333,300,322.5,300C321.6666666666667,300,320.8333333333333,300,320,300C319.1666666666667,300,318.3333333333333,300,317.5,300C316.6666666666667,300,315.8333333333333,300,315,300C314.1666666666667,300,313.3333333333333,300,312.5,300C311.6666666666667,300,310.8333333333333,300,310,300C309.1666666666667,300,308.3333333333333,300,307.5,300C306.6666666666667,300,305.8333333333333,300,305,300C304.1666666666667,300,303.3333333333333,300,302.5,300C301.6666666666667,300,300.8333333333333,300,300,300C299.1666666666667,300,298.3333333333333,300,297.5,300C296.6666666666667,300,295.8333333333333,300,295,300C294.1666666666667,300,293.3333333333333,300,292.5,300C291.6666666666667,300,290.8333333333333,300,290,300C289.1666666666667,300,288.3333333333333,300,287.5,300C286.6666666666667,300,285.8333333333333,300,285,300C284.1666666666667,300,283.3333333333333,300,282.5,300C281.6666666666667,300,280.8333333333333,300,280,300C279.1666666666667,300,278.3333333333333,300,277.5,300C276.6666666666667,300,275.8333333333333,300,275,300C274.1666666666667,300,273.3333333333333,300,272.5,300C271.6666666666667,300,270.8333333333333,300,270,300C269.1666666666667,300,268.3333333333333,300,267.5,300C266.6666666666667,300,265.8333333333333,300,265,300C264.1666666666667,300,263.3333333333333,300,262.5,300C261.6666666666667,300,260.8333333333333,300,260,300C259.1666666666667,300,258.3333333333333,300,257.5,300C256.66666666666663,300,255.83333333333331,300,254.99999999999997,300C254.16666666666666,300,253.33333333333331,300,252.5,300C251.66666666666666,300,250.83333333333334,300,250,300C249.16666666666666,300,248.33333333333334,300,247.5,300C246.66666666666669,300,245.83333333333334,300,245.00000000000003,300C244.16666666666669,300,243.33333333333331,300,242.49999999999997,300C241.66666666666666,300,240.83333333333331,300,240,300C239.16666666666666,300,238.33333333333334,300,237.5,300C236.66666666666666,300,235.83333333333334,300,235,300C234.16666666666669,300,233.33333333333334,300,232.50000000000003,300C231.66666666666669,300,230.83333333333331,300,229.99999999999997,300C229.16666666666666,300,228.33333333333331,300,227.5,300C226.66666666666666,300,225.83333333333334,300,225,300C224.16666666666666,300,223.33333333333334,300,222.5,300C221.66666666666669,300,220.83333333333334,300,220.00000000000003,300C219.16666666666669,300,218.33333333333331,300,217.49999999999997,300C216.66666666666666,300,215.83333333333331,300,215,300C214.16666666666666,300,213.33333333333334,300,212.5,300C211.66666666666666,300,210.83333333333334,300,210,300C209.16666666666669,300,208.33333333333334,300,207.50000000000003,300C206.66666666666669,300,205.83333333333331,300,204.99999999999997,300C204.16666666666666,300,203.33333333333331,300,202.5,300C201.66666666666666,300,200.83333333333334,300,200,300C199.16666666666666,300,198.33333333333334,300,197.5,300C196.66666666666666,300,195.83333333333334,300,195,300C194.16666666666666,300,193.33333333333334,300,192.5,300C191.66666666666666,300,190.83333333333334,300,190,300C189.16666666666666,300,188.33333333333334,300,187.5,300C186.66666666666666,300,185.83333333333334,300,185,300C184.16666666666666,300,183.33333333333334,300,182.5,300C181.66666666666666,300,180.83333333333334,300,180,300C179.16666666666666,300,178.33333333333334,300,177.5,300C176.66666666666666,300,175.83333333333334,300,175,300C174.16666666666666,300,173.33333333333334,300,172.5,300C171.66666666666666,300,170.83333333333334,300,170,300C169.16666666666666,300,168.33333333333334,300,167.5,300C166.66666666666666,300,165.83333333333334,300,165,300C164.16666666666666,300,163.33333333333334,300,162.5,300C161.66666666666666,300,160.83333333333334,300,160,300C159.16666666666666,300,158.33333333333334,300,157.5,300C156.66666666666666,300,155.83333333333334,300,155,300C154.16666666666666,300,153.33333333333334,300,152.5,300C151.66666666666666,300,150.83333333333334,300,150,300C149.16666666666666,300,148.33333333333334,300,147.5,300C146.66666666666666,300,145.83333333333334,300,145,300C144.16666666666666,300,143.33333333333334,300,142.5,300C141.66666666666666,300,140.83333333333334,300,140,300C139.16666666666666,300,138.33333333333334,300,137.5,300C136.66666666666666,300,135.83333333333334,300,135,300C134.16666666666666,300,133.33333333333334,300,132.5,300C131.66666666666666,300,130.83333333333334,300,130,300C129.16666666666666,300,128.33333333333331,300,127.49999999999999,300C126.66666666666666,300,125.83333333333333,300,125,300C124.16666666666667,300,123.33333333333334,300,122.50000000000001,300C121.66666666666667,300,120.83333333333334,300,120,300C119.16666666666667,300,118.33333333333333,300,117.5,300C116.66666666666666,300,115.83333333333333,300,114.99999999999999,300C114.16666666666666,300,113.33333333333333,300,112.5,300C111.66666666666667,300,110.83333333333334,300,110.00000000000001,300C109.16666666666667,300,108.33333333333334,300,107.5,300C106.66666666666667,300,105.83333333333333,300,105,300C104.16666666666666,300,103.33333333333333,300,102.49999999999999,300C101.66666666666666,300,100.83333333333333,300,100,300C99.16666666666667,300,98.33333333333333,300,97.5,300C96.66666666666667,300,95.83333333333333,300,95,300C94.16666666666667,300,93.33333333333333,300,92.5,300C91.66666666666667,300,90.83333333333333,300,90,300C89.16666666666667,300,88.33333333333333,300,87.5,300C86.66666666666667,300,85.83333333333333,300,85,300C84.16666666666667,300,83.33333333333333,300,82.5,300C81.66666666666667,300,80.83333333333333,300,80,300C79.16666666666667,300,78.33333333333333,300,77.5,300C76.66666666666667,300,75.83333333333333,300,75,300C74.16666666666667,300,73.33333333333333,300,72.5,300C71.66666666666667,300,70.83333333333333,300,70,300C69.16666666666667,300,68.33333333333333,300,67.5,300C66.66666666666667,300,65.83333333333333,300,65,300C64.16666666666667,300,63.333333333333336,300,62.5,300C61.666666666666664,300,60.833333333333336,300,60,300C59.166666666666664,300,58.33333333333333,300,57.49999999999999,300C56.666666666666664,300,55.833333333333336,300,55.00000000000001,300C54.16666666666667,300,53.333333333333336,300,52.5,300C51.666666666666664,300,50.833333333333336,300,50,300C49.166666666666664,300,48.333333333333336,300,47.5,300C46.666666666666664,300,45.833333333333336,300,45,300C44.166666666666664,300,43.333333333333336,300,42.5,300C41.666666666666664,300,40.833333333333336,300,40,300C39.166666666666664,300,38.333333333333336,300,37.5,300C36.666666666666664,300,35.833333333333336,300,35,300C34.166666666666664,300,33.333333333333336,300,32.5,300C31.666666666666668,300,30.833333333333332,300,30,300C29.166666666666668,300,28.333333333333336,300,27.500000000000004,300C26.666666666666668,300,25.833333333333336,300,25,300Z" fill="url(#gradient_0)" fill-opacity="0.7"/></g><g class="mark-line role-mark layer_0_layer_1_marks" role="graphics-object" aria-roledescription="line mark container"><path aria-label="year: 1870; population: 1.27181G" role="graphics-symbol" aria-roledescription="line mark" d="M25,252.3071222877036C25.833333333333336,252.199162781506,26.666666666666668,252.0912032753084,27.500000000000004,251.982692035847C28.333333333333336,251.87418079638562,29.166666666666668,251.76530423685443,30,251.6560548509352C30.833333333333332,251.54680546501595,31.666666666666668,251.4371882739414,32.5,251.32719572033153C33.333333333333336,251.21720316672167,34.166666666666664,251.10684030596613,35,250.99609952927597C35.833333333333336,250.8853587525858,36.666666666666664,250.77424514973987,37.5,250.66275106019052C38.333333333333336,250.55125697064116,39.166666666666664,250.43938751879043,40,250.32713499197982C40.833333333333336,250.2148824651692,41.666666666666664,250.10225202265948,42.5,249.9892358993269C43.333333333333336,249.87621977599431,44.166666666666664,249.76282316619537,45,249.64903825198425C45.833333333333336,249.53525333777313,46.666666666666664,249.42108534884088,47.5,249.3065264140601C48.333333333333336,249.19196747927933,49.166666666666664,249.077022863916,50,248.96168464329955C50.833333333333336,248.8463464226831,51.666666666666664,248.73061989789645,52.5,248.6144970903614C53.333333333333336,248.49837428282635,54.16666666666667,248.38186052968643,55.00000000000001,248.2649477980893C55.833333333333336,248.14803506649218,56.666666666666664,248.0307287298872,57.49999999999999,247.91302070077865C58.33333333333333,247.79531267167008,59.166666666666664,247.67720836006012,60,247.55869962343797C60.833333333333336,247.44019088681583,61.666666666666664,247.32128317198513,62.5,247.20196828104574C63.333333333333336,247.08265339010634,64.16666666666667,246.96293680691372,65,246.84281027780162C65.83333333333333,246.72268374868952,66.66666666666667,246.60215279481724,67.5,246.48120910637311C68.33333333333333,246.36026541792899,69.16666666666667,246.2389145536299,70,246.1171481471368C70.83333333333333,245.99538174064367,71.66666666666667,245.87320538848653,72.5,245.75061066741432C73.33333333333333,245.62801594634212,74.16666666666667,245.50500849095528,75,245.38157982070362C75.83333333333333,245.25815115045197,76.66666666666667,245.13430693826524,77.5,245.01003864590444C78.33333333333333,244.88577035354365,79.16666666666667,244.76108369252853,80,244.63597006653887C80.83333333333333,244.51085644054922,81.66666666666667,244.38532159995728,82.5,244.25935688996643C83.33333333333333,244.13339217997557,84.16666666666667,244.00700339007497,85,243.88018180659384C85.83333333333333,243.7533602231127,86.66666666666667,243.62611167492312,87.5,243.49842738907964C88.33333333333333,243.37074310323615,89.16666666666667,243.2426289482617,90,243.11407609153298C90.83333333333333,242.98552323480425,91.66666666666667,242.85653758476477,92.5,242.72711024870733C93.33333333333333,242.5976829126499,94.16666666666667,242.46781983921014,95,242.33751207518844C95.83333333333333,242.20720431116675,96.66666666666667,242.07645784566424,97.5,241.9452636645772C98.33333333333333,241.81406948349016,99.16666666666667,241.71932870298681,100,241.55034698866618C100.83333333333333,241.38136527434554,101.66666666666666,241.138790389246,102.49999999999999,240.93137337865332C103.33333333333333,240.72395636806064,104.16666666666666,240.5154584526915,105,240.30584492511008C105.83333333333333,240.09623139752867,106.66666666666667,239.88552551854116,107.5,239.67369221316483C108.33333333333334,239.4618589077885,109.16666666666667,239.24892168315822,110.00000000000001,239.03484509285215C110.83333333333334,238.8207685025461,111.66666666666667,238.6055763026363,112.5,238.3892326713284C113.33333333333333,238.17288904002046,114.16666666666666,237.95541798495992,114.99999999999999,237.73678330500456C115.83333333333333,237.5181486250492,116.66666666666666,237.29837458208218,117.5,237.07742459159624C118.33333333333333,236.8564746011103,119.16666666666667,236.6343731819185,120,236.4110833620889C120.83333333333334,236.1877935422593,121.66666666666667,235.96334010025572,122.50000000000001,235.73768567261857C123.33333333333334,235.51203124498142,124.16666666666667,235.28520087257502,125,235.05715679626599C125.83333333333333,234.82911271995695,126.66666666666666,234.59988024578885,127.49999999999999,234.3694212147644C128.33333333333331,234.13896218373995,129.16666666666666,233.90730216989016,130,233.67440261011924C130.83333333333334,233.44150305034836,131.66666666666666,233.1508432789049,132.5,232.972023856139C133.33333333333334,232.79320443337312,134.16666666666666,232.72534006310903,135,232.60148607352394C135.83333333333334,232.47763208393886,136.66666666666666,232.3534385862437,137.5,232.22889991862849C138.33333333333334,232.10436125101327,139.16666666666666,231.97948119845103,140,231.8542540678327C140.83333333333334,231.72902693721437,141.66666666666666,231.60345653443673,142.5,231.4775371349186C143.33333333333334,231.35161773540048,144.16666666666666,231.22535316607798,145,231.0987376707239C145.83333333333334,230.9721221753698,146.66666666666666,230.84515960207594,147.5,230.71784416279408C148.33333333333334,230.59052872351222,149.16666666666666,230.52130490153766,150,230.3348450350327C150.83333333333334,230.14838516852777,151.66666666666666,229.84563342762263,152.5,229.59908496376437C153.33333333333334,229.3525364999061,154.16666666666666,229.10470660739182,155,228.85555425188312C155.83333333333334,228.60640189637442,156.66666666666666,228.35595457855663,157.5,228.10417083071215C158.33333333333334,227.85238708286766,159.16666666666666,227.599294696127,160,227.34485176481624C160.83333333333334,227.09040883350548,161.66666666666666,226.8346434422678,162.5,226.57751324284763C163.33333333333334,226.32038304342746,164.16666666666666,226.0619164170805,165,225.80207056829522C165.83333333333334,225.54222471950993,166.66666666666666,225.28102832928724,167.5,225.01843815013598C168.33333333333334,224.75584797098472,169.16666666666666,224.49189298681668,170,224.22652949338766C170.83333333333334,223.96116599995864,171.66666666666666,223.69442328729048,172.5,223.42625718956185C173.33333333333334,223.15809109183323,174.16666666666666,222.88853120840903,175,222.61753290701597C175.83333333333334,222.3465346056229,176.66666666666666,222.0741277982359,177.5,221.80026738120344C178.33333333333334,221.52640696417097,179.16666666666666,221.2511231653796,180,220.9743704048211C180.83333333333334,220.69761764426258,181.66666666666666,220.4194264690717,182.5,220.13975081785236C183.33333333333334,219.860075166633,184.16666666666666,219.5789459091399,185,219.29631649750507C185.83333333333334,219.01368708587026,186.66666666666666,218.72958871587556,187.5,218.44397434804347C188.33333333333334,218.15835998021137,189.16666666666666,217.87126113979417,190,217.58263029051253C190.83333333333334,217.29399944123088,191.66666666666666,217.00386844128724,192.5,216.71218925235365C193.33333333333334,216.42051006342007,194.16666666666666,216.12731488016553,195,215.8325551569111C195.83333333333334,215.53779543365667,196.66666666666666,215.2415037050914,197.5,214.9436309128271C198.33333333333334,214.64575812056282,199.16666666666666,214.33156985366003,200,214.0453184033254C200.83333333333334,213.7590669529908,201.66666666666666,213.5004888413071,202.5,213.22612221081937C203.33333333333331,212.95175558033165,204.16666666666666,212.6761001183364,204.99999999999997,212.3991186203991C205.83333333333331,212.1221371224618,206.66666666666669,211.84385450973184,207.50000000000003,211.5642332231956C208.33333333333334,211.28461193665936,209.16666666666669,211.0036771349787,210,210.72139090118165C210.83333333333334,210.4391046673846,211.66666666666666,210.15549239990915,212.5,209.87051582041332C213.33333333333334,209.58553924091748,214.16666666666666,209.2992239899006,215,209.0115314242067C215.83333333333331,208.7238388585128,216.66666666666666,208.4347948630095,217.49999999999997,208.14436042624993C218.33333333333331,207.85392598949036,219.16666666666669,207.5621272430394,220.00000000000003,207.2689248036493C220.83333333333334,206.9757223642592,221.66666666666669,206.68114261254328,222.5,206.38514578990936C223.33333333333334,206.08914896727543,224.16666666666666,205.91394754702605,225,205.4929438678458C225.83333333333334,205.07194018866556,226.66666666666666,204.41982697464496,227.5,203.85912371482792C228.33333333333331,203.29842045501087,229.16666666666666,202.71626661899955,229.99999999999997,202.1287243089435C230.83333333333331,201.54118199888742,231.66666666666669,200.95058258617004,232.50000000000003,200.33386985449155C233.33333333333334,199.7171571228131,234.16666666666669,199.07093025623973,235,198.4284479188727C235.83333333333334,197.78596558150568,236.66666666666666,197.13678591014684,237.5,196.47897583028936C238.33333333333334,195.82116575043187,239.16666666666666,195.17233251355816,240,194.48158743972778C240.83333333333331,193.7908423658974,241.66666666666666,193.0619652729885,242.49999999999997,192.33450538730702C243.33333333333331,191.60704550162552,244.16666666666669,190.8394467504731,245.00000000000003,190.11682812563882C245.83333333333334,189.39420950080458,246.66666666666669,188.63590709674125,247.5,187.99879363830144C248.33333333333334,187.36168017986162,249.16666666666666,186.8247549918002,250,186.29414737499997C250.83333333333334,185.76353975819973,251.66666666666666,185.39267878124997,252.5,184.81514793749997C253.33333333333331,184.23761709374998,254.16666666666666,183.56683501249998,254.99999999999997,182.82896231249998C255.83333333333331,182.09108961249999,256.66666666666663,181.20406603125,257.5,180.3879117375C258.3333333333333,179.57175744375,259.1666666666667,178.759480975,260,177.93203655C260.8333333333333,177.10459212499998,261.6666666666667,176.27919541875,262.5,175.4232451875C263.3333333333333,174.56729495624998,264.1666666666667,173.66866596875002,265,172.79633516250001C265.8333333333333,171.92400435625,266.6666666666667,171.06854324999998,267.5,170.18926034999998C268.3333333333333,169.30997745,269.1666666666667,168.42647544375,270,167.5206377625C270.8333333333333,166.61480008125,271.6666666666667,165.68668998125,272.5,164.7542342625C273.3333333333333,163.82177854375,274.1666666666667,162.888172225,275,161.92590345C275.8333333333333,160.96363467499998,276.6666666666667,159.94890219375003,277.5,158.98062161250002C278.3333333333333,158.01234103125,279.1666666666667,157.06914254999998,280,156.11621996249997C280.8333333333333,155.16329737499996,281.6666666666667,154.21050193125,282.5,153.2630860875C283.3333333333333,152.31567024375,284.1666666666667,151.36624149999997,285,150.43172489999998C285.8333333333333,149.49720829999998,286.6666666666667,148.57439229375,287.5,147.6559864875C288.3333333333333,146.73758068125,289.1666666666667,145.82928628125,290,144.9212900625C290.8333333333333,144.01329384374998,291.6666666666667,143.11992863124996,292.5,142.20800917499997C293.3333333333333,141.29608971874998,294.1666666666667,140.38097298125,295,139.44977332500002C295.8333333333333,138.51857366875004,296.6666666666667,137.56846295625,297.5,136.6208112375C298.3333333333333,135.67315951875,299.1666666666667,134.72877404375,300,133.7638630125C300.8333333333333,132.79895198124999,301.6666666666667,131.82774229999998,302.5,130.83134504999998C303.3333333333333,129.83494779999998,304.1666666666667,128.80526794999997,305,127.78547951249999C305.8333333333333,126.76569107499999,306.6666666666667,125.73517365000001,307.5,124.71261442500001C308.3333333333333,123.69005520000002,309.1666666666667,122.6804144875,310,121.6501241625C310.8333333333333,120.61983383750001,311.6666666666667,119.58556775625001,312.5,118.53087247500001C313.3333333333333,117.47617719375,314.1666666666667,116.40557443750001,315,115.321952475C315.8333333333333,114.2383305125,316.6666666666667,113.13251408125001,317.5,112.0291407C318.3333333333333,110.92576731874999,319.1666666666667,109.81059227499999,320,108.7017121875C320.8333333333333,107.5928321,321.6666666666667,106.49310030625001,322.5,105.37586017500001C323.3333333333333,104.25862004375001,324.1666666666667,103.11178643749999,325,101.99827139999998C325.8333333333333,100.88475636249997,326.6666666666667,99.77308464375001,327.5,98.69476995000001C328.3333333333333,97.61645525625,329.1666666666667,96.5892962625,330,95.5283832375C330.8333333333333,94.46747021249999,331.6666666666667,93.38872518125001,332.5,92.32929180000001C333.3333333333333,91.26985841875,334.1666666666667,90.22721012500001,335,89.17178295000001C335.8333333333333,88.116355775,336.6666666666667,87.04404013125,337.5,85.99672875C338.3333333333333,84.94941736875,339.1666666666667,83.92249455624997,340,82.88791466249998C340.8333333333333,81.85333476874999,341.6666666666667,80.81643874375001,342.5,79.78924938750002C343.3333333333333,78.76206003125003,344.1666666666667,77.73855938125001,345,76.724778525C345.8333333333333,75.71099766875,346.6666666666667,74.70860556875,347.5,73.70656425C348.3333333333333,72.70452293125,349.1666666666667,71.707406075,350,70.71253061249999C350.8333333333333,69.71765514999998,351.6666666666667,68.72743955000001,352.5,67.73731147500001C353.3333333333333,66.74718340000001,354.1666666666667,65.76057898125,355,64.77176216250001C355.8333333333333,63.78294534375001,356.6666666666667,62.79690251250001,357.5,61.80441056250001C358.3333333333333,60.81191861250001,359.1666666666667,59.815972262500004,360,58.8168104625C360.8333333333333,57.8176486625,361.6666666666667,56.81683249999999,362.5,55.80943976249999C363.3333333333333,54.80204702499999,364.1666666666667,53.787800437499996,365,52.7724540375C365.8333333333333,51.7571076375,366.6666666666667,50.74415052499999,367.5,49.71736136249999C368.3333333333333,48.6905722,369.1666666666667,47.64528491250001,370,46.611719062500015C370.8333333333333,45.57815321250002,371.6666666666667,44.54631780000002,372.5,43.515966262500015C373.3333333333333,42.48561472500001,374.1666666666667,41.450276593750004,375,40.4296098375C375.8333333333333,39.40894308125,376.6666666666667,38.416424268749985,377.5,37.391965724999984C378.3333333333333,36.367507181249984,379.1666666666667,35.325322843749994,380,34.282858575C380.8333333333333,33.24039430625,381.6666666666667,32.190320175,382.5,31.137180112499998C383.3333333333333,30.084040049999995,384.1666666666667,29.022777306249985,385,27.964018199999984C385.8333333333333,26.905259093749983,386.6666666666667,25.848324806249984,387.5,24.784625474999988C388.3333333333333,23.720926143749992,389.1666666666667,22.64640705000001,390,21.58182221250001C390.8333333333333,20.51723737500001,391.6666666666667,19.447059412499996,392.5,18.397116449999995C393.3333333333333,17.347173487499994,394.1666666666667,16.30675920625001,395,15.282164437500011C395.8333333333333,14.257569668750014,396.6666666666667,13.251828662500008,397.5,12.249547837500007C398.3333333333333,11.247267012500005,399.1666666666667,10.257873250000003,400,9.268479487500002" stroke="#36B7B4" stroke-width="2"/></g><g class="mark-line role-mark layer_1_marks" role="graphics-object" aria-roledescription="line mark container"><path aria-label="year: 1870; population_growth: 0.0%" role="graphics-symbol" aria-roledescription="line mark" d="M27.500000000000004,207.238793271365L30,207.238793271365L32.5,207.238793271365L35,207.238793271365L37.5,207.238793271368L40,207.238793271365L42.5,207.238793271365L45,207.238793271365L47.5,207.238793271368L50,207.23879327136194L52.5,207.238793271365L55.00000000000001,207.238793271365L57.49999999999999,207.238793271365L60,207.238793271365L62.5,207.238793271365L65,207.238793271365L67.5,207.238793271365L70,207.238793271365L72.5,207.238793271365L75,207.238793271365L77.5,207.238793271365L80,207.238793271365L82.5,207.238793271365L85,207.238793271365L87.5,207.238793271365L90,207.238793271368L92.5,207.238793271365L95,207.238793271365L97.5,207.238793271365L100,207.238793271365L102.49999999999999,155.59282574677206L105,155.59282574677206L107.5,155.59282574677206L110.00000000000001,155.59282574677206L112.5,155.59282574677206L114.99999999999999,155.59282574677206L117.5,155.59282574677206L120,155.59282574677206L122.50000000000001,155.59282574677206L125,155.59282574677206L127.49999999999999,155.59282574677206L130,155.59282574677508L132.5,155.59282574677206L135,224.61673117048625L137.5,224.61673117048625L140,224.61673117048625L142.5,224.61673117048625L145,224.61673117048625L147.5,224.61673117048625L150,224.61673117048923L152.5,155.9812019943432L155,155.9812019943462L157.5,155.9812019943462L160,155.9812019943462L162.5,155.9812019943462L165,155.9812019943462L167.5,155.9812019943462L170,155.9812019943462L172.5,155.9812019943462L175,155.9812019943462L177.5,155.9812019943462L180,155.9812019943462L182.5,155.9812019943462L185,155.9812019943462L187.5,155.98120199434925L190,155.9812019943462L192.5,155.9812019943432L195,155.9812019943462L197.5,155.9812019943462L200,155.9812019943462L202.5,170.03782734076194L204.99999999999997,170.03782734076194L207.50000000000003,170.03782734076194L210,170.03782734076194L212.5,170.03782734076194L215,170.03782734076194L217.49999999999997,170.03782734076194L220.00000000000003,170.03782734076194L222.5,170.03782734076194L225,170.03782734076498L227.5,64.25711862385377L229.99999999999997,54.56479650969365L232.50000000000003,49.92368452912117L235,39.299335121490586L237.5,38.27602557819758L240,36.892919721340704L242.49999999999997,22.528126480340504L245.00000000000003,19.120283829187912L247.5,37.15457998687123L250,92.45601835145577L252.5,122.62853070332582L254.99999999999997,64.86188116887183L257.5,15.910570116887545L260,20.018205611649087L262.5,19.73980445056388L265,12.454378870089688L267.5,20.5189000185631L270,19.666430454981466L272.5,15.248598319179807L275,14.829168714686414L277.5,9.12042771771131L280,23.016631142219957L282.5,29.598631530342246L285,36.879632335328026L287.5,46.93177194852357L290,55.21640774349156L292.5,61.41609093564861L295,61.63361113069258L297.5,59.72157412940378L300,61.54622151419478L302.5,59.44531657502894L305,54.478570104523136L307.5,56.683085607305614L310,61.755640799350374L312.5,61.50670089142043L315,58.868075265465095L317.5,56.8634748322146L320,58.61138615088305L322.5,62.92246019664374L325,63.34883847700517L327.5,72.48811228077817L330,85.50979219827012L332.5,86.65022149065304L335,92.66725077968341L337.5,94.63757630651479L340,101.90527402977648L342.5,105.37920580704629L345,110.23524547343719L347.5,115.66486816374484L350,119.5805756135161L352.5,123.0554414281909L355,125.88977565174079L357.5,127.98032316809328L360,128.96408174540827L362.5,129.96493025410842L365,130.40523079898378L367.5,131.48983461005633L370,130.7926272560577L372.5,133.39872407318165L375,135.9091678751395L377.5,140.4193186673697L380,138.55438467879847L382.5,138.56662326079478L385,139.061459914708L387.5,140.62639414816863L390,141.30759403045244L392.5,144.0195026151697L395,149.16128053521567L397.5,154.7549272929395L400,158.72852070273007" stroke="#F4134D" stroke-width="2"/></g></g><path class="foreground" aria-hidden="true" d="" display="none"/></g></g></g><defs><linearGradient id="gradient_0" x1="1" x2="1" y1="0.9" y2="0"><stop offset="0" stop-color="white"/><stop offset="1" stop-color="#36B7B4"/></linearGradient></defs></svg>