<svg xmlns="http://www.w3.org/2000/svg" xmlns:xlink="http://www.w3.org/1999/xlink" version="1.1" class="marks" width="473" height="327" viewBox="0 0 473 327"><rect width="473" height="327" fill="white"/><g fill="none" stroke-miterlimit="10" transform="translate(25,5)"><g class="mark-group role-frame root" role="graphics-object" aria-roledescription="group mark container"><g transform="translate(0,0)"><path class="background" aria-hidden="true" d="M0,0h400v300h-400Z"/><g><g class="mark-group role-axis" aria-hidden="true"><g transform="translate(0.5,0.5)"><path class="background" aria-hidden="true" d="M0,0h0v0h0Z" pointer-events="none"/><g><g class="mark-rule role-axis-grid" pointer-events="none"><line transform="translate(0,300)" x2="400" y2="0" stroke="#ddd" stroke-width="1" opacity="1"/><line transform="translate(0,233)" x2="400" y2="0" stroke="#ddd" stroke-width="1" opacity="1"/><line transform="translate(0,167)" x2="400" y2="0" stroke="#ddd" stroke-width="1" opacity="1"/><line transform="translate(0,100)" x2="400" y2="0" stroke="#ddd" stroke-width="1" opacity="1"/><line transform="translate(0,33)" x2="400" y2="0" stroke="#ddd" stroke-width="1" opacity="1"/></g></g><path class="foreground" aria-hidden="true" d="" pointer-events="none" display="none"/></g></g><g class="mark-group role-axis" role="graphics-symbol" aria-roledescription="axis" aria-label="X-axis for a linear scale with values from 1860 to 2020"><g transform="translate(0.5,300.5)"><path class="background" aria-hidden="true" d="M0,0h0v0h0Z" pointer-events="none"/><g><g class="mark-rule role-axis-tick" pointer-events="none"><line transform="translate(0,0)" x2="0" y2="5" stroke="#676A86" stroke-width="1" opacity="1"/><line transform="translate(50,0)" x2="0" y2="5" stroke="#676A86" stroke-width="1" opacity="1"/><line transform="translate(100,0)" x2="0" y2="5" stroke="#676A86" stroke-width="1" opacity="1"/><line transform="translate(150,0)" x2="0" y2="5" stroke="#676A86" stroke-width="1" opacity="1"/><line transform="translate(200,0)" x2="0" y2="5" stroke="#676A86" stroke-width="1" opacity="1"/><line transform="translate(250,0)" x2="0" y2="5" stroke="#676A86" stroke-width="1" opacity="1"/><line transform="translate(300,0)" x2="0" y2="5" stroke="#676A86" stroke-width="1" opacity="1"/><line transform="translate(350,0)" x2="0" y2="5" stroke="#676A86" stroke-width="1" opacity="1"/><line transform="translate(400,0)" x2="0" y2="5" stroke="#676A86" stroke-width="1" opacity="1"/></g><g class="mark-text role-axis-label" pointer-events="none"><text text-anchor="start" transform="translate(0,15)" font-family="sans-serif" font-size="10px" fill="#676A86" opacity="1">1860</text><text text-anchor="middle" transform="translate(50,15)" font-family="sans-serif" font-size="10px" fill="#676A86" opacity="1">1880</text><text text-anchor="middle" transform="translate(100,15)" font-family="sans-serif" font-size="10px" fill="#676A86" opacity="1">1900</text><text text-anchor="middle" transform="translate(150,15)" font-family="sans-serif" font-size="10px" fill="#676A86" opacity="1">1920</text><text text-anchor="middle" transform="translate(200,15)" font-family="sans-serif" font-size="10px" fill="#676A86" opacity="1">1940</text><text text-anchor="middle" transform="translate(250,15)" font-family="sans-serif" font-size="10px" fill="#676A86" opacity="1">1960</text><text text-anchor="middle" transform="translate(300,15)" font-family="sans-serif" font-size="10px" fill="#676A86" opacity="1">1980</text><text text-anchor="middle" transform="translate(350,15)" font-family="sans-serif" font-size="10px" fill="#676A86" opacity="1">2000</text><text text-anchor="end" transform="translate(400,15)" font-family="sans-serif" font-size="10px" fill="#676A86" opacity="1">2020</text></g><g class="mark-rule role-axis-domain" pointer-events="none"><line transform="translate(0,0)" x2="400" y2="0" stroke="#676A86" stroke-width="1" opacity="1"/></g></g><path class="foreground" aria-hidden="true" d="" pointer-events="none" display="none"/></g></g><g class="mark-group role-axis" role="graphics-symbol" aria-roledescription="axis" aria-label="Y-axis titled 'Index of crude oil prices in 2000 US dollars (average of 1990-2000 = 100) ' for a linear scale with values from 0 to 450"><g transform="translate(0.5,0.5)"><path class="background" aria-hidden="true" d="M0,0h0v0h0Z" pointer-events="none"/><g><g class="mark-text role-axis-label" pointer-events="none"><text text-anchor="end" transform="translate(-2,303)" font-family="sans-serif" font-size="10px" fill="#676A86" opacity="1">0</text><text text-anchor="end" transform="translate(-2,236.33333333333334)" font-family="sans-serif" font-size="10px" fill="#676A86" opacity="1">100</text><text text-anchor="end" transform="translate(-2,169.66666666666669)" font-family="sans-serif" font-size="10px" fill="#676A86" opacity="1">200</text><text text-anchor="end" transform="translate(-2,103.00000000000001)" font-family="sans-serif" font-size="10px" fill="#676A86" opacity="1">300</text><text text-anchor="end" transform="translate(-2,36.33333333333335)" font-family="sans-serif" font-size="10px" fill="#676A86" opacity="1">400</text></g><g class="mark-rule role-axis-domain" pointer-events="none"><line transform="translate(0,300)" x2="0" y2="-300" stroke="#676A86" stroke-width="1" opacity="1"/></g><g class="mark-text role-axis-title" pointer-events="none"><text text-anchor="start" transform="translate(5,23)" font-family="sans-serif" font-size="10px" font-weight="normal" fill="#676A86" opacity="1">Index of crude oil prices in 2000 US dollars (average of 1990-2000 = 100)</text></g></g><path class="foreground" aria-hidden="true" d="" pointer-events="none" display="none"/></g></g><g class="mark-area role-mark layer_0_layer_0_marks" role="graphics-object" aria-roledescription="area mark container"><path aria-label="year: 1861; normalized_2020USD_price_1990_2000_100: 43" role="graphics-symbol" aria-roledescription="area mark" d="M2.5,271.62971122232284C3.3333333333333335,267.18430239519,4.166666666666667,262.7388935680572,5,245.28587164305117C5.833333333333333,227.83284971804514,6.666666666666667,202.47299136527823,7.5,166.91157967228665C8.333333333333334,131.35016797929507,9.166666666666666,31.917401485101728,10,31.917401485101728C10.833333333333334,31.917401485101728,11.666666666666666,53.51165869906076,12.5,76.04589697373117C13.333333333333334,98.58013524840159,14.166666666666666,144.74737964691465,15,167.12283113312424C15.833333333333334,189.49828261933382,16.666666666666668,210.29860589098865,17.5,210.29860589098865C18.333333333333332,210.29860589098865,19.166666666666668,158.3946249428491,20,158.13408147448268C20.833333333333332,157.87353800611626,21.666666666666668,158.0038097402995,22.5,157.74326627193307C23.333333333333332,157.48272280356665,24.166666666666668,148.9061193916684,25,141.20561243772747C25.833333333333336,133.5051054837865,26.666666666666668,111.54022454828737,27.500000000000004,111.54022454828737C28.333333333333336,111.54022454828737,29.166666666666668,123.77129292437783,30,141.93696252437007C30.833333333333332,160.10263212436234,31.666666666666668,203.42011236338772,32.5,220.534242148241C33.333333333333336,237.64837193309427,34.166666666666664,246.2054368255209,35,246.2054368255209C35.833333333333336,246.2054368255209,36.666666666666664,242.8197650173369,37.5,236.0484214009689C38.333333333333336,229.2770777846009,39.166666666666664,174.939135184117,40,174.939135184117C40.833333333333336,174.939135184117,41.666666666666664,177.2188905323232,42.5,181.7784012287356C43.333333333333336,186.33791192514798,44.166666666666664,225.09696150805692,45,235.8524012366807C45.833333333333336,246.60784096530446,46.666666666666664,251.98556082961633,47.5,251.98556082961633C48.333333333333336,251.98556082961633,49.166666666666664,248.78973207970307,50,248.78973207970307C50.833333333333336,248.78973207970307,51.666666666666664,252.11390736575746,52.5,253.64123114583649C53.333333333333336,255.16855492591552,54.16666666666667,257.95367476017725,55.00000000000001,257.95367476017725C55.833333333333336,257.95367476017725,56.666666666666664,244.16925677862363,57.49999999999999,244.16925677862363C58.33333333333333,244.16925677862363,59.166666666666664,251.3652192382677,60,251.3652192382677C60.833333333333336,251.3652192382677,61.666666666666664,249.04927729723286,62.5,249.04927729723286C63.333333333333336,249.04927729723286,64.16666666666667,257.34806925260773,65,258.892030546631C65.83333333333333,260.4359918406543,66.66666666666667,261.2079724876659,67.5,261.2079724876659C68.33333333333333,261.2079724876659,69.16666666666667,251.36521923826774,70,249.04927729723286C70.83333333333333,246.73333535619798,71.66666666666667,245.57536438568053,72.5,245.57536438568053C73.33333333333333,245.57536438568053,74.16666666666667,247.02282809882732,75,249.62826278249156C75.83333333333333,252.2336974661558,76.66666666666667,258.2165474804959,77.5,261.2079724876659C78.33333333333333,264.199397494836,79.16666666666667,267.5768128255118,80,267.5768128255118C80.83333333333333,267.5768128255118,81.66666666666667,265.95862262312204,82.5,262.94492894344205C83.33333333333333,259.93123526376206,84.16666666666667,257.4923702504723,85,249.49465074743188C85.83333333333333,241.49693124439145,86.66666666666667,214.95861192519953,87.5,214.95861192519953C88.33333333333333,214.95861192519953,89.16666666666667,220.2736986798746,90,226.21408975862903C90.83333333333333,232.15448083738346,91.66666666666667,250.6009583977262,92.5,250.6009583977262C93.33333333333333,250.6009583977262,94.16666666666667,248.09974110140854,95,243.09730650877322C95.83333333333333,238.0948719161379,96.66666666666667,219.33574219375544,97.5,219.33574219375544C98.33333333333333,219.33574219375544,99.16666666666667,222.14961165211278,100,225.58878543454958C100.83333333333333,229.02795921698635,101.66666666666666,235.58563789771665,102.49999999999999,239.97078488837613C103.33333333333333,244.35593187903564,104.16666666666666,251.8996673785065,105,251.8996673785065C105.83333333333333,251.8996673785065,106.66666666666667,245.57536438568053,107.5,245.57536438568053C108.33333333333334,245.57536438568053,109.16666666666667,247.1193256797038,110.00000000000001,250.2072482677503C110.83333333333334,253.29517085579675,111.66666666666667,264.1028999139595,112.5,264.1028999139595C113.33333333333333,264.1028999139595,114.16666666666666,257.7340595761136,114.99999999999999,257.7340595761136C115.83333333333333,257.7340595761136,116.66666666666666,259.80186488060906,117.5,259.80186488060906C118.33333333333333,259.80186488060906,119.16666666666667,258.3130450613723,120,258.3130450613723C120.83333333333334,258.3130450613723,121.66666666666667,258.69903538487813,122.50000000000001,259.47101603188975C123.33333333333334,260.24299667890136,124.16666666666667,265.9432466349604,125,265.9432466349604C125.83333333333333,265.9432466349604,126.66666666666666,265.9432466349604,127.49999999999999,265.9432466349604C128.33333333333331,265.9432466349604,129.16666666666666,262.7676529912923,130,260.1098965673477C130.83333333333334,257.452140143403,131.66666666666666,249.99670809129256,132.5,249.99670809129256C133.33333333333334,249.99670809129256,134.16666666666666,255.08693001901048,135,257.93678049475255C135.83333333333334,260.7866309704946,136.66666666666666,267.09581094574503,137.5,267.09581094574503C138.33333333333334,267.09581094574503,139.16666666666666,252.51542840710266,140,247.41614407970837C140.83333333333334,242.3168597523141,141.66666666666666,239.17277292050974,142.5,236.50010498137925C143.33333333333334,233.82743704224876,144.16666666666666,231.3801364449254,145,231.3801364449254C145.83333333333334,231.3801364449254,146.66666666666666,239.32741698184557,147.5,239.32741698184557C148.33333333333334,239.32741698184557,149.16666666666666,219.99896380701207,150,219.99896380701207C150.83333333333334,219.99896380701207,151.66666666666666,249.31217916588395,152.5,249.53235804447579C153.33333333333334,249.75253692306762,154.16666666666666,249.64244748377172,155,249.86262636236356C155.83333333333334,250.0828052409554,156.66666666666666,259.0056735609009,157.5,259.0056735609009C158.33333333333334,259.0056735609009,159.16666666666666,257.8473926754666,160,256.34195485026925C160.83333333333334,254.8365170250719,161.66666666666666,251.93875161386526,162.5,249.97304660971685C163.33333333333334,248.00734160556843,164.16666666666666,244.54772482537874,165,244.54772482537874C165.83333333333334,244.54772482537874,166.66666666666666,258.634576564356,167.5,260.9219924042771C168.33333333333334,263.2094082441982,169.16666666666666,264.35311616415873,170,264.35311616415873C170.83333333333334,264.35311616415873,171.66666666666666,261.30637395596716,172.5,261.30637395596716C173.33333333333334,261.30637395596716,174.16666666666666,261.8018373711252,175,262.7927642014413C175.83333333333334,263.78369103175737,176.66666666666666,277.71772685918944,177.5,277.71772685918944C178.33333333333334,277.71772685918944,179.16666666666666,266.7496638411045,180,266.7496638411045C180.83333333333334,266.7496638411045,181.66666666666666,273.0110768739686,182.5,273.0110768739686C183.33333333333334,273.0110768739686,184.16666666666666,261.01339989380796,185,261.01339989380796C185.83333333333334,261.01339989380796,186.66666666666666,263.1101832379436,187.5,263.1101832379436C188.33333333333334,263.1101832379436,189.16666666666666,259.93600157839563,190,258.93364445915057C190.83333333333334,257.9312873399055,191.66666666666666,257.0960405224733,192.5,257.0960405224733C193.33333333333334,257.0960405224733,194.16666666666666,257.44232691471694,195,258.1348996992043C195.83333333333334,258.8274724836917,196.66666666666666,261.42175632418065,197.5,261.6668328618257C198.33333333333334,261.91190939947074,199.16666666666666,262.03444766829324,200,262.03444766829324C200.83333333333334,262.03444766829324,201.66666666666666,259.5805483207733,202.5,259.5805483207733C203.33333333333331,259.5805483207733,204.16666666666666,261.1857683026376,204.99999999999997,261.8852706453789C205.83333333333331,262.5847729881202,206.66666666666669,263.5616665924245,207.50000000000003,263.7775623772212C208.33333333333334,263.99345816201793,209.16666666666669,263.8855102696196,210,264.1014060544163C210.83333333333334,264.31730183921303,211.66666666666666,269.19933232768045,212.5,269.55033708747897C213.33333333333334,269.9013418472775,214.16666666666666,270.0768442271767,215,270.0768442271767C215.83333333333331,270.0768442271767,216.66666666666666,255.59894254251122,217.49999999999997,255.59894254251122C218.33333333333331,255.59894254251122,219.16666666666669,256.0169968722494,220.00000000000003,256.8531055317258C220.83333333333334,257.68921419120215,221.66666666666669,260.003982634181,222.5,261.0158026049613C223.33333333333334,262.02762257574165,224.16666666666666,262.151954172454,225,262.92402535640764C225.83333333333334,263.6960965403613,226.66666666666666,265.1659115610672,227.5,265.6482297086832C228.33333333333331,266.13054785629913,229.16666666666666,266.3717069301071,229.99999999999997,266.3717069301071C230.83333333333331,266.3717069301071,231.66666666666669,262.34768807670275,232.50000000000003,262.34768807670275C233.33333333333334,262.34768807670275,234.16666666666669,262.5291450016343,235,262.5291450016343C235.83333333333334,262.5291450016343,236.66666666666666,262.37793089752466,237.5,262.37793089752466C238.33333333333334,262.37793089752466,239.16666666666666,262.55938782245624,240,262.92230167231935C240.83333333333331,263.28521552218245,241.66666666666666,264.7788661339679,242.49999999999997,264.7788661339679C243.33333333333331,264.7788661339679,244.16666666666669,262.4416549759405,245.00000000000003,262.4416549759405C245.83333333333334,262.4416549759405,246.66666666666669,262.5502993063543,247.5,262.76758796718195C248.33333333333334,262.9848766280096,249.16666666666666,265.5538623575865,250,266.5255326767748C250.83333333333334,267.49720299596305,251.66666666666666,268.3719639652983,252.5,268.5976098823116C253.33333333333331,268.8232557993249,254.16666666666666,268.8185548427204,254.99999999999997,268.9360787578315C255.83333333333331,269.05360267294265,256.66666666666663,269.17112658805377,257.5,269.3027533729782C258.3333333333333,269.43438015790264,259.1666666666667,269.5707078994315,260,269.7258394673782C260.8333333333333,269.8809710353249,261.6666666666667,270.0141648057841,262.5,270.2335427806582C263.3333333333333,270.45292075553226,264.1666666666667,270.77101881909965,265,271.0421073166226C265.8333333333333,271.31319581414556,266.6666666666667,271.5357077600893,267.5,271.86007376579596C268.3333333333333,272.18443977150264,269.1666666666667,272.569918213067,270,272.98830335086257C270.8333333333333,273.4066884886581,271.6666666666667,273.9018559176596,272.5,274.3703845925692C273.3333333333333,274.83891326747886,274.1666666666667,275.7994754003203,275,275.7994754003203C275.8333333333333,275.7994754003203,276.6666666666667,272.2760561924381,277.5,271.14740874456214C278.3333333333333,270.0187612966862,279.1666666666667,270.440802734063,280,269.02759071306474C280.8333333333333,267.61437869206645,281.6666666666667,266.45754291551424,282.5,261.3174473204132C283.3333333333333,256.1773517253121,284.1666666666667,177.27463310462628,285,177.27463310462628C285.8333333333333,177.27463310462628,286.6666666666667,188.04269653561775,287.5,188.04269653561775C288.3333333333333,188.04269653561775,289.1666666666667,183.85347387946786,290,182.53040705409737C290.8333333333333,181.20734022872688,291.6666666666667,180.10429558339487,292.5,180.10429558339487C293.3333333333333,180.10429558339487,294.1666666666667,187.68334765795808,295,187.68334765795808C295.8333333333333,187.68334765795808,296.6666666666667,76.6061534927354,297.5,72.57845383151692C298.3333333333333,68.55075417029845,299.1666666666667,66.5369043396892,300,66.5369043396892C300.8333333333333,66.5369043396892,301.6666666666667,84.37189550331334,302.5,93.53945630401353C303.3333333333333,102.70701710471371,304.1666666666667,112.96016968908022,305,121.54226914389035C305.8333333333333,130.1243685987005,306.6666666666667,139.40301281478023,307.5,145.03205303287436C308.3333333333333,150.6610932509685,309.1666666666667,151.78618623648418,310,155.3165104524551C310.8333333333333,158.84683466842603,311.6666666666667,158.94900641120333,312.5,166.2139983286998C313.3333333333333,173.47899024619628,314.1666666666667,231.22992315274493,315,231.22992315274493C315.8333333333333,231.22992315274493,316.6666666666667,215.23638489831413,317.5,215.23638489831413C318.3333333333333,215.23638489831413,319.1666666666667,234.10694825035,320,234.10694825035C320.8333333333333,234.10694825035,321.6666666666667,228.0464297291175,322.5,223.2256562698534C323.3333333333333,218.4048828105893,324.1666666666667,205.18230749476538,325,205.18230749476538C325.8333333333333,205.18230749476538,326.6666666666667,220.1139984480916,327.5,223.29627130937052C328.3333333333333,226.47854417064946,329.1666666666667,225.51037224712155,330,228.06968060128892C330.8333333333333,230.6289889554563,331.6666666666667,235.95522979091834,332.5,238.65212143437483C333.3333333333333,241.34901307783133,334.1666666666667,244.25103046202793,335,244.25103046202793C335.8333333333333,244.25103046202793,336.6666666666667,243.39330076814605,337.5,241.67784138038232C338.3333333333333,239.9623819926186,339.1666666666667,231.19349414583073,340,231.19349414583073C340.8333333333333,231.19349414583073,341.6666666666667,233.41746372553413,342.5,237.86540288494095C343.3333333333333,242.31334204434776,344.1666666666667,259.25305193749153,345,259.25305193749153C345.8333333333333,259.25305193749153,346.6666666666667,251.27431769645008,347.5,243.65975989391464C348.3333333333333,236.0452020913792,349.1666666666667,213.5657051222788,350,213.5657051222788C350.8333333333333,213.5657051222788,351.6666666666667,227.9065994902062,352.5,227.9065994902062C353.3333333333333,227.9065994902062,354.1666666666667,227.7199083412348,355,227.34652604329202C355.8333333333333,226.97314374534923,356.6666666666667,223.68262550911743,357.5,218.1570747184517C358.3333333333333,212.63152392778596,359.1666666666667,204.85544712203117,360,194.19322129929756C360.8333333333333,183.53099547656396,361.6666666666667,164.6797140111027,362.5,154.18371978205013C363.3333333333333,143.68772555299756,364.1666666666667,137.30786983867802,365,131.21725592498208C365.8333333333333,125.12664201128615,366.6666666666667,126.69151604994623,367.5,117.64003629987451C368.3333333333333,108.58855654980279,369.1666666666667,64.05545906093923,370,64.05545906093923C370.8333333333333,64.05545906093923,371.6666666666667,149.85032901858887,372.5,149.85032901858887C373.3333333333333,149.85032901858887,374.1666666666667,127.61006328189941,375,109.5774308302629C375.8333333333333,91.54479837862638,376.6666666666667,41.65453430876976,377.5,41.65453430876976C378.3333333333333,41.65453430876976,379.1666666666667,43.49788965555221,380,45.950375724068124C380.8333333333333,48.40286179258404,381.6666666666667,50.413188037491686,382.5,56.36945071986528C383.3333333333333,62.32571340223887,384.1666666666667,64.80895108601341,385,81.68795181830968C385.8333333333333,98.56695255060596,386.6666666666667,171.0395582562965,387.5,184.55217220480537C388.3333333333333,198.06478615331426,389.1666666666667,204.8210931275687,390,204.8210931275687C390.8333333333333,204.8210931275687,391.6666666666667,193.379717169128,392.5,184.52081929598805C393.3333333333333,175.66192142284808,394.1666666666667,151.66770588872896,395,151.66770588872896C395.8333333333333,151.66770588872896,396.6666666666667,158.1633317435477,397.5,168.81245931701272C398.3333333333333,179.46158689047775,399.1666666666667,197.5120291099984,400,215.56247132951904L400,300C399.1666666666667,300,398.3333333333333,300,397.5,300C396.6666666666667,300,395.8333333333333,300,395,300C394.1666666666667,300,393.3333333333333,300,392.5,300C391.6666666666667,300,390.8333333333333,300,390,300C389.1666666666667,300,388.3333333333333,300,387.5,300C386.6666666666667,300,385.8333333333333,300,385,300C384.1666666666667,300,383.3333333333333,300,382.5,300C381.6666666666667,300,380.8333333333333,300,380,300C379.1666666666667,300,378.3333333333333,300,377.5,300C376.6666666666667,300,375.8333333333333,300,375,300C374.1666666666667,300,373.3333333333333,300,372.5,300C371.6666666666667,300,370.8333333333333,300,370,300C369.1666666666667,300,368.3333333333333,300,367.5,300C366.6666666666667,300,365.8333333333333,300,365,300C364.1666666666667,300,363.3333333333333,300,362.5,300C361.6666666666667,300,360.8333333333333,300,360,300C359.1666666666667,300,358.3333333333333,300,357.5,300C356.6666666666667,300,355.8333333333333,300,355,300C354.1666666666667,300,353.3333333333333,300,352.5,300C351.6666666666667,300,350.8333333333333,300,350,300C349.1666666666667,300,348.3333333333333,300,347.5,300C346.6666666666667,300,345.8333333333333,300,345,300C344.1666666666667,300,343.3333333333333,300,342.5,300C341.6666666666667,300,340.8333333333333,300,340,300C339.1666666666667,300,338.3333333333333,300,337.5,300C336.6666666666667,300,335.8333333333333,300,335,300C334.1666666666667,300,333.3333333333333,300,332.5,300C331.6666666666667,300,330.8333333333333,300,330,300C329.1666666666667,300,328.3333333333333,300,327.5,300C326.6666666666667,300,325.8333333333333,300,325,300C324.1666666666667,300,323.3333333333333,300,322.5,300C321.6666666666667,300,320.8333333333333,300,320,300C319.1666666666667,300,318.3333333333333,300,317.5,300C316.6666666666667,300,315.8333333333333,300,315,300C314.1666666666667,300,313.3333333333333,300,312.5,300C311.6666666666667,300,310.8333333333333,300,310,300C309.1666666666667,300,308.3333333333333,300,307.5,300C306.6666666666667,300,305.8333333333333,300,305,300C304.1666666666667,300,303.3333333333333,300,302.5,300C301.6666666666667,300,300.8333333333333,300,300,300C299.1666666666667,300,298.3333333333333,300,297.5,300C296.6666666666667,300,295.8333333333333,300,295,300C294.1666666666667,300,293.3333333333333,300,292.5,300C291.6666666666667,300,290.8333333333333,300,290,300C289.1666666666667,300,288.3333333333333,300,287.5,300C286.6666666666667,300,285.8333333333333,300,285,300C284.1666666666667,300,283.3333333333333,300,282.5,300C281.6666666666667,300,280.8333333333333,300,280,300C279.1666666666667,300,278.3333333333333,300,277.5,300C276.6666666666667,300,275.8333333333333,300,275,300C274.1666666666667,300,273.3333333333333,300,272.5,300C271.6666666666667,300,270.8333333333333,300,270,300C269.1666666666667,300,268.3333333333333,300,267.5,300C266.6666666666667,300,265.8333333333333,300,265,300C264.1666666666667,300,263.3333333333333,300,262.5,300C261.6666666666667,300,260.8333333333333,300,260,300C259.1666666666667,300,258.3333333333333,300,257.5,300C256.66666666666663,300,255.83333333333331,300,254.99999999999997,300C254.16666666666666,300,253.33333333333331,300,252.5,300C251.66666666666666,300,250.83333333333334,300,250,300C249.16666666666666,300,248.33333333333334,300,247.5,300C246.66666666666669,300,245.83333333333334,300,245.00000000000003,300C244.16666666666669,300,243.33333333333331,300,242.49999999999997,300C241.66666666666666,300,240.83333333333331,300,240,300C239.16666666666666,300,238.33333333333334,300,237.5,300C236.66666666666666,300,235.83333333333334,300,235,300C234.16666666666669,300,233.33333333333334,300,232.50000000000003,300C231.66666666666669,300,230.83333333333331,300,229.99999999999997,300C229.16666666666666,300,228.33333333333331,300,227.5,300C226.66666666666666,300,225.83333333333334,300,225,300C224.16666666666666,300,223.33333333333334,300,222.5,300C221.66666666666669,300,220.83333333333334,300,220.00000000000003,300C219.16666666666669,300,218.33333333333331,300,217.49999999999997,300C216.66666666666666,300,215.83333333333331,300,215,300C214.16666666666666,300,213.33333333333334,300,212.5,300C211.66666666666666,300,210.83333333333334,300,210,300C209.16666666666669,300,208.33333333333334,300,207.50000000000003,300C206.66666666666669,300,205.83333333333331,300,204.99999999999997,300C204.16666666666666,300,203.33333333333331,300,202.5,300C201.66666666666666,300,200.83333333333334,300,200,300C199.16666666666666,300,198.33333333333334,300,197.5,300C196.66666666666666,300,195.83333333333334,300,195,300C194.16666666666666,300,193.33333333333334,300,192.5,300C191.66666666666666,300,190.83333333333334,300,190,300C189.16666666666666,300,188.33333333333334,300,187.5,300C186.66666666666666,300,185.83333333333334,300,185,300C184.16666666666666,300,183.33333333333334,300,182.5,300C181.66666666666666,300,180.83333333333334,300,180,300C179.16666666666666,300,178.33333333333334,300,177.5,300C176.66666666666666,300,175.83333333333334,300,175,300C174.16666666666666,300,173.33333333333334,300,172.5,300C171.66666666666666,300,170.83333333333334,300,170,300C169.16666666666666,300,168.33333333333334,300,167.5,300C166.66666666666666,300,165.83333333333334,300,165,300C164.16666666666666,300,163.33333333333334,300,162.5,300C161.66666666666666,300,160.83333333333334,300,160,300C159.16666666666666,300,158.33333333333334,300,157.5,300C156.66666666666666,300,155.83333333333334,300,155,300C154.16666666666666,300,153.33333333333334,300,152.5,300C151.66666666666666,300,150.83333333333334,300,150,300C149.16666666666666,300,148.33333333333334,300,147.5,300C146.66666666666666,300,145.83333333333334,300,145,300C144.16666666666666,300,143.33333333333334,300,142.5,300C141.66666666666666,300,140.83333333333334,300,140,300C139.16666666666666,300,138.33333333333334,300,137.5,300C136.66666666666666,300,135.83333333333334,300,135,300C134.16666666666666,300,133.33333333333334,300,132.5,300C131.66666666666666,300,130.83333333333334,300,130,300C129.16666666666666,300,128.33333333333331,300,127.49999999999999,300C126.66666666666666,300,125.83333333333333,300,125,300C124.16666666666667,300,123.33333333333334,300,122.50000000000001,300C121.66666666666667,300,120.83333333333334,300,120,300C119.16666666666667,300,118.33333333333333,300,117.5,300C116.66666666666666,300,115.83333333333333,300,114.99999999999999,300C114.16666666666666,300,113.33333333333333,300,112.5,300C111.66666666666667,300,110.83333333333334,300,110.00000000000001,300C109.16666666666667,300,108.33333333333334,300,107.5,300C106.66666666666667,300,105.83333333333333,300,105,300C104.16666666666666,300,103.33333333333333,300,102.49999999999999,300C101.66666666666666,300,100.83333333333333,300,100,300C99.16666666666667,300,98.33333333333333,300,97.5,300C96.66666666666667,300,95.83333333333333,300,95,300C94.16666666666667,300,93.33333333333333,300,92.5,300C91.66666666666667,300,90.83333333333333,300,90,300C89.16666666666667,300,88.33333333333333,300,87.5,300C86.66666666666667,300,85.83333333333333,300,85,300C84.16666666666667,300,83.33333333333333,300,82.5,300C81.66666666666667,300,80.83333333333333,300,80,300C79.16666666666667,300,78.33333333333333,300,77.5,300C76.66666666666667,300,75.83333333333333,300,75,300C74.16666666666667,300,73.33333333333333,300,72.5,300C71.66666666666667,300,70.83333333333333,300,70,300C69.16666666666667,300,68.33333333333333,300,67.5,300C66.66666666666667,300,65.83333333333333,300,65,300C64.16666666666667,300,63.333333333333336,300,62.5,300C61.666666666666664,300,60.833333333333336,300,60,300C59.166666666666664,300,58.33333333333333,300,57.49999999999999,300C56.666666666666664,300,55.833333333333336,300,55.00000000000001,300C54.16666666666667,300,53.333333333333336,300,52.5,300C51.666666666666664,300,50.833333333333336,300,50,300C49.166666666666664,300,48.333333333333336,300,47.5,300C46.666666666666664,300,45.833333333333336,300,45,300C44.166666666666664,300,43.333333333333336,300,42.5,300C41.666666666666664,300,40.833333333333336,300,40,300C39.166666666666664,300,38.333333333333336,300,37.5,300C36.666666666666664,300,35.833333333333336,300,35,300C34.166666666666664,300,33.333333333333336,300,32.5,300C31.666666666666668,300,30.833333333333332,300,30,300C29.166666666666668,300,28.333333333333336,300,27.500000000000004,300C26.666666666666668,300,25.833333333333336,300,25,300C24.166666666666668,300,23.333333333333332,300,22.5,300C21.666666666666668,300,20.833333333333332,300,20,300C19.166666666666668,300,18.333333333333332,300,17.5,300C16.666666666666668,300,15.833333333333334,300,15,300C14.166666666666666,300,13.333333333333334,300,12.5,300C11.666666666666666,300,10.833333333333334,300,10,300C9.166666666666666,300,8.333333333333334,300,7.5,300C6.666666666666667,300,5.833333333333333,300,5,300C4.166666666666667,300,3.3333333333333335,300,2.5,300Z" fill="url(#gradient_0)" fill-opacity="0.7"/></g><g class="mark-line role-mark layer_0_layer_1_marks" role="graphics-object" aria-roledescription="line mark container"><path aria-label="year: 1861; normalized_2020USD_price_1990_2000_100: 43" role="graphics-symbol" aria-roledescription="line mark" d="M2.5,271.62971122232284C3.3333333333333335,267.18430239519,4.166666666666667,262.7388935680572,5,245.28587164305117C5.833333333333333,227.83284971804514,6.666666666666667,202.47299136527823,7.5,166.91157967228665C8.333333333333334,131.35016797929507,9.166666666666666,31.917401485101728,10,31.917401485101728C10.833333333333334,31.917401485101728,11.666666666666666,53.51165869906076,12.5,76.04589697373117C13.333333333333334,98.58013524840159,14.166666666666666,144.74737964691465,15,167.12283113312424C15.833333333333334,189.49828261933382,16.666666666666668,210.29860589098865,17.5,210.29860589098865C18.333333333333332,210.29860589098865,19.166666666666668,158.3946249428491,20,158.13408147448268C20.833333333333332,157.87353800611626,21.666666666666668,158.0038097402995,22.5,157.74326627193307C23.333333333333332,157.48272280356665,24.166666666666668,148.9061193916684,25,141.20561243772747C25.833333333333336,133.5051054837865,26.666666666666668,111.54022454828737,27.500000000000004,111.54022454828737C28.333333333333336,111.54022454828737,29.166666666666668,123.77129292437783,30,141.93696252437007C30.833333333333332,160.10263212436234,31.666666666666668,203.42011236338772,32.5,220.534242148241C33.333333333333336,237.64837193309427,34.166666666666664,246.2054368255209,35,246.2054368255209C35.833333333333336,246.2054368255209,36.666666666666664,242.8197650173369,37.5,236.0484214009689C38.333333333333336,229.2770777846009,39.166666666666664,174.939135184117,40,174.939135184117C40.833333333333336,174.939135184117,41.666666666666664,177.2188905323232,42.5,181.7784012287356C43.333333333333336,186.33791192514798,44.166666666666664,225.09696150805692,45,235.8524012366807C45.833333333333336,246.60784096530446,46.666666666666664,251.98556082961633,47.5,251.98556082961633C48.333333333333336,251.98556082961633,49.166666666666664,248.78973207970307,50,248.78973207970307C50.833333333333336,248.78973207970307,51.666666666666664,252.11390736575746,52.5,253.64123114583649C53.333333333333336,255.16855492591552,54.16666666666667,257.95367476017725,55.00000000000001,257.95367476017725C55.833333333333336,257.95367476017725,56.666666666666664,244.16925677862363,57.49999999999999,244.16925677862363C58.33333333333333,244.16925677862363,59.166666666666664,251.3652192382677,60,251.3652192382677C60.833333333333336,251.3652192382677,61.666666666666664,249.04927729723286,62.5,249.04927729723286C63.333333333333336,249.04927729723286,64.16666666666667,257.34806925260773,65,258.892030546631C65.83333333333333,260.4359918406543,66.66666666666667,261.2079724876659,67.5,261.2079724876659C68.33333333333333,261.2079724876659,69.16666666666667,251.36521923826774,70,249.04927729723286C70.83333333333333,246.73333535619798,71.66666666666667,245.57536438568053,72.5,245.57536438568053C73.33333333333333,245.57536438568053,74.16666666666667,247.02282809882732,75,249.62826278249156C75.83333333333333,252.2336974661558,76.66666666666667,258.2165474804959,77.5,261.2079724876659C78.33333333333333,264.199397494836,79.16666666666667,267.5768128255118,80,267.5768128255118C80.83333333333333,267.5768128255118,81.66666666666667,265.95862262312204,82.5,262.94492894344205C83.33333333333333,259.93123526376206,84.16666666666667,257.4923702504723,85,249.49465074743188C85.83333333333333,241.49693124439145,86.66666666666667,214.95861192519953,87.5,214.95861192519953C88.33333333333333,214.95861192519953,89.16666666666667,220.2736986798746,90,226.21408975862903C90.83333333333333,232.15448083738346,91.66666666666667,250.6009583977262,92.5,250.6009583977262C93.33333333333333,250.6009583977262,94.16666666666667,248.09974110140854,95,243.09730650877322C95.83333333333333,238.0948719161379,96.66666666666667,219.33574219375544,97.5,219.33574219375544C98.33333333333333,219.33574219375544,99.16666666666667,222.14961165211278,100,225.58878543454958C100.83333333333333,229.02795921698635,101.66666666666666,235.58563789771665,102.49999999999999,239.97078488837613C103.33333333333333,244.35593187903564,104.16666666666666,251.8996673785065,105,251.8996673785065C105.83333333333333,251.8996673785065,106.66666666666667,245.57536438568053,107.5,245.57536438568053C108.33333333333334,245.57536438568053,109.16666666666667,247.1193256797038,110.00000000000001,250.2072482677503C110.83333333333334,253.29517085579675,111.66666666666667,264.1028999139595,112.5,264.1028999139595C113.33333333333333,264.1028999139595,114.16666666666666,257.7340595761136,114.99999999999999,257.7340595761136C115.83333333333333,257.7340595761136,116.66666666666666,259.80186488060906,117.5,259.80186488060906C118.33333333333333,259.80186488060906,119.16666666666667,258.3130450613723,120,258.3130450613723C120.83333333333334,258.3130450613723,121.66666666666667,258.69903538487813,122.50000000000001,259.47101603188975C123.33333333333334,260.24299667890136,124.16666666666667,265.9432466349604,125,265.9432466349604C125.83333333333333,265.9432466349604,126.66666666666666,265.9432466349604,127.49999999999999,265.9432466349604C128.33333333333331,265.9432466349604,129.16666666666666,262.7676529912923,130,260.1098965673477C130.83333333333334,257.452140143403,131.66666666666666,249.99670809129256,132.5,249.99670809129256C133.33333333333334,249.99670809129256,134.16666666666666,255.08693001901048,135,257.93678049475255C135.83333333333334,260.7866309704946,136.66666666666666,267.09581094574503,137.5,267.09581094574503C138.33333333333334,267.09581094574503,139.16666666666666,252.51542840710266,140,247.41614407970837C140.83333333333334,242.3168597523141,141.66666666666666,239.17277292050974,142.5,236.50010498137925C143.33333333333334,233.82743704224876,144.16666666666666,231.3801364449254,145,231.3801364449254C145.83333333333334,231.3801364449254,146.66666666666666,239.32741698184557,147.5,239.32741698184557C148.33333333333334,239.32741698184557,149.16666666666666,219.99896380701207,150,219.99896380701207C150.83333333333334,219.99896380701207,151.66666666666666,249.31217916588395,152.5,249.53235804447579C153.33333333333334,249.75253692306762,154.16666666666666,249.64244748377172,155,249.86262636236356C155.83333333333334,250.0828052409554,156.66666666666666,259.0056735609009,157.5,259.0056735609009C158.33333333333334,259.0056735609009,159.16666666666666,257.8473926754666,160,256.34195485026925C160.83333333333334,254.8365170250719,161.66666666666666,251.93875161386526,162.5,249.97304660971685C163.33333333333334,248.00734160556843,164.16666666666666,244.54772482537874,165,244.54772482537874C165.83333333333334,244.54772482537874,166.66666666666666,258.634576564356,167.5,260.9219924042771C168.33333333333334,263.2094082441982,169.16666666666666,264.35311616415873,170,264.35311616415873C170.83333333333334,264.35311616415873,171.66666666666666,261.30637395596716,172.5,261.30637395596716C173.33333333333334,261.30637395596716,174.16666666666666,261.8018373711252,175,262.7927642014413C175.83333333333334,263.78369103175737,176.66666666666666,277.71772685918944,177.5,277.71772685918944C178.33333333333334,277.71772685918944,179.16666666666666,266.7496638411045,180,266.7496638411045C180.83333333333334,266.7496638411045,181.66666666666666,273.0110768739686,182.5,273.0110768739686C183.33333333333334,273.0110768739686,184.16666666666666,261.01339989380796,185,261.01339989380796C185.83333333333334,261.01339989380796,186.66666666666666,263.1101832379436,187.5,263.1101832379436C188.33333333333334,263.1101832379436,189.16666666666666,259.93600157839563,190,258.93364445915057C190.83333333333334,257.9312873399055,191.66666666666666,257.0960405224733,192.5,257.0960405224733C193.33333333333334,257.0960405224733,194.16666666666666,257.44232691471694,195,258.1348996992043C195.83333333333334,258.8274724836917,196.66666666666666,261.42175632418065,197.5,261.6668328618257C198.33333333333334,261.91190939947074,199.16666666666666,262.03444766829324,200,262.03444766829324C200.83333333333334,262.03444766829324,201.66666666666666,259.5805483207733,202.5,259.5805483207733C203.33333333333331,259.5805483207733,204.16666666666666,261.1857683026376,204.99999999999997,261.8852706453789C205.83333333333331,262.5847729881202,206.66666666666669,263.5616665924245,207.50000000000003,263.7775623772212C208.33333333333334,263.99345816201793,209.16666666666669,263.8855102696196,210,264.1014060544163C210.83333333333334,264.31730183921303,211.66666666666666,269.19933232768045,212.5,269.55033708747897C213.33333333333334,269.9013418472775,214.16666666666666,270.0768442271767,215,270.0768442271767C215.83333333333331,270.0768442271767,216.66666666666666,255.59894254251122,217.49999999999997,255.59894254251122C218.33333333333331,255.59894254251122,219.16666666666669,256.0169968722494,220.00000000000003,256.8531055317258C220.83333333333334,257.68921419120215,221.66666666666669,260.003982634181,222.5,261.0158026049613C223.33333333333334,262.02762257574165,224.16666666666666,262.151954172454,225,262.92402535640764C225.83333333333334,263.6960965403613,226.66666666666666,265.1659115610672,227.5,265.6482297086832C228.33333333333331,266.13054785629913,229.16666666666666,266.3717069301071,229.99999999999997,266.3717069301071C230.83333333333331,266.3717069301071,231.66666666666669,262.34768807670275,232.50000000000003,262.34768807670275C233.33333333333334,262.34768807670275,234.16666666666669,262.5291450016343,235,262.5291450016343C235.83333333333334,262.5291450016343,236.66666666666666,262.37793089752466,237.5,262.37793089752466C238.33333333333334,262.37793089752466,239.16666666666666,262.55938782245624,240,262.92230167231935C240.83333333333331,263.28521552218245,241.66666666666666,264.7788661339679,242.49999999999997,264.7788661339679C243.33333333333331,264.7788661339679,244.16666666666669,262.4416549759405,245.00000000000003,262.4416549759405C245.83333333333334,262.4416549759405,246.66666666666669,262.5502993063543,247.5,262.76758796718195C248.33333333333334,262.9848766280096,249.16666666666666,265.5538623575865,250,266.5255326767748C250.83333333333334,267.49720299596305,251.66666666666666,268.3719639652983,252.5,268.5976098823116C253.33333333333331,268.8232557993249,254.16666666666666,268.8185548427204,254.99999999999997,268.9360787578315C255.83333333333331,269.05360267294265,256.66666666666663,269.17112658805377,257.5,269.3027533729782C258.3333333333333,269.43438015790264,259.1666666666667,269.5707078994315,260,269.7258394673782C260.8333333333333,269.8809710353249,261.6666666666667,270.0141648057841,262.5,270.2335427806582C263.3333333333333,270.45292075553226,264.1666666666667,270.77101881909965,265,271.0421073166226C265.8333333333333,271.31319581414556,266.6666666666667,271.5357077600893,267.5,271.86007376579596C268.3333333333333,272.18443977150264,269.1666666666667,272.569918213067,270,272.98830335086257C270.8333333333333,273.4066884886581,271.6666666666667,273.9018559176596,272.5,274.3703845925692C273.3333333333333,274.83891326747886,274.1666666666667,275.7994754003203,275,275.7994754003203C275.8333333333333,275.7994754003203,276.6666666666667,272.2760561924381,277.5,271.14740874456214C278.3333333333333,270.0187612966862,279.1666666666667,270.440802734063,280,269.02759071306474C280.8333333333333,267.61437869206645,281.6666666666667,266.45754291551424,282.5,261.3174473204132C283.3333333333333,256.1773517253121,284.1666666666667,177.27463310462628,285,177.27463310462628C285.8333333333333,177.27463310462628,286.6666666666667,188.04269653561775,287.5,188.04269653561775C288.3333333333333,188.04269653561775,289.1666666666667,183.85347387946786,290,182.53040705409737C290.8333333333333,181.20734022872688,291.6666666666667,180.10429558339487,292.5,180.10429558339487C293.3333333333333,180.10429558339487,294.1666666666667,187.68334765795808,295,187.68334765795808C295.8333333333333,187.68334765795808,296.6666666666667,76.6061534927354,297.5,72.57845383151692C298.3333333333333,68.55075417029845,299.1666666666667,66.5369043396892,300,66.5369043396892C300.8333333333333,66.5369043396892,301.6666666666667,84.37189550331334,302.5,93.53945630401353C303.3333333333333,102.70701710471371,304.1666666666667,112.96016968908022,305,121.54226914389035C305.8333333333333,130.1243685987005,306.6666666666667,139.40301281478023,307.5,145.03205303287436C308.3333333333333,150.6610932509685,309.1666666666667,151.78618623648418,310,155.3165104524551C310.8333333333333,158.84683466842603,311.6666666666667,158.94900641120333,312.5,166.2139983286998C313.3333333333333,173.47899024619628,314.1666666666667,231.22992315274493,315,231.22992315274493C315.8333333333333,231.22992315274493,316.6666666666667,215.23638489831413,317.5,215.23638489831413C318.3333333333333,215.23638489831413,319.1666666666667,234.10694825035,320,234.10694825035C320.8333333333333,234.10694825035,321.6666666666667,228.0464297291175,322.5,223.2256562698534C323.3333333333333,218.4048828105893,324.1666666666667,205.18230749476538,325,205.18230749476538C325.8333333333333,205.18230749476538,326.6666666666667,220.1139984480916,327.5,223.29627130937052C328.3333333333333,226.47854417064946,329.1666666666667,225.51037224712155,330,228.06968060128892C330.8333333333333,230.6289889554563,331.6666666666667,235.95522979091834,332.5,238.65212143437483C333.3333333333333,241.34901307783133,334.1666666666667,244.25103046202793,335,244.25103046202793C335.8333333333333,244.25103046202793,336.6666666666667,243.39330076814605,337.5,241.67784138038232C338.3333333333333,239.9623819926186,339.1666666666667,231.19349414583073,340,231.19349414583073C340.8333333333333,231.19349414583073,341.6666666666667,233.41746372553413,342.5,237.86540288494095C343.3333333333333,242.31334204434776,344.1666666666667,259.25305193749153,345,259.25305193749153C345.8333333333333,259.25305193749153,346.6666666666667,251.27431769645008,347.5,243.65975989391464C348.3333333333333,236.0452020913792,349.1666666666667,213.5657051222788,350,213.5657051222788C350.8333333333333,213.5657051222788,351.6666666666667,227.9065994902062,352.5,227.9065994902062C353.3333333333333,227.9065994902062,354.1666666666667,227.7199083412348,355,227.34652604329202C355.8333333333333,226.97314374534923,356.6666666666667,223.68262550911743,357.5,218.1570747184517C358.3333333333333,212.63152392778596,359.1666666666667,204.85544712203117,360,194.19322129929756C360.8333333333333,183.53099547656396,361.6666666666667,164.6797140111027,362.5,154.18371978205013C363.3333333333333,143.68772555299756,364.1666666666667,137.30786983867802,365,131.21725592498208C365.8333333333333,125.12664201128615,366.6666666666667,126.69151604994623,367.5,117.64003629987451C368.3333333333333,108.58855654980279,369.1666666666667,64.05545906093923,370,64.05545906093923C370.8333333333333,64.05545906093923,371.6666666666667,149.85032901858887,372.5,149.85032901858887C373.3333333333333,149.85032901858887,374.1666666666667,127.61006328189941,375,109.5774308302629C375.8333333333333,91.54479837862638,376.6666666666667,41.65453430876976,377.5,41.65453430876976C378.3333333333333,41.65453430876976,379.1666666666667,43.49788965555221,380,45.950375724068124C380.8333333333333,48.40286179258404,381.6666666666667,50.413188037491686,382.5,56.36945071986528C383.3333333333333,62.32571340223887,384.1666666666667,64.80895108601341,385,81.68795181830968C385.8333333333333,98.56695255060596,386.6666666666667,171.0395582562965,387.5,184.55217220480537C388.3333333333333,198.06478615331426,389.1666666666667,204.8210931275687,390,204.8210931275687C390.8333333333333,204.8210931275687,391.6666666666667,193.379717169128,392.5,184.52081929598805C393.3333333333333,175.66192142284808,394.1666666666667,151.66770588872896,395,151.66770588872896C395.8333333333333,151.66770588872896,396.6666666666667,158.1633317435477,397.5,168.81245931701272C398.3333333333333,179.46158689047775,399.1666666666667,197.5120291099984,400,215.56247132951904" stroke="#0063AF" stroke-width="2"/></g><g class="mark-line role-mark layer_1_marks" role="graphics-object" aria-roledescription="line mark container"><path aria-label="year: 1990; y: 100" role="graphics-symbol" aria-roledescription="line mark" d="M325,233.33333333333334L350,233.33333333333334" stroke="#F4134D" stroke-width="2"/></g></g><path class="foreground" aria-hidden="true" d="" display="none"/></g></g></g><defs><linearGradient id="gradient_0" x1="1" x2="1" y1="0.9" y2="0"><stop offset="0" stop-color="white"/><stop offset="1" stop-color="#0063AF"/></linearGradient></defs></svg>