<svg xmlns="http://www.w3.org/2000/svg" xmlns:xlink="http://www.w3.org/1999/xlink" version="1.1" class="marks" width="414" height="328" viewBox="0 0 414 328"><rect width="414" height="328" fill="white"/><g fill="none" stroke-miterlimit="10" transform="translate(7,6)"><g class="mark-group role-frame root" role="graphics-object" aria-roledescription="group mark container"><g transform="translate(0,0)"><path class="background" aria-hidden="true" d="M0,0h400v300h-400Z"/><g><g class="mark-group role-axis" aria-hidden="true"><g transform="translate(0.5,0.5)"><path class="background" aria-hidden="true" d="M0,0h0v0h0Z" pointer-events="none"/><g><g class="mark-rule role-axis-grid" pointer-events="none"><line transform="translate(0,300)" x2="400" y2="0" stroke="#ddd" stroke-width="1" opacity="1"/><line transform="translate(0,206)" x2="400" y2="0" stroke="#ddd" stroke-width="1" opacity="1"/><line transform="translate(0,113)" x2="400" y2="0" stroke="#ddd" stroke-width="1" opacity="1"/><line transform="translate(0,19)" x2="400" y2="0" stroke="#ddd" stroke-width="1" opacity="1"/></g></g><path class="foreground" aria-hidden="true" d="" pointer-events="none" display="none"/></g></g><g class="mark-group role-axis" role="graphics-symbol" aria-roledescription="axis" aria-label="X-axis for a linear scale with values from 1965 to 2020"><g transform="translate(0.5,300.5)"><path class="background" aria-hidden="true" d="M0,0h0v0h0Z" pointer-events="none"/><g><g class="mark-rule role-axis-tick" pointer-events="none"><line transform="translate(0,0)" x2="0" y2="5" stroke="#676A86" stroke-width="1" opacity="1"/><line transform="translate(36,0)" x2="0" y2="5" stroke="#676A86" stroke-width="1" opacity="1"/><line transform="translate(73,0)" x2="0" y2="5" stroke="#676A86" stroke-width="1" opacity="1"/><line transform="translate(109,0)" x2="0" y2="5" stroke="#676A86" stroke-width="1" opacity="1"/><line transform="translate(145,0)" x2="0" y2="5" stroke="#676A86" stroke-width="1" opacity="1"/><line transform="translate(182,0)" x2="0" y2="5" stroke="#676A86" stroke-width="1" opacity="1"/><line transform="translate(218,0)" x2="0" y2="5" stroke="#676A86" stroke-width="1" opacity="1"/><line transform="translate(255,0)" x2="0" y2="5" stroke="#676A86" stroke-width="1" opacity="1"/><line transform="translate(291,0)" x2="0" y2="5" stroke="#676A86" stroke-width="1" opacity="1"/><line transform="translate(327,0)" x2="0" y2="5" stroke="#676A86" stroke-width="1" opacity="1"/><line transform="translate(364,0)" x2="0" y2="5" stroke="#676A86" stroke-width="1" opacity="1"/><line transform="translate(400,0)" x2="0" y2="5" stroke="#676A86" stroke-width="1" opacity="1"/></g><g class="mark-text role-axis-label" pointer-events="none"><text text-anchor="start" transform="translate(0,15)" font-family="sans-serif" font-size="10px" fill="#676A86" opacity="1">1965</text><text text-anchor="middle" transform="translate(36.36363636363637,15)" font-family="sans-serif" font-size="10px" fill="#676A86" opacity="1">1970</text><text text-anchor="middle" transform="translate(72.72727272727273,15)" font-family="sans-serif" font-size="10px" fill="#676A86" opacity="1">1975</text><text text-anchor="middle" transform="translate(109.09090909090908,15)" font-family="sans-serif" font-size="10px" fill="#676A86" opacity="1">1980</text><text text-anchor="middle" transform="translate(145.45454545454547,15)" font-family="sans-serif" font-size="10px" fill="#676A86" opacity="1">1985</text><text text-anchor="middle" transform="translate(181.8181818181818,15)" font-family="sans-serif" font-size="10px" fill="#676A86" opacity="1">1990</text><text text-anchor="middle" transform="translate(218.18181818181816,15)" font-family="sans-serif" font-size="10px" fill="#676A86" opacity="1">1995</text><text text-anchor="middle" transform="translate(254.54545454545453,15)" font-family="sans-serif" font-size="10px" fill="#676A86" opacity="1">2000</text><text text-anchor="middle" transform="translate(290.90909090909093,15)" font-family="sans-serif" font-size="10px" fill="#676A86" opacity="1">2005</text><text text-anchor="middle" transform="translate(327.2727272727273,15)" font-family="sans-serif" font-size="10px" fill="#676A86" opacity="1">2010</text><text text-anchor="middle" transform="translate(363.6363636363636,15)" font-family="sans-serif" font-size="10px" fill="#676A86" opacity="1">2015</text><text text-anchor="end" transform="translate(400,15)" font-family="sans-serif" font-size="10px" fill="#676A86" opacity="1">2020</text></g><g class="mark-rule role-axis-domain" pointer-events="none"><line transform="translate(0,0)" x2="400" y2="0" stroke="#676A86" stroke-width="1" opacity="1"/></g></g><path class="foreground" aria-hidden="true" d="" pointer-events="none" display="none"/></g></g><g class="mark-group role-axis" role="graphics-symbol" aria-roledescription="axis" aria-label="Y-axis titled 'relative to 1990 = 100' for a linear scale with values from 0 to 160"><g transform="translate(0.5,0.5)"><path class="background" aria-hidden="true" d="M0,0h0v0h0Z" pointer-events="none"/><g><g class="mark-text role-axis-label" pointer-events="none"><text text-anchor="start" transform="translate(5,293)" font-family="sans-serif" font-size="10px" fill="#676A86" opacity="1">0</text><text text-anchor="start" transform="translate(5,199.25)" font-family="sans-serif" font-size="10px" fill="#676A86" opacity="1">50</text><text text-anchor="start" transform="translate(5,105.5)" font-family="sans-serif" font-size="10px" fill="#676A86" opacity="1">100</text><text text-anchor="start" transform="translate(5,11.75)" font-family="sans-serif" font-size="10px" fill="#676A86" opacity="1">150</text></g><g class="mark-rule role-axis-domain" pointer-events="none"><line transform="translate(0,300)" x2="0" y2="-300" stroke="#676A86" stroke-width="1" opacity="1"/></g><g class="mark-text role-axis-title" pointer-events="none"><text text-anchor="start" transform="translate(30,11)" font-family="sans-serif" font-size="10px" font-weight="normal" fill="#676A86" opacity="1">relative to 1990 = 100</text></g></g><path class="foreground" aria-hidden="true" d="" pointer-events="none" display="none"/></g></g><g class="mark-area role-mark layer_0_layer_0_marks" role="graphics-object" aria-roledescription="area mark container"><path aria-label="year: 1965; co2_emissions_1990_100: 52" role="graphics-symbol" aria-roledescription="area mark" d="M0,202.63680145020604C2.4242424242424243,201.06677823673957,4.848484848484848,199.4967550232731,7.2727272727272725,198.2411282122469C9.696969696969697,196.98550140122072,12.121212121212121,196.56278093512066,14.545454545454545,195.10304058404893C16.96969696969697,193.6433002329772,19.39393939393939,191.55377145400055,21.818181818181817,189.48268610581655C24.242424242424242,187.41160075763256,26.666666666666664,184.98266157655436,29.09090909090909,182.6765284949449C31.515151515151516,180.37039541333542,33.93939393939394,177.5002452347303,36.36363636363637,175.6458876161597C38.78787878787879,173.79152999758912,41.21212121212121,173.24907776284465,43.63636363636363,171.55038278352137C46.060606060606055,169.8516878041981,48.484848484848484,167.73013979303903,50.90909090909091,165.45371774022C53.33333333333333,163.17729568740094,55.75757575757576,157.89185046660708,58.18181818181818,157.89185046660708C60.6060606060606,157.89185046660708,63.03030303030303,158.6968595864551,65.45454545454545,158.6968595864551C67.87878787878788,158.6968595864551,70.30303030303031,157.7315271092016,72.72727272727273,155.93343056285534C75.15151515151516,154.13533401650906,77.57575757575758,150.0289840068243,80,147.9082803083775C82.42424242424242,145.7875766099307,84.84848484848484,144.490587720917,87.27272727272727,143.20920837217466C89.69696969696969,141.9278290234323,92.12121212121212,141.5584057717752,94.54545454545455,140.2200042159234C96.96969696969697,138.88160266007162,99.39393939393939,135.17879903706387,101.81818181818181,135.17879903706387C104.24242424242424,135.17879903706387,106.66666666666666,136.35631085762327,109.09090909090908,137.1209331311009C111.5151515151515,137.88555540457855,113.93939393939394,139.04320074420252,116.36363636363636,139.76653267792975C118.78787878787878,140.48986461165694,121.2121212121212,141.46092473346417,123.63636363636363,141.46092473346417C126.06060606060605,141.46092473346417,128.48484848484847,141.11392838792497,130.9090909090909,140.41993569684655C133.33333333333334,139.72594300576813,135.75757575757575,135.9732794168478,138.1818181818182,134.37671219121975C140.60606060606062,132.78014496559172,143.03030303030303,131.90256331164855,145.45454545454547,130.84053234307837C147.8787878787879,129.77850137450818,150.3030303030303,129.33735814054043,152.72727272727275,128.0045263797987C155.15151515151516,126.67169461905698,157.5757575757576,124.68229886466222,160,122.84354177862804C162.4242424242424,121.00478469259386,164.84848484848484,118.53560441906755,167.27272727272725,116.97198386359368C169.6969696969697,115.40836330811979,172.1212121212121,114.10303074297457,174.54545454545453,113.46181844578474C176.96969696969697,112.82060614859492,179.39393939393938,112.74072126154677,181.8181818181818,112.5C184.24242424242425,112.25927873845323,186.66666666666666,112.15137387927027,189.0909090909091,112.01749087650411C191.51515151515153,111.88360787373796,193.93939393939394,111.83360246836736,196.36363636363637,111.69670198340307C198.78787878787878,111.55980149843879,201.21212121212122,111.52983064450817,203.63636363636363,111.19608796671837C206.06060606060603,110.86234528892857,208.48484848484847,110.05577148496333,210.90909090909088,109.32724647432258C213.33333333333331,108.59872146368181,215.75757575757572,108.11572572364207,218.18181818181816,106.82493790287381C220.6060606060606,105.53415008210555,223.030303030303,102.56757000526899,225.45454545454544,101.58251954971307C227.87878787878788,100.59746909415715,230.30303030303028,100.434994959176,232.72727272727272,100.10494386637919C235.15151515151516,99.77489277358238,237.57575757575756,99.93736690856352,240,99.6022129929322C242.4242424242424,99.26705907730087,244.84848484848484,98.3261633536202,247.27272727272725,97.14177717100432C249.6969696969697,95.95739098838843,252.1212121212121,93.74489681567094,254.54545454545453,92.49589589723686C256.96969696969694,91.24689497880279,259.3939393939394,90.93240544191063,261.8181818181818,89.64777166039988C264.24242424242425,88.36313787888913,266.66666666666663,87.37681608430178,269.09090909090907,84.78809320817236C271.5151515151515,82.1993703320429,273.93939393939394,77.84910002384314,276.3636363636364,74.1154344036232C278.7878787878788,70.38176878340329,281.2121212121212,65.92212519912334,283.6363636363636,62.386099486852785C286.06060606060606,58.85007377458221,288.4848484848485,55.76074863255087,290.90909090909093,52.89928012999982C293.33333333333337,50.0378116274488,295.75757575757575,48.0185892534472,298.1818181818182,45.217288471546546C300.6060606060606,42.41598768964587,303.03030303030306,37.69938220378506,305.4545454545455,36.09147543859582C307.87878787878793,34.483568673406594,310.3030303030303,33.67961529081198,312.72727272727275,33.67961529081198C315.1515151515152,33.67961529081198,317.57575757575756,39.27863399992502,320,39.27863399992502C322.42424242424244,39.27863399992502,324.8484848484849,30.931681707749213,327.2727272727273,27.72901244603031C329.6969696969697,24.526343184311457,332.1212121212121,21.821072348178703,334.5454545454545,20.06261842961169C336.96969696969694,18.304164511044647,339.3939393939394,18.481492698860876,341.8181818181818,17.178288934628217C344.24242424242425,15.875085170395566,346.66666666666663,12.646637053638539,349.09090909090907,12.243395844215776C351.5151515151515,11.84015463479301,353.93939393939394,11.834299716023738,356.3636363636364,11.638534030081626C358.7878787878788,11.442768344139514,361.2121212121212,11.389602129599586,363.6363636363636,11.068801728563106C366.06060606060606,10.748001327526625,368.48484848484844,10.468878495204548,370.9090909090909,9.713731623862742C373.3333333333333,8.958584752520931,375.75757575757575,7.972475209521576,378.1818181818182,6.537920500512239C380.6060606060606,5.103365791502914,383.030303030303,1.1383820035200662,385.45454545454544,1.1064033698067743C387.8787878787879,1.0744247360934822,390.3030303030303,1.0584354192368362,392.72727272727275,1.0584354192368362C395.1515151515152,1.0584354192368362,397.57575757575756,10.074870013453097,400,19.091304607669358L400,300C397.57575757575756,300,395.1515151515152,300,392.72727272727275,300C390.3030303030303,300,387.8787878787879,300,385.45454545454544,300C383.030303030303,300,380.6060606060606,300,378.1818181818182,300C375.75757575757575,300,373.3333333333333,300,370.9090909090909,300C368.48484848484844,300,366.06060606060606,300,363.6363636363636,300C361.2121212121212,300,358.7878787878788,300,356.3636363636364,300C353.93939393939394,300,351.5151515151515,300,349.09090909090907,300C346.66666666666663,300,344.24242424242425,300,341.8181818181818,300C339.3939393939394,300,336.96969696969694,300,334.5454545454545,300C332.1212121212121,300,329.6969696969697,300,327.2727272727273,300C324.8484848484849,300,322.42424242424244,300,320,300C317.57575757575756,300,315.1515151515152,300,312.72727272727275,300C310.3030303030303,300,307.87878787878793,300,305.4545454545455,300C303.03030303030306,300,300.6060606060606,300,298.1818181818182,300C295.75757575757575,300,293.33333333333337,300,290.90909090909093,300C288.4848484848485,300,286.06060606060606,300,283.6363636363636,300C281.2121212121212,300,278.7878787878788,300,276.3636363636364,300C273.93939393939394,300,271.5151515151515,300,269.09090909090907,300C266.66666666666663,300,264.24242424242425,300,261.8181818181818,300C259.3939393939394,300,256.96969696969694,300,254.54545454545453,300C252.1212121212121,300,249.6969696969697,300,247.27272727272725,300C244.84848484848484,300,242.4242424242424,300,240,300C237.57575757575756,300,235.15151515151516,300,232.72727272727272,300C230.30303030303028,300,227.87878787878788,300,225.45454545454544,300C223.030303030303,300,220.6060606060606,300,218.18181818181816,300C215.75757575757572,300,213.33333333333331,300,210.90909090909088,300C208.48484848484847,300,206.06060606060603,300,203.63636363636363,300C201.21212121212122,300,198.78787878787878,300,196.36363636363637,300C193.93939393939394,300,191.51515151515153,300,189.0909090909091,300C186.66666666666666,300,184.24242424242425,300,181.8181818181818,300C179.39393939393938,300,176.96969696969697,300,174.54545454545453,300C172.1212121212121,300,169.6969696969697,300,167.27272727272725,300C164.84848484848484,300,162.4242424242424,300,160,300C157.5757575757576,300,155.15151515151516,300,152.72727272727275,300C150.3030303030303,300,147.8787878787879,300,145.45454545454547,300C143.03030303030303,300,140.60606060606062,300,138.1818181818182,300C135.75757575757575,300,133.33333333333334,300,130.9090909090909,300C128.48484848484847,300,126.06060606060605,300,123.63636363636363,300C121.2121212121212,300,118.78787878787878,300,116.36363636363636,300C113.93939393939394,300,111.5151515151515,300,109.09090909090908,300C106.66666666666666,300,104.24242424242424,300,101.81818181818181,300C99.39393939393939,300,96.96969696969697,300,94.54545454545455,300C92.12121212121212,300,89.69696969696969,300,87.27272727272727,300C84.84848484848484,300,82.42424242424242,300,80,300C77.57575757575758,300,75.15151515151516,300,72.72727272727273,300C70.30303030303031,300,67.87878787878788,300,65.45454545454545,300C63.03030303030303,300,60.6060606060606,300,58.18181818181818,300C55.75757575757576,300,53.33333333333333,300,50.90909090909091,300C48.484848484848484,300,46.060606060606055,300,43.63636363636363,300C41.21212121212121,300,38.78787878787879,300,36.36363636363637,300C33.93939393939394,300,31.515151515151516,300,29.09090909090909,300C26.666666666666664,300,24.242424242424242,300,21.818181818181817,300C19.39393939393939,300,16.96969696969697,300,14.545454545454545,300C12.121212121212121,300,9.696969696969697,300,7.2727272727272725,300C4.848484848484848,300,2.4242424242424243,300,0,300Z" fill="url(#gradient_0)" fill-opacity="0.4"/></g><g class="mark-line role-mark layer_0_layer_1_marks" role="graphics-object" aria-roledescription="line mark container"><path aria-label="year: 1965; co2_emissions_1990_100: 52" role="graphics-symbol" aria-roledescription="line mark" d="M0,202.63680145020604C2.4242424242424243,201.06677823673957,4.848484848484848,199.4967550232731,7.2727272727272725,198.2411282122469C9.696969696969697,196.98550140122072,12.121212121212121,196.56278093512066,14.545454545454545,195.10304058404893C16.96969696969697,193.6433002329772,19.39393939393939,191.55377145400055,21.818181818181817,189.48268610581655C24.242424242424242,187.41160075763256,26.666666666666664,184.98266157655436,29.09090909090909,182.6765284949449C31.515151515151516,180.37039541333542,33.93939393939394,177.5002452347303,36.36363636363637,175.6458876161597C38.78787878787879,173.79152999758912,41.21212121212121,173.24907776284465,43.63636363636363,171.55038278352137C46.060606060606055,169.8516878041981,48.484848484848484,167.73013979303903,50.90909090909091,165.45371774022C53.33333333333333,163.17729568740094,55.75757575757576,157.89185046660708,58.18181818181818,157.89185046660708C60.6060606060606,157.89185046660708,63.03030303030303,158.6968595864551,65.45454545454545,158.6968595864551C67.87878787878788,158.6968595864551,70.30303030303031,157.7315271092016,72.72727272727273,155.93343056285534C75.15151515151516,154.13533401650906,77.57575757575758,150.0289840068243,80,147.9082803083775C82.42424242424242,145.7875766099307,84.84848484848484,144.490587720917,87.27272727272727,143.20920837217466C89.69696969696969,141.9278290234323,92.12121212121212,141.5584057717752,94.54545454545455,140.2200042159234C96.96969696969697,138.88160266007162,99.39393939393939,135.17879903706387,101.81818181818181,135.17879903706387C104.24242424242424,135.17879903706387,106.66666666666666,136.35631085762327,109.09090909090908,137.1209331311009C111.5151515151515,137.88555540457855,113.93939393939394,139.04320074420252,116.36363636363636,139.76653267792975C118.78787878787878,140.48986461165694,121.2121212121212,141.46092473346417,123.63636363636363,141.46092473346417C126.06060606060605,141.46092473346417,128.48484848484847,141.11392838792497,130.9090909090909,140.41993569684655C133.33333333333334,139.72594300576813,135.75757575757575,135.9732794168478,138.1818181818182,134.37671219121975C140.60606060606062,132.78014496559172,143.03030303030303,131.90256331164855,145.45454545454547,130.84053234307837C147.8787878787879,129.77850137450818,150.3030303030303,129.33735814054043,152.72727272727275,128.0045263797987C155.15151515151516,126.67169461905698,157.5757575757576,124.68229886466222,160,122.84354177862804C162.4242424242424,121.00478469259386,164.84848484848484,118.53560441906755,167.27272727272725,116.97198386359368C169.6969696969697,115.40836330811979,172.1212121212121,114.10303074297457,174.54545454545453,113.46181844578474C176.96969696969697,112.82060614859492,179.39393939393938,112.74072126154677,181.8181818181818,112.5C184.24242424242425,112.25927873845323,186.66666666666666,112.15137387927027,189.0909090909091,112.01749087650411C191.51515151515153,111.88360787373796,193.93939393939394,111.83360246836736,196.36363636363637,111.69670198340307C198.78787878787878,111.55980149843879,201.21212121212122,111.52983064450817,203.63636363636363,111.19608796671837C206.06060606060603,110.86234528892857,208.48484848484847,110.05577148496333,210.90909090909088,109.32724647432258C213.33333333333331,108.59872146368181,215.75757575757572,108.11572572364207,218.18181818181816,106.82493790287381C220.6060606060606,105.53415008210555,223.030303030303,102.56757000526899,225.45454545454544,101.58251954971307C227.87878787878788,100.59746909415715,230.30303030303028,100.434994959176,232.72727272727272,100.10494386637919C235.15151515151516,99.77489277358238,237.57575757575756,99.93736690856352,240,99.6022129929322C242.4242424242424,99.26705907730087,244.84848484848484,98.3261633536202,247.27272727272725,97.14177717100432C249.6969696969697,95.95739098838843,252.1212121212121,93.74489681567094,254.54545454545453,92.49589589723686C256.96969696969694,91.24689497880279,259.3939393939394,90.93240544191063,261.8181818181818,89.64777166039988C264.24242424242425,88.36313787888913,266.66666666666663,87.37681608430178,269.09090909090907,84.78809320817236C271.5151515151515,82.1993703320429,273.93939393939394,77.84910002384314,276.3636363636364,74.1154344036232C278.7878787878788,70.38176878340329,281.2121212121212,65.92212519912334,283.6363636363636,62.386099486852785C286.06060606060606,58.85007377458221,288.4848484848485,55.76074863255087,290.90909090909093,52.89928012999982C293.33333333333337,50.0378116274488,295.75757575757575,48.0185892534472,298.1818181818182,45.217288471546546C300.6060606060606,42.41598768964587,303.03030303030306,37.69938220378506,305.4545454545455,36.09147543859582C307.87878787878793,34.483568673406594,310.3030303030303,33.67961529081198,312.72727272727275,33.67961529081198C315.1515151515152,33.67961529081198,317.57575757575756,39.27863399992502,320,39.27863399992502C322.42424242424244,39.27863399992502,324.8484848484849,30.931681707749213,327.2727272727273,27.72901244603031C329.6969696969697,24.526343184311457,332.1212121212121,21.821072348178703,334.5454545454545,20.06261842961169C336.96969696969694,18.304164511044647,339.3939393939394,18.481492698860876,341.8181818181818,17.178288934628217C344.24242424242425,15.875085170395566,346.66666666666663,12.646637053638539,349.09090909090907,12.243395844215776C351.5151515151515,11.84015463479301,353.93939393939394,11.834299716023738,356.3636363636364,11.638534030081626C358.7878787878788,11.442768344139514,361.2121212121212,11.389602129599586,363.6363636363636,11.068801728563106C366.06060606060606,10.748001327526625,368.48484848484844,10.468878495204548,370.9090909090909,9.713731623862742C373.3333333333333,8.958584752520931,375.75757575757575,7.972475209521576,378.1818181818182,6.537920500512239C380.6060606060606,5.103365791502914,383.030303030303,1.1383820035200662,385.45454545454544,1.1064033698067743C387.8787878787879,1.0744247360934822,390.3030303030303,1.0584354192368362,392.72727272727275,1.0584354192368362C395.1515151515152,1.0584354192368362,397.57575757575756,10.074870013453097,400,19.091304607669358" stroke="#0063AF" stroke-width="2"/></g><g class="mark-line role-mark layer_1_marks" role="graphics-object" aria-roledescription="line mark container"><path aria-label="year: 1965; population_1990_100: 62.9170036511" role="graphics-symbol" aria-roledescription="line mark" d="M0,182.03061815419045L7.2727272727272725,179.54303568119835L14.545454545454545,177.07423638939383L21.818181818181817,174.54715372857987L29.09090909090909,171.92747631506663L36.36363636363637,169.2491561251703L43.63636363636363,166.460087825434L50.90909090909091,163.74760994368788L58.18181818181818,161.0458022102654L65.45454545454545,158.36461237212654L72.72727272727273,155.73609515652606L80,153.14644312008673L87.27272727272727,150.5770707716564L94.54545454545455,147.96512780766452L101.81818181818181,145.28620982469164L109.09090909090908,142.58079004893975L116.36363636363636,139.8038086465221L123.63636363636363,136.91949146242828L130.9090909090909,134.00960674586503L138.1818181818182,131.10954658841675L145.45454545454547,128.1557355507981L152.72727272727275,125.11701207977484L160,121.99884633355671L167.27272727272725,118.84789987210371L174.54545454545453,115.69844629534461L181.8181818181818,112.5L189.0909090909091,109.37171154386071L196.36363636363637,106.37326545557872L203.63636363636363,103.34384925415246L210.90909090909088,100.35381015923616L218.18181818181816,97.34715629459907L225.45454545454544,94.40322926159922L232.72727272727272,91.46891276259417L240,88.56697705333818L247.27272727272725,85.70884454831476L254.54545454545453,82.87361017434954L261.8181818181818,80.05619240620355L269.09090909090907,77.24793158936465L276.3636363636364,74.43796407577805L283.6363636363636,71.60882201368192L290.90909090909093,68.7609579559436L298.1818181818182,65.88504961179031L305.4545454545455,62.991994684377495L312.72727272727275,60.05107121180331L320,57.119512714288255L327.2727272727273,54.19685222147726L334.5454545454545,51.32032040975574L341.8181818181818,48.37611585787187L349.09090909090907,45.39727968361661L356.3636363636364,42.392417742255994L363.6363636363636,39.38165546178218L370.9090909090909,36.34872430524706L378.1818181818182,33.33293078318613L385.45454545454544,30.383191371952755L392.72727272727275,27.51142042065613L400,24.688463673878424" stroke="#36B7B4" stroke-width="2"/></g><g class="mark-symbol role-mark layer_2_marks" role="graphics-object" aria-roledescription="symbol mark container"><path aria-label="year: 1990; y: 100" role="graphics-symbol" aria-roledescription="point" transform="translate(181.8181818181818,112.5)" d="M2.7386127875258306,0A2.7386127875258306,2.7386127875258306,0,1,1,-2.7386127875258306,0A2.7386127875258306,2.7386127875258306,0,1,1,2.7386127875258306,0" stroke="#F4134D" stroke-width="2" opacity="0.7"/></g><g class="mark-text role-mark layer_3_marks" role="graphics-object" aria-roledescription="text mark container"><text aria-label="t: Population; year: 1995; y: 120" role="graphics-symbol" aria-roledescription="text mark" text-anchor="middle" transform="translate(218.18181818181816,78)" font-family="sans-serif" font-size="11px" fill="#36B7B4">Population</text><text aria-label="t: CO₂ emissions; year: 1999; y: 140" role="graphics-symbol" aria-roledescription="text mark" text-anchor="middle" transform="translate(247.27272727272725,40.5)" font-family="sans-serif" font-size="11px" fill="#0063AF">CO₂ emissions</text></g></g><path class="foreground" aria-hidden="true" d="" display="none"/></g></g></g><defs><linearGradient id="gradient_0" x1="1" x2="1" y1="0.9" y2="0"><stop offset="0" stop-color="white"/><stop offset="1" stop-color="#0063AF"/></linearGradient></defs></svg>