<svg xmlns="http://www.w3.org/2000/svg" xmlns:xlink="http://www.w3.org/1999/xlink" version="1.1" class="marks" width="459" height="343" viewBox="0 0 459 343"><rect width="459" height="343" fill="white"/><g fill="none" stroke-miterlimit="10" transform="translate(54,21)"><g class="mark-group role-frame root" role="graphics-object" aria-roledescription="group mark container"><g transform="translate(0,0)"><path class="background" aria-hidden="true" d="M0,0h400v300h-400Z"/><g><g class="mark-group role-axis" role="graphics-symbol" aria-roledescription="axis" aria-label="X-axis for a linear scale with values from 2005 to 2023"><g transform="translate(0.5,300.5)"><path class="background" aria-hidden="true" d="M0,0h0v0h0Z" pointer-events="none"/><g><g class="mark-rule role-axis-tick" pointer-events="none"><line transform="translate(22,0)" x2="0" y2="5" stroke="#676A86" stroke-width="1" opacity="1"/><line transform="translate(67,0)" x2="0" y2="5" stroke="#676A86" stroke-width="1" opacity="1"/><line transform="translate(111,0)" x2="0" y2="5" stroke="#676A86" stroke-width="1" opacity="1"/><line transform="translate(156,0)" x2="0" y2="5" stroke="#676A86" stroke-width="1" opacity="1"/><line transform="translate(200,0)" x2="0" y2="5" stroke="#676A86" stroke-width="1" opacity="1"/><line transform="translate(244,0)" x2="0" y2="5" stroke="#676A86" stroke-width="1" opacity="1"/><line transform="translate(289,0)" x2="0" y2="5" stroke="#676A86" stroke-width="1" opacity="1"/><line transform="translate(333,0)" x2="0" y2="5" stroke="#676A86" stroke-width="1" opacity="1"/><line transform="translate(378,0)" x2="0" y2="5" stroke="#676A86" stroke-width="1" opacity="1"/></g><g class="mark-text role-axis-label" pointer-events="none"><text text-anchor="middle" transform="translate(22.22222222222222,15)" font-family="sans-serif" font-size="10px" fill="#676A86" opacity="1">2006</text><text text-anchor="middle" transform="translate(66.66666666666666,15)" font-family="sans-serif" font-size="10px" fill="#676A86" opacity="1">2008</text><text text-anchor="middle" transform="translate(111.11111111111111,15)" font-family="sans-serif" font-size="10px" fill="#676A86" opacity="1">2010</text><text text-anchor="middle" transform="translate(155.55555555555557,15)" font-family="sans-serif" font-size="10px" fill="#676A86" opacity="1">2012</text><text text-anchor="middle" transform="translate(200,15)" font-family="sans-serif" font-size="10px" fill="#676A86" opacity="1">2014</text><text text-anchor="middle" transform="translate(244.44444444444446,15)" font-family="sans-serif" font-size="10px" fill="#676A86" opacity="1">2016</text><text text-anchor="middle" transform="translate(288.88888888888886,15)" font-family="sans-serif" font-size="10px" fill="#676A86" opacity="1">2018</text><text text-anchor="middle" transform="translate(333.33333333333337,15)" font-family="sans-serif" font-size="10px" fill="#676A86" opacity="1">2020</text><text text-anchor="middle" transform="translate(377.77777777777777,15)" font-family="sans-serif" font-size="10px" fill="#676A86" opacity="1">2022</text></g><g class="mark-rule role-axis-domain" pointer-events="none"><line transform="translate(0,0)" x2="400" y2="0" stroke="#676A86" stroke-width="1" opacity="1"/></g></g><path class="foreground" aria-hidden="true" d="" pointer-events="none" display="none"/></g></g><g class="mark-group role-axis" role="graphics-symbol" aria-roledescription="axis" aria-label="Y-axis titled 'Average house price (£)' for a linear scale with values from 0 to 300,000"><g transform="translate(0.5,0.5)"><path class="background" aria-hidden="true" d="M0,0h0v0h0Z" pointer-events="none"/><g><g class="mark-rule role-axis-tick" pointer-events="none"><line transform="translate(0,300)" x2="-5" y2="0" stroke="#676A86" stroke-width="1" opacity="1"/><line transform="translate(0,250)" x2="-5" y2="0" stroke="#676A86" stroke-width="1" opacity="1"/><line transform="translate(0,200)" x2="-5" y2="0" stroke="#676A86" stroke-width="1" opacity="1"/><line transform="translate(0,150)" x2="-5" y2="0" stroke="#676A86" stroke-width="1" opacity="1"/><line transform="translate(0,100)" x2="-5" y2="0" stroke="#676A86" stroke-width="1" opacity="1"/><line transform="translate(0,50)" x2="-5" y2="0" stroke="#676A86" stroke-width="1" opacity="1"/><line transform="translate(0,0)" x2="-5" y2="0" stroke="#676A86" stroke-width="1" opacity="1"/></g><g class="mark-text role-axis-label" pointer-events="none"><text text-anchor="end" transform="translate(-7,303)" font-family="sans-serif" font-size="10px" fill="#676A86" opacity="1">0</text><text text-anchor="end" transform="translate(-7,253)" font-family="sans-serif" font-size="10px" fill="#676A86" opacity="1">50,000</text><text text-anchor="end" transform="translate(-7,203.00000000000003)" font-family="sans-serif" font-size="10px" fill="#676A86" opacity="1">100,000</text><text text-anchor="end" transform="translate(-7,153)" font-family="sans-serif" font-size="10px" fill="#676A86" opacity="1">150,000</text><text text-anchor="end" transform="translate(-7,103.00000000000001)" font-family="sans-serif" font-size="10px" fill="#676A86" opacity="1">200,000</text><text text-anchor="end" transform="translate(-7,52.999999999999986)" font-family="sans-serif" font-size="10px" fill="#676A86" opacity="1">250,000</text><text text-anchor="end" transform="translate(-7,3)" font-family="sans-serif" font-size="10px" fill="#676A86" opacity="1">300,000</text></g><g class="mark-rule role-axis-domain" pointer-events="none"><line transform="translate(0,300)" x2="0" y2="-300" stroke="#676A86" stroke-width="1" opacity="1"/></g><g class="mark-text role-axis-title" pointer-events="none"><text text-anchor="start" transform="translate(-5,-7)" font-family="sans-serif" font-size="11px" font-weight="bold" fill="#676A86" opacity="1">Average house price (£)</text></g></g><path class="foreground" aria-hidden="true" d="" pointer-events="none" display="none"/></g></g><g class="mark-area role-mark layer_0_marks" role="graphics-object" aria-roledescription="area mark container"><path aria-label="x: 2005; y: 150412.087912" role="graphics-symbol" aria-roledescription="area mark" d="M0.8273208273143003,149.58791208791212L3.597883597886822,148.35164835164838L6.368446368444186,145.67307692307696L9.139009139011653,143.20054945054952L11.909571909563965,141.34615384615387L14.680134680131435,140.93406593406596L17.450697450683744,140.93406593406596L20.221260221251214,140.10989010989016L22.991822991823735,140.10989010989016L25.7623857623811,138.4615384615385L28.532948532953622,134.54670329670333L31.303511303510984,132.07417582417585L34.0740740740734,128.98351648351652L36.844636844640874,127.54120879120883L39.61519961519823,126.30494505494511L42.38576238576065,124.03846153846156L45.15632515631801,123.42032967032969L47.92688792688043,121.15384615384622L50.697450697437795,117.44505494505499L53.46801346801031,113.73626373626377L56.238576238577785,111.0576923076923L59.00913900913515,110.02747252747257L61.77970177969756,110.64560439560441L64.55026455025998,111.46978021978029L67.32082732081734,114.9725274725275L70.09139009138481,117.03296703296712L72.86195286195733,116.62087912087911L75.6325156325147,117.85714285714283L77.94131794131418,121.15384615384622L79.78835978835579,124.86263736263739L81.63540163539741,128.88049450549454L83.48244348243396,132.28021978021982L84.86772486772274,136.195054945055L87.17652717653235,139.69780219780225L89.48532948533183,143.40659340659343L92.2558922558892,145.467032967033L95.0264550264516,143.40659340659343L97.79701779701404,140.93406593406596L100.56758056757644,137.22527472527477L103.3381433381338,135.16483516483518L106.10870610871137,133.51648351648353L108.87926887926875,132.48626373626377L111.64983164983116,132.28021978021982L114.42039442039358,131.8681318681319L117.190957190956,130.21978021978026L119.9615199615184,128.1593406593407L122.73208273209093,126.92307692307698L125.50264550264325,127.33516483516489L128.2732082732107,129.80769230769235L131.0437710437681,131.66208791208794L133.8143338143305,133.10439560439562L136.58489658488787,134.13461538461542L139.35545935545534,132.28021978021982L142.12602212601774,132.28021978021982L144.89658489658015,130.63186813186817L147.66714766714762,130.83791208791212L150.43771043771002,132.28021978021982L153.2082732082775,133.10439560439562L155.97883597884498,134.54670329670333L158.74939874939727,134.34065934065939L161.51996151996474,132.28021978021982L164.29052429051708,130.63186813186817L167.06108706108452,129.60164835164838L169.83164983164696,129.80769230769235L172.60221260221442,131.0439560439561L175.37277537277177,131.25000000000003L178.1433381433342,132.28021978021982L180.91390091389158,131.66208791208794L183.6844636844641,129.39560439560444L186.45502645502145,127.74725274725276L189.22558922558892,125.2747252747253L191.99615199615135,124.24450549450552L194.7667147667087,124.4505494505495L197.5372775372711,122.80219780219784L200.30784030783857,121.77197802197806L203.078403078401,120.32967032967036L205.84896584896848,116.20879120879123L208.61952861953088,113.32417582417592L211.39009139008826,110.02747252747257L214.16065416065067,108.17307692307698L216.93121693121813,108.58516483516485L219.7017797017755,108.7912087912088L222.4723424723379,109.4093406593407L225.24290524290538,108.37912087912093L228.0134680134678,106.31868131868137L230.78403078402516,103.22802197802201L233.5545935545977,99.72527472527477L236.32515632515504,97.87087912087917L239.09571909572253,97.04670329670338L241.86628186627482,95.3983516483517L244.63684463684228,94.78021978021984L247.4074074073946,93.13186813186817L250.17797017796207,90.65934065934067L252.9485329485346,87.7747252747253L255.71909571909197,85.30219780219784L258.48965848965435,85.30219780219784L261.2602212602118,85.71428571428578L264.0307840307843,84.89010989010993L266.80134680135177,84.68406593406597L269.5719095719091,84.27197802197806L272.3424723424715,81.38736263736274L275.11303511302884,78.50274725274731L277.8835978835913,75.20604395604403L280.65416065414865,75.20604395604403L283.4247234247212,75.41208791208798L286.19528619528865,75.41208791208798L288.965848965846,75.41208791208798L291.73641173640846,75.61813186813194L294.50697450697083,73.96978021978029L297.27753727753327,71.9093406593407L300.0481000480957,69.0247252747253L302.8186628186682,68.40659340659343L305.5892255892255,69.23076923076928L308.359788359788,70.46703296703302L311.13035113034533,71.9093406593407L313.90091390091277,72.93956043956048L316.67147667147526,71.49725274725279L319.4420394420427,70.05494505494511L322.2126022126,67.37637362637365L324.9831649831625,66.75824175824175L327.7537277537249,67.37637362637365L330.52429052428727,67.99450549450552L333.2948532948447,68.61263736263736L336.06541606541214,68.40659340659343L338.8359788359745,69.23076923076928L341.606541606542,66.14010989010993L344.37710437710444,63.04945054945059L347.1476671476668,59.3406593406594L349.91822991822926,55.6318681318682L352.68879268880175,52.747252747252794L355.4593554593541,50.686813186813204L358.22991822992157,48.21428571428578L361.4622414622419,51.098901098901116L363.61712361712205,35.439560439560516L366.0798460798459,46.5659340659341L369.7739297739291,31.318681318681342L371.3131313131271,37.500000000000064L374.853294853291,31.524725274725363L377.39297739297706,27.970467032967083L380.3944203944158,25.13736263736268L382.7032227032204,21.63461538461544L384.55026455025694,18.54395604395611L386.3973063973086,15.144230769230816L388.2443482443452,10.508241758241788L390.09139009138687,7.108516483516558L392.40019240019643,4.739010989011039L395.17075517075375,4.945054945054994L395.17075517075375,300L392.40019240019643,300L390.09139009138687,300L388.2443482443452,300L386.3973063973086,300L384.55026455025694,300L382.7032227032204,300L380.3944203944158,300L377.39297739297706,300L374.853294853291,300L371.3131313131271,300L369.7739297739291,300L366.0798460798459,300L363.61712361712205,300L361.4622414622419,300L358.22991822992157,300L355.4593554593541,300L352.68879268880175,300L349.91822991822926,300L347.1476671476668,300L344.37710437710444,300L341.606541606542,300L338.8359788359745,300L336.06541606541214,300L333.2948532948447,300L330.52429052428727,300L327.7537277537249,300L324.9831649831625,300L322.2126022126,300L319.4420394420427,300L316.67147667147526,300L313.90091390091277,300L311.13035113034533,300L308.359788359788,300L305.5892255892255,300L302.8186628186682,300L300.0481000480957,300L297.27753727753327,300L294.50697450697083,300L291.73641173640846,300L288.965848965846,300L286.19528619528865,300L283.4247234247212,300L280.65416065414865,300L277.8835978835913,300L275.11303511302884,300L272.3424723424715,300L269.5719095719091,300L266.80134680135177,300L264.0307840307843,300L261.2602212602118,300L258.48965848965435,300L255.71909571909197,300L252.9485329485346,300L250.17797017796207,300L247.4074074073946,300L244.63684463684228,300L241.86628186627482,300L239.09571909572253,300L236.32515632515504,300L233.5545935545977,300L230.78403078402516,300L228.0134680134678,300L225.24290524290538,300L222.4723424723379,300L219.7017797017755,300L216.93121693121813,300L214.16065416065067,300L211.39009139008826,300L208.61952861953088,300L205.84896584896848,300L203.078403078401,300L200.30784030783857,300L197.5372775372711,300L194.7667147667087,300L191.99615199615135,300L189.22558922558892,300L186.45502645502145,300L183.6844636844641,300L180.91390091389158,300L178.1433381433342,300L175.37277537277177,300L172.60221260221442,300L169.83164983164696,300L167.06108706108452,300L164.29052429051708,300L161.51996151996474,300L158.74939874939727,300L155.97883597884498,300L153.2082732082775,300L150.43771043771002,300L147.66714766714762,300L144.89658489658015,300L142.12602212601774,300L139.35545935545534,300L136.58489658488787,300L133.8143338143305,300L131.0437710437681,300L128.2732082732107,300L125.50264550264325,300L122.73208273209093,300L119.9615199615184,300L117.190957190956,300L114.42039442039358,300L111.64983164983116,300L108.87926887926875,300L106.10870610871137,300L103.3381433381338,300L100.56758056757644,300L97.79701779701404,300L95.0264550264516,300L92.2558922558892,300L89.48532948533183,300L87.17652717653235,300L84.86772486772274,300L83.48244348243396,300L81.63540163539741,300L79.78835978835579,300L77.94131794131418,300L75.6325156325147,300L72.86195286195733,300L70.09139009138481,300L67.32082732081734,300L64.55026455025998,300L61.77970177969756,300L59.00913900913515,300L56.238576238577785,300L53.46801346801031,300L50.697450697437795,300L47.92688792688043,300L45.15632515631801,300L42.38576238576065,300L39.61519961519823,300L36.844636844640874,300L34.0740740740734,300L31.303511303510984,300L28.532948532953622,300L25.7623857623811,300L22.991822991823735,300L20.221260221251214,300L17.450697450683744,300L14.680134680131435,300L11.909571909563965,300L9.139009139011653,300L6.368446368444186,300L3.597883597886822,300L0.8273208273143003,300Z" fill="url(#gradient_0)" opacity="0.7"/></g><g class="mark-line role-mark layer_1_marks" role="graphics-object" aria-roledescription="line mark container"><path aria-label="x: 2005; y: 150412.087912" role="graphics-symbol" aria-roledescription="line mark" d="M0.8273208273143003,149.58791208791212L3.597883597886822,148.35164835164838L6.368446368444186,145.67307692307696L9.139009139011653,143.20054945054952L11.909571909563965,141.34615384615387L14.680134680131435,140.93406593406596L17.450697450683744,140.93406593406596L20.221260221251214,140.10989010989016L22.991822991823735,140.10989010989016L25.7623857623811,138.4615384615385L28.532948532953622,134.54670329670333L31.303511303510984,132.07417582417585L34.0740740740734,128.98351648351652L36.844636844640874,127.54120879120883L39.61519961519823,126.30494505494511L42.38576238576065,124.03846153846156L45.15632515631801,123.42032967032969L47.92688792688043,121.15384615384622L50.697450697437795,117.44505494505499L53.46801346801031,113.73626373626377L56.238576238577785,111.0576923076923L59.00913900913515,110.02747252747257L61.77970177969756,110.64560439560441L64.55026455025998,111.46978021978029L67.32082732081734,114.9725274725275L70.09139009138481,117.03296703296712L72.86195286195733,116.62087912087911L75.6325156325147,117.85714285714283L77.94131794131418,121.15384615384622L79.78835978835579,124.86263736263739L81.63540163539741,128.88049450549454L83.48244348243396,132.28021978021982L84.86772486772274,136.195054945055L87.17652717653235,139.69780219780225L89.48532948533183,143.40659340659343L92.2558922558892,145.467032967033L95.0264550264516,143.40659340659343L97.79701779701404,140.93406593406596L100.56758056757644,137.22527472527477L103.3381433381338,135.16483516483518L106.10870610871137,133.51648351648353L108.87926887926875,132.48626373626377L111.64983164983116,132.28021978021982L114.42039442039358,131.8681318681319L117.190957190956,130.21978021978026L119.9615199615184,128.1593406593407L122.73208273209093,126.92307692307698L125.50264550264325,127.33516483516489L128.2732082732107,129.80769230769235L131.0437710437681,131.66208791208794L133.8143338143305,133.10439560439562L136.58489658488787,134.13461538461542L139.35545935545534,132.28021978021982L142.12602212601774,132.28021978021982L144.89658489658015,130.63186813186817L147.66714766714762,130.83791208791212L150.43771043771002,132.28021978021982L153.2082732082775,133.10439560439562L155.97883597884498,134.54670329670333L158.74939874939727,134.34065934065939L161.51996151996474,132.28021978021982L164.29052429051708,130.63186813186817L167.06108706108452,129.60164835164838L169.83164983164696,129.80769230769235L172.60221260221442,131.0439560439561L175.37277537277177,131.25000000000003L178.1433381433342,132.28021978021982L180.91390091389158,131.66208791208794L183.6844636844641,129.39560439560444L186.45502645502145,127.74725274725276L189.22558922558892,125.2747252747253L191.99615199615135,124.24450549450552L194.7667147667087,124.4505494505495L197.5372775372711,122.80219780219784L200.30784030783857,121.77197802197806L203.078403078401,120.32967032967036L205.84896584896848,116.20879120879123L208.61952861953088,113.32417582417592L211.39009139008826,110.02747252747257L214.16065416065067,108.17307692307698L216.93121693121813,108.58516483516485L219.7017797017755,108.7912087912088L222.4723424723379,109.4093406593407L225.24290524290538,108.37912087912093L228.0134680134678,106.31868131868137L230.78403078402516,103.22802197802201L233.5545935545977,99.72527472527477L236.32515632515504,97.87087912087917L239.09571909572253,97.04670329670338L241.86628186627482,95.3983516483517L244.63684463684228,94.78021978021984L247.4074074073946,93.13186813186817L250.17797017796207,90.65934065934067L252.9485329485346,87.7747252747253L255.71909571909197,85.30219780219784L258.48965848965435,85.30219780219784L261.2602212602118,85.71428571428578L264.0307840307843,84.89010989010993L266.80134680135177,84.68406593406597L269.5719095719091,84.27197802197806L272.3424723424715,81.38736263736274L275.11303511302884,78.50274725274731L277.8835978835913,75.20604395604403L280.65416065414865,75.20604395604403L283.4247234247212,75.41208791208798L286.19528619528865,75.41208791208798L288.965848965846,75.41208791208798L291.73641173640846,75.61813186813194L294.50697450697083,73.96978021978029L297.27753727753327,71.9093406593407L300.0481000480957,69.0247252747253L302.8186628186682,68.40659340659343L305.5892255892255,69.23076923076928L308.359788359788,70.46703296703302L311.13035113034533,71.9093406593407L313.90091390091277,72.93956043956048L316.67147667147526,71.49725274725279L319.4420394420427,70.05494505494511L322.2126022126,67.37637362637365L324.9831649831625,66.75824175824175L327.7537277537249,67.37637362637365L330.52429052428727,67.99450549450552L333.2948532948447,68.61263736263736L336.06541606541214,68.40659340659343L338.8359788359745,69.23076923076928L341.606541606542,66.14010989010993L344.37710437710444,63.04945054945059L347.1476671476668,59.3406593406594L349.91822991822926,55.6318681318682L352.68879268880175,52.747252747252794L355.4593554593541,50.686813186813204L358.22991822992157,48.21428571428578L361.4622414622419,51.098901098901116L363.61712361712205,35.439560439560516L366.0798460798459,46.5659340659341L369.7739297739291,31.318681318681342L371.3131313131271,37.500000000000064L374.853294853291,31.524725274725363L377.39297739297706,27.970467032967083L380.3944203944158,25.13736263736268L382.7032227032204,21.63461538461544L384.55026455025694,18.54395604395611L386.3973063973086,15.144230769230816L388.2443482443452,10.508241758241788L390.09139009138687,7.108516483516558L392.40019240019643,4.739010989011039L395.17075517075375,4.945054945054994" stroke="#0063AF" stroke-width="2"/></g></g><path class="foreground" aria-hidden="true" d="" display="none"/></g></g></g><defs><linearGradient id="gradient_0" x1="1" x2="1" y1="1" y2="0"><stop offset="0" stop-color="white"/><stop offset="1" stop-color="#179FDB"/></linearGradient></defs></svg>