<svg xmlns="http://www.w3.org/2000/svg" xmlns:xlink="http://www.w3.org/1999/xlink" version="1.1" class="marks" width="480" height="343" viewBox="0 0 480 343"><rect width="480" height="343" fill="white"/><g fill="none" stroke-miterlimit="10" transform="translate(24,21)"><g class="mark-group role-frame root" role="graphics-object" aria-roledescription="group mark container"><g transform="translate(0,0)"><path class="background" aria-hidden="true" d="M0,0h450v300h-450Z"/><g><g class="mark-group role-axis" role="graphics-symbol" aria-roledescription="axis" aria-label="X-axis titled '⬅ historical    forecast ➡' for a linear scale with values from 2020 to 2026"><g transform="translate(0.5,300.5)"><path class="background" aria-hidden="true" d="M0,0h0v0h0Z" pointer-events="none"/><g><g class="mark-rule role-axis-tick" pointer-events="none"><line transform="translate(7,0)" x2="0" y2="5" stroke="#676A86" stroke-width="1" opacity="1"/><line transform="translate(81,0)" x2="0" y2="5" stroke="#676A86" stroke-width="1" opacity="1"/><line transform="translate(155,0)" x2="0" y2="5" stroke="#676A86" stroke-width="1" opacity="1"/><line transform="translate(229,0)" x2="0" y2="5" stroke="#676A86" stroke-width="1" opacity="1"/><line transform="translate(302,0)" x2="0" y2="5" stroke="#676A86" stroke-width="1" opacity="1"/><line transform="translate(376,0)" x2="0" y2="5" stroke="#676A86" stroke-width="1" opacity="1"/><line transform="translate(450,0)" x2="0" y2="5" stroke="#676A86" stroke-width="1" opacity="1"/></g><g class="mark-text role-axis-label" pointer-events="none"><text text-anchor="middle" transform="translate(7.377049180321269,15)" font-family="sans-serif" font-size="10px" fill="#676A86" opacity="1">2020</text><text text-anchor="middle" transform="translate(81.14754098360105,15)" font-family="sans-serif" font-size="10px" fill="#676A86" opacity="1">2021</text><text text-anchor="middle" transform="translate(154.91803278688084,15)" font-family="sans-serif" font-size="10px" fill="#676A86" opacity="1">2022</text><text text-anchor="middle" transform="translate(228.68852459016065,15)" font-family="sans-serif" font-size="10px" fill="#676A86" opacity="1">2023</text><text text-anchor="middle" transform="translate(302.45901639344044,15)" font-family="sans-serif" font-size="10px" fill="#676A86" opacity="1">2024</text><text text-anchor="middle" transform="translate(376.22950819672025,15)" font-family="sans-serif" font-size="10px" fill="#676A86" opacity="1">2025</text><text text-anchor="end" transform="translate(450,15)" font-family="sans-serif" font-size="10px" fill="#676A86" opacity="1">2026</text></g><g class="mark-rule role-axis-domain" pointer-events="none"><line transform="translate(0,0)" x2="450" y2="0" stroke="#676A86" stroke-width="1" opacity="1"/></g><g class="mark-text role-axis-title" pointer-events="none"><text text-anchor="middle" transform="translate(216,-286)" font-family="sans-serif" font-size="11px" font-weight="bold" fill="#676A86" opacity="1">⬅ historical    forecast ➡</text></g></g><path class="foreground" aria-hidden="true" d="" pointer-events="none" display="none"/></g></g><g class="mark-group role-axis" role="graphics-symbol" aria-roledescription="axis" aria-label="Y-axis titled '%' for a linear scale with values from −1 to 6"><g transform="translate(0.5,0.5)"><path class="background" aria-hidden="true" d="M0,0h0v0h0Z" pointer-events="none"/><g><g class="mark-rule role-axis-tick" pointer-events="none"><line transform="translate(0,300)" x2="-5" y2="0" stroke="#676A86" stroke-width="1" opacity="1"/><line transform="translate(0,257)" x2="-5" y2="0" stroke="#676A86" stroke-width="1" opacity="1"/><line transform="translate(0,214)" x2="-5" y2="0" stroke="#676A86" stroke-width="1" opacity="1"/><line transform="translate(0,171)" x2="-5" y2="0" stroke="#676A86" stroke-width="1" opacity="1"/><line transform="translate(0,129)" x2="-5" y2="0" stroke="#676A86" stroke-width="1" opacity="1"/><line transform="translate(0,86)" x2="-5" y2="0" stroke="#676A86" stroke-width="1" opacity="1"/><line transform="translate(0,43)" x2="-5" y2="0" stroke="#676A86" stroke-width="1" opacity="1"/><line transform="translate(0,0)" x2="-5" y2="0" stroke="#676A86" stroke-width="1" opacity="1"/></g><g class="mark-text role-axis-label" pointer-events="none"><text text-anchor="end" transform="translate(-7,303)" font-family="sans-serif" font-size="10px" fill="#676A86" opacity="1">−1</text><text text-anchor="end" transform="translate(-7,260.14285714285717)" font-family="sans-serif" font-size="10px" fill="#676A86" opacity="1">0</text><text text-anchor="end" transform="translate(-7,217.28571428571428)" font-family="sans-serif" font-size="10px" fill="#676A86" opacity="1">1</text><text text-anchor="end" transform="translate(-7,174.42857142857142)" font-family="sans-serif" font-size="10px" fill="#676A86" opacity="1">2</text><text text-anchor="end" transform="translate(-7,131.57142857142858)" font-family="sans-serif" font-size="10px" fill="#676A86" opacity="1">3</text><text text-anchor="end" transform="translate(-7,88.71428571428571)" font-family="sans-serif" font-size="10px" fill="#676A86" opacity="1">4</text><text text-anchor="end" transform="translate(-7,45.85714285714287)" font-family="sans-serif" font-size="10px" fill="#676A86" opacity="1">5</text><text text-anchor="end" transform="translate(-7,3)" font-family="sans-serif" font-size="10px" fill="#676A86" opacity="1">6</text></g><g class="mark-rule role-axis-domain" pointer-events="none"><line transform="translate(0,300)" x2="0" y2="-300" stroke="#676A86" stroke-width="1" opacity="1"/></g><g class="mark-text role-axis-title" pointer-events="none"><text text-anchor="start" transform="translate(-5,-7)" font-family="sans-serif" font-size="11px" font-weight="bold" fill="#676A86" opacity="1">%</text></g></g><path class="foreground" aria-hidden="true" d="" pointer-events="none" display="none"/></g></g><g class="mark-line role-mark layer_0_marks" role="graphics-object" aria-roledescription="line mark container"><path aria-label="x1: 2020; y1: 1.738317757" role="graphics-symbol" aria-roledescription="line mark" d="M7.54701639344301,182.6435247L19.445459016394608,182.6435247L19.445459016394608,207.4766355L22.505090163934995,207.4766355L22.505090163934995,245.92790387142858L169.70613934425108,245.92790387142858L169.70613934425108,238.71829105714286L178.88495901638902,238.71829105714286L178.88495901638902,217.89052071428574L187.72377049180022,217.89052071428574L187.72377049180022,185.04672895714285L195.88278688524125,185.04672895714285L195.88278688524125,153.00400534285714L207.78122950819287,153.00400534285714L207.78122950819287,118.55807742857144L214.58036065572705,118.55807742857144L214.58036065572705,118.55807742857144" stroke="#F4134D" stroke-width="2"/></g><g class="mark-line role-mark layer_1_marks" role="graphics-object" aria-roledescription="line mark container"><path aria-label="x1: 2023; y1: 3.757009346" role="graphics-symbol" aria-roledescription="line mark" d="M222.0593606557314,96.12817088571427L223.2492049180277,92.38985312857142C224.43904918032396,88.65153537142855,226.81873770491651,81.17489985714285,229.6517090163919,74.76635513571428C232.48468032786727,68.35781041428571,235.77093442622547,63.01735648571429,238.207290983603,59.94659547142859C240.6436475409806,56.87583445714287,242.23010655737747,56.07476635714287,246.70619262295136,55.80774365714286C251.18227868852532,55.54072095714286,258.54799180327626,55.807743657142844,265.46043442622494,55.67423230714284C272.37287704917367,55.54072095714283,278.8320491803201,55.00667555714284,284.9512622950759,55.14018690714284C291.0704754098317,55.27369825714285,296.84972950819696,56.074766357142856,303.9888073770495,59.012016028571416C311.1278852459022,61.94926569999999,319.62678688524215,67.02269694285712,329.2022213114695,72.09612818571426C338.7776557376969,77.1695594285714,349.4296229508116,82.24299067142856,359.51499590163183,86.38184247142856C369.60036885245205,90.52069427142857,379.1191475409778,93.72496662857144,388.24129918032236,96.12817089999999C397.36345081966687,98.53137517142856,406.08897540983025,100.13351135714284,416.06102459015824,101.60213619285713C426.0330737704862,103.07076102857143,437.2516475409788,104.4058745142857,442.8609344262251,105.07343125714284L448.4702213114714,105.74098799999999" stroke="#F4134D" stroke-width="2" stroke-dasharray="5,5"/></g><g class="mark-line role-mark layer_2_marks" role="graphics-object" aria-roledescription="line mark container"><path aria-label="x1: 2023; y1: 3.158878505" role="graphics-symbol" aria-roledescription="line mark" d="M223.07923770491152,121.76234978571425L224.38240573770005,120.42723629999996C225.68557377048856,119.09212281428569,228.29190983606557,116.42189584285711,231.01155737704872,114.5527369642857C233.73120491803186,112.68357808571427,236.56416393442112,111.6154873,239.79374999999433,111.08144190714289C243.02333606556752,110.54739651428572,246.64954918032467,110.54739651428572,251.23895901639082,110.94793056428574C255.82836885245698,111.34846461428573,261.38097540983216,112.14953271428574,266.53697950819287,113.08411215714288C271.6929836065536,114.01869160000001,276.45238524589973,115.08678238571429,281.60838934426044,117.22296395714285C286.76439344262116,119.35914552857143,292.3169999999963,122.56341788571429,298.20956557376763,125.50066755C304.102131147539,128.4379172142857,310.3346557377065,131.10814418571428,316.96380737705243,133.77837115714286C323.5929590163983,136.44859812857143,330.6187377049225,139.11882509999998,338.77769262295527,141.38851802142855C346.9366475409881,143.65821094285715,356.22877868852925,145.52736981428572,364.7843360655765,147.12950599285713C373.3398934426237,148.73164217142858,381.15887704917697,150.06675565714286,388.41126639343844,150.6008010571429C395.6636557377,151.13484645714286,402.3494508196698,150.8678237714286,409.2052377049168,150.86782377142856C416.06102459016387,150.8678237714286,423.08680327868814,151.13484645714286,426.5996926229502,151.2683578L430.11258196721235,151.40186914285715" stroke="#F4134D" stroke-width="2" stroke-dasharray="2,2"/></g><g class="mark-line role-mark layer_3_marks" role="graphics-object" aria-roledescription="line mark container"><path aria-label="x2: 2020.006912; y2: 0.710280374" role="graphics-symbol" aria-roledescription="line mark" d="M7.8869508196697184,226.7022696857143L20.465336065574736,226.7022696857143L20.465336065574736,249.1321762285714L22.165155737691514,249.1321762285714L22.165155737691514,254.73965288571426L151.68843442621872,254.73965288571426L151.68843442621872,248.33110812857143L161.54719672131006,248.33110812857143L161.54719672131006,236.31508680000002L170.04607377049456,236.31508680000002L170.04607377049456,227.50333778571428L179.90483606556913,227.50333778571428L179.90483606556913,215.48731641428574L188.74364754098033,215.48731641428574L188.74364754098033,203.47129504285712L197.5825327868748,203.47129504285712L197.5825327868748,184.2456609L208.46109836064628,184.2456609L208.46109836064628,161.81575435714288" stroke="#36B7B4" stroke-width="2"/></g><g class="mark-line role-mark layer_4_marks" role="graphics-object" aria-roledescription="line mark container"><path aria-label="x2: 2022.914747; y2: 3.028037383" role="graphics-symbol" aria-roledescription="line mark" d="M222.3993688524581,127.36982644285713L225.34565163934238,118.02403205C228.29193442622667,108.67823765714286,234.1844999999952,89.98664887142859,239.28383606556812,76.63551402142859C244.383172131141,63.28437917142859,248.68927868851827,55.27369825714288,253.0520532786833,49.79973297142859C257.41482786884836,44.32576768571429,261.83427049180113,41.38851802857142,267.0469303278663,39.385847807142845C272.2595901639314,37.383177585714265,278.2654672131089,36.31508679999999,285.12124180327254,36.44859814285713C291.97701639343626,36.58210948571428,299.6826885245862,37.917222957142855,308.57821721311296,40.05340452857143C317.4737459016397,42.1895861,327.5591311475432,45.126835771428574,337.1345655737734,47.66355139285715C346.7100000000035,50.200267014285714,355.7754836065603,52.33644858571429,364.61434426229647,54.20560746428571C373.45320491803267,56.07476634285714,382.0654426229482,57.67690252857142,390.7909918032754,59.41255006428571C399.5165409836027,61.14819759999998,408.35540163934166,63.01735648571427,417.874168032784,64.75300401428571C427.3929344262264,66.48865154285713,437.5916065573722,68.0907877142857,442.6909426229451,68.89185579999999L447.790278688518,69.69292388571426" stroke="#36B7B4" stroke-width="2" stroke-dasharray="5,5"/></g><g class="mark-line role-mark layer_5_marks" role="graphics-object" aria-roledescription="line mark container"><path aria-label="x2: 0; y2: 0" role="graphics-symbol" aria-roledescription="line mark" d="M222.73930327868484,152.20293724285716L225.2889713114713,149.66622162142858C227.83863934425776,147.12950600000002,232.93797540983064,142.05607475714285,238.94386475409428,138.45126835C244.94975409835783,134.84646194285713,251.8621967213121,132.71028037142855,259.17125409836143,132.17623497857142C266.4803114754107,131.64218958571428,274.185983606555,132.71028037142855,281.7216762295054,134.04539385714284C289.2573688524559,135.38050734285716,296.62308196721244,136.98264352857143,304.4420778688518,139.11882510714287C312.2610737704912,141.2550066857143,320.5333524590134,143.92523365714285,329.03226639343944,146.46194927857144C337.5311803278656,148.9986649,346.25672950819563,151.40186917142856,355.26556967213133,153.40453939285715C364.274409836067,155.40720961428573,373.56654098360815,157.00934578571426,381.21554508196755,158.07743657142856C388.86454918032695,159.14552735714284,394.87042622950435,159.67957275714284,402.68940983606035,160.48064085C410.5083934426164,161.28170894285714,420.140483606551,162.3497997285714,424.9565286885183,162.88384512142855L429.7725737704856,163.41789051428572" stroke="#36B7B4" stroke-width="2" stroke-dasharray="2,2"/></g><g class="mark-line role-mark layer_6_marks" role="graphics-object" aria-roledescription="line mark container"><path aria-label="x3: 0; y3: 0" role="graphics-symbol" aria-roledescription="line mark" d="M7.207081967199528,280.3738317857143L196.90259016393816,280.3738317857143L196.90259016393816,259.5460614L206.42141803278602,259.5460614L206.42141803278602,228.3044058857143L213.90041803279038,228.3044058857143L213.90041803279038,228.3044058857143" stroke="#5C267B" stroke-width="2"/></g><g class="mark-line role-mark layer_7_marks" role="graphics-object" aria-roledescription="line mark container"><path aria-label="x3: 2023.099078; y3: 2.074766355" role="graphics-symbol" aria-roledescription="line mark" d="M235.99755737704328,168.22429907142856L238.66054918032194,164.3524699642857C241.32354098360065,160.48064085714284,246.649524590158,152.73698264285713,253.95858196720732,146.46194926428572C261.2676393442566,140.18691588571426,270.55977049179785,135.3805073428571,280.07854918032353,133.11081442142856C289.5973278688493,130.84112149999999,299.3427540983595,131.1081442,309.31480327868746,131.77570094285716C319.28685245901545,132.44325768571431,329.4855245901612,133.5113484714286,339.7408647540948,134.31241655714285C349.99620491802835,135.11348464285714,360.30821311474966,135.64753002857142,369.20374180327366,135.91455272142858C378.0992704917976,136.1815754142857,385.5783196721241,136.1815754142857,393.28399180327125,136.31508676428572C400.9896639344184,136.44859811428572,408.92195901638615,136.7156208142857,418.04411065573066,136.7156208142857C427.1662622950753,136.7156208142857,437.4782704917966,136.44859811428572,442.6342745901573,136.3150867642857L447.790278688518,136.1815754142857" stroke="#5C267B" stroke-width="2" stroke-dasharray="5,5"/></g><g class="mark-line role-mark layer_8_marks" role="graphics-object" aria-roledescription="line mark container"><path aria-label="x3: 2023.089862; y3: 0.91588785" role="graphics-symbol" aria-roledescription="line mark" d="M235.31768852458984,217.89052071428574L239.11386885245759,215.62082778571428C242.91004918032527,213.3511348571429,250.5024098360607,208.81174900000005,258.94465573769907,206.00801067857142C267.3869016393374,203.20427235714286,276.6790327868786,202.13618157142858,286.3111229508132,201.46862482857145C295.94321311474783,200.8010680857143,305.9152622950758,200.53404538571428,316.90717622950336,200.2670226857143C327.899090163931,199.99999998571425,339.9108688524582,199.73297728571424,350.56282377049234,199.06542054285714C361.21477868852656,198.39786379999998,370.5069098360678,197.3297730142857,383.48189754098445,196.39519357857145C396.4568852459012,195.46061414285714,413.1147295081934,194.65954605714288,421.4436516393395,194.25901201428573L429.7725737704856,193.85847797142858" stroke="#5C267B" stroke-width="2" stroke-dasharray="2,2"/></g><g class="mark-line role-mark layer_9_marks" role="graphics-object" aria-roledescription="line mark container"><path aria-label="x3: 2022.914747; y3: 1.289719626" role="graphics-symbol" aria-roledescription="line mark" d="M222.3993688524581,201.86915888571426L235.99755737704328,168.22429907142856" stroke="#5C267B" stroke-width="2" stroke-dasharray="5,5"/></g><g class="mark-line role-mark layer_10_marks" role="graphics-object" aria-roledescription="line mark container"><path aria-label="x3: 2022.919355; y3: 0.560747664" role="graphics-symbol" aria-roledescription="line mark" d="M222.73930327868484,233.1108144L235.31768852458984,217.89052071428574" stroke="#5C267B" stroke-width="2" stroke-dasharray="2,2"/></g><g class="mark-line role-mark layer_11_marks" role="graphics-object" aria-roledescription="line mark container"><path aria-label="x1: 2020.1; y1: 0" role="graphics-symbol" aria-roledescription="line mark" d="M14.754098360642539,257.14285714285717L450,257.14285714285717" stroke="#676A86" stroke-width="1" stroke-dasharray="5,5"/></g><g class="mark-line role-mark layer_12_marks" role="graphics-object" aria-roledescription="line mark container"><path aria-label="x1: 2022.87; y1: −1" role="graphics-symbol" aria-roledescription="line mark" d="M219.09836065572622,300L219.09836065572622,0" stroke="#676A86" stroke-width="1" stroke-dasharray="5,5"/></g><g class="mark-text role-mark layer_13_marks" role="graphics-object" aria-roledescription="text mark container"><text aria-label="t: Federal funds rate; x: 2020; y: 2" role="graphics-symbol" aria-roledescription="text mark" text-anchor="start" transform="translate(7.377049180321269,174.42857142857142)" font-family="sans-serif" font-size="11px" fill="#F4134D">Federal funds rate</text></g><g class="mark-text role-mark layer_14_marks" role="graphics-object" aria-roledescription="text mark container"><text aria-label="t: Bank rate; x: 2020.3; y: 0.8" role="graphics-symbol" aria-roledescription="text mark" text-anchor="start" transform="translate(29.508196721301854,225.85714285714286)" font-family="sans-serif" font-size="11px" fill="#36B7B4">Bank rate</text></g><g class="mark-text role-mark layer_15_marks" role="graphics-object" aria-roledescription="text mark container"><text aria-label="t: ECB deposit rate; x: 2020; y: −0.3" role="graphics-symbol" aria-roledescription="text mark" text-anchor="start" transform="translate(7.377049180321269,273)" font-family="sans-serif" font-size="11px" fill="#5C267B">ECB deposit rate</text></g><g class="mark-text role-mark layer_16_marks" role="graphics-object" aria-roledescription="text mark container"><text aria-label="t: US; x: 2024.8; y: 4.2" role="graphics-symbol" aria-roledescription="text mark" text-anchor="start" transform="translate(361.47540983606086,80.14285714285714)" font-family="sans-serif" font-size="11px" fill="#F4134D">US</text></g><g class="mark-text role-mark layer_17_marks" role="graphics-object" aria-roledescription="text mark container"><text aria-label="t: UK; x: 2024.8; y: 5" role="graphics-symbol" aria-roledescription="text mark" text-anchor="start" transform="translate(361.47540983606086,45.85714285714287)" font-family="sans-serif" font-size="11px" fill="#36B7B4">UK</text></g><g class="mark-text role-mark layer_18_marks" role="graphics-object" aria-roledescription="text mark container"><text aria-label="t: Euro area; x: 2024.6; y: 3.1" role="graphics-symbol" aria-roledescription="text mark" text-anchor="start" transform="translate(346.7213114754016,127.2857142857143)" font-family="sans-serif" font-size="11px" fill="#5C267B">Euro area</text></g><g class="mark-text role-mark layer_19_marks" role="graphics-object" aria-roledescription="text mark container"><text aria-label="t: - - Dashed lines: November 2022; x: 2020.1; y: 4.4" role="graphics-symbol" aria-roledescription="text mark" text-anchor="start" transform="translate(14.754098360642539,71.57142857142856)" font-family="sans-serif" font-size="11px" fill="#676A86">- - Dashed lines: November 2022</text></g><g class="mark-text role-mark layer_20_marks" role="graphics-object" aria-roledescription="text mark container"><text aria-label="t: ··· Dotted lines: August 2022; x: 2020.1; y: 4" role="graphics-symbol" aria-roledescription="text mark" text-anchor="start" transform="translate(14.754098360642539,88.71428571428571)" font-family="sans-serif" font-size="11px" fill="#676A86">··· Dotted lines: August 2022</text></g></g><path class="foreground" aria-hidden="true" d="" display="none"/></g></g></g></svg>