<svg xmlns="http://www.w3.org/2000/svg" xmlns:xlink="http://www.w3.org/1999/xlink" version="1.1" class="marks" width="430" height="343" viewBox="0 0 430 343"><rect width="430" height="343" fill="white"/><g fill="none" stroke-miterlimit="10" transform="translate(18,21)"><g class="mark-group role-frame root" role="graphics-object" aria-roledescription="group mark container"><g transform="translate(0,0)"><path class="background" aria-hidden="true" d="M0,0h400v300h-400Z"/><g><g class="mark-group role-axis" role="graphics-symbol" aria-roledescription="axis" aria-label="X-axis for a linear scale with values from 2006 to 2028"><g transform="translate(0.5,300.5)"><path class="background" aria-hidden="true" d="M0,0h0v0h0Z" pointer-events="none"/><g><g class="mark-rule role-axis-tick" pointer-events="none"><line transform="translate(0,0)" x2="0" y2="5" stroke="#676A86" stroke-width="1" opacity="1"/><line transform="translate(36,0)" x2="0" y2="5" stroke="#676A86" stroke-width="1" opacity="1"/><line transform="translate(73,0)" x2="0" y2="5" stroke="#676A86" stroke-width="1" opacity="1"/><line transform="translate(109,0)" x2="0" y2="5" stroke="#676A86" stroke-width="1" opacity="1"/><line transform="translate(145,0)" x2="0" y2="5" stroke="#676A86" stroke-width="1" opacity="1"/><line transform="translate(182,0)" x2="0" y2="5" stroke="#676A86" stroke-width="1" opacity="1"/><line transform="translate(218,0)" x2="0" y2="5" stroke="#676A86" stroke-width="1" opacity="1"/><line transform="translate(255,0)" x2="0" y2="5" stroke="#676A86" stroke-width="1" opacity="1"/><line transform="translate(291,0)" x2="0" y2="5" stroke="#676A86" stroke-width="1" opacity="1"/><line transform="translate(327,0)" x2="0" y2="5" stroke="#676A86" stroke-width="1" opacity="1"/><line transform="translate(364,0)" x2="0" y2="5" stroke="#676A86" stroke-width="1" opacity="1"/><line transform="translate(400,0)" x2="0" y2="5" stroke="#676A86" stroke-width="1" opacity="1"/></g><g class="mark-text role-axis-label" pointer-events="none"><text text-anchor="start" transform="translate(0,15)" font-family="sans-serif" font-size="10px" fill="#676A86" opacity="1">2006</text><text text-anchor="middle" transform="translate(36.36363636363637,15)" font-family="sans-serif" font-size="10px" fill="#676A86" opacity="1">2008</text><text text-anchor="middle" transform="translate(72.72727272727273,15)" font-family="sans-serif" font-size="10px" fill="#676A86" opacity="1">2010</text><text text-anchor="middle" transform="translate(109.09090909090908,15)" font-family="sans-serif" font-size="10px" fill="#676A86" opacity="1">2012</text><text text-anchor="middle" transform="translate(145.45454545454547,15)" font-family="sans-serif" font-size="10px" fill="#676A86" opacity="1">2014</text><text text-anchor="middle" transform="translate(181.8181818181818,15)" font-family="sans-serif" font-size="10px" fill="#676A86" opacity="1">2016</text><text text-anchor="middle" transform="translate(218.18181818181816,15)" font-family="sans-serif" font-size="10px" fill="#676A86" opacity="1">2018</text><text text-anchor="middle" transform="translate(254.54545454545453,15)" font-family="sans-serif" font-size="10px" fill="#676A86" opacity="1">2020</text><text text-anchor="middle" transform="translate(290.90909090909093,15)" font-family="sans-serif" font-size="10px" fill="#676A86" opacity="1">2022</text><text text-anchor="middle" transform="translate(327.2727272727273,15)" font-family="sans-serif" font-size="10px" fill="#676A86" opacity="1">2024</text><text text-anchor="middle" transform="translate(363.6363636363636,15)" font-family="sans-serif" font-size="10px" fill="#676A86" opacity="1">2026</text><text text-anchor="end" transform="translate(400,15)" font-family="sans-serif" font-size="10px" fill="#676A86" opacity="1">2028</text></g><g class="mark-rule role-axis-domain" pointer-events="none"><line transform="translate(0,0)" x2="400" y2="0" stroke="#676A86" stroke-width="1" opacity="1"/></g></g><path class="foreground" aria-hidden="true" d="" pointer-events="none" display="none"/></g></g><g class="mark-group role-axis" role="graphics-symbol" aria-roledescription="axis" aria-label="Y-axis titled '%' for a linear scale with values from 0 to 6"><g transform="translate(0.5,0.5)"><path class="background" aria-hidden="true" d="M0,0h0v0h0Z" pointer-events="none"/><g><g class="mark-rule role-axis-tick" pointer-events="none"><line transform="translate(0,300)" x2="-5" y2="0" stroke="#676A86" stroke-width="1" opacity="1"/><line transform="translate(0,250)" x2="-5" y2="0" stroke="#676A86" stroke-width="1" opacity="1"/><line transform="translate(0,200)" x2="-5" y2="0" stroke="#676A86" stroke-width="1" opacity="1"/><line transform="translate(0,150)" x2="-5" y2="0" stroke="#676A86" stroke-width="1" opacity="1"/><line transform="translate(0,100)" x2="-5" y2="0" stroke="#676A86" stroke-width="1" opacity="1"/><line transform="translate(0,50)" x2="-5" y2="0" stroke="#676A86" stroke-width="1" opacity="1"/><line transform="translate(0,0)" x2="-5" y2="0" stroke="#676A86" stroke-width="1" opacity="1"/></g><g class="mark-text role-axis-label" pointer-events="none"><text text-anchor="end" transform="translate(-7,303)" font-family="sans-serif" font-size="10px" fill="#676A86" opacity="1">0</text><text text-anchor="end" transform="translate(-7,253)" font-family="sans-serif" font-size="10px" fill="#676A86" opacity="1">1</text><text text-anchor="end" transform="translate(-7,203.00000000000003)" font-family="sans-serif" font-size="10px" fill="#676A86" opacity="1">2</text><text text-anchor="end" transform="translate(-7,153)" font-family="sans-serif" font-size="10px" fill="#676A86" opacity="1">3</text><text text-anchor="end" transform="translate(-7,103.00000000000001)" font-family="sans-serif" font-size="10px" fill="#676A86" opacity="1">4</text><text text-anchor="end" transform="translate(-7,52.999999999999986)" font-family="sans-serif" font-size="10px" fill="#676A86" opacity="1">5</text><text text-anchor="end" transform="translate(-7,3)" font-family="sans-serif" font-size="10px" fill="#676A86" opacity="1">6</text></g><g class="mark-rule role-axis-domain" pointer-events="none"><line transform="translate(0,300)" x2="0" y2="-300" stroke="#676A86" stroke-width="1" opacity="1"/></g><g class="mark-text role-axis-title" pointer-events="none"><text text-anchor="start" transform="translate(-5,-7)" font-family="sans-serif" font-size="11px" font-weight="bold" fill="#676A86" opacity="1">%</text></g></g><path class="foreground" aria-hidden="true" d="" pointer-events="none" display="none"/></g></g><g class="mark-area role-mark layer_0_layer_0_marks" role="graphics-object" aria-roledescription="area mark container"><path aria-label="x: 2006; y: 5.29477272727" role="graphics-symbol" aria-roledescription="area mark" d="M1.617724635132783,35.26136363636364L7.631440126603841,34.181818181818166L13.144012660454377,25.67499999999997L18.656585194304913,18.852272727272734L23.668014770530796,11.295454545454565L28.67944434676495,3.090909090909111L34.6931598382236,4.278409090909097L40.70687532969466,9.892045454545418L45.21716194830416,13.670454545454536L47.722876736415024,23.602272727272744L49.22630560928899,33.96590909090911L50.22859152452177,38.49999999999999L50.5626868296159,50.59090909090907L51.56497274485694,64.62500000000001L52.56725866010211,78.87500000000004L53.2354492702697,91.61363636363635L54.57183049058833,100.46590909090911L56.57640232109109,112.12500000000001L60.752593634610584,120.43750000000001L66.76630912608165,120.32954545454542L72.7800246175403,116.01136363636364L78.79374010901962,118.2784090909091L84.80745560049068,124.43181818181822L90.82117109196174,125.94318181818181L96.83488658343694,128.21022727272728L102.848602074908,130.47727272727272L108.86231756637905,130.47727272727272L114.87603305784597,130.47727272727272L120.8897485493253,130.47727272727272L126.9034640408005,131.66477272727275L132.91717953226743,135.55113636363635L138.9308950237385,135.6590909090909L144.9446105152054,136.6306818181818L150.95832600668473,140.625L156.97204149815164,140.84090909090912L162.98575698962273,141.48863636363637L168.9994724810979,145.69886363636365L175.0131879725731,148.82954545454544L181.02690346404415,151.5284090909091L187.04061895551106,157.25L193.05433444698215,163.7272727272727L199.06804993845734,169.88068181818178L205.0817654299284,172.47159090909093L211.09548092139946,175.81818181818184L217.10919641287464,175.81818181818184L223.12291190434155,175.81818181818184L229.13662739581676,175.81818181818184L235.15034288728782,176.35795454545456L241.164058378763,180.35227272727278L247.1777738702258,180.99999999999997L253.19148936170097,181.75568181818184L258.70406189555564,190.19772727272726L264.21663442940206,195.4659090909091L270.23034992087315,195.8977272727273L276.2440654123442,195.8977272727273L282.2577809038111,197.30113636363637L288.2714963952863,200.7556818181818L294.2852118867656,196.97727272727278L298.7954985053627,191.14772727272728L301.13416564093893,180.35227272727278L301.13416564093893,300L298.7954985053627,300L294.2852118867656,300L288.2714963952863,300L282.2577809038111,300L276.2440654123442,300L270.23034992087315,300L264.21663442940206,300L258.70406189555564,300L253.19148936170097,300L247.1777738702258,300L241.164058378763,300L235.15034288728782,300L229.13662739581676,300L223.12291190434155,300L217.10919641287464,300L211.09548092139946,300L205.0817654299284,300L199.06804993845734,300L193.05433444698215,300L187.04061895551106,300L181.02690346404415,300L175.0131879725731,300L168.9994724810979,300L162.98575698962273,300L156.97204149815164,300L150.95832600668473,300L144.9446105152054,300L138.9308950237385,300L132.91717953226743,300L126.9034640408005,300L120.8897485493253,300L114.87603305784597,300L108.86231756637905,300L102.848602074908,300L96.83488658343694,300L90.82117109196174,300L84.80745560049068,300L78.79374010901962,300L72.7800246175403,300L66.76630912608165,300L60.752593634610584,300L56.57640232109109,300L54.57183049058833,300L53.2354492702697,300L52.56725866010211,300L51.56497274485694,300L50.5626868296159,300L50.22859152452177,300L49.22630560928899,300L47.722876736415024,300L45.21716194830416,300L40.70687532969466,300L34.6931598382236,300L28.67944434676495,300L23.668014770530796,300L18.656585194304913,300L13.144012660454377,300L7.631440126603841,300L1.617724635132783,300Z" fill="url(#gradient_0)" opacity="0.7"/></g><g class="mark-line role-mark layer_0_layer_1_marks" role="graphics-object" aria-roledescription="line mark container"><path aria-label="x: 2006; y: 5.29477272727" role="graphics-symbol" aria-roledescription="line mark" d="M1.617724635132783,35.26136363636364L7.631440126603841,34.181818181818166L13.144012660454377,25.67499999999997L18.656585194304913,18.852272727272734L23.668014770530796,11.295454545454565L28.67944434676495,3.090909090909111L34.6931598382236,4.278409090909097L40.70687532969466,9.892045454545418L45.21716194830416,13.670454545454536L47.722876736415024,23.602272727272744L49.22630560928899,33.96590909090911L50.22859152452177,38.49999999999999L50.5626868296159,50.59090909090907L51.56497274485694,64.62500000000001L52.56725866010211,78.87500000000004L53.2354492702697,91.61363636363635L54.57183049058833,100.46590909090911L56.57640232109109,112.12500000000001L60.752593634610584,120.43750000000001L66.76630912608165,120.32954545454542L72.7800246175403,116.01136363636364L78.79374010901962,118.2784090909091L84.80745560049068,124.43181818181822L90.82117109196174,125.94318181818181L96.83488658343694,128.21022727272728L102.848602074908,130.47727272727272L108.86231756637905,130.47727272727272L114.87603305784597,130.47727272727272L120.8897485493253,130.47727272727272L126.9034640408005,131.66477272727275L132.91717953226743,135.55113636363635L138.9308950237385,135.6590909090909L144.9446105152054,136.6306818181818L150.95832600668473,140.625L156.97204149815164,140.84090909090912L162.98575698962273,141.48863636363637L168.9994724810979,145.69886363636365L175.0131879725731,148.82954545454544L181.02690346404415,151.5284090909091L187.04061895551106,157.25L193.05433444698215,163.7272727272727L199.06804993845734,169.88068181818178L205.0817654299284,172.47159090909093L211.09548092139946,175.81818181818184L217.10919641287464,175.81818181818184L223.12291190434155,175.81818181818184L229.13662739581676,175.81818181818184L235.15034288728782,176.35795454545456L241.164058378763,180.35227272727278L247.1777738702258,180.99999999999997L253.19148936170097,181.75568181818184L258.70406189555564,190.19772727272726L264.21663442940206,195.4659090909091L270.23034992087315,195.8977272727273L276.2440654123442,195.8977272727273L282.2577809038111,197.30113636363637L288.2714963952863,200.7556818181818L294.2852118867656,196.97727272727278L298.7954985053627,191.14772727272728L301.13416564093893,180.35227272727278" stroke="#0063AF" stroke-width="2"/></g><g class="mark-line role-mark layer_1_marks" role="graphics-object" aria-roledescription="line mark container"><path aria-label="x: 2022; y: 2.17704545455" role="graphics-symbol" aria-roledescription="line mark" d="M298.7954985053627,191.14772727272728L301.13416564093893,180.35227272727278L302.30349920872703,168.6931818181818L303.3057851239722,160.92045454545453L304.30807103921325,151.2045454545455L306.3126428697036,139.54545454545456L308.3172147001981,128.85795454545456L310.3217865306926,117.52272727272727L312.3263583611788,106.83522727272722L314.83207314928967,95.93181818181816L317.83893089502516,85.78409090909092L320.84578864075655,76.06818181818178L323.85264638649625,67.86363636363636L328.3629330050975,59.44318181818184L334.37664849657267,52.53409090909093L340.3903639880437,51.23863636363639L346.4040794795148,55.017045454545475L352.4177949709817,55.34090909090912L358.4315104624569,55.34090909090912L364.44522595393624,55.34090909090912L370.4589414453949,58.25568181818183L376.4726569368742,60.52272727272728L382.4863724283453,60.52272727272728L388.50008791981634,63.0056818181818L394.51380341128737,66.0284090909091L399.02409002989276,69.37500000000001" stroke="#0063AF" stroke-width="2" stroke-dasharray="5,5"/></g><g class="mark-line role-mark layer_2_marks" role="graphics-object" aria-roledescription="line mark container"><path aria-label="x: 2022; y: 2.00909090909" role="graphics-symbol" aria-roledescription="line mark" d="M286.61860383330844,199.5454545454545L296.11394408299765,177.72727272727275L303.1475294531405,159.54545454545453L317.2147001934263,146.36363636363637L322.84156848953984,139.54545454545456L327.76507824863654,139.54545454545456L330.93019166519963,146.36363636363637L341.48056972041394,145.9090909090909L344.6456831369811,150.90909090909093L359.06453314576703,150.45454545454544L363.98804290487203,155.4545454545455L377.0001758396368,155.4545454545455L382.6270441357544,160.45454545454547L404.7828380517,161.36363636363635" stroke="#0063AF" stroke-width="2" stroke-dasharray="2,2"/></g><g class="mark-text role-mark layer_3_marks" role="graphics-object" aria-roledescription="text mark container"><text aria-label="t: - - Dashed lines: November 2022; x: 2011; y: 5.1" role="graphics-symbol" aria-roledescription="text mark" text-anchor="start" transform="translate(90.9090909090909,48.00000000000001)" font-family="sans-serif" font-size="11px" fill="#676A86">- - Dashed lines: November 2022</text></g><g class="mark-text role-mark layer_4_marks" role="graphics-object" aria-roledescription="text mark container"><text aria-label="t: ··· Dotted lines: August 2022; x: 2011; y: 4.8" role="graphics-symbol" aria-roledescription="text mark" text-anchor="start" transform="translate(90.9090909090909,63.00000000000002)" font-family="sans-serif" font-size="11px" fill="#676A86">··· Dotted lines: August 2022</text></g><g class="mark-text role-mark layer_5_marks" role="graphics-object" aria-roledescription="text mark container"><text aria-label="t: Forecast; x: 2025.5; y: 5.7" role="graphics-symbol" aria-roledescription="text mark" text-anchor="middle" transform="translate(354.54545454545456,17.99999999999998)" font-family="sans-serif" font-size="11px" fill="#676A86">Forecast</text></g><g class="mark-area role-mark layer_6_marks" role="graphics-object" aria-roledescription="area mark container"><path aria-label="x: 2022.55; y: 0; y2: 6" role="graphics-symbol" aria-roledescription="area mark" d="M300.9090909090901,300L400,300L400,0L300.9090909090901,0Z" fill="#676A86" opacity="0.1"/></g></g><path class="foreground" aria-hidden="true" d="" display="none"/></g></g></g><defs><linearGradient id="gradient_0" x1="1" x2="1" y1="1" y2="0"><stop offset="0" stop-color="white"/><stop offset="1" stop-color="#179FDB"/></linearGradient></defs></svg>