<svg xmlns="http://www.w3.org/2000/svg" xmlns:xlink="http://www.w3.org/1999/xlink" version="1.1" class="marks" width="462" height="343" viewBox="0 0 462 343"><rect width="462" height="343" fill="white"/><g fill="none" stroke-miterlimit="10" transform="translate(54,21)"><g class="mark-group role-frame root" role="graphics-object" aria-roledescription="group mark container"><g transform="translate(0,0)"><path class="background" aria-hidden="true" d="M0,0h400v300h-400Z"/><g><g class="mark-group role-axis" role="graphics-symbol" aria-roledescription="axis" aria-label="X-axis for a linear scale with values from 2006 to 2028"><g transform="translate(0.5,300.5)"><path class="background" aria-hidden="true" d="M0,0h0v0h0Z" pointer-events="none"/><g><g class="mark-rule role-axis-tick" pointer-events="none"><line transform="translate(0,0)" x2="0" y2="5" stroke="#676A86" stroke-width="1" opacity="1"/><line transform="translate(36,0)" x2="0" y2="5" stroke="#676A86" stroke-width="1" opacity="1"/><line transform="translate(73,0)" x2="0" y2="5" stroke="#676A86" stroke-width="1" opacity="1"/><line transform="translate(109,0)" x2="0" y2="5" stroke="#676A86" stroke-width="1" opacity="1"/><line transform="translate(145,0)" x2="0" y2="5" stroke="#676A86" stroke-width="1" opacity="1"/><line transform="translate(182,0)" x2="0" y2="5" stroke="#676A86" stroke-width="1" opacity="1"/><line transform="translate(218,0)" x2="0" y2="5" stroke="#676A86" stroke-width="1" opacity="1"/><line transform="translate(255,0)" x2="0" y2="5" stroke="#676A86" stroke-width="1" opacity="1"/><line transform="translate(291,0)" x2="0" y2="5" stroke="#676A86" stroke-width="1" opacity="1"/><line transform="translate(327,0)" x2="0" y2="5" stroke="#676A86" stroke-width="1" opacity="1"/><line transform="translate(364,0)" x2="0" y2="5" stroke="#676A86" stroke-width="1" opacity="1"/><line transform="translate(400,0)" x2="0" y2="5" stroke="#676A86" stroke-width="1" opacity="1"/></g><g class="mark-text role-axis-label" pointer-events="none"><text text-anchor="start" transform="translate(0,15)" font-family="sans-serif" font-size="10px" fill="#676A86" opacity="1">2006</text><text text-anchor="middle" transform="translate(36.36363636363637,15)" font-family="sans-serif" font-size="10px" fill="#676A86" opacity="1">2008</text><text text-anchor="middle" transform="translate(72.72727272727273,15)" font-family="sans-serif" font-size="10px" fill="#676A86" opacity="1">2010</text><text text-anchor="middle" transform="translate(109.09090909090908,15)" font-family="sans-serif" font-size="10px" fill="#676A86" opacity="1">2012</text><text text-anchor="middle" transform="translate(145.45454545454547,15)" font-family="sans-serif" font-size="10px" fill="#676A86" opacity="1">2014</text><text text-anchor="middle" transform="translate(181.8181818181818,15)" font-family="sans-serif" font-size="10px" fill="#676A86" opacity="1">2016</text><text text-anchor="middle" transform="translate(218.18181818181816,15)" font-family="sans-serif" font-size="10px" fill="#676A86" opacity="1">2018</text><text text-anchor="middle" transform="translate(254.54545454545453,15)" font-family="sans-serif" font-size="10px" fill="#676A86" opacity="1">2020</text><text text-anchor="middle" transform="translate(290.90909090909093,15)" font-family="sans-serif" font-size="10px" fill="#676A86" opacity="1">2022</text><text text-anchor="middle" transform="translate(327.2727272727273,15)" font-family="sans-serif" font-size="10px" fill="#676A86" opacity="1">2024</text><text text-anchor="middle" transform="translate(363.6363636363636,15)" font-family="sans-serif" font-size="10px" fill="#676A86" opacity="1">2026</text><text text-anchor="end" transform="translate(400,15)" font-family="sans-serif" font-size="10px" fill="#676A86" opacity="1">2028</text></g><g class="mark-rule role-axis-domain" pointer-events="none"><line transform="translate(0,0)" x2="400" y2="0" stroke="#676A86" stroke-width="1" opacity="1"/></g></g><path class="foreground" aria-hidden="true" d="" pointer-events="none" display="none"/></g></g><g class="mark-group role-axis" role="graphics-symbol" aria-roledescription="axis" aria-label="Y-axis titled 'Average house price (£)' for a linear scale with values from 0 to 350,000"><g transform="translate(0.5,0.5)"><path class="background" aria-hidden="true" d="M0,0h0v0h0Z" pointer-events="none"/><g><g class="mark-rule role-axis-tick" pointer-events="none"><line transform="translate(0,300)" x2="-5" y2="0" stroke="#676A86" stroke-width="1" opacity="1"/><line transform="translate(0,257)" x2="-5" y2="0" stroke="#676A86" stroke-width="1" opacity="1"/><line transform="translate(0,214)" x2="-5" y2="0" stroke="#676A86" stroke-width="1" opacity="1"/><line transform="translate(0,171)" x2="-5" y2="0" stroke="#676A86" stroke-width="1" opacity="1"/><line transform="translate(0,129)" x2="-5" y2="0" stroke="#676A86" stroke-width="1" opacity="1"/><line transform="translate(0,86)" x2="-5" y2="0" stroke="#676A86" stroke-width="1" opacity="1"/><line transform="translate(0,43)" x2="-5" y2="0" stroke="#676A86" stroke-width="1" opacity="1"/><line transform="translate(0,0)" x2="-5" y2="0" stroke="#676A86" stroke-width="1" opacity="1"/></g><g class="mark-text role-axis-label" pointer-events="none"><text text-anchor="end" transform="translate(-7,303)" font-family="sans-serif" font-size="10px" fill="#676A86" opacity="1">0</text><text text-anchor="end" transform="translate(-7,260.14285714285717)" font-family="sans-serif" font-size="10px" fill="#676A86" opacity="1">50,000</text><text text-anchor="end" transform="translate(-7,217.28571428571428)" font-family="sans-serif" font-size="10px" fill="#676A86" opacity="1">100,000</text><text text-anchor="end" transform="translate(-7,174.42857142857142)" font-family="sans-serif" font-size="10px" fill="#676A86" opacity="1">150,000</text><text text-anchor="end" transform="translate(-7,131.57142857142858)" font-family="sans-serif" font-size="10px" fill="#676A86" opacity="1">200,000</text><text text-anchor="end" transform="translate(-7,88.71428571428571)" font-family="sans-serif" font-size="10px" fill="#676A86" opacity="1">250,000</text><text text-anchor="end" transform="translate(-7,45.85714285714287)" font-family="sans-serif" font-size="10px" fill="#676A86" opacity="1">300,000</text><text text-anchor="end" transform="translate(-7,3)" font-family="sans-serif" font-size="10px" fill="#676A86" opacity="1">350,000</text></g><g class="mark-rule role-axis-domain" pointer-events="none"><line transform="translate(0,300)" x2="0" y2="-300" stroke="#676A86" stroke-width="1" opacity="1"/></g><g class="mark-text role-axis-title" pointer-events="none"><text text-anchor="start" transform="translate(-5,-7)" font-family="sans-serif" font-size="11px" font-weight="bold" fill="#676A86" opacity="1">Average house price (£)</text></g></g><path class="foreground" aria-hidden="true" d="" pointer-events="none" display="none"/></g></g><g class="mark-area role-mark layer_0_layer_0_marks" role="graphics-object" aria-roledescription="area mark container"><path aria-label="x: 2006; y: 161631.66588" role="graphics-symbol" aria-roledescription="area mark" d="M1.981271323831441,161.45857210274391L7.608585186434621,157.86557001280926L13.235899049041935,152.8027034315378L18.863212911653385,147.5765185734511L24.490526774260697,143.8201982067013L30.117840636872145,141.20710577765794L35.7451544994836,142.35033371536443L40.903525540203525,146.72726353401202L45.12401093716521,153.41514696959482L48.87555351223124,160.02953718061082L53.56498173106791,165.62318816153171L59.192295593679354,166.84807523764582L64.8196094562908,162.52014090204275L70.44692331889398,157.9472291512169L76.07423718149717,156.47736465988004L81.70155104410863,156.31404638306478L87.3288649067118,157.37561518236365L92.95617876932738,158.3555248432549L98.5834926319347,158.6821613968853L104.21080649454615,158.6821613968853L109.83812035714932,158.51884312007013L115.46543421975251,158.0288882896245L121.09274808236394,157.86557001280926L126.7200619449754,156.96731949032565L132.34737580758272,155.41579586058114L137.97468967019003,153.0476808467606L143.6020035328015,149.2097013416032L149.22931739541292,144.4734713139621L154.8566312580161,140.7988100856199L160.48394512062342,138.18571765657657L166.11125898323073,136.30755747320165L171.73857284583804,132.7962145216747L177.36588670844534,127.97832535562598L182.99320057105268,123.81370929683817L188.6205144336641,121.44559428301764L194.24782829627142,119.15913840760467L199.87514215887876,116.62770511696894L205.50245602148195,113.85129441111039L211.12976988408926,111.23820198206703L216.75708374669657,109.36004179869212L222.38439760930802,107.72685903054L228.01171147192773,106.25699453920312L233.63902533452676,105.76703970875751L239.2663391971341,105.76703970875751L244.89365305973726,104.95044832468145L250.52096692234045,104.29717521742063L256.14828078496015,102.90896986449133L261.7755946475633,101.35744623474683L266.46502286640003,95.72296568462212L270.2165654414743,90.21097384210881L274.90599366031927,84.94395941481831L280.5333075229266,81.59593474010653L284.7537929198758,75.8797950515742L288.036392673071,70.24531450144944L291.78793524814535,64.97830007415898L294.1326493575616,61.18115013820533L297.26329034287204,56.529360210341814L300.7234979553314,51.92813321647678L300.7234979553314,300L297.26329034287204,300L294.1326493575616,300L291.78793524814535,300L288.036392673071,300L284.7537929198758,300L280.5333075229266,300L274.90599366031927,300L270.2165654414743,300L266.46502286640003,300L261.7755946475633,300L256.14828078496015,300L250.52096692234045,300L244.89365305973726,300L239.2663391971341,300L233.63902533452676,300L228.01171147192773,300L222.38439760930802,300L216.75708374669657,300L211.12976988408926,300L205.50245602148195,300L199.87514215887876,300L194.24782829627142,300L188.6205144336641,300L182.99320057105268,300L177.36588670844534,300L171.73857284583804,300L166.11125898323073,300L160.48394512062342,300L154.8566312580161,300L149.22931739541292,300L143.6020035328015,300L137.97468967019003,300L132.34737580758272,300L126.7200619449754,300L121.09274808236394,300L115.46543421975251,300L109.83812035714932,300L104.21080649454615,300L98.5834926319347,300L92.95617876932738,300L87.3288649067118,300L81.70155104410863,300L76.07423718149717,300L70.44692331889398,300L64.8196094562908,300L59.192295593679354,300L53.56498173106791,300L48.87555351223124,300L45.12401093716521,300L40.903525540203525,300L35.7451544994836,300L30.117840636872145,300L24.490526774260697,300L18.863212911653385,300L13.235899049041935,300L7.608585186434621,300L1.981271323831441,300Z" fill="url(#gradient_0)" opacity="0.7"/></g><g class="mark-line role-mark layer_0_layer_1_marks" role="graphics-object" aria-roledescription="line mark container"><path aria-label="x: 2006; y: 161631.66588" role="graphics-symbol" aria-roledescription="line mark" d="M1.981271323831441,161.45857210274391L7.608585186434621,157.86557001280926L13.235899049041935,152.8027034315378L18.863212911653385,147.5765185734511L24.490526774260697,143.8201982067013L30.117840636872145,141.20710577765794L35.7451544994836,142.35033371536443L40.903525540203525,146.72726353401202L45.12401093716521,153.41514696959482L48.87555351223124,160.02953718061082L53.56498173106791,165.62318816153171L59.192295593679354,166.84807523764582L64.8196094562908,162.52014090204275L70.44692331889398,157.9472291512169L76.07423718149717,156.47736465988004L81.70155104410863,156.31404638306478L87.3288649067118,157.37561518236365L92.95617876932738,158.3555248432549L98.5834926319347,158.6821613968853L104.21080649454615,158.6821613968853L109.83812035714932,158.51884312007013L115.46543421975251,158.0288882896245L121.09274808236394,157.86557001280926L126.7200619449754,156.96731949032565L132.34737580758272,155.41579586058114L137.97468967019003,153.0476808467606L143.6020035328015,149.2097013416032L149.22931739541292,144.4734713139621L154.8566312580161,140.7988100856199L160.48394512062342,138.18571765657657L166.11125898323073,136.30755747320165L171.73857284583804,132.7962145216747L177.36588670844534,127.97832535562598L182.99320057105268,123.81370929683817L188.6205144336641,121.44559428301764L194.24782829627142,119.15913840760467L199.87514215887876,116.62770511696894L205.50245602148195,113.85129441111039L211.12976988408926,111.23820198206703L216.75708374669657,109.36004179869212L222.38439760930802,107.72685903054L228.01171147192773,106.25699453920312L233.63902533452676,105.76703970875751L239.2663391971341,105.76703970875751L244.89365305973726,104.95044832468145L250.52096692234045,104.29717521742063L256.14828078496015,102.90896986449133L261.7755946475633,101.35744623474683L266.46502286640003,95.72296568462212L270.2165654414743,90.21097384210881L274.90599366031927,84.94395941481831L280.5333075229266,81.59593474010653L284.7537929198758,75.8797950515742L288.036392673071,70.24531450144944L291.78793524814535,64.97830007415898L294.1326493575616,61.18115013820533L297.26329034287204,56.529360210341814L300.7234979553314,51.92813321647678" stroke="#0063AF" stroke-width="2"/></g><g class="mark-line role-mark layer_1_marks" role="graphics-object" aria-roledescription="line mark container"><path aria-label="x: 2022; y: 274191.983247" role="graphics-symbol" aria-roledescription="line mark" d="M291.78793524814535,64.97830007415898L294.1326493575616,61.18115013820533L297.26329034287204,56.529360210341814L300.7234979553314,51.92813321647678L306.70022019502625,51.92813321647678L314.8788927335566,57.843996494303255L319.91192198804373,65.40315512708152L325.88864422773855,70.9903593339176L335.32557407989685,75.26292725679227L347.90814721610246,72.9623137598598L362.69267065114366,68.36108676599476L378.10632274300093,61.13058720420682L400.12582573136075,51.27081507449608" stroke="#0063AF" stroke-width="2" stroke-dasharray="5,5"/></g><g class="mark-line role-mark layer_2_marks" role="graphics-object" aria-roledescription="line mark container"><path aria-label="x: 2022; y: 275613.496933" role="graphics-symbol" aria-roledescription="line mark" d="M292.2302610883848,63.75985977212976L300.7234979553314,61.78790534618752L315.5080213903726,60.14460999123572L329.0342875117982,58.17265556529358L345.07706826045916,55.21472392638035L372.44416483171005,43.3829973707274L382.19565901226815,38.78177037686237L358.28877005347255,49.95617879053461" stroke="#0063AF" stroke-width="2" stroke-dasharray="2,2"/></g><g class="mark-text role-mark layer_3_marks" role="graphics-object" aria-roledescription="text mark container"><text aria-label="t: - - Dashed lines: November 2022; x: 2007; y: 300000" role="graphics-symbol" aria-roledescription="text mark" text-anchor="start" transform="translate(18.181818181818183,45.85714285714287)" font-family="sans-serif" font-size="11px" fill="#676A86">- - Dashed lines: November 2022</text></g><g class="mark-text role-mark layer_4_marks" role="graphics-object" aria-roledescription="text mark container"><text aria-label="t: ··· Dotted lines: August 2022; x: 2007; y: 280000" role="graphics-symbol" aria-roledescription="text mark" text-anchor="start" transform="translate(18.181818181818183,62.999999999999986)" font-family="sans-serif" font-size="11px" fill="#676A86">··· Dotted lines: August 2022</text></g><g class="mark-text role-mark layer_5_marks" role="graphics-object" aria-roledescription="text mark container"><text aria-label="t: Forecast; x: 2025.5; y: 330000" role="graphics-symbol" aria-roledescription="text mark" text-anchor="middle" transform="translate(354.54545454545456,20.14285714285715)" font-family="sans-serif" font-size="11px" fill="#676A86">Forecast</text></g><g class="mark-area role-mark layer_6_marks" role="graphics-object" aria-roledescription="area mark container"><path aria-label="x: 2022.55; y: 0; y2: 350000" role="graphics-symbol" aria-roledescription="area mark" d="M300.9090909090901,300L400,300L400,0L300.9090909090901,0Z" fill="#676A86" opacity="0.1"/></g></g><path class="foreground" aria-hidden="true" d="" display="none"/></g></g></g><defs><linearGradient id="gradient_0" x1="1" x2="1" y1="1" y2="0"><stop offset="0" stop-color="white"/><stop offset="1" stop-color="#179FDB"/></linearGradient></defs></svg>