<svg xmlns="http://www.w3.org/2000/svg" xmlns:xlink="http://www.w3.org/1999/xlink" version="1.1" class="marks" width="478" height="343" viewBox="0 0 478 343"><rect width="478" height="343" fill="white"/><g fill="none" stroke-miterlimit="10" transform="translate(30,21)"><g class="mark-group role-frame root" role="graphics-object" aria-roledescription="group mark container"><g transform="translate(0,0)"><path class="background" aria-hidden="true" d="M0,0h400v300h-400Z"/><g><g class="mark-group role-axis" role="graphics-symbol" aria-roledescription="axis" aria-label="X-axis for a linear scale with values from 2000 to 2022"><g transform="translate(0.5,300.5)"><path class="background" aria-hidden="true" d="M0,0h0v0h0Z" pointer-events="none"/><g><g class="mark-rule role-axis-tick" pointer-events="none"><line transform="translate(0,0)" x2="0" y2="5" stroke="#676A86" stroke-width="1" opacity="1"/><line transform="translate(36,0)" x2="0" y2="5" stroke="#676A86" stroke-width="1" opacity="1"/><line transform="translate(73,0)" x2="0" y2="5" stroke="#676A86" stroke-width="1" opacity="1"/><line transform="translate(109,0)" x2="0" y2="5" stroke="#676A86" stroke-width="1" opacity="1"/><line transform="translate(145,0)" x2="0" y2="5" stroke="#676A86" stroke-width="1" opacity="1"/><line transform="translate(182,0)" x2="0" y2="5" stroke="#676A86" stroke-width="1" opacity="1"/><line transform="translate(218,0)" x2="0" y2="5" stroke="#676A86" stroke-width="1" opacity="1"/><line transform="translate(255,0)" x2="0" y2="5" stroke="#676A86" stroke-width="1" opacity="1"/><line transform="translate(291,0)" x2="0" y2="5" stroke="#676A86" stroke-width="1" opacity="1"/><line transform="translate(327,0)" x2="0" y2="5" stroke="#676A86" stroke-width="1" opacity="1"/><line transform="translate(364,0)" x2="0" y2="5" stroke="#676A86" stroke-width="1" opacity="1"/><line transform="translate(400,0)" x2="0" y2="5" stroke="#676A86" stroke-width="1" opacity="1"/></g><g class="mark-text role-axis-label" pointer-events="none"><text text-anchor="start" transform="translate(0,15)" font-family="sans-serif" font-size="10px" fill="#676A86" opacity="1">2000</text><text text-anchor="middle" transform="translate(36.36363636363637,15)" font-family="sans-serif" font-size="10px" fill="#676A86" opacity="1">2002</text><text text-anchor="middle" transform="translate(72.72727272727273,15)" font-family="sans-serif" font-size="10px" fill="#676A86" opacity="1">2004</text><text text-anchor="middle" transform="translate(109.09090909090908,15)" font-family="sans-serif" font-size="10px" fill="#676A86" opacity="1">2006</text><text text-anchor="middle" transform="translate(145.45454545454547,15)" font-family="sans-serif" font-size="10px" fill="#676A86" opacity="1">2008</text><text text-anchor="middle" transform="translate(181.8181818181818,15)" font-family="sans-serif" font-size="10px" fill="#676A86" opacity="1">2010</text><text text-anchor="middle" transform="translate(218.18181818181816,15)" font-family="sans-serif" font-size="10px" fill="#676A86" opacity="1">2012</text><text text-anchor="middle" transform="translate(254.54545454545453,15)" font-family="sans-serif" font-size="10px" fill="#676A86" opacity="1">2014</text><text text-anchor="middle" transform="translate(290.90909090909093,15)" font-family="sans-serif" font-size="10px" fill="#676A86" opacity="1">2016</text><text text-anchor="middle" transform="translate(327.2727272727273,15)" font-family="sans-serif" font-size="10px" fill="#676A86" opacity="1">2018</text><text text-anchor="middle" transform="translate(363.6363636363636,15)" font-family="sans-serif" font-size="10px" fill="#676A86" opacity="1">2020</text><text text-anchor="end" transform="translate(400,15)" font-family="sans-serif" font-size="10px" fill="#676A86" opacity="1">2022</text></g><g class="mark-rule role-axis-domain" pointer-events="none"><line transform="translate(0,0)" x2="400" y2="0" stroke="#676A86" stroke-width="1" opacity="1"/></g></g><path class="foreground" aria-hidden="true" d="" pointer-events="none" display="none"/></g></g><g class="mark-group role-axis" role="graphics-symbol" aria-roledescription="axis" aria-label="Y-axis titled 'Household debt as a percentage of aggregate UK disposable income' for a linear scale with values from 0 to 200"><g transform="translate(0.5,0.5)"><path class="background" aria-hidden="true" d="M0,0h0v0h0Z" pointer-events="none"/><g><g class="mark-rule role-axis-tick" pointer-events="none"><line transform="translate(0,300)" x2="-5" y2="0" stroke="#676A86" stroke-width="1" opacity="1"/><line transform="translate(0,270)" x2="-5" y2="0" stroke="#676A86" stroke-width="1" opacity="1"/><line transform="translate(0,240)" x2="-5" y2="0" stroke="#676A86" stroke-width="1" opacity="1"/><line transform="translate(0,210)" x2="-5" y2="0" stroke="#676A86" stroke-width="1" opacity="1"/><line transform="translate(0,180)" x2="-5" y2="0" stroke="#676A86" stroke-width="1" opacity="1"/><line transform="translate(0,150)" x2="-5" y2="0" stroke="#676A86" stroke-width="1" opacity="1"/><line transform="translate(0,120)" x2="-5" y2="0" stroke="#676A86" stroke-width="1" opacity="1"/><line transform="translate(0,90)" x2="-5" y2="0" stroke="#676A86" stroke-width="1" opacity="1"/><line transform="translate(0,60)" x2="-5" y2="0" stroke="#676A86" stroke-width="1" opacity="1"/><line transform="translate(0,30)" x2="-5" y2="0" stroke="#676A86" stroke-width="1" opacity="1"/><line transform="translate(0,0)" x2="-5" y2="0" stroke="#676A86" stroke-width="1" opacity="1"/></g><g class="mark-text role-axis-label" pointer-events="none"><text text-anchor="end" transform="translate(-7,303)" font-family="sans-serif" font-size="10px" fill="#676A86" opacity="1">0</text><text text-anchor="end" transform="translate(-7,273)" font-family="sans-serif" font-size="10px" fill="#676A86" opacity="1">20</text><text text-anchor="end" transform="translate(-7,243)" font-family="sans-serif" font-size="10px" fill="#676A86" opacity="1">40</text><text text-anchor="end" transform="translate(-7,213)" font-family="sans-serif" font-size="10px" fill="#676A86" opacity="1">60</text><text text-anchor="end" transform="translate(-7,183)" font-family="sans-serif" font-size="10px" fill="#676A86" opacity="1">80</text><text text-anchor="end" transform="translate(-7,153)" font-family="sans-serif" font-size="10px" fill="#676A86" opacity="1">100</text><text text-anchor="end" transform="translate(-7,123)" font-family="sans-serif" font-size="10px" fill="#676A86" opacity="1">120</text><text text-anchor="end" transform="translate(-7,93.00000000000001)" font-family="sans-serif" font-size="10px" fill="#676A86" opacity="1">140</text><text text-anchor="end" transform="translate(-7,62.999999999999986)" font-family="sans-serif" font-size="10px" fill="#676A86" opacity="1">160</text><text text-anchor="end" transform="translate(-7,32.99999999999999)" font-family="sans-serif" font-size="10px" fill="#676A86" opacity="1">180</text><text text-anchor="end" transform="translate(-7,3)" font-family="sans-serif" font-size="10px" fill="#676A86" opacity="1">200</text></g><g class="mark-rule role-axis-domain" pointer-events="none"><line transform="translate(0,300)" x2="0" y2="-300" stroke="#676A86" stroke-width="1" opacity="1"/></g><g class="mark-text role-axis-title" pointer-events="none"><text text-anchor="start" transform="translate(-5,-7)" font-family="sans-serif" font-size="11px" font-weight="bold" fill="#676A86" opacity="1">Household debt as a percentage of aggregate UK disposable income</text></g></g><path class="foreground" aria-hidden="true" d="" pointer-events="none" display="none"/></g></g><g class="mark-area role-mark layer_0_layer_0_marks" role="graphics-object" aria-roledescription="area mark container"><path aria-label="x: 2000; y: 97.844104933" role="graphics-symbol" aria-roledescription="area mark" d="M2.495518863964786,153.2338426004407L8.07588296976395,151.10866248516695L13.65624707556311,149.99987285980671L19.236611181362274,148.70628496355312L24.816975287165572,145.84191176470583L30.397339392964735,141.96114807594503L35.977703498763894,137.98798525173757L41.55806760456719,133.27562934395658L47.13843171036222,127.63928208170874L52.71879581616552,123.8509175283946L58.29915992197295,119.13856162061364L63.87952402776798,113.87181090015251L69.45988813357128,108.78985845058482L75.04025223935803,104.3546999491439L80.62061634516961,99.64234404136289L86.20098045097289,95.66918121715543L91.78134455677205,93.35920283098824L97.3617086625671,90.21763222580098L102.94207276837038,87.72285556874043L108.52243687417369,85.78247372436003L114.10280097997286,82.08650830649256L119.68316508576787,77.74374894049834L125.26352919157118,75.71096796067127L130.84389329737448,73.40098957450408L136.4242574031695,70.62901551110355L142.00462150896865,69.33542761484992L147.58498561477197,67.67224317680957L153.16534972058352,67.21024749957616L158.7457138263703,69.33542761484992L164.3260779321653,71.09101118833696L169.90644203797686,73.30859043905743L175.48680614378017,74.7869766062044L181.06717024957106,75.61856882522457L186.64753435537435,76.9121567214782L192.22789846117766,77.65134980505167L197.80826256698097,79.03733683675192L203.3886266727801,79.9613281912188L208.96899077857515,81.07011781657906L214.54935488437843,82.45610484827934L220.12971899018171,84.76608323444647L225.71008309598088,85.78247372436003L231.29044720178004,87.63045643329373L236.8708113075792,88.36964951686721L242.45117541338251,89.84803568401419L248.03153951918168,91.97321579928798L253.61190362498084,94.83758899813523L259.19226773078,96.03877775894215L264.77263183658334,95.20718553992198L270.3529959423825,94.74518986268856L275.93336004818167,96.40837430072891L281.5137241539766,99.45754577046954L287.09408825978,101.85992329208335L292.67445236558325,101.95232242753008L298.2548164713824,100.19673885404305L303.8351805771775,98.3487561451093L309.41554468298074,96.13117689438884L314.99590878878405,96.31597516528221L320.57627289458736,96.59317257162226L326.1566370003865,98.6259535514494L331.73700110618154,99.45754577046954L337.3173652119931,99.27274749957614L342.8977293177881,101.12073020850988L348.47809342358727,103.06111205289028L354.0584575293906,103.24591032378365L359.6388216351939,103.6155068655704L365.2191857409889,103.06111205289028L370.7995498467839,101.02833107306321L376.37991395258723,98.53355441600267L381.96027805839464,97.33236565519574L387.5406421641897,96.96276911340898L393.12100626999296,98.3487561451093L398.2363400336453,99.29122732666552L398.2363400336453,300L393.12100626999296,300L387.5406421641897,300L381.96027805839464,300L376.37991395258723,300L370.7995498467839,300L365.2191857409889,300L359.6388216351939,300L354.0584575293906,300L348.47809342358727,300L342.8977293177881,300L337.3173652119931,300L331.73700110618154,300L326.1566370003865,300L320.57627289458736,300L314.99590878878405,300L309.41554468298074,300L303.8351805771775,300L298.2548164713824,300L292.67445236558325,300L287.09408825978,300L281.5137241539766,300L275.93336004818167,300L270.3529959423825,300L264.77263183658334,300L259.19226773078,300L253.61190362498084,300L248.03153951918168,300L242.45117541338251,300L236.8708113075792,300L231.29044720178004,300L225.71008309598088,300L220.12971899018171,300L214.54935488437843,300L208.96899077857515,300L203.3886266727801,300L197.80826256698097,300L192.22789846117766,300L186.64753435537435,300L181.06717024957106,300L175.48680614378017,300L169.90644203797686,300L164.3260779321653,300L158.7457138263703,300L153.16534972058352,300L147.58498561477197,300L142.00462150896865,300L136.4242574031695,300L130.84389329737448,300L125.26352919157118,300L119.68316508576787,300L114.10280097997286,300L108.52243687417369,300L102.94207276837038,300L97.3617086625671,300L91.78134455677205,300L86.20098045097289,300L80.62061634516961,300L75.04025223935803,300L69.45988813357128,300L63.87952402776798,300L58.29915992197295,300L52.71879581616552,300L47.13843171036222,300L41.55806760456719,300L35.977703498763894,300L30.397339392964735,300L24.816975287165572,300L19.236611181362274,300L13.65624707556311,300L8.07588296976395,300L2.495518863964786,300Z" fill="url(#gradient_0)" opacity="0.7"/></g><g class="mark-line role-mark layer_0_layer_1_marks" role="graphics-object" aria-roledescription="line mark container"><path aria-label="x: 2000; y: 97.844104933" role="graphics-symbol" aria-roledescription="line mark" d="M2.495518863964786,153.2338426004407L8.07588296976395,151.10866248516695L13.65624707556311,149.99987285980671L19.236611181362274,148.70628496355312L24.816975287165572,145.84191176470583L30.397339392964735,141.96114807594503L35.977703498763894,137.98798525173757L41.55806760456719,133.27562934395658L47.13843171036222,127.63928208170874L52.71879581616552,123.8509175283946L58.29915992197295,119.13856162061364L63.87952402776798,113.87181090015251L69.45988813357128,108.78985845058482L75.04025223935803,104.3546999491439L80.62061634516961,99.64234404136289L86.20098045097289,95.66918121715543L91.78134455677205,93.35920283098824L97.3617086625671,90.21763222580098L102.94207276837038,87.72285556874043L108.52243687417369,85.78247372436003L114.10280097997286,82.08650830649256L119.68316508576787,77.74374894049834L125.26352919157118,75.71096796067127L130.84389329737448,73.40098957450408L136.4242574031695,70.62901551110355L142.00462150896865,69.33542761484992L147.58498561477197,67.67224317680957L153.16534972058352,67.21024749957616L158.7457138263703,69.33542761484992L164.3260779321653,71.09101118833696L169.90644203797686,73.30859043905743L175.48680614378017,74.7869766062044L181.06717024957106,75.61856882522457L186.64753435537435,76.9121567214782L192.22789846117766,77.65134980505167L197.80826256698097,79.03733683675192L203.3886266727801,79.9613281912188L208.96899077857515,81.07011781657906L214.54935488437843,82.45610484827934L220.12971899018171,84.76608323444647L225.71008309598088,85.78247372436003L231.29044720178004,87.63045643329373L236.8708113075792,88.36964951686721L242.45117541338251,89.84803568401419L248.03153951918168,91.97321579928798L253.61190362498084,94.83758899813523L259.19226773078,96.03877775894215L264.77263183658334,95.20718553992198L270.3529959423825,94.74518986268856L275.93336004818167,96.40837430072891L281.5137241539766,99.45754577046954L287.09408825978,101.85992329208335L292.67445236558325,101.95232242753008L298.2548164713824,100.19673885404305L303.8351805771775,98.3487561451093L309.41554468298074,96.13117689438884L314.99590878878405,96.31597516528221L320.57627289458736,96.59317257162226L326.1566370003865,98.6259535514494L331.73700110618154,99.45754577046954L337.3173652119931,99.27274749957614L342.8977293177881,101.12073020850988L348.47809342358727,103.06111205289028L354.0584575293906,103.24591032378365L359.6388216351939,103.6155068655704L365.2191857409889,103.06111205289028L370.7995498467839,101.02833107306321L376.37991395258723,98.53355441600267L381.96027805839464,97.33236565519574L387.5406421641897,96.96276911340898L393.12100626999296,98.3487561451093L398.2363400336453,99.29122732666552" stroke="#F4134D" stroke-width="2"/></g><g class="mark-line role-mark layer_1_marks" role="graphics-object" aria-roledescription="line mark container"><path aria-label="x1: 2000; y1: 100" role="graphics-symbol" aria-roledescription="line mark" d="M0,150L400,150" stroke="#676A86" stroke-width="1" stroke-dasharray="5,5"/></g></g><path class="foreground" aria-hidden="true" d="" display="none"/></g></g></g><defs><linearGradient id="gradient_0" x1="1" x2="1" y1="1" y2="0"><stop offset="0" stop-color="white"/><stop offset="1" stop-color="#F4134D"/></linearGradient></defs></svg>