<svg xmlns="http://www.w3.org/2000/svg" xmlns:xlink="http://www.w3.org/1999/xlink" version="1.1" class="marks" width="436" height="343" viewBox="0 0 436 343"><rect width="436" height="343" fill="white"/><g fill="none" stroke-miterlimit="10" transform="translate(24,21)"><g class="mark-group role-frame root" role="graphics-object" aria-roledescription="group mark container"><g transform="translate(0,0)"><path class="background" aria-hidden="true" d="M0,0h400v300h-400Z"/><g><g class="mark-group role-axis" role="graphics-symbol" aria-roledescription="axis" aria-label="X-axis for a linear scale with values from 1989 to 2026"><g transform="translate(0.5,300.5)"><path class="background" aria-hidden="true" d="M0,0h0v0h0Z" pointer-events="none"/><g><g class="mark-rule role-axis-tick" pointer-events="none"><line transform="translate(11,0)" x2="0" y2="5" stroke="#676A86" stroke-width="1" opacity="1"/><line transform="translate(65,0)" x2="0" y2="5" stroke="#676A86" stroke-width="1" opacity="1"/><line transform="translate(119,0)" x2="0" y2="5" stroke="#676A86" stroke-width="1" opacity="1"/><line transform="translate(173,0)" x2="0" y2="5" stroke="#676A86" stroke-width="1" opacity="1"/><line transform="translate(227,0)" x2="0" y2="5" stroke="#676A86" stroke-width="1" opacity="1"/><line transform="translate(281,0)" x2="0" y2="5" stroke="#676A86" stroke-width="1" opacity="1"/><line transform="translate(335,0)" x2="0" y2="5" stroke="#676A86" stroke-width="1" opacity="1"/><line transform="translate(389,0)" x2="0" y2="5" stroke="#676A86" stroke-width="1" opacity="1"/></g><g class="mark-text role-axis-label" pointer-events="none"><text text-anchor="middle" transform="translate(10.81081081081081,15)" font-family="sans-serif" font-size="10px" fill="#676A86" opacity="1">1990</text><text text-anchor="middle" transform="translate(64.86486486486487,15)" font-family="sans-serif" font-size="10px" fill="#676A86" opacity="1">1995</text><text text-anchor="middle" transform="translate(118.91891891891892,15)" font-family="sans-serif" font-size="10px" fill="#676A86" opacity="1">2000</text><text text-anchor="middle" transform="translate(172.97297297297297,15)" font-family="sans-serif" font-size="10px" fill="#676A86" opacity="1">2005</text><text text-anchor="middle" transform="translate(227.02702702702703,15)" font-family="sans-serif" font-size="10px" fill="#676A86" opacity="1">2010</text><text text-anchor="middle" transform="translate(281.0810810810811,15)" font-family="sans-serif" font-size="10px" fill="#676A86" opacity="1">2015</text><text text-anchor="middle" transform="translate(335.13513513513516,15)" font-family="sans-serif" font-size="10px" fill="#676A86" opacity="1">2020</text><text text-anchor="middle" transform="translate(389.1891891891892,15)" font-family="sans-serif" font-size="10px" fill="#676A86" opacity="1">2025</text></g><g class="mark-rule role-axis-domain" pointer-events="none"><line transform="translate(0,0)" x2="400" y2="0" stroke="#676A86" stroke-width="1" opacity="1"/></g></g><path class="foreground" aria-hidden="true" d="" pointer-events="none" display="none"/></g></g><g class="mark-group role-axis" role="graphics-symbol" aria-roledescription="axis" aria-label="Y-axis titled '%' for a linear scale with values from 0 to 10"><g transform="translate(0.5,0.5)"><path class="background" aria-hidden="true" d="M0,0h0v0h0Z" pointer-events="none"/><g><g class="mark-rule role-axis-tick" pointer-events="none"><line transform="translate(0,300)" x2="-5" y2="0" stroke="#676A86" stroke-width="1" opacity="1"/><line transform="translate(0,270)" x2="-5" y2="0" stroke="#676A86" stroke-width="1" opacity="1"/><line transform="translate(0,240)" x2="-5" y2="0" stroke="#676A86" stroke-width="1" opacity="1"/><line transform="translate(0,210)" x2="-5" y2="0" stroke="#676A86" stroke-width="1" opacity="1"/><line transform="translate(0,180)" x2="-5" y2="0" stroke="#676A86" stroke-width="1" opacity="1"/><line transform="translate(0,150)" x2="-5" y2="0" stroke="#676A86" stroke-width="1" opacity="1"/><line transform="translate(0,120)" x2="-5" y2="0" stroke="#676A86" stroke-width="1" opacity="1"/><line transform="translate(0,90)" x2="-5" y2="0" stroke="#676A86" stroke-width="1" opacity="1"/><line transform="translate(0,60)" x2="-5" y2="0" stroke="#676A86" stroke-width="1" opacity="1"/><line transform="translate(0,30)" x2="-5" y2="0" stroke="#676A86" stroke-width="1" opacity="1"/><line transform="translate(0,0)" x2="-5" y2="0" stroke="#676A86" stroke-width="1" opacity="1"/></g><g class="mark-text role-axis-label" pointer-events="none"><text text-anchor="end" transform="translate(-7,303)" font-family="sans-serif" font-size="10px" fill="#676A86" opacity="1">0</text><text text-anchor="end" transform="translate(-7,273)" font-family="sans-serif" font-size="10px" fill="#676A86" opacity="1">1</text><text text-anchor="end" transform="translate(-7,243)" font-family="sans-serif" font-size="10px" fill="#676A86" opacity="1">2</text><text text-anchor="end" transform="translate(-7,213)" font-family="sans-serif" font-size="10px" fill="#676A86" opacity="1">3</text><text text-anchor="end" transform="translate(-7,183)" font-family="sans-serif" font-size="10px" fill="#676A86" opacity="1">4</text><text text-anchor="end" transform="translate(-7,153)" font-family="sans-serif" font-size="10px" fill="#676A86" opacity="1">5</text><text text-anchor="end" transform="translate(-7,123)" font-family="sans-serif" font-size="10px" fill="#676A86" opacity="1">6</text><text text-anchor="end" transform="translate(-7,93.00000000000001)" font-family="sans-serif" font-size="10px" fill="#676A86" opacity="1">7</text><text text-anchor="end" transform="translate(-7,62.999999999999986)" font-family="sans-serif" font-size="10px" fill="#676A86" opacity="1">8</text><text text-anchor="end" transform="translate(-7,32.99999999999999)" font-family="sans-serif" font-size="10px" fill="#676A86" opacity="1">9</text><text text-anchor="end" transform="translate(-7,3)" font-family="sans-serif" font-size="10px" fill="#676A86" opacity="1">10</text></g><g class="mark-rule role-axis-domain" pointer-events="none"><line transform="translate(0,300)" x2="0" y2="-300" stroke="#676A86" stroke-width="1" opacity="1"/></g><g class="mark-text role-axis-title" pointer-events="none"><text text-anchor="start" transform="translate(-5,-7)" font-family="sans-serif" font-size="11px" font-weight="bold" fill="#676A86" opacity="1">%</text></g></g><path class="foreground" aria-hidden="true" d="" pointer-events="none" display="none"/></g></g><g class="mark-area role-mark layer_0_layer_0_marks" role="graphics-object" aria-roledescription="area mark container"><path aria-label="x: 1989; y: 7.30638958319" role="graphics-symbol" aria-roledescription="area mark" d="M4.909184242223017,80.80831250428527L6.553880402058181,72.33673870089069L8.198576561893345,63.260052482967964L10.665620801648549,51.91419471056451L13.132665041391462,43.08963866536184L16.422057361069164,38.29916538368039L20.53379776065216,46.316904876178825L25.395206527278987,47.27954971857411L26.290234320072773,60.61268566940715L27.934930479910395,69.3111766282498L30.401974719658227,77.63147232801228L33.691367039326096,85.19537750961462L37.39193339895399,88.78823247087568L39.44780359874671,99.37769972511887L41.09249975858187,111.29085038614251L42.463079891776204,122.5106430721859L43.97071803829218,129.44422282198798L46.84893631800249,136.47865464087812L50.96067671758794,139.352938609887L55.072417117170936,138.14271378083063L59.184157516756386,137.3863232626704L63.29589791634675,134.36076119002948L67.40763831593466,131.63775532465263L71.10820467556009,134.36076119002948L73.9864229552704,141.6725361989117L77.27581527494073,149.6398496568661L81.38755567452127,152.0602993149788L85.49929607410918,150.85007448592248L89.19986243373953,145.13932607381273L92.48925475340985,136.25173748543006L95.77864707307772,128.68783230382775L99.47921343270315,120.89700996677739L103.5909538322886,118.0227259977685L106.46917211199892,121.50212238130558L108.52504231179164,129.8224180810681L112.6367827113771,135.7222641227179L116.74852311096254,133.90692687913332L120.0379154306304,125.5362051448268L123.32730775030075,119.8380632413531L127.43904814988618,120.74573186314535L131.5507885494692,122.10723479583376L137.9908210096899,126.64165103189491L140.4385517593083,115.38461538461537L143.80418154003172,121.01313320825514L146.3530539879832,111.85814327476268L148.82009822773102,102.44108132366782L152.93183862731894,100.02063166555507L157.04357902690685,96.99506959291413L160.33297134657718,90.67920876627626L161.9776675064099,82.16981543697368L164.44471174616262,74.10164990993124L166.0894079059978,66.85290744422907L167.73410406582803,58.469579201286514L170.20114830558325,51.66206453784446L173.49054062524866,47.2245734979711L177.6022810248292,50.09885746697995L181.302847384462,46.2412658243628L185.0034137440899,40.56833693816105L189.11515414367534,38.14788728004837L192.4045464633481,29.60067442483778L194.5945945945946,12.945590994371447L197.0423253442154,19.699812382739168L201.3258541560439,9.005628517823627L205.91534931157653,9.568480300187588L208.05711371749075,20.82551594746719L210.81081081081078,11.819887429643494L213.87047424783256,16.885553470919334L215.26582308504265,40.26578073089703L215.70440872766406,51.66206453784446L217.07498886086083,60.80178329894721L218.44556899405515,72.33673870089069L220.3643811805287,80.15277405521307L223.653773500199,87.91838337499142L227.7655138997845,94.2720637275373L231.8772542993724,100.32318787281916L235.98899469895292,98.65912873286665L239.68956105858328,98.8104068364987L243.3901274182087,104.10514046362029L247.50186781779905,102.28980322003576L251.61360821738455,101.83596890913962L255.72534861696505,100.62574408008325L259.83708901655297,99.71807545829098L263.9488294161409,103.95386235998828L268.0605698157288,104.71025287814851L272.17231021531177,104.55897477451643L276.28405061489724,100.62574408008325L280.3957910144876,106.22303391446894L284.5075314140681,112.42543616338286L288.61927181365604,113.63566099243918L292.7310122132415,116.20738875418398L296.8427526128269,118.47656030866467L300.95449301240996,121.04828807040944L305.0662334120003,119.8380632413531L309.17797381158823,122.86362531399399L313.28971421116876,123.31745962489013L317.4014546107567,124.07385014305036L321.5131950103446,126.79685600842717L325.62493540992756,131.94031153191673L329.73667580951303,132.09158963554876L335.33911269760455,123.82739212007505L337.78684344722046,146.34146341463418L342.37633860275554,133.95872420262663L351.1177258873628,133.75564877550127L355.22946628694825,134.20948308639743L358.1076845666586,135.87354222634994L358.1076845666586,300L355.22946628694825,300L351.1177258873628,300L342.37633860275554,300L337.78684344722046,300L335.33911269760455,300L329.73667580951303,300L325.62493540992756,300L321.5131950103446,300L317.4014546107567,300L313.28971421116876,300L309.17797381158823,300L305.0662334120003,300L300.95449301240996,300L296.8427526128269,300L292.7310122132415,300L288.61927181365604,300L284.5075314140681,300L280.3957910144876,300L276.28405061489724,300L272.17231021531177,300L268.0605698157288,300L263.9488294161409,300L259.83708901655297,300L255.72534861696505,300L251.61360821738455,300L247.50186781779905,300L243.3901274182087,300L239.68956105858328,300L235.98899469895292,300L231.8772542993724,300L227.7655138997845,300L223.653773500199,300L220.3643811805287,300L218.44556899405515,300L217.07498886086083,300L215.70440872766406,300L215.26582308504265,300L213.87047424783256,300L210.81081081081078,300L208.05711371749075,300L205.91534931157653,300L201.3258541560439,300L197.0423253442154,300L194.5945945945946,300L192.4045464633481,300L189.11515414367534,300L185.0034137440899,300L181.302847384462,300L177.6022810248292,300L173.49054062524866,300L170.20114830558325,300L167.73410406582803,300L166.0894079059978,300L164.44471174616262,300L161.9776675064099,300L160.33297134657718,300L157.04357902690685,300L152.93183862731894,300L148.82009822773102,300L146.3530539879832,300L143.80418154003172,300L140.4385517593083,300L137.9908210096899,300L131.5507885494692,300L127.43904814988618,300L123.32730775030075,300L120.0379154306304,300L116.74852311096254,300L112.6367827113771,300L108.52504231179164,300L106.46917211199892,300L103.5909538322886,300L99.47921343270315,300L95.77864707307772,300L92.48925475340985,300L89.19986243373953,300L85.49929607410918,300L81.38755567452127,300L77.27581527494073,300L73.9864229552704,300L71.10820467556009,300L67.40763831593466,300L63.29589791634675,300L59.184157516756386,300L55.072417117170936,300L50.96067671758794,300L46.84893631800249,300L43.97071803829218,300L42.463079891776204,300L41.09249975858187,300L39.44780359874671,300L37.39193339895399,300L33.691367039326096,300L30.401974719658227,300L27.934930479910395,300L26.290234320072773,300L25.395206527278987,300L20.53379776065216,300L16.422057361069164,300L13.132665041391462,300L10.665620801648549,300L8.198576561893345,300L6.553880402058181,300L4.909184242223017,300Z" fill="url(#gradient_0)" opacity="0.7"/></g><g class="mark-line role-mark layer_0_layer_1_marks" role="graphics-object" aria-roledescription="line mark container"><path aria-label="x: 1989; y: 7.30638958319" role="graphics-symbol" aria-roledescription="line mark" d="M4.909184242223017,80.80831250428527L6.553880402058181,72.33673870089069L8.198576561893345,63.260052482967964L10.665620801648549,51.91419471056451L13.132665041391462,43.08963866536184L16.422057361069164,38.29916538368039L20.53379776065216,46.316904876178825L25.395206527278987,47.27954971857411L26.290234320072773,60.61268566940715L27.934930479910395,69.3111766282498L30.401974719658227,77.63147232801228L33.691367039326096,85.19537750961462L37.39193339895399,88.78823247087568L39.44780359874671,99.37769972511887L41.09249975858187,111.29085038614251L42.463079891776204,122.5106430721859L43.97071803829218,129.44422282198798L46.84893631800249,136.47865464087812L50.96067671758794,139.352938609887L55.072417117170936,138.14271378083063L59.184157516756386,137.3863232626704L63.29589791634675,134.36076119002948L67.40763831593466,131.63775532465263L71.10820467556009,134.36076119002948L73.9864229552704,141.6725361989117L77.27581527494073,149.6398496568661L81.38755567452127,152.0602993149788L85.49929607410918,150.85007448592248L89.19986243373953,145.13932607381273L92.48925475340985,136.25173748543006L95.77864707307772,128.68783230382775L99.47921343270315,120.89700996677739L103.5909538322886,118.0227259977685L106.46917211199892,121.50212238130558L108.52504231179164,129.8224180810681L112.6367827113771,135.7222641227179L116.74852311096254,133.90692687913332L120.0379154306304,125.5362051448268L123.32730775030075,119.8380632413531L127.43904814988618,120.74573186314535L131.5507885494692,122.10723479583376L137.9908210096899,126.64165103189491L140.4385517593083,115.38461538461537L143.80418154003172,121.01313320825514L146.3530539879832,111.85814327476268L148.82009822773102,102.44108132366782L152.93183862731894,100.02063166555507L157.04357902690685,96.99506959291413L160.33297134657718,90.67920876627626L161.9776675064099,82.16981543697368L164.44471174616262,74.10164990993124L166.0894079059978,66.85290744422907L167.73410406582803,58.469579201286514L170.20114830558325,51.66206453784446L173.49054062524866,47.2245734979711L177.6022810248292,50.09885746697995L181.302847384462,46.2412658243628L185.0034137440899,40.56833693816105L189.11515414367534,38.14788728004837L192.4045464633481,29.60067442483778L194.5945945945946,12.945590994371447L197.0423253442154,19.699812382739168L201.3258541560439,9.005628517823627L205.91534931157653,9.568480300187588L208.05711371749075,20.82551594746719L210.81081081081078,11.819887429643494L213.87047424783256,16.885553470919334L215.26582308504265,40.26578073089703L215.70440872766406,51.66206453784446L217.07498886086083,60.80178329894721L218.44556899405515,72.33673870089069L220.3643811805287,80.15277405521307L223.653773500199,87.91838337499142L227.7655138997845,94.2720637275373L231.8772542993724,100.32318787281916L235.98899469895292,98.65912873286665L239.68956105858328,98.8104068364987L243.3901274182087,104.10514046362029L247.50186781779905,102.28980322003576L251.61360821738455,101.83596890913962L255.72534861696505,100.62574408008325L259.83708901655297,99.71807545829098L263.9488294161409,103.95386235998828L268.0605698157288,104.71025287814851L272.17231021531177,104.55897477451643L276.28405061489724,100.62574408008325L280.3957910144876,106.22303391446894L284.5075314140681,112.42543616338286L288.61927181365604,113.63566099243918L292.7310122132415,116.20738875418398L296.8427526128269,118.47656030866467L300.95449301240996,121.04828807040944L305.0662334120003,119.8380632413531L309.17797381158823,122.86362531399399L313.28971421116876,123.31745962489013L317.4014546107567,124.07385014305036L321.5131950103446,126.79685600842717L325.62493540992756,131.94031153191673L329.73667580951303,132.09158963554876L335.33911269760455,123.82739212007505L337.78684344722046,146.34146341463418L342.37633860275554,133.95872420262663L351.1177258873628,133.75564877550127L355.22946628694825,134.20948308639743L358.1076845666586,135.87354222634994" stroke="#0063AF" stroke-width="2"/></g><g class="mark-line role-mark layer_1_marks" role="graphics-object" aria-roledescription="line mark container"><path aria-label="x: 2023; y: 5.5722326454" role="graphics-symbol" aria-roledescription="line mark" d="M362.26415094339444,132.83302063789867L369.6073431922495,113.13320825515947L378.48036715961064,97.93621013133207L388.2712901580841,86.67917448405251L395.92044875063846,82.1763602251407" stroke="#0063AF" stroke-width="2" stroke-dasharray="5,5"/></g><g class="mark-text role-mark layer_2_marks" role="graphics-object" aria-roledescription="text mark container"><text aria-label="t: Historic aggregate DSR; x: 1991; y: 9" role="graphics-symbol" aria-roledescription="text mark" text-anchor="start" transform="translate(21.62162162162162,32.99999999999999)" font-family="sans-serif" font-size="11px" fill="#0063AF">Historic aggregate DSR</text></g><g class="mark-text role-mark layer_3_marks" role="graphics-object" aria-roledescription="text mark container"><text aria-label="t: Illustrative projection; x: 2025.8; y: 7.7" role="graphics-symbol" aria-roledescription="text mark" text-anchor="end" transform="translate(397.83783783783736,72)" font-family="sans-serif" font-size="11px" fill="#0063AF">Illustrative projection</text></g><g class="mark-area role-mark layer_4_marks" role="graphics-object" aria-roledescription="area mark container"><path aria-label="x: 2022.1; y: 0; y2: 10" role="graphics-symbol" aria-roledescription="area mark" d="M357.83783783783684,300L400,300L400,0L357.83783783783684,0Z" fill="#676A86" opacity="0.1"/></g><g class="mark-text role-mark layer_5_marks" role="graphics-object" aria-roledescription="text mark container"><text aria-label="t: Forecast; x: 2024; y: 9.5" role="graphics-symbol" aria-roledescription="text mark" text-anchor="middle" transform="translate(378.3783783783784,18.000000000000014)" font-family="sans-serif" font-size="11px" fill="#676A86">Forecast</text></g></g><path class="foreground" aria-hidden="true" d="" display="none"/></g></g></g><defs><linearGradient id="gradient_0" x1="1" x2="1" y1="1" y2="0"><stop offset="0" stop-color="white"/><stop offset="1" stop-color="#179FDB"/></linearGradient></defs></svg>