<svg xmlns="http://www.w3.org/2000/svg" xmlns:xlink="http://www.w3.org/1999/xlink" version="1.1" class="marks" width="556" height="347" viewBox="0 0 556 347"><rect width="556" height="347" fill="white"/><g fill="none" stroke-miterlimit="10" transform="translate(26,25)"><g class="mark-group role-frame root" role="graphics-object" aria-roledescription="group mark container"><g transform="translate(0,0)"><path class="background" aria-hidden="true" d="M0,0h400v300h-400Z"/><g><g class="mark-group role-axis" aria-hidden="true"><g transform="translate(0.5,0.5)"><path class="background" aria-hidden="true" d="M0,0h0v0h0Z" pointer-events="none"/><g><g class="mark-rule role-axis-grid" pointer-events="none"><line transform="translate(0,300)" x2="400" y2="0" stroke="#676A86" stroke-opacity="0.5" stroke-width="1" stroke-dasharray="1,5" opacity="1"/><line transform="translate(0,254)" x2="400" y2="0" stroke="#676A86" stroke-opacity="0.5" stroke-width="1" stroke-dasharray="1,5" opacity="1"/><line transform="translate(0,208)" x2="400" y2="0" stroke="#676A86" stroke-opacity="0.5" stroke-width="1" stroke-dasharray="1,5" opacity="1"/><line transform="translate(0,162)" x2="400" y2="0" stroke="#676A86" stroke-opacity="0.5" stroke-width="1" stroke-dasharray="1,5" opacity="1"/><line transform="translate(0,115)" x2="400" y2="0" stroke="#676A86" stroke-opacity="0.5" stroke-width="1" stroke-dasharray="1,5" opacity="1"/><line transform="translate(0,69)" x2="400" y2="0" stroke="#676A86" stroke-opacity="0.5" stroke-width="1" stroke-dasharray="1,5" opacity="1"/><line transform="translate(0,23)" x2="400" y2="0" stroke="#676A86" stroke-opacity="0.5" stroke-width="1" stroke-dasharray="1,5" opacity="1"/></g></g><path class="foreground" aria-hidden="true" d="" pointer-events="none" display="none"/></g></g><g class="mark-group role-axis" role="graphics-symbol" aria-roledescription="axis" aria-label="X-axis for a time scale with values from Friday, 01 January 2021, 12:00:00 AM to Monday, 01 January 2024, 12:00:00 AM"><g transform="translate(0.5,300.5)"><path class="background" aria-hidden="true" d="M0,0h0v0h0Z" pointer-events="none"/><g><g class="mark-rule role-axis-tick" pointer-events="none"><line transform="translate(0,0)" x2="0" y2="5" stroke="#676A86" stroke-opacity="0.5" stroke-width="1" opacity="1"/><line transform="translate(33,0)" x2="0" y2="5" stroke="#676A86" stroke-opacity="0.5" stroke-width="1" opacity="1"/><line transform="translate(66,0)" x2="0" y2="5" stroke="#676A86" stroke-opacity="0.5" stroke-width="1" opacity="1"/><line transform="translate(100,0)" x2="0" y2="5" stroke="#676A86" stroke-opacity="0.5" stroke-width="1" opacity="1"/><line transform="translate(133,0)" x2="0" y2="5" stroke="#676A86" stroke-opacity="0.5" stroke-width="1" opacity="1"/><line transform="translate(166,0)" x2="0" y2="5" stroke="#676A86" stroke-opacity="0.5" stroke-width="1" opacity="1"/><line transform="translate(199,0)" x2="0" y2="5" stroke="#676A86" stroke-opacity="0.5" stroke-width="1" opacity="1"/><line transform="translate(233,0)" x2="0" y2="5" stroke="#676A86" stroke-opacity="0.5" stroke-width="1" opacity="1"/><line transform="translate(267,0)" x2="0" y2="5" stroke="#676A86" stroke-opacity="0.5" stroke-width="1" opacity="1"/><line transform="translate(300,0)" x2="0" y2="5" stroke="#676A86" stroke-opacity="0.5" stroke-width="1" opacity="1"/><line transform="translate(333,0)" x2="0" y2="5" stroke="#676A86" stroke-opacity="0.5" stroke-width="1" opacity="1"/><line transform="translate(366,0)" x2="0" y2="5" stroke="#676A86" stroke-opacity="0.5" stroke-width="1" opacity="1"/><line transform="translate(400,0)" x2="0" y2="5" stroke="#676A86" stroke-opacity="0.5" stroke-width="1" opacity="1"/></g><g class="mark-text role-axis-label" pointer-events="none"><text text-anchor="start" transform="translate(0,15)" font-family="Circular Std Book" font-size="10px" fill="#676A86" fill-opacity="0.7" opacity="1">2021</text><text text-anchor="middle" transform="translate(32.87671232876712,15)" font-family="Circular Std Book" font-size="10px" fill="#676A86" fill-opacity="0.7" opacity="0">April</text><text text-anchor="middle" transform="translate(66.1187214611872,15)" font-family="Circular Std Book" font-size="10px" fill="#676A86" fill-opacity="0.7" opacity="1">July</text><text text-anchor="middle" transform="translate(99.72602739726028,15)" font-family="Circular Std Book" font-size="10px" fill="#676A86" fill-opacity="0.7" opacity="0">October</text><text text-anchor="middle" transform="translate(133.33333333333331,15)" font-family="Circular Std Book" font-size="10px" fill="#676A86" fill-opacity="0.7" opacity="1">2022</text><text text-anchor="middle" transform="translate(166.21004566210044,15)" font-family="Circular Std Book" font-size="10px" fill="#676A86" fill-opacity="0.7" opacity="0">April</text><text text-anchor="middle" transform="translate(199.45205479452056,15)" font-family="Circular Std Book" font-size="10px" fill="#676A86" fill-opacity="0.7" opacity="1">July</text><text text-anchor="middle" transform="translate(233.05936073059362,15)" font-family="Circular Std Book" font-size="10px" fill="#676A86" fill-opacity="0.7" opacity="0">October</text><text text-anchor="middle" transform="translate(266.66666666666663,15)" font-family="Circular Std Book" font-size="10px" fill="#676A86" fill-opacity="0.7" opacity="1">2023</text><text text-anchor="middle" transform="translate(299.5433789954338,15)" font-family="Circular Std Book" font-size="10px" fill="#676A86" fill-opacity="0.7" opacity="0">April</text><text text-anchor="middle" transform="translate(332.7853881278539,15)" font-family="Circular Std Book" font-size="10px" fill="#676A86" fill-opacity="0.7" opacity="1">July</text><text text-anchor="middle" transform="translate(366.39269406392697,15)" font-family="Circular Std Book" font-size="10px" fill="#676A86" fill-opacity="0.7" opacity="0">October</text><text text-anchor="end" transform="translate(400,15)" font-family="Circular Std Book" font-size="10px" fill="#676A86" fill-opacity="0.7" opacity="1">2024</text></g><g class="mark-rule role-axis-domain" pointer-events="none"><line transform="translate(0,0)" x2="400" y2="0" stroke="#676A86" stroke-opacity="0.5" stroke-width="1" opacity="1"/></g></g><path class="foreground" aria-hidden="true" d="" pointer-events="none" display="none"/></g></g><g class="mark-group role-axis" role="graphics-symbol" aria-roledescription="axis" aria-label="Y-axis titled '% change over 12 months' for a linear scale with values from −10 to 55"><g transform="translate(0.5,0.5)"><path class="background" aria-hidden="true" d="M0,0h0v0h0Z" pointer-events="none"/><g><g class="mark-text role-axis-label" pointer-events="none"><text text-anchor="end" transform="translate(-5,303)" font-family="Circular Std Book" font-size="10px" fill="#676A86" fill-opacity="0.7" opacity="1">−10</text><text text-anchor="end" transform="translate(-5,256.8461538461538)" font-family="Circular Std Book" font-size="10px" fill="#676A86" fill-opacity="0.7" opacity="1">0</text><text text-anchor="end" transform="translate(-5,210.69230769230768)" font-family="Circular Std Book" font-size="10px" fill="#676A86" fill-opacity="0.7" opacity="1">10</text><text text-anchor="end" transform="translate(-5,164.53846153846152)" font-family="Circular Std Book" font-size="10px" fill="#676A86" fill-opacity="0.7" opacity="1">20</text><text text-anchor="end" transform="translate(-5,118.38461538461537)" font-family="Circular Std Book" font-size="10px" fill="#676A86" fill-opacity="0.7" opacity="1">30</text><text text-anchor="end" transform="translate(-5,72.23076923076921)" font-family="Circular Std Book" font-size="10px" fill="#676A86" fill-opacity="0.7" opacity="1">40</text><text text-anchor="end" transform="translate(-5,26.076923076923062)" font-family="Circular Std Book" font-size="10px" fill="#676A86" fill-opacity="0.7" opacity="1">50</text></g><g class="mark-rule role-axis-domain" pointer-events="none"><line transform="translate(0,300)" x2="0" y2="-300" stroke="#676A86" stroke-opacity="0.5" stroke-width="1" opacity="1"/></g><g class="mark-text role-axis-title" pointer-events="none"><text text-anchor="start" transform="translate(0,-10)" font-family="Circular Std Book" font-size="12px" font-weight="bold" fill="#676A86" fill-opacity="0.8" opacity="1">% change over 12 months</text></g></g><path class="foreground" aria-hidden="true" d="" pointer-events="none" display="none"/></g></g><g class="mark-line role-mark layer_0_marks" role="graphics-object" aria-roledescription="line mark container"><path aria-label="x: Jan 01, 2021; y: 0" role="graphics-symbol" aria-roledescription="line mark" d="M0,253.846L400,253.846" stroke="#676A86" stroke-width="1" opacity="0.3"/></g><g class="mark-line role-mark layer_1_marks" role="graphics-object" aria-roledescription="line mark container"><path aria-label="time: Jan 01, 2021; car: −2.4" role="graphics-symbol" aria-roledescription="line mark" d="M0,264.923L11.324,279.231L21.553,288.923L32.877,282.923L43.836,276.462L55.16,268.154L66.119,257.538L77.443,243.692L88.767,240.462L99.726,243.692L111.05,239.077L122.009,233.077L133.333,196.154L144.658,193.385L154.886,192L166.21,182.769L177.169,178.154L188.493,175.846L199.452,155.538L210.776,158.769L222.1,146.769L233.059,134.769L244.384,103.385L255.342,102L266.667,115.846L277.991,89.077L288.219,75.231L299.543,60.923L310.502,55.846L321.826,28.154L332.785,20.769L344.11,23.077L355.434,27.692L366.393,28.615L377.717,47.538L388.676,56.769L400,78" stroke="#F4134D" stroke-width="2"/></g><g class="mark-line role-mark layer_2_marks" role="graphics-object" aria-roledescription="line mark container"><path aria-label="time: Jan 01, 2021; dw: 0.1" role="graphics-symbol" aria-roledescription="line mark" d="M0,253.385L11.324,246L21.553,246.923L32.877,243.231L43.836,245.077L55.16,240.923L66.119,240L77.443,240.462L88.767,239.538L99.726,241.846L111.05,236.769L122.009,193.846L133.333,150.462L144.658,146.308L154.886,144.462L166.21,139.846L177.169,133.846L188.493,128.308L199.452,122.769L210.776,113.077L222.1,102.923L233.059,89.538L244.384,91.846L255.342,147.692L266.667,189.692L277.991,188.769L288.219,183.692L299.543,174.462L310.502,170.308L321.826,175.385L332.785,173.538L344.11,173.077L355.434,174L366.393,178.615L377.717,178.615L388.676,174.923L400,163.846" stroke="#179FDB" stroke-width="2"/></g><g class="mark-line role-mark layer_3_marks" role="graphics-object" aria-roledescription="line mark container"><path aria-label="time: Jan 01, 2021; all: 1.4" role="graphics-symbol" aria-roledescription="line mark" d="M0,247.385L11.324,247.385L21.553,246.923L32.877,240.462L43.836,238.615L55.16,235.846L66.119,236.308L77.443,231.692L88.767,231.231L99.726,226.154L111.05,221.077L122.009,219.231L133.333,217.846L144.658,216L154.886,212.308L166.21,202.615L177.169,199.846L188.493,199.385L199.452,197.077L210.776,197.077L222.1,195.692L233.059,188.308L244.384,189.231L255.342,192L266.667,192L277.991,190.154L288.219,191.538L299.543,201.231L310.502,201.692L321.826,204.462L332.785,212.308L344.11,211.846L355.434,212.769L366.393,225.692L377.717,229.385L388.676,229.846L400,231.231" stroke="#36B7B4" stroke-width="2"/></g><g class="mark-text role-mark layer_4_marks" role="graphics-object" aria-roledescription="text mark container"><text aria-label="time: Jan 01, 2024; all: 4.9" role="graphics-symbol" aria-roledescription="text mark" text-anchor="start" transform="translate(405,235.23076923076923)" font-family="Circular Std Book" font-size="12px" fill="#36B7B4">All items</text></g><g class="mark-text role-mark layer_5_marks" role="graphics-object" aria-roledescription="text mark container"><text aria-label="time: Jan 01, 2024; dw: 19.5" role="graphics-symbol" aria-roledescription="text mark" text-anchor="start" transform="translate(405,167.84615384615387)" font-family="Circular Std Book" font-size="12px" fill="#179FDB"><tspan>Dwelling insurance</tspan><tspan x="0" dy="14">&amp; ground rent</tspan></text></g><g class="mark-text role-mark layer_6_marks" role="graphics-object" aria-roledescription="text mark container"><text aria-label="time: Jan 01, 2024; car: 38.1" role="graphics-symbol" aria-roledescription="text mark" text-anchor="start" transform="translate(405,82)" font-family="Circular Std Book" font-size="12px" fill="#F4134D">Vehicles tax &amp; insurance</text></g></g><path class="foreground" aria-hidden="true" d="" display="none"/></g></g></g></svg>