<svg xmlns="http://www.w3.org/2000/svg" xmlns:xlink="http://www.w3.org/1999/xlink" version="1.1" class="marks" width="606" height="360" viewBox="0 0 606 360"><rect width="606" height="360" fill="#122B39"/><g fill="none" stroke-miterlimit="10" transform="translate(28,38)"><g class="mark-group role-frame root" role="graphics-object" aria-roledescription="group mark container"><g transform="translate(0,0)"><path class="background" aria-hidden="true" d="M0,0h400v300h-400Z"/><g><g class="mark-group role-axis" aria-hidden="true"><g transform="translate(0.5,0.5)"><path class="background" aria-hidden="true" d="M0,0h0v0h0Z" pointer-events="none"/><g><g class="mark-rule role-axis-grid" pointer-events="none"><line transform="translate(0,300)" x2="400" y2="0" stroke="#b4c8d8" stroke-opacity="0.5" stroke-width="1" stroke-dasharray="1,5" opacity="1"/><line transform="translate(0,257)" x2="400" y2="0" stroke="#b4c8d8" stroke-opacity="0.5" stroke-width="1" stroke-dasharray="1,5" opacity="1"/><line transform="translate(0,214)" x2="400" y2="0" stroke="#b4c8d8" stroke-opacity="0.5" stroke-width="1" stroke-dasharray="1,5" opacity="1"/><line transform="translate(0,171)" x2="400" y2="0" stroke="#b4c8d8" stroke-opacity="0.5" stroke-width="1" stroke-dasharray="1,5" opacity="1"/><line transform="translate(0,129)" x2="400" y2="0" stroke="#b4c8d8" stroke-opacity="0.5" stroke-width="1" stroke-dasharray="1,5" opacity="1"/><line transform="translate(0,86)" x2="400" y2="0" stroke="#b4c8d8" stroke-opacity="0.5" stroke-width="1" stroke-dasharray="1,5" opacity="1"/><line transform="translate(0,43)" x2="400" y2="0" stroke="#b4c8d8" stroke-opacity="0.5" stroke-width="1" stroke-dasharray="1,5" opacity="1"/><line transform="translate(0,0)" x2="400" y2="0" stroke="#b4c8d8" stroke-opacity="0.5" stroke-width="1" stroke-dasharray="1,5" opacity="1"/></g></g><path class="foreground" aria-hidden="true" d="" pointer-events="none" display="none"/></g></g><g class="mark-group role-axis" role="graphics-symbol" aria-roledescription="axis" aria-label="X-axis for a time scale with values from Friday, 01 January 2021, 12:00:00 AM to Monday, 01 January 2024, 12:00:00 AM"><g transform="translate(0.5,300.5)"><path class="background" aria-hidden="true" d="M0,0h0v0h0Z" pointer-events="none"/><g><g class="mark-rule role-axis-tick" pointer-events="none"><line transform="translate(0,0)" x2="0" y2="5" stroke="#b4c8d8" stroke-opacity="0.5" stroke-width="1" opacity="1"/><line transform="translate(33,0)" x2="0" y2="5" stroke="#b4c8d8" stroke-opacity="0.5" stroke-width="1" opacity="1"/><line transform="translate(66,0)" x2="0" y2="5" stroke="#b4c8d8" stroke-opacity="0.5" stroke-width="1" opacity="1"/><line transform="translate(100,0)" x2="0" y2="5" stroke="#b4c8d8" stroke-opacity="0.5" stroke-width="1" opacity="1"/><line transform="translate(133,0)" x2="0" y2="5" stroke="#b4c8d8" stroke-opacity="0.5" stroke-width="1" opacity="1"/><line transform="translate(166,0)" x2="0" y2="5" stroke="#b4c8d8" stroke-opacity="0.5" stroke-width="1" opacity="1"/><line transform="translate(199,0)" x2="0" y2="5" stroke="#b4c8d8" stroke-opacity="0.5" stroke-width="1" opacity="1"/><line transform="translate(233,0)" x2="0" y2="5" stroke="#b4c8d8" stroke-opacity="0.5" stroke-width="1" opacity="1"/><line transform="translate(267,0)" x2="0" y2="5" stroke="#b4c8d8" stroke-opacity="0.5" stroke-width="1" opacity="1"/><line transform="translate(300,0)" x2="0" y2="5" stroke="#b4c8d8" stroke-opacity="0.5" stroke-width="1" opacity="1"/><line transform="translate(333,0)" x2="0" y2="5" stroke="#b4c8d8" stroke-opacity="0.5" stroke-width="1" opacity="1"/><line transform="translate(366,0)" x2="0" y2="5" stroke="#b4c8d8" stroke-opacity="0.5" stroke-width="1" opacity="1"/><line transform="translate(400,0)" x2="0" y2="5" stroke="#b4c8d8" stroke-opacity="0.5" stroke-width="1" opacity="1"/></g><g class="mark-text role-axis-label" pointer-events="none"><text text-anchor="start" transform="translate(0,15)" font-family="Circular Std Book" font-size="10px" fill="#b4c8d8" fill-opacity="0.7" opacity="1">2021</text><text text-anchor="middle" transform="translate(32.87671232876712,15)" font-family="Circular Std Book" font-size="10px" fill="#b4c8d8" fill-opacity="0.7" opacity="0">April</text><text text-anchor="middle" transform="translate(66.1187214611872,15)" font-family="Circular Std Book" font-size="10px" fill="#b4c8d8" fill-opacity="0.7" opacity="1">July</text><text text-anchor="middle" transform="translate(99.72602739726028,15)" font-family="Circular Std Book" font-size="10px" fill="#b4c8d8" fill-opacity="0.7" opacity="0">October</text><text text-anchor="middle" transform="translate(133.33333333333331,15)" font-family="Circular Std Book" font-size="10px" fill="#b4c8d8" fill-opacity="0.7" opacity="1">2022</text><text text-anchor="middle" transform="translate(166.21004566210044,15)" font-family="Circular Std Book" font-size="10px" fill="#b4c8d8" fill-opacity="0.7" opacity="0">April</text><text text-anchor="middle" transform="translate(199.45205479452056,15)" font-family="Circular Std Book" font-size="10px" fill="#b4c8d8" fill-opacity="0.7" opacity="1">July</text><text text-anchor="middle" transform="translate(233.05936073059362,15)" font-family="Circular Std Book" font-size="10px" fill="#b4c8d8" fill-opacity="0.7" opacity="0">October</text><text text-anchor="middle" transform="translate(266.66666666666663,15)" font-family="Circular Std Book" font-size="10px" fill="#b4c8d8" fill-opacity="0.7" opacity="1">2023</text><text text-anchor="middle" transform="translate(299.5433789954338,15)" font-family="Circular Std Book" font-size="10px" fill="#b4c8d8" fill-opacity="0.7" opacity="0">April</text><text text-anchor="middle" transform="translate(332.7853881278539,15)" font-family="Circular Std Book" font-size="10px" fill="#b4c8d8" fill-opacity="0.7" opacity="1">July</text><text text-anchor="middle" transform="translate(366.39269406392697,15)" font-family="Circular Std Book" font-size="10px" fill="#b4c8d8" fill-opacity="0.7" opacity="0">October</text><text text-anchor="end" transform="translate(400,15)" font-family="Circular Std Book" font-size="10px" fill="#b4c8d8" fill-opacity="0.7" opacity="1">2024</text></g><g class="mark-rule role-axis-domain" pointer-events="none"><line transform="translate(0,0)" x2="400" y2="0" stroke="#b4c8d8" stroke-opacity="0.5" stroke-width="1" opacity="1"/></g></g><path class="foreground" aria-hidden="true" d="" pointer-events="none" display="none"/></g></g><g class="mark-group role-axis" role="graphics-symbol" aria-roledescription="axis" aria-label="Y-axis titled '% change over 12 months' for a linear scale with values from −10 to 60"><g transform="translate(0.5,0.5)"><path class="background" aria-hidden="true" d="M0,0h0v0h0Z" pointer-events="none"/><g><g class="mark-text role-axis-label" pointer-events="none"><text text-anchor="end" transform="translate(-5,303)" font-family="Circular Std Book" font-size="10px" fill="#b4c8d8" fill-opacity="0.7" opacity="1">−10</text><text text-anchor="end" transform="translate(-5,260.14285714285717)" font-family="Circular Std Book" font-size="10px" fill="#b4c8d8" fill-opacity="0.7" opacity="1">0</text><text text-anchor="end" transform="translate(-5,217.28571428571428)" font-family="Circular Std Book" font-size="10px" fill="#b4c8d8" fill-opacity="0.7" opacity="1">10</text><text text-anchor="end" transform="translate(-5,174.42857142857142)" font-family="Circular Std Book" font-size="10px" fill="#b4c8d8" fill-opacity="0.7" opacity="1">20</text><text text-anchor="end" transform="translate(-5,131.57142857142858)" font-family="Circular Std Book" font-size="10px" fill="#b4c8d8" fill-opacity="0.7" opacity="1">30</text><text text-anchor="end" transform="translate(-5,88.71428571428571)" font-family="Circular Std Book" font-size="10px" fill="#b4c8d8" fill-opacity="0.7" opacity="1">40</text><text text-anchor="end" transform="translate(-5,45.85714285714287)" font-family="Circular Std Book" font-size="10px" fill="#b4c8d8" fill-opacity="0.7" opacity="1">50</text><text text-anchor="end" transform="translate(-5,3)" font-family="Circular Std Book" font-size="10px" fill="#b4c8d8" fill-opacity="0.7" opacity="1">60</text></g><g class="mark-rule role-axis-domain" pointer-events="none"><line transform="translate(0,300)" x2="0" y2="-300" stroke="#b4c8d8" stroke-opacity="0.5" stroke-width="1" opacity="1"/></g><g class="mark-text role-axis-title" pointer-events="none"><text text-anchor="start" transform="translate(0,-10)" font-family="Circular Std Book" font-size="12px" font-weight="bold" fill="#b4c8d8" fill-opacity="0.8" opacity="1">% change over 12 months</text></g></g><path class="foreground" aria-hidden="true" d="" pointer-events="none" display="none"/></g></g><g class="mark-line role-mark layer_0_marks" role="graphics-object" aria-roledescription="line mark container"><path aria-label="x: Jan 01, 2021; y: 0" role="graphics-symbol" aria-roledescription="line mark" d="M0,257.14285714285717L400,257.14285714285717" stroke="#b4c8d8" stroke-width="1" opacity="0.3"/></g><g class="mark-line role-mark layer_1_marks" role="graphics-object" aria-roledescription="line mark container"><path aria-label="time: Jan 01, 2021; car: −2.4" role="graphics-symbol" aria-roledescription="line mark" d="M0,267.42857142857144L1.8873668188736683,269.64285714285717C3.7747336377473366,271.8571428571429,7.549467275494673,276.2857142857143,11.141552511415526,280C14.73363774733638,283.7142857142857,18.143074581430746,286.7142857142857,21.735159817351597,287.2857142857143C25.32724505327245,287.8571428571429,29.101978691019784,286,32.8158295281583,284.0714285714286C36.5296803652968,282.14285714285717,40.18264840182648,280.14285714285717,43.89649923896499,277.8571428571429C47.610350076103494,275.5714285714286,51.38508371385083,273,55.098934550989334,270.0714285714286C58.81278538812785,267.14285714285717,62.46575342465753,263.85714285714283,66.17960426179604,260.0714285714286C69.89345509893455,256.2857142857143,73.66818873668188,252,77.44292237442922,249.3571428571429C81.21765601217656,246.7142857142857,84.99238964992391,245.7142857142857,88.70624048706242,245.71428571428575C92.42009132420092,245.7142857142857,96.0730593607306,246.7142857142857,99.78691019786909,246.5C103.50076103500761,246.2857142857143,107.27549467275496,244.85714285714286,110.98934550989345,243.2142857142857C114.70319634703196,241.57142857142856,118.35616438356165,239.7142857142857,122.07001522070016,233.07142857142856C125.78386605783867,226.42857142857142,129.55859969558597,215,133.33333333333331,208.85714285714286C137.10806697108066,202.7142857142857,140.882800608828,201.85714285714286,144.47488584474888,201.2142857142857C148.06697108066973,200.57142857142856,151.47640791476408,200.14285714285714,155.06849315068493,198.5C158.6605783866058,196.8571428571429,162.43531202435312,194,166.14916286149162,191.8571428571429C169.8630136986301,189.71428571428575,173.5159817351598,188.2857142857143,177.2298325722983,187.21428571428575C180.94368340943683,186.14285714285714,184.71841704718418,185.42857142857142,188.43226788432267,181.92857142857142C192.1461187214612,178.42857142857142,195.79908675799086,172.14285714285714,199.5129375951294,169.5C203.22678843226788,166.85714285714286,207.0015220700152,167.85714285714286,210.77625570776254,166.5C214.55098934550992,165.14285714285714,218.32572298325724,161.42857142857142,222.03957382039576,157.7142857142857C225.75342465753428,154,229.40639269406392,150.2857142857143,233.12024353120248,143.57142857142858C236.83409436834097,136.85714285714286,240.6088280060883,127.14285714285715,244.32267884322678,122.07142857142857C248.0365296803653,117,251.68949771689498,116.57142857142857,255.40334855403353,118.5C259.117199391172,120.42857142857144,262.8919330289193,124.71428571428574,266.6666666666667,122.71428571428572C270.441400304414,120.71428571428572,274.2161339421613,112.42857142857143,277.8082191780822,106.14285714285715C281.4003044140031,99.85714285714285,284.8097412480974,95.57142857142856,288.4018264840183,91.21428571428571C291.99391171993915,86.85714285714285,295.76864535768647,82.42857142857143,299.48249619482493,79.42857142857143C303.19634703196346,76.42857142857143,306.8493150684931,74.85714285714286,310.56316590563165,69.78571428571429C314.2770167427702,64.71428571428572,318.0517503805175,56.142857142857146,321.765601217656,50.71428571428572C325.47945205479454,45.285714285714285,329.1324200913242,42.99999999999999,332.84627092846273,42.21428571428571C336.5601217656012,41.42857142857142,340.3348554033485,42.142857142857146,344.1095890410959,43.21428571428572C347.88432267884326,44.2857142857143,351.6590563165905,45.714285714285715,355.3729071537291,46.57142857142858C359.0867579908676,47.42857142857142,362.73972602739724,47.71428571428572,366.45357686453576,50.785714285714285C370.1674277016743,53.857142857142854,373.9421613394216,59.7142857142857,377.6560121765601,64.07142857142856C381.36986301369865,68.42857142857142,385.02283105022826,71.28571428571428,388.73668188736684,75.99999999999999C392.4505327245053,80.71428571428571,396.2252663622526,87.28571428571428,398.11263318112634,90.57142857142857L400,93.85714285714285" stroke="#F4134D" stroke-width="3"/></g><g class="mark-line role-mark layer_2_marks" role="graphics-object" aria-roledescription="line mark container"><path aria-label="time: Jan 01, 2021; dw: 0.1" role="graphics-symbol" aria-roledescription="line mark" d="M0,256.7142857142857L1.8873668188736683,255.57142857142858C3.7747336377473366,254.42857142857144,7.549467275494673,252.14285714285714,11.141552511415526,251.14285714285714C14.73363774733638,250.14285714285714,18.143074581430746,250.42857142857144,21.735159817351597,250C25.32724505327245,249.57142857142858,29.101978691019784,248.42857142857142,32.8158295281583,248.14285714285714C36.5296803652968,247.85714285714286,40.18264840182648,248.42857142857142,43.89649923896499,248.07142857142856C47.610350076103494,247.7142857142857,51.38508371385083,246.42857142857142,55.098934550989334,245.6428571428571C58.81278538812785,244.85714285714286,62.46575342465753,244.57142857142856,66.17960426179604,244.5C69.89345509893455,244.42857142857142,73.66818873668188,244.57142857142858,77.44292237442922,244.5C81.21765601217656,244.42857142857144,84.99238964992391,244.14285714285714,88.70624048706242,244.35714285714286C92.42009132420092,244.57142857142858,96.0730593607306,245.2857142857143,99.78691019786909,244.85714285714286C103.50076103500761,244.42857142857144,107.27549467275496,242.85714285714286,110.98934550989345,235.42857142857142C114.70319634703196,228,118.35616438356165,214.7142857142857,122.07001522070016,201.35714285714286C125.78386605783867,188,129.55859969558597,174.57142857142858,133.33333333333331,167.2142857142857C137.10806697108066,159.85714285714286,140.882800608828,158.57142857142856,144.47488584474888,157.64285714285714C148.06697108066973,156.7142857142857,151.47640791476408,156.1428571428571,155.06849315068493,155.1428571428571C158.6605783866058,154.1428571428571,162.43531202435312,152.7142857142857,166.14916286149162,151.07142857142856C169.8630136986301,149.42857142857142,173.5159817351598,147.57142857142858,177.2298325722983,145.78571428571428C180.94368340943683,144,184.71841704718418,142.28571428571428,188.43226788432267,140.57142857142858C192.1461187214612,138.85714285714286,195.79908675799086,137.14285714285714,199.5129375951294,134.78571428571428C203.22678843226788,132.42857142857142,207.0015220700152,129.42857142857142,210.77625570776254,126.35714285714285C214.55098934550992,123.28571428571428,218.32572298325724,120.14285714285715,222.03957382039576,116.5C225.75342465753428,112.85714285714285,229.40639269406392,108.71428571428571,233.12024353120248,106.99999999999999C236.83409436834097,105.28571428571426,240.6088280060883,105.99999999999999,244.32267884322678,114.99999999999999C248.0365296803653,124,251.68949771689498,141.2857142857143,255.40334855403353,156.42857142857142C259.117199391172,171.57142857142858,262.8919330289193,184.57142857142858,266.6666666666667,190.92857142857144C270.441400304414,197.2857142857143,274.2161339421613,197,277.8082191780822,196.07142857142858C281.4003044140031,195.14285714285714,284.8097412480974,193.57142857142858,288.4018264840183,191.35714285714286C291.99391171993915,189.14285714285714,295.76864535768647,186.2857142857143,299.48249619482493,184.2142857142857C303.19634703196346,182.1428571428571,306.8493150684931,180.85714285714286,310.56316590563165,181C314.2770167427702,181.14285714285714,318.0517503805175,182.7142857142857,321.765601217656,183.2142857142857C325.47945205479454,183.7142857142857,329.1324200913242,183.14285714285714,332.84627092846273,182.7857142857143C336.5601217656012,182.42857142857142,340.3348554033485,182.2857142857143,344.1095890410959,182.3571428571429C347.88432267884326,182.42857142857144,351.6590563165905,182.7142857142857,355.3729071537291,183.57142857142856C359.0867579908676,184.42857142857144,362.73972602739724,185.8571428571429,366.45357686453576,186.57142857142858C370.1674277016743,187.2857142857143,373.9421613394216,187.2857142857143,377.6560121765601,186.71428571428575C381.36986301369865,186.14285714285714,385.02283105022826,185,388.73668188736684,182.7142857142857C392.4505327245053,180.42857142857142,396.2252663622526,177,398.11263318112634,175.2857142857143L400,173.57142857142856" stroke="#179FDB" stroke-width="3"/></g><g class="mark-line role-mark layer_3_marks" role="graphics-object" aria-roledescription="line mark container"><path aria-label="time: Jan 01, 2021; all: 1.4" role="graphics-symbol" aria-roledescription="line mark" d="M0,251.14285714285717L1.8873668188736683,251.14285714285714C3.7747336377473366,251.1428571428572,7.549467275494673,251.1428571428572,11.141552511415526,251.07142857142858C14.73363774733638,251,18.143074581430746,250.8571428571429,21.735159817351597,249.7857142857143C25.32724505327245,248.7142857142857,29.101978691019784,246.7142857142857,32.8158295281583,245.42857142857144C36.5296803652968,244.14285714285714,40.18264840182648,243.57142857142858,43.89649923896499,242.85714285714286C47.610350076103494,242.14285714285714,51.38508371385083,241.2857142857143,55.098934550989334,240.92857142857144C58.81278538812785,240.57142857142856,62.46575342465753,240.7142857142857,66.17960426179604,240.07142857142858C69.89345509893455,239.42857142857144,73.66818873668188,238,77.44292237442922,237.2142857142857C81.21765601217656,236.42857142857144,84.99238964992391,236.2857142857143,88.70624048706242,235.42857142857142C92.42009132420092,234.57142857142858,96.0730593607306,233,99.78691019786909,231.42857142857144C103.50076103500761,229.85714285714286,107.27549467275496,228.2857142857143,110.98934550989345,227.2142857142857C114.70319634703196,226.1428571428571,118.35616438356165,225.57142857142856,122.07001522070016,225.07142857142858C125.78386605783867,224.57142857142858,129.55859969558597,224.14285714285714,133.33333333333331,223.64285714285714C137.10806697108066,223.14285714285714,140.882800608828,222.57142857142858,144.47488584474888,221.71428571428575C148.06697108066973,220.85714285714286,151.47640791476408,219.7142857142857,155.06849315068493,217.64285714285714C158.6605783866058,215.57142857142858,162.43531202435312,212.57142857142858,166.14916286149162,210.64285714285714C169.8630136986301,208.7142857142857,173.5159817351598,207.85714285714286,177.2298325722983,207.35714285714286C180.94368340943683,206.85714285714286,184.71841704718418,206.7142857142857,188.43226788432267,206.2857142857143C192.1461187214612,205.8571428571429,195.79908675799086,205.14285714285714,199.5129375951294,204.7857142857143C203.22678843226788,204.42857142857144,207.0015220700152,204.42857142857144,210.77625570776254,204.2142857142857C214.55098934550992,204,218.32572298325724,203.57142857142856,222.03957382039576,202.2142857142857C225.75342465753428,200.85714285714286,229.40639269406392,198.57142857142858,233.12024353120248,197.57142857142858C236.83409436834097,196.57142857142858,240.6088280060883,196.85714285714286,244.32267884322678,197.42857142857144C248.0365296803653,198,251.68949771689498,198.85714285714286,255.40334855403353,199.2857142857143C259.117199391172,199.7142857142857,262.8919330289193,199.7142857142857,266.6666666666667,199.42857142857144C270.441400304414,199.14285714285714,274.2161339421613,198.57142857142856,277.8082191780822,198.49999999999997C281.4003044140031,198.42857142857142,284.8097412480974,198.85714285714286,288.4018264840183,200.57142857142858C291.99391171993915,202.2857142857143,295.76864535768647,205.2857142857143,299.48249619482493,206.85714285714286C303.19634703196346,208.42857142857142,306.8493150684931,208.57142857142858,310.56316590563165,209.07142857142856C314.2770167427702,209.57142857142858,318.0517503805175,210.42857142857142,321.765601217656,212.07142857142858C325.47945205479454,213.7142857142857,329.1324200913242,216.14285714285714,332.84627092846273,217.2857142857143C336.5601217656012,218.42857142857144,340.3348554033485,218.2857142857143,344.1095890410959,218.35714285714286C347.88432267884326,218.42857142857142,351.6590563165905,218.7142857142857,355.3729071537291,220.85714285714286C359.0867579908676,223,362.73972602739724,227,366.45357686453576,229.57142857142856C370.1674277016743,232.14285714285714,373.9421613394216,233.2857142857143,377.6560121765601,233.92857142857144C381.36986301369865,234.57142857142858,385.02283105022826,234.71428571428575,388.73668188736684,235C392.4505327245053,235.2857142857143,396.2252663622526,235.7142857142857,398.11263318112634,235.92857142857144L400,236.14285714285714" stroke="#36B7B4" stroke-width="3"/></g><g class="mark-text role-mark layer_4_marks" role="graphics-object" aria-roledescription="text mark container"><text aria-label="time: Jan 01, 2024; all: 4.9" role="graphics-symbol" aria-roledescription="text mark" text-anchor="start" transform="translate(405,240.14285714285714)" font-family="Circular Std Book" font-size="12px" fill="#36B7B4">All items</text></g><g class="mark-text role-mark layer_5_marks" role="graphics-object" aria-roledescription="text mark container"><text aria-label="time: Jan 01, 2024; dw: 19.5" role="graphics-symbol" aria-roledescription="text mark" text-anchor="start" transform="translate(405,177.57142857142856)" font-family="Circular Std Book" font-size="12px" fill="#179FDB"><tspan>Dwelling insurance</tspan><tspan x="0" dy="14">&amp; ground rent</tspan></text></g><g class="mark-text role-mark layer_6_marks" role="graphics-object" aria-roledescription="text mark container"><text aria-label="time: Jan 01, 2024; car: 38.1" role="graphics-symbol" aria-roledescription="text mark" text-anchor="start" transform="translate(405,97.85714285714285)" font-family="Circular Std Book" font-size="12px" fill="#F4134D">Vehicles tax &amp; insurance</text></g><g class="mark-image role-mark layer_7_marks" role="graphics-object" aria-roledescription="image mark container"><image aria-label="x: Jan 01, 2024; y: 60; img: https://raw.githubusercontent.com/EconomicsObservatory/ECOvisualisations/main/guidelines/logos/eco-icon-light.png" role="graphics-symbol" aria-roledescription="image mark" xlink:href="" transform="translate(360,-33)" width="40" height="40" preserveAspectRatio="xMidYMid" opacity="0.5"/></g></g><path class="foreground" aria-hidden="true" d="" display="none"/></g></g></g></svg>