<svg xmlns="http://www.w3.org/2000/svg" xmlns:xlink="http://www.w3.org/1999/xlink" version="1.1" class="marks" width="606" height="347" viewBox="0 0 606 347"><rect width="606" height="347" fill="white"/><g fill="none" stroke-miterlimit="10" transform="translate(28,25)"><g class="mark-group role-frame root" role="graphics-object" aria-roledescription="group mark container"><g transform="translate(0,0)"><path class="background" aria-hidden="true" d="M0,0h400v300h-400Z"/><g><g class="mark-group role-axis" aria-hidden="true"><g transform="translate(0.5,0.5)"><path class="background" aria-hidden="true" d="M0,0h0v0h0Z" pointer-events="none"/><g><g class="mark-rule role-axis-grid" pointer-events="none"><line transform="translate(0,300)" x2="400" y2="0" stroke="#676A86" stroke-opacity="0.5" stroke-width="1" stroke-dasharray="1,5" opacity="1"/><line transform="translate(0,254)" x2="400" y2="0" stroke="#676A86" stroke-opacity="0.5" stroke-width="1" stroke-dasharray="1,5" opacity="1"/><line transform="translate(0,208)" x2="400" y2="0" stroke="#676A86" stroke-opacity="0.5" stroke-width="1" stroke-dasharray="1,5" opacity="1"/><line transform="translate(0,162)" x2="400" y2="0" stroke="#676A86" stroke-opacity="0.5" stroke-width="1" stroke-dasharray="1,5" opacity="1"/><line transform="translate(0,115)" x2="400" y2="0" stroke="#676A86" stroke-opacity="0.5" stroke-width="1" stroke-dasharray="1,5" opacity="1"/><line transform="translate(0,69)" x2="400" y2="0" stroke="#676A86" stroke-opacity="0.5" stroke-width="1" stroke-dasharray="1,5" opacity="1"/><line transform="translate(0,23)" x2="400" y2="0" stroke="#676A86" stroke-opacity="0.5" stroke-width="1" stroke-dasharray="1,5" opacity="1"/></g></g><path class="foreground" aria-hidden="true" d="" pointer-events="none" display="none"/></g></g><g class="mark-group role-axis" role="graphics-symbol" aria-roledescription="axis" aria-label="X-axis for a time scale with values from Friday, 01 January 2021, 12:00:00 AM to Monday, 01 January 2024, 12:00:00 AM"><g transform="translate(0.5,300.5)"><path class="background" aria-hidden="true" d="M0,0h0v0h0Z" pointer-events="none"/><g><g class="mark-rule role-axis-tick" pointer-events="none"><line transform="translate(0,0)" x2="0" y2="5" stroke="#676A86" stroke-opacity="0.5" stroke-width="1" opacity="1"/><line transform="translate(33,0)" x2="0" y2="5" stroke="#676A86" stroke-opacity="0.5" stroke-width="1" opacity="1"/><line transform="translate(66,0)" x2="0" y2="5" stroke="#676A86" stroke-opacity="0.5" stroke-width="1" opacity="1"/><line transform="translate(100,0)" x2="0" y2="5" stroke="#676A86" stroke-opacity="0.5" stroke-width="1" opacity="1"/><line transform="translate(133,0)" x2="0" y2="5" stroke="#676A86" stroke-opacity="0.5" stroke-width="1" opacity="1"/><line transform="translate(166,0)" x2="0" y2="5" stroke="#676A86" stroke-opacity="0.5" stroke-width="1" opacity="1"/><line transform="translate(199,0)" x2="0" y2="5" stroke="#676A86" stroke-opacity="0.5" stroke-width="1" opacity="1"/><line transform="translate(233,0)" x2="0" y2="5" stroke="#676A86" stroke-opacity="0.5" stroke-width="1" opacity="1"/><line transform="translate(267,0)" x2="0" y2="5" stroke="#676A86" stroke-opacity="0.5" stroke-width="1" opacity="1"/><line transform="translate(300,0)" x2="0" y2="5" stroke="#676A86" stroke-opacity="0.5" stroke-width="1" opacity="1"/><line transform="translate(333,0)" x2="0" y2="5" stroke="#676A86" stroke-opacity="0.5" stroke-width="1" opacity="1"/><line transform="translate(366,0)" x2="0" y2="5" stroke="#676A86" stroke-opacity="0.5" stroke-width="1" opacity="1"/><line transform="translate(400,0)" x2="0" y2="5" stroke="#676A86" stroke-opacity="0.5" stroke-width="1" opacity="1"/></g><g class="mark-text role-axis-label" pointer-events="none"><text text-anchor="start" transform="translate(0,15)" font-family="Circular Std Book" font-size="10px" fill="#676A86" fill-opacity="0.7" opacity="1">2021</text><text text-anchor="middle" transform="translate(32.87671232876712,15)" font-family="Circular Std Book" font-size="10px" fill="#676A86" fill-opacity="0.7" opacity="0">April</text><text text-anchor="middle" transform="translate(66.1187214611872,15)" font-family="Circular Std Book" font-size="10px" fill="#676A86" fill-opacity="0.7" opacity="1">July</text><text text-anchor="middle" transform="translate(99.72602739726028,15)" font-family="Circular Std Book" font-size="10px" fill="#676A86" fill-opacity="0.7" opacity="0">October</text><text text-anchor="middle" transform="translate(133.33333333333331,15)" font-family="Circular Std Book" font-size="10px" fill="#676A86" fill-opacity="0.7" opacity="1">2022</text><text text-anchor="middle" transform="translate(166.21004566210044,15)" font-family="Circular Std Book" font-size="10px" fill="#676A86" fill-opacity="0.7" opacity="0">April</text><text text-anchor="middle" transform="translate(199.45205479452056,15)" font-family="Circular Std Book" font-size="10px" fill="#676A86" fill-opacity="0.7" opacity="1">July</text><text text-anchor="middle" transform="translate(233.05936073059362,15)" font-family="Circular Std Book" font-size="10px" fill="#676A86" fill-opacity="0.7" opacity="0">October</text><text text-anchor="middle" transform="translate(266.66666666666663,15)" font-family="Circular Std Book" font-size="10px" fill="#676A86" fill-opacity="0.7" opacity="1">2023</text><text text-anchor="middle" transform="translate(299.5433789954338,15)" font-family="Circular Std Book" font-size="10px" fill="#676A86" fill-opacity="0.7" opacity="0">April</text><text text-anchor="middle" transform="translate(332.7853881278539,15)" font-family="Circular Std Book" font-size="10px" fill="#676A86" fill-opacity="0.7" opacity="1">July</text><text text-anchor="middle" transform="translate(366.39269406392697,15)" font-family="Circular Std Book" font-size="10px" fill="#676A86" fill-opacity="0.7" opacity="0">October</text><text text-anchor="end" transform="translate(400,15)" font-family="Circular Std Book" font-size="10px" fill="#676A86" fill-opacity="0.7" opacity="1">2024</text></g><g class="mark-rule role-axis-domain" pointer-events="none"><line transform="translate(0,0)" x2="400" y2="0" stroke="#676A86" stroke-opacity="0.5" stroke-width="1" opacity="1"/></g></g><path class="foreground" aria-hidden="true" d="" pointer-events="none" display="none"/></g></g><g class="mark-group role-axis" role="graphics-symbol" aria-roledescription="axis" aria-label="Y-axis titled '% change over 12 months' for a linear scale with values from −10 to 55"><g transform="translate(0.5,0.5)"><path class="background" aria-hidden="true" d="M0,0h0v0h0Z" pointer-events="none"/><g><g class="mark-text role-axis-label" pointer-events="none"><text text-anchor="end" transform="translate(-5,303)" font-family="Circular Std Book" font-size="10px" fill="#676A86" fill-opacity="0.7" opacity="1">−10</text><text text-anchor="end" transform="translate(-5,256.8461538461538)" font-family="Circular Std Book" font-size="10px" fill="#676A86" fill-opacity="0.7" opacity="1">0</text><text text-anchor="end" transform="translate(-5,210.69230769230768)" font-family="Circular Std Book" font-size="10px" fill="#676A86" fill-opacity="0.7" opacity="1">10</text><text text-anchor="end" transform="translate(-5,164.53846153846152)" font-family="Circular Std Book" font-size="10px" fill="#676A86" fill-opacity="0.7" opacity="1">20</text><text text-anchor="end" transform="translate(-5,118.38461538461537)" font-family="Circular Std Book" font-size="10px" fill="#676A86" fill-opacity="0.7" opacity="1">30</text><text text-anchor="end" transform="translate(-5,72.23076923076921)" font-family="Circular Std Book" font-size="10px" fill="#676A86" fill-opacity="0.7" opacity="1">40</text><text text-anchor="end" transform="translate(-5,26.076923076923062)" font-family="Circular Std Book" font-size="10px" fill="#676A86" fill-opacity="0.7" opacity="1">50</text></g><g class="mark-rule role-axis-domain" pointer-events="none"><line transform="translate(0,300)" x2="0" y2="-300" stroke="#676A86" stroke-opacity="0.5" stroke-width="1" opacity="1"/></g><g class="mark-text role-axis-title" pointer-events="none"><text text-anchor="start" transform="translate(0,-10)" font-family="Circular Std Book" font-size="12px" font-weight="bold" fill="#676A86" fill-opacity="0.8" opacity="1">% change over 12 months</text></g></g><path class="foreground" aria-hidden="true" d="" pointer-events="none" display="none"/></g></g><g class="mark-line role-mark layer_0_marks" role="graphics-object" aria-roledescription="line mark container"><path aria-label="x: Jan 01, 2021; y: 0" role="graphics-symbol" aria-roledescription="line mark" d="M0,253.84615384615384L400,253.84615384615384" stroke="#676A86" stroke-width="1" opacity="0.3"/></g><g class="mark-line role-mark layer_1_marks" role="graphics-object" aria-roledescription="line mark container"><path aria-label="time: Jan 01, 2021; car: −2.4" role="graphics-symbol" aria-roledescription="line mark" d="M0,264.9230769230769L1.8873668188736683,267.3076923076923C3.7747336377473366,269.6923076923077,7.549467275494673,274.46153846153845,11.141552511415526,278.46153846153845C14.73363774733638,282.46153846153845,18.143074581430746,285.6923076923077,21.735159817351597,286.3076923076923C25.32724505327245,286.9230769230769,29.101978691019784,284.9230769230769,32.8158295281583,282.8461538461538C36.5296803652968,280.7692307692308,40.18264840182648,278.6153846153846,43.89649923896499,276.15384615384613C47.610350076103494,273.6923076923077,51.38508371385083,270.9230769230769,55.098934550989334,267.7692307692307C58.81278538812785,264.6153846153846,62.46575342465753,261.0769230769231,66.17960426179604,257C69.89345509893455,252.9230769230769,73.66818873668188,248.3076923076923,77.44292237442922,245.46153846153848C81.21765601217656,242.6153846153846,84.99238964992391,241.53846153846152,88.70624048706242,241.53846153846152C92.42009132420092,241.53846153846152,96.0730593607306,242.6153846153846,99.78691019786909,242.38461538461536C103.50076103500761,242.15384615384616,107.27549467275496,240.6153846153846,110.98934550989345,238.84615384615384C114.70319634703196,237.0769230769231,118.35616438356165,235.0769230769231,122.07001522070016,227.92307692307693C125.78386605783867,220.7692307692308,129.55859969558597,208.46153846153848,133.33333333333331,201.84615384615384C137.10806697108066,195.23076923076925,140.882800608828,194.3076923076923,144.47488584474888,193.6153846153846C148.06697108066973,192.9230769230769,151.47640791476408,192.46153846153845,155.06849315068493,190.6923076923077C158.6605783866058,188.9230769230769,162.43531202435312,185.84615384615384,166.14916286149162,183.53846153846155C169.8630136986301,181.23076923076925,173.5159817351598,179.6923076923077,177.2298325722983,178.53846153846155C180.94368340943683,177.3846153846154,184.71841704718418,176.61538461538464,188.43226788432267,172.8461538461539C192.1461187214612,169.0769230769231,195.79908675799086,162.30769230769232,199.5129375951294,159.46153846153845C203.22678843226788,156.6153846153846,207.0015220700152,157.69230769230768,210.77625570776254,156.2307692307692C214.55098934550992,154.76923076923075,218.32572298325724,150.76923076923075,222.03957382039576,146.76923076923075C225.75342465753428,142.76923076923075,229.40639269406392,138.7692307692308,233.12024353120248,131.53846153846155C236.83409436834097,124.30769230769232,240.6088280060883,113.84615384615385,244.32267884322678,108.38461538461537C248.0365296803653,102.9230769230769,251.68949771689498,102.46153846153845,255.40334855403353,104.53846153846153C259.117199391172,106.6153846153846,262.8919330289193,111.23076923076923,266.6666666666667,109.07692307692308C270.441400304414,106.92307692307692,274.2161339421613,97.99999999999999,277.8082191780822,91.23076923076921C281.4003044140031,84.46153846153844,284.8097412480974,79.84615384615383,288.4018264840183,75.15384615384615C291.99391171993915,70.46153846153847,295.76864535768647,65.69230769230771,299.48249619482493,62.46153846153848C303.19634703196346,59.230769230769255,306.8493150684931,57.53846153846157,310.56316590563165,52.0769230769231C314.2770167427702,46.61538461538464,318.0517503805175,37.38461538461541,321.765601217656,31.538461538461558C325.47945205479454,25.692307692307704,329.1324200913242,23.230769230769237,332.84627092846273,22.384615384615383C336.5601217656012,21.53846153846153,340.3348554033485,22.307692307692296,344.1095890410959,23.461538461538453C347.88432267884326,24.615384615384603,351.6590563165905,26.15384615384615,355.3729071537291,27.076923076923077C359.0867579908676,28,362.73972602739724,28.30769230769231,366.45357686453576,31.615384615384624C370.1674277016743,34.92307692307693,373.9421613394216,41.230769230769226,377.6560121765601,45.92307692307691C381.36986301369865,50.615384615384606,385.02283105022826,53.69230769230768,388.73668188736684,58.76923076923077C392.4505327245053,63.84615384615384,396.2252663622526,70.92307692307692,398.11263318112634,74.46153846153847L400,78" stroke="#F4134D" stroke-width="3"/></g><g class="mark-line role-mark layer_2_marks" role="graphics-object" aria-roledescription="line mark container"><path aria-label="time: Jan 01, 2021; dw: 0.1" role="graphics-symbol" aria-roledescription="line mark" d="M0,253.3846153846154L1.8873668188736683,252.15384615384616C3.7747336377473366,250.92307692307693,7.549467275494673,248.46153846153848,11.141552511415526,247.3846153846154C14.73363774733638,246.3076923076923,18.143074581430746,246.6153846153846,21.735159817351597,246.15384615384616C25.32724505327245,245.6923076923077,29.101978691019784,244.46153846153845,32.8158295281583,244.15384615384616C36.5296803652968,243.84615384615384,40.18264840182648,244.46153846153845,43.89649923896499,244.07692307692307C47.610350076103494,243.6923076923077,51.38508371385083,242.3076923076923,55.098934550989334,241.46153846153845C58.81278538812785,240.6153846153846,62.46575342465753,240.3076923076923,66.17960426179604,240.2307692307692C69.89345509893455,240.15384615384616,73.66818873668188,240.3076923076923,77.44292237442922,240.2307692307692C81.21765601217656,240.15384615384616,84.99238964992391,239.84615384615384,88.70624048706242,240.0769230769231C92.42009132420092,240.3076923076923,96.0730593607306,241.0769230769231,99.78691019786909,240.61538461538464C103.50076103500761,240.15384615384616,107.27549467275496,238.46153846153845,110.98934550989345,230.46153846153845C114.70319634703196,222.46153846153842,118.35616438356165,208.1538461538461,122.07001522070016,193.76923076923072C125.78386605783867,179.38461538461536,129.55859969558597,164.9230769230769,133.33333333333331,157C137.10806697108066,149.07692307692307,140.882800608828,147.6923076923077,144.47488584474888,146.6923076923077C148.06697108066973,145.6923076923077,151.47640791476408,145.07692307692307,155.06849315068493,144C158.6605783866058,142.9230769230769,162.43531202435312,141.3846153846154,166.14916286149162,139.6153846153846C169.8630136986301,137.84615384615384,173.5159817351598,135.84615384615384,177.2298325722983,133.9230769230769C180.94368340943683,131.99999999999997,184.71841704718418,130.1538461538461,188.43226788432267,128.3076923076923C192.1461187214612,126.46153846153844,195.79908675799086,124.6153846153846,199.5129375951294,122.0769230769231C203.22678843226788,119.53846153846155,207.0015220700152,116.30769230769232,210.77625570776254,113C214.55098934550992,109.6923076923077,218.32572298325724,106.3076923076923,222.03957382039576,102.38461538461537C225.75342465753428,98.46153846153845,229.40639269406392,94,233.12024353120248,92.15384615384615C236.83409436834097,90.3076923076923,240.6088280060883,91.07692307692308,244.32267884322678,100.76923076923077C248.0365296803653,110.46153846153845,251.68949771689498,129.0769230769231,255.40334855403353,145.3846153846154C259.117199391172,161.6923076923077,262.8919330289193,175.6923076923077,266.6666666666667,182.53846153846155C270.441400304414,189.3846153846154,274.2161339421613,189.0769230769231,277.8082191780822,188.0769230769231C281.4003044140031,187.0769230769231,284.8097412480974,185.3846153846154,288.4018264840183,183.00000000000003C291.99391171993915,180.61538461538464,295.76864535768647,177.53846153846155,299.48249619482493,175.30769230769235C303.19634703196346,173.0769230769231,306.8493150684931,171.6923076923077,310.56316590563165,171.84615384615384C314.2770167427702,172,318.0517503805175,173.6923076923077,321.765601217656,174.2307692307692C325.47945205479454,174.76923076923075,329.1324200913242,174.15384615384616,332.84627092846273,173.76923076923075C336.5601217656012,173.3846153846154,340.3348554033485,173.2307692307692,344.1095890410959,173.3076923076923C347.88432267884326,173.3846153846154,351.6590563165905,173.6923076923077,355.3729071537291,174.61538461538464C359.0867579908676,175.53846153846155,362.73972602739724,177.0769230769231,366.45357686453576,177.84615384615384C370.1674277016743,178.6153846153846,373.9421613394216,178.6153846153846,377.6560121765601,178C381.36986301369865,177.3846153846154,385.02283105022826,176.15384615384616,388.73668188736684,173.6923076923077C392.4505327245053,171.2307692307692,396.2252663622526,167.53846153846155,398.11263318112634,165.6923076923077L400,163.84615384615387" stroke="#179FDB" stroke-width="3"/></g><g class="mark-line role-mark layer_3_marks" role="graphics-object" aria-roledescription="line mark container"><path aria-label="time: Jan 01, 2021; all: 1.4" role="graphics-symbol" aria-roledescription="line mark" d="M0,247.3846153846154L1.8873668188736683,247.3846153846154C3.7747336377473366,247.3846153846154,7.549467275494673,247.3846153846154,11.141552511415526,247.3076923076923C14.73363774733638,247.2307692307692,18.143074581430746,247.07692307692307,21.735159817351597,245.9230769230769C25.32724505327245,244.76923076923075,29.101978691019784,242.6153846153846,32.8158295281583,241.2307692307692C36.5296803652968,239.84615384615384,40.18264840182648,239.2307692307692,43.89649923896499,238.46153846153845C47.610350076103494,237.6923076923077,51.38508371385083,236.7692307692308,55.098934550989334,236.3846153846154C58.81278538812785,236,62.46575342465753,236.1538461538462,66.17960426179604,235.46153846153845C69.89345509893455,234.7692307692308,73.66818873668188,233.23076923076925,77.44292237442922,232.3846153846154C81.21765601217656,231.53846153846155,84.99238964992391,231.3846153846154,88.70624048706242,230.46153846153845C92.42009132420092,229.53846153846155,96.0730593607306,227.84615384615384,99.78691019786909,226.15384615384616C103.50076103500761,224.46153846153845,107.27549467275496,222.76923076923075,110.98934550989345,221.6153846153846C114.70319634703196,220.46153846153845,118.35616438356165,219.84615384615384,122.07001522070016,219.3076923076923C125.78386605783867,218.7692307692308,129.55859969558597,218.3076923076923,133.33333333333331,217.76923076923075C137.10806697108066,217.2307692307692,140.882800608828,216.6153846153846,144.47488584474888,215.6923076923077C148.06697108066973,214.76923076923075,151.47640791476408,213.53846153846152,155.06849315068493,211.30769230769226C158.6605783866058,209.07692307692307,162.43531202435312,205.84615384615384,166.14916286149162,203.76923076923075C169.8630136986301,201.6923076923077,173.5159817351598,200.76923076923075,177.2298325722983,200.23076923076925C180.94368340943683,199.6923076923077,184.71841704718418,199.53846153846155,188.43226788432267,199.0769230769231C192.1461187214612,198.6153846153846,195.79908675799086,197.84615384615384,199.5129375951294,197.46153846153848C203.22678843226788,197.0769230769231,207.0015220700152,197.0769230769231,210.77625570776254,196.84615384615384C214.55098934550992,196.6153846153846,218.32572298325724,196.15384615384616,222.03957382039576,194.6923076923077C225.75342465753428,193.2307692307692,229.40639269406392,190.7692307692308,233.12024353120248,189.6923076923077C236.83409436834097,188.6153846153846,240.6088280060883,188.9230769230769,244.32267884322678,189.53846153846155C248.0365296803653,190.15384615384616,251.68949771689498,191.0769230769231,255.40334855403353,191.53846153846155C259.117199391172,192,262.8919330289193,192,266.6666666666667,191.6923076923077C270.441400304414,191.3846153846154,274.2161339421613,190.7692307692308,277.8082191780822,190.6923076923077C281.4003044140031,190.6153846153846,284.8097412480974,191.07692307692307,288.4018264840183,192.9230769230769C291.99391171993915,194.76923076923075,295.76864535768647,198,299.48249619482493,199.6923076923077C303.19634703196346,201.3846153846154,306.8493150684931,201.53846153846152,310.56316590563165,202.0769230769231C314.2770167427702,202.6153846153846,318.0517503805175,203.53846153846152,321.765601217656,205.3076923076923C325.47945205479454,207.07692307692307,329.1324200913242,209.6923076923077,332.84627092846273,210.9230769230769C336.5601217656012,212.15384615384616,340.3348554033485,212,344.1095890410959,212.07692307692307C347.88432267884326,212.15384615384616,351.6590563165905,212.46153846153848,355.3729071537291,214.7692307692308C359.0867579908676,217.0769230769231,362.73972602739724,221.3846153846154,366.45357686453576,224.1538461538462C370.1674277016743,226.92307692307693,373.9421613394216,228.15384615384616,377.6560121765601,228.84615384615384C381.36986301369865,229.53846153846155,385.02283105022826,229.6923076923077,388.73668188736684,230.00000000000003C392.4505327245053,230.3076923076923,396.2252663622526,230.7692307692308,398.11263318112634,231L400,231.23076923076923" stroke="#36B7B4" stroke-width="3"/></g><g class="mark-text role-mark layer_4_marks" role="graphics-object" aria-roledescription="text mark container"><text aria-label="time: Jan 01, 2024; all: 4.9" role="graphics-symbol" aria-roledescription="text mark" text-anchor="start" transform="translate(405,235.23076923076923)" font-family="Circular Std Book" font-size="12px" fill="#36B7B4">All items</text></g><g class="mark-text role-mark layer_5_marks" role="graphics-object" aria-roledescription="text mark container"><text aria-label="time: Jan 01, 2024; dw: 19.5" role="graphics-symbol" aria-roledescription="text mark" text-anchor="start" transform="translate(405,167.84615384615387)" font-family="Circular Std Book" font-size="12px" fill="#179FDB"><tspan>Dwelling insurance</tspan><tspan x="0" dy="14">&amp; ground rent</tspan></text></g><g class="mark-text role-mark layer_6_marks" role="graphics-object" aria-roledescription="text mark container"><text aria-label="time: Jan 01, 2024; car: 38.1" role="graphics-symbol" aria-roledescription="text mark" text-anchor="start" transform="translate(405,82)" font-family="Circular Std Book" font-size="12px" fill="#F4134D">Vehicles tax &amp; insurance</text></g></g><path class="foreground" aria-hidden="true" d="" display="none"/></g></g></g></svg>