<svg xmlns="http://www.w3.org/2000/svg" xmlns:xlink="http://www.w3.org/1999/xlink" version="1.1" class="marks" width="606" height="360" viewBox="0 0 606 360"><rect width="606" height="360" fill="#122B39"/><g fill="none" stroke-miterlimit="10" transform="translate(28,38)"><g class="mark-group role-frame root" role="graphics-object" aria-roledescription="group mark container"><g transform="translate(0,0)"><path class="background" aria-hidden="true" d="M0,0h400v300h-400Z"/><g><g class="mark-group role-axis" aria-hidden="true"><g transform="translate(0.5,0.5)"><path class="background" aria-hidden="true" d="M0,0h0v0h0Z" pointer-events="none"/><g><g class="mark-rule role-axis-grid" pointer-events="none"><line transform="translate(0,300)" x2="400" y2="0" stroke="#b4c8d8" stroke-opacity="0.5" stroke-width="1" stroke-dasharray="1,5" opacity="1"/><line transform="translate(0,257)" x2="400" y2="0" stroke="#b4c8d8" stroke-opacity="0.5" stroke-width="1" stroke-dasharray="1,5" opacity="1"/><line transform="translate(0,214)" x2="400" y2="0" stroke="#b4c8d8" stroke-opacity="0.5" stroke-width="1" stroke-dasharray="1,5" opacity="1"/><line transform="translate(0,171)" x2="400" y2="0" stroke="#b4c8d8" stroke-opacity="0.5" stroke-width="1" stroke-dasharray="1,5" opacity="1"/><line transform="translate(0,129)" x2="400" y2="0" stroke="#b4c8d8" stroke-opacity="0.5" stroke-width="1" stroke-dasharray="1,5" opacity="1"/><line transform="translate(0,86)" x2="400" y2="0" stroke="#b4c8d8" stroke-opacity="0.5" stroke-width="1" stroke-dasharray="1,5" opacity="1"/><line transform="translate(0,43)" x2="400" y2="0" stroke="#b4c8d8" stroke-opacity="0.5" stroke-width="1" stroke-dasharray="1,5" opacity="1"/><line transform="translate(0,0)" x2="400" y2="0" stroke="#b4c8d8" stroke-opacity="0.5" stroke-width="1" stroke-dasharray="1,5" opacity="1"/></g></g><path class="foreground" aria-hidden="true" d="" pointer-events="none" display="none"/></g></g><g class="mark-group role-axis" role="graphics-symbol" aria-roledescription="axis" aria-label="X-axis for a time scale with values from Friday, 01 January 2021, 12:00:00 AM to Monday, 01 January 2024, 12:00:00 AM"><g transform="translate(0.5,300.5)"><path class="background" aria-hidden="true" d="M0,0h0v0h0Z" pointer-events="none"/><g><g class="mark-rule role-axis-tick" pointer-events="none"><line transform="translate(0,0)" x2="0" y2="5" stroke="#b4c8d8" stroke-opacity="0.5" stroke-width="1" opacity="1"/><line transform="translate(33,0)" x2="0" y2="5" stroke="#b4c8d8" stroke-opacity="0.5" stroke-width="1" opacity="1"/><line transform="translate(66,0)" x2="0" y2="5" stroke="#b4c8d8" stroke-opacity="0.5" stroke-width="1" opacity="1"/><line transform="translate(100,0)" x2="0" y2="5" stroke="#b4c8d8" stroke-opacity="0.5" stroke-width="1" opacity="1"/><line transform="translate(133,0)" x2="0" y2="5" stroke="#b4c8d8" stroke-opacity="0.5" stroke-width="1" opacity="1"/><line transform="translate(166,0)" x2="0" y2="5" stroke="#b4c8d8" stroke-opacity="0.5" stroke-width="1" opacity="1"/><line transform="translate(199,0)" x2="0" y2="5" stroke="#b4c8d8" stroke-opacity="0.5" stroke-width="1" opacity="1"/><line transform="translate(233,0)" x2="0" y2="5" stroke="#b4c8d8" stroke-opacity="0.5" stroke-width="1" opacity="1"/><line transform="translate(267,0)" x2="0" y2="5" stroke="#b4c8d8" stroke-opacity="0.5" stroke-width="1" opacity="1"/><line transform="translate(300,0)" x2="0" y2="5" stroke="#b4c8d8" stroke-opacity="0.5" stroke-width="1" opacity="1"/><line transform="translate(333,0)" x2="0" y2="5" stroke="#b4c8d8" stroke-opacity="0.5" stroke-width="1" opacity="1"/><line transform="translate(366,0)" x2="0" y2="5" stroke="#b4c8d8" stroke-opacity="0.5" stroke-width="1" opacity="1"/><line transform="translate(400,0)" x2="0" y2="5" stroke="#b4c8d8" stroke-opacity="0.5" stroke-width="1" opacity="1"/></g><g class="mark-text role-axis-label" pointer-events="none"><text text-anchor="start" transform="translate(0,15)" font-family="Circular Std Book" font-size="10px" fill="#b4c8d8" fill-opacity="0.7" opacity="1">2021</text><text text-anchor="middle" transform="translate(32.87671232876712,15)" font-family="Circular Std Book" font-size="10px" fill="#b4c8d8" fill-opacity="0.7" opacity="0">April</text><text text-anchor="middle" transform="translate(66.1187214611872,15)" font-family="Circular Std Book" font-size="10px" fill="#b4c8d8" fill-opacity="0.7" opacity="1">July</text><text text-anchor="middle" transform="translate(99.72602739726028,15)" font-family="Circular Std Book" font-size="10px" fill="#b4c8d8" fill-opacity="0.7" opacity="0">October</text><text text-anchor="middle" transform="translate(133.33333333333331,15)" font-family="Circular Std Book" font-size="10px" fill="#b4c8d8" fill-opacity="0.7" opacity="1">2022</text><text text-anchor="middle" transform="translate(166.21004566210044,15)" font-family="Circular Std Book" font-size="10px" fill="#b4c8d8" fill-opacity="0.7" opacity="0">April</text><text text-anchor="middle" transform="translate(199.45205479452056,15)" font-family="Circular Std Book" font-size="10px" fill="#b4c8d8" fill-opacity="0.7" opacity="1">July</text><text text-anchor="middle" transform="translate(233.05936073059362,15)" font-family="Circular Std Book" font-size="10px" fill="#b4c8d8" fill-opacity="0.7" opacity="0">October</text><text text-anchor="middle" transform="translate(266.66666666666663,15)" font-family="Circular Std Book" font-size="10px" fill="#b4c8d8" fill-opacity="0.7" opacity="1">2023</text><text text-anchor="middle" transform="translate(299.5433789954338,15)" font-family="Circular Std Book" font-size="10px" fill="#b4c8d8" fill-opacity="0.7" opacity="0">April</text><text text-anchor="middle" transform="translate(332.7853881278539,15)" font-family="Circular Std Book" font-size="10px" fill="#b4c8d8" fill-opacity="0.7" opacity="1">July</text><text text-anchor="middle" transform="translate(366.39269406392697,15)" font-family="Circular Std Book" font-size="10px" fill="#b4c8d8" fill-opacity="0.7" opacity="0">October</text><text text-anchor="end" transform="translate(400,15)" font-family="Circular Std Book" font-size="10px" fill="#b4c8d8" fill-opacity="0.7" opacity="1">2024</text></g><g class="mark-rule role-axis-domain" pointer-events="none"><line transform="translate(0,0)" x2="400" y2="0" stroke="#b4c8d8" stroke-opacity="0.5" stroke-width="1" opacity="1"/></g></g><path class="foreground" aria-hidden="true" d="" pointer-events="none" display="none"/></g></g><g class="mark-group role-axis" role="graphics-symbol" aria-roledescription="axis" aria-label="Y-axis titled '% change over 12 months' for a linear scale with values from −10 to 60"><g transform="translate(0.5,0.5)"><path class="background" aria-hidden="true" d="M0,0h0v0h0Z" pointer-events="none"/><g><g class="mark-text role-axis-label" pointer-events="none"><text text-anchor="end" transform="translate(-5,303)" font-family="Circular Std Book" font-size="10px" fill="#b4c8d8" fill-opacity="0.7" opacity="1">−10</text><text text-anchor="end" transform="translate(-5,260.14285714285717)" font-family="Circular Std Book" font-size="10px" fill="#b4c8d8" fill-opacity="0.7" opacity="1">0</text><text text-anchor="end" transform="translate(-5,217.28571428571428)" font-family="Circular Std Book" font-size="10px" fill="#b4c8d8" fill-opacity="0.7" opacity="1">10</text><text text-anchor="end" transform="translate(-5,174.42857142857142)" font-family="Circular Std Book" font-size="10px" fill="#b4c8d8" fill-opacity="0.7" opacity="1">20</text><text text-anchor="end" transform="translate(-5,131.57142857142858)" font-family="Circular Std Book" font-size="10px" fill="#b4c8d8" fill-opacity="0.7" opacity="1">30</text><text text-anchor="end" transform="translate(-5,88.71428571428571)" font-family="Circular Std Book" font-size="10px" fill="#b4c8d8" fill-opacity="0.7" opacity="1">40</text><text text-anchor="end" transform="translate(-5,45.85714285714287)" font-family="Circular Std Book" font-size="10px" fill="#b4c8d8" fill-opacity="0.7" opacity="1">50</text><text text-anchor="end" transform="translate(-5,3)" font-family="Circular Std Book" font-size="10px" fill="#b4c8d8" fill-opacity="0.7" opacity="1">60</text></g><g class="mark-rule role-axis-domain" pointer-events="none"><line transform="translate(0,300)" x2="0" y2="-300" stroke="#b4c8d8" stroke-opacity="0.5" stroke-width="1" opacity="1"/></g><g class="mark-text role-axis-title" pointer-events="none"><text text-anchor="start" transform="translate(0,-10)" font-family="Circular Std Book" font-size="12px" font-weight="bold" fill="#b4c8d8" fill-opacity="0.8" opacity="1">% change over 12 months</text></g></g><path class="foreground" aria-hidden="true" d="" pointer-events="none" display="none"/></g></g><g class="mark-line role-mark layer_0_marks" role="graphics-object" aria-roledescription="line mark container"><path aria-label="x: Jan 01, 2021; y: 0" role="graphics-symbol" aria-roledescription="line mark" d="M0,257.14285714285717L400,257.14285714285717" stroke="#b4c8d8" stroke-width="1" opacity="0.3"/></g><g class="mark-line role-mark layer_1_marks" role="graphics-object" aria-roledescription="line mark container"><path aria-label="time: Jan 01, 2021; car: −2.4" role="graphics-symbol" aria-roledescription="line mark" d="M0,267.42857142857144L11.32420091324201,280.7142857142857L21.552511415525114,289.7142857142857L32.87671232876712,284.14285714285717L43.83561643835616,278.14285714285717L55.15981735159817,270.42857142857144L66.1187214611872,260.57142857142856L77.44292237442923,247.71428571428572L88.76712328767124,244.71428571428572L99.72602739726028,247.71428571428572L111.05022831050229,243.42857142857142L122.00913242009133,237.85714285714283L133.33333333333331,203.57142857142858L144.65753424657535,200.99999999999997L154.88584474885846,199.71428571428572L166.21004566210044,191.14285714285717L177.16894977168948,186.85714285714286L188.49315068493152,184.7142857142857L199.45205479452056,165.85714285714286L210.77625570776254,168.85714285714286L222.10045662100458,157.7142857142857L233.05936073059362,146.57142857142858L244.38356164383563,117.42857142857144L255.34246575342468,116.14285714285714L266.66666666666663,129.00000000000003L277.9908675799087,104.14285714285712L288.2191780821918,91.28571428571428L299.5433789954338,78L310.5022831050228,73.28571428571429L321.82648401826486,47.57142857142858L332.7853881278539,40.7142857142857L344.1095890410959,42.85714285714287L355.4337899543379,47.14285714285714L366.39269406392697,48.00000000000001L377.7168949771689,65.57142857142856L388.675799086758,74.14285714285714L400,93.85714285714285" stroke="#F4134D" stroke-width="2"/></g><g class="mark-line role-mark layer_2_marks" role="graphics-object" aria-roledescription="line mark container"><path aria-label="time: Jan 01, 2021; dw: 0.1" role="graphics-symbol" aria-roledescription="line mark" d="M0,256.7142857142857L11.32420091324201,249.85714285714286L21.552511415525114,250.71428571428572L32.87671232876712,247.28571428571428L43.83561643835616,249L55.15981735159817,245.14285714285714L66.1187214611872,244.28571428571428L77.44292237442923,244.71428571428572L88.76712328767124,243.85714285714286L99.72602739726028,246.00000000000003L111.05022831050229,241.28571428571428L122.00913242009133,201.42857142857144L133.33333333333331,161.14285714285714L144.65753424657535,157.28571428571428L154.88584474885846,155.57142857142853L166.21004566210044,151.28571428571428L177.16894977168948,145.71428571428572L188.49315068493152,140.57142857142856L199.45205479452056,135.42857142857142L210.77625570776254,126.42857142857142L222.10045662100458,117L233.05936073059362,104.57142857142856L244.38356164383563,106.7142857142857L255.34246575342468,158.57142857142858L266.66666666666663,197.57142857142858L277.9908675799087,196.71428571428572L288.2191780821918,192L299.5433789954338,183.42857142857142L310.5022831050228,179.57142857142856L321.82648401826486,184.2857142857143L332.7853881278539,182.57142857142856L344.1095890410959,182.14285714285717L355.4337899543379,183L366.39269406392697,187.2857142857143L377.7168949771689,187.2857142857143L388.675799086758,183.85714285714283L400,173.57142857142856" stroke="#179FDB" stroke-width="2"/></g><g class="mark-line role-mark layer_3_marks" role="graphics-object" aria-roledescription="line mark container"><path aria-label="time: Jan 01, 2021; all: 1.4" role="graphics-symbol" aria-roledescription="line mark" d="M0,251.14285714285717L11.32420091324201,251.14285714285717L21.552511415525114,250.71428571428572L32.87671232876712,244.71428571428572L43.83561643835616,243.00000000000003L55.15981735159817,240.42857142857142L66.1187214611872,240.85714285714286L77.44292237442923,236.57142857142858L88.76712328767124,236.14285714285714L99.72602739726028,231.42857142857144L111.05022831050229,226.7142857142857L122.00913242009133,225L133.33333333333331,223.71428571428572L144.65753424657535,222L154.88584474885846,218.57142857142858L166.21004566210044,209.57142857142858L177.16894977168948,206.99999999999997L188.49315068493152,206.57142857142858L199.45205479452056,204.42857142857144L210.77625570776254,204.42857142857144L222.10045662100458,203.1428571428571L233.05936073059362,196.2857142857143L244.38356164383563,197.14285714285714L255.34246575342468,199.71428571428572L266.66666666666663,199.71428571428572L277.9908675799087,197.99999999999997L288.2191780821918,199.2857142857143L299.5433789954338,208.28571428571428L310.5022831050228,208.71428571428572L321.82648401826486,211.28571428571428L332.7853881278539,218.57142857142858L344.1095890410959,218.14285714285714L355.4337899543379,219L366.39269406392697,231L377.7168949771689,234.42857142857142L388.675799086758,234.8571428571429L400,236.14285714285714" stroke="#36B7B4" stroke-width="2"/></g><g class="mark-text role-mark layer_4_marks" role="graphics-object" aria-roledescription="text mark container"><text aria-label="time: Jan 01, 2024; all: 4.9" role="graphics-symbol" aria-roledescription="text mark" text-anchor="start" transform="translate(405,240.14285714285714)" font-family="Circular Std Book" font-size="12px" fill="#36B7B4">All items</text></g><g class="mark-text role-mark layer_5_marks" role="graphics-object" aria-roledescription="text mark container"><text aria-label="time: Jan 01, 2024; dw: 19.5" role="graphics-symbol" aria-roledescription="text mark" text-anchor="start" transform="translate(405,177.57142857142856)" font-family="Circular Std Book" font-size="12px" fill="#179FDB"><tspan>Dwelling insurance</tspan><tspan x="0" dy="14">&amp; ground rent</tspan></text></g><g class="mark-text role-mark layer_6_marks" role="graphics-object" aria-roledescription="text mark container"><text aria-label="time: Jan 01, 2024; car: 38.1" role="graphics-symbol" aria-roledescription="text mark" text-anchor="start" transform="translate(405,97.85714285714285)" font-family="Circular Std Book" font-size="12px" fill="#F4134D">Vehicles tax &amp; insurance</text></g><g class="mark-image role-mark layer_7_marks" role="graphics-object" aria-roledescription="image mark container"><image aria-label="x: Jan 01, 2024; y: 60; img: https://raw.githubusercontent.com/EconomicsObservatory/ECOvisualisations/main/guidelines/logos/eco-icon-light.png" role="graphics-symbol" aria-roledescription="image mark" xlink:href="" transform="translate(360,-33)" width="40" height="40" preserveAspectRatio="xMidYMid" opacity="0.5"/></g></g><path class="foreground" aria-hidden="true" d="" display="none"/></g></g></g></svg>