<svg xmlns="http://www.w3.org/2000/svg" xmlns:xlink="http://www.w3.org/1999/xlink" version="1.1" class="marks" width="606" height="347" viewBox="0 0 606 347"><rect width="606" height="347" fill="#122B39"/><g fill="none" stroke-miterlimit="10" transform="translate(28,25)"><g class="mark-group role-frame root" role="graphics-object" aria-roledescription="group mark container"><g transform="translate(0,0)"><path class="background" aria-hidden="true" d="M0,0h400v300h-400Z"/><g><g class="mark-group role-axis" aria-hidden="true"><g transform="translate(0.5,0.5)"><path class="background" aria-hidden="true" d="M0,0h0v0h0Z" pointer-events="none"/><g><g class="mark-rule role-axis-grid" pointer-events="none"><line transform="translate(0,300)" x2="400" y2="0" stroke="#b4c8d8" stroke-opacity="0.5" stroke-width="1" stroke-dasharray="1,5" opacity="1"/><line transform="translate(0,254)" x2="400" y2="0" stroke="#b4c8d8" stroke-opacity="0.5" stroke-width="1" stroke-dasharray="1,5" opacity="1"/><line transform="translate(0,208)" x2="400" y2="0" stroke="#b4c8d8" stroke-opacity="0.5" stroke-width="1" stroke-dasharray="1,5" opacity="1"/><line transform="translate(0,162)" x2="400" y2="0" stroke="#b4c8d8" stroke-opacity="0.5" stroke-width="1" stroke-dasharray="1,5" opacity="1"/><line transform="translate(0,115)" x2="400" y2="0" stroke="#b4c8d8" stroke-opacity="0.5" stroke-width="1" stroke-dasharray="1,5" opacity="1"/><line transform="translate(0,69)" x2="400" y2="0" stroke="#b4c8d8" stroke-opacity="0.5" stroke-width="1" stroke-dasharray="1,5" opacity="1"/><line transform="translate(0,23)" x2="400" y2="0" stroke="#b4c8d8" stroke-opacity="0.5" stroke-width="1" stroke-dasharray="1,5" opacity="1"/></g></g><path class="foreground" aria-hidden="true" d="" pointer-events="none" display="none"/></g></g><g class="mark-group role-axis" role="graphics-symbol" aria-roledescription="axis" aria-label="X-axis for a time scale with values from Friday, 01 January 2021, 12:00:00 AM to Monday, 01 January 2024, 12:00:00 AM"><g transform="translate(0.5,300.5)"><path class="background" aria-hidden="true" d="M0,0h0v0h0Z" pointer-events="none"/><g><g class="mark-rule role-axis-tick" pointer-events="none"><line transform="translate(0,0)" x2="0" y2="5" stroke="#b4c8d8" stroke-opacity="0.5" stroke-width="1" opacity="1"/><line transform="translate(33,0)" x2="0" y2="5" stroke="#b4c8d8" stroke-opacity="0.5" stroke-width="1" opacity="1"/><line transform="translate(66,0)" x2="0" y2="5" stroke="#b4c8d8" stroke-opacity="0.5" stroke-width="1" opacity="1"/><line transform="translate(100,0)" x2="0" y2="5" stroke="#b4c8d8" stroke-opacity="0.5" stroke-width="1" opacity="1"/><line transform="translate(133,0)" x2="0" y2="5" stroke="#b4c8d8" stroke-opacity="0.5" stroke-width="1" opacity="1"/><line transform="translate(166,0)" x2="0" y2="5" stroke="#b4c8d8" stroke-opacity="0.5" stroke-width="1" opacity="1"/><line transform="translate(199,0)" x2="0" y2="5" stroke="#b4c8d8" stroke-opacity="0.5" stroke-width="1" opacity="1"/><line transform="translate(233,0)" x2="0" y2="5" stroke="#b4c8d8" stroke-opacity="0.5" stroke-width="1" opacity="1"/><line transform="translate(267,0)" x2="0" y2="5" stroke="#b4c8d8" stroke-opacity="0.5" stroke-width="1" opacity="1"/><line transform="translate(300,0)" x2="0" y2="5" stroke="#b4c8d8" stroke-opacity="0.5" stroke-width="1" opacity="1"/><line transform="translate(333,0)" x2="0" y2="5" stroke="#b4c8d8" stroke-opacity="0.5" stroke-width="1" opacity="1"/><line transform="translate(366,0)" x2="0" y2="5" stroke="#b4c8d8" stroke-opacity="0.5" stroke-width="1" opacity="1"/><line transform="translate(400,0)" x2="0" y2="5" stroke="#b4c8d8" stroke-opacity="0.5" stroke-width="1" opacity="1"/></g><g class="mark-text role-axis-label" pointer-events="none"><text text-anchor="start" transform="translate(0,15)" font-family="Circular Std Book" font-size="10px" fill="#b4c8d8" fill-opacity="0.7" opacity="1">2021</text><text text-anchor="middle" transform="translate(32.87671232876712,15)" font-family="Circular Std Book" font-size="10px" fill="#b4c8d8" fill-opacity="0.7" opacity="0">April</text><text text-anchor="middle" transform="translate(66.1187214611872,15)" font-family="Circular Std Book" font-size="10px" fill="#b4c8d8" fill-opacity="0.7" opacity="1">July</text><text text-anchor="middle" transform="translate(99.72602739726028,15)" font-family="Circular Std Book" font-size="10px" fill="#b4c8d8" fill-opacity="0.7" opacity="0">October</text><text text-anchor="middle" transform="translate(133.33333333333331,15)" font-family="Circular Std Book" font-size="10px" fill="#b4c8d8" fill-opacity="0.7" opacity="1">2022</text><text text-anchor="middle" transform="translate(166.21004566210044,15)" font-family="Circular Std Book" font-size="10px" fill="#b4c8d8" fill-opacity="0.7" opacity="0">April</text><text text-anchor="middle" transform="translate(199.45205479452056,15)" font-family="Circular Std Book" font-size="10px" fill="#b4c8d8" fill-opacity="0.7" opacity="1">July</text><text text-anchor="middle" transform="translate(233.05936073059362,15)" font-family="Circular Std Book" font-size="10px" fill="#b4c8d8" fill-opacity="0.7" opacity="0">October</text><text text-anchor="middle" transform="translate(266.66666666666663,15)" font-family="Circular Std Book" font-size="10px" fill="#b4c8d8" fill-opacity="0.7" opacity="1">2023</text><text text-anchor="middle" transform="translate(299.5433789954338,15)" font-family="Circular Std Book" font-size="10px" fill="#b4c8d8" fill-opacity="0.7" opacity="0">April</text><text text-anchor="middle" transform="translate(332.7853881278539,15)" font-family="Circular Std Book" font-size="10px" fill="#b4c8d8" fill-opacity="0.7" opacity="1">July</text><text text-anchor="middle" transform="translate(366.39269406392697,15)" font-family="Circular Std Book" font-size="10px" fill="#b4c8d8" fill-opacity="0.7" opacity="0">October</text><text text-anchor="end" transform="translate(400,15)" font-family="Circular Std Book" font-size="10px" fill="#b4c8d8" fill-opacity="0.7" opacity="1">2024</text></g><g class="mark-rule role-axis-domain" pointer-events="none"><line transform="translate(0,0)" x2="400" y2="0" stroke="#b4c8d8" stroke-opacity="0.5" stroke-width="1" opacity="1"/></g></g><path class="foreground" aria-hidden="true" d="" pointer-events="none" display="none"/></g></g><g class="mark-group role-axis" role="graphics-symbol" aria-roledescription="axis" aria-label="Y-axis titled '% change over 12 months' for a linear scale with values from −10 to 55"><g transform="translate(0.5,0.5)"><path class="background" aria-hidden="true" d="M0,0h0v0h0Z" pointer-events="none"/><g><g class="mark-text role-axis-label" pointer-events="none"><text text-anchor="end" transform="translate(-5,303)" font-family="Circular Std Book" font-size="10px" fill="#b4c8d8" fill-opacity="0.7" opacity="1">−10</text><text text-anchor="end" transform="translate(-5,256.8461538461538)" font-family="Circular Std Book" font-size="10px" fill="#b4c8d8" fill-opacity="0.7" opacity="1">0</text><text text-anchor="end" transform="translate(-5,210.69230769230768)" font-family="Circular Std Book" font-size="10px" fill="#b4c8d8" fill-opacity="0.7" opacity="1">10</text><text text-anchor="end" transform="translate(-5,164.53846153846152)" font-family="Circular Std Book" font-size="10px" fill="#b4c8d8" fill-opacity="0.7" opacity="1">20</text><text text-anchor="end" transform="translate(-5,118.38461538461537)" font-family="Circular Std Book" font-size="10px" fill="#b4c8d8" fill-opacity="0.7" opacity="1">30</text><text text-anchor="end" transform="translate(-5,72.23076923076921)" font-family="Circular Std Book" font-size="10px" fill="#b4c8d8" fill-opacity="0.7" opacity="1">40</text><text text-anchor="end" transform="translate(-5,26.076923076923062)" font-family="Circular Std Book" font-size="10px" fill="#b4c8d8" fill-opacity="0.7" opacity="1">50</text></g><g class="mark-rule role-axis-domain" pointer-events="none"><line transform="translate(0,300)" x2="0" y2="-300" stroke="#b4c8d8" stroke-opacity="0.5" stroke-width="1" opacity="1"/></g><g class="mark-text role-axis-title" pointer-events="none"><text text-anchor="start" transform="translate(0,-10)" font-family="Circular Std Book" font-size="12px" font-weight="bold" fill="#b4c8d8" fill-opacity="0.8" opacity="1">% change over 12 months</text></g></g><path class="foreground" aria-hidden="true" d="" pointer-events="none" display="none"/></g></g><g class="mark-line role-mark layer_0_marks" role="graphics-object" aria-roledescription="line mark container"><path aria-label="x: Jan 01, 2021; y: 0" role="graphics-symbol" aria-roledescription="line mark" d="M0,253.84615384615384L400,253.84615384615384" stroke="#b4c8d8" stroke-width="1" opacity="0.3"/></g><g class="mark-line role-mark layer_1_marks" role="graphics-object" aria-roledescription="line mark container"><path aria-label="time: Jan 01, 2021; car: −2.4" role="graphics-symbol" aria-roledescription="line mark" d="M0,264.9230769230769L11.32420091324201,279.2307692307692L21.552511415525114,288.9230769230769L32.87671232876712,282.9230769230769L43.83561643835616,276.46153846153845L55.15981735159817,268.15384615384613L66.1187214611872,257.53846153846155L77.44292237442923,243.69230769230768L88.76712328767124,240.46153846153845L99.72602739726028,243.69230769230768L111.05022831050229,239.0769230769231L122.00913242009133,233.0769230769231L133.33333333333331,196.15384615384616L144.65753424657535,193.3846153846154L154.88584474885846,192L166.21004566210044,182.76923076923077L177.16894977168948,178.15384615384616L188.49315068493152,175.84615384615387L199.45205479452056,155.53846153846155L210.77625570776254,158.76923076923075L222.10045662100458,146.76923076923075L233.05936073059362,134.7692307692308L244.38356164383563,103.38461538461536L255.34246575342468,101.99999999999999L266.66666666666663,115.84615384615385L277.9908675799087,89.07692307692305L288.2191780821918,75.23076923076923L299.5433789954338,60.92307692307695L310.5022831050228,55.84615384615387L321.82648401826486,28.153846153846175L332.7853881278539,20.769230769230763L344.1095890410959,23.076923076923062L355.4337899543379,27.692307692307693L366.39269406392697,28.61538461538462L377.7168949771689,47.53846153846153L388.675799086758,56.76923076923076L400,78" stroke="#F4134D" stroke-width="2"/></g><g class="mark-line role-mark layer_2_marks" role="graphics-object" aria-roledescription="line mark container"><path aria-label="time: Jan 01, 2021; dw: 0.1" role="graphics-symbol" aria-roledescription="line mark" d="M0,253.3846153846154L11.32420091324201,246.00000000000003L21.552511415525114,246.9230769230769L32.87671232876712,243.23076923076923L43.83561643835616,245.07692307692307L55.15981735159817,240.9230769230769L66.1187214611872,240L77.44292237442923,240.46153846153845L88.76712328767124,239.53846153846155L99.72602739726028,241.84615384615387L111.05022831050229,236.76923076923075L122.00913242009133,193.8461538461538L133.33333333333331,150.46153846153845L144.65753424657535,146.30769230769232L154.88584474885846,144.46153846153845L166.21004566210044,139.84615384615384L177.16894977168948,133.84615384615384L188.49315068493152,128.30769230769226L199.45205479452056,122.76923076923079L210.77625570776254,113.07692307692308L222.10045662100458,102.92307692307692L233.05936073059362,89.53846153846153L244.38356164383563,91.84615384615384L255.34246575342468,147.6923076923077L266.66666666666663,189.6923076923077L277.9908675799087,188.76923076923077L288.2191780821918,183.6923076923077L299.5433789954338,174.46153846153848L310.5022831050228,170.30769230769232L321.82648401826486,175.38461538461536L332.7853881278539,173.53846153846155L344.1095890410959,173.07692307692307L355.4337899543379,174.00000000000003L366.39269406392697,178.6153846153846L377.7168949771689,178.6153846153846L388.675799086758,174.9230769230769L400,163.84615384615387" stroke="#179FDB" stroke-width="2"/></g><g class="mark-line role-mark layer_3_marks" role="graphics-object" aria-roledescription="line mark container"><path aria-label="time: Jan 01, 2021; all: 1.4" role="graphics-symbol" aria-roledescription="line mark" d="M0,247.3846153846154L11.32420091324201,247.3846153846154L21.552511415525114,246.9230769230769L32.87671232876712,240.46153846153845L43.83561643835616,238.6153846153846L55.15981735159817,235.84615384615387L66.1187214611872,236.30769230769232L77.44292237442923,231.6923076923077L88.76712328767124,231.23076923076923L99.72602739726028,226.15384615384616L111.05022831050229,221.07692307692307L122.00913242009133,219.23076923076925L133.33333333333331,217.84615384615384L144.65753424657535,216L154.88584474885846,212.3076923076923L166.21004566210044,202.6153846153846L177.16894977168948,199.84615384615384L188.49315068493152,199.3846153846154L199.45205479452056,197.0769230769231L210.77625570776254,197.0769230769231L222.10045662100458,195.69230769230768L233.05936073059362,188.30769230769232L244.38356164383563,189.23076923076923L255.34246575342468,192L266.66666666666663,192L277.9908675799087,190.15384615384616L288.2191780821918,191.53846153846152L299.5433789954338,201.23076923076923L310.5022831050228,201.69230769230768L321.82648401826486,204.46153846153845L332.7853881278539,212.3076923076923L344.1095890410959,211.84615384615384L355.4337899543379,212.7692307692308L366.39269406392697,225.6923076923077L377.7168949771689,229.3846153846154L388.675799086758,229.84615384615387L400,231.23076923076923" stroke="#36B7B4" stroke-width="2"/></g><g class="mark-text role-mark layer_4_marks" role="graphics-object" aria-roledescription="text mark container"><text aria-label="time: Jan 01, 2024; all: 4.9" role="graphics-symbol" aria-roledescription="text mark" text-anchor="start" transform="translate(405,235.23076923076923)" font-family="Circular Std Book" font-size="12px" fill="#36B7B4">All items</text></g><g class="mark-text role-mark layer_5_marks" role="graphics-object" aria-roledescription="text mark container"><text aria-label="time: Jan 01, 2024; dw: 19.5" role="graphics-symbol" aria-roledescription="text mark" text-anchor="start" transform="translate(405,167.84615384615387)" font-family="Circular Std Book" font-size="12px" fill="#179FDB"><tspan>Dwelling insurance</tspan><tspan x="0" dy="14">&amp; ground rent</tspan></text></g><g class="mark-text role-mark layer_6_marks" role="graphics-object" aria-roledescription="text mark container"><text aria-label="time: Jan 01, 2024; car: 38.1" role="graphics-symbol" aria-roledescription="text mark" text-anchor="start" transform="translate(405,82)" font-family="Circular Std Book" font-size="12px" fill="#F4134D">Vehicles tax &amp; insurance</text></g></g><path class="foreground" aria-hidden="true" d="" display="none"/></g></g></g></svg>