<svg xmlns="http://www.w3.org/2000/svg" xmlns:xlink="http://www.w3.org/1999/xlink" version="1.1" class="marks" width="546" height="360" viewBox="0 0 546 360"><rect width="546" height="360" fill="#122B39"/><g fill="none" stroke-miterlimit="10" transform="translate(16,38)"><g class="mark-group role-frame root" role="graphics-object" aria-roledescription="group mark container"><g transform="translate(0,0)"><path class="background" aria-hidden="true" d="M0,0h400v300h-400Z"/><g><g class="mark-group role-axis" aria-hidden="true"><g transform="translate(0.5,0.5)"><path class="background" aria-hidden="true" d="M0,0h0v0h0Z" pointer-events="none"/><g><g class="mark-rule role-axis-grid" pointer-events="none"><line transform="translate(0,300)" x2="400" y2="0" stroke="#b4c8d8" stroke-opacity="0.5" stroke-width="1" stroke-dasharray="1,5" opacity="1"/><line transform="translate(0,254)" x2="400" y2="0" stroke="#b4c8d8" stroke-opacity="0.5" stroke-width="1" stroke-dasharray="1,5" opacity="1"/><line transform="translate(0,208)" x2="400" y2="0" stroke="#b4c8d8" stroke-opacity="0.5" stroke-width="1" stroke-dasharray="1,5" opacity="1"/><line transform="translate(0,162)" x2="400" y2="0" stroke="#b4c8d8" stroke-opacity="0.5" stroke-width="1" stroke-dasharray="1,5" opacity="1"/><line transform="translate(0,115)" x2="400" y2="0" stroke="#b4c8d8" stroke-opacity="0.5" stroke-width="1" stroke-dasharray="1,5" opacity="1"/><line transform="translate(0,69)" x2="400" y2="0" stroke="#b4c8d8" stroke-opacity="0.5" stroke-width="1" stroke-dasharray="1,5" opacity="1"/><line transform="translate(0,23)" x2="400" y2="0" stroke="#b4c8d8" stroke-opacity="0.5" stroke-width="1" stroke-dasharray="1,5" opacity="1"/></g></g><path class="foreground" aria-hidden="true" d="" pointer-events="none" display="none"/></g></g><g class="mark-group role-axis" role="graphics-symbol" aria-roledescription="axis" aria-label="X-axis for a linear scale with values from 2002 to 2022"><g transform="translate(0.5,300.5)"><path class="background" aria-hidden="true" d="M0,0h0v0h0Z" pointer-events="none"/><g><g class="mark-rule role-axis-tick" pointer-events="none"><line transform="translate(0,0)" x2="0" y2="5" stroke="#b4c8d8" stroke-opacity="0.5" stroke-width="1" opacity="1"/><line transform="translate(40,0)" x2="0" y2="5" stroke="#b4c8d8" stroke-opacity="0.5" stroke-width="1" opacity="1"/><line transform="translate(80,0)" x2="0" y2="5" stroke="#b4c8d8" stroke-opacity="0.5" stroke-width="1" opacity="1"/><line transform="translate(120,0)" x2="0" y2="5" stroke="#b4c8d8" stroke-opacity="0.5" stroke-width="1" opacity="1"/><line transform="translate(160,0)" x2="0" y2="5" stroke="#b4c8d8" stroke-opacity="0.5" stroke-width="1" opacity="1"/><line transform="translate(200,0)" x2="0" y2="5" stroke="#b4c8d8" stroke-opacity="0.5" stroke-width="1" opacity="1"/><line transform="translate(240,0)" x2="0" y2="5" stroke="#b4c8d8" stroke-opacity="0.5" stroke-width="1" opacity="1"/><line transform="translate(280,0)" x2="0" y2="5" stroke="#b4c8d8" stroke-opacity="0.5" stroke-width="1" opacity="1"/><line transform="translate(320,0)" x2="0" y2="5" stroke="#b4c8d8" stroke-opacity="0.5" stroke-width="1" opacity="1"/><line transform="translate(360,0)" x2="0" y2="5" stroke="#b4c8d8" stroke-opacity="0.5" stroke-width="1" opacity="1"/><line transform="translate(400,0)" x2="0" y2="5" stroke="#b4c8d8" stroke-opacity="0.5" stroke-width="1" opacity="1"/></g><g class="mark-text role-axis-label" pointer-events="none"><text text-anchor="start" transform="translate(0,15)" font-family="Circular Std Book" font-size="10px" fill="#b4c8d8" fill-opacity="0.7" opacity="1">2002</text><text text-anchor="middle" transform="translate(40,15)" font-family="Circular Std Book" font-size="10px" fill="#b4c8d8" fill-opacity="0.7" opacity="1">2004</text><text text-anchor="middle" transform="translate(80,15)" font-family="Circular Std Book" font-size="10px" fill="#b4c8d8" fill-opacity="0.7" opacity="1">2006</text><text text-anchor="middle" transform="translate(120,15)" font-family="Circular Std Book" font-size="10px" fill="#b4c8d8" fill-opacity="0.7" opacity="1">2008</text><text text-anchor="middle" transform="translate(160,15)" font-family="Circular Std Book" font-size="10px" fill="#b4c8d8" fill-opacity="0.7" opacity="1">2010</text><text text-anchor="middle" transform="translate(200,15)" font-family="Circular Std Book" font-size="10px" fill="#b4c8d8" fill-opacity="0.7" opacity="1">2012</text><text text-anchor="middle" transform="translate(240,15)" font-family="Circular Std Book" font-size="10px" fill="#b4c8d8" fill-opacity="0.7" opacity="1">2014</text><text text-anchor="middle" transform="translate(280,15)" font-family="Circular Std Book" font-size="10px" fill="#b4c8d8" fill-opacity="0.7" opacity="1">2016</text><text text-anchor="middle" transform="translate(320,15)" font-family="Circular Std Book" font-size="10px" fill="#b4c8d8" fill-opacity="0.7" opacity="1">2018</text><text text-anchor="middle" transform="translate(360,15)" font-family="Circular Std Book" font-size="10px" fill="#b4c8d8" fill-opacity="0.7" opacity="1">2020</text><text text-anchor="end" transform="translate(400,15)" font-family="Circular Std Book" font-size="10px" fill="#b4c8d8" fill-opacity="0.7" opacity="1">2022</text></g><g class="mark-rule role-axis-domain" pointer-events="none"><line transform="translate(0,0)" x2="400" y2="0" stroke="#b4c8d8" stroke-opacity="0.5" stroke-width="1" opacity="1"/></g></g><path class="foreground" aria-hidden="true" d="" pointer-events="none" display="none"/></g></g><g class="mark-group role-axis" role="graphics-symbol" aria-roledescription="axis" aria-label="Y-axis titled '%' for a linear scale with values from 0 to 7"><g transform="translate(0.5,0.5)"><path class="background" aria-hidden="true" d="M0,0h0v0h0Z" pointer-events="none"/><g><g class="mark-text role-axis-label" pointer-events="none"><text text-anchor="end" transform="translate(-5,303)" font-family="Circular Std Book" font-size="10px" fill="#b4c8d8" fill-opacity="0.7" opacity="1">0</text><text text-anchor="end" transform="translate(-5,256.8461538461538)" font-family="Circular Std Book" font-size="10px" fill="#b4c8d8" fill-opacity="0.7" opacity="1">1</text><text text-anchor="end" transform="translate(-5,210.69230769230768)" font-family="Circular Std Book" font-size="10px" fill="#b4c8d8" fill-opacity="0.7" opacity="1">2</text><text text-anchor="end" transform="translate(-5,164.53846153846152)" font-family="Circular Std Book" font-size="10px" fill="#b4c8d8" fill-opacity="0.7" opacity="1">3</text><text text-anchor="end" transform="translate(-5,118.38461538461537)" font-family="Circular Std Book" font-size="10px" fill="#b4c8d8" fill-opacity="0.7" opacity="1">4</text><text text-anchor="end" transform="translate(-5,72.23076923076921)" font-family="Circular Std Book" font-size="10px" fill="#b4c8d8" fill-opacity="0.7" opacity="1">5</text><text text-anchor="end" transform="translate(-5,26.076923076923062)" font-family="Circular Std Book" font-size="10px" fill="#b4c8d8" fill-opacity="0.7" opacity="1">6</text></g><g class="mark-rule role-axis-domain" pointer-events="none"><line transform="translate(0,300)" x2="0" y2="-300" stroke="#b4c8d8" stroke-opacity="0.5" stroke-width="1" opacity="1"/></g><g class="mark-text role-axis-title" pointer-events="none"><text text-anchor="start" transform="translate(0,-10)" font-family="Circular Std Book" font-size="12px" font-weight="bold" fill="#b4c8d8" fill-opacity="0.8" opacity="1">%</text></g></g><path class="foreground" aria-hidden="true" d="" pointer-events="none" display="none"/></g></g><g class="mark-line role-mark layer_0_marks" role="graphics-object" aria-roledescription="line mark container"><path aria-label="x: 2002; y: 0" role="graphics-symbol" aria-roledescription="line mark" d="M0,300L380,300" stroke="#b4c8d8" stroke-width="1" opacity="0.3"/></g><g class="mark-line role-mark layer_1_marks" role="graphics-object" aria-roledescription="line mark container"><path aria-label="x: 2002; y3: 0" role="graphics-symbol" aria-roledescription="line mark" d="M0,300L3.3333333333333335,296.81725360367665C6.666666666666667,293.63450720735324,13.333333333333334,287.26901441470653,20,287.26901441470653C26.666666666666668,287.26901441470653,33.333333333333336,293.63450720735324,40,291.36721067863965C46.666666666666664,289.09991414992606,53.333333333333336,278.1998282998521,60,273.29667844605666C66.66666666666667,268.39352859226125,73.33333333333333,269.4873147347443,80,270.5809557261236C86.66666666666667,271.67459671750294,93.33333333333333,272.7680925577785,100,272.7793417683209C106.66666666666667,272.79059097886335,113.33333333333333,271.7195935596726,120,271.29807475431517C126.66666666666667,270.8765559489578,133.33333333333334,271.1045157574336,140,268.6264598260413C146.66666666666666,266.148403894649,153.33333333333334,260.96433222338845,160,261.4087123275902C166.66666666666666,261.85309243179194,173.33333333333334,267.92592431145584,180,270.53516055288327C186.66666666666666,273.1443967943106,193.33333333333334,272.29003739750146,200,272.8427365128939C206.66666666666666,273.3954356282864,213.33333333333334,275.35519325588047,220,276.99013900100607C226.66666666666666,278.6250847461317,233.33333333333334,279.9352186087887,240,278.9724676252369C246.66666666666666,278.0097166416851,253.33333333333334,274.7740808119244,260,273.9196488384783C266.6666666666667,273.0652168650322,273.3333333333333,274.5919887479007,280,276.1186154818355C286.6666666666667,277.64524221577034,293.3333333333333,279.1717238007715,300,279.940770637423C306.6666666666667,280.7098174740745,313.3333333333333,280.7214295623764,320,280.8412880863171C326.6666666666667,280.96114661025786,333.3333333333333,281.1892515698375,340,281.3091100937782C346.6666666666667,281.42896861771897,353.3333333333333,281.44058070602085,360,281.50624343659024C366.6666666666667,281.5719061671596,373.3333333333333,281.6916195399967,376.6666666666667,281.75147622641515L380,281.8113329128336" stroke="#F4134D" stroke-width="3"/></g><g class="mark-line role-mark layer_2_marks" role="graphics-object" aria-roledescription="line mark container"><path aria-label="x: 2002; y2: 0" role="graphics-symbol" aria-roledescription="line mark" d="M0,300L3.3333333333333335,300C6.666666666666667,300,13.333333333333334,300,20,300C26.666666666666668,300,33.333333333333336,300,40,298.5550751936015C46.666666666666664,297.110150387203,53.333333333333336,294.220300774406,60,290.7244997350197C66.66666666666667,287.2286986956335,73.33333333333333,283.126946229658,80,279.1333676237695C86.66666666666667,275.139789017881,93.33333333333333,271.2543842720795,100,266.6108915990464C106.66666666666667,261.9673989260133,113.33333333333333,256.5658183257486,120,257.2266187256762C126.66666666666667,257.88741912560374,133.33333333333334,264.6106005257236,140,265.81292340605313C146.66666666666666,267.0152462863827,153.33333333333334,262.6967106469219,160,257.2957106510722C166.66666666666666,251.89471065522267,173.33333333333334,245.4112463029843,180,240.65979749651987C186.66666666666666,235.90834869005542,193.33333333333334,232.88891542936494,200,230.0859024644003C206.66666666666666,227.28288949943567,213.33333333333334,224.69629683019693,220,219.40339811888245C226.66666666666666,214.11049940756797,233.33333333333334,206.11129465417775,240,202.22581733282436C246.66666666666666,198.34034001147097,253.33333333333334,198.56859012215432,260,199.44595596891153C266.6666666666667,200.32332181566872,273.3333333333333,201.8498033984998,280,203.59321330591993C286.6666666666667,205.3366232133401,293.3333333333333,207.29696144534933,300,206.98376165118268C306.6666666666667,206.670561857016,313.3333333333333,204.0838240366735,320,196.73424304822035C326.6666666666667,189.38466205976715,333.3333333333333,177.2722379032034,340,172.0879485052872C346.6666666666667,166.90365910737106,353.3333333333333,168.64750446810248,360,164.87034615793985C366.6666666666667,161.09318784777722,373.3333333333333,151.79502586672047,376.6666666666667,147.1459448761921L380,142.49686388566374" stroke="#179FDB" stroke-width="3"/></g><g class="mark-line role-mark layer_3_marks" role="graphics-object" aria-roledescription="line mark container"><path aria-label="x: 2002; y1: 3.98951673369" role="graphics-symbol" aria-roledescription="line mark" d="M0,115.86845844515538L3.3333333333333335,146.55704870429614C6.666666666666667,177.24563896343693,13.333333333333334,238.62281948171847,20,230.84047047736544C26.666666666666668,223.05812147301245,33.333333333333336,146.11624294602487,40,98.6664378419995C46.666666666666664,51.21663273797412,53.333333333333336,33.25890105691093,60,34.67764423296631C66.66666666666667,36.096387409021695,73.33333333333333,56.89160544219565,80,56.686652083667866C86.66666666666667,56.48169872514007,93.33333333333333,35.27657397491054,100,26.195050016235342C106.66666666666667,17.113526057560136,113.33333333333333,20.155602890439262,120,29.584364577115952C126.66666666666667,39.01312626379264,133.33333333333334,54.82857280426689,140,63.283261721297464C146.66666666666666,71.73795063832802,153.33333333333334,72.8318819319149,160,74.03398708558875C166.66666666666666,75.23609223926259,173.33333333333334,76.54637125302344,180,74.28459046625319C186.66666666666666,72.02280967948296,193.33333333333334,66.18896909218165,200,67.93216127592274C206.66666666666666,69.67535345966382,213.33333333333334,78.99557841444731,220,86.15116495270753C226.66666666666666,93.30675149096778,233.33333333333334,98.29769961270482,240,104.37103951825533C246.66666666666666,110.44437942380586,253.33333333333334,117.60011111316987,260,124.97226309825977C266.6666666666667,132.34441508334967,273.3333333333333,139.93298736416546,280,146.87215360669987C286.6666666666667,153.81131984923422,293.3333333333333,160.1010800534872,300,160.87019946460558C306.6666666666667,161.63931887572392,313.3333333333333,156.8877974937076,320,157.0073657154408C326.6666666666667,157.12693393717402,333.3333333333333,162.1175917626567,340,166.67540899668765C346.6666666666667,171.2332262307186,353.3333333333333,175.3582028732978,360,178.6170628796622C366.6666666666667,181.87592288602664,373.3333333333333,184.2686662561763,376.6666666666667,185.4650379412511L380,186.66140962632593" stroke="#36B7B4" stroke-width="3"/></g><g class="mark-text role-mark layer_4_marks" role="graphics-object" aria-roledescription="text mark container"><text aria-label="x: 2021; y1: 2.4556694581" role="graphics-symbol" aria-roledescription="text mark" text-anchor="start" transform="translate(385,190.66140962632593)" font-family="Circular Std Book" font-size="12px" fill="#36B7B4">Hand-held</text></g><g class="mark-text role-mark layer_5_marks" role="graphics-object" aria-roledescription="text mark container"><text aria-label="x: 2021; y2: 3.41256794914" role="graphics-symbol" aria-roledescription="text mark" text-anchor="start" transform="translate(385,138.49686388566374)" font-family="Circular Std Book" font-size="12px" fill="#179FDB"><tspan>Visible manipulation</tspan><tspan x="0" dy="14">of hand-held devices</tspan></text></g><g class="mark-text role-mark layer_6_marks" role="graphics-object" aria-roledescription="text mark container"><text aria-label="x: 2021; y3: 0.394087786889" role="graphics-symbol" aria-roledescription="text mark" text-anchor="start" transform="translate(385,275.8113329128336)" font-family="Circular Std Book" font-size="12px" fill="#F4134D"><tspan>Visible headset</tspan><tspan x="0" dy="14">cell phone use</tspan></text></g><g class="mark-image role-mark layer_7_marks" role="graphics-object" aria-roledescription="image mark container"><image aria-label="x: 2021; y: 6.5; img: https://raw.githubusercontent.com/EconomicsObservatory/ECOvisualisations/main/guidelines/logos/eco-icon-light.png" role="graphics-symbol" aria-roledescription="image mark" xlink:href="" transform="translate(360,-33)" width="40" height="40" preserveAspectRatio="xMidYMid" opacity="0.5"/></g></g><path class="foreground" aria-hidden="true" d="" display="none"/></g></g></g></svg>