<svg xmlns="http://www.w3.org/2000/svg" xmlns:xlink="http://www.w3.org/1999/xlink" version="1.1" class="marks" width="521" height="347" viewBox="0 0 521 347"><rect width="521" height="347" fill="white"/><g fill="none" stroke-miterlimit="10" transform="translate(28,25)"><g class="mark-group role-frame root" role="graphics-object" aria-roledescription="group mark container"><g transform="translate(0,0)"><path class="background" aria-hidden="true" d="M0,0h400v300h-400Z"/><g><g class="mark-group role-axis" aria-hidden="true"><g transform="translate(0.5,0.5)"><path class="background" aria-hidden="true" d="M0,0h0v0h0Z" pointer-events="none"/><g><g class="mark-rule role-axis-grid" pointer-events="none"><line transform="translate(0,300)" x2="400" y2="0" stroke="#676A86" stroke-opacity="0.5" stroke-width="1" stroke-dasharray="1,5" opacity="1"/><line transform="translate(0,263)" x2="400" y2="0" stroke="#676A86" stroke-opacity="0.5" stroke-width="1" stroke-dasharray="1,5" opacity="1"/><line transform="translate(0,225)" x2="400" y2="0" stroke="#676A86" stroke-opacity="0.5" stroke-width="1" stroke-dasharray="1,5" opacity="1"/><line transform="translate(0,188)" x2="400" y2="0" stroke="#676A86" stroke-opacity="0.5" stroke-width="1" stroke-dasharray="1,5" opacity="1"/><line transform="translate(0,150)" x2="400" y2="0" stroke="#676A86" stroke-opacity="0.5" stroke-width="1" stroke-dasharray="1,5" opacity="1"/><line transform="translate(0,113)" x2="400" y2="0" stroke="#676A86" stroke-opacity="0.5" stroke-width="1" stroke-dasharray="1,5" opacity="1"/><line transform="translate(0,75)" x2="400" y2="0" stroke="#676A86" stroke-opacity="0.5" stroke-width="1" stroke-dasharray="1,5" opacity="1"/><line transform="translate(0,38)" x2="400" y2="0" stroke="#676A86" stroke-opacity="0.5" stroke-width="1" stroke-dasharray="1,5" opacity="1"/><line transform="translate(0,0)" x2="400" y2="0" stroke="#676A86" stroke-opacity="0.5" stroke-width="1" stroke-dasharray="1,5" opacity="1"/></g></g><path class="foreground" aria-hidden="true" d="" pointer-events="none" display="none"/></g></g><g class="mark-group role-axis" role="graphics-symbol" aria-roledescription="axis" aria-label="X-axis for a discrete scale with 23 values: 2018 Q1, 2018 Q2, 2018 Q3, 2018 Q4, 2019 Q1, ending with 2023 Q3"><g transform="translate(0.5,300.5)"><path class="background" aria-hidden="true" d="M0,0h0v0h0Z" pointer-events="none"/><g><g class="mark-rule role-axis-tick" pointer-events="none"><line transform="translate(9,0)" x2="0" y2="5" stroke="#676A86" stroke-opacity="0.5" stroke-width="1" opacity="1"/><line transform="translate(26,0)" x2="0" y2="5" stroke="#676A86" stroke-opacity="0.5" stroke-width="1" opacity="1"/><line transform="translate(43,0)" x2="0" y2="5" stroke="#676A86" stroke-opacity="0.5" stroke-width="1" opacity="1"/><line transform="translate(61,0)" x2="0" y2="5" stroke="#676A86" stroke-opacity="0.5" stroke-width="1" opacity="1"/><line transform="translate(78,0)" x2="0" y2="5" stroke="#676A86" stroke-opacity="0.5" stroke-width="1" opacity="1"/><line transform="translate(96,0)" x2="0" y2="5" stroke="#676A86" stroke-opacity="0.5" stroke-width="1" opacity="1"/><line transform="translate(113,0)" x2="0" y2="5" stroke="#676A86" stroke-opacity="0.5" stroke-width="1" opacity="1"/><line transform="translate(130,0)" x2="0" y2="5" stroke="#676A86" stroke-opacity="0.5" stroke-width="1" opacity="1"/><line transform="translate(148,0)" x2="0" y2="5" stroke="#676A86" stroke-opacity="0.5" stroke-width="1" opacity="1"/><line transform="translate(165,0)" x2="0" y2="5" stroke="#676A86" stroke-opacity="0.5" stroke-width="1" opacity="1"/><line transform="translate(183,0)" x2="0" y2="5" stroke="#676A86" stroke-opacity="0.5" stroke-width="1" opacity="1"/><line transform="translate(200,0)" x2="0" y2="5" stroke="#676A86" stroke-opacity="0.5" stroke-width="1" opacity="1"/><line transform="translate(217,0)" x2="0" y2="5" stroke="#676A86" stroke-opacity="0.5" stroke-width="1" opacity="1"/><line transform="translate(235,0)" x2="0" y2="5" stroke="#676A86" stroke-opacity="0.5" stroke-width="1" opacity="1"/><line transform="translate(252,0)" x2="0" y2="5" stroke="#676A86" stroke-opacity="0.5" stroke-width="1" opacity="1"/><line transform="translate(270,0)" x2="0" y2="5" stroke="#676A86" stroke-opacity="0.5" stroke-width="1" opacity="1"/><line transform="translate(287,0)" x2="0" y2="5" stroke="#676A86" stroke-opacity="0.5" stroke-width="1" opacity="1"/><line transform="translate(304,0)" x2="0" y2="5" stroke="#676A86" stroke-opacity="0.5" stroke-width="1" opacity="1"/><line transform="translate(322,0)" x2="0" y2="5" stroke="#676A86" stroke-opacity="0.5" stroke-width="1" opacity="1"/><line transform="translate(339,0)" x2="0" y2="5" stroke="#676A86" stroke-opacity="0.5" stroke-width="1" opacity="1"/><line transform="translate(357,0)" x2="0" y2="5" stroke="#676A86" stroke-opacity="0.5" stroke-width="1" opacity="1"/><line transform="translate(374,0)" x2="0" y2="5" stroke="#676A86" stroke-opacity="0.5" stroke-width="1" opacity="1"/><line transform="translate(391,0)" x2="0" y2="5" stroke="#676A86" stroke-opacity="0.5" stroke-width="1" opacity="1"/></g><g class="mark-text role-axis-label" pointer-events="none"><text text-anchor="middle" transform="translate(8.69565217391306,15)" font-family="Circular Std Book" font-size="10px" fill="#676A86" fill-opacity="0.7" opacity="1">2018</text><text text-anchor="middle" transform="translate(26.086956521739147,15)" font-family="Circular Std Book" font-size="10px" fill="#676A86" fill-opacity="0.7" opacity="1"/><text text-anchor="middle" transform="translate(43.47826086956523,15)" font-family="Circular Std Book" font-size="10px" fill="#676A86" fill-opacity="0.7" opacity="1"/><text text-anchor="middle" transform="translate(60.86956521739132,15)" font-family="Circular Std Book" font-size="10px" fill="#676A86" fill-opacity="0.7" opacity="1"/><text text-anchor="middle" transform="translate(78.2608695652174,15)" font-family="Circular Std Book" font-size="10px" fill="#676A86" fill-opacity="0.7" opacity="1">2019</text><text text-anchor="middle" transform="translate(95.6521739130435,15)" font-family="Circular Std Book" font-size="10px" fill="#676A86" fill-opacity="0.7" opacity="1"/><text text-anchor="middle" transform="translate(113.04347826086958,15)" font-family="Circular Std Book" font-size="10px" fill="#676A86" fill-opacity="0.7" opacity="1"/><text text-anchor="middle" transform="translate(130.43478260869566,15)" font-family="Circular Std Book" font-size="10px" fill="#676A86" fill-opacity="0.7" opacity="1"/><text text-anchor="middle" transform="translate(147.82608695652175,15)" font-family="Circular Std Book" font-size="10px" fill="#676A86" fill-opacity="0.7" opacity="1">2020</text><text text-anchor="middle" transform="translate(165.21739130434784,15)" font-family="Circular Std Book" font-size="10px" fill="#676A86" fill-opacity="0.7" opacity="1"/><text text-anchor="middle" transform="translate(182.60869565217394,15)" font-family="Circular Std Book" font-size="10px" fill="#676A86" fill-opacity="0.7" opacity="1"/><text text-anchor="middle" transform="translate(200,15)" font-family="Circular Std Book" font-size="10px" fill="#676A86" fill-opacity="0.7" opacity="1"/><text text-anchor="middle" transform="translate(217.3913043478261,15)" font-family="Circular Std Book" font-size="10px" fill="#676A86" fill-opacity="0.7" opacity="1">2021</text><text text-anchor="middle" transform="translate(234.7826086956522,15)" font-family="Circular Std Book" font-size="10px" fill="#676A86" fill-opacity="0.7" opacity="1"/><text text-anchor="middle" transform="translate(252.17391304347825,15)" font-family="Circular Std Book" font-size="10px" fill="#676A86" fill-opacity="0.7" opacity="1"/><text text-anchor="middle" transform="translate(269.5652173913044,15)" font-family="Circular Std Book" font-size="10px" fill="#676A86" fill-opacity="0.7" opacity="1"/><text text-anchor="middle" transform="translate(286.95652173913044,15)" font-family="Circular Std Book" font-size="10px" fill="#676A86" fill-opacity="0.7" opacity="1">2022</text><text text-anchor="middle" transform="translate(304.3478260869565,15)" font-family="Circular Std Book" font-size="10px" fill="#676A86" fill-opacity="0.7" opacity="1"/><text text-anchor="middle" transform="translate(321.7391304347826,15)" font-family="Circular Std Book" font-size="10px" fill="#676A86" fill-opacity="0.7" opacity="1"/><text text-anchor="middle" transform="translate(339.1304347826087,15)" font-family="Circular Std Book" font-size="10px" fill="#676A86" fill-opacity="0.7" opacity="1"/><text text-anchor="middle" transform="translate(356.5217391304348,15)" font-family="Circular Std Book" font-size="10px" fill="#676A86" fill-opacity="0.7" opacity="1">2023</text><text text-anchor="middle" transform="translate(373.9130434782609,15)" font-family="Circular Std Book" font-size="10px" fill="#676A86" fill-opacity="0.7" opacity="1"/><text text-anchor="middle" transform="translate(391.30434782608694,15)" font-family="Circular Std Book" font-size="10px" fill="#676A86" fill-opacity="0.7" opacity="1"/></g><g class="mark-rule role-axis-domain" pointer-events="none"><line transform="translate(0,0)" x2="400" y2="0" stroke="#676A86" stroke-opacity="0.5" stroke-width="1" opacity="1"/></g></g><path class="foreground" aria-hidden="true" d="" pointer-events="none" display="none"/></g></g><g class="mark-group role-axis" role="graphics-symbol" aria-roledescription="axis" aria-label="Y-axis titled '%' for a linear scale with values from 0.0 to 4.0"><g transform="translate(0.5,0.5)"><path class="background" aria-hidden="true" d="M0,0h0v0h0Z" pointer-events="none"/><g><g class="mark-text role-axis-label" pointer-events="none"><text text-anchor="end" transform="translate(-5,303)" font-family="Circular Std Book" font-size="10px" fill="#676A86" fill-opacity="0.7" opacity="1">0.0</text><text text-anchor="end" transform="translate(-5,265.5)" font-family="Circular Std Book" font-size="10px" fill="#676A86" fill-opacity="0.7" opacity="1">0.5</text><text text-anchor="end" transform="translate(-5,228)" font-family="Circular Std Book" font-size="10px" fill="#676A86" fill-opacity="0.7" opacity="1">1.0</text><text text-anchor="end" transform="translate(-5,190.5)" font-family="Circular Std Book" font-size="10px" fill="#676A86" fill-opacity="0.7" opacity="1">1.5</text><text text-anchor="end" transform="translate(-5,153)" font-family="Circular Std Book" font-size="10px" fill="#676A86" fill-opacity="0.7" opacity="1">2.0</text><text text-anchor="end" transform="translate(-5,115.5)" font-family="Circular Std Book" font-size="10px" fill="#676A86" fill-opacity="0.7" opacity="1">2.5</text><text text-anchor="end" transform="translate(-5,78)" font-family="Circular Std Book" font-size="10px" fill="#676A86" fill-opacity="0.7" opacity="1">3.0</text><text text-anchor="end" transform="translate(-5,40.5)" font-family="Circular Std Book" font-size="10px" fill="#676A86" fill-opacity="0.7" opacity="1">3.5</text><text text-anchor="end" transform="translate(-5,3)" font-family="Circular Std Book" font-size="10px" fill="#676A86" fill-opacity="0.7" opacity="1">4.0</text></g><g class="mark-rule role-axis-domain" pointer-events="none"><line transform="translate(0,300)" x2="0" y2="-300" stroke="#676A86" stroke-opacity="0.5" stroke-width="1" opacity="1"/></g><g class="mark-text role-axis-title" pointer-events="none"><text text-anchor="start" transform="translate(0,-10)" font-family="Circular Std Book" font-size="12px" font-weight="bold" fill="#676A86" fill-opacity="0.8" opacity="1">%</text></g></g><path class="foreground" aria-hidden="true" d="" pointer-events="none" display="none"/></g></g><g class="mark-line role-mark layer_0_marks" role="graphics-object" aria-roledescription="line mark container"><path aria-label="x: 2018 Q1; y: 0.0" role="graphics-symbol" aria-roledescription="line mark" d="M8.69565217391306,300L391.30434782608694,300" stroke="#676A86" stroke-width="1" opacity="0.3"/></g><g class="mark-line role-mark layer_1_marks" role="graphics-object" aria-roledescription="line mark container"><path aria-label="x: 2018 Q1; y3: 1.18728162595" role="graphics-symbol" aria-roledescription="line mark" d="M8.69565217391306,210.9538780538707L11.594202898550742,210.93267178758734C14.492753623188422,210.91146552130394,20.289855072463784,210.86905298873717,26.086956521739143,210.99258790502293C31.88405797101451,211.11612282130866,37.68115942028987,211.4056051864469,43.47826086956524,212.18030712059303C49.27536231884059,212.95500905473918,55.07246376811596,214.21493055789315,60.86956521739131,215.31344881211257C66.66666666666669,216.41196706633195,72.46376811594205,217.34908207161666,78.2608695652174,219.76306205020845C84.05797101449276,222.1770420288002,89.85507246376812,226.067886980699,95.6521739130435,226.35433987922534C101.44927536231886,226.64079277775167,107.2463768115942,223.3228536229055,113.04347826086956,222.62271022815256C118.84057971014494,221.9225668333996,124.6376811594203,223.8402191987398,130.43478260869566,223.9582000929037C136.23188405797103,224.0761809870676,142.02898550724638,222.39449041005523,147.82608695652175,214.48202853084342C153.62318840579712,206.5695666516316,159.42028985507247,192.42633347022038,165.21739130434784,184.5093273910907C171.01449275362322,176.592321311961,176.8115942028986,174.9015423351129,182.6086956521739,166.82212318484463C188.40579710144928,158.74270403457635,194.20289855072465,144.27464471088794,200,137.34373001393558C205.79710144927537,130.41281531698323,211.59420289855075,131.01904524676692,217.39130434782612,134.58051985647063C223.18840579710147,138.14199446617434,228.98550724637684,144.65871375579806,234.78260869565216,143.14398045553963C240.57971014492753,141.62924715528118,246.3768115942029,132.0830612651406,252.17391304347825,123.51690781255847C257.9710144927536,114.95075435997637,263.768115942029,107.36463334495272,269.5652173913044,103.38239947789708C275.36231884057975,99.40016561084144,281.15942028985506,99.02181889175377,286.95652173913044,99.1357604971018C292.7536231884058,99.2497021024498,298.5507246376812,99.85593203223351,304.3478260869565,99.1542739041746C310.1449275362319,98.45261577611568,315.94202898550725,96.44306959021414,321.7391304347826,89.51619418207768C327.536231884058,82.5893187739412,333.3333333333333,70.74511414356981,339.1304347826087,74.14266094882896C344.92753623188406,77.54020775408812,350.72463768115944,96.17950599497783,356.5217391304348,102.34110447620522C362.3188405797102,108.50270295743263,368.1159420289855,102.18660167899772,373.9130434782608,100.19826175937958C379.71014492753625,98.20992183976142,385.50724637681157,100.54934327896002,388.40579710144925,101.71905399855933L391.30434782608694,102.88876471815864" stroke="#F4134D" stroke-width="3"/></g><g class="mark-line role-mark layer_2_marks" role="graphics-object" aria-roledescription="line mark container"><path aria-label="x: 2018 Q1; y2: 1.00364209208" role="graphics-symbol" aria-roledescription="line mark" d="M8.69565217391306,224.72684309382603L11.594202898550742,224.70563683235503C14.492753623188422,224.68443057088402,20.289855072463784,224.642018047942,26.086956521739143,224.10933683534748C31.88405797101451,223.576655622753,37.68115942028987,222.55370572050603,43.47826086956524,223.164479845506C49.27536231884059,223.77525397050601,55.07246376811596,226.01975212275298,60.86956521739131,226.30166082136145C66.66666666666669,226.58356951996993,72.46376811594205,224.90288876493983,78.2608695652174,225.67708578787315C84.05797101449276,226.45128281080648,89.85507246376812,229.68035761170324,95.6521739130435,230.45354481421828C101.44927536231886,231.2267320167333,107.2463768115942,229.54403162086666,113.04347826086956,229.17224874610483C118.84057971014494,228.80046587134294,124.6376811594203,229.73960051768586,130.43478260869566,228.54817861902634C136.23188405797103,227.3567567203668,142.02898550724638,224.03477827670483,147.82608695652175,221.20205869086655C153.62318840579712,218.3693391050283,159.42028985507247,216.0258783770138,165.21739130434784,208.93154078671884C171.01449275362322,201.83720319642393,176.8115942028986,189.9919887438485,182.6086956521739,175.5214048690153C188.40579710144928,161.05082099418206,194.20289855072465,143.95486769709103,200,136.20128451130395C205.79710144927537,128.44770132551687,211.59420289855075,130.03648825103375,217.39130434782612,132.45046822526038C223.18840579710147,134.86444819948701,228.98550724637684,138.1036212224234,234.78260869565216,135.93166196538328C240.57971014492753,133.75970270834313,246.3768115942029,126.17661117132643,252.17391304347825,116.13308783433529C257.9710144927536,106.08956449734414,263.768115942029,93.5856093603786,269.5652173913044,88.78575612120557C275.36231884057975,83.98590288203256,281.15942028985506,86.89015154065207,286.95652173913044,86.67926700372287C292.7536231884058,86.46838246679367,298.5507246376812,83.14236473431576,304.3478260869565,78.34301640624471C310.1449275362319,73.54366807817367,315.94202898550725,67.27098915450951,321.7391304347826,59.359032186399695C327.536231884058,51.44707521828988,333.3333333333333,41.89584020573442,339.1304347826087,42.507119246537975C344.92753623188406,43.11839828734153,350.72463768115944,53.8921913815041,356.5217391304348,55.97781084010475C362.3188405797102,58.06343029870541,368.1159420289855,51.46087612174416,373.9130434782608,46.00581657589486C379.71014492753625,40.55075703004556,385.50724637681157,36.24319211530821,388.40579710144925,34.089409657939534L391.30434782608694,31.93562720057086" stroke="#179FDB" stroke-width="3"/></g><g class="mark-line role-mark layer_3_marks" role="graphics-object" aria-roledescription="line mark container"><path aria-label="x: 2018 Q1; y1: 1.00364209208" role="graphics-symbol" aria-roledescription="line mark" d="M8.69565217391306,224.72684309382603L11.594202898550742,226.1814919786457C14.492753623188422,227.63614086346539,20.289855072463784,230.5454386331048,26.086956521739143,230.01124268720432C31.88405797101451,229.47704674130387,37.68115942028987,225.4993570798636,43.47826086956524,224.79668913357287C49.27536231884059,224.0940211872822,55.07246376811596,226.66637495614108,60.86956521739131,227.76640794366642C66.66666666666669,228.86644093119173,72.46376811594205,228.4941531373835,78.2608695652174,230.41786443197532C84.05797101449276,232.34157572656713,89.85507246376812,236.56128610955898,95.6521739130435,237.00813243481602C101.44927536231886,237.45497876007298,107.2463768115942,234.1289610275951,113.04347826086956,233.59123070800328C118.84057971014494,233.05350038841144,124.6376811594203,235.30405748170574,130.43478260869566,234.7683468024993C136.23188405797103,234.23263612329288,142.02898550724638,230.9106576715858,147.82608695652175,224.47304111725055C153.62318840579712,218.0354245629153,159.42028985507247,208.4821699059519,165.21739130434784,201.5507502978976C171.01449275362322,194.61933068984322,176.8115942028986,190.30974613069796,182.6086956521739,183.0519856470605C188.40579710144928,175.79422516342296,194.20289855072465,165.5882887552932,200,159.80688833386074C205.79710144927537,154.02548791242828,211.59420289855075,152.66862347769307,217.39130434782612,155.2465312607294C223.18840579710147,157.82443904376572,228.98550724637684,164.33711904457357,234.78260869565216,163.14418241428294C240.57971014492753,161.95124578399233,246.3768115942029,153.05269252260325,252.17391304347825,144.32059162116863C257.9710144927536,135.58849071973398,263.768115942029,127.02284217825384,269.5652173913044,123.69833917908187C275.36231884057975,120.3738361799099,281.15942028985506,122.29047872304614,286.95652173913044,121.0955224483476C292.7536231884058,119.90056617364904,298.5507246376812,115.5940110811157,304.3478260869565,109.31981742414557C310.1449275362319,103.04562376717543,315.94202898550725,94.80379154576853,321.7391304347826,85.74433994654675C327.536231884058,76.68488834732496,333.3333333333333,66.80781737028832,339.1304347826087,64.14104523330258C344.92753623188406,61.47427309631683,350.72463768115944,66.01779979938199,356.5217391304348,68.59520267131633C362.3188405797102,71.1726055432507,368.1159420289855,71.78388458405426,373.9130434782608,69.11509280031306C379.71014492753625,66.44630101657187,385.50724637681157,60.49743840828594,388.40579710144925,57.523007104142955L391.30434782608694,54.54857579999999" stroke="#36B7B4" stroke-width="3"/></g><g class="mark-text role-mark layer_4_marks" role="graphics-object" aria-roledescription="text mark container"><text aria-label="x: 2023 Q3; y1: 3.272685656" role="graphics-symbol" aria-roledescription="text mark" text-anchor="start" transform="translate(396.30434782608694,58.54857579999999)" font-family="Circular Std Book" font-size="12px" fill="#36B7B4">Asian</text></g><g class="mark-text role-mark layer_5_marks" role="graphics-object" aria-roledescription="text mark container"><text aria-label="x: 2023 Q3; y2: 3.57419163733" role="graphics-symbol" aria-roledescription="text mark" text-anchor="start" transform="translate(396.30434782608694,35.93562720057086)" font-family="Circular Std Book" font-size="12px" fill="#179FDB">Domestic (US)</text></g><g class="mark-text role-mark layer_6_marks" role="graphics-object" aria-roledescription="text mark container"><text aria-label="x: 2023 Q3; y3: 2.62814980376" role="graphics-symbol" aria-roledescription="text mark" text-anchor="start" transform="translate(396.30434782608694,106.88876471815864)" font-family="Circular Std Book" font-size="12px" fill="#F4134D">European</text></g></g><path class="foreground" aria-hidden="true" d="" display="none"/></g></g></g></svg>