<svg width="1924" height="994" xmlns="http://www.w3.org/2000/svg" xmlns:xlink="http://www.w3.org/1999/xlink" overflow="hidden"><defs><clipPath id="clip0"><rect x="-4" y="-4" width="1924" height="994"/></clipPath><clipPath id="clip1"><rect x="0" y="0" width="1915" height="987"/></clipPath><clipPath id="clip2"><rect x="130" y="50" width="1738" height="801"/></clipPath><clipPath id="clip3"><rect x="0" y="0" width="1915" height="987"/></clipPath><clipPath id="clip4"><rect x="0" y="0" width="1915" height="987"/></clipPath><clipPath id="clip5"><rect x="0" y="0" width="1915" height="987"/></clipPath><clipPath id="clip6"><rect x="0" y="0" width="1915" height="987"/></clipPath><clipPath id="clip7"><rect x="0" y="0" width="1915" height="987"/></clipPath><clipPath id="clip8"><rect x="0" y="0" width="1915" height="987"/></clipPath><clipPath id="clip9"><rect x="0" y="0" width="1915" height="987"/></clipPath><clipPath id="clip10"><rect x="0" y="0" width="1915" height="987"/></clipPath><clipPath id="clip11"><rect x="0" y="0" width="1915" height="987"/></clipPath><clipPath id="clip12"><rect x="0" y="0" width="1915" height="987"/></clipPath><clipPath id="clip13"><rect x="0" y="0" width="1915" height="987"/></clipPath><clipPath id="clip14"><rect x="0" y="0" width="1915" height="987"/></clipPath><clipPath id="clip15"><rect x="0" y="0" width="1915" height="987"/></clipPath><clipPath id="clip16"><rect x="0" y="0" width="1915" height="987"/></clipPath><clipPath id="clip17"><rect x="0" y="0" width="1915" height="987"/></clipPath><clipPath id="clip18"><rect x="0" y="0" width="1915" height="987"/></clipPath><clipPath id="clip19"><rect x="0" y="0" width="1915" height="987"/></clipPath><clipPath id="clip20"><rect x="0" y="0" width="1915" height="987"/></clipPath><clipPath id="clip21"><rect x="0" y="0" width="1915" height="987"/></clipPath><clipPath id="clip22"><rect x="0" y="0" width="1915" height="987"/></clipPath><clipPath id="clip23"><rect x="0" y="0" width="1915" height="987"/></clipPath><clipPath id="clip24"><rect x="0" y="0" width="1915" height="987"/></clipPath><clipPath id="clip25"><rect x="0" y="0" width="1915" height="987"/></clipPath></defs><g clip-path="url(#clip0)" transform="translate(4 4)"><rect x="0" y="0" width="1915" height="987" fill="#FFFFFF" fill-opacity="1"/><g clip-path="url(#clip1)"><path d="M130.5 714.524 1864.5 714.524M130.5 581.519 1864.5 581.519M130.5 449.515 1864.5 449.515M130.5 316.511 1864.5 316.511M130.5 183.506 1864.5 183.506M130.5 50.5 1864.5 50.5" stroke="#D9D9D9" stroke-width="3.4375" stroke-linecap="butt" stroke-linejoin="round" stroke-miterlimit="10" stroke-opacity="1" fill="none" fill-rule="nonzero"/></g><g clip-path="url(#clip2)"><path d="M149.005 640.021 174.006 640.021 174.006 848 149.005 848ZM211.007 618.02 236.008 618.02 236.008 848 211.007 848ZM273.009 608.02 298.01 608.02 298.01 848 273.009 848ZM335.011 604.02 360.012 604.02 360.012 848 335.011 848ZM397.013 610.02 422.014 610.02 422.014 848 397.013 848ZM459.015 622.02 484.016 622.02 484.016 848 459.015 848ZM521.017 640.021 546.018 640.021 546.018 848 521.017 848ZM583.019 667.022 608.02 667.022 608.02 848 583.019 848ZM645.021 670.022 670.022 670.022 670.022 848 645.021 848ZM707.023 661.022 731.024 661.022 731.024 848 707.023 848ZM769.025 653.021 793.026 653.021 793.026 848 769.025 848ZM831.027 636.021 855.028 636.021 855.028 848 831.027 848ZM893.029 631.021 917.03 631.021 917.03 848 893.029 848ZM954.031 626.021 979.032 626.021 979.032 848 954.031 848ZM1016.03 620.02 1041.03 620.02 1041.03 848 1016.03 848ZM1078.04 524.017 1103.04 524.017 1103.04 848 1078.04 848ZM1140.04 432.014 1165.04 432.014 1165.04 848 1140.04 848ZM1202.04 388.013 1227.04 388.013 1227.04 848 1202.04 848ZM1264.04 364.012 1289.04 364.012 1289.04 848 1264.04 848ZM1326.04 341.011 1351.04 341.011 1351.04 848 1326.04 848ZM1388.05 329.011 1413.05 329.011 1413.05 848 1388.05 848ZM1450.05 315.01 1475.05 315.01 1475.05 848 1450.05 848ZM1512.05 317.01 1537.05 317.01 1537.05 848 1512.05 848ZM1574.05 300.01 1599.05 300.01 1599.05 848 1574.05 848ZM1636.05 302.01 1661.05 302.01 1661.05 848 1636.05 848ZM1698.06 314.01 1722.06 314.01 1722.06 848 1698.06 848ZM1760.06 287.009 1784.06 287.009 1784.06 848 1760.06 848ZM1822.06 200.007 1846.06 200.007 1846.06 848 1822.06 848Z" fill="#4472C4" fill-rule="nonzero" fill-opacity="1"/></g><g clip-path="url(#clip3)"><path d="M130.5 847.5 1864.5 847.5" stroke="#D9D9D9" stroke-width="3.4375" stroke-linecap="butt" stroke-linejoin="round" stroke-miterlimit="10" stroke-opacity="1" fill="none" fill-rule="evenodd"/></g><g clip-path="url(#clip4)"><text fill="#595959" fill-opacity="1" font-family="Calibri,Calibri_MSFontService,sans-serif" font-style="normal" font-variant="normal" font-weight="400" font-stretch="normal" font-size="41" text-anchor="start" direction="ltr" writing-mode="lr-tb" unicode-bidi="normal" text-decoration="none" transform="matrix(1 0 0 1 71.5917 858)">0</text></g><g clip-path="url(#clip5)"><text fill="#595959" fill-opacity="1" font-family="Calibri,Calibri_MSFontService,sans-serif" font-style="normal" font-variant="normal" font-weight="400" font-stretch="normal" font-size="41" text-anchor="start" direction="ltr" writing-mode="lr-tb" unicode-bidi="normal" text-decoration="none" transform="matrix(1 0 0 1 50.6917 725)">20</text></g><g clip-path="url(#clip6)"><text fill="#595959" fill-opacity="1" font-family="Calibri,Calibri_MSFontService,sans-serif" font-style="normal" font-variant="normal" font-weight="400" font-stretch="normal" font-size="41" text-anchor="start" direction="ltr" writing-mode="lr-tb" unicode-bidi="normal" text-decoration="none" transform="matrix(1 0 0 1 50.6917 592)">40</text></g><g clip-path="url(#clip7)"><text fill="#595959" fill-opacity="1" font-family="Calibri,Calibri_MSFontService,sans-serif" font-style="normal" font-variant="normal" font-weight="400" font-stretch="normal" font-size="41" text-anchor="start" direction="ltr" writing-mode="lr-tb" unicode-bidi="normal" text-decoration="none" transform="matrix(1 0 0 1 50.6917 460)">60</text></g><g clip-path="url(#clip8)"><text fill="#595959" fill-opacity="1" font-family="Calibri,Calibri_MSFontService,sans-serif" font-style="normal" font-variant="normal" font-weight="400" font-stretch="normal" font-size="41" text-anchor="start" direction="ltr" writing-mode="lr-tb" unicode-bidi="normal" text-decoration="none" transform="matrix(1 0 0 1 50.6917 327)">80</text></g><g clip-path="url(#clip9)"><text fill="#595959" fill-opacity="1" font-family="Calibri,Calibri_MSFontService,sans-serif" font-style="normal" font-variant="normal" font-weight="400" font-stretch="normal" font-size="41" text-anchor="start" direction="ltr" writing-mode="lr-tb" unicode-bidi="normal" text-decoration="none" transform="matrix(1 0 0 1 29.7917 194)">100</text></g><g clip-path="url(#clip10)"><text fill="#595959" fill-opacity="1" font-family="Calibri,Calibri_MSFontService,sans-serif" font-style="normal" font-variant="normal" font-weight="400" font-stretch="normal" font-size="41" text-anchor="start" direction="ltr" writing-mode="lr-tb" unicode-bidi="normal" text-decoration="none" transform="matrix(1 0 0 1 29.7917 61)">120</text></g><g clip-path="url(#clip11)"><text fill="#595959" fill-opacity="1" font-family="Calibri,Calibri_MSFontService,sans-serif" font-style="normal" font-variant="normal" font-weight="400" font-stretch="normal" font-size="41" text-anchor="start" direction="ltr" writing-mode="lr-tb" unicode-bidi="normal" text-decoration="none" transform="matrix(6.12323e-17 -1 1 6.12323e-17 175.545 957)">1994</text></g><g clip-path="url(#clip12)"><text fill="#595959" fill-opacity="1" font-family="Calibri,Calibri_MSFontService,sans-serif" font-style="normal" font-variant="normal" font-weight="400" font-stretch="normal" font-size="41" text-anchor="start" direction="ltr" writing-mode="lr-tb" unicode-bidi="normal" text-decoration="none" transform="matrix(6.12323e-17 -1 1 6.12323e-17 299.418 957)">1996</text></g><g clip-path="url(#clip13)"><text fill="#595959" fill-opacity="1" font-family="Calibri,Calibri_MSFontService,sans-serif" font-style="normal" font-variant="normal" font-weight="400" font-stretch="normal" font-size="41" text-anchor="start" direction="ltr" writing-mode="lr-tb" unicode-bidi="normal" text-decoration="none" transform="matrix(6.12323e-17 -1 1 6.12323e-17 423.291 957)">1998</text></g><g clip-path="url(#clip14)"><text fill="#595959" fill-opacity="1" font-family="Calibri,Calibri_MSFontService,sans-serif" font-style="normal" font-variant="normal" font-weight="400" font-stretch="normal" font-size="41" text-anchor="start" direction="ltr" writing-mode="lr-tb" unicode-bidi="normal" text-decoration="none" transform="matrix(6.12323e-17 -1 1 6.12323e-17 547.164 957)">2000</text></g><g clip-path="url(#clip15)"><text fill="#595959" fill-opacity="1" font-family="Calibri,Calibri_MSFontService,sans-serif" font-style="normal" font-variant="normal" font-weight="400" font-stretch="normal" font-size="41" text-anchor="start" direction="ltr" writing-mode="lr-tb" unicode-bidi="normal" text-decoration="none" transform="matrix(6.12323e-17 -1 1 6.12323e-17 671.036 957)">2002</text></g><g clip-path="url(#clip16)"><text fill="#595959" fill-opacity="1" font-family="Calibri,Calibri_MSFontService,sans-serif" font-style="normal" font-variant="normal" font-weight="400" font-stretch="normal" font-size="41" text-anchor="start" direction="ltr" writing-mode="lr-tb" unicode-bidi="normal" text-decoration="none" transform="matrix(6.12323e-17 -1 1 6.12323e-17 794.909 957)">2004</text></g><g clip-path="url(#clip17)"><text fill="#595959" fill-opacity="1" font-family="Calibri,Calibri_MSFontService,sans-serif" font-style="normal" font-variant="normal" font-weight="400" font-stretch="normal" font-size="41" text-anchor="start" direction="ltr" writing-mode="lr-tb" unicode-bidi="normal" text-decoration="none" transform="matrix(6.12323e-17 -1 1 6.12323e-17 918.782 957)">2006</text></g><g clip-path="url(#clip18)"><text fill="#595959" fill-opacity="1" font-family="Calibri,Calibri_MSFontService,sans-serif" font-style="normal" font-variant="normal" font-weight="400" font-stretch="normal" font-size="41" text-anchor="start" direction="ltr" writing-mode="lr-tb" unicode-bidi="normal" text-decoration="none" transform="matrix(6.12323e-17 -1 1 6.12323e-17 1042.65 957)">2008</text></g><g clip-path="url(#clip19)"><text fill="#595959" fill-opacity="1" font-family="Calibri,Calibri_MSFontService,sans-serif" font-style="normal" font-variant="normal" font-weight="400" font-stretch="normal" font-size="41" text-anchor="start" direction="ltr" writing-mode="lr-tb" unicode-bidi="normal" text-decoration="none" transform="matrix(6.12323e-17 -1 1 6.12323e-17 1166.53 957)">2010</text></g><g clip-path="url(#clip20)"><text fill="#595959" fill-opacity="1" font-family="Calibri,Calibri_MSFontService,sans-serif" font-style="normal" font-variant="normal" font-weight="400" font-stretch="normal" font-size="41" text-anchor="start" direction="ltr" writing-mode="lr-tb" unicode-bidi="normal" text-decoration="none" transform="matrix(6.12323e-17 -1 1 6.12323e-17 1290.4 957)">2012</text></g><g clip-path="url(#clip21)"><text fill="#595959" fill-opacity="1" font-family="Calibri,Calibri_MSFontService,sans-serif" font-style="normal" font-variant="normal" font-weight="400" font-stretch="normal" font-size="41" text-anchor="start" direction="ltr" writing-mode="lr-tb" unicode-bidi="normal" text-decoration="none" transform="matrix(6.12323e-17 -1 1 6.12323e-17 1414.27 957)">2014</text></g><g clip-path="url(#clip22)"><text fill="#595959" fill-opacity="1" font-family="Calibri,Calibri_MSFontService,sans-serif" font-style="normal" font-variant="normal" font-weight="400" font-stretch="normal" font-size="41" text-anchor="start" direction="ltr" writing-mode="lr-tb" unicode-bidi="normal" text-decoration="none" transform="matrix(6.12323e-17 -1 1 6.12323e-17 1538.15 957)">2016</text></g><g clip-path="url(#clip23)"><text fill="#595959" fill-opacity="1" font-family="Calibri,Calibri_MSFontService,sans-serif" font-style="normal" font-variant="normal" font-weight="400" font-stretch="normal" font-size="41" text-anchor="start" direction="ltr" writing-mode="lr-tb" unicode-bidi="normal" text-decoration="none" transform="matrix(6.12323e-17 -1 1 6.12323e-17 1662.02 957)">2018</text></g><g clip-path="url(#clip24)"><text fill="#595959" fill-opacity="1" font-family="Calibri,Calibri_MSFontService,sans-serif" font-style="normal" font-variant="normal" font-weight="400" font-stretch="normal" font-size="41" text-anchor="start" direction="ltr" writing-mode="lr-tb" unicode-bidi="normal" text-decoration="none" transform="matrix(6.12323e-17 -1 1 6.12323e-17 1785.89 957)">2020</text></g><g clip-path="url(#clip25)"><text fill="#595959" fill-opacity="1" font-family="Calibri,Calibri_MSFontService,sans-serif" font-style="normal" font-variant="normal" font-weight="400" font-stretch="normal" font-size="41" text-anchor="start" direction="ltr" writing-mode="lr-tb" unicode-bidi="normal" text-decoration="none" transform="matrix(6.12323e-17 -1 1 6.12323e-17 1847.83 957)">2021</text></g><rect x="0.499836" y="0.499836" width="1915" height="987" stroke="#D9D9D9" stroke-width="3.4375" stroke-linecap="butt" stroke-linejoin="round" stroke-miterlimit="10" stroke-opacity="1" fill="none"/></g></svg>