<svg xmlns="http://www.w3.org/2000/svg" xmlns:xlink="http://www.w3.org/1999/xlink" version="1.1" class="marks" width="460" height="284" viewBox="0 0 460 284"><rect width="460" height="284" fill="white"/><g fill="none" stroke-miterlimit="10" transform="translate(5,29)"><g class="mark-group role-frame root" role="graphics-object" aria-roledescription="group mark container"><g transform="translate(0,0)"><path class="background" aria-hidden="true" d="M0,0h450v250h-450Z"/><g><g class="mark-group role-axis" role="graphics-symbol" aria-roledescription="axis" aria-label="Y-axis for a linear scale with values from −0.12 to 0.04"><g transform="translate(0.5,0.5)"><path class="background" aria-hidden="true" d="M0,0h0v0h0Z" pointer-events="none"/><g><g class="mark-rule role-axis-grid" pointer-events="none"><line transform="translate(0,250)" x2="450" y2="0" stroke="#676A86" stroke-opacity="0.1" stroke-width="1" opacity="1"/><line transform="translate(0,219)" x2="450" y2="0" stroke="#676A86" stroke-opacity="0.1" stroke-width="1" opacity="1"/><line transform="translate(0,188)" x2="450" y2="0" stroke="#676A86" stroke-opacity="0.1" stroke-width="1" opacity="1"/><line transform="translate(0,156)" x2="450" y2="0" stroke="#676A86" stroke-opacity="0.1" stroke-width="1" opacity="1"/><line transform="translate(0,125)" x2="450" y2="0" stroke="#676A86" stroke-opacity="0.1" stroke-width="1" opacity="1"/><line transform="translate(0,94)" x2="450" y2="0" stroke="#676A86" stroke-opacity="0.1" stroke-width="1" opacity="1"/><line transform="translate(0,63)" x2="450" y2="0" stroke="#676A86" stroke-opacity="0.1" stroke-width="1" opacity="1"/><line transform="translate(0,31)" x2="450" y2="0" stroke="#676A86" stroke-opacity="0.1" stroke-width="1" opacity="1"/><line transform="translate(0,0)" x2="450" y2="0" stroke="#676A86" stroke-opacity="0.1" stroke-width="1" opacity="1"/></g></g><path class="foreground" aria-hidden="true" d="" pointer-events="none" display="none"/></g></g><g class="mark-group role-axis" role="graphics-symbol" aria-roledescription="axis" aria-label="Y-axis titled 'GDP growth in 2020' for a linear scale with values from −12% to 4%"><g transform="translate(0.5,0.5)"><path class="background" aria-hidden="true" d="M0,0h0v0h0Z" pointer-events="none"/><g><g class="mark-text role-axis-label" pointer-events="none"><text text-anchor="start" transform="translate(5,243)" font-family="sans-serif" font-size="10px" fill="#676A86" opacity="1">−12%</text><text text-anchor="start" transform="translate(5,211.75000000000003)" font-family="sans-serif" font-size="10px" fill="#676A86" opacity="1">−10%</text><text text-anchor="start" transform="translate(5,180.5)" font-family="sans-serif" font-size="10px" fill="#676A86" opacity="1">−8%</text><text text-anchor="start" transform="translate(5,149.25)" font-family="sans-serif" font-size="10px" fill="#676A86" opacity="1">−6%</text><text text-anchor="start" transform="translate(5,118.00000000000003)" font-family="sans-serif" font-size="10px" fill="#676A86" opacity="1">−4%</text><text text-anchor="start" transform="translate(5,86.75000000000003)" font-family="sans-serif" font-size="10px" fill="#676A86" opacity="1">−2%</text><text text-anchor="start" transform="translate(5,55.5)" font-family="sans-serif" font-size="10px" fill="#676A86" opacity="1">0%</text><text text-anchor="start" transform="translate(5,24.25000000000003)" font-family="sans-serif" font-size="10px" fill="#676A86" opacity="1">2%</text><text text-anchor="start" transform="translate(5,-7)" font-family="sans-serif" font-size="10px" fill="#676A86" opacity="1">4%</text></g><g class="mark-rule role-axis-domain" pointer-events="none"><line transform="translate(0,250)" x2="0" y2="-250" stroke="#676A86" stroke-width="1" opacity="1"/></g><g class="mark-text role-axis-title" pointer-events="none"><text text-anchor="start" transform="translate(25,-7)" font-family="sans-serif" font-size="10px" font-weight="normal" fill="#676A86" opacity="1">GDP growth in 2020</text></g></g><path class="foreground" aria-hidden="true" d="" pointer-events="none" display="none"/></g></g><g class="mark-rect role-mark layer_0_marks" role="graphics-symbol" aria-roledescription="rect mark container"><path d="M1.5,62.5h27v0h-27Z" fill="#4c78a8"/></g><g class="mark-rect role-mark layer_1_marks" role="graphics-symbol" aria-roledescription="rect mark container"><path d="M35,62.5h20v53.125h-20Z" fill="#F4134D" opacity="0.8"/><path d="M65,62.5h20v50.000000000000014h-20Z" fill="#F4134D" opacity="0.8"/><path d="M95,62.5h20v106.25h-20Z" fill="#F4134D" opacity="0.8"/><path d="M125,62.5h20v82.8125h-20Z" fill="#F4134D" opacity="0.8"/><path d="M155,62.5h20v128.125h-20Z" fill="#F4134D" opacity="0.8"/><path d="M185,62.5h20v139.06250000000003h-20Z" fill="#F4134D" opacity="0.8"/><path d="M215,62.5h20v171.875h-20Z" fill="#F4134D" opacity="0.8"/><path d="M245,62.5h20v154.6875h-20Z" fill="#F4134D" opacity="0.8"/><path d="M275,62.5h20v54.68750000000003h-20Z" fill="#F4134D" opacity="0.8"/><path d="M305,62.5h20v84.37500000000003h-20Z" fill="#F4134D" opacity="0.8"/><path d="M335,62.5h20v39.0625h-20Z" fill="#F4134D" opacity="0.8"/><path d="M365,62.5h20v75h-20Z" fill="#F4134D" opacity="0.8"/><path d="M395,62.5h20v15.625h-20Z" fill="#F4134D" opacity="0.8"/></g><g class="mark-rect role-mark layer_2_marks" role="graphics-symbol" aria-roledescription="rect mark container"><path d="M425,13.906250000000037h20v48.593749999999964h-20Z" fill="#179FDB" opacity="0.8"/></g><g class="mark-text role-mark layer_3_marks" role="graphics-object" aria-roledescription="text mark container"><text text-anchor="middle" transform="translate(45,128.625)" font-family="sans-serif" font-size="11px" fill="#F4134D">−3.4%</text><text text-anchor="middle" transform="translate(75,125.50000000000001)" font-family="sans-serif" font-size="11px" fill="#F4134D">−3.2%</text><text text-anchor="middle" transform="translate(105,181.75)" font-family="sans-serif" font-size="11px" fill="#F4134D">−6.8%</text><text text-anchor="middle" transform="translate(135,158.3125)" font-family="sans-serif" font-size="11px" fill="#F4134D">−5.3%</text><text text-anchor="middle" transform="translate(165,203.625)" font-family="sans-serif" font-size="11px" fill="#F4134D">−8.2%</text><text text-anchor="middle" transform="translate(195,214.56250000000003)" font-family="sans-serif" font-size="11px" fill="#F4134D">−8.9%</text><text text-anchor="middle" transform="translate(225,247.375)" font-family="sans-serif" font-size="11px" fill="#F4134D">−11.0%</text><text text-anchor="middle" transform="translate(255,230.1875)" font-family="sans-serif" font-size="11px" fill="#F4134D">−9.9%</text><text text-anchor="middle" transform="translate(285,130.18750000000003)" font-family="sans-serif" font-size="11px" fill="#F4134D">−3.5%</text><text text-anchor="middle" transform="translate(315,159.87500000000003)" font-family="sans-serif" font-size="11px" fill="#F4134D">−5.4%</text><text text-anchor="middle" transform="translate(345,114.5625)" font-family="sans-serif" font-size="11px" fill="#F4134D">−2.5%</text><text text-anchor="middle" transform="translate(375,150.5)" font-family="sans-serif" font-size="11px" fill="#F4134D">−4.8%</text><text text-anchor="middle" transform="translate(405,91.125)" font-family="sans-serif" font-size="11px" fill="#F4134D">−1.0%</text></g><g class="mark-text role-mark layer_4_marks" role="graphics-object" aria-roledescription="text mark container"><text text-anchor="middle" transform="translate(435,6.906250000000037)" font-family="sans-serif" font-size="11px" fill="#179FDB">3.1%</text></g><g class="mark-text role-mark layer_5_marks" role="graphics-object" aria-roledescription="text mark container"><text text-anchor="start" transform="translate(45,125) rotate(270) translate(70,3)" font-family="sans-serif" font-size="11px" fill="#F4134D">World</text><text text-anchor="start" transform="translate(75,125) rotate(270) translate(70,3)" font-family="sans-serif" font-size="11px" fill="#F4134D">G20</text><text text-anchor="start" transform="translate(105,125) rotate(270) translate(70,3)" font-family="sans-serif" font-size="11px" fill="#F4134D">Euro area</text><text text-anchor="start" transform="translate(135,125) rotate(270) translate(70,3)" font-family="sans-serif" font-size="11px" fill="#F4134D">Germany</text><text text-anchor="start" transform="translate(165,125) rotate(270) translate(70,3)" font-family="sans-serif" font-size="11px" fill="#F4134D">France</text><text text-anchor="start" transform="translate(195,125) rotate(270) translate(70,3)" font-family="sans-serif" font-size="11px" fill="#F4134D">Italy</text><text text-anchor="start" transform="translate(225,125) rotate(270) translate(70,3)" font-family="sans-serif" font-size="11px" fill="#F4134D">Spain</text><text text-anchor="start" transform="translate(255,125) rotate(270) translate(70,3)" font-family="sans-serif" font-size="11px" fill="#F4134D">United Kingdom</text><text text-anchor="start" transform="translate(285,125) rotate(270) translate(70,3)" font-family="sans-serif" font-size="11px" fill="#F4134D">United States</text><text text-anchor="start" transform="translate(315,125) rotate(270) translate(70,3)" font-family="sans-serif" font-size="11px" fill="#F4134D">Canada</text><text text-anchor="start" transform="translate(345,125) rotate(270) translate(70,3)" font-family="sans-serif" font-size="11px" fill="#F4134D">Australia</text><text text-anchor="start" transform="translate(375,125) rotate(270) translate(70,3)" font-family="sans-serif" font-size="11px" fill="#F4134D">Japan</text><text text-anchor="start" transform="translate(405,125) rotate(270) translate(70,3)" font-family="sans-serif" font-size="11px" fill="#F4134D">S Korea</text></g><g class="mark-text role-mark layer_6_marks" role="graphics-object" aria-roledescription="text mark container"><text text-anchor="end" transform="translate(435,125) rotate(270) translate(55,3)" font-family="sans-serif" font-size="11px" fill="#179FDB">Taiwan</text></g></g><path class="foreground" aria-hidden="true" d="" display="none"/></g></g></g></svg>