<svg xmlns="http://www.w3.org/2000/svg" xmlns:xlink="http://www.w3.org/1999/xlink" version="1.1" class="marks" width="432" height="327" viewBox="0 0 432 327"><rect width="432" height="327" fill="white"/><g fill="none" stroke-miterlimit="10" transform="translate(25,5)"><g class="mark-group role-frame root" role="graphics-object" aria-roledescription="group mark container"><g transform="translate(0,0)"><path class="background" aria-hidden="true" d="M0,0h400v300h-400Z"/><g><g class="mark-group role-axis" aria-hidden="true"><g transform="translate(0.5,0.5)"><path class="background" aria-hidden="true" d="M0,0h0v0h0Z" pointer-events="none"/><g><g class="mark-rule role-axis-grid" pointer-events="none"><line transform="translate(0,300)" x2="400" y2="0" stroke="#ddd" stroke-width="1" opacity="1"/><line transform="translate(0,208)" x2="400" y2="0" stroke="#ddd" stroke-width="1" opacity="1"/><line transform="translate(0,115)" x2="400" y2="0" stroke="#ddd" stroke-width="1" opacity="1"/><line transform="translate(0,23)" x2="400" y2="0" stroke="#ddd" stroke-width="1" opacity="1"/></g></g><path class="foreground" aria-hidden="true" d="" pointer-events="none" display="none"/></g></g><g class="mark-group role-axis" role="graphics-symbol" aria-roledescription="axis" aria-label="X-axis for a time scale with values from Tuesday, 04 May 2021, 12:00:00 AM to Wednesday, 14 July 2021, 12:00:00 AM"><g transform="translate(0.5,300.5)"><path class="background" aria-hidden="true" d="M0,0h0v0h0Z" pointer-events="none"/><g><g class="mark-rule role-axis-tick" pointer-events="none"><line transform="translate(28,0)" x2="0" y2="5" stroke="#676A86" stroke-width="1" opacity="1"/><line transform="translate(68,0)" x2="0" y2="5" stroke="#676A86" stroke-width="1" opacity="1"/><line transform="translate(107,0)" x2="0" y2="5" stroke="#676A86" stroke-width="1" opacity="1"/><line transform="translate(146,0)" x2="0" y2="5" stroke="#676A86" stroke-width="1" opacity="1"/><line transform="translate(186,0)" x2="0" y2="5" stroke="#676A86" stroke-width="1" opacity="1"/><line transform="translate(225,0)" x2="0" y2="5" stroke="#676A86" stroke-width="1" opacity="1"/><line transform="translate(265,0)" x2="0" y2="5" stroke="#676A86" stroke-width="1" opacity="1"/><line transform="translate(304,0)" x2="0" y2="5" stroke="#676A86" stroke-width="1" opacity="1"/><line transform="translate(344,0)" x2="0" y2="5" stroke="#676A86" stroke-width="1" opacity="1"/><line transform="translate(383,0)" x2="0" y2="5" stroke="#676A86" stroke-width="1" opacity="1"/></g><g class="mark-text role-axis-label" pointer-events="none"><text text-anchor="middle" transform="translate(28.169014084507044,15)" font-family="sans-serif" font-size="10px" fill="#676A86" opacity="1">May 09</text><text text-anchor="middle" transform="translate(67.6056338028169,15)" font-family="sans-serif" font-size="10px" fill="#676A86" opacity="1">May 16</text><text text-anchor="middle" transform="translate(107.04225352112675,15)" font-family="sans-serif" font-size="10px" fill="#676A86" opacity="1">May 23</text><text text-anchor="middle" transform="translate(146.47887323943664,15)" font-family="sans-serif" font-size="10px" fill="#676A86" opacity="1">May 30</text><text text-anchor="middle" transform="translate(185.91549295774647,15)" font-family="sans-serif" font-size="10px" fill="#676A86" opacity="1">Jun 06</text><text text-anchor="middle" transform="translate(225.35211267605635,15)" font-family="sans-serif" font-size="10px" fill="#676A86" opacity="1">Jun 13</text><text text-anchor="middle" transform="translate(264.7887323943662,15)" font-family="sans-serif" font-size="10px" fill="#676A86" opacity="1">Jun 20</text><text text-anchor="middle" transform="translate(304.22535211267603,15)" font-family="sans-serif" font-size="10px" fill="#676A86" opacity="1">Jun 27</text><text text-anchor="middle" transform="translate(343.6619718309859,15)" font-family="sans-serif" font-size="10px" fill="#676A86" opacity="1">Jul 04</text><text text-anchor="middle" transform="translate(383.09859154929575,15)" font-family="sans-serif" font-size="10px" fill="#676A86" opacity="1">Jul 11</text></g><g class="mark-rule role-axis-domain" pointer-events="none"><line transform="translate(0,0)" x2="400" y2="0" stroke="#676A86" stroke-width="1" opacity="1"/></g></g><path class="foreground" aria-hidden="true" d="" pointer-events="none" display="none"/></g></g><g class="mark-group role-axis" role="graphics-symbol" aria-roledescription="axis" aria-label="Y-axis titled 'Nr. of cases' for a linear scale with values from 0 to 650"><g transform="translate(0.5,0.5)"><path class="background" aria-hidden="true" d="M0,0h0v0h0Z" pointer-events="none"/><g><g class="mark-text role-axis-label" pointer-events="none"><text text-anchor="end" transform="translate(-2,303)" font-family="sans-serif" font-size="10px" fill="#676A86" opacity="1">0</text><text text-anchor="end" transform="translate(-2,210.69230769230768)" font-family="sans-serif" font-size="10px" fill="#676A86" opacity="1">200</text><text text-anchor="end" transform="translate(-2,118.38461538461537)" font-family="sans-serif" font-size="10px" fill="#676A86" opacity="1">400</text><text text-anchor="end" transform="translate(-2,26.076923076923062)" font-family="sans-serif" font-size="10px" fill="#676A86" opacity="1">600</text></g><g class="mark-rule role-axis-domain" pointer-events="none"><line transform="translate(0,300)" x2="0" y2="-300" stroke="#676A86" stroke-width="1" opacity="1"/></g><g class="mark-text role-axis-title" pointer-events="none"><text text-anchor="start" transform="translate(5,18)" font-family="sans-serif" font-size="10px" font-weight="normal" fill="#676A86" opacity="1">Nr. of cases</text></g></g><path class="foreground" aria-hidden="true" d="" pointer-events="none" display="none"/></g></g><g class="mark-area role-mark layer_0_marks" role="graphics-object" aria-roledescription="area mark container"><path aria-label="date: May 04, 2021; value: 0" role="graphics-symbol" aria-roledescription="area mark" d="M0,300C5.633802816901408,300,11.267605633802816,300,16.901408450704224,300C20.657276995305164,300,24.413145539906104,300,28.169014084507044,300C31.92488262910798,300,35.68075117370892,300,39.436619718309856,300C41.31455399061033,300,43.1924882629108,300,45.07042253521127,300C46.948356807511736,300,48.82629107981221,299.93699177365704,50.70422535211267,299.8109753209712C52.582159624413144,299.6849588682853,54.460093896713616,299.26575808552263,56.33802816901409,298.69491626758276C58.21596244131455,298.12407444964293,60.093896713615024,297.9252523161659,61.97183098591549,296.3859244133321C63.84976525821596,294.8465965104983,65.72769953051643,280.8182366865046,67.6056338028169,271.9969539723649C69.48356807511738,263.17567125822524,71.36150234741784,255.89437423837757,73.23943661971832,243.45822812849403C75.11737089201878,231.02208201861055,76.99530516431925,203.39823136183236,78.87323943661971,197.380077313064C80.75117370892018,191.36192326429563,82.62910798122066,191.56144449549782,84.50704225352112,188.35284623991143C86.3849765258216,185.14424798432503,88.26291079812206,178.12848777954557,90.14084507042254,178.12848777954557C92.01877934272301,178.12848777954557,93.89671361502347,185.66909981153086,95.77464788732394,185.66909981153086C97.6525821596244,185.66909981153086,99.53051643192488,145.3106257322709,101.40845070422534,123.61471614773669C103.28638497652581,101.91880656320248,105.16431924882629,74.42317419932752,107.04225352112675,55.49364230432556C108.92018779342723,36.56411040932355,110.7981220657277,10.037524777724816,112.67605633802818,10.037524777724816C114.55399061032864,10.037524777724816,116.4319248826291,14.201735791908911,118.30985915492957,17.962516928746307C120.18779342723003,21.723298065583712,122.06572769953051,32.60221159874924,123.94366197183098,32.60221159874924C125.82159624413146,32.60221159874924,127.69953051643193,24.292493089680264,129.5774647887324,20.36826058947391C131.45539906103286,16.444028089267594,133.33333333333334,9.056816597511219,135.2112676056338,9.056816597511219C137.08920187793427,9.056816597511219,138.96713615023472,13.322341388659062,140.8450704225352,19.564610370472803C142.72300469483568,25.806879352286575,144.60093896713616,34.119386682048436,146.47887323943664,46.51043048839384C148.3568075117371,58.90147429473911,150.23474178403757,80.37268943791936,152.11267605633802,93.91087320854461C153.9906103286385,107.44905697916994,155.86854460093895,127.73953311214548,157.74647887323943,127.73953311214548C159.6244131455399,127.73953311214548,161.50234741784038,125.07969828530949,163.38028169014086,119.76002863163752C165.2582159624413,114.4403589779656,167.1361502347418,98.0034098092997,169.01408450704224,86.12970889630083C170.89201877934272,74.2560079833019,172.76995305164317,48.517823153644116,174.64788732394365,48.517823153644116C176.52582159624413,48.517823153644116,178.4037558685446,50.15846499335496,180.2816901408451,53.439748672776645C182.15962441314554,56.7210323521983,184.03755868544602,60.51388299443487,185.91549295774647,73.35970735405944C187.79342723004694,86.20553171368407,189.6713615023474,113.81236196184332,191.54929577464787,130.5146948305244C193.42723004694835,147.21702769920557,195.30516431924883,161.87741208735935,197.1830985915493,173.5737045661461C199.06103286384976,185.26999704493272,200.93896713615024,200.69244970324465,202.8169014084507,200.69244970324465C204.69483568075117,200.69244970324465,206.57276995305162,194.2250049311534,208.4507042253521,191.05702174392698C210.32863849765258,187.88903855670057,212.20657276995303,181.6845505798862,214.0845070422535,181.6845505798862C215.96244131455398,181.6845505798862,217.84037558685446,182.67027059812895,219.71830985915494,184.64171063461447C221.59624413145542,186.61315067109996,223.47417840375587,193.92332825256204,225.35211267605635,198.97429379268215C227.23004694835683,204.02525933280225,229.10798122065728,209.49236528707394,230.98591549295776,214.94750387533503C232.8638497652582,220.4026424635961,234.7417840375587,231.2055801382067,236.61971830985914,231.70512532224862C238.49765258215962,232.20467050629054,240.37558685446007,232.2419435467531,242.25352112676055,232.45444309831151C244.13145539906102,232.66694264986992,246.00938967136148,232.9801226315991,247.88732394366195,232.9801226315991C249.76525821596243,232.9801226315991,251.6431924882629,225.39182858699925,253.5211267605634,225.39182858699925C255.39906103286387,225.39182858699925,257.27699530516435,228.7019424015146,259.1549295774648,231.46363378409808C261.0328638497653,234.22532516668153,262.9107981220657,237.1857519371241,264.7887323943662,241.96197688249998C266.6666666666667,246.73820182787586,268.5446009389671,257.27128028240986,270.4225352112676,260.1209834563534C272.30046948356807,262.97068663029694,274.17840375586854,264.3955382172687,276.056338028169,264.3955382172687C277.9342723004695,264.3955382172687,279.8122065727699,263.2385899339337,281.6901408450704,261.1656947550458C283.5680751173709,259.0927995761579,285.44600938967136,251.95816714394132,287.32394366197184,251.95816714394132C289.2018779342723,251.95816714394132,291.0798122065728,253.46500935472483,292.9577464788733,255.23288029127062C294.83568075117375,257.0007512278164,296.7136150234742,260.33704650189185,298.59154929577466,262.565392763216C300.46948356807513,264.7937390245401,302.34741784037556,267.0526344351553,304.22535211267603,268.6029578592155C306.1032863849765,270.15328128327576,307.981220657277,270.55316453597356,309.85915492957747,271.8673333075773C311.73708920187795,273.1815020791811,313.6150234741784,274.736331081373,315.49295774647885,276.4879704888381C317.37089201877933,278.23960989630314,319.2488262910798,282.3771697523677,321.1267605633803,282.3771697523677C323.00469483568077,282.3771697523677,324.88262910798124,282.18609766605977,326.7605633802817,281.8039534934438C328.6384976525822,281.4218093208279,330.5164319248826,278.7683061558212,332.3943661971831,278.7683061558212C334.2723004694836,278.7683061558212,336.150234741784,279.6908120843622,338.0281690140845,280.75361087531894C339.90610328638496,281.8164096662757,341.78403755868544,283.17230716516247,343.6619718309859,285.1450989015617C345.5399061032864,287.1178906379609,347.4178403755868,292.15793818780793,349.2957746478873,292.5903612937142C351.1737089201878,293.02278439962043,353.05164319248826,292.80657284666734,354.92957746478874,293.2389959525736C356.8075117370892,293.67141905847984,358.6854460093897,295.30264405721204,360.5633802816902,295.30264405721204C362.44131455399065,295.30264405721204,364.3192488262911,293.43618605127796,366.19718309859155,293.27460470776356C368.07511737089203,293.11302336424916,369.95305164319245,293.08627915017234,371.83098591549293,293.03223269249196C373.7089201877934,292.9781862348116,375.5868544600939,292.95032596168136,377.46478873239437,292.95032596168136C379.34272300469485,292.95032596168136,381.22065727699527,295.0017537861868,383.09859154929575,295.78487624037865C384.9765258215962,296.5679986945705,386.8544600938967,297.30100554824094,388.7323943661972,297.6490606868327C390.61032863849766,297.99711582542443,392.48826291079814,298.1314761409003,394.3661971830986,298.17114339472033C396.2441314553991,298.21081064854036,398.1220657276995,298.2207274619954,400,298.2306442754504L400,300C398.1220657276995,300,396.2441314553991,300,394.3661971830986,300C392.48826291079814,300,390.61032863849766,300,388.7323943661972,300C386.8544600938967,300,384.9765258215962,300,383.09859154929575,300C381.22065727699527,300,379.34272300469485,300,377.46478873239437,300C375.5868544600939,300,373.7089201877934,300,371.83098591549293,300C369.95305164319245,300,368.07511737089203,300,366.19718309859155,300C364.3192488262911,300,362.44131455399065,300,360.5633802816902,300C358.6854460093897,300,356.8075117370892,300,354.92957746478874,300C353.05164319248826,300,351.1737089201878,300,349.2957746478873,300C347.4178403755868,300,345.5399061032864,300,343.6619718309859,300C341.78403755868544,300,339.90610328638496,300,338.0281690140845,300C336.150234741784,300,334.2723004694836,300,332.3943661971831,300C330.5164319248826,300,328.6384976525822,300,326.7605633802817,300C324.88262910798124,300,323.00469483568077,300,321.1267605633803,300C319.2488262910798,300,317.37089201877933,300,315.49295774647885,300C313.6150234741784,300,311.73708920187795,300,309.85915492957747,300C307.981220657277,300,306.1032863849765,300,304.22535211267603,300C302.34741784037556,300,300.46948356807513,300,298.59154929577466,300C296.7136150234742,300,294.83568075117375,300,292.9577464788733,300C291.0798122065728,300,289.2018779342723,300,287.32394366197184,300C285.44600938967136,300,283.5680751173709,300,281.6901408450704,300C279.8122065727699,300,277.9342723004695,300,276.056338028169,300C274.17840375586854,300,272.30046948356807,300,270.4225352112676,300C268.5446009389671,300,266.6666666666667,300,264.7887323943662,300C262.9107981220657,300,261.0328638497653,300,259.1549295774648,300C257.27699530516435,300,255.39906103286387,300,253.5211267605634,300C251.6431924882629,300,249.76525821596243,300,247.88732394366195,300C246.00938967136148,300,244.13145539906102,300,242.25352112676055,300C240.37558685446007,300,238.49765258215962,300,236.61971830985914,300C234.7417840375587,300,232.8638497652582,300,230.98591549295776,300C229.10798122065728,300,227.23004694835683,300,225.35211267605635,300C223.47417840375587,300,221.59624413145542,300,219.71830985915494,300C217.84037558685446,300,215.96244131455398,300,214.0845070422535,300C212.20657276995303,300,210.32863849765258,300,208.4507042253521,300C206.57276995305162,300,204.69483568075117,300,202.8169014084507,300C200.93896713615024,300,199.06103286384976,300,197.1830985915493,300C195.30516431924883,300,193.42723004694835,300,191.54929577464787,300C189.6713615023474,300,187.79342723004694,300,185.91549295774647,300C184.03755868544602,300,182.15962441314554,300,180.2816901408451,300C178.4037558685446,300,176.52582159624413,300,174.64788732394365,300C172.76995305164317,300,170.89201877934272,300,169.01408450704224,300C167.1361502347418,300,165.2582159624413,300,163.38028169014086,300C161.50234741784038,300,159.6244131455399,300,157.74647887323943,300C155.86854460093895,300,153.9906103286385,300,152.11267605633802,300C150.23474178403757,300,148.3568075117371,300,146.47887323943664,300C144.60093896713616,300,142.72300469483568,300,140.8450704225352,300C138.96713615023472,300,137.08920187793427,300,135.2112676056338,300C133.33333333333334,300,131.45539906103286,300,129.5774647887324,300C127.69953051643193,300,125.82159624413146,300,123.94366197183098,300C122.06572769953051,300,120.18779342723003,300,118.30985915492957,300C116.4319248826291,300,114.55399061032864,300,112.67605633802818,300C110.7981220657277,300,108.92018779342723,300,107.04225352112675,300C105.16431924882629,300,103.28638497652581,300,101.40845070422534,300C99.53051643192488,300,97.6525821596244,300,95.77464788732394,300C93.89671361502347,300,92.01877934272301,300,90.14084507042254,300C88.26291079812206,300,86.3849765258216,300,84.50704225352112,300C82.62910798122066,300,80.75117370892018,300,78.87323943661971,300C76.99530516431925,300,75.11737089201878,300,73.23943661971832,300C71.36150234741784,300,69.48356807511738,300,67.6056338028169,300C65.72769953051643,300,63.84976525821596,300,61.97183098591549,300C60.093896713615024,300,58.21596244131455,300,56.33802816901409,300C54.460093896713616,300,52.582159624413144,300,50.70422535211267,300C48.82629107981221,300,46.948356807511736,300,45.07042253521127,300C43.1924882629108,300,41.31455399061033,300,39.436619718309856,300C35.68075117370892,300,31.92488262910798,300,28.169014084507044,300C24.413145539906104,300,20.657276995305164,300,16.901408450704224,300C11.267605633802816,300,5.633802816901408,300,0,300Z" fill="url(#gradient_0)" fill-opacity="0.7"/></g><g class="mark-line role-mark layer_1_marks" role="graphics-object" aria-roledescription="line mark container"><path aria-label="date: May 04, 2021; value: 0" role="graphics-symbol" aria-roledescription="line mark" d="M0,300C5.633802816901408,300,11.267605633802816,300,16.901408450704224,300C20.657276995305164,300,24.413145539906104,300,28.169014084507044,300C31.92488262910798,300,35.68075117370892,300,39.436619718309856,300C41.31455399061033,300,43.1924882629108,300,45.07042253521127,300C46.948356807511736,300,48.82629107981221,299.93699177365704,50.70422535211267,299.8109753209712C52.582159624413144,299.6849588682853,54.460093896713616,299.26575808552263,56.33802816901409,298.69491626758276C58.21596244131455,298.12407444964293,60.093896713615024,297.9252523161659,61.97183098591549,296.3859244133321C63.84976525821596,294.8465965104983,65.72769953051643,280.8182366865046,67.6056338028169,271.9969539723649C69.48356807511738,263.17567125822524,71.36150234741784,255.89437423837757,73.23943661971832,243.45822812849403C75.11737089201878,231.02208201861055,76.99530516431925,203.39823136183236,78.87323943661971,197.380077313064C80.75117370892018,191.36192326429563,82.62910798122066,191.56144449549782,84.50704225352112,188.35284623991143C86.3849765258216,185.14424798432503,88.26291079812206,178.12848777954557,90.14084507042254,178.12848777954557C92.01877934272301,178.12848777954557,93.89671361502347,185.66909981153086,95.77464788732394,185.66909981153086C97.6525821596244,185.66909981153086,99.53051643192488,145.3106257322709,101.40845070422534,123.61471614773669C103.28638497652581,101.91880656320248,105.16431924882629,74.42317419932752,107.04225352112675,55.49364230432556C108.92018779342723,36.56411040932355,110.7981220657277,10.037524777724816,112.67605633802818,10.037524777724816C114.55399061032864,10.037524777724816,116.4319248826291,14.201735791908911,118.30985915492957,17.962516928746307C120.18779342723003,21.723298065583712,122.06572769953051,32.60221159874924,123.94366197183098,32.60221159874924C125.82159624413146,32.60221159874924,127.69953051643193,24.292493089680264,129.5774647887324,20.36826058947391C131.45539906103286,16.444028089267594,133.33333333333334,9.056816597511219,135.2112676056338,9.056816597511219C137.08920187793427,9.056816597511219,138.96713615023472,13.322341388659062,140.8450704225352,19.564610370472803C142.72300469483568,25.806879352286575,144.60093896713616,34.119386682048436,146.47887323943664,46.51043048839384C148.3568075117371,58.90147429473911,150.23474178403757,80.37268943791936,152.11267605633802,93.91087320854461C153.9906103286385,107.44905697916994,155.86854460093895,127.73953311214548,157.74647887323943,127.73953311214548C159.6244131455399,127.73953311214548,161.50234741784038,125.07969828530949,163.38028169014086,119.76002863163752C165.2582159624413,114.4403589779656,167.1361502347418,98.0034098092997,169.01408450704224,86.12970889630083C170.89201877934272,74.2560079833019,172.76995305164317,48.517823153644116,174.64788732394365,48.517823153644116C176.52582159624413,48.517823153644116,178.4037558685446,50.15846499335496,180.2816901408451,53.439748672776645C182.15962441314554,56.7210323521983,184.03755868544602,60.51388299443487,185.91549295774647,73.35970735405944C187.79342723004694,86.20553171368407,189.6713615023474,113.81236196184332,191.54929577464787,130.5146948305244C193.42723004694835,147.21702769920557,195.30516431924883,161.87741208735935,197.1830985915493,173.5737045661461C199.06103286384976,185.26999704493272,200.93896713615024,200.69244970324465,202.8169014084507,200.69244970324465C204.69483568075117,200.69244970324465,206.57276995305162,194.2250049311534,208.4507042253521,191.05702174392698C210.32863849765258,187.88903855670057,212.20657276995303,181.6845505798862,214.0845070422535,181.6845505798862C215.96244131455398,181.6845505798862,217.84037558685446,182.67027059812895,219.71830985915494,184.64171063461447C221.59624413145542,186.61315067109996,223.47417840375587,193.92332825256204,225.35211267605635,198.97429379268215C227.23004694835683,204.02525933280225,229.10798122065728,209.49236528707394,230.98591549295776,214.94750387533503C232.8638497652582,220.4026424635961,234.7417840375587,231.2055801382067,236.61971830985914,231.70512532224862C238.49765258215962,232.20467050629054,240.37558685446007,232.2419435467531,242.25352112676055,232.45444309831151C244.13145539906102,232.66694264986992,246.00938967136148,232.9801226315991,247.88732394366195,232.9801226315991C249.76525821596243,232.9801226315991,251.6431924882629,225.39182858699925,253.5211267605634,225.39182858699925C255.39906103286387,225.39182858699925,257.27699530516435,228.7019424015146,259.1549295774648,231.46363378409808C261.0328638497653,234.22532516668153,262.9107981220657,237.1857519371241,264.7887323943662,241.96197688249998C266.6666666666667,246.73820182787586,268.5446009389671,257.27128028240986,270.4225352112676,260.1209834563534C272.30046948356807,262.97068663029694,274.17840375586854,264.3955382172687,276.056338028169,264.3955382172687C277.9342723004695,264.3955382172687,279.8122065727699,263.2385899339337,281.6901408450704,261.1656947550458C283.5680751173709,259.0927995761579,285.44600938967136,251.95816714394132,287.32394366197184,251.95816714394132C289.2018779342723,251.95816714394132,291.0798122065728,253.46500935472483,292.9577464788733,255.23288029127062C294.83568075117375,257.0007512278164,296.7136150234742,260.33704650189185,298.59154929577466,262.565392763216C300.46948356807513,264.7937390245401,302.34741784037556,267.0526344351553,304.22535211267603,268.6029578592155C306.1032863849765,270.15328128327576,307.981220657277,270.55316453597356,309.85915492957747,271.8673333075773C311.73708920187795,273.1815020791811,313.6150234741784,274.736331081373,315.49295774647885,276.4879704888381C317.37089201877933,278.23960989630314,319.2488262910798,282.3771697523677,321.1267605633803,282.3771697523677C323.00469483568077,282.3771697523677,324.88262910798124,282.18609766605977,326.7605633802817,281.8039534934438C328.6384976525822,281.4218093208279,330.5164319248826,278.7683061558212,332.3943661971831,278.7683061558212C334.2723004694836,278.7683061558212,336.150234741784,279.6908120843622,338.0281690140845,280.75361087531894C339.90610328638496,281.8164096662757,341.78403755868544,283.17230716516247,343.6619718309859,285.1450989015617C345.5399061032864,287.1178906379609,347.4178403755868,292.15793818780793,349.2957746478873,292.5903612937142C351.1737089201878,293.02278439962043,353.05164319248826,292.80657284666734,354.92957746478874,293.2389959525736C356.8075117370892,293.67141905847984,358.6854460093897,295.30264405721204,360.5633802816902,295.30264405721204C362.44131455399065,295.30264405721204,364.3192488262911,293.43618605127796,366.19718309859155,293.27460470776356C368.07511737089203,293.11302336424916,369.95305164319245,293.08627915017234,371.83098591549293,293.03223269249196C373.7089201877934,292.9781862348116,375.5868544600939,292.95032596168136,377.46478873239437,292.95032596168136C379.34272300469485,292.95032596168136,381.22065727699527,295.0017537861868,383.09859154929575,295.78487624037865C384.9765258215962,296.5679986945705,386.8544600938967,297.30100554824094,388.7323943661972,297.6490606868327C390.61032863849766,297.99711582542443,392.48826291079814,298.1314761409003,394.3661971830986,298.17114339472033C396.2441314553991,298.21081064854036,398.1220657276995,298.2207274619954,400,298.2306442754504" stroke="#0063AF" stroke-width="2"/></g></g><path class="foreground" aria-hidden="true" d="" display="none"/></g></g></g><defs><linearGradient id="gradient_0" x1="1" x2="1" y1="0.9" y2="0"><stop offset="0" stop-color="white"/><stop offset="1" stop-color="#0063AF"/></linearGradient></defs></svg>