<svg xmlns="http://www.w3.org/2000/svg" xmlns:xlink="http://www.w3.org/1999/xlink" version="1.1" class="marks" width="432" height="347" viewBox="0 0 432 347"><rect width="432" height="347" fill="white"/><g fill="none" stroke-miterlimit="10" transform="translate(25,25)"><g class="mark-group role-frame root" role="graphics-object" aria-roledescription="group mark container"><g transform="translate(0,0)"><path class="background" aria-hidden="true" d="M0,0h400v300h-400Z"/><g><g class="mark-group role-axis" aria-hidden="true"><g transform="translate(0.5,0.5)"><path class="background" aria-hidden="true" d="M0,0h0v0h0Z" pointer-events="none"/><g><g class="mark-rule role-axis-grid" pointer-events="none"><line transform="translate(0,300)" x2="400" y2="0" stroke="#ddd" stroke-width="1" opacity="1"/><line transform="translate(0,200)" x2="400" y2="0" stroke="#ddd" stroke-width="1" opacity="1"/><line transform="translate(0,100)" x2="400" y2="0" stroke="#ddd" stroke-width="1" opacity="1"/><line transform="translate(0,0)" x2="400" y2="0" stroke="#ddd" stroke-width="1" opacity="1"/></g></g><path class="foreground" aria-hidden="true" d="" pointer-events="none" display="none"/></g></g><g class="mark-group role-axis" role="graphics-symbol" aria-roledescription="axis" aria-label="X-axis for a time scale with values from Tuesday, 11 May 2021, 12:00:00 AM to Friday, 22 October 2021, 12:00:00 AM"><g transform="translate(0.5,300.5)"><path class="background" aria-hidden="true" d="M0,0h0v0h0Z" pointer-events="none"/><g><g class="mark-rule role-axis-tick" pointer-events="none"><line transform="translate(51,0)" x2="0" y2="5" stroke="#676A86" stroke-width="1" opacity="1"/><line transform="translate(124,0)" x2="0" y2="5" stroke="#676A86" stroke-width="1" opacity="1"/><line transform="translate(200,0)" x2="0" y2="5" stroke="#676A86" stroke-width="1" opacity="1"/><line transform="translate(276,0)" x2="0" y2="5" stroke="#676A86" stroke-width="1" opacity="1"/><line transform="translate(349,0)" x2="0" y2="5" stroke="#676A86" stroke-width="1" opacity="1"/></g><g class="mark-text role-axis-label" pointer-events="none"><text text-anchor="middle" transform="translate(51.21951219512195,15)" font-family="sans-serif" font-size="10px" fill="#676A86" opacity="1">June</text><text text-anchor="middle" transform="translate(124.39024390243902,15)" font-family="sans-serif" font-size="10px" fill="#676A86" opacity="1">July</text><text text-anchor="middle" transform="translate(200,15)" font-family="sans-serif" font-size="10px" fill="#676A86" opacity="1">August</text><text text-anchor="middle" transform="translate(275.60975609756093,15)" font-family="sans-serif" font-size="10px" fill="#676A86" opacity="1">September</text><text text-anchor="middle" transform="translate(348.780487804878,15)" font-family="sans-serif" font-size="10px" fill="#676A86" opacity="1">October</text></g><g class="mark-rule role-axis-domain" pointer-events="none"><line transform="translate(0,0)" x2="400" y2="0" stroke="#676A86" stroke-width="1" opacity="1"/></g></g><path class="foreground" aria-hidden="true" d="" pointer-events="none" display="none"/></g></g><g class="mark-group role-axis" role="graphics-symbol" aria-roledescription="axis" aria-label="Y-axis titled 'Change in the nr. of cases' for a linear scale with values from 0 to 600"><g transform="translate(0.5,0.5)"><path class="background" aria-hidden="true" d="M0,0h0v0h0Z" pointer-events="none"/><g><g class="mark-text role-axis-label" pointer-events="none"><text text-anchor="end" transform="translate(-2,303)" font-family="sans-serif" font-size="10px" fill="#676A86" opacity="1">0</text><text text-anchor="end" transform="translate(-2,203.00000000000003)" font-family="sans-serif" font-size="10px" fill="#676A86" opacity="1">200</text><text text-anchor="end" transform="translate(-2,103.00000000000001)" font-family="sans-serif" font-size="10px" fill="#676A86" opacity="1">400</text><text text-anchor="end" transform="translate(-2,3)" font-family="sans-serif" font-size="10px" fill="#676A86" opacity="1">600</text></g><g class="mark-rule role-axis-domain" pointer-events="none"><line transform="translate(0,300)" x2="0" y2="-300" stroke="#676A86" stroke-width="1" opacity="1"/></g><g class="mark-text role-axis-title" pointer-events="none"><text text-anchor="start" transform="translate(-20,-12)" font-family="sans-serif" font-size="10px" font-weight="normal" fill="#676A86" opacity="1">Change in the nr. of cases</text></g></g><path class="foreground" aria-hidden="true" d="" pointer-events="none" display="none"/></g></g><g class="mark-area role-mark layer_0_layer_0_marks" role="graphics-object" aria-roledescription="area mark container"><path aria-label="date: May 13, 2021; value: 0" role="graphics-symbol" aria-roledescription="area mark" d="M4.878048780487805,300C5.691056910569105,300,6.504065040650406,300,7.317073170731707,300C8.130081300813007,300,8.94308943089431,299.55888703564926,9.75609756097561,298.67666110694785C11.38211382113821,296.91220924954496,13.008130081300813,288.3877218549868,14.634146341463413,272.4886698078641C15.447154471544716,264.5391437843027,16.260162601626018,262.70849249413595,17.073170731707318,243.26280052660886C17.88617886178862,223.8171085590818,18.69918699186992,178.568176996906,19.51219512195122,155.81451800270173C20.32520325203252,133.0608590084974,21.138211382113823,124.40168332953866,21.951219512195124,106.7408465613831C22.764227642276424,89.08000979322756,23.577235772357724,49.84949739376847,24.390243902439025,49.84949739376847C25.203252032520325,49.84949739376847,26.01626016260163,59.64071702717057,26.82926829268293,59.64071702717057C27.64227642276423,59.64071702717057,28.455284552845526,57.404766457407305,29.268292682926827,57.404766457407305C30.081300813008127,57.404766457407305,30.89430894308943,72.63000047867692,31.70731707317073,73.15857426970668C32.520325203252035,73.68714806073643,33.333333333333336,73.9514349562513,34.146341463414636,73.9514349562513C34.959349593495936,73.9514349562513,35.77235772357724,73.18121474114908,36.58536585365854,71.64077431094464C37.39837398373984,70.1003338807402,38.21138211382114,63.87386551840316,39.02439024390244,60.160779933314736C39.83739837398374,56.447694348226314,40.65040650406504,52.03053690845815,41.46341463414634,49.362260800414106C42.27642276422764,46.69398469237005,43.08943089430895,45.774238273631425,43.90243902439025,44.151123285050446C44.71544715447155,42.52800829646947,45.52845528455285,39.62357086892825,46.34146341463415,39.62357086892825C47.15447154471545,39.62357086892825,47.96747967479675,54.26062732485051,48.78048780487805,60.53471990023092C49.59349593495935,66.80881247561133,50.40650406504065,70.41985296475751,51.21951219512195,77.2681263212107C52.03252032520325,84.11639967766392,52.84552845528456,101.21187868628073,53.65853658536586,101.62436003895017C54.47154471544716,102.03684139161962,55.28455284552846,101.90070185825704,56.09756097560976,102.24308206795435C56.91056910569106,102.58546227765166,57.72357723577235,103.67864129713402,58.536585365853654,103.67864129713402C59.349593495934954,103.67864129713402,60.16260162601626,87.15231550238484,60.97560975609756,86.89786562809194C61.78861788617886,86.64341575379903,62.60162601626016,86.51619081665258,63.41463414634146,86.51619081665258C64.22764227642277,86.51619081665258,65.04065040650407,104.99778103339304,65.85365853658537,106.01874222647152C66.66666666666667,107.03970341954998,67.47967479674797,106.52922282301076,68.29268292682927,107.55018401608922C69.10569105691057,108.57114520916768,69.91869918699187,115.5541779089972,70.73170731707317,120.69718189699778C71.54471544715447,125.84018588499835,72.35772357723577,128.30969701222276,73.17073170731707,138.40820794409262C73.98373983739837,148.5067188759625,74.79674796747967,174.54445648368,75.60975609756098,181.288247488217C76.42276422764228,188.032038492754,77.23577235772358,191.4039339950225,78.04878048780488,191.4039339950225C78.86178861788618,191.4039339950225,79.67479674796749,182.35392602209254,80.48780487804879,178.2863306605968C81.30081300813009,174.2187352991011,82.11382113821138,166.99836182604818,82.92682926829268,166.99836182604818C83.73983739837398,166.99836182604818,84.55284552845528,168.12830938650484,85.36585365853658,170.38820450741815C86.17886178861788,172.64809962833147,86.9918699186992,179.9633232515386,87.8048780487805,185.27763182506288C88.6178861788618,190.59194039858713,89.4308943089431,194.8098080208318,90.2439024390244,202.27405594856364C91.0569105691057,209.73830387629548,91.869918699187,228.991515461891,92.6829268292683,230.06311939145385C93.4959349593496,231.1347233210167,94.3089430894309,231.16412949738506,95.1219512195122,231.67052528579813C95.9349593495935,232.1769210742112,96.7479674796748,233.10149412193235,97.5609756097561,233.10149412193235C98.3739837398374,233.10149412193235,99.1869918699187,216.11198840755242,100,216.11198840755242C100.8130081300813,216.11198840755242,101.6260162601626,219.86630175644152,102.4390243902439,222.89707770069236C103.2520325203252,225.9278536449432,104.0650406504065,228.92963153678144,104.8780487804878,234.29664407305754C105.6910569105691,239.66365660933366,106.50406504065042,250.21263931358533,107.31707317073172,255.09915291834906C108.13008130081302,259.98566652311274,108.94308943089432,263.5924155254097,109.75609756097562,263.61572570163986C110.56910569105692,263.63903587787,111.38211382113822,263.6506909659851,112.19512195121952,263.6506909659851C113.00813008130082,263.6506909659851,113.8211382113821,253.0884939587822,114.6341463414634,253.0884939587822C115.4471544715447,253.0884939587822,116.260162601626,253.12633634706793,117.07317073170731,253.20202112363935C117.88617886178861,253.27770590021078,118.69918699186991,259.44415419441236,119.51219512195121,261.90621137821427C120.32520325203251,264.3682685620162,121.13821138211382,266.6194268926597,121.95121951219512,267.9743642264509C122.76422764227642,269.32930156024213,123.57723577235772,270.0358353809615,124.39024390243902,270.0358353809615C125.20325203252033,270.0358353809615,126.01626016260163,269.8823797284031,126.82926829268293,269.8823797284031C127.64227642276423,269.8823797284031,128.45528455284554,274.2283724396965,129.26829268292684,275.81219541500167C130.08130081300814,277.39601839030684,130.89430894308944,278.77599592422024,131.70731707317074,279.3853175802342C132.52032520325204,279.99463923624813,133.33333333333334,280.2993000642551,134.14634146341464,280.2993000642551C134.95934959349594,280.2993000642551,135.77235772357724,276.4608102617432,136.58536585365854,276.4608102617432C137.39837398373984,276.4608102617432,138.21138211382112,276.73668011283075,139.02439024390242,277.28841981500597C139.83739837398372,277.8401595171812,140.65040650406505,279.87377313861725,141.46341463414635,281.9937157339375C142.27642276422765,284.1136583292577,143.08943089430895,290.0080753869272,143.90243902439025,290.0080753869272C144.71544715447155,290.0080753869272,145.52845528455285,289.3396318970139,146.34146341463415,289.3396318970139C147.15447154471545,289.3396318970139,147.96747967479675,290.6051239735258,148.78048780487805,290.6051239735258C149.59349593495935,290.6051239735258,150.40650406504065,289.6959980185694,151.21951219512195,289.6959980185694C152.03252032520325,289.6959980185694,152.84552845528455,294.2215951562479,153.65853658536585,294.2215951562479C154.47154471544715,294.2215951562479,155.28455284552845,291.67894893543365,156.09756097560975,291.67894893543365C156.91056910569105,291.67894893543365,157.72357723577235,293.030775743754,158.53658536585365,293.030775743754C159.34959349593495,293.030775743754,160.16260162601628,291.18050608631523,160.97560975609758,291.18050608631523C161.78861788617888,291.18050608631523,162.60162601626016,293.23090260979393,163.41463414634146,294.03605631460715C164.22764227642276,294.8412100194204,165.04065040650406,296.0114283151945,165.85365853658536,296.0114283151945C166.66666666666666,296.0114283151945,167.47967479674796,294.3645690564258,168.29268292682926,294.3645690564258C169.10569105691056,294.3645690564258,169.91869918699186,298.49006189200725,170.73170731707316,298.7793557726381C171.54471544715446,299.06864965326895,172.35772357723576,299.00985588902404,173.17073170731706,299.21329659358435C173.98373983739836,299.41673729814465,174.7967479674797,300,175.609756097561,300C176.4227642276423,300,177.2357723577236,298.33834480387907,178.0487804878049,298.1357418677638C178.8617886178862,297.9331389316485,179.6747967479675,298.0344403997061,180.4878048780488,297.83183746359083C181.3008130081301,297.62923452747555,182.1138211382114,296.109595278535,182.9268292682927,295.659185900204C184.5528455284553,294.75836714354216,186.17886178861787,294.7308256777328,187.80487804878047,294.3079577652112C188.61788617886177,294.0965238089504,189.4308943089431,293.6943119957857,190.2439024390244,293.6943119957857C191.0569105691057,293.6943119957857,191.869918699187,295.04019690815977,192.6829268292683,296.09114490886213C193.4959349593496,297.1420929095645,194.3089430894309,300,195.1219512195122,300C195.9349593495935,300,196.7479674796748,300,197.5609756097561,300C198.3739837398374,300,199.1869918699187,300,200,300C200.8130081300813,300,201.6260162601626,297.4915908198762,202.4390243902439,297.3613352172987C203.2520325203252,297.2310796147212,204.0650406504065,297.1659518134324,204.8780487804878,297.1659518134324C205.6910569105691,297.1659518134324,206.5040650406504,297.24748335957884,207.3170731707317,297.3123068769087C208.9430894308943,297.4419539115683,210.56910569105693,297.89370993494026,212.19512195121953,297.89370993494026C213.00813008130083,297.89370993494026,213.82113821138213,295.78791380122874,214.63414634146343,295.6945780143907C215.44715447154474,295.60124222755263,216.26016260162604,295.5545743341336,217.07317073170734,295.5545743341336C217.88617886178864,295.5545743341336,218.69918699186994,295.62663202322545,219.51219512195124,295.77074740140915C220.32520325203254,295.91486277959285,221.13821138211384,298.4647353420948,221.95121951219514,298.72957043177536C223.57723577235774,299.2592406111364,225.2032520325203,299.25015348876775,226.8292682926829,299.524075700817C227.6422764227642,299.6610368068416,228.4552845528455,299.94177436066735,229.2682926829268,299.94177436066735C230.0813008130081,299.94177436066735,230.8943089430894,299.82729960974297,231.7073170731707,299.76907005406906C232.520325203252,299.71084049839516,233.33333333333331,299.5923970266238,234.14634146341461,299.5923970266238C234.95934959349592,299.5923970266238,235.77235772357722,299.5966759552556,236.58536585365852,299.6052338125192C238.21138211382112,299.62234952704637,239.83739837398375,299.8993231663247,241.46341463414635,299.9568527855677C242.27642276422765,299.98561759518924,243.08943089430895,300,243.90243902439025,300C244.71544715447155,300,245.52845528455285,299.997046813261,246.34146341463415,299.991140439783C247.15447154471545,299.985234066305,247.96747967479675,299.7886635532774,248.78048780487805,299.7886635532774C249.59349593495935,299.7886635532774,250.40650406504065,299.9220974931168,251.21951219512195,299.9220974931168C252.84552845528455,299.9220974931168,254.47154471544718,299.917706114163,256.0975609756098,299.917706114163C256.9105691056911,299.917706114163,257.7235772357724,300,258.5365853658537,300C259.349593495935,300,260.1626016260163,299.97783601565203,260.9756097560976,299.97783601565203C261.7886178861789,299.97783601565203,262.6016260162602,300,263.4146341463415,300C264.2276422764228,300,265.0406504065041,300,265.8536585365854,300C266.6666666666667,300,267.479674796748,300,268.2926829268293,300C269.1056910569106,300,269.9186991869919,300,270.7317073170732,300C273.1707317073171,300,275.60975609756093,300,278.04878048780483,300C278.86178861788613,300,279.6747967479675,299.9412079815215,280.4878048780488,299.92343999442306C281.3008130081301,299.90567200732465,282.1138211382114,299.8933920774096,282.9268292682927,299.8933920774096C283.739837398374,299.8933920774096,284.5528455284553,300,285.3658536585366,300C286.9918699186992,300,288.6178861788618,300,290.2439024390244,300C291.0569105691057,300,291.869918699187,300,292.6829268292683,300C293.4959349593496,300,294.3089430894309,300,295.1219512195122,300C295.9349593495935,300,296.7479674796748,300,297.5609756097561,300C298.3739837398374,300,299.1869918699187,299.6076383106112,300,299.5530262300946C300.8130081300813,299.49841414957797,301.6260162601626,299.47110810931963,302.4390243902439,299.47110810931963C303.2520325203252,299.47110810931963,304.0650406504065,300,304.8780487804878,300C305.6910569105691,300,306.5040650406504,300,307.3170731707317,300C308.9430894308943,300,310.5691056910569,300,312.1951219512195,300C313.0081300813008,300,313.8211382113821,300,314.6341463414634,300C315.4471544715447,300,316.260162601626,300,317.0731707317073,300C318.6991869918699,300,320.32520325203257,300,321.95121951219517,300C322.76422764227647,300,323.57723577235777,300,324.39024390243907,300C326.01626016260167,300,327.6422764227642,300,329.2682926829268,300C330.0813008130081,300,330.8943089430894,300,331.7073170731707,300C333.3333333333333,300,334.9593495934959,300,336.5853658536585,300C338.2113821138211,300,339.8373983739837,300,341.4634146341463,300C344.7154471544715,300,347.9674796747968,300,351.219512195122,300C352.0325203252033,300,352.8455284552846,300,353.6585365853659,300C357.7235772357724,300,361.7886178861789,300,365.8536585365854,300C369.1056910569106,300,372.35772357723573,300,375.60975609756093,300C377.23577235772353,300,378.8617886178862,300,380.4878048780488,300C383.739837398374,300,386.9918699186992,300,390.2439024390244,300C393.4959349593496,300,396.7479674796748,300,400,300L400,300C396.7479674796748,300,393.4959349593496,300,390.2439024390244,300C386.9918699186992,300,383.739837398374,300,380.4878048780488,300C378.8617886178862,300,377.23577235772353,300,375.60975609756093,300C372.35772357723573,300,369.1056910569106,300,365.8536585365854,300C361.7886178861789,300,357.7235772357724,300,353.6585365853659,300C352.8455284552846,300,352.0325203252033,300,351.219512195122,300C347.9674796747968,300,344.7154471544715,300,341.4634146341463,300C339.8373983739837,300,338.2113821138211,300,336.5853658536585,300C334.9593495934959,300,333.3333333333333,300,331.7073170731707,300C330.8943089430894,300,330.0813008130081,300,329.2682926829268,300C327.6422764227642,300,326.01626016260167,300,324.39024390243907,300C323.57723577235777,300,322.76422764227647,300,321.95121951219517,300C320.32520325203257,300,318.6991869918699,300,317.0731707317073,300C316.260162601626,300,315.4471544715447,300,314.6341463414634,300C313.8211382113821,300,313.0081300813008,300,312.1951219512195,300C310.5691056910569,300,308.9430894308943,300,307.3170731707317,300C306.5040650406504,300,305.6910569105691,300,304.8780487804878,300C304.0650406504065,300,303.2520325203252,300,302.4390243902439,300C301.6260162601626,300,300.8130081300813,300,300,300C299.1869918699187,300,298.3739837398374,300,297.5609756097561,300C296.7479674796748,300,295.9349593495935,300,295.1219512195122,300C294.3089430894309,300,293.4959349593496,300,292.6829268292683,300C291.869918699187,300,291.0569105691057,300,290.2439024390244,300C288.6178861788618,300,286.9918699186992,300,285.3658536585366,300C284.5528455284553,300,283.739837398374,300,282.9268292682927,300C282.1138211382114,300,281.3008130081301,300,280.4878048780488,300C279.6747967479675,300,278.86178861788613,300,278.04878048780483,300C275.60975609756093,300,273.1707317073171,300,270.7317073170732,300C269.9186991869919,300,269.1056910569106,300,268.2926829268293,300C267.479674796748,300,266.6666666666667,300,265.8536585365854,300C265.0406504065041,300,264.2276422764228,300,263.4146341463415,300C262.6016260162602,300,261.7886178861789,300,260.9756097560976,300C260.1626016260163,300,259.349593495935,300,258.5365853658537,300C257.7235772357724,300,256.9105691056911,300,256.0975609756098,300C254.47154471544718,300,252.84552845528455,300,251.21951219512195,300C250.40650406504065,300,249.59349593495935,300,248.78048780487805,300C247.96747967479675,300,247.15447154471545,300,246.34146341463415,300C245.52845528455285,300,244.71544715447155,300,243.90243902439025,300C243.08943089430895,300,242.27642276422765,300,241.46341463414635,300C239.83739837398375,300,238.21138211382112,300,236.58536585365852,300C235.77235772357722,300,234.95934959349592,300,234.14634146341461,300C233.33333333333331,300,232.520325203252,300,231.7073170731707,300C230.8943089430894,300,230.0813008130081,300,229.2682926829268,300C228.4552845528455,300,227.6422764227642,300,226.8292682926829,300C225.2032520325203,300,223.57723577235774,300,221.95121951219514,300C221.13821138211384,300,220.32520325203254,300,219.51219512195124,300C218.69918699186994,300,217.88617886178864,300,217.07317073170734,300C216.26016260162604,300,215.44715447154474,300,214.63414634146343,300C213.82113821138213,300,213.00813008130083,300,212.19512195121953,300C210.56910569105693,300,208.9430894308943,300,207.3170731707317,300C206.5040650406504,300,205.6910569105691,300,204.8780487804878,300C204.0650406504065,300,203.2520325203252,300,202.4390243902439,300C201.6260162601626,300,200.8130081300813,300,200,300C199.1869918699187,300,198.3739837398374,300,197.5609756097561,300C196.7479674796748,300,195.9349593495935,300,195.1219512195122,300C194.3089430894309,300,193.4959349593496,300,192.6829268292683,300C191.869918699187,300,191.0569105691057,300,190.2439024390244,300C189.4308943089431,300,188.61788617886177,300,187.80487804878047,300C186.17886178861787,300,184.5528455284553,300,182.9268292682927,300C182.1138211382114,300,181.3008130081301,300,180.4878048780488,300C179.6747967479675,300,178.8617886178862,300,178.0487804878049,300C177.2357723577236,300,176.4227642276423,300,175.609756097561,300C174.7967479674797,300,173.98373983739836,300,173.17073170731706,300C172.35772357723576,300,171.54471544715446,300,170.73170731707316,300C169.91869918699186,300,169.10569105691056,300,168.29268292682926,300C167.47967479674796,300,166.66666666666666,300,165.85365853658536,300C165.04065040650406,300,164.22764227642276,300,163.41463414634146,300C162.60162601626016,300,161.78861788617888,300,160.97560975609758,300C160.16260162601628,300,159.34959349593495,300,158.53658536585365,300C157.72357723577235,300,156.91056910569105,300,156.09756097560975,300C155.28455284552845,300,154.47154471544715,300,153.65853658536585,300C152.84552845528455,300,152.03252032520325,300,151.21951219512195,300C150.40650406504065,300,149.59349593495935,300,148.78048780487805,300C147.96747967479675,300,147.15447154471545,300,146.34146341463415,300C145.52845528455285,300,144.71544715447155,300,143.90243902439025,300C143.08943089430895,300,142.27642276422765,300,141.46341463414635,300C140.65040650406505,300,139.83739837398372,300,139.02439024390242,300C138.21138211382112,300,137.39837398373984,300,136.58536585365854,300C135.77235772357724,300,134.95934959349594,300,134.14634146341464,300C133.33333333333334,300,132.52032520325204,300,131.70731707317074,300C130.89430894308944,300,130.08130081300814,300,129.26829268292684,300C128.45528455284554,300,127.64227642276423,300,126.82926829268293,300C126.01626016260163,300,125.20325203252033,300,124.39024390243902,300C123.57723577235772,300,122.76422764227642,300,121.95121951219512,300C121.13821138211382,300,120.32520325203251,300,119.51219512195121,300C118.69918699186991,300,117.88617886178861,300,117.07317073170731,300C116.260162601626,300,115.4471544715447,300,114.6341463414634,300C113.8211382113821,300,113.00813008130082,300,112.19512195121952,300C111.38211382113822,300,110.56910569105692,300,109.75609756097562,300C108.94308943089432,300,108.13008130081302,300,107.31707317073172,300C106.50406504065042,300,105.6910569105691,300,104.8780487804878,300C104.0650406504065,300,103.2520325203252,300,102.4390243902439,300C101.6260162601626,300,100.8130081300813,300,100,300C99.1869918699187,300,98.3739837398374,300,97.5609756097561,300C96.7479674796748,300,95.9349593495935,300,95.1219512195122,300C94.3089430894309,300,93.4959349593496,300,92.6829268292683,300C91.869918699187,300,91.0569105691057,300,90.2439024390244,300C89.4308943089431,300,88.6178861788618,300,87.8048780487805,300C86.9918699186992,300,86.17886178861788,300,85.36585365853658,300C84.55284552845528,300,83.73983739837398,300,82.92682926829268,300C82.11382113821138,300,81.30081300813009,300,80.48780487804879,300C79.67479674796749,300,78.86178861788618,300,78.04878048780488,300C77.23577235772358,300,76.42276422764228,300,75.60975609756098,300C74.79674796747967,300,73.98373983739837,300,73.17073170731707,300C72.35772357723577,300,71.54471544715447,300,70.73170731707317,300C69.91869918699187,300,69.10569105691057,300,68.29268292682927,300C67.47967479674797,300,66.66666666666667,300,65.85365853658537,300C65.04065040650407,300,64.22764227642277,300,63.41463414634146,300C62.60162601626016,300,61.78861788617886,300,60.97560975609756,300C60.16260162601626,300,59.349593495934954,300,58.536585365853654,300C57.72357723577235,300,56.91056910569106,300,56.09756097560976,300C55.28455284552846,300,54.47154471544716,300,53.65853658536586,300C52.84552845528456,300,52.03252032520325,300,51.21951219512195,300C50.40650406504065,300,49.59349593495935,300,48.78048780487805,300C47.96747967479675,300,47.15447154471545,300,46.34146341463415,300C45.52845528455285,300,44.71544715447155,300,43.90243902439025,300C43.08943089430895,300,42.27642276422764,300,41.46341463414634,300C40.65040650406504,300,39.83739837398374,300,39.02439024390244,300C38.21138211382114,300,37.39837398373984,300,36.58536585365854,300C35.77235772357724,300,34.959349593495936,300,34.146341463414636,300C33.333333333333336,300,32.520325203252035,300,31.70731707317073,300C30.89430894308943,300,30.081300813008127,300,29.268292682926827,300C28.455284552845526,300,27.64227642276423,300,26.82926829268293,300C26.01626016260163,300,25.203252032520325,300,24.390243902439025,300C23.577235772357724,300,22.764227642276424,300,21.951219512195124,300C21.138211382113823,300,20.32520325203252,300,19.51219512195122,300C18.69918699186992,300,17.88617886178862,300,17.073170731707318,300C16.260162601626018,300,15.447154471544716,300,14.634146341463413,300C13.008130081300813,300,11.38211382113821,300,9.75609756097561,300C8.94308943089431,300,8.130081300813007,300,7.317073170731707,300C6.504065040650406,300,5.691056910569105,300,4.878048780487805,300Z" fill="url(#gradient_0)" fill-opacity="0.7"/></g><g class="mark-line role-mark layer_0_layer_1_marks" role="graphics-object" aria-roledescription="line mark container"><path aria-label="date: May 13, 2021; value: 0" role="graphics-symbol" aria-roledescription="line mark" d="M4.878048780487805,300C5.691056910569105,300,6.504065040650406,300,7.317073170731707,300C8.130081300813007,300,8.94308943089431,299.55888703564926,9.75609756097561,298.67666110694785C11.38211382113821,296.91220924954496,13.008130081300813,288.3877218549868,14.634146341463413,272.4886698078641C15.447154471544716,264.5391437843027,16.260162601626018,262.70849249413595,17.073170731707318,243.26280052660886C17.88617886178862,223.8171085590818,18.69918699186992,178.568176996906,19.51219512195122,155.81451800270173C20.32520325203252,133.0608590084974,21.138211382113823,124.40168332953866,21.951219512195124,106.7408465613831C22.764227642276424,89.08000979322756,23.577235772357724,49.84949739376847,24.390243902439025,49.84949739376847C25.203252032520325,49.84949739376847,26.01626016260163,59.64071702717057,26.82926829268293,59.64071702717057C27.64227642276423,59.64071702717057,28.455284552845526,57.404766457407305,29.268292682926827,57.404766457407305C30.081300813008127,57.404766457407305,30.89430894308943,72.63000047867692,31.70731707317073,73.15857426970668C32.520325203252035,73.68714806073643,33.333333333333336,73.9514349562513,34.146341463414636,73.9514349562513C34.959349593495936,73.9514349562513,35.77235772357724,73.18121474114908,36.58536585365854,71.64077431094464C37.39837398373984,70.1003338807402,38.21138211382114,63.87386551840316,39.02439024390244,60.160779933314736C39.83739837398374,56.447694348226314,40.65040650406504,52.03053690845815,41.46341463414634,49.362260800414106C42.27642276422764,46.69398469237005,43.08943089430895,45.774238273631425,43.90243902439025,44.151123285050446C44.71544715447155,42.52800829646947,45.52845528455285,39.62357086892825,46.34146341463415,39.62357086892825C47.15447154471545,39.62357086892825,47.96747967479675,54.26062732485051,48.78048780487805,60.53471990023092C49.59349593495935,66.80881247561133,50.40650406504065,70.41985296475751,51.21951219512195,77.2681263212107C52.03252032520325,84.11639967766392,52.84552845528456,101.21187868628073,53.65853658536586,101.62436003895017C54.47154471544716,102.03684139161962,55.28455284552846,101.90070185825704,56.09756097560976,102.24308206795435C56.91056910569106,102.58546227765166,57.72357723577235,103.67864129713402,58.536585365853654,103.67864129713402C59.349593495934954,103.67864129713402,60.16260162601626,87.15231550238484,60.97560975609756,86.89786562809194C61.78861788617886,86.64341575379903,62.60162601626016,86.51619081665258,63.41463414634146,86.51619081665258C64.22764227642277,86.51619081665258,65.04065040650407,104.99778103339304,65.85365853658537,106.01874222647152C66.66666666666667,107.03970341954998,67.47967479674797,106.52922282301076,68.29268292682927,107.55018401608922C69.10569105691057,108.57114520916768,69.91869918699187,115.5541779089972,70.73170731707317,120.69718189699778C71.54471544715447,125.84018588499835,72.35772357723577,128.30969701222276,73.17073170731707,138.40820794409262C73.98373983739837,148.5067188759625,74.79674796747967,174.54445648368,75.60975609756098,181.288247488217C76.42276422764228,188.032038492754,77.23577235772358,191.4039339950225,78.04878048780488,191.4039339950225C78.86178861788618,191.4039339950225,79.67479674796749,182.35392602209254,80.48780487804879,178.2863306605968C81.30081300813009,174.2187352991011,82.11382113821138,166.99836182604818,82.92682926829268,166.99836182604818C83.73983739837398,166.99836182604818,84.55284552845528,168.12830938650484,85.36585365853658,170.38820450741815C86.17886178861788,172.64809962833147,86.9918699186992,179.9633232515386,87.8048780487805,185.27763182506288C88.6178861788618,190.59194039858713,89.4308943089431,194.8098080208318,90.2439024390244,202.27405594856364C91.0569105691057,209.73830387629548,91.869918699187,228.991515461891,92.6829268292683,230.06311939145385C93.4959349593496,231.1347233210167,94.3089430894309,231.16412949738506,95.1219512195122,231.67052528579813C95.9349593495935,232.1769210742112,96.7479674796748,233.10149412193235,97.5609756097561,233.10149412193235C98.3739837398374,233.10149412193235,99.1869918699187,216.11198840755242,100,216.11198840755242C100.8130081300813,216.11198840755242,101.6260162601626,219.86630175644152,102.4390243902439,222.89707770069236C103.2520325203252,225.9278536449432,104.0650406504065,228.92963153678144,104.8780487804878,234.29664407305754C105.6910569105691,239.66365660933366,106.50406504065042,250.21263931358533,107.31707317073172,255.09915291834906C108.13008130081302,259.98566652311274,108.94308943089432,263.5924155254097,109.75609756097562,263.61572570163986C110.56910569105692,263.63903587787,111.38211382113822,263.6506909659851,112.19512195121952,263.6506909659851C113.00813008130082,263.6506909659851,113.8211382113821,253.0884939587822,114.6341463414634,253.0884939587822C115.4471544715447,253.0884939587822,116.260162601626,253.12633634706793,117.07317073170731,253.20202112363935C117.88617886178861,253.27770590021078,118.69918699186991,259.44415419441236,119.51219512195121,261.90621137821427C120.32520325203251,264.3682685620162,121.13821138211382,266.6194268926597,121.95121951219512,267.9743642264509C122.76422764227642,269.32930156024213,123.57723577235772,270.0358353809615,124.39024390243902,270.0358353809615C125.20325203252033,270.0358353809615,126.01626016260163,269.8823797284031,126.82926829268293,269.8823797284031C127.64227642276423,269.8823797284031,128.45528455284554,274.2283724396965,129.26829268292684,275.81219541500167C130.08130081300814,277.39601839030684,130.89430894308944,278.77599592422024,131.70731707317074,279.3853175802342C132.52032520325204,279.99463923624813,133.33333333333334,280.2993000642551,134.14634146341464,280.2993000642551C134.95934959349594,280.2993000642551,135.77235772357724,276.4608102617432,136.58536585365854,276.4608102617432C137.39837398373984,276.4608102617432,138.21138211382112,276.73668011283075,139.02439024390242,277.28841981500597C139.83739837398372,277.8401595171812,140.65040650406505,279.87377313861725,141.46341463414635,281.9937157339375C142.27642276422765,284.1136583292577,143.08943089430895,290.0080753869272,143.90243902439025,290.0080753869272C144.71544715447155,290.0080753869272,145.52845528455285,289.3396318970139,146.34146341463415,289.3396318970139C147.15447154471545,289.3396318970139,147.96747967479675,290.6051239735258,148.78048780487805,290.6051239735258C149.59349593495935,290.6051239735258,150.40650406504065,289.6959980185694,151.21951219512195,289.6959980185694C152.03252032520325,289.6959980185694,152.84552845528455,294.2215951562479,153.65853658536585,294.2215951562479C154.47154471544715,294.2215951562479,155.28455284552845,291.67894893543365,156.09756097560975,291.67894893543365C156.91056910569105,291.67894893543365,157.72357723577235,293.030775743754,158.53658536585365,293.030775743754C159.34959349593495,293.030775743754,160.16260162601628,291.18050608631523,160.97560975609758,291.18050608631523C161.78861788617888,291.18050608631523,162.60162601626016,293.23090260979393,163.41463414634146,294.03605631460715C164.22764227642276,294.8412100194204,165.04065040650406,296.0114283151945,165.85365853658536,296.0114283151945C166.66666666666666,296.0114283151945,167.47967479674796,294.3645690564258,168.29268292682926,294.3645690564258C169.10569105691056,294.3645690564258,169.91869918699186,298.49006189200725,170.73170731707316,298.7793557726381C171.54471544715446,299.06864965326895,172.35772357723576,299.00985588902404,173.17073170731706,299.21329659358435C173.98373983739836,299.41673729814465,174.7967479674797,300,175.609756097561,300C176.4227642276423,300,177.2357723577236,298.33834480387907,178.0487804878049,298.1357418677638C178.8617886178862,297.9331389316485,179.6747967479675,298.0344403997061,180.4878048780488,297.83183746359083C181.3008130081301,297.62923452747555,182.1138211382114,296.109595278535,182.9268292682927,295.659185900204C184.5528455284553,294.75836714354216,186.17886178861787,294.7308256777328,187.80487804878047,294.3079577652112C188.61788617886177,294.0965238089504,189.4308943089431,293.6943119957857,190.2439024390244,293.6943119957857C191.0569105691057,293.6943119957857,191.869918699187,295.04019690815977,192.6829268292683,296.09114490886213C193.4959349593496,297.1420929095645,194.3089430894309,300,195.1219512195122,300C195.9349593495935,300,196.7479674796748,300,197.5609756097561,300C198.3739837398374,300,199.1869918699187,300,200,300C200.8130081300813,300,201.6260162601626,297.4915908198762,202.4390243902439,297.3613352172987C203.2520325203252,297.2310796147212,204.0650406504065,297.1659518134324,204.8780487804878,297.1659518134324C205.6910569105691,297.1659518134324,206.5040650406504,297.24748335957884,207.3170731707317,297.3123068769087C208.9430894308943,297.4419539115683,210.56910569105693,297.89370993494026,212.19512195121953,297.89370993494026C213.00813008130083,297.89370993494026,213.82113821138213,295.78791380122874,214.63414634146343,295.6945780143907C215.44715447154474,295.60124222755263,216.26016260162604,295.5545743341336,217.07317073170734,295.5545743341336C217.88617886178864,295.5545743341336,218.69918699186994,295.62663202322545,219.51219512195124,295.77074740140915C220.32520325203254,295.91486277959285,221.13821138211384,298.4647353420948,221.95121951219514,298.72957043177536C223.57723577235774,299.2592406111364,225.2032520325203,299.25015348876775,226.8292682926829,299.524075700817C227.6422764227642,299.6610368068416,228.4552845528455,299.94177436066735,229.2682926829268,299.94177436066735C230.0813008130081,299.94177436066735,230.8943089430894,299.82729960974297,231.7073170731707,299.76907005406906C232.520325203252,299.71084049839516,233.33333333333331,299.5923970266238,234.14634146341461,299.5923970266238C234.95934959349592,299.5923970266238,235.77235772357722,299.5966759552556,236.58536585365852,299.6052338125192C238.21138211382112,299.62234952704637,239.83739837398375,299.8993231663247,241.46341463414635,299.9568527855677C242.27642276422765,299.98561759518924,243.08943089430895,300,243.90243902439025,300C244.71544715447155,300,245.52845528455285,299.997046813261,246.34146341463415,299.991140439783C247.15447154471545,299.985234066305,247.96747967479675,299.7886635532774,248.78048780487805,299.7886635532774C249.59349593495935,299.7886635532774,250.40650406504065,299.9220974931168,251.21951219512195,299.9220974931168C252.84552845528455,299.9220974931168,254.47154471544718,299.917706114163,256.0975609756098,299.917706114163C256.9105691056911,299.917706114163,257.7235772357724,300,258.5365853658537,300C259.349593495935,300,260.1626016260163,299.97783601565203,260.9756097560976,299.97783601565203C261.7886178861789,299.97783601565203,262.6016260162602,300,263.4146341463415,300C264.2276422764228,300,265.0406504065041,300,265.8536585365854,300C266.6666666666667,300,267.479674796748,300,268.2926829268293,300C269.1056910569106,300,269.9186991869919,300,270.7317073170732,300C273.1707317073171,300,275.60975609756093,300,278.04878048780483,300C278.86178861788613,300,279.6747967479675,299.9412079815215,280.4878048780488,299.92343999442306C281.3008130081301,299.90567200732465,282.1138211382114,299.8933920774096,282.9268292682927,299.8933920774096C283.739837398374,299.8933920774096,284.5528455284553,300,285.3658536585366,300C286.9918699186992,300,288.6178861788618,300,290.2439024390244,300C291.0569105691057,300,291.869918699187,300,292.6829268292683,300C293.4959349593496,300,294.3089430894309,300,295.1219512195122,300C295.9349593495935,300,296.7479674796748,300,297.5609756097561,300C298.3739837398374,300,299.1869918699187,299.6076383106112,300,299.5530262300946C300.8130081300813,299.49841414957797,301.6260162601626,299.47110810931963,302.4390243902439,299.47110810931963C303.2520325203252,299.47110810931963,304.0650406504065,300,304.8780487804878,300C305.6910569105691,300,306.5040650406504,300,307.3170731707317,300C308.9430894308943,300,310.5691056910569,300,312.1951219512195,300C313.0081300813008,300,313.8211382113821,300,314.6341463414634,300C315.4471544715447,300,316.260162601626,300,317.0731707317073,300C318.6991869918699,300,320.32520325203257,300,321.95121951219517,300C322.76422764227647,300,323.57723577235777,300,324.39024390243907,300C326.01626016260167,300,327.6422764227642,300,329.2682926829268,300C330.0813008130081,300,330.8943089430894,300,331.7073170731707,300C333.3333333333333,300,334.9593495934959,300,336.5853658536585,300C338.2113821138211,300,339.8373983739837,300,341.4634146341463,300C344.7154471544715,300,347.9674796747968,300,351.219512195122,300C352.0325203252033,300,352.8455284552846,300,353.6585365853659,300C357.7235772357724,300,361.7886178861789,300,365.8536585365854,300C369.1056910569106,300,372.35772357723573,300,375.60975609756093,300C377.23577235772353,300,378.8617886178862,300,380.4878048780488,300C383.739837398374,300,386.9918699186992,300,390.2439024390244,300C393.4959349593496,300,396.7479674796748,300,400,300" stroke="#0063AF" stroke-width="2"/></g><g class="mark-rule role-mark layer_1_marks" role="graphics-object" aria-roledescription="rule mark container"><line aria-label="x2: May 19, 2021; y: 580" role="graphics-symbol" aria-roledescription="rule mark" transform="translate(19.51219512195122,9.999999999999998)" x2="0" y2="290" stroke="#676A86" stroke-dasharray="5,1" opacity="0.7"/><line aria-label="x2: May 11, 2021; y: 45" role="graphics-symbol" aria-roledescription="rule mark" transform="translate(0,277.5)" x2="0" y2="22.5" stroke="#676A86" stroke-dasharray="5,1" opacity="0.7"/><line aria-label="x2: May 15, 2021; y: 320" role="graphics-symbol" aria-roledescription="rule mark" transform="translate(9.75609756097561,140)" x2="0" y2="160" stroke="#676A86" stroke-dasharray="5,1" opacity="0.7"/><line aria-label="x2: Jul 13, 2021; y: 160" role="graphics-symbol" aria-roledescription="rule mark" transform="translate(153.65853658536585,220.00000000000003)" x2="0" y2="79.99999999999997" stroke="#676A86" stroke-dasharray="5,1" opacity="0.7"/><line aria-label="x2: Jul 27, 2021; y: 70" role="graphics-symbol" aria-roledescription="rule mark" transform="translate(187.80487804878047,265)" x2="0" y2="35" stroke="#676A86" stroke-dasharray="5,1" opacity="0.7"/></g><g class="mark-text role-mark layer_2_marks" role="graphics-object" aria-roledescription="text mark container"><text aria-label="t: ➡ National Level-III Alert; x2: May 19, 2021; y: 580" role="graphics-symbol" aria-roledescription="text mark" text-anchor="start" transform="translate(19.51219512195122,18)" font-family="sans-serif" font-size="10px" fill="#676A86">➡ National Level-III Alert</text><text aria-label="t: ➡ National Level-II Alert; x2: May 11, 2021; y: 45" role="graphics-symbol" aria-roledescription="text mark" text-anchor="start" transform="translate(0,285.5)" font-family="sans-serif" font-size="10px" fill="#676A86">➡ National Level-II Alert</text><text aria-label="t: ➡ Taipei Level-III Alert; x2: May 15, 2021; y: 320" role="graphics-symbol" aria-roledescription="text mark" text-anchor="start" transform="translate(9.75609756097561,148)" font-family="sans-serif" font-size="10px" fill="#676A86">➡ Taipei Level-III Alert</text><text aria-label="t: ➡ Moderation of Level-III Alert; x2: Jul 13, 2021; y: 160" role="graphics-symbol" aria-roledescription="text mark" text-anchor="start" transform="translate(153.65853658536585,228.00000000000003)" font-family="sans-serif" font-size="10px" fill="#676A86">➡ Moderation of Level-III Alert</text><text aria-label="t: ➡ National Level-II Alert; x2: Jul 27, 2021; y: 70" role="graphics-symbol" aria-roledescription="text mark" text-anchor="start" transform="translate(187.80487804878047,273)" font-family="sans-serif" font-size="10px" fill="#676A86">➡ National Level-II Alert</text></g><g class="mark-text role-mark layer_3_marks" role="graphics-object" aria-roledescription="text mark container"><text aria-label="x: May 19; x2: May 19, 2021; y: 580" role="graphics-symbol" aria-roledescription="text mark" text-anchor="start" transform="translate(32.51219512195122,30)" font-family="sans-serif" font-size="10px" fill="#676A86">May 19</text><text aria-label="x: May 11; x2: May 11, 2021; y: 45" role="graphics-symbol" aria-roledescription="text mark" text-anchor="start" transform="translate(13,297.5)" font-family="sans-serif" font-size="10px" fill="#676A86">May 11</text><text aria-label="x: May 15; x2: May 15, 2021; y: 320" role="graphics-symbol" aria-roledescription="text mark" text-anchor="start" transform="translate(22.75609756097561,160)" font-family="sans-serif" font-size="10px" fill="#676A86">May 15</text><text aria-label="x: July 13; x2: Jul 13, 2021; y: 160" role="graphics-symbol" aria-roledescription="text mark" text-anchor="start" transform="translate(166.65853658536585,240.00000000000003)" font-family="sans-serif" font-size="10px" fill="#676A86">July 13</text><text aria-label="x: July 27; x2: Jul 27, 2021; y: 70" role="graphics-symbol" aria-roledescription="text mark" text-anchor="start" transform="translate(200.80487804878047,285)" font-family="sans-serif" font-size="10px" fill="#676A86">July 27</text></g></g><path class="foreground" aria-hidden="true" d="" display="none"/></g></g></g><defs><linearGradient id="gradient_0" x1="1" x2="1" y1="0.9" y2="0"><stop offset="0" stop-color="white"/><stop offset="1" stop-color="#0063AF"/></linearGradient></defs></svg>