<svg xmlns="http://www.w3.org/2000/svg" xmlns:xlink="http://www.w3.org/1999/xlink" version="1.1" class="marks" width="705" height="231" viewBox="0 0 705 231"><rect width="705" height="231" fill="#122B39"/><g fill="none" stroke-miterlimit="10" transform="translate(16,58)"><g class="mark-group role-frame root" role="graphics-object" aria-roledescription="group mark container"><g transform="translate(0,0)"><path class="background" aria-hidden="true" d="M0,0h620v150h-620Z"/><g><g class="mark-group role-axis" role="graphics-symbol" aria-roledescription="axis" aria-label="X-axis for a linear scale with values from 1980 to 2020"><g transform="translate(0.5,150.5)"><path class="background" aria-hidden="true" d="M0,0h0v0h0Z" pointer-events="none"/><g><g class="mark-rule role-axis-tick" pointer-events="none"><line transform="translate(0,0)" x2="0" y2="5" stroke="#676A86" stroke-width="1" opacity="1"/><line transform="translate(155,0)" x2="0" y2="5" stroke="#676A86" stroke-width="1" opacity="1"/><line transform="translate(310,0)" x2="0" y2="5" stroke="#676A86" stroke-width="1" opacity="1"/><line transform="translate(465,0)" x2="0" y2="5" stroke="#676A86" stroke-width="1" opacity="1"/><line transform="translate(620,0)" x2="0" y2="5" stroke="#676A86" stroke-width="1" opacity="1"/></g><g class="mark-text role-axis-label" pointer-events="none"><text text-anchor="start" transform="translate(0,16)" font-family="Georgia" font-size="12px" fill="#676A86" opacity="1">1980</text><text text-anchor="middle" transform="translate(155,16)" font-family="Georgia" font-size="12px" fill="#676A86" opacity="1">1990</text><text text-anchor="middle" transform="translate(310,16)" font-family="Georgia" font-size="12px" fill="#676A86" opacity="1">2000</text><text text-anchor="middle" transform="translate(465,16)" font-family="Georgia" font-size="12px" fill="#676A86" opacity="1">2010</text><text text-anchor="end" transform="translate(620,16)" font-family="Georgia" font-size="12px" fill="#676A86" opacity="1">2020</text></g><g class="mark-rule role-axis-domain" pointer-events="none"><line transform="translate(0,0)" x2="620" y2="0" stroke="#676A86" stroke-width="1" opacity="1"/></g></g><path class="foreground" aria-hidden="true" d="" pointer-events="none" display="none"/></g></g><g class="mark-symbol role-mark layer_0_marks" role="graphics-object" aria-roledescription="symbol mark container"><path aria-label="data: hydro; value: 59; year: 1980" role="graphics-symbol" aria-roledescription="point" transform="translate(0,93.75)" d="M5.561607814425742,0A5.561607814425742,5.561607814425742,0,1,1,-5.561607814425742,0A5.561607814425742,5.561607814425742,0,1,1,5.561607814425742,0" fill="#36B7B4" stroke="#36B7B4" stroke-width="2" opacity="0.7"/><path aria-label="data: meteo; value: 135; year: 1980" role="graphics-symbol" aria-roledescription="point" transform="translate(0,131.25)" d="M8.97063109386526,0A8.97063109386526,8.97063109386526,0,1,1,-8.97063109386526,0A8.97063109386526,8.97063109386526,0,1,1,8.97063109386526,0" fill="#676A86" stroke="#676A86" stroke-width="2" opacity="0.7"/><path aria-label="data: climate; value: 28; year: 1980" role="graphics-symbol" aria-roledescription="point" transform="translate(0,18.75)" d="M3.274763208855577,0A3.274763208855577,3.274763208855577,0,1,1,-3.274763208855577,0A3.274763208855577,3.274763208855577,0,1,1,3.274763208855577,0" fill="#179FDB" stroke="#179FDB" stroke-width="2" opacity="0.7"/><path aria-label="data: geo; value: 27; year: 1980" role="graphics-symbol" aria-roledescription="point" transform="translate(0,56.25)" d="M3.1736764520382703,0A3.1736764520382703,3.1736764520382703,0,1,1,-3.1736764520382703,0A3.1736764520382703,3.1736764520382703,0,1,1,3.1736764520382703,0" fill="#0063AF" stroke="#0063AF" stroke-width="2" opacity="0.7"/><path aria-label="data: hydro; value: 90; year: 1981" role="graphics-symbol" aria-roledescription="point" transform="translate(15.5,93.75)" d="M7.151145984308312,0A7.151145984308312,7.151145984308312,0,1,1,-7.151145984308312,0A7.151145984308312,7.151145984308312,0,1,1,7.151145984308312,0" fill="#36B7B4" stroke="#36B7B4" stroke-width="2" opacity="0.7"/><path aria-label="data: meteo; value: 119; year: 1981" role="graphics-symbol" aria-roledescription="point" transform="translate(15.5,131.25)" d="M8.369145272522912,0A8.369145272522912,8.369145272522912,0,1,1,-8.369145272522912,0A8.369145272522912,8.369145272522912,0,1,1,8.369145272522912,0" fill="#676A86" stroke="#676A86" stroke-width="2" opacity="0.7"/><path aria-label="data: climate; value: 22; year: 1981" role="graphics-symbol" aria-roledescription="point" transform="translate(15.5,18.75)" d="M2.6101653133399356,0A2.6101653133399356,2.6101653133399356,0,1,1,-2.6101653133399356,0A2.6101653133399356,2.6101653133399356,0,1,1,2.6101653133399356,0" fill="#179FDB" stroke="#179FDB" stroke-width="2" opacity="0.7"/><path aria-label="data: geo; value: 26; year: 1981" role="graphics-symbol" aria-roledescription="point" transform="translate(15.5,56.25)" d="M3.0692621866452483,0A3.0692621866452483,3.0692621866452483,0,1,1,-3.0692621866452483,0A3.0692621866452483,3.0692621866452483,0,1,1,3.0692621866452483,0" fill="#0063AF" stroke="#0063AF" stroke-width="2" opacity="0.7"/><path aria-label="data: hydro; value: 91; year: 1982" role="graphics-symbol" aria-roledescription="point" transform="translate(31,93.75)" d="M7.196578405099242,0A7.196578405099242,7.196578405099242,0,1,1,-7.196578405099242,0A7.196578405099242,7.196578405099242,0,1,1,7.196578405099242,0" fill="#36B7B4" stroke="#36B7B4" stroke-width="2" opacity="0.7"/><path aria-label="data: meteo; value: 126; year: 1982" role="graphics-symbol" aria-roledescription="point" transform="translate(31,131.25)" d="M8.637450755608135,0A8.637450755608135,8.637450755608135,0,1,1,-8.637450755608135,0A8.637450755608135,8.637450755608135,0,1,1,8.637450755608135,0" fill="#676A86" stroke="#676A86" stroke-width="2" opacity="0.7"/><path aria-label="data: climate; value: 21; year: 1982" role="graphics-symbol" aria-roledescription="point" transform="translate(31,18.75)" d="M2.482158558817529,0A2.482158558817529,2.482158558817529,0,1,1,-2.482158558817529,0A2.482158558817529,2.482158558817529,0,1,1,2.482158558817529,0" fill="#179FDB" stroke="#179FDB" stroke-width="2" opacity="0.7"/><path aria-label="data: geo; value: 32; year: 1982" role="graphics-symbol" aria-roledescription="point" transform="translate(31,56.25)" d="M3.651230132637695,0A3.651230132637695,3.651230132637695,0,1,1,-3.651230132637695,0A3.651230132637695,3.651230132637695,0,1,1,3.651230132637695,0" fill="#0063AF" stroke="#0063AF" stroke-width="2" opacity="0.7"/><path aria-label="data: hydro; value: 92; year: 1983" role="graphics-symbol" aria-roledescription="point" transform="translate(46.5,93.75)" d="M7.241725802085619,0A7.241725802085619,7.241725802085619,0,1,1,-7.241725802085619,0A7.241725802085619,7.241725802085619,0,1,1,7.241725802085619,0" fill="#36B7B4" stroke="#36B7B4" stroke-width="2" opacity="0.7"/><path aria-label="data: meteo; value: 120; year: 1983" role="graphics-symbol" aria-roledescription="point" transform="translate(46.5,131.25)" d="M8.407998837086293,0A8.407998837086293,8.407998837086293,0,1,1,-8.407998837086293,0A8.407998837086293,8.407998837086293,0,1,1,8.407998837086293,0" fill="#676A86" stroke="#676A86" stroke-width="2" opacity="0.7"/><path aria-label="data: climate; value: 38; year: 1983" role="graphics-symbol" aria-roledescription="point" transform="translate(46.5,18.75)" d="M4.152420088646209,0A4.152420088646209,4.152420088646209,0,1,1,-4.152420088646209,0A4.152420088646209,4.152420088646209,0,1,1,4.152420088646209,0" fill="#179FDB" stroke="#179FDB" stroke-width="2" opacity="0.7"/><path aria-label="data: geo; value: 44; year: 1983" role="graphics-symbol" aria-roledescription="point" transform="translate(46.5,56.25)" d="M4.5993155690497804,0A4.5993155690497804,4.5993155690497804,0,1,1,-4.5993155690497804,0A4.5993155690497804,4.5993155690497804,0,1,1,4.5993155690497804,0" fill="#0063AF" stroke="#0063AF" stroke-width="2" opacity="0.7"/><path aria-label="data: hydro; value: 72; year: 1984" role="graphics-symbol" aria-roledescription="point" transform="translate(62,93.75)" d="M6.277384451788464,0A6.277384451788464,6.277384451788464,0,1,1,-6.277384451788464,0A6.277384451788464,6.277384451788464,0,1,1,6.277384451788464,0" fill="#36B7B4" stroke="#36B7B4" stroke-width="2" opacity="0.7"/><path aria-label="data: meteo; value: 103; year: 1984" role="graphics-symbol" aria-roledescription="point" transform="translate(62,131.25)" d="M7.720943139472209,0A7.720943139472209,7.720943139472209,0,1,1,-7.720943139472209,0A7.720943139472209,7.720943139472209,0,1,1,7.720943139472209,0" fill="#676A86" stroke="#676A86" stroke-width="2" opacity="0.7"/><path aria-label="data: climate; value: 16; year: 1984" role="graphics-symbol" aria-roledescription="point" transform="translate(62,18.75)" d="M1.7034822722446665,0A1.7034822722446665,1.7034822722446665,0,1,1,-1.7034822722446665,0A1.7034822722446665,1.7034822722446665,0,1,1,1.7034822722446665,0" fill="#179FDB" stroke="#179FDB" stroke-width="2" opacity="0.7"/><path aria-label="data: geo; value: 29; year: 1984" role="graphics-symbol" aria-roledescription="point" transform="translate(62,56.25)" d="M3.3728216564066837,0A3.3728216564066837,3.3728216564066837,0,1,1,-3.3728216564066837,0A3.3728216564066837,3.3728216564066837,0,1,1,3.3728216564066837,0" fill="#0063AF" stroke="#0063AF" stroke-width="2" opacity="0.7"/><path aria-label="data: hydro; value: 97; year: 1985" role="graphics-symbol" aria-roledescription="point" transform="translate(77.5,93.75)" d="M7.463367326606124,0A7.463367326606124,7.463367326606124,0,1,1,-7.463367326606124,0A7.463367326606124,7.463367326606124,0,1,1,7.463367326606124,0" fill="#36B7B4" stroke="#36B7B4" stroke-width="2" opacity="0.7"/><path aria-label="data: meteo; value: 128; year: 1985" role="graphics-symbol" aria-roledescription="point" transform="translate(77.5,131.25)" d="M8.712591994306818,0A8.712591994306818,8.712591994306818,0,1,1,-8.712591994306818,0A8.712591994306818,8.712591994306818,0,1,1,8.712591994306818,0" fill="#676A86" stroke="#676A86" stroke-width="2" opacity="0.7"/><path aria-label="data: climate; value: 26; year: 1985" role="graphics-symbol" aria-roledescription="point" transform="translate(77.5,18.75)" d="M3.0692621866452483,0A3.0692621866452483,3.0692621866452483,0,1,1,-3.0692621866452483,0A3.0692621866452483,3.0692621866452483,0,1,1,3.0692621866452483,0" fill="#179FDB" stroke="#179FDB" stroke-width="2" opacity="0.7"/><path aria-label="data: geo; value: 32; year: 1985" role="graphics-symbol" aria-roledescription="point" transform="translate(77.5,56.25)" d="M3.651230132637695,0A3.651230132637695,3.651230132637695,0,1,1,-3.651230132637695,0A3.651230132637695,3.651230132637695,0,1,1,3.651230132637695,0" fill="#0063AF" stroke="#0063AF" stroke-width="2" opacity="0.7"/><path aria-label="data: hydro; value: 95; year: 1986" role="graphics-symbol" aria-roledescription="point" transform="translate(93,93.75)" d="M7.37551002630653,0A7.37551002630653,7.37551002630653,0,1,1,-7.37551002630653,0A7.37551002630653,7.37551002630653,0,1,1,7.37551002630653,0" fill="#36B7B4" stroke="#36B7B4" stroke-width="2" opacity="0.7"/><path aria-label="data: meteo; value: 114; year: 1986" role="graphics-symbol" aria-roledescription="point" transform="translate(93,131.25)" d="M8.17210703144136,0A8.17210703144136,8.17210703144136,0,1,1,-8.17210703144136,0A8.17210703144136,8.17210703144136,0,1,1,8.17210703144136,0" fill="#676A86" stroke="#676A86" stroke-width="2" opacity="0.7"/><path aria-label="data: climate; value: 26; year: 1986" role="graphics-symbol" aria-roledescription="point" transform="translate(93,18.75)" d="M3.0692621866452483,0A3.0692621866452483,3.0692621866452483,0,1,1,-3.0692621866452483,0A3.0692621866452483,3.0692621866452483,0,1,1,3.0692621866452483,0" fill="#179FDB" stroke="#179FDB" stroke-width="2" opacity="0.7"/><path aria-label="data: geo; value: 37; year: 1986" role="graphics-symbol" aria-roledescription="point" transform="translate(93,56.25)" d="M4.073173301093478,0A4.073173301093478,4.073173301093478,0,1,1,-4.073173301093478,0A4.073173301093478,4.073173301093478,0,1,1,4.073173301093478,0" fill="#0063AF" stroke="#0063AF" stroke-width="2" opacity="0.7"/><path aria-label="data: hydro; value: 144; year: 1987" role="graphics-symbol" aria-roledescription="point" transform="translate(108.5,93.75)" d="M9.29187219503631,0A9.29187219503631,9.29187219503631,0,1,1,-9.29187219503631,0A9.29187219503631,9.29187219503631,0,1,1,9.29187219503631,0" fill="#36B7B4" stroke="#36B7B4" stroke-width="2" opacity="0.7"/><path aria-label="data: meteo; value: 152; year: 1987" role="graphics-symbol" aria-roledescription="point" transform="translate(108.5,131.25)" d="M9.568369960641348,0A9.568369960641348,9.568369960641348,0,1,1,-9.568369960641348,0A9.568369960641348,9.568369960641348,0,1,1,9.568369960641348,0" fill="#676A86" stroke="#676A86" stroke-width="2" opacity="0.7"/><path aria-label="data: climate; value: 50; year: 1987" role="graphics-symbol" aria-roledescription="point" transform="translate(108.5,18.75)" d="M5.006477285958143,0A5.006477285958143,5.006477285958143,0,1,1,-5.006477285958143,0A5.006477285958143,5.006477285958143,0,1,1,5.006477285958143,0" fill="#179FDB" stroke="#179FDB" stroke-width="2" opacity="0.7"/><path aria-label="data: geo; value: 40; year: 1987" role="graphics-symbol" aria-roledescription="point" transform="translate(108.5,56.25)" d="M4.306541105840776,0A4.306541105840776,4.306541105840776,0,1,1,-4.306541105840776,0A4.306541105840776,4.306541105840776,0,1,1,4.306541105840776,0" fill="#0063AF" stroke="#0063AF" stroke-width="2" opacity="0.7"/><path aria-label="data: hydro; value: 128; year: 1988" role="graphics-symbol" aria-roledescription="point" transform="translate(124,93.75)" d="M8.712591994306818,0A8.712591994306818,8.712591994306818,0,1,1,-8.712591994306818,0A8.712591994306818,8.712591994306818,0,1,1,8.712591994306818,0" fill="#36B7B4" stroke="#36B7B4" stroke-width="2" opacity="0.7"/><path aria-label="data: meteo; value: 142; year: 1988" role="graphics-symbol" aria-roledescription="point" transform="translate(124,131.25)" d="M9.22145244444633,0A9.22145244444633,9.22145244444633,0,1,1,-9.22145244444633,0A9.22145244444633,9.22145244444633,0,1,1,9.22145244444633,0" fill="#676A86" stroke="#676A86" stroke-width="2" opacity="0.7"/><path aria-label="data: climate; value: 49; year: 1988" role="graphics-symbol" aria-roledescription="point" transform="translate(124,18.75)" d="M4.940947577435219,0A4.940947577435219,4.940947577435219,0,1,1,-4.940947577435219,0A4.940947577435219,4.940947577435219,0,1,1,4.940947577435219,0" fill="#179FDB" stroke="#179FDB" stroke-width="2" opacity="0.7"/><path aria-label="data: geo; value: 31; year: 1988" role="graphics-symbol" aria-roledescription="point" transform="translate(124,56.25)" d="M3.5608467573920715,0A3.5608467573920715,3.5608467573920715,0,1,1,-3.5608467573920715,0A3.5608467573920715,3.5608467573920715,0,1,1,3.5608467573920715,0" fill="#0063AF" stroke="#0063AF" stroke-width="2" opacity="0.7"/><path aria-label="data: hydro; value: 105; year: 1989" role="graphics-symbol" aria-roledescription="point" transform="translate(139.5,93.75)" d="M7.804912982645397,0A7.804912982645397,7.804912982645397,0,1,1,-7.804912982645397,0A7.804912982645397,7.804912982645397,0,1,1,7.804912982645397,0" fill="#36B7B4" stroke="#36B7B4" stroke-width="2" opacity="0.7"/><path aria-label="data: meteo; value: 149; year: 1989" role="graphics-symbol" aria-roledescription="point" transform="translate(139.5,131.25)" d="M9.465629833674468,0A9.465629833674468,9.465629833674468,0,1,1,-9.465629833674468,0A9.465629833674468,9.465629833674468,0,1,1,9.465629833674468,0" fill="#676A86" stroke="#676A86" stroke-width="2" opacity="0.7"/><path aria-label="data: climate; value: 50; year: 1989" role="graphics-symbol" aria-roledescription="point" transform="translate(139.5,18.75)" d="M5.006477285958143,0A5.006477285958143,5.006477285958143,0,1,1,-5.006477285958143,0A5.006477285958143,5.006477285958143,0,1,1,5.006477285958143,0" fill="#179FDB" stroke="#179FDB" stroke-width="2" opacity="0.7"/><path aria-label="data: geo; value: 39; year: 1989" role="graphics-symbol" aria-roledescription="point" transform="translate(139.5,56.25)" d="M4.230182554505709,0A4.230182554505709,4.230182554505709,0,1,1,-4.230182554505709,0A4.230182554505709,4.230182554505709,0,1,1,4.230182554505709,0" fill="#0063AF" stroke="#0063AF" stroke-width="2" opacity="0.7"/><path aria-label="data: hydro; value: 119; year: 1990" role="graphics-symbol" aria-roledescription="point" transform="translate(155,93.75)" d="M8.369145272522912,0A8.369145272522912,8.369145272522912,0,1,1,-8.369145272522912,0A8.369145272522912,8.369145272522912,0,1,1,8.369145272522912,0" fill="#36B7B4" stroke="#36B7B4" stroke-width="2" opacity="0.7"/><path aria-label="data: meteo; value: 151; year: 1990" role="graphics-symbol" aria-roledescription="point" transform="translate(155,131.25)" d="M9.534246265534147,0A9.534246265534147,9.534246265534147,0,1,1,-9.534246265534147,0A9.534246265534147,9.534246265534147,0,1,1,9.534246265534147,0" fill="#676A86" stroke="#676A86" stroke-width="2" opacity="0.7"/><path aria-label="data: climate; value: 68; year: 1990" role="graphics-symbol" aria-roledescription="point" transform="translate(155,18.75)" d="M6.066147718952132,0A6.066147718952132,6.066147718952132,0,1,1,-6.066147718952132,0A6.066147718952132,6.066147718952132,0,1,1,6.066147718952132,0" fill="#179FDB" stroke="#179FDB" stroke-width="2" opacity="0.7"/><path aria-label="data: geo; value: 49; year: 1990" role="graphics-symbol" aria-roledescription="point" transform="translate(155,56.25)" d="M4.940947577435219,0A4.940947577435219,4.940947577435219,0,1,1,-4.940947577435219,0A4.940947577435219,4.940947577435219,0,1,1,4.940947577435219,0" fill="#0063AF" stroke="#0063AF" stroke-width="2" opacity="0.7"/><path aria-label="data: hydro; value: 116; year: 1991" role="graphics-symbol" aria-roledescription="point" transform="translate(170.5,93.75)" d="M8.25148695915088,0A8.25148695915088,8.25148695915088,0,1,1,-8.25148695915088,0A8.25148695915088,8.25148695915088,0,1,1,8.25148695915088,0" fill="#36B7B4" stroke="#36B7B4" stroke-width="2" opacity="0.7"/><path aria-label="data: meteo; value: 151; year: 1991" role="graphics-symbol" aria-roledescription="point" transform="translate(170.5,131.25)" d="M9.534246265534147,0A9.534246265534147,9.534246265534147,0,1,1,-9.534246265534147,0A9.534246265534147,9.534246265534147,0,1,1,9.534246265534147,0" fill="#676A86" stroke="#676A86" stroke-width="2" opacity="0.7"/><path aria-label="data: climate; value: 46; year: 1991" role="graphics-symbol" aria-roledescription="point" transform="translate(170.5,18.75)" d="M4.7389247100378595,0A4.7389247100378595,4.7389247100378595,0,1,1,-4.7389247100378595,0A4.7389247100378595,4.7389247100378595,0,1,1,4.7389247100378595,0" fill="#179FDB" stroke="#179FDB" stroke-width="2" opacity="0.7"/><path aria-label="data: geo; value: 42; year: 1991" role="graphics-symbol" aria-roledescription="point" transform="translate(170.5,56.25)" d="M4.455333881989093,0A4.455333881989093,4.455333881989093,0,1,1,-4.455333881989093,0A4.455333881989093,4.455333881989093,0,1,1,4.455333881989093,0" fill="#0063AF" stroke="#0063AF" stroke-width="2" opacity="0.7"/><path aria-label="data: hydro; value: 135; year: 1992" role="graphics-symbol" aria-roledescription="point" transform="translate(186,93.75)" d="M8.97063109386526,0A8.97063109386526,8.97063109386526,0,1,1,-8.97063109386526,0A8.97063109386526,8.97063109386526,0,1,1,8.97063109386526,0" fill="#36B7B4" stroke="#36B7B4" stroke-width="2" opacity="0.7"/><path aria-label="data: meteo; value: 166; year: 1992" role="graphics-symbol" aria-roledescription="point" transform="translate(186,131.25)" d="M10.033923939796914,0A10.033923939796914,10.033923939796914,0,1,1,-10.033923939796914,0A10.033923939796914,10.033923939796914,0,1,1,10.033923939796914,0" fill="#676A86" stroke="#676A86" stroke-width="2" opacity="0.7"/><path aria-label="data: climate; value: 70; year: 1992" role="graphics-symbol" aria-roledescription="point" transform="translate(186,18.75)" d="M6.1726697507522506,0A6.1726697507522506,6.1726697507522506,0,1,1,-6.1726697507522506,0A6.1726697507522506,6.1726697507522506,0,1,1,6.1726697507522506,0" fill="#179FDB" stroke="#179FDB" stroke-width="2" opacity="0.7"/><path aria-label="data: geo; value: 40; year: 1992" role="graphics-symbol" aria-roledescription="point" transform="translate(186,56.25)" d="M4.306541105840776,0A4.306541105840776,4.306541105840776,0,1,1,-4.306541105840776,0A4.306541105840776,4.306541105840776,0,1,1,4.306541105840776,0" fill="#0063AF" stroke="#0063AF" stroke-width="2" opacity="0.7"/><path aria-label="data: hydro; value: 210; year: 1993" role="graphics-symbol" aria-roledescription="point" transform="translate(201.5,93.75)" d="M11.373702612215212,0A11.373702612215212,11.373702612215212,0,1,1,-11.373702612215212,0A11.373702612215212,11.373702612215212,0,1,1,11.373702612215212,0" fill="#36B7B4" stroke="#36B7B4" stroke-width="2" opacity="0.7"/><path aria-label="data: meteo; value: 195; year: 1993" role="graphics-symbol" aria-roledescription="point" transform="translate(201.5,131.25)" d="M10.935416468216166,0A10.935416468216166,10.935416468216166,0,1,1,-10.935416468216166,0A10.935416468216166,10.935416468216166,0,1,1,10.935416468216166,0" fill="#676A86" stroke="#676A86" stroke-width="2" opacity="0.7"/><path aria-label="data: climate; value: 47; year: 1993" role="graphics-symbol" aria-roledescription="point" transform="translate(201.5,18.75)" d="M4.807209092525439,0A4.807209092525439,4.807209092525439,0,1,1,-4.807209092525439,0A4.807209092525439,4.807209092525439,0,1,1,4.807209092525439,0" fill="#179FDB" stroke="#179FDB" stroke-width="2" opacity="0.7"/><path aria-label="data: geo; value: 40; year: 1993" role="graphics-symbol" aria-roledescription="point" transform="translate(201.5,56.25)" d="M4.306541105840776,0A4.306541105840776,4.306541105840776,0,1,1,-4.306541105840776,0A4.306541105840776,4.306541105840776,0,1,1,4.306541105840776,0" fill="#0063AF" stroke="#0063AF" stroke-width="2" opacity="0.7"/><path aria-label="data: hydro; value: 177; year: 1994" role="graphics-symbol" aria-roledescription="point" transform="translate(217,93.75)" d="M10.385085459446158,0A10.385085459446158,10.385085459446158,0,1,1,-10.385085459446158,0A10.385085459446158,10.385085459446158,0,1,1,10.385085459446158,0" fill="#36B7B4" stroke="#36B7B4" stroke-width="2" opacity="0.7"/><path aria-label="data: meteo; value: 172; year: 1994" role="graphics-symbol" aria-roledescription="point" transform="translate(217,131.25)" d="M10.226961461780363,0A10.226961461780363,10.226961461780363,0,1,1,-10.226961461780363,0A10.226961461780363,10.226961461780363,0,1,1,10.226961461780363,0" fill="#676A86" stroke="#676A86" stroke-width="2" opacity="0.7"/><path aria-label="data: climate; value: 69; year: 1994" role="graphics-symbol" aria-roledescription="point" transform="translate(217,18.75)" d="M6.119640512317697,0A6.119640512317697,6.119640512317697,0,1,1,-6.119640512317697,0A6.119640512317697,6.119640512317697,0,1,1,6.119640512317697,0" fill="#179FDB" stroke="#179FDB" stroke-width="2" opacity="0.7"/><path aria-label="data: geo; value: 39; year: 1994" role="graphics-symbol" aria-roledescription="point" transform="translate(217,56.25)" d="M4.230182554505709,0A4.230182554505709,4.230182554505709,0,1,1,-4.230182554505709,0A4.230182554505709,4.230182554505709,0,1,1,4.230182554505709,0" fill="#0063AF" stroke="#0063AF" stroke-width="2" opacity="0.7"/><path aria-label="data: hydro; value: 204; year: 1995" role="graphics-symbol" aria-roledescription="point" transform="translate(232.5,93.75)" d="M11.20044641967453,0A11.20044641967453,11.20044641967453,0,1,1,-11.20044641967453,0A11.20044641967453,11.20044641967453,0,1,1,11.20044641967453,0" fill="#36B7B4" stroke="#36B7B4" stroke-width="2" opacity="0.7"/><path aria-label="data: meteo; value: 165; year: 1995" role="graphics-symbol" aria-roledescription="point" transform="translate(232.5,131.25)" d="M10.001388792451666,0A10.001388792451666,10.001388792451666,0,1,1,-10.001388792451666,0A10.001388792451666,10.001388792451666,0,1,1,10.001388792451666,0" fill="#676A86" stroke="#676A86" stroke-width="2" opacity="0.7"/><path aria-label="data: climate; value: 62; year: 1995" role="graphics-symbol" aria-roledescription="point" transform="translate(232.5,18.75)" d="M5.734722054035142,0A5.734722054035142,5.734722054035142,0,1,1,-5.734722054035142,0A5.734722054035142,5.734722054035142,0,1,1,5.734722054035142,0" fill="#179FDB" stroke="#179FDB" stroke-width="2" opacity="0.7"/><path aria-label="data: geo; value: 50; year: 1995" role="graphics-symbol" aria-roledescription="point" transform="translate(232.5,56.25)" d="M5.006477285958143,0A5.006477285958143,5.006477285958143,0,1,1,-5.006477285958143,0A5.006477285958143,5.006477285958143,0,1,1,5.006477285958143,0" fill="#0063AF" stroke="#0063AF" stroke-width="2" opacity="0.7"/><path aria-label="data: hydro; value: 176; year: 1996" role="graphics-symbol" aria-roledescription="point" transform="translate(248,93.75)" d="M10.353653854951311,0A10.353653854951311,10.353653854951311,0,1,1,-10.353653854951311,0A10.353653854951311,10.353653854951311,0,1,1,10.353653854951311,0" fill="#36B7B4" stroke="#36B7B4" stroke-width="2" opacity="0.7"/><path aria-label="data: meteo; value: 190; year: 1996" role="graphics-symbol" aria-roledescription="point" transform="translate(248,131.25)" d="M10.785363882320988,0A10.785363882320988,10.785363882320988,0,1,1,-10.785363882320988,0A10.785363882320988,10.785363882320988,0,1,1,10.785363882320988,0" fill="#676A86" stroke="#676A86" stroke-width="2" opacity="0.7"/><path aria-label="data: climate; value: 52; year: 1996" role="graphics-symbol" aria-roledescription="point" transform="translate(248,18.75)" d="M5.1350285801072735,0A5.1350285801072735,5.1350285801072735,0,1,1,-5.1350285801072735,0A5.1350285801072735,5.1350285801072735,0,1,1,5.1350285801072735,0" fill="#179FDB" stroke="#179FDB" stroke-width="2" opacity="0.7"/><path aria-label="data: geo; value: 29; year: 1996" role="graphics-symbol" aria-roledescription="point" transform="translate(248,56.25)" d="M3.3728216564066837,0A3.3728216564066837,3.3728216564066837,0,1,1,-3.3728216564066837,0A3.3728216564066837,3.3728216564066837,0,1,1,3.3728216564066837,0" fill="#0063AF" stroke="#0063AF" stroke-width="2" opacity="0.7"/><path aria-label="data: hydro; value: 151; year: 1997" role="graphics-symbol" aria-roledescription="point" transform="translate(263.5,93.75)" d="M9.534246265534147,0A9.534246265534147,9.534246265534147,0,1,1,-9.534246265534147,0A9.534246265534147,9.534246265534147,0,1,1,9.534246265534147,0" fill="#36B7B4" stroke="#36B7B4" stroke-width="2" opacity="0.7"/><path aria-label="data: meteo; value: 150; year: 1997" role="graphics-symbol" aria-roledescription="point" transform="translate(263.5,131.25)" d="M9.5,0A9.5,9.5,0,1,1,-9.5,0A9.5,9.5,0,1,1,9.5,0" fill="#676A86" stroke="#676A86" stroke-width="2" opacity="0.7"/><path aria-label="data: climate; value: 66; year: 1997" role="graphics-symbol" aria-roledescription="point" transform="translate(263.5,18.75)" d="M5.957721413799444,0A5.957721413799444,5.957721413799444,0,1,1,-5.957721413799444,0A5.957721413799444,5.957721413799444,0,1,1,5.957721413799444,0" fill="#179FDB" stroke="#179FDB" stroke-width="2" opacity="0.7"/><path aria-label="data: geo; value: 47; year: 1997" role="graphics-symbol" aria-roledescription="point" transform="translate(263.5,56.25)" d="M4.807209092525439,0A4.807209092525439,4.807209092525439,0,1,1,-4.807209092525439,0A4.807209092525439,4.807209092525439,0,1,1,4.807209092525439,0" fill="#0063AF" stroke="#0063AF" stroke-width="2" opacity="0.7"/><path aria-label="data: hydro; value: 173; year: 1998" role="graphics-symbol" aria-roledescription="point" transform="translate(279,93.75)" d="M10.258781243042108,0A10.258781243042108,10.258781243042108,0,1,1,-10.258781243042108,0A10.258781243042108,10.258781243042108,0,1,1,10.258781243042108,0" fill="#36B7B4" stroke="#36B7B4" stroke-width="2" opacity="0.7"/><path aria-label="data: meteo; value: 183; year: 1998" role="graphics-symbol" aria-roledescription="point" transform="translate(279,131.25)" d="M10.571712780392359,0A10.571712780392359,10.571712780392359,0,1,1,-10.571712780392359,0A10.571712780392359,10.571712780392359,0,1,1,10.571712780392359,0" fill="#676A86" stroke="#676A86" stroke-width="2" opacity="0.7"/><path aria-label="data: climate; value: 74; year: 1998" role="graphics-symbol" aria-roledescription="point" transform="translate(279,18.75)" d="M6.380380808326354,0A6.380380808326354,6.380380808326354,0,1,1,-6.380380808326354,0A6.380380808326354,6.380380808326354,0,1,1,6.380380808326354,0" fill="#179FDB" stroke="#179FDB" stroke-width="2" opacity="0.7"/><path aria-label="data: geo; value: 37; year: 1998" role="graphics-symbol" aria-roledescription="point" transform="translate(279,56.25)" d="M4.073173301093478,0A4.073173301093478,4.073173301093478,0,1,1,-4.073173301093478,0A4.073173301093478,4.073173301093478,0,1,1,4.073173301093478,0" fill="#0063AF" stroke="#0063AF" stroke-width="2" opacity="0.7"/><path aria-label="data: hydro; value: 187; year: 1999" role="graphics-symbol" aria-roledescription="point" transform="translate(294.5,93.75)" d="M10.694321788618414,0A10.694321788618414,10.694321788618414,0,1,1,-10.694321788618414,0A10.694321788618414,10.694321788618414,0,1,1,10.694321788618414,0" fill="#36B7B4" stroke="#36B7B4" stroke-width="2" opacity="0.7"/><path aria-label="data: meteo; value: 157; year: 1999" role="graphics-symbol" aria-roledescription="point" transform="translate(294.5,131.25)" d="M9.73719482001685,0A9.73719482001685,9.73719482001685,0,1,1,-9.73719482001685,0A9.73719482001685,9.73719482001685,0,1,1,9.73719482001685,0" fill="#676A86" stroke="#676A86" stroke-width="2" opacity="0.7"/><path aria-label="data: climate; value: 58; year: 1999" role="graphics-symbol" aria-roledescription="point" transform="translate(294.5,18.75)" d="M5.50269294342594,0A5.50269294342594,5.50269294342594,0,1,1,-5.50269294342594,0A5.50269294342594,5.50269294342594,0,1,1,5.50269294342594,0" fill="#179FDB" stroke="#179FDB" stroke-width="2" opacity="0.7"/><path aria-label="data: geo; value: 44; year: 1999" role="graphics-symbol" aria-roledescription="point" transform="translate(294.5,56.25)" d="M4.5993155690497804,0A4.5993155690497804,4.5993155690497804,0,1,1,-4.5993155690497804,0A4.5993155690497804,4.5993155690497804,0,1,1,4.5993155690497804,0" fill="#0063AF" stroke="#0063AF" stroke-width="2" opacity="0.7"/><path aria-label="data: hydro; value: 212; year: 2000" role="graphics-symbol" aria-roledescription="point" transform="translate(310,93.75)" d="M11.430871131056232,0A11.430871131056232,11.430871131056232,0,1,1,-11.430871131056232,0A11.430871131056232,11.430871131056232,0,1,1,11.430871131056232,0" fill="#36B7B4" stroke="#36B7B4" stroke-width="2" opacity="0.7"/><path aria-label="data: meteo; value: 191; year: 2000" role="graphics-symbol" aria-roledescription="point" transform="translate(310,131.25)" d="M10.815540944674286,0A10.815540944674286,10.815540944674286,0,1,1,-10.815540944674286,0A10.815540944674286,10.815540944674286,0,1,1,10.815540944674286,0" fill="#676A86" stroke="#676A86" stroke-width="2" opacity="0.7"/><path aria-label="data: climate; value: 71; year: 2000" role="graphics-symbol" aria-roledescription="point" transform="translate(310,18.75)" d="M6.22524728052659,0A6.22524728052659,6.22524728052659,0,1,1,-6.22524728052659,0A6.22524728052659,6.22524728052659,0,1,1,6.22524728052659,0" fill="#179FDB" stroke="#179FDB" stroke-width="2" opacity="0.7"/><path aria-label="data: geo; value: 41; year: 2000" role="graphics-symbol" aria-roledescription="point" transform="translate(310,56.25)" d="M4.381569142230686,0A4.381569142230686,4.381569142230686,0,1,1,-4.381569142230686,0A4.381569142230686,4.381569142230686,0,1,1,4.381569142230686,0" fill="#0063AF" stroke="#0063AF" stroke-width="2" opacity="0.7"/><path aria-label="data: hydro; value: 181; year: 2001" role="graphics-symbol" aria-roledescription="point" transform="translate(325.5,93.75)" d="M10.509871902521335,0A10.509871902521335,10.509871902521335,0,1,1,-10.509871902521335,0A10.509871902521335,10.509871902521335,0,1,1,10.509871902521335,0" fill="#36B7B4" stroke="#36B7B4" stroke-width="2" opacity="0.7"/><path aria-label="data: meteo; value: 170; year: 2001" role="graphics-symbol" aria-roledescription="point" transform="translate(325.5,131.25)" d="M10.163023026493496,0A10.163023026493496,10.163023026493496,0,1,1,-10.163023026493496,0A10.163023026493496,10.163023026493496,0,1,1,10.163023026493496,0" fill="#676A86" stroke="#676A86" stroke-width="2" opacity="0.7"/><path aria-label="data: climate; value: 61; year: 2001" role="graphics-symbol" aria-roledescription="point" transform="translate(325.5,18.75)" d="M5.677603824254136,0A5.677603824254136,5.677603824254136,0,1,1,-5.677603824254136,0A5.677603824254136,5.677603824254136,0,1,1,5.677603824254136,0" fill="#179FDB" stroke="#179FDB" stroke-width="2" opacity="0.7"/><path aria-label="data: geo; value: 31; year: 2001" role="graphics-symbol" aria-roledescription="point" transform="translate(325.5,56.25)" d="M3.5608467573920715,0A3.5608467573920715,3.5608467573920715,0,1,1,-3.5608467573920715,0A3.5608467573920715,3.5608467573920715,0,1,1,3.5608467573920715,0" fill="#0063AF" stroke="#0063AF" stroke-width="2" opacity="0.7"/><path aria-label="data: hydro; value: 176; year: 2002" role="graphics-symbol" aria-roledescription="point" transform="translate(341,93.75)" d="M10.353653854951311,0A10.353653854951311,10.353653854951311,0,1,1,-10.353653854951311,0A10.353653854951311,10.353653854951311,0,1,1,10.353653854951311,0" fill="#36B7B4" stroke="#36B7B4" stroke-width="2" opacity="0.7"/><path aria-label="data: meteo; value: 168; year: 2002" role="graphics-symbol" aria-roledescription="point" transform="translate(341,131.25)" d="M10.09867978170084,0A10.09867978170084,10.09867978170084,0,1,1,-10.09867978170084,0A10.09867978170084,10.09867978170084,0,1,1,10.09867978170084,0" fill="#676A86" stroke="#676A86" stroke-width="2" opacity="0.7"/><path aria-label="data: climate; value: 44; year: 2002" role="graphics-symbol" aria-roledescription="point" transform="translate(341,18.75)" d="M4.5993155690497804,0A4.5993155690497804,4.5993155690497804,0,1,1,-4.5993155690497804,0A4.5993155690497804,4.5993155690497804,0,1,1,4.5993155690497804,0" fill="#179FDB" stroke="#179FDB" stroke-width="2" opacity="0.7"/><path aria-label="data: geo; value: 43; year: 2002" role="graphics-symbol" aria-roledescription="point" transform="translate(341,56.25)" d="M4.52789706727658,0A4.52789706727658,4.52789706727658,0,1,1,-4.52789706727658,0A4.52789706727658,4.52789706727658,0,1,1,4.52789706727658,0" fill="#0063AF" stroke="#0063AF" stroke-width="2" opacity="0.7"/><path aria-label="data: hydro; value: 172; year: 2003" role="graphics-symbol" aria-roledescription="point" transform="translate(356.5,93.75)" d="M10.226961461780363,0A10.226961461780363,10.226961461780363,0,1,1,-10.226961461780363,0A10.226961461780363,10.226961461780363,0,1,1,10.226961461780363,0" fill="#36B7B4" stroke="#36B7B4" stroke-width="2" opacity="0.7"/><path aria-label="data: meteo; value: 182; year: 2003" role="graphics-symbol" aria-roledescription="point" transform="translate(356.5,131.25)" d="M10.540837692482475,0A10.540837692482475,10.540837692482475,0,1,1,-10.540837692482475,0A10.540837692482475,10.540837692482475,0,1,1,10.540837692482475,0" fill="#676A86" stroke="#676A86" stroke-width="2" opacity="0.7"/><path aria-label="data: climate; value: 35; year: 2003" role="graphics-symbol" aria-roledescription="point" transform="translate(356.5,18.75)" d="M3.909864068869535,0A3.909864068869535,3.909864068869535,0,1,1,-3.909864068869535,0A3.909864068869535,3.909864068869535,0,1,1,3.909864068869535,0" fill="#179FDB" stroke="#179FDB" stroke-width="2" opacity="0.7"/><path aria-label="data: geo; value: 43; year: 2003" role="graphics-symbol" aria-roledescription="point" transform="translate(356.5,56.25)" d="M4.52789706727658,0A4.52789706727658,4.52789706727658,0,1,1,-4.52789706727658,0A4.52789706727658,4.52789706727658,0,1,1,4.52789706727658,0" fill="#0063AF" stroke="#0063AF" stroke-width="2" opacity="0.7"/><path aria-label="data: hydro; value: 131; year: 2004" role="graphics-symbol" aria-roledescription="point" transform="translate(372,93.75)" d="M8.824104193334007,0A8.824104193334007,8.824104193334007,0,1,1,-8.824104193334007,0A8.824104193334007,8.824104193334007,0,1,1,8.824104193334007,0" fill="#36B7B4" stroke="#36B7B4" stroke-width="2" opacity="0.7"/><path aria-label="data: meteo; value: 179; year: 2004" role="graphics-symbol" aria-roledescription="point" transform="translate(372,131.25)" d="M10.447664988106371,0A10.447664988106371,10.447664988106371,0,1,1,-10.447664988106371,0A10.447664988106371,10.447664988106371,0,1,1,10.447664988106371,0" fill="#676A86" stroke="#676A86" stroke-width="2" opacity="0.7"/><path aria-label="data: climate; value: 34; year: 2004" role="graphics-symbol" aria-roledescription="point" transform="translate(372,18.75)" d="M3.825596056196366,0A3.825596056196366,3.825596056196366,0,1,1,-3.825596056196366,0A3.825596056196366,3.825596056196366,0,1,1,3.825596056196366,0" fill="#179FDB" stroke="#179FDB" stroke-width="2" opacity="0.7"/><path aria-label="data: geo; value: 42; year: 2004" role="graphics-symbol" aria-roledescription="point" transform="translate(372,56.25)" d="M4.455333881989093,0A4.455333881989093,4.455333881989093,0,1,1,-4.455333881989093,0A4.455333881989093,4.455333881989093,0,1,1,4.455333881989093,0" fill="#0063AF" stroke="#0063AF" stroke-width="2" opacity="0.7"/><path aria-label="data: hydro; value: 179; year: 2005" role="graphics-symbol" aria-roledescription="point" transform="translate(387.5,93.75)" d="M10.447664988106371,0A10.447664988106371,10.447664988106371,0,1,1,-10.447664988106371,0A10.447664988106371,10.447664988106371,0,1,1,10.447664988106371,0" fill="#36B7B4" stroke="#36B7B4" stroke-width="2" opacity="0.7"/><path aria-label="data: meteo; value: 187; year: 2005" role="graphics-symbol" aria-roledescription="point" transform="translate(387.5,131.25)" d="M10.694321788618414,0A10.694321788618414,10.694321788618414,0,1,1,-10.694321788618414,0A10.694321788618414,10.694321788618414,0,1,1,10.694321788618414,0" fill="#676A86" stroke="#676A86" stroke-width="2" opacity="0.7"/><path aria-label="data: climate; value: 46; year: 2005" role="graphics-symbol" aria-roledescription="point" transform="translate(387.5,18.75)" d="M4.7389247100378595,0A4.7389247100378595,4.7389247100378595,0,1,1,-4.7389247100378595,0A4.7389247100378595,4.7389247100378595,0,1,1,4.7389247100378595,0" fill="#179FDB" stroke="#179FDB" stroke-width="2" opacity="0.7"/><path aria-label="data: geo; value: 36; year: 2005" role="graphics-symbol" aria-roledescription="point" transform="translate(387.5,56.25)" d="M3.992353803070175,0A3.992353803070175,3.992353803070175,0,1,1,-3.992353803070175,0A3.992353803070175,3.992353803070175,0,1,1,3.992353803070175,0" fill="#0063AF" stroke="#0063AF" stroke-width="2" opacity="0.7"/><path aria-label="data: hydro; value: 245; year: 2006" role="graphics-symbol" aria-roledescription="point" transform="translate(403,93.75)" d="M12.335960681111379,0A12.335960681111379,12.335960681111379,0,1,1,-12.335960681111379,0A12.335960681111379,12.335960681111379,0,1,1,12.335960681111379,0" fill="#36B7B4" stroke="#36B7B4" stroke-width="2" opacity="0.7"/><path aria-label="data: meteo; value: 197; year: 2006" role="graphics-symbol" aria-roledescription="point" transform="translate(403,131.25)" d="M10.994864120899223,0A10.994864120899223,10.994864120899223,0,1,1,-10.994864120899223,0A10.994864120899223,10.994864120899223,0,1,1,10.994864120899223,0" fill="#676A86" stroke="#676A86" stroke-width="2" opacity="0.7"/><path aria-label="data: climate; value: 67; year: 2006" role="graphics-symbol" aria-roledescription="point" transform="translate(403,18.75)" d="M6.012178997359967,0A6.012178997359967,6.012178997359967,0,1,1,-6.012178997359967,0A6.012178997359967,6.012178997359967,0,1,1,6.012178997359967,0" fill="#179FDB" stroke="#179FDB" stroke-width="2" opacity="0.7"/><path aria-label="data: geo; value: 40; year: 2006" role="graphics-symbol" aria-roledescription="point" transform="translate(403,56.25)" d="M4.306541105840776,0A4.306541105840776,4.306541105840776,0,1,1,-4.306541105840776,0A4.306541105840776,4.306541105840776,0,1,1,4.306541105840776,0" fill="#0063AF" stroke="#0063AF" stroke-width="2" opacity="0.7"/><path aria-label="data: hydro; value: 242; year: 2007" role="graphics-symbol" aria-roledescription="point" transform="translate(418.5,93.75)" d="M12.256441994737722,0A12.256441994737722,12.256441994737722,0,1,1,-12.256441994737722,0A12.256441994737722,12.256441994737722,0,1,1,12.256441994737722,0" fill="#36B7B4" stroke="#36B7B4" stroke-width="2" opacity="0.7"/><path aria-label="data: meteo; value: 256; year: 2007" role="graphics-symbol" aria-roledescription="point" transform="translate(418.5,131.25)" d="M12.623244285693607,0A12.623244285693607,12.623244285693607,0,1,1,-12.623244285693607,0A12.623244285693607,12.623244285693607,0,1,1,12.623244285693607,0" fill="#676A86" stroke="#676A86" stroke-width="2" opacity="0.7"/><path aria-label="data: climate; value: 65; year: 2007" role="graphics-symbol" aria-roledescription="point" transform="translate(418.5,18.75)" d="M5.90276143788588,0A5.90276143788588,5.90276143788588,0,1,1,-5.90276143788588,0A5.90276143788588,5.90276143788588,0,1,1,5.90276143788588,0" fill="#179FDB" stroke="#179FDB" stroke-width="2" opacity="0.7"/><path aria-label="data: geo; value: 40; year: 2007" role="graphics-symbol" aria-roledescription="point" transform="translate(418.5,56.25)" d="M4.306541105840776,0A4.306541105840776,4.306541105840776,0,1,1,-4.306541105840776,0A4.306541105840776,4.306541105840776,0,1,1,4.306541105840776,0" fill="#0063AF" stroke="#0063AF" stroke-width="2" opacity="0.7"/><path aria-label="data: hydro; value: 229; year: 2008" role="graphics-symbol" aria-roledescription="point" transform="translate(434,93.75)" d="M11.90572535783924,0A11.90572535783924,11.90572535783924,0,1,1,-11.90572535783924,0A11.90572535783924,11.90572535783924,0,1,1,11.90572535783924,0" fill="#36B7B4" stroke="#36B7B4" stroke-width="2" opacity="0.7"/><path aria-label="data: meteo; value: 166; year: 2008" role="graphics-symbol" aria-roledescription="point" transform="translate(434,131.25)" d="M10.033923939796914,0A10.033923939796914,10.033923939796914,0,1,1,-10.033923939796914,0A10.033923939796914,10.033923939796914,0,1,1,10.033923939796914,0" fill="#676A86" stroke="#676A86" stroke-width="2" opacity="0.7"/><path aria-label="data: climate; value: 51; year: 2008" role="graphics-symbol" aria-roledescription="point" transform="translate(434,18.75)" d="M5.071160288007732,0A5.071160288007732,5.071160288007732,0,1,1,-5.071160288007732,0A5.071160288007732,5.071160288007732,0,1,1,5.071160288007732,0" fill="#179FDB" stroke="#179FDB" stroke-width="2" opacity="0.7"/><path aria-label="data: geo; value: 46; year: 2008" role="graphics-symbol" aria-roledescription="point" transform="translate(434,56.25)" d="M4.7389247100378595,0A4.7389247100378595,4.7389247100378595,0,1,1,-4.7389247100378595,0A4.7389247100378595,4.7389247100378595,0,1,1,4.7389247100378595,0" fill="#0063AF" stroke="#0063AF" stroke-width="2" opacity="0.7"/><path aria-label="data: hydro; value: 230; year: 2009" role="graphics-symbol" aria-roledescription="point" transform="translate(449.5,93.75)" d="M11.933069519119886,0A11.933069519119886,11.933069519119886,0,1,1,-11.933069519119886,0A11.933069519119886,11.933069519119886,0,1,1,11.933069519119886,0" fill="#36B7B4" stroke="#36B7B4" stroke-width="2" opacity="0.7"/><path aria-label="data: meteo; value: 200; year: 2009" role="graphics-symbol" aria-roledescription="point" transform="translate(449.5,131.25)" d="M11.083437760577384,0A11.083437760577384,11.083437760577384,0,1,1,-11.083437760577384,0A11.083437760577384,11.083437760577384,0,1,1,11.083437760577384,0" fill="#676A86" stroke="#676A86" stroke-width="2" opacity="0.7"/><path aria-label="data: climate; value: 59; year: 2009" role="graphics-symbol" aria-roledescription="point" transform="translate(449.5,18.75)" d="M5.561607814425742,0A5.561607814425742,5.561607814425742,0,1,1,-5.561607814425742,0A5.561607814425742,5.561607814425742,0,1,1,5.561607814425742,0" fill="#179FDB" stroke="#179FDB" stroke-width="2" opacity="0.7"/><path aria-label="data: geo; value: 33; year: 2009" role="graphics-symbol" aria-roledescription="point" transform="translate(449.5,56.25)" d="M3.739429546512855,0A3.739429546512855,3.739429546512855,0,1,1,-3.739429546512855,0A3.739429546512855,3.739429546512855,0,1,1,3.739429546512855,0" fill="#0063AF" stroke="#0063AF" stroke-width="2" opacity="0.7"/><path aria-label="data: hydro; value: 281; year: 2010" role="graphics-symbol" aria-roledescription="point" transform="translate(465,93.75)" d="M13.25302201735863,0A13.25302201735863,13.25302201735863,0,1,1,-13.25302201735863,0A13.25302201735863,13.25302201735863,0,1,1,13.25302201735863,0" fill="#36B7B4" stroke="#36B7B4" stroke-width="2" opacity="0.7"/><path aria-label="data: meteo; value: 192; year: 2010" role="graphics-symbol" aria-roledescription="point" transform="translate(465,131.25)" d="M10.845634042220759,0A10.845634042220759,10.845634042220759,0,1,1,-10.845634042220759,0A10.845634042220759,10.845634042220759,0,1,1,10.845634042220759,0" fill="#676A86" stroke="#676A86" stroke-width="2" opacity="0.7"/><path aria-label="data: climate; value: 46; year: 2010" role="graphics-symbol" aria-roledescription="point" transform="translate(465,18.75)" d="M4.7389247100378595,0A4.7389247100378595,4.7389247100378595,0,1,1,-4.7389247100378595,0A4.7389247100378595,4.7389247100378595,0,1,1,4.7389247100378595,0" fill="#179FDB" stroke="#179FDB" stroke-width="2" opacity="0.7"/><path aria-label="data: geo; value: 44; year: 2010" role="graphics-symbol" aria-roledescription="point" transform="translate(465,56.25)" d="M4.5993155690497804,0A4.5993155690497804,4.5993155690497804,0,1,1,-4.5993155690497804,0A4.5993155690497804,4.5993155690497804,0,1,1,4.5993155690497804,0" fill="#0063AF" stroke="#0063AF" stroke-width="2" opacity="0.7"/><path aria-label="data: hydro; value: 243; year: 2011" role="graphics-symbol" aria-roledescription="point" transform="translate(480.5,93.75)" d="M12.28300542303154,0A12.28300542303154,12.28300542303154,0,1,1,-12.28300542303154,0A12.28300542303154,12.28300542303154,0,1,1,12.28300542303154,0" fill="#36B7B4" stroke="#36B7B4" stroke-width="2" opacity="0.7"/><path aria-label="data: meteo; value: 182; year: 2011" role="graphics-symbol" aria-roledescription="point" transform="translate(480.5,131.25)" d="M10.540837692482475,0A10.540837692482475,10.540837692482475,0,1,1,-10.540837692482475,0A10.540837692482475,10.540837692482475,0,1,1,10.540837692482475,0" fill="#676A86" stroke="#676A86" stroke-width="2" opacity="0.7"/><path aria-label="data: climate; value: 62; year: 2011" role="graphics-symbol" aria-roledescription="point" transform="translate(480.5,18.75)" d="M5.734722054035142,0A5.734722054035142,5.734722054035142,0,1,1,-5.734722054035142,0A5.734722054035142,5.734722054035142,0,1,1,5.734722054035142,0" fill="#179FDB" stroke="#179FDB" stroke-width="2" opacity="0.7"/><path aria-label="data: geo; value: 42; year: 2011" role="graphics-symbol" aria-roledescription="point" transform="translate(480.5,56.25)" d="M4.455333881989093,0A4.455333881989093,4.455333881989093,0,1,1,-4.455333881989093,0A4.455333881989093,4.455333881989093,0,1,1,4.455333881989093,0" fill="#0063AF" stroke="#0063AF" stroke-width="2" opacity="0.7"/><path aria-label="data: hydro; value: 265; year: 2012" role="graphics-symbol" aria-roledescription="point" transform="translate(496,93.75)" d="M12.853519477674702,0A12.853519477674702,12.853519477674702,0,1,1,-12.853519477674702,0A12.853519477674702,12.853519477674702,0,1,1,12.853519477674702,0" fill="#36B7B4" stroke="#36B7B4" stroke-width="2" opacity="0.7"/><path aria-label="data: meteo; value: 258; year: 2012" role="graphics-symbol" aria-roledescription="point" transform="translate(496,131.25)" d="M12.674778104566565,0A12.674778104566565,12.674778104566565,0,1,1,-12.674778104566565,0A12.674778104566565,12.674778104566565,0,1,1,12.674778104566565,0" fill="#676A86" stroke="#676A86" stroke-width="2" opacity="0.7"/><path aria-label="data: climate; value: 83; year: 2012" role="graphics-symbol" aria-roledescription="point" transform="translate(496,18.75)" d="M6.824655736806504,0A6.824655736806504,6.824655736806504,0,1,1,-6.824655736806504,0A6.824655736806504,6.824655736806504,0,1,1,6.824655736806504,0" fill="#179FDB" stroke="#179FDB" stroke-width="2" opacity="0.7"/><path aria-label="data: geo; value: 41; year: 2012" role="graphics-symbol" aria-roledescription="point" transform="translate(496,56.25)" d="M4.381569142230686,0A4.381569142230686,4.381569142230686,0,1,1,-4.381569142230686,0A4.381569142230686,4.381569142230686,0,1,1,4.381569142230686,0" fill="#0063AF" stroke="#0063AF" stroke-width="2" opacity="0.7"/><path aria-label="data: hydro; value: 234; year: 2013" role="graphics-symbol" aria-roledescription="point" transform="translate(511.5,93.75)" d="M12.041825258471224,0A12.041825258471224,12.041825258471224,0,1,1,-12.041825258471224,0A12.041825258471224,12.041825258471224,0,1,1,12.041825258471224,0" fill="#36B7B4" stroke="#36B7B4" stroke-width="2" opacity="0.7"/><path aria-label="data: meteo; value: 227; year: 2013" role="graphics-symbol" aria-roledescription="point" transform="translate(511.5,131.25)" d="M11.850847758392334,0A11.850847758392334,11.850847758392334,0,1,1,-11.850847758392334,0A11.850847758392334,11.850847758392334,0,1,1,11.850847758392334,0" fill="#676A86" stroke="#676A86" stroke-width="2" opacity="0.7"/><path aria-label="data: climate; value: 68; year: 2013" role="graphics-symbol" aria-roledescription="point" transform="translate(511.5,18.75)" d="M6.066147718952132,0A6.066147718952132,6.066147718952132,0,1,1,-6.066147718952132,0A6.066147718952132,6.066147718952132,0,1,1,6.066147718952132,0" fill="#179FDB" stroke="#179FDB" stroke-width="2" opacity="0.7"/><path aria-label="data: geo; value: 54; year: 2013" role="graphics-symbol" aria-roledescription="point" transform="translate(511.5,56.25)" d="M5.260439356386709,0A5.260439356386709,5.260439356386709,0,1,1,-5.260439356386709,0A5.260439356386709,5.260439356386709,0,1,1,5.260439356386709,0" fill="#0063AF" stroke="#0063AF" stroke-width="2" opacity="0.7"/><path aria-label="data: hydro; value: 284; year: 2014" role="graphics-symbol" aria-roledescription="point" transform="translate(527,93.75)" d="M13.3265955197923,0A13.3265955197923,13.3265955197923,0,1,1,-13.3265955197923,0A13.3265955197923,13.3265955197923,0,1,1,13.3265955197923,0" fill="#36B7B4" stroke="#36B7B4" stroke-width="2" opacity="0.7"/><path aria-label="data: meteo; value: 263; year: 2014" role="graphics-symbol" aria-roledescription="point" transform="translate(527,131.25)" d="M12.80270515396099,0A12.80270515396099,12.80270515396099,0,1,1,-12.80270515396099,0A12.80270515396099,12.80270515396099,0,1,1,12.80270515396099,0" fill="#676A86" stroke="#676A86" stroke-width="2" opacity="0.7"/><path aria-label="data: climate; value: 73; year: 2014" role="graphics-symbol" aria-roledescription="point" transform="translate(527,18.75)" d="M6.329092147173037,0A6.329092147173037,6.329092147173037,0,1,1,-6.329092147173037,0A6.329092147173037,6.329092147173037,0,1,1,6.329092147173037,0" fill="#179FDB" stroke="#179FDB" stroke-width="2" opacity="0.7"/><path aria-label="data: geo; value: 56; year: 2014" role="graphics-symbol" aria-roledescription="point" transform="translate(527,56.25)" d="M5.382929121391617,0A5.382929121391617,5.382929121391617,0,1,1,-5.382929121391617,0A5.382929121391617,5.382929121391617,0,1,1,5.382929121391617,0" fill="#0063AF" stroke="#0063AF" stroke-width="2" opacity="0.7"/><path aria-label="data: hydro; value: 313; year: 2015" role="graphics-symbol" aria-roledescription="point" transform="translate(542.5,93.75)" d="M14.017911822088617,0A14.017911822088617,14.017911822088617,0,1,1,-14.017911822088617,0A14.017911822088617,14.017911822088617,0,1,1,14.017911822088617,0" fill="#36B7B4" stroke="#36B7B4" stroke-width="2" opacity="0.7"/><path aria-label="data: meteo; value: 281; year: 2015" role="graphics-symbol" aria-roledescription="point" transform="translate(542.5,131.25)" d="M13.25302201735863,0A13.25302201735863,13.25302201735863,0,1,1,-13.25302201735863,0A13.25302201735863,13.25302201735863,0,1,1,13.25302201735863,0" fill="#676A86" stroke="#676A86" stroke-width="2" opacity="0.7"/><path aria-label="data: climate; value: 90; year: 2015" role="graphics-symbol" aria-roledescription="point" transform="translate(542.5,18.75)" d="M7.151145984308312,0A7.151145984308312,7.151145984308312,0,1,1,-7.151145984308312,0A7.151145984308312,7.151145984308312,0,1,1,7.151145984308312,0" fill="#179FDB" stroke="#179FDB" stroke-width="2" opacity="0.7"/><path aria-label="data: geo; value: 43; year: 2015" role="graphics-symbol" aria-roledescription="point" transform="translate(542.5,56.25)" d="M4.52789706727658,0A4.52789706727658,4.52789706727658,0,1,1,-4.52789706727658,0A4.52789706727658,4.52789706727658,0,1,1,4.52789706727658,0" fill="#0063AF" stroke="#0063AF" stroke-width="2" opacity="0.7"/><path aria-label="data: hydro; value: 390; year: 2016" role="graphics-symbol" aria-roledescription="point" transform="translate(558,93.75)" d="M15.706509620041126,0A15.706509620041126,15.706509620041126,0,1,1,-15.706509620041126,0A15.706509620041126,15.706509620041126,0,1,1,15.706509620041126,0" fill="#36B7B4" stroke="#36B7B4" stroke-width="2" opacity="0.7"/><path aria-label="data: meteo; value: 249; year: 2016" role="graphics-symbol" aria-roledescription="point" transform="translate(558,131.25)" d="M12.441195012270056,0A12.441195012270056,12.441195012270056,0,1,1,-12.441195012270056,0A12.441195012270056,12.441195012270056,0,1,1,12.441195012270056,0" fill="#676A86" stroke="#676A86" stroke-width="2" opacity="0.7"/><path aria-label="data: climate; value: 81; year: 2016" role="graphics-symbol" aria-roledescription="point" transform="translate(558,18.75)" d="M6.728463585561136,0A6.728463585561136,6.728463585561136,0,1,1,-6.728463585561136,0A6.728463585561136,6.728463585561136,0,1,1,6.728463585561136,0" fill="#179FDB" stroke="#179FDB" stroke-width="2" opacity="0.7"/><path aria-label="data: geo; value: 51; year: 2016" role="graphics-symbol" aria-roledescription="point" transform="translate(558,56.25)" d="M5.071160288007732,0A5.071160288007732,5.071160288007732,0,1,1,-5.071160288007732,0A5.071160288007732,5.071160288007732,0,1,1,5.071160288007732,0" fill="#0063AF" stroke="#0063AF" stroke-width="2" opacity="0.7"/><path aria-label="data: hydro; value: 340; year: 2017" role="graphics-symbol" aria-roledescription="point" transform="translate(573.5,93.75)" d="M14.632219648838378,0A14.632219648838378,14.632219648838378,0,1,1,-14.632219648838378,0A14.632219648838378,14.632219648838378,0,1,1,14.632219648838378,0" fill="#36B7B4" stroke="#36B7B4" stroke-width="2" opacity="0.7"/><path aria-label="data: meteo; value: 251; year: 2017" role="graphics-symbol" aria-roledescription="point" transform="translate(573.5,131.25)" d="M12.493479780951224,0A12.493479780951224,12.493479780951224,0,1,1,-12.493479780951224,0A12.493479780951224,12.493479780951224,0,1,1,12.493479780951224,0" fill="#676A86" stroke="#676A86" stroke-width="2" opacity="0.7"/><path aria-label="data: climate; value: 78; year: 2017" role="graphics-symbol" aria-roledescription="point" transform="translate(573.5,18.75)" d="M6.581539840088083,0A6.581539840088083,6.581539840088083,0,1,1,-6.581539840088083,0A6.581539840088083,6.581539840088083,0,1,1,6.581539840088083,0" fill="#179FDB" stroke="#179FDB" stroke-width="2" opacity="0.7"/><path aria-label="data: geo; value: 54; year: 2017" role="graphics-symbol" aria-roledescription="point" transform="translate(573.5,56.25)" d="M5.260439356386709,0A5.260439356386709,5.260439356386709,0,1,1,-5.260439356386709,0A5.260439356386709,5.260439356386709,0,1,1,5.260439356386709,0" fill="#0063AF" stroke="#0063AF" stroke-width="2" opacity="0.7"/><path aria-label="data: hydro; value: 382; year: 2018" role="graphics-symbol" aria-roledescription="point" transform="translate(589,93.75)" d="M15.53961484817528,0A15.53961484817528,15.53961484817528,0,1,1,-15.53961484817528,0A15.53961484817528,15.53961484817528,0,1,1,15.53961484817528,0" fill="#36B7B4" stroke="#36B7B4" stroke-width="2" opacity="0.7"/><path aria-label="data: meteo; value: 359; year: 2018" role="graphics-symbol" aria-roledescription="point" transform="translate(589,131.25)" d="M15.04948627153223,0A15.04948627153223,15.04948627153223,0,1,1,-15.04948627153223,0A15.04948627153223,15.04948627153223,0,1,1,15.04948627153223,0" fill="#676A86" stroke="#676A86" stroke-width="2" opacity="0.7"/><path aria-label="data: climate; value: 57; year: 2018" role="graphics-symbol" aria-roledescription="point" transform="translate(589,18.75)" d="M5.443140433405865,0A5.443140433405865,5.443140433405865,0,1,1,-5.443140433405865,0A5.443140433405865,5.443140433405865,0,1,1,5.443140433405865,0" fill="#179FDB" stroke="#179FDB" stroke-width="2" opacity="0.7"/><path aria-label="data: geo; value: 50; year: 2018" role="graphics-symbol" aria-roledescription="point" transform="translate(589,56.25)" d="M5.006477285958143,0A5.006477285958143,5.006477285958143,0,1,1,-5.006477285958143,0A5.006477285958143,5.006477285958143,0,1,1,5.006477285958143,0" fill="#0063AF" stroke="#0063AF" stroke-width="2" opacity="0.7"/><path aria-label="data: hydro; value: 360; year: 2019" role="graphics-symbol" aria-roledescription="point" transform="translate(604.5,93.75)" d="M15.071127658171065,0A15.071127658171065,15.071127658171065,0,1,1,-15.071127658171065,0A15.071127658171065,15.071127658171065,0,1,1,15.071127658171065,0" fill="#36B7B4" stroke="#36B7B4" stroke-width="2" opacity="0.7"/><path aria-label="data: meteo; value: 320; year: 2019" role="graphics-symbol" aria-roledescription="point" transform="translate(604.5,131.25)" d="M14.179732536786961,0A14.179732536786961,14.179732536786961,0,1,1,-14.179732536786961,0A14.179732536786961,14.179732536786961,0,1,1,14.179732536786961,0" fill="#676A86" stroke="#676A86" stroke-width="2" opacity="0.7"/><path aria-label="data: climate; value: 80; year: 2019" role="graphics-symbol" aria-roledescription="point" transform="translate(604.5,18.75)" d="M6.679848079887025,0A6.679848079887025,6.679848079887025,0,1,1,-6.679848079887025,0A6.679848079887025,6.679848079887025,0,1,1,6.679848079887025,0" fill="#179FDB" stroke="#179FDB" stroke-width="2" opacity="0.7"/><path aria-label="data: geo; value: 60; year: 2019" role="graphics-symbol" aria-roledescription="point" transform="translate(604.5,56.25)" d="M5.619905100029122,0A5.619905100029122,5.619905100029122,0,1,1,-5.619905100029122,0A5.619905100029122,5.619905100029122,0,1,1,5.619905100029122,0" fill="#0063AF" stroke="#0063AF" stroke-width="2" opacity="0.7"/></g><g class="mark-text role-mark layer_1_marks" role="graphics-object" aria-roledescription="text mark container"><text aria-label="d: geo; t: Geophysical events:; x: 1980" role="graphics-symbol" aria-roledescription="text mark" text-anchor="start" transform="translate(-6,42.25)" font-family="Georgia" font-size="12px" font-weight="bold" fill="#0063AF">Geophysical events:</text><text aria-label="d: climate; t: Climatological events:; x: 1980" role="graphics-symbol" aria-roledescription="text mark" text-anchor="start" transform="translate(-6,4.75)" font-family="Georgia" font-size="12px" font-weight="bold" fill="#179FDB">Climatological events:</text><text aria-label="d: meteo; t: Meteorological events:; x: 1980" role="graphics-symbol" aria-roledescription="text mark" text-anchor="start" transform="translate(-6,117.25)" font-family="Georgia" font-size="12px" font-weight="bold" fill="#676A86">Meteorological events:</text><text aria-label="d: hydro; t: Hydrological events:; x: 1980" role="graphics-symbol" aria-roledescription="text mark" text-anchor="start" transform="translate(-6,79.75)" font-family="Georgia" font-size="12px" font-weight="bold" fill="#36B7B4">Hydrological events:</text></g><g class="mark-text role-mark layer_2_marks" role="graphics-object" aria-roledescription="text mark container"><text aria-label="d: geo; t: earthquakes, tsunami, volcanic activity; x: 1987.5" role="graphics-symbol" aria-roledescription="text mark" text-anchor="start" transform="translate(124.25,42.25)" font-family="Georgia" font-size="12px" fill="#0063AF">earthquakes, tsunami, volcanic activity</text><text aria-label="d: climate; t: extreme temperature, drought, wildfire; x: 1988.1" role="graphics-symbol" aria-roledescription="text mark" text-anchor="start" transform="translate(133.5499999999986,4.75)" font-family="Georgia" font-size="12px" fill="#179FDB">extreme temperature, drought, wildfire</text><text aria-label="d: meteo; t: tropical storm, extratropical storm, convective storm, local storm; x: 1988.3" role="graphics-symbol" aria-roledescription="text mark" text-anchor="start" transform="translate(136.6499999999993,117.25)" font-family="Georgia" font-size="12px" fill="#676A86">tropical storm, extratropical storm, convective storm, local storm</text><text aria-label="d: hydro; t: flood, mass movement; x: 1987.6" role="graphics-symbol" aria-roledescription="text mark" text-anchor="start" transform="translate(125.79999999999859,79.75)" font-family="Georgia" font-size="12px" fill="#36B7B4">flood, mass movement</text></g><g class="mark-group role-title"><g transform="translate(-10.97063109386526,-37.25)"><path class="background" aria-hidden="true" d="M0,0h0v0h0Z" pointer-events="none"/><g><g class="mark-text role-title-text" role="graphics-symbol" aria-roledescription="title" aria-label="Title text 'Extreme events are becoming more frequent'" pointer-events="none"><text text-anchor="start" transform="translate(5,-4)" font-family="Georgia" font-size="14px" font-weight="bold" fill="#F4134D" opacity="1">Extreme events are becoming more frequent</text></g><g class="mark-text role-title-subtitle" role="graphics-symbol" aria-roledescription="subtitle" aria-label="Subtitle text 'Circle size is proportional to the number of relevant loss events by peril type and year. Source: Met Office, based on Munich RE'" pointer-events="none"><text text-anchor="start" transform="translate(5,11)" font-family="Georgia" font-size="12px" font-style="italic" fill="#F4134D" opacity="1">Circle size is proportional to the number of relevant loss events by peril type and year. Source: Met Office, based on Munich RE</text></g></g><path class="foreground" aria-hidden="true" d="" pointer-events="none" display="none"/></g></g></g><path class="foreground" aria-hidden="true" d="" display="none"/></g></g></g></svg>