<svg xmlns="http://www.w3.org/2000/svg" xmlns:xlink="http://www.w3.org/1999/xlink" version="1.1" class="marks" width="481" height="381" viewBox="0 0 481 381"><rect width="481" height="381" fill="#122B39"/><g fill="none" stroke-miterlimit="10" transform="translate(5,58)"><g class="mark-group role-frame root" role="graphics-object" aria-roledescription="group mark container"><g transform="translate(0,0)"><path class="background" aria-hidden="true" d="M0,0h400v300h-400Z"/><g><g class="mark-group role-axis" aria-hidden="true"><g transform="translate(0.5,0.5)"><path class="background" aria-hidden="true" d="M0,0h0v0h0Z" pointer-events="none"/><g><g class="mark-rule role-axis-grid" pointer-events="none"><line transform="translate(0,300)" x2="400" y2="0" stroke="#676A86" stroke-opacity="0.1" stroke-width="1" opacity="1"/><line transform="translate(0,267)" x2="400" y2="0" stroke="#676A86" stroke-opacity="0.1" stroke-width="1" opacity="1"/><line transform="translate(0,233)" x2="400" y2="0" stroke="#676A86" stroke-opacity="0.1" stroke-width="1" opacity="1"/><line transform="translate(0,200)" x2="400" y2="0" stroke="#676A86" stroke-opacity="0.1" stroke-width="1" opacity="1"/><line transform="translate(0,167)" x2="400" y2="0" stroke="#676A86" stroke-opacity="0.1" stroke-width="1" opacity="1"/><line transform="translate(0,133)" x2="400" y2="0" stroke="#676A86" stroke-opacity="0.1" stroke-width="1" opacity="1"/><line transform="translate(0,100)" x2="400" y2="0" stroke="#676A86" stroke-opacity="0.1" stroke-width="1" opacity="1"/><line transform="translate(0,67)" x2="400" y2="0" stroke="#676A86" stroke-opacity="0.1" stroke-width="1" opacity="1"/><line transform="translate(0,33)" x2="400" y2="0" stroke="#676A86" stroke-opacity="0.1" stroke-width="1" opacity="1"/><line transform="translate(0,0)" x2="400" y2="0" stroke="#676A86" stroke-opacity="0.1" stroke-width="1" opacity="1"/></g></g><path class="foreground" aria-hidden="true" d="" pointer-events="none" display="none"/></g></g><g class="mark-group role-axis" role="graphics-symbol" aria-roledescription="axis" aria-label="X-axis for a linear scale with values from 1975 to 2025"><g transform="translate(0.5,300.5)"><path class="background" aria-hidden="true" d="M0,0h0v0h0Z" pointer-events="none"/><g><g class="mark-rule role-axis-tick" pointer-events="none"><line transform="translate(40,0)" x2="0" y2="5" stroke="#676A86" stroke-width="1" opacity="1"/><line transform="translate(120,0)" x2="0" y2="5" stroke="#676A86" stroke-width="1" opacity="1"/><line transform="translate(200,0)" x2="0" y2="5" stroke="#676A86" stroke-width="1" opacity="1"/><line transform="translate(280,0)" x2="0" y2="5" stroke="#676A86" stroke-width="1" opacity="1"/><line transform="translate(360,0)" x2="0" y2="5" stroke="#676A86" stroke-width="1" opacity="1"/></g><g class="mark-text role-axis-label" pointer-events="none"><text text-anchor="middle" transform="translate(40,16)" font-family="Georgia" font-size="12px" fill="#676A86" opacity="1">1980</text><text text-anchor="middle" transform="translate(120,16)" font-family="Georgia" font-size="12px" fill="#676A86" opacity="1">1990</text><text text-anchor="middle" transform="translate(200,16)" font-family="Georgia" font-size="12px" fill="#676A86" opacity="1">2000</text><text text-anchor="middle" transform="translate(280,16)" font-family="Georgia" font-size="12px" fill="#676A86" opacity="1">2010</text><text text-anchor="middle" transform="translate(360,16)" font-family="Georgia" font-size="12px" fill="#676A86" opacity="1">2020</text></g><g class="mark-rule role-axis-domain" pointer-events="none"><line transform="translate(0,0)" x2="400" y2="0" stroke="#676A86" stroke-width="1" opacity="1"/></g></g><path class="foreground" aria-hidden="true" d="" pointer-events="none" display="none"/></g></g><g class="mark-group role-axis" role="graphics-symbol" aria-roledescription="axis" aria-label="Y-axis titled 'number of events' for a linear scale with values from 0 to 900"><g transform="translate(0.5,0.5)"><path class="background" aria-hidden="true" d="M0,0h0v0h0Z" pointer-events="none"/><g><g class="mark-text role-axis-label" pointer-events="none"><text text-anchor="start" transform="translate(5,294)" font-family="Georgia" font-size="12px" fill="#676A86" opacity="1">0</text><text text-anchor="start" transform="translate(5,260.66666666666663)" font-family="Georgia" font-size="12px" fill="#676A86" opacity="1">100</text><text text-anchor="start" transform="translate(5,227.33333333333334)" font-family="Georgia" font-size="12px" fill="#676A86" opacity="1">200</text><text text-anchor="start" transform="translate(5,194.00000000000003)" font-family="Georgia" font-size="12px" fill="#676A86" opacity="1">300</text><text text-anchor="start" transform="translate(5,160.66666666666669)" font-family="Georgia" font-size="12px" fill="#676A86" opacity="1">400</text><text text-anchor="start" transform="translate(5,127.33333333333331)" font-family="Georgia" font-size="12px" fill="#676A86" opacity="1">500</text><text text-anchor="start" transform="translate(5,94.00000000000001)" font-family="Georgia" font-size="12px" fill="#676A86" opacity="1">600</text><text text-anchor="start" transform="translate(5,60.66666666666666)" font-family="Georgia" font-size="12px" fill="#676A86" opacity="1">700</text><text text-anchor="start" transform="translate(5,27.33333333333335)" font-family="Georgia" font-size="12px" fill="#676A86" opacity="1">800</text><text text-anchor="start" transform="translate(5,-6)" font-family="Georgia" font-size="12px" fill="#676A86" opacity="1">900</text></g><g class="mark-rule role-axis-domain" pointer-events="none"><line transform="translate(0,300)" x2="0" y2="-300" stroke="#676A86" stroke-width="1" opacity="1"/></g><g class="mark-text role-axis-title" pointer-events="none"><text text-anchor="start" transform="translate(32,-6)" font-family="Georgia" font-size="12px" font-weight="normal" fill="#676A86" opacity="1">number of events</text></g></g><path class="foreground" aria-hidden="true" d="" pointer-events="none" display="none"/></g></g><g class="mark-rect role-mark layer_0_marks" role="graphics-object" aria-roledescription="rect mark container"><path aria-label="data: hydro; year: 1980; value: 59" role="graphics-symbol" aria-roledescription="bar" d="M37.5,235.33333333333334h5v19.666666666666657h-5Z" fill="#36B7B4"/><path aria-label="data: meteo; year: 1980; value: 135" role="graphics-symbol" aria-roledescription="bar" d="M37.5,255h5v45h-5Z" fill="#676A86"/><path aria-label="data: climate; year: 1980; value: 28" role="graphics-symbol" aria-roledescription="bar" d="M37.5,217.00000000000003h5v9.333333333333314h-5Z" fill="#179FDB"/><path aria-label="data: geo; year: 1980; value: 27" role="graphics-symbol" aria-roledescription="bar" d="M37.5,226.33333333333334h5v9h-5Z" fill="#0063AF"/><path aria-label="data: hydro; year: 1981; value: 90" role="graphics-symbol" aria-roledescription="bar" d="M45.5,230.33333333333334h5v29.99999999999997h-5Z" fill="#36B7B4"/><path aria-label="data: meteo; year: 1981; value: 119" role="graphics-symbol" aria-roledescription="bar" d="M45.5,260.3333333333333h5v39.666666666666686h-5Z" fill="#676A86"/><path aria-label="data: climate; year: 1981; value: 22" role="graphics-symbol" aria-roledescription="bar" d="M45.5,214.33333333333334h5v7.333333333333343h-5Z" fill="#179FDB"/><path aria-label="data: geo; year: 1981; value: 26" role="graphics-symbol" aria-roledescription="bar" d="M45.5,221.66666666666669h5v8.666666666666657h-5Z" fill="#0063AF"/><path aria-label="data: hydro; year: 1982; value: 91" role="graphics-symbol" aria-roledescription="bar" d="M53.50000000000001,227.66666666666669h5v30.333333333333314h-5Z" fill="#36B7B4"/><path aria-label="data: meteo; year: 1982; value: 126" role="graphics-symbol" aria-roledescription="bar" d="M53.50000000000001,258h5v42h-5Z" fill="#676A86"/><path aria-label="data: climate; year: 1982; value: 21" role="graphics-symbol" aria-roledescription="bar" d="M53.50000000000001,210h5v7.000000000000028h-5Z" fill="#179FDB"/><path aria-label="data: geo; year: 1982; value: 32" role="graphics-symbol" aria-roledescription="bar" d="M53.50000000000001,217.00000000000003h5v10.666666666666657h-5Z" fill="#0063AF"/><path aria-label="data: hydro; year: 1983; value: 92" role="graphics-symbol" aria-roledescription="bar" d="M61.5,229.33333333333334h5v30.666666666666657h-5Z" fill="#36B7B4"/><path aria-label="data: meteo; year: 1983; value: 120" role="graphics-symbol" aria-roledescription="bar" d="M61.5,260h5v40h-5Z" fill="#676A86"/><path aria-label="data: climate; year: 1983; value: 38" role="graphics-symbol" aria-roledescription="bar" d="M61.5,202h5v12.666666666666657h-5Z" fill="#179FDB"/><path aria-label="data: geo; year: 1983; value: 44" role="graphics-symbol" aria-roledescription="bar" d="M61.5,214.66666666666666h5v14.666666666666686h-5Z" fill="#0063AF"/><path aria-label="data: hydro; year: 1984; value: 72" role="graphics-symbol" aria-roledescription="bar" d="M69.5,241.66666666666669h5v24h-5Z" fill="#36B7B4"/><path aria-label="data: meteo; year: 1984; value: 103" role="graphics-symbol" aria-roledescription="bar" d="M69.5,265.6666666666667h5v34.333333333333314h-5Z" fill="#676A86"/><path aria-label="data: climate; year: 1984; value: 16" role="graphics-symbol" aria-roledescription="bar" d="M69.5,226.66666666666666h5v5.333333333333343h-5Z" fill="#179FDB"/><path aria-label="data: geo; year: 1984; value: 29" role="graphics-symbol" aria-roledescription="bar" d="M69.5,232h5v9.666666666666686h-5Z" fill="#0063AF"/><path aria-label="data: hydro; year: 1985; value: 97" role="graphics-symbol" aria-roledescription="bar" d="M77.5,225h5v32.333333333333314h-5Z" fill="#36B7B4"/><path aria-label="data: meteo; year: 1985; value: 128" role="graphics-symbol" aria-roledescription="bar" d="M77.5,257.3333333333333h5v42.666666666666686h-5Z" fill="#676A86"/><path aria-label="data: climate; year: 1985; value: 26" role="graphics-symbol" aria-roledescription="bar" d="M77.5,205.66666666666663h5v8.666666666666714h-5Z" fill="#179FDB"/><path aria-label="data: geo; year: 1985; value: 32" role="graphics-symbol" aria-roledescription="bar" d="M77.5,214.33333333333334h5v10.666666666666657h-5Z" fill="#0063AF"/><path aria-label="data: hydro; year: 1986; value: 95" role="graphics-symbol" aria-roledescription="bar" d="M85.5,230.33333333333334h5v31.666666666666657h-5Z" fill="#36B7B4"/><path aria-label="data: meteo; year: 1986; value: 114" role="graphics-symbol" aria-roledescription="bar" d="M85.5,262h5v38h-5Z" fill="#676A86"/><path aria-label="data: climate; year: 1986; value: 26" role="graphics-symbol" aria-roledescription="bar" d="M85.5,209.33333333333334h5v8.666666666666657h-5Z" fill="#179FDB"/><path aria-label="data: geo; year: 1986; value: 37" role="graphics-symbol" aria-roledescription="bar" d="M85.5,218h5v12.333333333333343h-5Z" fill="#0063AF"/><path aria-label="data: hydro; year: 1987; value: 144" role="graphics-symbol" aria-roledescription="bar" d="M93.5,201.33333333333334h5v48h-5Z" fill="#36B7B4"/><path aria-label="data: meteo; year: 1987; value: 152" role="graphics-symbol" aria-roledescription="bar" d="M93.5,249.33333333333334h5v50.66666666666666h-5Z" fill="#676A86"/><path aria-label="data: climate; year: 1987; value: 50" role="graphics-symbol" aria-roledescription="bar" d="M93.5,171.33333333333334h5v16.666666666666657h-5Z" fill="#179FDB"/><path aria-label="data: geo; year: 1987; value: 40" role="graphics-symbol" aria-roledescription="bar" d="M93.5,188h5v13.333333333333343h-5Z" fill="#0063AF"/><path aria-label="data: hydro; year: 1988; value: 128" role="graphics-symbol" aria-roledescription="bar" d="M101.5,210h5v42.66666666666666h-5Z" fill="#36B7B4"/><path aria-label="data: meteo; year: 1988; value: 142" role="graphics-symbol" aria-roledescription="bar" d="M101.5,252.66666666666666h5v47.33333333333334h-5Z" fill="#676A86"/><path aria-label="data: climate; year: 1988; value: 49" role="graphics-symbol" aria-roledescription="bar" d="M101.5,183.33333333333334h5v16.333333333333314h-5Z" fill="#179FDB"/><path aria-label="data: geo; year: 1988; value: 31" role="graphics-symbol" aria-roledescription="bar" d="M101.5,199.66666666666666h5v10.333333333333343h-5Z" fill="#0063AF"/><path aria-label="data: hydro; year: 1989; value: 105" role="graphics-symbol" aria-roledescription="bar" d="M109.50000000000001,215.33333333333334h5v35h-5Z" fill="#36B7B4"/><path aria-label="data: meteo; year: 1989; value: 149" role="graphics-symbol" aria-roledescription="bar" d="M109.50000000000001,250.33333333333334h5v49.66666666666666h-5Z" fill="#676A86"/><path aria-label="data: climate; year: 1989; value: 50" role="graphics-symbol" aria-roledescription="bar" d="M109.50000000000001,185.66666666666666h5v16.666666666666657h-5Z" fill="#179FDB"/><path aria-label="data: geo; year: 1989; value: 39" role="graphics-symbol" aria-roledescription="bar" d="M109.50000000000001,202.33333333333331h5v13.000000000000028h-5Z" fill="#0063AF"/><path aria-label="data: hydro; year: 1990; value: 119" role="graphics-symbol" aria-roledescription="bar" d="M117.5,210h5v39.66666666666666h-5Z" fill="#36B7B4"/><path aria-label="data: meteo; year: 1990; value: 151" role="graphics-symbol" aria-roledescription="bar" d="M117.5,249.66666666666666h5v50.33333333333334h-5Z" fill="#676A86"/><path aria-label="data: climate; year: 1990; value: 68" role="graphics-symbol" aria-roledescription="bar" d="M117.5,171.00000000000003h5v22.66666666666663h-5Z" fill="#179FDB"/><path aria-label="data: geo; year: 1990; value: 49" role="graphics-symbol" aria-roledescription="bar" d="M117.5,193.66666666666666h5v16.333333333333343h-5Z" fill="#0063AF"/><path aria-label="data: hydro; year: 1991; value: 116" role="graphics-symbol" aria-roledescription="bar" d="M125.5,211h5v38.66666666666666h-5Z" fill="#36B7B4"/><path aria-label="data: meteo; year: 1991; value: 151" role="graphics-symbol" aria-roledescription="bar" d="M125.5,249.66666666666666h5v50.33333333333334h-5Z" fill="#676A86"/><path aria-label="data: climate; year: 1991; value: 46" role="graphics-symbol" aria-roledescription="bar" d="M125.5,181.66666666666669h5v15.333333333333343h-5Z" fill="#179FDB"/><path aria-label="data: geo; year: 1991; value: 42" role="graphics-symbol" aria-roledescription="bar" d="M125.5,197.00000000000003h5v13.999999999999972h-5Z" fill="#0063AF"/><path aria-label="data: hydro; year: 1992; value: 135" role="graphics-symbol" aria-roledescription="bar" d="M133.5,199.66666666666666h5v45.00000000000003h-5Z" fill="#36B7B4"/><path aria-label="data: meteo; year: 1992; value: 166" role="graphics-symbol" aria-roledescription="bar" d="M133.5,244.66666666666669h5v55.333333333333314h-5Z" fill="#676A86"/><path aria-label="data: climate; year: 1992; value: 70" role="graphics-symbol" aria-roledescription="bar" d="M133.5,163h5v23.333333333333343h-5Z" fill="#179FDB"/><path aria-label="data: geo; year: 1992; value: 40" role="graphics-symbol" aria-roledescription="bar" d="M133.5,186.33333333333334h5v13.333333333333314h-5Z" fill="#0063AF"/><path aria-label="data: hydro; year: 1993; value: 210" role="graphics-symbol" aria-roledescription="bar" d="M141.5,165h5v70h-5Z" fill="#36B7B4"/><path aria-label="data: meteo; year: 1993; value: 195" role="graphics-symbol" aria-roledescription="bar" d="M141.5,235h5v65h-5Z" fill="#676A86"/><path aria-label="data: climate; year: 1993; value: 47" role="graphics-symbol" aria-roledescription="bar" d="M141.5,136h5v15.666666666666657h-5Z" fill="#179FDB"/><path aria-label="data: geo; year: 1993; value: 40" role="graphics-symbol" aria-roledescription="bar" d="M141.5,151.66666666666666h5v13.333333333333343h-5Z" fill="#0063AF"/><path aria-label="data: hydro; year: 1994; value: 177" role="graphics-symbol" aria-roledescription="bar" d="M149.5,183.66666666666666h5v59h-5Z" fill="#36B7B4"/><path aria-label="data: meteo; year: 1994; value: 172" role="graphics-symbol" aria-roledescription="bar" d="M149.5,242.66666666666666h5v57.33333333333334h-5Z" fill="#676A86"/><path aria-label="data: climate; year: 1994; value: 69" role="graphics-symbol" aria-roledescription="bar" d="M149.5,147.66666666666666h5v23h-5Z" fill="#179FDB"/><path aria-label="data: geo; year: 1994; value: 39" role="graphics-symbol" aria-roledescription="bar" d="M149.5,170.66666666666666h5v13h-5Z" fill="#0063AF"/><path aria-label="data: hydro; year: 1995; value: 204" role="graphics-symbol" aria-roledescription="bar" d="M157.5,177.00000000000003h5v67.99999999999997h-5Z" fill="#36B7B4"/><path aria-label="data: meteo; year: 1995; value: 165" role="graphics-symbol" aria-roledescription="bar" d="M157.5,245h5v55h-5Z" fill="#676A86"/><path aria-label="data: climate; year: 1995; value: 62" role="graphics-symbol" aria-roledescription="bar" d="M157.5,139.66666666666666h5v20.666666666666686h-5Z" fill="#179FDB"/><path aria-label="data: geo; year: 1995; value: 50" role="graphics-symbol" aria-roledescription="bar" d="M157.5,160.33333333333334h5v16.666666666666686h-5Z" fill="#0063AF"/><path aria-label="data: hydro; year: 1996; value: 176" role="graphics-symbol" aria-roledescription="bar" d="M165.5,177.99999999999997h5v58.666666666666686h-5Z" fill="#36B7B4"/><path aria-label="data: meteo; year: 1996; value: 190" role="graphics-symbol" aria-roledescription="bar" d="M165.5,236.66666666666666h5v63.33333333333334h-5Z" fill="#676A86"/><path aria-label="data: climate; year: 1996; value: 52" role="graphics-symbol" aria-roledescription="bar" d="M165.5,151.00000000000003h5v17.333333333333314h-5Z" fill="#179FDB"/><path aria-label="data: geo; year: 1996; value: 29" role="graphics-symbol" aria-roledescription="bar" d="M165.5,168.33333333333334h5v9.666666666666629h-5Z" fill="#0063AF"/><path aria-label="data: hydro; year: 1997; value: 151" role="graphics-symbol" aria-roledescription="bar" d="M173.5,199.66666666666666h5v50.33333333333334h-5Z" fill="#36B7B4"/><path aria-label="data: meteo; year: 1997; value: 150" role="graphics-symbol" aria-roledescription="bar" d="M173.5,250h5v50h-5Z" fill="#676A86"/><path aria-label="data: climate; year: 1997; value: 66" role="graphics-symbol" aria-roledescription="bar" d="M173.5,162h5v22h-5Z" fill="#179FDB"/><path aria-label="data: geo; year: 1997; value: 47" role="graphics-symbol" aria-roledescription="bar" d="M173.5,184h5v15.666666666666657h-5Z" fill="#0063AF"/><path aria-label="data: hydro; year: 1998; value: 173" role="graphics-symbol" aria-roledescription="bar" d="M181.5,181.33333333333334h5v57.66666666666666h-5Z" fill="#36B7B4"/><path aria-label="data: meteo; year: 1998; value: 183" role="graphics-symbol" aria-roledescription="bar" d="M181.5,239h5v61h-5Z" fill="#676A86"/><path aria-label="data: climate; year: 1998; value: 74" role="graphics-symbol" aria-roledescription="bar" d="M181.5,144.33333333333334h5v24.666666666666657h-5Z" fill="#179FDB"/><path aria-label="data: geo; year: 1998; value: 37" role="graphics-symbol" aria-roledescription="bar" d="M181.5,169h5v12.333333333333343h-5Z" fill="#0063AF"/><path aria-label="data: hydro; year: 1999; value: 187" role="graphics-symbol" aria-roledescription="bar" d="M189.5,185.33333333333331h5v62.33333333333337h-5Z" fill="#36B7B4"/><path aria-label="data: meteo; year: 1999; value: 157" role="graphics-symbol" aria-roledescription="bar" d="M189.5,247.66666666666669h5v52.333333333333314h-5Z" fill="#676A86"/><path aria-label="data: climate; year: 1999; value: 58" role="graphics-symbol" aria-roledescription="bar" d="M189.5,151.33333333333334h5v19.333333333333314h-5Z" fill="#179FDB"/><path aria-label="data: geo; year: 1999; value: 44" role="graphics-symbol" aria-roledescription="bar" d="M189.5,170.66666666666666h5v14.666666666666657h-5Z" fill="#0063AF"/><path aria-label="data: hydro; year: 2000; value: 212" role="graphics-symbol" aria-roledescription="bar" d="M197.5,165.66666666666666h5v70.66666666666669h-5Z" fill="#36B7B4"/><path aria-label="data: meteo; year: 2000; value: 191" role="graphics-symbol" aria-roledescription="bar" d="M197.5,236.33333333333334h5v63.66666666666666h-5Z" fill="#676A86"/><path aria-label="data: climate; year: 2000; value: 71" role="graphics-symbol" aria-roledescription="bar" d="M197.5,128.33333333333334h5v23.66666666666663h-5Z" fill="#179FDB"/><path aria-label="data: geo; year: 2000; value: 41" role="graphics-symbol" aria-roledescription="bar" d="M197.5,151.99999999999997h5v13.666666666666686h-5Z" fill="#0063AF"/><path aria-label="data: hydro; year: 2001; value: 181" role="graphics-symbol" aria-roledescription="bar" d="M205.5,183h5v60.33333333333334h-5Z" fill="#36B7B4"/><path aria-label="data: meteo; year: 2001; value: 170" role="graphics-symbol" aria-roledescription="bar" d="M205.5,243.33333333333334h5v56.66666666666666h-5Z" fill="#676A86"/><path aria-label="data: climate; year: 2001; value: 61" role="graphics-symbol" aria-roledescription="bar" d="M205.5,152.33333333333334h5v20.333333333333343h-5Z" fill="#179FDB"/><path aria-label="data: geo; year: 2001; value: 31" role="graphics-symbol" aria-roledescription="bar" d="M205.5,172.66666666666669h5v10.333333333333314h-5Z" fill="#0063AF"/><path aria-label="data: hydro; year: 2002; value: 176" role="graphics-symbol" aria-roledescription="bar" d="M213.5,185.33333333333331h5v58.666666666666686h-5Z" fill="#36B7B4"/><path aria-label="data: meteo; year: 2002; value: 168" role="graphics-symbol" aria-roledescription="bar" d="M213.5,244h5v56h-5Z" fill="#676A86"/><path aria-label="data: climate; year: 2002; value: 44" role="graphics-symbol" aria-roledescription="bar" d="M213.5,156.33333333333331h5v14.666666666666714h-5Z" fill="#179FDB"/><path aria-label="data: geo; year: 2002; value: 43" role="graphics-symbol" aria-roledescription="bar" d="M213.5,171.00000000000003h5v14.333333333333286h-5Z" fill="#0063AF"/><path aria-label="data: hydro; year: 2003; value: 172" role="graphics-symbol" aria-roledescription="bar" d="M221.50000000000003,182h5v57.33333333333334h-5Z" fill="#36B7B4"/><path aria-label="data: meteo; year: 2003; value: 182" role="graphics-symbol" aria-roledescription="bar" d="M221.50000000000003,239.33333333333334h5v60.66666666666666h-5Z" fill="#676A86"/><path aria-label="data: climate; year: 2003; value: 35" role="graphics-symbol" aria-roledescription="bar" d="M221.50000000000003,156h5v11.666666666666657h-5Z" fill="#179FDB"/><path aria-label="data: geo; year: 2003; value: 43" role="graphics-symbol" aria-roledescription="bar" d="M221.50000000000003,167.66666666666666h5v14.333333333333343h-5Z" fill="#0063AF"/><path aria-label="data: hydro; year: 2004; value: 131" role="graphics-symbol" aria-roledescription="bar" d="M229.49999999999997,196.66666666666666h5v43.666666666666686h-5Z" fill="#36B7B4"/><path aria-label="data: meteo; year: 2004; value: 179" role="graphics-symbol" aria-roledescription="bar" d="M229.49999999999997,240.33333333333334h5v59.66666666666666h-5Z" fill="#676A86"/><path aria-label="data: climate; year: 2004; value: 34" role="graphics-symbol" aria-roledescription="bar" d="M229.49999999999997,171.33333333333334h5v11.333333333333314h-5Z" fill="#179FDB"/><path aria-label="data: geo; year: 2004; value: 42" role="graphics-symbol" aria-roledescription="bar" d="M229.49999999999997,182.66666666666666h5v14h-5Z" fill="#0063AF"/><path aria-label="data: hydro; year: 2005; value: 179" role="graphics-symbol" aria-roledescription="bar" d="M237.5,177.99999999999997h5v59.666666666666686h-5Z" fill="#36B7B4"/><path aria-label="data: meteo; year: 2005; value: 187" role="graphics-symbol" aria-roledescription="bar" d="M237.5,237.66666666666666h5v62.33333333333334h-5Z" fill="#676A86"/><path aria-label="data: climate; year: 2005; value: 46" role="graphics-symbol" aria-roledescription="bar" d="M237.5,150.66666666666666h5v15.333333333333343h-5Z" fill="#179FDB"/><path aria-label="data: geo; year: 2005; value: 36" role="graphics-symbol" aria-roledescription="bar" d="M237.5,166h5v11.999999999999972h-5Z" fill="#0063AF"/><path aria-label="data: hydro; year: 2006; value: 245" role="graphics-symbol" aria-roledescription="bar" d="M245.5,152.66666666666669h5v81.66666666666663h-5Z" fill="#36B7B4"/><path aria-label="data: meteo; year: 2006; value: 197" role="graphics-symbol" aria-roledescription="bar" d="M245.5,234.33333333333331h5v65.66666666666669h-5Z" fill="#676A86"/><path aria-label="data: climate; year: 2006; value: 67" role="graphics-symbol" aria-roledescription="bar" d="M245.5,117h5v22.333333333333343h-5Z" fill="#179FDB"/><path aria-label="data: geo; year: 2006; value: 40" role="graphics-symbol" aria-roledescription="bar" d="M245.5,139.33333333333334h5v13.333333333333343h-5Z" fill="#0063AF"/><path aria-label="data: hydro; year: 2007; value: 242" role="graphics-symbol" aria-roledescription="bar" d="M253.5,134h5v80.66666666666666h-5Z" fill="#36B7B4"/><path aria-label="data: meteo; year: 2007; value: 256" role="graphics-symbol" aria-roledescription="bar" d="M253.5,214.66666666666666h5v85.33333333333334h-5Z" fill="#676A86"/><path aria-label="data: climate; year: 2007; value: 65" role="graphics-symbol" aria-roledescription="bar" d="M253.5,98.99999999999999h5v21.666666666666686h-5Z" fill="#179FDB"/><path aria-label="data: geo; year: 2007; value: 40" role="graphics-symbol" aria-roledescription="bar" d="M253.5,120.66666666666667h5v13.333333333333329h-5Z" fill="#0063AF"/><path aria-label="data: hydro; year: 2008; value: 229" role="graphics-symbol" aria-roledescription="bar" d="M261.5,168.33333333333334h5v76.33333333333334h-5Z" fill="#36B7B4"/><path aria-label="data: meteo; year: 2008; value: 166" role="graphics-symbol" aria-roledescription="bar" d="M261.5,244.66666666666669h5v55.333333333333314h-5Z" fill="#676A86"/><path aria-label="data: climate; year: 2008; value: 51" role="graphics-symbol" aria-roledescription="bar" d="M261.5,136h5v17h-5Z" fill="#179FDB"/><path aria-label="data: geo; year: 2008; value: 46" role="graphics-symbol" aria-roledescription="bar" d="M261.5,153h5v15.333333333333343h-5Z" fill="#0063AF"/><path aria-label="data: hydro; year: 2009; value: 230" role="graphics-symbol" aria-roledescription="bar" d="M269.5,156.66666666666663h5v76.66666666666671h-5Z" fill="#36B7B4"/><path aria-label="data: meteo; year: 2009; value: 200" role="graphics-symbol" aria-roledescription="bar" d="M269.5,233.33333333333334h5v66.66666666666666h-5Z" fill="#676A86"/><path aria-label="data: climate; year: 2009; value: 59" role="graphics-symbol" aria-roledescription="bar" d="M269.5,126.00000000000001h5v19.666666666666643h-5Z" fill="#179FDB"/><path aria-label="data: geo; year: 2009; value: 33" role="graphics-symbol" aria-roledescription="bar" d="M269.5,145.66666666666666h5v10.999999999999972h-5Z" fill="#0063AF"/><path aria-label="data: hydro; year: 2010; value: 281" role="graphics-symbol" aria-roledescription="bar" d="M277.5,142.33333333333334h5v93.66666666666666h-5Z" fill="#36B7B4"/><path aria-label="data: meteo; year: 2010; value: 192" role="graphics-symbol" aria-roledescription="bar" d="M277.5,236h5v64h-5Z" fill="#676A86"/><path aria-label="data: climate; year: 2010; value: 46" role="graphics-symbol" aria-roledescription="bar" d="M277.5,112.33333333333334h5v15.333333333333329h-5Z" fill="#179FDB"/><path aria-label="data: geo; year: 2010; value: 44" role="graphics-symbol" aria-roledescription="bar" d="M277.5,127.66666666666667h5v14.666666666666671h-5Z" fill="#0063AF"/><path aria-label="data: hydro; year: 2011; value: 243" role="graphics-symbol" aria-roledescription="bar" d="M285.5,158.33333333333334h5v81h-5Z" fill="#36B7B4"/><path aria-label="data: meteo; year: 2011; value: 182" role="graphics-symbol" aria-roledescription="bar" d="M285.5,239.33333333333334h5v60.66666666666666h-5Z" fill="#676A86"/><path aria-label="data: climate; year: 2011; value: 62" role="graphics-symbol" aria-roledescription="bar" d="M285.5,123.66666666666669h5v20.666666666666657h-5Z" fill="#179FDB"/><path aria-label="data: geo; year: 2011; value: 42" role="graphics-symbol" aria-roledescription="bar" d="M285.5,144.33333333333334h5v14h-5Z" fill="#0063AF"/><path aria-label="data: hydro; year: 2012; value: 265" role="graphics-symbol" aria-roledescription="bar" d="M293.5,125.66666666666666h5v88.33333333333334h-5Z" fill="#36B7B4"/><path aria-label="data: meteo; year: 2012; value: 258" role="graphics-symbol" aria-roledescription="bar" d="M293.5,214h5v86h-5Z" fill="#676A86"/><path aria-label="data: climate; year: 2012; value: 83" role="graphics-symbol" aria-roledescription="bar" d="M293.5,84.33333333333333h5v27.666666666666657h-5Z" fill="#179FDB"/><path aria-label="data: geo; year: 2012; value: 41" role="graphics-symbol" aria-roledescription="bar" d="M293.5,111.99999999999999h5v13.666666666666671h-5Z" fill="#0063AF"/><path aria-label="data: hydro; year: 2013; value: 234" role="graphics-symbol" aria-roledescription="bar" d="M301.5,146.33333333333331h5v78.00000000000003h-5Z" fill="#36B7B4"/><path aria-label="data: meteo; year: 2013; value: 227" role="graphics-symbol" aria-roledescription="bar" d="M301.5,224.33333333333334h5v75.66666666666666h-5Z" fill="#676A86"/><path aria-label="data: climate; year: 2013; value: 68" role="graphics-symbol" aria-roledescription="bar" d="M301.5,105.66666666666666h5v22.666666666666686h-5Z" fill="#179FDB"/><path aria-label="data: geo; year: 2013; value: 54" role="graphics-symbol" aria-roledescription="bar" d="M301.5,128.33333333333334h5v17.99999999999997h-5Z" fill="#0063AF"/><path aria-label="data: hydro; year: 2014; value: 284" role="graphics-symbol" aria-roledescription="bar" d="M309.5,117.66666666666667h5v94.66666666666667h-5Z" fill="#36B7B4"/><path aria-label="data: meteo; year: 2014; value: 263" role="graphics-symbol" aria-roledescription="bar" d="M309.5,212.33333333333334h5v87.66666666666666h-5Z" fill="#676A86"/><path aria-label="data: climate; year: 2014; value: 73" role="graphics-symbol" aria-roledescription="bar" d="M309.5,74.66666666666669h5v24.3333333333333h-5Z" fill="#179FDB"/><path aria-label="data: geo; year: 2014; value: 56" role="graphics-symbol" aria-roledescription="bar" d="M309.5,98.99999999999999h5v18.666666666666686h-5Z" fill="#0063AF"/><path aria-label="data: hydro; year: 2015; value: 313" role="graphics-symbol" aria-roledescription="bar" d="M317.5,101.99999999999999h5v104.33333333333336h-5Z" fill="#36B7B4"/><path aria-label="data: meteo; year: 2015; value: 281" role="graphics-symbol" aria-roledescription="bar" d="M317.5,206.33333333333334h5v93.66666666666666h-5Z" fill="#676A86"/><path aria-label="data: climate; year: 2015; value: 90" role="graphics-symbol" aria-roledescription="bar" d="M317.5,57.66666666666666h5v30.00000000000003h-5Z" fill="#179FDB"/><path aria-label="data: geo; year: 2015; value: 43" role="graphics-symbol" aria-roledescription="bar" d="M317.5,87.66666666666669h5v14.3333333333333h-5Z" fill="#0063AF"/><path aria-label="data: hydro; year: 2016; value: 390" role="graphics-symbol" aria-roledescription="bar" d="M325.5,87.00000000000001h5v130h-5Z" fill="#36B7B4"/><path aria-label="data: meteo; year: 2016; value: 249" role="graphics-symbol" aria-roledescription="bar" d="M325.5,217.00000000000003h5v82.99999999999997h-5Z" fill="#676A86"/><path aria-label="data: climate; year: 2016; value: 81" role="graphics-symbol" aria-roledescription="bar" d="M325.5,42.99999999999999h5v26.999999999999993h-5Z" fill="#179FDB"/><path aria-label="data: geo; year: 2016; value: 51" role="graphics-symbol" aria-roledescription="bar" d="M325.5,69.99999999999999h5v17.00000000000003h-5Z" fill="#0063AF"/><path aria-label="data: hydro; year: 2017; value: 340" role="graphics-symbol" aria-roledescription="bar" d="M333.5,103.00000000000001h5v113.3333333333333h-5Z" fill="#36B7B4"/><path aria-label="data: meteo; year: 2017; value: 251" role="graphics-symbol" aria-roledescription="bar" d="M333.5,216.33333333333331h5v83.66666666666669h-5Z" fill="#676A86"/><path aria-label="data: climate; year: 2017; value: 78" role="graphics-symbol" aria-roledescription="bar" d="M333.5,59h5v26h-5Z" fill="#179FDB"/><path aria-label="data: geo; year: 2017; value: 54" role="graphics-symbol" aria-roledescription="bar" d="M333.5,85h5v18.000000000000014h-5Z" fill="#0063AF"/><path aria-label="data: hydro; year: 2018; value: 382" role="graphics-symbol" aria-roledescription="bar" d="M341.5,52.99999999999999h5v127.33333333333334h-5Z" fill="#36B7B4"/><path aria-label="data: meteo; year: 2018; value: 359" role="graphics-symbol" aria-roledescription="bar" d="M341.5,180.33333333333334h5v119.66666666666666h-5Z" fill="#676A86"/><path aria-label="data: climate; year: 2018; value: 57" role="graphics-symbol" aria-roledescription="bar" d="M341.5,17.333333333333346h5v18.999999999999968h-5Z" fill="#179FDB"/><path aria-label="data: geo; year: 2018; value: 50" role="graphics-symbol" aria-roledescription="bar" d="M341.5,36.333333333333314h5v16.66666666666668h-5Z" fill="#0063AF"/><path aria-label="data: hydro; year: 2019; value: 360" role="graphics-symbol" aria-roledescription="bar" d="M349.5,73.33333333333334h5v119.99999999999997h-5Z" fill="#36B7B4"/><path aria-label="data: meteo; year: 2019; value: 320" role="graphics-symbol" aria-roledescription="bar" d="M349.5,193.33333333333331h5v106.66666666666669h-5Z" fill="#676A86"/><path aria-label="data: climate; year: 2019; value: 80" role="graphics-symbol" aria-roledescription="bar" d="M349.5,26.66666666666667h5v26.66666666666667h-5Z" fill="#179FDB"/><path aria-label="data: geo; year: 2019; value: 60" role="graphics-symbol" aria-roledescription="bar" d="M349.5,53.33333333333334h5v20h-5Z" fill="#0063AF"/></g><g class="mark-text role-mark layer_1_marks" role="graphics-object" aria-roledescription="text mark container"><text aria-label="d: geo; t: Geophysical events:; x: 2020; y: 700" role="graphics-symbol" aria-roledescription="text mark" text-anchor="start" transform="translate(360,69.66666666666666)" font-family="Georgia" font-size="11px" fill="#0063AF">Geophysical events:</text><text aria-label="d: geo; t: earthquakes, tsunami; x: 2020; y: 660" role="graphics-symbol" aria-roledescription="text mark" text-anchor="start" transform="translate(360,83.00000000000001)" font-family="Georgia" font-size="11px" fill="#0063AF">earthquakes, tsunami</text><text aria-label="d: geo; t: volcanic activity; x: 2020; y: 620" role="graphics-symbol" aria-roledescription="text mark" text-anchor="start" transform="translate(360,96.33333333333333)" font-family="Georgia" font-size="11px" fill="#0063AF">volcanic activity</text><text aria-label="d: climate; t: Climatological events:; x: 2020; y: 850" role="graphics-symbol" aria-roledescription="text mark" text-anchor="start" transform="translate(360,19.666666666666675)" font-family="Georgia" font-size="11px" fill="#179FDB">Climatological events:</text><text aria-label="d: climate; t: extreme temperature,; x: 2020; y: 810" role="graphics-symbol" aria-roledescription="text mark" text-anchor="start" transform="translate(360,32.99999999999999)" font-family="Georgia" font-size="11px" fill="#179FDB">extreme temperature,</text><text aria-label="d: climate; t: drought, wildfire; x: 2020; y: 770" role="graphics-symbol" aria-roledescription="text mark" text-anchor="start" transform="translate(360,46.33333333333334)" font-family="Georgia" font-size="11px" fill="#179FDB">drought, wildfire</text><text aria-label="d: meteo; t: Meteorological events:; x: 2020; y: 240" role="graphics-symbol" aria-roledescription="text mark" text-anchor="start" transform="translate(360,223.00000000000003)" font-family="Georgia" font-size="11px" fill="#676A86">Meteorological events:</text><text aria-label="d: meteo; t: tropical storm,; x: 2020; y: 200" role="graphics-symbol" aria-roledescription="text mark" text-anchor="start" transform="translate(360,236.33333333333334)" font-family="Georgia" font-size="11px" fill="#676A86">tropical storm,</text><text aria-label="d: meteo; t: extratropical storm,; x: 2020; y: 160" role="graphics-symbol" aria-roledescription="text mark" text-anchor="start" transform="translate(360,249.66666666666666)" font-family="Georgia" font-size="11px" fill="#676A86">extratropical storm,</text><text aria-label="d: meteo; t: convective storm,; x: 2020; y: 120" role="graphics-symbol" aria-roledescription="text mark" text-anchor="start" transform="translate(360,263)" font-family="Georgia" font-size="11px" fill="#676A86">convective storm,</text><text aria-label="d: meteo; t: local storm; x: 2020; y: 80" role="graphics-symbol" aria-roledescription="text mark" text-anchor="start" transform="translate(360,276.3333333333333)" font-family="Georgia" font-size="11px" fill="#676A86">local storm</text><text aria-label="d: hydro; t: Hydrological events:; x: 2020; y: 500" role="graphics-symbol" aria-roledescription="text mark" text-anchor="start" transform="translate(360,136.33333333333331)" font-family="Georgia" font-size="11px" fill="#36B7B4">Hydrological events:</text><text aria-label="d: hydro; t: flood, mass movement; x: 2020; y: 460" role="graphics-symbol" aria-roledescription="text mark" text-anchor="start" transform="translate(360,149.66666666666669)" font-family="Georgia" font-size="11px" fill="#36B7B4">flood, mass movement</text></g><g class="mark-group role-title"><g transform="translate(0,-48)"><path class="background" aria-hidden="true" d="M0,0h0v0h0Z" pointer-events="none"/><g><g class="mark-text role-title-text" role="graphics-symbol" aria-roledescription="title" aria-label="Title text 'Extreme events are becoming more frequent'" pointer-events="none"><text text-anchor="start" transform="translate(5,6)" font-family="Georgia" font-size="14px" font-weight="bold" fill="#F4134D" opacity="1">Extreme events are becoming more frequent</text></g><g class="mark-text role-title-subtitle" role="graphics-symbol" aria-roledescription="subtitle" aria-label="Subtitle text 'Number of relevant loss events by peril. Source: Met Office, based on Munich RE'" pointer-events="none"><text text-anchor="start" transform="translate(5,21)" font-family="Georgia" font-size="12px" font-style="italic" fill="#F4134D" opacity="1">Number of relevant loss events by peril. Source: Met Office, based on Munich RE</text></g></g><path class="foreground" aria-hidden="true" d="" pointer-events="none" display="none"/></g></g></g><path class="foreground" aria-hidden="true" d="" display="none"/></g></g></g></svg>