<svg xmlns="http://www.w3.org/2000/svg" xmlns:xlink="http://www.w3.org/1999/xlink" version="1.1" class="marks" width="434" height="347" viewBox="0 0 434 347"><rect width="434" height="347" fill="white"/><g fill="none" stroke-miterlimit="10" transform="translate(29,25)"><g class="mark-group role-frame root" role="graphics-object" aria-roledescription="group mark container"><g transform="translate(0,0)"><path class="background" aria-hidden="true" d="M0,0h400v300h-400Z"/><g><g class="mark-group role-axis" aria-hidden="true"><g transform="translate(0.5,0.5)"><path class="background" aria-hidden="true" d="M0,0h0v0h0Z" pointer-events="none"/><g><g class="mark-rule role-axis-grid" pointer-events="none"><line transform="translate(0,300)" x2="400" y2="0" stroke="#676A86" stroke-opacity="0.5" stroke-width="1" stroke-dasharray="1,5" opacity="1"/><line transform="translate(0,270)" x2="400" y2="0" stroke="#676A86" stroke-opacity="0.5" stroke-width="1" stroke-dasharray="1,5" opacity="1"/><line transform="translate(0,240)" x2="400" y2="0" stroke="#676A86" stroke-opacity="0.5" stroke-width="1" stroke-dasharray="1,5" opacity="1"/><line transform="translate(0,210)" x2="400" y2="0" stroke="#676A86" stroke-opacity="0.5" stroke-width="1" stroke-dasharray="1,5" opacity="1"/><line transform="translate(0,180)" x2="400" y2="0" stroke="#676A86" stroke-opacity="0.5" stroke-width="1" stroke-dasharray="1,5" opacity="1"/><line transform="translate(0,150)" x2="400" y2="0" stroke="#676A86" stroke-opacity="0.5" stroke-width="1" stroke-dasharray="1,5" opacity="1"/><line transform="translate(0,120)" x2="400" y2="0" stroke="#676A86" stroke-opacity="0.5" stroke-width="1" stroke-dasharray="1,5" opacity="1"/><line transform="translate(0,90)" x2="400" y2="0" stroke="#676A86" stroke-opacity="0.5" stroke-width="1" stroke-dasharray="1,5" opacity="1"/><line transform="translate(0,60)" x2="400" y2="0" stroke="#676A86" stroke-opacity="0.5" stroke-width="1" stroke-dasharray="1,5" opacity="1"/><line transform="translate(0,30)" x2="400" y2="0" stroke="#676A86" stroke-opacity="0.5" stroke-width="1" stroke-dasharray="1,5" opacity="1"/><line transform="translate(0,0)" x2="400" y2="0" stroke="#676A86" stroke-opacity="0.5" stroke-width="1" stroke-dasharray="1,5" opacity="1"/></g></g><path class="foreground" aria-hidden="true" d="" pointer-events="none" display="none"/></g></g><g class="mark-group role-axis" role="graphics-symbol" aria-roledescription="axis" aria-label="X-axis for a linear scale with values from 1849 to 2025"><g transform="translate(0.5,300.5)"><path class="background" aria-hidden="true" d="M0,0h0v0h0Z" pointer-events="none"/><g><g class="mark-rule role-axis-tick" pointer-events="none"><line transform="translate(25,0)" x2="0" y2="5" stroke="#676A86" stroke-opacity="0.5" stroke-width="1" opacity="1"/><line transform="translate(70,0)" x2="0" y2="5" stroke="#676A86" stroke-opacity="0.5" stroke-width="1" opacity="1"/><line transform="translate(116,0)" x2="0" y2="5" stroke="#676A86" stroke-opacity="0.5" stroke-width="1" opacity="1"/><line transform="translate(161,0)" x2="0" y2="5" stroke="#676A86" stroke-opacity="0.5" stroke-width="1" opacity="1"/><line transform="translate(207,0)" x2="0" y2="5" stroke="#676A86" stroke-opacity="0.5" stroke-width="1" opacity="1"/><line transform="translate(252,0)" x2="0" y2="5" stroke="#676A86" stroke-opacity="0.5" stroke-width="1" opacity="1"/><line transform="translate(298,0)" x2="0" y2="5" stroke="#676A86" stroke-opacity="0.5" stroke-width="1" opacity="1"/><line transform="translate(343,0)" x2="0" y2="5" stroke="#676A86" stroke-opacity="0.5" stroke-width="1" opacity="1"/><line transform="translate(389,0)" x2="0" y2="5" stroke="#676A86" stroke-opacity="0.5" stroke-width="1" opacity="1"/></g><g class="mark-text role-axis-label" pointer-events="none"><text text-anchor="middle" transform="translate(25,15)" font-family="Circular Std Book" font-size="10px" fill="#676A86" fill-opacity="0.7" opacity="1">1860</text><text text-anchor="middle" transform="translate(70.45454545454545,15)" font-family="Circular Std Book" font-size="10px" fill="#676A86" fill-opacity="0.7" opacity="1">1880</text><text text-anchor="middle" transform="translate(115.90909090909092,15)" font-family="Circular Std Book" font-size="10px" fill="#676A86" fill-opacity="0.7" opacity="1">1900</text><text text-anchor="middle" transform="translate(161.36363636363635,15)" font-family="Circular Std Book" font-size="10px" fill="#676A86" fill-opacity="0.7" opacity="1">1920</text><text text-anchor="middle" transform="translate(206.81818181818184,15)" font-family="Circular Std Book" font-size="10px" fill="#676A86" fill-opacity="0.7" opacity="1">1940</text><text text-anchor="middle" transform="translate(252.27272727272728,15)" font-family="Circular Std Book" font-size="10px" fill="#676A86" fill-opacity="0.7" opacity="1">1960</text><text text-anchor="middle" transform="translate(297.7272727272727,15)" font-family="Circular Std Book" font-size="10px" fill="#676A86" fill-opacity="0.7" opacity="1">1980</text><text text-anchor="middle" transform="translate(343.1818181818182,15)" font-family="Circular Std Book" font-size="10px" fill="#676A86" fill-opacity="0.7" opacity="1">2000</text><text text-anchor="middle" transform="translate(388.6363636363636,15)" font-family="Circular Std Book" font-size="10px" fill="#676A86" fill-opacity="0.7" opacity="1">2020</text></g><g class="mark-rule role-axis-domain" pointer-events="none"><line transform="translate(0,0)" x2="400" y2="0" stroke="#676A86" stroke-opacity="0.5" stroke-width="1" opacity="1"/></g></g><path class="foreground" aria-hidden="true" d="" pointer-events="none" display="none"/></g></g><g class="mark-group role-axis" role="graphics-symbol" aria-roledescription="axis" aria-label="Y-axis titled 'Temperature anomaly in  ° C' for a linear scale with values from −0.8 to 1.2"><g transform="translate(0.5,0.5)"><path class="background" aria-hidden="true" d="M0,0h0v0h0Z" pointer-events="none"/><g><g class="mark-text role-axis-label" pointer-events="none"><text text-anchor="end" transform="translate(-5,303)" font-family="Circular Std Book" font-size="10px" fill="#676A86" fill-opacity="0.7" opacity="1">−0.8</text><text text-anchor="end" transform="translate(-5,273)" font-family="Circular Std Book" font-size="10px" fill="#676A86" fill-opacity="0.7" opacity="1">−0.6</text><text text-anchor="end" transform="translate(-5,243)" font-family="Circular Std Book" font-size="10px" fill="#676A86" fill-opacity="0.7" opacity="1">−0.4</text><text text-anchor="end" transform="translate(-5,213)" font-family="Circular Std Book" font-size="10px" fill="#676A86" fill-opacity="0.7" opacity="1">−0.2</text><text text-anchor="end" transform="translate(-5,183)" font-family="Circular Std Book" font-size="10px" fill="#676A86" fill-opacity="0.7" opacity="1">0.0</text><text text-anchor="end" transform="translate(-5,153)" font-family="Circular Std Book" font-size="10px" fill="#676A86" fill-opacity="0.7" opacity="1">0.2</text><text text-anchor="end" transform="translate(-5,122.99999999999997)" font-family="Circular Std Book" font-size="10px" fill="#676A86" fill-opacity="0.7" opacity="1">0.4</text><text text-anchor="end" transform="translate(-5,93.00000000000001)" font-family="Circular Std Book" font-size="10px" fill="#676A86" fill-opacity="0.7" opacity="1">0.6</text><text text-anchor="end" transform="translate(-5,62.999999999999986)" font-family="Circular Std Book" font-size="10px" fill="#676A86" fill-opacity="0.7" opacity="1">0.8</text><text text-anchor="end" transform="translate(-5,32.99999999999999)" font-family="Circular Std Book" font-size="10px" fill="#676A86" fill-opacity="0.7" opacity="1">1.0</text><text text-anchor="end" transform="translate(-5,3)" font-family="Circular Std Book" font-size="10px" fill="#676A86" fill-opacity="0.7" opacity="1">1.2</text></g><g class="mark-rule role-axis-domain" pointer-events="none"><line transform="translate(0,300)" x2="0" y2="-300" stroke="#676A86" stroke-opacity="0.5" stroke-width="1" opacity="1"/></g><g class="mark-text role-axis-title" pointer-events="none"><text text-anchor="start" transform="translate(0,-10)" font-family="Circular Std Book" font-size="12px" font-weight="bold" fill="#676A86" fill-opacity="0.8" opacity="1">Temperature anomaly in  ° C</text></g></g><path class="foreground" aria-hidden="true" d="" pointer-events="none" display="none"/></g></g><g class="mark-line role-mark layer_0_marks" role="graphics-object" aria-roledescription="line mark container"><path aria-label="x: 1850; y: 0" role="graphics-symbol" aria-roledescription="line mark" d="M2.273,180L397.727,180" stroke="#676A86" stroke-width="1" opacity="0.3"/></g><g class="mark-line role-mark layer_1_marks" role="graphics-object" aria-roledescription="line mark container"><path aria-label="Year: 1850; t: −0.43" role="graphics-symbol" aria-roledescription="line mark" d="M2.273,244.5L2.652,239.75C3.03,235,3.788,225.5,4.545,220.75C5.303,216,6.061,216,6.818,217C7.576,218,8.333,220,9.091,221.5C9.848,223,10.606,224,11.364,224.75C12.121,225.5,12.879,226,13.636,226.75C14.394,227.5,15.152,228.5,15.909,232.75C16.667,237,17.424,244.5,18.182,246.25C18.939,248,19.697,244,20.455,239.25C21.212,234.5,21.97,229,22.727,229C23.485,229,24.242,234.5,25,238.25C25.758,242,26.515,244,27.273,247.75C28.03,251.5,28.788,257,29.545,254.75C30.303,252.5,31.061,242.5,31.818,240.75C32.576,239,33.333,245.5,34.091,245.25C34.848,245,35.606,238,36.364,234.75C37.121,231.5,37.879,232,38.636,232.75C39.394,233.5,40.152,234.5,40.909,234.75C41.667,235,42.424,234.5,43.182,233.5C43.939,232.5,44.697,231,45.455,230.5C46.212,230,46.97,230.5,47.727,231.75C48.485,233,49.242,235,50,235C50.758,235,51.515,233,52.273,232.25C53.03,231.5,53.788,232,54.545,233C55.303,234,56.061,235.5,56.818,236.5C57.576,237.5,58.333,238,59.091,239.25C59.848,240.5,60.606,242.5,61.364,235.5C62.121,228.5,62.879,212.5,63.636,202.25C64.394,192,65.152,187.5,65.909,192.5C66.667,197.5,67.424,212,68.182,219.75C68.939,227.5,69.697,228.5,70.455,226.75C71.212,225,71.97,220.5,72.727,220C73.485,219.5,74.242,223,75,226C75.758,229,76.515,231.5,77.273,236.25C78.03,241,78.788,248,79.545,251C80.303,254,81.061,253,81.818,251.25C82.576,249.5,83.333,247,84.091,247.75C84.848,248.5,85.606,252.5,86.364,251.5C87.121,250.5,87.879,244.5,88.636,238.25C89.394,232,90.152,225.5,90.909,228.75C91.667,232,92.424,245,93.182,248.75C93.939,252.5,94.697,247,95.455,247C96.212,247,96.97,252.5,97.727,254.75C98.485,257,99.242,256,100,255.25C100.758,254.5,101.515,254,102.273,253C103.03,252,103.788,250.5,104.545,245.5C105.303,240.5,106.061,232,106.818,227.25C107.576,222.5,108.333,221.5,109.091,226.75C109.848,232,110.606,243.5,111.364,246C112.121,248.5,112.879,242,113.636,235.5C114.394,229,115.152,222.5,115.909,220.75C116.667,219,117.424,222,118.182,227.25C118.939,232.5,119.697,240,120.455,246C121.212,252,121.97,256.5,122.727,260.5C123.485,264.5,124.242,268,125,265C125.758,262,126.515,252.5,127.273,245.5C128.03,238.5,128.788,234,129.545,236.25C130.303,238.5,131.061,247.5,131.818,252.25C132.576,257,133.333,257.5,134.091,258.5C134.848,259.5,135.606,261,136.364,261.5C137.121,262,137.879,261.5,138.636,261.5C139.394,261.5,140.152,262,140.909,260.75C141.667,259.5,142.424,256.5,143.182,254.75C143.939,253,144.697,252.5,145.455,247C146.212,241.5,146.97,231,147.727,224C148.485,217,149.242,213.5,150,217.5C150.758,221.5,151.515,233,152.273,241.75C153.03,250.5,153.788,256.5,154.545,256.5C155.303,256.5,156.061,250.5,156.818,245.25C157.576,240,158.333,235.5,159.091,232.5C159.848,229.5,160.606,228,161.364,225.75C162.121,223.5,162.879,220.5,163.636,221.5C164.394,222.5,165.152,227.5,165.909,229.5C166.667,231.5,167.424,230.5,168.182,229.75C168.939,229,169.697,228.5,170.455,227.5C171.212,226.5,171.97,225,172.727,220.25C173.485,215.5,174.242,207.5,175,206.25C175.758,205,176.515,210.5,177.273,212.75C178.03,215,178.788,214,179.545,218C180.303,222,181.061,231,181.818,230.25C182.576,229.5,183.333,219,184.091,211.75C184.848,204.5,185.606,200.5,186.364,199.75C187.121,199,187.879,201.5,188.636,207C189.394,212.5,190.152,221,190.909,221.5C191.667,222,192.424,214.5,193.182,211.75C193.939,209,194.697,211,195.455,211C196.212,211,196.97,209,197.727,204.25C198.485,199.5,199.242,192,200,188C200.758,184,201.515,183.5,202.273,184C203.03,184.5,203.788,186,204.545,183.75C205.303,181.5,206.061,175.5,206.818,173.5C207.576,171.5,208.333,173.5,209.091,175.5C209.848,177.5,210.606,179.5,211.364,180.25C212.121,181,212.879,180.5,213.636,177C214.394,173.5,215.152,167,215.909,166.25C216.667,165.5,217.424,170.5,218.182,177C218.939,183.5,219.697,191.5,220.455,194.75C221.212,198,221.97,196.5,222.727,196.5C223.485,196.5,224.242,198,225,199.25C225.758,200.5,226.515,201.5,227.273,204.25C228.03,207,228.788,211.5,229.545,209.5C230.303,207.5,231.061,199,231.818,192.75C232.576,186.5,233.333,182.5,234.091,179C234.848,175.5,235.606,172.5,236.364,176C237.121,179.5,237.879,189.5,238.636,196.5C239.394,203.5,240.152,207.5,240.909,211C241.667,214.5,242.424,217.5,243.182,213.5C243.939,209.5,244.697,198.5,245.455,192.5C246.212,186.5,246.97,185.5,247.727,185.75C248.485,186,249.242,187.5,250,190C250.758,192.5,251.515,196,252.273,195.25C253.03,194.5,253.788,189.5,254.545,188C255.303,186.5,256.061,188.5,256.818,189C257.576,189.5,258.333,188.5,259.091,194.75C259.848,201,260.606,214.5,261.364,218.5C262.121,222.5,262.879,217,263.636,213C264.394,209,265.152,206.5,265.909,204.5C266.667,202.5,267.424,201,268.182,201.5C268.939,202,269.697,204.5,270.455,202.25C271.212,200,271.97,193,272.727,190.75C273.485,188.5,274.242,191,275,195.5C275.758,200,276.515,206.5,277.273,206.75C278.03,207,278.788,201,279.545,194.5C280.303,188,281.061,181,281.818,183C282.576,185,283.333,196,284.091,200C284.848,204,285.606,201,286.364,202.25C287.121,203.5,287.879,209,288.636,203.75C289.394,198.5,290.152,182.5,290.909,176.75C291.667,171,292.424,175.5,293.182,175.75C293.939,176,294.697,172,295.455,167.25C296.212,162.5,296.97,157,297.727,153C298.485,149,299.242,146.5,300,150.75C300.758,155,301.515,166,302.273,166.75C303.03,167.5,303.788,158,304.545,157.5C305.303,157,306.061,165.5,306.818,169.75C307.576,174,308.333,174,309.091,172.75C309.848,171.5,310.606,169,311.364,164.25C312.121,159.5,312.879,152.5,313.636,148C314.394,143.5,315.152,141.5,315.909,143C316.667,144.5,317.424,149.5,318.182,147.5C318.939,145.5,319.697,136.5,320.455,132.5C321.212,128.5,321.97,129.5,322.727,135.25C323.485,141,324.242,151.5,325,155.75C325.758,160,326.515,158,327.273,155.5C328.03,153,328.788,150,329.545,144.75C330.303,139.5,331.061,132,331.818,130.75C332.576,129.5,333.333,134.5,334.091,133.5C334.848,132.5,335.606,125.5,336.364,118C337.121,110.5,337.879,102.5,338.636,105C339.394,107.5,340.152,120.5,340.909,126.75C341.667,133,342.424,132.5,343.182,128.25C343.939,124,344.697,116,345.455,110.75C346.212,105.5,346.97,103,347.727,101.75C348.485,100.5,349.242,100.5,350,102.25C350.758,104,351.515,107.5,352.273,105.75C353.03,104,353.788,97,354.545,94.5C355.303,92,356.061,94,356.818,94.5C357.576,95,358.333,94,359.091,96.5C359.848,99,360.606,105,361.364,104.75C362.121,104.5,362.879,98,363.636,92.75C364.394,87.5,365.152,83.5,365.909,85C366.667,86.5,367.424,93.5,368.182,96C368.939,98.5,369.697,96.5,370.455,94.5C371.212,92.5,371.97,90.5,372.727,88.25C373.485,86,374.242,83.5,375,78.25C375.758,73,376.515,65,377.273,58.5C378.03,52,378.788,47,379.545,46.5C380.303,46,381.061,50,381.818,54.25C382.576,58.5,383.333,63,384.091,62C384.848,61,385.606,54.5,386.364,50.5C387.121,46.5,387.879,45,388.636,48.25C389.394,51.5,390.152,59.5,390.909,62.5C391.667,65.5,392.424,63.5,393.182,55C393.939,46.5,394.697,31.5,395.455,22C396.212,12.5,396.97,8.5,397.348,6.5L397.727,4.5" stroke="#179FDB" stroke-width="2"/></g><g class="mark-text role-mark layer_2_marks" role="graphics-object" aria-roledescription="text mark container"><text aria-label="Year: 1850; t: −0.43" role="graphics-symbol" aria-roledescription="text mark" text-anchor="start" transform="translate(7.272727272727273,173.49999999999997)" font-family="Circular Std Book" font-size="12px" fill="#676A86" opacity="0.7">Reference: mean for 1960-90</text></g></g><path class="foreground" aria-hidden="true" d="" display="none"/></g></g></g></svg>