<svg xmlns="http://www.w3.org/2000/svg" xmlns:xlink="http://www.w3.org/1999/xlink" version="1.1" class="marks" width="460" height="179" viewBox="0 0 460 179"><rect width="460" height="179" fill="#122B39"/><g fill="none" stroke-miterlimit="10" transform="translate(6,24)"><g class="mark-group role-frame root" role="graphics-object" aria-roledescription="group mark container"><g transform="translate(0,0)"><path class="background" aria-hidden="true" d="M0,0h400v150h-400Z"/><g><g class="mark-group role-axis" role="graphics-symbol" aria-roledescription="axis" aria-label="X-axis titled 'Carbon dioxide emissions per capita in metric tons' for a discrete scale with 31 values: 1990, 1991, 1992, 1993, 1994, ending with 2020"><g transform="translate(0.5,150.5)"><path class="background" aria-hidden="true" d="M0,0h0v0h0Z" pointer-events="none"/><g><g class="mark-text role-axis-label" pointer-events="none"/><g class="mark-text role-axis-title" pointer-events="none"><text text-anchor="start" transform="translate(0,-159)" font-family="Circular Std Book" font-size="12px" font-weight="bold" fill="#b4c8d8" fill-opacity="0.8" opacity="1">Carbon dioxide emissions per capita in metric tons</text></g></g><path class="foreground" aria-hidden="true" d="" pointer-events="none" display="none"/></g></g><g class="mark-rect role-mark layer_0_marks" role="graphics-object" aria-roledescription="rect mark container"><path aria-label="Year: 1990; t: 4.0; Emissions: 4.02" role="graphics-symbol" aria-roledescription="bar" d="M-0.04838709677418329,0h13v150h-13Z" fill="#78D278"/><path aria-label="Year: 1991; t: 4.0; Emissions: 3.98" role="graphics-symbol" aria-roledescription="bar" d="M12.85483870967743,0h13v150h-13Z" fill="#3CAA64"/><path aria-label="Year: 1992; t: 3.9; Emissions: 3.91" role="graphics-symbol" aria-roledescription="bar" d="M25.75806451612904,0h13v150h-13Z" fill="#1E8732"/><path aria-label="Year: 1993; t: 3.9; Emissions: 3.87" role="graphics-symbol" aria-roledescription="bar" d="M38.66129032258065,0h13v150h-13Z" fill="#006400"/><path aria-label="Year: 1994; t: 3.8; Emissions: 3.84" role="graphics-symbol" aria-roledescription="bar" d="M51.56451612903226,0h13v150h-13Z" fill="#006400"/><path aria-label="Year: 1995; t: 3.9; Emissions: 3.89" role="graphics-symbol" aria-roledescription="bar" d="M64.46774193548389,0h13v150h-13Z" fill="#006400"/><path aria-label="Year: 1996; t: 3.9; Emissions: 3.92" role="graphics-symbol" aria-roledescription="bar" d="M77.37096774193549,0h13v150h-13Z" fill="#1E8732"/><path aria-label="Year: 1997; t: 3.9; Emissions: 3.94" role="graphics-symbol" aria-roledescription="bar" d="M90.2741935483871,0h13v150h-13Z" fill="#1E8732"/><path aria-label="Year: 1998; t: 3.9; Emissions: 3.91" role="graphics-symbol" aria-roledescription="bar" d="M103.17741935483872,0h13v150h-13Z" fill="#1E8732"/><path aria-label="Year: 1999; t: 3.9; Emissions: 3.88" role="graphics-symbol" aria-roledescription="bar" d="M116.08064516129033,0h13v150h-13Z" fill="#006400"/><path aria-label="Year: 2000; t: 4.0; Emissions: 3.95" role="graphics-symbol" aria-roledescription="bar" d="M128.98387096774195,0h13v150h-13Z" fill="#1E8732"/><path aria-label="Year: 2001; t: 4.0; Emissions: 3.96" role="graphics-symbol" aria-roledescription="bar" d="M141.88709677419357,0h13v150h-13Z" fill="#3CAA64"/><path aria-label="Year: 2002; t: 4.0; Emissions: 3.96" role="graphics-symbol" aria-roledescription="bar" d="M154.79032258064515,0h13v150h-13Z" fill="#3CAA64"/><path aria-label="Year: 2003; t: 4.1; Emissions: 4.09" role="graphics-symbol" aria-roledescription="bar" d="M167.69354838709677,0h13v150h-13Z" fill="#8CE18C"/><path aria-label="Year: 2004; t: 4.2; Emissions: 4.22" role="graphics-symbol" aria-roledescription="bar" d="M180.59677419354838,0h13v150h-13Z" fill="#C3FAA0"/><path aria-label="Year: 2005; t: 4.3; Emissions: 4.33" role="graphics-symbol" aria-roledescription="bar" d="M193.5,0h13v150h-13Z" fill="#FDF0E6"/><path aria-label="Year: 2006; t: 4.4; Emissions: 4.42" role="graphics-symbol" aria-roledescription="bar" d="M206.40322580645162,0h13v150h-13Z" fill="#E6AA8C"/><path aria-label="Year: 2007; t: 4.5; Emissions: 4.53" role="graphics-symbol" aria-roledescription="bar" d="M219.30645161290323,0h13v150h-13Z" fill="#D28250"/><path aria-label="Year: 2008; t: 4.5; Emissions: 4.5" role="graphics-symbol" aria-roledescription="bar" d="M232.20967741935485,0h13v150h-13Z" fill="#D28250"/><path aria-label="Year: 2009; t: 4.4; Emissions: 4.39" role="graphics-symbol" aria-roledescription="bar" d="M245.11290322580646,0h13v150h-13Z" fill="#E6AA8C"/><path aria-label="Year: 2010; t: 4.6; Emissions: 4.6" role="graphics-symbol" aria-roledescription="bar" d="M258.0161290322581,0h13v150h-13Z" fill="#C86E3C"/><path aria-label="Year: 2011; t: 4.7; Emissions: 4.69" role="graphics-symbol" aria-roledescription="bar" d="M270.9193548387097,0h13v150h-13Z" fill="#8C4614"/><path aria-label="Year: 2012; t: 4.7; Emissions: 4.69" role="graphics-symbol" aria-roledescription="bar" d="M283.8225806451613,0h13v150h-13Z" fill="#8C4614"/><path aria-label="Year: 2013; t: 4.7; Emissions: 4.72" role="graphics-symbol" aria-roledescription="bar" d="M296.72580645161287,0h13v150h-13Z" fill="#8C4614"/><path aria-label="Year: 2014; t: 4.7; Emissions: 4.68" role="graphics-symbol" aria-roledescription="bar" d="M309.62903225806446,0h13v150h-13Z" fill="#8C4614"/><path aria-label="Year: 2015; t: 4.6; Emissions: 4.6" role="graphics-symbol" aria-roledescription="bar" d="M322.53225806451616,0h13v150h-13Z" fill="#C86E3C"/><path aria-label="Year: 2016; t: 4.6; Emissions: 4.56" role="graphics-symbol" aria-roledescription="bar" d="M335.43548387096774,0h13v150h-13Z" fill="#C86E3C"/><path aria-label="Year: 2017; t: 4.6; Emissions: 4.58" role="graphics-symbol" aria-roledescription="bar" d="M348.33870967741933,0h13v150h-13Z" fill="#C86E3C"/><path aria-label="Year: 2018; t: 4.6; Emissions: 4.64" role="graphics-symbol" aria-roledescription="bar" d="M361.2419354838709,0h13v150h-13Z" fill="#AA5A28"/><path aria-label="Year: 2019; t: 4.6; Emissions: 4.58" role="graphics-symbol" aria-roledescription="bar" d="M374.1451612903226,0h13v150h-13Z" fill="#C86E3C"/><path aria-label="Year: 2020; t: 4.3; Emissions: 4.29" role="graphics-symbol" aria-roledescription="bar" d="M387.0483870967742,0h13v150h-13Z" fill="#FDF0E6"/></g><g class="mark-rect role-mark layer_1_marks" role="graphics-object" aria-roledescription="rect mark container"><path aria-label="Year: 1990; t: 4.0; Emissions: 4.02" role="graphics-symbol" aria-roledescription="bar" d="M-0.04838709677418329,0h13v150h-13Z" fill="#78D278"/><path aria-label="Year: 1991; t: 4.0; Emissions: 3.98" role="graphics-symbol" aria-roledescription="bar" d="M12.85483870967743,0h13v150h-13Z" fill="#3CAA64"/><path aria-label="Year: 1992; t: 3.9; Emissions: 3.91" role="graphics-symbol" aria-roledescription="bar" d="M25.75806451612904,0h13v150h-13Z" fill="#1E8732"/><path aria-label="Year: 1993; t: 3.9; Emissions: 3.87" role="graphics-symbol" aria-roledescription="bar" d="M38.66129032258065,0h13v150h-13Z" fill="#006400"/><path aria-label="Year: 1994; t: 3.8; Emissions: 3.84" role="graphics-symbol" aria-roledescription="bar" d="M51.56451612903226,0h13v150h-13Z" fill="#006400"/><path aria-label="Year: 1995; t: 3.9; Emissions: 3.89" role="graphics-symbol" aria-roledescription="bar" d="M64.46774193548389,0h13v150h-13Z" fill="#006400"/><path aria-label="Year: 1996; t: 3.9; Emissions: 3.92" role="graphics-symbol" aria-roledescription="bar" d="M77.37096774193549,0h13v150h-13Z" fill="#1E8732"/><path aria-label="Year: 1997; t: 3.9; Emissions: 3.94" role="graphics-symbol" aria-roledescription="bar" d="M90.2741935483871,0h13v150h-13Z" fill="#1E8732"/><path aria-label="Year: 1998; t: 3.9; Emissions: 3.91" role="graphics-symbol" aria-roledescription="bar" d="M103.17741935483872,0h13v150h-13Z" fill="#1E8732"/><path aria-label="Year: 1999; t: 3.9; Emissions: 3.88" role="graphics-symbol" aria-roledescription="bar" d="M116.08064516129033,0h13v150h-13Z" fill="#006400"/><path aria-label="Year: 2000; t: 4.0; Emissions: 3.95" role="graphics-symbol" aria-roledescription="bar" d="M128.98387096774195,0h13v150h-13Z" fill="#1E8732"/><path aria-label="Year: 2001; t: 4.0; Emissions: 3.96" role="graphics-symbol" aria-roledescription="bar" d="M141.88709677419357,0h13v150h-13Z" fill="#3CAA64"/><path aria-label="Year: 2002; t: 4.0; Emissions: 3.96" role="graphics-symbol" aria-roledescription="bar" d="M154.79032258064515,0h13v150h-13Z" fill="#3CAA64"/><path aria-label="Year: 2003; t: 4.1; Emissions: 4.09" role="graphics-symbol" aria-roledescription="bar" d="M167.69354838709677,0h13v150h-13Z" fill="#8CE18C"/><path aria-label="Year: 2004; t: 4.2; Emissions: 4.22" role="graphics-symbol" aria-roledescription="bar" d="M180.59677419354838,0h13v150h-13Z" fill="#C3FAA0"/><path aria-label="Year: 2005; t: 4.3; Emissions: 4.33" role="graphics-symbol" aria-roledescription="bar" d="M193.5,0h13v150h-13Z" fill="#FDF0E6"/><path aria-label="Year: 2006; t: 4.4; Emissions: 4.42" role="graphics-symbol" aria-roledescription="bar" d="M206.40322580645162,0h13v150h-13Z" fill="#E6AA8C"/><path aria-label="Year: 2007; t: 4.5; Emissions: 4.53" role="graphics-symbol" aria-roledescription="bar" d="M219.30645161290323,0h13v150h-13Z" fill="#D28250"/><path aria-label="Year: 2008; t: 4.5; Emissions: 4.5" role="graphics-symbol" aria-roledescription="bar" d="M232.20967741935485,0h13v150h-13Z" fill="#D28250"/><path aria-label="Year: 2009; t: 4.4; Emissions: 4.39" role="graphics-symbol" aria-roledescription="bar" d="M245.11290322580646,0h13v150h-13Z" fill="#E6AA8C"/><path aria-label="Year: 2010; t: 4.6; Emissions: 4.6" role="graphics-symbol" aria-roledescription="bar" d="M258.0161290322581,0h13v150h-13Z" fill="#C86E3C"/><path aria-label="Year: 2011; t: 4.7; Emissions: 4.69" role="graphics-symbol" aria-roledescription="bar" d="M270.9193548387097,0h13v150h-13Z" fill="#8C4614"/><path aria-label="Year: 2012; t: 4.7; Emissions: 4.69" role="graphics-symbol" aria-roledescription="bar" d="M283.8225806451613,0h13v150h-13Z" fill="#8C4614"/><path aria-label="Year: 2013; t: 4.7; Emissions: 4.72" role="graphics-symbol" aria-roledescription="bar" d="M296.72580645161287,0h13v150h-13Z" fill="#8C4614"/><path aria-label="Year: 2014; t: 4.7; Emissions: 4.68" role="graphics-symbol" aria-roledescription="bar" d="M309.62903225806446,0h13v150h-13Z" fill="#8C4614"/><path aria-label="Year: 2015; t: 4.6; Emissions: 4.6" role="graphics-symbol" aria-roledescription="bar" d="M322.53225806451616,0h13v150h-13Z" fill="#C86E3C"/><path aria-label="Year: 2016; t: 4.6; Emissions: 4.56" role="graphics-symbol" aria-roledescription="bar" d="M335.43548387096774,0h13v150h-13Z" fill="#C86E3C"/><path aria-label="Year: 2017; t: 4.6; Emissions: 4.58" role="graphics-symbol" aria-roledescription="bar" d="M348.33870967741933,0h13v150h-13Z" fill="#C86E3C"/><path aria-label="Year: 2018; t: 4.6; Emissions: 4.64" role="graphics-symbol" aria-roledescription="bar" d="M361.2419354838709,0h13v150h-13Z" fill="#AA5A28"/><path aria-label="Year: 2019; t: 4.6; Emissions: 4.58" role="graphics-symbol" aria-roledescription="bar" d="M374.1451612903226,0h13v150h-13Z" fill="#C86E3C"/><path aria-label="Year: 2020; t: 4.3; Emissions: 4.29" role="graphics-symbol" aria-roledescription="bar" d="M387.0483870967742,0h13v150h-13Z" fill="#FDF0E6"/></g><g class="mark-group role-legend" role="graphics-symbol" aria-roledescription="legend" aria-label="Discrete legend for fill color with 15 boundaries: 3.9, 4.0, 4.0, 4.1, 4.1, 4.2, 4.2, 4.3, 4.3, 4.4, 4.4, 4.5, 4.6, 4.6, 4.7"><g transform="translate(418,0)"><path class="background" aria-hidden="true" d="M0,0h31v150h-31Z" pointer-events="none"/><g><g class="mark-group role-legend-entry"><g transform="translate(0,0)"><path class="background" aria-hidden="true" d="M0,0h0v0h0Z" pointer-events="none"/><g><g class="mark-rect role-legend-band" pointer-events="none"><path d="M0,140.62499999999994h16v9.375000000000057h-16Z" fill="#006400" stroke="#ddd" stroke-width="0" opacity="1"/><path d="M0,131.25000000000006h16v9.374999999999886h-16Z" fill="#1E8732" stroke="#ddd" stroke-width="0" opacity="1"/><path d="M0,121.875h16v9.375000000000057h-16Z" fill="#3CAA64" stroke="#ddd" stroke-width="0" opacity="1"/><path d="M0,112.49999999999997h16v9.375000000000028h-16Z" fill="#78D278" stroke="#ddd" stroke-width="0" opacity="1"/><path d="M0,103.12499999999991h16v9.375000000000057h-16Z" fill="#8CE18C" stroke="#ddd" stroke-width="0" opacity="1"/><path d="M0,93.75000000000001h16v9.3749999999999h-16Z" fill="#AAF096" stroke="#ddd" stroke-width="0" opacity="1"/><path d="M0,84.37500000000013h16v9.374999999999886h-16Z" fill="#C3FAA0" stroke="#ddd" stroke-width="0" opacity="1"/><path d="M0,75.00000000000007h16v9.375000000000057h-16Z" fill="#F0FFDC" stroke="#ddd" stroke-width="0" opacity="1"/><path d="M0,65.62500000000003h16v9.375000000000043h-16Z" fill="#FDF0E6" stroke="#ddd" stroke-width="0" opacity="1"/><path d="M0,56.249999999999986h16v9.375000000000043h-16Z" fill="#F0C8C8" stroke="#ddd" stroke-width="0" opacity="1"/><path d="M0,46.874999999999936h16v9.37500000000005h-16Z" fill="#E6AA8C" stroke="#ddd" stroke-width="0" opacity="1"/><path d="M0,37.500000000000036h16v9.3749999999999h-16Z" fill="#DC9664" stroke="#ddd" stroke-width="0" opacity="1"/><path d="M0,28.124999999999982h16v9.375000000000053h-16Z" fill="#D28250" stroke="#ddd" stroke-width="0" opacity="1"/><path d="M0,18.7500000000001h16v9.374999999999883h-16Z" fill="#C86E3C" stroke="#ddd" stroke-width="0" opacity="1"/><path d="M0,9.3749999999999h16v9.375000000000199h-16Z" fill="#AA5A28" stroke="#ddd" stroke-width="0" opacity="1"/><path d="M0,0h16v9.3749999999999h-16Z" fill="#8C4614" stroke="#ddd" stroke-width="0" opacity="1"/></g><g class="mark-text role-legend-label" pointer-events="none"><text text-anchor="start" transform="translate(18,148)" font-family="Circular Std Book" font-size="10px" fill="#676A86" opacity="1"/><text text-anchor="start" transform="translate(18,143.62499999999994)" font-family="Circular Std Book" font-size="10px" fill="#676A86" opacity="1">3.9</text><text text-anchor="start" transform="translate(18,134.25000000000006)" font-family="Circular Std Book" font-size="10px" fill="#676A86" opacity="0">4.0</text><text text-anchor="start" transform="translate(18,124.875)" font-family="Circular Std Book" font-size="10px" fill="#676A86" opacity="1">4.0</text><text text-anchor="start" transform="translate(18,115.49999999999997)" font-family="Circular Std Book" font-size="10px" fill="#676A86" opacity="0">4.1</text><text text-anchor="start" transform="translate(18,106.12499999999991)" font-family="Circular Std Book" font-size="10px" fill="#676A86" opacity="1">4.1</text><text text-anchor="start" transform="translate(18,96.75000000000001)" font-family="Circular Std Book" font-size="10px" fill="#676A86" opacity="0">4.2</text><text text-anchor="start" transform="translate(18,87.37500000000013)" font-family="Circular Std Book" font-size="10px" fill="#676A86" opacity="1">4.2</text><text text-anchor="start" transform="translate(18,78.00000000000007)" font-family="Circular Std Book" font-size="10px" fill="#676A86" opacity="0">4.3</text><text text-anchor="start" transform="translate(18,68.62500000000003)" font-family="Circular Std Book" font-size="10px" fill="#676A86" opacity="1">4.3</text><text text-anchor="start" transform="translate(18,59.249999999999986)" font-family="Circular Std Book" font-size="10px" fill="#676A86" opacity="0">4.4</text><text text-anchor="start" transform="translate(18,49.874999999999936)" font-family="Circular Std Book" font-size="10px" fill="#676A86" opacity="1">4.4</text><text text-anchor="start" transform="translate(18,40.500000000000036)" font-family="Circular Std Book" font-size="10px" fill="#676A86" opacity="0">4.5</text><text text-anchor="start" transform="translate(18,31.124999999999982)" font-family="Circular Std Book" font-size="10px" fill="#676A86" opacity="1">4.6</text><text text-anchor="start" transform="translate(18,21.7500000000001)" font-family="Circular Std Book" font-size="10px" fill="#676A86" opacity="0">4.6</text><text text-anchor="start" transform="translate(18,12.3749999999999)" font-family="Circular Std Book" font-size="10px" fill="#676A86" opacity="1">4.7</text></g></g><path class="foreground" aria-hidden="true" d="" pointer-events="none" display="none"/></g></g></g><path class="foreground" aria-hidden="true" d="" pointer-events="none" display="none"/></g></g></g><path class="foreground" aria-hidden="true" d="" display="none"/></g></g></g></svg>