<svg xmlns="http://www.w3.org/2000/svg" xmlns:xlink="http://www.w3.org/1999/xlink" version="1.1" class="marks" width="470" height="193" viewBox="0 0 470 193"><rect width="470" height="193" fill="white"/><g fill="none" stroke-miterlimit="10" transform="translate(6,38)"><g class="mark-group role-frame root" role="graphics-object" aria-roledescription="group mark container"><g transform="translate(0,0)"><path class="background" aria-hidden="true" d="M0,0h400v150h-400Z"/><g><g class="mark-group role-axis" role="graphics-symbol" aria-roledescription="axis" aria-label="X-axis titled 'Greening prosperity per capita in discounted 2017 US dollars' for a discrete scale with 32 values: 1990, 1991, 1992, 1993, 1994, ending with 2024"><g transform="translate(0.5,150.5)"><path class="background" aria-hidden="true" d="M0,0h0v0h0Z" pointer-events="none"/><g><g class="mark-text role-axis-label" pointer-events="none"/><g class="mark-text role-axis-title" pointer-events="none"><text text-anchor="start" transform="translate(0,-159)" font-family="Circular Std Book" font-size="12px" font-weight="bold" fill="#676A86" fill-opacity="0.8" opacity="1">Greening prosperity per capita in discounted 2017 US dollars</text></g></g><path class="foreground" aria-hidden="true" d="" pointer-events="none" display="none"/></g></g><g class="mark-rect role-mark layer_0_marks" role="graphics-object" aria-roledescription="rect mark container"><path aria-label="Year: 1990; t: 2413.90217781; GPR: 2413.9" role="graphics-symbol" aria-roledescription="bar" d="M-0.25,0h13v150h-13Z" fill="rgb(38, 9, 0)"/><path aria-label="Year: 1991; t: 2427.52816675; GPR: 2427.53" role="graphics-symbol" aria-roledescription="bar" d="M12.25,0h13v150h-13Z" fill="rgb(43, 13, 0)"/><path aria-label="Year: 1992; t: 2471.89852982; GPR: 2471.9" role="graphics-symbol" aria-roledescription="bar" d="M24.75,0h13v150h-13Z" fill="rgb(61, 27, 0)"/><path aria-label="Year: 1993; t: 2496.84363545; GPR: 2496.84" role="graphics-symbol" aria-roledescription="bar" d="M37.25,0h13v150h-13Z" fill="rgb(71, 34, 0)"/><path aria-label="Year: 1994; t: 2550.67550999; GPR: 2550.68" role="graphics-symbol" aria-roledescription="bar" d="M49.75,0h13v150h-13Z" fill="rgb(92, 50, 1)"/><path aria-label="Year: 1995; t: 2557.13639073; GPR: 2557.14" role="graphics-symbol" aria-roledescription="bar" d="M62.25,0h13v150h-13Z" fill="rgb(95, 52, 2)"/><path aria-label="Year: 1996; t: 2597.10276208; GPR: 2597.1" role="graphics-symbol" aria-roledescription="bar" d="M74.75,0h13v150h-13Z" fill="rgb(111, 64, 8)"/><path aria-label="Year: 1997; t: 2648.88798889; GPR: 2648.89" role="graphics-symbol" aria-roledescription="bar" d="M87.25,0h13v150h-13Z" fill="rgb(132, 80, 15)"/><path aria-label="Year: 1998; t: 2695.47360498; GPR: 2695.47" role="graphics-symbol" aria-roledescription="bar" d="M99.75,0h13v150h-13Z" fill="rgb(150, 94, 22)"/><path aria-label="Year: 1999; t: 2770.85058258; GPR: 2770.85" role="graphics-symbol" aria-roledescription="bar" d="M112.25,0h13v150h-13Z" fill="rgb(177, 121, 45)"/><path aria-label="Year: 2000; t: 2812.65119994; GPR: 2812.65" role="graphics-symbol" aria-roledescription="bar" d="M124.75,0h13v150h-13Z" fill="rgb(190, 138, 62)"/><path aria-label="Year: 2001; t: 2835.12164171; GPR: 2835.12" role="graphics-symbol" aria-roledescription="bar" d="M137.25,0h13v150h-13Z" fill="rgb(197, 147, 70)"/><path aria-label="Year: 2002; t: 2871.25783688; GPR: 2871.26" role="graphics-symbol" aria-roledescription="bar" d="M149.75,0h13v150h-13Z" fill="rgb(206, 162, 89)"/><path aria-label="Year: 2003; t: 2847.11273539; GPR: 2847.11" role="graphics-symbol" aria-roledescription="bar" d="M162.25,0h13v150h-13Z" fill="rgb(201, 152, 76)"/><path aria-label="Year: 2004; t: 2860.35477347; GPR: 2860.35" role="graphics-symbol" aria-roledescription="bar" d="M174.75,0h13v150h-13Z" fill="rgb(204, 157, 83)"/><path aria-label="Year: 2005; t: 2880.21176394; GPR: 2880.21" role="graphics-symbol" aria-roledescription="bar" d="M187.25,0h13v150h-13Z" fill="rgb(208, 166, 94)"/><path aria-label="Year: 2006; t: 2929.91744682; GPR: 2929.92" role="graphics-symbol" aria-roledescription="bar" d="M199.75,0h13v150h-13Z" fill="rgb(220, 186, 121)"/><path aria-label="Year: 2007; t: 2967.48499812; GPR: 2967.48" role="graphics-symbol" aria-roledescription="bar" d="M212.25,0h13v150h-13Z" fill="rgb(228, 201, 142)"/><path aria-label="Year: 2008; t: 3026.77089901; GPR: 3026.77" role="graphics-symbol" aria-roledescription="bar" d="M224.75,0h13v150h-13Z" fill="rgb(236, 216, 171)"/><path aria-label="Year: 2009; t: 3044.28833139; GPR: 3044.29" role="graphics-symbol" aria-roledescription="bar" d="M237.25,0h13v150h-13Z" fill="rgb(238, 221, 180)"/><path aria-label="Year: 2010; t: 3013.66447597; GPR: 3013.66" role="graphics-symbol" aria-roledescription="bar" d="M249.75,0h13v150h-13Z" fill="rgb(234, 213, 165)"/><path aria-label="Year: 2011; t: 3036.9522581; GPR: 3036.95" role="graphics-symbol" aria-roledescription="bar" d="M262.25,0h13v150h-13Z" fill="rgb(237, 219, 176)"/><path aria-label="Year: 2012; t: 3098.22748504; GPR: 3098.23" role="graphics-symbol" aria-roledescription="bar" d="M274.75,0h13v150h-13Z" fill="rgb(242, 232, 203)"/><path aria-label="Year: 2013; t: 3136.2834078; GPR: 3136.28" role="graphics-symbol" aria-roledescription="bar" d="M287.25,0h13v150h-13Z" fill="rgb(241, 235, 215)"/><path aria-label="Year: 2014; t: 3229.67409926; GPR: 3229.67" role="graphics-symbol" aria-roledescription="bar" d="M299.75,0h13v150h-13Z" fill="rgb(229, 239, 233)"/><path aria-label="Year: 2015; t: 3356.58963427; GPR: 3356.59" role="graphics-symbol" aria-roledescription="bar" d="M312.25,0h13v150h-13Z" fill="rgb(183, 226, 219)"/><path aria-label="Year: 2016; t: 3458.46852628; GPR: 3458.47" role="graphics-symbol" aria-roledescription="bar" d="M324.75,0h13v150h-13Z" fill="rgb(132, 203, 193)"/><path aria-label="Year: 2017; t: 3532.68775259; GPR: 3532.69" role="graphics-symbol" aria-roledescription="bar" d="M337.25,0h13v150h-13Z" fill="rgb(92, 177, 167)"/><path aria-label="Year: 2018; t: 3570.98550559; GPR: 3570.99" role="graphics-symbol" aria-roledescription="bar" d="M349.75,0h13v150h-13Z" fill="rgb(72, 163, 154)"/><path aria-label="Year: 2019; t: 3680.65552638; GPR: 3680.66" role="graphics-symbol" aria-roledescription="bar" d="M362.25,0h13v150h-13Z" fill="rgb(24, 122, 114)"/><path aria-label="Year: 2020; t: 3775.56471413; GPR: 3775.56" role="graphics-symbol" aria-roledescription="bar" d="M374.75,0h13v150h-13Z" fill="rgb(6, 89, 80)"/></g><g class="mark-rect role-mark layer_1_marks" role="graphics-object" aria-roledescription="rect mark container"><path aria-label="Year: 1990; t: 2413.90217781; GPR: 2413.9" role="graphics-symbol" aria-roledescription="bar" d="M-0.25,0h13v150h-13Z" fill="rgb(38, 9, 0)"/><path aria-label="Year: 1991; t: 2427.52816675; GPR: 2427.53" role="graphics-symbol" aria-roledescription="bar" d="M12.25,0h13v150h-13Z" fill="rgb(43, 13, 0)"/><path aria-label="Year: 1992; t: 2471.89852982; GPR: 2471.9" role="graphics-symbol" aria-roledescription="bar" d="M24.75,0h13v150h-13Z" fill="rgb(61, 27, 0)"/><path aria-label="Year: 1993; t: 2496.84363545; GPR: 2496.84" role="graphics-symbol" aria-roledescription="bar" d="M37.25,0h13v150h-13Z" fill="rgb(71, 34, 0)"/><path aria-label="Year: 1994; t: 2550.67550999; GPR: 2550.68" role="graphics-symbol" aria-roledescription="bar" d="M49.75,0h13v150h-13Z" fill="rgb(92, 50, 1)"/><path aria-label="Year: 1995; t: 2557.13639073; GPR: 2557.14" role="graphics-symbol" aria-roledescription="bar" d="M62.25,0h13v150h-13Z" fill="rgb(95, 52, 2)"/><path aria-label="Year: 1996; t: 2597.10276208; GPR: 2597.1" role="graphics-symbol" aria-roledescription="bar" d="M74.75,0h13v150h-13Z" fill="rgb(111, 64, 8)"/><path aria-label="Year: 1997; t: 2648.88798889; GPR: 2648.89" role="graphics-symbol" aria-roledescription="bar" d="M87.25,0h13v150h-13Z" fill="rgb(132, 80, 15)"/><path aria-label="Year: 1998; t: 2695.47360498; GPR: 2695.47" role="graphics-symbol" aria-roledescription="bar" d="M99.75,0h13v150h-13Z" fill="rgb(150, 94, 22)"/><path aria-label="Year: 1999; t: 2770.85058258; GPR: 2770.85" role="graphics-symbol" aria-roledescription="bar" d="M112.25,0h13v150h-13Z" fill="rgb(177, 121, 45)"/><path aria-label="Year: 2000; t: 2812.65119994; GPR: 2812.65" role="graphics-symbol" aria-roledescription="bar" d="M124.75,0h13v150h-13Z" fill="rgb(190, 138, 62)"/><path aria-label="Year: 2001; t: 2835.12164171; GPR: 2835.12" role="graphics-symbol" aria-roledescription="bar" d="M137.25,0h13v150h-13Z" fill="rgb(197, 147, 70)"/><path aria-label="Year: 2002; t: 2871.25783688; GPR: 2871.26" role="graphics-symbol" aria-roledescription="bar" d="M149.75,0h13v150h-13Z" fill="rgb(206, 162, 89)"/><path aria-label="Year: 2003; t: 2847.11273539; GPR: 2847.11" role="graphics-symbol" aria-roledescription="bar" d="M162.25,0h13v150h-13Z" fill="rgb(201, 152, 76)"/><path aria-label="Year: 2004; t: 2860.35477347; GPR: 2860.35" role="graphics-symbol" aria-roledescription="bar" d="M174.75,0h13v150h-13Z" fill="rgb(204, 157, 83)"/><path aria-label="Year: 2005; t: 2880.21176394; GPR: 2880.21" role="graphics-symbol" aria-roledescription="bar" d="M187.25,0h13v150h-13Z" fill="rgb(208, 166, 94)"/><path aria-label="Year: 2006; t: 2929.91744682; GPR: 2929.92" role="graphics-symbol" aria-roledescription="bar" d="M199.75,0h13v150h-13Z" fill="rgb(220, 186, 121)"/><path aria-label="Year: 2007; t: 2967.48499812; GPR: 2967.48" role="graphics-symbol" aria-roledescription="bar" d="M212.25,0h13v150h-13Z" fill="rgb(228, 201, 142)"/><path aria-label="Year: 2008; t: 3026.77089901; GPR: 3026.77" role="graphics-symbol" aria-roledescription="bar" d="M224.75,0h13v150h-13Z" fill="rgb(236, 216, 171)"/><path aria-label="Year: 2009; t: 3044.28833139; GPR: 3044.29" role="graphics-symbol" aria-roledescription="bar" d="M237.25,0h13v150h-13Z" fill="rgb(238, 221, 180)"/><path aria-label="Year: 2010; t: 3013.66447597; GPR: 3013.66" role="graphics-symbol" aria-roledescription="bar" d="M249.75,0h13v150h-13Z" fill="rgb(234, 213, 165)"/><path aria-label="Year: 2011; t: 3036.9522581; GPR: 3036.95" role="graphics-symbol" aria-roledescription="bar" d="M262.25,0h13v150h-13Z" fill="rgb(237, 219, 176)"/><path aria-label="Year: 2012; t: 3098.22748504; GPR: 3098.23" role="graphics-symbol" aria-roledescription="bar" d="M274.75,0h13v150h-13Z" fill="rgb(242, 232, 203)"/><path aria-label="Year: 2013; t: 3136.2834078; GPR: 3136.28" role="graphics-symbol" aria-roledescription="bar" d="M287.25,0h13v150h-13Z" fill="rgb(241, 235, 215)"/><path aria-label="Year: 2014; t: 3229.67409926; GPR: 3229.67" role="graphics-symbol" aria-roledescription="bar" d="M299.75,0h13v150h-13Z" fill="rgb(229, 239, 233)"/><path aria-label="Year: 2015; t: 3356.58963427; GPR: 3356.59" role="graphics-symbol" aria-roledescription="bar" d="M312.25,0h13v150h-13Z" fill="rgb(183, 226, 219)"/><path aria-label="Year: 2016; t: 3458.46852628; GPR: 3458.47" role="graphics-symbol" aria-roledescription="bar" d="M324.75,0h13v150h-13Z" fill="rgb(132, 203, 193)"/><path aria-label="Year: 2017; t: 3532.68775259; GPR: 3532.69" role="graphics-symbol" aria-roledescription="bar" d="M337.25,0h13v150h-13Z" fill="rgb(92, 177, 167)"/><path aria-label="Year: 2018; t: 3570.98550559; GPR: 3570.99" role="graphics-symbol" aria-roledescription="bar" d="M349.75,0h13v150h-13Z" fill="rgb(72, 163, 154)"/><path aria-label="Year: 2019; t: 3680.65552638; GPR: 3680.66" role="graphics-symbol" aria-roledescription="bar" d="M362.25,0h13v150h-13Z" fill="rgb(24, 122, 114)"/><path aria-label="Year: 2020; t: 3775.56471413; GPR: 3775.56" role="graphics-symbol" aria-roledescription="bar" d="M374.75,0h13v150h-13Z" fill="rgb(6, 89, 80)"/></g><g class="mark-image role-mark layer_2_marks" role="graphics-object" aria-roledescription="image mark container"><image aria-label="x: 2024; y: 1.2; img: https://raw.githubusercontent.com/EconomicsObservatory/ECOvisualisations/main/guidelines/logos/eco-icon-dark.png" role="graphics-symbol" aria-roledescription="image mark" xlink:href="https://raw.githubusercontent.com/EconomicsObservatory/ECOvisualisations/main/guidelines/logos/eco-icon-dark.png" transform="translate(348.125,-33)" width="40" height="40" preserveAspectRatio="xMidYMid" opacity="0.5"/></g><g class="mark-group role-legend" role="graphics-symbol" aria-roledescription="legend" aria-label="Gradient legend for fill color with values from 2,600 to 3,800"><g transform="translate(418,0)"><path class="background" aria-hidden="true" d="M0,0h41v150h-41Z" pointer-events="none"/><g><g class="mark-group role-legend-entry"><g transform="translate(0,0)"><path class="background" aria-hidden="true" d="M0,0h0v0h0Z" pointer-events="none"/><g><g class="mark-rect role-legend-gradient" pointer-events="none"><path d="M0,0h16v150h-16Z" fill="url(#gradient_32)" stroke="#ddd" stroke-width="0" opacity="1"/></g><g class="mark-text role-legend-label" pointer-events="none"><text text-anchor="start" transform="translate(18,148)" font-family="Circular Std Book" font-size="10px" fill="#676A86" opacity="1">2,600</text><text text-anchor="start" transform="translate(18,103.00000000000001)" font-family="Circular Std Book" font-size="10px" fill="#676A86" opacity="1">3,000</text><text text-anchor="start" transform="translate(18,53.00000000000001)" font-family="Circular Std Book" font-size="10px" fill="#676A86" opacity="1">3,400</text><text text-anchor="start" transform="translate(18,8)" font-family="Circular Std Book" font-size="10px" fill="#676A86" opacity="1">3,800</text></g></g><path class="foreground" aria-hidden="true" d="" pointer-events="none" display="none"/></g></g></g><path class="foreground" aria-hidden="true" d="" pointer-events="none" display="none"/></g></g></g><path class="foreground" aria-hidden="true" d="" display="none"/></g></g></g><defs><linearGradient id="gradient_32" x1="0" x2="0" y1="1" y2="0"><stop offset="0" stop-color="rgb(112, 65, 8)"/><stop offset="0.08333333333333333" stop-color="rgb(152, 95, 23)"/><stop offset="0.16666666666666666" stop-color="rgb(186, 133, 57)"/><stop offset="0.25" stop-color="rgb(213, 174, 105)"/><stop offset="0.3333333333333333" stop-color="rgb(232, 209, 158)"/><stop offset="0.4166666666666667" stop-color="rgb(242, 232, 204)"/><stop offset="0.5" stop-color="rgb(238, 241, 234)"/><stop offset="0.5833333333333334" stop-color="rgb(207, 234, 229)"/><stop offset="0.6666666666666666" stop-color="rgb(162, 217, 209)"/><stop offset="0.75" stop-color="rgb(110, 188, 179)"/><stop offset="0.8333333333333334" stop-color="rgb(59, 152, 143)"/><stop offset="0.9166666666666666" stop-color="rgb(20, 115, 107)"/><stop offset="1" stop-color="rgb(2, 81, 71)"/></linearGradient></defs></svg>