<svg xmlns="http://www.w3.org/2000/svg" xmlns:xlink="http://www.w3.org/1999/xlink" version="1.1" class="marks" width="471" height="191" viewBox="0 0 471 191"><rect width="471" height="191" fill="white"/><g fill="none" stroke-miterlimit="10" transform="translate(10,24)"><g class="mark-group role-frame root" role="graphics-object" aria-roledescription="group mark container"><g transform="translate(0,0)"><path class="background" aria-hidden="true" d="M0,0h400v150h-400Z"/><g><g class="mark-group role-axis" role="graphics-symbol" aria-roledescription="axis" aria-label="X-axis titled 'GDP per capita at PPP in 2017 international constant US dollars' for a discrete scale with 33 values: 1990, 1991, 1992, 1993, 1994, ending with 2022"><g transform="translate(0.5,150.5)"><path class="background" aria-hidden="true" d="M0,0h0v0h0Z" pointer-events="none"/><g><g class="mark-text role-axis-label" pointer-events="none"><text text-anchor="middle" transform="translate(5.5606060606060606,10)" font-family="Circular Std Book" font-size="10px" fill="#676A86" fill-opacity="0.7" opacity="1">1990</text><text text-anchor="middle" transform="translate(66.16666666666667,10)" font-family="Circular Std Book" font-size="10px" fill="#676A86" fill-opacity="0.7" opacity="1">1995</text><text text-anchor="middle" transform="translate(126.77272727272728,10)" font-family="Circular Std Book" font-size="10px" fill="#676A86" fill-opacity="0.7" opacity="1">2000</text><text text-anchor="middle" transform="translate(187.37878787878788,10)" font-family="Circular Std Book" font-size="10px" fill="#676A86" fill-opacity="0.7" opacity="1">2005</text><text text-anchor="middle" transform="translate(247.9848484848485,10)" font-family="Circular Std Book" font-size="10px" fill="#676A86" fill-opacity="0.7" opacity="1">2010</text><text text-anchor="middle" transform="translate(308.59090909090907,10)" font-family="Circular Std Book" font-size="10px" fill="#676A86" fill-opacity="0.7" opacity="1">2015</text><text text-anchor="middle" transform="translate(369.1969696969697,10)" font-family="Circular Std Book" font-size="10px" fill="#676A86" fill-opacity="0.7" opacity="1">2020</text></g><g class="mark-text role-axis-title" pointer-events="none"><text text-anchor="start" transform="translate(0,-159)" font-family="Circular Std Book" font-size="12px" font-weight="bold" fill="#676A86" fill-opacity="0.8" opacity="1">GDP per capita at PPP in 2017 international constant US dollars</text></g></g><path class="foreground" aria-hidden="true" d="" pointer-events="none" display="none"/></g></g><g class="mark-text role-mark layer_0_marks" role="graphics-object" aria-roledescription="text mark container"><text aria-label="Year: 1990; t: 56.2320k; GDP: 56232.03" role="graphics-symbol" aria-roledescription="text mark" text-anchor="start" transform="translate(6.0606060606060606,19)" font-family="Circular Std Book" font-size="12px" fill="white">Switzerland</text></g><g class="mark-rect role-mark layer_1_marks" role="graphics-object" aria-roledescription="rect mark container"><path aria-label="Year: 1990; t: 56.2320k; GDP: 56232.03" role="graphics-symbol" aria-roledescription="bar" d="M0.06060606060606055,0h12v150h-12Z" fill="#9ECAE1"/><path aria-label="Year: 1991; t: 55.0250k; GDP: 55025.01" role="graphics-symbol" aria-roledescription="bar" d="M12.18181818181818,0h12v150h-12Z" fill="#9ECAE1"/><path aria-label="Year: 1992; t: 54.3979k; GDP: 54397.88" role="graphics-symbol" aria-roledescription="bar" d="M24.303030303030305,0h12v150h-12Z" fill="#9ECAE1"/><path aria-label="Year: 1993; t: 53.8368k; GDP: 53836.81" role="graphics-symbol" aria-roledescription="bar" d="M36.42424242424242,0h12v150h-12Z" fill="#9ECAE1"/><path aria-label="Year: 1994; t: 54.0875k; GDP: 54087.52" role="graphics-symbol" aria-roledescription="bar" d="M48.54545454545455,0h12v150h-12Z" fill="#9ECAE1"/><path aria-label="Year: 1995; t: 53.9856k; GDP: 53985.65" role="graphics-symbol" aria-roledescription="bar" d="M60.66666666666667,0h12v150h-12Z" fill="#9ECAE1"/><path aria-label="Year: 1996; t: 54.0011k; GDP: 54001.05" role="graphics-symbol" aria-roledescription="bar" d="M72.78787878787878,0h12v150h-12Z" fill="#9ECAE1"/><path aria-label="Year: 1997; t: 55.0893k; GDP: 55089.33" role="graphics-symbol" aria-roledescription="bar" d="M84.9090909090909,0h12v150h-12Z" fill="#9ECAE1"/><path aria-label="Year: 1998; t: 56.5901k; GDP: 56590.12" role="graphics-symbol" aria-roledescription="bar" d="M97.03030303030303,0h12v150h-12Z" fill="#9ECAE1"/><path aria-label="Year: 1999; t: 57.2573k; GDP: 57257.32" role="graphics-symbol" aria-roledescription="bar" d="M109.15151515151516,0h12v150h-12Z" fill="#9ECAE1"/><path aria-label="Year: 2000; t: 59.1904k; GDP: 59190.42" role="graphics-symbol" aria-roledescription="bar" d="M121.27272727272728,0h12v150h-12Z" fill="#9ECAE1"/><path aria-label="Year: 2001; t: 59.7438k; GDP: 59743.82" role="graphics-symbol" aria-roledescription="bar" d="M133.3939393939394,0h12v150h-12Z" fill="#C6DBEF"/><path aria-label="Year: 2002; t: 59.2502k; GDP: 59250.16" role="graphics-symbol" aria-roledescription="bar" d="M145.5151515151515,0h12v150h-12Z" fill="#9ECAE1"/><path aria-label="Year: 2003; t: 58.7931k; GDP: 58793.15" role="graphics-symbol" aria-roledescription="bar" d="M157.63636363636363,0h12v150h-12Z" fill="#9ECAE1"/><path aria-label="Year: 2004; t: 59.9679k; GDP: 59967.91" role="graphics-symbol" aria-roledescription="bar" d="M169.75757575757575,0h12v150h-12Z" fill="#C6DBEF"/><path aria-label="Year: 2005; t: 61.2234k; GDP: 61223.39" role="graphics-symbol" aria-roledescription="bar" d="M181.87878787878788,0h12v150h-12Z" fill="#C6DBEF"/><path aria-label="Year: 2006; t: 63.3188k; GDP: 63318.79" role="graphics-symbol" aria-roledescription="bar" d="M194,0h12v150h-12Z" fill="#C6DBEF"/><path aria-label="Year: 2007; t: 65.2132k; GDP: 65213.18" role="graphics-symbol" aria-roledescription="bar" d="M206.12121212121212,0h12v150h-12Z" fill="#C6DBEF"/><path aria-label="Year: 2008; t: 66.1979k; GDP: 66197.87" role="graphics-symbol" aria-roledescription="bar" d="M218.24242424242425,0h12v150h-12Z" fill="#C6DBEF"/><path aria-label="Year: 2009; t: 63.8740k; GDP: 63873.95" role="graphics-symbol" aria-roledescription="bar" d="M230.36363636363637,0h12v150h-12Z" fill="#C6DBEF"/><path aria-label="Year: 2010; t: 65.2623k; GDP: 65262.34" role="graphics-symbol" aria-roledescription="bar" d="M242.4848484848485,0h12v150h-12Z" fill="#C6DBEF"/><path aria-label="Year: 2011; t: 65.7109k; GDP: 65710.92" role="graphics-symbol" aria-roledescription="bar" d="M254.60606060606057,0h12v150h-12Z" fill="#C6DBEF"/><path aria-label="Year: 2012; t: 65.7836k; GDP: 65783.59" role="graphics-symbol" aria-roledescription="bar" d="M266.72727272727275,0h12v150h-12Z" fill="#C6DBEF"/><path aria-label="Year: 2013; t: 66.1969k; GDP: 66196.95" role="graphics-symbol" aria-roledescription="bar" d="M278.8484848484849,0h12v150h-12Z" fill="#C6DBEF"/><path aria-label="Year: 2014; t: 66.9309k; GDP: 66930.87" role="graphics-symbol" aria-roledescription="bar" d="M290.96969696969694,0h12v150h-12Z" fill="#C6DBEF"/><path aria-label="Year: 2015; t: 67.2616k; GDP: 67261.59" role="graphics-symbol" aria-roledescription="bar" d="M303.09090909090907,0h12v150h-12Z" fill="#C6DBEF"/><path aria-label="Year: 2016; t: 67.9074k; GDP: 67907.39" role="graphics-symbol" aria-roledescription="bar" d="M315.2121212121212,0h12v150h-12Z" fill="#C6DBEF"/><path aria-label="Year: 2017; t: 68.1935k; GDP: 68193.51" role="graphics-symbol" aria-roledescription="bar" d="M327.3333333333333,0h12v150h-12Z" fill="#C6DBEF"/><path aria-label="Year: 2018; t: 69.6293k; GDP: 69629.34" role="graphics-symbol" aria-roledescription="bar" d="M339.45454545454544,0h12v150h-12Z" fill="#DEEBF7"/><path aria-label="Year: 2019; t: 69.9239k; GDP: 69923.93" role="graphics-symbol" aria-roledescription="bar" d="M351.57575757575756,0h12v150h-12Z" fill="#DEEBF7"/><path aria-label="Year: 2020; t: 67.7659k; GDP: 67765.88" role="graphics-symbol" aria-roledescription="bar" d="M363.6969696969697,0h12v150h-12Z" fill="#C6DBEF"/><path aria-label="Year: 2021; t: 70.0974k; GDP: 70097.37" role="graphics-symbol" aria-roledescription="bar" d="M375.8181818181818,0h12v150h-12Z" fill="#DEEBF7"/><path aria-label="Year: 2022; t: 70.9997k; GDP: 70999.69" role="graphics-symbol" aria-roledescription="bar" d="M387.93939393939394,0h12v150h-12Z" fill="#DEEBF7"/></g><g class="mark-rect role-mark layer_2_marks" role="graphics-object" aria-roledescription="rect mark container"><path aria-label="Year: 1990; t: 56.2320k; GDP: 56232.03" role="graphics-symbol" aria-roledescription="bar" d="M0.06060606060606055,0h12v150h-12Z" fill="#9ECAE1"/><path aria-label="Year: 1991; t: 55.0250k; GDP: 55025.01" role="graphics-symbol" aria-roledescription="bar" d="M12.18181818181818,0h12v150h-12Z" fill="#9ECAE1"/><path aria-label="Year: 1992; t: 54.3979k; GDP: 54397.88" role="graphics-symbol" aria-roledescription="bar" d="M24.303030303030305,0h12v150h-12Z" fill="#9ECAE1"/><path aria-label="Year: 1993; t: 53.8368k; GDP: 53836.81" role="graphics-symbol" aria-roledescription="bar" d="M36.42424242424242,0h12v150h-12Z" fill="#9ECAE1"/><path aria-label="Year: 1994; t: 54.0875k; GDP: 54087.52" role="graphics-symbol" aria-roledescription="bar" d="M48.54545454545455,0h12v150h-12Z" fill="#9ECAE1"/><path aria-label="Year: 1995; t: 53.9856k; GDP: 53985.65" role="graphics-symbol" aria-roledescription="bar" d="M60.66666666666667,0h12v150h-12Z" fill="#9ECAE1"/><path aria-label="Year: 1996; t: 54.0011k; GDP: 54001.05" role="graphics-symbol" aria-roledescription="bar" d="M72.78787878787878,0h12v150h-12Z" fill="#9ECAE1"/><path aria-label="Year: 1997; t: 55.0893k; GDP: 55089.33" role="graphics-symbol" aria-roledescription="bar" d="M84.9090909090909,0h12v150h-12Z" fill="#9ECAE1"/><path aria-label="Year: 1998; t: 56.5901k; GDP: 56590.12" role="graphics-symbol" aria-roledescription="bar" d="M97.03030303030303,0h12v150h-12Z" fill="#9ECAE1"/><path aria-label="Year: 1999; t: 57.2573k; GDP: 57257.32" role="graphics-symbol" aria-roledescription="bar" d="M109.15151515151516,0h12v150h-12Z" fill="#9ECAE1"/><path aria-label="Year: 2000; t: 59.1904k; GDP: 59190.42" role="graphics-symbol" aria-roledescription="bar" d="M121.27272727272728,0h12v150h-12Z" fill="#9ECAE1"/><path aria-label="Year: 2001; t: 59.7438k; GDP: 59743.82" role="graphics-symbol" aria-roledescription="bar" d="M133.3939393939394,0h12v150h-12Z" fill="#C6DBEF"/><path aria-label="Year: 2002; t: 59.2502k; GDP: 59250.16" role="graphics-symbol" aria-roledescription="bar" d="M145.5151515151515,0h12v150h-12Z" fill="#9ECAE1"/><path aria-label="Year: 2003; t: 58.7931k; GDP: 58793.15" role="graphics-symbol" aria-roledescription="bar" d="M157.63636363636363,0h12v150h-12Z" fill="#9ECAE1"/><path aria-label="Year: 2004; t: 59.9679k; GDP: 59967.91" role="graphics-symbol" aria-roledescription="bar" d="M169.75757575757575,0h12v150h-12Z" fill="#C6DBEF"/><path aria-label="Year: 2005; t: 61.2234k; GDP: 61223.39" role="graphics-symbol" aria-roledescription="bar" d="M181.87878787878788,0h12v150h-12Z" fill="#C6DBEF"/><path aria-label="Year: 2006; t: 63.3188k; GDP: 63318.79" role="graphics-symbol" aria-roledescription="bar" d="M194,0h12v150h-12Z" fill="#C6DBEF"/><path aria-label="Year: 2007; t: 65.2132k; GDP: 65213.18" role="graphics-symbol" aria-roledescription="bar" d="M206.12121212121212,0h12v150h-12Z" fill="#C6DBEF"/><path aria-label="Year: 2008; t: 66.1979k; GDP: 66197.87" role="graphics-symbol" aria-roledescription="bar" d="M218.24242424242425,0h12v150h-12Z" fill="#C6DBEF"/><path aria-label="Year: 2009; t: 63.8740k; GDP: 63873.95" role="graphics-symbol" aria-roledescription="bar" d="M230.36363636363637,0h12v150h-12Z" fill="#C6DBEF"/><path aria-label="Year: 2010; t: 65.2623k; GDP: 65262.34" role="graphics-symbol" aria-roledescription="bar" d="M242.4848484848485,0h12v150h-12Z" fill="#C6DBEF"/><path aria-label="Year: 2011; t: 65.7109k; GDP: 65710.92" role="graphics-symbol" aria-roledescription="bar" d="M254.60606060606057,0h12v150h-12Z" fill="#C6DBEF"/><path aria-label="Year: 2012; t: 65.7836k; GDP: 65783.59" role="graphics-symbol" aria-roledescription="bar" d="M266.72727272727275,0h12v150h-12Z" fill="#C6DBEF"/><path aria-label="Year: 2013; t: 66.1969k; GDP: 66196.95" role="graphics-symbol" aria-roledescription="bar" d="M278.8484848484849,0h12v150h-12Z" fill="#C6DBEF"/><path aria-label="Year: 2014; t: 66.9309k; GDP: 66930.87" role="graphics-symbol" aria-roledescription="bar" d="M290.96969696969694,0h12v150h-12Z" fill="#C6DBEF"/><path aria-label="Year: 2015; t: 67.2616k; GDP: 67261.59" role="graphics-symbol" aria-roledescription="bar" d="M303.09090909090907,0h12v150h-12Z" fill="#C6DBEF"/><path aria-label="Year: 2016; t: 67.9074k; GDP: 67907.39" role="graphics-symbol" aria-roledescription="bar" d="M315.2121212121212,0h12v150h-12Z" fill="#C6DBEF"/><path aria-label="Year: 2017; t: 68.1935k; GDP: 68193.51" role="graphics-symbol" aria-roledescription="bar" d="M327.3333333333333,0h12v150h-12Z" fill="#C6DBEF"/><path aria-label="Year: 2018; t: 69.6293k; GDP: 69629.34" role="graphics-symbol" aria-roledescription="bar" d="M339.45454545454544,0h12v150h-12Z" fill="#DEEBF7"/><path aria-label="Year: 2019; t: 69.9239k; GDP: 69923.93" role="graphics-symbol" aria-roledescription="bar" d="M351.57575757575756,0h12v150h-12Z" fill="#DEEBF7"/><path aria-label="Year: 2020; t: 67.7659k; GDP: 67765.88" role="graphics-symbol" aria-roledescription="bar" d="M363.6969696969697,0h12v150h-12Z" fill="#C6DBEF"/><path aria-label="Year: 2021; t: 70.0974k; GDP: 70097.37" role="graphics-symbol" aria-roledescription="bar" d="M375.8181818181818,0h12v150h-12Z" fill="#DEEBF7"/><path aria-label="Year: 2022; t: 70.9997k; GDP: 70999.69" role="graphics-symbol" aria-roledescription="bar" d="M387.93939393939394,0h12v150h-12Z" fill="#DEEBF7"/></g><g class="mark-text role-mark layer_3_marks" role="graphics-object" aria-roledescription="text mark container"><text aria-label="Year: 1990; t: 56.2320k; GDP: 56232.03" role="graphics-symbol" aria-roledescription="text mark" text-anchor="start" transform="translate(6.0606060606060606,19)" font-family="Circular Std Book" font-size="12px" fill="white">Switzerland</text></g><g class="mark-group role-legend" role="graphics-symbol" aria-roledescription="legend" aria-label="Discrete legend for fill color with 15 boundaries: 10k, 20k, 30k, 40k, 50k, 59k, 69k, 79k, 89k, 99k, 108k, 118k, 128k, 138k, 148k"><g transform="translate(418,0)"><path class="background" aria-hidden="true" d="M0,0h38v150h-38Z" pointer-events="none"/><g><g class="mark-group role-legend-entry"><g transform="translate(0,0)"><path class="background" aria-hidden="true" d="M0,0h0v0h0Z" pointer-events="none"/><g><g class="mark-rect role-legend-band" pointer-events="none"><path d="M0,140.625h16v9.375h-16Z" fill="#08306B" stroke="#ddd" stroke-width="0" opacity="1"/><path d="M0,131.25h16v9.375h-16Z" fill="#08519C" stroke="#ddd" stroke-width="0" opacity="1"/><path d="M0,121.875h16v9.375h-16Z" fill="#2171B5" stroke="#ddd" stroke-width="0" opacity="1"/><path d="M0,112.5h16v9.375h-16Z" fill="#4292C6" stroke="#ddd" stroke-width="0" opacity="1"/><path d="M0,103.125h16v9.375h-16Z" fill="#6BAED6" stroke="#ddd" stroke-width="0" opacity="1"/><path d="M0,93.75h16v9.375h-16Z" fill="#9ECAE1" stroke="#ddd" stroke-width="0" opacity="1"/><path d="M0,84.375h16v9.375h-16Z" fill="#C6DBEF" stroke="#ddd" stroke-width="0" opacity="1"/><path d="M0,75h16v9.375h-16Z" fill="#DEEBF7" stroke="#ddd" stroke-width="0" opacity="1"/><path d="M0,65.625h16v9.375h-16Z" fill="#FEE0D2" stroke="#ddd" stroke-width="0" opacity="1"/><path d="M0,56.25h16v9.375h-16Z" fill="#FCBBA1" stroke="#ddd" stroke-width="0" opacity="1"/><path d="M0,46.875h16v9.375h-16Z" fill="#FC9272" stroke="#ddd" stroke-width="0" opacity="1"/><path d="M0,37.5h16v9.375h-16Z" fill="#FB6A4A" stroke="#ddd" stroke-width="0" opacity="1"/><path d="M0,28.125h16v9.375h-16Z" fill="#EF3B2C" stroke="#ddd" stroke-width="0" opacity="1"/><path d="M0,18.75h16v9.375h-16Z" fill="#CB181D" stroke="#ddd" stroke-width="0" opacity="1"/><path d="M0,9.375h16v9.375h-16Z" fill="#A50F15" stroke="#ddd" stroke-width="0" opacity="1"/><path d="M0,0h16v9.375h-16Z" fill="#67000D" stroke="#ddd" stroke-width="0" opacity="1"/></g><g class="mark-text role-legend-label" pointer-events="none"><text text-anchor="start" transform="translate(18,148)" font-family="Circular Std Book" font-size="10px" fill="#676A86" opacity="1"/><text text-anchor="start" transform="translate(18,143.625)" font-family="Circular Std Book" font-size="10px" fill="#676A86" opacity="1">10k</text><text text-anchor="start" transform="translate(18,134.25)" font-family="Circular Std Book" font-size="10px" fill="#676A86" opacity="0">20k</text><text text-anchor="start" transform="translate(18,124.875)" font-family="Circular Std Book" font-size="10px" fill="#676A86" opacity="1">30k</text><text text-anchor="start" transform="translate(18,115.5)" font-family="Circular Std Book" font-size="10px" fill="#676A86" opacity="0">40k</text><text text-anchor="start" transform="translate(18,106.125)" font-family="Circular Std Book" font-size="10px" fill="#676A86" opacity="1">50k</text><text text-anchor="start" transform="translate(18,96.75)" font-family="Circular Std Book" font-size="10px" fill="#676A86" opacity="0">59k</text><text text-anchor="start" transform="translate(18,87.375)" font-family="Circular Std Book" font-size="10px" fill="#676A86" opacity="1">69k</text><text text-anchor="start" transform="translate(18,78)" font-family="Circular Std Book" font-size="10px" fill="#676A86" opacity="0">79k</text><text text-anchor="start" transform="translate(18,68.625)" font-family="Circular Std Book" font-size="10px" fill="#676A86" opacity="1">89k</text><text text-anchor="start" transform="translate(18,59.25)" font-family="Circular Std Book" font-size="10px" fill="#676A86" opacity="0">99k</text><text text-anchor="start" transform="translate(18,49.875)" font-family="Circular Std Book" font-size="10px" fill="#676A86" opacity="1">108k</text><text text-anchor="start" transform="translate(18,40.5)" font-family="Circular Std Book" font-size="10px" fill="#676A86" opacity="0">118k</text><text text-anchor="start" transform="translate(18,31.125)" font-family="Circular Std Book" font-size="10px" fill="#676A86" opacity="1">128k</text><text text-anchor="start" transform="translate(18,21.75)" font-family="Circular Std Book" font-size="10px" fill="#676A86" opacity="0">138k</text><text text-anchor="start" transform="translate(18,12.375)" font-family="Circular Std Book" font-size="10px" fill="#676A86" opacity="1">148k</text></g></g><path class="foreground" aria-hidden="true" d="" pointer-events="none" display="none"/></g></g></g><path class="foreground" aria-hidden="true" d="" pointer-events="none" display="none"/></g></g></g><path class="foreground" aria-hidden="true" d="" display="none"/></g></g></g></svg>