<svg xmlns="http://www.w3.org/2000/svg" xmlns:xlink="http://www.w3.org/1999/xlink" version="1.1" class="marks" width="461" height="191" viewBox="0 0 461 191"><rect width="461" height="191" fill="white"/><g fill="none" stroke-miterlimit="10" transform="translate(10,24)"><g class="mark-group role-frame root" role="graphics-object" aria-roledescription="group mark container"><g transform="translate(0,0)"><path class="background" aria-hidden="true" d="M0,0h400v150h-400Z"/><g><g class="mark-group role-axis" role="graphics-symbol" aria-roledescription="axis" aria-label="X-axis titled 'Carbon dioxide emissions per capita in metric tons' for a discrete scale with 31 values: 1990, 1991, 1992, 1993, 1994, ending with 2020"><g transform="translate(0.5,150.5)"><path class="background" aria-hidden="true" d="M0,0h0v0h0Z" pointer-events="none"/><g><g class="mark-text role-axis-label" pointer-events="none"><text text-anchor="middle" transform="translate(5.951612903225817,10)" font-family="Circular Std Book" font-size="10px" fill="#676A86" fill-opacity="0.7" opacity="1">1990</text><text text-anchor="middle" transform="translate(70.46774193548389,10)" font-family="Circular Std Book" font-size="10px" fill="#676A86" fill-opacity="0.7" opacity="1">1995</text><text text-anchor="middle" transform="translate(134.98387096774195,10)" font-family="Circular Std Book" font-size="10px" fill="#676A86" fill-opacity="0.7" opacity="1">2000</text><text text-anchor="middle" transform="translate(199.5,10)" font-family="Circular Std Book" font-size="10px" fill="#676A86" fill-opacity="0.7" opacity="1">2005</text><text text-anchor="middle" transform="translate(264.0161290322581,10)" font-family="Circular Std Book" font-size="10px" fill="#676A86" fill-opacity="0.7" opacity="1">2010</text><text text-anchor="middle" transform="translate(328.53225806451616,10)" font-family="Circular Std Book" font-size="10px" fill="#676A86" fill-opacity="0.7" opacity="1">2015</text><text text-anchor="middle" transform="translate(393.0483870967742,10)" font-family="Circular Std Book" font-size="10px" fill="#676A86" fill-opacity="0.7" opacity="1">2020</text></g><g class="mark-text role-axis-title" pointer-events="none"><text text-anchor="start" transform="translate(0,-159)" font-family="Circular Std Book" font-size="12px" font-weight="bold" fill="#676A86" fill-opacity="0.8" opacity="1">Carbon dioxide emissions per capita in metric tons</text></g></g><path class="foreground" aria-hidden="true" d="" pointer-events="none" display="none"/></g></g><g class="mark-rect role-mark layer_0_marks" role="graphics-object" aria-roledescription="rect mark container"><path aria-label="Year: 1990; t: 4.02087; Emissions: 4.02" role="graphics-symbol" aria-roledescription="bar" d="M-0.04838709677418329,0h13v150h-13Z" fill="#1E8732"/><path aria-label="Year: 1991; t: 3.98334; Emissions: 3.98" role="graphics-symbol" aria-roledescription="bar" d="M12.85483870967743,0h13v150h-13Z" fill="#1E8732"/><path aria-label="Year: 1992; t: 3.91031; Emissions: 3.91" role="graphics-symbol" aria-roledescription="bar" d="M25.75806451612904,0h13v150h-13Z" fill="#1E8732"/><path aria-label="Year: 1993; t: 3.87499; Emissions: 3.87" role="graphics-symbol" aria-roledescription="bar" d="M38.66129032258065,0h13v150h-13Z" fill="#1E8732"/><path aria-label="Year: 1994; t: 3.84203; Emissions: 3.84" role="graphics-symbol" aria-roledescription="bar" d="M51.56451612903226,0h13v150h-13Z" fill="#1E8732"/><path aria-label="Year: 1995; t: 3.89388; Emissions: 3.89" role="graphics-symbol" aria-roledescription="bar" d="M64.46774193548389,0h13v150h-13Z" fill="#1E8732"/><path aria-label="Year: 1996; t: 3.91959; Emissions: 3.92" role="graphics-symbol" aria-roledescription="bar" d="M77.37096774193549,0h13v150h-13Z" fill="#1E8732"/><path aria-label="Year: 1997; t: 3.93528; Emissions: 3.94" role="graphics-symbol" aria-roledescription="bar" d="M90.2741935483871,0h13v150h-13Z" fill="#1E8732"/><path aria-label="Year: 1998; t: 3.90746; Emissions: 3.91" role="graphics-symbol" aria-roledescription="bar" d="M103.17741935483872,0h13v150h-13Z" fill="#1E8732"/><path aria-label="Year: 1999; t: 3.88144; Emissions: 3.88" role="graphics-symbol" aria-roledescription="bar" d="M116.08064516129033,0h13v150h-13Z" fill="#1E8732"/><path aria-label="Year: 2000; t: 3.95166; Emissions: 3.95" role="graphics-symbol" aria-roledescription="bar" d="M128.98387096774195,0h13v150h-13Z" fill="#1E8732"/><path aria-label="Year: 2001; t: 3.95809; Emissions: 3.96" role="graphics-symbol" aria-roledescription="bar" d="M141.88709677419357,0h13v150h-13Z" fill="#1E8732"/><path aria-label="Year: 2002; t: 3.96147; Emissions: 3.96" role="graphics-symbol" aria-roledescription="bar" d="M154.79032258064515,0h13v150h-13Z" fill="#1E8732"/><path aria-label="Year: 2003; t: 4.09008; Emissions: 4.09" role="graphics-symbol" aria-roledescription="bar" d="M167.69354838709677,0h13v150h-13Z" fill="#1E8732"/><path aria-label="Year: 2004; t: 4.22379; Emissions: 4.22" role="graphics-symbol" aria-roledescription="bar" d="M180.59677419354838,0h13v150h-13Z" fill="#1E8732"/><path aria-label="Year: 2005; t: 4.32979; Emissions: 4.33" role="graphics-symbol" aria-roledescription="bar" d="M193.5,0h13v150h-13Z" fill="#1E8732"/><path aria-label="Year: 2006; t: 4.41713; Emissions: 4.42" role="graphics-symbol" aria-roledescription="bar" d="M206.40322580645162,0h13v150h-13Z" fill="#1E8732"/><path aria-label="Year: 2007; t: 4.52807; Emissions: 4.53" role="graphics-symbol" aria-roledescription="bar" d="M219.30645161290323,0h13v150h-13Z" fill="#1E8732"/><path aria-label="Year: 2008; t: 4.50362; Emissions: 4.5" role="graphics-symbol" aria-roledescription="bar" d="M232.20967741935485,0h13v150h-13Z" fill="#1E8732"/><path aria-label="Year: 2009; t: 4.39133; Emissions: 4.39" role="graphics-symbol" aria-roledescription="bar" d="M245.11290322580646,0h13v150h-13Z" fill="#1E8732"/><path aria-label="Year: 2010; t: 4.60483; Emissions: 4.6" role="graphics-symbol" aria-roledescription="bar" d="M258.0161290322581,0h13v150h-13Z" fill="#1E8732"/><path aria-label="Year: 2011; t: 4.68950; Emissions: 4.69" role="graphics-symbol" aria-roledescription="bar" d="M270.9193548387097,0h13v150h-13Z" fill="#1E8732"/><path aria-label="Year: 2012; t: 4.68531; Emissions: 4.69" role="graphics-symbol" aria-roledescription="bar" d="M283.8225806451613,0h13v150h-13Z" fill="#1E8732"/><path aria-label="Year: 2013; t: 4.71939; Emissions: 4.72" role="graphics-symbol" aria-roledescription="bar" d="M296.72580645161287,0h13v150h-13Z" fill="#1E8732"/><path aria-label="Year: 2014; t: 4.68181; Emissions: 4.68" role="graphics-symbol" aria-roledescription="bar" d="M309.62903225806446,0h13v150h-13Z" fill="#1E8732"/><path aria-label="Year: 2015; t: 4.60080; Emissions: 4.6" role="graphics-symbol" aria-roledescription="bar" d="M322.53225806451616,0h13v150h-13Z" fill="#1E8732"/><path aria-label="Year: 2016; t: 4.55752; Emissions: 4.56" role="graphics-symbol" aria-roledescription="bar" d="M335.43548387096774,0h13v150h-13Z" fill="#1E8732"/><path aria-label="Year: 2017; t: 4.57731; Emissions: 4.58" role="graphics-symbol" aria-roledescription="bar" d="M348.33870967741933,0h13v150h-13Z" fill="#1E8732"/><path aria-label="Year: 2018; t: 4.64129; Emissions: 4.64" role="graphics-symbol" aria-roledescription="bar" d="M361.2419354838709,0h13v150h-13Z" fill="#1E8732"/><path aria-label="Year: 2019; t: 4.58204; Emissions: 4.58" role="graphics-symbol" aria-roledescription="bar" d="M374.1451612903226,0h13v150h-13Z" fill="#1E8732"/><path aria-label="Year: 2020; t: 4.29185; Emissions: 4.29" role="graphics-symbol" aria-roledescription="bar" d="M387.0483870967742,0h13v150h-13Z" fill="#1E8732"/></g><g class="mark-rect role-mark layer_1_marks" role="graphics-object" aria-roledescription="rect mark container"><path aria-label="Year: 1990; t: 4.02087; Emissions: 4.02" role="graphics-symbol" aria-roledescription="bar" d="M-0.04838709677418329,0h13v150h-13Z" fill="#1E8732"/><path aria-label="Year: 1991; t: 3.98334; Emissions: 3.98" role="graphics-symbol" aria-roledescription="bar" d="M12.85483870967743,0h13v150h-13Z" fill="#1E8732"/><path aria-label="Year: 1992; t: 3.91031; Emissions: 3.91" role="graphics-symbol" aria-roledescription="bar" d="M25.75806451612904,0h13v150h-13Z" fill="#1E8732"/><path aria-label="Year: 1993; t: 3.87499; Emissions: 3.87" role="graphics-symbol" aria-roledescription="bar" d="M38.66129032258065,0h13v150h-13Z" fill="#1E8732"/><path aria-label="Year: 1994; t: 3.84203; Emissions: 3.84" role="graphics-symbol" aria-roledescription="bar" d="M51.56451612903226,0h13v150h-13Z" fill="#1E8732"/><path aria-label="Year: 1995; t: 3.89388; Emissions: 3.89" role="graphics-symbol" aria-roledescription="bar" d="M64.46774193548389,0h13v150h-13Z" fill="#1E8732"/><path aria-label="Year: 1996; t: 3.91959; Emissions: 3.92" role="graphics-symbol" aria-roledescription="bar" d="M77.37096774193549,0h13v150h-13Z" fill="#1E8732"/><path aria-label="Year: 1997; t: 3.93528; Emissions: 3.94" role="graphics-symbol" aria-roledescription="bar" d="M90.2741935483871,0h13v150h-13Z" fill="#1E8732"/><path aria-label="Year: 1998; t: 3.90746; Emissions: 3.91" role="graphics-symbol" aria-roledescription="bar" d="M103.17741935483872,0h13v150h-13Z" fill="#1E8732"/><path aria-label="Year: 1999; t: 3.88144; Emissions: 3.88" role="graphics-symbol" aria-roledescription="bar" d="M116.08064516129033,0h13v150h-13Z" fill="#1E8732"/><path aria-label="Year: 2000; t: 3.95166; Emissions: 3.95" role="graphics-symbol" aria-roledescription="bar" d="M128.98387096774195,0h13v150h-13Z" fill="#1E8732"/><path aria-label="Year: 2001; t: 3.95809; Emissions: 3.96" role="graphics-symbol" aria-roledescription="bar" d="M141.88709677419357,0h13v150h-13Z" fill="#1E8732"/><path aria-label="Year: 2002; t: 3.96147; Emissions: 3.96" role="graphics-symbol" aria-roledescription="bar" d="M154.79032258064515,0h13v150h-13Z" fill="#1E8732"/><path aria-label="Year: 2003; t: 4.09008; Emissions: 4.09" role="graphics-symbol" aria-roledescription="bar" d="M167.69354838709677,0h13v150h-13Z" fill="#1E8732"/><path aria-label="Year: 2004; t: 4.22379; Emissions: 4.22" role="graphics-symbol" aria-roledescription="bar" d="M180.59677419354838,0h13v150h-13Z" fill="#1E8732"/><path aria-label="Year: 2005; t: 4.32979; Emissions: 4.33" role="graphics-symbol" aria-roledescription="bar" d="M193.5,0h13v150h-13Z" fill="#1E8732"/><path aria-label="Year: 2006; t: 4.41713; Emissions: 4.42" role="graphics-symbol" aria-roledescription="bar" d="M206.40322580645162,0h13v150h-13Z" fill="#1E8732"/><path aria-label="Year: 2007; t: 4.52807; Emissions: 4.53" role="graphics-symbol" aria-roledescription="bar" d="M219.30645161290323,0h13v150h-13Z" fill="#1E8732"/><path aria-label="Year: 2008; t: 4.50362; Emissions: 4.5" role="graphics-symbol" aria-roledescription="bar" d="M232.20967741935485,0h13v150h-13Z" fill="#1E8732"/><path aria-label="Year: 2009; t: 4.39133; Emissions: 4.39" role="graphics-symbol" aria-roledescription="bar" d="M245.11290322580646,0h13v150h-13Z" fill="#1E8732"/><path aria-label="Year: 2010; t: 4.60483; Emissions: 4.6" role="graphics-symbol" aria-roledescription="bar" d="M258.0161290322581,0h13v150h-13Z" fill="#1E8732"/><path aria-label="Year: 2011; t: 4.68950; Emissions: 4.69" role="graphics-symbol" aria-roledescription="bar" d="M270.9193548387097,0h13v150h-13Z" fill="#1E8732"/><path aria-label="Year: 2012; t: 4.68531; Emissions: 4.69" role="graphics-symbol" aria-roledescription="bar" d="M283.8225806451613,0h13v150h-13Z" fill="#1E8732"/><path aria-label="Year: 2013; t: 4.71939; Emissions: 4.72" role="graphics-symbol" aria-roledescription="bar" d="M296.72580645161287,0h13v150h-13Z" fill="#1E8732"/><path aria-label="Year: 2014; t: 4.68181; Emissions: 4.68" role="graphics-symbol" aria-roledescription="bar" d="M309.62903225806446,0h13v150h-13Z" fill="#1E8732"/><path aria-label="Year: 2015; t: 4.60080; Emissions: 4.6" role="graphics-symbol" aria-roledescription="bar" d="M322.53225806451616,0h13v150h-13Z" fill="#1E8732"/><path aria-label="Year: 2016; t: 4.55752; Emissions: 4.56" role="graphics-symbol" aria-roledescription="bar" d="M335.43548387096774,0h13v150h-13Z" fill="#1E8732"/><path aria-label="Year: 2017; t: 4.57731; Emissions: 4.58" role="graphics-symbol" aria-roledescription="bar" d="M348.33870967741933,0h13v150h-13Z" fill="#1E8732"/><path aria-label="Year: 2018; t: 4.64129; Emissions: 4.64" role="graphics-symbol" aria-roledescription="bar" d="M361.2419354838709,0h13v150h-13Z" fill="#1E8732"/><path aria-label="Year: 2019; t: 4.58204; Emissions: 4.58" role="graphics-symbol" aria-roledescription="bar" d="M374.1451612903226,0h13v150h-13Z" fill="#1E8732"/><path aria-label="Year: 2020; t: 4.29185; Emissions: 4.29" role="graphics-symbol" aria-roledescription="bar" d="M387.0483870967742,0h13v150h-13Z" fill="#1E8732"/></g><g class="mark-text role-mark layer_2_marks" role="graphics-object" aria-roledescription="text mark container"><text aria-label="Year: 1990; t: 4.02087; Emissions: 4.02" role="graphics-symbol" aria-roledescription="text mark" text-anchor="start" transform="translate(6.451612903225817,19)" font-family="Circular Std Book" font-size="12px" fill="white">World</text></g><g class="mark-group role-legend" role="graphics-symbol" aria-roledescription="legend" aria-label="Discrete legend for fill color with 15 boundaries: 3, 6, 9, 12, 15, 18, 21, 24, 27, 30, 33, 36, 39, 42, 45"><g transform="translate(418,0)"><path class="background" aria-hidden="true" d="M0,0h28v150h-28Z" pointer-events="none"/><g><g class="mark-group role-legend-entry"><g transform="translate(0,0)"><path class="background" aria-hidden="true" d="M0,0h0v0h0Z" pointer-events="none"/><g><g class="mark-rect role-legend-band" pointer-events="none"><path d="M0,140.625h16v9.375h-16Z" fill="#006400" stroke="#ddd" stroke-width="0" opacity="1"/><path d="M0,131.25h16v9.375h-16Z" fill="#1E8732" stroke="#ddd" stroke-width="0" opacity="1"/><path d="M0,121.875h16v9.375h-16Z" fill="#3CAA64" stroke="#ddd" stroke-width="0" opacity="1"/><path d="M0,112.5h16v9.375h-16Z" fill="#78D278" stroke="#ddd" stroke-width="0" opacity="1"/><path d="M0,103.125h16v9.375h-16Z" fill="#8CE18C" stroke="#ddd" stroke-width="0" opacity="1"/><path d="M0,93.75h16v9.375h-16Z" fill="#AAF096" stroke="#ddd" stroke-width="0" opacity="1"/><path d="M0,84.375h16v9.375h-16Z" fill="#C3FAA0" stroke="#ddd" stroke-width="0" opacity="1"/><path d="M0,75h16v9.375h-16Z" fill="#F0FFDC" stroke="#ddd" stroke-width="0" opacity="1"/><path d="M0,65.625h16v9.375h-16Z" fill="#FDF0E6" stroke="#ddd" stroke-width="0" opacity="1"/><path d="M0,56.250000000000014h16v9.374999999999986h-16Z" fill="#F0C8C8" stroke="#ddd" stroke-width="0" opacity="1"/><path d="M0,46.875h16v9.375000000000014h-16Z" fill="#E6AA8C" stroke="#ddd" stroke-width="0" opacity="1"/><path d="M0,37.5h16v9.375h-16Z" fill="#DC9664" stroke="#ddd" stroke-width="0" opacity="1"/><path d="M0,28.124999999999982h16v9.375000000000018h-16Z" fill="#D28250" stroke="#ddd" stroke-width="0" opacity="1"/><path d="M0,18.750000000000018h16v9.374999999999964h-16Z" fill="#C86E3C" stroke="#ddd" stroke-width="0" opacity="1"/><path d="M0,9.375000000000016h16v9.375000000000002h-16Z" fill="#AA5A28" stroke="#ddd" stroke-width="0" opacity="1"/><path d="M0,0h16v9.375000000000016h-16Z" fill="#8C4614" stroke="#ddd" stroke-width="0" opacity="1"/></g><g class="mark-text role-legend-label" pointer-events="none"><text text-anchor="start" transform="translate(18,148)" font-family="Circular Std Book" font-size="10px" fill="#676A86" opacity="1"/><text text-anchor="start" transform="translate(18,143.625)" font-family="Circular Std Book" font-size="10px" fill="#676A86" opacity="1">3</text><text text-anchor="start" transform="translate(18,134.25)" font-family="Circular Std Book" font-size="10px" fill="#676A86" opacity="0">6</text><text text-anchor="start" transform="translate(18,124.875)" font-family="Circular Std Book" font-size="10px" fill="#676A86" opacity="1">9</text><text text-anchor="start" transform="translate(18,115.5)" font-family="Circular Std Book" font-size="10px" fill="#676A86" opacity="0">12</text><text text-anchor="start" transform="translate(18,106.125)" font-family="Circular Std Book" font-size="10px" fill="#676A86" opacity="1">15</text><text text-anchor="start" transform="translate(18,96.75)" font-family="Circular Std Book" font-size="10px" fill="#676A86" opacity="0">18</text><text text-anchor="start" transform="translate(18,87.375)" font-family="Circular Std Book" font-size="10px" fill="#676A86" opacity="1">21</text><text text-anchor="start" transform="translate(18,78)" font-family="Circular Std Book" font-size="10px" fill="#676A86" opacity="0">24</text><text text-anchor="start" transform="translate(18,68.625)" font-family="Circular Std Book" font-size="10px" fill="#676A86" opacity="1">27</text><text text-anchor="start" transform="translate(18,59.250000000000014)" font-family="Circular Std Book" font-size="10px" fill="#676A86" opacity="0">30</text><text text-anchor="start" transform="translate(18,49.875)" font-family="Circular Std Book" font-size="10px" fill="#676A86" opacity="1">33</text><text text-anchor="start" transform="translate(18,40.5)" font-family="Circular Std Book" font-size="10px" fill="#676A86" opacity="0">36</text><text text-anchor="start" transform="translate(18,31.124999999999982)" font-family="Circular Std Book" font-size="10px" fill="#676A86" opacity="1">39</text><text text-anchor="start" transform="translate(18,21.750000000000018)" font-family="Circular Std Book" font-size="10px" fill="#676A86" opacity="0">42</text><text text-anchor="start" transform="translate(18,12.375000000000016)" font-family="Circular Std Book" font-size="10px" fill="#676A86" opacity="1">45</text></g></g><path class="foreground" aria-hidden="true" d="" pointer-events="none" display="none"/></g></g></g><path class="foreground" aria-hidden="true" d="" pointer-events="none" display="none"/></g></g></g><path class="foreground" aria-hidden="true" d="" display="none"/></g></g></g></svg>