<svg xmlns="http://www.w3.org/2000/svg" xmlns:xlink="http://www.w3.org/1999/xlink" version="1.1" class="marks" width="467" height="179" viewBox="0 0 467 179"><rect width="467" height="179" fill="white"/><g fill="none" stroke-miterlimit="10" transform="translate(6,24)"><g class="mark-group role-frame root" role="graphics-object" aria-roledescription="group mark container"><g transform="translate(0,0)"><path class="background" aria-hidden="true" d="M0,0h400v150h-400Z"/><g><g class="mark-group role-axis" role="graphics-symbol" aria-roledescription="axis" aria-label="X-axis titled 'Greening prosperity per capita in discounted 2017 US dollars' for a discrete scale with 31 values: 1990, 1991, 1992, 1993, 1994, ending with 2020"><g transform="translate(0.5,150.5)"><path class="background" aria-hidden="true" d="M0,0h0v0h0Z" pointer-events="none"/><g><g class="mark-text role-axis-label" pointer-events="none"/><g class="mark-text role-axis-title" pointer-events="none"><text text-anchor="start" transform="translate(0,-159)" font-family="Circular Std Book" font-size="12px" font-weight="bold" fill="#676A86" fill-opacity="0.8" opacity="1">Greening prosperity per capita in discounted 2017 US dollars</text></g></g><path class="foreground" aria-hidden="true" d="" pointer-events="none" display="none"/></g></g><g class="mark-rect role-mark layer_0_marks" role="graphics-object" aria-roledescription="rect mark container"><path aria-label="Year: 1990; t: 5.47894k; GPR: 5478.94" role="graphics-symbol" aria-roledescription="bar" d="M-0.04838709677418329,0h13v150h-13Z" fill="#8C4614"/><path aria-label="Year: 1991; t: 6.86124k; GPR: 6861.24" role="graphics-symbol" aria-roledescription="bar" d="M12.85483870967743,0h13v150h-13Z" fill="#8C4614"/><path aria-label="Year: 1992; t: 5.49432k; GPR: 5494.32" role="graphics-symbol" aria-roledescription="bar" d="M25.75806451612904,0h13v150h-13Z" fill="#8C4614"/><path aria-label="Year: 1993; t: 5.17502k; GPR: 5175.02" role="graphics-symbol" aria-roledescription="bar" d="M38.66129032258065,0h13v150h-13Z" fill="#8C4614"/><path aria-label="Year: 1994; t: 6.47660k; GPR: 6476.6" role="graphics-symbol" aria-roledescription="bar" d="M51.56451612903226,0h13v150h-13Z" fill="#8C4614"/><path aria-label="Year: 1995; t: 6.19507k; GPR: 6195.07" role="graphics-symbol" aria-roledescription="bar" d="M64.46774193548389,0h13v150h-13Z" fill="#8C4614"/><path aria-label="Year: 1996; t: 6.95383k; GPR: 6953.83" role="graphics-symbol" aria-roledescription="bar" d="M77.37096774193549,0h13v150h-13Z" fill="#8C4614"/><path aria-label="Year: 1997; t: 6.98271k; GPR: 6982.71" role="graphics-symbol" aria-roledescription="bar" d="M90.2741935483871,0h13v150h-13Z" fill="#8C4614"/><path aria-label="Year: 1998; t: 7.96043k; GPR: 7960.43" role="graphics-symbol" aria-roledescription="bar" d="M103.17741935483872,0h13v150h-13Z" fill="#8C4614"/><path aria-label="Year: 1999; t: 8.94876k; GPR: 8948.76" role="graphics-symbol" aria-roledescription="bar" d="M116.08064516129033,0h13v150h-13Z" fill="#AA5A28"/><path aria-label="Year: 2000; t: 7.82882k; GPR: 7828.82" role="graphics-symbol" aria-roledescription="bar" d="M128.98387096774195,0h13v150h-13Z" fill="#8C4614"/><path aria-label="Year: 2001; t: 8.87082k; GPR: 8870.82" role="graphics-symbol" aria-roledescription="bar" d="M141.88709677419357,0h13v150h-13Z" fill="#AA5A28"/><path aria-label="Year: 2002; t: 8.71125k; GPR: 8711.25" role="graphics-symbol" aria-roledescription="bar" d="M154.79032258064515,0h13v150h-13Z" fill="#AA5A28"/><path aria-label="Year: 2003; t: 7.67920k; GPR: 7679.2" role="graphics-symbol" aria-roledescription="bar" d="M167.69354838709677,0h13v150h-13Z" fill="#8C4614"/><path aria-label="Year: 2004; t: 8.26368k; GPR: 8263.68" role="graphics-symbol" aria-roledescription="bar" d="M180.59677419354838,0h13v150h-13Z" fill="#8C4614"/><path aria-label="Year: 2005; t: 9.84881k; GPR: 9848.81" role="graphics-symbol" aria-roledescription="bar" d="M193.5,0h13v150h-13Z" fill="#AA5A28"/><path aria-label="Year: 2006; t: 9.92177k; GPR: 9921.77" role="graphics-symbol" aria-roledescription="bar" d="M206.40322580645162,0h13v150h-13Z" fill="#AA5A28"/><path aria-label="Year: 2007; t: 8.91723k; GPR: 8917.23" role="graphics-symbol" aria-roledescription="bar" d="M219.30645161290323,0h13v150h-13Z" fill="#AA5A28"/><path aria-label="Year: 2008; t: 9.53558k; GPR: 9535.58" role="graphics-symbol" aria-roledescription="bar" d="M232.20967741935485,0h13v150h-13Z" fill="#AA5A28"/><path aria-label="Year: 2009; t: 9.09917k; GPR: 9099.17" role="graphics-symbol" aria-roledescription="bar" d="M245.11290322580646,0h13v150h-13Z" fill="#AA5A28"/><path aria-label="Year: 2010; t: 9.01732k; GPR: 9017.32" role="graphics-symbol" aria-roledescription="bar" d="M258.0161290322581,0h13v150h-13Z" fill="#AA5A28"/><path aria-label="Year: 2011; t: 7.88172k; GPR: 7881.72" role="graphics-symbol" aria-roledescription="bar" d="M270.9193548387097,0h13v150h-13Z" fill="#8C4614"/><path aria-label="Year: 2012; t: 7.64925k; GPR: 7649.25" role="graphics-symbol" aria-roledescription="bar" d="M283.8225806451613,0h13v150h-13Z" fill="#8C4614"/><path aria-label="Year: 2013; t: 7.17714k; GPR: 7177.14" role="graphics-symbol" aria-roledescription="bar" d="M296.72580645161287,0h13v150h-13Z" fill="#8C4614"/><path aria-label="Year: 2014; t: 6.63293k; GPR: 6632.93" role="graphics-symbol" aria-roledescription="bar" d="M309.62903225806446,0h13v150h-13Z" fill="#8C4614"/><path aria-label="Year: 2015; t: 6.23251k; GPR: 6232.51" role="graphics-symbol" aria-roledescription="bar" d="M322.53225806451616,0h13v150h-13Z" fill="#8C4614"/><path aria-label="Year: 2016; t: 4.89374k; GPR: 4893.74" role="graphics-symbol" aria-roledescription="bar" d="M335.43548387096774,0h13v150h-13Z" fill="#8C4614"/><path aria-label="Year: 2017; t: 5.13460k; GPR: 5134.6" role="graphics-symbol" aria-roledescription="bar" d="M348.33870967741933,0h13v150h-13Z" fill="#8C4614"/><path aria-label="Year: 2018; t: 5.53331k; GPR: 5533.31" role="graphics-symbol" aria-roledescription="bar" d="M361.2419354838709,0h13v150h-13Z" fill="#8C4614"/><path aria-label="Year: 2019; t: 5.16886k; GPR: 5168.86" role="graphics-symbol" aria-roledescription="bar" d="M374.1451612903226,0h13v150h-13Z" fill="#8C4614"/><path aria-label="Year: 2020; t: 5.53683k; GPR: 5536.83" role="graphics-symbol" aria-roledescription="bar" d="M387.0483870967742,0h13v150h-13Z" fill="#8C4614"/></g><g class="mark-rect role-mark layer_1_marks" role="graphics-object" aria-roledescription="rect mark container"><path aria-label="Year: 1990; t: 5.47894k; GPR: 5478.94" role="graphics-symbol" aria-roledescription="bar" d="M-0.04838709677418329,0h13v150h-13Z" fill="#8C4614"/><path aria-label="Year: 1991; t: 6.86124k; GPR: 6861.24" role="graphics-symbol" aria-roledescription="bar" d="M12.85483870967743,0h13v150h-13Z" fill="#8C4614"/><path aria-label="Year: 1992; t: 5.49432k; GPR: 5494.32" role="graphics-symbol" aria-roledescription="bar" d="M25.75806451612904,0h13v150h-13Z" fill="#8C4614"/><path aria-label="Year: 1993; t: 5.17502k; GPR: 5175.02" role="graphics-symbol" aria-roledescription="bar" d="M38.66129032258065,0h13v150h-13Z" fill="#8C4614"/><path aria-label="Year: 1994; t: 6.47660k; GPR: 6476.6" role="graphics-symbol" aria-roledescription="bar" d="M51.56451612903226,0h13v150h-13Z" fill="#8C4614"/><path aria-label="Year: 1995; t: 6.19507k; GPR: 6195.07" role="graphics-symbol" aria-roledescription="bar" d="M64.46774193548389,0h13v150h-13Z" fill="#8C4614"/><path aria-label="Year: 1996; t: 6.95383k; GPR: 6953.83" role="graphics-symbol" aria-roledescription="bar" d="M77.37096774193549,0h13v150h-13Z" fill="#8C4614"/><path aria-label="Year: 1997; t: 6.98271k; GPR: 6982.71" role="graphics-symbol" aria-roledescription="bar" d="M90.2741935483871,0h13v150h-13Z" fill="#8C4614"/><path aria-label="Year: 1998; t: 7.96043k; GPR: 7960.43" role="graphics-symbol" aria-roledescription="bar" d="M103.17741935483872,0h13v150h-13Z" fill="#8C4614"/><path aria-label="Year: 1999; t: 8.94876k; GPR: 8948.76" role="graphics-symbol" aria-roledescription="bar" d="M116.08064516129033,0h13v150h-13Z" fill="#AA5A28"/><path aria-label="Year: 2000; t: 7.82882k; GPR: 7828.82" role="graphics-symbol" aria-roledescription="bar" d="M128.98387096774195,0h13v150h-13Z" fill="#8C4614"/><path aria-label="Year: 2001; t: 8.87082k; GPR: 8870.82" role="graphics-symbol" aria-roledescription="bar" d="M141.88709677419357,0h13v150h-13Z" fill="#AA5A28"/><path aria-label="Year: 2002; t: 8.71125k; GPR: 8711.25" role="graphics-symbol" aria-roledescription="bar" d="M154.79032258064515,0h13v150h-13Z" fill="#AA5A28"/><path aria-label="Year: 2003; t: 7.67920k; GPR: 7679.2" role="graphics-symbol" aria-roledescription="bar" d="M167.69354838709677,0h13v150h-13Z" fill="#8C4614"/><path aria-label="Year: 2004; t: 8.26368k; GPR: 8263.68" role="graphics-symbol" aria-roledescription="bar" d="M180.59677419354838,0h13v150h-13Z" fill="#8C4614"/><path aria-label="Year: 2005; t: 9.84881k; GPR: 9848.81" role="graphics-symbol" aria-roledescription="bar" d="M193.5,0h13v150h-13Z" fill="#AA5A28"/><path aria-label="Year: 2006; t: 9.92177k; GPR: 9921.77" role="graphics-symbol" aria-roledescription="bar" d="M206.40322580645162,0h13v150h-13Z" fill="#AA5A28"/><path aria-label="Year: 2007; t: 8.91723k; GPR: 8917.23" role="graphics-symbol" aria-roledescription="bar" d="M219.30645161290323,0h13v150h-13Z" fill="#AA5A28"/><path aria-label="Year: 2008; t: 9.53558k; GPR: 9535.58" role="graphics-symbol" aria-roledescription="bar" d="M232.20967741935485,0h13v150h-13Z" fill="#AA5A28"/><path aria-label="Year: 2009; t: 9.09917k; GPR: 9099.17" role="graphics-symbol" aria-roledescription="bar" d="M245.11290322580646,0h13v150h-13Z" fill="#AA5A28"/><path aria-label="Year: 2010; t: 9.01732k; GPR: 9017.32" role="graphics-symbol" aria-roledescription="bar" d="M258.0161290322581,0h13v150h-13Z" fill="#AA5A28"/><path aria-label="Year: 2011; t: 7.88172k; GPR: 7881.72" role="graphics-symbol" aria-roledescription="bar" d="M270.9193548387097,0h13v150h-13Z" fill="#8C4614"/><path aria-label="Year: 2012; t: 7.64925k; GPR: 7649.25" role="graphics-symbol" aria-roledescription="bar" d="M283.8225806451613,0h13v150h-13Z" fill="#8C4614"/><path aria-label="Year: 2013; t: 7.17714k; GPR: 7177.14" role="graphics-symbol" aria-roledescription="bar" d="M296.72580645161287,0h13v150h-13Z" fill="#8C4614"/><path aria-label="Year: 2014; t: 6.63293k; GPR: 6632.93" role="graphics-symbol" aria-roledescription="bar" d="M309.62903225806446,0h13v150h-13Z" fill="#8C4614"/><path aria-label="Year: 2015; t: 6.23251k; GPR: 6232.51" role="graphics-symbol" aria-roledescription="bar" d="M322.53225806451616,0h13v150h-13Z" fill="#8C4614"/><path aria-label="Year: 2016; t: 4.89374k; GPR: 4893.74" role="graphics-symbol" aria-roledescription="bar" d="M335.43548387096774,0h13v150h-13Z" fill="#8C4614"/><path aria-label="Year: 2017; t: 5.13460k; GPR: 5134.6" role="graphics-symbol" aria-roledescription="bar" d="M348.33870967741933,0h13v150h-13Z" fill="#8C4614"/><path aria-label="Year: 2018; t: 5.53331k; GPR: 5533.31" role="graphics-symbol" aria-roledescription="bar" d="M361.2419354838709,0h13v150h-13Z" fill="#8C4614"/><path aria-label="Year: 2019; t: 5.16886k; GPR: 5168.86" role="graphics-symbol" aria-roledescription="bar" d="M374.1451612903226,0h13v150h-13Z" fill="#8C4614"/><path aria-label="Year: 2020; t: 5.53683k; GPR: 5536.83" role="graphics-symbol" aria-roledescription="bar" d="M387.0483870967742,0h13v150h-13Z" fill="#8C4614"/></g><g class="mark-text role-mark layer_2_marks" role="graphics-object" aria-roledescription="text mark container"><text aria-label="Year: 1990; t: 5.47894k; GPR: 5478.94" role="graphics-symbol" aria-roledescription="text mark" text-anchor="start" transform="translate(6.451612903225817,19)" font-family="Circular Std Book" font-size="12px" fill="white">Mozambique</text></g><g class="mark-group role-legend" role="graphics-symbol" aria-roledescription="legend" aria-label="Discrete legend for fill color with 15 boundaries: 8k, 16k, 23k, 31k, 38k, 46k, 53k, 61k, 68k, 75k, 83k, 90k, 98k, 105k, 113k"><g transform="translate(418,0)"><path class="background" aria-hidden="true" d="M0,0h38v150h-38Z" pointer-events="none"/><g><g class="mark-group role-legend-entry"><g transform="translate(0,0)"><path class="background" aria-hidden="true" d="M0,0h0v0h0Z" pointer-events="none"/><g><g class="mark-rect role-legend-band" pointer-events="none"><path d="M0,140.625h16v9.375h-16Z" fill="#8C4614" stroke="#ddd" stroke-width="0" opacity="1"/><path d="M0,131.25h16v9.375h-16Z" fill="#AA5A28" stroke="#ddd" stroke-width="0" opacity="1"/><path d="M0,121.875h16v9.375h-16Z" fill="#C86E3C" stroke="#ddd" stroke-width="0" opacity="1"/><path d="M0,112.5h16v9.375h-16Z" fill="#D28250" stroke="#ddd" stroke-width="0" opacity="1"/><path d="M0,103.125h16v9.375h-16Z" fill="#DC9664" stroke="#ddd" stroke-width="0" opacity="1"/><path d="M0,93.75h16v9.375h-16Z" fill="#E6AA8C" stroke="#ddd" stroke-width="0" opacity="1"/><path d="M0,84.375h16v9.375h-16Z" fill="#F0C8C8" stroke="#ddd" stroke-width="0" opacity="1"/><path d="M0,75h16v9.375h-16Z" fill="#FDF0E6" stroke="#ddd" stroke-width="0" opacity="1"/><path d="M0,65.625h16v9.375h-16Z" fill="#F0FFDC" stroke="#ddd" stroke-width="0" opacity="1"/><path d="M0,56.25h16v9.375h-16Z" fill="#C3FAA0" stroke="#ddd" stroke-width="0" opacity="1"/><path d="M0,46.875h16v9.375h-16Z" fill="#AAF096" stroke="#ddd" stroke-width="0" opacity="1"/><path d="M0,37.5h16v9.375h-16Z" fill="#8CE18C" stroke="#ddd" stroke-width="0" opacity="1"/><path d="M0,28.125h16v9.375h-16Z" fill="#78D278" stroke="#ddd" stroke-width="0" opacity="1"/><path d="M0,18.75h16v9.375h-16Z" fill="#3CAA64" stroke="#ddd" stroke-width="0" opacity="1"/><path d="M0,9.375h16v9.375h-16Z" fill="#1E8732" stroke="#ddd" stroke-width="0" opacity="1"/><path d="M0,0h16v9.375h-16Z" fill="#006400" stroke="#ddd" stroke-width="0" opacity="1"/></g><g class="mark-text role-legend-label" pointer-events="none"><text text-anchor="start" transform="translate(18,148)" font-family="Circular Std Book" font-size="10px" fill="#676A86" opacity="1"/><text text-anchor="start" transform="translate(18,143.625)" font-family="Circular Std Book" font-size="10px" fill="#676A86" opacity="1">8k</text><text text-anchor="start" transform="translate(18,134.25)" font-family="Circular Std Book" font-size="10px" fill="#676A86" opacity="0">16k</text><text text-anchor="start" transform="translate(18,124.875)" font-family="Circular Std Book" font-size="10px" fill="#676A86" opacity="1">23k</text><text text-anchor="start" transform="translate(18,115.5)" font-family="Circular Std Book" font-size="10px" fill="#676A86" opacity="0">31k</text><text text-anchor="start" transform="translate(18,106.125)" font-family="Circular Std Book" font-size="10px" fill="#676A86" opacity="1">38k</text><text text-anchor="start" transform="translate(18,96.75)" font-family="Circular Std Book" font-size="10px" fill="#676A86" opacity="0">46k</text><text text-anchor="start" transform="translate(18,87.375)" font-family="Circular Std Book" font-size="10px" fill="#676A86" opacity="1">53k</text><text text-anchor="start" transform="translate(18,78)" font-family="Circular Std Book" font-size="10px" fill="#676A86" opacity="0">61k</text><text text-anchor="start" transform="translate(18,68.625)" font-family="Circular Std Book" font-size="10px" fill="#676A86" opacity="1">68k</text><text text-anchor="start" transform="translate(18,59.25)" font-family="Circular Std Book" font-size="10px" fill="#676A86" opacity="0">75k</text><text text-anchor="start" transform="translate(18,49.875)" font-family="Circular Std Book" font-size="10px" fill="#676A86" opacity="1">83k</text><text text-anchor="start" transform="translate(18,40.5)" font-family="Circular Std Book" font-size="10px" fill="#676A86" opacity="0">90k</text><text text-anchor="start" transform="translate(18,31.125)" font-family="Circular Std Book" font-size="10px" fill="#676A86" opacity="1">98k</text><text text-anchor="start" transform="translate(18,21.75)" font-family="Circular Std Book" font-size="10px" fill="#676A86" opacity="0">105k</text><text text-anchor="start" transform="translate(18,12.375)" font-family="Circular Std Book" font-size="10px" fill="#676A86" opacity="1">113k</text></g></g><path class="foreground" aria-hidden="true" d="" pointer-events="none" display="none"/></g></g></g><path class="foreground" aria-hidden="true" d="" pointer-events="none" display="none"/></g></g></g><path class="foreground" aria-hidden="true" d="" display="none"/></g></g></g></svg>