<svg xmlns="http://www.w3.org/2000/svg" xmlns:xlink="http://www.w3.org/1999/xlink" version="1.1" class="marks" width="429" height="369" viewBox="0 0 429 369"><rect width="429" height="369" fill="white"/><g fill="none" stroke-miterlimit="10" transform="translate(23,25)"><g class="mark-group role-frame root" role="graphics-object" aria-roledescription="group mark container"><g transform="translate(0,0)"><path class="background" aria-hidden="true" d="M0,0h400v300h-400Z"/><g><g class="mark-group role-axis" aria-hidden="true"><g transform="translate(0.5,0.5)"><path class="background" aria-hidden="true" d="M0,0h0v0h0Z" pointer-events="none"/><g><g class="mark-rule role-axis-grid" pointer-events="none"><line transform="translate(0,300)" x2="400" y2="0" stroke="#676A86" stroke-opacity="0.5" stroke-width="1" stroke-dasharray="1,5" opacity="1"/><line transform="translate(0,263)" x2="400" y2="0" stroke="#676A86" stroke-opacity="0.5" stroke-width="1" stroke-dasharray="1,5" opacity="1"/><line transform="translate(0,225)" x2="400" y2="0" stroke="#676A86" stroke-opacity="0.5" stroke-width="1" stroke-dasharray="1,5" opacity="1"/><line transform="translate(0,188)" x2="400" y2="0" stroke="#676A86" stroke-opacity="0.5" stroke-width="1" stroke-dasharray="1,5" opacity="1"/><line transform="translate(0,150)" x2="400" y2="0" stroke="#676A86" stroke-opacity="0.5" stroke-width="1" stroke-dasharray="1,5" opacity="1"/><line transform="translate(0,113)" x2="400" y2="0" stroke="#676A86" stroke-opacity="0.5" stroke-width="1" stroke-dasharray="1,5" opacity="1"/><line transform="translate(0,75)" x2="400" y2="0" stroke="#676A86" stroke-opacity="0.5" stroke-width="1" stroke-dasharray="1,5" opacity="1"/><line transform="translate(0,38)" x2="400" y2="0" stroke="#676A86" stroke-opacity="0.5" stroke-width="1" stroke-dasharray="1,5" opacity="1"/><line transform="translate(0,0)" x2="400" y2="0" stroke="#676A86" stroke-opacity="0.5" stroke-width="1" stroke-dasharray="1,5" opacity="1"/></g></g><path class="foreground" aria-hidden="true" d="" pointer-events="none" display="none"/></g></g><g class="mark-group role-axis" role="graphics-symbol" aria-roledescription="axis" aria-label="X-axis titled 'log ( Trade openness )' for a linear scale with values from 2 to 6"><g transform="translate(0.5,300.5)"><path class="background" aria-hidden="true" d="M0,0h0v0h0Z" pointer-events="none"/><g><g class="mark-rule role-axis-tick" pointer-events="none"><line transform="translate(0,0)" x2="0" y2="5" stroke="#676A86" stroke-opacity="0.5" stroke-width="1" opacity="1"/><line transform="translate(50,0)" x2="0" y2="5" stroke="#676A86" stroke-opacity="0.5" stroke-width="1" opacity="1"/><line transform="translate(100,0)" x2="0" y2="5" stroke="#676A86" stroke-opacity="0.5" stroke-width="1" opacity="1"/><line transform="translate(150,0)" x2="0" y2="5" stroke="#676A86" stroke-opacity="0.5" stroke-width="1" opacity="1"/><line transform="translate(200,0)" x2="0" y2="5" stroke="#676A86" stroke-opacity="0.5" stroke-width="1" opacity="1"/><line transform="translate(250,0)" x2="0" y2="5" stroke="#676A86" stroke-opacity="0.5" stroke-width="1" opacity="1"/><line transform="translate(300,0)" x2="0" y2="5" stroke="#676A86" stroke-opacity="0.5" stroke-width="1" opacity="1"/><line transform="translate(350,0)" x2="0" y2="5" stroke="#676A86" stroke-opacity="0.5" stroke-width="1" opacity="1"/><line transform="translate(400,0)" x2="0" y2="5" stroke="#676A86" stroke-opacity="0.5" stroke-width="1" opacity="1"/></g><g class="mark-text role-axis-label" pointer-events="none"><text text-anchor="start" transform="translate(0,15)" font-family="Circular Std Book" font-size="10px" fill="#676A86" fill-opacity="0.7" opacity="1">2.0</text><text text-anchor="middle" transform="translate(50,15)" font-family="Circular Std Book" font-size="10px" fill="#676A86" fill-opacity="0.7" opacity="1">2.5</text><text text-anchor="middle" transform="translate(100,15)" font-family="Circular Std Book" font-size="10px" fill="#676A86" fill-opacity="0.7" opacity="1">3.0</text><text text-anchor="middle" transform="translate(150,15)" font-family="Circular Std Book" font-size="10px" fill="#676A86" fill-opacity="0.7" opacity="1">3.5</text><text text-anchor="middle" transform="translate(200,15)" font-family="Circular Std Book" font-size="10px" fill="#676A86" fill-opacity="0.7" opacity="1">4.0</text><text text-anchor="middle" transform="translate(250,15)" font-family="Circular Std Book" font-size="10px" fill="#676A86" fill-opacity="0.7" opacity="1">4.5</text><text text-anchor="middle" transform="translate(300,15)" font-family="Circular Std Book" font-size="10px" fill="#676A86" fill-opacity="0.7" opacity="1">5.0</text><text text-anchor="middle" transform="translate(350,15)" font-family="Circular Std Book" font-size="10px" fill="#676A86" fill-opacity="0.7" opacity="1">5.5</text><text text-anchor="end" transform="translate(400,15)" font-family="Circular Std Book" font-size="10px" fill="#676A86" fill-opacity="0.7" opacity="1">6.0</text></g><g class="mark-rule role-axis-domain" pointer-events="none"><line transform="translate(0,0)" x2="400" y2="0" stroke="#676A86" stroke-opacity="0.5" stroke-width="1" opacity="1"/></g><g class="mark-text role-axis-title" pointer-events="none"><text text-anchor="middle" transform="translate(337,-6)" font-family="Circular Std Book" font-size="12px" font-weight="bold" fill="#676A86" fill-opacity="0.8" opacity="1">log ( Trade openness )</text></g></g><path class="foreground" aria-hidden="true" d="" pointer-events="none" display="none"/></g></g><g class="mark-group role-axis" role="graphics-symbol" aria-roledescription="axis" aria-label="Y-axis titled 'Participation rate' for a linear scale with values from 0.1 to 0.9"><g transform="translate(0.5,0.5)"><path class="background" aria-hidden="true" d="M0,0h0v0h0Z" pointer-events="none"/><g><g class="mark-text role-axis-label" pointer-events="none"><text text-anchor="end" transform="translate(-5,303)" font-family="Circular Std Book" font-size="10px" fill="#676A86" fill-opacity="0.7" opacity="1">0.1</text><text text-anchor="end" transform="translate(-5,265.5)" font-family="Circular Std Book" font-size="10px" fill="#676A86" fill-opacity="0.7" opacity="1">0.2</text><text text-anchor="end" transform="translate(-5,228)" font-family="Circular Std Book" font-size="10px" fill="#676A86" fill-opacity="0.7" opacity="1">0.3</text><text text-anchor="end" transform="translate(-5,190.5)" font-family="Circular Std Book" font-size="10px" fill="#676A86" fill-opacity="0.7" opacity="1">0.4</text><text text-anchor="end" transform="translate(-5,153)" font-family="Circular Std Book" font-size="10px" fill="#676A86" fill-opacity="0.7" opacity="1">0.5</text><text text-anchor="end" transform="translate(-5,115.5)" font-family="Circular Std Book" font-size="10px" fill="#676A86" fill-opacity="0.7" opacity="1">0.6</text><text text-anchor="end" transform="translate(-5,78.00000000000003)" font-family="Circular Std Book" font-size="10px" fill="#676A86" fill-opacity="0.7" opacity="1">0.7</text><text text-anchor="end" transform="translate(-5,40.5)" font-family="Circular Std Book" font-size="10px" fill="#676A86" fill-opacity="0.7" opacity="1">0.8</text><text text-anchor="end" transform="translate(-5,3)" font-family="Circular Std Book" font-size="10px" fill="#676A86" fill-opacity="0.7" opacity="1">0.9</text></g><g class="mark-rule role-axis-domain" pointer-events="none"><line transform="translate(0,300)" x2="0" y2="-300" stroke="#676A86" stroke-opacity="0.5" stroke-width="1" opacity="1"/></g><g class="mark-text role-axis-title" pointer-events="none"><text text-anchor="start" transform="translate(0,-10)" font-family="Circular Std Book" font-size="12px" font-weight="bold" fill="#676A86" fill-opacity="0.8" opacity="1">Participation rate</text></g></g><path class="foreground" aria-hidden="true" d="" pointer-events="none" display="none"/></g></g><g class="mark-line role-mark layer_0_marks" role="graphics-object" aria-roledescription="line mark container"><path aria-label="x: 2; y: 0.0" role="graphics-symbol" aria-roledescription="line mark" d="M0,337.5L400,337.5" stroke="#676A86" stroke-width="1" opacity="0.3"/></g><g class="mark-line role-mark layer_1_marks" role="graphics-object" aria-roledescription="line mark container"><path aria-label="x: 2.4302635; y: 0.300781115726" role="graphics-symbol" aria-roledescription="line mark" d="M43.026,224.707L385.731,62.609" stroke="#676A86" stroke-width="2" opacity="0.3"/></g><g class="mark-symbol role-mark layer_2_marks" role="graphics-object" aria-roledescription="symbol mark container"><path aria-label="lnavg_share_trade00: 3.8080082; avg_gvc_part_exp_int: 0.30473438" role="graphics-symbol" aria-roledescription="point" transform="translate(180.80082000000002,223.2246075)" d="M2.739,0A2.739,2.739,0,1,1,-2.739,0A2.739,2.739,0,1,1,2.739,0" fill="#179FDB" stroke="#179FDB" stroke-width="2" opacity="0.7"/><path aria-label="lnavg_share_trade00: 4.6458683; avg_gvc_part_exp_int: 0.5145165" role="graphics-symbol" aria-roledescription="point" transform="translate(264.58683,144.5563125)" d="M2.739,0A2.739,2.739,0,1,1,-2.739,0A2.739,2.739,0,1,1,2.739,0" fill="#179FDB" stroke="#179FDB" stroke-width="2" opacity="0.7"/><path aria-label="lnavg_share_trade00: 2.7613997; avg_gvc_part_exp_int: 0.2662118" role="graphics-symbol" aria-roledescription="point" transform="translate(76.13997,237.670575)" d="M2.739,0A2.739,2.739,0,1,1,-2.739,0A2.739,2.739,0,1,1,2.739,0" fill="#179FDB" stroke="#179FDB" stroke-width="2" opacity="0.7"/><path aria-label="lnavg_share_trade00: 5.4252706; avg_gvc_part_exp_int: 0.6326741" role="graphics-symbol" aria-roledescription="point" transform="translate(342.52706,100.24721249999999)" d="M2.739,0A2.739,2.739,0,1,1,-2.739,0A2.739,2.739,0,1,1,2.739,0" fill="#179FDB" stroke="#179FDB" stroke-width="2" opacity="0.7"/><path aria-label="lnavg_share_trade00: 3.0173948; avg_gvc_part_exp_int: 0.36775312" role="graphics-symbol" aria-roledescription="point" transform="translate(101.73947999999999,199.59258000000005)" d="M2.739,0A2.739,2.739,0,1,1,-2.739,0A2.739,2.739,0,1,1,2.739,0" fill="#179FDB" stroke="#179FDB" stroke-width="2" opacity="0.7"/><path aria-label="lnavg_share_trade00: 3.0604658; avg_gvc_part_exp_int: 0.3816484" role="graphics-symbol" aria-roledescription="point" transform="translate(106.04657999999998,194.38185000000001)" d="M2.739,0A2.739,2.739,0,1,1,-2.739,0A2.739,2.739,0,1,1,2.739,0" fill="#179FDB" stroke="#179FDB" stroke-width="2" opacity="0.7"/><path aria-label="lnavg_share_trade00: 4.317107; avg_gvc_part_exp_int: 0.5967288" role="graphics-symbol" aria-roledescription="point" transform="translate(231.7107,113.72670000000004)" d="M2.739,0A2.739,2.739,0,1,1,-2.739,0A2.739,2.739,0,1,1,2.739,0" fill="#179FDB" stroke="#179FDB" stroke-width="2" opacity="0.7"/><path aria-label="lnavg_share_trade00: 3.9471467; avg_gvc_part_exp_int: 0.60110426" role="graphics-symbol" aria-roledescription="point" transform="translate(194.71466999999998,112.08590250000002)" d="M2.739,0A2.739,2.739,0,1,1,-2.739,0A2.739,2.739,0,1,1,2.739,0" fill="#179FDB" stroke="#179FDB" stroke-width="2" opacity="0.7"/><path aria-label="lnavg_share_trade00: 3.691071; avg_gvc_part_exp_int: 0.48264515" role="graphics-symbol" aria-roledescription="point" transform="translate(169.1071,156.50806875000004)" d="M2.739,0A2.739,2.739,0,1,1,-2.739,0A2.739,2.739,0,1,1,2.739,0" fill="#179FDB" stroke="#179FDB" stroke-width="2" opacity="0.7"/><path aria-label="lnavg_share_trade00: 4.277398; avg_gvc_part_exp_int: 0.37280375" role="graphics-symbol" aria-roledescription="point" transform="translate(227.73979999999997,197.69859375)" d="M2.739,0A2.739,2.739,0,1,1,-2.739,0A2.739,2.739,0,1,1,2.739,0" fill="#179FDB" stroke="#179FDB" stroke-width="2" opacity="0.7"/><path aria-label="lnavg_share_trade00: 3.2319202; avg_gvc_part_exp_int: 0.33283857" role="graphics-symbol" aria-roledescription="point" transform="translate(123.19201999999999,212.68553624999998)" d="M2.739,0A2.739,2.739,0,1,1,-2.739,0A2.739,2.739,0,1,1,2.739,0" fill="#179FDB" stroke="#179FDB" stroke-width="2" opacity="0.7"/><path aria-label="lnavg_share_trade00: 4.09268; avg_gvc_part_exp_int: 0.52753836" role="graphics-symbol" aria-roledescription="point" transform="translate(209.26799999999997,139.67311500000002)" d="M2.739,0A2.739,2.739,0,1,1,-2.739,0A2.739,2.739,0,1,1,2.739,0" fill="#179FDB" stroke="#179FDB" stroke-width="2" opacity="0.7"/><path aria-label="lnavg_share_trade00: 4.209306; avg_gvc_part_exp_int: 0.5084193" role="graphics-symbol" aria-roledescription="point" transform="translate(220.93059999999997,146.8427625)" d="M2.739,0A2.739,2.739,0,1,1,-2.739,0A2.739,2.739,0,1,1,2.739,0" fill="#179FDB" stroke="#179FDB" stroke-width="2" opacity="0.7"/><path aria-label="lnavg_share_trade00: 4.5441804; avg_gvc_part_exp_int: 0.57764745" role="graphics-symbol" aria-roledescription="point" transform="translate(254.41804000000002,120.88220625000004)" d="M2.739,0A2.739,2.739,0,1,1,-2.739,0A2.739,2.739,0,1,1,2.739,0" fill="#179FDB" stroke="#179FDB" stroke-width="2" opacity="0.7"/><path aria-label="lnavg_share_trade00: 4.6903586; avg_gvc_part_exp_int: 0.53555775" role="graphics-symbol" aria-roledescription="point" transform="translate(269.03585999999996,136.66584374999996)" d="M2.739,0A2.739,2.739,0,1,1,-2.739,0A2.739,2.739,0,1,1,2.739,0" fill="#179FDB" stroke="#179FDB" stroke-width="2" opacity="0.7"/><path aria-label="lnavg_share_trade00: 4.8643055; avg_gvc_part_exp_int: 0.6291132" role="graphics-symbol" aria-roledescription="point" transform="translate(286.43055000000004,101.58255)" d="M2.739,0A2.739,2.739,0,1,1,-2.739,0A2.739,2.739,0,1,1,2.739,0" fill="#179FDB" stroke="#179FDB" stroke-width="2" opacity="0.7"/><path aria-label="lnavg_share_trade00: 4.1339087; avg_gvc_part_exp_int: 0.3784337" role="graphics-symbol" aria-roledescription="point" transform="translate(213.39087,195.5873625)" d="M2.739,0A2.739,2.739,0,1,1,-2.739,0A2.739,2.739,0,1,1,2.739,0" fill="#179FDB" stroke="#179FDB" stroke-width="2" opacity="0.7"/><path aria-label="lnavg_share_trade00: 4.51104; avg_gvc_part_exp_int: 0.5794854" role="graphics-symbol" aria-roledescription="point" transform="translate(251.10400000000004,120.192975)" d="M2.739,0A2.739,2.739,0,1,1,-2.739,0A2.739,2.739,0,1,1,2.739,0" fill="#179FDB" stroke="#179FDB" stroke-width="2" opacity="0.7"/><path aria-label="lnavg_share_trade00: 4.091647; avg_gvc_part_exp_int: 0.49179167" role="graphics-symbol" aria-roledescription="point" transform="translate(209.1647,153.07812375)" d="M2.739,0A2.739,2.739,0,1,1,-2.739,0A2.739,2.739,0,1,1,2.739,0" fill="#179FDB" stroke="#179FDB" stroke-width="2" opacity="0.7"/><path aria-label="lnavg_share_trade00: 4.532021; avg_gvc_part_exp_int: 0.53179383" role="graphics-symbol" aria-roledescription="point" transform="translate(253.20210000000003,138.07731375)" d="M2.739,0A2.739,2.739,0,1,1,-2.739,0A2.739,2.739,0,1,1,2.739,0" fill="#179FDB" stroke="#179FDB" stroke-width="2" opacity="0.7"/><path aria-label="lnavg_share_trade00: 3.7428746; avg_gvc_part_exp_int: 0.3400286" role="graphics-symbol" aria-roledescription="point" transform="translate(174.28745999999998,209.98927500000002)" d="M2.739,0A2.739,2.739,0,1,1,-2.739,0A2.739,2.739,0,1,1,2.739,0" fill="#179FDB" stroke="#179FDB" stroke-width="2" opacity="0.7"/><path aria-label="lnavg_share_trade00: 5.857309; avg_gvc_part_exp_int: 0.7164365" role="graphics-symbol" aria-roledescription="point" transform="translate(385.73089999999996,68.83631249999999)" d="M2.739,0A2.739,2.739,0,1,1,-2.739,0A2.739,2.739,0,1,1,2.739,0" fill="#179FDB" stroke="#179FDB" stroke-width="2" opacity="0.7"/><path aria-label="lnavg_share_trade00: 4.6795974; avg_gvc_part_exp_int: 0.63422245" role="graphics-symbol" aria-roledescription="point" transform="translate(267.95973999999995,99.66658125000002)" d="M2.739,0A2.739,2.739,0,1,1,-2.739,0A2.739,2.739,0,1,1,2.739,0" fill="#179FDB" stroke="#179FDB" stroke-width="2" opacity="0.7"/><path aria-label="lnavg_share_trade00: 2.4302635; avg_gvc_part_exp_int: 0.30469283" role="graphics-symbol" aria-roledescription="point" transform="translate(43.026350000000015,223.24018875)" d="M2.739,0A2.739,2.739,0,1,1,-2.739,0A2.739,2.739,0,1,1,2.739,0" fill="#179FDB" stroke="#179FDB" stroke-width="2" opacity="0.7"/><path aria-label="lnavg_share_trade00: 3.0695682; avg_gvc_part_exp_int: 0.4026881" role="graphics-symbol" aria-roledescription="point" transform="translate(106.95682,186.49196250000003)" d="M2.739,0A2.739,2.739,0,1,1,-2.739,0A2.739,2.739,0,1,1,2.739,0" fill="#179FDB" stroke="#179FDB" stroke-width="2" opacity="0.7"/><path aria-label="lnavg_share_trade00: 4.8313336; avg_gvc_part_exp_int: 0.54345953" role="graphics-symbol" aria-roledescription="point" transform="translate(283.13336,133.70267625)" d="M2.739,0A2.739,2.739,0,1,1,-2.739,0A2.739,2.739,0,1,1,2.739,0" fill="#179FDB" stroke="#179FDB" stroke-width="2" opacity="0.7"/><path aria-label="lnavg_share_trade00: 3.982656; avg_gvc_part_exp_int: 0.40805575" role="graphics-symbol" aria-roledescription="point" transform="translate(198.2656,184.47909375000003)" d="M2.739,0A2.739,2.739,0,1,1,-2.739,0A2.739,2.739,0,1,1,2.739,0" fill="#179FDB" stroke="#179FDB" stroke-width="2" opacity="0.7"/><path aria-label="lnavg_share_trade00: 3.4824615; avg_gvc_part_exp_int: 0.36613172" role="graphics-symbol" aria-roledescription="point" transform="translate(148.24615,200.20060500000002)" d="M2.739,0A2.739,2.739,0,1,1,-2.739,0A2.739,2.739,0,1,1,2.739,0" fill="#179FDB" stroke="#179FDB" stroke-width="2" opacity="0.7"/><path aria-label="lnavg_share_trade00: 3.563722; avg_gvc_part_exp_int: 0.3585662" role="graphics-symbol" aria-roledescription="point" transform="translate(156.3722,203.03767500000004)" d="M2.739,0A2.739,2.739,0,1,1,-2.739,0A2.739,2.739,0,1,1,2.739,0" fill="#179FDB" stroke="#179FDB" stroke-width="2" opacity="0.7"/><path aria-label="lnavg_share_trade00: 3.1679573; avg_gvc_part_exp_int: 0.5071938" role="graphics-symbol" aria-roledescription="point" transform="translate(116.79572999999999,147.302325)" d="M2.739,0A2.739,2.739,0,1,1,-2.739,0A2.739,2.739,0,1,1,2.739,0" fill="#179FDB" stroke="#179FDB" stroke-width="2" opacity="0.7"/><path aria-label="lnavg_share_trade00: 3.4135585; avg_gvc_part_exp_int: 0.29638734" role="graphics-symbol" aria-roledescription="point" transform="translate(141.35585,226.3547475)" d="M2.739,0A2.739,2.739,0,1,1,-2.739,0A2.739,2.739,0,1,1,2.739,0" fill="#179FDB" stroke="#179FDB" stroke-width="2" opacity="0.7"/><path aria-label="lnavg_share_trade00: 4.209433; avg_gvc_part_exp_int: 0.56848633" role="graphics-symbol" aria-roledescription="point" transform="translate(220.94329999999997,124.31762625)" d="M2.739,0A2.739,2.739,0,1,1,-2.739,0A2.739,2.739,0,1,1,2.739,0" fill="#179FDB" stroke="#179FDB" stroke-width="2" opacity="0.7"/><path aria-label="lnavg_share_trade00: 4.5483565; avg_gvc_part_exp_int: 0.5177983" role="graphics-symbol" aria-roledescription="point" transform="translate(254.83564999999996,143.3256375)" d="M2.739,0A2.739,2.739,0,1,1,-2.739,0A2.739,2.739,0,1,1,2.739,0" fill="#179FDB" stroke="#179FDB" stroke-width="2" opacity="0.7"/><path aria-label="lnavg_share_trade00: 5.4252706; avg_gvc_part_exp_int: 0.6992664" role="graphics-symbol" aria-roledescription="point" transform="translate(342.52706,75.27510000000002)" d="M2.739,0A2.739,2.739,0,1,1,-2.739,0A2.739,2.739,0,1,1,2.739,0" fill="#179FDB" stroke="#179FDB" stroke-width="2" opacity="0.7"/><path aria-label="lnavg_share_trade00: 4.6243844; avg_gvc_part_exp_int: 0.5898832" role="graphics-symbol" aria-roledescription="point" transform="translate(262.43844,116.29379999999998)" d="M2.739,0A2.739,2.739,0,1,1,-2.739,0A2.739,2.739,0,1,1,2.739,0" fill="#179FDB" stroke="#179FDB" stroke-width="2" opacity="0.7"/><path aria-label="lnavg_share_trade00: 3.6721742; avg_gvc_part_exp_int: 0.3790478" role="graphics-symbol" aria-roledescription="point" transform="translate(167.21742,195.35707500000004)" d="M2.739,0A2.739,2.739,0,1,1,-2.739,0A2.739,2.739,0,1,1,2.739,0" fill="#179FDB" stroke="#179FDB" stroke-width="2" opacity="0.7"/><path aria-label="lnavg_share_trade00: 4.9169164; avg_gvc_part_exp_int: 0.6344176" role="graphics-symbol" aria-roledescription="point" transform="translate(291.69164,99.5934)" d="M2.739,0A2.739,2.739,0,1,1,-2.739,0A2.739,2.739,0,1,1,2.739,0" fill="#179FDB" stroke="#179FDB" stroke-width="2" opacity="0.7"/><path aria-label="lnavg_share_trade00: 3.7691317; avg_gvc_part_exp_int: 0.36622214" role="graphics-symbol" aria-roledescription="point" transform="translate(176.91317,200.1666975)" d="M2.739,0A2.739,2.739,0,1,1,-2.739,0A2.739,2.739,0,1,1,2.739,0" fill="#179FDB" stroke="#179FDB" stroke-width="2" opacity="0.7"/><path aria-label="lnavg_share_trade00: 3.5607529; avg_gvc_part_exp_int: 0.35970807" role="graphics-symbol" aria-roledescription="point" transform="translate(156.07529000000002,202.60947375000003)" d="M2.739,0A2.739,2.739,0,1,1,-2.739,0A2.739,2.739,0,1,1,2.739,0" fill="#179FDB" stroke="#179FDB" stroke-width="2" opacity="0.7"/><path aria-label="lnavg_share_trade00: 2.5571804; avg_gvc_part_exp_int: 0.4197189" role="graphics-symbol" aria-roledescription="point" transform="translate(55.71804,180.1054125)" d="M2.739,0A2.739,2.739,0,1,1,-2.739,0A2.739,2.739,0,1,1,2.739,0" fill="#179FDB" stroke="#179FDB" stroke-width="2" opacity="0.7"/><path aria-label="lnavg_share_trade00: 4.9866185; avg_gvc_part_exp_int: 0.6349866" role="graphics-symbol" aria-roledescription="point" transform="translate(298.66184999999996,99.38002500000002)" d="M2.739,0A2.739,2.739,0,1,1,-2.739,0A2.739,2.739,0,1,1,2.739,0" fill="#179FDB" stroke="#179FDB" stroke-width="2" opacity="0.7"/><path aria-label="lnavg_share_trade00: 4.4934864; avg_gvc_part_exp_int: 0.4735056" role="graphics-symbol" aria-roledescription="point" transform="translate(249.34864000000002,159.9354)" d="M2.739,0A2.739,2.739,0,1,1,-2.739,0A2.739,2.739,0,1,1,2.739,0" fill="#179FDB" stroke="#179FDB" stroke-width="2" opacity="0.7"/><path aria-label="lnavg_share_trade00: 2.5544465; avg_gvc_part_exp_int: 0.31183055" role="graphics-symbol" aria-roledescription="point" transform="translate(55.44465000000001,220.56354375)" d="M2.739,0A2.739,2.739,0,1,1,-2.739,0A2.739,2.739,0,1,1,2.739,0" fill="#179FDB" stroke="#179FDB" stroke-width="2" opacity="0.7"/><path aria-label="lnavg_share_trade00: 3.45202; avg_gvc_part_exp_int: 0.45975223" role="graphics-symbol" aria-roledescription="point" transform="translate(145.202,165.09291375)" d="M2.739,0A2.739,2.739,0,1,1,-2.739,0A2.739,2.739,0,1,1,2.739,0" fill="#179FDB" stroke="#179FDB" stroke-width="2" opacity="0.7"/><path aria-label="lnavg_share_trade00: 3.8293586; avg_gvc_part_exp_int: 0.5608968" role="graphics-symbol" aria-roledescription="point" transform="translate(182.93586,127.1637)" d="M2.739,0A2.739,2.739,0,1,1,-2.739,0A2.739,2.739,0,1,1,2.739,0" fill="#179FDB" stroke="#179FDB" stroke-width="2" opacity="0.7"/><path aria-label="lnavg_share_trade00: 4.1651516; avg_gvc_part_exp_int: 0.5140471" role="graphics-symbol" aria-roledescription="point" transform="translate(216.51515999999998,144.7323375)" d="M2.739,0A2.739,2.739,0,1,1,-2.739,0A2.739,2.739,0,1,1,2.739,0" fill="#179FDB" stroke="#179FDB" stroke-width="2" opacity="0.7"/><path aria-label="lnavg_share_trade00: 4.2373066; avg_gvc_part_exp_int: 0.5221277" role="graphics-symbol" aria-roledescription="point" transform="translate(223.73066,141.7021125)" d="M2.739,0A2.739,2.739,0,1,1,-2.739,0A2.739,2.739,0,1,1,2.739,0" fill="#179FDB" stroke="#179FDB" stroke-width="2" opacity="0.7"/><path aria-label="lnavg_share_trade00: 3.6569042; avg_gvc_part_exp_int: 0.46742144" role="graphics-symbol" aria-roledescription="point" transform="translate(165.69042000000002,162.21696)" d="M2.739,0A2.739,2.739,0,1,1,-2.739,0A2.739,2.739,0,1,1,2.739,0" fill="#179FDB" stroke="#179FDB" stroke-width="2" opacity="0.7"/><path aria-label="lnavg_share_trade00: 3.3772562; avg_gvc_part_exp_int: 0.37334535" role="graphics-symbol" aria-roledescription="point" transform="translate(137.72562000000002,197.49549374999998)" d="M2.739,0A2.739,2.739,0,1,1,-2.739,0A2.739,2.739,0,1,1,2.739,0" fill="#179FDB" stroke="#179FDB" stroke-width="2" opacity="0.7"/><path aria-label="lnavg_share_trade00: 5.840549; avg_gvc_part_exp_int: 0.59155065" role="graphics-symbol" aria-roledescription="point" transform="translate(384.05490000000003,115.66850625000002)" d="M2.739,0A2.739,2.739,0,1,1,-2.739,0A2.739,2.739,0,1,1,2.739,0" fill="#179FDB" stroke="#179FDB" stroke-width="2" opacity="0.7"/><path aria-label="lnavg_share_trade00: 4.6935015; avg_gvc_part_exp_int: 0.62138706" role="graphics-symbol" aria-roledescription="point" transform="translate(269.35015,104.4798525)" d="M2.739,0A2.739,2.739,0,1,1,-2.739,0A2.739,2.739,0,1,1,2.739,0" fill="#179FDB" stroke="#179FDB" stroke-width="2" opacity="0.7"/><path aria-label="lnavg_share_trade00: 4.7953734; avg_gvc_part_exp_int: 0.5965562" role="graphics-symbol" aria-roledescription="point" transform="translate(279.53734,113.79142500000002)" d="M2.739,0A2.739,2.739,0,1,1,-2.739,0A2.739,2.739,0,1,1,2.739,0" fill="#179FDB" stroke="#179FDB" stroke-width="2" opacity="0.7"/><path aria-label="lnavg_share_trade00: 3.9362156; avg_gvc_part_exp_int: 0.47889096" role="graphics-symbol" aria-roledescription="point" transform="translate(193.62156000000002,157.91589)" d="M2.739,0A2.739,2.739,0,1,1,-2.739,0A2.739,2.739,0,1,1,2.739,0" fill="#179FDB" stroke="#179FDB" stroke-width="2" opacity="0.7"/><path aria-label="lnavg_share_trade00: 3.0632758; avg_gvc_part_exp_int: 0.45391458" role="graphics-symbol" aria-roledescription="point" transform="translate(106.32758,167.2820325)" d="M2.739,0A2.739,2.739,0,1,1,-2.739,0A2.739,2.739,0,1,1,2.739,0" fill="#179FDB" stroke="#179FDB" stroke-width="2" opacity="0.7"/><path aria-label="lnavg_share_trade00: 4.571584; avg_gvc_part_exp_int: 0.56280863" role="graphics-symbol" aria-roledescription="point" transform="translate(257.1584,126.44676374999997)" d="M2.739,0A2.739,2.739,0,1,1,-2.739,0A2.739,2.739,0,1,1,2.739,0" fill="#179FDB" stroke="#179FDB" stroke-width="2" opacity="0.7"/><path aria-label="lnavg_share_trade00: 4.655579; avg_gvc_part_exp_int: 0.48605222" role="graphics-symbol" aria-roledescription="point" transform="translate(265.5579,155.23041750000002)" d="M2.739,0A2.739,2.739,0,1,1,-2.739,0A2.739,2.739,0,1,1,2.739,0" fill="#179FDB" stroke="#179FDB" stroke-width="2" opacity="0.7"/><path aria-label="lnavg_share_trade00: 3.9872057; avg_gvc_part_exp_int: 0.53697497" role="graphics-symbol" aria-roledescription="point" transform="translate(198.72057,136.13438624999998)" d="M2.739,0A2.739,2.739,0,1,1,-2.739,0A2.739,2.739,0,1,1,2.739,0" fill="#179FDB" stroke="#179FDB" stroke-width="2" opacity="0.7"/><path aria-label="lnavg_share_trade00: 3.250045; avg_gvc_part_exp_int: 0.38643935" role="graphics-symbol" aria-roledescription="point" transform="translate(125.00450000000001,192.58524375)" d="M2.739,0A2.739,2.739,0,1,1,-2.739,0A2.739,2.739,0,1,1,2.739,0" fill="#179FDB" stroke="#179FDB" stroke-width="2" opacity="0.7"/><path aria-label="lnavg_share_trade00: 4.1097484; avg_gvc_part_exp_int: 0.4990185" role="graphics-symbol" aria-roledescription="point" transform="translate(210.97484,150.3680625)" d="M2.739,0A2.739,2.739,0,1,1,-2.739,0A2.739,2.739,0,1,1,2.739,0" fill="#179FDB" stroke="#179FDB" stroke-width="2" opacity="0.7"/><path aria-label="lnavg_share_trade00: 4.304875; avg_gvc_part_exp_int: 0.37968764" role="graphics-symbol" aria-roledescription="point" transform="translate(230.4875,195.117135)" d="M2.739,0A2.739,2.739,0,1,1,-2.739,0A2.739,2.739,0,1,1,2.739,0" fill="#179FDB" stroke="#179FDB" stroke-width="2" opacity="0.7"/><path aria-label="lnavg_share_trade00: 3.9222982; avg_gvc_part_exp_int: 0.62306505" role="graphics-symbol" aria-roledescription="point" transform="translate(192.22982000000002,103.85060624999998)" d="M2.739,0A2.739,2.739,0,1,1,-2.739,0A2.739,2.739,0,1,1,2.739,0" fill="#179FDB" stroke="#179FDB" stroke-width="2" opacity="0.7"/></g><g class="mark-symbol role-mark layer_3_marks" role="graphics-object" aria-roledescription="symbol mark container"><path aria-label="lnavg_share_trade00: 3.8080082; avg_gvc_part_exp_int: 0.4208507" role="graphics-symbol" aria-roledescription="point" transform="translate(180.80082000000002,179.68098749999996)" d="M2.739,0A2.739,2.739,0,1,1,-2.739,0A2.739,2.739,0,1,1,2.739,0" fill="#F4134D" stroke="#F4134D" stroke-width="2" opacity="0.7"/><path aria-label="lnavg_share_trade00: 4.6458683; avg_gvc_part_exp_int: 0.6234646" role="graphics-symbol" aria-roledescription="point" transform="translate(264.58683,103.70077499999998)" d="M2.739,0A2.739,2.739,0,1,1,-2.739,0A2.739,2.739,0,1,1,2.739,0" fill="#F4134D" stroke="#F4134D" stroke-width="2" opacity="0.7"/><path aria-label="lnavg_share_trade00: 2.7613997; avg_gvc_part_exp_int: 0.29105568" role="graphics-symbol" aria-roledescription="point" transform="translate(76.13997,228.35412)" d="M2.739,0A2.739,2.739,0,1,1,-2.739,0A2.739,2.739,0,1,1,2.739,0" fill="#F4134D" stroke="#F4134D" stroke-width="2" opacity="0.7"/><path aria-label="lnavg_share_trade00: 5.4252706; avg_gvc_part_exp_int: 0.7361997" role="graphics-symbol" aria-roledescription="point" transform="translate(342.52706,61.42511250000001)" d="M2.739,0A2.739,2.739,0,1,1,-2.739,0A2.739,2.739,0,1,1,2.739,0" fill="#F4134D" stroke="#F4134D" stroke-width="2" opacity="0.7"/><path aria-label="lnavg_share_trade00: 3.0173948; avg_gvc_part_exp_int: 0.24659266" role="graphics-symbol" aria-roledescription="point" transform="translate(101.73947999999999,245.02775250000002)" d="M2.739,0A2.739,2.739,0,1,1,-2.739,0A2.739,2.739,0,1,1,2.739,0" fill="#F4134D" stroke="#F4134D" stroke-width="2" opacity="0.7"/><path aria-label="lnavg_share_trade00: 3.0604658; avg_gvc_part_exp_int: 0.3237431" role="graphics-symbol" aria-roledescription="point" transform="translate(106.04657999999998,216.0963375)" d="M2.739,0A2.739,2.739,0,1,1,-2.739,0A2.739,2.739,0,1,1,2.739,0" fill="#F4134D" stroke="#F4134D" stroke-width="2" opacity="0.7"/><path aria-label="lnavg_share_trade00: 4.317107; avg_gvc_part_exp_int: 0.47747016" role="graphics-symbol" aria-roledescription="point" transform="translate(231.7107,158.44869)" d="M2.739,0A2.739,2.739,0,1,1,-2.739,0A2.739,2.739,0,1,1,2.739,0" fill="#F4134D" stroke="#F4134D" stroke-width="2" opacity="0.7"/><path aria-label="lnavg_share_trade00: 3.9471467; avg_gvc_part_exp_int: 0.7198648" role="graphics-symbol" aria-roledescription="point" transform="translate(194.71466999999998,67.55070000000002)" d="M2.739,0A2.739,2.739,0,1,1,-2.739,0A2.739,2.739,0,1,1,2.739,0" fill="#F4134D" stroke="#F4134D" stroke-width="2" opacity="0.7"/><path aria-label="lnavg_share_trade00: 3.691071; avg_gvc_part_exp_int: 0.45907366" role="graphics-symbol" aria-roledescription="point" transform="translate(169.1071,165.34737750000002)" d="M2.739,0A2.739,2.739,0,1,1,-2.739,0A2.739,2.739,0,1,1,2.739,0" fill="#F4134D" stroke="#F4134D" stroke-width="2" opacity="0.7"/><path aria-label="lnavg_share_trade00: 4.277398; avg_gvc_part_exp_int: 0.40909564" role="graphics-symbol" aria-roledescription="point" transform="translate(227.73979999999997,184.08913500000003)" d="M2.739,0A2.739,2.739,0,1,1,-2.739,0A2.739,2.739,0,1,1,2.739,0" fill="#F4134D" stroke="#F4134D" stroke-width="2" opacity="0.7"/><path aria-label="lnavg_share_trade00: 3.2319202; avg_gvc_part_exp_int: 0.34991214" role="graphics-symbol" aria-roledescription="point" transform="translate(123.19201999999999,206.2829475)" d="M2.739,0A2.739,2.739,0,1,1,-2.739,0A2.739,2.739,0,1,1,2.739,0" fill="#F4134D" stroke="#F4134D" stroke-width="2" opacity="0.7"/><path aria-label="lnavg_share_trade00: 4.09268; avg_gvc_part_exp_int: 0.47563288" role="graphics-symbol" aria-roledescription="point" transform="translate(209.26799999999997,159.13767)" d="M2.739,0A2.739,2.739,0,1,1,-2.739,0A2.739,2.739,0,1,1,2.739,0" fill="#F4134D" stroke="#F4134D" stroke-width="2" opacity="0.7"/><path aria-label="lnavg_share_trade00: 4.209306; avg_gvc_part_exp_int: 0.42880875" role="graphics-symbol" aria-roledescription="point" transform="translate(220.93059999999997,176.69671875)" d="M2.739,0A2.739,2.739,0,1,1,-2.739,0A2.739,2.739,0,1,1,2.739,0" fill="#F4134D" stroke="#F4134D" stroke-width="2" opacity="0.7"/><path aria-label="lnavg_share_trade00: 4.5441804; avg_gvc_part_exp_int: 0.67638683" role="graphics-symbol" aria-roledescription="point" transform="translate(254.41804000000002,83.85493875000002)" d="M2.739,0A2.739,2.739,0,1,1,-2.739,0A2.739,2.739,0,1,1,2.739,0" fill="#F4134D" stroke="#F4134D" stroke-width="2" opacity="0.7"/><path aria-label="lnavg_share_trade00: 4.6903586; avg_gvc_part_exp_int: 0.44274807" role="graphics-symbol" aria-roledescription="point" transform="translate(269.03585999999996,171.46947375000002)" d="M2.739,0A2.739,2.739,0,1,1,-2.739,0A2.739,2.739,0,1,1,2.739,0" fill="#F4134D" stroke="#F4134D" stroke-width="2" opacity="0.7"/><path aria-label="lnavg_share_trade00: 4.8643055; avg_gvc_part_exp_int: 0.7152239" role="graphics-symbol" aria-roledescription="point" transform="translate(286.43055000000004,69.2910375)" d="M2.739,0A2.739,2.739,0,1,1,-2.739,0A2.739,2.739,0,1,1,2.739,0" fill="#F4134D" stroke="#F4134D" stroke-width="2" opacity="0.7"/><path aria-label="lnavg_share_trade00: 4.1339087; avg_gvc_part_exp_int: 0.38671485" role="graphics-symbol" aria-roledescription="point" transform="translate(213.39087,192.48193125000003)" d="M2.739,0A2.739,2.739,0,1,1,-2.739,0A2.739,2.739,0,1,1,2.739,0" fill="#F4134D" stroke="#F4134D" stroke-width="2" opacity="0.7"/><path aria-label="lnavg_share_trade00: 4.51104; avg_gvc_part_exp_int: 0.54880124" role="graphics-symbol" aria-roledescription="point" transform="translate(251.10400000000004,131.69953500000003)" d="M2.739,0A2.739,2.739,0,1,1,-2.739,0A2.739,2.739,0,1,1,2.739,0" fill="#F4134D" stroke="#F4134D" stroke-width="2" opacity="0.7"/><path aria-label="lnavg_share_trade00: 4.091647; avg_gvc_part_exp_int: 0.51948583" role="graphics-symbol" aria-roledescription="point" transform="translate(209.1647,142.69281375)" d="M2.739,0A2.739,2.739,0,1,1,-2.739,0A2.739,2.739,0,1,1,2.739,0" fill="#F4134D" stroke="#F4134D" stroke-width="2" opacity="0.7"/><path aria-label="lnavg_share_trade00: 4.532021; avg_gvc_part_exp_int: 0.4835658" role="graphics-symbol" aria-roledescription="point" transform="translate(253.20210000000003,156.16282500000003)" d="M2.739,0A2.739,2.739,0,1,1,-2.739,0A2.739,2.739,0,1,1,2.739,0" fill="#F4134D" stroke="#F4134D" stroke-width="2" opacity="0.7"/><path aria-label="lnavg_share_trade00: 3.7428746; avg_gvc_part_exp_int: 0.6855961" role="graphics-symbol" aria-roledescription="point" transform="translate(174.28745999999998,80.40146249999998)" d="M2.739,0A2.739,2.739,0,1,1,-2.739,0A2.739,2.739,0,1,1,2.739,0" fill="#F4134D" stroke="#F4134D" stroke-width="2" opacity="0.7"/><path aria-label="lnavg_share_trade00: 5.857309; avg_gvc_part_exp_int: 0.7075193" role="graphics-symbol" aria-roledescription="point" transform="translate(385.73089999999996,72.18026250000001)" d="M2.739,0A2.739,2.739,0,1,1,-2.739,0A2.739,2.739,0,1,1,2.739,0" fill="#F4134D" stroke="#F4134D" stroke-width="2" opacity="0.7"/><path aria-label="lnavg_share_trade00: 4.6795974; avg_gvc_part_exp_int: 0.79287225" role="graphics-symbol" aria-roledescription="point" transform="translate(267.95973999999995,40.172906250000025)" d="M2.739,0A2.739,2.739,0,1,1,-2.739,0A2.739,2.739,0,1,1,2.739,0" fill="#F4134D" stroke="#F4134D" stroke-width="2" opacity="0.7"/><path aria-label="lnavg_share_trade00: 2.4302635; avg_gvc_part_exp_int: 0.45665884" role="graphics-symbol" aria-roledescription="point" transform="translate(43.026350000000015,166.25293499999998)" d="M2.739,0A2.739,2.739,0,1,1,-2.739,0A2.739,2.739,0,1,1,2.739,0" fill="#F4134D" stroke="#F4134D" stroke-width="2" opacity="0.7"/><path aria-label="lnavg_share_trade00: 3.0695682; avg_gvc_part_exp_int: 0.3446972" role="graphics-symbol" aria-roledescription="point" transform="translate(106.95682,208.23855)" d="M2.739,0A2.739,2.739,0,1,1,-2.739,0A2.739,2.739,0,1,1,2.739,0" fill="#F4134D" stroke="#F4134D" stroke-width="2" opacity="0.7"/><path aria-label="lnavg_share_trade00: 4.8313336; avg_gvc_part_exp_int: 0.6383426" role="graphics-symbol" aria-roledescription="point" transform="translate(283.13336,98.12152499999999)" d="M2.739,0A2.739,2.739,0,1,1,-2.739,0A2.739,2.739,0,1,1,2.739,0" fill="#F4134D" stroke="#F4134D" stroke-width="2" opacity="0.7"/><path aria-label="lnavg_share_trade00: 3.982656; avg_gvc_part_exp_int: 0.504208" role="graphics-symbol" aria-roledescription="point" transform="translate(198.2656,148.42200000000003)" d="M2.739,0A2.739,2.739,0,1,1,-2.739,0A2.739,2.739,0,1,1,2.739,0" fill="#F4134D" stroke="#F4134D" stroke-width="2" opacity="0.7"/><path aria-label="lnavg_share_trade00: 3.4824615; avg_gvc_part_exp_int: 0.39555803" role="graphics-symbol" aria-roledescription="point" transform="translate(148.24615,189.16573875)" d="M2.739,0A2.739,2.739,0,1,1,-2.739,0A2.739,2.739,0,1,1,2.739,0" fill="#F4134D" stroke="#F4134D" stroke-width="2" opacity="0.7"/><path aria-label="lnavg_share_trade00: 3.563722; avg_gvc_part_exp_int: 0.5155162" role="graphics-symbol" aria-roledescription="point" transform="translate(156.3722,144.18142500000002)" d="M2.739,0A2.739,2.739,0,1,1,-2.739,0A2.739,2.739,0,1,1,2.739,0" fill="#F4134D" stroke="#F4134D" stroke-width="2" opacity="0.7"/><path aria-label="lnavg_share_trade00: 3.1679573; avg_gvc_part_exp_int: 0.49087656" role="graphics-symbol" aria-roledescription="point" transform="translate(116.79572999999999,153.42128999999997)" d="M2.739,0A2.739,2.739,0,1,1,-2.739,0A2.739,2.739,0,1,1,2.739,0" fill="#F4134D" stroke="#F4134D" stroke-width="2" opacity="0.7"/><path aria-label="lnavg_share_trade00: 3.4135585; avg_gvc_part_exp_int: 0.37382436" role="graphics-symbol" aria-roledescription="point" transform="translate(141.35585,197.315865)" d="M2.739,0A2.739,2.739,0,1,1,-2.739,0A2.739,2.739,0,1,1,2.739,0" fill="#F4134D" stroke="#F4134D" stroke-width="2" opacity="0.7"/><path aria-label="lnavg_share_trade00: 4.209433; avg_gvc_part_exp_int: 0.570899" role="graphics-symbol" aria-roledescription="point" transform="translate(220.94329999999997,123.412875)" d="M2.739,0A2.739,2.739,0,1,1,-2.739,0A2.739,2.739,0,1,1,2.739,0" fill="#F4134D" stroke="#F4134D" stroke-width="2" opacity="0.7"/><path aria-label="lnavg_share_trade00: 4.5483565; avg_gvc_part_exp_int: 0.704262" role="graphics-symbol" aria-roledescription="point" transform="translate(254.83564999999996,73.40174999999999)" d="M2.739,0A2.739,2.739,0,1,1,-2.739,0A2.739,2.739,0,1,1,2.739,0" fill="#F4134D" stroke="#F4134D" stroke-width="2" opacity="0.7"/><path aria-label="lnavg_share_trade00: 5.4252706; avg_gvc_part_exp_int: 0.85277385" role="graphics-symbol" aria-roledescription="point" transform="translate(342.52706,17.70980624999997)" d="M2.739,0A2.739,2.739,0,1,1,-2.739,0A2.739,2.739,0,1,1,2.739,0" fill="#F4134D" stroke="#F4134D" stroke-width="2" opacity="0.7"/><path aria-label="lnavg_share_trade00: 4.6243844; avg_gvc_part_exp_int: 0.574297" role="graphics-symbol" aria-roledescription="point" transform="translate(262.43844,122.13862500000002)" d="M2.739,0A2.739,2.739,0,1,1,-2.739,0A2.739,2.739,0,1,1,2.739,0" fill="#F4134D" stroke="#F4134D" stroke-width="2" opacity="0.7"/><path aria-label="lnavg_share_trade00: 3.6721742; avg_gvc_part_exp_int: 0.3778419" role="graphics-symbol" aria-roledescription="point" transform="translate(167.21742,195.8092875)" d="M2.739,0A2.739,2.739,0,1,1,-2.739,0A2.739,2.739,0,1,1,2.739,0" fill="#F4134D" stroke="#F4134D" stroke-width="2" opacity="0.7"/><path aria-label="lnavg_share_trade00: 4.9169164; avg_gvc_part_exp_int: 0.6710966" role="graphics-symbol" aria-roledescription="point" transform="translate(291.69164,85.838775)" d="M2.739,0A2.739,2.739,0,1,1,-2.739,0A2.739,2.739,0,1,1,2.739,0" fill="#F4134D" stroke="#F4134D" stroke-width="2" opacity="0.7"/><path aria-label="lnavg_share_trade00: 3.7691317; avg_gvc_part_exp_int: 0.5401581" role="graphics-symbol" aria-roledescription="point" transform="translate(176.91317,134.94071250000002)" d="M2.739,0A2.739,2.739,0,1,1,-2.739,0A2.739,2.739,0,1,1,2.739,0" fill="#F4134D" stroke="#F4134D" stroke-width="2" opacity="0.7"/><path aria-label="lnavg_share_trade00: 3.5607529; avg_gvc_part_exp_int: 0.49243084" role="graphics-symbol" aria-roledescription="point" transform="translate(156.07529000000002,152.83843500000003)" d="M2.739,0A2.739,2.739,0,1,1,-2.739,0A2.739,2.739,0,1,1,2.739,0" fill="#F4134D" stroke="#F4134D" stroke-width="2" opacity="0.7"/><path aria-label="lnavg_share_trade00: 2.5571804; avg_gvc_part_exp_int: 0.32364735" role="graphics-symbol" aria-roledescription="point" transform="translate(55.71804,216.13224375000001)" d="M2.739,0A2.739,2.739,0,1,1,-2.739,0A2.739,2.739,0,1,1,2.739,0" fill="#F4134D" stroke="#F4134D" stroke-width="2" opacity="0.7"/><path aria-label="lnavg_share_trade00: 4.9866185; avg_gvc_part_exp_int: 0.635133" role="graphics-symbol" aria-roledescription="point" transform="translate(298.66184999999996,99.32512500000004)" d="M2.739,0A2.739,2.739,0,1,1,-2.739,0A2.739,2.739,0,1,1,2.739,0" fill="#F4134D" stroke="#F4134D" stroke-width="2" opacity="0.7"/><path aria-label="lnavg_share_trade00: 4.4934864; avg_gvc_part_exp_int: 0.4811883" role="graphics-symbol" aria-roledescription="point" transform="translate(249.34864000000002,157.0543875)" d="M2.739,0A2.739,2.739,0,1,1,-2.739,0A2.739,2.739,0,1,1,2.739,0" fill="#F4134D" stroke="#F4134D" stroke-width="2" opacity="0.7"/><path aria-label="lnavg_share_trade00: 2.5544465; avg_gvc_part_exp_int: 0.24102071" role="graphics-symbol" aria-roledescription="point" transform="translate(55.44465000000001,247.11723375)" d="M2.739,0A2.739,2.739,0,1,1,-2.739,0A2.739,2.739,0,1,1,2.739,0" fill="#F4134D" stroke="#F4134D" stroke-width="2" opacity="0.7"/><path aria-label="lnavg_share_trade00: 3.45202; avg_gvc_part_exp_int: 0.54218245" role="graphics-symbol" aria-roledescription="point" transform="translate(145.202,134.18158125000002)" d="M2.739,0A2.739,2.739,0,1,1,-2.739,0A2.739,2.739,0,1,1,2.739,0" fill="#F4134D" stroke="#F4134D" stroke-width="2" opacity="0.7"/><path aria-label="lnavg_share_trade00: 3.8293586; avg_gvc_part_exp_int: 0.59688956" role="graphics-symbol" aria-roledescription="point" transform="translate(182.93586,113.66641499999997)" d="M2.739,0A2.739,2.739,0,1,1,-2.739,0A2.739,2.739,0,1,1,2.739,0" fill="#F4134D" stroke="#F4134D" stroke-width="2" opacity="0.7"/><path aria-label="lnavg_share_trade00: 4.1651516; avg_gvc_part_exp_int: 0.652972" role="graphics-symbol" aria-roledescription="point" transform="translate(216.51515999999998,92.6355)" d="M2.739,0A2.739,2.739,0,1,1,-2.739,0A2.739,2.739,0,1,1,2.739,0" fill="#F4134D" stroke="#F4134D" stroke-width="2" opacity="0.7"/><path aria-label="lnavg_share_trade00: 4.2373066; avg_gvc_part_exp_int: 0.5530873" role="graphics-symbol" aria-roledescription="point" transform="translate(223.73066,130.0922625)" d="M2.739,0A2.739,2.739,0,1,1,-2.739,0A2.739,2.739,0,1,1,2.739,0" fill="#F4134D" stroke="#F4134D" stroke-width="2" opacity="0.7"/><path aria-label="lnavg_share_trade00: 3.6569042; avg_gvc_part_exp_int: 0.604016" role="graphics-symbol" aria-roledescription="point" transform="translate(165.69042000000002,110.994)" d="M2.739,0A2.739,2.739,0,1,1,-2.739,0A2.739,2.739,0,1,1,2.739,0" fill="#F4134D" stroke="#F4134D" stroke-width="2" opacity="0.7"/><path aria-label="lnavg_share_trade00: 3.3772562; avg_gvc_part_exp_int: 0.46264055" role="graphics-symbol" aria-roledescription="point" transform="translate(137.72562000000002,164.00979375000006)" d="M2.739,0A2.739,2.739,0,1,1,-2.739,0A2.739,2.739,0,1,1,2.739,0" fill="#F4134D" stroke="#F4134D" stroke-width="2" opacity="0.7"/><path aria-label="lnavg_share_trade00: 5.840549; avg_gvc_part_exp_int: 0.73027015" role="graphics-symbol" aria-roledescription="point" transform="translate(384.05490000000003,63.64869375000002)" d="M2.739,0A2.739,2.739,0,1,1,-2.739,0A2.739,2.739,0,1,1,2.739,0" fill="#F4134D" stroke="#F4134D" stroke-width="2" opacity="0.7"/><path aria-label="lnavg_share_trade00: 4.6935015; avg_gvc_part_exp_int: 0.74471813" role="graphics-symbol" aria-roledescription="point" transform="translate(269.35015,58.23070125000002)" d="M2.739,0A2.739,2.739,0,1,1,-2.739,0A2.739,2.739,0,1,1,2.739,0" fill="#F4134D" stroke="#F4134D" stroke-width="2" opacity="0.7"/><path aria-label="lnavg_share_trade00: 4.7953734; avg_gvc_part_exp_int: 0.6740688" role="graphics-symbol" aria-roledescription="point" transform="translate(279.53734,84.72419999999998)" d="M2.739,0A2.739,2.739,0,1,1,-2.739,0A2.739,2.739,0,1,1,2.739,0" fill="#F4134D" stroke="#F4134D" stroke-width="2" opacity="0.7"/><path aria-label="lnavg_share_trade00: 3.9362156; avg_gvc_part_exp_int: 0.51352495" role="graphics-symbol" aria-roledescription="point" transform="translate(193.62156000000002,144.92814375)" d="M2.739,0A2.739,2.739,0,1,1,-2.739,0A2.739,2.739,0,1,1,2.739,0" fill="#F4134D" stroke="#F4134D" stroke-width="2" opacity="0.7"/><path aria-label="lnavg_share_trade00: 3.0632758; avg_gvc_part_exp_int: 0.3478769" role="graphics-symbol" aria-roledescription="point" transform="translate(106.32758,207.0461625)" d="M2.739,0A2.739,2.739,0,1,1,-2.739,0A2.739,2.739,0,1,1,2.739,0" fill="#F4134D" stroke="#F4134D" stroke-width="2" opacity="0.7"/><path aria-label="lnavg_share_trade00: 4.571584; avg_gvc_part_exp_int: 0.53530484" role="graphics-symbol" aria-roledescription="point" transform="translate(257.1584,136.76068500000002)" d="M2.739,0A2.739,2.739,0,1,1,-2.739,0A2.739,2.739,0,1,1,2.739,0" fill="#F4134D" stroke="#F4134D" stroke-width="2" opacity="0.7"/><path aria-label="lnavg_share_trade00: 4.655579; avg_gvc_part_exp_int: 0.5281345" role="graphics-symbol" aria-roledescription="point" transform="translate(265.5579,139.44956250000004)" d="M2.739,0A2.739,2.739,0,1,1,-2.739,0A2.739,2.739,0,1,1,2.739,0" fill="#F4134D" stroke="#F4134D" stroke-width="2" opacity="0.7"/><path aria-label="lnavg_share_trade00: 3.9872057; avg_gvc_part_exp_int: 0.53360087" role="graphics-symbol" aria-roledescription="point" transform="translate(198.72057,137.39967375)" d="M2.739,0A2.739,2.739,0,1,1,-2.739,0A2.739,2.739,0,1,1,2.739,0" fill="#F4134D" stroke="#F4134D" stroke-width="2" opacity="0.7"/><path aria-label="lnavg_share_trade00: 3.250045; avg_gvc_part_exp_int: 0.4594472" role="graphics-symbol" aria-roledescription="point" transform="translate(125.00450000000001,165.2073)" d="M2.739,0A2.739,2.739,0,1,1,-2.739,0A2.739,2.739,0,1,1,2.739,0" fill="#F4134D" stroke="#F4134D" stroke-width="2" opacity="0.7"/><path aria-label="lnavg_share_trade00: 4.1097484; avg_gvc_part_exp_int: 0.498062" role="graphics-symbol" aria-roledescription="point" transform="translate(210.97484,150.72675)" d="M2.739,0A2.739,2.739,0,1,1,-2.739,0A2.739,2.739,0,1,1,2.739,0" fill="#F4134D" stroke="#F4134D" stroke-width="2" opacity="0.7"/><path aria-label="lnavg_share_trade00: 4.304875; avg_gvc_part_exp_int: 0.43626127" role="graphics-symbol" aria-roledescription="point" transform="translate(230.4875,173.90202375)" d="M2.739,0A2.739,2.739,0,1,1,-2.739,0A2.739,2.739,0,1,1,2.739,0" fill="#F4134D" stroke="#F4134D" stroke-width="2" opacity="0.7"/><path aria-label="lnavg_share_trade00: 3.9222982; avg_gvc_part_exp_int: 0.5898028" role="graphics-symbol" aria-roledescription="point" transform="translate(192.22982000000002,116.32395000000002)" d="M2.739,0A2.739,2.739,0,1,1,-2.739,0A2.739,2.739,0,1,1,2.739,0" fill="#F4134D" stroke="#F4134D" stroke-width="2" opacity="0.7"/></g><g class="mark-text role-mark layer_4_marks" role="graphics-object" aria-roledescription="text mark container"><text aria-label="lnavg_share_trade00: 2.5544465; avg_gvc_part_exp_int: 0.31183055" role="graphics-symbol" aria-roledescription="text mark" text-anchor="middle" transform="translate(73.44465000000001,224.56354375)" font-family="Circular Std Book" font-size="12px" fill="#179FDB">PAK</text></g><g class="mark-text role-mark layer_5_marks" role="graphics-object" aria-roledescription="text mark container"><text aria-label="lnavg_share_trade00: 2.5544465; avg_gvc_part_exp_int: 0.24102071" role="graphics-symbol" aria-roledescription="text mark" text-anchor="middle" transform="translate(73.44465000000001,251.11723375)" font-family="Circular Std Book" font-size="12px" fill="#F4134D">PAK</text></g><g class="mark-text role-mark layer_6_marks" role="graphics-object" aria-roledescription="text mark container"><text aria-label="x: 2.1; y: 0.82; t: Export sector" role="graphics-symbol" aria-roledescription="text mark" text-anchor="start" transform="translate(10.000000000000009,34.00000000000003)" font-family="Circular Std Book" font-size="12px" fill="#F4134D">Export sector</text><text aria-label="x: 2.1; y: 0.77; t: Non-export sector" role="graphics-symbol" aria-roledescription="text mark" text-anchor="start" transform="translate(10.000000000000009,52.74999999999999)" font-family="Circular Std Book" font-size="12px" fill="#179FDB">Non-export sector</text></g></g><path class="foreground" aria-hidden="true" d="" display="none"/></g></g></g></svg>