<svg xmlns="http://www.w3.org/2000/svg" xmlns:xlink="http://www.w3.org/1999/xlink" version="1.1" class="marks" width="426" height="347" viewBox="0 0 426 347"><rect width="426" height="347" fill="#122B39"/><g fill="none" stroke-miterlimit="10" transform="translate(20,25)"><g class="mark-group role-frame root" role="graphics-object" aria-roledescription="group mark container"><g transform="translate(0,0)"><path class="background" aria-hidden="true" d="M0,0h400v300h-400Z"/><g><g class="mark-group role-axis" aria-hidden="true"><g transform="translate(0.5,0.5)"><path class="background" aria-hidden="true" d="M0,0h0v0h0Z" pointer-events="none"/><g><g class="mark-rule role-axis-grid" pointer-events="none"><line transform="translate(0,300)" x2="400" y2="0" stroke="#b4c8d8" stroke-opacity="0.5" stroke-width="1" stroke-dasharray="1,5" opacity="1"/><line transform="translate(0,250)" x2="400" y2="0" stroke="#b4c8d8" stroke-opacity="0.5" stroke-width="1" stroke-dasharray="1,5" opacity="1"/><line transform="translate(0,200)" x2="400" y2="0" stroke="#b4c8d8" stroke-opacity="0.5" stroke-width="1" stroke-dasharray="1,5" opacity="1"/><line transform="translate(0,150)" x2="400" y2="0" stroke="#b4c8d8" stroke-opacity="0.5" stroke-width="1" stroke-dasharray="1,5" opacity="1"/><line transform="translate(0,100)" x2="400" y2="0" stroke="#b4c8d8" stroke-opacity="0.5" stroke-width="1" stroke-dasharray="1,5" opacity="1"/><line transform="translate(0,50)" x2="400" y2="0" stroke="#b4c8d8" stroke-opacity="0.5" stroke-width="1" stroke-dasharray="1,5" opacity="1"/><line transform="translate(0,0)" x2="400" y2="0" stroke="#b4c8d8" stroke-opacity="0.5" stroke-width="1" stroke-dasharray="1,5" opacity="1"/></g></g><path class="foreground" aria-hidden="true" d="" pointer-events="none" display="none"/></g></g><g class="mark-group role-axis" role="graphics-symbol" aria-roledescription="axis" aria-label="X-axis for a time scale with values from Tuesday, 01 November 2016, 12:00:00 AM to Monday, 01 January 2024, 12:00:00 AM"><g transform="translate(0.5,300.5)"><path class="background" aria-hidden="true" d="M0,0h0v0h0Z" pointer-events="none"/><g><g class="mark-rule role-axis-tick" pointer-events="none"><line transform="translate(9,0)" x2="0" y2="5" stroke="#b4c8d8" stroke-opacity="0.5" stroke-width="1" opacity="1"/><line transform="translate(65,0)" x2="0" y2="5" stroke="#b4c8d8" stroke-opacity="0.5" stroke-width="1" opacity="1"/><line transform="translate(121,0)" x2="0" y2="5" stroke="#b4c8d8" stroke-opacity="0.5" stroke-width="1" opacity="1"/><line transform="translate(177,0)" x2="0" y2="5" stroke="#b4c8d8" stroke-opacity="0.5" stroke-width="1" opacity="1"/><line transform="translate(233,0)" x2="0" y2="5" stroke="#b4c8d8" stroke-opacity="0.5" stroke-width="1" opacity="1"/><line transform="translate(288,0)" x2="0" y2="5" stroke="#b4c8d8" stroke-opacity="0.5" stroke-width="1" opacity="1"/><line transform="translate(344,0)" x2="0" y2="5" stroke="#b4c8d8" stroke-opacity="0.5" stroke-width="1" opacity="1"/><line transform="translate(400,0)" x2="0" y2="5" stroke="#b4c8d8" stroke-opacity="0.5" stroke-width="1" opacity="1"/></g><g class="mark-text role-axis-label" pointer-events="none"><text text-anchor="middle" transform="translate(9.323653037829576,15)" font-family="Circular Std Book" font-size="10px" fill="#b4c8d8" fill-opacity="0.7" opacity="1">2017</text><text text-anchor="middle" transform="translate(65.11272449369507,15)" font-family="Circular Std Book" font-size="10px" fill="#b4c8d8" fill-opacity="0.7" opacity="1">2018</text><text text-anchor="middle" transform="translate(120.90179594956057,15)" font-family="Circular Std Book" font-size="10px" fill="#b4c8d8" fill-opacity="0.7" opacity="1">2019</text><text text-anchor="middle" transform="translate(176.69086740542605,15)" font-family="Circular Std Book" font-size="10px" fill="#b4c8d8" fill-opacity="0.7" opacity="1">2020</text><text text-anchor="middle" transform="translate(232.63278563240354,15)" font-family="Circular Std Book" font-size="10px" fill="#b4c8d8" fill-opacity="0.7" opacity="1">2021</text><text text-anchor="middle" transform="translate(288.421857088269,15)" font-family="Circular Std Book" font-size="10px" fill="#b4c8d8" fill-opacity="0.7" opacity="1">2022</text><text text-anchor="middle" transform="translate(344.2109285441345,15)" font-family="Circular Std Book" font-size="10px" fill="#b4c8d8" fill-opacity="0.7" opacity="1">2023</text><text text-anchor="end" transform="translate(400,15)" font-family="Circular Std Book" font-size="10px" fill="#b4c8d8" fill-opacity="0.7" opacity="1">2024</text></g><g class="mark-rule role-axis-domain" pointer-events="none"><line transform="translate(0,0)" x2="400" y2="0" stroke="#b4c8d8" stroke-opacity="0.5" stroke-width="1" opacity="1"/></g></g><path class="foreground" aria-hidden="true" d="" pointer-events="none" display="none"/></g></g><g class="mark-group role-axis" role="graphics-symbol" aria-roledescription="axis" aria-label="Y-axis titled '$ billion' for a linear scale with values from 0 to 30"><g transform="translate(0.5,0.5)"><path class="background" aria-hidden="true" d="M0,0h0v0h0Z" pointer-events="none"/><g><g class="mark-text role-axis-label" pointer-events="none"><text text-anchor="end" transform="translate(-5,303)" font-family="Circular Std Book" font-size="10px" fill="#b4c8d8" fill-opacity="0.7" opacity="1">0</text><text text-anchor="end" transform="translate(-5,253)" font-family="Circular Std Book" font-size="10px" fill="#b4c8d8" fill-opacity="0.7" opacity="1">5</text><text text-anchor="end" transform="translate(-5,203.00000000000003)" font-family="Circular Std Book" font-size="10px" fill="#b4c8d8" fill-opacity="0.7" opacity="1">10</text><text text-anchor="end" transform="translate(-5,153)" font-family="Circular Std Book" font-size="10px" fill="#b4c8d8" fill-opacity="0.7" opacity="1">15</text><text text-anchor="end" transform="translate(-5,103.00000000000001)" font-family="Circular Std Book" font-size="10px" fill="#b4c8d8" fill-opacity="0.7" opacity="1">20</text><text text-anchor="end" transform="translate(-5,52.999999999999986)" font-family="Circular Std Book" font-size="10px" fill="#b4c8d8" fill-opacity="0.7" opacity="1">25</text><text text-anchor="end" transform="translate(-5,3)" font-family="Circular Std Book" font-size="10px" fill="#b4c8d8" fill-opacity="0.7" opacity="1">30</text></g><g class="mark-rule role-axis-domain" pointer-events="none"><line transform="translate(0,300)" x2="0" y2="-300" stroke="#b4c8d8" stroke-opacity="0.5" stroke-width="1" opacity="1"/></g><g class="mark-text role-axis-title" pointer-events="none"><text text-anchor="start" transform="translate(0,-10)" font-family="Circular Std Book" font-size="12px" font-weight="bold" fill="#b4c8d8" fill-opacity="0.8" opacity="1">$ billion</text></g></g><path class="foreground" aria-hidden="true" d="" pointer-events="none" display="none"/></g></g><g class="mark-line role-mark layer_0_marks" role="graphics-object" aria-roledescription="line mark container"><path aria-label="x: Nov 01, 2016; y: 0" role="graphics-symbol" aria-roledescription="line mark" d="M0,300L400,300" stroke="#b4c8d8" stroke-width="1" opacity="0.3"/></g><g class="mark-line role-mark layer_1_marks" clip-path="url(#clip35)" role="graphics-object" aria-roledescription="line mark container"><path aria-label="t: Nov 30, 2016; d2: 6.67019" role="graphics-symbol" aria-roledescription="line mark" d="M4.433,233.298L5.222,230.011C6.012,226.725,7.591,220.152,9.171,217.745C10.75,215.338,12.33,217.098,13.833,218.12C15.336,219.142,16.762,219.424,18.265,219.338C19.768,219.252,21.348,218.797,22.902,218.712C24.455,218.627,25.984,218.912,27.538,220.533C29.092,222.153,30.671,225.11,32.225,228.333C33.779,231.555,35.308,235.044,36.862,236.908C38.415,238.771,39.995,239.009,41.574,239.424C43.154,239.839,44.733,240.432,46.287,240.873C47.841,241.314,49.37,241.603,50.923,241.749C52.477,241.894,54.057,241.895,55.611,241.891C57.165,241.888,58.693,241.88,60.247,238.691C61.801,235.503,63.38,229.134,64.96,225.208C66.539,221.281,68.119,219.797,69.622,219.067C71.125,218.337,72.551,218.36,74.054,218.627C75.557,218.893,77.137,219.404,78.691,218.026C80.245,216.647,81.773,213.38,83.327,210.954C84.881,208.528,86.46,206.944,88.014,203.606C89.568,200.268,91.097,195.176,92.651,192.633C94.205,190.091,95.784,190.097,97.363,190.121C98.943,190.146,100.522,190.189,102.076,189.833C103.63,189.477,105.159,188.721,106.713,188.8C108.266,188.878,109.846,189.79,111.4,189.056C112.954,188.322,114.482,185.942,116.036,181.189C117.59,176.436,119.17,169.309,120.749,164.28C122.328,159.251,123.908,156.319,125.411,154.862C126.914,153.405,128.34,153.423,129.843,153.288C131.346,153.153,132.926,152.866,134.48,154.413C136.034,155.961,137.562,159.344,139.116,159.353C140.67,159.363,142.249,155.998,143.803,152.432C145.357,148.865,146.886,145.098,148.44,143.853C149.994,142.607,151.573,143.883,153.152,140.964C154.732,138.044,156.311,130.929,157.865,128.124C159.419,125.32,160.948,126.827,162.502,127.424C164.056,128.021,165.635,127.709,167.189,127.797C168.743,127.885,170.271,128.374,171.825,129.256C173.379,130.138,174.959,131.415,176.538,130.174C178.117,128.933,179.697,125.174,181.225,122.984C182.754,120.793,184.231,120.17,185.76,119.791C187.288,119.412,188.868,119.277,190.422,119.909C191.976,120.541,193.504,121.94,195.058,123.418C196.612,124.896,198.191,126.452,199.745,127.915C201.299,129.378,202.828,130.747,204.382,134.207C205.936,137.668,207.515,143.221,209.094,145.802C210.674,148.382,212.253,147.991,213.807,149.415C215.361,150.839,216.89,154.078,218.444,153.993C219.997,153.907,221.577,150.498,223.131,148.663C224.685,146.828,226.213,146.569,227.767,146.235C229.321,145.902,230.901,145.494,232.48,144.296C234.059,143.098,235.639,141.11,237.142,132.148C238.645,123.187,240.071,107.252,241.574,99.815C243.077,92.378,244.657,93.439,246.211,94.919C247.765,96.4,249.293,98.3,250.847,100.14C252.401,101.979,253.98,103.758,255.534,105.911C257.088,108.065,258.617,110.593,260.145,112.25C261.674,113.907,263.202,114.693,264.756,115.596C266.31,116.5,267.889,117.521,269.469,118.527C271.048,119.532,272.628,120.522,273.952,120.83C275.277,121.139,276.347,120.767,277.672,116.989C278.996,113.211,280.576,106.026,282.384,102.642C284.193,99.258,286.231,99.674,288.04,100.679C289.848,101.684,291.428,103.278,292.243,104.654C293.058,106.03,293.109,107.188,293.848,104.812C294.587,102.436,296.013,96.528,297.516,93.721C299.019,90.913,300.599,91.207,302.153,91.198C303.707,91.188,305.235,90.875,306.789,90.437C308.343,89.999,309.922,89.436,311.476,89.02C313.03,88.604,314.559,88.335,316.113,87.868C317.667,87.402,319.246,86.738,320.825,86.438C322.405,86.139,323.984,86.206,325.538,78.105C327.092,70.004,328.621,53.736,330.175,49.049C331.728,44.362,333.308,51.256,334.862,58.424C336.416,65.592,337.944,73.035,339.498,73.925C341.052,74.816,342.632,69.155,344.211,69.079C345.79,69.002,347.37,74.509,348.873,79.674C350.376,84.839,351.802,89.662,353.305,91.859C354.808,94.057,356.388,93.629,357.942,93.383C359.496,93.138,361.024,93.073,362.578,93.585C364.132,94.097,365.711,95.185,367.265,94.428C368.819,93.671,370.348,91.068,371.902,90.563C373.456,90.058,375.035,91.65,377.175,93.325C379.315,95,382.015,96.759,383.569,97.889C385.123,99.02,385.531,99.521,386.524,87.323C387.518,75.126,389.097,50.228,390.651,40.113C392.205,29.998,393.733,34.664,395.287,31.091C396.841,27.519,398.421,15.707,399.21,9.801L400,3.895" stroke="#00A767" stroke-width="3"/></g></g><path class="foreground" aria-hidden="true" d="" display="none"/></g></g></g><defs><clipPath id="clip35"><rect x="0" y="0" width="400" height="300"/></clipPath></defs></svg>