<svg xmlns="http://www.w3.org/2000/svg" xmlns:xlink="http://www.w3.org/1999/xlink" version="1.1" class="marks" width="561" height="347" viewBox="0 0 561 347"><rect width="561" height="347" fill="#122B39"/><g fill="none" stroke-miterlimit="10" transform="translate(35,25)"><g class="mark-group role-frame root" role="graphics-object" aria-roledescription="group mark container"><g transform="translate(0,0)"><path class="background" aria-hidden="true" d="M0,0h400v300h-400Z"/><g><g class="mark-group role-axis" aria-hidden="true"><g transform="translate(0.5,0.5)"><path class="background" aria-hidden="true" d="M0,0h0v0h0Z" pointer-events="none"/><g><g class="mark-rule role-axis-grid" pointer-events="none"><line transform="translate(0,300)" x2="400" y2="0" stroke="#b4c8d8" stroke-opacity="0.5" stroke-width="1" stroke-dasharray="1,5" opacity="1"/><line transform="translate(0,257)" x2="400" y2="0" stroke="#b4c8d8" stroke-opacity="0.5" stroke-width="1" stroke-dasharray="1,5" opacity="1"/><line transform="translate(0,214)" x2="400" y2="0" stroke="#b4c8d8" stroke-opacity="0.5" stroke-width="1" stroke-dasharray="1,5" opacity="1"/><line transform="translate(0,171)" x2="400" y2="0" stroke="#b4c8d8" stroke-opacity="0.5" stroke-width="1" stroke-dasharray="1,5" opacity="1"/><line transform="translate(0,129)" x2="400" y2="0" stroke="#b4c8d8" stroke-opacity="0.5" stroke-width="1" stroke-dasharray="1,5" opacity="1"/><line transform="translate(0,86)" x2="400" y2="0" stroke="#b4c8d8" stroke-opacity="0.5" stroke-width="1" stroke-dasharray="1,5" opacity="1"/><line transform="translate(0,43)" x2="400" y2="0" stroke="#b4c8d8" stroke-opacity="0.5" stroke-width="1" stroke-dasharray="1,5" opacity="1"/><line transform="translate(0,0)" x2="400" y2="0" stroke="#b4c8d8" stroke-opacity="0.5" stroke-width="1" stroke-dasharray="1,5" opacity="1"/></g></g><path class="foreground" aria-hidden="true" d="" pointer-events="none" display="none"/></g></g><g class="mark-group role-axis" role="graphics-symbol" aria-roledescription="axis" aria-label="X-axis for a time scale with values from Saturday, 01 July 2017, 12:00:00 AM to Friday, 01 December 2023, 12:00:00 AM"><g transform="translate(0.5,300.5)"><path class="background" aria-hidden="true" d="M0,0h0v0h0Z" pointer-events="none"/><g><g class="mark-rule role-axis-tick" pointer-events="none"><line transform="translate(31,0)" x2="0" y2="5" stroke="#b4c8d8" stroke-opacity="0.5" stroke-width="1" opacity="1"/><line transform="translate(94,0)" x2="0" y2="5" stroke="#b4c8d8" stroke-opacity="0.5" stroke-width="1" opacity="1"/><line transform="translate(156,0)" x2="0" y2="5" stroke="#b4c8d8" stroke-opacity="0.5" stroke-width="1" opacity="1"/><line transform="translate(218,0)" x2="0" y2="5" stroke="#b4c8d8" stroke-opacity="0.5" stroke-width="1" opacity="1"/><line transform="translate(281,0)" x2="0" y2="5" stroke="#b4c8d8" stroke-opacity="0.5" stroke-width="1" opacity="1"/><line transform="translate(343,0)" x2="0" y2="5" stroke="#b4c8d8" stroke-opacity="0.5" stroke-width="1" opacity="1"/></g><g class="mark-text role-axis-label" pointer-events="none"><text text-anchor="middle" transform="translate(31.399317406143346,15)" font-family="Circular Std Book" font-size="10px" fill="#b4c8d8" fill-opacity="0.7" opacity="1">2018</text><text text-anchor="middle" transform="translate(93.68600682593856,15)" font-family="Circular Std Book" font-size="10px" fill="#b4c8d8" fill-opacity="0.7" opacity="1">2019</text><text text-anchor="middle" transform="translate(155.97269624573377,15)" font-family="Circular Std Book" font-size="10px" fill="#b4c8d8" fill-opacity="0.7" opacity="1">2020</text><text text-anchor="middle" transform="translate(218.43003412969284,15)" font-family="Circular Std Book" font-size="10px" fill="#b4c8d8" fill-opacity="0.7" opacity="1">2021</text><text text-anchor="middle" transform="translate(280.71672354948805,15)" font-family="Circular Std Book" font-size="10px" fill="#b4c8d8" fill-opacity="0.7" opacity="1">2022</text><text text-anchor="middle" transform="translate(343.0034129692833,15)" font-family="Circular Std Book" font-size="10px" fill="#b4c8d8" fill-opacity="0.7" opacity="1">2023</text></g><g class="mark-rule role-axis-domain" pointer-events="none"><line transform="translate(0,0)" x2="400" y2="0" stroke="#b4c8d8" stroke-opacity="0.5" stroke-width="1" opacity="1"/></g></g><path class="foreground" aria-hidden="true" d="" pointer-events="none" display="none"/></g></g><g class="mark-group role-axis" role="graphics-symbol" aria-roledescription="axis" aria-label="Y-axis titled 'MW' for a linear scale with values from 0 to 35000"><g transform="translate(0.5,0.5)"><path class="background" aria-hidden="true" d="M0,0h0v0h0Z" pointer-events="none"/><g><g class="mark-text role-axis-label" pointer-events="none"><text text-anchor="end" transform="translate(-5,303)" font-family="Circular Std Book" font-size="10px" fill="#b4c8d8" fill-opacity="0.7" opacity="1">0</text><text text-anchor="end" transform="translate(-5,260.14285714285717)" font-family="Circular Std Book" font-size="10px" fill="#b4c8d8" fill-opacity="0.7" opacity="1">5000</text><text text-anchor="end" transform="translate(-5,217.28571428571428)" font-family="Circular Std Book" font-size="10px" fill="#b4c8d8" fill-opacity="0.7" opacity="1">10000</text><text text-anchor="end" transform="translate(-5,174.42857142857142)" font-family="Circular Std Book" font-size="10px" fill="#b4c8d8" fill-opacity="0.7" opacity="1">15000</text><text text-anchor="end" transform="translate(-5,131.57142857142858)" font-family="Circular Std Book" font-size="10px" fill="#b4c8d8" fill-opacity="0.7" opacity="1">20000</text><text text-anchor="end" transform="translate(-5,88.71428571428571)" font-family="Circular Std Book" font-size="10px" fill="#b4c8d8" fill-opacity="0.7" opacity="1">25000</text><text text-anchor="end" transform="translate(-5,45.85714285714287)" font-family="Circular Std Book" font-size="10px" fill="#b4c8d8" fill-opacity="0.7" opacity="1">30000</text><text text-anchor="end" transform="translate(-5,3)" font-family="Circular Std Book" font-size="10px" fill="#b4c8d8" fill-opacity="0.7" opacity="1">35000</text></g><g class="mark-rule role-axis-domain" pointer-events="none"><line transform="translate(0,300)" x2="0" y2="-300" stroke="#b4c8d8" stroke-opacity="0.5" stroke-width="1" opacity="1"/></g><g class="mark-text role-axis-title" pointer-events="none"><text text-anchor="start" transform="translate(0,-10)" font-family="Circular Std Book" font-size="12px" font-weight="bold" fill="#b4c8d8" fill-opacity="0.8" opacity="1">MW</text></g></g><path class="foreground" aria-hidden="true" d="" pointer-events="none" display="none"/></g></g><g class="mark-line role-mark layer_0_marks" role="graphics-object" aria-roledescription="line mark container"><path aria-label="x: Jul 01, 2017; y: 0" role="graphics-symbol" aria-roledescription="line mark" d="M0,300L400,300" stroke="#b4c8d8" stroke-width="1" opacity="0.3"/></g><g class="mark-line role-mark layer_1_marks" clip-path="url(#clip47)" role="graphics-object" aria-roledescription="line mark container"><path aria-label="Observation Date: Jun 30, 2017; Electricity Demand (SBP): 15914.2083333" role="graphics-symbol" aria-roledescription="line mark" d="M-0.171,163.592L0.711,162.332C1.593,161.071,3.356,158.55,5.119,156.795C6.883,155.04,8.646,154.051,10.381,155.25C12.116,156.449,13.823,159.838,15.557,165.093C17.292,170.348,19.056,177.471,20.791,185.643C22.526,193.815,24.232,203.037,25.967,207.506C27.702,211.974,29.465,211.688,31.229,210.985C32.992,210.282,34.755,209.161,36.433,209.155C38.111,209.149,39.704,210.258,41.382,208.801C43.06,207.344,44.824,203.321,46.559,196.269C48.294,189.216,50,179.134,51.735,172.687C53.47,166.239,55.233,163.425,56.968,159.627C58.703,155.829,60.41,151.047,62.144,147.873C63.879,144.7,65.643,143.134,67.406,141.841C69.17,140.549,70.933,139.528,72.668,141.029C74.403,142.529,76.109,146.55,77.844,155.082C79.579,163.615,81.342,176.659,83.077,186.592C84.812,196.526,86.519,203.348,88.254,206.907C89.989,210.465,91.752,210.759,93.515,210.823C95.279,210.888,97.042,210.723,98.72,211.332C100.398,211.941,101.991,213.325,103.669,213.406C105.347,213.487,107.11,212.266,108.845,207.201C110.58,202.136,112.287,193.226,114.022,183.852C115.757,174.477,117.52,164.637,119.255,157.812C120.99,150.987,122.696,147.177,124.431,144.051C126.166,140.926,127.929,138.486,129.693,137.611C131.456,136.736,133.22,137.426,134.954,137.726C136.689,138.026,138.396,137.935,140.131,146.537C141.866,155.138,143.629,172.43,145.364,184.707C147.099,196.983,148.805,204.243,150.54,208.112C152.275,211.982,154.039,212.461,155.802,212.247C157.565,212.033,159.329,211.126,161.035,210.753C162.742,210.38,164.391,210.541,166.098,212.234C167.804,213.928,169.568,217.154,171.303,215.386C173.038,213.619,174.744,206.857,176.479,197.053C178.214,187.249,179.977,174.402,181.712,164.688C183.447,154.973,185.154,148.391,186.889,143.218C188.623,138.046,190.387,134.282,192.15,132.556C193.914,130.83,195.677,131.143,197.412,133.391C199.147,135.639,200.853,139.824,202.588,148.245C204.323,156.666,206.086,169.324,207.821,180.482C209.556,191.641,211.263,201.3,212.998,205.841C214.733,210.383,216.496,209.806,218.259,209.134C220.023,208.461,221.786,207.694,223.464,207.344C225.142,206.994,226.735,207.062,228.413,205.322C230.091,203.583,231.854,200.036,233.589,194.718C235.324,189.401,237.031,182.314,238.766,174.586C240.501,166.858,242.264,158.489,243.999,150.791C245.734,143.092,247.44,136.063,249.175,130.936C250.91,125.809,252.673,122.584,254.437,120.206C256.2,117.828,257.964,116.299,259.699,118.574C261.433,120.85,263.14,126.931,264.875,136.113C266.61,145.294,268.373,157.577,270.108,168.579C271.843,179.582,273.549,189.304,275.284,194.069C277.019,198.833,278.783,198.638,280.546,198.576C282.309,198.514,284.073,198.583,285.751,198.315C287.429,198.048,289.022,197.443,290.7,194.329C292.378,191.216,294.141,185.594,295.876,177.073C297.611,168.551,299.317,157.13,301.052,148.992C302.787,140.854,304.551,135.998,306.286,134.181C308.02,132.364,309.727,133.586,311.462,134.558C313.197,135.529,314.96,136.25,316.724,136.799C318.487,137.349,320.25,137.726,321.985,139.346C323.72,140.967,325.427,143.83,327.162,150.258C328.896,156.686,330.66,166.679,332.395,175.627C334.13,184.575,335.836,192.478,337.571,196.871C339.306,201.265,341.069,202.149,342.833,202.403C344.596,202.656,346.359,202.28,348.038,201.954C349.716,201.628,351.308,201.353,352.986,200.918C354.664,200.483,356.428,199.888,358.163,196.514C359.898,193.139,361.604,186.984,363.339,180.183C365.074,173.381,366.837,165.932,368.572,158.581C370.307,151.231,372.014,143.978,373.749,139.072C375.484,134.166,377.247,131.607,379.01,128.175C380.774,124.744,382.537,120.441,384.272,122.466C386.007,124.492,387.713,132.846,389.448,145.113C391.183,157.381,392.947,173.562,394.681,185.055C396.416,196.548,398.123,203.353,399.858,205.568C401.593,207.783,403.356,205.407,404.238,204.22L405.119,203.032" stroke="#F4134D" stroke-width="3"/></g><g class="mark-line role-mark layer_2_marks" clip-path="url(#clip48)" role="graphics-object" aria-roledescription="line mark container"><path aria-label="Observation Date: Jun 30, 2017; Generation Capacity: 19020" role="graphics-symbol" aria-roledescription="line mark" d="M-0.171,136.971L0.711,136.406C1.593,135.841,3.356,134.711,5.119,133.581C6.883,132.451,8.646,131.321,10.381,130.191C12.116,129.061,13.823,127.931,15.557,126.801C17.292,125.671,19.056,124.541,20.791,123.411C22.526,122.281,24.232,121.151,25.967,120.021C27.702,118.891,29.465,117.761,31.229,116.631C32.992,115.501,34.755,114.371,36.433,113.241C38.111,112.111,39.704,110.981,41.382,109.851C43.06,108.721,44.824,107.591,46.559,106.461C48.294,105.331,50,104.201,51.735,103.071C53.47,101.941,55.233,100.811,56.968,99.681C58.703,98.551,60.41,97.421,62.144,96.595C63.879,95.768,65.643,95.244,67.406,94.721C69.17,94.197,70.933,93.674,72.668,93.15C74.403,92.626,76.109,92.103,77.844,91.579C79.579,91.056,81.342,90.532,83.077,90.009C84.812,89.485,86.519,88.961,88.254,88.438C89.989,87.914,91.752,87.391,93.515,86.867C95.279,86.344,97.042,85.82,98.72,85.296C100.398,84.773,101.991,84.249,103.669,83.726C105.347,83.202,107.11,82.679,108.845,82.155C110.58,81.631,112.287,81.108,114.022,80.584C115.757,80.061,117.52,79.537,119.255,79.014C120.99,78.49,122.696,77.966,124.431,77.536C126.166,77.106,127.929,76.769,129.693,76.432C131.456,76.095,133.22,75.758,134.954,75.421C136.689,75.085,138.396,74.748,140.131,74.411C141.866,74.074,143.629,73.737,145.364,73.4C147.099,73.063,148.805,72.726,150.54,72.389C152.275,72.052,154.039,71.715,155.802,71.379C157.565,71.042,159.329,70.705,161.035,70.368C162.742,70.031,164.391,69.694,166.098,69.357C167.804,69.02,169.568,68.683,171.303,68.346C173.038,68.01,174.744,67.673,176.479,67.336C178.214,66.999,179.977,66.662,181.712,66.325C183.447,65.988,185.154,65.651,186.889,65.43C188.623,65.21,190.387,65.105,192.15,65.001C193.914,64.896,195.677,64.792,197.412,64.687C199.147,64.583,200.853,64.478,202.588,64.374C204.323,64.269,206.086,64.165,207.821,64.06C209.556,63.955,211.263,63.851,212.998,63.746C214.733,63.642,216.496,63.537,218.259,63.433C220.023,63.328,221.786,63.224,223.464,63.119C225.142,63.015,226.735,62.91,228.413,62.806C230.091,62.701,231.854,62.597,233.589,62.492C235.324,62.388,237.031,62.283,238.766,62.179C240.501,62.074,242.264,61.97,243.999,61.865C245.734,61.76,247.44,61.656,249.175,61.523C250.91,61.389,252.673,61.227,254.437,61.065C256.2,60.903,257.964,60.741,259.699,60.579C261.433,60.416,263.14,60.254,264.875,60.092C266.61,59.93,268.373,59.768,270.108,59.606C271.843,59.444,273.549,59.281,275.284,59.119C277.019,58.957,278.783,58.795,280.546,58.633C282.309,58.471,284.073,58.309,285.751,58.146C287.429,57.984,289.022,57.822,290.7,57.66C292.378,57.498,294.141,57.336,295.876,57.174C297.611,57.011,299.317,56.849,301.052,56.687C302.787,56.525,304.551,56.363,306.286,56.201C308.02,56.039,309.727,55.876,311.462,55.548C313.197,55.22,314.96,54.727,316.724,54.233C318.487,53.739,320.25,53.245,321.985,52.751C323.72,52.258,325.427,51.764,327.162,51.27C328.896,50.776,330.66,50.282,332.395,49.789C334.13,49.295,335.836,48.801,337.571,48.307C339.306,47.813,341.069,47.32,342.833,46.826C344.596,46.332,346.359,45.838,348.038,45.344C349.716,44.85,351.308,44.357,352.986,43.863C354.664,43.369,356.428,42.875,358.163,42.381C359.898,41.888,361.604,41.394,363.339,40.9C365.074,40.406,366.837,39.912,368.572,39.419C370.307,38.925,372.014,38.431,373.749,37.725C375.484,37.02,377.247,36.103,379.01,35.186C380.774,34.269,382.537,33.351,384.272,32.434C386.007,31.517,387.713,30.6,389.448,29.683C391.183,28.766,392.947,27.849,394.681,26.931C396.416,26.014,398.123,25.097,399.858,24.18C401.593,23.263,403.356,22.346,404.238,21.887L405.119,21.429" stroke="#00A767" stroke-width="3"/></g><g class="mark-area role-mark layer_3_marks" clip-path="url(#clip49)" role="graphics-object" aria-roledescription="area mark container"><path aria-label="Observation Date: Jun 30, 2017; Electricity Demand (SBP): 15914.2083333; Generation Capacity: 19020" role="graphics-symbol" aria-roledescription="area mark" d="M-0.171,163.592L0.711,162.332C1.593,161.071,3.356,158.55,5.119,156.795C6.883,155.04,8.646,154.051,10.381,155.25C12.116,156.449,13.823,159.838,15.557,165.093C17.292,170.348,19.056,177.471,20.791,185.643C22.526,193.815,24.232,203.037,25.967,207.506C27.702,211.974,29.465,211.688,31.229,210.985C32.992,210.282,34.755,209.161,36.433,209.155C38.111,209.149,39.704,210.258,41.382,208.801C43.06,207.344,44.824,203.321,46.559,196.269C48.294,189.216,50,179.134,51.735,172.687C53.47,166.239,55.233,163.425,56.968,159.627C58.703,155.829,60.41,151.047,62.144,147.873C63.879,144.7,65.643,143.134,67.406,141.841C69.17,140.549,70.933,139.528,72.668,141.029C74.403,142.529,76.109,146.55,77.844,155.082C79.579,163.615,81.342,176.659,83.077,186.592C84.812,196.526,86.519,203.348,88.254,206.907C89.989,210.465,91.752,210.759,93.515,210.823C95.279,210.888,97.042,210.723,98.72,211.332C100.398,211.941,101.991,213.325,103.669,213.406C105.347,213.487,107.11,212.266,108.845,207.201C110.58,202.136,112.287,193.226,114.022,183.852C115.757,174.477,117.52,164.637,119.255,157.812C120.99,150.987,122.696,147.177,124.431,144.051C126.166,140.926,127.929,138.486,129.693,137.611C131.456,136.736,133.22,137.426,134.954,137.726C136.689,138.026,138.396,137.935,140.131,146.537C141.866,155.138,143.629,172.43,145.364,184.707C147.099,196.983,148.805,204.243,150.54,208.112C152.275,211.982,154.039,212.461,155.802,212.247C157.565,212.033,159.329,211.126,161.035,210.753C162.742,210.38,164.391,210.541,166.098,212.234C167.804,213.928,169.568,217.154,171.303,215.386C173.038,213.619,174.744,206.857,176.479,197.053C178.214,187.249,179.977,174.402,181.712,164.688C183.447,154.973,185.154,148.391,186.889,143.218C188.623,138.046,190.387,134.282,192.15,132.556C193.914,130.83,195.677,131.143,197.412,133.391C199.147,135.639,200.853,139.824,202.588,148.245C204.323,156.666,206.086,169.324,207.821,180.482C209.556,191.641,211.263,201.3,212.998,205.841C214.733,210.383,216.496,209.806,218.259,209.134C220.023,208.461,221.786,207.694,223.464,207.344C225.142,206.994,226.735,207.062,228.413,205.322C230.091,203.583,231.854,200.036,233.589,194.718C235.324,189.401,237.031,182.314,238.766,174.586C240.501,166.858,242.264,158.489,243.999,150.791C245.734,143.092,247.44,136.063,249.175,130.936C250.91,125.809,252.673,122.584,254.437,120.206C256.2,117.828,257.964,116.299,259.699,118.574C261.433,120.85,263.14,126.931,264.875,136.113C266.61,145.294,268.373,157.577,270.108,168.579C271.843,179.582,273.549,189.304,275.284,194.069C277.019,198.833,278.783,198.638,280.546,198.576C282.309,198.514,284.073,198.583,285.751,198.315C287.429,198.048,289.022,197.443,290.7,194.329C292.378,191.216,294.141,185.594,295.876,177.073C297.611,168.551,299.317,157.13,301.052,148.992C302.787,140.854,304.551,135.998,306.286,134.181C308.02,132.364,309.727,133.586,311.462,134.558C313.197,135.529,314.96,136.25,316.724,136.799C318.487,137.349,320.25,137.726,321.985,139.346C323.72,140.967,325.427,143.83,327.162,150.258C328.896,156.686,330.66,166.679,332.395,175.627C334.13,184.575,335.836,192.478,337.571,196.871C339.306,201.265,341.069,202.149,342.833,202.403C344.596,202.656,346.359,202.28,348.038,201.954C349.716,201.628,351.308,201.353,352.986,200.918C354.664,200.483,356.428,199.888,358.163,196.514C359.898,193.139,361.604,186.984,363.339,180.183C365.074,173.381,366.837,165.932,368.572,158.581C370.307,151.231,372.014,143.978,373.749,139.072C375.484,134.166,377.247,131.607,379.01,128.175C380.774,124.744,382.537,120.441,384.272,122.466C386.007,124.492,387.713,132.846,389.448,145.113C391.183,157.381,392.947,173.562,394.681,185.055C396.416,196.548,398.123,203.353,399.858,205.568C401.593,207.783,403.356,205.407,404.238,204.22L405.119,203.032L405.119,21.429L404.238,21.887C403.356,22.346,401.593,23.263,399.858,24.18C398.123,25.097,396.416,26.014,394.681,26.931C392.947,27.849,391.183,28.766,389.448,29.683C387.713,30.6,386.007,31.517,384.272,32.434C382.537,33.351,380.774,34.269,379.01,35.186C377.247,36.103,375.484,37.02,373.749,37.725C372.014,38.431,370.307,38.925,368.572,39.419C366.837,39.912,365.074,40.406,363.339,40.9C361.604,41.394,359.898,41.888,358.163,42.381C356.428,42.875,354.664,43.369,352.986,43.863C351.308,44.357,349.716,44.85,348.038,45.344C346.359,45.838,344.596,46.332,342.833,46.826C341.069,47.32,339.306,47.813,337.571,48.307C335.836,48.801,334.13,49.295,332.395,49.789C330.66,50.282,328.896,50.776,327.162,51.27C325.427,51.764,323.72,52.258,321.985,52.751C320.25,53.245,318.487,53.739,316.724,54.233C314.96,54.727,313.197,55.22,311.462,55.548C309.727,55.876,308.02,56.039,306.286,56.201C304.551,56.363,302.787,56.525,301.052,56.687C299.317,56.849,297.611,57.011,295.876,57.174C294.141,57.336,292.378,57.498,290.7,57.66C289.022,57.822,287.429,57.984,285.751,58.146C284.073,58.309,282.309,58.471,280.546,58.633C278.783,58.795,277.019,58.957,275.284,59.119C273.549,59.281,271.843,59.444,270.108,59.606C268.373,59.768,266.61,59.93,264.875,60.092C263.14,60.254,261.433,60.416,259.699,60.579C257.964,60.741,256.2,60.903,254.437,61.065C252.673,61.227,250.91,61.389,249.175,61.523C247.44,61.656,245.734,61.76,243.999,61.865C242.264,61.97,240.501,62.074,238.766,62.179C237.031,62.283,235.324,62.388,233.589,62.492C231.854,62.597,230.091,62.701,228.413,62.806C226.735,62.91,225.142,63.015,223.464,63.119C221.786,63.224,220.023,63.328,218.259,63.433C216.496,63.537,214.733,63.642,212.998,63.746C211.263,63.851,209.556,63.955,207.821,64.06C206.086,64.165,204.323,64.269,202.588,64.374C200.853,64.478,199.147,64.583,197.412,64.687C195.677,64.792,193.914,64.896,192.15,65.001C190.387,65.105,188.623,65.21,186.889,65.43C185.154,65.651,183.447,65.988,181.712,66.325C179.977,66.662,178.214,66.999,176.479,67.336C174.744,67.673,173.038,68.01,171.303,68.346C169.568,68.683,167.804,69.02,166.098,69.357C164.391,69.694,162.742,70.031,161.035,70.368C159.329,70.705,157.565,71.042,155.802,71.379C154.039,71.715,152.275,72.052,150.54,72.389C148.805,72.726,147.099,73.063,145.364,73.4C143.629,73.737,141.866,74.074,140.131,74.411C138.396,74.748,136.689,75.085,134.954,75.421C133.22,75.758,131.456,76.095,129.693,76.432C127.929,76.769,126.166,77.106,124.431,77.536C122.696,77.966,120.99,78.49,119.255,79.014C117.52,79.537,115.757,80.061,114.022,80.584C112.287,81.108,110.58,81.631,108.845,82.155C107.11,82.679,105.347,83.202,103.669,83.726C101.991,84.249,100.398,84.773,98.72,85.296C97.042,85.82,95.279,86.344,93.515,86.867C91.752,87.391,89.989,87.914,88.254,88.438C86.519,88.961,84.812,89.485,83.077,90.009C81.342,90.532,79.579,91.056,77.844,91.579C76.109,92.103,74.403,92.626,72.668,93.15C70.933,93.674,69.17,94.197,67.406,94.721C65.643,95.244,63.879,95.768,62.144,96.595C60.41,97.421,58.703,98.551,56.968,99.681C55.233,100.811,53.47,101.941,51.735,103.071C50,104.201,48.294,105.331,46.559,106.461C44.824,107.591,43.06,108.721,41.382,109.851C39.704,110.981,38.111,112.111,36.433,113.241C34.755,114.371,32.992,115.501,31.229,116.631C29.465,117.761,27.702,118.891,25.967,120.021C24.232,121.151,22.526,122.281,20.791,123.411C19.056,124.541,17.292,125.671,15.557,126.801C13.823,127.931,12.116,129.061,10.381,130.191C8.646,131.321,6.883,132.451,5.119,133.581C3.356,134.711,1.593,135.841,0.711,136.406L-0.171,136.971Z" fill="url(#gradient_10)" opacity="0.5"/></g><g class="mark-text role-mark layer_4_marks" role="graphics-object" aria-roledescription="text mark container"><text aria-label="Observation Date: Dec 31, 2023; Electricity Demand (SBP): 11312.9126344" role="graphics-symbol" aria-roledescription="text mark" text-anchor="start" transform="translate(405.11945392491464,206.03217741935484)" font-family="Circular Std Book" font-size="11px" fill="#F4134D">Electricity Demand (SBP)</text></g><g class="mark-text role-mark layer_5_marks" role="graphics-object" aria-roledescription="text mark container"><text aria-label="Observation Date: Dec 31, 2023; Generation Capacity: 32500" role="graphics-symbol" aria-roledescription="text mark" text-anchor="start" transform="translate(405.11945392491464,24.42857142857142)" font-family="Circular Std Book" font-size="11px" fill="#00A767">Max Generation Capacity</text></g><g class="mark-text role-mark layer_6_marks" role="graphics-object" aria-roledescription="text mark container"><text aria-label="Observation Date: Dec 31, 2023; Generation Capacity: 32500" role="graphics-symbol" aria-roledescription="text mark" text-anchor="start" transform="translate(405.11945392491464,94.42857142857142)" font-family="Circular Std Book" font-size="11px" fill="#00A767">Surplus</text></g></g><path class="foreground" aria-hidden="true" d="" display="none"/></g></g></g><defs><linearGradient id="gradient_10" x1="1" x2="1" y1="0.9" y2="0"><stop offset="0" stop-color="white"/><stop offset="1" stop-color="#00A767"/></linearGradient><clipPath id="clip47"><rect x="0" y="0" width="400" height="300"/></clipPath><clipPath id="clip48"><rect x="0" y="0" width="400" height="300"/></clipPath><clipPath id="clip49"><rect x="0" y="0" width="400" height="300"/></clipPath></defs></svg>