<svg xmlns="http://www.w3.org/2000/svg" xmlns:xlink="http://www.w3.org/1999/xlink" version="1.1" class="marks" width="434" height="347" viewBox="0 0 434 347"><rect width="434" height="347" fill="white"/><g fill="none" stroke-miterlimit="10" transform="translate(23,25)"><g class="mark-group role-frame root" role="graphics-object" aria-roledescription="group mark container"><g transform="translate(0,0)"><path class="background" aria-hidden="true" d="M0,0h400v300h-400Z"/><g><g class="mark-group role-axis" aria-hidden="true"><g transform="translate(0.5,0.5)"><path class="background" aria-hidden="true" d="M0,0h0v0h0Z" pointer-events="none"/><g><g class="mark-rule role-axis-grid" pointer-events="none"><line transform="translate(0,277)" x2="400" y2="0" stroke="#676A86" stroke-opacity="0.5" stroke-width="1" stroke-dasharray="1,5" opacity="1"/><line transform="translate(0,231)" x2="400" y2="0" stroke="#676A86" stroke-opacity="0.5" stroke-width="1" stroke-dasharray="1,5" opacity="1"/><line transform="translate(0,185)" x2="400" y2="0" stroke="#676A86" stroke-opacity="0.5" stroke-width="1" stroke-dasharray="1,5" opacity="1"/><line transform="translate(0,138)" x2="400" y2="0" stroke="#676A86" stroke-opacity="0.5" stroke-width="1" stroke-dasharray="1,5" opacity="1"/><line transform="translate(0,92)" x2="400" y2="0" stroke="#676A86" stroke-opacity="0.5" stroke-width="1" stroke-dasharray="1,5" opacity="1"/><line transform="translate(0,46)" x2="400" y2="0" stroke="#676A86" stroke-opacity="0.5" stroke-width="1" stroke-dasharray="1,5" opacity="1"/><line transform="translate(0,0)" x2="400" y2="0" stroke="#676A86" stroke-opacity="0.5" stroke-width="1" stroke-dasharray="1,5" opacity="1"/></g></g><path class="foreground" aria-hidden="true" d="" pointer-events="none" display="none"/></g></g><g class="mark-group role-axis" role="graphics-symbol" aria-roledescription="axis" aria-label="X-axis titled 'log ( Labour productivity )' for a linear scale with values from 1 to 6"><g transform="translate(0.5,300.5)"><path class="background" aria-hidden="true" d="M0,0h0v0h0Z" pointer-events="none"/><g><g class="mark-rule role-axis-tick" pointer-events="none"><line transform="translate(0,0)" x2="0" y2="5" stroke="#676A86" stroke-opacity="0.5" stroke-width="1" opacity="1"/><line transform="translate(89,0)" x2="0" y2="5" stroke="#676A86" stroke-opacity="0.5" stroke-width="1" opacity="1"/><line transform="translate(178,0)" x2="0" y2="5" stroke="#676A86" stroke-opacity="0.5" stroke-width="1" opacity="1"/><line transform="translate(267,0)" x2="0" y2="5" stroke="#676A86" stroke-opacity="0.5" stroke-width="1" opacity="1"/><line transform="translate(356,0)" x2="0" y2="5" stroke="#676A86" stroke-opacity="0.5" stroke-width="1" opacity="1"/></g><g class="mark-text role-axis-label" pointer-events="none"><text text-anchor="start" transform="translate(0,15)" font-family="Circular Std Book" font-size="10px" fill="#676A86" fill-opacity="0.7" opacity="1">1</text><text text-anchor="middle" transform="translate(88.88888888888889,15)" font-family="Circular Std Book" font-size="10px" fill="#676A86" fill-opacity="0.7" opacity="1">2</text><text text-anchor="middle" transform="translate(177.77777777777777,15)" font-family="Circular Std Book" font-size="10px" fill="#676A86" fill-opacity="0.7" opacity="1">3</text><text text-anchor="middle" transform="translate(266.66666666666663,15)" font-family="Circular Std Book" font-size="10px" fill="#676A86" fill-opacity="0.7" opacity="1">4</text><text text-anchor="middle" transform="translate(355.55555555555554,15)" font-family="Circular Std Book" font-size="10px" fill="#676A86" fill-opacity="0.7" opacity="1">5</text></g><g class="mark-rule role-axis-domain" pointer-events="none"><line transform="translate(0,0)" x2="400" y2="0" stroke="#676A86" stroke-opacity="0.5" stroke-width="1" opacity="1"/></g><g class="mark-text role-axis-title" pointer-events="none"><text text-anchor="middle" transform="translate(337,-6)" font-family="Circular Std Book" font-size="12px" font-weight="bold" fill="#676A86" fill-opacity="0.8" opacity="1">log ( Labour productivity )</text></g></g><path class="foreground" aria-hidden="true" d="" pointer-events="none" display="none"/></g></g><g class="mark-group role-axis" role="graphics-symbol" aria-roledescription="axis" aria-label="Y-axis titled 'Productivity gap' for a linear scale with values from −0.1 to 1.2"><g transform="translate(0.5,0.5)"><path class="background" aria-hidden="true" d="M0,0h0v0h0Z" pointer-events="none"/><g><g class="mark-text role-axis-label" pointer-events="none"><text text-anchor="end" transform="translate(-5,279.92307692307696)" font-family="Circular Std Book" font-size="10px" fill="#676A86" fill-opacity="0.7" opacity="1">0.0</text><text text-anchor="end" transform="translate(-5,233.76923076923075)" font-family="Circular Std Book" font-size="10px" fill="#676A86" fill-opacity="0.7" opacity="1">0.2</text><text text-anchor="end" transform="translate(-5,187.6153846153846)" font-family="Circular Std Book" font-size="10px" fill="#676A86" fill-opacity="0.7" opacity="1">0.4</text><text text-anchor="end" transform="translate(-5,141.46153846153848)" font-family="Circular Std Book" font-size="10px" fill="#676A86" fill-opacity="0.7" opacity="1">0.6</text><text text-anchor="end" transform="translate(-5,95.3076923076923)" font-family="Circular Std Book" font-size="10px" fill="#676A86" fill-opacity="0.7" opacity="1">0.8</text><text text-anchor="end" transform="translate(-5,49.15384615384615)" font-family="Circular Std Book" font-size="10px" fill="#676A86" fill-opacity="0.7" opacity="1">1.0</text><text text-anchor="end" transform="translate(-5,3)" font-family="Circular Std Book" font-size="10px" fill="#676A86" fill-opacity="0.7" opacity="1">1.2</text></g><g class="mark-rule role-axis-domain" pointer-events="none"><line transform="translate(0,300)" x2="0" y2="-300" stroke="#676A86" stroke-opacity="0.5" stroke-width="1" opacity="1"/></g><g class="mark-text role-axis-title" pointer-events="none"><text text-anchor="start" transform="translate(0,-10)" font-family="Circular Std Book" font-size="12px" font-weight="bold" fill="#676A86" fill-opacity="0.8" opacity="1">Productivity gap</text></g></g><path class="foreground" aria-hidden="true" d="" pointer-events="none" display="none"/></g></g><g class="mark-line role-mark layer_0_marks" role="graphics-object" aria-roledescription="line mark container"><path aria-label="x: 1; y: 0.0" role="graphics-symbol" aria-roledescription="line mark" d="M0,276.923L400,276.923" stroke="#676A86" stroke-width="1" opacity="0.3"/></g><g class="mark-line role-mark layer_1_marks" role="graphics-object" aria-roledescription="line mark container"><path aria-label="x: 1.263025916; y: 0.160711658623" role="graphics-symbol" aria-roledescription="line mark" d="M23.38,239.836L26.867,240.244L30.354,240.622L33.841,240.969L37.327,241.285L40.814,241.57L44.301,241.825L47.788,242.049L51.275,242.242L54.761,242.404L58.248,242.536L61.735,242.637L65.222,242.707L68.709,242.747L72.196,242.755L75.682,242.733L79.169,242.68L82.656,242.597L86.143,242.482L89.63,242.337L93.116,242.162L96.603,241.955L100.09,241.718L103.577,241.45L107.064,241.151L110.551,240.821L114.037,240.461L117.524,240.07L121.011,239.648L124.498,239.195L127.985,238.712L131.471,238.198L134.958,237.653L138.445,237.078L141.932,236.471L145.419,235.834L148.906,235.166L152.392,234.468L155.879,233.739L159.366,232.978L162.853,232.188L166.34,231.366L169.826,230.514L176.8,228.717L183.774,226.797L190.747,224.754L197.721,222.588L204.695,220.3L211.668,217.888L218.642,215.353L225.616,212.695L232.589,209.914L239.563,207.01L246.536,203.984L253.51,200.834L260.484,197.561L274.431,190.646L288.378,183.24L302.326,175.341L316.273,166.951L330.22,158.068L344.167,148.694L358.115,138.827L372.062,128.469" stroke="#676A86" stroke-width="2" opacity="0.3"/></g><g class="mark-symbol role-mark layer_2_marks" role="graphics-object" aria-roledescription="symbol mark container"><path aria-label="x1: 1.263025916; y1: 0.153291049" role="graphics-symbol" aria-roledescription="point" transform="translate(23.380081422222215,241.54821946153848)" d="M2.739,0A2.739,2.739,0,1,1,-2.739,0A2.739,2.739,0,1,1,2.739,0" fill="#179FDB" stroke="#179FDB" stroke-width="2" opacity="0.7"/><path aria-label="x1: 1.38474488; y1: 0.153985167" role="graphics-symbol" aria-roledescription="point" transform="translate(34.19954488888888,241.3880383846154)" d="M2.739,0A2.739,2.739,0,1,1,-2.739,0A2.739,2.739,0,1,1,2.739,0" fill="#179FDB" stroke="#179FDB" stroke-width="2" opacity="0.7"/><path aria-label="x1: 1.539659925; y1: 0.138714573" role="graphics-symbol" aria-roledescription="point" transform="translate(47.969771111111115,244.91202161538465)" d="M2.739,0A2.739,2.739,0,1,1,-2.739,0A2.739,2.739,0,1,1,2.739,0" fill="#179FDB" stroke="#179FDB" stroke-width="2" opacity="0.7"/><path aria-label="x1: 1.639248169; y1: 0.249079319" role="graphics-symbol" aria-roledescription="point" transform="translate(56.82205946666667,219.4432340769231)" d="M2.739,0A2.739,2.739,0,1,1,-2.739,0A2.739,2.739,0,1,1,2.739,0" fill="#179FDB" stroke="#179FDB" stroke-width="2" opacity="0.7"/><path aria-label="x1: 1.689042291; y1: 0.123536528" role="graphics-symbol" aria-roledescription="point" transform="translate(61.248203644444445,248.4146473846154)" d="M2.739,0A2.739,2.739,0,1,1,-2.739,0A2.739,2.739,0,1,1,2.739,0" fill="#179FDB" stroke="#179FDB" stroke-width="2" opacity="0.7"/><path aria-label="x1: 1.733303732; y1: 0.102898089" role="graphics-symbol" aria-roledescription="point" transform="translate(65.18255395555556,253.17736407692308)" d="M2.739,0A2.739,2.739,0,1,1,-2.739,0A2.739,2.739,0,1,1,2.739,0" fill="#179FDB" stroke="#179FDB" stroke-width="2" opacity="0.7"/><path aria-label="x1: 1.97674166; y1: 0.092162399" role="graphics-symbol" aria-roledescription="point" transform="translate(86.82148088888889,255.654831)" d="M2.739,0A2.739,2.739,0,1,1,-2.739,0A2.739,2.739,0,1,1,2.739,0" fill="#179FDB" stroke="#179FDB" stroke-width="2" opacity="0.7"/><path aria-label="x1: 2.026535782; y1: 0.2289499" role="graphics-symbol" aria-roledescription="point" transform="translate(91.24762506666664,224.0884846153846)" d="M2.739,0A2.739,2.739,0,1,1,-2.739,0A2.739,2.739,0,1,1,2.739,0" fill="#179FDB" stroke="#179FDB" stroke-width="2" opacity="0.7"/><path aria-label="x1: 2.209114228; y1: 0.153522421" role="graphics-symbol" aria-roledescription="point" transform="translate(107.47682026666665,241.49482592307695)" d="M2.739,0A2.739,2.739,0,1,1,-2.739,0A2.739,2.739,0,1,1,2.739,0" fill="#179FDB" stroke="#179FDB" stroke-width="2" opacity="0.7"/><path aria-label="x1: 2.297637111; y1: 0.017382764" role="graphics-symbol" aria-roledescription="point" transform="translate(115.34552097777775,272.9116698461538)" d="M2.739,0A2.739,2.739,0,1,1,-2.739,0A2.739,2.739,0,1,1,2.739,0" fill="#179FDB" stroke="#179FDB" stroke-width="2" opacity="0.7"/><path aria-label="x1: 2.325300512; y1: 0.208126363" role="graphics-symbol" aria-roledescription="point" transform="translate(117.80448995555557,228.89391623076924)" d="M2.739,0A2.739,2.739,0,1,1,-2.739,0A2.739,2.739,0,1,1,2.739,0" fill="#179FDB" stroke="#179FDB" stroke-width="2" opacity="0.7"/><path aria-label="x1: 2.386159994; y1: 0.053476895" role="graphics-symbol" aria-roledescription="point" transform="translate(123.21422168888887,264.582255)" d="M2.739,0A2.739,2.739,0,1,1,-2.739,0A2.739,2.739,0,1,1,2.739,0" fill="#179FDB" stroke="#179FDB" stroke-width="2" opacity="0.7"/><path aria-label="x1: 2.430421436; y1: 0.202018125" role="graphics-symbol" aria-roledescription="point" transform="translate(127.1485720888889,230.3035096153846)" d="M2.739,0A2.739,2.739,0,1,1,-2.739,0A2.739,2.739,0,1,1,2.739,0" fill="#179FDB" stroke="#179FDB" stroke-width="2" opacity="0.7"/><path aria-label="x1: 2.524476999; y1: 0.622167689" role="graphics-symbol" aria-roledescription="point" transform="translate(135.50906657777776,133.34591792307694)" d="M2.739,0A2.739,2.739,0,1,1,-2.739,0A2.739,2.739,0,1,1,2.739,0" fill="#179FDB" stroke="#179FDB" stroke-width="2" opacity="0.7"/><path aria-label="x1: 2.56320576; y1: 0.04709101" role="graphics-symbol" aria-roledescription="point" transform="translate(138.95162311111113,266.0559207692308)" d="M2.739,0A2.739,2.739,0,1,1,-2.739,0A2.739,2.739,0,1,1,2.739,0" fill="#179FDB" stroke="#179FDB" stroke-width="2" opacity="0.7"/><path aria-label="x1: 2.629597922; y1: 0.48595862" role="graphics-symbol" aria-roledescription="point" transform="translate(144.8531486222222,164.77878)" d="M2.739,0A2.739,2.739,0,1,1,-2.739,0A2.739,2.739,0,1,1,2.739,0" fill="#179FDB" stroke="#179FDB" stroke-width="2" opacity="0.7"/><path aria-label="x1: 3.027950896; y1: 0.173142821" role="graphics-symbol" aria-roledescription="point" transform="translate(180.26230186666666,236.96704130769234)" d="M2.739,0A2.739,2.739,0,1,1,-2.739,0A2.739,2.739,0,1,1,2.739,0" fill="#179FDB" stroke="#179FDB" stroke-width="2" opacity="0.7"/><path aria-label="x1: 3.050081617; y1: 0.221453426" role="graphics-symbol" aria-roledescription="point" transform="translate(182.22947706666668,225.81844015384613)" d="M2.739,0A2.739,2.739,0,1,1,-2.739,0A2.739,2.739,0,1,1,2.739,0" fill="#179FDB" stroke="#179FDB" stroke-width="2" opacity="0.7"/><path aria-label="x1: 3.078851554; y1: 0.187025178" role="graphics-symbol" aria-roledescription="point" transform="translate(184.78680479999997,233.7634204615385)" d="M2.739,0A2.739,2.739,0,1,1,-2.739,0A2.739,2.739,0,1,1,2.739,0" fill="#179FDB" stroke="#179FDB" stroke-width="2" opacity="0.7"/><path aria-label="x1: 3.094343058; y1: 0.119279272" role="graphics-symbol" aria-roledescription="point" transform="translate(186.16382737777778,249.39709107692306)" d="M2.739,0A2.739,2.739,0,1,1,-2.739,0A2.739,2.739,0,1,1,2.739,0" fill="#179FDB" stroke="#179FDB" stroke-width="2" opacity="0.7"/><path aria-label="x1: 3.116473779; y1: 0.206583878" role="graphics-symbol" aria-roledescription="point" transform="translate(188.1310025777778,229.2498743076923)" d="M2.739,0A2.739,2.739,0,1,1,-2.739,0A2.739,2.739,0,1,1,2.739,0" fill="#179FDB" stroke="#179FDB" stroke-width="2" opacity="0.7"/><path aria-label="x1: 3.337780986; y1: 0.571844141" role="graphics-symbol" aria-roledescription="point" transform="translate(207.80275431111107,144.9590443846154)" d="M2.739,0A2.739,2.739,0,1,1,-2.739,0A2.739,2.739,0,1,1,2.739,0" fill="#179FDB" stroke="#179FDB" stroke-width="2" opacity="0.7"/><path aria-label="x1: 3.332248306; y1: 0.197020476" role="graphics-symbol" aria-roledescription="point" transform="translate(207.31096053333334,231.45681323076923)" d="M2.739,0A2.739,2.739,0,1,1,-2.739,0A2.739,2.739,0,1,1,2.739,0" fill="#179FDB" stroke="#179FDB" stroke-width="2" opacity="0.7"/><path aria-label="x1: 3.398640468; y1: 0.078789061" role="graphics-symbol" aria-roledescription="point" transform="translate(213.21248604444443,258.74098592307695)" d="M2.739,0A2.739,2.739,0,1,1,-2.739,0A2.739,2.739,0,1,1,2.739,0" fill="#179FDB" stroke="#179FDB" stroke-width="2" opacity="0.7"/><path aria-label="x1: 3.43183655; y1: 0.117428291" role="graphics-symbol" aria-roledescription="point" transform="translate(216.1632488888889,249.82424053846154)" d="M2.739,0A2.739,2.739,0,1,1,-2.739,0A2.739,2.739,0,1,1,2.739,0" fill="#179FDB" stroke="#179FDB" stroke-width="2" opacity="0.7"/><path aria-label="x1: 3.514826752; y1: 0.212383619" role="graphics-symbol" aria-roledescription="point" transform="translate(223.54015573333334,227.91147253846154)" d="M2.739,0A2.739,2.739,0,1,1,-2.739,0A2.739,2.739,0,1,1,2.739,0" fill="#179FDB" stroke="#179FDB" stroke-width="2" opacity="0.7"/><path aria-label="x1: 3.514826752; y1: 0.019326294" role="graphics-symbol" aria-roledescription="point" transform="translate(223.54015573333334,272.46316292307694)" d="M2.739,0A2.739,2.739,0,1,1,-2.739,0A2.739,2.739,0,1,1,2.739,0" fill="#179FDB" stroke="#179FDB" stroke-width="2" opacity="0.7"/><path aria-label="x1: 3.531048565; y1: 0.130865596" role="graphics-symbol" aria-roledescription="point" transform="translate(224.98209466666665,246.723324)" d="M2.739,0A2.739,2.739,0,1,1,-2.739,0A2.739,2.739,0,1,1,2.739,0" fill="#179FDB" stroke="#179FDB" stroke-width="2" opacity="0.7"/><path aria-label="x1: 3.548022833; y1: 0.39118839" role="graphics-symbol" aria-roledescription="point" transform="translate(226.4909184888889,186.64883307692307)" d="M2.739,0A2.739,2.739,0,1,1,-2.739,0A2.739,2.739,0,1,1,2.739,0" fill="#179FDB" stroke="#179FDB" stroke-width="2" opacity="0.7"/><path aria-label="x1: 3.570153554; y1: 0.047276108" role="graphics-symbol" aria-roledescription="point" transform="translate(228.45809368888888,266.0132058461539)" d="M2.739,0A2.739,2.739,0,1,1,-2.739,0A2.739,2.739,0,1,1,2.739,0" fill="#179FDB" stroke="#179FDB" stroke-width="2" opacity="0.7"/><path aria-label="x1: 3.631013036; y1: 0.252549908" role="graphics-symbol" aria-roledescription="point" transform="translate(233.8678254222222,218.64232892307695)" d="M2.739,0A2.739,2.739,0,1,1,-2.739,0A2.739,2.739,0,1,1,2.739,0" fill="#179FDB" stroke="#179FDB" stroke-width="2" opacity="0.7"/><path aria-label="x1: 3.752732; y1: 0.178279293" role="graphics-symbol" aria-roledescription="point" transform="translate(244.68728888888887,235.7817016153846)" d="M2.739,0A2.739,2.739,0,1,1,-2.739,0A2.739,2.739,0,1,1,2.739,0" fill="#179FDB" stroke="#179FDB" stroke-width="2" opacity="0.7"/><path aria-label="x1: 3.780395401; y1: 0.147599282" role="graphics-symbol" aria-roledescription="point" transform="translate(247.14625786666664,242.86170415384615)" d="M2.739,0A2.739,2.739,0,1,1,-2.739,0A2.739,2.739,0,1,1,2.739,0" fill="#179FDB" stroke="#179FDB" stroke-width="2" opacity="0.7"/><path aria-label="x1: 3.783161741; y1: 0.060973368" role="graphics-symbol" aria-roledescription="point" transform="translate(247.39215475555554,262.85229969230767)" d="M2.739,0A2.739,2.739,0,1,1,-2.739,0A2.739,2.739,0,1,1,2.739,0" fill="#179FDB" stroke="#179FDB" stroke-width="2" opacity="0.7"/><path aria-label="x1: 3.868918284; y1: 0.703171248" role="graphics-symbol" aria-roledescription="point" transform="translate(255.01495857777775,114.65278892307694)" d="M2.739,0A2.739,2.739,0,1,1,-2.739,0A2.739,2.739,0,1,1,2.739,0" fill="#179FDB" stroke="#179FDB" stroke-width="2" opacity="0.7"/><path aria-label="x1: 3.885516325; y1: 0.357361711" role="graphics-symbol" aria-roledescription="point" transform="translate(256.49034000000006,194.45498976923076)" d="M2.739,0A2.739,2.739,0,1,1,-2.739,0A2.739,2.739,0,1,1,2.739,0" fill="#179FDB" stroke="#179FDB" stroke-width="2" opacity="0.7"/><path aria-label="x1: 3.895791302; y1: 0.223198637" role="graphics-symbol" aria-roledescription="point" transform="translate(257.40367128888886,225.41569915384613)" d="M2.739,0A2.739,2.739,0,1,1,-2.739,0A2.739,2.739,0,1,1,2.739,0" fill="#179FDB" stroke="#179FDB" stroke-width="2" opacity="0.7"/><path aria-label="x1: 3.946375807; y1: 0.338620528" role="graphics-symbol" aria-roledescription="point" transform="translate(261.90007173333333,198.7798781538462)" d="M2.739,0A2.739,2.739,0,1,1,-2.739,0A2.739,2.739,0,1,1,2.739,0" fill="#179FDB" stroke="#179FDB" stroke-width="2" opacity="0.7"/><path aria-label="x1: 3.929777766; y1: 0.237973432" role="graphics-symbol" aria-roledescription="point" transform="translate(260.42469031111114,222.00613107692308)" d="M2.739,0A2.739,2.739,0,1,1,-2.739,0A2.739,2.739,0,1,1,2.739,0" fill="#179FDB" stroke="#179FDB" stroke-width="2" opacity="0.7"/><path aria-label="x1: 3.946375807; y1: 0.065878468" role="graphics-symbol" aria-roledescription="point" transform="translate(261.90007173333333,261.72035353846155)" d="M2.739,0A2.739,2.739,0,1,1,-2.739,0A2.739,2.739,0,1,1,2.739,0" fill="#179FDB" stroke="#179FDB" stroke-width="2" opacity="0.7"/><path aria-label="x1: 3.990637248; y1: 0.62182063" role="graphics-symbol" aria-roledescription="point" transform="translate(265.83442204444447,133.42600846153846)" d="M2.739,0A2.739,2.739,0,1,1,-2.739,0A2.739,2.739,0,1,1,2.739,0" fill="#179FDB" stroke="#179FDB" stroke-width="2" opacity="0.7"/><path aria-label="x1: 4.009079516; y1: 0.225247937" role="graphics-symbol" aria-roledescription="point" transform="translate(267.47373475555554,224.94278376923077)" d="M2.739,0A2.739,2.739,0,1,1,-2.739,0A2.739,2.739,0,1,1,2.739,0" fill="#179FDB" stroke="#179FDB" stroke-width="2" opacity="0.7"/><path aria-label="x1: 4.012767969; y1: 0.547966486" role="graphics-symbol" aria-roledescription="point" transform="translate(267.80159724444445,150.46927246153848)" d="M2.739,0A2.739,2.739,0,1,1,-2.739,0A2.739,2.739,0,1,1,2.739,0" fill="#179FDB" stroke="#179FDB" stroke-width="2" opacity="0.7"/><path aria-label="x1: 4.02383333; y1: 0.346949942" role="graphics-symbol" aria-roledescription="point" transform="translate(268.7851848888889,196.85770569230766)" d="M2.739,0A2.739,2.739,0,1,1,-2.739,0A2.739,2.739,0,1,1,2.739,0" fill="#179FDB" stroke="#179FDB" stroke-width="2" opacity="0.7"/><path aria-label="x1: 4.02383333; y1: 0.268375796" role="graphics-symbol" aria-roledescription="point" transform="translate(268.7851848888889,214.9902009230769)" d="M2.739,0A2.739,2.739,0,1,1,-2.739,0A2.739,2.739,0,1,1,2.739,0" fill="#179FDB" stroke="#179FDB" stroke-width="2" opacity="0.7"/><path aria-label="x1: 4.057029411; y1: 0.304469927" role="graphics-symbol" aria-roledescription="point" transform="translate(271.7359476444445,206.6607860769231)" d="M2.739,0A2.739,2.739,0,1,1,-2.739,0A2.739,2.739,0,1,1,2.739,0" fill="#179FDB" stroke="#179FDB" stroke-width="2" opacity="0.7"/><path aria-label="x1: 4.04596405; y1: 0.236816569" role="graphics-symbol" aria-roledescription="point" transform="translate(270.75236,222.27309946153846)" d="M2.739,0A2.739,2.739,0,1,1,-2.739,0A2.739,2.739,0,1,1,2.739,0" fill="#179FDB" stroke="#179FDB" stroke-width="2" opacity="0.7"/><path aria-label="x1: 4.052603267; y1: 0.175086351" role="graphics-symbol" aria-roledescription="point" transform="translate(271.3425126222222,236.51853438461538)" d="M2.739,0A2.739,2.739,0,1,1,-2.739,0A2.739,2.739,0,1,1,2.739,0" fill="#179FDB" stroke="#179FDB" stroke-width="2" opacity="0.7"/><path aria-label="x1: 4.084692812; y1: 0.203961655" role="graphics-symbol" aria-roledescription="point" transform="translate(274.1949166222222,229.85500269230766)" d="M2.739,0A2.739,2.739,0,1,1,-2.739,0A2.739,2.739,0,1,1,2.739,0" fill="#179FDB" stroke="#179FDB" stroke-width="2" opacity="0.7"/><path aria-label="x1: 4.151084974; y1: 0.539451973" role="graphics-symbol" aria-roledescription="point" transform="translate(280.0964421333333,152.43416007692306)" d="M2.739,0A2.739,2.739,0,1,1,-2.739,0A2.739,2.739,0,1,1,2.739,0" fill="#179FDB" stroke="#179FDB" stroke-width="2" opacity="0.7"/><path aria-label="x1: 4.206411776; y1: 0.116849859" role="graphics-symbol" aria-roledescription="point" transform="translate(285.0143800888889,249.95772484615387)" d="M2.739,0A2.739,2.739,0,1,1,-2.739,0A2.739,2.739,0,1,1,2.739,0" fill="#179FDB" stroke="#179FDB" stroke-width="2" opacity="0.7"/><path aria-label="x1: 4.217477136; y1: 0.927579564" role="graphics-symbol" aria-roledescription="point" transform="translate(285.99796764444443,62.86625446153845)" d="M2.739,0A2.739,2.739,0,1,1,-2.739,0A2.739,2.739,0,1,1,2.739,0" fill="#179FDB" stroke="#179FDB" stroke-width="2" opacity="0.7"/><path aria-label="x1: 4.234075177; y1: 0.489660582" role="graphics-symbol" aria-roledescription="point" transform="translate(287.4733490666667,163.92448107692306)" d="M2.739,0A2.739,2.739,0,1,1,-2.739,0A2.739,2.739,0,1,1,2.739,0" fill="#179FDB" stroke="#179FDB" stroke-width="2" opacity="0.7"/><path aria-label="x1: 4.267271258; y1: 0.091792203" role="graphics-symbol" aria-roledescription="point" transform="translate(290.4241118222222,255.74026084615386)" d="M2.739,0A2.739,2.739,0,1,1,-2.739,0A2.739,2.739,0,1,1,2.739,0" fill="#179FDB" stroke="#179FDB" stroke-width="2" opacity="0.7"/><path aria-label="x1: 4.32813074; y1: 0.840467768" role="graphics-symbol" aria-roledescription="point" transform="translate(295.8338435555556,82.96897661538463)" d="M2.739,0A2.739,2.739,0,1,1,-2.739,0A2.739,2.739,0,1,1,2.739,0" fill="#179FDB" stroke="#179FDB" stroke-width="2" opacity="0.7"/><path aria-label="x1: 4.33366342; y1: 0.055975719" role="graphics-symbol" aria-roledescription="point" transform="translate(296.3256373333333,264.0056033076923)" d="M2.739,0A2.739,2.739,0,1,1,-2.739,0A2.739,2.739,0,1,1,2.739,0" fill="#179FDB" stroke="#179FDB" stroke-width="2" opacity="0.7"/><path aria-label="x1: 4.400055582; y1: 0.73621126" role="graphics-symbol" aria-roledescription="point" transform="translate(302.2271628444445,107.02817076923078)" d="M2.739,0A2.739,2.739,0,1,1,-2.739,0A2.739,2.739,0,1,1,2.739,0" fill="#179FDB" stroke="#179FDB" stroke-width="2" opacity="0.7"/><path aria-label="x1: 4.438784344; y1: 0.771750096" role="graphics-symbol" aria-roledescription="point" transform="translate(305.66971946666666,98.82690092307692)" d="M2.739,0A2.739,2.739,0,1,1,-2.739,0A2.739,2.739,0,1,1,2.739,0" fill="#179FDB" stroke="#179FDB" stroke-width="2" opacity="0.7"/><path aria-label="x1: 4.466447745; y1: 0.942225452" role="graphics-symbol" aria-roledescription="point" transform="translate(308.12868844444444,59.486434153846155)" d="M2.739,0A2.739,2.739,0,1,1,-2.739,0A2.739,2.739,0,1,1,2.739,0" fill="#179FDB" stroke="#179FDB" stroke-width="2" opacity="0.7"/><path aria-label="x1: 4.455382384; y1: 0.419600949" role="graphics-symbol" aria-roledescription="point" transform="translate(307.14510079999997,180.0920886923077)" d="M2.739,0A2.739,2.739,0,1,1,-2.739,0A2.739,2.739,0,1,1,2.739,0" fill="#179FDB" stroke="#179FDB" stroke-width="2" opacity="0.7"/><path aria-label="x1: 4.491344805; y1: 1.110479631" role="graphics-symbol" aria-roledescription="point" transform="translate(310.3417604444444,20.658546692307667)" d="M2.739,0A2.739,2.739,0,1,1,-2.739,0A2.739,2.739,0,1,1,2.739,0" fill="#179FDB" stroke="#179FDB" stroke-width="2" opacity="0.7"/><path aria-label="x1: 4.499643826; y1: 1.001827042" role="graphics-symbol" aria-roledescription="point" transform="translate(311.0794512,45.732221076923075)" d="M2.739,0A2.739,2.739,0,1,1,-2.739,0A2.739,2.739,0,1,1,2.739,0" fill="#179FDB" stroke="#179FDB" stroke-width="2" opacity="0.7"/><path aria-label="x1: 4.510709186; y1: 0.891693669" role="graphics-symbol" aria-roledescription="point" transform="translate(312.06303875555557,71.14761484615386)" d="M2.739,0A2.739,2.739,0,1,1,-2.739,0A2.739,2.739,0,1,1,2.739,0" fill="#179FDB" stroke="#179FDB" stroke-width="2" opacity="0.7"/><path aria-label="x1: 4.510709186; y1: 0.091977301" role="graphics-symbol" aria-roledescription="point" transform="translate(312.06303875555557,255.69754592307694)" d="M2.739,0A2.739,2.739,0,1,1,-2.739,0A2.739,2.739,0,1,1,2.739,0" fill="#179FDB" stroke="#179FDB" stroke-width="2" opacity="0.7"/><path aria-label="x1: 4.516241866; y1: 0.527767655" role="graphics-symbol" aria-roledescription="point" transform="translate(312.5548325333333,155.13054115384617)" d="M2.739,0A2.739,2.739,0,1,1,-2.739,0A2.739,2.739,0,1,1,2.739,0" fill="#179FDB" stroke="#179FDB" stroke-width="2" opacity="0.7"/><path aria-label="x1: 4.516241866; y1: 0.202573419" role="graphics-symbol" aria-roledescription="point" transform="translate(312.5548325333333,230.17536484615385)" d="M2.739,0A2.739,2.739,0,1,1,-2.739,0A2.739,2.739,0,1,1,2.739,0" fill="#179FDB" stroke="#179FDB" stroke-width="2" opacity="0.7"/><path aria-label="x1: 4.527307227; y1: 0.288644039" role="graphics-symbol" aria-roledescription="point" transform="translate(313.5384201777777,210.31291407692308)" d="M2.739,0A2.739,2.739,0,1,1,-2.739,0A2.739,2.739,0,1,1,2.739,0" fill="#179FDB" stroke="#179FDB" stroke-width="2" opacity="0.7"/><path aria-label="x1: 4.571568668; y1: 1.168091416" role="graphics-symbol" aria-roledescription="point" transform="translate(317.47277048888895,7.363519384615391)" d="M2.739,0A2.739,2.739,0,1,1,-2.739,0A2.739,2.739,0,1,1,2.739,0" fill="#179FDB" stroke="#179FDB" stroke-width="2" opacity="0.7"/><path aria-label="x1: 4.577101348; y1: 0.800070106" role="graphics-symbol" aria-roledescription="point" transform="translate(317.9645642666667,92.29151400000003)" d="M2.739,0A2.739,2.739,0,1,1,-2.739,0A2.739,2.739,0,1,1,2.739,0" fill="#179FDB" stroke="#179FDB" stroke-width="2" opacity="0.7"/><path aria-label="x1: 4.720951033; y1: 0.292068354" role="graphics-symbol" aria-roledescription="point" transform="translate(330.75120293333333,209.52268753846155)" d="M2.739,0A2.739,2.739,0,1,1,-2.739,0A2.739,2.739,0,1,1,2.739,0" fill="#179FDB" stroke="#179FDB" stroke-width="2" opacity="0.7"/><path aria-label="x1: 4.754147114; y1: 0.097067499" role="graphics-symbol" aria-roledescription="point" transform="translate(333.70196568888895,254.52288484615383)" d="M2.739,0A2.739,2.739,0,1,1,-2.739,0A2.739,2.739,0,1,1,2.739,0" fill="#179FDB" stroke="#179FDB" stroke-width="2" opacity="0.7"/><path aria-label="x1: 4.765212475; y1: 0.024971786" role="graphics-symbol" aria-roledescription="point" transform="translate(334.68555333333336,271.16035707692305)" d="M2.739,0A2.739,2.739,0,1,1,-2.739,0A2.739,2.739,0,1,1,2.739,0" fill="#179FDB" stroke="#179FDB" stroke-width="2" opacity="0.7"/><path aria-label="x1: 4.776277835; y1: 0.548151584" role="graphics-symbol" aria-roledescription="point" transform="translate(335.66914088888893,150.42655753846157)" d="M2.739,0A2.739,2.739,0,1,1,-2.739,0A2.739,2.739,0,1,1,2.739,0" fill="#179FDB" stroke="#179FDB" stroke-width="2" opacity="0.7"/><path aria-label="x1: 5.185696169; y1: 0.158705168" role="graphics-symbol" aria-roledescription="point" transform="translate(372.0618816888889,240.2988073846154)" d="M2.739,0A2.739,2.739,0,1,1,-2.739,0A2.739,2.739,0,1,1,2.739,0" fill="#179FDB" stroke="#179FDB" stroke-width="2" opacity="0.7"/><path aria-label="x1: 3.522608282; y1: 0.150955414" role="graphics-symbol" aria-roledescription="point" transform="translate(224.2318472888889,242.08721215384617)" d="M2.739,0A2.739,2.739,0,1,1,-2.739,0A2.739,2.739,0,1,1,2.739,0" fill="#179FDB" stroke="#179FDB" stroke-width="2" opacity="0.7"/><path aria-label="x1: 2.715373632; y1: 0.168152866" role="graphics-symbol" aria-roledescription="point" transform="translate(152.4776561777778,238.1185693846154)" d="M2.739,0A2.739,2.739,0,1,1,-2.739,0A2.739,2.739,0,1,1,2.739,0" fill="#179FDB" stroke="#179FDB" stroke-width="2" opacity="0.7"/><path aria-label="x1: 2.288910043; y1: 0.156687898" role="graphics-symbol" aria-roledescription="point" transform="translate(114.5697816,240.76433123076924)" d="M2.739,0A2.739,2.739,0,1,1,-2.739,0A2.739,2.739,0,1,1,2.739,0" fill="#179FDB" stroke="#179FDB" stroke-width="2" opacity="0.7"/></g><g class="mark-symbol role-mark layer_3_marks" role="graphics-object" aria-roledescription="symbol mark container"><path aria-label="x2: 4.75249881; y2: 0.719426752" role="graphics-symbol" aria-roledescription="point" transform="translate(333.5554497777777,110.90151876923079)" d="M2.739,0A2.739,2.739,0,1,1,-2.739,0A2.739,2.739,0,1,1,2.739,0" fill="#F4134D" stroke="#F4134D" stroke-width="2" opacity="0.7"/><path aria-label="x2: 4.451689672; y2: 0.672611465" role="graphics-symbol" aria-roledescription="point" transform="translate(306.81685973333333,121.70504653846153)" d="M2.739,0A2.739,2.739,0,1,1,-2.739,0A2.739,2.739,0,1,1,2.739,0" fill="#F4134D" stroke="#F4134D" stroke-width="2" opacity="0.7"/><path aria-label="x2: 4.417420276; y2: 0.439490446" role="graphics-symbol" aria-roledescription="point" transform="translate(303.77069119999993,175.5022047692308)" d="M2.739,0A2.739,2.739,0,1,1,-2.739,0A2.739,2.739,0,1,1,2.739,0" fill="#F4134D" stroke="#F4134D" stroke-width="2" opacity="0.7"/><path aria-label="x2: 3.221799143; y2: 0.16433121" role="graphics-symbol" aria-roledescription="point" transform="translate(197.49325715555557,239.00048999999999)" d="M2.739,0A2.739,2.739,0,1,1,-2.739,0A2.739,2.739,0,1,1,2.739,0" fill="#F4134D" stroke="#F4134D" stroke-width="2" opacity="0.7"/><path aria-label="x2: 2.734412185; y2: 0.12611465" role="graphics-symbol" aria-roledescription="point" transform="translate(154.169972,247.81969615384614)" d="M2.739,0A2.739,2.739,0,1,1,-2.739,0A2.739,2.739,0,1,1,2.739,0" fill="#F4134D" stroke="#F4134D" stroke-width="2" opacity="0.7"/></g><g class="mark-symbol role-mark layer_4_marks" role="graphics-object" aria-roledescription="symbol mark container"><path aria-label="x2: 2.734412185; y2: 0.158598726" role="graphics-symbol" aria-roledescription="point" transform="translate(154.169972,240.3233709230769)" d="M2.739,0A2.739,2.739,0,1,1,-2.739,0A2.739,2.739,0,1,1,2.739,0" fill="#00A767" stroke="#00A767" stroke-width="2" opacity="0.7"/></g><g class="mark-text role-mark layer_5_marks" role="graphics-object" aria-roledescription="text mark container"><text aria-label="x2: 2.734412185; y2: 0.158598726; c2: PAK" role="graphics-symbol" aria-roledescription="text mark" text-anchor="middle" transform="translate(172.169972,241.3233709230769)" font-family="Circular Std Book" font-size="12px" fill="#00A767">PAK</text></g><g class="mark-text role-mark layer_6_marks" role="graphics-object" aria-roledescription="text mark container"><text aria-label="x2: 4.75249881; y2: 0.719426752; c2: USA" role="graphics-symbol" aria-roledescription="text mark" text-anchor="middle" transform="translate(351.5554497777777,114.90151876923079)" font-family="Circular Std Book" font-size="12px" fill="#F4134D">USA</text><text aria-label="x2: 4.451689672; y2: 0.672611465; c2: DEU" role="graphics-symbol" aria-roledescription="text mark" text-anchor="middle" transform="translate(324.81685973333333,125.70504653846153)" font-family="Circular Std Book" font-size="12px" fill="#F4134D">DEU</text><text aria-label="x2: 4.417420276; y2: 0.439490446; c2: GBR" role="graphics-symbol" aria-roledescription="text mark" text-anchor="middle" transform="translate(321.77069119999993,179.5022047692308)" font-family="Circular Std Book" font-size="12px" fill="#F4134D">GBR</text><text aria-label="x2: 3.221799143; y2: 0.16433121; c2: CHN" role="graphics-symbol" aria-roledescription="text mark" text-anchor="middle" transform="translate(215.49325715555557,243.00048999999999)" font-family="Circular Std Book" font-size="12px" fill="#F4134D">CHN</text><text aria-label="x2: 2.734412185; y2: 0.12611465; c2: IND" role="graphics-symbol" aria-roledescription="text mark" text-anchor="middle" transform="translate(172.169972,251.81969615384614)" font-family="Circular Std Book" font-size="12px" fill="#F4134D">IND</text></g></g><path class="foreground" aria-hidden="true" d="" display="none"/></g></g></g></svg>