<svg xmlns="http://www.w3.org/2000/svg" xmlns:xlink="http://www.w3.org/1999/xlink" version="1.1" class="marks" width="432" height="630" viewBox="0 0 432 630"><rect width="432" height="630" fill="white"/><g fill="none" stroke-miterlimit="10" transform="translate(25,22)"><g class="mark-group role-frame root" role="graphics-object" aria-roledescription="group mark container"><g transform="translate(0,0)"><path class="background" aria-hidden="true" d="M0,0h400v0h-400Z"/><g><g class="mark-group role-scope concat_0_group" role="graphics-object" aria-roledescription="group mark container"><g transform="translate(0,0)"><path class="background" aria-hidden="true" d="M0.5,0.5h400v300h-400Z" stroke="#ddd"/><g><g class="mark-group role-axis" role="graphics-symbol" aria-roledescription="axis" aria-label="X-axis titled 'Macrofinanacial packages as % of GDP' for a linear scale with values from 0 to 65"><g transform="translate(0.5,300.5)"><path class="background" aria-hidden="true" d="M0,0h0v0h0Z" pointer-events="none"/><g><g class="mark-rule role-axis-tick" pointer-events="none"><line transform="translate(0,0)" x2="0" y2="5" stroke="#676A86" stroke-width="1" opacity="1"/><line transform="translate(31,0)" x2="0" y2="5" stroke="#676A86" stroke-width="1" opacity="1"/><line transform="translate(62,0)" x2="0" y2="5" stroke="#676A86" stroke-width="1" opacity="1"/><line transform="translate(92,0)" x2="0" y2="5" stroke="#676A86" stroke-width="1" opacity="1"/><line transform="translate(123,0)" x2="0" y2="5" stroke="#676A86" stroke-width="1" opacity="1"/><line transform="translate(154,0)" x2="0" y2="5" stroke="#676A86" stroke-width="1" opacity="1"/><line transform="translate(185,0)" x2="0" y2="5" stroke="#676A86" stroke-width="1" opacity="1"/><line transform="translate(215,0)" x2="0" y2="5" stroke="#676A86" stroke-width="1" opacity="1"/><line transform="translate(246,0)" x2="0" y2="5" stroke="#676A86" stroke-width="1" opacity="1"/><line transform="translate(277,0)" x2="0" y2="5" stroke="#676A86" stroke-width="1" opacity="1"/><line transform="translate(308,0)" x2="0" y2="5" stroke="#676A86" stroke-width="1" opacity="1"/><line transform="translate(338,0)" x2="0" y2="5" stroke="#676A86" stroke-width="1" opacity="1"/><line transform="translate(369,0)" x2="0" y2="5" stroke="#676A86" stroke-width="1" opacity="1"/><line transform="translate(400,0)" x2="0" y2="5" stroke="#676A86" stroke-width="1" opacity="1"/></g><g class="mark-text role-axis-label" pointer-events="none"><text text-anchor="start" transform="translate(0,15)" font-family="sans-serif" font-size="10px" fill="#676A86" opacity="1">0</text><text text-anchor="middle" transform="translate(30.76923076923077,15)" font-family="sans-serif" font-size="10px" fill="#676A86" opacity="1">5</text><text text-anchor="middle" transform="translate(61.53846153846154,15)" font-family="sans-serif" font-size="10px" fill="#676A86" opacity="1">10</text><text text-anchor="middle" transform="translate(92.3076923076923,15)" font-family="sans-serif" font-size="10px" fill="#676A86" opacity="1">15</text><text text-anchor="middle" transform="translate(123.07692307692308,15)" font-family="sans-serif" font-size="10px" fill="#676A86" opacity="1">20</text><text text-anchor="middle" transform="translate(153.84615384615387,15)" font-family="sans-serif" font-size="10px" fill="#676A86" opacity="1">25</text><text text-anchor="middle" transform="translate(184.6153846153846,15)" font-family="sans-serif" font-size="10px" fill="#676A86" opacity="1">30</text><text text-anchor="middle" transform="translate(215.3846153846154,15)" font-family="sans-serif" font-size="10px" fill="#676A86" opacity="1">35</text><text text-anchor="middle" transform="translate(246.15384615384616,15)" font-family="sans-serif" font-size="10px" fill="#676A86" opacity="1">40</text><text text-anchor="middle" transform="translate(276.9230769230769,15)" font-family="sans-serif" font-size="10px" fill="#676A86" opacity="1">45</text><text text-anchor="middle" transform="translate(307.69230769230774,15)" font-family="sans-serif" font-size="10px" fill="#676A86" opacity="1">50</text><text text-anchor="middle" transform="translate(338.46153846153845,15)" font-family="sans-serif" font-size="10px" fill="#676A86" opacity="1">55</text><text text-anchor="middle" transform="translate(369.2307692307692,15)" font-family="sans-serif" font-size="10px" fill="#676A86" opacity="1">60</text><text text-anchor="end" transform="translate(400,15)" font-family="sans-serif" font-size="10px" fill="#676A86" opacity="1">65</text></g><g class="mark-rule role-axis-domain" pointer-events="none"><line transform="translate(0,0)" x2="400" y2="0" stroke="#676A86" stroke-width="1" opacity="1"/></g><g class="mark-text role-axis-title" pointer-events="none"><text text-anchor="end" transform="translate(400,-21)" font-family="sans-serif" font-size="11px" font-weight="bold" fill="#676A86" opacity="1">Macrofinanacial packages as % of GDP</text></g></g><path class="foreground" aria-hidden="true" d="" pointer-events="none" display="none"/></g></g><g class="mark-group role-axis" role="graphics-symbol" aria-roledescription="axis" aria-label="Y-axis titled 'Distribution over countries (%)' for a linear scale with values from 0 to 55"><g transform="translate(0.5,0.5)"><path class="background" aria-hidden="true" d="M0,0h0v0h0Z" pointer-events="none"/><g><g class="mark-rule role-axis-tick" pointer-events="none"><line transform="translate(0,300)" x2="-5" y2="0" stroke="#676A86" stroke-width="1" opacity="1"/><line transform="translate(0,273)" x2="-5" y2="0" stroke="#676A86" stroke-width="1" opacity="1"/><line transform="translate(0,245)" x2="-5" y2="0" stroke="#676A86" stroke-width="1" opacity="1"/><line transform="translate(0,218)" x2="-5" y2="0" stroke="#676A86" stroke-width="1" opacity="1"/><line transform="translate(0,191)" x2="-5" y2="0" stroke="#676A86" stroke-width="1" opacity="1"/><line transform="translate(0,164)" x2="-5" y2="0" stroke="#676A86" stroke-width="1" opacity="1"/><line transform="translate(0,136)" x2="-5" y2="0" stroke="#676A86" stroke-width="1" opacity="1"/><line transform="translate(0,109)" x2="-5" y2="0" stroke="#676A86" stroke-width="1" opacity="1"/><line transform="translate(0,82)" x2="-5" y2="0" stroke="#676A86" stroke-width="1" opacity="1"/><line transform="translate(0,55)" x2="-5" y2="0" stroke="#676A86" stroke-width="1" opacity="1"/><line transform="translate(0,27)" x2="-5" y2="0" stroke="#676A86" stroke-width="1" opacity="1"/><line transform="translate(0,0)" x2="-5" y2="0" stroke="#676A86" stroke-width="1" opacity="1"/></g><g class="mark-text role-axis-label" pointer-events="none"><text text-anchor="end" transform="translate(-7,303)" font-family="sans-serif" font-size="10px" fill="#676A86" opacity="1">0</text><text text-anchor="end" transform="translate(-7,275.7272727272727)" font-family="sans-serif" font-size="10px" fill="#676A86" opacity="1">5</text><text text-anchor="end" transform="translate(-7,248.45454545454544)" font-family="sans-serif" font-size="10px" fill="#676A86" opacity="1">10</text><text text-anchor="end" transform="translate(-7,221.1818181818182)" font-family="sans-serif" font-size="10px" fill="#676A86" opacity="1">15</text><text text-anchor="end" transform="translate(-7,193.9090909090909)" font-family="sans-serif" font-size="10px" fill="#676A86" opacity="1">20</text><text text-anchor="end" transform="translate(-7,166.63636363636363)" font-family="sans-serif" font-size="10px" fill="#676A86" opacity="1">25</text><text text-anchor="end" transform="translate(-7,139.36363636363637)" font-family="sans-serif" font-size="10px" fill="#676A86" opacity="1">30</text><text text-anchor="end" transform="translate(-7,112.0909090909091)" font-family="sans-serif" font-size="10px" fill="#676A86" opacity="1">35</text><text text-anchor="end" transform="translate(-7,84.81818181818181)" font-family="sans-serif" font-size="10px" fill="#676A86" opacity="1">40</text><text text-anchor="end" transform="translate(-7,57.54545454545453)" font-family="sans-serif" font-size="10px" fill="#676A86" opacity="1">45</text><text text-anchor="end" transform="translate(-7,30.27272727272728)" font-family="sans-serif" font-size="10px" fill="#676A86" opacity="1">50</text><text text-anchor="end" transform="translate(-7,3)" font-family="sans-serif" font-size="10px" fill="#676A86" opacity="1">55</text></g><g class="mark-rule role-axis-domain" pointer-events="none"><line transform="translate(0,300)" x2="0" y2="-300" stroke="#676A86" stroke-width="1" opacity="1"/></g><g class="mark-text role-axis-title" pointer-events="none"><text text-anchor="start" transform="translate(-5,-7)" font-family="sans-serif" font-size="11px" font-weight="bold" fill="#676A86" opacity="1">Distribution over countries (%)</text></g></g><path class="foreground" aria-hidden="true" d="" pointer-events="none" display="none"/></g></g><g class="mark-rect role-mark concat_0_marks" role="graphics-object" aria-roledescription="rect mark container"><path aria-label="gx: 2.98051873199; gy: 51.747311828" role="graphics-symbol" aria-roledescription="bar" d="M5.841653735313681,17.741935483870954h25v282.258064516129h-25Z" fill="#179FDB"/><path aria-label="gx: 9.18993275696; gy: 18.4139784946" role="graphics-symbol" aria-roledescription="bar" d="M44.0534323505505,199.56011730205273h25v100.43988269794727h-25Z" fill="#179FDB"/><path aria-label="gx: 15.6477233429; gy: 14.0456989247" role="graphics-symbol" aria-roledescription="bar" d="M83.79368211039682,223.38709677419348h25v76.61290322580652h-25Z" fill="#179FDB"/><path aria-label="gx: 22.4780787704; gy: 5.30913978495" role="graphics-symbol" aria-roledescription="bar" d="M125.82663858715733,271.0410557184751h25v28.958944281524907h-25Z" fill="#179FDB"/><path aria-label="gx: 29.0600576369; gy: 7.0564516129" role="graphics-symbol" aria-roledescription="bar" d="M166.33112391930837,261.51026392961876h25v38.48973607038124h-25Z" fill="#179FDB"/><path aria-label="gx: 35.4557540826; gy: 0.940860215054" role="graphics-symbol" aria-roledescription="bar" d="M205.68925589300227,294.8680351906158h25v5.131964809384215h-25Z" fill="#179FDB"/><path aria-label="gx: 41.9135446686; gy: 1.88172043011" role="graphics-symbol" aria-roledescription="bar" d="M245.42950565284866,289.7360703812316h25v10.263929618768373h-25Z" fill="#179FDB"/><path aria-label="gx: 61.659481268; gy: 0.940860215054" role="graphics-symbol" aria-roledescription="bar" d="M366.94296164930176,294.8680351906158h25v5.131964809384215h-25Z" fill="#179FDB"/><path aria-label="gx: 0; gy: 0" role="graphics-symbol" aria-roledescription="bar" d="M-12.5,300h25v0h-25Z" fill="#179FDB"/><path aria-label="gx: 0; gy: 0" role="graphics-symbol" aria-roledescription="bar" d="M-12.5,300h25v0h-25Z" fill="#179FDB"/><path aria-label="gx: 0; gy: 0" role="graphics-symbol" aria-roledescription="bar" d="M-12.5,300h25v0h-25Z" fill="#179FDB"/><path aria-label="gx: 0; gy: 0" role="graphics-symbol" aria-roledescription="bar" d="M-12.5,300h25v0h-25Z" fill="#179FDB"/><path aria-label="gx: 0; gy: 0" role="graphics-symbol" aria-roledescription="bar" d="M-12.5,300h25v0h-25Z" fill="#179FDB"/><path aria-label="gx: 0; gy: 0" role="graphics-symbol" aria-roledescription="bar" d="M-12.5,300h25v0h-25Z" fill="#179FDB"/><path aria-label="gx: 0; gy: 0" role="graphics-symbol" aria-roledescription="bar" d="M-12.5,300h25v0h-25Z" fill="#179FDB"/><path aria-label="gx: 0; gy: 0" role="graphics-symbol" aria-roledescription="bar" d="M-12.5,300h25v0h-25Z" fill="#179FDB"/><path aria-label="gx: 0; gy: 0" role="graphics-symbol" aria-roledescription="bar" d="M-12.5,300h25v0h-25Z" fill="#179FDB"/><path aria-label="gx: 0; gy: 0" role="graphics-symbol" aria-roledescription="bar" d="M-12.5,300h25v0h-25Z" fill="#179FDB"/><path aria-label="gx: 0; gy: 0" role="graphics-symbol" aria-roledescription="bar" d="M-12.5,300h25v0h-25Z" fill="#179FDB"/><path aria-label="gx: 0; gy: 0" role="graphics-symbol" aria-roledescription="bar" d="M-12.5,300h25v0h-25Z" fill="#179FDB"/><path aria-label="gx: 0; gy: 0" role="graphics-symbol" aria-roledescription="bar" d="M-12.5,300h25v0h-25Z" fill="#179FDB"/><path aria-label="gx: 0; gy: 0" role="graphics-symbol" aria-roledescription="bar" d="M-12.5,300h25v0h-25Z" fill="#179FDB"/><path aria-label="gx: 0; gy: 0" role="graphics-symbol" aria-roledescription="bar" d="M-12.5,300h25v0h-25Z" fill="#179FDB"/><path aria-label="gx: 0; gy: 0" role="graphics-symbol" aria-roledescription="bar" d="M-12.5,300h25v0h-25Z" fill="#179FDB"/><path aria-label="gx: 0; gy: 0" role="graphics-symbol" aria-roledescription="bar" d="M-12.5,300h25v0h-25Z" fill="#179FDB"/><path aria-label="gx: 0; gy: 0" role="graphics-symbol" aria-roledescription="bar" d="M-12.5,300h25v0h-25Z" fill="#179FDB"/><path aria-label="gx: 0; gy: 0" role="graphics-symbol" aria-roledescription="bar" d="M-12.5,300h25v0h-25Z" fill="#179FDB"/><path aria-label="gx: 0; gy: 0" role="graphics-symbol" aria-roledescription="bar" d="M-12.5,300h25v0h-25Z" fill="#179FDB"/><path aria-label="gx: 0; gy: 0" role="graphics-symbol" aria-roledescription="bar" d="M-12.5,300h25v0h-25Z" fill="#179FDB"/><path aria-label="gx: 0; gy: 0" role="graphics-symbol" aria-roledescription="bar" d="M-12.5,300h25v0h-25Z" fill="#179FDB"/><path aria-label="gx: 0; gy: 0" role="graphics-symbol" aria-roledescription="bar" d="M-12.5,300h25v0h-25Z" fill="#179FDB"/><path aria-label="gx: 0; gy: 0" role="graphics-symbol" aria-roledescription="bar" d="M-12.5,300h25v0h-25Z" fill="#179FDB"/><path aria-label="gx: 0; gy: 0" role="graphics-symbol" aria-roledescription="bar" d="M-12.5,300h25v0h-25Z" fill="#179FDB"/><path aria-label="gx: 0; gy: 0" role="graphics-symbol" aria-roledescription="bar" d="M-12.5,300h25v0h-25Z" fill="#179FDB"/><path aria-label="gx: 0; gy: 0" role="graphics-symbol" aria-roledescription="bar" d="M-12.5,300h25v0h-25Z" fill="#179FDB"/><path aria-label="gx: 0; gy: 0" role="graphics-symbol" aria-roledescription="bar" d="M-12.5,300h25v0h-25Z" fill="#179FDB"/><path aria-label="gx: 0; gy: 0" role="graphics-symbol" aria-roledescription="bar" d="M-12.5,300h25v0h-25Z" fill="#179FDB"/><path aria-label="gx: 0; gy: 0" role="graphics-symbol" aria-roledescription="bar" d="M-12.5,300h25v0h-25Z" fill="#179FDB"/><path aria-label="gx: 0; gy: 0" role="graphics-symbol" aria-roledescription="bar" d="M-12.5,300h25v0h-25Z" fill="#179FDB"/><path aria-label="gx: 0; gy: 0" role="graphics-symbol" aria-roledescription="bar" d="M-12.5,300h25v0h-25Z" fill="#179FDB"/><path aria-label="gx: 0; gy: 0" role="graphics-symbol" aria-roledescription="bar" d="M-12.5,300h25v0h-25Z" fill="#179FDB"/><path aria-label="gx: 0; gy: 0" role="graphics-symbol" aria-roledescription="bar" d="M-12.5,300h25v0h-25Z" fill="#179FDB"/><path aria-label="gx: 0; gy: 0" role="graphics-symbol" aria-roledescription="bar" d="M-12.5,300h25v0h-25Z" fill="#179FDB"/><path aria-label="gx: 0; gy: 0" role="graphics-symbol" aria-roledescription="bar" d="M-12.5,300h25v0h-25Z" fill="#179FDB"/><path aria-label="gx: 0; gy: 0" role="graphics-symbol" aria-roledescription="bar" d="M-12.5,300h25v0h-25Z" fill="#179FDB"/><path aria-label="gx: 0; gy: 0" role="graphics-symbol" aria-roledescription="bar" d="M-12.5,300h25v0h-25Z" fill="#179FDB"/><path aria-label="gx: 0; gy: 0" role="graphics-symbol" aria-roledescription="bar" d="M-12.5,300h25v0h-25Z" fill="#179FDB"/><path aria-label="gx: 0; gy: 0" role="graphics-symbol" aria-roledescription="bar" d="M-12.5,300h25v0h-25Z" fill="#179FDB"/><path aria-label="gx: 0; gy: 0" role="graphics-symbol" aria-roledescription="bar" d="M-12.5,300h25v0h-25Z" fill="#179FDB"/><path aria-label="gx: 0; gy: 0" role="graphics-symbol" aria-roledescription="bar" d="M-12.5,300h25v0h-25Z" fill="#179FDB"/><path aria-label="gx: 0; gy: 0" role="graphics-symbol" aria-roledescription="bar" d="M-12.5,300h25v0h-25Z" fill="#179FDB"/><path aria-label="gx: 0; gy: 0" role="graphics-symbol" aria-roledescription="bar" d="M-12.5,300h25v0h-25Z" fill="#179FDB"/><path aria-label="gx: 0; gy: 0" role="graphics-symbol" aria-roledescription="bar" d="M-12.5,300h25v0h-25Z" fill="#179FDB"/><path aria-label="gx: 0; gy: 0" role="graphics-symbol" aria-roledescription="bar" d="M-12.5,300h25v0h-25Z" fill="#179FDB"/><path aria-label="gx: 0; gy: 0" role="graphics-symbol" aria-roledescription="bar" d="M-12.5,300h25v0h-25Z" fill="#179FDB"/><path aria-label="gx: 0; gy: 0" role="graphics-symbol" aria-roledescription="bar" d="M-12.5,300h25v0h-25Z" fill="#179FDB"/><path aria-label="gx: 0; gy: 0" role="graphics-symbol" aria-roledescription="bar" d="M-12.5,300h25v0h-25Z" fill="#179FDB"/><path aria-label="gx: 0; gy: 0" role="graphics-symbol" aria-roledescription="bar" d="M-12.5,300h25v0h-25Z" fill="#179FDB"/><path aria-label="gx: 0; gy: 0" role="graphics-symbol" aria-roledescription="bar" d="M-12.5,300h25v0h-25Z" fill="#179FDB"/><path aria-label="gx: 0; gy: 0" role="graphics-symbol" aria-roledescription="bar" d="M-12.5,300h25v0h-25Z" fill="#179FDB"/><path aria-label="gx: 0; gy: 0" role="graphics-symbol" aria-roledescription="bar" d="M-12.5,300h25v0h-25Z" fill="#179FDB"/><path aria-label="gx: 0; gy: 0" role="graphics-symbol" aria-roledescription="bar" d="M-12.5,300h25v0h-25Z" fill="#179FDB"/><path aria-label="gx: 0; gy: 0" role="graphics-symbol" aria-roledescription="bar" d="M-12.5,300h25v0h-25Z" fill="#179FDB"/><path aria-label="gx: 0; gy: 0" role="graphics-symbol" aria-roledescription="bar" d="M-12.5,300h25v0h-25Z" fill="#179FDB"/><path aria-label="gx: 0; gy: 0" role="graphics-symbol" aria-roledescription="bar" d="M-12.5,300h25v0h-25Z" fill="#179FDB"/><path aria-label="gx: 0; gy: 0" role="graphics-symbol" aria-roledescription="bar" d="M-12.5,300h25v0h-25Z" fill="#179FDB"/><path aria-label="gx: 0; gy: 0" role="graphics-symbol" aria-roledescription="bar" d="M-12.5,300h25v0h-25Z" fill="#179FDB"/><path aria-label="gx: 0; gy: 0" role="graphics-symbol" aria-roledescription="bar" d="M-12.5,300h25v0h-25Z" fill="#179FDB"/><path aria-label="gx: 0; gy: 0" role="graphics-symbol" aria-roledescription="bar" d="M-12.5,300h25v0h-25Z" fill="#179FDB"/><path aria-label="gx: 0; gy: 0" role="graphics-symbol" aria-roledescription="bar" d="M-12.5,300h25v0h-25Z" fill="#179FDB"/><path aria-label="gx: 0; gy: 0" role="graphics-symbol" aria-roledescription="bar" d="M-12.5,300h25v0h-25Z" fill="#179FDB"/><path aria-label="gx: 0; gy: 0" role="graphics-symbol" aria-roledescription="bar" d="M-12.5,300h25v0h-25Z" fill="#179FDB"/><path aria-label="gx: 0; gy: 0" role="graphics-symbol" aria-roledescription="bar" d="M-12.5,300h25v0h-25Z" fill="#179FDB"/><path aria-label="gx: 0; gy: 0" role="graphics-symbol" aria-roledescription="bar" d="M-12.5,300h25v0h-25Z" fill="#179FDB"/><path aria-label="gx: 0; gy: 0" role="graphics-symbol" aria-roledescription="bar" d="M-12.5,300h25v0h-25Z" fill="#179FDB"/><path aria-label="gx: 0; gy: 0" role="graphics-symbol" aria-roledescription="bar" d="M-12.5,300h25v0h-25Z" fill="#179FDB"/><path aria-label="gx: 0; gy: 0" role="graphics-symbol" aria-roledescription="bar" d="M-12.5,300h25v0h-25Z" fill="#179FDB"/><path aria-label="gx: 0; gy: 0" role="graphics-symbol" aria-roledescription="bar" d="M-12.5,300h25v0h-25Z" fill="#179FDB"/><path aria-label="gx: 0; gy: 0" role="graphics-symbol" aria-roledescription="bar" d="M-12.5,300h25v0h-25Z" fill="#179FDB"/><path aria-label="gx: 0; gy: 0" role="graphics-symbol" aria-roledescription="bar" d="M-12.5,300h25v0h-25Z" fill="#179FDB"/><path aria-label="gx: 0; gy: 0" role="graphics-symbol" aria-roledescription="bar" d="M-12.5,300h25v0h-25Z" fill="#179FDB"/><path aria-label="gx: 0; gy: 0" role="graphics-symbol" aria-roledescription="bar" d="M-12.5,300h25v0h-25Z" fill="#179FDB"/><path aria-label="gx: 0; gy: 0" role="graphics-symbol" aria-roledescription="bar" d="M-12.5,300h25v0h-25Z" fill="#179FDB"/><path aria-label="gx: 0; gy: 0" role="graphics-symbol" aria-roledescription="bar" d="M-12.5,300h25v0h-25Z" fill="#179FDB"/><path aria-label="gx: 0; gy: 0" role="graphics-symbol" aria-roledescription="bar" d="M-12.5,300h25v0h-25Z" fill="#179FDB"/><path aria-label="gx: 0; gy: 0" role="graphics-symbol" aria-roledescription="bar" d="M-12.5,300h25v0h-25Z" fill="#179FDB"/><path aria-label="gx: 0; gy: 0" role="graphics-symbol" aria-roledescription="bar" d="M-12.5,300h25v0h-25Z" fill="#179FDB"/><path aria-label="gx: 0; gy: 0" role="graphics-symbol" aria-roledescription="bar" d="M-12.5,300h25v0h-25Z" fill="#179FDB"/><path aria-label="gx: 0; gy: 0" role="graphics-symbol" aria-roledescription="bar" d="M-12.5,300h25v0h-25Z" fill="#179FDB"/><path aria-label="gx: 0; gy: 0" role="graphics-symbol" aria-roledescription="bar" d="M-12.5,300h25v0h-25Z" fill="#179FDB"/><path aria-label="gx: 0; gy: 0" role="graphics-symbol" aria-roledescription="bar" d="M-12.5,300h25v0h-25Z" fill="#179FDB"/><path aria-label="gx: 0; gy: 0" role="graphics-symbol" aria-roledescription="bar" d="M-12.5,300h25v0h-25Z" fill="#179FDB"/><path aria-label="gx: 0; gy: 0" role="graphics-symbol" aria-roledescription="bar" d="M-12.5,300h25v0h-25Z" fill="#179FDB"/><path aria-label="gx: 0; gy: 0" role="graphics-symbol" aria-roledescription="bar" d="M-12.5,300h25v0h-25Z" fill="#179FDB"/><path aria-label="gx: 0; gy: 0" role="graphics-symbol" aria-roledescription="bar" d="M-12.5,300h25v0h-25Z" fill="#179FDB"/><path aria-label="gx: 0; gy: 0" role="graphics-symbol" aria-roledescription="bar" d="M-12.5,300h25v0h-25Z" fill="#179FDB"/><path aria-label="gx: 0; gy: 0" role="graphics-symbol" aria-roledescription="bar" d="M-12.5,300h25v0h-25Z" fill="#179FDB"/><path aria-label="gx: 0; gy: 0" role="graphics-symbol" aria-roledescription="bar" d="M-12.5,300h25v0h-25Z" fill="#179FDB"/><path aria-label="gx: 0; gy: 0" role="graphics-symbol" aria-roledescription="bar" d="M-12.5,300h25v0h-25Z" fill="#179FDB"/><path aria-label="gx: 0; gy: 0" role="graphics-symbol" aria-roledescription="bar" d="M-12.5,300h25v0h-25Z" fill="#179FDB"/><path aria-label="gx: 0; gy: 0" role="graphics-symbol" aria-roledescription="bar" d="M-12.5,300h25v0h-25Z" fill="#179FDB"/><path aria-label="gx: 0; gy: 0" role="graphics-symbol" aria-roledescription="bar" d="M-12.5,300h25v0h-25Z" fill="#179FDB"/></g></g><path class="foreground" aria-hidden="true" d="" display="none"/></g></g><g class="mark-group role-scope concat_1_group" role="graphics-object" aria-roledescription="group mark container"><g transform="translate(0,385)"><path class="background" aria-hidden="true" d="M0.5,0.5h400v200h-400Z" stroke="#ddd"/><g><g class="mark-group role-axis" role="graphics-symbol" aria-roledescription="axis" aria-label="X-axis for a linear scale with values from 0 to 65"><g transform="translate(0.5,200.5)"><path class="background" aria-hidden="true" d="M0,0h0v0h0Z" pointer-events="none"/><g><g class="mark-rule role-axis-tick" pointer-events="none"><line transform="translate(0,0)" x2="0" y2="5" stroke="#676A86" stroke-width="1" opacity="1"/><line transform="translate(31,0)" x2="0" y2="5" stroke="#676A86" stroke-width="1" opacity="1"/><line transform="translate(62,0)" x2="0" y2="5" stroke="#676A86" stroke-width="1" opacity="1"/><line transform="translate(92,0)" x2="0" y2="5" stroke="#676A86" stroke-width="1" opacity="1"/><line transform="translate(123,0)" x2="0" y2="5" stroke="#676A86" stroke-width="1" opacity="1"/><line transform="translate(154,0)" x2="0" y2="5" stroke="#676A86" stroke-width="1" opacity="1"/><line transform="translate(185,0)" x2="0" y2="5" stroke="#676A86" stroke-width="1" opacity="1"/><line transform="translate(215,0)" x2="0" y2="5" stroke="#676A86" stroke-width="1" opacity="1"/><line transform="translate(246,0)" x2="0" y2="5" stroke="#676A86" stroke-width="1" opacity="1"/><line transform="translate(277,0)" x2="0" y2="5" stroke="#676A86" stroke-width="1" opacity="1"/><line transform="translate(308,0)" x2="0" y2="5" stroke="#676A86" stroke-width="1" opacity="1"/><line transform="translate(338,0)" x2="0" y2="5" stroke="#676A86" stroke-width="1" opacity="1"/><line transform="translate(369,0)" x2="0" y2="5" stroke="#676A86" stroke-width="1" opacity="1"/><line transform="translate(400,0)" x2="0" y2="5" stroke="#676A86" stroke-width="1" opacity="1"/></g><g class="mark-text role-axis-label" pointer-events="none"><text text-anchor="start" transform="translate(0,15)" font-family="sans-serif" font-size="10px" fill="#676A86" opacity="1">0</text><text text-anchor="middle" transform="translate(30.76923076923077,15)" font-family="sans-serif" font-size="10px" fill="#676A86" opacity="1">5</text><text text-anchor="middle" transform="translate(61.53846153846154,15)" font-family="sans-serif" font-size="10px" fill="#676A86" opacity="1">10</text><text text-anchor="middle" transform="translate(92.3076923076923,15)" font-family="sans-serif" font-size="10px" fill="#676A86" opacity="1">15</text><text text-anchor="middle" transform="translate(123.07692307692308,15)" font-family="sans-serif" font-size="10px" fill="#676A86" opacity="1">20</text><text text-anchor="middle" transform="translate(153.84615384615387,15)" font-family="sans-serif" font-size="10px" fill="#676A86" opacity="1">25</text><text text-anchor="middle" transform="translate(184.6153846153846,15)" font-family="sans-serif" font-size="10px" fill="#676A86" opacity="1">30</text><text text-anchor="middle" transform="translate(215.3846153846154,15)" font-family="sans-serif" font-size="10px" fill="#676A86" opacity="1">35</text><text text-anchor="middle" transform="translate(246.15384615384616,15)" font-family="sans-serif" font-size="10px" fill="#676A86" opacity="1">40</text><text text-anchor="middle" transform="translate(276.9230769230769,15)" font-family="sans-serif" font-size="10px" fill="#676A86" opacity="1">45</text><text text-anchor="middle" transform="translate(307.69230769230774,15)" font-family="sans-serif" font-size="10px" fill="#676A86" opacity="1">50</text><text text-anchor="middle" transform="translate(338.46153846153845,15)" font-family="sans-serif" font-size="10px" fill="#676A86" opacity="1">55</text><text text-anchor="middle" transform="translate(369.2307692307692,15)" font-family="sans-serif" font-size="10px" fill="#676A86" opacity="1">60</text><text text-anchor="end" transform="translate(400,15)" font-family="sans-serif" font-size="10px" fill="#676A86" opacity="1">65</text></g><g class="mark-rule role-axis-domain" pointer-events="none"><line transform="translate(0,0)" x2="400" y2="0" stroke="#676A86" stroke-width="1" opacity="1"/></g></g><path class="foreground" aria-hidden="true" d="" pointer-events="none" display="none"/></g></g><g class="mark-group role-axis" role="graphics-symbol" aria-roledescription="axis" aria-label="Y-axis titled 'COVID-19 death rates per million on growth rates civil disorder between 2020 and 2021  with 90% confidence band' for a linear scale with values from −2 to 4"><g transform="translate(0.5,0.5)"><path class="background" aria-hidden="true" d="M0,0h0v0h0Z" pointer-events="none"/><g><g class="mark-rule role-axis-tick" pointer-events="none"><line transform="translate(0,200)" x2="-5" y2="0" stroke="#676A86" stroke-width="1" opacity="1"/><line transform="translate(0,164)" x2="-5" y2="0" stroke="#676A86" stroke-width="1" opacity="1"/><line transform="translate(0,127)" x2="-5" y2="0" stroke="#676A86" stroke-width="1" opacity="1"/><line transform="translate(0,91)" x2="-5" y2="0" stroke="#676A86" stroke-width="1" opacity="1"/><line transform="translate(0,55)" x2="-5" y2="0" stroke="#676A86" stroke-width="1" opacity="1"/><line transform="translate(0,18)" x2="-5" y2="0" stroke="#676A86" stroke-width="1" opacity="1"/></g><g class="mark-text role-axis-label" pointer-events="none"><text text-anchor="end" transform="translate(-7,203)" font-family="sans-serif" font-size="10px" fill="#676A86" opacity="1">−2</text><text text-anchor="end" transform="translate(-7,166.63636363636363)" font-family="sans-serif" font-size="10px" fill="#676A86" opacity="1">−1</text><text text-anchor="end" transform="translate(-7,130.27272727272725)" font-family="sans-serif" font-size="10px" fill="#676A86" opacity="1">0</text><text text-anchor="end" transform="translate(-7,93.90909090909092)" font-family="sans-serif" font-size="10px" fill="#676A86" opacity="1">1</text><text text-anchor="end" transform="translate(-7,57.54545454545454)" font-family="sans-serif" font-size="10px" fill="#676A86" opacity="1">2</text><text text-anchor="end" transform="translate(-7,21.181818181818187)" font-family="sans-serif" font-size="10px" fill="#676A86" opacity="1">3</text></g><g class="mark-rule role-axis-domain" pointer-events="none"><line transform="translate(0,200)" x2="0" y2="-200" stroke="#676A86" stroke-width="1" opacity="1"/></g><g class="mark-text role-axis-title" pointer-events="none"><text text-anchor="start" transform="translate(-5,-37)" font-family="sans-serif" font-size="11px" font-weight="bold" fill="#676A86" opacity="1"><tspan>COVID-19 death rates per million on</tspan><tspan x="0" dy="13">growth rates civil disorder between 2020 and 2021</tspan><tspan x="0" dy="13">with 90% confidence band</tspan></text></g></g><path class="foreground" aria-hidden="true" d="" pointer-events="none" display="none"/></g></g><g class="mark-area role-mark concat_1_layer_0_marks" role="graphics-object" aria-roledescription="area mark container"><path aria-label="x: 0; y2r: NaN; y3r: NaN" role="graphics-symbol" aria-roledescription="area mark" fill="#0063AF" opacity="0.1"/></g><g class="mark-line role-mark concat_1_layer_1_marks" role="graphics-object" aria-roledescription="line mark container"><path aria-label="x1: 0.112775784753; y1: 3.21965028809" role="graphics-symbol" aria-roledescription="line mark" d="M0.6940048292514689,10.194534978465853L4.56259399793033,11.772312594575718L8.431183166609179,14.13897901874057L12.299772335288042,15.716756634850459L16.168361503966892,17.13675648934936L20.03695067264574,19.503422913514168L23.905539841324604,21.081200529624056L27.774129010003453,22.816755907344934L31.642718178682312,25.025644569898752L35.51130734736117,26.60342218600862L39.37989651604003,28.812310848562483L42.764912038634016,29.758977418228415L47.117074853397725,32.441199365615226L50.50209037599171,33.54564369689213L54.85425319075544,36.22786564427896L58.72284235943429,37.64786549877783L62.59143152811315,39.38342087649871L66.62121191215363,41.329346603034246L71.29575715764058,43.801198201606375L74.68077268023457,44.90564253288327L78.87174427963667,47.219716369844434L82.90152466367714,49.007864334769L86.60892261699436,51.00638264850814L90.63870300103484,52.79453061343269L94.5072921697137,54.68786375276453L98.53707255375416,56.476011717689104L102.2444705070714,58.47453003142826L106.27425089111189,60.262677996352835L110.78760492123723,62.366381484499286L114.81738530527767,63.68119616459087L118.68597447395659,65.25897378070076L122.5545636426354,67.62564020486559L126.26196159595264,68.67749194893884L130.45293319535475,70.36045473945605L135.12747844084168,72.83230633802819L138.51249396343567,73.93675066930511L142.86465677819945,76.6189726166919L146.7332459468783,77.88119470957982L150.44064390019548,80.03749078492999L154.47042428423597,81.82563874985453L158.17782223755324,83.8241570635937L162.36879383695526,85.50711985411093L166.07619179027253,87.50563816785011L169.94478095895138,88.92563802234899L174.78051741979993,91.76563773134676L178.6491065884788,93.18563758584568L182.51769575715767,94.92119296356655L186.5474761411981,96.86711869010209L190.25487409451534,98.86563700384127L194.28465447855586,100.65378496876578L197.99205243187308,102.81008104411598L201.8606416005519,104.07230313700384L206.69637806140048,106.91230284600167L210.08139358399453,108.01674717727856L214.27236518339657,110.33082101423975L218.30214556743707,112.11896897916426L222.00954352075425,114.11748729290345L226.2005151201564,115.80045008342066L229.90791307347368,118.1145239203818L233.77650224215247,119.21896825165874L237.1615177647465,120.63896810615762L241.5136805795102,123.32119005354443L245.38226974818906,125.0567454312653L249.0896677015063,126.52933787296786L252.6358744394619,128.63304136111438L256.82684603886395,130.52637450044625L260.85662642290447,132.3145224653708L264.56402437622165,134.31304077910994L268.5938047602622,136.25896650564547L272.462393928941,137.99452188336633L276.49217431298155,139.78266984829085L281.16671955846846,142.254521446863L285.0353087271473,143.6745213013619L288.9038978958262,145.41007667908278L292.9336782798667,147.3560024056183L296.64107623318387,149.35452071935748L300.67085661722433,151.142668684282L304.37825457054157,153.29896475963218L308.2468437392204,154.56118685252008L313.082580200069,157.4011865615179L316.467595722663,158.5056308927948L320.65856732206504,160.81970472975598L324.68834770610556,162.6078526946805L328.3957456594228,164.6063710084197L332.58671725882493,166.2893337989369L336.2941152121421,168.60340763589804L340.16270438082097,169.707851967175L343.54771990341493,171.12785182167386L347.89988271817873,173.81007376906066L351.28489824077275,174.91451810033757L355.63706105553644,177.59674004772435L359.50565022421523,178.85896214061228L363.21304817753247,181.01525821596246L367.242828561573,182.961183942498L370.95022651489023,184.8019244946262L375.1411981142923,186.48488728514337L379.8157433597793,188.3256278372716L383.6843325284581,190.06118321499247L387.552921697137,191.6389608311023L390.93793721973094,193.42710879602686L395.128908819133,194.89970123772946L398.19154191100387,196.05673815621" stroke="#0063AF" stroke-width="2"/></g></g><path class="foreground" aria-hidden="true" d="" display="none"/></g></g></g><path class="foreground" aria-hidden="true" d="" display="none"/></g></g></g></svg>