<svg xmlns="http://www.w3.org/2000/svg" xmlns:xlink="http://www.w3.org/1999/xlink" version="1.1" class="marks" width="432" height="630" viewBox="0 0 432 630"><rect width="432" height="630" fill="white"/><g fill="none" stroke-miterlimit="10" transform="translate(25,22)"><g class="mark-group role-frame root" role="graphics-object" aria-roledescription="group mark container"><g transform="translate(0,0)"><path class="background" aria-hidden="true" d="M0,0h400v0h-400Z"/><g><g class="mark-group role-scope concat_0_group" role="graphics-object" aria-roledescription="group mark container"><g transform="translate(0,0)"><path class="background" aria-hidden="true" d="M0.5,0.5h400v300h-400Z" stroke="#ddd"/><g><g class="mark-group role-axis" role="graphics-symbol" aria-roledescription="axis" aria-label="X-axis titled 'Macrofinanacial packages as % of GDP' for a linear scale with values from 0 to 65"><g transform="translate(0.5,300.5)"><path class="background" aria-hidden="true" d="M0,0h0v0h0Z" pointer-events="none"/><g><g class="mark-rule role-axis-tick" pointer-events="none"><line transform="translate(0,0)" x2="0" y2="5" stroke="#676A86" stroke-width="1" opacity="1"/><line transform="translate(31,0)" x2="0" y2="5" stroke="#676A86" stroke-width="1" opacity="1"/><line transform="translate(62,0)" x2="0" y2="5" stroke="#676A86" stroke-width="1" opacity="1"/><line transform="translate(92,0)" x2="0" y2="5" stroke="#676A86" stroke-width="1" opacity="1"/><line transform="translate(123,0)" x2="0" y2="5" stroke="#676A86" stroke-width="1" opacity="1"/><line transform="translate(154,0)" x2="0" y2="5" stroke="#676A86" stroke-width="1" opacity="1"/><line transform="translate(185,0)" x2="0" y2="5" stroke="#676A86" stroke-width="1" opacity="1"/><line transform="translate(215,0)" x2="0" y2="5" stroke="#676A86" stroke-width="1" opacity="1"/><line transform="translate(246,0)" x2="0" y2="5" stroke="#676A86" stroke-width="1" opacity="1"/><line transform="translate(277,0)" x2="0" y2="5" stroke="#676A86" stroke-width="1" opacity="1"/><line transform="translate(308,0)" x2="0" y2="5" stroke="#676A86" stroke-width="1" opacity="1"/><line transform="translate(338,0)" x2="0" y2="5" stroke="#676A86" stroke-width="1" opacity="1"/><line transform="translate(369,0)" x2="0" y2="5" stroke="#676A86" stroke-width="1" opacity="1"/><line transform="translate(400,0)" x2="0" y2="5" stroke="#676A86" stroke-width="1" opacity="1"/></g><g class="mark-text role-axis-label" pointer-events="none"><text text-anchor="start" transform="translate(0,15)" font-family="sans-serif" font-size="10px" fill="#676A86" opacity="1">0</text><text text-anchor="middle" transform="translate(30.76923076923077,15)" font-family="sans-serif" font-size="10px" fill="#676A86" opacity="1">5</text><text text-anchor="middle" transform="translate(61.53846153846154,15)" font-family="sans-serif" font-size="10px" fill="#676A86" opacity="1">10</text><text text-anchor="middle" transform="translate(92.3076923076923,15)" font-family="sans-serif" font-size="10px" fill="#676A86" opacity="1">15</text><text text-anchor="middle" transform="translate(123.07692307692308,15)" font-family="sans-serif" font-size="10px" fill="#676A86" opacity="1">20</text><text text-anchor="middle" transform="translate(153.84615384615387,15)" font-family="sans-serif" font-size="10px" fill="#676A86" opacity="1">25</text><text text-anchor="middle" transform="translate(184.6153846153846,15)" font-family="sans-serif" font-size="10px" fill="#676A86" opacity="1">30</text><text text-anchor="middle" transform="translate(215.3846153846154,15)" font-family="sans-serif" font-size="10px" fill="#676A86" opacity="1">35</text><text text-anchor="middle" transform="translate(246.15384615384616,15)" font-family="sans-serif" font-size="10px" fill="#676A86" opacity="1">40</text><text text-anchor="middle" transform="translate(276.9230769230769,15)" font-family="sans-serif" font-size="10px" fill="#676A86" opacity="1">45</text><text text-anchor="middle" transform="translate(307.69230769230774,15)" font-family="sans-serif" font-size="10px" fill="#676A86" opacity="1">50</text><text text-anchor="middle" transform="translate(338.46153846153845,15)" font-family="sans-serif" font-size="10px" fill="#676A86" opacity="1">55</text><text text-anchor="middle" transform="translate(369.2307692307692,15)" font-family="sans-serif" font-size="10px" fill="#676A86" opacity="1">60</text><text text-anchor="end" transform="translate(400,15)" font-family="sans-serif" font-size="10px" fill="#676A86" opacity="1">65</text></g><g class="mark-rule role-axis-domain" pointer-events="none"><line transform="translate(0,0)" x2="400" y2="0" stroke="#676A86" stroke-width="1" opacity="1"/></g><g class="mark-text role-axis-title" pointer-events="none"><text text-anchor="end" transform="translate(400,-21)" font-family="sans-serif" font-size="11px" font-weight="bold" fill="#676A86" opacity="1">Macrofinanacial packages as % of GDP</text></g></g><path class="foreground" aria-hidden="true" d="" pointer-events="none" display="none"/></g></g><g class="mark-group role-axis" role="graphics-symbol" aria-roledescription="axis" aria-label="Y-axis titled 'Distribution over countries (%)' for a linear scale with values from 0 to 55"><g transform="translate(0.5,0.5)"><path class="background" aria-hidden="true" d="M0,0h0v0h0Z" pointer-events="none"/><g><g class="mark-rule role-axis-tick" pointer-events="none"><line transform="translate(0,300)" x2="-5" y2="0" stroke="#676A86" stroke-width="1" opacity="1"/><line transform="translate(0,273)" x2="-5" y2="0" stroke="#676A86" stroke-width="1" opacity="1"/><line transform="translate(0,245)" x2="-5" y2="0" stroke="#676A86" stroke-width="1" opacity="1"/><line transform="translate(0,218)" x2="-5" y2="0" stroke="#676A86" stroke-width="1" opacity="1"/><line transform="translate(0,191)" x2="-5" y2="0" stroke="#676A86" stroke-width="1" opacity="1"/><line transform="translate(0,164)" x2="-5" y2="0" stroke="#676A86" stroke-width="1" opacity="1"/><line transform="translate(0,136)" x2="-5" y2="0" stroke="#676A86" stroke-width="1" opacity="1"/><line transform="translate(0,109)" x2="-5" y2="0" stroke="#676A86" stroke-width="1" opacity="1"/><line transform="translate(0,82)" x2="-5" y2="0" stroke="#676A86" stroke-width="1" opacity="1"/><line transform="translate(0,55)" x2="-5" y2="0" stroke="#676A86" stroke-width="1" opacity="1"/><line transform="translate(0,27)" x2="-5" y2="0" stroke="#676A86" stroke-width="1" opacity="1"/><line transform="translate(0,0)" x2="-5" y2="0" stroke="#676A86" stroke-width="1" opacity="1"/></g><g class="mark-text role-axis-label" pointer-events="none"><text text-anchor="end" transform="translate(-7,303)" font-family="sans-serif" font-size="10px" fill="#676A86" opacity="1">0</text><text text-anchor="end" transform="translate(-7,275.7272727272727)" font-family="sans-serif" font-size="10px" fill="#676A86" opacity="1">5</text><text text-anchor="end" transform="translate(-7,248.45454545454544)" font-family="sans-serif" font-size="10px" fill="#676A86" opacity="1">10</text><text text-anchor="end" transform="translate(-7,221.1818181818182)" font-family="sans-serif" font-size="10px" fill="#676A86" opacity="1">15</text><text text-anchor="end" transform="translate(-7,193.9090909090909)" font-family="sans-serif" font-size="10px" fill="#676A86" opacity="1">20</text><text text-anchor="end" transform="translate(-7,166.63636363636363)" font-family="sans-serif" font-size="10px" fill="#676A86" opacity="1">25</text><text text-anchor="end" transform="translate(-7,139.36363636363637)" font-family="sans-serif" font-size="10px" fill="#676A86" opacity="1">30</text><text text-anchor="end" transform="translate(-7,112.0909090909091)" font-family="sans-serif" font-size="10px" fill="#676A86" opacity="1">35</text><text text-anchor="end" transform="translate(-7,84.81818181818181)" font-family="sans-serif" font-size="10px" fill="#676A86" opacity="1">40</text><text text-anchor="end" transform="translate(-7,57.54545454545453)" font-family="sans-serif" font-size="10px" fill="#676A86" opacity="1">45</text><text text-anchor="end" transform="translate(-7,30.27272727272728)" font-family="sans-serif" font-size="10px" fill="#676A86" opacity="1">50</text><text text-anchor="end" transform="translate(-7,3)" font-family="sans-serif" font-size="10px" fill="#676A86" opacity="1">55</text></g><g class="mark-rule role-axis-domain" pointer-events="none"><line transform="translate(0,300)" x2="0" y2="-300" stroke="#676A86" stroke-width="1" opacity="1"/></g><g class="mark-text role-axis-title" pointer-events="none"><text text-anchor="start" transform="translate(-5,-7)" font-family="sans-serif" font-size="11px" font-weight="bold" fill="#676A86" opacity="1">Distribution over countries (%)</text></g></g><path class="foreground" aria-hidden="true" d="" pointer-events="none" display="none"/></g></g><g class="mark-rect role-mark concat_0_marks" role="graphics-object" aria-roledescription="rect mark container"><path aria-label="gx: 2.98051873199; gy: 51.747311828" role="graphics-symbol" aria-roledescription="bar" d="M5.841653735313681,17.741935483870954h25v282.258064516129h-25Z" fill="#179FDB"/><path aria-label="gx: 9.18993275696; gy: 18.4139784946" role="graphics-symbol" aria-roledescription="bar" d="M44.0534323505505,199.56011730205273h25v100.43988269794727h-25Z" fill="#179FDB"/><path aria-label="gx: 15.6477233429; gy: 14.0456989247" role="graphics-symbol" aria-roledescription="bar" d="M83.79368211039682,223.38709677419348h25v76.61290322580652h-25Z" fill="#179FDB"/><path aria-label="gx: 22.4780787704; gy: 5.30913978495" role="graphics-symbol" aria-roledescription="bar" d="M125.82663858715733,271.0410557184751h25v28.958944281524907h-25Z" fill="#179FDB"/><path aria-label="gx: 29.0600576369; gy: 7.0564516129" role="graphics-symbol" aria-roledescription="bar" d="M166.33112391930837,261.51026392961876h25v38.48973607038124h-25Z" fill="#179FDB"/><path aria-label="gx: 35.4557540826; gy: 0.940860215054" role="graphics-symbol" aria-roledescription="bar" d="M205.68925589300227,294.8680351906158h25v5.131964809384215h-25Z" fill="#179FDB"/><path aria-label="gx: 41.9135446686; gy: 1.88172043011" role="graphics-symbol" aria-roledescription="bar" d="M245.42950565284866,289.7360703812316h25v10.263929618768373h-25Z" fill="#179FDB"/><path aria-label="gx: 61.659481268; gy: 0.940860215054" role="graphics-symbol" aria-roledescription="bar" d="M366.94296164930176,294.8680351906158h25v5.131964809384215h-25Z" fill="#179FDB"/></g></g><path class="foreground" aria-hidden="true" d="" display="none"/></g></g><g class="mark-group role-scope concat_1_group" role="graphics-object" aria-roledescription="group mark container"><g transform="translate(0,385)"><path class="background" aria-hidden="true" d="M0.5,0.5h400v200h-400Z" stroke="#ddd"/><g><g class="mark-group role-axis" role="graphics-symbol" aria-roledescription="axis" aria-label="X-axis for a linear scale with values from 0 to 65"><g transform="translate(0.5,200.5)"><path class="background" aria-hidden="true" d="M0,0h0v0h0Z" pointer-events="none"/><g><g class="mark-rule role-axis-tick" pointer-events="none"><line transform="translate(0,0)" x2="0" y2="5" stroke="#676A86" stroke-width="1" opacity="1"/><line transform="translate(31,0)" x2="0" y2="5" stroke="#676A86" stroke-width="1" opacity="1"/><line transform="translate(62,0)" x2="0" y2="5" stroke="#676A86" stroke-width="1" opacity="1"/><line transform="translate(92,0)" x2="0" y2="5" stroke="#676A86" stroke-width="1" opacity="1"/><line transform="translate(123,0)" x2="0" y2="5" stroke="#676A86" stroke-width="1" opacity="1"/><line transform="translate(154,0)" x2="0" y2="5" stroke="#676A86" stroke-width="1" opacity="1"/><line transform="translate(185,0)" x2="0" y2="5" stroke="#676A86" stroke-width="1" opacity="1"/><line transform="translate(215,0)" x2="0" y2="5" stroke="#676A86" stroke-width="1" opacity="1"/><line transform="translate(246,0)" x2="0" y2="5" stroke="#676A86" stroke-width="1" opacity="1"/><line transform="translate(277,0)" x2="0" y2="5" stroke="#676A86" stroke-width="1" opacity="1"/><line transform="translate(308,0)" x2="0" y2="5" stroke="#676A86" stroke-width="1" opacity="1"/><line transform="translate(338,0)" x2="0" y2="5" stroke="#676A86" stroke-width="1" opacity="1"/><line transform="translate(369,0)" x2="0" y2="5" stroke="#676A86" stroke-width="1" opacity="1"/><line transform="translate(400,0)" x2="0" y2="5" stroke="#676A86" stroke-width="1" opacity="1"/></g><g class="mark-text role-axis-label" pointer-events="none"><text text-anchor="start" transform="translate(0,15)" font-family="sans-serif" font-size="10px" fill="#676A86" opacity="1">0</text><text text-anchor="middle" transform="translate(30.76923076923077,15)" font-family="sans-serif" font-size="10px" fill="#676A86" opacity="1">5</text><text text-anchor="middle" transform="translate(61.53846153846154,15)" font-family="sans-serif" font-size="10px" fill="#676A86" opacity="1">10</text><text text-anchor="middle" transform="translate(92.3076923076923,15)" font-family="sans-serif" font-size="10px" fill="#676A86" opacity="1">15</text><text text-anchor="middle" transform="translate(123.07692307692308,15)" font-family="sans-serif" font-size="10px" fill="#676A86" opacity="1">20</text><text text-anchor="middle" transform="translate(153.84615384615387,15)" font-family="sans-serif" font-size="10px" fill="#676A86" opacity="1">25</text><text text-anchor="middle" transform="translate(184.6153846153846,15)" font-family="sans-serif" font-size="10px" fill="#676A86" opacity="1">30</text><text text-anchor="middle" transform="translate(215.3846153846154,15)" font-family="sans-serif" font-size="10px" fill="#676A86" opacity="1">35</text><text text-anchor="middle" transform="translate(246.15384615384616,15)" font-family="sans-serif" font-size="10px" fill="#676A86" opacity="1">40</text><text text-anchor="middle" transform="translate(276.9230769230769,15)" font-family="sans-serif" font-size="10px" fill="#676A86" opacity="1">45</text><text text-anchor="middle" transform="translate(307.69230769230774,15)" font-family="sans-serif" font-size="10px" fill="#676A86" opacity="1">50</text><text text-anchor="middle" transform="translate(338.46153846153845,15)" font-family="sans-serif" font-size="10px" fill="#676A86" opacity="1">55</text><text text-anchor="middle" transform="translate(369.2307692307692,15)" font-family="sans-serif" font-size="10px" fill="#676A86" opacity="1">60</text><text text-anchor="end" transform="translate(400,15)" font-family="sans-serif" font-size="10px" fill="#676A86" opacity="1">65</text></g><g class="mark-rule role-axis-domain" pointer-events="none"><line transform="translate(0,0)" x2="400" y2="0" stroke="#676A86" stroke-width="1" opacity="1"/></g></g><path class="foreground" aria-hidden="true" d="" pointer-events="none" display="none"/></g></g><g class="mark-group role-axis" role="graphics-symbol" aria-roledescription="axis" aria-label="Y-axis titled 'COVID-19 death rates per million on growth rates civil disorder between 2020 and 2021  with 90% confidence band' for a linear scale with values from −6 to 5"><g transform="translate(0.5,0.5)"><path class="background" aria-hidden="true" d="M0,0h0v0h0Z" pointer-events="none"/><g><g class="mark-rule role-axis-tick" pointer-events="none"><line transform="translate(0,200)" x2="-5" y2="0" stroke="#676A86" stroke-width="1" opacity="1"/><line transform="translate(0,164)" x2="-5" y2="0" stroke="#676A86" stroke-width="1" opacity="1"/><line transform="translate(0,127)" x2="-5" y2="0" stroke="#676A86" stroke-width="1" opacity="1"/><line transform="translate(0,91)" x2="-5" y2="0" stroke="#676A86" stroke-width="1" opacity="1"/><line transform="translate(0,55)" x2="-5" y2="0" stroke="#676A86" stroke-width="1" opacity="1"/><line transform="translate(0,18)" x2="-5" y2="0" stroke="#676A86" stroke-width="1" opacity="1"/></g><g class="mark-text role-axis-label" pointer-events="none"><text text-anchor="end" transform="translate(-7,203)" font-family="sans-serif" font-size="10px" fill="#676A86" opacity="1">−6</text><text text-anchor="end" transform="translate(-7,166.63636363636363)" font-family="sans-serif" font-size="10px" fill="#676A86" opacity="1">−4</text><text text-anchor="end" transform="translate(-7,130.27272727272725)" font-family="sans-serif" font-size="10px" fill="#676A86" opacity="1">−2</text><text text-anchor="end" transform="translate(-7,93.90909090909092)" font-family="sans-serif" font-size="10px" fill="#676A86" opacity="1">0</text><text text-anchor="end" transform="translate(-7,57.54545454545454)" font-family="sans-serif" font-size="10px" fill="#676A86" opacity="1">2</text><text text-anchor="end" transform="translate(-7,21.181818181818187)" font-family="sans-serif" font-size="10px" fill="#676A86" opacity="1">4</text></g><g class="mark-rule role-axis-domain" pointer-events="none"><line transform="translate(0,200)" x2="0" y2="-200" stroke="#676A86" stroke-width="1" opacity="1"/></g><g class="mark-text role-axis-title" pointer-events="none"><text text-anchor="start" transform="translate(-5,-37)" font-family="sans-serif" font-size="11px" font-weight="bold" fill="#676A86" opacity="1"><tspan>COVID-19 death rates per million on</tspan><tspan x="0" dy="13">growth rates civil disorder between 2020 and 2021</tspan><tspan x="0" dy="13">with 90% confidence band</tspan></text></g></g><path class="foreground" aria-hidden="true" d="" pointer-events="none" display="none"/></g></g><g class="mark-area role-mark concat_1_layer_0_marks" role="graphics-object" aria-roledescription="area mark container"><path aria-label="x: 1; y2r: 4.33908350672; y3r: 1.94707639778" role="graphics-symbol" aria-roledescription="area mark" d="M6.153846153846154,12.0166635141427L12.307692307692308,13.673330011058106L18.461538461538463,15.408885388778959L24.615384615384617,18.248885097776736L30.76923076923077,18.958885025026206L36.92307692307693,21.8777736148295L43.07692307692308,23.37666235013387L49.23076923076923,24.954439966243758L55.38461538461539,27.584069326426874L61.53846153846154,28.16258778566718L67.6923076923077,29.97703204419353L73.84615384615385,31.475920779497947L80,32.422587349163855L86.15384615384616,33.632216854848096L92.3076923076923,34.894438947736006L98.46153846153847,36.84036467427154L104.61538461538463,37.78703124393745L110.76923076923077,38.44443858398323L116.92307692307693,39.07554963042721L123.07692307692308,39.86443843848215L129.23076923076923,40.653327246537096L135.3846153846154,41.442216054592016L141.53846153846155,41.99443822023048L147.6923076923077,42.54666038586896L153.84615384615387,43.0988825515074L160,43.65110471714586L166.15384615384616,44.203326882784296L172.30769230769232,44.75554904842276L178.46153846153848,45.6233267372832L184.6153846153846,46.14925260931984L190.76923076923077,46.359622958134494L196.92307692307693,46.780363655763765L203.07692307692307,46.99073400457843L209.23076923076925,47.41147470220775L215.3846153846154,47.621845051022405L221.53846153846155,48.042585748651724L227.69230769230768,48.25295609746638L233.84615384615387,48.67369679509566L240,48.884067143910315L246.15384615384616,49.40999301594693L252.3076923076923,49.93591888798357L258.46153846153845,50.146289236798225L264.6153846153846,50.43554846641838L270.7692307692308,50.67221510883484L276.9230769230769,50.82999287044581L283.0769230769231,51.19814098087146L289.2307692307692,51.408511329686114L295.3846153846154,51.829252027315405L301.53846153846155,52.03962237613007L307.69230769230774,52.40777048655572L313.84615384615387,52.565548248166685L320,52.72332600977769L326.15384615384613,53.091474120203316L332.3076923076923,53.30184446901798L338.46153846153845,53.638437027121434L344.61538461538464,53.7646592364102L350.7692307692308,53.89088144569902L356.92307692307696,54.0171036549878L363.0769230769231,54.353696213091226L369.2307692307692,54.56406656190589L375.38461538461536,54.774436910720524L381.53846153846155,54.98480725953519L387.6923076923077,55.195177608349844L393.84615384615387,55.40554795716448L400,55.40554795716448L400,193.9471539983704L393.84615384615387,191.8519380747294L387.6923076923077,189.75672215108835L381.53846153846155,187.66150622744735L375.38461538461536,185.56629030380634L369.2307692307692,183.4710743801653L363.0769230769231,181.3758584565243L356.92307692307696,179.28064253288326L350.7692307692308,174.7243793338544L344.61538461538464,172.26333205846652L338.46153846153845,169.80228478307865L332.3076923076923,167.34123750769078L326.15384615384613,164.8801902323029L320,162.41914295691504L313.84615384615387,157.63007798859272L307.69230769230774,155.30206029565824L301.53846153846155,152.97404260272378L295.3846153846154,150.6460249097893L289.2307692307692,148.31800721685485L283.0769230769231,145.98998952392037L276.9230769230769,141.50024111611822L270.7692307692308,139.3385104012505L264.6153846153846,137.17677968638276L258.46153846153845,135.01504897151503L252.3076923076923,132.85331825664733L246.15384615384616,130.6915875417796L240,126.26003957630081L233.84615384615387,123.99022232568967L227.69230769230768,121.7204050750786L221.53846153846155,119.45058782446748L215.3846153846154,117.18077057385639L209.23076923076925,114.91095332324525L203.07692307692307,112.64113607263417L196.92307692307693,108.25023603512722L190.76923076923077,106.12915324823136L184.6153846153846,104.0080704613355L178.46153846153848,101.88698767443967L172.30769230769232,99.76590488754383L166.15384615384616,97.64482210064797L160,95.52373931375213L153.84615384615387,93.40265652685629L147.6923076923077,89.51228029333025L141.53846153846155,87.74298684670005L135.3846153846154,85.97369340006986L129.23076923076923,84.20439995343966L123.07692307692308,80.80549412175534L116.92307692307693,79.1758817367012L110.76923076923077,77.54626935164708L104.61538461538463,75.91665696659295L98.46153846153847,74.28704458153884L92.3076923076923,71.30718193458272L86.15384615384616,69.95693167268074L80,68.60668141077875L73.84615384615385,67.25643114887676L67.6923076923077,64.97497380980097L61.53846153846154,64.04376673262719L55.38461538461539,63.112559655453396L49.23076923076923,62.181352578279615L43.07692307692308,60.396539013696525L36.92307692307693,59.54293252628722L30.76923076923077,58.68932603887791L24.615384615384617,57.8357195514686L18.461538461538463,56.98211306405929L12.307692307692308,55.81810421759208L6.153846153846154,55.507701858534155Z" fill="#0063AF" opacity="0.1"/></g><g class="mark-line role-mark concat_1_layer_1_marks" role="graphics-object" aria-roledescription="line mark container"><path aria-label="x1: 0.112775784753; y1: 3.21965028809" role="graphics-symbol" aria-roledescription="line mark" d="M0.6940048292514689,32.369994761960186L4.56259399793033,33.15888357001513L8.431183166609179,34.342216782097545L12.299772335288042,35.131105590152515L16.168361503966892,35.84110551740194L20.03695067264574,37.02443872948435L23.905539841324604,37.8133275375393L27.774129010003453,38.68110522639974L31.642718178682312,39.78554955767668L35.51130734736117,40.57443836573158L39.37989651604003,41.678882697008525L42.764912038634016,42.15221598184149L47.117074853397725,43.49332695553487L50.50209037599171,44.04554912117333L54.85425319075544,45.38666009486674L58.72284235943429,46.09666002211619L62.59143152811315,46.964437710976625L66.62121191215363,47.93740057424438L71.29575715764058,49.17332637353047L74.68077268023457,49.725548539168905L78.87174427963667,50.8825854576495L82.90152466367714,51.77665944011176L86.60892261699436,52.77591859698134L90.63870300103484,53.66999257944363L94.5072921697137,54.61665914910954L98.53707255375416,55.51073313157182L102.2444705070714,56.5099922884414L106.27425089111189,57.404066270903684L110.78760492123723,58.455918014976916L114.81738530527767,59.113325355022695L118.68597447395659,59.90221416307764L122.5545636426354,61.085547375160075L126.26196159595264,61.61147324719669L130.45293319535475,62.4529546424553L135.12747844084168,63.68888044174137L138.51249396343567,64.24110260737983L142.86465677819945,65.58221358107323L146.7332459468783,66.2133246275172L150.44064390019548,67.29147266519226L154.47042428423597,68.18554664765453L158.17782223755324,69.18480580452413L162.36879383695526,70.02628719978274L166.07619179027253,71.02554635665233L169.94478095895138,71.73554628390177L174.78051741979993,73.15554613840065L178.6491065884788,73.86554606565012L182.51769575715767,74.73332375451056L186.5474761411981,75.70628661777832L190.25487409451534,76.7055457746479L194.28465447855586,77.59961975711016L197.99205243187308,78.67776779478525L201.8606416005519,79.30887884122919L206.69637806140048,80.72887869572811L210.08139358399453,81.28110086136655L214.27236518339657,82.43813777984714L218.30214556743707,83.3322117623094L222.00954352075425,84.33147091917901L226.2005151201564,85.1729523144376L229.90791307347368,86.32998923291817L233.77650224215247,86.88221139855665L237.1615177647465,87.59221132580608L241.5136805795102,88.93332229949948L245.38226974818906,89.80109998835992L249.0896677015063,90.5373962092112L252.6358744394619,91.58924795328447L256.82684603886395,92.5359145229504L260.85662642290447,93.42998850541267L264.56402437622165,94.42924766228225L268.5938047602622,95.40221052555002L272.462393928941,96.26998821441045L276.49217431298155,97.1640621968727L281.16671955846846,98.39998799615879L285.0353087271473,99.10998792340821L288.9038978958262,99.97776561226866L292.9336782798667,100.95072847553644L296.64107623318387,101.94998763240602L300.67085661722433,102.84406161486828L304.37825457054157,103.92220965254336L308.2468437392204,104.5533206989873L313.082580200069,105.97332055348623L316.467595722663,106.52554271912469L320.65856732206504,107.68257963760526L324.68834770610556,108.57665362006752L328.3957456594228,109.57591277693712L332.58671725882493,110.41739417219571L336.2941152121421,111.57443109067628L340.16270438082097,112.12665325631477L343.54771990341493,112.8366531835642L347.89988271817873,114.17776415725763L351.28489824077275,114.72998632289605L355.63706105553644,116.07109729658944L359.50565022421523,116.70220834303339L363.21304817753247,117.7803563807085L367.242828561573,118.75331924397628L370.95022651489023,119.67368952004036L375.1411981142923,120.51517091529895L379.8157433597793,121.43554119136306L383.6843325284581,122.30331888022351L387.552921697137,123.09220768827842L390.93793721973094,123.98628167074071L395.128908819133,124.722577891592L398.19154191100387,125.30109635083227" stroke="#0063AF" stroke-width="2"/></g></g><path class="foreground" aria-hidden="true" d="" display="none"/></g></g></g><path class="foreground" aria-hidden="true" d="" display="none"/></g></g></g></svg>