<svg xmlns="http://www.w3.org/2000/svg" xmlns:xlink="http://www.w3.org/1999/xlink" version="1.1" class="marks" width="432" height="347" viewBox="0 0 432 347"><rect width="432" height="347" fill="#122B39"/><g fill="none" stroke-miterlimit="10" transform="translate(21,25)"><g class="mark-group role-frame root" role="graphics-object" aria-roledescription="group mark container"><g transform="translate(0,0)"><path class="background" aria-hidden="true" d="M0,0h400v300h-400Z"/><g><g class="mark-group role-axis" aria-hidden="true"><g transform="translate(0.5,0.5)"><path class="background" aria-hidden="true" d="M0,0h0v0h0Z" pointer-events="none"/><g><g class="mark-rule role-axis-grid" pointer-events="none"><line transform="translate(0,300)" x2="400" y2="0" stroke="#b4c8d8" stroke-opacity="0.5" stroke-width="1" stroke-dasharray="1,5" opacity="1"/><line transform="translate(0,273)" x2="400" y2="0" stroke="#b4c8d8" stroke-opacity="0.5" stroke-width="1" stroke-dasharray="1,5" opacity="1"/><line transform="translate(0,245)" x2="400" y2="0" stroke="#b4c8d8" stroke-opacity="0.5" stroke-width="1" stroke-dasharray="1,5" opacity="1"/><line transform="translate(0,218)" x2="400" y2="0" stroke="#b4c8d8" stroke-opacity="0.5" stroke-width="1" stroke-dasharray="1,5" opacity="1"/><line transform="translate(0,191)" x2="400" y2="0" stroke="#b4c8d8" stroke-opacity="0.5" stroke-width="1" stroke-dasharray="1,5" opacity="1"/><line transform="translate(0,164)" x2="400" y2="0" stroke="#b4c8d8" stroke-opacity="0.5" stroke-width="1" stroke-dasharray="1,5" opacity="1"/><line transform="translate(0,136)" x2="400" y2="0" stroke="#b4c8d8" stroke-opacity="0.5" stroke-width="1" stroke-dasharray="1,5" opacity="1"/><line transform="translate(0,109)" x2="400" y2="0" stroke="#b4c8d8" stroke-opacity="0.5" stroke-width="1" stroke-dasharray="1,5" opacity="1"/><line transform="translate(0,82)" x2="400" y2="0" stroke="#b4c8d8" stroke-opacity="0.5" stroke-width="1" stroke-dasharray="1,5" opacity="1"/><line transform="translate(0,55)" x2="400" y2="0" stroke="#b4c8d8" stroke-opacity="0.5" stroke-width="1" stroke-dasharray="1,5" opacity="1"/><line transform="translate(0,27)" x2="400" y2="0" stroke="#b4c8d8" stroke-opacity="0.5" stroke-width="1" stroke-dasharray="1,5" opacity="1"/><line transform="translate(0,0)" x2="400" y2="0" stroke="#b4c8d8" stroke-opacity="0.5" stroke-width="1" stroke-dasharray="1,5" opacity="1"/></g></g><path class="foreground" aria-hidden="true" d="" pointer-events="none" display="none"/></g></g><g class="mark-group role-axis" role="graphics-symbol" aria-roledescription="axis" aria-label="X-axis for a time scale with values from Sunday, 01 January 2017, 12:00:00 AM to Friday, 31 January 2025, 12:00:00 AM"><g transform="translate(0.5,300.5)"><path class="background" aria-hidden="true" d="M0,0h0v0h0Z" pointer-events="none"/><g><g class="mark-rule role-axis-tick" pointer-events="none"><line transform="translate(0,0)" x2="0" y2="5" stroke="#b4c8d8" stroke-opacity="0.5" stroke-width="1" opacity="1"/><line transform="translate(49,0)" x2="0" y2="5" stroke="#b4c8d8" stroke-opacity="0.5" stroke-width="1" opacity="1"/><line transform="translate(99,0)" x2="0" y2="5" stroke="#b4c8d8" stroke-opacity="0.5" stroke-width="1" opacity="1"/><line transform="translate(148,0)" x2="0" y2="5" stroke="#b4c8d8" stroke-opacity="0.5" stroke-width="1" opacity="1"/><line transform="translate(198,0)" x2="0" y2="5" stroke="#b4c8d8" stroke-opacity="0.5" stroke-width="1" opacity="1"/><line transform="translate(247,0)" x2="0" y2="5" stroke="#b4c8d8" stroke-opacity="0.5" stroke-width="1" opacity="1"/><line transform="translate(297,0)" x2="0" y2="5" stroke="#b4c8d8" stroke-opacity="0.5" stroke-width="1" opacity="1"/><line transform="translate(346,0)" x2="0" y2="5" stroke="#b4c8d8" stroke-opacity="0.5" stroke-width="1" opacity="1"/><line transform="translate(396,0)" x2="0" y2="5" stroke="#b4c8d8" stroke-opacity="0.5" stroke-width="1" opacity="1"/></g><g class="mark-text role-axis-label" pointer-events="none"><text text-anchor="start" transform="translate(0,15)" font-family="Circular Std Book" font-size="10px" fill="#b4c8d8" fill-opacity="0.7" opacity="1">2017</text><text text-anchor="middle" transform="translate(49.457994579945805,15)" font-family="Circular Std Book" font-size="10px" fill="#b4c8d8" fill-opacity="0.7" opacity="1">2018</text><text text-anchor="middle" transform="translate(98.91598915989161,15)" font-family="Circular Std Book" font-size="10px" fill="#b4c8d8" fill-opacity="0.7" opacity="1">2019</text><text text-anchor="middle" transform="translate(148.3739837398374,15)" font-family="Circular Std Book" font-size="10px" fill="#b4c8d8" fill-opacity="0.7" opacity="1">2020</text><text text-anchor="middle" transform="translate(197.96747967479675,15)" font-family="Circular Std Book" font-size="10px" fill="#b4c8d8" fill-opacity="0.7" opacity="1">2021</text><text text-anchor="middle" transform="translate(247.42547425474254,15)" font-family="Circular Std Book" font-size="10px" fill="#b4c8d8" fill-opacity="0.7" opacity="1">2022</text><text text-anchor="middle" transform="translate(296.88346883468836,15)" font-family="Circular Std Book" font-size="10px" fill="#b4c8d8" fill-opacity="0.7" opacity="1">2023</text><text text-anchor="middle" transform="translate(346.3414634146341,15)" font-family="Circular Std Book" font-size="10px" fill="#b4c8d8" fill-opacity="0.7" opacity="1">2024</text><text text-anchor="middle" transform="translate(395.9349593495935,15)" font-family="Circular Std Book" font-size="10px" fill="#b4c8d8" fill-opacity="0.7" opacity="1">2025</text></g><g class="mark-rule role-axis-domain" pointer-events="none"><line transform="translate(0,0)" x2="400" y2="0" stroke="#b4c8d8" stroke-opacity="0.5" stroke-width="1" opacity="1"/></g></g><path class="foreground" aria-hidden="true" d="" pointer-events="none" display="none"/></g></g><g class="mark-group role-axis" role="graphics-symbol" aria-roledescription="axis" aria-label="Y-axis titled '%' for a linear scale with values from −1 to 10"><g transform="translate(0.5,0.5)"><path class="background" aria-hidden="true" d="M0,0h0v0h0Z" pointer-events="none"/><g><g class="mark-text role-axis-label" pointer-events="none"><text text-anchor="end" transform="translate(-5,303)" font-family="Circular Std Book" font-size="10px" fill="#b4c8d8" fill-opacity="0.7" opacity="1">−1</text><text text-anchor="end" transform="translate(-5,275.7272727272727)" font-family="Circular Std Book" font-size="10px" fill="#b4c8d8" fill-opacity="0.7" opacity="1">0</text><text text-anchor="end" transform="translate(-5,248.45454545454544)" font-family="Circular Std Book" font-size="10px" fill="#b4c8d8" fill-opacity="0.7" opacity="1">1</text><text text-anchor="end" transform="translate(-5,221.1818181818182)" font-family="Circular Std Book" font-size="10px" fill="#b4c8d8" fill-opacity="0.7" opacity="1">2</text><text text-anchor="end" transform="translate(-5,193.9090909090909)" font-family="Circular Std Book" font-size="10px" fill="#b4c8d8" fill-opacity="0.7" opacity="1">3</text><text text-anchor="end" transform="translate(-5,166.63636363636363)" font-family="Circular Std Book" font-size="10px" fill="#b4c8d8" fill-opacity="0.7" opacity="1">4</text><text text-anchor="end" transform="translate(-5,139.36363636363637)" font-family="Circular Std Book" font-size="10px" fill="#b4c8d8" fill-opacity="0.7" opacity="1">5</text><text text-anchor="end" transform="translate(-5,112.0909090909091)" font-family="Circular Std Book" font-size="10px" fill="#b4c8d8" fill-opacity="0.7" opacity="1">6</text><text text-anchor="end" transform="translate(-5,84.81818181818181)" font-family="Circular Std Book" font-size="10px" fill="#b4c8d8" fill-opacity="0.7" opacity="1">7</text><text text-anchor="end" transform="translate(-5,57.54545454545453)" font-family="Circular Std Book" font-size="10px" fill="#b4c8d8" fill-opacity="0.7" opacity="1">8</text><text text-anchor="end" transform="translate(-5,30.27272727272728)" font-family="Circular Std Book" font-size="10px" fill="#b4c8d8" fill-opacity="0.7" opacity="1">9</text><text text-anchor="end" transform="translate(-5,3)" font-family="Circular Std Book" font-size="10px" fill="#b4c8d8" fill-opacity="0.7" opacity="1">10</text></g><g class="mark-rule role-axis-domain" pointer-events="none"><line transform="translate(0,300)" x2="0" y2="-300" stroke="#b4c8d8" stroke-opacity="0.5" stroke-width="1" opacity="1"/></g><g class="mark-text role-axis-title" pointer-events="none"><text text-anchor="start" transform="translate(0,-10)" font-family="Circular Std Book" font-size="12px" font-weight="bold" fill="#b4c8d8" fill-opacity="0.8" opacity="1">%</text></g></g><path class="foreground" aria-hidden="true" d="" pointer-events="none" display="none"/></g></g><g class="mark-line role-mark layer_0_marks" role="graphics-object" aria-roledescription="line mark container"><path aria-label="x: Jan 01, 2017; y: 2" role="graphics-symbol" aria-roledescription="line mark" d="M0,218.182L395.935,218.182" stroke="#b4c8d8" stroke-width="1" opacity="0.3"/></g><g class="mark-symbol role-mark layer_1_marks" role="graphics-object" aria-roledescription="symbol mark container"><path aria-label="x: Oct 15, 2022; y: 9.6" role="graphics-symbol" aria-roledescription="circle" transform="translate(286.31436314363145,10.909090909090914)" d="M2.739,0A2.739,2.739,0,1,1,-2.739,0A2.739,2.739,0,1,1,2.739,0" fill="#b4c8d8" stroke-width="2" opacity="0.7"/><path aria-label="x: Jan 15, 2023; y: 8.8" role="graphics-symbol" aria-roledescription="circle" transform="translate(298.780487804878,32.727272727272705)" d="M2.739,0A2.739,2.739,0,1,1,-2.739,0A2.739,2.739,0,1,1,2.739,0" fill="#b4c8d8" stroke-width="2" opacity="0.7"/></g><g class="mark-line role-mark layer_2_marks" role="graphics-object" aria-roledescription="line mark container"><path aria-label="x: Jan 01, 2017; y: 0" role="graphics-symbol" aria-roledescription="line mark" d="M0,272.727L395.935,272.727" stroke="#b4c8d8" stroke-width="1" opacity="0.3"/></g><g class="mark-line role-mark layer_3_marks" role="graphics-object" aria-roledescription="line mark container"><path aria-label="x: Jan 31, 2017; y0: 2.064516129" role="graphics-symbol" aria-roledescription="line mark" d="M4.065,216.422L4.697,215.347C5.33,214.272,6.594,212.121,7.927,209.971C9.259,207.82,10.659,205.67,12.037,203.519C13.415,201.369,14.77,199.218,16.147,198.106C17.525,196.994,18.925,196.921,20.303,196.848C21.68,196.774,23.035,196.701,24.413,196.628C25.79,196.554,27.191,196.481,28.591,196.408C29.991,196.334,31.391,196.261,32.769,195.931C34.146,195.601,35.501,195.015,36.879,194.428C38.257,193.842,39.657,193.255,41.034,193.431C42.412,193.607,43.767,194.545,45.145,195.484C46.522,196.422,47.922,197.361,49.322,198.299C50.723,199.238,52.123,200.176,53.455,201.114C54.788,202.053,56.052,202.991,57.385,203.93C58.717,204.868,60.117,205.806,61.495,206.178C62.873,206.549,64.228,206.354,65.605,206.158C66.983,205.963,68.383,205.767,69.761,205.572C71.138,205.376,72.493,205.181,73.871,205.596C75.248,206.012,76.649,207.038,78.049,208.065C79.449,209.091,80.849,210.117,82.227,211.144C83.604,212.17,84.959,213.196,86.337,214.223C87.715,215.249,89.115,216.276,90.492,217.302C91.87,218.328,93.225,219.355,94.603,220.381C95.98,221.408,97.38,222.434,98.78,222.605C100.181,222.776,101.581,222.092,102.913,221.408C104.246,220.723,105.51,220.039,106.843,219.355C108.175,218.671,109.575,217.986,110.953,217.986C112.331,217.986,113.686,218.671,115.063,219.355C116.441,220.039,117.841,220.723,119.219,221.408C120.596,222.092,121.951,222.776,123.329,223.803C124.706,224.829,126.107,226.197,127.507,227.566C128.907,228.935,130.307,230.303,131.685,231.672C133.062,233.04,134.417,234.409,135.795,234.702C137.173,234.995,138.573,234.213,139.95,233.431C141.328,232.649,142.683,231.867,144.061,231.085C145.438,230.303,146.838,229.521,148.238,230.743C149.639,231.965,151.039,235.191,152.394,238.416C153.749,241.642,155.059,244.868,156.414,248.094C157.769,251.32,159.169,254.545,160.547,256.188C161.924,257.83,163.279,257.889,164.657,257.947C166.034,258.006,167.435,258.065,168.812,258.123C170.19,258.182,171.545,258.24,172.922,258.299C174.3,258.358,175.7,258.416,177.1,258.475C178.5,258.534,179.901,258.592,181.278,258.512C182.656,258.431,184.011,258.211,185.388,257.991C186.766,257.771,188.166,257.551,189.544,257.331C190.921,257.111,192.276,256.891,193.654,256.672C195.032,256.452,196.432,256.232,197.832,253.971C199.232,251.711,200.632,247.41,201.965,243.109C203.297,238.807,204.562,234.506,205.894,230.205C207.227,225.904,208.627,221.603,210.005,218.475C211.382,215.347,212.737,213.392,214.115,211.437C215.492,209.482,216.893,207.527,218.27,205.572C219.648,203.617,221.003,201.662,222.38,197.312C223.758,192.962,225.158,186.217,226.558,179.472C227.958,172.727,229.359,165.982,230.736,159.238C232.114,152.493,233.469,145.748,234.146,142.375L234.824,139.003" stroke="#F4134D" stroke-width="2"/></g><g class="mark-area role-mark layer_4_marks" role="graphics-object" aria-roledescription="area mark container"><path aria-label="x: Jan 31, 2017; y3: 0; y3b: 0" role="graphics-symbol" aria-roledescription="area mark" d="M234.824,139.344L235.524,137.212C236.224,135.079,237.624,130.814,239.002,126.549C240.379,122.284,241.734,118.02,243.112,113.755C244.49,109.49,245.89,105.225,247.29,100.16C248.69,95.096,250.09,89.232,251.423,83.301C252.755,77.37,254.02,71.372,255.352,65.375C256.685,59.377,258.085,53.38,259.463,50.07C260.84,46.76,262.195,46.138,263.573,45.517C264.95,44.895,266.35,44.273,267.728,43.651C269.106,43.029,270.461,42.407,271.838,42.851C273.216,43.295,274.616,44.806,276.016,46.316C277.416,47.827,278.817,49.337,280.194,50.848C281.572,52.358,282.927,53.869,284.304,55.024C285.682,56.179,287.082,56.978,288.46,57.778C289.837,58.578,291.192,59.377,292.57,60.177C293.948,60.977,295.348,61.776,296.748,64.575C298.148,67.374,299.548,72.172,300.881,76.97C302.213,81.768,303.478,86.566,304.81,91.364C306.143,96.162,307.543,100.96,308.921,103.537C310.298,106.113,311.653,106.469,313.031,106.824C314.408,107.18,315.808,107.535,317.186,107.89C318.564,108.246,319.919,108.601,321.296,109.667C322.674,110.734,324.074,112.511,325.474,114.288C326.874,116.065,328.275,117.842,329.652,119.619C331.03,121.396,332.385,123.173,333.762,124.442C335.14,125.712,336.54,126.473,337.918,127.235C339.295,127.996,340.65,128.758,342.028,129.52C343.406,130.281,344.806,131.043,346.206,131.804C347.606,132.566,349.006,133.327,350.361,134.089C351.716,134.851,353.026,135.612,354.381,136.374C355.736,137.135,357.136,137.897,358.514,138.659C359.892,139.42,361.247,140.182,362.624,140.711C364.002,141.239,365.402,141.536,366.78,141.832C368.157,142.128,369.512,142.424,370.89,142.72C372.267,143.017,373.668,143.313,375.068,143.609C376.468,143.905,377.868,144.201,379.246,144.497C380.623,144.794,381.978,145.09,383.356,145.386C384.734,145.682,386.134,145.978,387.511,146.274C388.889,146.571,390.244,146.867,391.621,147.163C392.999,147.459,394.399,147.755,395.799,148.051C397.2,148.348,398.6,148.644,399.3,148.792L400,148.94L400,296.078L399.3,296.093C398.6,296.108,397.2,296.138,395.799,296.167C394.399,296.197,392.999,296.227,391.621,296.256C390.244,296.286,388.889,296.315,387.511,296.339C386.134,296.362,384.734,296.379,383.356,296.396C381.978,296.413,380.623,296.43,379.246,296.447C377.868,296.463,376.468,296.48,375.068,296.302C373.668,296.123,372.267,295.749,370.89,295.375C369.512,295.001,368.157,294.627,366.78,294.253C365.402,293.879,364.002,293.505,362.624,293.364C361.247,293.223,359.892,293.314,358.514,292.994C357.136,292.674,355.736,291.943,354.381,291.052C353.026,290.161,351.716,289.11,350.361,288.059C349.006,287.008,347.606,285.957,346.206,284.906C344.806,283.855,343.406,282.804,342.028,281.753C340.65,280.702,339.295,279.651,337.918,278.274C336.54,276.896,335.14,275.192,333.762,273.374C332.385,271.555,331.03,269.623,329.652,267.69C328.275,265.758,326.874,263.825,325.474,261.893C324.074,259.96,322.674,258.028,321.296,256.373C319.919,254.718,318.564,253.341,317.186,251.964C315.808,250.586,314.408,249.209,313.031,246.766C311.653,244.322,310.298,240.813,308.921,237.614C307.543,234.415,306.143,231.528,304.81,227.974C303.478,224.42,302.213,220.199,300.881,215.979C299.548,211.758,298.148,207.538,296.748,203.562C295.348,199.585,293.948,195.854,292.57,193.144C291.192,190.434,289.837,188.746,288.46,187.057C287.082,185.369,285.682,183.681,284.304,181.726C282.927,179.772,281.572,177.55,280.194,174.44C278.817,171.331,277.416,167.332,276.016,163.334C274.616,159.336,273.216,155.337,271.838,151.828C270.461,148.318,269.106,145.297,267.728,142.809C266.35,140.321,264.95,138.367,263.573,136.412C262.195,134.457,260.84,132.502,259.463,132.658C258.085,132.813,256.685,135.079,255.352,137.345C254.02,139.611,252.755,141.876,251.423,142.843C250.09,143.809,248.69,143.476,247.29,142.942C245.89,142.409,244.49,141.676,243.112,140.943C241.734,140.21,240.379,139.477,239.002,139.211C237.624,138.944,236.224,139.144,235.524,139.244L234.824,139.344Z" fill="#F4134D" opacity="0.2"/></g><g class="mark-area role-mark layer_5_marks" role="graphics-object" aria-roledescription="area mark container"><path aria-label="x: Jan 31, 2017; y2: 0; y2b: 0" role="graphics-symbol" aria-roledescription="area mark" d="M234.824,139.344L235.524,137.656C236.224,135.968,237.624,132.591,239.002,129.215C240.379,125.839,241.734,122.462,243.112,119.086C244.49,115.709,245.89,112.333,247.29,108.335C248.69,104.336,250.09,99.716,251.423,95.096C252.755,90.476,254.02,85.855,255.352,81.235C256.685,76.615,258.085,71.994,259.463,69.684C260.84,67.374,262.195,67.374,263.573,67.374C264.95,67.374,266.35,67.374,267.728,67.374C269.106,67.374,270.461,67.374,271.838,68.44C273.216,69.507,274.616,71.639,276.016,73.771C277.416,75.904,278.817,78.036,280.194,80.169C281.572,82.301,282.927,84.434,284.304,86.211C285.682,87.988,287.082,89.409,288.46,90.831C289.837,92.253,291.192,93.674,292.57,95.096C293.948,96.517,295.348,97.939,296.748,100.916C298.148,103.892,299.548,108.424,300.881,112.955C302.213,117.486,303.478,122.018,304.81,126.549C306.143,131.081,307.543,135.612,308.921,138.1C310.298,140.588,311.653,141.032,313.031,141.476C314.408,141.921,315.808,142.365,317.186,142.809C318.564,143.253,319.919,143.698,321.296,145.075C322.674,146.452,324.074,148.762,325.474,151.072C326.874,153.383,328.275,155.693,329.652,158.003C331.03,160.313,332.385,162.623,333.762,164.083C335.14,165.543,336.54,166.152,337.918,166.761C339.295,167.37,340.65,167.98,342.028,168.589C343.406,169.198,344.806,169.807,346.206,170.417C347.606,171.026,349.006,171.635,350.361,172.245C351.716,172.854,353.026,173.463,354.381,174.072C355.736,174.682,357.136,175.291,358.514,175.9C359.892,176.509,361.247,177.119,362.624,177.571C364.002,178.024,365.402,178.32,366.78,178.616C368.157,178.913,369.512,179.209,370.89,179.505C372.267,179.801,373.668,180.097,375.068,180.393C376.468,180.69,377.868,180.986,379.246,181.282C380.623,181.578,381.978,181.874,383.356,182.171C384.734,182.467,386.134,182.763,387.511,183.059C388.889,183.355,390.244,183.651,391.621,183.948C392.999,184.244,394.399,184.54,395.799,184.836C397.2,185.132,398.6,185.428,399.3,185.577L400,185.725L400,259.294L399.3,259.309C398.6,259.323,397.2,259.353,395.799,259.383C394.399,259.412,392.999,259.442,391.621,259.472C390.244,259.501,388.889,259.531,387.511,259.554C386.134,259.577,384.734,259.594,383.356,259.611C381.978,259.628,380.623,259.645,379.246,259.662C377.868,259.679,376.468,259.696,375.068,259.517C373.668,259.339,372.267,258.965,370.89,258.591C369.512,258.217,368.157,257.843,366.78,257.469C365.402,257.095,364.002,256.721,362.624,256.503C361.247,256.286,359.892,256.225,358.514,255.752C357.136,255.28,355.736,254.397,354.381,253.353C353.026,252.31,351.716,251.107,350.361,249.903C349.006,248.7,347.606,247.497,346.206,246.294C344.806,245.09,343.406,243.887,342.028,242.684C340.65,241.48,339.295,240.277,337.918,238.747C336.54,237.217,335.14,235.361,333.762,233.733C332.385,232.105,331.03,230.706,329.652,229.306C328.275,227.907,326.874,226.508,325.474,225.108C324.074,223.709,322.674,222.309,321.296,220.965C319.919,219.622,318.564,218.333,317.186,217.045C315.808,215.756,314.408,214.468,313.031,212.114C311.653,209.759,310.298,206.338,308.921,203.051C307.543,199.763,306.143,196.609,304.81,192.788C303.478,188.968,302.213,184.481,300.881,179.994C299.548,175.507,298.148,171.02,296.748,167.221C295.348,163.423,293.948,160.313,292.57,158.225C291.192,156.137,289.837,155.071,288.46,154.005C287.082,152.938,285.682,151.872,284.304,150.539C282.927,149.207,281.572,147.607,280.194,145.119C278.817,142.631,277.416,139.255,276.016,135.879C274.616,132.502,273.216,129.126,271.838,126.238C270.461,123.351,269.106,120.952,267.728,119.086C266.35,117.22,264.95,115.887,263.573,114.554C262.195,113.222,260.84,111.889,259.463,113.044C258.085,114.199,256.685,117.842,255.352,121.485C254.02,125.128,252.755,128.771,251.423,131.047C250.09,133.324,248.69,134.235,247.29,134.768C245.89,135.301,244.49,135.457,243.112,135.612C241.734,135.768,240.379,135.923,239.002,136.545C237.624,137.167,236.224,138.256,235.524,138.8L234.824,139.344Z" fill="#F4134D" opacity="0.2"/></g><g class="mark-area role-mark layer_6_marks" role="graphics-object" aria-roledescription="area mark container"><path aria-label="x: Jan 31, 2017; y4: 0; y1: 0" role="graphics-symbol" aria-roledescription="area mark" d="M234.824,139.344L235.524,138.278C236.224,137.212,237.624,135.079,239.002,133.413C240.379,131.747,241.734,130.548,243.112,129.348C244.49,128.149,245.89,126.949,247.29,124.75C248.69,122.551,250.09,119.352,251.423,116.154C252.755,112.955,254.02,109.756,255.352,106.558C256.685,103.359,258.085,100.16,259.463,99.094C260.84,98.028,262.195,99.094,263.573,100.16C264.95,101.227,266.35,102.293,267.728,103.892C269.106,105.491,270.461,107.624,271.838,110.156C273.216,112.688,274.616,115.621,276.016,118.553C277.416,121.485,278.817,124.417,280.194,126.46C281.572,128.504,282.927,129.659,284.304,130.814C285.682,131.969,287.082,133.124,288.46,134.279C289.837,135.435,291.192,136.59,292.57,138.766C293.948,140.943,295.348,144.142,296.748,147.94C298.148,151.739,299.548,156.137,300.881,160.535C302.213,164.933,303.478,169.331,304.81,173.063C306.143,176.795,307.543,179.86,308.921,182.926C310.298,185.991,311.653,189.057,313.031,191.056C314.408,193.055,315.808,193.988,317.186,194.921C318.564,195.854,319.919,196.787,321.296,198.086C322.674,199.386,324.074,201.052,325.474,202.717C326.874,204.383,328.275,206.049,329.652,207.715C331.03,209.381,332.385,211.047,333.762,212.713C335.14,214.379,336.54,216.045,337.918,217.385C339.295,218.724,340.65,219.737,342.028,220.75C343.406,221.763,344.806,222.776,346.206,223.789C347.606,224.802,349.006,225.815,350.361,226.827C351.716,227.84,353.026,228.853,354.381,229.866C355.736,230.879,357.136,231.892,358.514,232.494C359.892,233.095,361.247,233.286,362.624,233.476C364.002,233.666,365.402,233.857,366.78,234.047C368.157,234.238,369.512,234.428,370.89,234.618C372.267,234.809,373.668,234.999,375.068,235.19C376.468,235.38,377.868,235.57,379.246,235.761C380.623,235.951,381.978,236.142,383.356,236.332C384.734,236.522,386.134,236.713,387.511,236.897C388.889,237.081,390.244,237.259,391.621,237.436C392.999,237.614,394.399,237.792,395.799,237.969C397.2,238.147,398.6,238.325,399.3,238.414L400,238.503L400,206.516L399.3,206.471C398.6,206.427,397.2,206.338,395.799,206.249C394.399,206.16,392.999,206.072,391.621,205.983C390.244,205.894,388.889,205.805,387.511,205.716C386.134,205.627,384.734,205.539,383.356,205.45C381.978,205.361,380.623,205.272,379.246,205.183C377.868,205.094,376.468,205.005,375.068,204.721C373.668,204.437,372.267,203.957,370.89,203.477C369.512,202.997,368.157,202.518,366.78,202.038C365.402,201.558,364.002,201.078,362.624,200.598C361.247,200.119,359.892,199.639,358.514,199.159C357.136,198.679,355.736,198.199,354.381,197.56C353.026,196.92,351.716,196.12,350.361,195.321C349.006,194.521,347.606,193.721,346.206,192.922C344.806,192.122,343.406,191.322,342.028,190.523C340.65,189.723,339.295,188.923,337.918,188.124C336.54,187.324,335.14,186.524,333.762,185.103C332.385,183.681,331.03,181.637,329.652,179.594C328.275,177.55,326.874,175.507,325.474,173.463C324.074,171.419,322.674,169.376,321.296,167.954C319.919,166.533,318.564,165.733,317.186,164.933C315.808,164.134,314.408,163.334,313.031,162.534C311.653,161.735,310.298,160.935,308.921,158.225C307.543,155.515,306.143,150.895,304.81,146.274C303.478,141.654,302.213,137.034,300.881,132.414C299.548,127.793,298.148,123.173,296.748,120.196C295.348,117.22,293.948,115.887,292.57,114.554C291.192,113.222,289.837,111.889,288.46,110.556C287.082,109.223,285.682,107.89,284.304,105.936C282.927,103.981,281.572,101.404,280.194,98.828C278.817,96.251,277.416,93.674,276.016,91.097C274.616,88.521,273.216,85.944,271.838,84.522C270.461,83.101,269.106,82.834,267.728,82.568C266.35,82.301,264.95,82.035,263.573,81.768C262.195,81.501,260.84,81.235,259.463,83.634C258.085,86.033,256.685,91.097,255.352,96.162C254.02,101.227,252.755,106.291,251.423,109.99C250.09,113.688,248.69,116.02,247.29,118.353C245.89,120.685,244.49,123.017,243.112,125.35C241.734,127.682,240.379,130.015,239.002,132.347C237.624,134.679,236.224,137.012,235.524,138.178L234.824,139.344Z" fill="#F4134D" opacity="0.2"/></g><g class="mark-text role-mark layer_7_marks" role="graphics-object" aria-roledescription="text mark container"><text aria-label="x: Oct 15, 2022; y: 9.6; t: October 2022" role="graphics-symbol" aria-roledescription="text mark" text-anchor="end" transform="translate(276.31436314363145,13.909090909090914)" font-family="Circular Std Book" font-size="11px" fill="#b4c8d8">October 2022</text><text aria-label="x: Jan 15, 2023; y: 8.8; t: January 2023" role="graphics-symbol" aria-roledescription="text mark" text-anchor="end" transform="translate(288.780487804878,35.727272727272705)" font-family="Circular Std Book" font-size="11px" fill="#b4c8d8">January 2023</text></g><g class="mark-text role-mark layer_8_marks" role="graphics-object" aria-roledescription="text mark container"><text aria-label="x: Oct 15, 2022; y: 9.6; t2: 9.6%" role="graphics-symbol" aria-roledescription="text mark" text-anchor="start" transform="translate(296.31436314363145,14.909090909090914)" font-family="Circular Std Book" font-size="11px" fill="#b4c8d8">9.6%</text><text aria-label="x: Jan 15, 2023; y: 8.8; t2: 8.8%" role="graphics-symbol" aria-roledescription="text mark" text-anchor="start" transform="translate(308.780487804878,36.727272727272705)" font-family="Circular Std Book" font-size="11px" fill="#b4c8d8">8.8%</text></g></g><path class="foreground" aria-hidden="true" d="" display="none"/></g></g></g></svg>