<svg xmlns="http://www.w3.org/2000/svg" xmlns:xlink="http://www.w3.org/1999/xlink" version="1.1" class="marks" width="479" height="364" viewBox="0 0 479 364"><rect width="479" height="364" fill="white"/><g fill="none" stroke-miterlimit="10" transform="translate(25,42)"><g class="mark-group role-frame root" role="graphics-object" aria-roledescription="group mark container"><g transform="translate(0,0)"><path class="background" aria-hidden="true" d="M0,0h400v300h-400Z"/><g><g class="mark-group role-axis" aria-hidden="true"><g transform="translate(0.5,0.5)"><path class="background" aria-hidden="true" d="M0,0h0v0h0Z" pointer-events="none"/><g><g class="mark-rule role-axis-grid" pointer-events="none"><line transform="translate(0,300)" x2="400" y2="0" stroke="#676A86" stroke-opacity="0.5" stroke-width="1" stroke-dasharray="1,5" opacity="1"/><line transform="translate(0,242)" x2="400" y2="0" stroke="#676A86" stroke-opacity="0.5" stroke-width="1" stroke-dasharray="1,5" opacity="1"/><line transform="translate(0,185)" x2="400" y2="0" stroke="#676A86" stroke-opacity="0.5" stroke-width="1" stroke-dasharray="1,5" opacity="1"/><line transform="translate(0,127)" x2="400" y2="0" stroke="#676A86" stroke-opacity="0.5" stroke-width="1" stroke-dasharray="1,5" opacity="1"/><line transform="translate(0,69)" x2="400" y2="0" stroke="#676A86" stroke-opacity="0.5" stroke-width="1" stroke-dasharray="1,5" opacity="1"/><line transform="translate(0,12)" x2="400" y2="0" stroke="#676A86" stroke-opacity="0.5" stroke-width="1" stroke-dasharray="1,5" opacity="1"/></g></g><path class="foreground" aria-hidden="true" d="" pointer-events="none" display="none"/></g></g><g class="mark-group role-axis" role="graphics-symbol" aria-roledescription="axis" aria-label="X-axis for a time scale with values from Sunday, 01 January 1860, 12:00:00 AM to Wednesday, 01 January 2025, 12:00:00 AM"><g transform="translate(0.5,300.5)"><path class="background" aria-hidden="true" d="M0,0h0v0h0Z" pointer-events="none"/><g><g class="mark-rule role-axis-tick" pointer-events="none"><line transform="translate(0,0)" x2="0" y2="5" stroke="#676A86" stroke-opacity="0.5" stroke-width="1" opacity="1"/><line transform="translate(48,0)" x2="0" y2="5" stroke="#676A86" stroke-opacity="0.5" stroke-width="1" opacity="1"/><line transform="translate(97,0)" x2="0" y2="5" stroke="#676A86" stroke-opacity="0.5" stroke-width="1" opacity="1"/><line transform="translate(145,0)" x2="0" y2="5" stroke="#676A86" stroke-opacity="0.5" stroke-width="1" opacity="1"/><line transform="translate(194,0)" x2="0" y2="5" stroke="#676A86" stroke-opacity="0.5" stroke-width="1" opacity="1"/><line transform="translate(242,0)" x2="0" y2="5" stroke="#676A86" stroke-opacity="0.5" stroke-width="1" opacity="1"/><line transform="translate(291,0)" x2="0" y2="5" stroke="#676A86" stroke-opacity="0.5" stroke-width="1" opacity="1"/><line transform="translate(339,0)" x2="0" y2="5" stroke="#676A86" stroke-opacity="0.5" stroke-width="1" opacity="1"/><line transform="translate(388,0)" x2="0" y2="5" stroke="#676A86" stroke-opacity="0.5" stroke-width="1" opacity="1"/></g><g class="mark-text role-axis-label" pointer-events="none"><text text-anchor="start" transform="translate(0,15)" font-family="Circular Std Book" font-size="10px" fill="#676A86" fill-opacity="0.7" opacity="1">1860</text><text text-anchor="middle" transform="translate(48.485049613380674,15)" font-family="Circular Std Book" font-size="10px" fill="#676A86" fill-opacity="0.7" opacity="1">1880</text><text text-anchor="middle" transform="translate(96.97009922676135,15)" font-family="Circular Std Book" font-size="10px" fill="#676A86" fill-opacity="0.7" opacity="1">1900</text><text text-anchor="middle" transform="translate(145.44851159857964,15)" font-family="Circular Std Book" font-size="10px" fill="#676A86" fill-opacity="0.7" opacity="1">1920</text><text text-anchor="middle" transform="translate(193.9335612119603,15)" font-family="Circular Std Book" font-size="10px" fill="#676A86" fill-opacity="0.7" opacity="1">1940</text><text text-anchor="middle" transform="translate(242.418610825341,15)" font-family="Circular Std Book" font-size="10px" fill="#676A86" fill-opacity="0.7" opacity="1">1960</text><text text-anchor="middle" transform="translate(290.90366043872166,15)" font-family="Circular Std Book" font-size="10px" fill="#676A86" fill-opacity="0.7" opacity="1">1980</text><text text-anchor="middle" transform="translate(339.38871005210234,15)" font-family="Circular Std Book" font-size="10px" fill="#676A86" fill-opacity="0.7" opacity="1">2000</text><text text-anchor="middle" transform="translate(387.873759665483,15)" font-family="Circular Std Book" font-size="10px" fill="#676A86" fill-opacity="0.7" opacity="1">2020</text></g><g class="mark-rule role-axis-domain" pointer-events="none"><line transform="translate(0,0)" x2="400" y2="0" stroke="#676A86" stroke-opacity="0.5" stroke-width="1" opacity="1"/></g></g><path class="foreground" aria-hidden="true" d="" pointer-events="none" display="none"/></g></g><g class="mark-group role-axis" role="graphics-symbol" aria-roledescription="axis" aria-label="Y-axis titled 'Mtoe (million tonnes of oil equivalent)' for a linear scale with values from 0 to 260"><g transform="translate(0.5,0.5)"><path class="background" aria-hidden="true" d="M0,0h0v0h0Z" pointer-events="none"/><g><g class="mark-text role-axis-label" pointer-events="none"><text text-anchor="end" transform="translate(-5,303)" font-family="Circular Std Book" font-size="10px" fill="#676A86" fill-opacity="0.7" opacity="1">0</text><text text-anchor="end" transform="translate(-5,245.30769230769232)" font-family="Circular Std Book" font-size="10px" fill="#676A86" fill-opacity="0.7" opacity="1">50</text><text text-anchor="end" transform="translate(-5,187.6153846153846)" font-family="Circular Std Book" font-size="10px" fill="#676A86" fill-opacity="0.7" opacity="1">100</text><text text-anchor="end" transform="translate(-5,129.92307692307693)" font-family="Circular Std Book" font-size="10px" fill="#676A86" fill-opacity="0.7" opacity="1">150</text><text text-anchor="end" transform="translate(-5,72.23076923076921)" font-family="Circular Std Book" font-size="10px" fill="#676A86" fill-opacity="0.7" opacity="1">200</text><text text-anchor="end" transform="translate(-5,14.538461538461531)" font-family="Circular Std Book" font-size="10px" fill="#676A86" fill-opacity="0.7" opacity="1">250</text></g><g class="mark-rule role-axis-domain" pointer-events="none"><line transform="translate(0,300)" x2="0" y2="-300" stroke="#676A86" stroke-opacity="0.5" stroke-width="1" opacity="1"/></g><g class="mark-text role-axis-title" pointer-events="none"><text text-anchor="start" transform="translate(0,-10)" font-family="Circular Std Book" font-size="12px" font-weight="bold" fill="#676A86" fill-opacity="0.8" opacity="1">Mtoe (million tonnes of oil equivalent)</text></g></g><path class="foreground" aria-hidden="true" d="" pointer-events="none" display="none"/></g></g><g class="mark-line role-mark layer_0_marks" role="graphics-object" aria-roledescription="line mark container"><path aria-label="x: Jan 01, 1860; y: 0" role="graphics-symbol" aria-roledescription="line mark" d="M0,300L400,300" stroke="#676A86" stroke-width="1" opacity="0.3"/></g><g class="mark-line role-mark layer_1_marks" role="graphics-object" aria-roledescription="line mark container"><path aria-label="time: Jan 01, 1860; TotalFuel: 50.41" role="graphics-symbol" aria-roledescription="line mark" d="M0,241.835L2.429,239.406L4.852,236.965L7.274,233.717L9.697,232.085L12.126,229.644L14.549,227.204L16.971,224.769L19.394,222.329L21.823,220.696L24.246,218.256L26.668,216.623L29.091,214.99L31.52,212.55L33.943,210.906L36.365,208.465L38.788,206.833L41.217,205.2L43.64,202.76L46.062,201.127L48.485,199.483L50.914,197.85L53.337,196.217L55.759,194.585L58.182,192.952L60.611,191.319L63.034,190.483L65.456,188.862L67.879,187.235L70.308,185.602L72.731,183.983L75.153,182.305L77.576,180.628L80.005,178.951L82.428,178.081L84.85,176.405L87.273,174.727L89.702,173.049L92.125,171.373L94.548,169.695L96.97,167.211L99.393,165.552L101.815,163.892L104.238,161.427L106.66,159.767L109.09,158.108L111.512,156.45L113.935,153.983L116.357,152.324L118.787,149.858L121.209,147.391L123.632,144.758L126.054,142.125L128.484,139.492L130.906,143.32L133.329,136.65L135.752,129.171L138.181,129.768L140.603,143.289L143.026,147.118L145.449,139.357L147.878,188.112L150.3,157.433L152.723,146.535L155.146,141.568L157.575,148.958L159.997,192.674L162.42,141.127L164.843,150.696L167.272,142.521L169.694,148.764L172.117,160.02L174.54,162.309L176.969,161.476L179.391,151.359L181.814,146.459L184.237,138.598L186.666,132.494L189.088,140.682L191.511,134.232L193.934,125.799L196.363,123.027L198.785,125.296L201.208,127.104L203.631,122.609L206.06,134.492L208.482,130.728L210.905,134.229L213.328,120.144L215.757,119.106L218.179,111.981L220.602,101.858L223.025,102.064L225.454,99.653L227.876,91.777L230.299,86.87L232.722,84.632L235.151,85.93L237.573,89.676L239.996,93.107L242.419,78.934L244.848,78.947L247.27,74.678L249.693,68.366L252.116,65.494L254.545,54.812L256.967,53.015L259.39,55.425L261.813,44.987L264.242,34.434L266.664,31.672L269.087,31.82L271.51,36.643L273.939,21.724L276.361,28.182L278.784,49.047L281.207,40.168L283.636,38.744L286.058,36.229L288.481,22.844L290.904,45.015L293.333,60.545L295.755,60.068L298.178,59.957L300.601,66.052L303.03,48.934L305.452,42.458L307.875,42.991L310.298,43.052L312.727,40.273L315.15,40.724L317.572,31.918L319.995,35.041L322.424,34.475L324.847,35.319L327.269,41.383L329.692,29.925L332.121,36.18L334.544,26.456L336.966,27.969L339.389,25.447L341.818,21.299L344.241,31.943L346.663,27.154L349.086,25.844L351.515,19.559L353.938,25.524L356.36,38.26L358.783,41.35L361.212,54.825L363.635,49.032L366.057,62.523L368.48,58.621L370.909,61.223L373.332,77.676L375.754,80.814L378.177,84.224L380.606,84.466L383.029,83.237L385.451,90.352L387.874,112.241L390.303,109.428" stroke="#F4134D" stroke-width="2"/></g><g class="mark-line role-mark layer_2_marks" role="graphics-object" aria-roledescription="line mark container"><path aria-label="time: Jan 01, 1965; UKGas: 0.7735113" role="graphics-symbol" aria-roledescription="line mark" d="M254.545,299.107L256.967,299.129L259.39,298.535L261.813,296.692L264.242,293.554L266.664,287.717L269.087,280.196L271.51,271.896L273.939,269.593L276.361,263.63L278.784,261.891L281.207,259.578L283.636,257.037L286.058,255.436L288.481,251.175L290.904,251.32L293.333,250.661L295.755,250.907L298.178,248.826L300.601,247.644L303.03,243.692L305.452,242.755L307.875,241.206L310.298,243.998L312.727,245.27L315.15,243.016L317.572,238.443L319.995,238.739L322.424,230.187L324.847,228.112L327.269,223.353L329.692,210.709L332.121,208.181L334.544,204.523L336.966,198.347L339.389,194.761L341.818,195.268L344.241,196.638L346.663,196.352L349.086,194.089L351.515,196.791L353.938,202.114L356.36,201.034L358.783,198.405L361.212,205.268L363.635,197.719L366.057,214.931L368.48,220.144L370.909,220.739L373.332,227.25L375.754,225.184L378.177,216.224L380.606,218.43L383.029,218.412L385.451,219.326L387.874,224.161L390.303,220.093" stroke="#5C267B" stroke-width="2"/></g><g class="mark-line role-mark layer_3_marks" role="graphics-object" aria-roledescription="line mark container"><path aria-label="time: Jan 01, 1860; UKTotOil: 0.01" role="graphics-symbol" aria-roledescription="line mark" d="M0,299.988L2.429,299.983L4.852,299.965L7.274,299.948L9.697,299.931L12.126,299.913L14.549,299.896L16.971,299.885L19.394,299.867L21.823,299.85L24.246,299.833L26.668,299.815L29.091,299.798L31.52,299.781L33.943,299.752L36.365,299.735L38.788,299.717L41.217,299.7L43.64,299.683L46.062,299.665L48.485,299.637L50.914,299.619L53.337,299.602L55.759,299.585L58.182,299.567L60.611,299.55L63.034,299.521L65.456,299.515L67.879,299.504L70.308,299.487L72.731,299.483L75.153,299.421L77.576,299.358L80.005,299.297L82.428,299.235L84.85,299.174L87.273,299.112L89.702,299.049L92.125,298.988L94.548,298.926L96.97,298.865L99.393,298.821L101.815,298.777L104.238,298.734L106.66,298.69L109.09,298.647L111.512,298.604L113.935,298.56L116.357,298.516L118.787,298.473L121.209,298.43L123.632,298.22L126.054,298.01L128.484,297.8L130.906,297.59L133.329,297.381L135.752,297.171L138.181,296.961L140.603,296.751L143.026,296.541L145.449,296.049L147.878,294.727L150.3,294.741L152.723,294.343L155.146,293.414L157.575,293.535L159.997,292.02L162.42,291.358L164.843,291.234L167.272,291.136L169.694,290.11L172.117,290.866L174.54,290.732L176.969,289.899L179.391,288.667L181.814,288.613L184.237,288.021L186.666,287.571L189.088,286.874L191.511,287.693L193.934,286.53L196.363,284.565L198.785,287.642L201.208,282.181L203.631,276.07L206.06,281.492L208.482,283.382L210.905,285.268L213.328,279.26L215.757,279.837L218.179,278.365L220.602,272.781L223.025,272.219L225.454,270.637L227.876,267.752L230.299,264.256L232.722,263.804L235.151,261.205L237.573,256.86L239.996,248.984L242.419,241.397L244.848,237.585L247.27,232.529L249.693,228.562L252.116,220.142L254.545,213.422L256.967,205.006L259.39,199.593L261.813,192.28L264.242,183.305L266.664,179.847L269.087,174.713L271.51,173.851L273.939,169.033L276.361,171.076L278.784,195.845L281.207,192.61L283.636,194.932L286.058,189.99L288.481,188.532L290.904,205.224L293.333,217.79L295.755,213.252L298.178,216.996L300.601,197.852L303.03,209.446L305.452,210.78L307.875,213.159L310.298,209.055L312.727,204.99L315.15,206.053L317.572,203.073L319.995,202.357L322.424,202.491L324.847,201.312L327.269,208.24L329.692,205.881L332.121,209.52L334.544,204.203L336.966,204.996L339.389,206.25L341.818,206.024L344.241,210.895L346.663,209.421L349.086,206.034L351.515,199.412L353.938,203.402L356.36,209.932L358.783,209.047L361.212,214.002L363.635,215.121L366.057,216.605L368.48,218.978L370.909,220.36L373.332,220.573L375.754,218.435L378.177,215.52L380.606,215.688L383.029,216.836L385.451,218.964L387.874,237.71L390.303,233.853" stroke="#36B7B4" stroke-width="2"/></g><g class="mark-text role-mark layer_4_marks" role="graphics-object" aria-roledescription="text mark container"><text aria-label="time: Jan 01, 2021; TotalFuel: 165.162162143" role="graphics-symbol" aria-roledescription="text mark" text-anchor="start" transform="translate(395.3029900773239,112.42827445061539)" font-family="Circular Std Book" font-size="11px" fill="#F4134D">Total Fuel</text></g><g class="mark-text role-mark layer_5_marks" role="graphics-object" aria-roledescription="text mark container"><text aria-label="time: Jan 01, 2021; UKTotOil: 57.32708768" role="graphics-symbol" aria-roledescription="text mark" text-anchor="start" transform="translate(395.3029900773239,236.85336036923076)" font-family="Circular Std Book" font-size="11px" fill="#36B7B4">Oil</text></g><g class="mark-text role-mark layer_6_marks" role="graphics-object" aria-roledescription="text mark container"><text aria-label="time: Jan 01, 2021; UKGas: 69.25279275" role="graphics-symbol" aria-roledescription="text mark" text-anchor="start" transform="translate(395.3029900773239,223.0929314423077)" font-family="Circular Std Book" font-size="11px" fill="#5C267B">Natural Gas</text></g><g class="mark-group role-title"><g transform="translate(200,-37)"><path class="background" aria-hidden="true" d="M0,0h0v0h0Z" pointer-events="none"/><g><g class="mark-text role-title-text" role="graphics-symbol" aria-roledescription="title" aria-label="Title text 'A'" pointer-events="none"><text text-anchor="middle" transform="translate(0,10)" font-family="Circular Std Book" font-size="13px" font-weight="bold" fill="#676A86" opacity="1">A</text></g></g><path class="foreground" aria-hidden="true" d="" pointer-events="none" display="none"/></g></g></g><path class="foreground" aria-hidden="true" d="" display="none"/></g></g></g></svg>