<svg xmlns="http://www.w3.org/2000/svg" xmlns:xlink="http://www.w3.org/1999/xlink" version="1.1" class="marks" width="467" height="366" viewBox="0 0 467 366"><rect width="467" height="366" fill="#122B39"/><g fill="none" stroke-miterlimit="10" transform="translate(25,44)"><g class="mark-group role-frame root" role="graphics-object" aria-roledescription="group mark container"><g transform="translate(0,0)"><path class="background" aria-hidden="true" d="M0,0h400v300h-400Z"/><g><g class="mark-group role-axis" aria-hidden="true"><g transform="translate(0.5,0.5)"><path class="background" aria-hidden="true" d="M0,0h0v0h0Z" pointer-events="none"/><g><g class="mark-rule role-axis-grid" pointer-events="none"><line transform="translate(0,300)" x2="400" y2="0" stroke="#b4c8d8" stroke-opacity="0.5" stroke-width="1" stroke-dasharray="1,5" opacity="1"/><line transform="translate(0,242)" x2="400" y2="0" stroke="#b4c8d8" stroke-opacity="0.5" stroke-width="1" stroke-dasharray="1,5" opacity="1"/><line transform="translate(0,185)" x2="400" y2="0" stroke="#b4c8d8" stroke-opacity="0.5" stroke-width="1" stroke-dasharray="1,5" opacity="1"/><line transform="translate(0,127)" x2="400" y2="0" stroke="#b4c8d8" stroke-opacity="0.5" stroke-width="1" stroke-dasharray="1,5" opacity="1"/><line transform="translate(0,69)" x2="400" y2="0" stroke="#b4c8d8" stroke-opacity="0.5" stroke-width="1" stroke-dasharray="1,5" opacity="1"/><line transform="translate(0,12)" x2="400" y2="0" stroke="#b4c8d8" stroke-opacity="0.5" stroke-width="1" stroke-dasharray="1,5" opacity="1"/></g></g><path class="foreground" aria-hidden="true" d="" pointer-events="none" display="none"/></g></g><g class="mark-group role-axis" role="graphics-symbol" aria-roledescription="axis" aria-label="X-axis for a time scale with values from Sunday, 01 January 1860, 12:00:00 AM to Tuesday, 01 January 2030, 12:00:00 AM"><g transform="translate(0.5,300.5)"><path class="background" aria-hidden="true" d="M0,0h0v0h0Z" pointer-events="none"/><g><g class="mark-rule role-axis-tick" pointer-events="none"><line transform="translate(0,0)" x2="0" y2="5" stroke="#b4c8d8" stroke-opacity="0.5" stroke-width="1" opacity="1"/><line transform="translate(47,0)" x2="0" y2="5" stroke="#b4c8d8" stroke-opacity="0.5" stroke-width="1" opacity="1"/><line transform="translate(94,0)" x2="0" y2="5" stroke="#b4c8d8" stroke-opacity="0.5" stroke-width="1" opacity="1"/><line transform="translate(141,0)" x2="0" y2="5" stroke="#b4c8d8" stroke-opacity="0.5" stroke-width="1" opacity="1"/><line transform="translate(188,0)" x2="0" y2="5" stroke="#b4c8d8" stroke-opacity="0.5" stroke-width="1" opacity="1"/><line transform="translate(235,0)" x2="0" y2="5" stroke="#b4c8d8" stroke-opacity="0.5" stroke-width="1" opacity="1"/><line transform="translate(282,0)" x2="0" y2="5" stroke="#b4c8d8" stroke-opacity="0.5" stroke-width="1" opacity="1"/><line transform="translate(329,0)" x2="0" y2="5" stroke="#b4c8d8" stroke-opacity="0.5" stroke-width="1" opacity="1"/><line transform="translate(376,0)" x2="0" y2="5" stroke="#b4c8d8" stroke-opacity="0.5" stroke-width="1" opacity="1"/></g><g class="mark-text role-axis-label" pointer-events="none"><text text-anchor="start" transform="translate(0,15)" font-family="Circular Std Book" font-size="10px" fill="#b4c8d8" fill-opacity="0.7" opacity="1">1860</text><text text-anchor="middle" transform="translate(47.05920247374863,15)" font-family="Circular Std Book" font-size="10px" fill="#b4c8d8" fill-opacity="0.7" opacity="1">1880</text><text text-anchor="middle" transform="translate(94.11840494749725,15)" font-family="Circular Std Book" font-size="10px" fill="#b4c8d8" fill-opacity="0.7" opacity="1">1900</text><text text-anchor="middle" transform="translate(141.17116536751917,15)" font-family="Circular Std Book" font-size="10px" fill="#b4c8d8" fill-opacity="0.7" opacity="1">1920</text><text text-anchor="middle" transform="translate(188.2303678412678,15)" font-family="Circular Std Book" font-size="10px" fill="#b4c8d8" fill-opacity="0.7" opacity="1">1940</text><text text-anchor="middle" transform="translate(235.28957031501642,15)" font-family="Circular Std Book" font-size="10px" fill="#b4c8d8" fill-opacity="0.7" opacity="1">1960</text><text text-anchor="middle" transform="translate(282.3487727887651,15)" font-family="Circular Std Book" font-size="10px" fill="#b4c8d8" fill-opacity="0.7" opacity="1">1980</text><text text-anchor="middle" transform="translate(329.4079752625137,15)" font-family="Circular Std Book" font-size="10px" fill="#b4c8d8" fill-opacity="0.7" opacity="1">2000</text><text text-anchor="middle" transform="translate(376.46717773626233,15)" font-family="Circular Std Book" font-size="10px" fill="#b4c8d8" fill-opacity="0.7" opacity="1">2020</text></g><g class="mark-rule role-axis-domain" pointer-events="none"><line transform="translate(0,0)" x2="400" y2="0" stroke="#b4c8d8" stroke-opacity="0.5" stroke-width="1" opacity="1"/></g></g><path class="foreground" aria-hidden="true" d="" pointer-events="none" display="none"/></g></g><g class="mark-group role-axis" role="graphics-symbol" aria-roledescription="axis" aria-label="Y-axis titled 'Mtoe (million tonnes of oil equivalent)' for a linear scale with values from 0 to 260"><g transform="translate(0.5,0.5)"><path class="background" aria-hidden="true" d="M0,0h0v0h0Z" pointer-events="none"/><g><g class="mark-text role-axis-label" pointer-events="none"><text text-anchor="end" transform="translate(-5,303)" font-family="Circular Std Book" font-size="10px" fill="#b4c8d8" fill-opacity="0.7" opacity="1">0</text><text text-anchor="end" transform="translate(-5,245.30769230769232)" font-family="Circular Std Book" font-size="10px" fill="#b4c8d8" fill-opacity="0.7" opacity="1">50</text><text text-anchor="end" transform="translate(-5,187.6153846153846)" font-family="Circular Std Book" font-size="10px" fill="#b4c8d8" fill-opacity="0.7" opacity="1">100</text><text text-anchor="end" transform="translate(-5,129.92307692307693)" font-family="Circular Std Book" font-size="10px" fill="#b4c8d8" fill-opacity="0.7" opacity="1">150</text><text text-anchor="end" transform="translate(-5,72.23076923076921)" font-family="Circular Std Book" font-size="10px" fill="#b4c8d8" fill-opacity="0.7" opacity="1">200</text><text text-anchor="end" transform="translate(-5,14.538461538461531)" font-family="Circular Std Book" font-size="10px" fill="#b4c8d8" fill-opacity="0.7" opacity="1">250</text></g><g class="mark-rule role-axis-domain" pointer-events="none"><line transform="translate(0,300)" x2="0" y2="-300" stroke="#b4c8d8" stroke-opacity="0.5" stroke-width="1" opacity="1"/></g><g class="mark-text role-axis-title" pointer-events="none"><text text-anchor="start" transform="translate(0,-10)" font-family="Circular Std Book" font-size="12px" font-weight="bold" fill="#b4c8d8" fill-opacity="0.8" opacity="1">Mtoe (million tonnes of oil equivalent)</text></g></g><path class="foreground" aria-hidden="true" d="" pointer-events="none" display="none"/></g></g><g class="mark-line role-mark layer_0_marks" role="graphics-object" aria-roledescription="line mark container"><path aria-label="x: Jan 01, 1860; y: 0" role="graphics-symbol" aria-roledescription="line mark" d="M0,300L388.237,300" stroke="#b4c8d8" stroke-width="1" opacity="0.3"/></g><g class="mark-line role-mark layer_1_marks" role="graphics-object" aria-roledescription="line mark container"><path aria-label="time: Jan 01, 1860; TotalFuel: 50.41" role="graphics-symbol" aria-roledescription="line mark" d="M0,241.835L2.358,239.406L4.709,236.965L7.06,233.717L9.412,232.085L11.77,229.644L14.121,227.204L16.472,224.769L18.824,222.329L21.181,220.696L23.533,218.256L25.884,216.623L28.236,214.99L30.593,212.55L32.945,210.906L35.296,208.465L37.647,206.833L40.005,205.2L42.357,202.76L44.708,201.127L47.059,199.483L49.417,197.85L51.768,196.217L54.12,194.585L56.471,192.952L58.829,191.319L61.18,190.483L63.532,188.862L65.883,187.235L68.241,185.602L70.592,183.983L72.943,182.305L75.295,180.628L77.653,178.951L80.004,178.081L82.355,176.405L84.707,174.727L87.064,173.049L89.416,171.373L91.767,169.695L94.118,167.211L96.47,165.552L98.821,163.892L101.172,161.427L103.524,159.767L105.882,158.108L108.233,156.45L110.584,153.983L112.936,152.324L115.293,149.858L117.645,147.391L119.996,144.758L122.347,142.125L124.705,139.492L127.057,143.32L129.408,136.65L131.759,129.171L134.117,129.768L136.468,143.289L138.82,147.118L141.171,139.357L143.529,188.112L145.88,157.433L148.232,146.535L150.583,141.568L152.941,148.958L155.292,192.674L157.643,141.127L159.995,150.696L162.353,142.521L164.704,148.764L167.055,160.02L169.407,162.309L171.764,161.476L174.116,151.359L176.467,146.459L178.819,138.598L181.176,132.494L183.528,140.682L185.879,134.232L188.23,125.799L190.588,123.027L192.94,125.296L195.291,127.104L197.642,122.609L200,134.492L202.351,130.728L204.703,134.229L207.054,120.144L209.412,119.106L211.763,111.981L214.115,101.858L216.466,102.064L218.824,99.653L221.175,91.777L223.526,86.87L225.878,84.632L228.236,85.93L230.587,89.676L232.938,93.107L235.29,78.934L237.647,78.947L239.999,74.678L242.35,68.366L244.701,65.494L247.059,54.812L249.411,53.015L251.762,55.425L254.113,44.987L256.471,34.434L258.822,31.672L261.174,31.82L263.525,36.643L265.883,21.724L268.234,28.182L270.586,49.047L272.937,40.168L275.295,38.744L277.646,36.229L279.997,22.844L282.349,45.015L284.707,60.545L287.058,60.068L289.409,59.957L291.761,66.052L294.118,48.934L296.47,42.458L298.821,42.991L301.172,43.052L303.53,40.273L305.882,40.724L308.233,31.918L310.584,35.041L312.942,34.475L315.293,35.319L317.645,41.383L319.996,29.925L322.354,36.18L324.705,26.456L327.057,27.969L329.408,25.447L331.766,21.299L334.117,31.943L336.468,27.154L338.82,25.844L341.178,19.559L343.529,25.524L345.88,38.26L348.232,41.35L350.589,54.825L352.941,49.032L355.292,62.523L357.643,58.621L360.001,61.223L362.353,77.676L364.704,80.814L367.055,84.224L369.413,84.466L371.764,83.237L374.116,90.352L376.467,112.241L378.825,109.428" stroke="#F4134D" stroke-width="2"/></g><g class="mark-line role-mark layer_2_marks" role="graphics-object" aria-roledescription="line mark container"><path aria-label="time: Jan 01, 1860; UKGas: 0" role="graphics-symbol" aria-roledescription="line mark" d="M0,300L2.358,300L4.709,300L7.06,300L9.412,300L11.77,300L14.121,300L16.472,300L18.824,300L21.181,300L23.533,300L25.884,300L28.236,300L30.593,300L32.945,300L35.296,300L37.647,300L40.005,300L42.357,300L44.708,300L47.059,300L49.417,300L51.768,300L54.12,300L56.471,300L58.829,300L61.18,300L63.532,300L65.883,300L68.241,300L70.592,300L72.943,300L75.295,300L77.653,300L80.004,300L82.355,300L84.707,300L87.064,300L89.416,300L91.767,300L94.118,300L96.47,300L98.821,300L101.172,300L103.524,300L105.882,300L108.233,300L110.584,300L112.936,300L115.293,300L117.645,300L119.996,300L122.347,300L124.705,300L127.057,300L129.408,300L131.759,300L134.117,300L136.468,300L138.82,300L141.171,300L143.529,300L145.88,300L148.232,300L150.583,300L152.941,300L155.292,300L157.643,300L159.995,300L162.353,300L164.704,300L167.055,300L169.407,300L171.764,300L174.116,300L176.467,300L178.819,300L181.176,300L183.528,300L185.879,300L188.23,300L190.588,300L192.94,300L195.291,300L197.642,300L200,300L202.351,300L204.703,300L207.054,300L209.412,300L211.763,300L214.115,300L216.466,300L218.824,300L221.175,300L223.526,300L225.878,300L228.236,300L230.587,300L232.938,300L235.29,300L237.647,300L239.999,300L242.35,300L244.701,300L247.059,299.107L249.411,299.129L251.762,298.535L254.113,296.692L256.471,293.554L258.822,287.717L261.174,280.196L263.525,271.896L265.883,269.593L268.234,263.63L270.586,261.891L272.937,259.578L275.295,257.037L277.646,255.436L279.997,251.175L282.349,251.32L284.707,250.661L287.058,250.907L289.409,248.826L291.761,247.644L294.118,243.692L296.47,242.755L298.821,241.206L301.172,243.998L303.53,245.27L305.882,243.016L308.233,238.443L310.584,238.739L312.942,230.187L315.293,228.112L317.645,223.353L319.996,210.709L322.354,208.181L324.705,204.523L327.057,198.347L329.408,194.761L331.766,195.268L334.117,196.638L336.468,196.352L338.82,194.089L341.178,196.791L343.529,202.114L345.88,201.034L348.232,198.405L350.589,205.268L352.941,197.719L355.292,214.931L357.643,220.144L360.001,220.739L362.353,227.25L364.704,225.184L367.055,216.224L369.413,218.43L371.764,218.412L374.116,219.326L376.467,224.161L378.825,220.093" stroke="#5C267B" stroke-width="2"/></g><g class="mark-line role-mark layer_3_marks" role="graphics-object" aria-roledescription="line mark container"><path aria-label="time: Jan 01, 1860; UKTotOil: 0.01" role="graphics-symbol" aria-roledescription="line mark" d="M0,299.988L2.358,299.983L4.709,299.965L7.06,299.948L9.412,299.931L11.77,299.913L14.121,299.896L16.472,299.885L18.824,299.867L21.181,299.85L23.533,299.833L25.884,299.815L28.236,299.798L30.593,299.781L32.945,299.752L35.296,299.735L37.647,299.717L40.005,299.7L42.357,299.683L44.708,299.665L47.059,299.637L49.417,299.619L51.768,299.602L54.12,299.585L56.471,299.567L58.829,299.55L61.18,299.521L63.532,299.515L65.883,299.504L68.241,299.487L70.592,299.483L72.943,299.421L75.295,299.358L77.653,299.297L80.004,299.235L82.355,299.174L84.707,299.112L87.064,299.049L89.416,298.988L91.767,298.926L94.118,298.865L96.47,298.821L98.821,298.777L101.172,298.734L103.524,298.69L105.882,298.647L108.233,298.604L110.584,298.56L112.936,298.516L115.293,298.473L117.645,298.43L119.996,298.22L122.347,298.01L124.705,297.8L127.057,297.59L129.408,297.381L131.759,297.171L134.117,296.961L136.468,296.751L138.82,296.541L141.171,296.049L143.529,294.727L145.88,294.741L148.232,294.343L150.583,293.414L152.941,293.535L155.292,292.02L157.643,291.358L159.995,291.234L162.353,291.136L164.704,290.11L167.055,290.866L169.407,290.732L171.764,289.899L174.116,288.667L176.467,288.613L178.819,288.021L181.176,287.571L183.528,286.874L185.879,287.693L188.23,286.53L190.588,284.565L192.94,287.642L195.291,282.181L197.642,276.07L200,281.492L202.351,283.382L204.703,285.268L207.054,279.26L209.412,279.837L211.763,278.365L214.115,272.781L216.466,272.219L218.824,270.637L221.175,267.752L223.526,264.256L225.878,263.804L228.236,261.205L230.587,256.86L232.938,248.984L235.29,241.397L237.647,237.585L239.999,232.529L242.35,228.562L244.701,220.142L247.059,213.422L249.411,205.006L251.762,199.593L254.113,192.28L256.471,183.305L258.822,179.847L261.174,174.713L263.525,173.851L265.883,169.033L268.234,171.076L270.586,195.845L272.937,192.61L275.295,194.932L277.646,189.99L279.997,188.532L282.349,205.224L284.707,217.79L287.058,213.252L289.409,216.996L291.761,197.852L294.118,209.446L296.47,210.78L298.821,213.159L301.172,209.055L303.53,204.99L305.882,206.053L308.233,203.073L310.584,202.357L312.942,202.491L315.293,201.312L317.645,208.24L319.996,205.881L322.354,209.52L324.705,204.203L327.057,204.996L329.408,206.25L331.766,206.024L334.117,210.895L336.468,209.421L338.82,206.034L341.178,199.412L343.529,203.402L345.88,209.932L348.232,209.047L350.589,214.002L352.941,215.121L355.292,216.605L357.643,218.978L360.001,220.36L362.353,220.573L364.704,218.435L367.055,215.52L369.413,215.688L371.764,216.836L374.116,218.964L376.467,237.71L378.825,233.853" stroke="#36B7B4" stroke-width="2"/></g><g class="mark-text role-mark layer_4_marks" role="graphics-object" aria-roledescription="text mark container"><text aria-label="time: Jan 01, 2021; TotalFuel: 165.162162143" role="graphics-symbol" aria-roledescription="text mark" text-anchor="start" transform="translate(383.8249694002448,112.42827445061539)" font-family="Circular Std Book" font-size="11px" fill="#F4134D">Total Fuel</text></g><g class="mark-text role-mark layer_5_marks" role="graphics-object" aria-roledescription="text mark container"><text aria-label="time: Jan 01, 2021; UKTotOil: 57.32708768" role="graphics-symbol" aria-roledescription="text mark" text-anchor="start" transform="translate(383.8249694002448,236.85336036923076)" font-family="Circular Std Book" font-size="11px" fill="#36B7B4">Oil</text></g><g class="mark-text role-mark layer_6_marks" role="graphics-object" aria-roledescription="text mark container"><text aria-label="time: Jan 01, 2021; UKGas: 69.25279275" role="graphics-symbol" aria-roledescription="text mark" text-anchor="start" transform="translate(383.8249694002448,223.0929314423077)" font-family="Circular Std Book" font-size="11px" fill="#5C267B">Natural Gas</text></g><g class="mark-image role-mark layer_7_marks" role="graphics-object" aria-roledescription="image mark container"><image aria-label="x: Jan 01, 2025; y: 250; img: https://raw.githubusercontent.com/EconomicsObservatory/ECOvisualisations/main/guidelines/logos/eco-icon-light.png" role="graphics-symbol" aria-roledescription="image mark" xlink:href="https://raw.githubusercontent.com/EconomicsObservatory/ECOvisualisations/main/guidelines/logos/eco-icon-light.png" transform="translate(348.2368098949945,-21.461538461538467)" width="40" height="40" preserveAspectRatio="xMidYMid" opacity="0.5"/></g><g class="mark-group role-title"><g transform="translate(200,-38.46153846153847)"><path class="background" aria-hidden="true" d="M0,0h0v0h0Z" pointer-events="none"/><g><g class="mark-text role-title-text" role="graphics-symbol" aria-roledescription="title" aria-label="Title text 'A'" pointer-events="none"><text text-anchor="middle" transform="translate(0,10)" font-family="Circular Std Book" font-size="13px" font-weight="bold" fill="#676A86" opacity="1">A</text></g></g><path class="foreground" aria-hidden="true" d="" pointer-events="none" display="none"/></g></g></g><path class="foreground" aria-hidden="true" d="" display="none"/></g></g></g></svg>