<svg xmlns="http://www.w3.org/2000/svg" xmlns:xlink="http://www.w3.org/1999/xlink" version="1.1" class="marks" width="535" height="327" viewBox="0 0 535 327"><rect width="535" height="327" fill="white"/><g fill="none" stroke-miterlimit="10" transform="translate(30,5)"><g class="mark-group role-frame root" role="graphics-object" aria-roledescription="group mark container"><g transform="translate(0,0)"><path class="background" aria-hidden="true" d="M0,0h400v300h-400Z"/><g><g class="mark-group role-axis" aria-hidden="true"><g transform="translate(0.5,0.5)"><path class="background" aria-hidden="true" d="M0,0h0v0h0Z" pointer-events="none"/><g><g class="mark-rule role-axis-grid" pointer-events="none"><line transform="translate(0,300)" x2="400" y2="0" stroke="#ddd" stroke-width="1" opacity="1"/><line transform="translate(0,254)" x2="400" y2="0" stroke="#ddd" stroke-width="1" opacity="1"/><line transform="translate(0,208)" x2="400" y2="0" stroke="#ddd" stroke-width="1" opacity="1"/><line transform="translate(0,162)" x2="400" y2="0" stroke="#ddd" stroke-width="1" opacity="1"/><line transform="translate(0,115)" x2="400" y2="0" stroke="#ddd" stroke-width="1" opacity="1"/><line transform="translate(0,69)" x2="400" y2="0" stroke="#ddd" stroke-width="1" opacity="1"/><line transform="translate(0,23)" x2="400" y2="0" stroke="#ddd" stroke-width="1" opacity="1"/></g></g><path class="foreground" aria-hidden="true" d="" pointer-events="none" display="none"/></g></g><g class="mark-group role-axis" role="graphics-symbol" aria-roledescription="axis" aria-label="X-axis for a linear scale with values from 1960 to 2020"><g transform="translate(0.5,300.5)"><path class="background" aria-hidden="true" d="M0,0h0v0h0Z" pointer-events="none"/><g><g class="mark-rule role-axis-tick" pointer-events="none"><line transform="translate(0,0)" x2="0" y2="5" stroke="#676A86" stroke-width="1" opacity="1"/><line transform="translate(67,0)" x2="0" y2="5" stroke="#676A86" stroke-width="1" opacity="1"/><line transform="translate(133,0)" x2="0" y2="5" stroke="#676A86" stroke-width="1" opacity="1"/><line transform="translate(200,0)" x2="0" y2="5" stroke="#676A86" stroke-width="1" opacity="1"/><line transform="translate(267,0)" x2="0" y2="5" stroke="#676A86" stroke-width="1" opacity="1"/><line transform="translate(333,0)" x2="0" y2="5" stroke="#676A86" stroke-width="1" opacity="1"/><line transform="translate(400,0)" x2="0" y2="5" stroke="#676A86" stroke-width="1" opacity="1"/></g><g class="mark-text role-axis-label" pointer-events="none"><text text-anchor="start" transform="translate(0,15)" font-family="sans-serif" font-size="10px" fill="#676A86" opacity="1">1960</text><text text-anchor="middle" transform="translate(66.66666666666666,15)" font-family="sans-serif" font-size="10px" fill="#676A86" opacity="1">1970</text><text text-anchor="middle" transform="translate(133.33333333333331,15)" font-family="sans-serif" font-size="10px" fill="#676A86" opacity="1">1980</text><text text-anchor="middle" transform="translate(200,15)" font-family="sans-serif" font-size="10px" fill="#676A86" opacity="1">1990</text><text text-anchor="middle" transform="translate(266.66666666666663,15)" font-family="sans-serif" font-size="10px" fill="#676A86" opacity="1">2000</text><text text-anchor="middle" transform="translate(333.33333333333337,15)" font-family="sans-serif" font-size="10px" fill="#676A86" opacity="1">2010</text><text text-anchor="end" transform="translate(400,15)" font-family="sans-serif" font-size="10px" fill="#676A86" opacity="1">2020</text></g><g class="mark-rule role-axis-domain" pointer-events="none"><line transform="translate(0,0)" x2="400" y2="0" stroke="#676A86" stroke-width="1" opacity="1"/></g></g><path class="foreground" aria-hidden="true" d="" pointer-events="none" display="none"/></g></g><g class="mark-group role-axis" role="graphics-symbol" aria-roledescription="axis" aria-label="Y-axis for a linear scale with values from 0% to 70%"><g transform="translate(0.5,0.5)"><path class="background" aria-hidden="true" d="M0,0h0v0h0Z" pointer-events="none"/><g><g class="mark-rule role-axis-tick" pointer-events="none"><line transform="translate(0,300)" x2="-5" y2="0" stroke="#676A86" stroke-width="1" opacity="1"/><line transform="translate(0,254)" x2="-5" y2="0" stroke="#676A86" stroke-width="1" opacity="1"/><line transform="translate(0,208)" x2="-5" y2="0" stroke="#676A86" stroke-width="1" opacity="1"/><line transform="translate(0,162)" x2="-5" y2="0" stroke="#676A86" stroke-width="1" opacity="1"/><line transform="translate(0,115)" x2="-5" y2="0" stroke="#676A86" stroke-width="1" opacity="1"/><line transform="translate(0,69)" x2="-5" y2="0" stroke="#676A86" stroke-width="1" opacity="1"/><line transform="translate(0,23)" x2="-5" y2="0" stroke="#676A86" stroke-width="1" opacity="1"/></g><g class="mark-text role-axis-label" pointer-events="none"><text text-anchor="end" transform="translate(-7,303)" font-family="sans-serif" font-size="10px" fill="#676A86" opacity="1">0%</text><text text-anchor="end" transform="translate(-7,256.8461538461538)" font-family="sans-serif" font-size="10px" fill="#676A86" opacity="1">10%</text><text text-anchor="end" transform="translate(-7,210.69230769230768)" font-family="sans-serif" font-size="10px" fill="#676A86" opacity="1">20%</text><text text-anchor="end" transform="translate(-7,164.53846153846158)" font-family="sans-serif" font-size="10px" fill="#676A86" opacity="1">30%</text><text text-anchor="end" transform="translate(-7,118.38461538461537)" font-family="sans-serif" font-size="10px" fill="#676A86" opacity="1">40%</text><text text-anchor="end" transform="translate(-7,72.23076923076925)" font-family="sans-serif" font-size="10px" fill="#676A86" opacity="1">50%</text><text text-anchor="end" transform="translate(-7,26.076923076923094)" font-family="sans-serif" font-size="10px" fill="#676A86" opacity="1">60%</text></g><g class="mark-rule role-axis-domain" pointer-events="none"><line transform="translate(0,300)" x2="0" y2="-300" stroke="#676A86" stroke-width="1" opacity="1"/></g></g><path class="foreground" aria-hidden="true" d="" pointer-events="none" display="none"/></g></g><g class="mark-line role-mark layer_0_marks" role="graphics-object" aria-roledescription="line mark container"><path aria-label="x1: 0; y1: 0.00000%" role="graphics-symbol" aria-roledescription="line mark" d="M8.143972796172722,159.69554046808898L8.641326378682251,160.12498473853802C9.138679961191782,160.55442900898706,10.13338712621084,161.41331754988508,11.128094291230404,162.05748395555864C12.122801456249968,162.7016503612322,13.117508621270039,163.1310946316812,14.112215786289097,163.07741409787508C15.106922951308155,163.02373356406895,16.101630116326202,162.48692822600768,17.096337281345516,161.89644235414025C18.091044446364826,161.30595648227282,19.0857516113854,160.66179007659932,20.080458776404964,160.55442900898706C21.07516594142453,160.4470679413748,22.069873106443083,160.87651221182384,23.064580271461637,161.4133175498851C24.05928743648019,161.95012288794638,25.053994601498744,162.59428929361994,26.048701766518306,162.64796982742607C27.043408931537872,162.7016503612322,28.03811609655845,162.1648450231709,29.032823261578013,161.38647728298204C30.027530426597576,160.60810954279316,31.02223759161613,159.58817940047672,31.954775558820828,158.4966752130854C32.88731352602554,157.4051710256941,33.757682295416394,156.24209279322795,35.001066251690595,154.60483651214102C36.244450207964796,152.9675802310541,37.86084935112235,150.85614590134637,39.04206410958346,149.47834553365576C40.22327886804457,148.1005451659651,40.96930924180924,147.45637876029153,41.9640164068283,146.86589288842413C42.958723571847365,146.27540701655673,44.2021075281208,145.73860167849543,45.32115308876731,145.0139144721127C46.44019864941381,144.28922726572992,47.43490581443337,143.37665819102574,48.42961297945243,142.222526714194C49.424320144471494,141.0683952373622,50.41902730949005,139.67270135840286,51.46184067702026,138.44637653079104C52.50465404455048,137.22005170317922,53.59557361459236,136.1630959269149,54.714619175239115,135.5457697881444C55.83366473588588,134.92844364937392,56.980836287137514,134.75074714809728,58.05177564527259,134.63505863055587C59.1227150034077,134.51937011301447,60.11742216842625,134.46568957920832,61.11212933344581,134.51937011301447C62.10683649846538,134.57305064682058,63.10154366348595,134.734092248239,64.09625082850552,134.8146130489482C65.09095799352508,134.89513384965738,66.08566515854363,134.89513384965738,67.08037232356244,134.57305064682063C68.07507948858125,134.25096744398385,69.0697866536003,133.6068010383103,70.06449381861988,132.9089540988306C71.05920098363943,132.21110715935092,72.0539081486595,131.45957968606513,73.04861531367906,130.81541328039157C74.04332247869864,130.17124687471804,75.03802964371768,129.63444153665674,76.03273680873674,129.17815699930466C77.02744397375581,128.72187246195256,78.02215113877486,128.34610872530962,79.01685830379417,127.75562285344222C80.01156546881349,127.16513698157479,81.00627263383305,126.35992897448284,82.00097979885236,125.52788070048784C82.99568696387168,124.69583242649286,83.99039412889073,123.83694388559479,85.35811648079213,122.73649294256914C86.72583883269353,121.63604199954351,88.46657637147727,120.29402865439027,89.83429872337892,119.38145957968608C91.20202107528057,118.4688905049819,92.19672824030012,117.98576570072674,93.19143540531918,117.52948116337465C94.18614257033823,117.07319662602254,95.18084973535679,116.6437523555735,96.17555690037635,116.26798861893059C97.17026406539593,115.89222488228769,98.1649712304165,115.57014167945094,99.15967839543606,115.24805847661416C100.15438556045562,114.92597527377738,101.14909272547418,114.60389207094062,102.2681382861199,114.28180886810384C103.38718384676565,113.95972566526706,104.6305678030386,113.63764246243029,105.74961336368536,113.50344112791497C106.86865892433211,113.36923979339963,107.86336608935268,113.42292032720576,108.79590405655892,113.44081383847447C109.72844202376514,113.45870734974316,110.598810793157,113.44081383847447,111.60904104588731,113.45066743460576C112.6192712986176,113.46052103073704,113.76936303468635,113.49812173426835,114.82623939751926,112.91658261803529C115.88311576035217,112.33504350180222,116.84677674994924,111.1343645658048,117.70162243162962,110.23878216187241C118.55646811330998,109.34319975793998,119.30249848707363,108.75271388607257,120.2972056520927,107.75962401065918C121.29191281711176,106.76653413524578,122.53529677338622,105.37084025628644,123.65434233403323,104.16302824564855C124.77338789468024,102.95521623501064,125.7680950596998,101.93528609269417,126.70063302690578,101.43426777717029C127.63317099411172,100.93324946164643,128.5035397635041,100.95114297291514,129.49824692852343,101.03166377362432C130.49295409354272,101.11218457433353,131.61199965418896,101.25533266448322,132.6688760170219,101.59530937858871C133.7257523798548,101.9352860926942,134.72045954487433,102.47209143075548,135.7151667098939,103.16993837023516C136.70987387491348,103.86778530971485,137.70458103993303,104.7266738506129,138.69928820495159,105.02191678654658C139.69399536997014,105.31715972248031,140.6887025349877,105.04875705344966,141.68340970000676,104.13618797874544C142.6781168650258,103.22361890404125,143.6728240300464,101.66688342366349,144.66753119506595,100.08330767638272C145.66223836008552,98.49973192910188,146.65694552510408,96.88931591491804,147.65165269012263,95.38626096834643C148.64635985514118,93.88320602177482,149.64106702015974,92.48751214281548,150.63577418517932,91.14549879766224C151.63048135019886,89.80348545250901,152.62518851521943,88.51515264116192,153.619895680239,87.6294238333608C154.61460284525856,86.74369502555969,155.6093100102771,86.26057022130455,156.60401717529567,85.83112595085551C157.59872434031422,85.4016816804065,158.59343150533277,85.02591794376356,159.58813867035232,84.51595287260533C160.5828458353719,84.00598780144709,161.57755300039247,83.36182139577353,162.57226016541202,82.66397445629386C163.5669673304316,81.96612751681418,164.56167449545015,81.21460004352836,165.5563816604692,80.650954438564C166.55108882548828,80.08730883359965,167.54579599050783,79.71154509695675,168.47833395771406,79.4431424279261C169.41087192492026,79.17473975889546,170.28124069431314,79.0136981574771,172.270655024352,78.15480961657902C174.2600693543909,77.29592107568097,177.3685292450758,75.73918559530323,179.42011277292798,74.71925545298676C181.4716963007802,73.6993253106703,182.46640346579977,73.21620050641515,183.4611106308188,72.67939516835385C184.4558177958379,72.14258983029255,185.45052496085646,71.55210395842512,186.4452321258755,70.55901408301173C187.43993929089456,69.56592420759836,188.43464645591413,68.17023032863902,189.67803041218835,66.4524532468429C190.9214143684625,64.73467616504678,192.41347511599136,62.69481588041388,193.6568590722651,61.32596226835758C194.90024302853877,59.957108656301294,195.89495019355732,59.259261716821605,196.88965735857587,58.53457451043886C197.88436452359443,57.80988730405611,198.87907168861298,57.058359830770314,199.87377885363253,56.46787395890289C200.8684860186521,55.87738808703548,201.8631931836727,55.447943816586445,202.85790034869225,55.01849954613743C203.85260751371183,54.589055275688395,204.84731467873038,54.15961100523938,205.84202184374894,53.73016673479034C206.8367290087675,53.30072246434131,207.83143617378605,52.871278193892266,208.82614333880562,52.46867419034629C209.8208505038252,52.06607018680031,210.81555766884574,51.69030645015738,211.8102648338653,51.31454271351447C212.80497199888487,50.93877897687156,213.79967916390342,50.56301524022867,214.79438632892246,50.24093203739191C215.78909349394155,49.91884883455514,216.78380065896113,49.65044616552451,217.7785078239807,49.301522695784676C218.77321498900025,48.95259922604484,219.76792215401977,48.52315495559579,220.7626293190391,48.013189884437566C221.7573364840584,47.50322481327934,222.75204364907748,46.91273894141194,223.7467508140968,46.29541280264146C224.74145797911612,45.67808666387098,225.73616514413564,45.03392025819742,226.73087230915522,44.577635720845336C227.72557947417476,44.12135118349324,228.72028663919434,43.85294851446261,229.71499380421392,43.611386112335026C230.7097009692335,43.36982371020744,231.70440813425307,43.155101574982915,232.69911529927163,43.101421041176785C233.69382246429018,43.047740507370655,234.6885296293077,43.155101574982915,235.6832367943268,43.316143176401305C236.67794395934584,43.477184777819694,237.6726511243664,43.69190691304419,238.667358289386,43.82610824755951C239.6620654544055,43.96030958207482,240.65677261942406,44.01399011588095,241.65147978444267,43.82610824755951C242.64618694946117,43.63822637923806,243.64089411447972,43.20878210878906,244.6356012794993,42.8061781052431C245.63030844451887,42.40357410169714,246.62501560953945,42.02781036505423,247.619722774559,41.625206361508255C248.61442993957857,41.22260235796228,249.60913710459712,40.793158087513234,250.60384426961568,40.33687355016113C251.59855143463423,39.88058901280903,252.59325859965278,39.39746420855386,253.5879657646723,38.9143394042987C254.58267292969188,38.43121460004354,255.57738009471245,37.94808979578838,256.57208725973203,37.438124724630164C257.5667944247516,36.92815965347194,258.56150158977016,36.391354315410666,259.5562087547892,36.04243084567083C260.5509159198083,35.693507375931,261.54562308482787,35.532465774512616,262.54033024984744,35.398264439997284C263.535037414867,35.26406310548196,264.52974457988654,35.15670203786969,265.5244517449059,34.9956604364513C266.5191589099252,34.83461883503292,267.51386607494425,34.61989669980841,268.5085732399636,34.51253563219615C269.5032804049829,34.405174564583895,270.4979875700024,34.405174564583895,271.492694735022,34.2441329631655C272.48740190004156,34.08309136174711,273.48210906506114,33.76100815891032,274.47681623008066,33.412084689170484C275.4715233951002,33.06316121943065,276.46623056011975,32.687397482787766,277.4609377251388,32.338474013047936C278.4556448901579,31.9895505433081,279.45035205517644,31.667467340471323,280.44505922019556,31.479585472149864C281.4397663852146,31.2917036038284,282.43447355023415,31.238023070022262,283.4291807152532,31.211182803119186C284.4238878802723,31.18434253621611,285.41859504529083,31.18434253621611,286.4133022103094,31.264863336925306C287.40800937532794,31.3453841376345,288.4027165403465,31.50642573905289,289.397423705366,31.66746734047129C290.3921308703856,31.82850894188969,291.3868380354062,31.9895505433081,292.3815452004257,32.204272678532625C293.3762523654453,32.41899481375714,294.37095953046384,32.687397482787766,295.3656666954824,32.87527935110922C296.36037386050094,33.06316121943067,297.3550810255195,33.170522287042935,298.3497881905391,33.41208468917052C299.34449535555865,33.6536470912981,300.3392025205792,34.029410827941,301.33390968559877,34.48569536529309C302.32861685061835,34.94197990264518,303.3233240156369,35.478785240706465,304.31803118065596,35.961910044961634C305.312738345675,36.445034849216796,306.30744551069455,36.87447911966584,307.3021526757141,37.30392339011487C308.2968598407337,37.7333676605639,309.2915670057533,38.16281193101292,310.2862741707726,38.59225620146194C311.2809813357919,39.02170047191098,312.27568850081093,39.45114474236002,313.2703956658303,39.934269546615184C314.26510283084957,40.417394350870346,315.25980999586915,40.95419968893162,316.2545171608887,41.544685560799024C317.2492243259083,42.13517143266644,318.2439314909279,42.77933783833999,319.2386386559474,43.396663977110485C320.233345820967,44.01399011588097,321.22805298598655,44.6044759877484,322.2227601510056,45.168121592712765C323.2174673160246,45.73176719767712,324.2121744810432,46.26857253573841,325.14471244824887,46.832218140702764C326.0772504154546,47.39586374566712,326.9476191848475,47.98634961753455,327.94232634986656,48.65735629011115C328.9370335148856,49.328362962687756,330.0560790755308,50.07989043597353,331.11295543836275,50.804577642356264C332.1698318011947,51.529264848739,333.16453896621323,52.2271117882187,334.1592461312328,52.924958727698375C335.1539532962524,53.62280566717806,336.14866046127287,54.32065260665774,337.14336762629245,54.93797874542823C338.138074791312,55.555304884198726,339.1327819563306,56.09211022226003,340.12748912134913,56.494714225806C341.1221962863677,56.897318229351974,342.11690345138624,57.1657208983826,343.1116106164058,57.380443033607115C344.10631778142533,57.59516516883161,345.10102494644593,57.75620677024998,346.09573211146545,58.05144970618368C347.0904392764851,58.34669264211738,348.08514644150364,58.77613691256639,349.0798536065227,59.20558118301543C350.0745607715417,59.63502545346447,351.0692679365613,60.064469723913525,352.06397510158087,60.44023346055644C353.05868226660044,60.81599719719935,354.05338943161996,61.13808040003613,355.04809659663925,61.29912200145452C356.0428037616586,61.46016360287291,357.03751092667767,61.46016360287291,358.03221809169673,61.46016360287291C359.02692525671574,61.46016360287291,360.02163242173486,61.46016360287291,361.01633958675416,61.594364937388235C362.01104675177345,61.72856627190355,363.005753916793,61.99696894093419,364.0004610818126,62.21169107615871C364.9951682468322,62.42641321138323,365.9898754118517,62.58745481280161,366.984582576871,62.667975613510805C367.97928974189034,62.74849641422,368.9739969069094,62.74849641422,369.9687040719287,62.74849641421999C370.96341123694805,62.74849641422,371.95811840196757,62.74849641422,372.9528255669872,62.58745481280161C373.9475327320067,62.42641321138323,374.94223989702624,62.10433000854645,375.9369470620448,61.70172600500049C376.93165422706346,61.29912200145451,377.926361392081,60.81599719719935,378.9210685571,60.33287239294419C379.9157757221191,59.849747588689034,380.9104828871396,59.36662278443388,381.90519005215924,58.883497980178724C382.89989721717876,58.40037317592356,383.8946043821973,57.91724837166839,384.88931154721587,57.48780410121935C385.8840187122344,57.05835983077032,386.878725877253,56.68259609412741,387.87343304227255,56.36051289129065C388.8681402072921,56.03842968845387,389.8628473723127,55.77002701942322,390.67104694389144,55.555304884198705C391.47924651547027,55.340582748974185,392.1009384936072,55.1795411475558,392.4117844826757,55.09902034684661L392.7226304717442,55.01849954613741" stroke="#F4134D" stroke-width="2"/></g><g class="mark-line role-mark layer_1_marks" role="graphics-object" aria-roledescription="line mark container"><path aria-label="x2: 1961.22159592; y2: 0.287942516044" role="graphics-symbol" aria-roledescription="line mark" d="M8.143972796172722,167.10345413333476L8.641326378682251,167.10345413333474C9.138679961191782,167.10345413333476,10.13338712621084,167.10345413333476,11.065925093416302,166.85294497557283C11.998463060621765,166.6024358178109,12.868831830013631,166.10141750228703,13.614862203778051,164.59836255571543C14.360892577542472,163.09530760914382,14.982584555679447,160.59021603152448,15.542107336002573,158.21037903278608C16.101630116325698,155.83054203404768,16.598983698834974,153.57595961419025,17.096337281345008,151.21401612672057C17.593690863855045,148.8520726392509,18.09104444636584,146.382768084169,18.71273642450256,144.316067532633C19.33442840263928,142.24936698109704,20.080458776401937,140.58527043310707,20.888658347979952,140.69263150071933C21.69685791955797,140.7999925683316,22.56722668895135,142.67881125154608,23.375426260530123,144.58447020166366C24.183625832108902,146.49012915178125,24.92965620587307,148.42262836880187,25.737855777451085,149.76464171395511C26.546055349029103,151.10665505910833,27.416424118420966,151.85818253239412,28.34896208562643,151.804501998588C29.28150005283189,151.7508214647819,30.27620721785095,150.89193292388381,31.146575987243068,150.03304438298576C32.01694475663518,149.17415584208769,32.76297513040036,148.3152673011896,33.38466710853759,146.86589288842413C34.00635908667482,145.41651847565865,34.5037126691841,143.37665819102574,35.00106625169337,141.0683952373622C35.49841983420265,138.76013228369865,35.99577341671193,136.18346666100447,36.49312699922171,133.6068010383103C36.99048058173149,131.0301354156161,37.487834164241775,128.45346979292188,37.985187746751556,125.87680417022769C38.482541329261345,123.30013854753349,38.97989491177062,120.72347292483933,39.6015868899076,118.97885557614013C40.22327886804457,117.23423822744094,40.96930924180924,116.32166915273673,41.839678011201364,116.2679886189306C42.71004678059348,116.21430808512447,43.70475394561304,117.01951609221642,44.66380411707784,117.82575258914024C45.622854288542634,118.63198908606405,46.54624746645266,119.43925407281976,47.54095463147172,117.13099111915623C48.535661796490785,114.82272816549268,49.60168294861887,109.39893727140988,50.38337031593705,105.61343114824591C51.165057683255235,101.82792502508192,51.662411265763495,99.68070367283674,52.284103243900724,97.74820445581611C52.905795222037945,95.81570523879545,53.651825595804134,94.09792815699933,54.52219436519652,93.7490046872595C55.392563134588876,93.40008121751964,56.38727029960743,94.4200113598361,57.38197746462624,95.30574016763724C58.37668462964505,96.19146897543835,59.3713917946641,96.94299644872417,60.36609895968366,96.64775351279047C61.36080612470323,96.35251057685677,62.3555132897233,95.01049723170354,63.350220454742356,93.58796308584111C64.3449276197614,92.16542893997867,65.33963478477948,90.66237399340703,66.33434194979877,90.01820758773351C67.32904911481809,89.37404118205995,68.32375627983866,89.58876331728452,69.31846344485822,90.01820758773356C70.31317060987779,90.4476518581826,71.30787777489634,91.09181826385611,72.1782465442877,90.87709612863159C73.04861531367906,90.66237399340706,73.79464568744324,89.58876331728447,74.4163376655802,87.97834730310062C75.0380296437172,86.36793128891675,75.53538322622695,84.2207099366716,76.03273680873674,82.01980805062031C76.53009039124653,79.81890616456901,77.0274439737563,77.56432374471159,77.52479755626584,75.36342185866029C78.02215113877537,73.16251997260899,78.51950472128465,71.01529862036382,79.07902750160802,69.42277611744866C79.63855028193142,67.8302536145335,80.26024226006889,66.79242996094835,80.94410343601972,67.16819369759126C81.62796461197054,67.54395743423417,82.37399498573471,69.33330856110514,83.05785616168528,71.0868726654387C83.74171733763585,72.84043676977227,84.36340931577281,74.5582138515684,85.04727049172389,75.95390773052775C85.73113166767497,77.34960160948711,86.47716204144017,78.4232122856097,87.28536161301842,78.20849015038517C88.0935611845967,77.99376801516065,88.96392995398806,76.49071306858902,89.77212952556607,74.91608407694257C90.58032909714409,73.34145508529612,91.32635947090876,71.69525204857483,92.13455904248677,70.13851656819709C92.94275861406477,68.58178108781937,93.81312738345615,67.11451316378518,94.74566535066161,65.95143493131904C95.67820331786707,64.78835669885292,96.67291048288662,63.929468157954865,97.66761764790594,62.936378282541476C98.66232481292525,61.94328840712808,99.65703197794431,60.81599719719937,100.65173914296388,59.55450465275533C101.64644630798345,58.293012108311295,102.64115347300351,56.89731822935193,103.63586063802283,55.555304884198705C104.63056780304214,54.21329153904549,105.6252749680607,52.9249587276984,106.61998213307949,51.82450778467277C107.6146892980983,50.724056841647126,108.60939646311736,49.81148776694292,109.60410362813691,48.952599226044846C110.59881079315649,48.09371068514677,111.59351795817656,47.28850267805483,112.58822512319563,46.96641947521806C113.58293228821469,46.64433627238128,114.57763945323273,46.80537787379967,115.57234661825203,47.3153429449579C116.56705378327136,47.82530801611612,117.56176094829193,48.68419655701418,118.5564681133115,49.05996029365709C119.55117527833106,49.4357240303,120.54588244334961,49.328362962687756,121.54058960836814,48.657356290111146C122.53529677338672,47.98634961753453,123.53000393840527,46.75169733999355,124.52471110342485,45.91964906599855C125.5194182684444,45.08760079200355,126.51412543346498,44.65815652155453,127.50883259848455,45.16812159271276C128.5035397635041,45.678086663871,129.49824692852266,47.127461076636486,130.49295409354173,48.60367575630503C131.4876612585608,50.079890435973574,132.4823684235803,51.58294538254517,133.4770755885999,52.44183392344323C134.47178275361946,53.300722464341284,135.466489918639,53.51544459956582,136.46119708365808,53.54228486646889C137.45590424867714,53.56912513337195,138.4506114136957,53.40808353195353,139.38314938090065,52.549194991055465C140.3156873481056,51.69030645015741,141.18605611749697,50.13357096977969,141.99425568907574,48.49631468869276C142.8024552606545,46.859058407605836,143.5484856344207,45.14128132580969,144.29451600818564,43.351930198938724C145.04054638195055,41.562579072067756,145.78657675571424,39.70165390012196,146.594776327292,38.11807815284116C147.40297589886976,36.53450240556035,148.27334466826164,35.22827608294455,149.20588263546685,33.93099651596309C150.13842060267203,32.63371694898163,151.13312776769058,31.345384137634525,152.12783493270913,30.70121773196097C153.1225420977277,30.05705132628742,154.11724926274624,30.05705132628742,155.11195642776582,30.64753719815485C156.10666359278537,31.23802307002228,157.10137075780597,32.418994813757145,158.09607792282551,33.33156388846134C159.0907850878451,34.244132963165534,160.08549225286365,34.88829936883906,161.08019941788245,35.022500703354375C162.07490658290126,35.156702037869685,163.06961374792033,34.78093830122679,164.06432091293988,34.43201483148695C165.05902807795943,34.08309136174711,166.0537352429795,33.76100815891032,167.04844240799906,33.70732762510418C168.0431495730186,33.65364709129805,169.03785673803768,33.86836922652255,170.03256390305674,34.08309136174709C171.0272710680758,34.29781349697161,172.02197823309487,34.512535632196155,173.0166853981142,34.51253563219615C174.0113925631335,34.512535632196155,175.00609972815303,34.29781349697161,176.00080689317235,33.975730294134834C176.99551405819167,33.65364709129806,177.99022122321074,33.22420282084905,178.98492838823006,32.955800151818416C179.97963555324938,32.68739748278777,180.9743427182689,32.580036415175506,181.96904988328848,32.526355881369376C182.96375704830803,32.47267534756324,183.9584642133276,32.47267534756324,184.95317137834718,32.25795321233872C185.94787854336676,32.0432310771142,186.94258570838633,31.613786806665157,187.93729287340489,30.781738532670165C188.93200003842344,29.949690258675176,189.92670720344097,28.71503798113424,190.92141436846,27.587746771205534C191.91612153347907,26.46045556127683,192.9108286984996,25.44052541896036,193.9055358635192,24.50111607735309C194.90024302853877,23.561706735745826,195.89495019355732,22.702818194847765,196.88965735857587,21.95129072156196C197.88436452359443,21.19976324827616,198.87907168861298,20.55559684260262,199.87377885363253,20.421395508087297C200.8684860186521,20.287194173571976,201.8631931836727,20.662957910214875,202.85790034869225,21.146082714470033C203.85260751371183,21.62920751872519,204.84731467873038,22.21969339059261,205.84202184374894,22.94438059697535C206.8367290087675,23.66906780335809,207.83143617378605,24.527956344256154,208.82614333880562,25.52104621966954C209.8208505038252,26.514136095082932,210.81555766884574,27.641427305011646,211.8102648338653,28.527156112812776C212.80497199888487,29.41288492061391,213.79967916390342,30.057051326287464,214.79438632892246,30.5670163974457C215.78909349394155,31.076981468603936,216.78380065896113,31.452745205246856,217.7785078239807,31.801668674986697C218.77321498900025,32.15059214472653,219.76792215401977,32.47267534756329,220.7626293190391,32.76791828349699C221.7573364840584,33.0631612194307,222.75204364907748,33.331563888461346,223.7467508140968,33.626806824395054C224.74145797911612,33.922049760328754,225.73616514413564,34.244132963165505,226.73087230915522,34.646736966711465C227.72557947417476,35.049340970257425,228.72028663919434,35.532465774512595,229.71499380421392,36.01559057876775C230.7097009692335,36.498715383022905,231.70440813425307,36.98184018727806,232.69911529927163,37.545485792242424C233.69382246429018,38.109131397206774,234.6885296293077,38.75329780288033,235.6832367943268,39.39746420855389C236.67794395934584,40.041630614227444,237.6726511243664,40.68579701990098,238.667358289386,41.41048422628372C239.6620654544055,42.13517143266646,240.65677261942406,42.9403794397584,241.65147978444267,43.665066646141156C242.64618694946117,44.3897538525239,243.64089411447972,45.03392025819745,244.6356012794993,45.46336452864648C245.63030844451887,45.89280879909551,246.62501560953945,46.10753093432002,247.619722774559,45.78544773148324C248.61442993957857,45.46336452864647,249.60913710459712,44.6044759877484,250.60384426961568,43.82610824755954C251.59855143463423,43.04774050737067,252.59325859965278,42.349893567890994,253.5879657646723,42.349893567890994C254.58267292969188,42.349893567890994,255.57738009471245,43.04774050737067,256.57208725973203,43.799267980656474C257.5667944247516,44.55079545394228,258.56150158977016,45.35600346103422,259.5562087547892,45.83912826528939C260.5509159198083,46.32225306954455,261.54562308482787,46.48329467096294,262.54033024984744,46.67117653928438C263.535037414867,46.859058407605836,264.52974457988654,47.07378054283034,265.5244517449059,47.1811416104426C266.5191589099252,47.28850267805486,267.51386607494425,47.28850267805486,268.5085732399636,47.31534294495791C269.5032804049829,47.34218321186098,270.4979875700024,47.3958637456671,271.492694735022,47.50322481327936C272.48740190004156,47.61058588089161,273.48210906506114,47.77162748231,274.47681623008066,47.8521482830192C275.4715233951002,47.93266908372838,276.46623056011975,47.93266908372838,277.4609377251388,47.95950935063144C278.4556448901579,47.98634961753451,279.45035205517644,48.04003015134063,280.44505922019556,48.14739121895289C281.4397663852146,48.25475228656516,282.43447355023415,48.41579388798357,283.4291807152532,48.63051602320809C284.4238878802723,48.84523815843261,285.41859504529083,49.11364082746325,286.4133022103094,49.83832803384598C287.40800937532794,50.563015240228715,288.4027165403465,51.743986983963545,289.397423705366,52.92495872769839C290.3921308703856,54.105930471433226,291.3868380354062,55.28690221516806,292.3815452004257,56.22631155677533C293.3762523654453,57.165720898382574,294.37095953046384,57.863567837862256,295.3656666954824,58.37353290902047C296.36037386050094,58.8834979801787,297.3550810255195,59.205581183015475,298.3497881905391,59.635025453464515C299.34449535555865,60.064469723913554,300.3392025205792,60.60127506197485,301.33390968559877,61.29912200145452C302.32861685061835,61.99696894093421,303.3233240156369,62.85585748183227,304.31803118065596,63.68790575582727C305.312738345675,64.51995402982227,306.30744551069455,65.32516203691421,307.3021526757141,66.26457137852147C308.2968598407337,67.20398072012873,309.2915670057533,68.27759139625131,310.2862741707726,69.43172287308307C311.2809813357919,70.58585434991484,312.27568850081093,71.8205066274558,313.2703956658303,73.29672130712434C314.26510283084957,74.77293598679289,315.25980999586915,76.49071306858902,316.1923479630754,78.1369161053103C317.1248859302816,79.7831191420316,317.9952546996745,81.35774813367806,318.86562346906635,82.96816414786193C319.7359922384582,84.5785801620458,320.60636100784905,86.22478319876707,321.5388989750542,87.79941219041353C322.47143694225946,89.37404118205997,323.466144107279,90.87709612863159,324.39868207448444,92.45172512027803C325.3312200416899,94.02635411192449,326.2015888110813,95.67255714864577,327.07195758047243,97.3903342304419C327.94232634986355,99.10811131223802,328.8126951192544,100.89746243910899,329.74523308646013,102.86574867866705C330.6777710536658,104.8340349182251,331.6724782186864,106.98125627047027,332.6050161858926,108.80639441987864C333.5375541530988,110.63153256928706,334.4079229224907,112.13458751585866,335.21612249406894,113.70921650750512C336.02432206564725,115.28384549915158,336.7703524394119,116.93004853587286,337.57855201098965,118.43310348244448C338.38675158256746,119.93615842901609,339.2571203519583,121.29606528543803,340.18965831916296,122.13706031506739C341.1221962863677,122.97805534469673,342.11690345138624,123.3001385475335,343.1116106164058,123.62222175037029C344.10631778142533,123.94430495320705,345.10102494644593,124.26638815604382,346.09573211146545,125.04475589623269C347.0904392764851,125.82312363642154,348.08514644150364,127.05777591396252,349.0798536065227,128.34610872530962C350.0745607715417,129.6344415366567,351.0692679365613,130.97645488180993,352.06397510158087,132.13058635864172C353.05868226660044,133.28471783547351,354.05338943161996,134.25096744398385,355.04809659663925,135.08301571797884C356.0428037616586,135.91506399197385,357.03751092667767,136.6129109314535,358.03221809169673,137.20339680332094C359.02692525671574,137.79388267518837,360.02163242173486,138.27700747944354,361.01633958675416,138.5185698815711C362.01104675177345,138.76013228369868,363.005753916793,138.76013228369868,364.0004610818126,138.8138128175048C364.9951682468322,138.86749335131094,365.9898754118517,138.97485441892317,366.984582576871,139.32377788866302C367.97928974189034,139.67270135840286,368.9739969069094,140.2631872302703,369.9687040719287,140.79999256833156C370.96341123694805,141.33679790639283,371.95811840196757,141.819922710648,372.9528255669872,141.73940190993883C373.9475327320067,141.6588811092296,374.94223989702624,141.0147147035561,375.9369470620448,140.2631872302703C376.93165422706346,139.51165975698447,377.926361392081,138.65277121608642,378.9210685571,137.52548000615772C379.9157757221191,136.398188796229,380.9104828871396,135.00249491726964,381.90519005215924,133.49943997069803C382.89989721717876,131.9963850241264,383.8946043821973,130.38596900994253,384.88931154721587,129.1781569993046C385.8840187122344,127.9703449886667,386.878725877253,127.16513698157479,387.87343304227255,126.68201217731962C388.8681402072921,126.19888737306447,389.8628473723127,126.03784577164606,390.67104694389144,125.95732497093688C391.47924651547027,125.87680417022767,392.1009384936072,125.87680417022767,392.4117844826757,125.87680417022766L392.7226304717442,125.87680417022767" stroke="#0063AF" stroke-width="2"/></g><g class="mark-line role-mark layer_2_marks" role="graphics-object" aria-roledescription="line mark container"><path aria-label="x3: 0; y3: 0" role="graphics-symbol" aria-roledescription="line mark" d="M8.143972796172722,175.3165758056725L8.678627897370712,174.9783884426939C9.213282998568703,174.6402010797153,10.282593200964685,173.96382635375804,11.298023431922198,173.382287237525C12.313453662879715,172.80074812129192,13.27500392239876,172.31404461478303,14.481086359984753,170.9612951628686C15.687168797570749,169.60854571095413,17.137783413223687,167.38975031363415,18.23549113218102,165.5836336966004C19.333198851138352,163.77751707956668,20.077999673400072,162.38407924281918,20.575353255909096,162.38407924281918C21.072706838418124,162.38407924281918,21.32261318117445,163.77751707956668,21.9449199350629,165.33312453883846C22.56722668895135,166.88873199811027,23.561933853971922,168.6065090799064,24.55664101899149,169.9753626919627C25.55134818401105,171.344216304019,26.546055349029604,172.36414644633544,27.540762514048165,172.20310484491702C28.53546967906671,172.04206324349866,29.530176844085265,170.70004989834544,30.492300894304915,169.27360085570356C31.45442494452456,167.8471518130617,32.38396587994531,166.33626707293124,33.19216545152408,164.6721705249412C34.00036502310286,163.00807397695124,34.68722323083966,161.1907656211017,35.21715992814885,159.3158618346666C35.74709662545805,157.44095804823152,36.12011181233962,155.5084588312109,36.6174653948489,153.57595961419025C37.114818977358176,151.6434603971696,37.736510955495156,149.71096118014896,38.23386453800494,147.7784619631283C38.73121812051472,145.8459627461077,39.10423330739731,143.91346352908704,39.601586889907594,141.9809643120664C40.09894047241789,140.04846509504577,40.72063245055586,138.11596587802512,41.83967801120263,134.59094415808931C42.95872357184938,131.0659224381535,44.57512271500491,125.94837821530253,46.25369105597404,122.59334485241948C47.93225939694316,119.23831148953643,49.672996935725884,117.64578898662126,51.04071928762753,116.60796533303609C52.40844163952918,115.57014167945094,53.40314880454975,115.08701687519577,54.39785596956932,114.8991350068743C55.392563134588876,114.71125313855286,56.38727029960743,114.81861420616512,57.38197746462624,114.87229473997122C58.37668462964505,114.92597527377738,59.3713917946641,114.92597527377738,60.36609895968366,114.65757260474673C61.36080612470323,114.38916993571608,62.3555132897233,113.8523645976548,63.350220454742356,113.36923979339964C64.3449276197614,112.88611498914447,65.33963478477948,112.45667071869546,66.33434194979877,112.08090698205255C67.32904911481809,111.70514324540964,68.32375627983866,111.38306004257286,69.31846344485822,111.19517817425141C70.31317060987779,111.00729630592997,71.30787777489634,110.95361577212384,72.1782465442877,110.3094493664503C73.04861531367906,109.66528296077676,73.79464568744324,108.43063068323579,74.4163376655802,106.95441600356723C75.0380296437172,105.47820132389869,75.53538322622695,103.76042424210254,76.09490600655009,102.09632769411256C76.65442878687321,100.43223114612255,77.2761207650097,98.82181513193866,77.89781274314642,96.99667698253029C78.51950472128313,95.17153883312191,79.1411966994201,93.131678548489,79.88722707318453,92.50540565408419C80.63325744694895,91.87913275967934,81.50362621634082,92.66644725550255,82.31182578791959,93.99056708938707C83.12002535949836,95.31468692327157,83.86605573326405,97.17561209521739,84.67425530484282,98.7144540643264C85.48245487642158,100.25329603343543,86.35282364581347,101.47005479970768,87.22319241520508,101.43426777717026C88.0935611845967,101.39848075463287,88.96392995398806,100.11014794328578,89.83429872337967,98.49973192910191C90.70466749277129,96.88931591491804,91.57503626216315,94.95681669789741,92.50757422936886,93.31956041681048C93.44011219657459,91.68230413572354,94.43481936159414,90.34029079057031,95.4295265266132,89.07879824612627C96.42423369163225,87.81730570168224,97.4189408566508,86.6363339579474,98.41364802166936,85.91164675156467C99.40835518668791,85.18695954518192,100.40306235170647,84.91855687615129,101.39776951672603,85.21379981208499C102.39247668174558,85.5090427480187,103.38718384676616,86.36793128891675,104.879244594295,86.3410910220137C106.37130534182386,86.31425075511062,108.36071967186096,85.40168168040641,109.85278041938979,84.30123073738076C111.34484116691863,83.20077979435513,112.33954833193921,81.91244698300805,113.33425549695879,81.24144031043143C114.32896266197834,80.57043363785483,115.32366982699689,80.51675310404869,116.31837699201571,80.62411417166095C117.31308415703451,80.73147523927321,118.30779132205356,80.99987790830384,119.24032928925952,80.55254012658611C120.1728672564655,80.10520234486837,121.04323602585838,78.94212411240225,121.85143559743689,77.50169645527113C122.65963516901543,76.06126879813999,123.4056655427796,74.34349171634385,124.2138651143576,72.8046497472348C125.02206468593563,71.26580777812576,125.89243345532749,69.90590092170383,126.76280222471962,69.76275283155417C127.63317099411172,69.61960474140449,128.5035397635041,70.69321541752707,129.31173933508236,72.053122273949C130.11993890666065,73.41302913037093,130.8659692804248,75.05923216709222,131.67416885200257,76.53544684676076C132.4823684235803,78.01166152642931,133.35273719297172,79.31788784904514,134.28527516017718,80.42728554770514C135.21781312738264,81.53668324636514,136.21252029240222,82.44925232106932,137.20722745742177,83.20077979435514C138.2019346224413,83.95230726764095,139.1966417874609,84.54279313950838,140.19134895247996,84.22070993667161C141.186056117499,83.89862673383485,142.18076328251755,82.66397445629389,143.1754704475361,81.26828057733452C144.17017761255465,79.87258669837517,145.1648847775732,78.3158512179974,146.15959194259278,77.02751840665032C147.15429910761233,75.7391855953032,148.14900627263293,74.71925545298676,149.14371343765248,73.72616557757337C150.13842060267203,72.73307570215998,151.13312776769058,71.76682609364967,152.12783493270913,71.5252636915221C153.1225420977277,71.28370128939453,154.11724926274624,71.76682609364968,155.11195642776582,72.78675623596614C156.10666359278537,73.80668637828258,157.10137075780597,75.36342185866032,158.09607792282551,76.54439360239515C159.0907850878451,77.72536534612999,160.08549225286365,78.53057335322193,161.08019941788245,78.6110941539311C162.07490658290126,78.6916149546403,163.06961374792033,78.04744854896676,164.06432091293988,77.53748347780854C165.05902807795943,77.02751840665032,166.0537352429795,76.65175467000742,167.04844240799906,76.49071306858903C168.0431495730186,76.32967146717066,169.03785673803768,76.38335200097676,170.03256390305674,76.57123386929821C171.0272710680758,76.75911573761967,172.02197823309487,77.08119894045643,173.0166853981142,77.16171974116563C174.0113925631335,77.24224054187482,175.00609972815303,77.08119894045645,176.00080689317235,76.89331707213499C176.99551405819167,76.70543520381354,177.99022122321074,76.49071306858905,178.98492838823006,76.38335200097679C179.97963555324938,76.27599093336453,180.9743427182689,76.27599093336453,181.96904988328848,76.38335200097679C182.96375704830803,76.49071306858905,183.9584642133276,76.70543520381354,184.95317137834718,76.5175533354921C185.94787854336676,76.32967146717063,186.94258570838633,75.73918559530323,187.93729287340489,74.63873465227756C188.93200003842344,73.53828370925191,189.92670720344097,71.92786769506803,190.75665446720805,70.57633252469705C191.5866017309751,69.22479735432604,192.25178909349174,68.13214302776794,193.1221578628841,67.78321955802811C193.99252663227648,67.43429608828828,195.0680768085446,67.82910347536672,196.1032054791882,67.91914610129369C197.13833414983176,68.00918872722066,198.13304131485083,67.79446659199614,199.1277484798704,67.95550819341453C200.12245564488998,68.1165497948329,201.11716280991004,68.65335513289416,202.11186997492908,69.16332020405237C203.10657713994817,69.6732852752106,204.10128430496624,70.15641007946577,205.09599146998553,70.77373621823625C206.09069863500486,71.39106235700675,207.08540580002543,72.14258983029256,208.080112965045,73.05515890499676C209.07482013006452,73.96772797970097,210.06952729508308,75.04133865582354,211.0642344601017,75.87338692981854C212.05894162512018,76.70543520381354,213.05364879013874,77.29592107568094,214.0483559551583,77.53748347780852C215.0430631201779,77.7790458799361,216.03777028519846,77.67168481232385,217.032477450218,77.61800427851772C218.0271846152376,77.56432374471159,219.02189178025614,77.56432374471159,220.0165989452752,77.56432374471159C221.01130611029427,77.56432374471159,222.00601327531385,77.56432374471159,223.00072044033337,77.56432374471159C223.99542760535294,77.56432374471159,224.99013477037252,77.56432374471159,225.9848419353916,77.8595666806453C226.97954910041062,78.15480961657902,227.97425626542918,78.74529548844642,228.9689634304482,79.38946189411998C229.9636705954673,80.03362829979353,230.95837776048688,80.73147523927322,231.95308492550592,81.6708845808805C232.94779209052498,82.61029392248776,233.94249925554354,83.79126566622257,234.93720642056306,85.07959847756966C235.93191358558263,86.36793128891674,236.9266207506032,87.76362516787607,237.92132791562278,88.99827744541705C238.91603508064236,90.23292972295802,239.9107422456609,91.30654039908062,240.90544941067972,91.95070680475418C241.90015657569856,92.5948732104277,242.8948637407176,92.80959534565223,243.88957090573717,92.97063694707064C244.88427807075672,93.131678548489,245.87898523577678,93.23903961610127,246.87369240079587,93.131678548489C247.8683995658149,93.02431748087675,248.86310673083292,92.70223427803997,249.85781389585225,92.32647054139709C250.85252106087157,91.95070680475418,251.84722822589217,91.52126253430515,252.84193539091223,91.19917933146837C253.8366425559323,90.87709612863159,254.83134972095186,90.66237399340709,255.82605688597042,90.55501292579483C256.82076405098894,90.4476518581826,257.8154712160065,90.4476518581826,258.81017838102554,90.71605452721322C259.8048855460446,90.98445719624387,260.7995927110652,91.52126253430515,261.7942998760847,92.05806787236645C262.7890070411043,92.5948732104277,263.78371420612285,93.131678548489,264.7784213711419,93.61480335274416C265.773128536161,94.09792815699932,266.76783570118056,94.52737242744836,267.76254286620014,94.84945563028514C268.7572500312197,95.17153883312191,269.7519571962393,95.38626096834643,270.7466643612583,95.68150390428013C271.74137152627736,95.97674684021383,272.7360786912959,96.35251057685677,273.730785856315,96.51355217827513C274.725493021334,96.67459377969355,275.72020018635357,96.6209132458874,276.71490735137314,96.54039244517821C277.7096145163927,96.45987164446903,278.7043216814123,96.35251057685677,279.6990288464319,96.45987164446903C280.69373601145145,96.56723271208129,281.688443176471,96.88931591491804,282.68315034149003,97.26507965156095C283.6778575065091,97.64084338820385,284.67256467152765,98.07028765865289,285.66727183654643,98.82181513193869C286.66197900156527,99.57334260522451,287.6566861665843,100.64695328134708,288.65139333160386,101.88160555888804C289.64610049662343,103.116257836429,290.6408076616435,104.51195171538836,291.6355148266628,105.63924292531708C292.63022199168216,106.76653413524578,293.6249291567007,107.62542267614384,294.6196363217197,108.26958908181739C295.6143434867388,108.91375548749095,296.60905065175837,109.34319975793996,297.6037578167779,109.82632456219513C298.59846498179746,110.30944936645028,299.59317214681704,110.84625470451157,300.5257101140225,111.81250431302188C301.45824808122796,112.77875392153221,302.3286168506193,114.17444780049156,303.25831147997656,115.651690969992C304.1880061093338,117.12893413949244,305.1770265986569,118.68772659953396,306.7818218495141,120.58558893318404C308.3866171003713,122.4834512668341,310.6071871127627,124.72038347409271,312.4751063850221,127.34075438512679C314.34302565728154,129.96112529616087,315.858294189409,132.9649349109704,317.0511128401686,135.22731394729536C318.24393149092833,137.48969298362027,319.1143002603202,139.0106414414606,320.04683822752537,140.4958028767635C320.9793761947306,141.9809643120664,321.97408335974916,143.4303387248319,322.9687905247683,144.8528728706943C323.96349768978735,146.27540701655673,324.95820485480687,147.67110089551605,325.89074282201256,149.15626233081898C326.8232807892183,150.64142376612185,327.69364955861016,152.21605275776832,328.5640183280018,153.8264687719522C329.43438709739337,155.43688478613606,330.3047558667847,157.08308782285735,331.23729383398967,158.71139734830993C332.1698318011947,160.3397068737625,333.16453896621323,161.95012288794638,334.1592461312328,163.42633756761492C335.1539532962524,164.90255224728347,336.14866046127287,166.2445655924367,337.14336762629245,167.50605813688074C338.138074791312,168.76755068132476,339.1327819563306,169.94852242505962,340.12748912134913,170.61952909763625C341.1221962863677,171.29053577021284,342.11690345138624,171.4515773716312,343.1116106164058,171.77366057446798C344.10631778142533,172.09574377730473,345.10102494644593,172.57886858155993,346.09573211146545,173.437757122458C347.0904392764851,174.29664566335603,348.08514644150364,175.53129794089702,349.0798536065227,176.9806723536625C350.0745607715417,178.43004676642798,351.0692679365613,180.09414331441795,352.06397510158087,181.24827479124974C353.05868226660044,182.40240626808153,354.05338943161996,183.0465726737551,355.04809659663925,183.50285721110717C356.0428037616586,183.95914174845927,357.03751092667767,184.2275444174899,358.03221809169673,184.36174575200525C359.02692525671574,184.49594708652057,360.02163242173486,184.49594708652057,361.01633958675416,184.49594708652057C362.01104675177345,184.49594708652057,363.005753916793,184.49594708652057,364.0004610818126,184.54962762032667C364.9951682468322,184.60330815413283,365.9898754118517,184.7106692217451,366.984582576871,184.9790718907757C367.97928974189034,185.24747455980636,368.9739969069094,185.6769188302554,369.8941625121269,186.019770892278C370.8143281173443,186.36262295430058,371.65995216276013,186.61888280789665,372.6173578090914,186.56520227409055C373.5747634554228,186.5115217402844,374.64395070266966,186.14790081907606,375.7131994274901,185.40244475350747C376.78244815231056,184.65698868793893,377.85175835470454,183.52969747801023,378.88376703841186,182.4292465349846C379.9157757221191,181.32879559195894,380.9104828871396,180.25518491583637,381.90519005215924,179.07421317210154C382.89989721717876,177.89324142836668,383.8946043821973,176.60490861701962,384.88931154721587,175.50445767399393C385.8840187122344,174.4040067309683,386.878725877253,173.4914376562641,387.91487917414815,172.76675044988136C388.9510324710434,172.04206324349863,390.0286318998153,171.50525790543733,391.02333906483483,170.8610914997638C392.01804622985446,170.21692509409027,392.9298611311217,169.46539762080445,393.38576858175537,169.08963388416157L393.84167603238893,168.71387014751866" stroke="#179FDB" stroke-width="2"/></g><g class="mark-line role-mark layer_3_marks" role="graphics-object" aria-roledescription="line mark container"><path aria-label="x4: 0; y4: 0" role="graphics-symbol" aria-roledescription="line mark" d="M8.143972796172722,183.0465726737551L8.641326378682251,182.67080893711218C9.138679961191782,182.2950452004693,10.13338712621084,181.54351772718348,11.041057414290913,180.64705281262113C11.948727702370988,179.75058789805874,12.769361113512078,178.70918554221984,13.639729882903438,179.00442847815359C14.5100986522948,179.29967141408727,15.430202779936431,180.9315596417936,16.387608426267533,182.60639229654484C17.345014072598637,184.28122495129605,18.339721237619212,185.99900203309218,19.334428402638775,187.50205697966376C20.32913556765834,189.0051119262354,21.323842732676894,190.2934447375825,22.3185498976957,191.47441648131735C23.31325706271451,192.65538822505218,24.307964227733567,193.72899890117478,25.240502194939534,194.26580423923602C26.1730401621455,194.80260957729732,27.043408931538377,194.80260957729732,27.913777700930243,193.94372103639924C28.78414647032211,193.08483249550122,29.654515239712964,191.36705541370506,30.524884009104323,189.54191726429667C31.395252778495685,187.71677911488828,32.26562154788755,185.78427989786766,33.073821119466324,183.95914174845927C33.8820206910451,182.13400359905086,34.62805106481078,180.41622651725473,35.3740814385752,178.59108836784637C36.12011181233962,176.76595021843795,36.866142186102785,174.83345100141733,37.612172559867204,172.9725258294715C38.358202933631624,171.11160065752574,39.10423330739731,169.32224953065477,39.78809448334864,167.2823892460219C40.471955659299965,165.24252896138896,41.09364763743694,162.95215951899414,41.59100121994622,159.71343397935766C42.08835480245549,156.4747084397212,42.46136998933707,152.28762680284316,42.85510824215686,148.78049859417604C43.24884649497664,145.27337038550897,43.66330781373461,142.44619560505282,44.03632300061695,140.35265478661378C44.40933818749929,138.25911396817477,44.74090724250598,136.89920711175284,45.254839277766024,134.13644897186407C45.768771313026065,131.37369083197532,46.46506632853945,127.20808140861972,47.08675830667668,125.16822112398683C47.7084502848139,123.1283608393539,48.25553922557497,123.21424969344368,48.77776048721065,124.0087215937744C49.299981748846314,124.80319349410509,49.79733533135661,126.30624844067673,50.481196507307175,128.10454632318206C51.16505768325775,129.9028442056874,52.03542645264861,131.9963850241264,52.967964419853566,133.12367623405513C53.90050238705853,134.25096744398382,54.89520955207758,134.41200904540221,55.88991671709715,134.1167661094685C56.884623882116706,133.8215231735348,57.87933104713678,133.069995700249,58.87403821215583,132.58687089599383C59.86874537717489,132.10374609173866,60.86345254219294,131.88902395651417,61.85815970721175,131.7816628889019C62.85286687223055,131.67430182128965,63.84757403725012,131.67430182128965,64.84228120227017,131.5669407536774C65.83698836729026,131.45957968606513,66.83169553231083,131.2448575508406,67.8264026973299,130.73489247968237C68.82110986234896,130.22492740852417,69.81581702736649,129.41971940143222,70.7483549945712,128.63240490560898C71.6808929617759,127.84509040978575,72.55126173116777,127.07566942523124,73.35946130274654,125.79628336951849C74.1676608743253,124.51689731380576,74.91369124809101,122.72754618693477,75.49393709435283,120.97398208260125C76.07418294061468,119.22041797826772,76.48864425937266,117.50264089647159,77.24919871025249,115.39010066371884C78.00975316113232,113.27756043096606,79.116400744134,110.77025704725664,80.21472323884255,110.70762975781615C81.3130457335511,110.64500246837565,82.40304313996654,113.0270512732041,83.43651411171071,114.90441964356812C84.46998508345486,116.78178801393211,85.44692962052777,118.1544759498317,86.40433526685861,118.53202903760149C87.36174091318946,118.90958212537127,88.29960766877826,118.29200036501123,89.34464227964656,117.29251994985903C90.38967689051485,116.2930395347068,91.54187935666262,114.91166046476242,93.07124162287967,112.65528869377812C94.60060388909672,110.39891692279383,96.50712595538305,107.26755245076963,97.83340217540854,105.62134941404834C99.15967839543403,103.97514637732706,99.90570876919871,103.81410477590869,100.58956994514926,104.61036602736628C101.27343112109985,105.40662727882386,101.8951230992363,107.1601913831574,102.39247668174634,109.09269060017805C102.88983026425637,111.02518981719868,103.26284545113998,113.13662414690641,103.93427278752851,114.82577161067262C104.60570012391702,116.5149190744388,105.57553960981043,117.78177967226343,106.3422930495128,118.65856172443017C107.10904648921517,119.53534377659696,107.6727138827265,120.02204728310586,108.20322437073679,119.76438072083646C108.73373485874708,119.50671415856705,109.23108844125636,118.50467752751932,109.95639574908283,117.52053440774029C110.68170305690931,116.53639128796125,111.63496409005297,115.57014167945094,112.60894818913384,114.82756096179948C113.58293228821469,114.08498024414803,114.57763945323273,113.56606841735544,115.57234661825203,113.1992514363469C116.56705378327136,112.83243445533834,117.56176094829193,112.61771232011385,118.53574504737355,111.85723809119368C119.50972914645517,111.09676386227352,120.46299017959781,109.7905375396577,121.08468215773452,108.43957743887013C121.70637413587126,107.08861733808254,121.99649705900204,105.69292345912316,122.45240450963593,104.15408149001415C122.90831196026981,102.6152395209051,123.53000393840678,100.93324946164641,124.08952671873016,99.23336589111898C124.64904949905355,97.53348232059159,125.14640308156334,95.81570523879545,125.76809505970031,94.7778815852103C126.38978703783727,93.74005793162515,127.13581741160142,93.38218770625095,127.88184778536585,94.16950220207417C128.6278781591303,94.95681669789741,129.37390853289494,96.88931591491804,130.11993890665937,98.89338917701353C130.8659692804238,100.89746243910902,131.61199965418794,102.97310974627935,132.35803002795237,104.90560896329998C133.1040604017168,106.83810818032062,133.85009077548148,108.62745930719159,134.53395195143256,110.24682207700981C135.21781312738364,111.86618484682803,135.8395051055211,113.31555925959351,136.68500619578708,114.71125313855288C137.53050728605305,116.10694701751224,138.5998174884475,117.44896036266546,139.59452465346658,117.9320851669206C140.58923181848562,118.41520997117577,141.5093359461293,118.03944623453286,142.96409517497068,117.05530311475383C144.41885440381208,116.07115999497479,146.4082687338512,114.47863749205963,147.90032948138006,113.378186549034C149.39239022890888,112.27773560600833,150.38709739392743,111.66935622287222,151.38180455894624,111.57988866652867C152.37651172396502,111.49042111018512,153.3712188889841,111.91986538063416,154.36592605400367,112.69823312082303C155.36063321902324,113.4766008610119,156.3553403840433,114.60389207094062,157.35004754906234,115.5790884350853C158.3447547140814,116.55428479922999,159.33946187909945,117.37738631759062,160.33416904411877,117.43106685139675C161.3288762091381,117.48474738520288,162.32358337415866,116.76900693445448,163.3182905391782,115.92801190482514C164.31299770419778,115.08701687519577,165.30770486921634,114.12076726668545,166.3024120342349,113.59290868425852C167.29711919925344,113.06505010183156,168.291826364272,112.97558254548801,169.28653352929157,112.97558254548801C170.28124069431112,112.97558254548801,171.27594785933172,113.06505010183156,172.76800860686106,112.7608604102635C174.26006935439042,112.45667071869543,176.2494836844285,111.75882377921577,177.74154443195735,111.3562197756698C179.23360517948618,110.95361577212384,180.22831234450575,110.84625470451158,181.2230195095248,110.9983495502956C182.21772667454388,111.15044439607965,183.21243383956244,111.56199515525998,184.18992728355533,111.78846198082279C185.16742072754823,112.01492880638561,186.12770045051548,112.0563116983309,187.0602384177212,111.15268937926108C187.99277638492688,110.24906706019124,188.89757259637108,108.40043953010625,189.78515508678888,106.5367164234565C190.67273757720662,104.67299331680674,191.54310634659802,102.79417463359222,192.24725512232956,101.32177531942905C192.95140389806116,99.84937600526591,193.48933268013297,98.78339606015409,194.48403984515255,99.42756246582763C195.47874701017213,100.07172887150118,196.93023255813944,102.42604162796009,198.65068249714167,104.40840601328148C200.37113243614385,106.39077039860287,202.36054676618096,108.00118641278675,203.83188444777213,109.22689193469337C205.30322212936323,110.45259745659997,206.2564831625084,111.29359248622933,207.25119032752798,112.2866823616427C208.24589749254756,113.2797722370561,209.2820507894415,114.4249569582535,210.29748102039824,115.39120656676384C211.312911251355,116.35745617527418,212.30761841637457,117.14477067109742,213.30232558139411,117.44896036266549C214.2970327464137,117.75315005423356,215.29173991143327,117.57421494154646,216.28644707645256,117.3415992950532C217.28115424147188,117.10898364856,218.27586140649092,116.82268746826064,219.27056857151024,116.6258588443048C220.26527573652956,116.42903022034899,221.25998290154914,116.32166915273672,222.2546900665687,116.26798861893059C223.24939723158823,116.21430808512446,224.24410439660787,116.21430808512446,225.25124540118972,116.62943754655855C226.2583864057716,117.04456700799261,227.27796124991576,117.87482593086077,228.27266841493483,118.94843660698335C229.26737557995386,120.02204728310592,230.23721506584778,121.33900971248295,231.1573191934912,122.71323137791984C232.0774233211346,124.08745304335673,232.9477920905275,125.51893394485352,233.7559916621053,127.02198889142512C234.56419123368303,128.52504383799672,235.3102216074457,130.0996728296432,236.05625198121012,131.71008884382707C236.80228235497452,133.32050485801093,237.5483127287407,134.9667078947322,238.35651230031922,136.44292257440074C239.16471187189777,137.91913725406928,240.0350806412886,139.2253635766851,240.96761860849358,139.9053170048961C241.90015657569856,140.58527043310704,242.8948637407176,140.63895096691317,243.88957090573717,140.66579123381624C244.88427807075672,140.6926315007193,245.87898523577678,140.6926315007193,246.87369240079587,140.69263150071927C247.8683995658149,140.6926315007193,248.86310673083292,140.6926315007193,249.85781389585225,140.69263150071927C250.85252106087157,140.6926315007193,251.84722822589217,140.6926315007193,252.84193539091223,140.55843016620398C253.8366425559323,140.42422883168865,254.83134972095186,140.155826162658,255.82605688597042,139.64586109149977C256.82076405098894,139.13589602034156,257.8154712160065,138.38436854705577,258.81017838102554,138.22332694563738C259.8048855460446,138.06228534421902,260.7995927110652,138.49172961466806,261.7942998760847,139.21641682105079C262.7890070411043,139.9411040274335,263.78371420612285,140.96103416974998,264.7784213711419,141.92728377826026C265.773128536161,142.8935333867706,266.76783570118056,143.80610246147478,267.76254286620014,144.6381507354698C268.7572500312197,145.47019900946478,269.7519571962393,146.2217264827506,270.7466643612583,146.83905262152106C271.74137152627736,147.45637876029159,272.7360786912959,147.93950356454673,273.730785856315,148.18106596667428C274.725493021334,148.42262836880187,275.72020018635357,148.42262836880187,276.71490735137314,148.476308902608C277.7096145163927,148.52998943641413,278.7043216814123,148.6373505040264,279.6990288464319,149.03995450757233C280.69373601145145,149.44255851111834,281.688443176471,150.140405450598,283.1805039239996,151.401897995042C284.67256467152816,152.66339053948604,286.6619790015657,154.48852868889443,288.2783781447218,156.12578496998137C289.89477728787784,157.7630412510683,291.1381612441523,159.2124156638338,292.2572068047988,160.04446393782882C293.3762523654453,160.8765122118238,294.37095953046384,161.09123434704833,295.3656666954824,161.19859541466062C296.36037386050094,161.30595648227285,297.3550810255195,161.30595648227285,298.3497881905391,161.7354007527219C299.34449535555865,162.1648450231709,300.3392025205792,163.02373356406898,301.3960788834129,164.59836255571543C302.4529552462466,166.17299154736187,303.5720008068933,168.46336098975672,304.56670797191236,170.23481860535898C305.56141513693143,172.00627622096124,306.4317839063228,173.2588220097709,307.36432187352824,174.09981703940025C308.2968598407337,174.9408120690296,309.2915670057533,175.37025633947863,310.2862741707726,175.8533811437338C311.2809813357919,176.33650594798897,312.27568850081093,176.87331128605024,313.2703956658303,177.89324142836668C314.26510283084957,178.91317157068315,315.25980999586915,180.41622651725478,316.2545171608887,181.97296199763252C317.2492243259083,183.52969747801026,318.2439314909279,185.14011349219413,319.2386386559474,186.6163281718627C320.233345820967,188.09254285153122,321.22805298598655,189.4345561966844,322.2227601510056,190.72288900803153C323.2174673160246,192.01122181937862,324.2121744810432,193.2458740969196,325.14471244824887,194.4536861075575C326.0772504154546,195.6614981181954,326.9476191848475,196.84246986193023,327.75581875642524,198.18448320708345C328.564018328003,199.52649655223664,329.31004870176565,201.02955149880827,329.99390987771625,202.559446712283C330.67777105366685,204.08934192575768,331.2994630318053,205.6460774061354,332.10766260338386,206.7733686160641C332.91586217496234,207.9006598259928,333.9105693399809,208.5985067654725,334.9467226368756,209.35898099439268C335.98287593377034,210.11945522331283,337.0604753625412,210.94255674167346,338.0551825275607,211.74776474876538C339.0498896925803,212.55297275585733,339.96170459384854,213.34028725168056,340.9149656269917,213.9486666348167C341.8682266601349,214.55704601795279,342.8629338251529,214.98649028840182,343.85764099017223,215.469615092657C344.8523481551915,215.95273989691214,345.8470553202121,216.48954523497343,346.8417624852322,217.56315591109603C347.83646965025224,218.6367665872186,348.8311768152718,220.2471826014025,349.82588398029037,221.85759861558634C350.8205911453089,223.4680146297702,351.81529831032645,225.07843064395408,352.8100054753456,225.93731918485216C353.80471264036464,226.79620772575018,354.79941980538524,226.90356879336244,355.79412697040476,226.79620772575018C356.78883413542434,226.68884665813798,357.7835413004429,226.36676345530114,358.77824846546196,226.15204132007668C359.772955630481,225.9373191848521,360.7676627955006,225.8299581172399,361.7623699605201,225.77627758343374C362.75707712553975,225.72259704962758,363.75178429055927,225.72259704962758,364.74649145557834,225.72259704962764C365.74119862059734,225.72259704962758,366.7359057856159,225.72259704962758,367.7306129506349,225.72259704962764C368.72532011565403,225.72259704962758,369.7200272806736,225.72259704962758,370.7147344456932,225.64207624891844C371.70944161071276,225.56155544820922,372.70414877573234,225.40051384679086,373.69885594075186,224.9173890425357C374.6935631057715,224.43426423828055,375.688270270791,223.62905623118863,376.6829774358101,222.7970079571936C377.6776846008291,221.9649596831986,378.67239176584764,221.10607114230052,379.6670989308664,220.19350206759637C380.6618060958852,219.28093299289216,381.6565132609043,218.31468338438185,382.65122042592384,217.40211430967761C383.6459275909435,216.48954523497343,384.6406347559635,215.63065669407536,385.6477757605457,214.7932403666997C386.6549167651278,213.95582403932414,387.6744916092719,213.13987992547095,388.65676493472847,212.45276909275253C389.6390382601849,211.7656582600341,390.5840100669538,211.20738070845036,391.0564959703381,210.9282419326585L391.52898187372256,210.64910315686663" stroke="#36B7B4" stroke-width="2"/></g><g class="mark-text role-mark layer_4_marks" role="graphics-object" aria-roledescription="text mark container"><text aria-label="x: 2019.2; y: 0.53; t: All ages" role="graphics-symbol" aria-roledescription="text mark" text-anchor="start" transform="translate(394.66666666666697,58.38461538461539)" font-family="sans-serif" font-size="11px" fill="#F4134D">All ages</text></g><g class="mark-text role-mark layer_5_marks" role="graphics-object" aria-roledescription="text mark container"><text aria-label="x: 2019.2; y: 0.375; t: 30-34 year olds" role="graphics-symbol" aria-roledescription="text mark" text-anchor="start" transform="translate(394.66666666666697,129.92307692307693)" font-family="sans-serif" font-size="11px" fill="#0063AF">30-34 year olds</text></g><g class="mark-text role-mark layer_6_marks" role="graphics-object" aria-roledescription="text mark container"><text aria-label="x: 2019.2; y: 0.285; t: 25-34 year olds" role="graphics-symbol" aria-roledescription="text mark" text-anchor="start" transform="translate(394.66666666666697,171.46153846153845)" font-family="sans-serif" font-size="11px" fill="#179FDB">25-34 year olds</text></g><g class="mark-text role-mark layer_7_marks" role="graphics-object" aria-roledescription="text mark container"><text aria-label="x: 2019.2; y: 0.195; t: 25-29 year olds" role="graphics-symbol" aria-roledescription="text mark" text-anchor="start" transform="translate(394.66666666666697,213)" font-family="sans-serif" font-size="11px" fill="#36B7B4">25-29 year olds</text></g></g><path class="foreground" aria-hidden="true" d="" display="none"/></g></g></g></svg>