<svg xmlns="http://www.w3.org/2000/svg" xmlns:xlink="http://www.w3.org/1999/xlink" version="1.1" class="marks" width="4792" height="2673" viewBox="0 0 4792 2673"><rect width="4792" height="2673" fill="white"/><g fill="none" stroke-miterlimit="10" transform="translate(4336,2351)"><g class="mark-group role-frame root" role="graphics-object" aria-roledescription="group mark container"><g transform="translate(0,0)"><path class="background" aria-hidden="true" d="M0,0h450v300h-450Z"/><g><g class="mark-group role-axis" role="graphics-symbol" aria-roledescription="axis" aria-label="X-axis for a linear scale with values from 2020 to 2026"><g transform="translate(0.5,300.5)"><path class="background" aria-hidden="true" d="M0,0h0v0h0Z" pointer-events="none"/><g><g class="mark-rule role-axis-tick" pointer-events="none"><line transform="translate(7,0)" x2="0" y2="5" stroke="#676A86" stroke-width="1" opacity="1"/><line transform="translate(81,0)" x2="0" y2="5" stroke="#676A86" stroke-width="1" opacity="1"/><line transform="translate(155,0)" x2="0" y2="5" stroke="#676A86" stroke-width="1" opacity="1"/><line transform="translate(229,0)" x2="0" y2="5" stroke="#676A86" stroke-width="1" opacity="1"/><line transform="translate(302,0)" x2="0" y2="5" stroke="#676A86" stroke-width="1" opacity="1"/><line transform="translate(376,0)" x2="0" y2="5" stroke="#676A86" stroke-width="1" opacity="1"/><line transform="translate(450,0)" x2="0" y2="5" stroke="#676A86" stroke-width="1" opacity="1"/></g><g class="mark-text role-axis-label" pointer-events="none"><text text-anchor="middle" transform="translate(7.377049180321269,15)" font-family="sans-serif" font-size="10px" fill="#676A86" opacity="1">2020</text><text text-anchor="middle" transform="translate(81.14754098360105,15)" font-family="sans-serif" font-size="10px" fill="#676A86" opacity="1">2021</text><text text-anchor="middle" transform="translate(154.91803278688084,15)" font-family="sans-serif" font-size="10px" fill="#676A86" opacity="1">2022</text><text text-anchor="middle" transform="translate(228.68852459016065,15)" font-family="sans-serif" font-size="10px" fill="#676A86" opacity="1">2023</text><text text-anchor="middle" transform="translate(302.45901639344044,15)" font-family="sans-serif" font-size="10px" fill="#676A86" opacity="1">2024</text><text text-anchor="middle" transform="translate(376.22950819672025,15)" font-family="sans-serif" font-size="10px" fill="#676A86" opacity="1">2025</text><text text-anchor="end" transform="translate(450,15)" font-family="sans-serif" font-size="10px" fill="#676A86" opacity="1">2026</text></g><g class="mark-rule role-axis-domain" pointer-events="none"><line transform="translate(0,0)" x2="450" y2="0" stroke="#676A86" stroke-width="1" opacity="1"/></g></g><path class="foreground" aria-hidden="true" d="" pointer-events="none" display="none"/></g></g><g class="mark-group role-axis" role="graphics-symbol" aria-roledescription="axis" aria-label="Y-axis titled '%' for a linear scale with values from −1 to 6"><g transform="translate(0.5,0.5)"><path class="background" aria-hidden="true" d="M0,0h0v0h0Z" pointer-events="none"/><g><g class="mark-rule role-axis-tick" pointer-events="none"><line transform="translate(0,300)" x2="-5" y2="0" stroke="#676A86" stroke-width="1" opacity="1"/><line transform="translate(0,257)" x2="-5" y2="0" stroke="#676A86" stroke-width="1" opacity="1"/><line transform="translate(0,214)" x2="-5" y2="0" stroke="#676A86" stroke-width="1" opacity="1"/><line transform="translate(0,171)" x2="-5" y2="0" stroke="#676A86" stroke-width="1" opacity="1"/><line transform="translate(0,129)" x2="-5" y2="0" stroke="#676A86" stroke-width="1" opacity="1"/><line transform="translate(0,86)" x2="-5" y2="0" stroke="#676A86" stroke-width="1" opacity="1"/><line transform="translate(0,43)" x2="-5" y2="0" stroke="#676A86" stroke-width="1" opacity="1"/><line transform="translate(0,0)" x2="-5" y2="0" stroke="#676A86" stroke-width="1" opacity="1"/></g><g class="mark-text role-axis-label" pointer-events="none"><text text-anchor="end" transform="translate(-7,303)" font-family="sans-serif" font-size="10px" fill="#676A86" opacity="1">−1</text><text text-anchor="end" transform="translate(-7,260.14285714285717)" font-family="sans-serif" font-size="10px" fill="#676A86" opacity="1">0</text><text text-anchor="end" transform="translate(-7,217.28571428571428)" font-family="sans-serif" font-size="10px" fill="#676A86" opacity="1">1</text><text text-anchor="end" transform="translate(-7,174.42857142857142)" font-family="sans-serif" font-size="10px" fill="#676A86" opacity="1">2</text><text text-anchor="end" transform="translate(-7,131.57142857142858)" font-family="sans-serif" font-size="10px" fill="#676A86" opacity="1">3</text><text text-anchor="end" transform="translate(-7,88.71428571428571)" font-family="sans-serif" font-size="10px" fill="#676A86" opacity="1">4</text><text text-anchor="end" transform="translate(-7,45.85714285714287)" font-family="sans-serif" font-size="10px" fill="#676A86" opacity="1">5</text><text text-anchor="end" transform="translate(-7,3)" font-family="sans-serif" font-size="10px" fill="#676A86" opacity="1">6</text></g><g class="mark-rule role-axis-domain" pointer-events="none"><line transform="translate(0,300)" x2="0" y2="-300" stroke="#676A86" stroke-width="1" opacity="1"/></g><g class="mark-text role-axis-title" pointer-events="none"><text text-anchor="start" transform="translate(-5,-7)" font-family="sans-serif" font-size="11px" font-weight="bold" fill="#676A86" opacity="1">%</text></g></g><path class="foreground" aria-hidden="true" d="" pointer-events="none" display="none"/></g></g><g class="mark-area role-mark layer_0_marks" role="graphics-object" aria-roledescription="area mark container"><path aria-label="x: 2022.87; y: −1; y2: 6" role="graphics-symbol" aria-roledescription="area mark" d="M219.09836065572622,300L450,300L450,0L219.09836065572622,0Z" fill="#676A86" opacity="0.1"/></g><g class="mark-line role-mark layer_1_marks" role="graphics-object" aria-roledescription="line mark container"><path aria-label="x1: 0; y1: 0" role="graphics-symbol" aria-roledescription="line mark" d="M-4328.734727255537,-1045.6842670820308L-4295.7137107118715,-1045.6842670820308L-4295.7137107118715,-1021.7580862998706L-4262.692694168172,-1021.7580862998706L-4262.692694168172,-1009.7949959087905L-4229.6716776245385,-1009.7949959087905L-4229.6716776245385,-1024.7488588976407L-4196.650661080823,-1024.7488588976407L-4196.650661080823,-1042.693494484261L-4163.629644537174,-1042.693494484261L-4163.629644537174,-1030.7304040931808L-4130.608627993524,-1030.7304040931808L-4130.608627993524,-1012.7857685065607L-4097.587611449808,-1012.7857685065607L-4097.587611449808,-1027.7396314954108L-4064.566594906159,-1027.7396314954108L-4064.566594906159,-1056.1519711742262L-4035.6732054304784,-1056.1519711742262L-4035.6732054304784,-1088.5520076500686L-3982.014053546969,-1088.5520076500686L-3982.014053546969,-1147.3705354062124L-3957.248291139207,-1147.3705354062124L-3957.248291139207,-1165.315170992833L-3915.972020459637,-1165.315170992833L-3915.972020459637,-1180.2690339816832L-3882.9510039159545,-1180.2690339816832L-3882.9510039159545,-1205.6906010627285L-3849.9299873723053,-1205.6906010627285L-3849.9299873723053,-1244.5706448337392L-3813.7150344323895,-1244.5706448337392L-3813.7150344323895,-1274.0144128868162L-3775.632700149036,-1274.0144128868162L-3775.632700149036,-1278.9645297080942L-3742.611683605386,-1278.9645297080942L-3742.611683605386,-1280.4599160069797L-3709.59066706167,-1280.4599160069797L-3709.59066706167,-1275.9737571103244L-3676.5696505180213,-1275.9737571103244L-3676.5696505180213,-1275.9737571103244L-3643.548633974355,-1275.9737571103244L-3643.548633974355,-1293.918392696945L-3610.527617430655,-1293.918392696945L-3610.527617430655,-1314.853800881335L-3577.5066008869894,-1314.853800881335L-3577.5066008869894,-1329.8076638701853L-3544.4855843433234,-1329.8076638701853L-3544.4855843433234,-1340.2753679623804L-3511.464567799641,-1340.2753679623804L-3511.464567799641,-1362.7061624456558L-3478.443551255975,-1362.7061624456558L-3478.443551255975,-1386.6323432278161L-3420.656772304547,-1386.6323432278161L-3420.656772304547,-1424.0170006999417L-3387.635755760864,-1424.0170006999417L-3387.635755760864,-1437.475477389907L-3354.614739217215,-1437.475477389907L-3354.614739217215,-1449.4385677809873L-3321.5937226734986,-1449.4385677809873L-3321.5937226734986,-1458.410885574297L-3288.5727061298494,-1458.410885574297L-3288.5727061298494,-1467.3832033676072L-3247.296435450296,-1467.3832033676072L-3247.296435450296,-1476.3555211609173L-3214.27541890658,-1476.3555211609173L-3214.27541890658,-1474.8601348620325L-3185.382029430866,-1474.8601348620325L-3185.382029430866,-1475.3585969616606L-3147.2027545859605,-1475.3585969616606L-3147.2027545859605,-1474.3111487918607L-3115.2123692755654,-1474.3111487918607L-3115.2123692755654,-1507.758633437503L-3090.4466068678366,-1507.758633437503L-3090.4466068678366,-1524.2078827252378L-3049.1703361882333,-1524.2078827252378L-3049.1703361882333,-1563.0879264962487L-3016.1493196445504,-1563.0879264962487L-3016.1493196445504,-1591.5002661750643L-2987.2559301688198,-1591.5002661750643L-2987.2559301688198,-1591.0018040754358L-2950.107286557202,-1591.0018040754358L-2950.107286557202,-1587.014107278409L-2917.0862700135194,-1587.014107278409L-2917.0862700135194,-1572.0602442895588L-2884.0652534698365,-1572.0602442895588L-2884.0652534698365,-1548.1340635073984L-2851.044236926221,-1548.1340635073984L-2851.044236926221,-1555.6109950018238L-2818.0232203825044,-1555.6109950018238L-2818.0232203825044,-1598.9771976694897L-2785.002203838855,-1598.9771976694897L-2785.002203838855,-1643.83878663604L-2751.981187295206,-1643.83878663604L-2751.981187295206,-1682.7188304070505L-2718.96017075149,-1682.7188304070505L-2718.96017075149,-1718.6081015802908L-2685.9391542078406,-1718.6081015802908L-2685.9391542078406,-1732.0665782702556L-2652.9181376641914,-1732.0665782702556L-2652.9181376641914,-1742.5342823624512L-2619.8971211204753,-1742.5342823624512L-2619.8971211204753,-1760.4789179490717L-2586.876104576826,-1760.4789179490717L-2586.876104576826,-1781.414326133462L-2553.8550880331436,-1781.414326133462L-2553.8550880331436,-1791.8820302256572L-2524.9616985573957,-1791.8820302256572L-2524.9616985573957,-1796.3681891223118L-2421.771021858429,-1796.3681891223118L-2421.771021858429,-1839.7343917899777L-2388.7500053147464,-1839.7343917899777L-2388.7500053147464,-1853.1928684799432L-2355.728988771097,-1853.1928684799432L-2355.728988771097,-1869.6421177676784L-2322.7079722274143,-1869.6421177676784L-2322.7079722274143,-1908.5221615386886L-2273.1764474119072,-1908.5221615386886L-2273.1764474119072,-1965.3468408963192L-2240.1554308682576,-1965.3468408963192L-2240.1554308682576,-1984.786862781825L-2207.1344143246088,-1984.786862781825L-2207.1344143246088,-2005.7222709662153L-2174.1133977808922,-2005.7222709662153L-2174.1133977808922,-2017.6853613572955L-2141.092381237243,-2017.6853613572955L-2141.092381237243,-2029.6484517483752L-2108.0713646935938,-2029.6484517483752L-2108.0713646935938,-2041.6115421394559L-2075.0503481498777,-2041.6115421394559L-2075.0503481498777,-2052.0792462316513L-2042.0293316062284,-2052.0792462316513L-2042.0293316062284,-2062.5469503238464L-2009.0083150625455,-2062.5469503238464L-2009.0083150625455,-2070.0238818182715L-1975.987298518863,-2070.0238818182715L-1975.987298518863,-2081.9869722093513L-1942.966281975197,-2081.9869722093513L-1942.966281975197,-2098.4362214970865L-1909.9452654315144,-2098.4362214970865L-1909.9452654315144,-2116.3808570837073L-1876.9242488878315,-2116.3808570837073L-1876.9242488878315,-2123.857788578132L-1843.9032323441486,-2123.857788578132L-1843.9032323441486,-2129.8393337736725L-1810.8822158005332,-2129.8393337736725L-1810.8822158005332,-2126.848561175902L-1777.861199256817,-2126.848561175902L-1777.861199256817,-2120.8670159803623L-1744.8401827131675,-2120.8670159803623L-1744.8401827131675,-2119.371629681477L-1711.8191661695184,-2119.371629681477L-1711.8191661695184,-2131.334720072557L-1678.7981496258021,-2131.334720072557L-1678.7981496258021,-2141.802424164752L-1645.777133082153,-2141.802424164752L-1645.777133082153,-2153.765514555833L-1612.7561165385039,-2153.765514555833L-1612.7561165385039,-2167.223991245798L-1579.7350999947876,-2167.223991245798L-1579.7350999947876,-2180.682467935763L-1546.7140834511383,-2180.682467935763L-1546.7140834511383,-2195.636330924613L-1513.6930669074557,-2195.636330924613L-1513.6930669074557,-2200.122489821268L-1480.6720503637728,-2200.122489821268L-1480.6720503637728,-2203.1132624190377L-1447.6510338201067,-2203.1132624190377L-1447.6510338201067,-2209.0948076145783L-1414.630017276424,-2209.0948076145783L-1414.630017276424,-2209.0948076145783L-1381.6090007327414,-2209.0948076145783L-1381.6090007327414,-2218.0671254078884L-1348.5879841890585,-2218.0671254078884L-1348.5879841890585,-2228.5348295000836L-1315.5669676454095,-2228.5348295000836L-1315.5669676454095,-2237.5071472933937L-1282.5459511017268,-2237.5071472933937L-1282.5459511017268,-2239.0025335922787L-1249.5249345580776,-2239.0025335922787L-1249.5249345580776,-2239.0025335922787L-1216.503918014428,-2239.0025335922787L-1216.503918014428,-2234.516374695624L-1183.482901470712,-2234.516374695624L-1183.482901470712,-2230.0302157989686L-1150.4618849270628,-2230.0302157989686L-1150.4618849270628,-2222.5532843045435L-1117.4408683834135,-2222.5532843045435L-1117.4408683834135,-2219.562511706773L-1084.4198518396972,-2219.562511706773L-1084.4198518396972,-2209.0948076145783L-1051.3988352960482,-2209.0948076145783L-1051.3988352960482,-2194.140944625728L-1018.3778187523654,-2194.140944625728L-1018.3778187523654,-2182.1778542346474L-985.3568022086827,-2182.1778542346474L-985.3568022086827,-2170.214763843568L-952.3357856650166,-2170.214763843568L-952.3357856650166,-2158.2516734524875L-919.3147691213338,-2158.2516734524875L-919.3147691213338,-2143.2978104636372L-886.2937525776513,-2143.2978104636372L-886.2937525776513,-2125.353174877017L-853.2727360339684,-2125.353174877017L-853.2727360339684,-2108.9039255892817L-820.2517194903193,-2108.9039255892817L-820.2517194903193,-2093.9500626004315L-791.3583300145717,-2093.9500626004315L-791.3583300145717,-2077.5008133126958L-754.2096864029872,-2077.5008133126958L-754.2096864029872,-2056.5654051283063L-721.1886698593381,-2056.5654051283063L-721.1886698593381,-2037.1253832428006L-688.1676533156218,-2037.1253832428006L-688.1676533156218,-2017.6853613572955L-655.1466367719727,-2017.6853613572955L-655.1466367719727,-2002.7314983684448L-622.1256202283234,-2002.7314983684448L-622.1256202283234,-1995.2545668740202L-589.1046036846071,-1995.2545668740202L-589.1046036846071,-1990.7684079773653L-556.083587140958,-1990.7684079773653L-556.083587140958,-1978.8053175862851L-523.0625705972752,-1978.8053175862851L-523.0625705972752,-1966.8422271952045L-490.04155405359245,-1966.8422271952045L-490.04155405359245,-1957.8699094018946L-457.0205375099265,-1957.8699094018946L-457.0205375099265,-1957.8699094018946L-423.99952096626055,-1957.8699094018946L-423.99952096626055,-1957.8699094018946L-390.97850442257777,-1957.8699094018946L-390.97850442257777,-1950.3929779074697L-357.95748787889505,-1950.3929779074697L-357.95748787889505,-1945.9068190108142L-324.93647133522904,-1945.9068190108142L-324.93647133522904,-1945.9068190108142L-291.9154547915463,-1945.9068190108142L-291.9154547915463,-1945.9068190108142L-258.8944382478636,-1945.9068190108142L-258.8944382478636,-1954.8791368041245L-225.87342170424793,-1954.8791368041245L-225.87342170424793,-1968.3376134940897L-192.85240516053167,-1968.3376134940897L-192.85240516053167,-1981.7960901840547L-159.83138861688246,-1981.7960901840547L-159.83138861688246,-1995.2545668740202L-126.81037207323327,-1995.2545668740202L-126.81037207323327,-2005.7222709662153L-93.78935552951698,-2005.7222709662153L-93.78935552951698,-2013.1992024606404L-73.15122018972366,-2013.1992024606404L-73.15122018972366,-2017.6853613572955" stroke="#F4134D" stroke-width="2"/></g><g class="mark-line role-mark layer_2_marks" role="graphics-symbol" aria-roledescription="line mark container"/><g class="mark-line role-mark layer_3_marks" role="graphics-symbol" aria-roledescription="line mark container"/><g class="mark-line role-mark layer_4_marks" role="graphics-object" aria-roledescription="line mark container"><path aria-label="x2: 1961.22159592; y2: 28.7942516044" role="graphics-symbol" aria-roledescription="line mark" d="M-4328.734727255537,-976.89649733332L-4295.7137107118715,-976.89649733332L-4295.7137107118715,-976.89649733332L-4266.820321236157,-976.89649733332L-4266.820321236157,-990.8534361229135L-4246.182185896364,-990.8534361229135L-4246.182185896364,-1060.638130070881L-4229.6716776245385,-1060.638130070881L-4229.6716776245385,-1123.4443546240523L-4213.161169352665,-1123.4443546240523L-4213.161169352665,-1192.2321243727633L-4188.395406944969,-1192.2321243727633L-4188.395406944969,-1238.5890996381988L-4159.5020174692045,-1238.5890996381988L-4159.5020174692045,-1186.250579177223L-4134.73625506146,-1186.250579177223L-4134.73625506146,-1132.4166724173624L-4105.842865585746,-1132.4166724173624L-4105.842865585746,-1111.4812642329723L-4072.8218490420795,-1111.4812642329723L-4072.8218490420795,-1135.4074450151322L-4048.0560866343008,-1135.4074450151322L-4048.0560866343008,-1159.3336257972928L-4031.5455783624766,-1159.3336257972928L-4031.5455783624766,-1216.1583051549237L-4015.0350700906515,-1216.1583051549237L-4015.0350700906515,-1287.9368475014044L-3998.5245618187932,-1287.9368475014044L-3998.5245618187932,-1359.7153898478857L-3982.014053546969,-1359.7153898478857L-3982.014053546969,-1431.4939321943668L-3957.248291139207,-1431.4939321943668L-3957.248291139207,-1456.915499275412L-3924.227274595524,-1456.915499275412L-3924.227274595524,-1434.4847047921367L-3893.5736486075266,-1434.4847047921367L-3893.5736486075266,-1411.9966087325133L-3858.185241508192,-1411.9966087325133L-3858.185241508192,-1563.0879264962487L-3841.6747332364007,-1563.0879264962487L-3841.6747332364007,-1622.9033784516498L-3816.9089708285883,-1622.9033784516498L-3816.9089708285883,-1670.7557400159703L-3783.8879542849395,-1670.7557400159703L-3783.8879542849395,-1642.343400337155L-3750.866937741274,-1642.343400337155L-3750.866937741274,-1621.4079921527646L-3717.8459211975737,-1621.4079921527646L-3717.8459211975737,-1658.7926496248901L-3684.8249046539413,-1658.7926496248901L-3684.8249046539413,-1700.6634659936708L-3651.803888110225,-1700.6634659936708L-3651.803888110225,-1694.6819207981305L-3618.7828715665764,-1694.6819207981305L-3618.7828715665764,-1676.7372852115107L-3594.017109158831,-1676.7372852115107L-3594.017109158831,-1706.645011189211L-3577.5066008869894,-1706.645011189211L-3577.5066008869894,-1766.4604631446116L-3560.9960926151484,-1766.4604631446116L-3560.9960926151484,-1829.2666876977826L-3544.4855843433234,-1829.2666876977826L-3544.4855843433234,-1889.082139653184L-3523.8474490035137,-1889.082139653184L-3523.8474490035137,-1917.9929414316275L-3499.081686595768,-1917.9929414316275L-3499.081686595768,-1868.1467314687932L-3478.443551255975,-1868.1467314687932L-3478.443551255975,-1820.2943699044724L-3453.6777888481956,-1820.2943699044724L-3453.6777888481956,-1790.386643926772L-3424.7843993724987,-1790.386643926772L-3424.7843993724987,-1832.2574602955528L-3400.0186369647367,-1832.2574602955528L-3400.0186369647367,-1878.11597346136L-3371.1252474890393,-1878.11597346136L-3371.1252474890393,-1918.989865630884L-3338.1042309453564,-1918.989865630884L-3338.1042309453564,-1942.9160464130443L-3305.083214401691,-1942.9160464130443L-3305.083214401691,-1974.31915868963L-3272.062197857991,-1974.31915868963L-3272.062197857991,-2013.1992024606404L-3239.0411813143423,-2013.1992024606404L-3239.0411813143423,-2049.0884736338808L-3206.020164770676,-2049.0884736338808L-3206.020164770676,-2074.510040714926L-3172.9991482269766,-2074.510040714926L-3172.9991482269766,-2096.9408351982015L-3139.978131683344,-2096.9408351982015L-3139.978131683344,-2092.4546763015464L-3106.957115139628,-2092.4546763015464L-3106.957115139628,-2068.5284955193865L-3073.936098595979,-2068.5284955193865L-3073.936098595979,-2071.519268117156L-3040.915082052329,-2071.519268117156L-3040.915082052329,-2105.9131529915117L-3007.894065508613,-2105.9131529915117L-3007.894065508613,-2117.876243382592L-2974.873048964964,-2117.876243382592L-2974.873048964964,-2077.5008133126958L-2941.8520324212814,-2077.5008133126958L-2941.8520324212814,-2035.6299969439156L-2908.8310158775985,-2035.6299969439156L-2908.8310158775985,-2029.6484517483752L-2875.8099993339497,-2029.6484517483752L-2875.8099993339497,-2034.134610645031L-2846.916609858252,-2034.134610645031L-2846.916609858252,-2077.5008133126958L-2822.1508474504394,-2077.5008133126958L-2822.1508474504394,-2125.353174877017L-2797.385085042711,-2125.353174877017L-2797.385085042711,-2177.193233238365L-2768.491695566997,-2177.193233238365L-2768.491695566997,-2213.5809665112333L-2735.470679023348,-2213.5809665112333L-2735.470679023348,-2249.470237684474L-2702.449662479699,-2249.470237684474L-2702.449662479699,-2249.470237684474L-2669.428645935983,-2249.470237684474L-2669.428645935983,-2216.5717391090034L-2636.407629392333,-2216.5717391090034L-2636.407629392333,-2198.627103522383L-2603.386612848667,-2198.627103522383L-2603.386612848667,-2209.0948076145783L-2570.3655963049678,-2209.0948076145783L-2570.3655963049678,-2218.0671254078884L-2537.3445797613017,-2218.0671254078884L-2537.3445797613017,-2212.0855802123488L-2504.323563217636,-2212.0855802123488L-2504.323563217636,-2206.104035016808L-2471.302546673953,-2206.104035016808L-2471.302546673953,-2212.0855802123488L-2438.281530130287,-2212.0855802123488L-2438.281530130287,-2224.048670603429L-2405.2605135866042,-2224.048670603429L-2405.2605135866042,-2227.0394432011985L-2372.2394970429214,-2227.0394432011985L-2372.2394970429214,-2227.0394432011985L-2339.218480499239,-2227.0394432011985L-2339.218480499239,-2239.0025335922787L-2306.1974639556233,-2239.0025335922787L-2306.1974639556233,-2273.396418466634L-2273.1764474119072,-2273.396418466634L-2273.1764474119072,-2301.8087581454497L-2240.1554308682576,-2301.8087581454497L-2240.1554308682576,-2325.73493892761L-2207.1344143246088,-2325.73493892761L-2207.1344143246088,-2343.67957451423L-2174.1133977808922,-2343.67957451423L-2174.1133977808922,-2333.211870422035L-2141.092381237243,-2333.211870422035L-2141.092381237243,-2316.7626211343L-2108.0713646935938,-2316.7626211343L-2108.0713646935938,-2292.8364403521396L-2075.0503481498777,-2292.8364403521396L-2075.0503481498777,-2261.4333280755545L-2042.0293316062284,-2261.4333280755545L-2042.0293316062284,-2243.488692488934L-2009.0083150625455,-2243.488692488934L-2009.0083150625455,-2233.0209883967377L-1975.987298518863,-2233.0209883967377L-1975.987298518863,-2224.048670603429L-1942.966281975197,-2224.048670603429L-1942.966281975197,-2216.5717391090034L-1909.9452654315144,-2216.5717391090034L-1909.9452654315144,-2207.5994213156937L-1876.9242488878315,-2207.5994213156937L-1876.9242488878315,-2194.140944625728L-1843.9032323441486,-2194.140944625728L-1843.9032323441486,-2180.682467935763L-1810.8822158005332,-2180.682467935763L-1810.8822158005332,-2162.7378323491425L-1777.861199256817,-2162.7378323491425L-1777.861199256817,-2144.7931967625227L-1744.8401827131675,-2144.7931967625227L-1744.8401827131675,-2122.362402279247L-1711.8191661695184,-2122.362402279247L-1711.8191661695184,-2104.4177666926266L-1678.7981496258021,-2104.4177666926266L-1678.7981496258021,-2098.4362214970865L-1645.777133082153,-2098.4362214970865L-1645.777133082153,-2122.362402279247L-1612.7561165385039,-2122.362402279247L-1612.7561165385039,-2141.802424164752L-1579.7350999947876,-2141.802424164752L-1579.7350999947876,-2122.362402279247L-1546.7140834511383,-2122.362402279247L-1546.7140834511383,-2099.9316077959716L-1513.6930669074557,-2099.9316077959716L-1513.6930669074557,-2095.4454488993165L-1480.6720503637728,-2095.4454488993165L-1480.6720503637728,-2089.463903703777L-1447.6510338201067,-2089.463903703777L-1447.6510338201067,-2089.463903703777L-1414.630017276424,-2089.463903703777L-1414.630017276424,-2087.9685174048914L-1381.6090007327414,-2087.9685174048914L-1381.6090007327414,-2083.4823585082363L-1348.5879841890585,-2083.4823585082363L-1348.5879841890585,-2083.4823585082363L-1315.5669676454095,-2083.4823585082363L-1315.5669676454095,-2081.9869722093513L-1282.5459511017268,-2081.9869722093513L-1282.5459511017268,-2077.5008133126958L-1249.5249345580776,-2077.5008133126958L-1249.5249345580776,-2070.0238818182715L-1216.503918014428,-2070.0238818182715L-1216.503918014428,-2037.1253832428006L-1183.482901470712,-2037.1253832428006L-1183.482901470712,-2004.2268846673303L-1150.4618849270628,-2004.2268846673303L-1150.4618849270628,-1984.786862781825L-1117.4408683834135,-1984.786862781825L-1117.4408683834135,-1975.8145449885149L-1084.4198518396972,-1975.8145449885149L-1084.4198518396972,-1960.8606819996648L-1051.3988352960482,-1960.8606819996648L-1051.3988352960482,-1936.9345012175045L-1018.3778187523654,-1936.9345012175045L-1018.3778187523654,-1914.503706734229L-985.3568022086827,-1914.503706734229L-985.3568022086827,-1884.5959807565284L-952.3357856650166,-1884.5959807565284L-952.3357856650166,-1850.202095882173L-919.3147691213338,-1850.202095882173L-919.3147691213338,-1802.3497343178522L-890.4213796455864,-1802.3497343178522L-890.4213796455864,-1758.4850695505581L-861.5279901699059,-1758.4850695505581L-861.5279901699059,-1712.626556384751L-828.5069736262232,-1712.626556384751L-828.5069736262232,-1670.7557400159703L-799.6135841505259,-1670.7557400159703L-799.6135841505259,-1624.897226850163L-770.7201946748454,-1624.897226850163L-770.7201946748454,-1575.051016887329L-737.6991781311291,-1575.051016887329L-737.6991781311291,-1515.2355649319281L-708.8057886554151,-1515.2355649319281L-708.8057886554151,-1473.3647485631475L-684.0400262476531,-1473.3647485631475L-684.0400262476531,-1427.5062353973399L-655.1466367719727,-1427.5062353973399L-655.1466367719727,-1389.6231158255862L-622.1256202283234,-1389.6231158255862L-622.1256202283234,-1380.6507980322758L-589.1046036846071,-1380.6507980322758L-589.1046036846071,-1371.678480238966L-556.083587140958,-1371.678480238966L-556.083587140958,-1337.2845953646106L-523.0625705972752,-1337.2845953646106L-523.0625705972752,-1299.899937892485L-490.04155405359245,-1299.899937892485L-490.04155405359245,-1272.9829845125546L-457.0205375099265,-1272.9829845125546L-457.0205375099265,-1253.542962627049L-423.99952096626055,-1253.542962627049L-423.99952096626055,-1240.0844859370839L-390.97850442257777,-1240.0844859370839L-390.97850442257777,-1240.0844859370839L-357.95748787889505,-1240.0844859370839L-357.95748787889505,-1237.0937133393138L-324.93647133522904,-1237.0937133393138L-324.93647133522904,-1220.6444640515786L-291.9154547915463,-1220.6444640515786L-291.9154547915463,-1207.1859873616136L-258.8944382478636,-1207.1859873616136L-258.8944382478636,-1225.1306229482338L-225.87342170424793,-1225.1306229482338L-225.87342170424793,-1249.056803730394L-192.85240516053167,-1249.056803730394L-192.85240516053167,-1287.9368475014044L-159.83138861688246,-1287.9368475014044L-159.83138861688246,-1332.7984364679553L-126.81037207323327,-1332.7984364679553L-126.81037207323327,-1355.2292309512304L-93.78935552951698,-1355.2292309512304L-93.78935552951698,-1359.7153898478857L-73.15122018972366,-1359.7153898478857L-73.15122018972366,-1359.7153898478857" stroke="#36B7B4" stroke-width="2"/></g><g class="mark-line role-mark layer_5_marks" role="graphics-symbol" aria-roledescription="line mark container"/><g class="mark-line role-mark layer_6_marks" role="graphics-symbol" aria-roledescription="line mark container"/><g class="mark-line role-mark layer_7_marks" role="graphics-object" aria-roledescription="line mark container"><path aria-label="x3: 0; y3: 0" role="graphics-symbol" aria-roledescription="line mark" d="M-4328.734727255537,-900.6317960901841L-4293.23713447108,-900.6317960901841L-4293.23713447108,-919.4736634561355L-4261.316818478848,-919.4736634561355L-4261.316818478848,-933.0318325660264L-4213.161169352665,-933.0318325660264L-4213.161169352665,-994.8411329199399L-4188.436224023483,-994.8411329199399L-4188.436224023483,-1033.6583298007627L-4180.140152809032,-1033.6583298007627L-4180.140152809032,-994.8411329199399L-4147.119136265315,-994.8411329199399L-4147.119136265315,-946.9887713556197L-4114.098119721666,-946.9887713556197L-4114.098119721666,-918.5764316768041L-4081.0771031780173,-918.5764316768041L-4081.0771031780173,-955.9610891489297L-4050.219391797246,-955.9610891489297L-4050.219391797246,-998.0500211954217L-4027.4179512945075,-998.0500211954217L-4027.4179512945075,-1048.6750396798013L-4015.0350700906515,-1048.6750396798013L-4015.0350700906515,-1102.5089464396622L-3994.3969347508587,-1102.5089464396622L-3994.3969347508587,-1156.3428531995226L-3982.014053546969,-1156.3428531995226L-3982.014053546969,-1210.1767599593834L-3961.3759182071417,-1210.1767599593834L-3961.3759182071417,-1264.0106667192442L-3907.7167663236996,-1264.0106667192442L-3907.7167663236996,-1406.5708272129498L-3849.9299873723053,-1406.5708272129498L-3849.9299873723053,-1450.9339540798721L-3816.9089708285883,-1450.9339540798721L-3816.9089708285883,-1464.3924307698373L-3783.8879542849395,-1464.3924307698373L-3783.8879542849395,-1461.4016581720673L-3750.866937741274,-1461.4016581720673L-3750.866937741274,-1461.4016581720673L-3717.8459211975737,-1461.4016581720673L-3717.8459211975737,-1476.3555211609173L-3684.8249046539413,-1476.3555211609173L-3684.8249046539413,-1488.3186115519977L-3651.803888110225,-1488.3186115519977L-3651.803888110225,-1497.2909293453076L-3618.7828715665764,-1497.2909293453076L-3618.7828715665764,-1498.7863156441927L-3594.017109158831,-1498.7863156441927L-3594.017109158831,-1533.1802005185482L-3577.5066008869894,-1533.1802005185482L-3577.5066008869894,-1581.0325620828692L-3556.868465547213,-1581.0325620828692L-3556.868465547213,-1625.8941510494196L-3536.2303302074197,-1625.8941510494196L-3536.2303302074197,-1682.7188304070505L-3507.3369407317055,-1682.7188304070505L-3507.3369407317055,-1660.7864980234037L-3482.5711783239103,-1660.7864980234037L-3482.5711783239103,-1608.9464396620563L-3453.6777888481956,-1608.9464396620563L-3453.6777888481956,-1575.051016887329L-3424.7843993724987,-1575.051016887329L-3424.7843993724987,-1610.9402880605694L-3395.891009896785,-1610.9402880605694L-3395.891009896785,-1664.77419482043L-3362.869993353102,-1664.77419482043L-3362.869993353102,-1702.1588522925556L-3329.848976809453,-1702.1588522925556L-3329.848976809453,-1735.0573508680263L-3296.8279602658035,-1735.0573508680263L-3296.8279602658035,-1742.5342823624512L-3263.8069437220875,-1742.5342823624512L-3263.8069437220875,-1718.6081015802908L-3197.7649106347885,-1718.6081015802908L-3197.7649106347885,-1744.0296686613365L-3164.7438940910724,-1744.0296686613365L-3164.7438940910724,-1779.9189398345768L-3131.722877547423,-1779.9189398345768L-3131.722877547423,-1781.414326133462L-3098.7018610037576,-1781.414326133462L-3098.7018610037576,-1773.937394639037L-3069.80847152801,-1773.937394639037L-3069.80847152801,-1806.337431114879L-3045.0427091202646,-1806.337431114879L-3045.0427091202646,-1854.1897926792L-3016.1493196445504,-1854.1897926792L-3016.1493196445504,-1892.0729122509536L-2987.2559301688198,-1892.0729122509536L-2987.2559301688198,-1862.1651862732533L-2962.4901677610746,-1862.1651862732533L-2962.4901677610746,-1816.306673107446L-2933.5967782853772,-1816.306673107446L-2933.5967782853772,-1779.9189398345768L-2900.5757617416944,-1779.9189398345768L-2900.5757617416944,-1754.4973727535316L-2867.554745198012,-1754.4973727535316L-2867.554745198012,-1738.0481234657962L-2834.5337286543627,-1738.0481234657962L-2834.5337286543627,-1772.4420083401517L-2801.5127121107134,-1772.4420083401517L-2801.5127121107134,-1815.8082110078176L-2768.491695566997,-1815.8082110078176L-2768.491695566997,-1844.2205506866328L-2735.470679023348,-1844.2205506866328L-2735.470679023348,-1871.137504066563L-2702.449662479699,-1871.137504066563L-2702.449662479699,-1857.679027376598L-2669.428645935983,-1857.679027376598L-2669.428645935983,-1814.3128247089323L-2636.407629392333,-1814.3128247089323L-2636.407629392333,-1791.8820302256572L-2603.386612848667,-1791.8820302256572L-2603.386612848667,-1809.8266658122773L-2570.3655963049678,-1809.8266658122773L-2570.3655963049678,-1820.2943699044724L-2537.3445797613017,-1820.2943699044724L-2537.3445797613017,-1818.7989836055876L-2504.323563217636,-1818.7989836055876L-2504.323563217636,-1809.8266658122773L-2471.302546673953,-1809.8266658122773L-2471.302546673953,-1814.3128247089323L-2438.281530130287,-1814.3128247089323L-2438.281530130287,-1820.2943699044724L-2405.2605135866042,-1820.2943699044724L-2405.2605135866042,-1820.2943699044724L-2372.2394970429214,-1820.2943699044724L-2372.2394970429214,-1814.3128247089323L-2339.218480499239,-1814.3128247089323L-2339.218480499239,-1830.7620739966676L-2306.1974639556233,-1830.7620739966676L-2306.1974639556233,-1875.6236629632185L-2284.1154244622435,-1875.6236629632185L-2284.1154244622435,-1906.061890631623L-2248.4106850041617,-1906.061890631623L-2248.4106850041617,-1895.0636848487236L-2215.3896684604956,-1895.0636848487236L-2215.3896684604956,-1901.0452300442637L-2182.3686519167964,-1901.0452300442637L-2182.3686519167964,-1886.0913670554137L-2149.347635373164,-1886.0913670554137L-2149.347635373164,-1872.6328903654485L-2116.326618829448,-1872.6328903654485L-2116.326618829448,-1851.697482181058L-2083.305602285798,-1851.697482181058L-2083.305602285798,-1821.7897562033577L-2050.284585742149,-1821.7897562033577L-2050.284585742149,-1805.3405069156227L-2017.2635691984328,-1805.3405069156227L-2017.2635691984328,-1808.3312795133925L-1984.2425526547836,-1808.3312795133925L-1984.2425526547836,-1808.3312795133925L-1951.221536111101,-1808.3312795133925L-1951.221536111101,-1808.3312795133925L-1918.200519567418,-1808.3312795133925L-1918.200519567418,-1808.3312795133925L-1885.179503023769,-1808.3312795133925L-1885.179503023769,-1791.8820302256572L-1852.1584864800861,-1791.8820302256572L-1852.1584864800861,-1772.4420083401517L-1819.137469936437,-1772.4420083401517L-1819.137469936437,-1739.5435097646812L-1786.1164533927208,-1739.5435097646812L-1786.1164533927208,-1700.6634659936708L-1753.0954368490716,-1700.6634659936708L-1753.0954368490716,-1670.7557400159703L-1720.0744203054057,-1670.7557400159703L-1720.0744203054057,-1664.77419482043L-1687.0534037617062,-1664.77419482043L-1687.0534037617062,-1661.7834222226602L-1654.0323872180736,-1661.7834222226602L-1654.0323872180736,-1670.7557400159703L-1621.0113706743573,-1670.7557400159703L-1621.0113706743573,-1682.7188304070505L-1587.9903541306746,-1682.7188304070505L-1587.9903541306746,-1688.7003756025906L-1554.969337587059,-1688.7003756025906L-1554.969337587059,-1688.7003756025906L-1521.9483210433427,-1688.7003756025906L-1521.9483210433427,-1673.7465126137402L-1488.9273044996935,-1673.7465126137402L-1488.9273044996935,-1658.7926496248901L-1455.9062879560108,-1658.7926496248901L-1455.9062879560108,-1646.82955923381L-1422.8852714123282,-1646.82955923381L-1422.8852714123282,-1640.8480140382696L-1389.8642548686787,-1640.8480140382696L-1389.8642548686787,-1630.3803099460745L-1356.843238324996,-1630.3803099460745L-1356.843238324996,-1631.8756962449597L-1323.8222217813134,-1631.8756962449597L-1323.8222217813134,-1634.8664688427298L-1290.8012052376305,-1634.8664688427298L-1290.8012052376305,-1625.8941510494196L-1257.7801886939815,-1625.8941510494196L-1257.7801886939815,-1613.9310606583394L-1224.7591721503154,-1613.9310606583394L-1224.7591721503154,-1584.023334680639L-1191.738155606616,-1584.023334680639L-1191.738155606616,-1545.1432909096286L-1158.7171390629667,-1545.1432909096286L-1158.7171390629667,-1521.217110127468L-1125.6961225192838,-1521.217110127468L-1125.6961225192838,-1509.2540197363878L-1092.6751059756011,-1509.2540197363878L-1092.6751059756011,-1494.3001567475378L-1063.781716499904,-1494.3001567475378L-1063.781716499904,-1455.420112976527L-1030.949478944506,-1455.420112976527L-1030.949478944506,-1411.9966087325133L-957.2338350905292,-1411.9966087325133L-957.2338350905292,-1349.6820686731664L-906.9318879174444,-1349.6820686731664L-906.9318879174444,-1266.0045151177574L-878.0384984417306,-1266.0045151177574L-878.0384984417306,-1223.6352366493486L-845.0174818980813,-1223.6352366493486L-845.0174818980813,-1183.259806579453L-811.9964653543985,-1183.259806579453L-811.9964653543985,-1144.3797628084426L-783.1030758786845,-1144.3797628084426L-783.1030758786845,-1100.5150980411486L-754.2096864029872,-1100.5150980411486L-754.2096864029872,-1054.6565848753412L-721.1886698593381,-1054.6565848753412L-721.1886698593381,-1009.7949959087905L-688.1676533156218,-1009.7949959087905L-688.1676533156218,-972.4103384366651L-655.1466367719727,-972.4103384366651L-655.1466367719727,-939.5118398611944L-622.1256202283234,-939.5118398611944L-622.1256202283234,-935.0256809645396L-589.1046036846071,-935.0256809645396L-589.1046036846071,-921.5672042745742L-556.083587140958,-921.5672042745742L-556.083587140958,-887.1733194002187L-523.0625705972752,-887.1733194002187L-523.0625705972752,-840.8163441347829L-490.04155405359245,-840.8163441347829L-490.04155405359245,-822.8717085481629L-457.0205375099265,-822.8717085481629L-457.0205375099265,-815.3947770537377L-423.99952096626055,-815.3947770537377L-423.99952096626055,-815.3947770537377L-390.97850442257777,-815.3947770537377L-390.97850442257777,-815.3947770537377L-357.95748787889505,-815.3947770537377L-357.95748787889505,-812.4040044559675L-324.93647133522904,-812.4040044559675L-324.93647133522904,-800.4409140648875L-296.8645255652775,-800.4409140648875L-296.8645255652775,-793.3022467147097L-261.37101448863814,-793.3022467147097L-261.37101448863814,-803.4316866626573L-225.87342170424793,-803.4316866626573L-225.87342170424793,-834.834798939243L-192.85240516053167,-834.834798939243L-192.85240516053167,-864.7425249169432L-159.83138861688246,-864.7425249169432L-159.83138861688246,-900.6317960901841L-126.81037207323327,-900.6317960901841L-126.81037207323327,-926.0533631712294L-91.03760415088794,-926.0533631712294L-91.03760415088794,-941.0072261600794L-60.7683389858678,-941.0072261600794L-60.7683389858678,-961.94263434447" stroke="#5C267B" stroke-width="2"/></g><g class="mark-line role-mark layer_8_marks" role="graphics-symbol" aria-roledescription="line mark container"/><g class="mark-line role-mark layer_9_marks" role="graphics-symbol" aria-roledescription="line mark container"/><g class="mark-line role-mark layer_10_marks" role="graphics-symbol" aria-roledescription="line mark container"/><g class="mark-line role-mark layer_11_marks" role="graphics-symbol" aria-roledescription="line mark container"/><g class="mark-line role-mark layer_12_marks" role="graphics-object" aria-roledescription="line mark container"><path aria-label="x1: 2020.1; y1: 0" role="graphics-symbol" aria-roledescription="line mark" d="M14.754098360642539,257.14285714285717L450,257.14285714285717" stroke="#676A86" stroke-width="1" stroke-dasharray="5,5"/></g><g class="mark-text role-mark layer_13_marks" role="graphics-object" aria-roledescription="text mark container"><text aria-label="x: 2020; y: 2; t: Federal funds rate" role="graphics-symbol" aria-roledescription="text mark" text-anchor="start" transform="translate(7.377049180321269,174.42857142857142)" font-family="sans-serif" font-size="11px" fill="#F4134D">Federal funds rate</text></g><g class="mark-text role-mark layer_14_marks" role="graphics-object" aria-roledescription="text mark container"><text aria-label="x: 2020.3; y: 0.8; t: Bank rate" role="graphics-symbol" aria-roledescription="text mark" text-anchor="start" transform="translate(29.508196721301854,225.85714285714286)" font-family="sans-serif" font-size="11px" fill="#36B7B4">Bank rate</text></g><g class="mark-text role-mark layer_15_marks" role="graphics-object" aria-roledescription="text mark container"><text aria-label="x: 2020; y: −0.3; t: ECB deposit rate" role="graphics-symbol" aria-roledescription="text mark" text-anchor="start" transform="translate(7.377049180321269,273)" font-family="sans-serif" font-size="11px" fill="#5C267B">ECB deposit rate</text></g><g class="mark-text role-mark layer_16_marks" role="graphics-object" aria-roledescription="text mark container"><text aria-label="x: 2024.8; y: 4.2; t: US" role="graphics-symbol" aria-roledescription="text mark" text-anchor="start" transform="translate(361.47540983606086,80.14285714285714)" font-family="sans-serif" font-size="11px" fill="#F4134D">US</text></g><g class="mark-text role-mark layer_17_marks" role="graphics-object" aria-roledescription="text mark container"><text aria-label="x: 2024.8; y: 5; t: UK" role="graphics-symbol" aria-roledescription="text mark" text-anchor="start" transform="translate(361.47540983606086,45.85714285714287)" font-family="sans-serif" font-size="11px" fill="#36B7B4">UK</text></g><g class="mark-text role-mark layer_18_marks" role="graphics-object" aria-roledescription="text mark container"><text aria-label="x: 2024.6; y: 3.1; t: Euro area" role="graphics-symbol" aria-roledescription="text mark" text-anchor="start" transform="translate(346.7213114754016,127.2857142857143)" font-family="sans-serif" font-size="11px" fill="#5C267B">Euro area</text></g><g class="mark-text role-mark layer_19_marks" role="graphics-object" aria-roledescription="text mark container"><text aria-label="x: 2020.1; y: 4.4; t: - - Dashed lines: November 2022" role="graphics-symbol" aria-roledescription="text mark" text-anchor="start" transform="translate(14.754098360642539,71.57142857142856)" font-family="sans-serif" font-size="11px" fill="#676A86">- - Dashed lines: November 2022</text></g><g class="mark-text role-mark layer_20_marks" role="graphics-object" aria-roledescription="text mark container"><text aria-label="x: 2020.1; y: 4; t: ··· Dotted lines: August 2022" role="graphics-symbol" aria-roledescription="text mark" text-anchor="start" transform="translate(14.754098360642539,88.71428571428571)" font-family="sans-serif" font-size="11px" fill="#676A86">··· Dotted lines: August 2022</text></g><g class="mark-text role-mark layer_21_marks" role="graphics-object" aria-roledescription="text mark container"><text aria-label="x: 2024.5; y: 5.7; t: Forecast" role="graphics-symbol" aria-roledescription="text mark" text-anchor="middle" transform="translate(339.3442622950803,15.857142857142845)" font-family="sans-serif" font-size="11px" fill="#676A86">Forecast</text></g></g><path class="foreground" aria-hidden="true" d="" display="none"/></g></g></g></svg>