<svg xmlns="http://www.w3.org/2000/svg" xmlns:xlink="http://www.w3.org/1999/xlink" version="1.1" class="marks" width="615" height="332" viewBox="0 0 615 332"><rect width="615" height="332" fill="white"/><g fill="none" stroke-miterlimit="10" transform="translate(78,10)"><g class="mark-group role-frame root" role="graphics-object" aria-roledescription="group mark container"><g transform="translate(0,0)"><path class="background" aria-hidden="true" d="M0,0h400v300h-400Z"/><g><g class="mark-group role-axis" role="graphics-symbol" aria-roledescription="axis" aria-label="X-axis for a linear scale with values from 1700 to 2020"><g transform="translate(0.5,300.5)"><path class="background" aria-hidden="true" d="M0,0h0v0h0Z" pointer-events="none"/><g><g class="mark-rule role-axis-tick" pointer-events="none"><line transform="translate(0,0)" x2="0" y2="5" stroke="#888" stroke-width="1" opacity="1"/><line transform="translate(63,0)" x2="0" y2="5" stroke="#888" stroke-width="1" opacity="1"/><line transform="translate(125,0)" x2="0" y2="5" stroke="#888" stroke-width="1" opacity="1"/><line transform="translate(188,0)" x2="0" y2="5" stroke="#888" stroke-width="1" opacity="1"/><line transform="translate(250,0)" x2="0" y2="5" stroke="#888" stroke-width="1" opacity="1"/><line transform="translate(313,0)" x2="0" y2="5" stroke="#888" stroke-width="1" opacity="1"/><line transform="translate(375,0)" x2="0" y2="5" stroke="#888" stroke-width="1" opacity="1"/></g><g class="mark-text role-axis-label" pointer-events="none"><text text-anchor="start" transform="translate(0,15)" font-family="sans-serif" font-size="10px" fill="#000" opacity="1">1700</text><text text-anchor="middle" transform="translate(62.5,15)" font-family="sans-serif" font-size="10px" fill="#000" opacity="1">1750</text><text text-anchor="middle" transform="translate(125,15)" font-family="sans-serif" font-size="10px" fill="#000" opacity="1">1800</text><text text-anchor="middle" transform="translate(187.5,15)" font-family="sans-serif" font-size="10px" fill="#000" opacity="1">1850</text><text text-anchor="middle" transform="translate(250,15)" font-family="sans-serif" font-size="10px" fill="#000" opacity="1">1900</text><text text-anchor="middle" transform="translate(312.5,15)" font-family="sans-serif" font-size="10px" fill="#000" opacity="1">1950</text><text text-anchor="middle" transform="translate(375,15)" font-family="sans-serif" font-size="10px" fill="#000" opacity="1">2000</text></g><g class="mark-rule role-axis-domain" pointer-events="none"><line transform="translate(0,0)" x2="400" y2="0" stroke="#888" stroke-width="1" opacity="1"/></g></g><path class="foreground" aria-hidden="true" d="" pointer-events="none" display="none"/></g></g><g class="mark-group role-axis" role="graphics-symbol" aria-roledescription="axis" aria-label="Y-axis for a log scale with values from 5G to 2T"><g transform="translate(0.5,0.5)"><path class="background" aria-hidden="true" d="M0,0h0v0h0Z" pointer-events="none"/><g><g class="mark-rule role-axis-tick" pointer-events="none"><line transform="translate(0,300)" x2="-5" y2="0" stroke="#888" stroke-width="1" opacity="1"/><line transform="translate(0,291)" x2="-5" y2="0" stroke="#888" stroke-width="1" opacity="1"/><line transform="translate(0,283)" x2="-5" y2="0" stroke="#888" stroke-width="1" opacity="1"/><line transform="translate(0,276)" x2="-5" y2="0" stroke="#888" stroke-width="1" opacity="1"/><line transform="translate(0,271)" x2="-5" y2="0" stroke="#888" stroke-width="1" opacity="1"/><line transform="translate(0,265)" x2="-5" y2="0" stroke="#888" stroke-width="1" opacity="1"/><line transform="translate(0,231)" x2="-5" y2="0" stroke="#888" stroke-width="1" opacity="1"/><line transform="translate(0,210)" x2="-5" y2="0" stroke="#888" stroke-width="1" opacity="1"/><line transform="translate(0,196)" x2="-5" y2="0" stroke="#888" stroke-width="1" opacity="1"/><line transform="translate(0,185)" x2="-5" y2="0" stroke="#888" stroke-width="1" opacity="1"/><line transform="translate(0,176)" x2="-5" y2="0" stroke="#888" stroke-width="1" opacity="1"/><line transform="translate(0,168)" x2="-5" y2="0" stroke="#888" stroke-width="1" opacity="1"/><line transform="translate(0,161)" x2="-5" y2="0" stroke="#888" stroke-width="1" opacity="1"/><line transform="translate(0,155)" x2="-5" y2="0" stroke="#888" stroke-width="1" opacity="1"/><line transform="translate(0,150)" x2="-5" y2="0" stroke="#888" stroke-width="1" opacity="1"/><line transform="translate(0,115)" x2="-5" y2="0" stroke="#888" stroke-width="1" opacity="1"/><line transform="translate(0,95)" x2="-5" y2="0" stroke="#888" stroke-width="1" opacity="1"/><line transform="translate(0,81)" x2="-5" y2="0" stroke="#888" stroke-width="1" opacity="1"/><line transform="translate(0,69)" x2="-5" y2="0" stroke="#888" stroke-width="1" opacity="1"/><line transform="translate(0,60)" x2="-5" y2="0" stroke="#888" stroke-width="1" opacity="1"/><line transform="translate(0,53)" x2="-5" y2="0" stroke="#888" stroke-width="1" opacity="1"/><line transform="translate(0,46)" x2="-5" y2="0" stroke="#888" stroke-width="1" opacity="1"/><line transform="translate(0,40)" x2="-5" y2="0" stroke="#888" stroke-width="1" opacity="1"/><line transform="translate(0,35)" x2="-5" y2="0" stroke="#888" stroke-width="1" opacity="1"/><line transform="translate(0,0)" x2="-5" y2="0" stroke="#888" stroke-width="1" opacity="1"/></g><g class="mark-text role-axis-label" pointer-events="none"><text text-anchor="end" transform="translate(-7,303)" font-family="sans-serif" font-size="10px" fill="#000" opacity="1"/><text text-anchor="end" transform="translate(-7,293.87093537679567)" font-family="sans-serif" font-size="10px" fill="#000" opacity="1"/><text text-anchor="end" transform="translate(-7,286.1524212164306)" font-family="sans-serif" font-size="10px" fill="#000" opacity="1"/><text text-anchor="end" transform="translate(-7,279.46634013018047)" font-family="sans-serif" font-size="10px" fill="#000" opacity="1"/><text text-anchor="end" transform="translate(-7,273.5687986494467)" font-family="sans-serif" font-size="10px" fill="#000" opacity="1"/><text text-anchor="end" transform="translate(-7,268.29326802603606)" font-family="sans-serif" font-size="10px" fill="#000" opacity="1">10 billion</text><text text-anchor="end" transform="translate(-7,233.58653605207226)" font-family="sans-serif" font-size="10px" fill="#000" opacity="1">20 billion</text><text text-anchor="end" transform="translate(-7,213.28439932472332)" font-family="sans-serif" font-size="10px" fill="#000" opacity="1">30 billion</text><text text-anchor="end" transform="translate(-7,198.8798040781083)" font-family="sans-serif" font-size="10px" fill="#000" opacity="1">40 billion</text><text text-anchor="end" transform="translate(-7,187.70673197396385)" font-family="sans-serif" font-size="10px" fill="#000" opacity="1"/><text text-anchor="end" transform="translate(-7,178.57766735075955)" font-family="sans-serif" font-size="10px" fill="#000" opacity="1"/><text text-anchor="end" transform="translate(-7,170.85915319039466)" font-family="sans-serif" font-size="10px" fill="#000" opacity="1"/><text text-anchor="end" transform="translate(-7,164.17307210414452)" font-family="sans-serif" font-size="10px" fill="#000" opacity="1"/><text text-anchor="end" transform="translate(-7,158.27553062341076)" font-family="sans-serif" font-size="10px" fill="#000" opacity="1"/><text text-anchor="end" transform="translate(-7,152.9999999999999)" font-family="sans-serif" font-size="10px" fill="#000" opacity="1">100 billion</text><text text-anchor="end" transform="translate(-7,118.29326802603615)" font-family="sans-serif" font-size="10px" fill="#000" opacity="1">200 billion</text><text text-anchor="end" transform="translate(-7,97.99113129868736)" font-family="sans-serif" font-size="10px" fill="#000" opacity="1">300 billion</text><text text-anchor="end" transform="translate(-7,83.58653605207219)" font-family="sans-serif" font-size="10px" fill="#000" opacity="1">400 billion</text><text text-anchor="end" transform="translate(-7,72.41346394792774)" font-family="sans-serif" font-size="10px" fill="#000" opacity="1"/><text text-anchor="end" transform="translate(-7,63.2843993247234)" font-family="sans-serif" font-size="10px" fill="#000" opacity="1"/><text text-anchor="end" transform="translate(-7,55.56588516435852)" font-family="sans-serif" font-size="10px" fill="#000" opacity="1"/><text text-anchor="end" transform="translate(-7,48.8798040781084)" font-family="sans-serif" font-size="10px" fill="#000" opacity="1"/><text text-anchor="end" transform="translate(-7,42.98226259737462)" font-family="sans-serif" font-size="10px" fill="#000" opacity="1"/><text text-anchor="end" transform="translate(-7,37.706731973963954)" font-family="sans-serif" font-size="10px" fill="#000" opacity="1">1 trillion</text><text text-anchor="end" transform="translate(-7,3)" font-family="sans-serif" font-size="10px" fill="#000" opacity="1">£2 trillion</text></g><g class="mark-rule role-axis-domain" pointer-events="none"><line transform="translate(0,300)" x2="0" y2="-300" stroke="#888" stroke-width="1" opacity="1"/></g></g><path class="foreground" aria-hidden="true" d="" pointer-events="none" display="none"/></g></g><g class="mark-rect role-mark layer_0_marks" role="graphics-object" aria-roledescription="rect mark container"><path aria-label="peak: 1701; trough: 1703" role="graphics-symbol" aria-roledescription="rect mark" d="M1.25,0h2.5v300h-2.5Z" fill="gray" opacity="0.2"/><path aria-label="peak: 1704; trough: 1706" role="graphics-symbol" aria-roledescription="rect mark" d="M5,0h2.5v300h-2.5Z" fill="gray" opacity="0.2"/><path aria-label="peak: 1708; trough: 1710" role="graphics-symbol" aria-roledescription="rect mark" d="M10,0h2.5v300h-2.5Z" fill="gray" opacity="0.2"/><path aria-label="peak: 1712; trough: 1713" role="graphics-symbol" aria-roledescription="rect mark" d="M15,0h1.25v300h-1.25Z" fill="gray" opacity="0.2"/><path aria-label="peak: 1714; trough: 1715" role="graphics-symbol" aria-roledescription="rect mark" d="M17.5,0h1.25v300h-1.25Z" fill="gray" opacity="0.2"/><path aria-label="peak: 1718; trough: 1719" role="graphics-symbol" aria-roledescription="rect mark" d="M22.5,0h1.25v300h-1.25Z" fill="gray" opacity="0.2"/><path aria-label="peak: 1720; trough: 1721" role="graphics-symbol" aria-roledescription="rect mark" d="M25,0h1.25v300h-1.25Z" fill="gray" opacity="0.2"/><path aria-label="peak: 1722; trough: 1724" role="graphics-symbol" aria-roledescription="rect mark" d="M27.500000000000004,0h2.4999999999999964v300h-2.4999999999999964Z" fill="gray" opacity="0.2"/><path aria-label="peak: 1725; trough: 1727" role="graphics-symbol" aria-roledescription="rect mark" d="M31.25,0h2.5v300h-2.5Z" fill="gray" opacity="0.2"/><path aria-label="peak: 1728; trough: 1729" role="graphics-symbol" aria-roledescription="rect mark" d="M35,0h1.25v300h-1.25Z" fill="gray" opacity="0.2"/><path aria-label="peak: 1730; trough: 1731" role="graphics-symbol" aria-roledescription="rect mark" d="M37.5,0h1.25v300h-1.25Z" fill="gray" opacity="0.2"/><path aria-label="peak: 1733; trough: 1735" role="graphics-symbol" aria-roledescription="rect mark" d="M41.25,0h2.5v300h-2.5Z" fill="gray" opacity="0.2"/><path aria-label="peak: 1736; trough: 1737" role="graphics-symbol" aria-roledescription="rect mark" d="M45,0h1.25v300h-1.25Z" fill="gray" opacity="0.2"/><path aria-label="peak: 1738; trough: 1740" role="graphics-symbol" aria-roledescription="rect mark" d="M47.5,0h2.5v300h-2.5Z" fill="gray" opacity="0.2"/><path aria-label="peak: 1742; trough: 1744" role="graphics-symbol" aria-roledescription="rect mark" d="M52.5,0h2.500000000000007v300h-2.500000000000007Z" fill="gray" opacity="0.2"/><path aria-label="peak: 1747; trough: 1749" role="graphics-symbol" aria-roledescription="rect mark" d="M58.75,0h2.500000000000007v300h-2.500000000000007Z" fill="gray" opacity="0.2"/><path aria-label="peak: 1750; trough: 1751" role="graphics-symbol" aria-roledescription="rect mark" d="M62.5,0h1.249999999999993v300h-1.249999999999993Z" fill="gray" opacity="0.2"/><path aria-label="peak: 1753; trough: 1754" role="graphics-symbol" aria-roledescription="rect mark" d="M66.25,0h1.25v300h-1.25Z" fill="gray" opacity="0.2"/><path aria-label="peak: 1755; trough: 1756" role="graphics-symbol" aria-roledescription="rect mark" d="M68.75,0h1.25v300h-1.25Z" fill="gray" opacity="0.2"/><path aria-label="peak: 1761; trough: 1765" role="graphics-symbol" aria-roledescription="rect mark" d="M76.25,0h5v300h-5Z" fill="gray" opacity="0.2"/><path aria-label="peak: 1769; trough: 1770" role="graphics-symbol" aria-roledescription="rect mark" d="M86.25,0h1.25v300h-1.25Z" fill="gray" opacity="0.2"/><path aria-label="peak: 1771; trough: 1772" role="graphics-symbol" aria-roledescription="rect mark" d="M88.75,0h1.25v300h-1.25Z" fill="gray" opacity="0.2"/><path aria-label="peak: 1773; trough: 1774" role="graphics-symbol" aria-roledescription="rect mark" d="M91.25,0h1.25v300h-1.25Z" fill="gray" opacity="0.2"/><path aria-label="peak: 1777; trough: 1779" role="graphics-symbol" aria-roledescription="rect mark" d="M96.25,0h2.5v300h-2.5Z" fill="gray" opacity="0.2"/><path aria-label="peak: 1781; trough: 1783" role="graphics-symbol" aria-roledescription="rect mark" d="M101.25,0h2.500000000000014v300h-2.500000000000014Z" fill="gray" opacity="0.2"/><path aria-label="peak: 1784; trough: 1785" role="graphics-symbol" aria-roledescription="rect mark" d="M105,0h1.25v300h-1.25Z" fill="gray" opacity="0.2"/><path aria-label="peak: 1786; trough: 1788" role="graphics-symbol" aria-roledescription="rect mark" d="M107.5,0h2.500000000000014v300h-2.500000000000014Z" fill="gray" opacity="0.2"/><path aria-label="peak: 1792; trough: 1794" role="graphics-symbol" aria-roledescription="rect mark" d="M114.99999999999999,0h2.500000000000014v300h-2.500000000000014Z" fill="gray" opacity="0.2"/><path aria-label="peak: 1796; trough: 1797" role="graphics-symbol" aria-roledescription="rect mark" d="M120,0h1.2499999999999858v300h-1.2499999999999858Z" fill="gray" opacity="0.2"/><path aria-label="peak: 1802; trough: 1804" role="graphics-symbol" aria-roledescription="rect mark" d="M127.49999999999999,0h2.500000000000014v300h-2.500000000000014Z" fill="gray" opacity="0.2"/><path aria-label="peak: 1805; trough: 1806" role="graphics-symbol" aria-roledescription="rect mark" d="M131.25,0h1.25v300h-1.25Z" fill="gray" opacity="0.2"/><path aria-label="peak: 1807; trough: 1808" role="graphics-symbol" aria-roledescription="rect mark" d="M133.75,0h1.25v300h-1.25Z" fill="gray" opacity="0.2"/><path aria-label="peak: 1810; trough: 1812" role="graphics-symbol" aria-roledescription="rect mark" d="M137.5,0h2.5v300h-2.5Z" fill="gray" opacity="0.2"/><path aria-label="peak: 1813; trough: 1814" role="graphics-symbol" aria-roledescription="rect mark" d="M141.25,0h1.25v300h-1.25Z" fill="gray" opacity="0.2"/><path aria-label="peak: 1815; trough: 1816" role="graphics-symbol" aria-roledescription="rect mark" d="M143.75,0h1.25v300h-1.25Z" fill="gray" opacity="0.2"/><path aria-label="peak: 1817; trough: 1819" role="graphics-symbol" aria-roledescription="rect mark" d="M146.25,0h2.5v300h-2.5Z" fill="gray" opacity="0.2"/><path aria-label="peak: 1825; trough: 1826" role="graphics-symbol" aria-roledescription="rect mark" d="M156.25,0h1.25v300h-1.25Z" fill="gray" opacity="0.2"/><path aria-label="peak: 1836; trough: 1837" role="graphics-symbol" aria-roledescription="rect mark" d="M170,0h1.25v300h-1.25Z" fill="gray" opacity="0.2"/><path aria-label="peak: 1838; trough: 1839" role="graphics-symbol" aria-roledescription="rect mark" d="M172.5,0h1.25v300h-1.25Z" fill="gray" opacity="0.2"/><path aria-label="peak: 1840; trough: 1842" role="graphics-symbol" aria-roledescription="rect mark" d="M175,0h2.5v300h-2.5Z" fill="gray" opacity="0.2"/><path aria-label="peak: 1846; trough: 1847" role="graphics-symbol" aria-roledescription="rect mark" d="M182.5,0h1.25v300h-1.25Z" fill="gray" opacity="0.2"/><path aria-label="peak: 1849; trough: 1850" role="graphics-symbol" aria-roledescription="rect mark" d="M186.25,0h1.25v300h-1.25Z" fill="gray" opacity="0.2"/><path aria-label="peak: 1854; trough: 1855" role="graphics-symbol" aria-roledescription="rect mark" d="M192.5,0h1.25v300h-1.25Z" fill="gray" opacity="0.2"/><path aria-label="peak: 1857; trough: 1858" role="graphics-symbol" aria-roledescription="rect mark" d="M196.25,0h1.25v300h-1.25Z" fill="gray" opacity="0.2"/><path aria-label="peak: 1860; trough: 1862" role="graphics-symbol" aria-roledescription="rect mark" d="M200,0h2.5v300h-2.5Z" fill="gray" opacity="0.2"/><path aria-label="peak: 1878; trough: 1879" role="graphics-symbol" aria-roledescription="rect mark" d="M222.5,0h1.2499999999999716v300h-1.2499999999999716Z" fill="gray" opacity="0.2"/><path aria-label="peak: 1883; trough: 1885" role="graphics-symbol" aria-roledescription="rect mark" d="M228.75,0h2.5v300h-2.5Z" fill="gray" opacity="0.2"/><path aria-label="peak: 1891; trough: 1893" role="graphics-symbol" aria-roledescription="rect mark" d="M238.75000000000003,0h2.4999999999999716v300h-2.4999999999999716Z" fill="gray" opacity="0.2"/><path aria-label="peak: 1899; trough: 1900" role="graphics-symbol" aria-roledescription="rect mark" d="M248.74999999999997,0h1.2500000000000284v300h-1.2500000000000284Z" fill="gray" opacity="0.2"/><path aria-label="peak: 1902; trough: 1903" role="graphics-symbol" aria-roledescription="rect mark" d="M252.5,0h1.25v300h-1.25Z" fill="gray" opacity="0.2"/><path aria-label="peak: 1907; trough: 1908" role="graphics-symbol" aria-roledescription="rect mark" d="M258.75,0h1.25v300h-1.25Z" fill="gray" opacity="0.2"/><path aria-label="peak: 1918; trough: 1921" role="graphics-symbol" aria-roledescription="rect mark" d="M272.5,0h3.75v300h-3.75Z" fill="gray" opacity="0.2"/><path aria-label="peak: 1925; trough: 1926" role="graphics-symbol" aria-roledescription="rect mark" d="M281.25,0h1.25v300h-1.25Z" fill="gray" opacity="0.2"/><path aria-label="peak: 1929; trough: 1931" role="graphics-symbol" aria-roledescription="rect mark" d="M286.25,0h2.5v300h-2.5Z" fill="gray" opacity="0.2"/><path aria-label="peak: 1943; trough: 1947" role="graphics-symbol" aria-roledescription="rect mark" d="M303.75,0h5v300h-5Z" fill="gray" opacity="0.2"/><path aria-label="peak: 1973; trough: 1975" role="graphics-symbol" aria-roledescription="rect mark" d="M341.25,0h2.5v300h-2.5Z" fill="gray" opacity="0.2"/><path aria-label="peak: 1979; trough: 1981" role="graphics-symbol" aria-roledescription="rect mark" d="M348.75,0h2.5v300h-2.5Z" fill="gray" opacity="0.2"/><path aria-label="peak: 1990; trough: 1991" role="graphics-symbol" aria-roledescription="rect mark" d="M362.5,0h1.25v300h-1.25Z" fill="gray" opacity="0.2"/><path aria-label="peak: 2007; trough: 2009" role="graphics-symbol" aria-roledescription="rect mark" d="M383.75,0h2.5v300h-2.5Z" fill="gray" opacity="0.2"/></g><g class="mark-line role-mark layer_1_marks" role="graphics-object" aria-roledescription="line mark container"><path aria-label="year: 1700; g: 10.7828G" role="graphics-symbol" aria-roledescription="line mark" d="M0,261.51969648498607L1.25,257.2046732266419L2.5,258.50771557380216L3.75,261.82102876918367L5,253.10504676078625L6.25,255.7112497432474L7.5,264.0353359939103L8.75,258.2256233904657L10,255.09089028448682L11.25,262.2764549214861L12.5,267.01826190970576L13.750000000000002,262.73606148446373L15,262.73606148446373L16.25,264.9385020315991L17.5,260.1857022301449L18.75,261.6199392213787L20,259.7488200877772L21.25,257.02126192228025L22.5,254.26108204554197L23.75,255.13494768293356L25,252.05793143437745L26.25,254.04497799794382L27.500000000000004,253.53010220047884L28.749999999999996,254.7398197482592L30,255.22317894823837L31.25,253.9587968577281L32.5,255.48880943914654L33.75,255.80050329647807L35,254.30441500376725L36.25,257.1587573773864L37.5,256.02433572154337L38.75,256.83852000372997L40,253.61554800637532L41.25,252.51596667091425L42.5,252.68356927126695L43.75,253.9157618485433L45,250.30658341101136L46.25,253.06273900152706L47.5,252.14089952312779L48.75,252.4741535326979L50,253.31712344421925L51.24999999999999,251.8924065560188L52.5,250.74880509813252L53.75,251.93373650479904L55.00000000000001,252.64161599683598L56.25,251.8924065560188L57.49999999999999,250.3466243808416L58.75,248.11390400117762L60,248.65313784464053L61.25000000000001,248.96389899796495L62.5,248.22896624278255L63.74999999999999,249.3550824728249L65,246.94015790556233L66.25,246.49309038104798L67.5,247.92271923242237L68.75,246.41896567453628L70,247.27809774924475L71.25,244.45798524346932L72.5,243.785878103724L73.75,242.98416359217066L75,241.5524856225007L76.25,239.60804743854587L77.5,241.01767434206894L78.75,241.18419005956497L80,241.2175597576373L81.25,241.61974047492816L82.5,240.9512227993304L83.75,240.62028154102677L85,240.1606080034744L86.25,237.39494346805998L87.5,238.7745762206831L88.75,237.8610147522003L90,239.15753204616388L91.25,238.26848241013383L92.5,239.38228305559653L93.75,237.82980800135886L95,236.23328773765303L96.25,234.80343504972345L97.5,235.15708852771442L98.75,235.2755302863231L100,233.043331597392L101.25,231.6453840115646L102.49999999999999,232.14416076562952L103.75000000000001,232.39542478380372L105,232.19988835079695L106.25,232.53556265894716L107.5,231.67296386910806L108.74999999999999,232.53556265894716L110.00000000000001,232.64795603970612L111.25,231.53521624411957L112.5,227.87565809544168L113.75,227.646031669588L114.99999999999999,225.67437042651915L116.25000000000001,226.4885547087059L117.5,228.1320397621134L118.75,222.9826170039348L120,222.0862065699917L121.24999999999999,222.45202540342262L122.50000000000001,221.97243412816667L123.75,220.6712267887272L125,218.29261234076066L126.25,217.8510827813791L127.49999999999999,217.28906348953873L128.75,218.35600702756327L130,218.39831478682245L131.25,215.45995966346194L132.5,215.6599249056863L133.75,212.47726458219353L135,214.88453598444897L136.25,213.3306104983759L137.5,210.21636986250712L138.75,210.7403023618325L140,212.8547351230123L141.25,210.19840064282593L142.5,211.32486914853348L143.75,206.2444908253666L145,208.93879220435107L146.25,208.10483155035107L147.5,208.1565491277886L148.75,208.9913788327845L150,205.07941865354462L151.25,204.22705337959715L152.5,203.2636598261703L153.75,201.79925905255902L155,199.12243902509329L156.25,197.99751550517794L157.5,200.7618657297795L158.75,197.03524807437483L160,196.88353785470622L161.25,196.458447492882L162.5,194.25466389339454L163.75,193.65717909057074L165,192.1187519095712L166.25,191.7445257273533L167.5,190.54118665863575L168.75,186.9146415431538L170,185.27172270150797L171.25,185.7325041444493L172.5,183.79750887331608L173.75,184.1166382525511L175,181.7102564936189L176.25,182.68593434604898L177.5,183.17575983935222L178.75,180.74325035956497L180,176.5171778275348L181.25,174.27587858454828L182.5,174.27587858454828L183.75,174.86677446314565L185,172.80715542523734L186.25,171.53775885140266L187.5,171.98802773507248L188.75,169.78412828927162L190,167.60404672382174L191.25,165.89172060642488L192.5,163.52365698225353L193.75,164.66835561623344L195,161.425074098909L196.25,160.83841369184145L197.5,161.7448887099766L198.75,159.6918712662089L200,158.6415233802508L201.25000000000003,158.763577885743L202.5,160.80490553954752L203.75,156.17532506092394L204.99999999999997,154.70085383404682L206.25,153.36663437076768L207.50000000000003,151.6691419759219L208.75,151.31315750305342L210,148.78947642661973L211.24999999999997,148.20788598784043L212.5,145.89704411685474L213.75000000000003,143.39663943816674L215,143.34883873753955L216.25,142.96806709187112L217.49999999999997,140.924059610931L218.75,140.47092321420718L220.00000000000003,140.15615018767608L221.25,139.88791081345695L222.5,139.4882270318744L223.74999999999997,140.60643406851315L225,136.81827706704536L226.25000000000003,135.82180178988287L227.5,134.9658624836467L228.75,133.37490322652965L229.99999999999997,133.80740181750485L231.25,134.24366876050766L232.50000000000003,133.88644087117717L233.75,131.8709180198689L235,130.30022040056375L236.24999999999997,128.70592209810485L237.5,128.27978139739656L238.75000000000003,127.16082466238024L240,128.20910921896797L241.25,128.56347184525612L242.49999999999997,126.13403755208759L243.75,124.53375551328206L245.00000000000003,122.3822399166628L246.25,121.94411385790043L247.5,119.60063863426662L248.74999999999997,117.76161672019164L250,118.07788738477267L251.25000000000003,116.85275491908787L252.5,116.1540102542227L253.75,116.62809394721783L254.99999999999997,115.98775255823558L256.25,114.48890995058835L257.5,113.26889377737491L258.75,112.36013507424087L260,114.27458654105216L261.25,112.92942651029486L262.5,111.61946067954317L263.75,109.97354496647318L265,109.29129867283832L266.25,107.18247530879799L267.5,106.04388122429484L268.75,102.95941025831074L270,102.00217051579868L271.25,101.64226794127848L272.5,100.5778261528446L273.75,105.79974992592133L275,109.85631788804962L276.25,114.97126468284745L277.5,112.38102613060823L278.75,110.91917576447395L280,108.60997109280662L281.25,106.87829695135578L282.5,108.46536094144714L283.75,104.755543155462L285,104.31056151006032L286.25,102.90185695716202L287.5,103.30186675246841L288.75,105.68030837566202L290,105.64617277831385L291.25,104.07851964444646L292.5,101.17673430388669L293.75,99.35836252445107L295,97.02585612210548L296.25,95.30347314718728L297.5,94.91639379184402L298.75,92.76014113806332L300,88.02303028597365L301.25,83.84257093744839L302.5,82.9527164799839L303.75,82.09971805682021L305,84.35294020982647L306.25,86.69677166064128L307.5,87.94309535503743L308.75,88.58617666347013L310,87.0015370141801L311.25,85.36081184898883L312.5,83.71055492055692L313.75,81.88505239090402L315,81.13113250938252L316.25,78.41886526770216L317.5,76.28242399822567L318.75,74.3632581767569L320,73.52136791821484L321.25,72.53572412009026L322.5,71.86122951570256L323.75,69.81655322400795L325,66.734130658359L326.25,65.39949568938785L327.5,64.85236515377984L328.75,62.476404985527665L330,59.75057496040137L331.25,58.69509412891539L332.5,57.916340227404504L333.75,56.545433784933174L335,53.87754354877623L336.25,52.91588747540956L337.5,51.577709502610425L338.75,49.8529056158409L340,47.73444706954388L341.25,44.5700102645112L342.5,45.829695340469215L343.75,46.573060628983086L345,45.13665622573758L346.25,43.920909873048195L347.5,41.85883489747836L348.75,40.015988581334085L350,41.043592326208646L351.25,41.43958712327096L352.5,40.450553144774595L353.75,38.38002390325165L355,37.25655373498137L356.25,35.22180107003919L357.5,33.6687239320282L358.75,31.03880511089865L360,28.247768812251728L361.25,26.973484733643772L362.5,26.607425684249698L363.75,27.16284137109425L365,26.96241631983918L366.25,25.730994655549488L367.5,23.84135976561341L368.75,22.589659103268033L370,21.35740201074109L371.25,19.463508509893003L372.5,17.670953375272713L373.75,15.983163050726512L375,14.290962449849875L376.25,12.823407527210918L377.5,11.672827735262924L378.75,10.053784616549176L380,8.879003459641288L381.25,7.3116281702415575L382.5,5.934614170820074L383.75,4.7321293950237875L385,4.873077519368973L386.25,7.046514729514975L387.5,6.079728104869487" stroke="#36B7B4" stroke-width="2"/></g><g class="mark-line role-mark layer_2_marks" role="graphics-object" aria-roledescription="line mark container"><path aria-label="year: 1700; v: 9179795775.68" role="graphics-symbol" aria-roledescription="line mark" d="M0,269.57837067137103L1.25,265.26334741302685L2.5,266.5663897601872L3.75,269.87970295556863L5,261.1637209471714L6.25,263.76992392963257L7.5,272.09401018029547L8.75,266.2842975768507L10,263.1495644708718L11.25,270.33512910787107L12.5,275.0769360960909L13.750000000000002,270.7947356708487L15,270.7947356708487L16.25,272.9971762179841L17.5,268.24437641653003L18.75,269.67861340776386L20,267.80749427416214L21.25,265.0799361086654L22.5,262.31975623192693L23.75,263.1936218693185L25,260.11660562076247L26.25,262.1036521843288L27.500000000000004,261.58877638686397L28.749999999999996,262.7984939346444L30,263.28185313462336L31.25,262.0174710441131L32.5,263.5474836255317L33.75,263.85917748286323L35,262.3630891901524L36.25,265.2174315637715L37.5,264.08300990792833L38.75,264.8971941901151L40,261.6742221927603L41.25,260.5746408572992L42.5,260.74224345765214L43.75,261.97443603492826L45,258.3652575973965L46.25,261.1214131879122L47.5,260.1995737095129L48.75,260.5328277190829L50,261.3757976306042L51.24999999999999,259.951080742404L52.5,258.8074792845177L53.75,259.9924106911842L55.00000000000001,260.70029018322094L56.25,259.951080742404L57.49999999999999,258.40529856722657L58.75,256.1725781875626L60,256.71181203102566L61.25000000000001,257.0225731843499L62.5,256.28764042916754L63.74999999999999,257.41375665920987L65,254.9988320919473L66.25,254.5517645674331L67.5,255.98139341880753L68.75,254.47763986092124L70,255.33677193562974L71.25,252.5166594298543L72.5,251.844552290109L73.75,251.0428377785558L75,249.61115980888584L76.25,247.66672162493083L77.5,249.07634852845408L78.75,249.24286424595007L80,249.27623394402247L81.25,249.67841466131333L82.5,249.00989698571556L83.75,248.67895572741176L85,248.21928218985954L86.25,245.45361765444497L87.5,246.83325040706822L88.75,245.91968893858547L90,247.21620623254904L91.25,246.327156596519L92.5,247.44095724198166L93.75,245.88848218774402L95,244.29196192403796L96.25,242.8621092361086L97.5,243.21576271409958L98.75,243.33420447270825L100,241.10200578377717L101.25,239.70405819794976L102.49999999999999,240.20283495201465L103.75000000000001,240.4540989701887L105,240.25856253718212L106.25,240.5942368453323L107.5,239.73163805549322L108.74999999999999,240.5942368453323L110.00000000000001,240.70663022609125L111.25,239.5938904305047L112.5,235.93433228182667L113.75,235.70470585597315L114.99999999999999,233.73304461290425L116.25000000000001,234.54722889509088L117.5,236.19071394849854L118.75,231.04129119031992L120,230.14488075637686L121.24999999999999,230.5106995898076L122.50000000000001,230.0311083145518L123.75,228.72990097511237L125,226.35128652714565L126.25,225.90975696776405L127.49999999999999,225.3477376759239L128.75,226.41468121394826L130,226.45698897320761L131.25,223.5186338498471L132.5,223.71859909207146L133.75,220.53593876857866L135,222.9432101708341L136.25,221.38928468476107L137.5,218.2750440488921L138.75,218.79897654821767L140,220.91340930939745L141.25,218.2570748292109L142.5,219.38354333491864L143.75,214.3031650117516L145,216.99746639073624L146.25,216.16350573673603L147.5,216.21522331417376L148.75,217.05005301916964L150,213.1380928399296L151.25,212.28572756598228L152.5,211.32233401255547L153.75,209.85793323894399L155,207.18111321147822L156.25,206.05618969156305L157.5,208.82053991616462L158.75,205.0939222607598L160,204.9422120410912L161.25,204.51712167926712L162.5,202.3133380797795L163.75,201.7158532769559L165,200.17742609595632L166.25,199.8031999137383L167.5,198.5998608450209L168.75,194.97331572953877L170,193.3303968878931L171.25,193.79117833083444L172.5,191.85618305970124L173.75,192.17531243893623L175,189.76893068000388L176.25,190.74460853243397L177.5,191.23443402573716L178.75,188.80192454594996L180,184.57585201391979L181.25,182.3345527709334L182.5,182.3345527709334L183.75,182.9254486495306L185,180.8658296116225L186.25,179.59643303778782L187.5,180.0467019214574L188.75,177.84280247565678L190,175.6627209102067L191.25,173.95039479281004L192.5,171.58233116863852L193.75,172.7270298026184L195,169.48374828529413L196.25,168.89708787822659L197.5,169.80356289636157L198.75,167.75054545259388L200,166.70019756663595L201.25000000000003,166.82225207212812L202.5,168.86357972593245L203.75,164.23399924730904L204.99999999999997,162.75952802043196L206.25,161.42530855715285L207.50000000000003,159.72781616230688L208.75,159.37183168943855L210,156.84815061300466L211.24999999999997,156.26656017422542L212.5,153.95571830323968L213.75000000000003,151.45531362455174L215,151.40751292392451L216.25,151.02674127825628L217.49999999999997,148.98273379731597L218.75,148.5295974005921L220.00000000000003,148.21482437406124L221.25,147.94658499984195L222.5,147.54690121825953L223.74999999999997,148.6651082548981L225,144.8769512534303L226.25000000000003,143.88047597626797L227.5,143.0245366700318L228.75,141.4335774129148L229.99999999999997,141.86607600388982L231.25,142.30234294689282L232.50000000000003,141.94511505756213L233.75,139.92959220625403L235,138.35889458694888L236.24999999999997,136.7645962844898L237.5,136.3384555837817L238.75000000000003,135.2194988487652L240,136.26778340535296L241.25,136.6221460316411L242.49999999999997,134.19271173847258L243.75,132.5924296996672L245.00000000000003,130.44091410304793L246.25,130.00278804428558L247.5,127.65931282065178L248.74999999999997,125.82029090657659L250,126.13656157115781L251.25000000000003,124.91142910547303L252.5,124.21268444060784L253.75,124.68676813360298L254.99999999999997,124.04642674462075L256.25,122.5475841369735L257.5,121.32756796375986L258.75,120.41880926062602L260,122.33326072743715L261.25,120.98810069667985L262.5,119.67813486592831L263.75,118.03221915285833L265,117.34997285922347L266.25,115.24114949518297L267.5,114.10255541067998L268.75,111.01808444469569L270,110.06084470218367L271.25,109.70094212766362L272.5,108.63650033922958L273.75,113.85842411230628L275,117.91499207443476L276.25,123.27031002426311L277.5,120.23291866388578L278.75,118.69482311564961L280,116.29540819584876L281.25,114.48951831126172L282.5,116.14579962844056L283.75,112.21637308019551L285,111.80374729809746L286.25,110.3434118646099L287.5,110.79292004278186L288.75,113.34646783023572L290,113.128627202109L291.25,111.50577728349424L292.5,108.49134869648873L293.75,106.68286541107672L295,104.27951171487831L296.25,102.5730909431781L297.5,102.24279096923043L298.75,99.97009203088525L300,94.61400890204833L301.25,90.18661988403234L302.5,89.17795667986505L303.75,88.29032672060644L305,90.78043722437266L306.25,93.51311391990222L307.5,95.00422237617286L308.75,95.6674271725567L310,93.86869182961863L311.25,92.05684776316762L312.5,90.48491661913984L313.75,88.7894886342017L315,87.82240229135955L316.25,85.04222277976194L317.5,82.80675450547011L318.75,80.98871676936325L320,80.02019082594596L321.25,78.92282809701537L322.5,78.3681840010077L323.75,76.48038657212464L325,73.22645266588314L326.25,71.81340473272401L327.5,71.17764727045154L328.75,68.62615736163437L330,65.86825903657221L331.25,64.64016458907514L332.5,63.94907077739968L333.75,62.81680225100777L335,60.062824399227345L336.25,59.06225977636632L337.5,57.76533355875115L338.75,55.89761281727571L340,53.74613158321308L341.25,50.44582719739799L342.5,51.60261272772352L343.75,52.32305722398617L345,50.99092620186541L346.25,49.84375915237046L347.5,48.00707200761766L348.75,46.36104059434535L350,47.36733024140565L351.25,47.63432812955097L352.5,46.50235085693413L353.75,44.446144469504866L355,43.477609437687434L356.25,41.34196651610074L357.5,39.92332451642382L358.75,37.32984240189931L360,34.58735436826274L361.25,33.2748849049621L362.5,32.7903001339633L363.75,33.145956952017805L365,32.86857529363486L366.25,31.613486655682188L367.5,29.842205880592232L368.75,28.746651654230384L370,27.58669804028098L371.25,25.763777061826797L372.5,24.111235209104176L373.75,22.411200816243372L375,20.5234140369722L376.25,19.09329399306894L377.5,17.936179039142473L378.75,16.307420274388306L380,15.092572067817034L381.25,13.313174192654154L382.5,12.000380256947274L383.75,10.805773138734375L385,10.86321566828462L386.25,12.998203650320194L387.5,11.90070492820363" stroke="#F4134D" stroke-width="2"/></g><g class="mark-text role-mark layer_3_marks" role="graphics-object" aria-roledescription="text mark container"><text aria-label="x: 2009; y: 1.9e+12; t: GDP at market prices" role="graphics-symbol" aria-roledescription="text mark" text-anchor="start" transform="translate(391.25,5.568318346086729)" font-family="sans-serif" font-size="11px" fill="#36B7B4">GDP at market prices</text><text aria-label="x: 2009; y: 1.4e+12; t: GVA at basic prices" role="graphics-symbol" aria-roledescription="text mark" text-anchor="start" transform="translate(391.25,20.85915319039456)" font-family="sans-serif" font-size="11px" fill="#F4134D">GVA at basic prices</text></g></g><path class="foreground" aria-hidden="true" d="" display="none"/></g></g></g></svg>