<svg xmlns="http://www.w3.org/2000/svg" xmlns:xlink="http://www.w3.org/1999/xlink" version="1.1" class="marks" width="494" height="343" viewBox="0 0 494 343"><rect width="494" height="343" fill="white"/><g fill="none" stroke-miterlimit="10" transform="translate(24,21)"><g class="mark-group role-frame root" role="graphics-object" aria-roledescription="group mark container"><g transform="translate(0,0)"><path class="background" aria-hidden="true" d="M0,0h400v300h-400Z"/><g><g class="mark-group role-axis" role="graphics-symbol" aria-roledescription="axis" aria-label="X-axis titled 'quarters from peak ➡' for a linear scale with values from 0 to 20"><g transform="translate(0.5,300.5)"><path class="background" aria-hidden="true" d="M0,0h0v0h0Z" pointer-events="none"/><g><g class="mark-rule role-axis-tick" pointer-events="none"><line transform="translate(0,0)" x2="0" y2="5" stroke="#676A86" stroke-width="1" opacity="1"/><line transform="translate(100,0)" x2="0" y2="5" stroke="#676A86" stroke-width="1" opacity="1"/><line transform="translate(200,0)" x2="0" y2="5" stroke="#676A86" stroke-width="1" opacity="1"/><line transform="translate(300,0)" x2="0" y2="5" stroke="#676A86" stroke-width="1" opacity="1"/><line transform="translate(400,0)" x2="0" y2="5" stroke="#676A86" stroke-width="1" opacity="1"/></g><g class="mark-text role-axis-label" pointer-events="none"><text text-anchor="start" transform="translate(0,15)" font-family="sans-serif" font-size="10px" fill="#676A86" opacity="1">0</text><text text-anchor="middle" transform="translate(100,15)" font-family="sans-serif" font-size="10px" fill="#676A86" opacity="1">5</text><text text-anchor="middle" transform="translate(200,15)" font-family="sans-serif" font-size="10px" fill="#676A86" opacity="1">10</text><text text-anchor="middle" transform="translate(300,15)" font-family="sans-serif" font-size="10px" fill="#676A86" opacity="1">15</text><text text-anchor="end" transform="translate(400,15)" font-family="sans-serif" font-size="10px" fill="#676A86" opacity="1">20</text></g><g class="mark-rule role-axis-domain" pointer-events="none"><line transform="translate(0,0)" x2="400" y2="0" stroke="#676A86" stroke-width="1" opacity="1"/></g><g class="mark-text role-axis-title" pointer-events="none"><text text-anchor="middle" transform="translate(277,-6)" font-family="sans-serif" font-size="11px" font-weight="bold" fill="#676A86" opacity="1">quarters from peak ➡</text></g></g><path class="foreground" aria-hidden="true" d="" pointer-events="none" display="none"/></g></g><g class="mark-group role-axis" role="graphics-symbol" aria-roledescription="axis" aria-label="Y-axis titled 'Deviation from peak (%)' for a linear scale with values from −7 to 6"><g transform="translate(0.5,0.5)"><path class="background" aria-hidden="true" d="M0,0h0v0h0Z" pointer-events="none"/><g><g class="mark-rule role-axis-tick" pointer-events="none"><line transform="translate(0,277)" x2="-5" y2="0" stroke="#676A86" stroke-width="1" opacity="1"/><line transform="translate(0,231)" x2="-5" y2="0" stroke="#676A86" stroke-width="1" opacity="1"/><line transform="translate(0,185)" x2="-5" y2="0" stroke="#676A86" stroke-width="1" opacity="1"/><line transform="translate(0,138)" x2="-5" y2="0" stroke="#676A86" stroke-width="1" opacity="1"/><line transform="translate(0,92)" x2="-5" y2="0" stroke="#676A86" stroke-width="1" opacity="1"/><line transform="translate(0,46)" x2="-5" y2="0" stroke="#676A86" stroke-width="1" opacity="1"/><line transform="translate(0,0)" x2="-5" y2="0" stroke="#676A86" stroke-width="1" opacity="1"/></g><g class="mark-text role-axis-label" pointer-events="none"><text text-anchor="end" transform="translate(-7,279.92307692307696)" font-family="sans-serif" font-size="10px" fill="#676A86" opacity="1">−6</text><text text-anchor="end" transform="translate(-7,233.76923076923075)" font-family="sans-serif" font-size="10px" fill="#676A86" opacity="1">−4</text><text text-anchor="end" transform="translate(-7,187.6153846153846)" font-family="sans-serif" font-size="10px" fill="#676A86" opacity="1">−2</text><text text-anchor="end" transform="translate(-7,141.46153846153848)" font-family="sans-serif" font-size="10px" fill="#676A86" opacity="1">0</text><text text-anchor="end" transform="translate(-7,95.3076923076923)" font-family="sans-serif" font-size="10px" fill="#676A86" opacity="1">2</text><text text-anchor="end" transform="translate(-7,49.15384615384615)" font-family="sans-serif" font-size="10px" fill="#676A86" opacity="1">4</text><text text-anchor="end" transform="translate(-7,3)" font-family="sans-serif" font-size="10px" fill="#676A86" opacity="1">6</text></g><g class="mark-rule role-axis-domain" pointer-events="none"><line transform="translate(0,300)" x2="0" y2="-300" stroke="#676A86" stroke-width="1" opacity="1"/></g><g class="mark-text role-axis-title" pointer-events="none"><text text-anchor="start" transform="translate(-5,-7)" font-family="sans-serif" font-size="11px" font-weight="bold" fill="#676A86" opacity="1">Deviation from peak (%)</text></g></g><path class="foreground" aria-hidden="true" d="" pointer-events="none" display="none"/></g></g><g class="mark-area role-mark layer_0_marks" role="graphics-object" aria-roledescription="area mark container"><path aria-label="x: 0; y: 0; y2: 6" role="graphics-symbol" aria-roledescription="area mark" d="M0,138.46153846153848L400,138.46153846153848L400,0L0,0Z" fill="#36B7B4" opacity="0.1"/></g><g class="mark-area role-mark layer_1_marks" role="graphics-object" aria-roledescription="area mark container"><path aria-label="x: 0; y: 0; y2: −7" role="graphics-symbol" aria-roledescription="area mark" d="M0,138.46153846153848L400,138.46153846153848L400,300L0,300Z" fill="#F4134D" opacity="0.1"/></g><g class="mark-line role-mark layer_2_marks" role="graphics-object" aria-roledescription="line mark container"><path aria-label="x: 0; y: 0" role="graphics-symbol" aria-roledescription="line mark" d="M0,138.46153846153848L400,138.46153846153848" stroke="#676A86" stroke-width="1" stroke-dasharray="5,5"/></g><g class="mark-group role-scope layer_3_pathgroup" role="graphics-object" aria-roledescription="group mark container"><g transform="translate(0,0)"><path class="background" aria-hidden="true" d="M0,0h400v300h-400Z"/><g><g class="mark-line role-mark layer_3_marks" role="graphics-object" aria-roledescription="line mark container"><path aria-label="dt: 0; value: 0; quarter: 1930Q1" role="graphics-symbol" aria-roledescription="line mark" d="M0,138.46153846153848L20,158.4327851133211L40,186.21544548013603L60,224.91834416393567L80,272.6132228673065L100,285.5601000070834L120,293.31248540688824L140,277.5912774514455L160,273.6167042261645L180,287.78349988063144L200,298.32989220117906L220.00000000000003,263.4441579020547L240,264.211526000005L260,230.09315979883118L280,193.41689993782305L300,160.00687351937282L320,116.3259202514345L340,83.8800229816907L360,63.45622591316785L380,50.82416645460166L400,41.12384665230735" stroke="#4c78a8" stroke-width="2"/></g></g><path class="foreground" aria-hidden="true" d="" display="none"/></g><g transform="translate(0,0)"><path class="background" aria-hidden="true" d="M0,0h400v300h-400Z"/><g><g class="mark-line role-mark layer_3_marks" role="graphics-object" aria-roledescription="line mark container"><path aria-label="dt: 0; value: 0; quarter: 1973Q2" role="graphics-symbol" aria-roledescription="line mark" d="M0,138.46153846153848L20,160.77857564430468L40,169.660737028485L60,232.76776561707229L80,200.44252254677613L100,186.52228273812597L120,219.3620116590906L140,218.55630740238345L160,254.89065719581268L180,262.8020905598642L200,237.84467316234716L220.00000000000003,201.37442144609992L240,203.91772885883788L260,175.1647649026166L280,126.81280221999044L300,127.75440839951528L320,144.79068515277967L340,128.83191650185856L360,89.1582623191857L380,71.539548753844L400,43.50492353251809" stroke="#f58518" stroke-width="2"/></g></g><path class="foreground" aria-hidden="true" d="" display="none"/></g><g transform="translate(0,0)"><path class="background" aria-hidden="true" d="M0,0h400v300h-400Z"/><g><g class="mark-line role-mark layer_3_marks" role="graphics-object" aria-roledescription="line mark container"><path aria-label="dt: 0; value: 0; quarter: 1979Q2" role="graphics-symbol" aria-roledescription="line mark" d="M0,138.46153846153848L20,190.1119501759853L40,166.86663236566082L60,192.56898641112727L80,237.01501687896157L100,239.6124551846829L120,264.88482788899927L140,269.07056461815165L160,265.4113356536726L180,241.8676634433667L200,240.53384377286088L220.00000000000003,240.19161372582337L240,217.80625859779875L260,212.5938317275335L280,198.21139462254231L300,158.30210606030917L320,143.64763994357014L340,119.69153665093674L360,102.52738352258866L380,87.72374020585862L400,111.10068495735156" stroke="#e45756" stroke-width="2"/></g></g><path class="foreground" aria-hidden="true" d="" display="none"/></g><g transform="translate(0,0)"><path class="background" aria-hidden="true" d="M0,0h400v300h-400Z"/><g><g class="mark-line role-mark layer_3_marks" role="graphics-object" aria-roledescription="line mark container"><path aria-label="dt: 0; value: 0; quarter: 1990Q2" role="graphics-symbol" aria-roledescription="line mark" d="M0,138.46153846153848L20,166.36795243458303L40,175.7732651348504L60,186.88096053778403L80,195.3647354940461L100,201.91398465182397L120,197.40478088153884L140,198.4107342967507L160,205.75489769172398L180,193.3809672206913L200,181.2813876810804L220.00000000000003,166.14987861729952L240,157.12443643746158L260,139.75591208670613L280,126.2071968580487L300,101.72665220813812L320,76.86623703779783L340,51.20387299099484L360,39.575614282287574L380,33.5398937910163L400,29.12917497047206" stroke="#72b7b2" stroke-width="2"/></g></g><path class="foreground" aria-hidden="true" d="" display="none"/></g><g transform="translate(0,0)"><path class="background" aria-hidden="true" d="M0,0h400v300h-400Z"/><g><g class="mark-line role-mark layer_3_marks" role="graphics-object" aria-roledescription="line mark container"><path aria-label="dt: 0; value: 0; quarter: 2008Q1" role="graphics-symbol" aria-roledescription="line mark" d="M0,138.46153846153848L20,149.45571039877646L40,184.2082736941443L60,234.7776784076136L80,277.69896351256915L100,283.9177934417691L120,281.0592140831415L140,273.67612832244777L160,253.0413501707654L180,227.95778957353699L200,213.8873319026765L220.00000000000003,210.82051166361916L240,205.150680419189L260,203.90596788389246L280,200.46052786223552L300,201.3976118241697L320,182.755320278418L340,184.02369655012708L360,155.91591043938345L380,158.23968935508896L400,152.87748668402122" stroke="#54a24b" stroke-width="2"/></g></g><path class="foreground" aria-hidden="true" d="" display="none"/></g><g transform="translate(0,0)"><path class="background" aria-hidden="true" d="M0,0h400v300h-400Z"/><g><g class="mark-line role-mark layer_3_marks" role="graphics-object" aria-roledescription="line mark container"><path aria-label="dt: 0; value: 0; quarter: 2022Q2" role="graphics-symbol" aria-roledescription="line mark" d="M0,138.46153846153848L20,149.9979399283095L40,155.76614066169518L60,157.00218367599206L80,180.48700094763285L100,194.0834741048989L120,200.26368917638334L140,201.91174652877928L160,205.2078612335709L180,203.97181821927398L200,203.55980388117493L220.00000000000003,200.26368917638334L240,197.37958880969052L260,192.43541675250296" stroke="#eeca3b" stroke-width="2"/></g></g><path class="foreground" aria-hidden="true" d="" display="none"/></g></g><g class="mark-text role-mark layer_4_marks" role="graphics-object" aria-roledescription="text mark container"><text aria-label="dt: 20; value: 4.21796664507; quarter: 1930Q1" role="graphics-symbol" aria-roledescription="text mark" text-anchor="start" transform="translate(405,44.12384665230735)" font-family="sans-serif" font-size="11px" fill="#4c78a8">1930Q1</text><text aria-label="dt: 20; value: 1.18563698518; quarter: 1979Q2" role="graphics-symbol" aria-roledescription="text mark" text-anchor="start" transform="translate(405,114.10068495735156)" font-family="sans-serif" font-size="11px" fill="#e45756">1979Q2</text><text aria-label="dt: 20; value: 4.73773575128; quarter: 1990Q2" role="graphics-symbol" aria-roledescription="text mark" text-anchor="start" transform="translate(405,32.129174970472064)" font-family="sans-serif" font-size="11px" fill="#72b7b2">1990Q2</text><text aria-label="dt: 20; value: −0.624691089641; quarter: 2008Q1" role="graphics-symbol" aria-roledescription="text mark" text-anchor="start" transform="translate(405,155.87748668402122)" font-family="sans-serif" font-size="11px" fill="#54a24b">2008Q1</text></g><g class="mark-text role-mark layer_5_marks" role="graphics-object" aria-roledescription="text mark container"><text aria-label="dt: 20; value: 4.11478664692; quarter: 1973Q2" role="graphics-symbol" aria-roledescription="text mark" text-anchor="start" transform="translate(405,58.50492353251809)" font-family="sans-serif" font-size="11px" fill="#f58518">1973Q2</text></g><g class="mark-group role-scope layer_6_pathgroup" role="graphics-object" aria-roledescription="group mark container"><g transform="translate(0,0)"><path class="background" aria-hidden="true" d="M0,0h400v300h-400Z"/><g><g class="mark-line role-mark layer_6_marks" role="graphics-object" aria-roledescription="line mark container"><path aria-label="dt: 0; value: 0; quarter: 2022Q2" role="graphics-symbol" aria-roledescription="line mark" d="M0,138.46153846153848L20,149.9979399283095L40,155.76614066169518L60,157.00218367599206L80,180.48700094763285L100,194.0834741048989L120,200.26368917638334L140,201.91174652877928L160,205.2078612335709L180,203.97181821927398L200,203.55980388117493L220.00000000000003,200.26368917638334L240,197.37958880969052L260,192.43541675250296" stroke="#179FDB" stroke-width="3"/></g></g><path class="foreground" aria-hidden="true" d="" display="none"/></g></g><g class="mark-text role-mark layer_7_marks" role="graphics-object" aria-roledescription="text mark container"><text aria-label="x: 13.5; y: −3.4; t: 2022Q2 Nov MPR Forecast" role="graphics-symbol" aria-roledescription="text mark" text-anchor="start" transform="translate(275,219.9230769230769)" font-family="sans-serif" font-size="11px" font-weight="bold" fill="#179FDB">2022Q2 Nov MPR Forecast</text><text aria-label="x: 13.52022; y: −4.1; t: under Market Interest Rates" role="graphics-symbol" aria-roledescription="text mark" text-anchor="start" transform="translate(275.4044,236.07692307692304)" font-family="sans-serif" font-size="11px" font-weight="bold" fill="#179FDB">under Market Interest Rates</text></g></g><path class="foreground" aria-hidden="true" d="" display="none"/></g></g></g></svg>