<svg xmlns="http://www.w3.org/2000/svg" xmlns:xlink="http://www.w3.org/1999/xlink" version="1.1" class="marks" width="527" height="504" viewBox="0 0 527 504"><rect width="527" height="504" fill="#122B39"/><g fill="none" stroke-miterlimit="10" transform="translate(17,38)"><g class="mark-group role-frame root" role="graphics-object" aria-roledescription="group mark container"><g transform="translate(0,0)"><path class="background" aria-hidden="true" d="M0,0h400v0h-400Z"/><g><g class="mark-group role-scope concat_0_group" role="graphics-object" aria-roledescription="group mark container"><g transform="translate(0,0)"><path class="background" aria-hidden="true" d="M0,0h400v300h-400Z"/><g><g class="mark-group role-axis" aria-hidden="true"><g transform="translate(0.5,0.5)"><path class="background" aria-hidden="true" d="M0,0h0v0h0Z" pointer-events="none"/><g><g class="mark-rule role-axis-grid" pointer-events="none"><line transform="translate(0,300)" x2="400" y2="0" stroke="#b4c8d8" stroke-opacity="0.5" stroke-width="1" stroke-dasharray="1,5" opacity="1"/><line transform="translate(0,250)" x2="400" y2="0" stroke="#b4c8d8" stroke-opacity="0.5" stroke-width="1" stroke-dasharray="1,5" opacity="1"/><line transform="translate(0,200)" x2="400" y2="0" stroke="#b4c8d8" stroke-opacity="0.5" stroke-width="1" stroke-dasharray="1,5" opacity="1"/><line transform="translate(0,150)" x2="400" y2="0" stroke="#b4c8d8" stroke-opacity="0.5" stroke-width="1" stroke-dasharray="1,5" opacity="1"/><line transform="translate(0,100)" x2="400" y2="0" stroke="#b4c8d8" stroke-opacity="0.5" stroke-width="1" stroke-dasharray="1,5" opacity="1"/><line transform="translate(0,50)" x2="400" y2="0" stroke="#b4c8d8" stroke-opacity="0.5" stroke-width="1" stroke-dasharray="1,5" opacity="1"/><line transform="translate(0,0)" x2="400" y2="0" stroke="#b4c8d8" stroke-opacity="0.5" stroke-width="1" stroke-dasharray="1,5" opacity="1"/></g></g><path class="foreground" aria-hidden="true" d="" pointer-events="none" display="none"/></g></g><g class="mark-group role-axis" role="graphics-symbol" aria-roledescription="axis" aria-label="X-axis for a time scale with values from January to December"><g transform="translate(0.5,300.5)"><path class="background" aria-hidden="true" d="M0,0h0v0h0Z" pointer-events="none"/><g><g class="mark-rule role-axis-tick" pointer-events="none"><line transform="translate(0,0)" x2="0" y2="5" stroke="#b4c8d8" stroke-opacity="0.5" stroke-width="1" opacity="1"/><line transform="translate(37,0)" x2="0" y2="5" stroke="#b4c8d8" stroke-opacity="0.5" stroke-width="1" opacity="1"/><line transform="translate(71,0)" x2="0" y2="5" stroke="#b4c8d8" stroke-opacity="0.5" stroke-width="1" opacity="1"/><line transform="translate(108,0)" x2="0" y2="5" stroke="#b4c8d8" stroke-opacity="0.5" stroke-width="1" opacity="1"/><line transform="translate(144,0)" x2="0" y2="5" stroke="#b4c8d8" stroke-opacity="0.5" stroke-width="1" opacity="1"/><line transform="translate(181,0)" x2="0" y2="5" stroke="#b4c8d8" stroke-opacity="0.5" stroke-width="1" opacity="1"/><line transform="translate(217,0)" x2="0" y2="5" stroke="#b4c8d8" stroke-opacity="0.5" stroke-width="1" opacity="1"/><line transform="translate(254,0)" x2="0" y2="5" stroke="#b4c8d8" stroke-opacity="0.5" stroke-width="1" opacity="1"/><line transform="translate(291,0)" x2="0" y2="5" stroke="#b4c8d8" stroke-opacity="0.5" stroke-width="1" opacity="1"/><line transform="translate(327,0)" x2="0" y2="5" stroke="#b4c8d8" stroke-opacity="0.5" stroke-width="1" opacity="1"/><line transform="translate(364,0)" x2="0" y2="5" stroke="#b4c8d8" stroke-opacity="0.5" stroke-width="1" opacity="1"/><line transform="translate(400,0)" x2="0" y2="5" stroke="#b4c8d8" stroke-opacity="0.5" stroke-width="1" opacity="1"/></g><g class="mark-text role-axis-label" pointer-events="none"><text text-anchor="start" transform="translate(0,15)" font-family="Circular Std Book" font-size="10px" fill="#b4c8d8" fill-opacity="0.7" opacity="1">Jan</text><text text-anchor="middle" transform="translate(37.12574850299401,15)" font-family="Circular Std Book" font-size="10px" fill="#b4c8d8" fill-opacity="0.7" opacity="1">Feb</text><text text-anchor="middle" transform="translate(70.65868263473054,15)" font-family="Circular Std Book" font-size="10px" fill="#b4c8d8" fill-opacity="0.7" opacity="1">Mar</text><text text-anchor="middle" transform="translate(107.78443113772455,15)" font-family="Circular Std Book" font-size="10px" fill="#b4c8d8" fill-opacity="0.7" opacity="1">Apr</text><text text-anchor="middle" transform="translate(143.7125748502994,15)" font-family="Circular Std Book" font-size="10px" fill="#b4c8d8" fill-opacity="0.7" opacity="1">May</text><text text-anchor="middle" transform="translate(180.83832335329342,15)" font-family="Circular Std Book" font-size="10px" fill="#b4c8d8" fill-opacity="0.7" opacity="1">Jun</text><text text-anchor="middle" transform="translate(216.76646706586826,15)" font-family="Circular Std Book" font-size="10px" fill="#b4c8d8" fill-opacity="0.7" opacity="1">Jul</text><text text-anchor="middle" transform="translate(253.89221556886227,15)" font-family="Circular Std Book" font-size="10px" fill="#b4c8d8" fill-opacity="0.7" opacity="1">Aug</text><text text-anchor="middle" transform="translate(291.0179640718563,15)" font-family="Circular Std Book" font-size="10px" fill="#b4c8d8" fill-opacity="0.7" opacity="1">Sep</text><text text-anchor="middle" transform="translate(326.9461077844311,15)" font-family="Circular Std Book" font-size="10px" fill="#b4c8d8" fill-opacity="0.7" opacity="1">Oct</text><text text-anchor="middle" transform="translate(364.07185628742513,15)" font-family="Circular Std Book" font-size="10px" fill="#b4c8d8" fill-opacity="0.7" opacity="1">Nov</text><text text-anchor="end" transform="translate(400,15)" font-family="Circular Std Book" font-size="10px" fill="#b4c8d8" fill-opacity="0.7" opacity="1">Dec</text></g><g class="mark-rule role-axis-domain" pointer-events="none"><line transform="translate(0,0)" x2="400" y2="0" stroke="#b4c8d8" stroke-opacity="0.5" stroke-width="1" opacity="1"/></g></g><path class="foreground" aria-hidden="true" d="" pointer-events="none" display="none"/></g></g><g class="mark-group role-axis" role="graphics-symbol" aria-roledescription="axis" aria-label="Y-axis titled 'Metric tons (millions)' for a linear scale with values from 0 to 6"><g transform="translate(0.5,0.5)"><path class="background" aria-hidden="true" d="M0,0h0v0h0Z" pointer-events="none"/><g><g class="mark-text role-axis-label" pointer-events="none"><text text-anchor="end" transform="translate(-5,303)" font-family="Circular Std Book" font-size="10px" fill="#b4c8d8" fill-opacity="0.7" opacity="1">0</text><text text-anchor="end" transform="translate(-5,253)" font-family="Circular Std Book" font-size="10px" fill="#b4c8d8" fill-opacity="0.7" opacity="1">1</text><text text-anchor="end" transform="translate(-5,203.00000000000003)" font-family="Circular Std Book" font-size="10px" fill="#b4c8d8" fill-opacity="0.7" opacity="1">2</text><text text-anchor="end" transform="translate(-5,153)" font-family="Circular Std Book" font-size="10px" fill="#b4c8d8" fill-opacity="0.7" opacity="1">3</text><text text-anchor="end" transform="translate(-5,103.00000000000001)" font-family="Circular Std Book" font-size="10px" fill="#b4c8d8" fill-opacity="0.7" opacity="1">4</text><text text-anchor="end" transform="translate(-5,52.999999999999986)" font-family="Circular Std Book" font-size="10px" fill="#b4c8d8" fill-opacity="0.7" opacity="1">5</text><text text-anchor="end" transform="translate(-5,3)" font-family="Circular Std Book" font-size="10px" fill="#b4c8d8" fill-opacity="0.7" opacity="1">6</text></g><g class="mark-rule role-axis-domain" pointer-events="none"><line transform="translate(0,300)" x2="0" y2="-300" stroke="#b4c8d8" stroke-opacity="0.5" stroke-width="1" opacity="1"/></g><g class="mark-text role-axis-title" pointer-events="none"><text text-anchor="start" transform="translate(0,-10)" font-family="Circular Std Book" font-size="12px" font-weight="bold" fill="#b4c8d8" fill-opacity="0.8" opacity="1">Metric tons (millions)</text></g></g><path class="foreground" aria-hidden="true" d="" pointer-events="none" display="none"/></g></g><g class="mark-line role-mark concat_0_layer_0_marks" role="graphics-object" aria-roledescription="line mark container"><path aria-label="x: Jan; y: 0" role="graphics-symbol" aria-roledescription="line mark" d="M0,300L400,300" stroke="#b4c8d8" stroke-width="1" opacity="0.3"/></g><g class="mark-area role-mark concat_0_layer_1_marks" role="graphics-object" aria-roledescription="area mark container"><path aria-label="x: Mar 01, 2022; y: 0; y2: 6" role="graphics-symbol" aria-roledescription="area mark" d="M70.659,300L251.497,300L251.497,0L70.659,0Z" fill="#b4c8d8" opacity="0.1"/></g><g class="mark-area role-mark concat_0_layer_2_marks" role="graphics-object" aria-roledescription="area mark container"><path aria-label="x: Aug 03, 2022; y: 0; y2: 6" role="graphics-symbol" aria-roledescription="area mark" d="M256.287,300L400,300L400,0L256.287,0Z" fill="#b4c8d8" opacity="0.1"/></g><g class="mark-area role-mark concat_0_layer_3_layer_0_marks" role="graphics-object" aria-roledescription="area mark container"><path aria-label="index: Jan 01, 2022; wheat22: 1.10913140312" role="graphics-symbol" aria-roledescription="area mark" d="M0,244.543C12.375,245.1,24.75,245.657,37.126,247.884C48.303,249.896,59.481,279.402,70.659,284.633C83.034,290.423,95.409,291.477,107.784,293.318C119.76,295.1,131.737,295.991,143.713,295.991C156.088,295.991,168.463,295.323,180.838,293.987C192.814,292.693,204.79,288.792,216.766,282.628C229.142,276.258,241.517,267.595,253.892,255.902C266.267,244.209,278.643,219.837,291.018,212.472C302.994,205.345,314.97,201.782,326.946,201.782C339.321,201.782,351.697,221.574,364.072,222.494C376.048,223.385,388.024,223.608,400,223.831L400,300C388.024,300,376.048,300,364.072,300C351.697,300,339.321,300,326.946,300C314.97,300,302.994,300,291.018,300C278.643,300,266.267,300,253.892,300C241.517,300,229.142,300,216.766,300C204.79,300,192.814,300,180.838,300C168.463,300,156.088,300,143.713,300C131.737,300,119.76,300,107.784,300C95.409,300,83.034,300,70.659,300C59.481,300,48.303,300,37.126,300C24.75,300,12.375,300,0,300Z" fill="url(#gradient_0)" opacity="1"/></g><g class="mark-line role-mark concat_0_layer_3_layer_1_marks" role="graphics-object" aria-roledescription="line mark container"><path aria-label="index: Jan 01, 2022; wheat22: 1.10913140312" role="graphics-symbol" aria-roledescription="line mark" d="M0,244.543C12.375,245.1,24.75,245.657,37.126,247.884C48.303,249.896,59.481,279.402,70.659,284.633C83.034,290.423,95.409,291.477,107.784,293.318C119.76,295.1,131.737,295.991,143.713,295.991C156.088,295.991,168.463,295.323,180.838,293.987C192.814,292.693,204.79,288.792,216.766,282.628C229.142,276.258,241.517,267.595,253.892,255.902C266.267,244.209,278.643,219.837,291.018,212.472C302.994,205.345,314.97,201.782,326.946,201.782C339.321,201.782,351.697,221.574,364.072,222.494C376.048,223.385,388.024,223.608,400,223.831" stroke="#36B7B4" stroke-width="2"/></g><g class="mark-area role-mark concat_0_layer_4_layer_0_marks" role="graphics-object" aria-roledescription="area mark container"><path aria-label="index: Jan 01, 2022; corn22: 4.53006681514" role="graphics-symbol" aria-roledescription="area mark" d="M0,73.497C12.375,79.51,24.75,85.523,37.126,109.577C48.303,131.303,59.481,234.083,70.659,244.543C83.034,256.125,95.409,261.915,107.784,261.915C119.76,261.915,131.737,247.324,143.713,243.875C156.088,240.312,168.463,238.53,180.838,238.53C192.814,238.53,204.79,241.203,216.766,241.203C229.142,241.203,241.517,231.626,253.892,223.163C266.267,214.699,278.643,191.344,291.018,190.423C302.994,189.532,314.97,189.087,326.946,189.087C339.321,189.087,351.697,197.773,364.072,197.773C376.048,197.773,388.024,166.704,400,135.635L400,300C388.024,300,376.048,300,364.072,300C351.697,300,339.321,300,326.946,300C314.97,300,302.994,300,291.018,300C278.643,300,266.267,300,253.892,300C241.517,300,229.142,300,216.766,300C204.79,300,192.814,300,180.838,300C168.463,300,156.088,300,143.713,300C131.737,300,119.76,300,107.784,300C95.409,300,83.034,300,70.659,300C59.481,300,48.303,300,37.126,300C24.75,300,12.375,300,0,300Z" fill="url(#gradient_1)" opacity="1"/></g><g class="mark-line role-mark concat_0_layer_4_layer_1_marks" role="graphics-object" aria-roledescription="line mark container"><path aria-label="index: Jan 01, 2022; corn22: 4.53006681514" role="graphics-symbol" aria-roledescription="line mark" d="M0,73.497C12.375,79.51,24.75,85.523,37.126,109.577C48.303,131.303,59.481,234.083,70.659,244.543C83.034,256.125,95.409,261.915,107.784,261.915C119.76,261.915,131.737,247.324,143.713,243.875C156.088,240.312,168.463,238.53,180.838,238.53C192.814,238.53,204.79,241.203,216.766,241.203C229.142,241.203,241.517,231.626,253.892,223.163C266.267,214.699,278.643,191.344,291.018,190.423C302.994,189.532,314.97,189.087,326.946,189.087C339.321,189.087,351.697,197.773,364.072,197.773C376.048,197.773,388.024,166.704,400,135.635" stroke="#F4C245" stroke-width="2"/></g><g class="mark-line role-mark concat_0_layer_5_marks" role="graphics-object" aria-roledescription="line mark container"><path aria-label="index: Jan 01, 2022; wheat5: 0.922048997773" role="graphics-symbol" aria-roledescription="line mark" d="M0,253.898C12.375,254.9,24.75,255.902,37.126,255.902C48.303,255.902,59.481,250.025,70.659,249.22C83.034,248.33,95.409,248.22,107.784,247.884C119.76,247.559,131.737,247.216,143.713,247.216C156.088,247.216,168.463,271.938,180.838,271.938C192.814,271.938,204.79,264.143,216.766,248.552C229.142,232.442,241.517,154.566,253.892,145.657C266.267,136.748,278.643,132.294,291.018,132.294C302.994,132.294,314.97,157.648,326.946,169.71C339.321,182.175,351.697,193.677,364.072,205.791C376.048,217.513,388.024,229.358,400,241.203" stroke="#36B7B4" stroke-width="2" stroke-dasharray="5,5" opacity="1"/></g><g class="mark-line role-mark concat_0_layer_6_marks" role="graphics-object" aria-roledescription="line mark container"><path aria-label="index: Jan 01, 2022; corn5: 2.87305122494" role="graphics-symbol" aria-roledescription="line mark" d="M0,156.347C12.375,161.024,24.75,165.702,37.126,165.702C48.303,165.702,59.481,144.321,70.659,144.321C83.034,144.321,95.409,159.117,107.784,163.697C119.76,168.129,131.737,166.37,143.713,171.715C156.088,177.238,168.463,195.395,180.838,209.131C192.814,222.424,204.79,240.328,216.766,252.561C229.142,265.202,241.517,277.951,253.892,283.296C266.267,288.641,278.643,291.314,291.018,291.314C302.994,291.314,314.97,253.108,326.946,230.512C339.321,207.163,351.697,171.677,364.072,153.007C376.048,134.938,388.024,126.935,400,118.931" stroke="#F4C245" stroke-width="2" stroke-dasharray="5,5" opacity="1"/></g><g class="mark-text role-mark concat_0_layer_7_marks" role="graphics-object" aria-roledescription="text mark container"><text aria-label="index: Dec 01, 2022; wheat22: 1.52338530067; t: Wheat exports,2017-21 average" role="graphics-symbol" aria-roledescription="text mark" text-anchor="start" transform="translate(405,212.8307349665924)" font-family="Circular Std Book" font-size="12px" fill="#36B7B4"><tspan>Wheat exports</tspan><tspan x="0" dy="14">2017-21 average</tspan></text></g><g class="mark-text role-mark concat_0_layer_8_marks" role="graphics-object" aria-roledescription="text mark container"><text aria-label="index: Dec 01, 2022; corn22: 3.28730512249; t: Corn exports,2017-21 average" role="graphics-symbol" aria-roledescription="text mark" text-anchor="start" transform="translate(405,139.63474387527842)" font-family="Circular Std Book" font-size="12px" fill="#F4C245"><tspan>Corn exports</tspan><tspan x="0" dy="14">2017-21 average</tspan></text></g><g class="mark-text role-mark concat_0_layer_9_marks" role="graphics-object" aria-roledescription="text mark container"><text aria-label="index: Dec 01, 2022; wheat5: 1.17594654788; t: Wheat exports,2022" role="graphics-symbol" aria-roledescription="text mark" text-anchor="start" transform="translate(405,250.20267260579067)" font-family="Circular Std Book" font-size="12px" fill="#36B7B4"><tspan>Wheat exports</tspan><tspan x="0" dy="14">2022</tspan></text></g><g class="mark-text role-mark concat_0_layer_10_marks" role="graphics-object" aria-roledescription="text mark container"><text aria-label="index: Dec 01, 2022; corn5: 3.62138084633; t: Corn exports,2022" role="graphics-symbol" aria-roledescription="text mark" text-anchor="start" transform="translate(405,102.93095768374164)" font-family="Circular Std Book" font-size="12px" fill="#F4C245"><tspan>Corn exports</tspan><tspan x="0" dy="14">2022</tspan></text></g><g class="mark-text role-mark concat_0_layer_11_marks" role="graphics-object" aria-roledescription="text mark container"><text aria-label="x: May 15, 2022; y: 6; t: Restricted port activity,March-August 2022" role="graphics-symbol" aria-roledescription="text mark" text-anchor="middle" transform="translate(160.47904191616766,18)" font-family="Circular Std Book" font-size="11px" fill="#b4c8d8" opacity="0.6"><tspan>Restricted port activity</tspan><tspan x="0" dy="13">March-August 2022</tspan></text></g><g class="mark-text role-mark concat_0_layer_12_marks" role="graphics-object" aria-roledescription="text mark container"><text aria-label="x: Oct 01, 2022; y: 6; t: Black Sea Grain Initiative" role="graphics-symbol" aria-roledescription="text mark" text-anchor="middle" transform="translate(326.9461077844311,18)" font-family="Circular Std Book" font-size="11px" fill="#b4c8d8" opacity="0.8">Black Sea Grain Initiative</text></g><g class="mark-image role-mark concat_0_layer_13_marks" role="graphics-object" aria-roledescription="image mark container"><image aria-label="x: Dec 01, 2022; y: 6; img: https://raw.githubusercontent.com/EconomicsObservatory/ECOvisualisations/main/guidelines/logos/eco-icon-light.png" role="graphics-symbol" aria-roledescription="image mark" xlink:href="" transform="translate(465,-33)" width="40" height="40" preserveAspectRatio="xMidYMid" opacity="0.5"/></g></g><path class="foreground" aria-hidden="true" d="" display="none"/></g></g><g class="mark-group role-scope concat_1_group" role="graphics-object" aria-roledescription="group mark container"><g transform="translate(0,344)"><path class="background" aria-hidden="true" d="M0,0h400v100h-400Z"/><g><g class="mark-group role-axis" aria-hidden="true"><g transform="translate(0.5,0.5)"><path class="background" aria-hidden="true" d="M0,0h0v0h0Z" pointer-events="none"/><g><g class="mark-rule role-axis-grid" pointer-events="none"><line transform="translate(0,100)" x2="400" y2="0" stroke="#b4c8d8" stroke-opacity="0.5" stroke-width="1" stroke-dasharray="1,5" opacity="1"/><line transform="translate(0,67)" x2="400" y2="0" stroke="#b4c8d8" stroke-opacity="0.5" stroke-width="1" stroke-dasharray="1,5" opacity="1"/><line transform="translate(0,33)" x2="400" y2="0" stroke="#b4c8d8" stroke-opacity="0.5" stroke-width="1" stroke-dasharray="1,5" opacity="1"/><line transform="translate(0,0)" x2="400" y2="0" stroke="#b4c8d8" stroke-opacity="0.5" stroke-width="1" stroke-dasharray="1,5" opacity="1"/></g></g><path class="foreground" aria-hidden="true" d="" pointer-events="none" display="none"/></g></g><g class="mark-group role-axis" role="graphics-symbol" aria-roledescription="axis" aria-label="X-axis for a time scale with values from January to December"><g transform="translate(0.5,100.5)"><path class="background" aria-hidden="true" d="M0,0h0v0h0Z" pointer-events="none"/><g><g class="mark-rule role-axis-tick" pointer-events="none"><line transform="translate(0,0)" x2="0" y2="5" stroke="#b4c8d8" stroke-opacity="0.5" stroke-width="1" opacity="1"/><line transform="translate(37,0)" x2="0" y2="5" stroke="#b4c8d8" stroke-opacity="0.5" stroke-width="1" opacity="1"/><line transform="translate(71,0)" x2="0" y2="5" stroke="#b4c8d8" stroke-opacity="0.5" stroke-width="1" opacity="1"/><line transform="translate(108,0)" x2="0" y2="5" stroke="#b4c8d8" stroke-opacity="0.5" stroke-width="1" opacity="1"/><line transform="translate(144,0)" x2="0" y2="5" stroke="#b4c8d8" stroke-opacity="0.5" stroke-width="1" opacity="1"/><line transform="translate(181,0)" x2="0" y2="5" stroke="#b4c8d8" stroke-opacity="0.5" stroke-width="1" opacity="1"/><line transform="translate(217,0)" x2="0" y2="5" stroke="#b4c8d8" stroke-opacity="0.5" stroke-width="1" opacity="1"/><line transform="translate(254,0)" x2="0" y2="5" stroke="#b4c8d8" stroke-opacity="0.5" stroke-width="1" opacity="1"/><line transform="translate(291,0)" x2="0" y2="5" stroke="#b4c8d8" stroke-opacity="0.5" stroke-width="1" opacity="1"/><line transform="translate(327,0)" x2="0" y2="5" stroke="#b4c8d8" stroke-opacity="0.5" stroke-width="1" opacity="1"/><line transform="translate(364,0)" x2="0" y2="5" stroke="#b4c8d8" stroke-opacity="0.5" stroke-width="1" opacity="1"/><line transform="translate(400,0)" x2="0" y2="5" stroke="#b4c8d8" stroke-opacity="0.5" stroke-width="1" opacity="1"/></g><g class="mark-text role-axis-label" pointer-events="none"><text text-anchor="start" transform="translate(0,15)" font-family="Circular Std Book" font-size="10px" fill="#b4c8d8" fill-opacity="0.7" opacity="1">Jan</text><text text-anchor="middle" transform="translate(37.12574850299401,15)" font-family="Circular Std Book" font-size="10px" fill="#b4c8d8" fill-opacity="0.7" opacity="1">Feb</text><text text-anchor="middle" transform="translate(70.65868263473054,15)" font-family="Circular Std Book" font-size="10px" fill="#b4c8d8" fill-opacity="0.7" opacity="1">Mar</text><text text-anchor="middle" transform="translate(107.78443113772455,15)" font-family="Circular Std Book" font-size="10px" fill="#b4c8d8" fill-opacity="0.7" opacity="1">Apr</text><text text-anchor="middle" transform="translate(143.7125748502994,15)" font-family="Circular Std Book" font-size="10px" fill="#b4c8d8" fill-opacity="0.7" opacity="1">May</text><text text-anchor="middle" transform="translate(180.83832335329342,15)" font-family="Circular Std Book" font-size="10px" fill="#b4c8d8" fill-opacity="0.7" opacity="1">Jun</text><text text-anchor="middle" transform="translate(216.76646706586826,15)" font-family="Circular Std Book" font-size="10px" fill="#b4c8d8" fill-opacity="0.7" opacity="1">Jul</text><text text-anchor="middle" transform="translate(253.89221556886227,15)" font-family="Circular Std Book" font-size="10px" fill="#b4c8d8" fill-opacity="0.7" opacity="1">Aug</text><text text-anchor="middle" transform="translate(291.0179640718563,15)" font-family="Circular Std Book" font-size="10px" fill="#b4c8d8" fill-opacity="0.7" opacity="1">Sep</text><text text-anchor="middle" transform="translate(326.9461077844311,15)" font-family="Circular Std Book" font-size="10px" fill="#b4c8d8" fill-opacity="0.7" opacity="1">Oct</text><text text-anchor="middle" transform="translate(364.07185628742513,15)" font-family="Circular Std Book" font-size="10px" fill="#b4c8d8" fill-opacity="0.7" opacity="1">Nov</text><text text-anchor="end" transform="translate(400,15)" font-family="Circular Std Book" font-size="10px" fill="#b4c8d8" fill-opacity="0.7" opacity="1">Dec</text></g><g class="mark-rule role-axis-domain" pointer-events="none"><line transform="translate(0,0)" x2="400" y2="0" stroke="#b4c8d8" stroke-opacity="0.5" stroke-width="1" opacity="1"/></g></g><path class="foreground" aria-hidden="true" d="" pointer-events="none" display="none"/></g></g><g class="mark-group role-axis" role="graphics-symbol" aria-roledescription="axis" aria-label="Y-axis for a linear scale with values from 0 to 6"><g transform="translate(0.5,0.5)"><path class="background" aria-hidden="true" d="M0,0h0v0h0Z" pointer-events="none"/><g><g class="mark-text role-axis-label" pointer-events="none"><text text-anchor="end" transform="translate(-5,103)" font-family="Circular Std Book" font-size="10px" fill="#b4c8d8" fill-opacity="0.7" opacity="1">0</text><text text-anchor="end" transform="translate(-5,69.66666666666667)" font-family="Circular Std Book" font-size="10px" fill="#b4c8d8" fill-opacity="0.7" opacity="1">2</text><text text-anchor="end" transform="translate(-5,36.333333333333336)" font-family="Circular Std Book" font-size="10px" fill="#b4c8d8" fill-opacity="0.7" opacity="1">4</text><text text-anchor="end" transform="translate(-5,3)" font-family="Circular Std Book" font-size="10px" fill="#b4c8d8" fill-opacity="0.7" opacity="1">6</text></g><g class="mark-rule role-axis-domain" pointer-events="none"><line transform="translate(0,100)" x2="0" y2="-100" stroke="#b4c8d8" stroke-opacity="0.5" stroke-width="1" opacity="1"/></g></g><path class="foreground" aria-hidden="true" d="" pointer-events="none" display="none"/></g></g><g class="mark-area role-mark concat_1_layer_0_layer_0_marks" role="graphics-object" aria-roledescription="area mark container"><path aria-label="index: Jan; y5: 4; y22: 5.63919821826" role="graphics-symbol" aria-roledescription="area mark" d="M0,36.748C12.375,38.641,24.75,40.535,37.126,40.535C48.303,40.535,59.481,31.18,70.659,31.18C83.034,31.18,95.409,35.779,107.784,37.194C119.76,38.563,131.737,38.01,143.713,39.644C156.088,41.331,168.463,55.791,180.838,60.356C192.814,64.774,204.79,67.038,216.766,67.038C229.142,67.038,241.517,44.172,253.892,42.984C266.267,41.797,278.643,42.39,291.018,41.203C302.994,40.053,314.97,36.919,326.946,33.408C339.321,29.779,351.697,19.599,364.072,19.599C376.048,19.599,388.024,19.822,400,20.045L400,19.822C388.024,29.955,376.048,40.089,364.072,40.089C351.697,40.089,339.321,30.29,326.946,30.29C314.97,30.29,302.994,31.626,291.018,34.298C278.643,37.06,266.267,52.97,253.892,59.688C241.517,66.407,229.142,72.616,216.766,74.61C204.79,76.54,192.814,76.626,180.838,77.506C168.463,78.414,156.088,78.657,143.713,79.955C131.737,81.212,119.76,85.078,107.784,85.078C95.409,85.078,83.034,82.183,70.659,76.392C59.481,71.162,48.303,27.066,37.126,19.154C24.75,10.393,12.375,8.203,0,6.013Z" fill="url(#gradient_2)" opacity="0.7"/></g><g class="mark-line role-mark concat_1_layer_0_layer_1_marks" role="graphics-object" aria-roledescription="line mark container"><path aria-label="index: Jan; y5: 4" role="graphics-symbol" aria-roledescription="line mark" d="M0,36.748C12.375,38.641,24.75,40.535,37.126,40.535C48.303,40.535,59.481,31.18,70.659,31.18C83.034,31.18,95.409,35.779,107.784,37.194C119.76,38.563,131.737,38.01,143.713,39.644C156.088,41.331,168.463,55.791,180.838,60.356C192.814,64.774,204.79,67.038,216.766,67.038C229.142,67.038,241.517,44.172,253.892,42.984C266.267,41.797,278.643,42.39,291.018,41.203C302.994,40.053,314.97,36.919,326.946,33.408C339.321,29.779,351.697,19.599,364.072,19.599C376.048,19.599,388.024,19.822,400,20.045" stroke="#36B7B4" stroke-width="2"/></g><g class="mark-line role-mark concat_1_layer_1_marks" role="graphics-object" aria-roledescription="line mark container"><path aria-label="index: Jan 01, 2022; y22: 5.63919821826" role="graphics-symbol" aria-roledescription="line mark" d="M0,6.013C12.375,8.203,24.75,10.393,37.126,19.154C48.303,27.066,59.481,71.162,70.659,76.392C83.034,82.183,95.409,85.078,107.784,85.078C119.76,85.078,131.737,81.212,143.713,79.955C156.088,78.657,168.463,78.414,180.838,77.506C192.814,76.626,204.79,76.54,216.766,74.61C229.142,72.616,241.517,66.407,253.892,59.688C266.267,52.97,278.643,37.06,291.018,34.298C302.994,31.626,314.97,30.29,326.946,30.29C339.321,30.29,351.697,40.089,364.072,40.089C376.048,40.089,388.024,29.955,400,19.822" stroke="#F4134D" stroke-width="2" opacity="1"/></g><g class="mark-line role-mark concat_1_layer_2_marks" role="graphics-object" aria-roledescription="line mark container"><path aria-label="index: Jan 01, 2022; y5: 3.79510022272" role="graphics-symbol" aria-roledescription="line mark" d="M0,36.748C12.375,38.641,24.75,40.535,37.126,40.535C48.303,40.535,59.481,31.18,70.659,31.18C83.034,31.18,95.409,35.779,107.784,37.194C119.76,38.563,131.737,38.01,143.713,39.644C156.088,41.331,168.463,55.791,180.838,60.356C192.814,64.774,204.79,67.038,216.766,67.038C229.142,67.038,241.517,44.172,253.892,42.984C266.267,41.797,278.643,42.39,291.018,41.203C302.994,40.053,314.97,36.919,326.946,33.408C339.321,29.779,351.697,19.599,364.072,19.599C376.048,19.599,388.024,19.822,400,20.045" stroke="#179FDB" stroke-width="2" opacity="1"/></g><g class="mark-text role-mark concat_1_layer_3_marks" role="graphics-object" aria-roledescription="text mark container"><text aria-label="index: Dec 01, 2022; y22: 4.81069042316; t: Corn + Wheat,2017-21 average" role="graphics-symbol" aria-roledescription="text mark" text-anchor="start" transform="translate(405,3.821826280623611)" font-family="Circular Std Book" font-size="12px" fill="#179FDB"><tspan>Corn + Wheat</tspan><tspan x="0" dy="14">2017-21 average</tspan></text></g><g class="mark-text role-mark concat_1_layer_4_marks" role="graphics-object" aria-roledescription="text mark container"><text aria-label="index: Dec 01, 2022; y5: 4.79732739421; t: Corn + Wheat,2022" role="graphics-symbol" aria-roledescription="text mark" text-anchor="start" transform="translate(405,39.0445434298441)" font-family="Circular Std Book" font-size="12px" fill="#F4134D"><tspan>Corn + Wheat</tspan><tspan x="0" dy="14">2022</tspan></text></g></g><path class="foreground" aria-hidden="true" d="" display="none"/></g></g></g><path class="foreground" aria-hidden="true" d="" display="none"/></g></g></g><defs><linearGradient id="gradient_0" x1="1" x2="1" y1="1" y2="0"><stop offset="0.2" stop-color="#ffffff00"/><stop offset="0.8" stop-color="#36B7B4"/></linearGradient><linearGradient id="gradient_1" x1="1" x2="1" y1="1" y2="0"><stop offset="0.2" stop-color="#ffffff00"/><stop offset="0.8" stop-color="#F4C245"/></linearGradient><linearGradient id="gradient_2" x1="1" x2="1" y1="1" y2="0"><stop offset="0.1" stop-color="#F4134D"/><stop offset="0.9" stop-color="#179FDB"/></linearGradient></defs></svg>