<svg xmlns="http://www.w3.org/2000/svg" xmlns:xlink="http://www.w3.org/1999/xlink" version="1.1" class="marks" width="492" height="310" viewBox="0 0 492 310"><rect width="492" height="310" fill="#122B39"/><g fill="none" stroke-miterlimit="10" transform="translate(63,5)"><g class="mark-group role-frame root" role="graphics-object" aria-roledescription="group mark container"><g transform="translate(0,0)"><path class="background" aria-hidden="true" d="M0,0h400v300h-400Z"/><g><g class="mark-arc role-mark layer_0_marks" role="graphics-object" aria-roledescription="arc mark container"><path aria-label="Grain export (%): 2.6; World Bank Classification: Low-income" role="graphics-symbol" aria-roledescription="arc mark" transform="translate(200,150)" d="M26.253,147.685A150,150,0,0,0,49.923,141.449L24.961,70.724A75,75,0,0,1,13.127,73.842Z" fill="#EB5C2E"/><path aria-label="Grain export (%): 16.5; World Bank Classification: Lower-middle-income" role="graphics-symbol" aria-roledescription="arc mark" transform="translate(200,150)" d="M-113.754,97.775A150,150,0,0,0,26.253,147.685L13.127,73.842A75,75,0,0,1,-56.877,48.888Z" fill="#F4C245"/><path aria-label="Grain export (%): 36.3; World Bank Classification: Upper-middle-income" role="graphics-symbol" aria-roledescription="arc mark" transform="translate(200,150)" d="M0,-150A150,150,0,0,0,-113.754,97.775L-56.877,48.888A75,75,0,0,1,0,-75Z" fill="#179FDB"/><path aria-label="Grain export (%): 44.6; World Bank Classification: High-income" role="graphics-symbol" aria-roledescription="arc mark" transform="translate(200,150)" d="M49.923,141.449A150,150,0,0,0,0,-150L0,-75A75,75,0,0,1,24.961,70.724Z" fill="#36B7B4"/></g><g class="mark-text role-mark layer_1_marks" role="graphics-object" aria-roledescription="text mark container"><text aria-label="Grain export (%): 44.6; World Bank Classification: High-income; y: High-income 44.6%" role="graphics-symbol" aria-roledescription="text mark" text-anchor="middle" transform="translate(370,34)" font-family="Circular Std Book" font-size="12px" fill="#36B7B4">High-income 44.6%</text></g><g class="mark-text role-mark layer_2_marks" role="graphics-object" aria-roledescription="text mark container"><text aria-label="Grain export (%): 2.6; World Bank Classification: Low-income; y: Low-income 2.6%" role="graphics-symbol" aria-roledescription="text mark" text-anchor="middle" transform="translate(370,274)" font-family="Circular Std Book" font-size="12px" fill="#EB5C2E">Low-income 2.6%</text></g><g class="mark-text role-mark layer_3_marks" role="graphics-object" aria-roledescription="text mark container"><text aria-label="Grain export (%): 16.5; World Bank Classification: Lower-middle-income; y: Lower-middle-income 16.5%" role="graphics-symbol" aria-roledescription="text mark" text-anchor="middle" transform="translate(20,274)" font-family="Circular Std Book" font-size="12px" fill="#F4C245">Lower-middle-income 16.5%</text></g><g class="mark-text role-mark layer_4_marks" role="graphics-object" aria-roledescription="text mark container"><text aria-label="Grain export (%): 36.3; World Bank Classification: Upper-middle-income; y: Upper-middle-income 36.3%" role="graphics-symbol" aria-roledescription="text mark" text-anchor="middle" transform="translate(20,34)" font-family="Circular Std Book" font-size="12px" fill="#179FDB">Upper-middle-income 36.3%</text></g><g class="mark-text role-mark layer_5_marks" role="graphics-object" aria-roledescription="text mark container"><text text-anchor="middle" transform="translate(200,139)" font-family="Circular Std Book" font-size="12px" fill="#b4c8d8"><tspan>Global distribution of</tspan><tspan x="0" dy="14">Ukraine’s export under the</tspan><tspan x="0" dy="14">Black Sea Agreement</tspan><tspan x="0" dy="14">as of Jan 2023</tspan></text><text text-anchor="middle" transform="translate(200,139)" font-family="Circular Std Book" font-size="12px" fill="#b4c8d8"><tspan>Global distribution of</tspan><tspan x="0" dy="14">Ukraine’s export under the</tspan><tspan x="0" dy="14">Black Sea Agreement</tspan><tspan x="0" dy="14">as of Jan 2023</tspan></text><text text-anchor="middle" transform="translate(200,139)" font-family="Circular Std Book" font-size="12px" fill="#b4c8d8"><tspan>Global distribution of</tspan><tspan x="0" dy="14">Ukraine’s export under the</tspan><tspan x="0" dy="14">Black Sea Agreement</tspan><tspan x="0" dy="14">as of Jan 2023</tspan></text><text text-anchor="middle" transform="translate(200,139)" font-family="Circular Std Book" font-size="12px" fill="#b4c8d8"><tspan>Global distribution of</tspan><tspan x="0" dy="14">Ukraine’s export under the</tspan><tspan x="0" dy="14">Black Sea Agreement</tspan><tspan x="0" dy="14">as of Jan 2023</tspan></text></g></g><path class="foreground" aria-hidden="true" d="" display="none"/></g></g></g></svg>