<svg xmlns="http://www.w3.org/2000/svg" xmlns:xlink="http://www.w3.org/1999/xlink" version="1.1" class="marks" width="441" height="347" viewBox="0 0 441 347"><rect width="441" height="347" fill="white"/><g fill="none" stroke-miterlimit="10" transform="translate(34,25)"><g class="mark-group role-frame root" role="graphics-object" aria-roledescription="group mark container"><g transform="translate(0,0)"><path class="background" aria-hidden="true" d="M0,0h400v300h-400Z"/><g><g class="mark-group role-axis" aria-hidden="true"><g transform="translate(0.5,0.5)"><path class="background" aria-hidden="true" d="M0,0h0v0h0Z" pointer-events="none"/><g><g class="mark-rule role-axis-grid" pointer-events="none"><line transform="translate(0,300)" x2="400" y2="0" stroke="#676A86" stroke-opacity="0.5" stroke-width="1" stroke-dasharray="1,5" opacity="1"/><line transform="translate(0,263)" x2="400" y2="0" stroke="#676A86" stroke-opacity="0.5" stroke-width="1" stroke-dasharray="1,5" opacity="1"/><line transform="translate(0,225)" x2="400" y2="0" stroke="#676A86" stroke-opacity="0.5" stroke-width="1" stroke-dasharray="1,5" opacity="1"/><line transform="translate(0,188)" x2="400" y2="0" stroke="#676A86" stroke-opacity="0.5" stroke-width="1" stroke-dasharray="1,5" opacity="1"/><line transform="translate(0,150)" x2="400" y2="0" stroke="#676A86" stroke-opacity="0.5" stroke-width="1" stroke-dasharray="1,5" opacity="1"/><line transform="translate(0,113)" x2="400" y2="0" stroke="#676A86" stroke-opacity="0.5" stroke-width="1" stroke-dasharray="1,5" opacity="1"/><line transform="translate(0,75)" x2="400" y2="0" stroke="#676A86" stroke-opacity="0.5" stroke-width="1" stroke-dasharray="1,5" opacity="1"/><line transform="translate(0,37)" x2="400" y2="0" stroke="#676A86" stroke-opacity="0.5" stroke-width="1" stroke-dasharray="1,5" opacity="1"/><line transform="translate(0,0)" x2="400" y2="0" stroke="#676A86" stroke-opacity="0.5" stroke-width="1" stroke-dasharray="1,5" opacity="1"/></g></g><path class="foreground" aria-hidden="true" d="" pointer-events="none" display="none"/></g></g><g class="mark-group role-axis" role="graphics-symbol" aria-roledescription="axis" aria-label="X-axis for a linear scale with values from 0 to 16"><g transform="translate(0.5,300.5)"><path class="background" aria-hidden="true" d="M0,0h0v0h0Z" pointer-events="none"/><g><g class="mark-rule role-axis-tick" pointer-events="none"><line transform="translate(0,0)" x2="0" y2="5" stroke="#676A86" stroke-opacity="0.5" stroke-width="1" opacity="1"/><line transform="translate(50,0)" x2="0" y2="5" stroke="#676A86" stroke-opacity="0.5" stroke-width="1" opacity="1"/><line transform="translate(100,0)" x2="0" y2="5" stroke="#676A86" stroke-opacity="0.5" stroke-width="1" opacity="1"/><line transform="translate(150,0)" x2="0" y2="5" stroke="#676A86" stroke-opacity="0.5" stroke-width="1" opacity="1"/><line transform="translate(200,0)" x2="0" y2="5" stroke="#676A86" stroke-opacity="0.5" stroke-width="1" opacity="1"/><line transform="translate(250,0)" x2="0" y2="5" stroke="#676A86" stroke-opacity="0.5" stroke-width="1" opacity="1"/><line transform="translate(300,0)" x2="0" y2="5" stroke="#676A86" stroke-opacity="0.5" stroke-width="1" opacity="1"/><line transform="translate(350,0)" x2="0" y2="5" stroke="#676A86" stroke-opacity="0.5" stroke-width="1" opacity="1"/><line transform="translate(400,0)" x2="0" y2="5" stroke="#676A86" stroke-opacity="0.5" stroke-width="1" opacity="1"/></g><g class="mark-text role-axis-label" pointer-events="none"><text text-anchor="start" transform="translate(0,15)" font-family="Circular Std Book" font-size="10px" fill="#676A86" fill-opacity="0.7" opacity="1">0</text><text text-anchor="middle" transform="translate(50,15)" font-family="Circular Std Book" font-size="10px" fill="#676A86" fill-opacity="0.7" opacity="1">2</text><text text-anchor="middle" transform="translate(100,15)" font-family="Circular Std Book" font-size="10px" fill="#676A86" fill-opacity="0.7" opacity="1">4</text><text text-anchor="middle" transform="translate(150,15)" font-family="Circular Std Book" font-size="10px" fill="#676A86" fill-opacity="0.7" opacity="1">6</text><text text-anchor="middle" transform="translate(200,15)" font-family="Circular Std Book" font-size="10px" fill="#676A86" fill-opacity="0.7" opacity="1">8</text><text text-anchor="middle" transform="translate(250,15)" font-family="Circular Std Book" font-size="10px" fill="#676A86" fill-opacity="0.7" opacity="1">10</text><text text-anchor="middle" transform="translate(300,15)" font-family="Circular Std Book" font-size="10px" fill="#676A86" fill-opacity="0.7" opacity="1">12</text><text text-anchor="middle" transform="translate(350,15)" font-family="Circular Std Book" font-size="10px" fill="#676A86" fill-opacity="0.7" opacity="1">14</text><text text-anchor="end" transform="translate(400,15)" font-family="Circular Std Book" font-size="10px" fill="#676A86" fill-opacity="0.7" opacity="1">16</text></g><g class="mark-rule role-axis-domain" pointer-events="none"><line transform="translate(0,0)" x2="400" y2="0" stroke="#676A86" stroke-opacity="0.5" stroke-width="1" opacity="1"/></g></g><path class="foreground" aria-hidden="true" d="" pointer-events="none" display="none"/></g></g><g class="mark-group role-axis" role="graphics-symbol" aria-roledescription="axis" aria-label="Y-axis titled 'The response of consumer prices to shipping costs  (percentage points)' for a linear scale with values from −0.02 to 0.06"><g transform="translate(0.5,0.5)"><path class="background" aria-hidden="true" d="M0,0h0v0h0Z" pointer-events="none"/><g><g class="mark-text role-axis-label" pointer-events="none"><text text-anchor="end" transform="translate(-5,303)" font-family="Circular Std Book" font-size="10px" fill="#676A86" fill-opacity="0.7" opacity="1">−0.02</text><text text-anchor="end" transform="translate(-5,265.5)" font-family="Circular Std Book" font-size="10px" fill="#676A86" fill-opacity="0.7" opacity="1">−0.01</text><text text-anchor="end" transform="translate(-5,228)" font-family="Circular Std Book" font-size="10px" fill="#676A86" fill-opacity="0.7" opacity="1">0.00</text><text text-anchor="end" transform="translate(-5,190.5)" font-family="Circular Std Book" font-size="10px" fill="#676A86" fill-opacity="0.7" opacity="1">0.01</text><text text-anchor="end" transform="translate(-5,153)" font-family="Circular Std Book" font-size="10px" fill="#676A86" fill-opacity="0.7" opacity="1">0.02</text><text text-anchor="end" transform="translate(-5,115.5)" font-family="Circular Std Book" font-size="10px" fill="#676A86" fill-opacity="0.7" opacity="1">0.03</text><text text-anchor="end" transform="translate(-5,78)" font-family="Circular Std Book" font-size="10px" fill="#676A86" fill-opacity="0.7" opacity="1">0.04</text><text text-anchor="end" transform="translate(-5,40.499999999999964)" font-family="Circular Std Book" font-size="10px" fill="#676A86" fill-opacity="0.7" opacity="1">0.05</text><text text-anchor="end" transform="translate(-5,3)" font-family="Circular Std Book" font-size="10px" fill="#676A86" fill-opacity="0.7" opacity="1">0.06</text></g><g class="mark-rule role-axis-domain" pointer-events="none"><line transform="translate(0,300)" x2="0" y2="-300" stroke="#676A86" stroke-opacity="0.5" stroke-width="1" opacity="1"/></g><g class="mark-text role-axis-title" pointer-events="none"><text text-anchor="start" transform="translate(5,-10)" font-family="Circular Std Book" font-size="12px" font-weight="bold" fill="#676A86" fill-opacity="0.8" opacity="1"><tspan>The response of consumer prices to shipping costs</tspan><tspan x="0" dy="14"/><tspan x="0" dy="14">(percentage points)</tspan></text></g></g><path class="foreground" aria-hidden="true" d="" pointer-events="none" display="none"/></g></g><g class="mark-line role-mark layer_0_marks" role="graphics-object" aria-roledescription="line mark container"><path aria-label="x: 0; y: 0.00" role="graphics-symbol" aria-roledescription="line mark" d="M0,225L400,225" stroke="#676A86" stroke-width="1" opacity="0.3"/></g><g class="mark-line role-mark layer_1_marks" role="graphics-object" aria-roledescription="line mark container"><path aria-label="t: 0; Y: 0.000178926441352" role="graphics-symbol" aria-roledescription="line mark" d="M0,224.329L4.167,227.311C8.333,230.293,16.667,236.257,25,240.134C33.333,244.011,41.667,245.8,50,242.122C58.333,238.444,66.667,229.299,75,219.458C83.333,209.617,91.667,199.081,100,185.959C108.333,172.838,116.667,157.132,125,137.55C133.333,117.967,141.667,94.508,150,78.703C158.333,62.898,166.667,54.747,175,48.583C183.333,42.42,191.667,38.246,200,36.854C208.333,35.462,216.667,36.854,225,42.023C233.333,47.192,241.667,56.138,250,63.096C258.333,70.055,266.667,75.025,275,82.083C283.333,89.14,291.667,98.285,300,102.858C308.333,107.43,316.667,107.43,325,105.144C333.333,102.858,341.667,98.285,350,97.589C358.333,96.894,366.667,100.075,375,114.985C383.333,129.896,391.667,156.536,395.833,169.856L400,183.176" stroke="#F4134D" stroke-width="2"/></g><g class="mark-area role-mark layer_2_marks" role="graphics-object" aria-roledescription="area mark container"><path aria-label="t: 0; Y2: −0.00284294234592; Y1: 0.0024055666004" role="graphics-symbol" aria-roledescription="area mark" d="M0,235.661L4.167,239.737C8.333,243.812,16.667,251.963,25,257.629C33.333,263.295,41.667,266.476,50,263.792C58.333,261.108,66.667,252.56,75,241.128C83.333,229.697,91.667,215.383,100,201.665C108.333,187.947,116.667,174.826,125,157.53C133.333,140.234,141.667,118.762,150,104.15C158.333,89.538,166.667,81.784,175,76.317C183.333,70.85,191.667,67.669,200,67.271C208.333,66.874,216.667,69.259,225,75.422C233.333,81.585,241.667,91.526,250,100.273C258.333,109.021,266.667,116.576,275,124.925C283.333,133.275,291.667,142.42,300,146.496C308.333,150.572,316.667,149.578,325,148.385C333.333,147.192,341.667,145.8,350,148.981C358.333,152.162,366.667,159.916,375,177.411C383.333,194.906,391.667,222.142,395.833,235.76L400,249.379L400,119.359L395.833,106.039C391.667,92.719,383.333,66.079,375,53.752C366.667,41.426,358.333,43.415,350,47.49C341.667,51.566,333.333,57.729,325,60.91C316.667,64.09,308.333,64.289,300,61.307C291.667,58.325,283.333,52.162,275,46.397C266.667,40.631,258.333,35.263,250,28.902C241.667,22.54,233.333,15.184,225,11.009C216.667,6.834,208.333,5.84,200,7.927C191.667,10.015,183.333,15.184,175,22.739C166.667,30.293,158.333,40.234,150,56.834C141.667,73.434,133.333,96.695,125,114.587C116.667,132.48,108.333,145.005,100,158.126C91.667,171.248,83.333,184.965,75,196.496C66.667,208.027,58.333,217.371,50,221.943C41.667,226.516,33.333,226.317,25,224.528C16.667,222.739,8.333,219.359,4.167,217.669L0,215.979Z" fill="#F4134D" opacity="0.2"/></g></g><path class="foreground" aria-hidden="true" d="" display="none"/></g></g></g></svg>