<svg xmlns="http://www.w3.org/2000/svg" xmlns:xlink="http://www.w3.org/1999/xlink" version="1.1" class="marks" width="567" height="347" viewBox="0 0 567 347"><rect width="567" height="347" fill="white"/><g fill="none" stroke-miterlimit="10" transform="translate(43,25)"><g class="mark-group role-frame root" role="graphics-object" aria-roledescription="group mark container"><g transform="translate(0,0)"><path class="background" aria-hidden="true" d="M0,0h400v300h-400Z"/><g><g class="mark-group role-axis" aria-hidden="true"><g transform="translate(0.5,0.5)"><path class="background" aria-hidden="true" d="M0,0h0v0h0Z" pointer-events="none"/><g><g class="mark-rule role-axis-grid" pointer-events="none"><line transform="translate(0,300)" x2="400" y2="0" stroke="#676A86" stroke-opacity="0.5" stroke-width="1" stroke-dasharray="1,5" opacity="1"/><line transform="translate(0,250)" x2="400" y2="0" stroke="#676A86" stroke-opacity="0.5" stroke-width="1" stroke-dasharray="1,5" opacity="1"/><line transform="translate(0,200)" x2="400" y2="0" stroke="#676A86" stroke-opacity="0.5" stroke-width="1" stroke-dasharray="1,5" opacity="1"/><line transform="translate(0,150)" x2="400" y2="0" stroke="#676A86" stroke-opacity="0.5" stroke-width="1" stroke-dasharray="1,5" opacity="1"/><line transform="translate(0,100)" x2="400" y2="0" stroke="#676A86" stroke-opacity="0.5" stroke-width="1" stroke-dasharray="1,5" opacity="1"/><line transform="translate(0,50)" x2="400" y2="0" stroke="#676A86" stroke-opacity="0.5" stroke-width="1" stroke-dasharray="1,5" opacity="1"/><line transform="translate(0,0)" x2="400" y2="0" stroke="#676A86" stroke-opacity="0.5" stroke-width="1" stroke-dasharray="1,5" opacity="1"/></g></g><path class="foreground" aria-hidden="true" d="" pointer-events="none" display="none"/></g></g><g class="mark-group role-axis" role="graphics-symbol" aria-roledescription="axis" aria-label="X-axis titled 'School year starting in' for a linear scale with values from 1985 to 2025"><g transform="translate(0.5,300.5)"><path class="background" aria-hidden="true" d="M0,0h0v0h0Z" pointer-events="none"/><g><g class="mark-rule role-axis-tick" pointer-events="none"><line transform="translate(0,0)" x2="0" y2="5" stroke="#676A86" stroke-opacity="0.5" stroke-width="1" opacity="1"/><line transform="translate(50,0)" x2="0" y2="5" stroke="#676A86" stroke-opacity="0.5" stroke-width="1" opacity="1"/><line transform="translate(100,0)" x2="0" y2="5" stroke="#676A86" stroke-opacity="0.5" stroke-width="1" opacity="1"/><line transform="translate(150,0)" x2="0" y2="5" stroke="#676A86" stroke-opacity="0.5" stroke-width="1" opacity="1"/><line transform="translate(200,0)" x2="0" y2="5" stroke="#676A86" stroke-opacity="0.5" stroke-width="1" opacity="1"/><line transform="translate(250,0)" x2="0" y2="5" stroke="#676A86" stroke-opacity="0.5" stroke-width="1" opacity="1"/><line transform="translate(300,0)" x2="0" y2="5" stroke="#676A86" stroke-opacity="0.5" stroke-width="1" opacity="1"/><line transform="translate(350,0)" x2="0" y2="5" stroke="#676A86" stroke-opacity="0.5" stroke-width="1" opacity="1"/><line transform="translate(400,0)" x2="0" y2="5" stroke="#676A86" stroke-opacity="0.5" stroke-width="1" opacity="1"/></g><g class="mark-text role-axis-label" pointer-events="none"><text text-anchor="start" transform="translate(0,15)" font-family="Circular Std Book" font-size="10px" fill="#676A86" fill-opacity="0.7" opacity="1">1985</text><text text-anchor="middle" transform="translate(50,15)" font-family="Circular Std Book" font-size="10px" fill="#676A86" fill-opacity="0.7" opacity="1">1990</text><text text-anchor="middle" transform="translate(100,15)" font-family="Circular Std Book" font-size="10px" fill="#676A86" fill-opacity="0.7" opacity="1">1995</text><text text-anchor="middle" transform="translate(150,15)" font-family="Circular Std Book" font-size="10px" fill="#676A86" fill-opacity="0.7" opacity="1">2000</text><text text-anchor="middle" transform="translate(200,15)" font-family="Circular Std Book" font-size="10px" fill="#676A86" fill-opacity="0.7" opacity="1">2005</text><text text-anchor="middle" transform="translate(250,15)" font-family="Circular Std Book" font-size="10px" fill="#676A86" fill-opacity="0.7" opacity="1">2010</text><text text-anchor="middle" transform="translate(300,15)" font-family="Circular Std Book" font-size="10px" fill="#676A86" fill-opacity="0.7" opacity="1">2015</text><text text-anchor="middle" transform="translate(350,15)" font-family="Circular Std Book" font-size="10px" fill="#676A86" fill-opacity="0.7" opacity="1">2020</text><text text-anchor="end" transform="translate(400,15)" font-family="Circular Std Book" font-size="10px" fill="#676A86" fill-opacity="0.7" opacity="1">2025</text></g><g class="mark-rule role-axis-domain" pointer-events="none"><line transform="translate(0,0)" x2="400" y2="0" stroke="#676A86" stroke-opacity="0.5" stroke-width="1" opacity="1"/></g><g class="mark-text role-axis-title" pointer-events="none"><text text-anchor="end" transform="translate(400,-6)" font-family="Circular Std Book" font-size="12px" font-weight="bold" fill="#676A86" fill-opacity="0.8" opacity="1">School year starting in</text></g></g><path class="foreground" aria-hidden="true" d="" pointer-events="none" display="none"/></g></g><g class="mark-group role-axis" role="graphics-symbol" aria-roledescription="axis" aria-label="Y-axis titled 'Mean expenditure per pupil, 2023-24 prices' for a linear scale with values from $0 to $12,000"><g transform="translate(0.5,0.5)"><path class="background" aria-hidden="true" d="M0,0h0v0h0Z" pointer-events="none"/><g><g class="mark-text role-axis-label" pointer-events="none"><text text-anchor="end" transform="translate(-5,303)" font-family="Circular Std Book" font-size="10px" fill="#676A86" fill-opacity="0.7" opacity="1">$0</text><text text-anchor="end" transform="translate(-5,253)" font-family="Circular Std Book" font-size="10px" fill="#676A86" fill-opacity="0.7" opacity="1">$2,000</text><text text-anchor="end" transform="translate(-5,203.00000000000003)" font-family="Circular Std Book" font-size="10px" fill="#676A86" fill-opacity="0.7" opacity="1">$4,000</text><text text-anchor="end" transform="translate(-5,153)" font-family="Circular Std Book" font-size="10px" fill="#676A86" fill-opacity="0.7" opacity="1">$6,000</text><text text-anchor="end" transform="translate(-5,103.00000000000001)" font-family="Circular Std Book" font-size="10px" fill="#676A86" fill-opacity="0.7" opacity="1">$8,000</text><text text-anchor="end" transform="translate(-5,52.999999999999986)" font-family="Circular Std Book" font-size="10px" fill="#676A86" fill-opacity="0.7" opacity="1">$10,000</text><text text-anchor="end" transform="translate(-5,3)" font-family="Circular Std Book" font-size="10px" fill="#676A86" fill-opacity="0.7" opacity="1">$12,000</text></g><g class="mark-rule role-axis-domain" pointer-events="none"><line transform="translate(0,300)" x2="0" y2="-300" stroke="#676A86" stroke-opacity="0.5" stroke-width="1" opacity="1"/></g><g class="mark-text role-axis-title" pointer-events="none"><text text-anchor="start" transform="translate(0,-10)" font-family="Circular Std Book" font-size="12px" font-weight="bold" fill="#676A86" fill-opacity="0.8" opacity="1">Mean expenditure per pupil, 2023-24 prices</text></g></g><path class="foreground" aria-hidden="true" d="" pointer-events="none" display="none"/></g></g><g class="mark-area role-mark layer_0_marks" role="graphics-object" aria-roledescription="area mark container"><path aria-label="x: 2023; y: 6000; y2: 10500" role="graphics-symbol" aria-roledescription="area mark" d="M380,150L390,150L390,37.5L380,37.5Z" fill="#676A86" opacity="0.2"/></g><g class="mark-line role-mark layer_1_marks" clip-path="url(#clip41)" role="graphics-object" aria-roledescription="line mark container"><path aria-label="x: 1989; y: $0" role="graphics-symbol" aria-roledescription="line mark" d="M40,300L390,300" stroke="#676A86" stroke-width="1" opacity="0.3"/></g><g class="mark-line role-mark layer_2_marks" role="graphics-object" aria-roledescription="line mark container"><path aria-label="X4: 0; Y4: 0" role="graphics-symbol" aria-roledescription="line mark" d="M160.54,257.015L163.877,261.407L167.214,265.799L170.55,266.348L173.887,260.858L177.224,255.368L180.56,251.937L183.897,250.977L187.234,250.016L190.57,249.467L193.907,248.781L197.243,248.506L200.58,247.683L203.917,246.585L207.253,245.624L210.59,245.487L213.927,245.487L217.263,245.487L220.6,245.35L223.937,244.389L227.273,243.428L230.61,243.291L233.947,243.291L237.283,243.291L240.62,241.918L243.957,239.448L247.293,236.84L250.63,233.821L253.967,230.253L257.303,226.41L260.64,223.391L263.976,220.371L267.313,217.901L270.65,217.215L273.986,218.861L277.323,220.783L280.66,221.332L283.996,221.332L287.333,221.332L290.67,220.646L294.006,220.234L297.343,220.234L300.68,219.822L304.016,218.587L307.353,217.489L309.855,215.568L311.941,210.901L314.026,206.51L316.112,201.935L318.614,196.811L321.534,193.197L324.87,190.178L328.207,187.158L331.544,187.021L334.88,187.982L338.217,188.942L341.554,187.707L344.89,185.099L348.227,182.766L351.564,181.806L354.9,180.845L358.237,180.708L361.574,182.492L364.91,185.237L368.247,187.982" stroke="#F4134D" stroke-width="2"/></g><g class="mark-line role-mark layer_3_marks" role="graphics-object" aria-roledescription="line mark container"><path aria-label="X3: 0; Y3: 0" role="graphics-symbol" aria-roledescription="line mark" d="M39.587,236.978L42.923,237.664L46.26,237.801L49.597,237.389L52.933,236.291L56.27,235.193L59.607,234.233L62.943,233.409L66.28,232.311L69.617,231.351L72.953,231.625L76.29,232.311L79.627,232.174L82.963,231.213L86.3,230.664L89.636,230.115L92.973,230.115L96.31,230.115L99.646,230.802L102.983,231.213L106.32,231.213L109.656,231.213L112.993,231.213L116.33,231.213L119.666,230.802L123.003,229.292L126.34,227.508L129.676,225.861L133.013,223.391L136.35,221.057L139.686,218.312L143.023,215.293L146.36,212.411L149.696,209.254L153.033,206.372L156.369,203.353L159.706,200.059L163.043,195.942L166.379,191.687L169.716,187.57L173.053,184.825L176.389,182.355L179.726,180.159L183.063,179.061L186.399,177.963L189.736,176.59L193.073,174.394L196.409,172.199L199.746,170.14L203.083,168.63L206.419,167.121L209.756,165.748L213.093,163.964L216.429,162.317L219.766,160.67L223.103,159.709L226.439,158.611L229.776,157.788L233.112,156.964L236.449,156.141L239.786,155.455L243.122,155.455L246.459,155.455L249.796,155.455L253.132,155.455L256.469,155.455L259.806,155.455L263.142,155.455L266.479,155.318L269.816,154.494L273.152,153.671L276.489,152.71L279.826,151.612L283.162,150.651L286.499,149.553L289.836,148.455L293.172,147.083L296.509,145.848L299.845,144.475L303.182,145.573L306.519,145.711L309.855,146.671L313.192,147.083L316.529,147.769L319.865,148.318L323.202,148.867L326.539,148.867L329.875,148.455L333.212,147.769L336.549,146.671L339.885,146.946L343.222,148.867L346.559,151.063L349.895,151.749L353.232,148.73L356.569,145.299L359.905,142.417L363.242,142.279L366.579,142.417L369.915,142.828L373.252,142.279L376.588,142.279L379.925,142.142L382.428,141.181L386.598,139.946L389.101,139.26" stroke="#36B7B4" stroke-width="2"/></g><g class="mark-line role-mark layer_4_marks" role="graphics-object" aria-roledescription="line mark container"><path aria-label="X2: 0; Y2: 0" role="graphics-symbol" aria-roledescription="line mark" d="M40.421,195.53L43.758,195.53L47.094,196.491L50.431,196.628L53.767,196.628L57.104,196.628L60.441,196.216L63.777,195.256L67.114,194.295L70.451,193.334L73.787,193.746L77.124,194.432L80.461,194.569L83.797,195.667L87.134,196.628L90.471,197.863L93.807,199.236L97.144,200.471L100.481,201.02L103.817,201.02L107.154,200.471L110.491,199.922L113.827,199.922L117.164,199.236L120.5,198.824L123.837,198.138L127.174,197.726L130.51,196.491L133.847,194.844L137.184,192.922L140.52,190.864L143.857,187.707L147.194,184.688L150.53,181.668L153.867,178.375L157.204,175.081L160.123,171.558L162.626,167.166L165.128,162.591L167.631,158.2L170.55,154.22L173.887,150.24L177.224,146.808L180.143,144.109L185.565,140.358L188.902,138.162L190.987,136.241L196.409,132.261L199.746,129.79L203.083,128.006L206.419,126.222L209.756,124.3L213.093,121.967L216.429,119.497L223.937,115.105L227.273,113.733L230.61,112.36L233.947,111.262L237.283,110.164L240.62,109.89L246.459,111.537L249.796,111.674L253.132,109.204L256.469,106.596L259.806,104.537L263.142,105.361L270.65,106.596L273.986,105.91L277.323,105.498L280.66,105.498L283.996,105.635L287.333,106.596L290.67,106.596L294.006,107.557L297.343,107.694L300.68,109.066L304.016,110.988L307.353,113.184L310.69,115.242L314.026,117.027L317.363,118.811L320.7,120.458L323.619,121.967L335.714,125.261L339.051,125.673L342.388,128.418L349.756,134.777L353.232,131.712L356.569,128.692L359.905,126.496L363.242,126.359L366.579,126.359L369.915,126.771L373.252,126.359L376.588,126.359L379.925,126.085L382.011,125.261L386.181,124.163" stroke="#179FDB" stroke-width="2"/></g><g class="mark-line role-mark layer_5_marks" role="graphics-object" aria-roledescription="line mark container"><path aria-label="X1: 0; Y1: 0" role="graphics-symbol" aria-roledescription="line mark" d="M40.421,146.946L43.758,148.593L47.094,150.102L50.431,151.886L53.767,154.22L57.104,156.553L60.441,158.337L63.777,159.298L67.114,160.396L70.451,160.533L73.787,160.396L77.124,159.298L80.461,159.847L83.797,161.082L87.134,162.317L90.471,164.376L93.807,167.121L97.144,169.865L100.481,171.924L103.817,173.022L107.154,174.12L110.491,174.806L113.827,175.767L117.164,175.904L120.5,176.865L123.837,176.865L127.174,176.865L130.51,176.316L133.847,174.257L137.184,172.199L140.52,170.14L143.857,168.493L147.194,166.434L150.53,163.964L153.867,160.396L157.204,156.69L160.54,154.494L163.877,153.808L167.214,153.396L170.55,151.475L173.887,147.357L177.224,143.377L180.56,141.73L183.897,143.377L187.234,145.024L189.736,144.475L191.404,139.809L193.073,135.143L194.741,130.476L196.409,125.81L198.078,121.144L200.58,117.713L203.917,117.576L207.253,117.576L210.59,117.576L213.927,117.438L217.263,116.615L220.6,117.164L223.937,118.399L227.273,119.634L230.61,119.909L233.947,118.811L237.283,117.576L240.62,114.831L243.957,109.89L246.876,105.498L249.796,101.655L253.132,99.048L256.469,96.714L259.806,95.891L262.725,99.825L265.228,103.668L267.73,107.145L270.65,110.302L273.986,111.674L277.323,113.458L280.66,114.831L283.996,116.203L287.333,117.438L290.67,118.673L294.006,118.673L297.343,118.673L300.68,118.948L304.016,119.771L307.353,120.869L310.69,121.693L314.026,122.379L317.363,123.203L320.7,124.163L324.036,124.163L327.373,124.163L330.71,125.261L334.046,126.908L337.383,128.692L340.719,130.065L344.056,131.3L347.393,132.535L350.729,131.712L354.066,127.457L357.403,123.34L360.739,120.869L364.076,121.144L367.413,121.967L370.749,121.967L374.086,122.242L377.423,123.065L380.759,123.065L387.433,122.105L389.518,121.967" stroke="#0063AF" stroke-width="2"/></g><g class="mark-line role-mark layer_6_marks" role="graphics-object" aria-roledescription="line mark container"><path aria-label="X: 1989.95966633; Y: 9811.28560021" role="graphics-symbol" aria-roledescription="line mark" d="M49.597,54.718L52.516,58.835L55.019,62.678L57.521,66.521L60.441,70.913L63.777,75.304L67.114,79.696L70.451,83.265L73.787,86.833L77.124,90.401L80.461,93.695L83.797,96.989L87.134,100.283L90.471,103.577L93.807,106.596L97.144,109.753L100.481,112.086L103.817,113.595L107.154,114.968L110.491,115.929L113.827,115.929L117.164,115.929L120.5,115.929L123.837,115.929L127.174,115.38L130.51,115.38L133.847,115.38L137.184,115.38L140.52,114.693L143.857,113.184L147.194,111.537L150.53,110.164L153.867,108.792L157.204,107.694L160.54,106.184L163.877,104.126L167.214,102.479L170.55,100.832L173.887,100.008L177.224,99.048L180.56,98.224L183.897,97.538L187.234,96.989L190.57,96.714L193.907,97.263L197.243,97.538L199.746,96.989L200.163,92.323L200.997,87.565L201.831,82.807L202.666,78.049L203.5,73.292L204.334,68.168L205.168,63.41L206.002,58.286L206.836,53.528L207.879,48.13L208.505,43.098L210.59,39.209L213.927,37.974L217.263,36.876L220.6,37.151L223.937,39.209L227.273,41.131L230.61,43.327L233.947,46.071L237.283,48.816L240.62,51.287L243.957,53.62L247.293,55.816L250.63,58.149L253.967,60.482L257.303,62.952L259.389,63.776L260.223,59.796L261.057,53.894L261.891,49.32L262.725,44.196L263.559,39.621L264.394,34.863L265.228,29.739L266.062,24.982L266.896,19.858L267.73,15.283L268.731,9.427L271.484,7.094L274.821,8.878L278.157,10.663L281.494,11.486L284.831,11.623L288.167,12.035L291.504,11.623L294.841,10.937L298.177,10.525L301.514,11.074L304.85,12.447L308.187,13.819L311.524,13.956L314.86,13.819L318.197,13.819L321.534,15.603L324.87,18.623L328.207,21.505L331.544,23.564L334.88,24.936L338.217,26.446L341.554,28.504L344.89,30.975L348.227,33.72L351.564,36.327L354.9,39.347L358.237,41.954L361.574,45.66L364.91,49.091L368.247,52.796L371.583,55.267L374.92,57.188L378.257,58.972L381.593,59.933L386.598,60.345L389.101,60.757" stroke="#122B39" stroke-width="2"/></g><g class="mark-text role-mark layer_7_marks" role="graphics-object" aria-roledescription="text mark container"><text aria-label="X: 2023.91009053; Y: 9569.73649188" role="graphics-symbol" aria-roledescription="text mark" text-anchor="start" transform="translate(394.10090525617306,64.75658770295371)" font-family="Circular Std Book" font-size="12px" fill="#122B39">Higher education</text></g><g class="mark-text role-mark layer_8_marks" role="graphics-object" aria-roledescription="text mark container"><text aria-label="X1: 2023.95179866; Y1: 7121.3068938" role="graphics-symbol" aria-roledescription="text mark" text-anchor="start" transform="translate(394.51798663443924,113.96732765504333)" font-family="Circular Std Book" font-size="12px" fill="#0063AF">Further education (16-18)</text></g><g class="mark-text role-mark layer_9_marks" role="graphics-object" aria-roledescription="text mark container"><text aria-label="X2: 2023.61813356; Y2: 7033.47085441" role="graphics-symbol" aria-roledescription="text mark" text-anchor="start" transform="translate(391.1813356083235,128.16322863987168)" font-family="Circular Std Book" font-size="12px" fill="#179FDB">Secondary school</text></g><g class="mark-text role-mark layer_10_marks" role="graphics-object" aria-roledescription="text mark container"><text aria-label="X3: 2023.91009053; Y3: 6429.59808358" role="graphics-symbol" aria-roledescription="text mark" text-anchor="start" transform="translate(394.10090525617306,143.26004791056644)" font-family="Circular Std Book" font-size="12px" fill="#36B7B4">Primary school</text></g><g class="mark-text role-mark layer_11_marks" role="graphics-object" aria-roledescription="text mark container"><text aria-label="X4: 2021.82468363; Y4: 4480.73595954" role="graphics-symbol" aria-roledescription="text mark" text-anchor="start" transform="translate(373.24683634295525,191.98160101144498)" font-family="Circular Std Book" font-size="12px" fill="#F4134D">Early years</text></g><g class="mark-text role-mark layer_12_marks" role="graphics-object" aria-roledescription="text mark container"><text aria-label="x: 2024; y2: 10500" role="graphics-symbol" aria-roledescription="text mark" text-anchor="start" transform="translate(380,30.5)" font-family="Circular Std Book" font-size="11px" fill="#676A86" opacity="0.7">projection</text></g></g><path class="foreground" aria-hidden="true" d="" display="none"/></g></g></g><defs><clipPath id="clip41"><rect x="0" y="0" width="400" height="300"/></clipPath></defs></svg>