<svg xmlns="http://www.w3.org/2000/svg" xmlns:xlink="http://www.w3.org/1999/xlink" version="1.1" class="marks" width="522" height="396" viewBox="0 0 522 396"><rect width="522" height="396" fill="#122B39"/><g fill="none" stroke-miterlimit="10" transform="translate(22,51)"><g class="mark-group role-frame root" role="graphics-object" aria-roledescription="group mark container"><g transform="translate(0,0)"><path class="background" aria-hidden="true" d="M0,0h400v300h-400Z"/><g><g class="mark-group role-axis" aria-hidden="true"><g transform="translate(0.5,300.5)"><path class="background" aria-hidden="true" d="M0,0h0v0h0Z" pointer-events="none"/><g><g class="mark-rule role-axis-grid" pointer-events="none"><line transform="translate(27,-300)" x2="0" y2="300" stroke="#b4c8d8" stroke-opacity="0.5" stroke-width="1" stroke-dasharray="1,5" opacity="1"/><line transform="translate(81,-300)" x2="0" y2="300" stroke="#b4c8d8" stroke-opacity="0.5" stroke-width="1" stroke-dasharray="1,5" opacity="1"/><line transform="translate(134,-300)" x2="0" y2="300" stroke="#b4c8d8" stroke-opacity="0.5" stroke-width="1" stroke-dasharray="1,5" opacity="1"/><line transform="translate(188,-300)" x2="0" y2="300" stroke="#b4c8d8" stroke-opacity="0.5" stroke-width="1" stroke-dasharray="1,5" opacity="1"/><line transform="translate(242,-300)" x2="0" y2="300" stroke="#b4c8d8" stroke-opacity="0.5" stroke-width="1" stroke-dasharray="1,5" opacity="1"/><line transform="translate(295,-300)" x2="0" y2="300" stroke="#b4c8d8" stroke-opacity="0.5" stroke-width="1" stroke-dasharray="1,5" opacity="1"/><line transform="translate(349,-300)" x2="0" y2="300" stroke="#b4c8d8" stroke-opacity="0.5" stroke-width="1" stroke-dasharray="1,5" opacity="1"/></g></g><path class="foreground" aria-hidden="true" d="" pointer-events="none" display="none"/></g></g><g class="mark-group role-axis" aria-hidden="true"><g transform="translate(0.5,0.5)"><path class="background" aria-hidden="true" d="M0,0h0v0h0Z" pointer-events="none"/><g><g class="mark-rule role-axis-grid" pointer-events="none"><line transform="translate(0,300)" x2="400" y2="0" stroke="#b4c8d8" stroke-opacity="0.5" stroke-width="1" stroke-dasharray="1,5" opacity="1"/><line transform="translate(0,270)" x2="400" y2="0" stroke="#b4c8d8" stroke-opacity="0.5" stroke-width="1" stroke-dasharray="1,5" opacity="1"/><line transform="translate(0,240)" x2="400" y2="0" stroke="#b4c8d8" stroke-opacity="0.5" stroke-width="1" stroke-dasharray="1,5" opacity="1"/><line transform="translate(0,210)" x2="400" y2="0" stroke="#b4c8d8" stroke-opacity="0.5" stroke-width="1" stroke-dasharray="1,5" opacity="1"/><line transform="translate(0,180)" x2="400" y2="0" stroke="#b4c8d8" stroke-opacity="0.5" stroke-width="1" stroke-dasharray="1,5" opacity="1"/><line transform="translate(0,150)" x2="400" y2="0" stroke="#b4c8d8" stroke-opacity="0.5" stroke-width="1" stroke-dasharray="1,5" opacity="1"/><line transform="translate(0,120)" x2="400" y2="0" stroke="#b4c8d8" stroke-opacity="0.5" stroke-width="1" stroke-dasharray="1,5" opacity="1"/><line transform="translate(0,90)" x2="400" y2="0" stroke="#b4c8d8" stroke-opacity="0.5" stroke-width="1" stroke-dasharray="1,5" opacity="1"/><line transform="translate(0,60)" x2="400" y2="0" stroke="#b4c8d8" stroke-opacity="0.5" stroke-width="1" stroke-dasharray="1,5" opacity="1"/><line transform="translate(0,30)" x2="400" y2="0" stroke="#b4c8d8" stroke-opacity="0.5" stroke-width="1" stroke-dasharray="1,5" opacity="1"/><line transform="translate(0,0)" x2="400" y2="0" stroke="#b4c8d8" stroke-opacity="0.5" stroke-width="1" stroke-dasharray="1,5" opacity="1"/></g></g><path class="foreground" aria-hidden="true" d="" pointer-events="none" display="none"/></g></g><g class="mark-group role-axis" role="graphics-symbol" aria-roledescription="axis" aria-label="X-axis for a linear scale with values from 1870 to 2019"><g transform="translate(0.5,300.5)"><path class="background" aria-hidden="true" d="M0,0h0v0h0Z" pointer-events="none"/><g><g class="mark-rule role-axis-tick" pointer-events="none"><line transform="translate(27,0)" x2="0" y2="5" stroke="#b4c8d8" stroke-opacity="0.5" stroke-width="1" opacity="1"/><line transform="translate(81,0)" x2="0" y2="5" stroke="#b4c8d8" stroke-opacity="0.5" stroke-width="1" opacity="1"/><line transform="translate(134,0)" x2="0" y2="5" stroke="#b4c8d8" stroke-opacity="0.5" stroke-width="1" opacity="1"/><line transform="translate(188,0)" x2="0" y2="5" stroke="#b4c8d8" stroke-opacity="0.5" stroke-width="1" opacity="1"/><line transform="translate(242,0)" x2="0" y2="5" stroke="#b4c8d8" stroke-opacity="0.5" stroke-width="1" opacity="1"/><line transform="translate(295,0)" x2="0" y2="5" stroke="#b4c8d8" stroke-opacity="0.5" stroke-width="1" opacity="1"/><line transform="translate(349,0)" x2="0" y2="5" stroke="#b4c8d8" stroke-opacity="0.5" stroke-width="1" opacity="1"/></g><g class="mark-text role-axis-label" pointer-events="none"><text text-anchor="middle" transform="translate(26.845637583892618,15)" font-family="Circular Std Book" font-size="10px" fill="#b4c8d8" fill-opacity="0.7" opacity="1">1880</text><text text-anchor="middle" transform="translate(80.53691275167785,15)" font-family="Circular Std Book" font-size="10px" fill="#b4c8d8" fill-opacity="0.7" opacity="1">1900</text><text text-anchor="middle" transform="translate(134.2281879194631,15)" font-family="Circular Std Book" font-size="10px" fill="#b4c8d8" fill-opacity="0.7" opacity="1">1920</text><text text-anchor="middle" transform="translate(187.91946308724832,15)" font-family="Circular Std Book" font-size="10px" fill="#b4c8d8" fill-opacity="0.7" opacity="1">1940</text><text text-anchor="middle" transform="translate(241.61073825503357,15)" font-family="Circular Std Book" font-size="10px" fill="#b4c8d8" fill-opacity="0.7" opacity="1">1960</text><text text-anchor="middle" transform="translate(295.3020134228188,15)" font-family="Circular Std Book" font-size="10px" fill="#b4c8d8" fill-opacity="0.7" opacity="1">1980</text><text text-anchor="middle" transform="translate(348.99328859060404,15)" font-family="Circular Std Book" font-size="10px" fill="#b4c8d8" fill-opacity="0.7" opacity="1">2000</text></g><g class="mark-rule role-axis-domain" pointer-events="none"><line transform="translate(0,0)" x2="400" y2="0" stroke="#b4c8d8" stroke-opacity="0.5" stroke-width="1" opacity="1"/></g></g><path class="foreground" aria-hidden="true" d="" pointer-events="none" display="none"/></g></g><g class="mark-group role-axis" role="graphics-symbol" aria-roledescription="axis" aria-label="Y-axis titled 'Hours worked per week' for a linear scale with values from 20 to 70"><g transform="translate(0.5,0.5)"><path class="background" aria-hidden="true" d="M0,0h0v0h0Z" pointer-events="none"/><g><g class="mark-text role-axis-label" pointer-events="none"><text text-anchor="end" transform="translate(-5,303)" font-family="Circular Std Book" font-size="10px" fill="#b4c8d8" fill-opacity="0.7" opacity="1">20</text><text text-anchor="end" transform="translate(-5,273)" font-family="Circular Std Book" font-size="10px" fill="#b4c8d8" fill-opacity="0.7" opacity="1">25</text><text text-anchor="end" transform="translate(-5,243)" font-family="Circular Std Book" font-size="10px" fill="#b4c8d8" fill-opacity="0.7" opacity="1">30</text><text text-anchor="end" transform="translate(-5,213)" font-family="Circular Std Book" font-size="10px" fill="#b4c8d8" fill-opacity="0.7" opacity="1">35</text><text text-anchor="end" transform="translate(-5,183)" font-family="Circular Std Book" font-size="10px" fill="#b4c8d8" fill-opacity="0.7" opacity="1">40</text><text text-anchor="end" transform="translate(-5,153)" font-family="Circular Std Book" font-size="10px" fill="#b4c8d8" fill-opacity="0.7" opacity="1">45</text><text text-anchor="end" transform="translate(-5,123)" font-family="Circular Std Book" font-size="10px" fill="#b4c8d8" fill-opacity="0.7" opacity="1">50</text><text text-anchor="end" transform="translate(-5,93.00000000000001)" font-family="Circular Std Book" font-size="10px" fill="#b4c8d8" fill-opacity="0.7" opacity="1">55</text><text text-anchor="end" transform="translate(-5,62.999999999999986)" font-family="Circular Std Book" font-size="10px" fill="#b4c8d8" fill-opacity="0.7" opacity="1">60</text><text text-anchor="end" transform="translate(-5,32.99999999999999)" font-family="Circular Std Book" font-size="10px" fill="#b4c8d8" fill-opacity="0.7" opacity="1">65</text><text text-anchor="end" transform="translate(-5,3)" font-family="Circular Std Book" font-size="10px" fill="#b4c8d8" fill-opacity="0.7" opacity="1">70</text></g><g class="mark-rule role-axis-domain" pointer-events="none"><line transform="translate(0,300)" x2="0" y2="-300" stroke="#b4c8d8" stroke-opacity="0.5" stroke-width="1" opacity="1"/></g><g class="mark-text role-axis-title" pointer-events="none"><text text-anchor="start" transform="translate(0,-10)" font-family="Circular Std Book" font-size="12px" font-weight="normal" fill="#b4c8d8" fill-opacity="0.8" opacity="1">Hours worked per week</text></g></g><path class="foreground" aria-hidden="true" d="" pointer-events="none" display="none"/></g></g><g class="mark-group role-scope layer_0_pathgroup" role="graphics-object" aria-roledescription="group mark container"><g transform="translate(0,0)"><path class="background" aria-hidden="true" d="M0,0h400v300h-400Z"/><g><g class="mark-line role-mark layer_0_marks" clip-path="url(#clip76)" role="graphics-object" aria-roledescription="line mark container"><path aria-label="year: 1870; value: 53.6923; key: Australia" role="graphics-symbol" aria-roledescription="line mark" d="M0,97.846C8.949,103.413,17.897,108.981,26.846,114.577C35.794,120.173,44.743,126.385,53.691,131.423C62.64,136.462,71.588,140.086,80.537,144.808C92.17,150.945,103.803,162.788,115.436,164.538C129.754,166.692,144.072,165.615,158.389,167.769C166.443,168.981,174.497,176.654,182.55,176.654C193.289,176.654,204.027,168.664,214.765,168.664C215.66,168.664,216.555,170.217,217.45,170.988C218.345,171.76,219.239,172.527,220.134,173.291C221.029,174.055,221.924,174.816,222.819,175.573C223.714,176.33,224.609,177.083,225.503,177.833C226.398,178.583,227.293,179.33,228.188,180.073C229.083,180.816,229.978,181.555,230.872,182.291C231.767,183.028,232.662,183.76,233.557,184.49C234.452,185.219,235.347,185.945,236.242,186.668C237.136,187.39,238.031,188.11,238.926,188.826C239.821,189.542,240.716,190.682,241.611,190.963C242.506,191.245,243.4,191.245,244.295,191.386C245.19,191.527,246.085,191.667,246.98,191.808C247.875,191.948,248.77,192.089,249.664,192.229C250.559,192.369,251.454,192.509,252.349,192.649C253.244,192.789,254.139,192.929,255.034,193.068C255.928,193.208,256.823,193.348,257.718,193.487C258.613,193.626,259.508,193.766,260.403,193.905C261.298,194.044,262.192,194.183,263.087,194.322C263.982,194.461,264.877,194.6,265.772,194.738C266.667,194.877,267.562,194.877,268.456,195.154C269.351,195.431,270.246,196.56,271.141,197.312C272.036,198.063,272.931,199.016,273.826,199.665C274.72,200.315,275.615,201.21,276.51,201.21C277.405,201.21,278.3,199.212,279.195,199.212C280.089,199.212,280.984,200.744,281.879,200.744C282.774,200.744,283.669,199.682,284.564,199.543C285.459,199.404,286.353,199.385,287.248,199.334C288.143,199.283,289.038,199.302,289.933,199.236C290.828,199.171,291.723,198.642,292.617,198.611C293.512,198.58,294.407,198.564,295.302,198.564C296.197,198.564,297.092,199.972,297.987,200.695C298.881,201.418,299.776,202.295,300.671,202.903C301.566,203.511,302.461,204.343,303.356,204.343C304.251,204.343,305.145,202.652,306.04,202.652C306.935,202.652,307.83,204.204,308.725,204.204C309.62,204.204,310.515,203,311.409,203C312.304,203,313.199,203.245,314.094,203.362C314.989,203.479,315.884,203.702,316.779,203.702C317.673,203.702,318.568,202.238,319.463,202.238C320.358,202.238,321.253,203.825,322.148,204.467C323.043,205.109,323.937,205.93,324.832,206.089C325.727,206.247,326.622,206.326,327.517,206.326C328.412,206.326,329.306,204.772,330.201,204.275C331.096,203.777,331.991,203.339,332.886,203.339C333.781,203.339,334.676,203.409,335.57,203.548C336.465,203.688,337.36,204.244,338.255,204.374C339.15,204.503,340.045,204.439,340.94,204.568C341.834,204.698,342.729,206.396,343.624,206.396C344.519,206.396,345.414,205.866,346.309,205.866C347.204,205.866,348.098,205.935,348.993,206.073C349.888,206.211,350.783,209.89,351.678,210.206C352.573,210.522,353.468,210.46,354.362,210.681C355.257,210.902,356.152,211.401,357.047,211.532C357.942,211.663,358.837,211.657,359.732,211.728C360.626,211.8,361.521,211.806,362.416,211.96C363.311,212.115,364.206,213.232,365.101,213.232C365.996,213.232,366.89,213.156,367.785,213.156C368.68,213.156,369.575,213.237,370.47,213.399C371.365,213.562,372.26,216.716,373.154,216.716C374.049,216.716,374.944,215.849,375.839,215.849C376.734,215.849,377.629,215.874,378.523,215.925C379.418,215.976,380.313,216.732,381.208,216.979C382.103,217.225,382.998,217.182,383.893,217.405C384.787,217.627,385.682,218.244,386.577,218.315C387.472,218.386,388.367,218.351,389.262,218.422C390.157,218.493,391.051,219.689,391.946,219.898C392.841,220.108,393.736,220.16,394.631,220.212" stroke="#b4c8d8" stroke-width="2" opacity="0.8"/></g></g><path class="foreground" aria-hidden="true" d="" display="none"/></g><g transform="translate(0,0)"><path class="background" aria-hidden="true" d="M0,0h400v300h-400Z"/><g><g class="mark-line role-mark layer_0_marks" clip-path="url(#clip77)" role="graphics-object" aria-roledescription="line mark container"><path aria-label="year: 1870; value: 66.9808; key: Belgium" role="graphics-symbol" aria-roledescription="line mark" d="M0,18.115C8.949,23.192,17.897,28.269,26.846,34.154C35.794,40.038,44.743,48.038,53.691,53.423C62.64,58.808,71.588,61.136,80.537,66.462C92.17,73.384,103.803,78.887,115.436,92.192C129.754,108.568,144.072,158.295,158.389,162.808C166.443,165.346,174.497,164.779,182.55,166.615C193.289,169.063,204.027,172.338,214.765,176.983C215.66,177.37,216.555,177.774,217.45,178.169C218.345,178.563,219.239,178.956,220.134,179.349C221.029,179.741,221.924,180.133,222.819,180.523C223.714,180.914,224.609,181.303,225.503,181.692C226.398,182.081,227.293,182.468,228.188,182.855C229.083,183.242,229.978,183.627,230.872,184.012C231.767,184.397,232.662,184.781,233.557,185.164C234.452,185.547,235.347,185.929,236.242,186.31C237.136,186.691,238.031,187.071,238.926,187.45C239.821,187.83,240.716,188.166,241.611,188.585C242.506,189.005,243.4,189.507,244.295,189.966C245.19,190.424,246.085,190.882,246.98,191.338C247.875,191.794,248.77,192.249,249.664,192.702C250.559,193.155,251.454,193.607,252.349,194.058C253.244,194.508,254.139,194.958,255.034,195.406C255.928,195.853,256.823,196.3,257.718,196.745C258.613,197.191,259.508,197.634,260.403,198.077C261.298,198.52,262.192,198.961,263.087,199.401C263.982,199.841,264.877,200.279,265.772,200.717C266.667,201.154,267.562,201.627,268.456,202.025C269.351,202.423,270.246,202.421,271.141,203.105C272.036,203.788,272.931,205.113,273.826,206.126C274.72,207.138,275.615,208.093,276.51,209.179C277.405,210.266,278.3,211.885,279.195,212.645C280.089,213.405,280.984,213.785,281.879,213.785C282.774,213.785,283.669,213.694,284.564,213.694C285.459,213.694,286.353,215.783,287.248,216.633C288.143,217.484,289.038,218.114,289.933,218.797C290.828,219.48,291.723,220.028,292.617,220.732C293.512,221.437,294.407,222.188,295.302,223.024C296.197,223.86,297.092,225.024,297.987,225.747C298.881,226.471,299.776,227.364,300.671,227.364C301.566,227.364,302.461,227.133,303.356,226.671C304.251,226.209,305.145,224.362,306.04,223.901C306.935,223.439,307.83,223.208,308.725,223.208C309.62,223.208,310.515,224.843,311.409,225.516C312.304,226.19,313.199,226.729,314.094,227.248C314.989,227.767,315.884,228.229,316.779,228.633C317.673,229.037,318.568,229.672,319.463,229.672C320.358,229.672,321.253,228.056,322.148,228.056C323.043,228.056,323.937,231.172,324.832,232.326C325.727,233.481,326.622,233.692,327.517,234.981C328.412,236.27,329.306,240.06,330.201,240.06C331.096,240.06,331.991,240.06,332.886,240.06C333.781,240.06,334.676,237.059,335.57,237.059C336.465,237.059,337.36,240.06,338.255,240.06C339.15,240.06,340.045,239.021,340.94,238.559C341.834,238.097,342.729,237.29,343.624,237.29C344.519,237.29,345.414,237.405,346.309,237.405C347.204,237.405,348.098,235.979,348.993,235.979C349.888,235.979,350.783,236.493,351.678,236.726C352.573,236.959,353.468,237.175,354.362,237.379C355.257,237.583,356.152,237.76,357.047,237.947C357.942,238.135,358.837,238.267,359.732,238.504C360.626,238.742,361.521,239.373,362.416,239.373C363.311,239.373,364.206,238.803,365.101,238.587C365.996,238.371,366.89,238.078,367.785,238.078C368.68,238.078,369.575,238.335,370.47,238.848C371.365,239.362,372.26,241.197,373.154,241.371C374.049,241.546,374.944,241.633,375.839,241.633C376.734,241.633,377.629,240.065,378.523,240.043C379.418,240.022,380.313,240.011,381.208,240.011C382.103,240.011,382.998,240.139,383.893,240.23C384.787,240.32,385.682,240.338,386.577,240.554C387.472,240.769,388.367,241.776,389.262,241.776C390.157,241.776,391.051,241.637,391.946,241.637C392.841,241.637,393.736,241.726,394.631,241.815" stroke="#0063AF" stroke-width="2" opacity="0.8"/></g></g><path class="foreground" aria-hidden="true" d="" display="none"/></g><g transform="translate(0,0)"><path class="background" aria-hidden="true" d="M0,0h400v300h-400Z"/><g><g class="mark-line role-mark layer_0_marks" clip-path="url(#clip78)" role="graphics-object" aria-roledescription="line mark container"><path aria-label="year: 1870; value: 54.7115; key: Canada" role="graphics-symbol" aria-roledescription="line mark" d="M0,91.731C8.949,88.25,17.897,84.769,26.846,81.462C35.794,78.154,44.743,75.115,53.691,71.885C62.64,68.654,71.588,62.077,80.537,62.077C92.17,62.077,103.803,76.911,115.436,89.077C129.754,104.05,144.072,135.054,158.389,148.385C166.443,155.883,174.497,164.61,182.55,164.769C193.289,164.982,204.027,164.876,214.765,165.088C215.66,165.106,216.555,166.3,217.45,166.825C218.345,167.35,219.239,168.129,220.134,168.238C221.029,168.346,221.924,168.292,222.819,168.401C223.714,168.509,224.609,168.817,225.503,169.315C226.398,169.812,227.293,170.803,228.188,171.386C229.083,171.969,229.978,172.205,230.872,172.814C231.767,173.423,232.662,174.374,233.557,175.041C234.452,175.707,235.347,176.569,236.242,176.814C237.136,177.058,238.031,176.936,238.926,177.181C239.821,177.425,240.716,178.024,241.611,178.753C242.506,179.483,243.4,181.447,244.295,181.558C245.19,181.67,246.085,181.614,246.98,181.726C247.875,181.837,248.77,182.921,249.664,183.42C250.559,183.919,251.454,184.158,252.349,184.718C253.244,185.279,254.139,185.937,255.034,186.783C255.928,187.629,256.823,189.11,257.718,189.795C258.613,190.479,259.508,190.246,260.403,190.893C261.298,191.539,262.192,192.846,263.087,193.676C263.982,194.505,264.877,195.168,265.772,195.869C266.667,196.571,267.562,197.299,268.456,197.885C269.351,198.471,270.246,198.981,271.141,199.385C272.036,199.788,272.931,200.038,273.826,200.308C274.72,200.577,275.615,200.75,276.51,201C277.405,201.25,278.3,201.308,279.195,201.808C280.089,202.308,280.984,203.442,281.879,204C282.774,204.558,283.669,204.423,284.564,205.154C285.459,205.885,286.353,208.385,287.248,208.385C288.143,208.385,289.038,208.288,289.933,208.154C290.828,208.019,291.723,207.577,292.617,207.577C293.512,207.577,294.407,208.635,295.302,209.192C296.197,209.75,297.092,210.192,297.987,210.923C298.881,211.654,299.776,212.942,300.671,213.577C301.566,214.212,302.461,214.731,303.356,214.731C304.251,214.731,305.145,213.885,306.04,213.577C306.935,213.269,307.83,213.038,308.725,212.885C309.62,212.731,310.515,212.808,311.409,212.654C312.304,212.5,313.199,211.577,314.094,211.5C314.989,211.423,315.884,211.385,316.779,211.385C317.673,211.385,318.568,211.865,319.463,212.077C320.358,212.288,321.253,212.269,322.148,212.654C323.043,213.038,323.937,214.962,324.832,215.192C325.727,215.423,326.622,215.423,327.517,215.538C328.412,215.654,329.306,215.885,330.201,215.885C331.096,215.885,331.991,214.846,332.886,214.846C333.781,214.846,334.676,215.192,335.57,215.192C336.465,215.192,337.36,213.462,338.255,213.462C339.15,213.462,340.045,213.852,340.94,214.004C341.834,214.155,342.729,214.363,343.624,214.37C344.519,214.378,345.414,214.374,346.309,214.382C347.204,214.39,348.098,214.565,348.993,214.775C349.888,214.986,350.783,215.163,351.678,215.644C352.573,216.126,353.468,217.182,354.362,217.664C355.257,218.146,356.152,218.536,357.047,218.536C357.942,218.536,358.837,217.029,359.732,217.029C360.626,217.029,361.521,218.338,362.416,218.469C363.311,218.601,364.206,218.564,365.101,218.666C365.996,218.769,366.89,218.891,367.785,219.085C368.68,219.279,369.575,219.333,370.47,219.829C371.365,220.325,372.26,223.724,373.154,223.724C374.049,223.724,374.944,223.497,375.839,223.497C376.734,223.497,377.629,223.891,378.523,223.891C379.418,223.891,380.313,222.399,381.208,222.399C382.103,222.399,382.998,222.82,383.893,222.991C384.787,223.162,385.682,223.425,386.577,223.425C387.472,223.425,388.367,223.03,389.262,223.03C390.157,223.03,391.051,223.3,391.946,223.504C392.841,223.708,393.736,223.981,394.631,224.254" stroke-width="2" opacity="0.8"/></g></g><path class="foreground" aria-hidden="true" d="" display="none"/></g><g transform="translate(0,0)"><path class="background" aria-hidden="true" d="M0,0h400v300h-400Z"/><g><g class="mark-line role-mark layer_0_marks" clip-path="url(#clip79)" role="graphics-object" aria-roledescription="line mark container"><path aria-label="year: 1951; value: 51.4963; key: Chile" role="graphics-symbol" aria-roledescription="line mark" d="M217.45,111.022C218.345,111.9,219.239,112.777,220.134,113.649C221.029,114.521,221.924,115.389,222.819,116.253C223.714,117.117,224.609,117.978,225.503,118.835C226.398,119.692,227.293,120.545,228.188,121.395C229.083,122.245,229.978,123.091,230.872,123.933C231.767,124.776,232.662,125.615,233.557,126.45C234.452,127.285,235.347,128.117,236.242,128.945C237.136,129.774,238.031,130.598,238.926,131.419C239.821,132.241,240.716,133.299,241.611,133.873C242.506,134.446,243.4,134.531,244.295,134.86C245.19,135.188,246.085,135.516,246.98,135.844C247.875,136.171,248.77,136.498,249.664,136.824C250.559,137.15,251.454,137.476,252.349,137.801C253.244,138.126,254.139,138.451,255.034,138.775C255.928,139.099,256.823,139.422,257.718,139.745C258.613,140.068,259.508,140.39,260.403,140.712C261.298,141.034,262.192,141.355,263.087,141.676C263.982,141.997,264.877,142.317,265.772,142.636C266.667,142.956,267.562,143.379,268.456,143.593C269.351,143.808,270.246,143.813,271.141,143.922C272.036,144.032,272.931,144.142,273.826,144.251C274.72,144.361,275.615,144.468,276.51,144.579C277.405,144.691,278.3,144.808,279.195,144.923C280.089,145.037,280.984,145.152,281.879,145.266C282.774,145.38,283.669,145.494,284.564,145.608C285.459,145.723,286.353,145.837,287.248,145.951C288.143,146.065,289.038,146.178,289.933,146.292C290.828,146.406,291.723,146.52,292.617,146.634C293.512,146.747,294.407,146.974,295.302,146.974C296.197,146.974,297.092,146.551,297.987,146.339C298.881,146.126,299.776,145.914,300.671,145.701C301.566,145.489,302.461,145.276,303.356,145.062C304.251,144.849,305.145,144.636,306.04,144.422C306.935,144.209,307.83,143.995,308.725,143.78C309.62,143.566,310.515,143.352,311.409,143.137C312.304,142.922,313.199,142.708,314.094,142.492C314.989,142.277,315.884,142.062,316.779,141.846C317.673,141.63,318.568,141.424,319.463,141.198C320.358,140.973,321.253,140.494,322.148,140.494C323.043,140.494,323.937,140.762,324.832,140.896C325.727,141.029,326.622,141.029,327.517,141.297C328.412,141.565,329.306,143.304,330.201,144.3C331.096,145.295,331.991,146.286,332.886,147.27C333.781,148.255,334.676,149.234,335.57,150.209C336.465,151.183,337.36,151.535,338.255,153.115C339.15,154.696,340.045,159.692,340.94,159.692C341.834,159.692,342.729,154.731,343.624,154.731C344.519,154.731,345.414,156.577,346.309,157.269C347.204,157.962,348.098,158.212,348.993,158.885C349.888,159.558,350.783,161.308,351.678,161.308C352.573,161.308,353.468,160.385,354.362,160.385C355.257,160.385,356.152,161.885,357.047,162.115C357.942,162.346,358.837,162.231,359.732,162.462C360.626,162.692,361.521,171.115,362.416,171.115C363.311,171.115,364.206,170.192,365.101,170.192C365.996,170.192,366.89,173.115,367.785,174.462C368.68,175.808,369.575,177.231,370.47,178.269C371.365,179.308,372.26,180.385,373.154,180.692C374.049,181,374.944,180.846,375.839,181.154C376.734,181.462,377.629,182.923,378.523,183.808C379.418,184.692,380.313,185.846,381.208,186.462C382.103,187.077,382.998,186.846,383.893,187.5C384.787,188.154,385.682,190.231,386.577,190.385C387.472,190.538,388.367,190.462,389.262,190.615C390.157,190.769,391.051,192.231,391.946,192.231C392.841,192.231,393.736,192.231,394.631,192.231" stroke="#EB5C2E" stroke-width="2" opacity="0.8"/></g></g><path class="foreground" aria-hidden="true" d="" display="none"/></g><g transform="translate(0,0)"><path class="background" aria-hidden="true" d="M0,0h400v300h-400Z"/><g><g class="mark-line role-mark layer_0_marks" clip-path="url(#clip80)" role="graphics-object" aria-roledescription="line mark container"><path aria-label="year: 1870; value: 60.9231; key: France" role="graphics-symbol" aria-roledescription="line mark" d="M0,54.462C8.949,54.519,17.897,54.577,26.846,54.808C35.794,55.038,44.743,59.808,53.691,60.115C62.64,60.423,71.588,60.269,80.537,60.577C92.17,60.977,103.803,67.577,115.436,81.577C129.754,98.808,144.072,137.041,158.389,166.385C166.443,182.891,174.497,216.923,182.55,216.923C193.289,216.923,204.027,177.241,214.765,166.925C215.66,166.065,216.555,164.478,217.45,164.478C218.345,164.478,219.239,165.723,220.134,166.406C221.029,167.089,221.924,168.577,222.819,168.577C223.714,168.577,224.609,166.882,225.503,166.882C226.398,166.882,227.293,167.446,228.188,168.575C229.083,169.704,229.978,172.793,230.872,174.174C231.767,175.556,232.662,176.211,233.557,176.865C234.452,177.519,235.347,178.098,236.242,178.098C237.136,178.098,238.031,177.96,238.926,177.682C239.821,177.405,240.716,176.353,241.611,176.353C242.506,176.353,243.4,178.617,244.295,178.617C245.19,178.617,246.085,176.827,246.98,176.827C247.875,176.827,248.77,178.416,249.664,178.416C250.559,178.416,251.454,177.259,252.349,177.259C253.244,177.259,254.139,178.184,255.034,178.504C255.928,178.824,256.823,178.729,257.718,179.18C258.613,179.631,259.508,181.776,260.403,182.792C261.298,183.808,262.192,183.62,263.087,185.277C263.982,186.933,264.877,192.086,265.772,193.333C266.667,194.581,267.562,195.172,268.456,195.204C269.351,195.236,270.246,195.22,271.141,195.252C272.036,195.284,272.931,199.941,273.826,200.99C274.72,202.038,275.615,201.729,276.51,202.562C277.405,203.396,278.3,204.946,279.195,205.99C280.089,207.035,280.984,208.828,281.879,208.828C282.774,208.828,283.669,205.751,284.564,205.751C285.459,205.751,286.353,208.721,287.248,210.011C288.143,211.301,289.038,213.281,289.933,213.49C290.828,213.7,291.723,213.596,292.617,213.805C293.512,214.015,294.407,214.219,295.302,214.746C296.197,215.273,297.092,215.486,297.987,216.967C298.881,218.448,299.776,223.919,300.671,225.24C301.566,226.561,302.461,226.78,303.356,227.222C304.251,227.663,305.145,227.444,306.04,227.89C306.935,228.335,307.83,231.586,308.725,231.873C309.62,232.159,310.515,232.302,311.409,232.302C312.304,232.302,313.199,231.298,314.094,230.885C314.989,230.471,315.884,229.82,316.779,229.82C317.673,229.82,318.568,231.145,319.463,231.498C320.358,231.851,321.253,231.815,322.148,232.027C323.043,232.24,323.937,232.693,324.832,232.775C325.727,232.856,326.622,232.815,327.517,232.896C328.412,232.977,329.306,233.573,330.201,233.76C331.096,233.947,331.991,233.854,332.886,234.041C333.781,234.228,334.676,236.184,335.57,236.46C336.465,236.735,337.36,236.774,338.255,236.873C339.15,236.973,340.045,236.935,340.94,237.057C341.834,237.18,342.729,237.876,343.624,238.185C344.519,238.494,345.414,238.427,346.309,238.911C347.204,239.396,348.098,240.408,348.993,241.158C349.888,241.907,350.783,242.396,351.678,243.408C352.573,244.42,353.468,247.23,354.362,247.23C355.257,247.23,356.152,247.047,357.047,246.681C357.942,246.315,358.837,244.029,359.732,243.923C360.626,243.818,361.521,243.765,362.416,243.765C363.311,243.765,364.206,245.699,365.101,245.699C365.996,245.699,366.89,243.983,367.785,243.461C368.68,242.939,369.575,242.566,370.47,242.566C371.365,242.566,372.26,244.468,373.154,244.468C374.049,244.468,374.944,243.954,375.839,243.698C376.734,243.442,377.629,242.93,378.523,242.93C379.418,242.93,380.313,243.191,381.208,243.589C382.103,243.988,382.998,244.946,383.893,245.322C384.787,245.698,385.682,245.886,386.577,245.886C387.472,245.886,388.367,245.837,389.262,245.837C390.157,245.837,391.051,246.608,391.946,246.608C392.841,246.608,393.736,245.95,394.631,245.292" stroke="#36B7B4" stroke-width="2" opacity="0.8"/></g></g><path class="foreground" aria-hidden="true" d="" display="none"/></g><g transform="translate(0,0)"><path class="background" aria-hidden="true" d="M0,0h400v300h-400Z"/><g><g class="mark-line role-mark layer_0_marks" clip-path="url(#clip81)" role="graphics-object" aria-roledescription="line mark container"><path aria-label="year: 1870; value: 63.1538; key: Germany" role="graphics-symbol" aria-roledescription="line mark" d="M0,41.077C8.949,42.904,17.897,44.731,26.846,48.115C35.794,51.5,44.743,58.173,53.691,61.385C62.64,64.596,71.588,63.385,80.537,67.385C92.17,72.585,103.803,90.406,115.436,105.808C129.754,124.763,144.072,174.462,158.389,174.462C166.443,174.462,174.497,171.923,182.55,167.654C193.289,161.962,204.027,139.912,214.765,139.912C215.66,139.912,216.555,141.905,217.45,142.893C218.345,143.881,219.239,144.864,220.134,145.842C221.029,146.82,221.924,147.792,222.819,148.76C223.714,149.727,224.609,150.689,225.503,151.646C226.398,152.603,227.293,153.555,228.188,154.502C229.083,155.449,229.978,156.391,230.872,157.328C231.767,158.264,232.662,159.196,233.557,160.123C234.452,161.05,235.347,161.972,236.242,162.889C237.136,163.806,238.031,164.718,238.926,165.625C239.821,166.532,240.716,167.369,241.611,168.332C242.506,169.295,243.4,170.178,244.295,171.403C245.19,172.629,246.085,174.385,246.98,175.684C247.875,176.984,248.77,179.198,249.664,179.198C250.559,179.198,251.454,177.872,252.349,177.872C253.244,177.872,254.139,178.732,255.034,179.512C255.928,180.291,256.823,181.317,257.718,182.548C258.613,183.779,259.508,185.937,260.403,186.899C261.298,187.861,262.192,187.721,263.087,188.342C263.982,188.962,264.877,189.945,265.772,190.622C266.667,191.299,267.562,191.491,268.456,192.402C269.351,193.313,270.246,194.992,271.141,196.09C272.036,197.187,272.931,197.916,273.826,198.986C274.72,200.057,275.615,201.284,276.51,202.511C277.405,203.739,278.3,204.947,279.195,206.35C280.089,207.754,280.984,210.934,281.879,210.934C282.774,210.934,283.669,209.503,284.564,209.503C285.459,209.503,286.353,210.872,287.248,211.586C288.143,212.3,289.038,213.187,289.933,213.785C290.828,214.383,291.723,214.576,292.617,215.173C293.512,215.771,294.407,216.581,295.302,217.372C296.197,218.163,297.092,219.282,297.987,219.918C298.881,220.554,299.776,220.728,300.671,221.191C301.566,221.654,302.461,222.232,303.356,222.695C304.251,223.158,305.145,223.312,306.04,223.968C306.935,224.624,307.83,225.82,308.725,226.63C309.62,227.44,310.515,228.018,311.409,228.829C312.304,229.639,313.199,231.104,314.094,231.49C314.989,231.876,315.884,231.683,316.779,232.069C317.673,232.454,318.568,233.843,319.463,234.73C320.358,235.618,321.253,236.389,322.148,237.392C323.043,238.395,323.937,240.748,324.832,240.748C325.727,240.748,326.622,239.456,327.517,239.456C328.412,239.456,329.306,241.793,330.201,242.126C331.096,242.459,331.991,242.363,332.886,242.625C333.781,242.886,334.676,243.18,335.57,243.695C336.465,244.209,337.36,245.167,338.255,245.712C339.15,246.257,340.045,246.639,340.94,246.964C341.834,247.289,342.729,247.261,343.624,247.664C344.519,248.066,345.414,248.579,346.309,249.378C347.204,250.178,348.098,251.752,348.993,252.46C349.888,253.168,350.783,253.219,351.678,253.626C352.573,254.033,353.468,254.571,354.362,254.901C355.257,255.231,356.152,255.44,357.047,255.606C357.942,255.772,358.837,255.703,359.732,255.897C360.626,256.091,361.521,257.16,362.416,257.16C363.311,257.16,364.206,255.614,365.101,255.614C365.996,255.614,366.89,255.627,367.785,255.652C368.68,255.677,369.575,255.881,370.47,256.339C371.365,256.797,372.26,261.61,373.154,261.61C374.049,261.61,374.944,259.854,375.839,259.629C376.734,259.403,377.629,259.291,378.523,259.291C379.418,259.291,380.313,260.764,381.208,261.343C382.103,261.922,382.998,262.766,383.893,262.766C384.787,262.766,385.682,262.339,386.577,262.26C387.472,262.181,388.367,262.142,389.262,262.142C390.157,262.142,391.051,262.967,391.946,263.24C392.841,263.513,393.736,263.648,394.631,263.782" stroke="#aaa" stroke-width="2" opacity="0.8"/></g></g><path class="foreground" aria-hidden="true" d="" display="none"/></g><g transform="translate(0,0)"><path class="background" aria-hidden="true" d="M0,0h400v300h-400Z"/><g><g class="mark-line role-mark layer_0_marks" clip-path="url(#clip82)" role="graphics-object" aria-roledescription="line mark container"><path aria-label="year: 1960; value: 52.3532; key: Hong Kong" role="graphics-symbol" aria-roledescription="line mark" d="M241.611,105.881C242.506,106.663,243.4,107.446,244.295,108.224C245.19,109.002,246.085,109.777,246.98,110.549C247.875,111.322,248.77,112.091,249.664,112.857C250.559,113.624,251.454,114.387,252.349,115.148C253.244,115.909,254.139,116.667,255.034,117.422C255.928,118.177,256.823,118.929,257.718,119.679C258.613,120.428,259.508,121.175,260.403,121.919C261.298,122.663,262.192,123.404,263.087,124.142C263.982,124.881,264.877,125.616,265.772,126.349C266.667,127.082,267.562,128.539,268.456,128.539C269.351,128.539,270.246,128.417,271.141,128.417C272.036,128.417,272.931,128.532,273.826,128.593C274.72,128.654,275.615,128.717,276.51,128.784C277.405,128.85,278.3,128.921,279.195,128.991C280.089,129.062,280.984,129.13,281.879,129.207C282.774,129.284,283.669,129.29,284.564,129.456C285.459,129.621,286.353,130.207,287.248,130.576C288.143,130.945,289.038,131.324,289.933,131.669C290.828,132.014,291.723,132.273,292.617,132.647C293.512,133.022,294.407,133.451,295.302,133.917C296.197,134.383,297.092,134.717,297.987,135.444C298.881,136.17,299.776,137.211,300.671,138.277C301.566,139.343,302.461,140.688,303.356,141.839C304.251,142.989,305.145,144.13,306.04,145.181C306.935,146.232,307.83,148.144,308.725,148.144C309.62,148.144,310.515,147.664,311.409,147.664C312.304,147.664,313.199,151.811,314.094,151.811C314.989,151.811,315.884,146.257,316.779,146.257C317.673,146.257,318.568,151.19,319.463,152.996C320.358,154.802,321.253,157.094,322.148,157.094C323.043,157.094,323.937,153.473,324.832,153.473C325.727,153.473,326.622,163.365,327.517,163.365C328.412,163.365,329.306,156.31,330.201,156.005C331.096,155.699,331.991,155.547,332.886,155.547C333.781,155.547,334.676,159.825,335.57,159.825C336.465,159.825,337.36,154.123,338.255,154.123C339.15,154.123,340.045,159.483,340.94,159.483C341.834,159.483,342.729,159.432,343.624,159.329C344.519,159.225,345.414,155.768,346.309,154.393C347.204,153.018,348.098,151.077,348.993,151.077C349.888,151.077,350.783,151.574,351.678,151.574C352.573,151.574,353.468,149.604,354.362,149.604C355.257,149.604,356.152,151.05,357.047,151.05C357.942,151.05,358.837,148.341,359.732,148.341C360.626,148.341,361.521,148.649,362.416,149.263C363.311,149.878,364.206,152.828,365.101,152.828C365.996,152.828,366.89,151.41,367.785,151.41C368.68,151.41,369.575,155.809,370.47,157.267C371.365,158.724,372.26,160.154,373.154,160.154C374.049,160.154,374.944,154.375,375.839,154.375C376.734,154.375,377.629,158.326,378.523,159.604C379.418,160.883,380.313,161.444,381.208,162.047C382.103,162.65,382.998,162.438,383.893,163.221C384.787,164.005,385.682,169.01,386.577,169.01C387.472,169.01,388.367,167.818,389.262,167.818C390.157,167.818,391.051,167.818,391.946,167.818C392.841,167.818,393.736,167.818,394.631,167.818" stroke="#F4C245" stroke-width="2" opacity="0.8"/></g></g><path class="foreground" aria-hidden="true" d="" display="none"/></g><g transform="translate(0,0)"><path class="background" aria-hidden="true" d="M0,0h400v300h-400Z"/><g><g class="mark-line role-mark layer_0_marks" clip-path="url(#clip83)" role="graphics-object" aria-roledescription="line mark container"><path aria-label="year: 1870; value: 59.7692; key: Ireland" role="graphics-symbol" aria-roledescription="line mark" d="M0,61.385C8.949,64.337,17.897,67.288,26.846,71.885C35.794,76.481,44.743,84.692,53.691,88.962C62.64,93.231,71.588,94.541,80.537,97.5C92.17,101.347,103.803,101.538,115.436,109.615C129.754,119.556,144.072,166.726,158.389,168.231C166.443,169.077,174.497,169.5,182.55,169.5C193.289,169.5,204.027,140.837,214.765,140.837C215.66,140.837,216.555,141.749,217.45,142.203C218.345,142.657,219.239,143.11,220.134,143.562C221.029,144.014,221.924,144.465,222.819,144.914C223.714,145.364,224.609,145.813,225.503,146.26C226.398,146.708,227.293,147.154,228.188,147.599C229.083,148.045,229.978,148.489,230.872,148.932C231.767,149.375,232.662,149.817,233.557,150.258C234.452,150.699,235.347,151.139,236.242,151.578C237.136,152.016,238.031,152.454,238.926,152.891C239.821,153.327,240.716,154.197,241.611,154.197C242.506,154.197,243.4,153.967,244.295,153.852C245.19,153.737,246.085,153.622,246.98,153.506C247.875,153.391,248.77,153.275,249.664,153.16C250.559,153.044,251.454,152.929,252.349,152.813C253.244,152.697,254.139,152.582,255.034,152.466C255.928,152.35,256.823,152.234,257.718,152.118C258.613,152.002,259.508,151.886,260.403,151.77C261.298,151.654,262.192,151.538,263.087,151.421C263.982,151.305,264.877,151.189,265.772,151.072C266.667,150.956,267.562,150.723,268.456,150.723C269.351,150.723,270.246,151.97,271.141,152.685C272.036,153.399,272.931,154.38,273.826,155.009C274.72,155.638,275.615,155.517,276.51,156.458C277.405,157.399,278.3,159.889,279.195,160.654C280.089,161.418,280.984,161.504,281.879,161.801C282.774,162.097,283.669,162.012,284.564,162.434C285.459,162.857,286.353,164.9,287.248,165.845C288.143,166.791,289.038,167.314,289.933,168.109C290.828,168.904,291.723,169.442,292.617,170.615C293.512,171.787,294.407,173.784,295.302,175.142C296.197,176.501,297.092,178.201,297.987,178.764C298.881,179.328,299.776,179.273,300.671,179.61C301.566,179.947,302.461,180.243,303.356,180.787C304.251,181.33,305.145,182.87,306.04,182.87C306.935,182.87,307.83,182.598,308.725,182.055C309.62,181.511,310.515,178.07,311.409,178.07C312.304,178.07,313.199,180.455,314.094,180.455C314.989,180.455,315.884,179.791,316.779,179.489C317.673,179.187,318.568,178.644,319.463,178.644C320.358,178.644,321.253,179.086,322.148,179.972C323.043,180.857,323.937,182.412,324.832,184.017C325.727,185.621,326.622,188.157,327.517,189.601C328.412,191.045,329.306,192.68,330.201,192.68C331.096,192.68,331.991,192.649,332.886,192.649C333.781,192.649,334.676,193.293,335.57,193.615C336.465,193.938,337.36,194.585,338.255,194.585C339.15,194.585,340.045,194.516,340.94,194.516C341.834,194.516,342.729,194.555,343.624,194.631C344.519,194.708,345.414,195.543,346.309,195.937C347.204,196.33,348.098,196.64,348.993,196.993C349.888,197.346,350.783,197.507,351.678,198.054C352.573,198.601,353.468,199.569,354.362,200.276C355.257,200.982,356.152,201.736,357.047,202.294C357.942,202.852,358.837,203.624,359.732,203.624C360.626,203.624,361.521,202.708,362.416,202.708C363.311,202.708,364.206,202.877,365.101,203.214C365.996,203.551,366.89,204.144,367.785,204.816C368.68,205.487,369.575,206.221,370.47,207.243C371.365,208.264,372.26,210.136,373.154,210.946C374.049,211.755,374.944,211.351,375.839,212.16C376.734,212.97,377.629,223.595,378.523,223.595C379.418,223.595,380.313,223.315,381.208,222.981C382.103,222.647,382.998,222.042,383.893,221.589C384.787,221.136,385.682,220.667,386.577,220.264C387.472,219.861,388.367,219.17,389.262,219.17C390.157,219.17,391.051,219.377,391.946,219.377C392.841,219.377,393.736,218.976,394.631,218.575" stroke="#F4134D" stroke-width="2" opacity="0.8"/></g></g><path class="foreground" aria-hidden="true" d="" display="none"/></g><g transform="translate(0,0)"><path class="background" aria-hidden="true" d="M0,0h400v300h-400Z"/><g><g class="mark-line role-mark layer_0_marks" clip-path="url(#clip84)" role="graphics-object" aria-roledescription="line mark container"><path aria-label="year: 1950; value: 39.0464; key: Japan" role="graphics-symbol" aria-roledescription="line mark" d="M214.765,185.721C215.66,186.393,216.555,187.065,217.45,187.732C218.345,188.399,219.239,189.063,220.134,189.725C221.029,190.386,221.924,191.701,222.819,191.701C223.714,191.701,224.609,189.274,225.503,188.199C226.398,187.123,227.293,186.71,228.188,185.248C229.083,183.786,229.978,180.841,230.872,179.427C231.767,178.013,232.662,177.691,233.557,176.764C234.452,175.838,235.347,174.795,236.242,173.868C237.136,172.941,238.031,171.967,238.926,171.203C239.821,170.438,240.716,169.467,241.611,169.281C242.506,169.095,243.4,169.002,244.295,169.002C245.19,169.002,246.085,171.121,246.98,171.612C247.875,172.102,248.77,172.347,249.664,172.347C250.559,172.347,251.454,171.516,252.349,171.516C253.244,171.516,254.139,173.64,255.034,173.64C255.928,173.64,256.823,173.149,257.718,172.737C258.613,172.324,259.508,171.455,260.403,171.165C261.298,170.875,262.192,170.73,263.087,170.73C263.982,170.73,264.877,171.823,265.772,172.268C266.667,172.713,267.562,173.057,268.456,173.398C269.351,173.739,270.246,174.312,271.141,174.312C272.036,174.312,272.931,174.039,273.826,174.039C274.72,174.039,275.615,174.582,276.51,175.668C277.405,176.754,278.3,180.777,279.195,182.456C280.089,184.134,280.984,185.739,281.879,185.739C282.774,185.739,283.669,183.097,284.564,182.596C285.459,182.096,286.353,182.047,287.248,181.845C288.143,181.644,289.038,181.553,289.933,181.386C290.828,181.219,291.723,180.937,292.617,180.842C293.512,180.747,294.407,180.699,295.302,180.699C296.197,180.699,297.092,181.273,297.987,181.289C298.881,181.305,299.776,181.313,300.671,181.313C301.566,181.313,302.461,180.99,303.356,180.593C304.251,180.196,305.145,178.929,306.04,178.929C306.935,178.929,307.83,180.373,308.725,180.373C309.62,180.373,310.515,180.307,311.409,180.174C312.304,180.041,313.199,179.542,314.094,179.542C314.989,179.542,315.884,179.678,316.779,179.949C317.673,180.221,318.568,181.15,319.463,182.151C320.358,183.151,321.253,184.978,322.148,185.952C323.043,186.925,323.937,186.717,324.832,187.991C325.727,189.266,326.622,191.986,327.517,193.6C328.412,195.215,329.306,196.66,330.201,197.68C331.096,198.699,331.991,199.719,332.886,199.719C333.781,199.719,334.676,199.54,335.57,199.431C336.465,199.321,337.36,199.062,338.255,199.062C339.15,199.062,340.045,201.329,340.94,202.258C341.834,203.187,342.729,203.938,343.624,204.635C344.519,205.331,345.414,206.435,346.309,206.435C347.204,206.435,348.098,205.558,348.993,205.558C349.888,205.558,350.783,206.798,351.678,207.335C352.573,207.871,353.468,208.777,354.362,208.777C355.257,208.777,356.152,208.571,357.047,208.362C357.942,208.152,358.837,207.519,359.732,207.519C360.626,207.519,361.521,209.1,362.416,209.1C363.311,209.1,364.206,208.154,365.101,208.154C365.996,208.154,366.89,208.698,367.785,209.25C368.68,209.802,369.575,210.133,370.47,211.465C371.365,212.798,372.26,217.246,373.154,217.246C374.049,217.246,374.944,214.869,375.839,214.869C376.734,214.869,377.629,215.458,378.523,215.458C379.418,215.458,380.313,214.281,381.208,214.281C382.103,214.281,382.998,216.365,383.893,216.75C384.787,217.135,385.682,217.123,386.577,217.327C387.472,217.531,388.367,217.694,389.262,217.973C390.157,218.252,391.051,218.759,391.946,219C392.841,219.241,393.736,219.33,394.631,219.42" stroke-width="2" opacity="0.8"/></g></g><path class="foreground" aria-hidden="true" d="" display="none"/></g><g transform="translate(0,0)"><path class="background" aria-hidden="true" d="M0,0h400v300h-400Z"/><g><g class="mark-line role-mark layer_0_marks" clip-path="url(#clip85)" role="graphics-object" aria-roledescription="line mark container"><path aria-label="year: 1953; value: 44.3182; key: South Korea" role="graphics-symbol" aria-roledescription="line mark" d="M222.819,154.091C223.714,153.3,224.609,152.51,225.503,151.714C226.398,150.918,227.293,150.119,228.188,149.316C229.083,148.513,229.978,147.706,230.872,146.896C231.767,146.086,232.662,145.272,233.557,144.455C234.452,143.638,235.347,142.817,236.242,141.992C237.136,141.167,238.031,140.339,238.926,139.507C239.821,138.675,240.716,137.839,241.611,137C242.506,136.16,243.4,135.317,244.295,134.47C245.19,133.623,246.085,132.772,246.98,131.918C247.875,131.063,248.77,129.343,249.664,129.343C250.559,129.343,251.454,138.521,252.349,138.521C253.244,138.521,254.139,126.283,255.034,126.283C255.928,126.283,256.823,128.119,257.718,128.119C258.613,128.119,259.508,125.977,260.403,124.447C261.298,122.918,262.192,120.98,263.087,118.94C263.982,116.901,264.877,112.209,265.772,112.209C266.667,112.209,267.562,124.447,268.456,124.447C269.351,124.447,270.246,119.552,271.141,117.105C272.036,114.657,272.931,111.903,273.826,109.762C274.72,107.62,275.615,106.192,276.51,104.254C277.405,102.317,278.3,99.563,279.195,98.135C280.089,96.708,280.984,97.319,281.879,95.688C282.774,94.056,283.669,85.897,284.564,85.897C285.459,85.897,286.353,89.569,287.248,89.569C288.143,89.569,289.038,85.897,289.933,85.897C290.828,85.897,291.723,87.121,292.617,87.733C293.512,88.345,294.407,89.569,295.302,89.569C296.197,89.569,297.092,88.28,297.987,87.723C298.881,87.165,299.776,86.819,300.671,86.223C301.566,85.627,302.461,84.146,303.356,84.146C304.251,84.146,305.145,84.3,306.04,84.607C306.935,84.915,307.83,87.492,308.725,87.492C309.62,87.492,310.515,84.146,311.409,84.146C312.304,84.146,313.199,86.242,314.094,87.723C314.989,89.203,315.884,90.165,316.779,93.03C317.673,95.895,318.568,101.894,319.463,104.913C320.358,107.932,321.253,109.913,322.148,111.144C323.043,112.374,323.937,112.259,324.832,112.989C325.727,113.72,326.622,115.528,327.517,115.528C328.412,115.528,329.306,113.578,330.201,113.578C331.096,113.578,331.991,115.368,332.886,115.368C333.781,115.368,334.676,114.55,335.57,114.55C336.465,114.55,337.36,114.96,338.255,115.781C339.15,116.602,340.045,119.31,340.94,122.208C341.834,125.106,342.729,133.169,343.624,133.169C344.519,133.169,345.414,132.901,346.309,132.451C347.204,132.001,348.098,130.467,348.993,130.467C349.888,130.467,350.783,130.981,351.678,132.009C352.573,133.037,353.468,135.355,354.362,136.744C355.257,138.134,356.152,139.13,357.047,140.348C357.942,141.567,358.837,142.663,359.732,144.054C360.626,145.445,361.521,148.278,362.416,148.694C363.311,149.11,364.206,148.902,365.101,149.318C365.996,149.733,366.89,151.342,367.785,153.9C368.68,156.458,369.575,162.007,370.47,164.664C371.365,167.321,372.26,168.995,373.154,169.84C374.049,170.685,374.944,170.321,375.839,171.108C376.734,171.895,377.629,173.525,378.523,174.56C379.418,175.595,380.313,176.687,381.208,177.32C382.103,177.953,382.998,177.706,383.893,178.358C384.787,179.01,385.682,181.233,386.577,181.233C387.472,181.233,388.367,180.427,389.262,180.427C390.157,180.427,391.051,181.923,391.946,181.923C392.841,181.923,393.736,181.923,394.631,181.923" stroke="#00A767" stroke-width="2" opacity="0.8"/></g></g><path class="foreground" aria-hidden="true" d="" display="none"/></g><g transform="translate(0,0)"><path class="background" aria-hidden="true" d="M0,0h400v300h-400Z"/><g><g class="mark-line role-mark layer_0_marks" clip-path="url(#clip86)" role="graphics-object" aria-roledescription="line mark container"><path aria-label="year: 1870; value: 57.0769; key: Spain" role="graphics-symbol" aria-roledescription="line mark" d="M0,77.538C8.949,81.106,17.897,84.673,26.846,88.154C35.794,91.635,44.743,95.231,53.691,98.423C62.64,101.615,71.588,104.232,80.537,107.308C92.17,111.307,103.803,113.943,115.436,119.885C129.754,127.197,144.072,132.53,158.389,149.769C166.443,159.466,174.497,185.769,182.55,185.769C193.289,185.769,204.027,165.15,214.765,165.15C215.66,165.15,216.555,165.473,217.45,165.632C218.345,165.79,219.239,165.946,220.134,166.1C221.029,166.254,221.924,166.557,222.819,166.557C223.714,166.557,224.609,164.589,225.503,164.589C226.398,164.589,227.293,166.018,228.188,166.676C229.083,167.334,229.978,167.937,230.872,168.537C231.767,169.137,232.662,169.705,233.557,170.276C234.452,170.848,235.347,171.48,236.242,171.964C237.136,172.449,238.031,172.801,238.926,173.182C239.821,173.562,240.716,173.72,241.611,174.249C242.506,174.778,243.4,175.673,244.295,176.355C245.19,177.037,246.085,177.684,246.98,178.34C247.875,178.996,248.77,179.088,249.664,180.293C250.559,181.497,251.454,184.974,252.349,185.568C253.244,186.162,254.139,186.459,255.034,186.459C255.928,186.459,256.823,186.405,257.718,186.299C258.613,186.192,259.508,185.278,260.403,185.278C261.298,185.278,262.192,188.999,263.087,189.633C263.982,190.267,264.877,190.585,265.772,190.585C266.667,190.585,267.562,189.676,268.456,189.667C269.351,189.658,270.246,189.653,271.141,189.653C272.036,189.653,272.931,189.824,273.826,190.131C274.72,190.439,275.615,191.497,276.51,191.497C277.405,191.497,278.3,191.093,279.195,190.785C280.089,190.477,280.984,190.034,281.879,189.651C282.774,189.268,283.669,188.485,284.564,188.485C285.459,188.485,286.353,188.723,287.248,189.199C288.143,189.675,289.038,190.931,289.933,192.294C290.828,193.658,291.723,196.502,292.617,197.381C293.512,198.261,294.407,197.832,295.302,198.701C296.197,199.57,297.092,201.527,297.987,202.594C298.881,203.661,299.776,204.074,300.671,205.104C301.566,206.133,302.461,207.301,303.356,208.769C304.251,210.237,305.145,213.149,306.04,213.91C306.935,214.671,307.83,214.709,308.725,215.051C309.62,215.394,310.515,215.662,311.409,215.967C312.304,216.272,313.199,216.652,314.094,216.88C314.989,217.109,315.884,217.033,316.779,217.339C317.673,217.644,318.568,218.714,319.463,218.714C320.358,218.714,321.253,218.638,322.148,218.487C323.043,218.335,323.937,217.46,324.832,217.46C325.727,217.46,326.622,218.064,327.517,218.367C328.412,218.67,329.306,219.2,330.201,219.28C331.096,219.36,331.991,219.401,332.886,219.401C333.781,219.401,334.676,219.39,335.57,219.367C336.465,219.345,337.36,219.278,338.255,219.207C339.15,219.137,340.045,219.119,340.94,218.943C341.834,218.767,342.729,218.226,343.624,217.966C344.519,217.705,345.414,217.378,346.309,217.378C347.204,217.378,348.098,217.759,348.993,217.759C349.888,217.759,350.783,216.794,351.678,216.635C352.573,216.475,353.468,216.395,354.362,216.395C355.257,216.395,356.152,216.948,357.047,217.392C357.942,217.835,358.837,218.473,359.732,219.057C360.626,219.64,361.521,220.395,362.416,220.892C363.311,221.389,364.206,221.614,365.101,222.04C365.996,222.465,366.89,223.444,367.785,223.444C368.68,223.444,369.575,222.709,370.47,222.398C371.365,222.087,372.26,221.576,373.154,221.576C374.049,221.576,374.944,222.647,375.839,222.647C376.734,222.647,377.629,222.056,378.523,222.056C379.418,222.056,380.313,223.286,381.208,223.709C382.103,224.131,382.998,224.592,383.893,224.592C384.787,224.592,385.682,224.552,386.577,224.471C387.472,224.39,388.367,224.034,389.262,223.904C390.157,223.774,391.051,223.688,391.946,223.688C392.841,223.688,393.736,224.546,394.631,225.404" stroke-width="2" opacity="0.8"/></g></g><path class="foreground" aria-hidden="true" d="" display="none"/></g><g transform="translate(0,0)"><path class="background" aria-hidden="true" d="M0,0h400v300h-400Z"/><g><g class="mark-line role-mark layer_0_marks" clip-path="url(#clip87)" role="graphics-object" aria-roledescription="line mark container"><path aria-label="year: 1870; value: 66.0769; key: Sweden" role="graphics-symbol" aria-roledescription="line mark" d="M0,23.538C8.949,33.106,17.897,42.673,26.846,52.269C35.794,61.865,44.743,72.615,53.691,81.115C62.64,89.615,71.588,103.269,80.537,103.269C92.17,103.269,103.803,103.269,115.436,103.269C129.754,103.269,144.072,168.821,158.389,171.692C166.443,173.308,174.497,172.5,182.55,174.115C193.289,176.269,204.027,186.261,214.765,190.464C215.66,190.814,216.555,191.489,217.45,191.489C218.345,191.489,219.239,191.489,220.134,191.489C221.029,191.489,221.924,193.766,222.819,193.766C223.714,193.766,224.609,192.514,225.503,192.514C226.398,192.514,227.293,193.083,228.188,193.766C229.083,194.449,229.978,196.612,230.872,196.612C231.767,196.612,232.662,196.612,233.557,196.612C234.452,196.612,235.347,199.155,236.242,200.256C237.136,201.356,238.031,202.837,238.926,203.216C239.821,203.596,240.716,203.785,241.611,203.785C242.506,203.785,243.4,203.558,244.295,203.558C245.19,203.558,246.085,204.582,246.98,204.924C247.875,205.266,248.77,205.152,249.664,205.607C250.559,206.063,251.454,208.34,252.349,209.137C253.244,209.934,254.139,209.915,255.034,210.389C255.928,210.864,256.823,211.129,257.718,211.983C258.613,212.837,259.508,214.108,260.403,215.513C261.298,216.917,262.192,219.156,263.087,220.409C263.982,221.661,264.877,223.027,265.772,223.027C266.667,223.027,267.562,223.027,268.456,223.027C269.351,223.027,270.246,225.328,271.141,226.7C272.036,228.073,272.931,230.205,273.826,231.264C274.72,232.322,275.615,232.393,276.51,233.052C277.405,233.71,278.3,234.4,279.195,235.215C280.089,236.03,280.984,237.943,281.879,237.943C282.774,237.943,283.669,236.441,284.564,236.441C285.459,236.441,286.353,238.599,287.248,239.901C288.143,241.203,289.038,243.54,289.933,244.253C290.828,244.967,291.723,245.324,292.617,245.324C293.512,245.324,294.407,244.984,295.302,244.984C296.197,244.984,297.092,245.953,297.987,245.953C298.881,245.953,299.776,244.773,300.671,244.322C301.566,243.872,302.461,243.417,303.356,243.249C304.251,243.082,305.145,243.118,306.04,242.998C306.935,242.879,307.83,242.532,308.725,242.532C309.62,242.532,310.515,242.761,311.409,242.761C312.304,242.761,313.199,242.164,314.094,241.593C314.989,241.023,315.884,239.335,316.779,239.335C317.673,239.335,318.568,239.38,319.463,239.468C320.358,239.556,321.253,239.609,322.148,239.892C323.043,240.175,323.937,241.422,324.832,241.422C325.727,241.422,326.622,240.339,327.517,239.391C328.412,238.442,329.306,237.076,330.201,235.731C331.096,234.386,331.991,231.715,332.886,231.321C333.781,230.926,334.676,231.072,335.57,230.729C336.465,230.387,337.36,229.603,338.255,229.265C339.15,228.926,340.045,228.696,340.94,228.696C341.834,228.696,342.729,228.886,343.624,228.886C344.519,228.886,345.414,227.906,346.309,227.906C347.204,227.906,348.098,229.633,348.993,230.529C349.888,231.425,350.783,232.376,351.678,233.284C352.573,234.192,353.468,235.271,354.362,235.976C355.257,236.681,356.152,237.512,357.047,237.512C357.942,237.512,358.837,234.749,359.732,234.749C360.626,234.749,361.521,234.766,362.416,234.8C363.311,234.835,364.206,235.485,365.101,235.485C365.996,235.485,366.89,234.399,367.785,234.058C368.68,233.717,369.575,233.439,370.47,233.439C371.365,233.439,372.26,234.329,373.154,234.329C374.049,234.329,374.944,231.345,375.839,231.345C376.734,231.345,377.629,231.441,378.523,231.633C379.418,231.824,380.313,232.807,381.208,233.264C382.103,233.722,382.998,234.379,383.893,234.379C384.787,234.379,385.682,234.323,386.577,234.297C387.472,234.271,388.367,234.272,389.262,234.222C390.157,234.173,391.051,232.332,391.946,232.332C392.841,232.332,393.736,233.322,394.631,234.313" stroke="#E54753" stroke-width="2" opacity="0.8"/></g></g><path class="foreground" aria-hidden="true" d="" display="none"/></g><g transform="translate(0,0)"><path class="background" aria-hidden="true" d="M0,0h400v300h-400Z"/><g><g class="mark-line role-mark layer_0_marks" clip-path="url(#clip88)" role="graphics-object" aria-roledescription="line mark container"><path aria-label="year: 1870; value: 52.9808; key: United Kingdom" role="graphics-symbol" aria-roledescription="line mark" d="M0,102.115C8.949,102.404,17.897,102.692,26.846,103.846C35.794,105,44.743,111.038,53.691,112.038C62.64,113.038,71.588,113.538,80.537,113.538C92.17,113.538,103.803,113.538,115.436,113.538C129.754,113.538,144.072,151.782,158.389,159.577C166.443,163.962,174.497,165.228,182.55,166.154C193.289,167.389,204.027,168.007,214.765,168.007C215.66,168.007,216.555,167,217.45,167C218.345,167,219.239,170.67,220.134,170.67C221.029,170.67,221.924,170.373,222.819,170.218C223.714,170.062,224.609,169.739,225.503,169.739C226.398,169.739,227.293,169.799,228.188,169.92C229.083,170.04,229.978,170.812,230.872,171.487C231.767,172.162,232.662,172.984,233.557,173.971C234.452,174.958,235.347,177.409,236.242,177.409C237.136,177.409,238.031,176.28,238.926,176.28C239.821,176.28,240.716,176.613,241.611,177.279C242.506,177.945,243.4,180.088,244.295,181.522C245.19,182.955,246.085,185.23,246.98,185.879C247.875,186.529,248.77,186.854,249.664,186.854C250.559,186.854,251.454,186.827,252.349,186.827C253.244,186.827,254.139,187.988,255.034,189.511C255.928,191.035,256.823,195.039,257.718,195.968C258.613,196.898,259.508,196.989,260.403,197.362C261.298,197.735,262.192,197.882,263.087,198.208C263.982,198.533,264.877,198.577,265.772,199.315C266.667,200.053,267.562,202.542,268.456,204.128C269.351,205.713,270.246,208.83,271.141,208.83C272.036,208.83,272.931,206.96,273.826,206.381C274.72,205.802,275.615,205.356,276.51,205.356C277.405,205.356,278.3,206.193,279.195,207.081C280.089,207.969,280.984,210.14,281.879,210.683C282.774,211.226,283.669,211.497,284.564,211.497C285.459,211.497,286.353,210.44,287.248,210.354C288.143,210.269,289.038,210.226,289.933,210.226C290.828,210.226,291.723,210.324,292.617,210.52C293.512,210.716,294.407,212.716,295.302,213.993C296.197,215.269,297.092,217.894,297.987,218.178C298.881,218.463,299.776,218.421,300.671,218.605C301.566,218.79,302.461,219.283,303.356,219.283C304.251,219.283,305.145,218.731,306.04,218.567C306.935,218.403,307.83,218.298,308.725,218.298C309.62,218.298,310.515,218.915,311.409,218.915C312.304,218.915,313.199,218.588,314.094,218.358C314.989,218.127,315.884,217.743,316.779,217.532C317.673,217.32,318.568,217.09,319.463,217.09C320.358,217.09,321.253,217.814,322.148,218.545C323.043,219.276,323.937,220.997,324.832,221.475C325.727,221.954,326.622,221.996,327.517,222.193C328.412,222.389,329.306,222.656,330.201,222.656C331.096,222.656,331.991,221.627,332.886,221.47C333.781,221.314,334.676,221.236,335.57,221.236C336.465,221.236,337.36,221.27,338.255,221.297C339.15,221.325,340.045,221.332,340.94,221.401C341.834,221.47,342.729,221.643,343.624,221.885C344.519,222.127,345.414,222.39,346.309,222.853C347.204,223.315,348.098,224.659,348.993,224.659C349.888,224.659,350.783,224.31,351.678,224.31C352.573,224.31,353.468,225.808,354.362,226.32C355.257,226.831,356.152,227.174,357.047,227.379C357.942,227.584,358.837,227.687,359.732,227.687C360.626,227.687,361.521,227.338,362.416,227.338C363.311,227.338,364.206,228.002,365.101,228.002C365.996,228.002,366.89,227.79,367.785,227.79C368.68,227.79,369.575,227.996,370.47,228.407C371.365,228.819,372.26,230.962,373.154,230.962C374.049,230.962,374.944,230.399,375.839,230.399C376.734,230.399,377.629,230.617,378.523,230.617C379.418,230.617,380.313,229.499,381.208,229.026C382.103,228.554,382.998,228.112,383.893,227.782C384.787,227.452,385.682,227.046,386.577,227.046C387.472,227.046,388.367,227.362,389.262,227.414C390.157,227.467,391.051,227.494,391.946,227.494C392.841,227.494,393.736,227.385,394.631,227.276" stroke="#FF69B4" stroke-width="2" opacity="0.8"/></g></g><path class="foreground" aria-hidden="true" d="" display="none"/></g><g transform="translate(0,0)"><path class="background" aria-hidden="true" d="M0,0h400v300h-400Z"/><g><g class="mark-line role-mark layer_0_marks" clip-path="url(#clip89)" role="graphics-object" aria-roledescription="line mark container"><path aria-label="year: 1870; value: 59.5385; key: United States" role="graphics-symbol" aria-roledescription="line mark" d="M0,62.769C8.949,64.683,17.897,66.596,26.846,68.769C35.794,70.942,44.743,73.769,53.691,75.808C62.64,77.846,71.588,79.533,80.537,81C92.17,82.907,103.803,82.462,115.436,85.385C129.754,88.982,144.072,120.177,158.389,152.769C166.443,171.102,174.497,217.385,182.55,217.385C193.289,217.385,204.027,208.414,214.765,190.473C215.66,188.977,216.555,185.705,217.45,185.705C218.345,185.705,219.239,185.948,220.134,186.146C221.029,186.344,221.924,186.395,222.819,186.894C223.714,187.393,224.609,189.567,225.503,189.567C226.398,189.567,227.293,188.711,228.188,188.711C229.083,188.711,229.978,189.631,230.872,190.458C231.767,191.284,232.662,192.482,233.557,193.67C234.452,194.859,235.347,197.591,236.242,197.591C237.136,197.591,238.031,194.671,238.926,194.671C239.821,194.671,240.716,196.177,241.611,196.813C242.506,197.449,243.4,198.485,244.295,198.485C245.19,198.485,246.085,196.241,246.98,196.241C247.875,196.241,248.77,197.601,249.664,197.601C250.559,197.601,251.454,197.383,252.349,196.947C253.244,196.511,254.139,195.205,255.034,194.655C255.928,194.105,256.823,193.649,257.718,193.649C258.613,193.649,259.508,195.993,260.403,196.275C261.298,196.557,262.192,196.698,263.087,196.698C263.982,196.698,264.877,196.619,265.772,196.619C266.667,196.619,267.562,200.6,268.456,201.76C269.351,202.92,270.246,203.4,271.141,203.579C272.036,203.758,272.931,203.771,273.826,203.848C274.72,203.924,275.615,203.911,276.51,204.038C277.405,204.164,278.3,206.113,279.195,207.252C280.089,208.392,280.984,210.57,281.879,210.875C282.774,211.18,283.669,211.333,284.564,211.333C285.459,211.333,286.353,211.33,287.248,211.326C288.143,211.321,289.038,210.763,289.933,210.598C290.828,210.432,291.723,210.332,292.617,210.332C293.512,210.332,294.407,211.609,295.302,212.154C296.197,212.698,297.092,213.017,297.987,213.599C298.881,214.182,299.776,215.649,300.671,215.649C301.566,215.649,302.461,215.177,303.356,214.721C304.251,214.266,305.145,213.332,306.04,212.917C306.935,212.501,307.83,212.227,308.725,212.227C309.62,212.227,310.515,214.556,311.409,214.556C312.304,214.556,313.199,214.026,314.094,213.695C314.989,213.363,315.884,212.99,316.779,212.568C317.673,212.146,318.568,211.163,319.463,211.163C320.358,211.163,321.253,212.385,322.148,212.821C323.043,213.257,323.937,213.385,324.832,213.778C325.727,214.172,326.622,215.182,327.517,215.182C328.412,215.182,329.306,214.085,330.201,213.453C331.096,212.821,331.991,211.917,332.886,211.389C333.781,210.86,334.676,210.581,335.57,210.28C336.465,209.979,337.36,209.796,338.255,209.582C339.15,209.368,340.045,209.304,340.94,208.998C341.834,208.693,342.729,207.912,343.624,207.748C344.519,207.585,345.414,207.607,346.309,207.503C347.204,207.399,348.098,207.125,348.993,207.125C349.888,207.125,350.783,208.828,351.678,209.559C352.573,210.29,353.468,210.882,354.362,211.511C355.257,212.141,356.152,213.249,357.047,213.335C357.942,213.422,358.837,213.393,359.732,213.465C360.626,213.538,361.521,213.772,362.416,213.772C363.311,213.772,364.206,213.741,365.101,213.741C365.996,213.741,366.89,213.798,367.785,213.913C368.68,214.028,369.575,215.035,370.47,216.114C371.365,217.193,372.26,220.39,373.154,220.39C374.049,220.39,374.944,219.972,375.839,219.681C376.734,219.391,377.629,218.678,378.523,218.648C379.418,218.618,380.313,218.633,381.208,218.603C382.103,218.573,382.998,218.241,383.893,218.068C384.787,217.895,385.682,217.857,386.577,217.567C387.472,217.276,388.367,216.325,389.262,216.325C390.157,216.325,391.051,216.678,391.946,216.831C392.841,216.984,393.736,217.114,394.631,217.243" stroke="#179FDB" stroke-width="2" opacity="0.8"/></g></g><path class="foreground" aria-hidden="true" d="" display="none"/></g></g><g class="mark-group role-scope layer_1_pathgroup" role="graphics-object" aria-roledescription="group mark container"><g transform="translate(0,0)"><path class="background" aria-hidden="true" d="M0,0h400v300h-400Z"/><g><g class="mark-line role-mark layer_1_marks" clip-path="url(#clip90)" role="graphics-object" aria-roledescription="line mark container"><path aria-label="year: 1870; value: 52.9808; key: United Kingdom" role="graphics-symbol" aria-roledescription="line mark" d="M0,102.115C8.949,102.404,17.897,102.692,26.846,103.846C35.794,105,44.743,111.038,53.691,112.038C62.64,113.038,71.588,113.538,80.537,113.538C92.17,113.538,103.803,113.538,115.436,113.538C129.754,113.538,144.072,151.782,158.389,159.577C166.443,163.962,174.497,165.228,182.55,166.154C193.289,167.389,204.027,168.007,214.765,168.007C215.66,168.007,216.555,167,217.45,167C218.345,167,219.239,170.67,220.134,170.67C221.029,170.67,221.924,170.373,222.819,170.218C223.714,170.062,224.609,169.739,225.503,169.739C226.398,169.739,227.293,169.799,228.188,169.92C229.083,170.04,229.978,170.812,230.872,171.487C231.767,172.162,232.662,172.984,233.557,173.971C234.452,174.958,235.347,177.409,236.242,177.409C237.136,177.409,238.031,176.28,238.926,176.28C239.821,176.28,240.716,176.613,241.611,177.279C242.506,177.945,243.4,180.088,244.295,181.522C245.19,182.955,246.085,185.23,246.98,185.879C247.875,186.529,248.77,186.854,249.664,186.854C250.559,186.854,251.454,186.827,252.349,186.827C253.244,186.827,254.139,187.988,255.034,189.511C255.928,191.035,256.823,195.039,257.718,195.968C258.613,196.898,259.508,196.989,260.403,197.362C261.298,197.735,262.192,197.882,263.087,198.208C263.982,198.533,264.877,198.577,265.772,199.315C266.667,200.053,267.562,202.542,268.456,204.128C269.351,205.713,270.246,208.83,271.141,208.83C272.036,208.83,272.931,206.96,273.826,206.381C274.72,205.802,275.615,205.356,276.51,205.356C277.405,205.356,278.3,206.193,279.195,207.081C280.089,207.969,280.984,210.14,281.879,210.683C282.774,211.226,283.669,211.497,284.564,211.497C285.459,211.497,286.353,210.44,287.248,210.354C288.143,210.269,289.038,210.226,289.933,210.226C290.828,210.226,291.723,210.324,292.617,210.52C293.512,210.716,294.407,212.716,295.302,213.993C296.197,215.269,297.092,217.894,297.987,218.178C298.881,218.463,299.776,218.421,300.671,218.605C301.566,218.79,302.461,219.283,303.356,219.283C304.251,219.283,305.145,218.731,306.04,218.567C306.935,218.403,307.83,218.298,308.725,218.298C309.62,218.298,310.515,218.915,311.409,218.915C312.304,218.915,313.199,218.588,314.094,218.358C314.989,218.127,315.884,217.743,316.779,217.532C317.673,217.32,318.568,217.09,319.463,217.09C320.358,217.09,321.253,217.814,322.148,218.545C323.043,219.276,323.937,220.997,324.832,221.475C325.727,221.954,326.622,221.996,327.517,222.193C328.412,222.389,329.306,222.656,330.201,222.656C331.096,222.656,331.991,221.627,332.886,221.47C333.781,221.314,334.676,221.236,335.57,221.236C336.465,221.236,337.36,221.27,338.255,221.297C339.15,221.325,340.045,221.332,340.94,221.401C341.834,221.47,342.729,221.643,343.624,221.885C344.519,222.127,345.414,222.39,346.309,222.853C347.204,223.315,348.098,224.659,348.993,224.659C349.888,224.659,350.783,224.31,351.678,224.31C352.573,224.31,353.468,225.808,354.362,226.32C355.257,226.831,356.152,227.174,357.047,227.379C357.942,227.584,358.837,227.687,359.732,227.687C360.626,227.687,361.521,227.338,362.416,227.338C363.311,227.338,364.206,228.002,365.101,228.002C365.996,228.002,366.89,227.79,367.785,227.79C368.68,227.79,369.575,227.996,370.47,228.407C371.365,228.819,372.26,230.962,373.154,230.962C374.049,230.962,374.944,230.399,375.839,230.399C376.734,230.399,377.629,230.617,378.523,230.617C379.418,230.617,380.313,229.499,381.208,229.026C382.103,228.554,382.998,228.112,383.893,227.782C384.787,227.452,385.682,227.046,386.577,227.046C387.472,227.046,388.367,227.362,389.262,227.414C390.157,227.467,391.051,227.494,391.946,227.494C392.841,227.494,393.736,227.385,394.631,227.276" stroke="#FF69B4" stroke-width="3" opacity="0.8"/></g></g><path class="foreground" aria-hidden="true" d="" display="none"/></g></g><g class="mark-text role-mark layer_2_marks" role="graphics-object" aria-roledescription="text mark container"><text aria-label="year: 2017; value: 29.6975; key: Belgium; t: Belgium" role="graphics-symbol" aria-roledescription="text mark" text-anchor="start" transform="translate(399.6308724832215,244.81511538461538)" font-family="Circular Std Book" font-size="11px" fill="#0063AF">Belgium</text><text aria-label="year: 2017; value: 37.9615; key: Chile; t: Chile" role="graphics-symbol" aria-roledescription="text mark" text-anchor="start" transform="translate(399.6308724832215,195.23076923076923)" font-family="Circular Std Book" font-size="11px" fill="#EB5C2E">Chile</text><text aria-label="year: 2017; value: 26.0363; key: Germany; t: Germany" role="graphics-symbol" aria-roledescription="text mark" text-anchor="start" transform="translate(399.6308724832215,266.7822923076923)" font-family="Circular Std Book" font-size="11px" fill="#aaa">Germany</text><text aria-label="year: 2017; value: 42.0304; key: Hong Kong; t: Hong Kong" role="graphics-symbol" aria-roledescription="text mark" text-anchor="start" transform="translate(399.6308724832215,170.81781923076923)" font-family="Circular Std Book" font-size="11px" fill="#F4C245">Hong Kong</text><text aria-label="year: 2017; value: 39.6795; key: South Korea; t: South Korea" role="graphics-symbol" aria-roledescription="text mark" text-anchor="start" transform="translate(399.6308724832215,184.9232884615385)" font-family="Circular Std Book" font-size="11px" fill="#00A767">South Korea</text><text aria-label="year: 2017; value: 32.1206; key: United Kingdom; t: United Kingdom" role="graphics-symbol" aria-roledescription="text mark" text-anchor="start" transform="translate(399.6308724832215,230.27621538461537)" font-family="Circular Std Book" font-size="11px" fill="#FF69B4">United Kingdom</text><text aria-label="year: 2017; value: 33.7928; key: United States; t: United States" role="graphics-symbol" aria-roledescription="text mark" text-anchor="start" transform="translate(399.6308724832215,220.24321153846157)" font-family="Circular Std Book" font-size="11px" fill="#179FDB">United States</text></g><g class="mark-text role-mark layer_3_marks" role="graphics-object" aria-roledescription="text mark container"><text aria-label="year: 2017; value: 33.2980; key: Australia; t: Australia" role="graphics-symbol" aria-roledescription="text mark" text-anchor="start" transform="translate(399.6308724832215,209.21219615384615)" font-family="Circular Std Book" font-size="11px" fill="#b4c8d8">Australia</text></g><g class="mark-text role-mark layer_4_marks" role="graphics-object" aria-roledescription="text mark container"><text aria-label="year: 2017; value: 33.5709; key: Ireland; t: Ireland" role="graphics-symbol" aria-roledescription="text mark" text-anchor="start" transform="translate(454.6308724832215,210.57488846153848)" font-family="Circular Std Book" font-size="11px" fill="#F4134D">Ireland</text></g><g class="mark-text role-mark layer_5_marks" role="graphics-object" aria-roledescription="text mark container"><text aria-label="year: 2017; value: 29.1180; key: France; t: France" role="graphics-symbol" aria-roledescription="text mark" text-anchor="start" transform="translate(399.6308724832215,255.29187307692308)" font-family="Circular Std Book" font-size="11px" fill="#36B7B4">France</text></g><g class="mark-text role-mark layer_6_marks" role="graphics-object" aria-roledescription="text mark container"><text aria-label="year: 2017; value: 30.9479; key: Sweden; t: Sweden" role="graphics-symbol" aria-roledescription="text mark" text-anchor="start" transform="translate(454.6308724832215,244.31273846153843)" font-family="Circular Std Book" font-size="11px" fill="#E54753">Sweden</text></g><g class="mark-group role-title"><g transform="translate(-16.939987182617188,-46)"><path class="background" aria-hidden="true" d="M0,0h0v0h0Z" pointer-events="none"/><g><g class="mark-text role-title-text" role="graphics-symbol" aria-roledescription="title" aria-label="Title text 'In the past 150 years working hours halved'" pointer-events="none"><text text-anchor="start" transform="translate(0,12)" font-family="Circular Std Book" font-size="15px" font-weight="bold" fill="#b4c8d8dd" opacity="1">In the past 150 years working hours halved</text></g><g class="mark-text role-title-subtitle" role="graphics-symbol" aria-roledescription="subtitle" aria-label="Subtitle text 'Source: Huberman and Minns, 2007 &amp; Penn World Tables (v9.1), 2019'" pointer-events="none"><text text-anchor="start" transform="translate(0,384)" font-family="Circular Std Book" font-size="11px" fill="#b4c8d8bb" opacity="1">Source: Huberman and Minns, 2007 &amp; Penn World Tables (v9.1), 2019</text></g></g><path class="foreground" aria-hidden="true" d="" pointer-events="none" display="none"/></g></g></g><path class="foreground" aria-hidden="true" d="" display="none"/></g></g></g><defs><clipPath id="clip76"><rect x="0" y="0" width="400" height="300"/></clipPath><clipPath id="clip77"><rect x="0" y="0" width="400" height="300"/></clipPath><clipPath id="clip78"><rect x="0" y="0" width="400" height="300"/></clipPath><clipPath id="clip79"><rect x="0" y="0" width="400" height="300"/></clipPath><clipPath id="clip80"><rect x="0" y="0" width="400" height="300"/></clipPath><clipPath id="clip81"><rect x="0" y="0" width="400" height="300"/></clipPath><clipPath id="clip82"><rect x="0" y="0" width="400" height="300"/></clipPath><clipPath id="clip83"><rect x="0" y="0" width="400" height="300"/></clipPath><clipPath id="clip84"><rect x="0" y="0" width="400" height="300"/></clipPath><clipPath id="clip85"><rect x="0" y="0" width="400" height="300"/></clipPath><clipPath id="clip86"><rect x="0" y="0" width="400" height="300"/></clipPath><clipPath id="clip87"><rect x="0" y="0" width="400" height="300"/></clipPath><clipPath id="clip88"><rect x="0" y="0" width="400" height="300"/></clipPath><clipPath id="clip89"><rect x="0" y="0" width="400" height="300"/></clipPath><clipPath id="clip90"><rect x="0" y="0" width="400" height="300"/></clipPath></defs></svg>