<svg xmlns="http://www.w3.org/2000/svg" xmlns:xlink="http://www.w3.org/1999/xlink" version="1.1" class="marks" width="455" height="396" viewBox="0 0 455 396"><rect width="455" height="396" fill="#122B39"/><g fill="none" stroke-miterlimit="10" transform="translate(39,51)"><g class="mark-group role-frame root" role="graphics-object" aria-roledescription="group mark container"><g transform="translate(0,0)"><path class="background" aria-hidden="true" d="M0,0h400v300h-400Z"/><g><g class="mark-group role-axis" aria-hidden="true"><g transform="translate(0.5,300.5)"><path class="background" aria-hidden="true" d="M0,0h0v0h0Z" pointer-events="none"/><g><g class="mark-rule role-axis-grid" pointer-events="none"><line transform="translate(0,-300)" x2="0" y2="300" stroke="#b4c8d8" stroke-opacity="0.5" stroke-width="1" stroke-dasharray="1,5" opacity="1"/><line transform="translate(36,-300)" x2="0" y2="300" stroke="#b4c8d8" stroke-opacity="0.5" stroke-width="1" stroke-dasharray="1,5" opacity="1"/><line transform="translate(73,-300)" x2="0" y2="300" stroke="#b4c8d8" stroke-opacity="0.5" stroke-width="1" stroke-dasharray="1,5" opacity="1"/><line transform="translate(109,-300)" x2="0" y2="300" stroke="#b4c8d8" stroke-opacity="0.5" stroke-width="1" stroke-dasharray="1,5" opacity="1"/><line transform="translate(145,-300)" x2="0" y2="300" stroke="#b4c8d8" stroke-opacity="0.5" stroke-width="1" stroke-dasharray="1,5" opacity="1"/><line transform="translate(182,-300)" x2="0" y2="300" stroke="#b4c8d8" stroke-opacity="0.5" stroke-width="1" stroke-dasharray="1,5" opacity="1"/><line transform="translate(218,-300)" x2="0" y2="300" stroke="#b4c8d8" stroke-opacity="0.5" stroke-width="1" stroke-dasharray="1,5" opacity="1"/><line transform="translate(255,-300)" x2="0" y2="300" stroke="#b4c8d8" stroke-opacity="0.5" stroke-width="1" stroke-dasharray="1,5" opacity="1"/><line transform="translate(291,-300)" x2="0" y2="300" stroke="#b4c8d8" stroke-opacity="0.5" stroke-width="1" stroke-dasharray="1,5" opacity="1"/><line transform="translate(327,-300)" x2="0" y2="300" stroke="#b4c8d8" stroke-opacity="0.5" stroke-width="1" stroke-dasharray="1,5" opacity="1"/><line transform="translate(364,-300)" x2="0" y2="300" stroke="#b4c8d8" stroke-opacity="0.5" stroke-width="1" stroke-dasharray="1,5" opacity="1"/><line transform="translate(400,-300)" x2="0" y2="300" stroke="#b4c8d8" stroke-opacity="0.5" stroke-width="1" stroke-dasharray="1,5" opacity="1"/></g></g><path class="foreground" aria-hidden="true" d="" pointer-events="none" display="none"/></g></g><g class="mark-group role-axis" aria-hidden="true"><g transform="translate(0.5,0.5)"><path class="background" aria-hidden="true" d="M0,0h0v0h0Z" pointer-events="none"/><g><g class="mark-rule role-axis-grid" pointer-events="none"><line transform="translate(0,300)" x2="400" y2="0" stroke="#b4c8d8" stroke-opacity="0.5" stroke-width="1" stroke-dasharray="1,5" opacity="1"/><line transform="translate(0,270)" x2="400" y2="0" stroke="#b4c8d8" stroke-opacity="0.5" stroke-width="1" stroke-dasharray="1,5" opacity="1"/><line transform="translate(0,240)" x2="400" y2="0" stroke="#b4c8d8" stroke-opacity="0.5" stroke-width="1" stroke-dasharray="1,5" opacity="1"/><line transform="translate(0,210)" x2="400" y2="0" stroke="#b4c8d8" stroke-opacity="0.5" stroke-width="1" stroke-dasharray="1,5" opacity="1"/><line transform="translate(0,180)" x2="400" y2="0" stroke="#b4c8d8" stroke-opacity="0.5" stroke-width="1" stroke-dasharray="1,5" opacity="1"/><line transform="translate(0,150)" x2="400" y2="0" stroke="#b4c8d8" stroke-opacity="0.5" stroke-width="1" stroke-dasharray="1,5" opacity="1"/><line transform="translate(0,120)" x2="400" y2="0" stroke="#b4c8d8" stroke-opacity="0.5" stroke-width="1" stroke-dasharray="1,5" opacity="1"/><line transform="translate(0,90)" x2="400" y2="0" stroke="#b4c8d8" stroke-opacity="0.5" stroke-width="1" stroke-dasharray="1,5" opacity="1"/><line transform="translate(0,60)" x2="400" y2="0" stroke="#b4c8d8" stroke-opacity="0.5" stroke-width="1" stroke-dasharray="1,5" opacity="1"/><line transform="translate(0,30)" x2="400" y2="0" stroke="#b4c8d8" stroke-opacity="0.5" stroke-width="1" stroke-dasharray="1,5" opacity="1"/><line transform="translate(0,0)" x2="400" y2="0" stroke="#b4c8d8" stroke-opacity="0.5" stroke-width="1" stroke-dasharray="1,5" opacity="1"/></g></g><path class="foreground" aria-hidden="true" d="" pointer-events="none" display="none"/></g></g><g class="mark-group role-axis" role="graphics-symbol" aria-roledescription="axis" aria-label="X-axis for a linear scale with values from 1800 to 2020"><g transform="translate(0.5,300.5)"><path class="background" aria-hidden="true" d="M0,0h0v0h0Z" pointer-events="none"/><g><g class="mark-rule role-axis-tick" pointer-events="none"><line transform="translate(0,0)" x2="0" y2="5" stroke="#b4c8d8" stroke-opacity="0.5" stroke-width="1" opacity="1"/><line transform="translate(36,0)" x2="0" y2="5" stroke="#b4c8d8" stroke-opacity="0.5" stroke-width="1" opacity="1"/><line transform="translate(73,0)" x2="0" y2="5" stroke="#b4c8d8" stroke-opacity="0.5" stroke-width="1" opacity="1"/><line transform="translate(109,0)" x2="0" y2="5" stroke="#b4c8d8" stroke-opacity="0.5" stroke-width="1" opacity="1"/><line transform="translate(145,0)" x2="0" y2="5" stroke="#b4c8d8" stroke-opacity="0.5" stroke-width="1" opacity="1"/><line transform="translate(182,0)" x2="0" y2="5" stroke="#b4c8d8" stroke-opacity="0.5" stroke-width="1" opacity="1"/><line transform="translate(218,0)" x2="0" y2="5" stroke="#b4c8d8" stroke-opacity="0.5" stroke-width="1" opacity="1"/><line transform="translate(255,0)" x2="0" y2="5" stroke="#b4c8d8" stroke-opacity="0.5" stroke-width="1" opacity="1"/><line transform="translate(291,0)" x2="0" y2="5" stroke="#b4c8d8" stroke-opacity="0.5" stroke-width="1" opacity="1"/><line transform="translate(327,0)" x2="0" y2="5" stroke="#b4c8d8" stroke-opacity="0.5" stroke-width="1" opacity="1"/><line transform="translate(364,0)" x2="0" y2="5" stroke="#b4c8d8" stroke-opacity="0.5" stroke-width="1" opacity="1"/><line transform="translate(400,0)" x2="0" y2="5" stroke="#b4c8d8" stroke-opacity="0.5" stroke-width="1" opacity="1"/></g><g class="mark-text role-axis-label" pointer-events="none"><text text-anchor="start" transform="translate(0,15)" font-family="Circular Std Book" font-size="10px" fill="#b4c8d8" fill-opacity="0.7" opacity="1">1800</text><text text-anchor="middle" transform="translate(36.36363636363637,15)" font-family="Circular Std Book" font-size="10px" fill="#b4c8d8" fill-opacity="0.7" opacity="1">1820</text><text text-anchor="middle" transform="translate(72.72727272727273,15)" font-family="Circular Std Book" font-size="10px" fill="#b4c8d8" fill-opacity="0.7" opacity="1">1840</text><text text-anchor="middle" transform="translate(109.09090909090908,15)" font-family="Circular Std Book" font-size="10px" fill="#b4c8d8" fill-opacity="0.7" opacity="1">1860</text><text text-anchor="middle" transform="translate(145.45454545454547,15)" font-family="Circular Std Book" font-size="10px" fill="#b4c8d8" fill-opacity="0.7" opacity="1">1880</text><text text-anchor="middle" transform="translate(181.8181818181818,15)" font-family="Circular Std Book" font-size="10px" fill="#b4c8d8" fill-opacity="0.7" opacity="1">1900</text><text text-anchor="middle" transform="translate(218.18181818181816,15)" font-family="Circular Std Book" font-size="10px" fill="#b4c8d8" fill-opacity="0.7" opacity="1">1920</text><text text-anchor="middle" transform="translate(254.54545454545453,15)" font-family="Circular Std Book" font-size="10px" fill="#b4c8d8" fill-opacity="0.7" opacity="1">1940</text><text text-anchor="middle" transform="translate(290.90909090909093,15)" font-family="Circular Std Book" font-size="10px" fill="#b4c8d8" fill-opacity="0.7" opacity="1">1960</text><text text-anchor="middle" transform="translate(327.2727272727273,15)" font-family="Circular Std Book" font-size="10px" fill="#b4c8d8" fill-opacity="0.7" opacity="1">1980</text><text text-anchor="middle" transform="translate(363.6363636363636,15)" font-family="Circular Std Book" font-size="10px" fill="#b4c8d8" fill-opacity="0.7" opacity="1">2000</text><text text-anchor="end" transform="translate(400,15)" font-family="Circular Std Book" font-size="10px" fill="#b4c8d8" fill-opacity="0.7" opacity="1">2020</text></g><g class="mark-rule role-axis-domain" pointer-events="none"><line transform="translate(0,0)" x2="400" y2="0" stroke="#b4c8d8" stroke-opacity="0.5" stroke-width="1" opacity="1"/></g></g><path class="foreground" aria-hidden="true" d="" pointer-events="none" display="none"/></g></g><g class="mark-group role-axis" role="graphics-symbol" aria-roledescription="axis" aria-label="Y-axis titled 'Share in GDP' for a linear scale with values from 0% to 100%"><g transform="translate(0.5,0.5)"><path class="background" aria-hidden="true" d="M0,0h0v0h0Z" pointer-events="none"/><g><g class="mark-text role-axis-label" pointer-events="none"><text text-anchor="end" transform="translate(-5,304)" font-family="Circular Std Book" font-size="12px" fill="#b4c8d8" fill-opacity="0.7" opacity="1">0%</text><text text-anchor="end" transform="translate(-5,274)" font-family="Circular Std Book" font-size="12px" fill="#b4c8d8" fill-opacity="0.7" opacity="1">10%</text><text text-anchor="end" transform="translate(-5,244)" font-family="Circular Std Book" font-size="12px" fill="#b4c8d8" fill-opacity="0.7" opacity="1">20%</text><text text-anchor="end" transform="translate(-5,214)" font-family="Circular Std Book" font-size="12px" fill="#b4c8d8" fill-opacity="0.7" opacity="1">30%</text><text text-anchor="end" transform="translate(-5,184)" font-family="Circular Std Book" font-size="12px" fill="#b4c8d8" fill-opacity="0.7" opacity="1">40%</text><text text-anchor="end" transform="translate(-5,154)" font-family="Circular Std Book" font-size="12px" fill="#b4c8d8" fill-opacity="0.7" opacity="1">50%</text><text text-anchor="end" transform="translate(-5,124)" font-family="Circular Std Book" font-size="12px" fill="#b4c8d8" fill-opacity="0.7" opacity="1">60%</text><text text-anchor="end" transform="translate(-5,94.00000000000001)" font-family="Circular Std Book" font-size="12px" fill="#b4c8d8" fill-opacity="0.7" opacity="1">70%</text><text text-anchor="end" transform="translate(-5,63.999999999999986)" font-family="Circular Std Book" font-size="12px" fill="#b4c8d8" fill-opacity="0.7" opacity="1">80%</text><text text-anchor="end" transform="translate(-5,33.99999999999999)" font-family="Circular Std Book" font-size="12px" fill="#b4c8d8" fill-opacity="0.7" opacity="1">90%</text><text text-anchor="end" transform="translate(-5,4)" font-family="Circular Std Book" font-size="12px" fill="#b4c8d8" fill-opacity="0.7" opacity="1">100%</text></g><g class="mark-rule role-axis-domain" pointer-events="none"><line transform="translate(0,300)" x2="0" y2="-300" stroke="#b4c8d8" stroke-opacity="0.5" stroke-width="1" opacity="1"/></g><g class="mark-text role-axis-title" pointer-events="none"><text text-anchor="start" transform="translate(0,-10)" font-family="Circular Std Book" font-size="12px" font-weight="normal" fill="#b4c8d8" fill-opacity="0.8" opacity="1">Share in GDP</text></g></g><path class="foreground" aria-hidden="true" d="" pointer-events="none" display="none"/></g></g><g class="mark-group role-scope layer_0_pathgroup" role="graphics-object" aria-roledescription="group mark container"><g transform="translate(0,0)"><path class="background" aria-hidden="true" d="M0,0h400v300h-400Z"/><g><g class="mark-area role-mark layer_0_marks" role="graphics-object" aria-roledescription="area mark container"><path aria-label="year: 1801; value: 36%; ind: serv" role="graphics-symbol" aria-roledescription="area mark" d="M1.818,192.6C1.818,192.6,13.142,173.533,20,171C25.54,168.954,32.121,173,38.182,174C44.242,175,50.29,176.803,56.364,177C62.411,177.196,69.013,178.115,74.545,175.2C81.423,171.577,82.242,158.873,92.727,153.6C114.85,142.474,205.759,157.801,218.182,145.95C222.733,141.608,219.219,129.231,220,129.18C220.527,129.145,221.061,134.684,221.818,136.634C222.35,138.003,222.878,139.596,223.636,139.95C224.168,140.198,224.952,140.086,225.455,139.59C226.55,138.509,226.397,132.917,227.273,130.993C227.786,129.865,228.51,128.546,229.091,128.58C229.726,128.618,230.294,131.69,230.909,131.7C231.507,131.71,232.029,129.485,232.727,128.807C233.276,128.275,234.038,128.417,234.545,127.74C235.5,126.467,235.368,121.596,236.364,120.51C236.869,119.958,237.567,119.997,238.182,119.88C238.78,119.766,239.485,119.464,240,119.802C240.861,120.368,241.086,123.35,241.818,124.56C242.356,125.448,242.992,126.055,243.636,126.617C244.212,127.119,244.936,127.158,245.455,127.83C246.284,128.905,246.442,132.039,247.273,133.11C247.791,133.779,248.568,134.479,249.091,134.31C249.893,134.051,249.416,129.94,250.909,129.51C255.576,128.166,286.278,160.208,290.909,159.78C291.984,159.681,292.14,158.503,292.727,157.784C293.355,157.016,293.931,156.102,294.545,155.294C295.144,154.508,295.724,153.061,296.364,153C296.942,152.944,297.576,154.561,298.182,154.56C298.788,154.559,299.416,153.576,300,152.985C300.632,152.347,301.233,151.615,301.818,150.84C302.449,150.005,302.983,148.892,303.636,148.125C304.206,147.455,304.807,146.557,305.455,146.43C306.028,146.318,306.656,147.023,307.273,147.12C307.869,147.214,308.554,147.344,309.091,147.03C309.826,146.601,310.266,145.004,310.909,144.15C311.485,143.385,312.092,142.17,312.727,142.11C313.309,142.055,314.024,143.66,314.545,143.504C315.353,143.264,315.728,139.954,316.364,138.33C316.945,136.846,317.361,134.76,318.182,134.13C318.702,133.731,319.489,133.548,320,133.86C320.898,134.409,320.975,138.176,321.818,139.23C322.335,139.876,323.065,139.857,323.636,140.34C324.288,140.892,324.873,142.478,325.455,142.44C326.089,142.398,326.645,140.539,327.273,139.68C327.86,138.876,328.412,137.614,329.091,137.43C329.648,137.279,330.34,138.243,330.909,138.12C331.564,137.978,332.074,136.424,332.727,136.29C333.297,136.173,333.96,137.103,334.545,137.026C335.176,136.944,335.861,136.485,336.364,135.66C337.461,133.86,337.14,125.319,338.182,124.98C338.686,124.816,339.459,126.855,340,126.75C340.721,126.61,340.999,123.148,341.818,122.628C342.338,122.297,343.119,123.009,343.636,122.67C344.477,122.12,344.913,119.966,345.455,118.23C346.174,115.922,346.539,112.212,347.273,109.95C347.81,108.293,348.367,106.827,349.091,105.78C349.631,104.998,350.301,104.015,350.909,104.01C351.513,104.005,352.13,105.123,352.727,105.72C353.343,106.335,353.886,107.506,354.545,107.651C355.112,107.775,355.824,107.382,356.364,106.92C357.09,106.299,357.625,105.041,358.182,103.87C358.862,102.438,359.313,100.294,360,98.88C360.554,97.741,361.105,96.583,361.818,95.95C362.362,95.466,363.094,95.587,363.636,95.1C364.354,94.456,364.912,93.303,365.455,92.1C366.17,90.513,366.585,87.949,367.273,86.28C367.826,84.937,368.417,83.752,369.091,82.778C369.65,81.969,370.293,81.398,370.909,80.752C371.506,80.127,372.075,79.383,372.727,78.96C373.298,78.59,373.942,78.497,374.545,78.248C375.154,77.997,375.778,77.803,376.364,77.46C376.993,77.092,377.643,76.739,378.182,76.08C378.912,75.186,379.291,72.435,380,72.3C380.545,72.196,381.213,73.416,381.818,73.98C382.425,74.546,383.636,75.69,383.636,75.69L383.636,300C383.636,300,382.424,300,381.818,300C381.212,300,380.606,300,380,300C379.394,300,378.788,300,378.182,300C377.576,300,376.97,300,376.364,300C375.758,300,375.152,300,374.545,300C373.939,300,373.333,300,372.727,300C372.121,300,371.515,300,370.909,300C370.303,300,369.697,300,369.091,300C368.485,300,367.879,300,367.273,300C366.667,300,366.061,300,365.455,300C364.848,300,364.242,300,363.636,300C363.03,300,362.424,300,361.818,300C361.212,300,360.606,300,360,300C359.394,300,358.788,300,358.182,300C357.576,300,356.97,300,356.364,300C355.758,300,355.152,300,354.545,300C353.939,300,353.333,300,352.727,300C352.121,300,351.515,300,350.909,300C350.303,300,349.697,300,349.091,300C348.485,300,347.879,300,347.273,300C346.667,300,346.061,300,345.455,300C344.848,300,344.242,300,343.636,300C343.03,300,342.424,300,341.818,300C341.212,300,340.606,300,340,300C339.394,300,338.788,300,338.182,300C337.576,300,336.97,300,336.364,300C335.758,300,335.152,300,334.545,300C333.939,300,333.333,300,332.727,300C332.121,300,331.515,300,330.909,300C330.303,300,329.697,300,329.091,300C328.485,300,327.879,300,327.273,300C326.667,300,326.061,300,325.455,300C324.848,300,324.242,300,323.636,300C323.03,300,322.424,300,321.818,300C321.212,300,320.606,300,320,300C319.394,300,318.788,300,318.182,300C317.576,300,316.97,300,316.364,300C315.758,300,315.152,300,314.545,300C313.939,300,313.333,300,312.727,300C312.121,300,311.515,300,310.909,300C310.303,300,309.697,300,309.091,300C308.485,300,307.879,300,307.273,300C306.667,300,306.061,300,305.455,300C304.848,300,304.242,300,303.636,300C303.03,300,302.424,300,301.818,300C301.212,300,300.606,300,300,300C299.394,300,298.788,300,298.182,300C297.576,300,296.97,300,296.364,300C295.758,300,295.152,300,294.545,300C293.939,300,293.333,300,292.727,300C292.121,300,291.908,300,290.909,300C286.223,300,255.595,300,250.909,300C249.91,300,249.697,300,249.091,300C248.485,300,247.879,300,247.273,300C246.667,300,246.061,300,245.455,300C244.848,300,244.242,300,243.636,300C243.03,300,242.424,300,241.818,300C241.212,300,240.606,300,240,300C239.394,300,238.788,300,238.182,300C237.576,300,236.97,300,236.364,300C235.758,300,235.152,300,234.545,300C233.939,300,233.333,300,232.727,300C232.121,300,231.515,300,230.909,300C230.303,300,229.697,300,229.091,300C228.485,300,227.879,300,227.273,300C226.667,300,226.061,300,225.455,300C224.848,300,224.242,300,223.636,300C223.03,300,222.424,300,221.818,300C221.212,300,220.606,300,220,300C219.394,300,219.264,300,218.182,300C209.195,300,115.788,300,92.727,300C83.948,300,80.606,300,74.545,300C68.485,300,62.424,300,56.364,300C50.303,300,44.242,300,38.182,300C32.121,300,26.061,300,20,300C13.939,300,1.818,300,1.818,300Z" fill="#F4C245" opacity="0.9"/></g></g><path class="foreground" aria-hidden="true" d="" display="none"/></g><g transform="translate(0,0)"><path class="background" aria-hidden="true" d="M0,0h400v300h-400Z"/><g><g class="mark-area role-mark layer_0_marks" role="graphics-object" aria-roledescription="area mark container"><path aria-label="year: 1801; value: 33%; ind: ind" role="graphics-symbol" aria-roledescription="area mark" d="M1.818,94.8C1.818,94.8,14.477,109.114,20,108C26.901,106.608,30.889,83.806,38.182,78C43.57,73.711,50.225,72.832,56.364,72C62.35,71.189,68.828,74.796,74.545,72.9C81.051,70.743,83.204,63.069,92.727,57.9C115.223,45.691,209.188,18.659,218.182,18.45C219.257,18.425,219.434,19.081,220,18.93C220.66,18.754,221.211,17.728,221.818,17.132C222.423,16.538,222.988,15.793,223.636,15.36C224.209,14.977,224.862,14.899,225.455,14.58C226.076,14.245,226.644,13.475,227.273,13.381C227.859,13.294,228.535,14.089,229.091,13.92C229.772,13.713,230.225,11.955,230.909,11.73C231.464,11.547,232.12,12.169,232.727,12.179C233.332,12.188,233.941,11.78,234.545,11.79C235.153,11.8,235.753,12.186,236.364,12.24C236.966,12.293,237.576,12.15,238.182,12.12C238.788,12.09,239.426,11.872,240,12.061C240.648,12.275,241.171,13.245,241.818,13.5C242.392,13.726,243.05,13.78,243.636,13.649C244.265,13.507,244.827,12.719,245.455,12.6C246.042,12.488,246.722,13.087,247.273,12.87C247.966,12.597,248.395,10.897,249.091,10.59C249.641,10.347,249.91,10.652,250.909,10.71C255.595,10.982,286.223,12.758,290.909,12.72C291.909,12.712,292.121,12.634,292.727,12.599C293.333,12.564,293.951,12.646,294.545,12.509C295.165,12.366,295.751,11.951,296.364,11.73C296.963,11.513,297.574,11.36,298.182,11.19C298.787,11.021,299.389,10.806,300,10.711C300.601,10.618,301.212,10.655,301.818,10.62C302.424,10.585,303.037,10.613,303.636,10.501C304.249,10.386,304.843,9.983,305.455,9.93C306.055,9.878,306.673,10.226,307.273,10.17C307.885,10.112,308.479,9.618,309.091,9.57C309.691,9.523,310.305,9.889,310.909,9.87C311.517,9.851,312.134,9.377,312.727,9.45C313.348,9.527,313.937,10.373,314.545,10.381C315.15,10.389,315.743,9.7,316.364,9.51C316.956,9.329,317.578,9.221,318.182,9.24C318.79,9.259,319.402,9.684,320,9.63C320.615,9.575,321.207,9.101,321.818,8.88C322.42,8.662,323.028,8.485,323.636,8.31C324.24,8.136,324.849,7.995,325.455,7.83C326.061,7.665,326.663,7.359,327.273,7.32C327.875,7.282,328.485,7.495,329.091,7.59C329.697,7.685,330.32,7.99,330.909,7.89C331.534,7.784,332.121,6.9,332.727,6.9C333.333,6.9,333.95,7.925,334.545,7.889C335.163,7.853,335.726,6.747,336.364,6.6C336.944,6.466,337.574,6.865,338.182,6.9C338.786,6.934,339.404,6.939,340,6.81C340.617,6.676,341.204,6.14,341.818,6.089C342.417,6.04,343.027,6.42,343.636,6.48C344.239,6.539,344.85,6.505,345.455,6.45C346.063,6.395,346.665,6.185,347.273,6.15C347.877,6.116,348.486,6.185,349.091,6.24C349.698,6.295,350.302,6.47,350.909,6.48C351.515,6.49,352.122,6.285,352.727,6.3C353.334,6.315,353.943,6.604,354.545,6.571C355.155,6.537,355.778,6.352,356.364,6.09C356.994,5.808,357.555,5.194,358.182,4.89C358.77,4.606,359.388,4.435,360,4.29C360.6,4.148,361.214,4.13,361.818,4.02C362.426,3.91,363.028,3.735,363.636,3.63C364.24,3.525,364.847,3.425,365.455,3.39C366.059,3.355,366.667,3.4,367.273,3.42C367.879,3.44,368.485,3.51,369.091,3.51C369.697,3.51,370.304,3.465,370.909,3.42C371.516,3.375,372.121,3.285,372.727,3.24C373.333,3.195,373.94,3.135,374.545,3.15C375.152,3.165,375.762,3.222,376.364,3.33C376.974,3.44,377.573,3.781,378.182,3.81C378.785,3.839,379.392,3.56,380,3.51C380.604,3.461,381.213,3.475,381.818,3.51C382.425,3.545,383.636,3.72,383.636,3.72L383.636,75.69C383.636,75.69,382.425,74.546,381.818,73.98C381.213,73.416,380.545,72.196,380,72.3C379.291,72.435,378.912,75.186,378.182,76.08C377.643,76.739,376.993,77.092,376.364,77.46C375.778,77.803,375.154,77.997,374.545,78.248C373.942,78.497,373.298,78.59,372.727,78.96C372.075,79.383,371.506,80.127,370.909,80.752C370.293,81.398,369.65,81.969,369.091,82.778C368.417,83.752,367.826,84.937,367.273,86.28C366.585,87.949,366.17,90.513,365.455,92.1C364.912,93.303,364.354,94.456,363.636,95.1C363.094,95.587,362.362,95.466,361.818,95.95C361.105,96.583,360.554,97.741,360,98.88C359.313,100.294,358.862,102.438,358.182,103.87C357.625,105.041,357.09,106.299,356.364,106.92C355.824,107.382,355.112,107.775,354.545,107.651C353.886,107.506,353.343,106.335,352.727,105.72C352.13,105.123,351.513,104.005,350.909,104.01C350.301,104.015,349.631,104.998,349.091,105.78C348.367,106.827,347.81,108.293,347.273,109.95C346.539,112.212,346.174,115.922,345.455,118.23C344.913,119.966,344.477,122.12,343.636,122.67C343.119,123.009,342.338,122.297,341.818,122.628C340.999,123.148,340.721,126.61,340,126.75C339.459,126.855,338.686,124.816,338.182,124.98C337.14,125.319,337.461,133.86,336.364,135.66C335.861,136.485,335.176,136.944,334.545,137.026C333.96,137.103,333.297,136.173,332.727,136.29C332.074,136.424,331.564,137.978,330.909,138.12C330.34,138.243,329.648,137.279,329.091,137.43C328.412,137.614,327.86,138.876,327.273,139.68C326.645,140.539,326.089,142.398,325.455,142.44C324.873,142.478,324.288,140.892,323.636,140.34C323.065,139.857,322.335,139.876,321.818,139.23C320.975,138.176,320.898,134.409,320,133.86C319.489,133.548,318.702,133.731,318.182,134.13C317.361,134.76,316.945,136.846,316.364,138.33C315.728,139.954,315.353,143.264,314.545,143.504C314.024,143.66,313.309,142.055,312.727,142.11C312.092,142.17,311.485,143.385,310.909,144.15C310.266,145.004,309.826,146.601,309.091,147.03C308.554,147.344,307.869,147.214,307.273,147.12C306.656,147.023,306.028,146.318,305.455,146.43C304.807,146.557,304.206,147.455,303.636,148.125C302.983,148.892,302.449,150.005,301.818,150.84C301.233,151.615,300.632,152.347,300,152.985C299.416,153.576,298.788,154.559,298.182,154.56C297.576,154.561,296.942,152.944,296.364,153C295.724,153.061,295.144,154.508,294.545,155.294C293.931,156.102,293.355,157.016,292.727,157.784C292.14,158.503,291.984,159.681,290.909,159.78C286.278,160.208,255.576,128.166,250.909,129.51C249.416,129.94,249.893,134.051,249.091,134.31C248.568,134.479,247.791,133.779,247.273,133.11C246.442,132.039,246.284,128.905,245.455,127.83C244.936,127.158,244.212,127.119,243.636,126.617C242.992,126.055,242.356,125.448,241.818,124.56C241.086,123.35,240.861,120.368,240,119.802C239.485,119.464,238.78,119.766,238.182,119.88C237.567,119.997,236.869,119.958,236.364,120.51C235.368,121.596,235.5,126.467,234.545,127.74C234.038,128.417,233.276,128.275,232.727,128.807C232.029,129.485,231.507,131.71,230.909,131.7C230.294,131.69,229.726,128.618,229.091,128.58C228.51,128.546,227.786,129.865,227.273,130.993C226.397,132.917,226.55,138.509,225.455,139.59C224.952,140.086,224.168,140.198,223.636,139.95C222.878,139.596,222.35,138.003,221.818,136.634C221.061,134.684,220.527,129.145,220,129.18C219.219,129.231,222.733,141.608,218.182,145.95C205.759,157.801,114.85,142.474,92.727,153.6C82.242,158.873,81.423,171.577,74.545,175.2C69.013,178.115,62.411,177.196,56.364,177C50.29,176.803,44.242,175,38.182,174C32.121,173,25.54,168.954,20,171C13.142,173.533,1.818,192.6,1.818,192.6Z" fill="#179FDB" opacity="0.9"/></g></g><path class="foreground" aria-hidden="true" d="" display="none"/></g><g transform="translate(0,0)"><path class="background" aria-hidden="true" d="M0,0h400v300h-400Z"/><g><g class="mark-area role-mark layer_0_marks" role="graphics-object" aria-roledescription="area mark container"><path aria-label="year: 1801; value: 32%; ind: agri" role="graphics-symbol" aria-roledescription="area mark" d="M1.818,0C1.818,0,13.939,0,20,0C26.061,0,32.121,0,38.182,0C44.242,0,50.303,0,56.364,0C62.424,0,68.485,0,74.545,0C80.606,0,83.948,0,92.727,0C115.788,0,209.195,0,218.182,0C219.264,0,219.394,0,220,0C220.606,0,221.212,0,221.818,0C222.424,0,223.03,0,223.636,0C224.242,0,224.848,0,225.455,0C226.061,0,226.667,0,227.273,0C227.879,0,228.485,0,229.091,0C229.697,0,230.303,0,230.909,0C231.515,0,232.121,0,232.727,0C233.333,0,233.939,0,234.545,0C235.152,0,235.758,0,236.364,0C236.97,0,237.576,0,238.182,0C238.788,0,239.394,0,240,0C240.606,0,241.212,0,241.818,0C242.424,0,243.03,0,243.636,0C244.242,0,244.848,0,245.455,0C246.061,0,246.667,0,247.273,0C247.879,0,248.485,0,249.091,0C249.697,0,249.91,0,250.909,0C255.595,0,286.223,0,290.909,0C291.908,0,292.121,0,292.727,0C293.333,0,293.939,0,294.545,0C295.152,0,295.758,0,296.364,0C296.97,0,297.576,0,298.182,0C298.788,0,299.394,0,300,0C300.606,0,301.212,0,301.818,0C302.424,0,303.03,0,303.636,0C304.242,0,304.848,0,305.455,0C306.061,0,306.667,0,307.273,0C307.879,0,308.485,0,309.091,0C309.697,0,310.303,0,310.909,0C311.515,0,312.121,0,312.727,0C313.333,0,313.939,0,314.545,0C315.152,0,315.758,0,316.364,0C316.97,0,317.576,0,318.182,0C318.788,0,319.394,0,320,0C320.606,0,321.212,0,321.818,0C322.424,0,323.03,0,323.636,0C324.242,0,324.848,0,325.455,0C326.061,0,326.667,0,327.273,0C327.879,0,328.485,0,329.091,0C329.697,0,330.303,0,330.909,0C331.515,0,332.121,0,332.727,0C333.333,0,333.939,0,334.545,0C335.152,0,335.758,0,336.364,0C336.97,0,337.576,0,338.182,0C338.788,0,339.394,0,340,0C340.606,0,341.212,0,341.818,0C342.424,0,343.03,0,343.636,0C344.242,0,344.848,0,345.455,0C346.061,0,346.667,0,347.273,0C347.879,0,348.485,0,349.091,0C349.697,0,350.303,0,350.909,0C351.515,0,352.121,0,352.727,0C353.333,0,353.939,0,354.545,0C355.152,0,355.758,0,356.364,0C356.97,0,357.576,0,358.182,0C358.788,0,359.394,0,360,0C360.606,0,361.212,0,361.818,0C362.424,0,363.03,0,363.636,0C364.242,0,364.848,0,365.455,0C366.061,0,366.667,0,367.273,0C367.879,0,368.485,0,369.091,0C369.697,0,370.303,0,370.909,0C371.515,0,372.121,0,372.727,0C373.333,0,373.939,0,374.545,0C375.152,0,375.758,0,376.364,0C376.97,0,377.576,0,378.182,0C378.788,0,379.394,0,380,0C380.606,0,381.212,0,381.818,0C382.424,0,383.636,0,383.636,0L383.636,3.72C383.636,3.72,382.425,3.545,381.818,3.51C381.213,3.475,380.604,3.461,380,3.51C379.392,3.56,378.785,3.839,378.182,3.81C377.573,3.781,376.974,3.44,376.364,3.33C375.762,3.222,375.152,3.165,374.545,3.15C373.94,3.135,373.333,3.195,372.727,3.24C372.121,3.285,371.516,3.375,370.909,3.42C370.304,3.465,369.697,3.51,369.091,3.51C368.485,3.51,367.879,3.44,367.273,3.42C366.667,3.4,366.059,3.355,365.455,3.39C364.847,3.425,364.24,3.525,363.636,3.63C363.028,3.735,362.426,3.91,361.818,4.02C361.214,4.13,360.6,4.148,360,4.29C359.388,4.435,358.77,4.606,358.182,4.89C357.555,5.194,356.994,5.808,356.364,6.09C355.778,6.352,355.155,6.537,354.545,6.571C353.943,6.604,353.334,6.315,352.727,6.3C352.122,6.285,351.515,6.49,350.909,6.48C350.302,6.47,349.698,6.295,349.091,6.24C348.486,6.185,347.877,6.116,347.273,6.15C346.665,6.185,346.063,6.395,345.455,6.45C344.85,6.505,344.239,6.539,343.636,6.48C343.027,6.42,342.417,6.04,341.818,6.089C341.204,6.14,340.617,6.676,340,6.81C339.404,6.939,338.786,6.934,338.182,6.9C337.574,6.865,336.944,6.466,336.364,6.6C335.726,6.747,335.163,7.853,334.545,7.889C333.95,7.925,333.333,6.9,332.727,6.9C332.121,6.9,331.534,7.784,330.909,7.89C330.32,7.99,329.697,7.685,329.091,7.59C328.485,7.495,327.875,7.282,327.273,7.32C326.663,7.359,326.061,7.665,325.455,7.83C324.849,7.995,324.24,8.136,323.636,8.31C323.028,8.485,322.42,8.662,321.818,8.88C321.207,9.101,320.615,9.575,320,9.63C319.402,9.684,318.79,9.259,318.182,9.24C317.578,9.221,316.956,9.329,316.364,9.51C315.743,9.7,315.15,10.389,314.545,10.381C313.937,10.373,313.348,9.527,312.727,9.45C312.134,9.377,311.517,9.851,310.909,9.87C310.305,9.889,309.691,9.523,309.091,9.57C308.479,9.618,307.885,10.112,307.273,10.17C306.673,10.226,306.055,9.878,305.455,9.93C304.843,9.983,304.249,10.386,303.636,10.501C303.037,10.613,302.424,10.585,301.818,10.62C301.212,10.655,300.601,10.618,300,10.711C299.389,10.806,298.787,11.021,298.182,11.19C297.574,11.36,296.963,11.513,296.364,11.73C295.751,11.951,295.165,12.366,294.545,12.509C293.951,12.646,293.333,12.564,292.727,12.599C292.121,12.634,291.909,12.712,290.909,12.72C286.223,12.758,255.595,10.982,250.909,10.71C249.91,10.652,249.641,10.347,249.091,10.59C248.395,10.897,247.966,12.597,247.273,12.87C246.722,13.087,246.042,12.488,245.455,12.6C244.827,12.719,244.265,13.507,243.636,13.649C243.05,13.78,242.392,13.726,241.818,13.5C241.171,13.245,240.648,12.275,240,12.061C239.426,11.872,238.788,12.09,238.182,12.12C237.576,12.15,236.966,12.293,236.364,12.24C235.753,12.186,235.153,11.8,234.545,11.79C233.941,11.78,233.332,12.188,232.727,12.179C232.12,12.169,231.464,11.547,230.909,11.73C230.225,11.955,229.772,13.713,229.091,13.92C228.535,14.089,227.859,13.294,227.273,13.381C226.644,13.475,226.076,14.245,225.455,14.58C224.862,14.899,224.209,14.977,223.636,15.36C222.988,15.793,222.423,16.538,221.818,17.132C221.211,17.728,220.66,18.754,220,18.93C219.434,19.081,219.257,18.425,218.182,18.45C209.188,18.659,115.223,45.691,92.727,57.9C83.204,63.069,81.051,70.743,74.545,72.9C68.828,74.796,62.35,71.189,56.364,72C50.225,72.832,43.57,73.711,38.182,78C30.889,83.806,26.901,106.608,20,108C14.477,109.114,1.818,94.8,1.818,94.8Z" fill="#F4134D" opacity="0.9"/></g></g><path class="foreground" aria-hidden="true" d="" display="none"/></g></g><g class="mark-text role-mark layer_1_marks" role="graphics-object" aria-roledescription="text mark container"><text aria-label="year: 1800; y: 0.85; t: Agriculture" role="graphics-symbol" aria-roledescription="text mark" text-anchor="start" transform="translate(10,49.00000000000001)" font-family="Circular Std Book" font-size="14px" font-weight="bold" fill="#b4c8d8">Agriculture</text><text aria-label="year: 1800; y: 0.54; t: Industry" role="graphics-symbol" aria-roledescription="text mark" text-anchor="start" transform="translate(10,142)" font-family="Circular Std Book" font-size="14px" font-weight="bold" fill="#b4c8d8">Industry</text><text aria-label="year: 1800; y: 0.15; t: Services" role="graphics-symbol" aria-roledescription="text mark" text-anchor="start" transform="translate(10,259)" font-family="Circular Std Book" font-size="14px" font-weight="bold" fill="#b4c8d8">Services</text></g><g class="mark-group role-title"><g transform="translate(-33.53596496582031,-46)"><path class="background" aria-hidden="true" d="M0,0h0v0h0Z" pointer-events="none"/><g><g class="mark-text role-title-text" role="graphics-symbol" aria-roledescription="title" aria-label="Title text 'The UK economy shifted away from industry and towards services'" pointer-events="none"><text text-anchor="start" transform="translate(0,12)" font-family="Circular Std Book" font-size="15px" font-weight="bold" fill="#b4c8d8dd" opacity="1">The UK economy shifted away from industry and towards services</text></g><g class="mark-text role-title-subtitle" role="graphics-symbol" aria-roledescription="subtitle" aria-label="Subtitle text 'Source: Herrendorf et al, 2014'" pointer-events="none"><text text-anchor="start" transform="translate(0,384)" font-family="Circular Std Book" font-size="11px" fill="#b4c8d8bb" opacity="1">Source: Herrendorf et al, 2014</text></g></g><path class="foreground" aria-hidden="true" d="" pointer-events="none" display="none"/></g></g></g><path class="foreground" aria-hidden="true" d="" display="none"/></g></g></g></svg>