<svg xmlns="http://www.w3.org/2000/svg" xmlns:xlink="http://www.w3.org/1999/xlink" version="1.1" class="marks" width="452" height="413" viewBox="0 0 452 413"><rect width="452" height="413" fill="white"/><g fill="none" stroke-miterlimit="10" transform="translate(25,68)"><g class="mark-group role-frame root" role="graphics-object" aria-roledescription="group mark container"><g transform="translate(0,0)"><path class="background" aria-hidden="true" d="M0,0h400v300h-400Z"/><g><g class="mark-group role-axis" aria-hidden="true"><g transform="translate(0.5,300.5)"><path class="background" aria-hidden="true" d="M0,0h0v0h0Z" pointer-events="none"/><g><g class="mark-rule role-axis-grid" pointer-events="none"><line transform="translate(0,-300)" x2="0" y2="300" stroke="#676A86" stroke-opacity="0.5" stroke-width="1" stroke-dasharray="1,5" opacity="1"/><line transform="translate(33,-300)" x2="0" y2="300" stroke="#676A86" stroke-opacity="0.5" stroke-width="1" stroke-dasharray="1,5" opacity="1"/><line transform="translate(67,-300)" x2="0" y2="300" stroke="#676A86" stroke-opacity="0.5" stroke-width="1" stroke-dasharray="1,5" opacity="1"/><line transform="translate(100,-300)" x2="0" y2="300" stroke="#676A86" stroke-opacity="0.5" stroke-width="1" stroke-dasharray="1,5" opacity="1"/><line transform="translate(133,-300)" x2="0" y2="300" stroke="#676A86" stroke-opacity="0.5" stroke-width="1" stroke-dasharray="1,5" opacity="1"/><line transform="translate(167,-300)" x2="0" y2="300" stroke="#676A86" stroke-opacity="0.5" stroke-width="1" stroke-dasharray="1,5" opacity="1"/><line transform="translate(200,-300)" x2="0" y2="300" stroke="#676A86" stroke-opacity="0.5" stroke-width="1" stroke-dasharray="1,5" opacity="1"/><line transform="translate(233,-300)" x2="0" y2="300" stroke="#676A86" stroke-opacity="0.5" stroke-width="1" stroke-dasharray="1,5" opacity="1"/><line transform="translate(267,-300)" x2="0" y2="300" stroke="#676A86" stroke-opacity="0.5" stroke-width="1" stroke-dasharray="1,5" opacity="1"/><line transform="translate(300,-300)" x2="0" y2="300" stroke="#676A86" stroke-opacity="0.5" stroke-width="1" stroke-dasharray="1,5" opacity="1"/><line transform="translate(333,-300)" x2="0" y2="300" stroke="#676A86" stroke-opacity="0.5" stroke-width="1" stroke-dasharray="1,5" opacity="1"/><line transform="translate(367,-300)" x2="0" y2="300" stroke="#676A86" stroke-opacity="0.5" stroke-width="1" stroke-dasharray="1,5" opacity="1"/><line transform="translate(400,-300)" x2="0" y2="300" stroke="#676A86" stroke-opacity="0.5" stroke-width="1" stroke-dasharray="1,5" opacity="1"/></g></g><path class="foreground" aria-hidden="true" d="" pointer-events="none" display="none"/></g></g><g class="mark-group role-axis" aria-hidden="true"><g transform="translate(0.5,0.5)"><path class="background" aria-hidden="true" d="M0,0h0v0h0Z" pointer-events="none"/><g><g class="mark-rule role-axis-grid" pointer-events="none"><line transform="translate(0,300)" x2="400" y2="0" stroke="#676A86" stroke-opacity="0.5" stroke-width="1" stroke-dasharray="1,5" opacity="1"/><line transform="translate(0,250)" x2="400" y2="0" stroke="#676A86" stroke-opacity="0.5" stroke-width="1" stroke-dasharray="1,5" opacity="1"/><line transform="translate(0,200)" x2="400" y2="0" stroke="#676A86" stroke-opacity="0.5" stroke-width="1" stroke-dasharray="1,5" opacity="1"/><line transform="translate(0,150)" x2="400" y2="0" stroke="#676A86" stroke-opacity="0.5" stroke-width="1" stroke-dasharray="1,5" opacity="1"/><line transform="translate(0,100)" x2="400" y2="0" stroke="#676A86" stroke-opacity="0.5" stroke-width="1" stroke-dasharray="1,5" opacity="1"/><line transform="translate(0,50)" x2="400" y2="0" stroke="#676A86" stroke-opacity="0.5" stroke-width="1" stroke-dasharray="1,5" opacity="1"/><line transform="translate(0,0)" x2="400" y2="0" stroke="#676A86" stroke-opacity="0.5" stroke-width="1" stroke-dasharray="1,5" opacity="1"/></g></g><path class="foreground" aria-hidden="true" d="" pointer-events="none" display="none"/></g></g><g class="mark-group role-axis" role="graphics-symbol" aria-roledescription="axis" aria-label="X-axis titled 'Expenditures on R&amp;D per capita, $USD nominal' for a linear scale with values from $0 to $2400"><g transform="translate(0.5,300.5)"><path class="background" aria-hidden="true" d="M0,0h0v0h0Z" pointer-events="none"/><g><g class="mark-rule role-axis-tick" pointer-events="none"><line transform="translate(0,0)" x2="0" y2="5" stroke="#676A86" stroke-opacity="0.5" stroke-width="1" opacity="1"/><line transform="translate(33,0)" x2="0" y2="5" stroke="#676A86" stroke-opacity="0.5" stroke-width="1" opacity="1"/><line transform="translate(67,0)" x2="0" y2="5" stroke="#676A86" stroke-opacity="0.5" stroke-width="1" opacity="1"/><line transform="translate(100,0)" x2="0" y2="5" stroke="#676A86" stroke-opacity="0.5" stroke-width="1" opacity="1"/><line transform="translate(133,0)" x2="0" y2="5" stroke="#676A86" stroke-opacity="0.5" stroke-width="1" opacity="1"/><line transform="translate(167,0)" x2="0" y2="5" stroke="#676A86" stroke-opacity="0.5" stroke-width="1" opacity="1"/><line transform="translate(200,0)" x2="0" y2="5" stroke="#676A86" stroke-opacity="0.5" stroke-width="1" opacity="1"/><line transform="translate(233,0)" x2="0" y2="5" stroke="#676A86" stroke-opacity="0.5" stroke-width="1" opacity="1"/><line transform="translate(267,0)" x2="0" y2="5" stroke="#676A86" stroke-opacity="0.5" stroke-width="1" opacity="1"/><line transform="translate(300,0)" x2="0" y2="5" stroke="#676A86" stroke-opacity="0.5" stroke-width="1" opacity="1"/><line transform="translate(333,0)" x2="0" y2="5" stroke="#676A86" stroke-opacity="0.5" stroke-width="1" opacity="1"/><line transform="translate(367,0)" x2="0" y2="5" stroke="#676A86" stroke-opacity="0.5" stroke-width="1" opacity="1"/><line transform="translate(400,0)" x2="0" y2="5" stroke="#676A86" stroke-opacity="0.5" stroke-width="1" opacity="1"/></g><g class="mark-text role-axis-label" pointer-events="none"><text text-anchor="start" transform="translate(0,15)" font-family="Circular Std Book" font-size="10px" fill="#676A86" fill-opacity="0.7" opacity="1">$0</text><text text-anchor="middle" transform="translate(33.33333333333333,15)" font-family="Circular Std Book" font-size="10px" fill="#676A86" fill-opacity="0.7" opacity="0">$200</text><text text-anchor="middle" transform="translate(66.66666666666666,15)" font-family="Circular Std Book" font-size="10px" fill="#676A86" fill-opacity="0.7" opacity="1">$400</text><text text-anchor="middle" transform="translate(100,15)" font-family="Circular Std Book" font-size="10px" fill="#676A86" fill-opacity="0.7" opacity="0">$600</text><text text-anchor="middle" transform="translate(133.33333333333331,15)" font-family="Circular Std Book" font-size="10px" fill="#676A86" fill-opacity="0.7" opacity="1">$800</text><text text-anchor="middle" transform="translate(166.66666666666669,15)" font-family="Circular Std Book" font-size="10px" fill="#676A86" fill-opacity="0.7" opacity="0">$1000</text><text text-anchor="middle" transform="translate(200,15)" font-family="Circular Std Book" font-size="10px" fill="#676A86" fill-opacity="0.7" opacity="1">$1200</text><text text-anchor="middle" transform="translate(233.33333333333334,15)" font-family="Circular Std Book" font-size="10px" fill="#676A86" fill-opacity="0.7" opacity="0">$1400</text><text text-anchor="middle" transform="translate(266.66666666666663,15)" font-family="Circular Std Book" font-size="10px" fill="#676A86" fill-opacity="0.7" opacity="1">$1600</text><text text-anchor="middle" transform="translate(300,15)" font-family="Circular Std Book" font-size="10px" fill="#676A86" fill-opacity="0.7" opacity="0">$1800</text><text text-anchor="middle" transform="translate(333.33333333333337,15)" font-family="Circular Std Book" font-size="10px" fill="#676A86" fill-opacity="0.7" opacity="1">$2000</text><text text-anchor="middle" transform="translate(366.66666666666663,15)" font-family="Circular Std Book" font-size="10px" fill="#676A86" fill-opacity="0.7" opacity="0">$2200</text><text text-anchor="end" transform="translate(400,15)" font-family="Circular Std Book" font-size="10px" fill="#676A86" fill-opacity="0.7" opacity="1">$2400</text></g><g class="mark-rule role-axis-domain" pointer-events="none"><line transform="translate(0,0)" x2="400" y2="0" stroke="#676A86" stroke-opacity="0.5" stroke-width="1" opacity="1"/></g><g class="mark-text role-axis-title" pointer-events="none"><text text-anchor="end" transform="translate(400,-7)" font-family="Circular Std Book" font-size="12px" font-weight="normal" fill="#676A86" fill-opacity="0.8" opacity="1">Expenditures on R&amp;D per capita, $USD nominal</text></g></g><path class="foreground" aria-hidden="true" d="" pointer-events="none" display="none"/></g></g><g class="mark-group role-axis" role="graphics-symbol" aria-roledescription="axis" aria-label="Y-axis titled 'Expenditures on R&amp;D as % of GDP' for a linear scale with values from 0% to 6%"><g transform="translate(0.5,0.5)"><path class="background" aria-hidden="true" d="M0,0h0v0h0Z" pointer-events="none"/><g><g class="mark-text role-axis-label" pointer-events="none"><text text-anchor="end" transform="translate(-5,303)" font-family="Circular Std Book" font-size="10px" fill="#676A86" fill-opacity="0.7" opacity="1">0%</text><text text-anchor="end" transform="translate(-5,252.99999999999997)" font-family="Circular Std Book" font-size="10px" fill="#676A86" fill-opacity="0.7" opacity="1">1%</text><text text-anchor="end" transform="translate(-5,203)" font-family="Circular Std Book" font-size="10px" fill="#676A86" fill-opacity="0.7" opacity="1">2%</text><text text-anchor="end" transform="translate(-5,153)" font-family="Circular Std Book" font-size="10px" fill="#676A86" fill-opacity="0.7" opacity="1">3%</text><text text-anchor="end" transform="translate(-5,102.99999999999997)" font-family="Circular Std Book" font-size="10px" fill="#676A86" fill-opacity="0.7" opacity="1">4%</text><text text-anchor="end" transform="translate(-5,52.999999999999986)" font-family="Circular Std Book" font-size="10px" fill="#676A86" fill-opacity="0.7" opacity="1">5%</text><text text-anchor="end" transform="translate(-5,3)" font-family="Circular Std Book" font-size="10px" fill="#676A86" fill-opacity="0.7" opacity="1">6%</text></g><g class="mark-rule role-axis-domain" pointer-events="none"><line transform="translate(0,300)" x2="0" y2="-300" stroke="#676A86" stroke-opacity="0.5" stroke-width="1" opacity="1"/></g><g class="mark-text role-axis-title" pointer-events="none"><text text-anchor="start" transform="translate(0,-10)" font-family="Circular Std Book" font-size="12px" font-weight="normal" fill="#676A86" fill-opacity="0.8" opacity="1">Expenditures on R&amp;D as % of GDP</text></g></g><path class="foreground" aria-hidden="true" d="" pointer-events="none" display="none"/></g></g><g class="mark-symbol role-mark layer_0_marks" role="graphics-object" aria-roledescription="symbol mark container"><path aria-label="cap: $1965; value: 2.600000%; s: 660" role="graphics-symbol" aria-roledescription="circle" transform="translate(327.5,170)" d="M9.5,0A9.5,9.5,0,1,1,-9.5,0A9.5,9.5,0,1,1,9.5,0" fill="#36B7B4" stroke-width="2" opacity="0.7"/><path aria-label="cap: $384; value: 3.100000%; s: 556" role="graphics-symbol" aria-roledescription="circle" transform="translate(64,144.99999999999997)" d="M9.101,0A9.101,9.101,0,1,1,-9.101,0A9.101,9.101,0,1,1,9.101,0" fill="#36B7B4" stroke-width="2" opacity="0.7"/><path aria-label="cap: $1540; value: 3.400000%; s: 194" role="graphics-symbol" aria-roledescription="circle" transform="translate(256.6666666666667,129.99999999999997)" d="M6.995,0A6.995,6.995,0,1,1,-6.995,0A6.995,6.995,0,1,1,6.995,0" fill="#36B7B4" stroke-width="2" opacity="0.7"/><path aria-label="cap: $113; value: 5.600000%; s: 159" role="graphics-symbol" aria-roledescription="circle" transform="translate(18.833333333333332,20.00000000000003)" d="M6.656,0A6.656,6.656,0,1,1,-6.656,0A6.656,6.656,0,1,1,6.656,0" fill="#36B7B4" stroke-width="2" opacity="0.7"/><path aria-label="cap: $1760; value: 3.300000%; s: 148" role="graphics-symbol" aria-roledescription="circle" transform="translate(293.3333333333333,135)" d="M6.537,0A6.537,6.537,0,1,1,-6.537,0A6.537,6.537,0,1,1,6.537,0" fill="#36B7B4" stroke-width="2" opacity="0.7"/><path aria-label="cap: $2050; value: 5.000000%; s: 105" role="graphics-symbol" aria-roledescription="circle" transform="translate(341.66666666666663,49.999999999999986)" d="M6,0A6,6,0,1,1,-6,0A6,6,0,1,1,6,0" fill="#36B7B4" stroke-width="2" opacity="0.7"/><path aria-label="cap: $1040; value: 2.000000%; s: 68.3" role="graphics-symbol" aria-roledescription="circle" transform="translate(173.33333333333334,200)" d="M5.388,0A5.388,5.388,0,1,1,-5.388,0A5.388,5.388,0,1,1,5.388,0" fill="#36B7B4" stroke-width="2" opacity="0.7"/><path aria-label="cap: $1956; value: 3.800000%; s: 46.1" role="graphics-symbol" aria-roledescription="circle" transform="translate(326,110.00000000000001)" d="M4.884,0A4.884,4.884,0,1,1,-4.884,0A4.884,4.884,0,1,1,4.884,0" fill="#36B7B4" stroke-width="2" opacity="0.7"/><path aria-label="cap: $210; value: 2.300000%; s: 43.6" role="graphics-symbol" aria-roledescription="circle" transform="translate(35,185)" d="M4.816,0A4.816,4.816,0,1,1,-4.816,0A4.816,4.816,0,1,1,4.816,0" fill="#36B7B4" stroke-width="2" opacity="0.7"/><path aria-label="cap: $260; value: 2.200000%; s: 37.6" role="graphics-symbol" aria-roledescription="circle" transform="translate(43.333333333333336,190)" d="M4.641,0A4.641,4.641,0,1,1,-4.641,0A4.641,4.641,0,1,1,4.641,0" fill="#36B7B4" stroke-width="2" opacity="0.7"/><path aria-label="cap: $603; value: 1.300000%; s: 36.2" role="graphics-symbol" aria-roledescription="circle" transform="translate(100.49999999999999,235)" d="M4.597,0A4.597,4.597,0,1,1,-4.597,0A4.597,4.597,0,1,1,4.597,0" fill="#36B7B4" stroke-width="2" opacity="0.7"/><path aria-label="cap: $750; value: 1.300000%; s: 28.4" role="graphics-symbol" aria-roledescription="circle" transform="translate(125,235)" d="M4.327,0A4.327,4.327,0,1,1,-4.327,0A4.327,4.327,0,1,1,4.327,0" fill="#36B7B4" stroke-width="2" opacity="0.7"/><path aria-label="cap: $1030; value: 1.600000%; s: 26.9" role="graphics-symbol" aria-roledescription="circle" transform="translate(171.66666666666666,220.00000000000003)" d="M4.269,0A4.269,4.269,0,1,1,-4.269,0A4.269,4.269,0,1,1,4.269,0" fill="#36B7B4" stroke-width="2" opacity="0.7"/><path aria-label="cap: $310; value: 3.100000%; s: 26.1" role="graphics-symbol" aria-roledescription="circle" transform="translate(51.66666666666667,144.99999999999997)" d="M4.236,0A4.236,4.236,0,1,1,-4.236,0A4.236,4.236,0,1,1,4.236,0" fill="#36B7B4" stroke-width="2" opacity="0.7"/><path aria-label="cap: $530; value: 1.500000%; s: 24.7" role="graphics-symbol" aria-roledescription="circle" transform="translate(88.33333333333333,225)" d="M4.178,0A4.178,4.178,0,1,1,-4.178,0A4.178,4.178,0,1,1,4.178,0" fill="#36B7B4" stroke-width="2" opacity="0.7"/><path aria-label="cap: $1190; value: 2.700000%; s: 20.8" role="graphics-symbol" aria-roledescription="circle" transform="translate(198.33333333333334,164.99999999999997)" d="M4.003,0A4.003,4.003,0,1,1,-4.003,0A4.003,4.003,0,1,1,4.003,0" fill="#36B7B4" stroke-width="2" opacity="0.7"/><path aria-label="cap: $1780; value: 3.700000%; s: 18.3" role="graphics-symbol" aria-roledescription="circle" transform="translate(296.6666666666667,114.99999999999996)" d="M3.877,0A3.877,3.877,0,1,1,-3.877,0A3.877,3.877,0,1,1,3.877,0" fill="#36B7B4" stroke-width="2" opacity="0.7"/><path aria-label="cap: $1890; value: 5.900000%; s: 17.6" role="graphics-symbol" aria-roledescription="circle" transform="translate(315,4.999999999999982)" d="M3.839,0A3.839,3.839,0,1,1,-3.839,0A3.839,3.839,0,1,1,3.839,0" fill="#36B7B4" stroke-width="2" opacity="0.7"/><path aria-label="cap: $450; value: 1.500000%; s: 17.1" role="graphics-symbol" aria-roledescription="circle" transform="translate(75,225)" d="M3.811,0A3.811,3.811,0,1,1,-3.811,0A3.811,3.811,0,1,1,3.811,0" fill="#36B7B4" stroke-width="2" opacity="0.7"/><path aria-label="cap: $1450; value: 3.600000%; s: 16.8" role="graphics-symbol" aria-roledescription="circle" transform="translate(241.66666666666666,119.99999999999997)" d="M3.795,0A3.795,3.795,0,1,1,-3.795,0A3.795,3.795,0,1,1,3.795,0" fill="#36B7B4" stroke-width="2" opacity="0.7"/><path aria-label="cap: $1730; value: 3.300000%; s: 15.6" role="graphics-symbol" aria-roledescription="circle" transform="translate(288.3333333333333,135)" d="M3.725,0A3.725,3.725,0,1,1,-3.725,0A3.725,3.725,0,1,1,3.725,0" fill="#36B7B4" stroke-width="2" opacity="0.7"/><path aria-label="cap: $1770; value: 3.300000%; s: 13.9" role="graphics-symbol" aria-roledescription="circle" transform="translate(295,135)" d="M3.619,0A3.619,3.619,0,1,1,-3.619,0A3.619,3.619,0,1,1,3.619,0" fill="#36B7B4" stroke-width="2" opacity="0.7"/><path aria-label="cap: $200; value: 1.300000%; s: 13.4" role="graphics-symbol" aria-roledescription="circle" transform="translate(33.33333333333333,235)" d="M3.586,0A3.586,3.586,0,1,1,-3.586,0A3.586,3.586,0,1,1,3.586,0" fill="#36B7B4" stroke-width="2" opacity="0.7"/><path aria-label="cap: $2300; value: 2.900000%; s: 11.7" role="graphics-symbol" aria-roledescription="circle" transform="translate(383.33333333333337,154.99999999999997)" d="M3.466,0A3.466,3.466,0,1,1,-3.466,0A3.466,3.466,0,1,1,3.466,0" fill="#36B7B4" stroke-width="2" opacity="0.7"/><path aria-label="cap: $360; value: 1.500000%; s: 11.1" role="graphics-symbol" aria-roledescription="circle" transform="translate(60,225)" d="M3.421,0A3.421,3.421,0,1,1,-3.421,0A3.421,3.421,0,1,1,3.421,0" fill="#36B7B4" stroke-width="2" opacity="0.7"/><path aria-label="cap: $39; value: 0.900000%; s: 10.6" role="graphics-symbol" aria-roledescription="circle" transform="translate(6.5,255)" d="M3.382,0A3.382,3.382,0,1,1,-3.382,0A3.382,3.382,0,1,1,3.382,0" fill="#36B7B4" stroke-width="2" opacity="0.7"/><path aria-label="cap: $77; value: 0.800000%; s: 10.1" role="graphics-symbol" aria-roledescription="circle" transform="translate(12.833333333333332,260)" d="M3.341,0A3.341,3.341,0,1,1,-3.341,0A3.341,3.341,0,1,1,3.341,0" fill="#36B7B4" stroke-width="2" opacity="0.7"/><path aria-label="cap: $1700; value: 3.300000%; s: 9.1" role="graphics-symbol" aria-roledescription="circle" transform="translate(283.33333333333337,135)" d="M3.255,0A3.255,3.255,0,1,1,-3.255,0A3.255,3.255,0,1,1,3.255,0" fill="#36B7B4" stroke-width="2" opacity="0.7"/><path aria-label="cap: $1500; value: 3.300000%; s: 8.2" role="graphics-symbol" aria-roledescription="circle" transform="translate(250,135)" d="M3.172,0A3.172,3.172,0,1,1,-3.172,0A3.172,3.172,0,1,1,3.172,0" fill="#36B7B4" stroke-width="2" opacity="0.7"/><path aria-label="cap: $680; value: 2.300000%; s: 7.1" role="graphics-symbol" aria-roledescription="circle" transform="translate(113.33333333333333,185)" d="M3.06,0A3.06,3.06,0,1,1,-3.06,0A3.06,3.06,0,1,1,3.06,0" fill="#36B7B4" stroke-width="2" opacity="0.7"/><path aria-label="cap: $65; value: 1.400000%; s: 6.8" role="graphics-symbol" aria-roledescription="circle" transform="translate(10.833333333333334,230.00000000000003)" d="M3.027,0A3.027,3.027,0,1,1,-3.027,0A3.027,3.027,0,1,1,3.027,0" fill="#36B7B4" stroke-width="2" opacity="0.7"/><path aria-label="cap: $120; value: 0.900000%; s: 6.6" role="graphics-symbol" aria-roledescription="circle" transform="translate(20,255)" d="M3.004,0A3.004,3.004,0,1,1,-3.004,0A3.004,3.004,0,1,1,3.004,0" fill="#36B7B4" stroke-width="2" opacity="0.7"/><path aria-label="cap: $1210; value: 2.400000%; s: 6.1" role="graphics-symbol" aria-roledescription="circle" transform="translate(201.66666666666666,180)" d="M2.946,0A2.946,2.946,0,1,1,-2.946,0A2.946,2.946,0,1,1,2.946,0" fill="#36B7B4" stroke-width="2" opacity="0.7"/><path aria-label="cap: $130; value: 0.600000%; s: 5.8" role="graphics-symbol" aria-roledescription="circle" transform="translate(21.666666666666668,270)" d="M2.909,0A2.909,2.909,0,1,1,-2.909,0A2.909,2.909,0,1,1,2.909,0" fill="#36B7B4" stroke-width="2" opacity="0.7"/><path aria-label="cap: $534; value: 1.700000%; s: 4.9" role="graphics-symbol" aria-roledescription="circle" transform="translate(89,214.99999999999997)" d="M2.789,0A2.789,2.789,0,1,1,-2.789,0A2.789,2.789,0,1,1,2.789,0" fill="#36B7B4" stroke-width="2" opacity="0.7"/><path aria-label="cap: $882; value: 1.400000%; s: 4.1" role="graphics-symbol" aria-roledescription="circle" transform="translate(147,230.00000000000003)" d="M2.667,0A2.667,2.667,0,1,1,-2.667,0A2.667,2.667,0,1,1,2.667,0" fill="#36B7B4" stroke-width="2" opacity="0.7"/><path aria-label="cap: $370; value: 1.700000%; s: 3.8" role="graphics-symbol" aria-roledescription="circle" transform="translate(61.66666666666667,214.99999999999997)" d="M2.617,0A2.617,2.617,0,1,1,-2.617,0A2.617,2.617,0,1,1,2.617,0" fill="#36B7B4" stroke-width="2" opacity="0.7"/><path aria-label="cap: $363; value: 1.700000%; s: 3.6" role="graphics-symbol" aria-roledescription="circle" transform="translate(60.5,214.99999999999997)" d="M2.582,0A2.582,2.582,0,1,1,-2.582,0A2.582,2.582,0,1,1,2.582,0" fill="#36B7B4" stroke-width="2" opacity="0.7"/><path aria-label="cap: $80; value: 1.900000%; s: 3.4" role="graphics-symbol" aria-roledescription="circle" transform="translate(13.333333333333334,205)" d="M2.545,0A2.545,2.545,0,1,1,-2.545,0A2.545,2.545,0,1,1,2.545,0" fill="#36B7B4" stroke-width="2" opacity="0.7"/><path aria-label="cap: $420; value: 1.100000%; s: 3.1" role="graphics-symbol" aria-roledescription="circle" transform="translate(70,245)" d="M2.487,0A2.487,2.487,0,1,1,-2.487,0A2.487,2.487,0,1,1,2.487,0" fill="#36B7B4" stroke-width="2" opacity="0.7"/><path aria-label="cap: $255; value: 1.800000%; s: 2.8" role="graphics-symbol" aria-roledescription="circle" transform="translate(42.5,210)" d="M2.425,0A2.425,2.425,0,1,1,-2.425,0A2.425,2.425,0,1,1,2.425,0" fill="#36B7B4" stroke-width="2" opacity="0.7"/><path aria-label="cap: $12; value: 0.700000%; s: 2.6" role="graphics-symbol" aria-roledescription="circle" transform="translate(2,265)" d="M2.38,0A2.38,2.38,0,1,1,-2.38,0A2.38,2.38,0,1,1,2.38,0" fill="#36B7B4" stroke-width="2" opacity="0.7"/><path aria-label="cap: $122; value: 0.600000%; s: 2.5" role="graphics-symbol" aria-roledescription="circle" transform="translate(20.333333333333332,270)" d="M2.357,0A2.357,2.357,0,1,1,-2.357,0A2.357,2.357,0,1,1,2.357,0" fill="#36B7B4" stroke-width="2" opacity="0.7"/><path aria-label="cap: $500; value: 1.700000%; s: 2.2" role="graphics-symbol" aria-roledescription="circle" transform="translate(83.33333333333334,214.99999999999997)" d="M2.283,0A2.283,2.283,0,1,1,-2.283,0A2.283,2.283,0,1,1,2.283,0" fill="#36B7B4" stroke-width="2" opacity="0.7"/><path aria-label="cap: $70; value: 0.600000%; s: 2.1" role="graphics-symbol" aria-roledescription="circle" transform="translate(11.666666666666666,270)" d="M2.256,0A2.256,2.256,0,1,1,-2.256,0A2.256,2.256,0,1,1,2.256,0" fill="#36B7B4" stroke-width="2" opacity="0.7"/><path aria-label="cap: $100; value: 0.400000%; s: 1.9" role="graphics-symbol" aria-roledescription="circle" transform="translate(16.666666666666664,280)" d="M2.201,0A2.201,2.201,0,1,1,-2.201,0A2.201,2.201,0,1,1,2.201,0" fill="#36B7B4" stroke-width="2" opacity="0.7"/><path aria-label="cap: $900; value: 2.200000%; s: 1.8" role="graphics-symbol" aria-roledescription="circle" transform="translate(150,190)" d="M2.171,0A2.171,2.171,0,1,1,-2.171,0A2.171,2.171,0,1,1,2.171,0" fill="#36B7B4" stroke-width="2" opacity="0.7"/><path aria-label="cap: $54; value: 0.800000%; s: 1.7" role="graphics-symbol" aria-roledescription="circle" transform="translate(9,260)" d="M2.14,0A2.14,2.14,0,1,1,-2.14,0A2.14,2.14,0,1,1,2.14,0" fill="#36B7B4" stroke-width="2" opacity="0.7"/><path aria-label="cap: $267; value: 1.000000%; s: 1.6" role="graphics-symbol" aria-roledescription="circle" transform="translate(44.5,249.99999999999997)" d="M2.108,0A2.108,2.108,0,1,1,-2.108,0A2.108,2.108,0,1,1,2.108,0" fill="#36B7B4" stroke-width="2" opacity="0.7"/><path aria-label="cap: $800; value: 0.600000%; s: 1.5" role="graphics-symbol" aria-roledescription="circle" transform="translate(133.33333333333331,270)" d="M2.074,0A2.074,2.074,0,1,1,-2.074,0A2.074,2.074,0,1,1,2.074,0" fill="#36B7B4" stroke-width="2" opacity="0.7"/><path aria-label="cap: $27; value: 0.300000%; s: 1.4" role="graphics-symbol" aria-roledescription="circle" transform="translate(4.5,285)" d="M2.039,0A2.039,2.039,0,1,1,-2.039,0A2.039,2.039,0,1,1,2.039,0" fill="#36B7B4" stroke-width="2" opacity="0.7"/><path aria-label="cap: $129; value: 0.600000%; s: 1.2" role="graphics-symbol" aria-roledescription="circle" transform="translate(21.5,270)" d="M1.962,0A1.962,1.962,0,1,1,-1.962,0A1.962,1.962,0,1,1,1.962,0" fill="#36B7B4" stroke-width="2" opacity="0.7"/><path aria-label="cap: $290; value: 0.500000%; s: 1.1" role="graphics-symbol" aria-roledescription="circle" transform="translate(48.333333333333336,275)" d="M1.919,0A1.919,1.919,0,1,1,-1.919,0A1.919,1.919,0,1,1,1.919,0" fill="#36B7B4" stroke-width="2" opacity="0.7"/><path aria-label="cap: $10; value: 0.400000%; s: 0.9" role="graphics-symbol" aria-roledescription="circle" transform="translate(1.6666666666666667,280)" d="M1.826,0A1.826,1.826,0,1,1,-1.826,0A1.826,1.826,0,1,1,1.826,0" fill="#36B7B4" stroke-width="2" opacity="0.7"/><path aria-label="cap: $125; value: 1.000000%; s: 0.9" role="graphics-symbol" aria-roledescription="circle" transform="translate(20.833333333333336,249.99999999999997)" d="M1.826,0A1.826,1.826,0,1,1,-1.826,0A1.826,1.826,0,1,1,1.826,0" fill="#36B7B4" stroke-width="2" opacity="0.7"/><path aria-label="cap: $57; value: 0.600000%; s: 0.9" role="graphics-symbol" aria-roledescription="circle" transform="translate(9.5,270)" d="M1.826,0A1.826,1.826,0,1,1,-1.826,0A1.826,1.826,0,1,1,1.826,0" fill="#36B7B4" stroke-width="2" opacity="0.7"/><path aria-label="cap: $10; value: 0.700000%; s: 0.9" role="graphics-symbol" aria-roledescription="circle" transform="translate(1.6666666666666667,265)" d="M1.826,0A1.826,1.826,0,1,1,-1.826,0A1.826,1.826,0,1,1,1.826,0" fill="#36B7B4" stroke-width="2" opacity="0.7"/><path aria-label="cap: $78; value: 0.900000%; s: 0.8" role="graphics-symbol" aria-roledescription="circle" transform="translate(13,255)" d="M1.773,0A1.773,1.773,0,1,1,-1.773,0A1.773,1.773,0,1,1,1.773,0" fill="#36B7B4" stroke-width="2" opacity="0.7"/><path aria-label="cap: $260; value: 1.400000%; s: 0.8" role="graphics-symbol" aria-roledescription="circle" transform="translate(43.333333333333336,230.00000000000003)" d="M1.773,0A1.773,1.773,0,1,1,-1.773,0A1.773,1.773,0,1,1,1.773,0" fill="#36B7B4" stroke-width="2" opacity="0.7"/><path aria-label="cap: $1400; value: 1.300000%; s: 0.8" role="graphics-symbol" aria-roledescription="circle" transform="translate(233.33333333333334,235)" d="M1.773,0A1.773,1.773,0,1,1,-1.773,0A1.773,1.773,0,1,1,1.773,0" fill="#36B7B4" stroke-width="2" opacity="0.7"/><path aria-label="cap: $190; value: 1.500000%; s: 0.8" role="graphics-symbol" aria-roledescription="circle" transform="translate(31.666666666666664,225)" d="M1.773,0A1.773,1.773,0,1,1,-1.773,0A1.773,1.773,0,1,1,1.773,0" fill="#36B7B4" stroke-width="2" opacity="0.7"/><path aria-label="cap: $101; value: 0.900000%; s: 0.7" role="graphics-symbol" aria-roledescription="circle" transform="translate(16.833333333333332,255)" d="M1.714,0A1.714,1.714,0,1,1,-1.714,0A1.714,1.714,0,1,1,1.714,0" fill="#36B7B4" stroke-width="2" opacity="0.7"/><path aria-label="cap: $10; value: 0.900000%; s: 0.7" role="graphics-symbol" aria-roledescription="circle" transform="translate(1.6666666666666667,255)" d="M1.714,0A1.714,1.714,0,1,1,-1.714,0A1.714,1.714,0,1,1,1.714,0" fill="#36B7B4" stroke-width="2" opacity="0.7"/><path aria-label="cap: $44; value: 0.200000%; s: 0.7" role="graphics-symbol" aria-roledescription="circle" transform="translate(7.333333333333333,290)" d="M1.714,0A1.714,1.714,0,1,1,-1.714,0A1.714,1.714,0,1,1,1.714,0" fill="#36B7B4" stroke-width="2" opacity="0.7"/><path aria-label="cap: $6; value: 0.400000%; s: 0.6" role="graphics-symbol" aria-roledescription="circle" transform="translate(1,280)" d="M1.65,0A1.65,1.65,0,1,1,-1.65,0A1.65,1.65,0,1,1,1.65,0" fill="#36B7B4" stroke-width="2" opacity="0.7"/><path aria-label="cap: $16; value: 0.300000%; s: 0.5" role="graphics-symbol" aria-roledescription="circle" transform="translate(2.666666666666667,285)" d="M1.576,0A1.576,1.576,0,1,1,-1.576,0A1.576,1.576,0,1,1,1.576,0" fill="#36B7B4" stroke-width="2" opacity="0.7"/><path aria-label="cap: $616; value: 2.400000%; s: 0.4" role="graphics-symbol" aria-roledescription="circle" transform="translate(102.66666666666666,180)" d="M1.491,0A1.491,1.491,0,1,1,-1.491,0A1.491,1.491,0,1,1,1.491,0" fill="#36B7B4" stroke-width="2" opacity="0.7"/><path aria-label="cap: $50; value: 0.300000%; s: 0.4" role="graphics-symbol" aria-roledescription="circle" transform="translate(8.333333333333332,285)" d="M1.491,0A1.491,1.491,0,1,1,-1.491,0A1.491,1.491,0,1,1,1.491,0" fill="#36B7B4" stroke-width="2" opacity="0.7"/><path aria-label="cap: $160; value: 1.000000%; s: 0.4" role="graphics-symbol" aria-roledescription="circle" transform="translate(26.666666666666668,249.99999999999997)" d="M1.491,0A1.491,1.491,0,1,1,-1.491,0A1.491,1.491,0,1,1,1.491,0" fill="#36B7B4" stroke-width="2" opacity="0.7"/><path aria-label="cap: $7; value: 0.500000%; s: 0.3" role="graphics-symbol" aria-roledescription="circle" transform="translate(1.1666666666666667,275)" d="M1.387,0A1.387,1.387,0,1,1,-1.387,0A1.387,1.387,0,1,1,1.387,0" fill="#36B7B4" stroke-width="2" opacity="0.7"/><path aria-label="cap: $68; value: 0.400000%; s: 0.3" role="graphics-symbol" aria-roledescription="circle" transform="translate(11.333333333333332,280)" d="M1.387,0A1.387,1.387,0,1,1,-1.387,0A1.387,1.387,0,1,1,1.387,0" fill="#36B7B4" stroke-width="2" opacity="0.7"/><path aria-label="cap: $860; value: 2.400000%; s: 0.3" role="graphics-symbol" aria-roledescription="circle" transform="translate(143.33333333333334,180)" d="M1.387,0A1.387,1.387,0,1,1,-1.387,0A1.387,1.387,0,1,1,1.387,0" fill="#36B7B4" stroke-width="2" opacity="0.7"/><path aria-label="cap: $82; value: 0.200000%; s: 0.3" role="graphics-symbol" aria-roledescription="circle" transform="translate(13.666666666666666,290)" d="M1.387,0A1.387,1.387,0,1,1,-1.387,0A1.387,1.387,0,1,1,1.387,0" fill="#36B7B4" stroke-width="2" opacity="0.7"/><path aria-label="cap: $110; value: 0.800000%; s: 0.3" role="graphics-symbol" aria-roledescription="circle" transform="translate(18.333333333333332,260)" d="M1.387,0A1.387,1.387,0,1,1,-1.387,0A1.387,1.387,0,1,1,1.387,0" fill="#36B7B4" stroke-width="2" opacity="0.7"/><path aria-label="cap: $7; value: 0.300000%; s: 0.3" role="graphics-symbol" aria-roledescription="circle" transform="translate(1.1666666666666667,285)" d="M1.387,0A1.387,1.387,0,1,1,-1.387,0A1.387,1.387,0,1,1,1.387,0" fill="#36B7B4" stroke-width="2" opacity="0.7"/><path aria-label="cap: $6; value: 0.800000%; s: 0.3" role="graphics-symbol" aria-roledescription="circle" transform="translate(1,260)" d="M1.387,0A1.387,1.387,0,1,1,-1.387,0A1.387,1.387,0,1,1,1.387,0" fill="#36B7B4" stroke-width="2" opacity="0.7"/><path aria-label="cap: $240; value: 1.300000%; s: 0.2" role="graphics-symbol" aria-roledescription="circle" transform="translate(40,235)" d="M1.253,0A1.253,1.253,0,1,1,-1.253,0A1.253,1.253,0,1,1,1.253,0" fill="#36B7B4" stroke-width="2" opacity="0.7"/><path aria-label="cap: $92; value: 0.700000%; s: 0.2" role="graphics-symbol" aria-roledescription="circle" transform="translate(15.333333333333332,265)" d="M1.253,0A1.253,1.253,0,1,1,-1.253,0A1.253,1.253,0,1,1,1.253,0" fill="#36B7B4" stroke-width="2" opacity="0.7"/><path aria-label="cap: $50; value: 0.500000%; s: 0.2" role="graphics-symbol" aria-roledescription="circle" transform="translate(8.333333333333332,275)" d="M1.253,0A1.253,1.253,0,1,1,-1.253,0A1.253,1.253,0,1,1,1.253,0" fill="#36B7B4" stroke-width="2" opacity="0.7"/><path aria-label="cap: $281; value: 0.600000%; s: 0.1" role="graphics-symbol" aria-roledescription="circle" transform="translate(46.833333333333336,270)" d="M1.054,0A1.054,1.054,0,1,1,-1.054,0A1.054,1.054,0,1,1,1.054,0" fill="#36B7B4" stroke-width="2" opacity="0.7"/><path aria-label="cap: $8; value: 0.200000%; s: 0.1" role="graphics-symbol" aria-roledescription="circle" transform="translate(1.3333333333333335,290)" d="M1.054,0A1.054,1.054,0,1,1,-1.054,0A1.054,1.054,0,1,1,1.054,0" fill="#36B7B4" stroke-width="2" opacity="0.7"/><path aria-label="cap: $41; value: 0.600000%; s: 0.1" role="graphics-symbol" aria-roledescription="circle" transform="translate(6.833333333333333,270)" d="M1.054,0A1.054,1.054,0,1,1,-1.054,0A1.054,1.054,0,1,1,1.054,0" fill="#36B7B4" stroke-width="2" opacity="0.7"/><path aria-label="cap: $28; value: 0.500000%; s: 0.1" role="graphics-symbol" aria-roledescription="circle" transform="translate(4.666666666666667,275)" d="M1.054,0A1.054,1.054,0,1,1,-1.054,0A1.054,1.054,0,1,1,1.054,0" fill="#36B7B4" stroke-width="2" opacity="0.7"/><path aria-label="cap: $129; value: 0.600000%; s: 0.1" role="graphics-symbol" aria-roledescription="circle" transform="translate(21.5,270)" d="M1.054,0A1.054,1.054,0,1,1,-1.054,0A1.054,1.054,0,1,1,1.054,0" fill="#36B7B4" stroke-width="2" opacity="0.7"/><path aria-label="cap: $18; value: 0.200000%; s: 0.1" role="graphics-symbol" aria-roledescription="circle" transform="translate(3,290)" d="M1.054,0A1.054,1.054,0,1,1,-1.054,0A1.054,1.054,0,1,1,1.054,0" fill="#36B7B4" stroke-width="2" opacity="0.7"/><path aria-label="cap: $53; value: 0.100000%; s: 0.1" role="graphics-symbol" aria-roledescription="circle" transform="translate(8.833333333333334,295)" d="M1.054,0A1.054,1.054,0,1,1,-1.054,0A1.054,1.054,0,1,1,1.054,0" fill="#36B7B4" stroke-width="2" opacity="0.7"/><path aria-label="cap: $10; value: 0.100000%; s: 0.1" role="graphics-symbol" aria-roledescription="circle" transform="translate(1.6666666666666667,295)" d="M1.054,0A1.054,1.054,0,1,1,-1.054,0A1.054,1.054,0,1,1,1.054,0" fill="#36B7B4" stroke-width="2" opacity="0.7"/><path aria-label="cap: $17; value: 0.300000%; s: 0.1" role="graphics-symbol" aria-roledescription="circle" transform="translate(2.833333333333333,285)" d="M1.054,0A1.054,1.054,0,1,1,-1.054,0A1.054,1.054,0,1,1,1.054,0" fill="#36B7B4" stroke-width="2" opacity="0.7"/><path aria-label="cap: $80; value: 0.600000%; s: 0.1" role="graphics-symbol" aria-roledescription="circle" transform="translate(13.333333333333334,270)" d="M1.054,0A1.054,1.054,0,1,1,-1.054,0A1.054,1.054,0,1,1,1.054,0" fill="#36B7B4" stroke-width="2" opacity="0.7"/></g><g class="mark-symbol role-mark layer_1_marks" role="graphics-object" aria-roledescription="symbol mark container"><path aria-label="cap: $810; value: 2.200000%" role="graphics-symbol" aria-roledescription="circle" transform="translate(135,190)" d="M2.739,0A2.739,2.739,0,1,1,-2.739,0A2.739,2.739,0,1,1,2.739,0" fill="#5C267B" stroke-width="2" opacity="0.7"/></g><g class="mark-text role-mark layer_2_marks" role="graphics-object" aria-roledescription="text mark container"><text aria-label="cap: $1965; value: 2.600000%; country: United States" role="graphics-symbol" aria-roledescription="text mark" text-anchor="middle" transform="translate(327.5,185)" font-family="Circular Std Book" font-size="10px" fill="#36B7B4">United States</text><text aria-label="cap: $384; value: 3.100000%; country: China" role="graphics-symbol" aria-roledescription="text mark" text-anchor="middle" transform="translate(64,159.99999999999997)" font-family="Circular Std Book" font-size="10px" fill="#36B7B4">China</text><text aria-label="cap: $113; value: 5.600000%; country: India" role="graphics-symbol" aria-roledescription="text mark" text-anchor="middle" transform="translate(18.833333333333332,35.00000000000003)" font-family="Circular Std Book" font-size="10px" fill="#36B7B4">India</text><text aria-label="cap: $2050; value: 5.000000%; country: South Korea" role="graphics-symbol" aria-roledescription="text mark" text-anchor="middle" transform="translate(341.66666666666663,64.99999999999999)" font-family="Circular Std Book" font-size="10px" fill="#36B7B4">South Korea</text><text aria-label="cap: $1956; value: 3.800000%; country: Taiwan" role="graphics-symbol" aria-roledescription="text mark" text-anchor="middle" transform="translate(326,125.00000000000001)" font-family="Circular Std Book" font-size="10px" fill="#36B7B4">Taiwan</text><text aria-label="cap: $260; value: 2.200000%; country: Russia" role="graphics-symbol" aria-roledescription="text mark" text-anchor="middle" transform="translate(43.333333333333336,205)" font-family="Circular Std Book" font-size="10px" fill="#36B7B4">Russia</text><text aria-label="cap: $1030; value: 1.600000%; country: Australia" role="graphics-symbol" aria-roledescription="text mark" text-anchor="middle" transform="translate(171.66666666666666,235.00000000000003)" font-family="Circular Std Book" font-size="10px" fill="#36B7B4">Australia</text><text aria-label="cap: $1190; value: 2.700000%; country: Netherlands" role="graphics-symbol" aria-roledescription="text mark" text-anchor="middle" transform="translate(198.33333333333334,179.99999999999997)" font-family="Circular Std Book" font-size="10px" fill="#36B7B4">Netherlands</text><text aria-label="cap: $1890; value: 5.900000%; country: Israel" role="graphics-symbol" aria-roledescription="text mark" text-anchor="middle" transform="translate(315,19.999999999999982)" font-family="Circular Std Book" font-size="10px" fill="#36B7B4">Israel</text><text aria-label="cap: $1450; value: 3.600000%; country: Belgium" role="graphics-symbol" aria-roledescription="text mark" text-anchor="middle" transform="translate(241.66666666666666,134.99999999999997)" font-family="Circular Std Book" font-size="10px" fill="#36B7B4">Belgium</text><text aria-label="cap: $1770; value: 3.300000%; country: Switzerland" role="graphics-symbol" aria-roledescription="text mark" text-anchor="middle" transform="translate(295,150)" font-family="Circular Std Book" font-size="10px" fill="#36B7B4">Switzerland</text><text aria-label="cap: $65; value: 1.400000%; country: Egypt" role="graphics-symbol" aria-roledescription="text mark" text-anchor="middle" transform="translate(10.833333333333334,245.00000000000003)" font-family="Circular Std Book" font-size="10px" fill="#36B7B4">Egypt</text><text aria-label="cap: $80; value: 1.900000%; country: Ukraine" role="graphics-symbol" aria-roledescription="text mark" text-anchor="middle" transform="translate(13.333333333333334,220)" font-family="Circular Std Book" font-size="10px" fill="#36B7B4">Ukraine</text><text aria-label="cap: $800; value: 0.600000%; country: Qatar" role="graphics-symbol" aria-roledescription="text mark" text-anchor="middle" transform="translate(133.33333333333331,285)" font-family="Circular Std Book" font-size="10px" fill="#36B7B4">Qatar</text><text aria-label="cap: $1400; value: 1.300000%; country: Luxembourg" role="graphics-symbol" aria-roledescription="text mark" text-anchor="middle" transform="translate(233.33333333333334,250)" font-family="Circular Std Book" font-size="10px" fill="#36B7B4">Luxembourg</text></g><g class="mark-text role-mark layer_3_marks" role="graphics-object" aria-roledescription="text mark container"><text aria-label="cap: $810; value: 2.200000%; country: United Kingdom" role="graphics-symbol" aria-roledescription="text mark" text-anchor="middle" transform="translate(135,206)" font-family="Circular Std Book" font-size="12px" fill="#5C267B">United Kingdom</text></g><g class="mark-group role-title"><g transform="translate(-19.110000610351562,-63)"><path class="background" aria-hidden="true" d="M0,0h0v0h0Z" pointer-events="none"/><g><g class="mark-text role-title-text" role="graphics-symbol" aria-roledescription="title" aria-label="Title text 'The UK is number 8 globally in terms of nominal R&amp;D expenditure but outside the top 20 when measured per capita or as % of GDP'" pointer-events="none"><text text-anchor="start" transform="translate(0,12)" font-family="Circular Std Book" font-size="15px" font-weight="bold" fill="#676A86dd" opacity="1"><tspan>The UK is number 8 globally in terms of nominal R&amp;D expenditure</tspan><tspan x="0" dy="17">but outside the top 20 when measured per capita or as % of GDP</tspan></text></g><g class="mark-text role-title-subtitle" role="graphics-symbol" aria-roledescription="subtitle" aria-label="Subtitle text 'Source: OECD, 2022'" pointer-events="none"><text text-anchor="start" transform="translate(0,401)" font-family="Circular Std Book" font-size="11px" fill="#676A86bb" opacity="1">Source: OECD, 2022</text></g></g><path class="foreground" aria-hidden="true" d="" pointer-events="none" display="none"/></g></g></g><path class="foreground" aria-hidden="true" d="" display="none"/></g></g></g></svg>