<svg xmlns="http://www.w3.org/2000/svg" xmlns:xlink="http://www.w3.org/1999/xlink" version="1.1" class="marks" width="557" height="413" viewBox="0 0 557 413"><rect width="557" height="413" fill="#122B39"/><g fill="none" stroke-miterlimit="10" transform="translate(151,68)"><g class="mark-group role-frame root" role="graphics-object" aria-roledescription="group mark container"><g transform="translate(0,0)"><path class="background" aria-hidden="true" d="M0,0h400v300h-400Z"/><g><g class="mark-group role-axis" aria-hidden="true"><g transform="translate(0.5,300.5)"><path class="background" aria-hidden="true" d="M0,0h0v0h0Z" pointer-events="none"/><g><g class="mark-rule role-axis-grid" pointer-events="none"><line transform="translate(0,0)" x2="0" y2="-300" stroke="#b4c8d8" stroke-opacity="0.5" stroke-width="1" stroke-dasharray="1,5" opacity="1"/><line transform="translate(29,0)" x2="0" y2="-300" stroke="#b4c8d8" stroke-opacity="0.5" stroke-width="1" stroke-dasharray="1,5" opacity="1"/><line transform="translate(57,0)" x2="0" y2="-300" stroke="#b4c8d8" stroke-opacity="0.5" stroke-width="1" stroke-dasharray="1,5" opacity="1"/><line transform="translate(86,0)" x2="0" y2="-300" stroke="#b4c8d8" stroke-opacity="0.5" stroke-width="1" stroke-dasharray="1,5" opacity="1"/><line transform="translate(114,0)" x2="0" y2="-300" stroke="#b4c8d8" stroke-opacity="0.5" stroke-width="1" stroke-dasharray="1,5" opacity="1"/><line transform="translate(143,0)" x2="0" y2="-300" stroke="#b4c8d8" stroke-opacity="0.5" stroke-width="1" stroke-dasharray="1,5" opacity="1"/><line transform="translate(171,0)" x2="0" y2="-300" stroke="#b4c8d8" stroke-opacity="0.5" stroke-width="1" stroke-dasharray="1,5" opacity="1"/><line transform="translate(200,0)" x2="0" y2="-300" stroke="#b4c8d8" stroke-opacity="0.5" stroke-width="1" stroke-dasharray="1,5" opacity="1"/><line transform="translate(229,0)" x2="0" y2="-300" stroke="#b4c8d8" stroke-opacity="0.5" stroke-width="1" stroke-dasharray="1,5" opacity="1"/><line transform="translate(257,0)" x2="0" y2="-300" stroke="#b4c8d8" stroke-opacity="0.5" stroke-width="1" stroke-dasharray="1,5" opacity="1"/><line transform="translate(286,0)" x2="0" y2="-300" stroke="#b4c8d8" stroke-opacity="0.5" stroke-width="1" stroke-dasharray="1,5" opacity="1"/><line transform="translate(314,0)" x2="0" y2="-300" stroke="#b4c8d8" stroke-opacity="0.5" stroke-width="1" stroke-dasharray="1,5" opacity="1"/><line transform="translate(343,0)" x2="0" y2="-300" stroke="#b4c8d8" stroke-opacity="0.5" stroke-width="1" stroke-dasharray="1,5" opacity="1"/><line transform="translate(371,0)" x2="0" y2="-300" stroke="#b4c8d8" stroke-opacity="0.5" stroke-width="1" stroke-dasharray="1,5" opacity="1"/><line transform="translate(400,0)" x2="0" y2="-300" stroke="#b4c8d8" stroke-opacity="0.5" stroke-width="1" stroke-dasharray="1,5" opacity="1"/></g></g><path class="foreground" aria-hidden="true" d="" pointer-events="none" display="none"/></g></g><g class="mark-group role-axis" role="graphics-symbol" aria-roledescription="axis" aria-label="X-axis for a linear scale with values from −6% to 22%"><g transform="translate(0.5,300.5)"><path class="background" aria-hidden="true" d="M0,0h0v0h0Z" pointer-events="none"/><g><g class="mark-rule role-axis-tick" pointer-events="none"><line transform="translate(0,0)" x2="0" y2="5" stroke="#b4c8d8" stroke-opacity="0.5" stroke-width="1" opacity="1"/><line transform="translate(29,0)" x2="0" y2="5" stroke="#b4c8d8" stroke-opacity="0.5" stroke-width="1" opacity="1"/><line transform="translate(57,0)" x2="0" y2="5" stroke="#b4c8d8" stroke-opacity="0.5" stroke-width="1" opacity="1"/><line transform="translate(86,0)" x2="0" y2="5" stroke="#b4c8d8" stroke-opacity="0.5" stroke-width="1" opacity="1"/><line transform="translate(114,0)" x2="0" y2="5" stroke="#b4c8d8" stroke-opacity="0.5" stroke-width="1" opacity="1"/><line transform="translate(143,0)" x2="0" y2="5" stroke="#b4c8d8" stroke-opacity="0.5" stroke-width="1" opacity="1"/><line transform="translate(171,0)" x2="0" y2="5" stroke="#b4c8d8" stroke-opacity="0.5" stroke-width="1" opacity="1"/><line transform="translate(200,0)" x2="0" y2="5" stroke="#b4c8d8" stroke-opacity="0.5" stroke-width="1" opacity="1"/><line transform="translate(229,0)" x2="0" y2="5" stroke="#b4c8d8" stroke-opacity="0.5" stroke-width="1" opacity="1"/><line transform="translate(257,0)" x2="0" y2="5" stroke="#b4c8d8" stroke-opacity="0.5" stroke-width="1" opacity="1"/><line transform="translate(286,0)" x2="0" y2="5" stroke="#b4c8d8" stroke-opacity="0.5" stroke-width="1" opacity="1"/><line transform="translate(314,0)" x2="0" y2="5" stroke="#b4c8d8" stroke-opacity="0.5" stroke-width="1" opacity="1"/><line transform="translate(343,0)" x2="0" y2="5" stroke="#b4c8d8" stroke-opacity="0.5" stroke-width="1" opacity="1"/><line transform="translate(371,0)" x2="0" y2="5" stroke="#b4c8d8" stroke-opacity="0.5" stroke-width="1" opacity="1"/><line transform="translate(400,0)" x2="0" y2="5" stroke="#b4c8d8" stroke-opacity="0.5" stroke-width="1" opacity="1"/></g><g class="mark-text role-axis-label" pointer-events="none"><text text-anchor="start" transform="translate(0,15)" font-family="Circular Std Book" font-size="10px" fill="#b4c8d8" fill-opacity="0.7" opacity="1">−6%</text><text text-anchor="middle" transform="translate(28.571428571428566,15)" font-family="Circular Std Book" font-size="10px" fill="#b4c8d8" fill-opacity="0.7" opacity="0">−4%</text><text text-anchor="middle" transform="translate(57.14285714285713,15)" font-family="Circular Std Book" font-size="10px" fill="#b4c8d8" fill-opacity="0.7" opacity="1">−2%</text><text text-anchor="middle" transform="translate(85.7142857142857,15)" font-family="Circular Std Book" font-size="10px" fill="#b4c8d8" fill-opacity="0.7" opacity="0">0%</text><text text-anchor="middle" transform="translate(114.28571428571428,15)" font-family="Circular Std Book" font-size="10px" fill="#b4c8d8" fill-opacity="0.7" opacity="1">2%</text><text text-anchor="middle" transform="translate(142.85714285714286,15)" font-family="Circular Std Book" font-size="10px" fill="#b4c8d8" fill-opacity="0.7" opacity="0">4%</text><text text-anchor="middle" transform="translate(171.4285714285714,15)" font-family="Circular Std Book" font-size="10px" fill="#b4c8d8" fill-opacity="0.7" opacity="1">6%</text><text text-anchor="middle" transform="translate(200,15)" font-family="Circular Std Book" font-size="10px" fill="#b4c8d8" fill-opacity="0.7" opacity="0">8%</text><text text-anchor="middle" transform="translate(228.57142857142856,15)" font-family="Circular Std Book" font-size="10px" fill="#b4c8d8" fill-opacity="0.7" opacity="1">10%</text><text text-anchor="middle" transform="translate(257.1428571428571,15)" font-family="Circular Std Book" font-size="10px" fill="#b4c8d8" fill-opacity="0.7" opacity="0">12%</text><text text-anchor="middle" transform="translate(285.7142857142857,15)" font-family="Circular Std Book" font-size="10px" fill="#b4c8d8" fill-opacity="0.7" opacity="1">14%</text><text text-anchor="middle" transform="translate(314.2857142857143,15)" font-family="Circular Std Book" font-size="10px" fill="#b4c8d8" fill-opacity="0.7" opacity="0">16%</text><text text-anchor="middle" transform="translate(342.8571428571428,15)" font-family="Circular Std Book" font-size="10px" fill="#b4c8d8" fill-opacity="0.7" opacity="1">18%</text><text text-anchor="middle" transform="translate(371.4285714285714,15)" font-family="Circular Std Book" font-size="10px" fill="#b4c8d8" fill-opacity="0.7" opacity="0">20%</text><text text-anchor="end" transform="translate(400,15)" font-family="Circular Std Book" font-size="10px" fill="#b4c8d8" fill-opacity="0.7" opacity="1">22%</text></g><g class="mark-rule role-axis-domain" pointer-events="none"><line transform="translate(0,0)" x2="400" y2="0" stroke="#b4c8d8" stroke-opacity="0.5" stroke-width="1" opacity="1"/></g></g><path class="foreground" aria-hidden="true" d="" pointer-events="none" display="none"/></g></g><g class="mark-group role-axis" role="graphics-symbol" aria-roledescription="axis" aria-label="Y-axis titled 'Gender pay gap for median gross hourly earnings for full-time employees' for a discrete scale with 12 values: Northern Ireland, Scotland, North East, Wales, North West, ending with South East"><g transform="translate(0.5,0.5)"><path class="background" aria-hidden="true" d="M0,0h0v0h0Z" pointer-events="none"/><g><g class="mark-text role-axis-label" pointer-events="none"><text text-anchor="end" transform="translate(-5,16)" font-family="Circular Std Book" font-size="12px" fill="#b4c8d8" fill-opacity="0.7" opacity="1">Northern Ireland</text><text text-anchor="end" transform="translate(-5,41)" font-family="Circular Std Book" font-size="12px" fill="#b4c8d8" fill-opacity="0.7" opacity="1">Scotland</text><text text-anchor="end" transform="translate(-5,66)" font-family="Circular Std Book" font-size="12px" fill="#b4c8d8" fill-opacity="0.7" opacity="1">North East</text><text text-anchor="end" transform="translate(-5,91)" font-family="Circular Std Book" font-size="12px" fill="#b4c8d8" fill-opacity="0.7" opacity="1">Wales</text><text text-anchor="end" transform="translate(-5,116)" font-family="Circular Std Book" font-size="12px" fill="#b4c8d8" fill-opacity="0.7" opacity="1">North West</text><text text-anchor="end" transform="translate(-5,141)" font-family="Circular Std Book" font-size="12px" fill="#b4c8d8" fill-opacity="0.7" opacity="1">Yorkshire and the Humber</text><text text-anchor="end" transform="translate(-5,166)" font-family="Circular Std Book" font-size="12px" fill="#b4c8d8" fill-opacity="0.7" opacity="1">South West</text><text text-anchor="end" transform="translate(-5,191)" font-family="Circular Std Book" font-size="12px" fill="#b4c8d8" fill-opacity="0.7" opacity="1">East</text><text text-anchor="end" transform="translate(-5,216)" font-family="Circular Std Book" font-size="12px" fill="#b4c8d8" fill-opacity="0.7" opacity="1">West Midlands</text><text text-anchor="end" transform="translate(-5,241)" font-family="Circular Std Book" font-size="12px" fill="#b4c8d8" fill-opacity="0.7" opacity="1">London</text><text text-anchor="end" transform="translate(-5,266)" font-family="Circular Std Book" font-size="12px" fill="#b4c8d8" fill-opacity="0.7" opacity="1">East Midlands</text><text text-anchor="end" transform="translate(-5,291)" font-family="Circular Std Book" font-size="12px" fill="#b4c8d8" fill-opacity="0.7" opacity="1">South East</text></g><g class="mark-rule role-axis-domain" pointer-events="none"><line transform="translate(0,0)" x2="0" y2="300" stroke="#b4c8d8" stroke-opacity="0.5" stroke-width="1" opacity="1"/></g><g class="mark-text role-axis-title" pointer-events="none"><text text-anchor="start" transform="translate(0,-10)" font-family="Circular Std Book" font-size="12px" font-weight="normal" fill="#b4c8d8" fill-opacity="0.8" opacity="1">Gender pay gap for median gross hourly earnings for full-time employees</text></g></g><path class="foreground" aria-hidden="true" d="" pointer-events="none" display="none"/></g></g><g class="mark-rule role-mark layer_0_marks" role="graphics-object" aria-roledescription="rule mark container"><line aria-label="v97: 0.165; region: Northern Ireland; v22: −0.0462942758621" role="graphics-symbol" aria-roledescription="rule mark" transform="translate(321.4285714285714,12.5)" x2="-301.84896551724137" y2="0" stroke="#36B7B4" stroke-width="2"/><line aria-label="v97: 0.184; region: Scotland; v22: 0.0366494002179" role="graphics-symbol" aria-roledescription="rule mark" transform="translate(348.57142857142856,37.5)" x2="-210.50085683159045" y2="0" stroke="#36B7B4" stroke-width="2"/><line aria-label="v97: 0.189; region: North East; v22: 0.0576832666667" role="graphics-symbol" aria-roledescription="rule mark" transform="translate(355.71428571428567,62.5)" x2="-187.59533333333343" y2="0" stroke="#36B7B4" stroke-width="2"/><line aria-label="v97: 0.175; region: Wales; v22: 0.0605067605412" role="graphics-symbol" aria-roledescription="rule mark" transform="translate(335.71428571428567,87.5)" x2="-163.56177065541578" y2="0" stroke="#36B7B4" stroke-width="2"/><line aria-label="v97: 0.197; region: North West; v22: 0.0921621150839" role="graphics-symbol" aria-roledescription="rule mark" transform="translate(367.1428571428571,112.5)" x2="-149.76840702297423" y2="0" stroke="#36B7B4" stroke-width="2"/><line aria-label="v97: 0.176; region: Yorkshire and the Humber; v22: 0.103743313284" role="graphics-symbol" aria-roledescription="rule mark" transform="translate(337.1428571428571,137.5)" x2="-103.22383816565696" y2="0" stroke="#36B7B4" stroke-width="2"/><line aria-label="v97: 0.213; region: South West; v22: 0.104997121658" role="graphics-symbol" aria-roledescription="rule mark" transform="translate(390,162.5)" x2="-154.28982620351132" y2="0" stroke="#36B7B4" stroke-width="2"/><line aria-label="v97: 0.177; region: East; v22: 0.105149079199" role="graphics-symbol" aria-roledescription="rule mark" transform="translate(338.5714285714285,187.5)" x2="-102.64417257353318" y2="0" stroke="#36B7B4" stroke-width="2"/><line aria-label="v97: 0.197; region: West Midlands; v22: 0.108288672379" role="graphics-symbol" aria-roledescription="rule mark" transform="translate(367.1428571428571,212.5)" x2="-126.73046802997078" y2="0" stroke="#36B7B4" stroke-width="2"/><line aria-label="v97: 0.151; region: London; v22: 0.112357512256" role="graphics-symbol" aria-roledescription="rule mark" transform="translate(301.4285714285714,237.5)" x2="-55.20355391999283" y2="0" stroke="#36B7B4" stroke-width="2"/><line aria-label="v97: 0.207; region: East Midlands; v22: 0.116479095119" role="graphics-symbol" aria-roledescription="rule mark" transform="translate(381.4285714285714,262.5)" x2="-129.31557840173824" y2="0" stroke="#36B7B4" stroke-width="2"/><line aria-label="v97: 0.201; region: South East; v22: 0.124865347891" role="graphics-symbol" aria-roledescription="rule mark" transform="translate(372.85714285714283,287.5)" x2="-108.76378872655283" y2="0" stroke="#36B7B4" stroke-width="2"/></g><g class="mark-symbol role-mark layer_1_marks" role="graphics-object" aria-roledescription="symbol mark container"><path aria-label="v22: −5%; region: Northern Ireland" role="graphics-symbol" aria-roledescription="point" transform="translate(19.579605911330024,12.5) rotate(30)" d="M0,-5.164L-4.472,2.582L4.472,2.582Z" fill="#36B7B4" stroke="#36B7B4" stroke-width="2" opacity="1"/><path aria-label="v22: 4%; region: Scotland" role="graphics-symbol" aria-roledescription="point" transform="translate(138.0705717398381,37.5) rotate(30)" d="M0,-5.164L-4.472,2.582L4.472,2.582Z" fill="#36B7B4" stroke="#36B7B4" stroke-width="2" opacity="1"/><path aria-label="v22: 6%; region: North East" role="graphics-symbol" aria-roledescription="point" transform="translate(168.11895238095224,62.5) rotate(30)" d="M0,-5.164L-4.472,2.582L4.472,2.582Z" fill="#36B7B4" stroke="#36B7B4" stroke-width="2" opacity="1"/><path aria-label="v22: 6%; region: Wales" role="graphics-symbol" aria-roledescription="point" transform="translate(172.15251505886988,87.5) rotate(30)" d="M0,-5.164L-4.472,2.582L4.472,2.582Z" fill="#36B7B4" stroke="#36B7B4" stroke-width="2" opacity="1"/><path aria-label="v22: 9%; region: North West" role="graphics-symbol" aria-roledescription="point" transform="translate(217.37445011988288,112.5) rotate(30)" d="M0,-5.164L-4.472,2.582L4.472,2.582Z" fill="#36B7B4" stroke="#36B7B4" stroke-width="2" opacity="1"/><path aria-label="v22: 10%; region: Yorkshire and the Humber" role="graphics-symbol" aria-roledescription="point" transform="translate(233.91901897720015,137.5) rotate(30)" d="M0,-5.164L-4.472,2.582L4.472,2.582Z" fill="#36B7B4" stroke="#36B7B4" stroke-width="2" opacity="1"/><path aria-label="v22: 10%; region: South West" role="graphics-symbol" aria-roledescription="point" transform="translate(235.71017379648868,162.5) rotate(30)" d="M0,-5.164L-4.472,2.582L4.472,2.582Z" fill="#36B7B4" stroke="#36B7B4" stroke-width="2" opacity="1"/><path aria-label="v22: 11%; region: East" role="graphics-symbol" aria-roledescription="point" transform="translate(235.92725599789532,187.5) rotate(30)" d="M0,-5.164L-4.472,2.582L4.472,2.582Z" fill="#36B7B4" stroke="#36B7B4" stroke-width="2" opacity="1"/><path aria-label="v22: 11%; region: West Midlands" role="graphics-symbol" aria-roledescription="point" transform="translate(240.41238911288633,212.5) rotate(30)" d="M0,-5.164L-4.472,2.582L4.472,2.582Z" fill="#36B7B4" stroke="#36B7B4" stroke-width="2" opacity="1"/><path aria-label="v22: 11%; region: London" role="graphics-symbol" aria-roledescription="point" transform="translate(246.22501750857856,237.5) rotate(30)" d="M0,-5.164L-4.472,2.582L4.472,2.582Z" fill="#36B7B4" stroke="#36B7B4" stroke-width="2" opacity="1"/><path aria-label="v22: 12%; region: East Midlands" role="graphics-symbol" aria-roledescription="point" transform="translate(252.11299302683315,262.5) rotate(30)" d="M0,-5.164L-4.472,2.582L4.472,2.582Z" fill="#36B7B4" stroke="#36B7B4" stroke-width="2" opacity="1"/><path aria-label="v22: 12%; region: South East" role="graphics-symbol" aria-roledescription="point" transform="translate(264.09335413059,287.5) rotate(30)" d="M0,-5.164L-4.472,2.582L4.472,2.582Z" fill="#36B7B4" stroke="#36B7B4" stroke-width="2" opacity="1"/></g><g class="mark-rule role-mark layer_2_marks" role="graphics-object" aria-roledescription="rule mark container"><line aria-label="x: 0" role="graphics-symbol" aria-roledescription="rule mark" transform="translate(85.7142857142857,0)" x2="0" y2="300" stroke="#b4c8d8" stroke-width="3" opacity="0.3"/></g><g class="mark-symbol role-mark layer_3_marks" role="graphics-object" aria-roledescription="symbol mark container"><path aria-label="v97: 0.165; region: Northern Ireland" role="graphics-symbol" aria-roledescription="circle" transform="translate(321.4285714285714,12.5)" d="M5,0A5,5,0,1,1,-5,0A5,5,0,1,1,5,0" fill="#F4134D" stroke-width="2" opacity="1"/><path aria-label="v97: 0.184; region: Scotland" role="graphics-symbol" aria-roledescription="circle" transform="translate(348.57142857142856,37.5)" d="M5,0A5,5,0,1,1,-5,0A5,5,0,1,1,5,0" fill="#F4134D" stroke-width="2" opacity="1"/><path aria-label="v97: 0.189; region: North East" role="graphics-symbol" aria-roledescription="circle" transform="translate(355.71428571428567,62.5)" d="M5,0A5,5,0,1,1,-5,0A5,5,0,1,1,5,0" fill="#F4134D" stroke-width="2" opacity="1"/><path aria-label="v97: 0.175; region: Wales" role="graphics-symbol" aria-roledescription="circle" transform="translate(335.71428571428567,87.5)" d="M5,0A5,5,0,1,1,-5,0A5,5,0,1,1,5,0" fill="#F4134D" stroke-width="2" opacity="1"/><path aria-label="v97: 0.197; region: North West" role="graphics-symbol" aria-roledescription="circle" transform="translate(367.1428571428571,112.5)" d="M5,0A5,5,0,1,1,-5,0A5,5,0,1,1,5,0" fill="#F4134D" stroke-width="2" opacity="1"/><path aria-label="v97: 0.176; region: Yorkshire and the Humber" role="graphics-symbol" aria-roledescription="circle" transform="translate(337.1428571428571,137.5)" d="M5,0A5,5,0,1,1,-5,0A5,5,0,1,1,5,0" fill="#F4134D" stroke-width="2" opacity="1"/><path aria-label="v97: 0.213; region: South West" role="graphics-symbol" aria-roledescription="circle" transform="translate(390,162.5)" d="M5,0A5,5,0,1,1,-5,0A5,5,0,1,1,5,0" fill="#F4134D" stroke-width="2" opacity="1"/><path aria-label="v97: 0.177; region: East" role="graphics-symbol" aria-roledescription="circle" transform="translate(338.5714285714285,187.5)" d="M5,0A5,5,0,1,1,-5,0A5,5,0,1,1,5,0" fill="#F4134D" stroke-width="2" opacity="1"/><path aria-label="v97: 0.197; region: West Midlands" role="graphics-symbol" aria-roledescription="circle" transform="translate(367.1428571428571,212.5)" d="M5,0A5,5,0,1,1,-5,0A5,5,0,1,1,5,0" fill="#F4134D" stroke-width="2" opacity="1"/><path aria-label="v97: 0.151; region: London" role="graphics-symbol" aria-roledescription="circle" transform="translate(301.4285714285714,237.5)" d="M5,0A5,5,0,1,1,-5,0A5,5,0,1,1,5,0" fill="#F4134D" stroke-width="2" opacity="1"/><path aria-label="v97: 0.207; region: East Midlands" role="graphics-symbol" aria-roledescription="circle" transform="translate(381.4285714285714,262.5)" d="M5,0A5,5,0,1,1,-5,0A5,5,0,1,1,5,0" fill="#F4134D" stroke-width="2" opacity="1"/><path aria-label="v97: 0.201; region: South East" role="graphics-symbol" aria-roledescription="circle" transform="translate(372.85714285714283,287.5)" d="M5,0A5,5,0,1,1,-5,0A5,5,0,1,1,5,0" fill="#F4134D" stroke-width="2" opacity="1"/></g><g class="mark-text role-mark layer_4_marks" role="graphics-object" aria-roledescription="text mark container"><text aria-label="x: −0.04; region: South East; t: women ←      → men,earn more     earn more" role="graphics-symbol" aria-roledescription="text mark" text-anchor="start" transform="translate(28.571428571428566,280.5)" font-family="Circular Std Book" font-size="11px" fill="#b4c8d8" opacity="0.7"><tspan>women ←      → men</tspan><tspan x="0" dy="13">earn more     earn more</tspan></text></g><g class="mark-text role-mark layer_5_marks" role="graphics-object" aria-roledescription="text mark container"><text aria-label="x: 0.157; region: London; t: 1997" role="graphics-symbol" aria-roledescription="text mark" text-anchor="start" transform="translate(309.99999999999994,240.5)" font-family="Circular Std Book" font-size="11px" fill="#F4134D">1997</text><text aria-label="x: 0.088; region: London; t: 2022" role="graphics-symbol" aria-roledescription="text mark" text-anchor="start" transform="translate(211.4285714285714,240.5)" font-family="Circular Std Book" font-size="11px" fill="#36B7B4">2022</text></g><g class="mark-group role-title"><g transform="translate(-145.495849609375,-63)"><path class="background" aria-hidden="true" d="M0,0h0v0h0Z" pointer-events="none"/><g><g class="mark-text role-title-text" role="graphics-symbol" aria-roledescription="title" aria-label="Title text 'The gender pay gap has reduced subtantially in the past 25 years, especially in Northern Ireland and Scotland'" pointer-events="none"><text text-anchor="start" transform="translate(145,12)" font-family="Circular Std Book" font-size="15px" font-weight="bold" fill="#b4c8d8dd" opacity="1"><tspan>The gender pay gap has reduced subtantially in the past</tspan><tspan x="0" dy="17">25 years, especially in Northern Ireland and Scotland</tspan></text></g><g class="mark-text role-title-subtitle" role="graphics-symbol" aria-roledescription="subtitle" aria-label="Subtitle text 'Source: Office for National Statistics, UK, 2022'" pointer-events="none"><text text-anchor="start" transform="translate(145,401)" font-family="Circular Std Book" font-size="11px" fill="#b4c8d8bb" opacity="1">Source: Office for National Statistics, UK, 2022</text></g></g><path class="foreground" aria-hidden="true" d="" pointer-events="none" display="none"/></g></g></g><path class="foreground" aria-hidden="true" d="" display="none"/></g></g></g></svg>