<svg xmlns="http://www.w3.org/2000/svg" xmlns:xlink="http://www.w3.org/1999/xlink" version="1.1" class="marks" width="437" height="343" viewBox="0 0 437 343"><rect width="437" height="343" fill="white"/><g fill="none" stroke-miterlimit="10" transform="translate(30,21)"><g class="mark-group role-frame root" role="graphics-object" aria-roledescription="group mark container"><g transform="translate(0,0)"><path class="background" aria-hidden="true" d="M0,0h400v300h-400Z"/><g><g class="mark-group role-axis" role="graphics-symbol" aria-roledescription="axis" aria-label="X-axis for a time scale with values from Thursday, 01 January 1998, 12:00:00 AM to Thursday, 01 December 2022, 12:00:00 AM"><g transform="translate(0.5,300.5)"><path class="background" aria-hidden="true" d="M0,0h0v0h0Z" pointer-events="none"/><g><g class="mark-rule role-axis-tick" pointer-events="none"><line transform="translate(0,0)" x2="0" y2="5" stroke="#676A86" stroke-width="1" opacity="1"/><line transform="translate(32,0)" x2="0" y2="5" stroke="#676A86" stroke-width="1" opacity="1"/><line transform="translate(64,0)" x2="0" y2="5" stroke="#676A86" stroke-width="1" opacity="1"/><line transform="translate(96,0)" x2="0" y2="5" stroke="#676A86" stroke-width="1" opacity="1"/><line transform="translate(128,0)" x2="0" y2="5" stroke="#676A86" stroke-width="1" opacity="1"/><line transform="translate(161,0)" x2="0" y2="5" stroke="#676A86" stroke-width="1" opacity="1"/><line transform="translate(193,0)" x2="0" y2="5" stroke="#676A86" stroke-width="1" opacity="1"/><line transform="translate(225,0)" x2="0" y2="5" stroke="#676A86" stroke-width="1" opacity="1"/><line transform="translate(257,0)" x2="0" y2="5" stroke="#676A86" stroke-width="1" opacity="1"/><line transform="translate(289,0)" x2="0" y2="5" stroke="#676A86" stroke-width="1" opacity="1"/><line transform="translate(321,0)" x2="0" y2="5" stroke="#676A86" stroke-width="1" opacity="1"/><line transform="translate(353,0)" x2="0" y2="5" stroke="#676A86" stroke-width="1" opacity="1"/><line transform="translate(385,0)" x2="0" y2="5" stroke="#676A86" stroke-width="1" opacity="1"/></g><g class="mark-text role-axis-label" pointer-events="none"><text text-anchor="start" transform="translate(0,15)" font-family="sans-serif" font-size="10px" fill="#676A86" opacity="1">1998</text><text text-anchor="middle" transform="translate(32.08791208791209,15)" font-family="sans-serif" font-size="10px" fill="#676A86" opacity="0">2000</text><text text-anchor="middle" transform="translate(64.21978021978022,15)" font-family="sans-serif" font-size="10px" fill="#676A86" opacity="1">2002</text><text text-anchor="middle" transform="translate(96.3076923076923,15)" font-family="sans-serif" font-size="10px" fill="#676A86" opacity="0">2004</text><text text-anchor="middle" transform="translate(128.43956043956044,15)" font-family="sans-serif" font-size="10px" fill="#676A86" opacity="1">2006</text><text text-anchor="middle" transform="translate(160.52747252747253,15)" font-family="sans-serif" font-size="10px" fill="#676A86" opacity="0">2008</text><text text-anchor="middle" transform="translate(192.65934065934064,15)" font-family="sans-serif" font-size="10px" fill="#676A86" opacity="1">2010</text><text text-anchor="middle" transform="translate(224.74725274725276,15)" font-family="sans-serif" font-size="10px" fill="#676A86" opacity="0">2012</text><text text-anchor="middle" transform="translate(256.8791208791209,15)" font-family="sans-serif" font-size="10px" fill="#676A86" opacity="1">2014</text><text text-anchor="middle" transform="translate(288.967032967033,15)" font-family="sans-serif" font-size="10px" fill="#676A86" opacity="0">2016</text><text text-anchor="middle" transform="translate(321.09890109890114,15)" font-family="sans-serif" font-size="10px" fill="#676A86" opacity="1">2018</text><text text-anchor="middle" transform="translate(353.1868131868132,15)" font-family="sans-serif" font-size="10px" fill="#676A86" opacity="0">2020</text><text text-anchor="middle" transform="translate(385.3186813186813,15)" font-family="sans-serif" font-size="10px" fill="#676A86" opacity="1">2022</text></g><g class="mark-rule role-axis-domain" pointer-events="none"><line transform="translate(0,0)" x2="400" y2="0" stroke="#676A86" stroke-width="1" opacity="1"/></g></g><path class="foreground" aria-hidden="true" d="" pointer-events="none" display="none"/></g></g><g class="mark-group role-axis" role="graphics-symbol" aria-roledescription="axis" aria-label="Y-axis titled 'Index (2007 = 100)' for a linear scale with values from 70 to 140"><g transform="translate(0.5,0.5)"><path class="background" aria-hidden="true" d="M0,0h0v0h0Z" pointer-events="none"/><g><g class="mark-rule role-axis-tick" pointer-events="none"><line transform="translate(0,300)" x2="-5" y2="0" stroke="#676A86" stroke-width="1" opacity="1"/><line transform="translate(0,257)" x2="-5" y2="0" stroke="#676A86" stroke-width="1" opacity="1"/><line transform="translate(0,214)" x2="-5" y2="0" stroke="#676A86" stroke-width="1" opacity="1"/><line transform="translate(0,171)" x2="-5" y2="0" stroke="#676A86" stroke-width="1" opacity="1"/><line transform="translate(0,129)" x2="-5" y2="0" stroke="#676A86" stroke-width="1" opacity="1"/><line transform="translate(0,86)" x2="-5" y2="0" stroke="#676A86" stroke-width="1" opacity="1"/><line transform="translate(0,43)" x2="-5" y2="0" stroke="#676A86" stroke-width="1" opacity="1"/><line transform="translate(0,0)" x2="-5" y2="0" stroke="#676A86" stroke-width="1" opacity="1"/></g><g class="mark-text role-axis-label" pointer-events="none"><text text-anchor="end" transform="translate(-7,303)" font-family="sans-serif" font-size="10px" fill="#676A86" opacity="1">70</text><text text-anchor="end" transform="translate(-7,260.14285714285717)" font-family="sans-serif" font-size="10px" fill="#676A86" opacity="1">80</text><text text-anchor="end" transform="translate(-7,217.28571428571428)" font-family="sans-serif" font-size="10px" fill="#676A86" opacity="1">90</text><text text-anchor="end" transform="translate(-7,174.42857142857142)" font-family="sans-serif" font-size="10px" fill="#676A86" opacity="1">100</text><text text-anchor="end" transform="translate(-7,131.57142857142858)" font-family="sans-serif" font-size="10px" fill="#676A86" opacity="1">110</text><text text-anchor="end" transform="translate(-7,88.71428571428571)" font-family="sans-serif" font-size="10px" fill="#676A86" opacity="1">120</text><text text-anchor="end" transform="translate(-7,45.85714285714287)" font-family="sans-serif" font-size="10px" fill="#676A86" opacity="1">130</text><text text-anchor="end" transform="translate(-7,3)" font-family="sans-serif" font-size="10px" fill="#676A86" opacity="1">140</text></g><g class="mark-rule role-axis-domain" pointer-events="none"><line transform="translate(0,300)" x2="0" y2="-300" stroke="#676A86" stroke-width="1" opacity="1"/></g><g class="mark-text role-axis-title" pointer-events="none"><text text-anchor="start" transform="translate(-5,-7)" font-family="sans-serif" font-size="11px" font-weight="bold" fill="#676A86" opacity="1">Index (2007 = 100)</text></g></g><path class="foreground" aria-hidden="true" d="" pointer-events="none" display="none"/></g></g><g class="mark-line role-mark layer_0_marks" role="graphics-object" aria-roledescription="line mark container"><path aria-label="x: Mar 01, 1998; y: 100" role="graphics-symbol" aria-roledescription="line mark" d="M2.593,171.429L400,171.429" stroke="#676A86" stroke-width="1" opacity="0.4"/></g><g class="mark-line role-mark layer_1_marks" role="graphics-object" aria-roledescription="line mark container"><path aria-label="x: Jan 01, 2007; y: 70" role="graphics-symbol" aria-roledescription="line mark" d="M144.484,300L144.484,0" stroke="#676A86" stroke-width="1" opacity="0.4"/></g><g class="mark-line role-mark layer_2_marks" role="graphics-object" aria-roledescription="line mark container"><path aria-label="x: Jan 01, 1998; y: 84.03" role="graphics-symbol" aria-roledescription="line mark" d="M0,239.871L400,53.7" stroke="#179FDB" stroke-width="2" stroke-dasharray="5,5"/></g><g class="mark-line role-mark layer_3_marks" role="graphics-object" aria-roledescription="line mark container"><path aria-label="x: Jan 01, 1998; y: 82.679528403" role="graphics-symbol" aria-roledescription="line mark" d="M0,245.659L400,44.051" stroke="#E54753" stroke-width="2" stroke-dasharray="5,5"/></g><g class="mark-line role-mark layer_4_marks" role="graphics-object" aria-roledescription="line mark container"><path aria-label="year: Mar 01, 1998; sc2: 85.484438249" role="graphics-symbol" aria-roledescription="line mark" d="M2.593,233.638L6.637,232.081L10.681,232.468L14.681,231.272L18.637,231.046L22.681,231.124L26.725,229.788L30.725,225.185L34.725,221.083L38.769,220.438L42.813,220.335L46.813,221.059L50.769,220.103L54.813,220.669L58.857,217.099L62.857,211.139L66.813,212.242L70.857,211.413L74.901,207.607L78.901,206.649L82.857,204.237L86.901,200.238L90.945,195.239L94.945,195.435L98.945,191.287L102.989,190.108L107.033,190.5L111.033,185.92L114.989,187.772L119.033,187.236L123.077,184.327L127.077,178.83L131.033,176.511L135.077,173.34L139.121,173.947L143.121,169.937L147.077,169.283L151.121,173.518L155.165,173.364L159.165,169.549L163.165,164.502L167.209,162.847L171.253,168.77L175.253,175.379L179.209,179.446L183.253,183.094L187.297,180.976L191.297,180.621L195.253,179.162L199.297,175.336L203.341,173.561L207.341,176.545L211.297,173.878L215.341,172.593L219.385,171.302L223.385,169.422L227.385,165.319L231.429,166.278L235.473,165.384L239.473,162.243L243.429,162.667L247.473,158.913L251.516,156.082L255.516,154.123L259.473,150.662L263.516,146.813L267.56,143.431L271.56,143.039L275.516,140.754L279.56,142.35L283.604,144.32L287.604,144.03L291.604,143.877L295.648,144.747L299.692,141.694L303.692,143.672L307.648,139.26L311.692,136.841L315.736,133.547L319.736,132.972L323.692,133.877L327.736,131.649L331.78,133.843L335.78,135.541L339.736,133.626L343.78,131.5L347.824,130.419L351.824,129.935L355.824,144.338L359.868,245.273L363.912,186.092L367.912,179.503L371.868,184.038L375.912,154.886L379.956,145.592L383.956,135.284L387.912,131.965L391.956,131.761L396,132.354L400,132.049" stroke="#179FDB" stroke-width="2"/></g><g class="mark-line role-mark layer_5_marks" role="graphics-object" aria-roledescription="line mark container"><path aria-label="year: Mar 01, 1998; uk2: 82.3970037453" role="graphics-symbol" aria-roledescription="line mark" d="M2.593,246.87L6.637,245.494L10.681,244.577L14.681,242.742L18.637,240.449L22.681,239.074L26.725,233.57L30.725,228.526L34.725,224.398L38.769,222.105L42.813,220.729L46.813,219.353L50.769,216.602L54.813,215.684L58.857,214.309L62.857,213.85L66.813,212.933L70.857,211.557L74.901,209.264L78.901,206.054L82.857,204.219L86.901,201.468L90.945,197.799L94.945,195.506L98.945,194.13L102.989,192.295L107.033,192.295L111.033,191.837L114.989,189.544L119.033,186.333L123.077,183.582L127.077,179.913L131.033,178.996L135.077,178.996L139.121,178.996L143.121,178.078L147.077,174.41L151.121,172.575L155.165,170.282L159.165,168.448L163.165,167.072L167.209,170.282L171.253,177.161L175.253,187.709L179.209,196.423L183.253,198.257L187.297,198.257L191.297,197.799L195.253,195.047L199.297,190.92L203.341,189.085L207.341,189.544L211.297,189.544L215.341,190.002L219.385,190.002L223.385,190.92L227.385,188.168L231.429,189.085L235.473,184.499L239.473,185.875L243.429,185.416L247.473,183.123L251.516,180.83L255.516,178.996L259.473,175.785L263.516,173.034L267.56,170.741L271.56,168.448L275.516,167.53L279.56,165.696L283.604,164.779L287.604,162.486L291.604,162.027L295.648,160.193L299.692,158.817L303.692,156.524L307.648,153.772L311.692,151.938L315.736,150.562L319.736,148.269L323.692,148.269L327.736,146.893L331.78,145.058L335.78,144.6L339.736,142.307L343.78,142.307L347.824,140.014L351.824,140.931L355.824,153.313L359.868,247.329L363.912,189.544L367.912,184.958L371.868,189.544L375.912,162.944L379.956,156.065L383.956,149.645L387.912,149.186L391.956,149.186L396,150.103L400,150.103" stroke="#E54753" stroke-width="2"/></g></g><path class="foreground" aria-hidden="true" d="" display="none"/></g></g></g></svg>