<svg xmlns="http://www.w3.org/2000/svg" xmlns:xlink="http://www.w3.org/1999/xlink" version="1.1" class="marks" width="437" height="343" viewBox="0 0 437 343"><rect width="437" height="343" fill="white"/><g fill="none" stroke-miterlimit="10" transform="translate(30,21)"><g class="mark-group role-frame root" role="graphics-object" aria-roledescription="group mark container"><g transform="translate(0,0)"><path class="background" aria-hidden="true" d="M0,0h400v300h-400Z"/><g><g class="mark-group role-axis" role="graphics-symbol" aria-roledescription="axis" aria-label="X-axis for a time scale with values from Thursday, 01 January 1998, 12:00:00 AM to Thursday, 01 December 2022, 12:00:00 AM"><g transform="translate(0.5,300.5)"><path class="background" aria-hidden="true" d="M0,0h0v0h0Z" pointer-events="none"/><g><g class="mark-rule role-axis-tick" pointer-events="none"><line transform="translate(0,0)" x2="0" y2="5" stroke="#676A86" stroke-width="1" opacity="1"/><line transform="translate(32,0)" x2="0" y2="5" stroke="#676A86" stroke-width="1" opacity="1"/><line transform="translate(64,0)" x2="0" y2="5" stroke="#676A86" stroke-width="1" opacity="1"/><line transform="translate(96,0)" x2="0" y2="5" stroke="#676A86" stroke-width="1" opacity="1"/><line transform="translate(128,0)" x2="0" y2="5" stroke="#676A86" stroke-width="1" opacity="1"/><line transform="translate(161,0)" x2="0" y2="5" stroke="#676A86" stroke-width="1" opacity="1"/><line transform="translate(193,0)" x2="0" y2="5" stroke="#676A86" stroke-width="1" opacity="1"/><line transform="translate(225,0)" x2="0" y2="5" stroke="#676A86" stroke-width="1" opacity="1"/><line transform="translate(257,0)" x2="0" y2="5" stroke="#676A86" stroke-width="1" opacity="1"/><line transform="translate(289,0)" x2="0" y2="5" stroke="#676A86" stroke-width="1" opacity="1"/><line transform="translate(321,0)" x2="0" y2="5" stroke="#676A86" stroke-width="1" opacity="1"/><line transform="translate(353,0)" x2="0" y2="5" stroke="#676A86" stroke-width="1" opacity="1"/><line transform="translate(385,0)" x2="0" y2="5" stroke="#676A86" stroke-width="1" opacity="1"/></g><g class="mark-text role-axis-label" pointer-events="none"><text text-anchor="start" transform="translate(0,15)" font-family="sans-serif" font-size="10px" fill="#676A86" opacity="1">1998</text><text text-anchor="middle" transform="translate(32.08791208791209,15)" font-family="sans-serif" font-size="10px" fill="#676A86" opacity="0">2000</text><text text-anchor="middle" transform="translate(64.21978021978022,15)" font-family="sans-serif" font-size="10px" fill="#676A86" opacity="1">2002</text><text text-anchor="middle" transform="translate(96.3076923076923,15)" font-family="sans-serif" font-size="10px" fill="#676A86" opacity="0">2004</text><text text-anchor="middle" transform="translate(128.43956043956044,15)" font-family="sans-serif" font-size="10px" fill="#676A86" opacity="1">2006</text><text text-anchor="middle" transform="translate(160.52747252747253,15)" font-family="sans-serif" font-size="10px" fill="#676A86" opacity="0">2008</text><text text-anchor="middle" transform="translate(192.65934065934064,15)" font-family="sans-serif" font-size="10px" fill="#676A86" opacity="1">2010</text><text text-anchor="middle" transform="translate(224.74725274725276,15)" font-family="sans-serif" font-size="10px" fill="#676A86" opacity="0">2012</text><text text-anchor="middle" transform="translate(256.8791208791209,15)" font-family="sans-serif" font-size="10px" fill="#676A86" opacity="1">2014</text><text text-anchor="middle" transform="translate(288.967032967033,15)" font-family="sans-serif" font-size="10px" fill="#676A86" opacity="0">2016</text><text text-anchor="middle" transform="translate(321.09890109890114,15)" font-family="sans-serif" font-size="10px" fill="#676A86" opacity="1">2018</text><text text-anchor="middle" transform="translate(353.1868131868132,15)" font-family="sans-serif" font-size="10px" fill="#676A86" opacity="0">2020</text><text text-anchor="middle" transform="translate(385.3186813186813,15)" font-family="sans-serif" font-size="10px" fill="#676A86" opacity="1">2022</text></g><g class="mark-rule role-axis-domain" pointer-events="none"><line transform="translate(0,0)" x2="400" y2="0" stroke="#676A86" stroke-width="1" opacity="1"/></g></g><path class="foreground" aria-hidden="true" d="" pointer-events="none" display="none"/></g></g><g class="mark-group role-axis" role="graphics-symbol" aria-roledescription="axis" aria-label="Y-axis titled 'Index (2007 = 100)' for a linear scale with values from 70 to 140"><g transform="translate(0.5,0.5)"><path class="background" aria-hidden="true" d="M0,0h0v0h0Z" pointer-events="none"/><g><g class="mark-rule role-axis-tick" pointer-events="none"><line transform="translate(0,300)" x2="-5" y2="0" stroke="#676A86" stroke-width="1" opacity="1"/><line transform="translate(0,257)" x2="-5" y2="0" stroke="#676A86" stroke-width="1" opacity="1"/><line transform="translate(0,214)" x2="-5" y2="0" stroke="#676A86" stroke-width="1" opacity="1"/><line transform="translate(0,171)" x2="-5" y2="0" stroke="#676A86" stroke-width="1" opacity="1"/><line transform="translate(0,129)" x2="-5" y2="0" stroke="#676A86" stroke-width="1" opacity="1"/><line transform="translate(0,86)" x2="-5" y2="0" stroke="#676A86" stroke-width="1" opacity="1"/><line transform="translate(0,43)" x2="-5" y2="0" stroke="#676A86" stroke-width="1" opacity="1"/><line transform="translate(0,0)" x2="-5" y2="0" stroke="#676A86" stroke-width="1" opacity="1"/></g><g class="mark-text role-axis-label" pointer-events="none"><text text-anchor="end" transform="translate(-7,303)" font-family="sans-serif" font-size="10px" fill="#676A86" opacity="1">70</text><text text-anchor="end" transform="translate(-7,260.14285714285717)" font-family="sans-serif" font-size="10px" fill="#676A86" opacity="1">80</text><text text-anchor="end" transform="translate(-7,217.28571428571428)" font-family="sans-serif" font-size="10px" fill="#676A86" opacity="1">90</text><text text-anchor="end" transform="translate(-7,174.42857142857142)" font-family="sans-serif" font-size="10px" fill="#676A86" opacity="1">100</text><text text-anchor="end" transform="translate(-7,131.57142857142858)" font-family="sans-serif" font-size="10px" fill="#676A86" opacity="1">110</text><text text-anchor="end" transform="translate(-7,88.71428571428571)" font-family="sans-serif" font-size="10px" fill="#676A86" opacity="1">120</text><text text-anchor="end" transform="translate(-7,45.85714285714287)" font-family="sans-serif" font-size="10px" fill="#676A86" opacity="1">130</text><text text-anchor="end" transform="translate(-7,3)" font-family="sans-serif" font-size="10px" fill="#676A86" opacity="1">140</text></g><g class="mark-rule role-axis-domain" pointer-events="none"><line transform="translate(0,300)" x2="0" y2="-300" stroke="#676A86" stroke-width="1" opacity="1"/></g><g class="mark-text role-axis-title" pointer-events="none"><text text-anchor="start" transform="translate(-5,-7)" font-family="sans-serif" font-size="11px" font-weight="bold" fill="#676A86" opacity="1">Index (2007 = 100)</text></g></g><path class="foreground" aria-hidden="true" d="" pointer-events="none" display="none"/></g></g><g class="mark-line role-mark layer_0_marks" role="graphics-object" aria-roledescription="line mark container"><path aria-label="x: Mar 01, 1998; y: 100" role="graphics-symbol" aria-roledescription="line mark" d="M2.5934065934065935,171.42857142857142L400,171.42857142857142" stroke="#676A86" stroke-width="1" opacity="0.4"/></g><g class="mark-line role-mark layer_1_marks" role="graphics-object" aria-roledescription="line mark container"><path aria-label="x: Jan 01, 2007; y: 70" role="graphics-symbol" aria-roledescription="line mark" d="M144.4835164835165,300L144.4835164835165,0" stroke="#676A86" stroke-width="1" opacity="0.4"/></g><g class="mark-line role-mark layer_2_marks" role="graphics-object" aria-roledescription="line mark container"><path aria-label="x: Jan 01, 1998; y: 84.03" role="graphics-symbol" aria-roledescription="line mark" d="M0,239.87142857142857L400,53.70000000000002" stroke="#179FDB" stroke-width="2" stroke-dasharray="5,5"/></g><g class="mark-line role-mark layer_3_marks" role="graphics-object" aria-roledescription="line mark container"><path aria-label="x: Jan 01, 1998; y: 82.679528403" role="graphics-symbol" aria-roledescription="line mark" d="M0,245.6591639871382L400,44.05144694533769" stroke="#E54753" stroke-width="2" stroke-dasharray="5,5"/></g><g class="mark-line role-mark layer_4_marks" role="graphics-object" aria-roledescription="line mark container"><path aria-label="year: Mar 01, 1998; sc2: 85.484438249" role="graphics-symbol" aria-roledescription="line mark" d="M2.5934065934065935,233.63812178979282L6.637362637362637,232.08108518192535L10.68131868131868,232.46831438036403L14.68131868131868,231.2716068849475L18.637362637362635,231.04638761050498L22.681318681318682,231.12391670167762L26.72527472527473,229.78802649682473L30.725274725274726,225.18543826277673L34.72527472527472,221.08314073049328L38.76923076923077,220.43846227240752L42.81318681318682,220.33523791565298L46.81318681318681,221.0587286183524L50.76923076923077,220.1028941857772L54.81318681318681,220.66870837785538L58.857142857142854,217.09867857592704L62.857142857142854,211.13940675126753L66.8131868131868,212.24195872240793L70.85714285714285,211.4126704036649L74.9010989010989,207.6070642014556L78.9010989010989,206.64923134897114L82.85714285714286,204.23729503937847L86.9010989010989,200.23794694265987L90.94505494505495,195.2388442376623L94.94505494505493,195.43546701295486L98.94505494505495,191.28689035068993L102.98901098901099,190.10810142813145L107.03296703296704,190.49998650495158L111.03296703296704,185.91950533500906L114.98901098901099,187.7720900979385L119.03296703296704,187.2364544478283L123.07692307692308,184.32702988520117L127.0769230769231,178.82973676321714L131.03296703296704,176.51102415880325L135.07692307692307,173.33975848404438L139.12087912087912,173.94700052319948L143.12087912087912,169.93733814100636L147.0769230769231,169.2827733830494L151.12087912087912,173.51849563081012L155.16483516483518,173.36422364674345L159.16483516483518,169.5487930536827L163.16483516483518,164.50237452576403L167.2087912087912,162.84743494127176L171.25274725274727,168.7695599133698L175.25274725274724,175.37861920241912L179.2087912087912,179.44560913647865L183.25274725274724,183.09386699277638L187.2967032967033,180.97624142766932L191.2967032967033,180.62087312796115L195.25274725274727,179.16209218657158L199.2967032967033,175.33649316897737L203.34065934065936,173.56132703175248L207.34065934065936,176.5447312712253L211.2967032967033,173.87764819161214L215.34065934065936,172.5929732893531L219.3846153846154,171.30222093758002L223.3846153846154,169.42188375243697L227.3846153846154,165.3193443415843L231.42857142857144,166.27786773953454L235.47252747252747,165.38422325038977L239.47252747252747,162.24250941061996L243.42857142857142,162.6674439550806L247.47252747252747,158.91336352462605L251.5164835164835,156.08158000280636L255.5164835164835,154.12347455376997L259.4725274725275,150.66200098680918L263.5164835164835,146.81274641464333L267.5604395604396,143.43128826531904L271.5604395604396,143.03873485033435L275.5164835164835,140.7538695789555L279.56043956043953,142.3503136713015L283.6043956043956,144.32022082173876L287.6043956043956,144.0301382720268L291.6043956043956,143.8767716903336L295.64835164835165,144.74741585348528L299.6923076923077,141.69390178044569L303.6923076923077,143.67199943291865L307.64835164835165,139.25967229956754L311.69230769230774,136.84084470955491L315.7362637362637,133.54660118848216L319.7362637362637,132.9716931225466L323.6923076923077,133.87732484052654L327.73626373626377,131.6486781053628L331.78021978021974,133.84338871835044L335.7802197802198,135.54091969108245L339.73626373626377,133.62616402663207L343.7802197802198,131.50002494513143L347.8241758241758,130.41933032643166L351.8241758241758,129.9348372790021L355.8241758241758,144.33831260139965L359.86813186813185,245.27274200314457L363.91208791208794,186.09174646164945L367.9120879120879,179.5029683552498L371.86813186813185,184.03775426950028L375.9120879120879,154.8855434724125L379.95604395604397,145.59172733668876L383.95604395604397,135.2839226863969L387.9120879120879,131.9650924463717L391.95604395604397,131.7607386682625L396,132.35420680938498L400,132.04942101387718" stroke="#179FDB" stroke-width="2"/></g><g class="mark-line role-mark layer_5_marks" role="graphics-object" aria-roledescription="line mark container"><path aria-label="year: Mar 01, 1998; uk2: 82.3970037453" role="graphics-symbol" aria-roledescription="line mark" d="M2.5934065934065935,246.86998394863562L6.637362637362637,245.49415271726667L10.68131868131868,244.576931896354L14.68131868131868,242.74249025452872L18.637362637362635,240.4494382022471L22.681318681318682,239.0736069708782L26.72527472527473,233.57028204540237L30.725274725274726,228.52556753038286L34.72527472527472,224.398073836276L38.76923076923077,222.10502178399443L42.81318681318682,220.72919055262548L46.81318681318681,219.3533593212566L50.76923076923077,216.60169685851866L54.81318681318681,215.68447603760606L58.857142857142854,214.3086448062371L62.857142857142854,213.8500343957807L66.8131868131868,212.93281357486808L70.85714285714285,211.55698234349916L74.9010989010989,209.26393029121755L78.9010989010989,206.05365741802333L82.85714285714286,204.21921577619813L86.9010989010989,201.46755331346014L90.94505494505495,197.7986700298096L94.94505494505493,195.505617977528L98.94505494505495,194.12978674615908L102.98901098901099,192.2953451043338L107.03296703296704,192.2953451043338L111.03296703296704,191.8367346938775L114.98901098901099,189.54368264159592L119.03296703296704,186.33340976840162L123.07692307692308,183.58174730566378L127.0769230769231,179.91286402201325L131.03296703296704,178.9956432011006L135.07692307692307,178.9956432011006L139.12087912087912,178.9956432011006L143.12087912087912,178.078422380188L147.0769230769231,174.4095390965374L151.12087912087912,172.57509745471214L155.16483516483518,170.28204540243058L159.16483516483518,168.4476037606054L163.16483516483518,167.07177252923637L167.2087912087912,170.28204540243058L171.25274725274727,177.16120155927536L175.25274725274724,187.70924099977057L179.2087912087912,196.42283879844072L183.25274725274724,198.25728044026602L187.2967032967033,198.25728044026602L191.2967032967033,197.7986700298096L195.25274725274727,195.04700756707177L199.2967032967033,190.91951387296479L203.34065934065936,189.0850722311396L207.34065934065936,189.54368264159592L211.2967032967033,189.54368264159592L215.34065934065936,190.00229305205224L219.3846153846154,190.00229305205224L223.3846153846154,190.91951387296479L227.3846153846154,188.16785141022703L231.42857142857144,189.0850722311396L235.47252747252747,184.4989681265765L239.47252747252747,185.87479935794534L243.42857142857142,185.41618894748905L247.47252747252747,183.1231368952074L251.5164835164835,180.83008484292586L255.5164835164835,178.9956432011006L259.4725274725275,175.78537032790638L263.5164835164835,173.0337078651685L267.5604395604396,170.7406558128869L271.5604395604396,168.4476037606054L275.5164835164835,167.5303829396927L279.56043956043953,165.69594129786742L283.6043956043956,164.77872047695467L287.6043956043956,162.4856684246732L291.6043956043956,162.0270580142169L295.64835164835165,160.19261637239154L299.6923076923077,158.8167851410226L303.6923076923077,156.52373308874104L307.64835164835165,153.77207062600317L311.69230769230774,151.93762898417785L315.7362637362637,150.56179775280896L319.7362637362637,148.26874570052726L323.6923076923077,148.26874570052726L327.73626373626377,146.8929144691584L331.78021978021974,145.05847282733305L335.7802197802198,144.5998624168768L339.73626373626377,142.30681036459518L343.7802197802198,142.30681036459518L347.8241758241758,140.01375831231363L351.8241758241758,140.93097913322623L355.8241758241758,153.3134602155468L359.86813186813185,247.32859435909182L363.91208791208794,189.54368264159592L367.9120879120879,184.95757853703273L371.86813186813185,189.54368264159592L375.9120879120879,162.9442788351295L379.95604395604397,156.0651226782848L383.95604395604397,149.6445769318962L387.9120879120879,149.18596652144L391.95604395604397,149.18596652144L396,150.1031873423527L400,150.1031873423527" stroke="#E54753" stroke-width="2"/></g></g><path class="foreground" aria-hidden="true" d="" display="none"/></g></g></g></svg>