<svg xmlns="http://www.w3.org/2000/svg" xmlns:xlink="http://www.w3.org/1999/xlink" version="1.1" class="marks" width="495" height="343" viewBox="0 0 495 343"><rect width="495" height="343" fill="white"/><g fill="none" stroke-miterlimit="10" transform="translate(89,21)"><g class="mark-group role-frame root" role="graphics-object" aria-roledescription="group mark container"><g transform="translate(0,0)"><path class="background" aria-hidden="true" d="M0,0h400v300h-400Z"/><g><g class="mark-group role-axis" role="graphics-symbol" aria-roledescription="axis" aria-label="X-axis titled 'tax year 2027/28' for a linear scale with values from 1998 to 2028"><g transform="translate(0.5,300.5)"><path class="background" aria-hidden="true" d="M0,0h0v0h0Z" pointer-events="none"/><g><g class="mark-rule role-axis-tick" pointer-events="none"><line transform="translate(0,0)" x2="0" y2="5" stroke="#676A86" stroke-width="1" opacity="1"/><line transform="translate(27,0)" x2="0" y2="5" stroke="#676A86" stroke-width="1" opacity="1"/><line transform="translate(53,0)" x2="0" y2="5" stroke="#676A86" stroke-width="1" opacity="1"/><line transform="translate(80,0)" x2="0" y2="5" stroke="#676A86" stroke-width="1" opacity="1"/><line transform="translate(107,0)" x2="0" y2="5" stroke="#676A86" stroke-width="1" opacity="1"/><line transform="translate(133,0)" x2="0" y2="5" stroke="#676A86" stroke-width="1" opacity="1"/><line transform="translate(160,0)" x2="0" y2="5" stroke="#676A86" stroke-width="1" opacity="1"/><line transform="translate(187,0)" x2="0" y2="5" stroke="#676A86" stroke-width="1" opacity="1"/><line transform="translate(213,0)" x2="0" y2="5" stroke="#676A86" stroke-width="1" opacity="1"/><line transform="translate(240,0)" x2="0" y2="5" stroke="#676A86" stroke-width="1" opacity="1"/><line transform="translate(267,0)" x2="0" y2="5" stroke="#676A86" stroke-width="1" opacity="1"/><line transform="translate(293,0)" x2="0" y2="5" stroke="#676A86" stroke-width="1" opacity="1"/><line transform="translate(320,0)" x2="0" y2="5" stroke="#676A86" stroke-width="1" opacity="1"/><line transform="translate(347,0)" x2="0" y2="5" stroke="#676A86" stroke-width="1" opacity="1"/><line transform="translate(373,0)" x2="0" y2="5" stroke="#676A86" stroke-width="1" opacity="1"/><line transform="translate(400,0)" x2="0" y2="5" stroke="#676A86" stroke-width="1" opacity="1"/></g><g class="mark-text role-axis-label" pointer-events="none"><text text-anchor="start" transform="translate(0,15)" font-family="sans-serif" font-size="10px" fill="#676A86" opacity="1">1998</text><text text-anchor="middle" transform="translate(26.666666666666668,15)" font-family="sans-serif" font-size="10px" fill="#676A86" opacity="0">2000</text><text text-anchor="middle" transform="translate(53.333333333333336,15)" font-family="sans-serif" font-size="10px" fill="#676A86" opacity="1">2002</text><text text-anchor="middle" transform="translate(80,15)" font-family="sans-serif" font-size="10px" fill="#676A86" opacity="0">2004</text><text text-anchor="middle" transform="translate(106.66666666666667,15)" font-family="sans-serif" font-size="10px" fill="#676A86" opacity="1">2006</text><text text-anchor="middle" transform="translate(133.33333333333331,15)" font-family="sans-serif" font-size="10px" fill="#676A86" opacity="0">2008</text><text text-anchor="middle" transform="translate(160,15)" font-family="sans-serif" font-size="10px" fill="#676A86" opacity="1">2010</text><text text-anchor="middle" transform="translate(186.66666666666666,15)" font-family="sans-serif" font-size="10px" fill="#676A86" opacity="0">2012</text><text text-anchor="middle" transform="translate(213.33333333333334,15)" font-family="sans-serif" font-size="10px" fill="#676A86" opacity="1">2014</text><text text-anchor="middle" transform="translate(240,15)" font-family="sans-serif" font-size="10px" fill="#676A86" opacity="0">2016</text><text text-anchor="middle" transform="translate(266.66666666666663,15)" font-family="sans-serif" font-size="10px" fill="#676A86" opacity="1">2018</text><text text-anchor="middle" transform="translate(293.3333333333333,15)" font-family="sans-serif" font-size="10px" fill="#676A86" opacity="0">2020</text><text text-anchor="middle" transform="translate(320,15)" font-family="sans-serif" font-size="10px" fill="#676A86" opacity="1">2022</text><text text-anchor="middle" transform="translate(346.6666666666667,15)" font-family="sans-serif" font-size="10px" fill="#676A86" opacity="0">2024</text><text text-anchor="middle" transform="translate(373.3333333333333,15)" font-family="sans-serif" font-size="10px" fill="#676A86" opacity="1">2026</text><text text-anchor="end" transform="translate(400,15)" font-family="sans-serif" font-size="10px" fill="#676A86" opacity="0">2028</text></g><g class="mark-rule role-axis-domain" pointer-events="none"><line transform="translate(0,0)" x2="400" y2="0" stroke="#676A86" stroke-width="1" opacity="1"/></g><g class="mark-text role-axis-title" pointer-events="none"><text text-anchor="end" transform="translate(400,-6)" font-family="sans-serif" font-size="11px" font-weight="bold" fill="#676A86" opacity="1">tax year 2027/28</text></g></g><path class="foreground" aria-hidden="true" d="" pointer-events="none" display="none"/></g></g><g class="mark-group role-axis" role="graphics-symbol" aria-roledescription="axis" aria-label="Y-axis titled '%, £ million' for a linear scale with values from 90 to 100"><g transform="translate(0.5,0.5)"><path class="background" aria-hidden="true" d="M0,0h0v0h0Z" pointer-events="none"/><g><g class="mark-rule role-axis-tick" pointer-events="none"><line transform="translate(0,300)" x2="-5" y2="0" stroke="#676A86" stroke-width="1" opacity="1"/><line transform="translate(0,270)" x2="-5" y2="0" stroke="#676A86" stroke-width="1" opacity="1"/><line transform="translate(0,240)" x2="-5" y2="0" stroke="#676A86" stroke-width="1" opacity="1"/><line transform="translate(0,210)" x2="-5" y2="0" stroke="#676A86" stroke-width="1" opacity="1"/><line transform="translate(0,180)" x2="-5" y2="0" stroke="#676A86" stroke-width="1" opacity="1"/><line transform="translate(0,150)" x2="-5" y2="0" stroke="#676A86" stroke-width="1" opacity="1"/><line transform="translate(0,120)" x2="-5" y2="0" stroke="#676A86" stroke-width="1" opacity="1"/><line transform="translate(0,90)" x2="-5" y2="0" stroke="#676A86" stroke-width="1" opacity="1"/><line transform="translate(0,60)" x2="-5" y2="0" stroke="#676A86" stroke-width="1" opacity="1"/><line transform="translate(0,30)" x2="-5" y2="0" stroke="#676A86" stroke-width="1" opacity="1"/><line transform="translate(0,0)" x2="-5" y2="0" stroke="#676A86" stroke-width="1" opacity="1"/></g><g class="mark-text role-axis-label" pointer-events="none"><text text-anchor="end" transform="translate(-7,303)" font-family="sans-serif" font-size="10px" fill="#676A86" opacity="1">90</text><text text-anchor="end" transform="translate(-7,273)" font-family="sans-serif" font-size="10px" fill="#676A86" opacity="1">91</text><text text-anchor="end" transform="translate(-7,243)" font-family="sans-serif" font-size="10px" fill="#676A86" opacity="1">92</text><text text-anchor="end" transform="translate(-7,213)" font-family="sans-serif" font-size="10px" fill="#676A86" opacity="1">93</text><text text-anchor="end" transform="translate(-7,183)" font-family="sans-serif" font-size="10px" fill="#676A86" opacity="1">94</text><text text-anchor="end" transform="translate(-7,153)" font-family="sans-serif" font-size="10px" fill="#676A86" opacity="1">95</text><text text-anchor="end" transform="translate(-7,123)" font-family="sans-serif" font-size="10px" fill="#676A86" opacity="1">96</text><text text-anchor="end" transform="translate(-7,93.00000000000001)" font-family="sans-serif" font-size="10px" fill="#676A86" opacity="1">97</text><text text-anchor="end" transform="translate(-7,62.999999999999986)" font-family="sans-serif" font-size="10px" fill="#676A86" opacity="1">98</text><text text-anchor="end" transform="translate(-7,32.99999999999999)" font-family="sans-serif" font-size="10px" fill="#676A86" opacity="1">99</text><text text-anchor="end" transform="translate(-7,3)" font-family="sans-serif" font-size="10px" fill="#676A86" opacity="1">100</text></g><g class="mark-rule role-axis-domain" pointer-events="none"><line transform="translate(0,300)" x2="0" y2="-300" stroke="#676A86" stroke-width="1" opacity="1"/></g><g class="mark-text role-axis-title" pointer-events="none"><text text-anchor="start" transform="translate(-5,-7)" font-family="sans-serif" font-size="11px" font-weight="bold" fill="#676A86" opacity="1">%, £ million</text></g></g><path class="foreground" aria-hidden="true" d="" pointer-events="none" display="none"/></g></g><g class="mark-area role-mark layer_0_marks" role="graphics-object" aria-roledescription="area mark container"><path aria-label="x: 2022; y: 90; y2: 100" role="graphics-symbol" aria-roledescription="area mark" d="M320,300L400,300L400,0L320,0Z" fill="#179FDB" opacity="0.1"/></g><g class="mark-line role-mark layer_1_marks" role="graphics-object" aria-roledescription="line mark container"><path aria-label="year: 1998; earnings: 97" role="graphics-symbol" aria-roledescription="line mark" d="M0,78.50969407166275L13.333333333333334,84.21146718465396L26.666666666666668,143.0343031393008L40,118.64437670640129L53.333333333333336,106.43292593902613L66.66666666666666,132.9050695805448L80,169.57890324632743L93.33333333333333,174.85500038266025L106.66666666666667,178.64454103455856L120,160.1030021099895L133.33333333333331,127.48581493788309L146.66666666666666,130.7177004229203L160,96.03593515951887L173.33333333333334,111.33728238856564L186.66666666666666,59.71150829319656L200,102.60953781859385L213.33333333333334,99.4626996284447L226.66666666666666,158.95645892396502L240,176.98314827916732L253.33333333333331,224.4949221687216L266.66666666666663,231.08952132537866L280,197.01648165953998L293.3333333333333,152.86297781876158L306.6666666666667,212.481524717156L320,241.04743923085607L333.33333333333337,223.52663914116675L346.6666666666667,199.7505243586096L360,187.2704106151042L373.3333333333333,171.20227448067752L386.6666666666667,159.54843104934213" stroke="#179FDB" stroke-width="2"/></g><g class="mark-line role-mark layer_2_marks" role="graphics-object" aria-roledescription="line mark container"><path aria-label="year: 1998; p14: 95.8857977866" role="graphics-symbol" aria-roledescription="line mark" d="M0,123.42606640098808L13.333333333333334,123.42606640098808L26.666666666666668,123.42606640098808L40,123.42606640098808L53.333333333333336,123.42606640098808L66.66666666666666,123.42606640098808L80,123.42606640098808L93.33333333333333,123.42606640098808L106.66666666666667,123.42606640098808L120,123.42606640098808L133.33333333333331,123.42606640098808L146.66666666666666,123.42606640098808L160,123.42606640098808L173.33333333333334,123.42606640098808L186.66666666666666,123.42606640098808L200,123.42606640098808L213.33333333333334,123.42606640098808L226.66666666666666,123.42606640098808L240,123.42606640098808L253.33333333333331,123.42606640098808L266.66666666666663,123.42606640098808L280,123.42606640098808L293.3333333333333,123.42606640098808L306.6666666666667,123.42606640098808L320,123.42606640098808L333.33333333333337,123.42606640098808L346.6666666666667,123.42606640098808L360,123.42606640098808L373.3333333333333,123.42606640098808L386.6666666666667,123.42606640098808" stroke="#676A86" stroke-width="2"/></g><g class="mark-text role-mark layer_3_marks" role="graphics-object" aria-roledescription="text mark container"><text aria-label="x: 2018; y: 98.5; t: Scottish nominal average earnings as a share of UK" role="graphics-symbol" aria-roledescription="text mark" text-anchor="end" transform="translate(266.66666666666663,48.00000000000001)" font-family="sans-serif" font-size="11px" fill="#179FDB">Scottish nominal average earnings as a share of UK</text><text aria-label="x: 2027; y: 96.2; t: Pre-2014 average of share" role="graphics-symbol" aria-roledescription="text mark" text-anchor="end" transform="translate(386.6666666666667,116.9999999999999)" font-family="sans-serif" font-size="11px" fill="#676A86">Pre-2014 average of share</text><text aria-label="x: 2026.6; y: 99.6; t: Forecast" role="graphics-symbol" aria-roledescription="text mark" text-anchor="end" transform="translate(381.3333333333321,15.000000000000178)" font-family="sans-serif" font-size="11px" fill="#179FDB">Forecast</text></g></g><path class="foreground" aria-hidden="true" d="" display="none"/></g></g></g></svg>