<svg xmlns="http://www.w3.org/2000/svg" xmlns:xlink="http://www.w3.org/1999/xlink" version="1.1" class="marks" width="503" height="343" viewBox="0 0 503 343"><rect width="503" height="343" fill="white"/><g fill="none" stroke-miterlimit="10" transform="translate(30,21)"><g class="mark-group role-frame root" role="graphics-object" aria-roledescription="group mark container"><g transform="translate(0,0)"><path class="background" aria-hidden="true" d="M0,0h400v300h-400Z"/><g><g class="mark-group role-axis" role="graphics-symbol" aria-roledescription="axis" aria-label="X-axis for a linear scale with values from 2020 to 2120"><g transform="translate(0.5,300.5)"><path class="background" aria-hidden="true" d="M0,0h0v0h0Z" pointer-events="none"/><g><g class="mark-rule role-axis-tick" pointer-events="none"><line transform="translate(0,0)" x2="0" y2="5" stroke="#676A86" stroke-width="1" opacity="1"/><line transform="translate(40,0)" x2="0" y2="5" stroke="#676A86" stroke-width="1" opacity="1"/><line transform="translate(80,0)" x2="0" y2="5" stroke="#676A86" stroke-width="1" opacity="1"/><line transform="translate(120,0)" x2="0" y2="5" stroke="#676A86" stroke-width="1" opacity="1"/><line transform="translate(160,0)" x2="0" y2="5" stroke="#676A86" stroke-width="1" opacity="1"/><line transform="translate(200,0)" x2="0" y2="5" stroke="#676A86" stroke-width="1" opacity="1"/><line transform="translate(240,0)" x2="0" y2="5" stroke="#676A86" stroke-width="1" opacity="1"/><line transform="translate(280,0)" x2="0" y2="5" stroke="#676A86" stroke-width="1" opacity="1"/><line transform="translate(320,0)" x2="0" y2="5" stroke="#676A86" stroke-width="1" opacity="1"/><line transform="translate(360,0)" x2="0" y2="5" stroke="#676A86" stroke-width="1" opacity="1"/><line transform="translate(400,0)" x2="0" y2="5" stroke="#676A86" stroke-width="1" opacity="1"/></g><g class="mark-text role-axis-label" pointer-events="none"><text text-anchor="start" transform="translate(0,15)" font-family="sans-serif" font-size="10px" fill="#676A86" opacity="1">2020</text><text text-anchor="middle" transform="translate(40,15)" font-family="sans-serif" font-size="10px" fill="#676A86" opacity="1">2030</text><text text-anchor="middle" transform="translate(80,15)" font-family="sans-serif" font-size="10px" fill="#676A86" opacity="1">2040</text><text text-anchor="middle" transform="translate(120,15)" font-family="sans-serif" font-size="10px" fill="#676A86" opacity="1">2050</text><text text-anchor="middle" transform="translate(160,15)" font-family="sans-serif" font-size="10px" fill="#676A86" opacity="1">2060</text><text text-anchor="middle" transform="translate(200,15)" font-family="sans-serif" font-size="10px" fill="#676A86" opacity="1">2070</text><text text-anchor="middle" transform="translate(240,15)" font-family="sans-serif" font-size="10px" fill="#676A86" opacity="1">2080</text><text text-anchor="middle" transform="translate(280,15)" font-family="sans-serif" font-size="10px" fill="#676A86" opacity="1">2090</text><text text-anchor="middle" transform="translate(320,15)" font-family="sans-serif" font-size="10px" fill="#676A86" opacity="1">2100</text><text text-anchor="middle" transform="translate(360,15)" font-family="sans-serif" font-size="10px" fill="#676A86" opacity="1">2110</text><text text-anchor="end" transform="translate(400,15)" font-family="sans-serif" font-size="10px" fill="#676A86" opacity="1">2120</text></g><g class="mark-rule role-axis-domain" pointer-events="none"><line transform="translate(0,0)" x2="400" y2="0" stroke="#676A86" stroke-width="1" opacity="1"/></g></g><path class="foreground" aria-hidden="true" d="" pointer-events="none" display="none"/></g></g><g class="mark-group role-axis" role="graphics-symbol" aria-roledescription="axis" aria-label="Y-axis titled 'Index (2010 = 100)' for a linear scale with values from 80 to 220"><g transform="translate(0.5,0.5)"><path class="background" aria-hidden="true" d="M0,0h0v0h0Z" pointer-events="none"/><g><g class="mark-rule role-axis-tick" pointer-events="none"><line transform="translate(0,300)" x2="-5" y2="0" stroke="#676A86" stroke-width="1" opacity="1"/><line transform="translate(0,257)" x2="-5" y2="0" stroke="#676A86" stroke-width="1" opacity="1"/><line transform="translate(0,214)" x2="-5" y2="0" stroke="#676A86" stroke-width="1" opacity="1"/><line transform="translate(0,171)" x2="-5" y2="0" stroke="#676A86" stroke-width="1" opacity="1"/><line transform="translate(0,129)" x2="-5" y2="0" stroke="#676A86" stroke-width="1" opacity="1"/><line transform="translate(0,86)" x2="-5" y2="0" stroke="#676A86" stroke-width="1" opacity="1"/><line transform="translate(0,43)" x2="-5" y2="0" stroke="#676A86" stroke-width="1" opacity="1"/><line transform="translate(0,0)" x2="-5" y2="0" stroke="#676A86" stroke-width="1" opacity="1"/></g><g class="mark-text role-axis-label" pointer-events="none"><text text-anchor="end" transform="translate(-7,303)" font-family="sans-serif" font-size="10px" fill="#676A86" opacity="1">80</text><text text-anchor="end" transform="translate(-7,260.14285714285717)" font-family="sans-serif" font-size="10px" fill="#676A86" opacity="1">100</text><text text-anchor="end" transform="translate(-7,217.28571428571428)" font-family="sans-serif" font-size="10px" fill="#676A86" opacity="1">120</text><text text-anchor="end" transform="translate(-7,174.42857142857142)" font-family="sans-serif" font-size="10px" fill="#676A86" opacity="1">140</text><text text-anchor="end" transform="translate(-7,131.57142857142858)" font-family="sans-serif" font-size="10px" fill="#676A86" opacity="1">160</text><text text-anchor="end" transform="translate(-7,88.71428571428571)" font-family="sans-serif" font-size="10px" fill="#676A86" opacity="1">180</text><text text-anchor="end" transform="translate(-7,45.85714285714287)" font-family="sans-serif" font-size="10px" fill="#676A86" opacity="1">200</text><text text-anchor="end" transform="translate(-7,3)" font-family="sans-serif" font-size="10px" fill="#676A86" opacity="1">220</text></g><g class="mark-rule role-axis-domain" pointer-events="none"><line transform="translate(0,300)" x2="0" y2="-300" stroke="#676A86" stroke-width="1" opacity="1"/></g><g class="mark-text role-axis-title" pointer-events="none"><text text-anchor="start" transform="translate(-5,-7)" font-family="sans-serif" font-size="11px" font-weight="bold" fill="#676A86" opacity="1">Index (2010 = 100)</text></g></g><path class="foreground" aria-hidden="true" d="" pointer-events="none" display="none"/></g></g><g class="mark-line role-mark layer_0_marks" role="graphics-object" aria-roledescription="line mark container"><path aria-label="x: 2020; y: 100" role="graphics-symbol" aria-roledescription="line mark" d="M0,257.143L400,257.143" stroke="#676A86" stroke-width="1" opacity="0.4"/></g><g class="mark-line role-mark layer_1_marks" role="graphics-object" aria-roledescription="line mark container"><path aria-label="year: 2020; all: 100" role="graphics-symbol" aria-roledescription="line mark" d="M0,257.143L4,256.509L8,254.874L12,253.817L16,252.821L20,251.899L24,251.059L28,250.303L32,249.578L36,248.884L40,248.221L44,247.586L48,246.978L52,246.394L56,245.833L60,245.29L64,244.758L68,244.23L72,243.702L76,243.173L80,242.641L84,242.107L88,241.574L92,241.042L96,240.515L100,239.997L104,239.494L108,239.011L112,238.552L116,238.119L120,237.716L124,237.345L128,237.005L132,236.696L136,236.418L140,236.168L144,235.941L148,235.735L152,235.544L156,235.364L160,235.192L164,235.023L168,234.854L172,234.681L176,234.502L180,234.315L184,234.118L188,233.912L192,233.695L196,233.469L200,233.235L204,232.995L208,232.75L212,232.503L216,232.257L220,232.013L224,231.773L228,231.54L232,231.316L236,231.1L240,230.895L244,230.701L248,230.518L252,230.346L256,230.185L260,230.035L264,229.895L268,229.765L272,229.643L276,229.529L280,229.422L284,229.322L288,229.227L292,229.136L296,229.05L300,228.967L304,228.887L308,228.811L312,228.738L316,228.668L320,228.603L324,228.541L328,228.483L332,228.429L336,228.379L340,228.331L344,228.285L348,228.24L352,228.193L356,228.143L360,228.088L364,228.026L368,227.955L372,227.874L376,227.783L380,227.679L384,227.564L388,227.438L392,227.301L396,227.154L400,227" stroke="#676A86" stroke-width="2"/></g><g class="mark-line role-mark layer_2_marks" role="graphics-object" aria-roledescription="line mark container"><path aria-label="year: 2020; w65+: 100" role="graphics-symbol" aria-roledescription="line mark" d="M0,257.143L4,254.326L8,251.125L12,247.461L16,243.647L20,239.69L24,235.343L28,230.687L32,225.832L36,220.806L40,215.791L44,211.041L48,206.513L52,202.263L56,198.16L60,194.543L64,190.731L68,187.593L72,185.141L76,183.333L80,181.852L84,180.687L88,179.875L92,178.928L96,177.198L100,174.952L104,172.752L108,170.671L112,168.666L116,166.83L120,164.791L124,162.806L128,160.833L132,158.686L136,156.795L140,154.965L144,152.905L148,150.988L152,149.568L156,148.208L160,147.152L164,146.027L168,144.731L172,143.642L176,142.565L180,141.749L184,141.008L188,140.551L192,139.899L196,138.937L200,137.763L204,136.132L208,134.283L212,131.994L216,129.772L220,127.389L224,124.789L228,121.993L232,119.557L236,117.366L240,115.248L244,113.081L248,111.191L252,109.564L256,108.282L260,107.312L264,106.78L268,106.395L272,106.05L276,105.641L280,105.207L284,104.785L288,104.373L292,103.968L296,103.569L300,103.175L304,102.781L308,102.383L312,101.981L316,101.575L320,101.158L324,100.706L328,100.194L332,99.618L336,98.977L340,98.268L344,97.501L348,96.683L352,95.814L356,94.897L360,93.948L364,92.983L368,92.004L372,91.014L376,90.022L380,89.032L384,88.048L388,87.072L392,86.107L396,85.159L400,84.228" stroke="#F4134D" stroke-width="2"/></g><g class="mark-line role-mark layer_3_marks" role="graphics-object" aria-roledescription="line mark container"><path aria-label="year: 2020; m65+: 100" role="graphics-symbol" aria-roledescription="line mark" d="M0,257.143L4,253.912L8,250.129L12,245.849L16,241.525L20,237.122L24,232.333L28,227.252L32,222.073L36,216.782L40,211.552L44,206.661L48,201.852L52,197.511L56,193.369L60,189.774L64,185.997L68,182.751L72,180.263L76,178.504L80,177.054L84,175.919L88,175.053L92,174.061L96,172.195L100,169.883L104,167.674L108,165.702L112,163.75L116,161.947L120,159.776L124,157.601L128,155.743L132,153.397L136,151.082L140,148.459L144,145.515L148,142.934L152,140.618L156,138.171L160,136.028L164,133.62L168,131.09L172,128.733L176,126.346L180,124.173L184,122.271L188,120.656L192,118.852L196,116.718L200,114.359L204,111.49L208,108.31L212,104.677L216,101.154L220,97.489L224,93.53L228,89.349L232,85.596L236,82.153L240,78.798L244,75.384L248,72.357L252,69.683L256,67.409L260,65.597L264,64.396L268,63.41L272,62.514L276,61.581L280,60.655L284,59.784L288,58.96L292,58.179L296,57.433L300,56.718L304,56.024L308,55.339L312,54.661L316,53.981L320,53.288L324,52.547L328,51.724L332,50.809L336,49.797L340,48.683L344,47.477L348,46.186L352,44.815L356,43.366L360,41.864L364,40.332L368,38.776L372,37.208L376,35.64L380,34.083L384,32.544L388,31.028L392,29.543L396,28.097L400,26.69" stroke="#179FDB" stroke-width="2"/></g><g class="mark-line role-mark layer_4_marks" role="graphics-object" aria-roledescription="line mark container"><path aria-label="year: 2020; w65-: 100" role="graphics-symbol" aria-roledescription="line mark" d="M0,257.143L4,257.096L8,256.013L12,255.721L16,255.533L20,255.464L24,255.585L28,255.88L32,256.26L36,256.719L40,257.211L44,257.671L48,258.108L52,258.507L56,258.898L60,259.193L64,259.553L68,259.752L72,259.784L76,259.656L80,259.447L84,259.159L88,258.787L92,258.453L96,258.322L100,258.333L104,258.354L108,258.371L112,258.399L116,258.42L120,258.531L124,258.669L128,258.847L132,259.109L136,259.348L140,259.609L144,259.961L148,260.305L152,260.546L156,260.788L160,260.964L164,261.163L168,261.403L172,261.587L176,261.759L180,261.854L184,261.915L188,261.891L192,261.899L196,261.971L200,262.083L204,262.298L208,262.559L212,262.925L216,263.272L220,263.661L224,264.108L228,264.611L232,265.032L236,265.401L240,265.764L244,266.15L248,266.477L252,266.75L256,266.947L260,267.075L264,267.102L268,267.099L272,267.093L276,267.108L280,267.134L284,267.16L288,267.186L292,267.212L296,267.239L300,267.266L304,267.295L308,267.327L312,267.363L316,267.404L320,267.452L324,267.514L328,267.597L332,267.702L336,267.829L340,267.979L344,268.148L348,268.332L352,268.529L356,268.736L360,268.946L364,269.153L368,269.354L372,269.545L376,269.724L380,269.886L384,270.031L388,270.159L392,270.27L396,270.363L400,270.44" stroke="#F4134D" stroke-width="2"/></g><g class="mark-line role-mark layer_5_marks" role="graphics-object" aria-roledescription="line mark container"><path aria-label="year: 2020; m65-: 100" role="graphics-symbol" aria-roledescription="line mark" d="M0,257.143L4,257.01L8,255.665L12,255.167L16,254.764L20,254.476L24,254.376L28,254.446L32,254.579L36,254.775L40,254.998L44,255.186L48,255.388L52,255.523L56,255.642L60,255.668L64,255.742L68,255.707L72,255.51L76,255.156L80,254.731L84,254.236L88,253.681L92,253.153L96,252.81L100,252.57L104,252.326L108,252.055L112,251.806L116,251.557L120,251.42L124,251.319L128,251.188L132,251.194L136,251.228L140,251.357L144,251.579L148,251.747L152,251.876L156,252.044L160,252.156L164,252.328L168,252.524L172,252.681L176,252.837L180,252.941L184,252.979L188,252.949L192,252.948L196,253.008L200,253.108L204,253.309L208,253.573L212,253.931L216,254.269L220,254.642L224,255.083L228,255.58L232,256L236,256.367L240,256.731L244,257.123L248,257.45L252,257.72L256,257.924L260,258.048L264,258.061L268,258.046L272,258.026L276,258.029L280,258.043L284,258.057L288,258.072L292,258.088L296,258.104L300,258.121L304,258.14L308,258.163L312,258.19L316,258.222L320,258.261L324,258.315L328,258.39L332,258.488L336,258.608L340,258.751L344,258.914L348,259.092L352,259.283L356,259.485L360,259.69L364,259.892L368,260.088L372,260.273L376,260.446L380,260.602L384,260.741L388,260.862L392,260.966L396,261.052L400,261.123" stroke="#179FDB" stroke-width="2"/></g><g class="mark-text role-mark layer_6_marks" role="graphics-object" aria-roledescription="text mark container"><text aria-label="x: 2120; y: 207; t: Men 65+" role="graphics-symbol" aria-roledescription="text mark" text-anchor="start" transform="translate(405,30.857142857142858)" font-family="sans-serif" font-size="11px" fill="#179FDB">Men 65+</text><text aria-label="x: 2120; y: 180; t: Women 65+" role="graphics-symbol" aria-roledescription="text mark" text-anchor="start" transform="translate(405,88.71428571428571)" font-family="sans-serif" font-size="11px" fill="#F4134D">Women 65+</text><text aria-label="x: 2120; y: 114; t: All" role="graphics-symbol" aria-roledescription="text mark" text-anchor="start" transform="translate(405,230.14285714285714)" font-family="sans-serif" font-size="11px" fill="#676A86">All</text><text aria-label="x: 2120; y: 98; t: Men &lt;65" role="graphics-symbol" aria-roledescription="text mark" text-anchor="start" transform="translate(405,264.42857142857144)" font-family="sans-serif" font-size="11px" fill="#179FDB">Men &lt;65</text><text aria-label="x: 2120; y: 94; t: Women &lt;65" role="graphics-symbol" aria-roledescription="text mark" text-anchor="start" transform="translate(405,273)" font-family="sans-serif" font-size="11px" fill="#F4134D">Women &lt;65</text></g></g><path class="foreground" aria-hidden="true" d="" display="none"/></g></g></g></svg>