<svg xmlns="http://www.w3.org/2000/svg" xmlns:xlink="http://www.w3.org/1999/xlink" version="1.1" class="marks" width="566" height="377" viewBox="0 0 566 377"><rect width="566" height="377" fill="white"/><g fill="none" stroke-miterlimit="10" transform="translate(7,55)"><g class="mark-group role-frame root" role="graphics-object" aria-roledescription="group mark container"><g transform="translate(0,0)"><path class="background" aria-hidden="true" d="M0,0h400v300h-400Z"/><g><g class="mark-group role-axis" aria-hidden="true"><g transform="translate(0.5,0.5)"><path class="background" aria-hidden="true" d="M0,0h0v0h0Z" pointer-events="none"/><g><g class="mark-rule role-axis-grid" pointer-events="none"><line transform="translate(0,300)" x2="400" y2="0" stroke="#676A86" stroke-opacity="0.1" stroke-width="1" opacity="1"/><line transform="translate(0,263)" x2="400" y2="0" stroke="#676A86" stroke-opacity="0.1" stroke-width="1" opacity="1"/><line transform="translate(0,225)" x2="400" y2="0" stroke="#676A86" stroke-opacity="0.1" stroke-width="1" opacity="1"/><line transform="translate(0,188)" x2="400" y2="0" stroke="#676A86" stroke-opacity="0.1" stroke-width="1" opacity="1"/><line transform="translate(0,150)" x2="400" y2="0" stroke="#676A86" stroke-opacity="0.1" stroke-width="1" opacity="1"/><line transform="translate(0,113)" x2="400" y2="0" stroke="#676A86" stroke-opacity="0.1" stroke-width="1" opacity="1"/><line transform="translate(0,75)" x2="400" y2="0" stroke="#676A86" stroke-opacity="0.1" stroke-width="1" opacity="1"/><line transform="translate(0,38)" x2="400" y2="0" stroke="#676A86" stroke-opacity="0.1" stroke-width="1" opacity="1"/><line transform="translate(0,0)" x2="400" y2="0" stroke="#676A86" stroke-opacity="0.1" stroke-width="1" opacity="1"/></g></g><path class="foreground" aria-hidden="true" d="" pointer-events="none" display="none"/></g></g><g class="mark-group role-axis" role="graphics-symbol" aria-roledescription="axis" aria-label="X-axis for a linear scale with values from 1970 to 2020"><g transform="translate(0.5,300.5)"><path class="background" aria-hidden="true" d="M0,0h0v0h0Z" pointer-events="none"/><g><g class="mark-rule role-axis-tick" pointer-events="none"><line transform="translate(0,0)" x2="0" y2="5" stroke="#676A86" stroke-width="1" opacity="1"/><line transform="translate(40,0)" x2="0" y2="5" stroke="#676A86" stroke-width="1" opacity="1"/><line transform="translate(80,0)" x2="0" y2="5" stroke="#676A86" stroke-width="1" opacity="1"/><line transform="translate(120,0)" x2="0" y2="5" stroke="#676A86" stroke-width="1" opacity="1"/><line transform="translate(160,0)" x2="0" y2="5" stroke="#676A86" stroke-width="1" opacity="1"/><line transform="translate(200,0)" x2="0" y2="5" stroke="#676A86" stroke-width="1" opacity="1"/><line transform="translate(240,0)" x2="0" y2="5" stroke="#676A86" stroke-width="1" opacity="1"/><line transform="translate(280,0)" x2="0" y2="5" stroke="#676A86" stroke-width="1" opacity="1"/><line transform="translate(320,0)" x2="0" y2="5" stroke="#676A86" stroke-width="1" opacity="1"/><line transform="translate(360,0)" x2="0" y2="5" stroke="#676A86" stroke-width="1" opacity="1"/><line transform="translate(400,0)" x2="0" y2="5" stroke="#676A86" stroke-width="1" opacity="1"/></g><g class="mark-text role-axis-label" pointer-events="none"><text text-anchor="start" transform="translate(0,15)" font-family="sans-serif" font-size="10px" fill="#676A86" opacity="1">1970</text><text text-anchor="middle" transform="translate(40,15)" font-family="sans-serif" font-size="10px" fill="#676A86" opacity="1">1975</text><text text-anchor="middle" transform="translate(80,15)" font-family="sans-serif" font-size="10px" fill="#676A86" opacity="1">1980</text><text text-anchor="middle" transform="translate(120,15)" font-family="sans-serif" font-size="10px" fill="#676A86" opacity="1">1985</text><text text-anchor="middle" transform="translate(160,15)" font-family="sans-serif" font-size="10px" fill="#676A86" opacity="1">1990</text><text text-anchor="middle" transform="translate(200,15)" font-family="sans-serif" font-size="10px" fill="#676A86" opacity="1">1995</text><text text-anchor="middle" transform="translate(240,15)" font-family="sans-serif" font-size="10px" fill="#676A86" opacity="1">2000</text><text text-anchor="middle" transform="translate(280,15)" font-family="sans-serif" font-size="10px" fill="#676A86" opacity="1">2005</text><text text-anchor="middle" transform="translate(320,15)" font-family="sans-serif" font-size="10px" fill="#676A86" opacity="1">2010</text><text text-anchor="middle" transform="translate(360,15)" font-family="sans-serif" font-size="10px" fill="#676A86" opacity="1">2015</text><text text-anchor="end" transform="translate(400,15)" font-family="sans-serif" font-size="10px" fill="#676A86" opacity="1">2020</text></g><g class="mark-rule role-axis-domain" pointer-events="none"><line transform="translate(0,0)" x2="400" y2="0" stroke="#676A86" stroke-width="1" opacity="1"/></g></g><path class="foreground" aria-hidden="true" d="" pointer-events="none" display="none"/></g></g><g class="mark-group role-axis" role="graphics-symbol" aria-roledescription="axis" aria-label="Y-axis titled 'GtCO₂e / year' for a linear scale with values from 0 to 16"><g transform="translate(0.5,0.5)"><path class="background" aria-hidden="true" d="M0,0h0v0h0Z" pointer-events="none"/><g><g class="mark-text role-axis-label" pointer-events="none"><text text-anchor="start" transform="translate(5,293)" font-family="sans-serif" font-size="10px" fill="#676A86" opacity="1">0</text><text text-anchor="start" transform="translate(5,255.5)" font-family="sans-serif" font-size="10px" fill="#676A86" opacity="1">2</text><text text-anchor="start" transform="translate(5,218)" font-family="sans-serif" font-size="10px" fill="#676A86" opacity="1">4</text><text text-anchor="start" transform="translate(5,180.5)" font-family="sans-serif" font-size="10px" fill="#676A86" opacity="1">6</text><text text-anchor="start" transform="translate(5,143)" font-family="sans-serif" font-size="10px" fill="#676A86" opacity="1">8</text><text text-anchor="start" transform="translate(5,105.5)" font-family="sans-serif" font-size="10px" fill="#676A86" opacity="1">10</text><text text-anchor="start" transform="translate(5,68)" font-family="sans-serif" font-size="10px" fill="#676A86" opacity="1">12</text><text text-anchor="start" transform="translate(5,30.5)" font-family="sans-serif" font-size="10px" fill="#676A86" opacity="1">14</text><text text-anchor="start" transform="translate(5,-7)" font-family="sans-serif" font-size="10px" fill="#676A86" opacity="1">16</text></g><g class="mark-rule role-axis-domain" pointer-events="none"><line transform="translate(0,300)" x2="0" y2="-300" stroke="#676A86" stroke-width="1" opacity="1"/></g><g class="mark-text role-axis-title" pointer-events="none"><text text-anchor="start" transform="translate(20,-7)" font-family="sans-serif" font-size="10px" font-weight="normal" fill="#676A86" opacity="1">GtCO₂e / year</text></g></g><path class="foreground" aria-hidden="true" d="" pointer-events="none" display="none"/></g></g><g class="mark-rule role-mark layer_0_marks" role="graphics-object" aria-roledescription="rule mark container"><line aria-label="x: 1997" role="graphics-symbol" aria-roledescription="rule mark" transform="translate(216,0)" x2="0" y2="300" stroke="#676A86" stroke-width="2" opacity="0.1"/><line aria-label="x: 2009" role="graphics-symbol" aria-roledescription="rule mark" transform="translate(312,0)" x2="0" y2="300" stroke="#676A86" stroke-width="2" opacity="0.1"/><line aria-label="x: 2015" role="graphics-symbol" aria-roledescription="rule mark" transform="translate(360,0)" x2="0" y2="300" stroke="#676A86" stroke-width="2" opacity="0.1"/></g><g class="mark-group role-scope layer_1_pathgroup" role="graphics-object" aria-roledescription="group mark container"><g transform="translate(0,0)"><path class="background" aria-hidden="true" d="M0,0h400v300h-400Z"/><g><g class="mark-line role-mark layer_1_marks" role="graphics-object" aria-roledescription="line mark container"><path aria-label="Region: Sub Saharan Africa; Year: 1970; m: 0.2714065" role="graphics-symbol" aria-roledescription="line mark" d="M0,294.911128125L8,294.65831249999997L16,294.242435625L24,293.435955L32,292.893015L40,293.086929375L48,292.6146825L56.00000000000001,292.784926875L64,293.10439875000003L72,292.42172625L80,292.279453125L88,292.36042125L96,292.3575825L104,292.269496875L112.00000000000001,291.907786875L120,291.677563125L128,291.710368125L136,291.375485625L144,291.11792625L152,291.0963675L160,291.00719625L168,291.04628249999996L176,291.012046875L184,291.05092125L192,290.8738575L200,290.31700875L208,289.69555125L216,289.34851875L224.00000000000003,289.32994125L231.99999999999997,289.545714375L240,289.250491875L248,288.8783175L256,288.8143125L264,288.1564725L272,287.54979L280,287.252746875L288,287.239215L296,286.91184375L304,286.11651375L312,286.77585L320,286.106925L328,286.17034125L336,285.59672812499997L344,285.156755625L352,284.794033125L360,284.5877325L368,284.163163125L376,284.01772875L384,283.782050625" stroke="rgb(35, 78, 160)" stroke-width="2"/></g></g><path class="foreground" aria-hidden="true" d="" display="none"/></g><g transform="translate(0,0)"><path class="background" aria-hidden="true" d="M0,0h400v300h-400Z"/><g><g class="mark-line role-mark layer_1_marks" role="graphics-object" aria-roledescription="line mark container"><path aria-label="Region: Latin America and Caribbean; Year: 1970; m: 0.5315656" role="graphics-symbol" aria-roledescription="line mark" d="M0,290.033145L8,289.992283125L16,289.3740375L24,288.45871312500003L32,287.949463125L40,287.731951875L48,286.87968L56.00000000000001,286.3745175L64,285.40347L72,284.584820625L80,284.01081937500004L88,284.015990625L96,283.815481875L104,284.284434375L112.00000000000001,284.018565L120,283.86528749999997L128,283.215200625L136,282.65219437499997L144,282.27353999999997L152,281.697894375L160,281.852424375L168,281.45172L176,281.09293125L184,280.4960625L192,279.43715625L200,278.94226875L208,277.54528125L216,276.2140125L224.00000000000003,275.33685L231.99999999999997,275.56633125L240,274.52120625L248,274.55199375L256,274.5807375L264,273.92647500000004L272,272.7084375L280,271.90306875L288,271.16296875L296,270.26015625L304,268.88896875L312,269.63709374999996L320,267.67539375L328,266.94114375000004L336,265.33809375L344,264.90234375L352,264.3618L360,264.885375L368,265.17204375L376,265.09768125L384,265.420125" stroke="rgb(116, 201, 189)" stroke-width="2"/></g></g><path class="foreground" aria-hidden="true" d="" display="none"/></g><g transform="translate(0,0)"><path class="background" aria-hidden="true" d="M0,0h400v300h-400Z"/><g><g class="mark-line role-mark layer_1_marks" role="graphics-object" aria-roledescription="line mark container"><path aria-label="Region: North America; Year: 1970; m: 5.050316" role="graphics-symbol" aria-roledescription="line mark" d="M0,205.30657500000004L8,207.5853L16,202.58988750000003L24,198.71450624999997L32,201.69729375L40,205.92558749999998L48,200.16345L56.00000000000001,196.81389375L64,196.85698125L72,195.83544375L80,200.0178375L88,201.68966250000003L96,206.67138749999998L104,207.13912499999998L112.00000000000001,202.82546250000001L120,202.34101875L128,203.292L136,200.12671875L144,195.38848125L152,194.01931875L160,196.51805624999997L168,197.4310125L176,195.67681875L184,193.46122499999998L192,191.5806L200,190.37825625L208,187.35388125L216,183.7833L224.00000000000003,183.40700625000002L231.99999999999997,182.83456874999996L240,178.61870624999997L248,179.88331875L256,181.24719374999998L264,179.456625L272,178.03670625L280,177.62745L288,179.72728125L296,177.65126250000003L304,181.58199375L312,190.03310625L320,185.21833125L328,187.46733749999999L336,190.83256875L344,189.21832500000002L352,187.78130625L360,190.9560375L368,192.20765625L376,192.67550624999998L384,189.93384375000002" stroke="rgb(41, 151, 190)" stroke-width="2"/></g></g><path class="foreground" aria-hidden="true" d="" display="none"/></g><g transform="translate(0,0)"><path class="background" aria-hidden="true" d="M0,0h400v300h-400Z"/><g><g class="mark-line role-mark layer_1_marks" role="graphics-object" aria-roledescription="line mark container"><path aria-label="Region: East Asia and Pacific; Year: 1970; m: 2.196186" role="graphics-symbol" aria-roledescription="line mark" d="M0,258.8215125L8,258.73638750000003L16,256.186575L24,252.452775L32,251.80370625L40,249.61681875L48,247.53285L56.00000000000001,243.0204375L64,237.32491875000002L72,235.26598124999998L80,235.84910625L88,236.37676875L96,235.51899375L104,233.40135L112.00000000000001,228.5644125L120,227.887575L128,225.3164625L136,221.81278125L144,215.86423125L152,212.63979375000002L160,209.07890625L168,205.10039999999998L176,201.58696875L184,195.8802L192,190.1344875L200,181.86223124999998L208,180.2298L216,177.48489375L224.00000000000003,177.80075625000003L231.99999999999997,176.5113375L240,169.81824375L248,165.51133124999998L256,158.17231875000002L264,144.16655625L272,128.44664999999998L280,114.09864375000002L288,100.19774999999997L296,85.52737499999998L304,83.40299999999999L312,74.49543750000002L320,56.98368749999997L328,38.47200000000001L336,32.651624999999996L344,22.99706250000002L352,20.33737499999999L360,20.285812500000013L368,15.48131250000001L376,11.71293750000002L384,7.036312500000008" stroke="rgb(212, 238, 180)" stroke-width="2"/></g></g><path class="foreground" aria-hidden="true" d="" display="none"/></g><g transform="translate(0,0)"><path class="background" aria-hidden="true" d="M0,0h400v300h-400Z"/><g><g class="mark-line role-mark layer_1_marks" role="graphics-object" aria-roledescription="line mark container"><path aria-label="Region: Europe and Central Asia; Year: 1970; m: 6.5852" role="graphics-symbol" aria-roledescription="line mark" d="M0,176.5275L8,176.44535625000003L16,171.71259375L24,164.5123875L32,163.97353125L40,163.1049L48,155.77156875L56.00000000000001,154.5901125L64,148.06569374999998L72,143.77644374999997L80,144.498375L88,148.93162500000003L96,150.24253125L104,149.86659375L112.00000000000001,148.9892625L120,147.33155625L128,144.88130625L136,141.756225L144,140.60949375L152,140.44220625000003L160,138.72811875L168,141.76213125L176,151.10596875L184,159.40363125L192,167.13905624999998L200,167.70414375L208,167.662575L216,171.78976874999998L224.00000000000003,171.88327499999997L231.99999999999997,172.721175L240,171.19768125L248,170.26933125L256,170.42763749999997L264,166.36659375L272,165.91959375000002L280,166.50504375L288,164.0227125L296,164.01645L304,165.04925625L312,175.726875L320,170.20599375000003L328,170.1606375L336,170.36739375000002L344,173.3917875L352,177.76873125L360,177.77199375L368,177.22799999999998L376,176.12625L384,175.31951249999997" stroke="rgb(169, 221, 183)" stroke-width="2"/></g></g><path class="foreground" aria-hidden="true" d="" display="none"/></g><g transform="translate(0,0)"><path class="background" aria-hidden="true" d="M0,0h400v300h-400Z"/><g><g class="mark-line role-mark layer_1_marks" role="graphics-object" aria-roledescription="line mark container"><path aria-label="Region: South Asia; Year: 1970; m: 0.2614283" role="graphics-symbol" aria-roledescription="line mark" d="M0,295.098219375L8,295.060741875L16,294.86413500000003L24,294.860236875L32,294.50107125L40,294.11913375L48,293.7641475L56.00000000000001,293.63023125L64,294.1812L72,293.73343124999997L80,293.44732500000003L88,292.834295625L96,292.3358025L104,291.86733937500003L112.00000000000001,291.16351125L120,290.696814375L128,290.08734937500003L136,289.285336875L144,288.64413L152,287.889481875L160,287.22944812500003L168,286.36204875L176,285.773731875L184,285.056685L192,284.1452925L200,282.92350125L208,282.116101875L216,281.2356L224.00000000000003,280.9132125L231.99999999999997,279.39356250000003L240,278.6662875L248,278.22646875L256,277.44568125L264,276.84868125L272,274.88473125L280,273.75515624999997L288,272.02995L296,269.58155625L304,267.894375L312,264.46612500000003L320,262.76371875L328,260.76549375L336,257.9731875L344,257.11239375L352,253.29519375000004L360,251.72064375L368,249.84384375000002L376,248.08561874999998L384,244.53744375" stroke="rgb(33, 115, 177)" stroke-width="2"/></g></g><path class="foreground" aria-hidden="true" d="" display="none"/></g><g transform="translate(0,0)"><path class="background" aria-hidden="true" d="M0,0h400v300h-400Z"/><g><g class="mark-line role-mark layer_1_marks" role="graphics-object" aria-roledescription="line mark container"><path aria-label="Region: Middle East and North Africa; Year: 1970; m: 0.3567005" role="graphics-symbol" aria-roledescription="line mark" d="M0,293.311865625L8,292.855875L16,291.99716625L24,290.717143125L32,290.708368125L40,290.61607125L48,289.03843125000003L56.00000000000001,288.638229375L64,288.07221562499996L72,287.61801375L80,287.40999375L88,288.028284375L96,287.164036875L104,286.43245875L112.00000000000001,286.574379375L120,285.88719375L128,285.562935L136,284.85781875000004L144,284.17886250000004L152,283.19410125L160,282.96602812500004L168,282.16789125L176,281.07313125L184,279.97288125L192,278.381775L200,277.80553125L208,276.97927500000003L216,275.93353125L224.00000000000003,275.94823125L231.99999999999997,275.0344875L240,273.9349875L248,272.52999375L256,271.515375L264,270.45493125L272,268.824975L280,266.66949375L288,264.81945L296,263.21176875L304,261.1428375L312,259.32834375L320,257.6311125L328,256.715025L336,254.59453125L344,253.40934375L352,251.73988125000002L360,251.19928124999998L368,249.8319375L376,248.47335L384,247.24963125000002" stroke="rgb(69, 180, 194)" stroke-width="2"/></g></g><path class="foreground" aria-hidden="true" d="" display="none"/></g></g><g class="mark-text role-mark layer_2_marks" role="graphics-object" aria-roledescription="text mark container"><text aria-label="Region: Sub Saharan Africa; Year: 2018; m: 0.8649573" role="graphics-symbol" aria-roledescription="text mark" text-anchor="start" transform="translate(389,286.782050625)" font-family="sans-serif" font-size="11px" fill="rgb(35, 78, 160)">Sub Saharan Africa</text><text aria-label="Region: Latin America and Caribbean; Year: 2018; m: 1.84426" role="graphics-symbol" aria-roledescription="text mark" text-anchor="start" transform="translate(389,268.420125)" font-family="sans-serif" font-size="11px" fill="rgb(116, 201, 189)">Latin America and Caribbean</text><text aria-label="Region: North America; Year: 2018; m: 5.870195" role="graphics-symbol" aria-roledescription="text mark" text-anchor="start" transform="translate(389,192.93384375000002)" font-family="sans-serif" font-size="11px" fill="rgb(41, 151, 190)">North America</text><text aria-label="Region: East Asia and Pacific; Year: 2018; m: 15.62473" role="graphics-symbol" aria-roledescription="text mark" text-anchor="start" transform="translate(389,10.036312500000008)" font-family="sans-serif" font-size="11px" fill="rgb(212, 238, 180)">East Asia and Pacific</text><text aria-label="Region: Europe and Central Asia; Year: 2018; m: 6.649626" role="graphics-symbol" aria-roledescription="text mark" text-anchor="start" transform="translate(389,178.31951249999997)" font-family="sans-serif" font-size="11px" fill="rgb(169, 221, 183)">Europe and Central Asia</text><text aria-label="Region: Middle East and North Africa; Year: 2018; m: 2.813353" role="graphics-symbol" aria-roledescription="text mark" text-anchor="start" transform="translate(389,250.24963125000002)" font-family="sans-serif" font-size="11px" fill="rgb(69, 180, 194)">Middle East and North Africa</text></g><g class="mark-text role-mark layer_3_marks" role="graphics-object" aria-roledescription="text mark container"><text aria-label="Region: South Asia; Year: 2018; m: 2.958003" role="graphics-symbol" aria-roledescription="text mark" text-anchor="start" transform="translate(389,237.53744375)" font-family="sans-serif" font-size="11px" fill="rgb(33, 115, 177)">South Asia</text></g><g class="mark-text role-mark layer_4_marks" role="graphics-object" aria-roledescription="text mark container"><text aria-label="t: Kyoto; x: 1997; y: 15.5" role="graphics-symbol" aria-roledescription="text mark" text-anchor="end" transform="translate(211,12.375)" font-family="sans-serif" font-size="10px" fill="#9a9db2">Kyoto</text><text aria-label="t: 1997; x: 1997; y: 14.8" role="graphics-symbol" aria-roledescription="text mark" text-anchor="end" transform="translate(211,25.499999999999986)" font-family="sans-serif" font-size="10px" fill="#9a9db2">1997</text></g><g class="mark-text role-mark layer_5_marks" role="graphics-object" aria-roledescription="text mark container"><text aria-label="t: Copenhagen; x: 2009; y: 15.5" role="graphics-symbol" aria-roledescription="text mark" text-anchor="end" transform="translate(307,12.375)" font-family="sans-serif" font-size="10px" fill="#9a9db2">Copenhagen</text><text aria-label="t: 2009; x: 2009; y: 14.8" role="graphics-symbol" aria-roledescription="text mark" text-anchor="end" transform="translate(307,25.499999999999986)" font-family="sans-serif" font-size="10px" fill="#9a9db2">2009</text></g><g class="mark-text role-mark layer_6_marks" role="graphics-object" aria-roledescription="text mark container"><text aria-label="t: Paris; x: 2015; y: 11.5" role="graphics-symbol" aria-roledescription="text mark" text-anchor="end" transform="translate(355,87.375)" font-family="sans-serif" font-size="10px" fill="#9a9db2">Paris</text><text aria-label="t: 2015; x: 2015; y: 10.8" role="graphics-symbol" aria-roledescription="text mark" text-anchor="end" transform="translate(355,100.49999999999999)" font-family="sans-serif" font-size="10px" fill="#9a9db2">2015</text></g><g class="mark-group role-title"><g transform="translate(-2,-45)"><path class="background" aria-hidden="true" d="M0,0h0v0h0Z" pointer-events="none"/><g><g class="mark-text role-title-text" role="graphics-symbol" aria-roledescription="title" aria-label="Title text 'CO₂ Emissions by region'" pointer-events="none"><text text-anchor="start" transform="translate(0,5)" font-family="sans-serif" font-size="13px" font-weight="bold" fill="black" opacity="1">CO₂ Emissions by region</text></g><g class="mark-text role-title-subtitle" role="graphics-symbol" aria-roledescription="subtitle" aria-label="Subtitle text 'Gigatonnes of CO₂ equivalent. Source: Author's calculations'" pointer-events="none"><text text-anchor="start" transform="translate(0,19)" font-family="sans-serif" font-size="10px" font-style="italic" fill="#000" opacity="1">Gigatonnes of CO₂ equivalent. Source: Author's calculations</text></g></g><path class="foreground" aria-hidden="true" d="" pointer-events="none" display="none"/></g></g></g><path class="foreground" aria-hidden="true" d="" display="none"/></g></g></g></svg>