<svg xmlns="http://www.w3.org/2000/svg" xmlns:xlink="http://www.w3.org/1999/xlink" version="1.1" class="marks" width="411" height="383" viewBox="0 0 411 383"><rect width="411" height="383" fill="#122B39"/><g fill="none" stroke-miterlimit="10" transform="translate(6,60)"><g class="mark-group role-frame root" role="graphics-object" aria-roledescription="group mark container"><g transform="translate(0,0)"><path class="background" aria-hidden="true" d="M0,0h400v300h-400Z"/><g><g class="mark-group role-axis" role="graphics-symbol" aria-roledescription="axis" aria-label="X-axis for a linear scale with values from 1800 to 2020"><g transform="translate(0.5,300.5)"><path class="background" aria-hidden="true" d="M0,0h0v0h0Z" pointer-events="none"/><g><g class="mark-rule role-axis-tick" pointer-events="none"><line transform="translate(0,0)" x2="0" y2="5" stroke="#676A86" stroke-width="1" opacity="1"/><line transform="translate(91,0)" x2="0" y2="5" stroke="#676A86" stroke-width="1" opacity="1"/><line transform="translate(182,0)" x2="0" y2="5" stroke="#676A86" stroke-width="1" opacity="1"/><line transform="translate(273,0)" x2="0" y2="5" stroke="#676A86" stroke-width="1" opacity="1"/><line transform="translate(364,0)" x2="0" y2="5" stroke="#676A86" stroke-width="1" opacity="1"/></g><g class="mark-text role-axis-label" pointer-events="none"><text text-anchor="start" transform="translate(0,16)" font-family="Georgia" font-size="12px" fill="#676A86" opacity="1">1800</text><text text-anchor="middle" transform="translate(90.9090909090909,16)" font-family="Georgia" font-size="12px" fill="#676A86" opacity="1">1850</text><text text-anchor="middle" transform="translate(181.8181818181818,16)" font-family="Georgia" font-size="12px" fill="#676A86" opacity="1">1900</text><text text-anchor="middle" transform="translate(272.7272727272727,16)" font-family="Georgia" font-size="12px" fill="#676A86" opacity="1">1950</text><text text-anchor="middle" transform="translate(363.6363636363636,16)" font-family="Georgia" font-size="12px" fill="#676A86" opacity="1">2000</text></g><g class="mark-rule role-axis-domain" pointer-events="none"><line transform="translate(0,0)" x2="400" y2="0" stroke="#676A86" stroke-width="1" opacity="1"/></g></g><path class="foreground" aria-hidden="true" d="" pointer-events="none" display="none"/></g></g><g class="mark-area role-mark layer_0_marks" role="graphics-object" aria-roledescription="area mark container"><path aria-label="year: 1805; y: 77%" role="graphics-symbol" aria-roledescription="area mark" d="M9.090909090909092,69C9.696969696969697,67.5,10.303030303030303,65.99999999999999,10.909090909090908,65.99999999999999C11.515151515151514,65.99999999999999,12.121212121212121,65.99999999999999,12.727272727272727,65.99999999999999C13.333333333333332,65.99999999999999,13.93939393939394,62.999999999999986,14.545454545454545,62.999999999999986C15.15151515151515,62.999999999999986,15.757575757575758,62.999999999999986,16.363636363636363,62.999999999999986C16.96969696969697,62.999999999999986,17.575757575757578,59.999999999999986,18.181818181818183,59.999999999999986C18.78787878787879,59.999999999999986,19.393939393939394,59.999999999999986,20,59.999999999999986C20.606060606060606,59.999999999999986,21.21212121212121,56.999999999999986,21.818181818181817,56.999999999999986C22.424242424242422,56.999999999999986,23.03030303030303,56.999999999999986,23.636363636363637,56.999999999999986C24.242424242424242,56.999999999999986,24.848484848484848,56.999999999999986,25.454545454545453,56.999999999999986C26.06060606060606,56.999999999999986,26.666666666666664,54.000000000000014,27.27272727272727,54.000000000000014C27.878787878787875,54.000000000000014,28.484848484848484,54.000000000000014,29.09090909090909,54.000000000000014C29.696969696969695,54.000000000000014,30.3030303030303,54.000000000000014,30.909090909090907,54.000000000000014C31.515151515151512,54.000000000000014,32.12121212121212,51.000000000000014,32.72727272727273,51.000000000000014C33.333333333333336,51.000000000000014,33.93939393939394,51.000000000000014,34.54545454545455,51.000000000000014C35.151515151515156,51.000000000000014,35.75757575757576,51.000000000000014,36.36363636363637,51.000000000000014C36.969696969696976,51.000000000000014,37.57575757575758,51.000000000000014,38.18181818181819,51.000000000000014C38.78787878787879,51.000000000000014,39.3939393939394,51.000000000000014,40,51.000000000000014C40.6060606060606,51.000000000000014,41.21212121212121,48.00000000000001,41.81818181818181,48.00000000000001C42.42424242424242,48.00000000000001,43.030303030303024,48.00000000000001,43.63636363636363,48.00000000000001C44.24242424242424,48.00000000000001,44.848484848484844,48.00000000000001,45.45454545454545,48.00000000000001C46.06060606060606,48.00000000000001,46.666666666666664,45.00000000000001,47.27272727272727,45.00000000000001C47.87878787878788,45.00000000000001,48.484848484848484,45.00000000000001,49.09090909090909,45.00000000000001C49.696969696969695,45.00000000000001,50.303030303030305,45.00000000000001,50.90909090909091,45.00000000000001C51.51515151515151,45.00000000000001,52.12121212121212,45.00000000000001,52.72727272727272,45.00000000000001C53.33333333333333,45.00000000000001,53.93939393939393,45.00000000000001,54.54545454545454,45.00000000000001C55.15151515151515,45.00000000000001,55.75757575757575,45.00000000000001,56.36363636363636,45.00000000000001C56.96969696969697,45.00000000000001,57.57575757575757,42.00000000000001,58.18181818181818,42.00000000000001C58.78787878787879,42.00000000000001,59.39393939393939,42.00000000000001,60,42.00000000000001C60.6060606060606,42.00000000000001,61.21212121212121,42.00000000000001,61.81818181818181,42.00000000000001C62.42424242424242,42.00000000000001,63.030303030303024,39,63.63636363636363,39C64.24242424242424,39,64.84848484848484,39,65.45454545454545,39C66.06060606060606,39,66.66666666666666,39,67.27272727272727,39C67.87878787878788,39,68.48484848484848,39,69.0909090909091,39C69.6969696969697,39,70.3030303030303,36,70.9090909090909,36C71.51515151515152,36,72.12121212121212,36,72.72727272727273,36C73.33333333333334,36,73.93939393939394,36,74.54545454545455,36C75.15151515151516,36,75.75757575757576,36,76.36363636363637,36C76.96969696969698,36,77.57575757575758,32.99999999999999,78.18181818181819,32.99999999999999C78.7878787878788,32.99999999999999,79.39393939393939,32.99999999999999,80,32.99999999999999C80.60606060606061,32.99999999999999,81.21212121212122,32.99999999999999,81.81818181818183,32.99999999999999C82.42424242424242,32.99999999999999,83.03030303030303,32.99999999999999,83.63636363636363,32.99999999999999C84.24242424242424,32.99999999999999,84.84848484848484,32.99999999999999,85.45454545454545,32.99999999999999C86.06060606060606,32.99999999999999,86.66666666666666,29.999999999999993,87.27272727272727,29.999999999999993C87.87878787878788,29.999999999999993,88.48484848484848,29.999999999999993,89.0909090909091,29.999999999999993C89.6969696969697,29.999999999999993,90.3030303030303,29.999999999999993,90.9090909090909,29.999999999999993C91.51515151515152,29.999999999999993,92.12121212121211,26.99999999999999,92.72727272727272,26.99999999999999C93.33333333333333,26.99999999999999,93.93939393939394,26.99999999999999,94.54545454545455,26.99999999999999C95.15151515151516,26.99999999999999,95.75757575757575,26.99999999999999,96.36363636363636,26.99999999999999C96.96969696969697,26.99999999999999,97.57575757575758,23.99999999999999,98.18181818181819,23.99999999999999C98.7878787878788,23.99999999999999,99.39393939393939,23.99999999999999,100,23.99999999999999C100.60606060606061,23.99999999999999,101.2121212121212,23.99999999999999,101.81818181818181,23.99999999999999C102.42424242424242,23.99999999999999,103.03030303030303,23.99999999999999,103.63636363636364,23.99999999999999C104.24242424242424,23.99999999999999,104.84848484848484,23.99999999999999,105.45454545454544,23.99999999999999C106.06060606060605,23.99999999999999,106.66666666666667,23.99999999999999,107.27272727272728,23.99999999999999C107.87878787878788,23.99999999999999,108.48484848484848,23.99999999999999,109.09090909090908,23.99999999999999C109.69696969696969,23.99999999999999,110.3030303030303,20.999999999999986,110.9090909090909,20.999999999999986C111.51515151515152,20.999999999999986,112.12121212121211,20.999999999999986,112.72727272727272,20.999999999999986C113.33333333333333,20.999999999999986,113.93939393939394,20.999999999999986,114.54545454545455,20.999999999999986C115.15151515151516,20.999999999999986,115.75757575757575,20.999999999999986,116.36363636363636,20.999999999999986C116.96969696969697,20.999999999999986,117.57575757575758,20.999999999999986,118.18181818181819,20.999999999999986C118.7878787878788,20.999999999999986,119.39393939393939,20.999999999999986,120,20.999999999999986C120.60606060606061,20.999999999999986,121.21212121212122,20.999999999999986,121.81818181818183,20.999999999999986C122.42424242424242,20.999999999999986,123.03030303030303,20.999999999999986,123.63636363636363,20.999999999999986C124.24242424242424,20.999999999999986,124.84848484848486,18.000000000000014,125.45454545454547,18.000000000000014C126.06060606060606,18.000000000000014,126.66666666666667,18.000000000000014,127.27272727272727,18.000000000000014C127.87878787878788,18.000000000000014,128.4848484848485,18.000000000000014,129.0909090909091,18.000000000000014C129.6969696969697,18.000000000000014,130.3030303030303,18.000000000000014,130.9090909090909,18.000000000000014C131.51515151515153,18.000000000000014,132.12121212121212,18.000000000000014,132.72727272727275,18.000000000000014C133.33333333333334,18.000000000000014,133.93939393939394,18.000000000000014,134.54545454545453,18.000000000000014C135.15151515151513,18.000000000000014,135.75757575757575,18.000000000000014,136.36363636363635,18.000000000000014C136.96969696969697,18.000000000000014,137.57575757575756,18.000000000000014,138.1818181818182,18.000000000000014C138.78787878787878,18.000000000000014,139.3939393939394,15.000000000000014,140,15.000000000000014C140.6060606060606,15.000000000000014,141.21212121212122,15.000000000000014,141.8181818181818,15.000000000000014C142.4242424242424,15.000000000000014,143.03030303030303,15.000000000000014,143.63636363636363,15.000000000000014C144.24242424242425,15.000000000000014,144.84848484848484,15.000000000000014,145.45454545454547,15.000000000000014C146.06060606060606,15.000000000000014,146.66666666666666,15.000000000000014,147.27272727272725,15.000000000000014C147.87878787878788,15.000000000000014,148.48484848484847,18.000000000000014,149.0909090909091,18.000000000000014C149.6969696969697,18.000000000000014,150.3030303030303,18.000000000000014,150.9090909090909,18.000000000000014C151.51515151515153,18.000000000000014,152.12121212121212,15.000000000000014,152.72727272727275,15.000000000000014C153.33333333333334,15.000000000000014,153.93939393939394,15.000000000000014,154.54545454545453,15.000000000000014C155.15151515151516,15.000000000000014,155.75757575757575,15.000000000000014,156.36363636363637,15.000000000000014C156.96969696969697,15.000000000000014,157.5757575757576,15.000000000000014,158.1818181818182,15.000000000000014C158.78787878787878,15.000000000000014,159.3939393939394,15.000000000000014,160,15.000000000000014C160.6060606060606,15.000000000000014,161.21212121212122,15.000000000000014,161.8181818181818,15.000000000000014C162.42424242424244,15.000000000000014,163.03030303030303,15.000000000000014,163.63636363636365,15.000000000000014C164.24242424242425,15.000000000000014,164.84848484848487,15.000000000000014,165.45454545454547,15.000000000000014C166.06060606060606,15.000000000000014,166.66666666666666,15.000000000000014,167.27272727272725,15.000000000000014C167.87878787878788,15.000000000000014,168.48484848484847,15.000000000000014,169.0909090909091,15.000000000000014C169.6969696969697,15.000000000000014,170.3030303030303,15.000000000000014,170.9090909090909,15.000000000000014C171.5151515151515,15.000000000000014,172.12121212121212,15.000000000000014,172.72727272727272,15.000000000000014C173.33333333333331,15.000000000000014,173.93939393939394,15.000000000000014,174.54545454545453,15.000000000000014C175.15151515151516,15.000000000000014,175.75757575757575,18.000000000000014,176.36363636363637,18.000000000000014C176.96969696969697,18.000000000000014,177.5757575757576,15.000000000000014,178.1818181818182,15.000000000000014C178.78787878787878,15.000000000000014,179.3939393939394,15.000000000000014,180,15.000000000000014C180.6060606060606,15.000000000000014,181.21212121212122,15.000000000000014,181.8181818181818,15.000000000000014C182.42424242424244,15.000000000000014,183.03030303030303,15.000000000000014,183.63636363636365,15.000000000000014C184.24242424242425,15.000000000000014,184.84848484848484,15.000000000000014,185.45454545454544,15.000000000000014C186.06060606060606,15.000000000000014,186.66666666666666,15.000000000000014,187.27272727272728,15.000000000000014C187.87878787878788,15.000000000000014,188.4848484848485,12.00000000000001,189.0909090909091,12.00000000000001C189.6969696969697,12.00000000000001,190.3030303030303,15.000000000000014,190.9090909090909,15.000000000000014C191.5151515151515,15.000000000000014,192.12121212121212,15.000000000000014,192.72727272727272,15.000000000000014C193.33333333333334,15.000000000000014,193.93939393939394,15.000000000000014,194.54545454545456,15.000000000000014C195.15151515151516,15.000000000000014,195.75757575757578,15.000000000000014,196.36363636363637,15.000000000000014C196.96969696969697,15.000000000000014,197.5757575757576,15.000000000000014,198.1818181818182,15.000000000000014C198.78787878787878,15.000000000000014,199.3939393939394,12.00000000000001,200,12.00000000000001C200.6060606060606,12.00000000000001,201.21212121212122,12.00000000000001,201.8181818181818,12.00000000000001C202.4242424242424,12.00000000000001,203.03030303030303,15.000000000000014,203.63636363636363,15.000000000000014C204.24242424242425,15.000000000000014,204.84848484848484,15.000000000000014,205.45454545454547,15.000000000000014C206.06060606060606,15.000000000000014,206.66666666666669,15.000000000000014,207.27272727272728,15.000000000000014C207.87878787878788,15.000000000000014,208.4848484848485,12.00000000000001,209.0909090909091,12.00000000000001C209.6969696969697,12.00000000000001,210.30303030303028,15.000000000000014,210.90909090909088,15.000000000000014C211.5151515151515,15.000000000000014,212.12121212121212,12.00000000000001,212.72727272727275,12.00000000000001C213.33333333333334,12.00000000000001,213.93939393939397,15.000000000000014,214.54545454545456,15.000000000000014C215.15151515151516,15.000000000000014,215.75757575757575,15.000000000000014,216.36363636363635,15.000000000000014C216.96969696969694,15.000000000000014,217.57575757575756,15.000000000000014,218.18181818181816,15.000000000000014C218.78787878787878,15.000000000000014,219.3939393939394,12.00000000000001,220.00000000000003,12.00000000000001C220.60606060606062,12.00000000000001,221.21212121212122,14.000000000000021,221.8181818181818,15.000000000000014C222.4242424242424,16.00000000000002,223.03030303030303,18.000000000000014,223.63636363636363,18.000000000000014C224.24242424242422,18.000000000000014,224.84848484848484,15.000000000000014,225.45454545454544,15.000000000000014C226.06060606060606,15.000000000000014,226.66666666666666,15.000000000000014,227.27272727272728,15.000000000000014C227.87878787878788,15.000000000000014,228.4848484848485,23.99999999999999,229.0909090909091,23.99999999999999C229.6969696969697,23.99999999999999,230.3030303030303,18.000000000000014,230.9090909090909,18.000000000000014C231.5151515151515,18.000000000000014,232.12121212121212,18.000000000000014,232.72727272727272,18.000000000000014C233.33333333333331,18.000000000000014,233.93939393939394,18.000000000000014,234.54545454545453,18.000000000000014C235.15151515151516,18.000000000000014,235.75757575757575,18.000000000000014,236.36363636363637,18.000000000000014C236.96969696969697,18.000000000000014,237.5757575757576,29.999999999999993,238.1818181818182,29.999999999999993C238.78787878787878,29.999999999999993,239.3939393939394,20.999999999999986,240,20.999999999999986C240.6060606060606,20.999999999999986,241.21212121212122,20.999999999999986,241.8181818181818,20.999999999999986C242.42424242424244,20.999999999999986,243.03030303030303,23.99999999999999,243.63636363636365,23.99999999999999C244.24242424242425,23.99999999999999,244.84848484848487,23.99999999999999,245.45454545454547,23.99999999999999C246.06060606060606,23.99999999999999,246.66666666666666,26.99999999999999,247.27272727272725,26.99999999999999C247.87878787878785,26.99999999999999,248.48484848484847,26.99999999999999,249.09090909090907,26.99999999999999C249.6969696969697,26.99999999999999,250.3030303030303,26.99999999999999,250.90909090909093,26.99999999999999C251.51515151515153,26.99999999999999,252.12121212121215,26.99999999999999,252.72727272727275,26.99999999999999C253.33333333333334,26.99999999999999,253.93939393939394,26.99999999999999,254.54545454545453,26.99999999999999C255.15151515151516,26.99999999999999,255.75757575757575,26.99999999999999,256.3636363636364,26.99999999999999C256.969696969697,26.99999999999999,257.57575757575756,26.99999999999999,258.1818181818182,26.99999999999999C258.7878787878788,26.99999999999999,259.3939393939394,24.99999999999999,260,23.99999999999999C260.6060606060606,22.99999999999999,261.2121212121212,20.999999999999986,261.8181818181818,20.999999999999986C262.42424242424244,20.999999999999986,263.030303030303,20.999999999999986,263.6363636363636,20.999999999999986C264.24242424242425,20.999999999999986,264.8484848484849,20.999999999999986,265.4545454545455,20.999999999999986C266.0606060606061,20.999999999999986,266.6666666666667,20.999999999999986,267.2727272727273,20.999999999999986C267.8787878787879,20.999999999999986,268.4848484848485,22.50000000000003,269.09090909090907,23.99999999999999C269.6969696969697,25.5,270.30303030303025,29.999999999999993,270.9090909090909,29.999999999999993C271.5151515151515,29.999999999999993,272.12121212121207,26.99999999999999,272.7272727272727,26.99999999999999C273.3333333333333,26.99999999999999,273.93939393939394,26.99999999999999,274.54545454545456,26.99999999999999C275.1515151515152,26.99999999999999,275.75757575757575,29.999999999999993,276.3636363636364,29.999999999999993C276.969696969697,29.999999999999993,277.57575757575756,29.999999999999993,278.1818181818182,29.999999999999993C278.7878787878788,29.999999999999993,279.3939393939394,29.999999999999993,280,29.999999999999993C280.6060606060606,29.999999999999993,281.2121212121212,32.99999999999999,281.8181818181818,32.99999999999999C282.42424242424244,32.99999999999999,283.030303030303,32.99999999999999,283.6363636363636,32.99999999999999C284.24242424242425,32.99999999999999,284.8484848484848,36,285.45454545454544,36C286.06060606060606,36,286.66666666666663,36,287.27272727272725,36C287.8787878787879,36,288.4848484848485,37.999999999999986,289.0909090909091,39C289.69696969696975,39.999999999999986,290.3030303030303,41.00000000000001,290.90909090909093,42.00000000000001C291.51515151515156,43.00000000000001,292.1212121212121,45.00000000000001,292.72727272727275,45.00000000000001C293.3333333333333,45.00000000000001,293.93939393939394,45.00000000000001,294.5454545454545,45.00000000000001C295.1515151515151,45.00000000000001,295.75757575757575,50.49999999999995,296.3636363636364,54.000000000000014C296.969696969697,57.49999999999997,297.57575757575756,63.99999999999998,298.1818181818182,65.99999999999999C298.7878787878788,68,299.3939393939394,67.5,300,69C300.6060606060606,70.5,301.2121212121212,73,301.8181818181818,75C302.42424242424244,77,303.030303030303,79.5,303.6363636363636,81C304.24242424242425,82.50000000000004,304.8484848484849,82,305.4545454545455,84.00000000000001C306.06060606060606,85.9999999999999,306.6666666666667,90.50000000000004,307.27272727272725,93.00000000000001C307.8787878787879,95.50000000000007,308.48484848484844,96.49999999999999,309.09090909090907,98.99999999999999C309.6969696969697,101.49999999999999,310.30303030303025,104.50000000000007,310.9090909090909,108C311.5151515151515,111.50000000000004,312.1212121212121,117.99999999999993,312.72727272727275,120C313.33333333333337,122.00000000000001,313.93939393939394,121.00000000000001,314.54545454545456,123.00000000000001C315.1515151515152,125.00000000000001,315.75757575757575,127.49999999999997,316.3636363636364,131.99999999999997C316.969696969697,136.49999999999997,317.57575757575756,145,318.1818181818182,150C318.7878787878788,155,319.3939393939394,157,320,162C320.6060606060606,167,321.2121212121212,180,321.8181818181818,180C322.42424242424244,180,323.030303030303,177.00000000000003,323.6363636363636,177.00000000000003C324.24242424242425,177.00000000000003,324.8484848484848,186,325.45454545454544,186C326.06060606060606,186,326.6666666666667,177.00000000000003,327.2727272727273,177.00000000000003C327.87878787878793,177.00000000000003,328.4848484848485,177.00000000000003,329.0909090909091,177.00000000000003C329.69696969696975,177.00000000000003,330.3030303030303,179,330.90909090909093,180C331.5151515151515,180.99999999999997,332.1212121212121,183,332.7272727272727,183C333.3333333333333,183,333.9393939393939,180.99999999999997,334.5454545454545,180C335.1515151515151,179,335.75757575757575,177.00000000000003,336.3636363636364,177.00000000000003C336.969696969697,177.00000000000003,337.57575757575756,177.00000000000003,338.1818181818182,177.00000000000003C338.7878787878788,177.00000000000003,339.3939393939394,183,340,183C340.6060606060606,183,341.2121212121212,183,341.8181818181818,183C342.42424242424244,183,343.030303030303,216,343.6363636363636,216C344.24242424242425,216,344.8484848484848,194,345.45454545454544,192C346.06060606060606,190,346.66666666666663,190,347.27272727272725,189C347.8787878787879,188,348.48484848484844,186,349.09090909090907,186C349.6969696969697,186,350.3030303030303,192,350.90909090909093,192C351.51515151515156,192,352.1212121212121,192,352.72727272727275,192C353.33333333333337,192,353.93939393939394,194,354.54545454545456,195C355.1515151515152,196,355.75757575757575,196.99999999999997,356.3636363636364,197.99999999999997C356.969696969697,198.99999999999997,357.57575757575756,198.99999999999997,358.1818181818182,200.99999999999997C358.7878787878788,202.99999999999997,359.3939393939394,214,360,216C360.6060606060606,218,361.2121212121212,217.5,361.8181818181818,219C362.42424242424244,220.5,363.030303030303,222.50000000000006,363.6363636363636,225C364.24242424242425,227.50000000000003,364.8484848484849,231.49999999999997,365.4545454545455,234C366.0606060606061,236.49999999999994,366.6666666666667,240,367.2727272727273,240C367.8787878787879,240,368.4848484848485,240,369.09090909090907,240C369.6969696969697,240,370.30303030303025,246.00000000000003,370.9090909090909,246.00000000000003C371.5151515151515,246.00000000000003,372.12121212121207,244.00000000000003,372.7272727272727,243.00000000000003C373.3333333333333,242,373.93939393939394,240,374.54545454545456,240C375.1515151515152,240,375.75757575757575,246.00000000000003,376.3636363636364,246.00000000000003C376.969696969697,246.00000000000003,377.57575757575756,243.00000000000003,378.1818181818182,243.00000000000003C378.7878787878788,243.00000000000003,379.3939393939394,243.00000000000003,380,243.00000000000003C380.6060606060606,243.00000000000003,381.2121212121212,243.00000000000003,381.8181818181818,243.00000000000003C382.42424242424244,243.00000000000003,383.030303030303,240,383.6363636363636,237L383.6363636363636,300C383.030303030303,300,382.42424242424244,300,381.8181818181818,300C381.2121212121212,300,380.6060606060606,300,380,300C379.3939393939394,300,378.7878787878788,300,378.1818181818182,300C377.57575757575756,300,376.969696969697,300,376.3636363636364,300C375.75757575757575,300,375.1515151515152,300,374.54545454545456,300C373.93939393939394,300,373.3333333333333,300,372.7272727272727,300C372.12121212121207,300,371.5151515151515,300,370.9090909090909,300C370.30303030303025,300,369.6969696969697,300,369.09090909090907,300C368.4848484848485,300,367.8787878787879,300,367.2727272727273,300C366.6666666666667,300,366.0606060606061,300,365.4545454545455,300C364.8484848484849,300,364.24242424242425,300,363.6363636363636,300C363.030303030303,300,362.42424242424244,300,361.8181818181818,300C361.2121212121212,300,360.6060606060606,300,360,300C359.3939393939394,300,358.7878787878788,300,358.1818181818182,300C357.57575757575756,300,356.969696969697,300,356.3636363636364,300C355.75757575757575,300,355.1515151515152,300,354.54545454545456,300C353.93939393939394,300,353.33333333333337,300,352.72727272727275,300C352.1212121212121,300,351.51515151515156,300,350.90909090909093,300C350.3030303030303,300,349.6969696969697,300,349.09090909090907,300C348.48484848484844,300,347.8787878787879,300,347.27272727272725,300C346.66666666666663,300,346.06060606060606,300,345.45454545454544,300C344.8484848484848,300,344.24242424242425,300,343.6363636363636,300C343.030303030303,300,342.42424242424244,300,341.8181818181818,300C341.2121212121212,300,340.6060606060606,300,340,300C339.3939393939394,300,338.7878787878788,300,338.1818181818182,300C337.57575757575756,300,336.969696969697,300,336.3636363636364,300C335.75757575757575,300,335.1515151515151,300,334.5454545454545,300C333.9393939393939,300,333.3333333333333,300,332.7272727272727,300C332.1212121212121,300,331.5151515151515,300,330.90909090909093,300C330.3030303030303,300,329.69696969696975,300,329.0909090909091,300C328.4848484848485,300,327.87878787878793,300,327.2727272727273,300C326.6666666666667,300,326.06060606060606,300,325.45454545454544,300C324.8484848484848,300,324.24242424242425,300,323.6363636363636,300C323.030303030303,300,322.42424242424244,300,321.8181818181818,300C321.2121212121212,300,320.6060606060606,300,320,300C319.3939393939394,300,318.7878787878788,300,318.1818181818182,300C317.57575757575756,300,316.969696969697,300,316.3636363636364,300C315.75757575757575,300,315.1515151515152,300,314.54545454545456,300C313.93939393939394,300,313.33333333333337,300,312.72727272727275,300C312.1212121212121,300,311.5151515151515,300,310.9090909090909,300C310.30303030303025,300,309.6969696969697,300,309.09090909090907,300C308.48484848484844,300,307.8787878787879,300,307.27272727272725,300C306.6666666666667,300,306.06060606060606,300,305.4545454545455,300C304.8484848484849,300,304.24242424242425,300,303.6363636363636,300C303.030303030303,300,302.42424242424244,300,301.8181818181818,300C301.2121212121212,300,300.6060606060606,300,300,300C299.3939393939394,300,298.7878787878788,300,298.1818181818182,300C297.57575757575756,300,296.969696969697,300,296.3636363636364,300C295.75757575757575,300,295.1515151515151,300,294.5454545454545,300C293.93939393939394,300,293.3333333333333,300,292.72727272727275,300C292.1212121212121,300,291.51515151515156,300,290.90909090909093,300C290.3030303030303,300,289.69696969696975,300,289.0909090909091,300C288.4848484848485,300,287.8787878787879,300,287.27272727272725,300C286.66666666666663,300,286.06060606060606,300,285.45454545454544,300C284.8484848484848,300,284.24242424242425,300,283.6363636363636,300C283.030303030303,300,282.42424242424244,300,281.8181818181818,300C281.2121212121212,300,280.6060606060606,300,280,300C279.3939393939394,300,278.7878787878788,300,278.1818181818182,300C277.57575757575756,300,276.969696969697,300,276.3636363636364,300C275.75757575757575,300,275.1515151515152,300,274.54545454545456,300C273.93939393939394,300,273.3333333333333,300,272.7272727272727,300C272.12121212121207,300,271.5151515151515,300,270.9090909090909,300C270.30303030303025,300,269.6969696969697,300,269.09090909090907,300C268.4848484848485,300,267.8787878787879,300,267.2727272727273,300C266.6666666666667,300,266.0606060606061,300,265.4545454545455,300C264.8484848484849,300,264.24242424242425,300,263.6363636363636,300C263.030303030303,300,262.42424242424244,300,261.8181818181818,300C261.2121212121212,300,260.6060606060606,300,260,300C259.3939393939394,300,258.7878787878788,300,258.1818181818182,300C257.57575757575756,300,256.969696969697,300,256.3636363636364,300C255.75757575757575,300,255.15151515151516,300,254.54545454545453,300C253.93939393939394,300,253.33333333333334,300,252.72727272727275,300C252.12121212121215,300,251.51515151515153,300,250.90909090909093,300C250.3030303030303,300,249.6969696969697,300,249.09090909090907,300C248.48484848484847,300,247.87878787878785,300,247.27272727272725,300C246.66666666666666,300,246.06060606060606,300,245.45454545454547,300C244.84848484848487,300,244.24242424242425,300,243.63636363636365,300C243.03030303030303,300,242.42424242424244,300,241.8181818181818,300C241.21212121212122,300,240.6060606060606,300,240,300C239.3939393939394,300,238.78787878787878,300,238.1818181818182,300C237.5757575757576,300,236.96969696969697,300,236.36363636363637,300C235.75757575757575,300,235.15151515151516,300,234.54545454545453,300C233.93939393939394,300,233.33333333333331,300,232.72727272727272,300C232.12121212121212,300,231.5151515151515,300,230.9090909090909,300C230.3030303030303,300,229.6969696969697,300,229.0909090909091,300C228.4848484848485,300,227.87878787878788,300,227.27272727272728,300C226.66666666666666,300,226.06060606060606,300,225.45454545454544,300C224.84848484848484,300,224.24242424242422,300,223.63636363636363,300C223.03030303030303,300,222.4242424242424,300,221.8181818181818,300C221.21212121212122,300,220.60606060606062,300,220.00000000000003,300C219.3939393939394,300,218.78787878787878,300,218.18181818181816,300C217.57575757575756,300,216.96969696969694,300,216.36363636363635,300C215.75757575757575,300,215.15151515151516,300,214.54545454545456,300C213.93939393939397,300,213.33333333333334,300,212.72727272727275,300C212.12121212121212,300,211.5151515151515,300,210.90909090909088,300C210.30303030303028,300,209.6969696969697,300,209.0909090909091,300C208.4848484848485,300,207.87878787878788,300,207.27272727272728,300C206.66666666666669,300,206.06060606060606,300,205.45454545454547,300C204.84848484848484,300,204.24242424242425,300,203.63636363636363,300C203.03030303030303,300,202.4242424242424,300,201.8181818181818,300C201.21212121212122,300,200.6060606060606,300,200,300C199.3939393939394,300,198.78787878787878,300,198.1818181818182,300C197.5757575757576,300,196.96969696969697,300,196.36363636363637,300C195.75757575757578,300,195.15151515151516,300,194.54545454545456,300C193.93939393939394,300,193.33333333333334,300,192.72727272727272,300C192.12121212121212,300,191.5151515151515,300,190.9090909090909,300C190.3030303030303,300,189.6969696969697,300,189.0909090909091,300C188.4848484848485,300,187.87878787878788,300,187.27272727272728,300C186.66666666666666,300,186.06060606060606,300,185.45454545454544,300C184.84848484848484,300,184.24242424242425,300,183.63636363636365,300C183.03030303030303,300,182.42424242424244,300,181.8181818181818,300C181.21212121212122,300,180.6060606060606,300,180,300C179.3939393939394,300,178.78787878787878,300,178.1818181818182,300C177.5757575757576,300,176.96969696969697,300,176.36363636363637,300C175.75757575757575,300,175.15151515151516,300,174.54545454545453,300C173.93939393939394,300,173.33333333333331,300,172.72727272727272,300C172.12121212121212,300,171.5151515151515,300,170.9090909090909,300C170.3030303030303,300,169.6969696969697,300,169.0909090909091,300C168.48484848484847,300,167.87878787878788,300,167.27272727272725,300C166.66666666666666,300,166.06060606060606,300,165.45454545454547,300C164.84848484848487,300,164.24242424242425,300,163.63636363636365,300C163.03030303030303,300,162.42424242424244,300,161.8181818181818,300C161.21212121212122,300,160.6060606060606,300,160,300C159.3939393939394,300,158.78787878787878,300,158.1818181818182,300C157.5757575757576,300,156.96969696969697,300,156.36363636363637,300C155.75757575757575,300,155.15151515151516,300,154.54545454545453,300C153.93939393939394,300,153.33333333333334,300,152.72727272727275,300C152.12121212121212,300,151.51515151515153,300,150.9090909090909,300C150.3030303030303,300,149.6969696969697,300,149.0909090909091,300C148.48484848484847,300,147.87878787878788,300,147.27272727272725,300C146.66666666666666,300,146.06060606060606,300,145.45454545454547,300C144.84848484848484,300,144.24242424242425,300,143.63636363636363,300C143.03030303030303,300,142.4242424242424,300,141.8181818181818,300C141.21212121212122,300,140.6060606060606,300,140,300C139.3939393939394,300,138.78787878787878,300,138.1818181818182,300C137.57575757575756,300,136.96969696969697,300,136.36363636363635,300C135.75757575757575,300,135.15151515151513,300,134.54545454545453,300C133.93939393939394,300,133.33333333333334,300,132.72727272727275,300C132.12121212121212,300,131.51515151515153,300,130.9090909090909,300C130.3030303030303,300,129.6969696969697,300,129.0909090909091,300C128.4848484848485,300,127.87878787878788,300,127.27272727272727,300C126.66666666666667,300,126.06060606060606,300,125.45454545454547,300C124.84848484848486,300,124.24242424242424,300,123.63636363636363,300C123.03030303030303,300,122.42424242424242,300,121.81818181818183,300C121.21212121212122,300,120.60606060606061,300,120,300C119.39393939393939,300,118.7878787878788,300,118.18181818181819,300C117.57575757575758,300,116.96969696969697,300,116.36363636363636,300C115.75757575757575,300,115.15151515151516,300,114.54545454545455,300C113.93939393939394,300,113.33333333333333,300,112.72727272727272,300C112.12121212121211,300,111.51515151515152,300,110.9090909090909,300C110.3030303030303,300,109.69696969696969,300,109.09090909090908,300C108.48484848484848,300,107.87878787878788,300,107.27272727272728,300C106.66666666666667,300,106.06060606060605,300,105.45454545454544,300C104.84848484848484,300,104.24242424242424,300,103.63636363636364,300C103.03030303030303,300,102.42424242424242,300,101.81818181818181,300C101.2121212121212,300,100.60606060606061,300,100,300C99.39393939393939,300,98.7878787878788,300,98.18181818181819,300C97.57575757575758,300,96.96969696969697,300,96.36363636363636,300C95.75757575757575,300,95.15151515151516,300,94.54545454545455,300C93.93939393939394,300,93.33333333333333,300,92.72727272727272,300C92.12121212121211,300,91.51515151515152,300,90.9090909090909,300C90.3030303030303,300,89.6969696969697,300,89.0909090909091,300C88.48484848484848,300,87.87878787878788,300,87.27272727272727,300C86.66666666666666,300,86.06060606060606,300,85.45454545454545,300C84.84848484848484,300,84.24242424242424,300,83.63636363636363,300C83.03030303030303,300,82.42424242424242,300,81.81818181818183,300C81.21212121212122,300,80.60606060606061,300,80,300C79.39393939393939,300,78.7878787878788,300,78.18181818181819,300C77.57575757575758,300,76.96969696969698,300,76.36363636363637,300C75.75757575757576,300,75.15151515151516,300,74.54545454545455,300C73.93939393939394,300,73.33333333333334,300,72.72727272727273,300C72.12121212121212,300,71.51515151515152,300,70.9090909090909,300C70.3030303030303,300,69.6969696969697,300,69.0909090909091,300C68.48484848484848,300,67.87878787878788,300,67.27272727272727,300C66.66666666666666,300,66.06060606060606,300,65.45454545454545,300C64.84848484848484,300,64.24242424242424,300,63.63636363636363,300C63.030303030303024,300,62.42424242424242,300,61.81818181818181,300C61.21212121212121,300,60.6060606060606,300,60,300C59.39393939393939,300,58.78787878787879,300,58.18181818181818,300C57.57575757575757,300,56.96969696969697,300,56.36363636363636,300C55.75757575757575,300,55.15151515151515,300,54.54545454545454,300C53.93939393939393,300,53.33333333333333,300,52.72727272727272,300C52.12121212121212,300,51.51515151515151,300,50.90909090909091,300C50.303030303030305,300,49.696969696969695,300,49.09090909090909,300C48.484848484848484,300,47.87878787878788,300,47.27272727272727,300C46.666666666666664,300,46.06060606060606,300,45.45454545454545,300C44.848484848484844,300,44.24242424242424,300,43.63636363636363,300C43.030303030303024,300,42.42424242424242,300,41.81818181818181,300C41.21212121212121,300,40.6060606060606,300,40,300C39.3939393939394,300,38.78787878787879,300,38.18181818181819,300C37.57575757575758,300,36.969696969696976,300,36.36363636363637,300C35.75757575757576,300,35.151515151515156,300,34.54545454545455,300C33.93939393939394,300,33.333333333333336,300,32.72727272727273,300C32.12121212121212,300,31.515151515151512,300,30.909090909090907,300C30.3030303030303,300,29.696969696969695,300,29.09090909090909,300C28.484848484848484,300,27.878787878787875,300,27.27272727272727,300C26.666666666666664,300,26.06060606060606,300,25.454545454545453,300C24.848484848484848,300,24.242424242424242,300,23.636363636363637,300C23.03030303030303,300,22.424242424242422,300,21.818181818181817,300C21.21212121212121,300,20.606060606060606,300,20,300C19.393939393939394,300,18.78787878787879,300,18.181818181818183,300C17.575757575757578,300,16.96969696969697,300,16.363636363636363,300C15.757575757575758,300,15.15151515151515,300,14.545454545454545,300C13.93939393939394,300,13.333333333333332,300,12.727272727272727,300C12.121212121212121,300,11.515151515151514,300,10.909090909090908,300C10.303030303030303,300,9.696969696969697,300,9.090909090909092,300Z" fill="url(#gradient_0)" fill-opacity="0.7"/></g><g class="mark-line role-mark layer_1_marks" role="graphics-object" aria-roledescription="line mark container"><path aria-label="year: 1805; y: 77%" role="graphics-symbol" aria-roledescription="line mark" d="M9.090909090909092,69C9.696969696969697,67.5,10.303030303030303,65.99999999999999,10.909090909090908,65.99999999999999C11.515151515151514,65.99999999999999,12.121212121212121,65.99999999999999,12.727272727272727,65.99999999999999C13.333333333333332,65.99999999999999,13.93939393939394,62.999999999999986,14.545454545454545,62.999999999999986C15.15151515151515,62.999999999999986,15.757575757575758,62.999999999999986,16.363636363636363,62.999999999999986C16.96969696969697,62.999999999999986,17.575757575757578,59.999999999999986,18.181818181818183,59.999999999999986C18.78787878787879,59.999999999999986,19.393939393939394,59.999999999999986,20,59.999999999999986C20.606060606060606,59.999999999999986,21.21212121212121,56.999999999999986,21.818181818181817,56.999999999999986C22.424242424242422,56.999999999999986,23.03030303030303,56.999999999999986,23.636363636363637,56.999999999999986C24.242424242424242,56.999999999999986,24.848484848484848,56.999999999999986,25.454545454545453,56.999999999999986C26.06060606060606,56.999999999999986,26.666666666666664,54.000000000000014,27.27272727272727,54.000000000000014C27.878787878787875,54.000000000000014,28.484848484848484,54.000000000000014,29.09090909090909,54.000000000000014C29.696969696969695,54.000000000000014,30.3030303030303,54.000000000000014,30.909090909090907,54.000000000000014C31.515151515151512,54.000000000000014,32.12121212121212,51.000000000000014,32.72727272727273,51.000000000000014C33.333333333333336,51.000000000000014,33.93939393939394,51.000000000000014,34.54545454545455,51.000000000000014C35.151515151515156,51.000000000000014,35.75757575757576,51.000000000000014,36.36363636363637,51.000000000000014C36.969696969696976,51.000000000000014,37.57575757575758,51.000000000000014,38.18181818181819,51.000000000000014C38.78787878787879,51.000000000000014,39.3939393939394,51.000000000000014,40,51.000000000000014C40.6060606060606,51.000000000000014,41.21212121212121,48.00000000000001,41.81818181818181,48.00000000000001C42.42424242424242,48.00000000000001,43.030303030303024,48.00000000000001,43.63636363636363,48.00000000000001C44.24242424242424,48.00000000000001,44.848484848484844,48.00000000000001,45.45454545454545,48.00000000000001C46.06060606060606,48.00000000000001,46.666666666666664,45.00000000000001,47.27272727272727,45.00000000000001C47.87878787878788,45.00000000000001,48.484848484848484,45.00000000000001,49.09090909090909,45.00000000000001C49.696969696969695,45.00000000000001,50.303030303030305,45.00000000000001,50.90909090909091,45.00000000000001C51.51515151515151,45.00000000000001,52.12121212121212,45.00000000000001,52.72727272727272,45.00000000000001C53.33333333333333,45.00000000000001,53.93939393939393,45.00000000000001,54.54545454545454,45.00000000000001C55.15151515151515,45.00000000000001,55.75757575757575,45.00000000000001,56.36363636363636,45.00000000000001C56.96969696969697,45.00000000000001,57.57575757575757,42.00000000000001,58.18181818181818,42.00000000000001C58.78787878787879,42.00000000000001,59.39393939393939,42.00000000000001,60,42.00000000000001C60.6060606060606,42.00000000000001,61.21212121212121,42.00000000000001,61.81818181818181,42.00000000000001C62.42424242424242,42.00000000000001,63.030303030303024,39,63.63636363636363,39C64.24242424242424,39,64.84848484848484,39,65.45454545454545,39C66.06060606060606,39,66.66666666666666,39,67.27272727272727,39C67.87878787878788,39,68.48484848484848,39,69.0909090909091,39C69.6969696969697,39,70.3030303030303,36,70.9090909090909,36C71.51515151515152,36,72.12121212121212,36,72.72727272727273,36C73.33333333333334,36,73.93939393939394,36,74.54545454545455,36C75.15151515151516,36,75.75757575757576,36,76.36363636363637,36C76.96969696969698,36,77.57575757575758,32.99999999999999,78.18181818181819,32.99999999999999C78.7878787878788,32.99999999999999,79.39393939393939,32.99999999999999,80,32.99999999999999C80.60606060606061,32.99999999999999,81.21212121212122,32.99999999999999,81.81818181818183,32.99999999999999C82.42424242424242,32.99999999999999,83.03030303030303,32.99999999999999,83.63636363636363,32.99999999999999C84.24242424242424,32.99999999999999,84.84848484848484,32.99999999999999,85.45454545454545,32.99999999999999C86.06060606060606,32.99999999999999,86.66666666666666,29.999999999999993,87.27272727272727,29.999999999999993C87.87878787878788,29.999999999999993,88.48484848484848,29.999999999999993,89.0909090909091,29.999999999999993C89.6969696969697,29.999999999999993,90.3030303030303,29.999999999999993,90.9090909090909,29.999999999999993C91.51515151515152,29.999999999999993,92.12121212121211,26.99999999999999,92.72727272727272,26.99999999999999C93.33333333333333,26.99999999999999,93.93939393939394,26.99999999999999,94.54545454545455,26.99999999999999C95.15151515151516,26.99999999999999,95.75757575757575,26.99999999999999,96.36363636363636,26.99999999999999C96.96969696969697,26.99999999999999,97.57575757575758,23.99999999999999,98.18181818181819,23.99999999999999C98.7878787878788,23.99999999999999,99.39393939393939,23.99999999999999,100,23.99999999999999C100.60606060606061,23.99999999999999,101.2121212121212,23.99999999999999,101.81818181818181,23.99999999999999C102.42424242424242,23.99999999999999,103.03030303030303,23.99999999999999,103.63636363636364,23.99999999999999C104.24242424242424,23.99999999999999,104.84848484848484,23.99999999999999,105.45454545454544,23.99999999999999C106.06060606060605,23.99999999999999,106.66666666666667,23.99999999999999,107.27272727272728,23.99999999999999C107.87878787878788,23.99999999999999,108.48484848484848,23.99999999999999,109.09090909090908,23.99999999999999C109.69696969696969,23.99999999999999,110.3030303030303,20.999999999999986,110.9090909090909,20.999999999999986C111.51515151515152,20.999999999999986,112.12121212121211,20.999999999999986,112.72727272727272,20.999999999999986C113.33333333333333,20.999999999999986,113.93939393939394,20.999999999999986,114.54545454545455,20.999999999999986C115.15151515151516,20.999999999999986,115.75757575757575,20.999999999999986,116.36363636363636,20.999999999999986C116.96969696969697,20.999999999999986,117.57575757575758,20.999999999999986,118.18181818181819,20.999999999999986C118.7878787878788,20.999999999999986,119.39393939393939,20.999999999999986,120,20.999999999999986C120.60606060606061,20.999999999999986,121.21212121212122,20.999999999999986,121.81818181818183,20.999999999999986C122.42424242424242,20.999999999999986,123.03030303030303,20.999999999999986,123.63636363636363,20.999999999999986C124.24242424242424,20.999999999999986,124.84848484848486,18.000000000000014,125.45454545454547,18.000000000000014C126.06060606060606,18.000000000000014,126.66666666666667,18.000000000000014,127.27272727272727,18.000000000000014C127.87878787878788,18.000000000000014,128.4848484848485,18.000000000000014,129.0909090909091,18.000000000000014C129.6969696969697,18.000000000000014,130.3030303030303,18.000000000000014,130.9090909090909,18.000000000000014C131.51515151515153,18.000000000000014,132.12121212121212,18.000000000000014,132.72727272727275,18.000000000000014C133.33333333333334,18.000000000000014,133.93939393939394,18.000000000000014,134.54545454545453,18.000000000000014C135.15151515151513,18.000000000000014,135.75757575757575,18.000000000000014,136.36363636363635,18.000000000000014C136.96969696969697,18.000000000000014,137.57575757575756,18.000000000000014,138.1818181818182,18.000000000000014C138.78787878787878,18.000000000000014,139.3939393939394,15.000000000000014,140,15.000000000000014C140.6060606060606,15.000000000000014,141.21212121212122,15.000000000000014,141.8181818181818,15.000000000000014C142.4242424242424,15.000000000000014,143.03030303030303,15.000000000000014,143.63636363636363,15.000000000000014C144.24242424242425,15.000000000000014,144.84848484848484,15.000000000000014,145.45454545454547,15.000000000000014C146.06060606060606,15.000000000000014,146.66666666666666,15.000000000000014,147.27272727272725,15.000000000000014C147.87878787878788,15.000000000000014,148.48484848484847,18.000000000000014,149.0909090909091,18.000000000000014C149.6969696969697,18.000000000000014,150.3030303030303,18.000000000000014,150.9090909090909,18.000000000000014C151.51515151515153,18.000000000000014,152.12121212121212,15.000000000000014,152.72727272727275,15.000000000000014C153.33333333333334,15.000000000000014,153.93939393939394,15.000000000000014,154.54545454545453,15.000000000000014C155.15151515151516,15.000000000000014,155.75757575757575,15.000000000000014,156.36363636363637,15.000000000000014C156.96969696969697,15.000000000000014,157.5757575757576,15.000000000000014,158.1818181818182,15.000000000000014C158.78787878787878,15.000000000000014,159.3939393939394,15.000000000000014,160,15.000000000000014C160.6060606060606,15.000000000000014,161.21212121212122,15.000000000000014,161.8181818181818,15.000000000000014C162.42424242424244,15.000000000000014,163.03030303030303,15.000000000000014,163.63636363636365,15.000000000000014C164.24242424242425,15.000000000000014,164.84848484848487,15.000000000000014,165.45454545454547,15.000000000000014C166.06060606060606,15.000000000000014,166.66666666666666,15.000000000000014,167.27272727272725,15.000000000000014C167.87878787878788,15.000000000000014,168.48484848484847,15.000000000000014,169.0909090909091,15.000000000000014C169.6969696969697,15.000000000000014,170.3030303030303,15.000000000000014,170.9090909090909,15.000000000000014C171.5151515151515,15.000000000000014,172.12121212121212,15.000000000000014,172.72727272727272,15.000000000000014C173.33333333333331,15.000000000000014,173.93939393939394,15.000000000000014,174.54545454545453,15.000000000000014C175.15151515151516,15.000000000000014,175.75757575757575,18.000000000000014,176.36363636363637,18.000000000000014C176.96969696969697,18.000000000000014,177.5757575757576,15.000000000000014,178.1818181818182,15.000000000000014C178.78787878787878,15.000000000000014,179.3939393939394,15.000000000000014,180,15.000000000000014C180.6060606060606,15.000000000000014,181.21212121212122,15.000000000000014,181.8181818181818,15.000000000000014C182.42424242424244,15.000000000000014,183.03030303030303,15.000000000000014,183.63636363636365,15.000000000000014C184.24242424242425,15.000000000000014,184.84848484848484,15.000000000000014,185.45454545454544,15.000000000000014C186.06060606060606,15.000000000000014,186.66666666666666,15.000000000000014,187.27272727272728,15.000000000000014C187.87878787878788,15.000000000000014,188.4848484848485,12.00000000000001,189.0909090909091,12.00000000000001C189.6969696969697,12.00000000000001,190.3030303030303,15.000000000000014,190.9090909090909,15.000000000000014C191.5151515151515,15.000000000000014,192.12121212121212,15.000000000000014,192.72727272727272,15.000000000000014C193.33333333333334,15.000000000000014,193.93939393939394,15.000000000000014,194.54545454545456,15.000000000000014C195.15151515151516,15.000000000000014,195.75757575757578,15.000000000000014,196.36363636363637,15.000000000000014C196.96969696969697,15.000000000000014,197.5757575757576,15.000000000000014,198.1818181818182,15.000000000000014C198.78787878787878,15.000000000000014,199.3939393939394,12.00000000000001,200,12.00000000000001C200.6060606060606,12.00000000000001,201.21212121212122,12.00000000000001,201.8181818181818,12.00000000000001C202.4242424242424,12.00000000000001,203.03030303030303,15.000000000000014,203.63636363636363,15.000000000000014C204.24242424242425,15.000000000000014,204.84848484848484,15.000000000000014,205.45454545454547,15.000000000000014C206.06060606060606,15.000000000000014,206.66666666666669,15.000000000000014,207.27272727272728,15.000000000000014C207.87878787878788,15.000000000000014,208.4848484848485,12.00000000000001,209.0909090909091,12.00000000000001C209.6969696969697,12.00000000000001,210.30303030303028,15.000000000000014,210.90909090909088,15.000000000000014C211.5151515151515,15.000000000000014,212.12121212121212,12.00000000000001,212.72727272727275,12.00000000000001C213.33333333333334,12.00000000000001,213.93939393939397,15.000000000000014,214.54545454545456,15.000000000000014C215.15151515151516,15.000000000000014,215.75757575757575,15.000000000000014,216.36363636363635,15.000000000000014C216.96969696969694,15.000000000000014,217.57575757575756,15.000000000000014,218.18181818181816,15.000000000000014C218.78787878787878,15.000000000000014,219.3939393939394,12.00000000000001,220.00000000000003,12.00000000000001C220.60606060606062,12.00000000000001,221.21212121212122,14.000000000000021,221.8181818181818,15.000000000000014C222.4242424242424,16.00000000000002,223.03030303030303,18.000000000000014,223.63636363636363,18.000000000000014C224.24242424242422,18.000000000000014,224.84848484848484,15.000000000000014,225.45454545454544,15.000000000000014C226.06060606060606,15.000000000000014,226.66666666666666,15.000000000000014,227.27272727272728,15.000000000000014C227.87878787878788,15.000000000000014,228.4848484848485,23.99999999999999,229.0909090909091,23.99999999999999C229.6969696969697,23.99999999999999,230.3030303030303,18.000000000000014,230.9090909090909,18.000000000000014C231.5151515151515,18.000000000000014,232.12121212121212,18.000000000000014,232.72727272727272,18.000000000000014C233.33333333333331,18.000000000000014,233.93939393939394,18.000000000000014,234.54545454545453,18.000000000000014C235.15151515151516,18.000000000000014,235.75757575757575,18.000000000000014,236.36363636363637,18.000000000000014C236.96969696969697,18.000000000000014,237.5757575757576,29.999999999999993,238.1818181818182,29.999999999999993C238.78787878787878,29.999999999999993,239.3939393939394,20.999999999999986,240,20.999999999999986C240.6060606060606,20.999999999999986,241.21212121212122,20.999999999999986,241.8181818181818,20.999999999999986C242.42424242424244,20.999999999999986,243.03030303030303,23.99999999999999,243.63636363636365,23.99999999999999C244.24242424242425,23.99999999999999,244.84848484848487,23.99999999999999,245.45454545454547,23.99999999999999C246.06060606060606,23.99999999999999,246.66666666666666,26.99999999999999,247.27272727272725,26.99999999999999C247.87878787878785,26.99999999999999,248.48484848484847,26.99999999999999,249.09090909090907,26.99999999999999C249.6969696969697,26.99999999999999,250.3030303030303,26.99999999999999,250.90909090909093,26.99999999999999C251.51515151515153,26.99999999999999,252.12121212121215,26.99999999999999,252.72727272727275,26.99999999999999C253.33333333333334,26.99999999999999,253.93939393939394,26.99999999999999,254.54545454545453,26.99999999999999C255.15151515151516,26.99999999999999,255.75757575757575,26.99999999999999,256.3636363636364,26.99999999999999C256.969696969697,26.99999999999999,257.57575757575756,26.99999999999999,258.1818181818182,26.99999999999999C258.7878787878788,26.99999999999999,259.3939393939394,24.99999999999999,260,23.99999999999999C260.6060606060606,22.99999999999999,261.2121212121212,20.999999999999986,261.8181818181818,20.999999999999986C262.42424242424244,20.999999999999986,263.030303030303,20.999999999999986,263.6363636363636,20.999999999999986C264.24242424242425,20.999999999999986,264.8484848484849,20.999999999999986,265.4545454545455,20.999999999999986C266.0606060606061,20.999999999999986,266.6666666666667,20.999999999999986,267.2727272727273,20.999999999999986C267.8787878787879,20.999999999999986,268.4848484848485,22.50000000000003,269.09090909090907,23.99999999999999C269.6969696969697,25.5,270.30303030303025,29.999999999999993,270.9090909090909,29.999999999999993C271.5151515151515,29.999999999999993,272.12121212121207,26.99999999999999,272.7272727272727,26.99999999999999C273.3333333333333,26.99999999999999,273.93939393939394,26.99999999999999,274.54545454545456,26.99999999999999C275.1515151515152,26.99999999999999,275.75757575757575,29.999999999999993,276.3636363636364,29.999999999999993C276.969696969697,29.999999999999993,277.57575757575756,29.999999999999993,278.1818181818182,29.999999999999993C278.7878787878788,29.999999999999993,279.3939393939394,29.999999999999993,280,29.999999999999993C280.6060606060606,29.999999999999993,281.2121212121212,32.99999999999999,281.8181818181818,32.99999999999999C282.42424242424244,32.99999999999999,283.030303030303,32.99999999999999,283.6363636363636,32.99999999999999C284.24242424242425,32.99999999999999,284.8484848484848,36,285.45454545454544,36C286.06060606060606,36,286.66666666666663,36,287.27272727272725,36C287.8787878787879,36,288.4848484848485,37.999999999999986,289.0909090909091,39C289.69696969696975,39.999999999999986,290.3030303030303,41.00000000000001,290.90909090909093,42.00000000000001C291.51515151515156,43.00000000000001,292.1212121212121,45.00000000000001,292.72727272727275,45.00000000000001C293.3333333333333,45.00000000000001,293.93939393939394,45.00000000000001,294.5454545454545,45.00000000000001C295.1515151515151,45.00000000000001,295.75757575757575,50.49999999999995,296.3636363636364,54.000000000000014C296.969696969697,57.49999999999997,297.57575757575756,63.99999999999998,298.1818181818182,65.99999999999999C298.7878787878788,68,299.3939393939394,67.5,300,69C300.6060606060606,70.5,301.2121212121212,73,301.8181818181818,75C302.42424242424244,77,303.030303030303,79.5,303.6363636363636,81C304.24242424242425,82.50000000000004,304.8484848484849,82,305.4545454545455,84.00000000000001C306.06060606060606,85.9999999999999,306.6666666666667,90.50000000000004,307.27272727272725,93.00000000000001C307.8787878787879,95.50000000000007,308.48484848484844,96.49999999999999,309.09090909090907,98.99999999999999C309.6969696969697,101.49999999999999,310.30303030303025,104.50000000000007,310.9090909090909,108C311.5151515151515,111.50000000000004,312.1212121212121,117.99999999999993,312.72727272727275,120C313.33333333333337,122.00000000000001,313.93939393939394,121.00000000000001,314.54545454545456,123.00000000000001C315.1515151515152,125.00000000000001,315.75757575757575,127.49999999999997,316.3636363636364,131.99999999999997C316.969696969697,136.49999999999997,317.57575757575756,145,318.1818181818182,150C318.7878787878788,155,319.3939393939394,157,320,162C320.6060606060606,167,321.2121212121212,180,321.8181818181818,180C322.42424242424244,180,323.030303030303,177.00000000000003,323.6363636363636,177.00000000000003C324.24242424242425,177.00000000000003,324.8484848484848,186,325.45454545454544,186C326.06060606060606,186,326.6666666666667,177.00000000000003,327.2727272727273,177.00000000000003C327.87878787878793,177.00000000000003,328.4848484848485,177.00000000000003,329.0909090909091,177.00000000000003C329.69696969696975,177.00000000000003,330.3030303030303,179,330.90909090909093,180C331.5151515151515,180.99999999999997,332.1212121212121,183,332.7272727272727,183C333.3333333333333,183,333.9393939393939,180.99999999999997,334.5454545454545,180C335.1515151515151,179,335.75757575757575,177.00000000000003,336.3636363636364,177.00000000000003C336.969696969697,177.00000000000003,337.57575757575756,177.00000000000003,338.1818181818182,177.00000000000003C338.7878787878788,177.00000000000003,339.3939393939394,183,340,183C340.6060606060606,183,341.2121212121212,183,341.8181818181818,183C342.42424242424244,183,343.030303030303,216,343.6363636363636,216C344.24242424242425,216,344.8484848484848,194,345.45454545454544,192C346.06060606060606,190,346.66666666666663,190,347.27272727272725,189C347.8787878787879,188,348.48484848484844,186,349.09090909090907,186C349.6969696969697,186,350.3030303030303,192,350.90909090909093,192C351.51515151515156,192,352.1212121212121,192,352.72727272727275,192C353.33333333333337,192,353.93939393939394,194,354.54545454545456,195C355.1515151515152,196,355.75757575757575,196.99999999999997,356.3636363636364,197.99999999999997C356.969696969697,198.99999999999997,357.57575757575756,198.99999999999997,358.1818181818182,200.99999999999997C358.7878787878788,202.99999999999997,359.3939393939394,214,360,216C360.6060606060606,218,361.2121212121212,217.5,361.8181818181818,219C362.42424242424244,220.5,363.030303030303,222.50000000000006,363.6363636363636,225C364.24242424242425,227.50000000000003,364.8484848484849,231.49999999999997,365.4545454545455,234C366.0606060606061,236.49999999999994,366.6666666666667,240,367.2727272727273,240C367.8787878787879,240,368.4848484848485,240,369.09090909090907,240C369.6969696969697,240,370.30303030303025,246.00000000000003,370.9090909090909,246.00000000000003C371.5151515151515,246.00000000000003,372.12121212121207,244.00000000000003,372.7272727272727,243.00000000000003C373.3333333333333,242,373.93939393939394,240,374.54545454545456,240C375.1515151515152,240,375.75757575757575,246.00000000000003,376.3636363636364,246.00000000000003C376.969696969697,246.00000000000003,377.57575757575756,243.00000000000003,378.1818181818182,243.00000000000003C378.7878787878788,243.00000000000003,379.3939393939394,243.00000000000003,380,243.00000000000003C380.6060606060606,243.00000000000003,381.2121212121212,243.00000000000003,381.8181818181818,243.00000000000003C382.42424242424244,243.00000000000003,383.030303030303,240,383.6363636363636,237" stroke="#0063AF" stroke-width="2"/></g><g class="mark-group role-title"><g transform="translate(-1,-48)"><path class="background" aria-hidden="true" d="M0,0h0v0h0Z" pointer-events="none"/><g><g class="mark-text role-title-text" role="graphics-symbol" aria-roledescription="title" aria-label="Title text 'Coal's share in energy consumption'" pointer-events="none"><text text-anchor="start" transform="translate(5,4)" font-family="Georgia" font-size="14px" font-weight="bold" fill="#F4134D" opacity="1">Coal's share in energy consumption</text></g><g class="mark-text role-title-subtitle" role="graphics-symbol" aria-roledescription="subtitle" aria-label="Subtitle text 'England and Wales. Source: Warde (2007)'" pointer-events="none"><text text-anchor="start" transform="translate(5,19)" font-family="Georgia" font-size="12px" font-style="italic" fill="#F4134D" opacity="1">England and Wales. Source: Warde (2007)</text></g></g><path class="foreground" aria-hidden="true" d="" pointer-events="none" display="none"/></g></g><g class="mark-group role-axis" aria-hidden="true"><g transform="translate(8.5,0.5)"><path class="background" aria-hidden="true" d="M0,0h0v0h0Z" pointer-events="none"/><g><g class="mark-rule role-axis-grid" pointer-events="none"><line transform="translate(-8,300)" x2="400" y2="0" stroke="#676A86" stroke-opacity="0.1" stroke-width="1" opacity="1"/><line transform="translate(-8,240)" x2="400" y2="0" stroke="#676A86" stroke-opacity="0.1" stroke-width="1" opacity="1"/><line transform="translate(-8,180)" x2="400" y2="0" stroke="#676A86" stroke-opacity="0.1" stroke-width="1" opacity="1"/><line transform="translate(-8,120)" x2="400" y2="0" stroke="#676A86" stroke-opacity="0.1" stroke-width="1" opacity="1"/><line transform="translate(-8,60)" x2="400" y2="0" stroke="#676A86" stroke-opacity="0.1" stroke-width="1" opacity="1"/><line transform="translate(-8,0)" x2="400" y2="0" stroke="#676A86" stroke-opacity="0.1" stroke-width="1" opacity="1"/></g></g><path class="foreground" aria-hidden="true" d="" pointer-events="none" display="none"/></g></g><g class="mark-group role-axis" role="graphics-symbol" aria-roledescription="axis" aria-label="Y-axis for a linear scale with values from 0% to 100%"><g transform="translate(8.5,0.5)"><path class="background" aria-hidden="true" d="M0,0h0v0h0Z" pointer-events="none"/><g><g class="mark-text role-axis-label" pointer-events="none"><text text-anchor="start" transform="translate(5,294)" font-family="Georgia" font-size="12px" fill="#676A86" opacity="1">0%</text><text text-anchor="start" transform="translate(5,234)" font-family="Georgia" font-size="12px" fill="#676A86" opacity="1">20%</text><text text-anchor="start" transform="translate(5,174)" font-family="Georgia" font-size="12px" fill="#676A86" opacity="1">40%</text><text text-anchor="start" transform="translate(5,114)" font-family="Georgia" font-size="12px" fill="#676A86" opacity="1">60%</text><text text-anchor="start" transform="translate(5,53.999999999999986)" font-family="Georgia" font-size="12px" fill="#676A86" opacity="1">80%</text><text text-anchor="start" transform="translate(5,-6)" font-family="Georgia" font-size="12px" fill="#676A86" opacity="1">100%</text></g><g class="mark-rule role-axis-domain" pointer-events="none"><line transform="translate(0,300)" x2="0" y2="-300" stroke="#676A86" stroke-width="1" opacity="1"/></g></g><path class="foreground" aria-hidden="true" d="" pointer-events="none" display="none"/></g></g></g><path class="foreground" aria-hidden="true" d="" display="none"/></g></g></g><defs><linearGradient id="gradient_0" x1="0.8" x2="1" y1="1" y2="0"><stop offset="0" stop-color="#122B39"/><stop offset="0.7" stop-color="#0063AF"/></linearGradient></defs></svg>