<svg xmlns="http://www.w3.org/2000/svg" xmlns:xlink="http://www.w3.org/1999/xlink" version="1.1" class="marks" width="445" height="383" viewBox="0 0 445 383"><rect width="445" height="383" fill="#122B39"/><g fill="none" stroke-miterlimit="10" transform="translate(5,60)"><g class="mark-group role-frame root" role="graphics-object" aria-roledescription="group mark container"><g transform="translate(0,0)"><path class="background" aria-hidden="true" d="M0,0h400v300h-400Z"/><g><g class="mark-group role-axis" aria-hidden="true"><g transform="translate(0.5,0.5)"><path class="background" aria-hidden="true" d="M0,0h0v0h0Z" pointer-events="none"/><g><g class="mark-rule role-axis-grid" pointer-events="none"><line transform="translate(0,300)" x2="400" y2="0" stroke="#676A86" stroke-opacity="0.1" stroke-width="1" opacity="1"/><line transform="translate(0,240)" x2="400" y2="0" stroke="#676A86" stroke-opacity="0.1" stroke-width="1" opacity="1"/><line transform="translate(0,180)" x2="400" y2="0" stroke="#676A86" stroke-opacity="0.1" stroke-width="1" opacity="1"/><line transform="translate(0,120)" x2="400" y2="0" stroke="#676A86" stroke-opacity="0.1" stroke-width="1" opacity="1"/><line transform="translate(0,60)" x2="400" y2="0" stroke="#676A86" stroke-opacity="0.1" stroke-width="1" opacity="1"/><line transform="translate(0,0)" x2="400" y2="0" stroke="#676A86" stroke-opacity="0.1" stroke-width="1" opacity="1"/></g></g><path class="foreground" aria-hidden="true" d="" pointer-events="none" display="none"/></g></g><g class="mark-group role-axis" role="graphics-symbol" aria-roledescription="axis" aria-label="X-axis for a linear scale with values from 1560 to 1860"><g transform="translate(0.5,300.5)"><path class="background" aria-hidden="true" d="M0,0h0v0h0Z" pointer-events="none"/><g><g class="mark-rule role-axis-tick" pointer-events="none"><line transform="translate(53,0)" x2="0" y2="5" stroke="#676A86" stroke-width="1" opacity="1"/><line transform="translate(120,0)" x2="0" y2="5" stroke="#676A86" stroke-width="1" opacity="1"/><line transform="translate(187,0)" x2="0" y2="5" stroke="#676A86" stroke-width="1" opacity="1"/><line transform="translate(253,0)" x2="0" y2="5" stroke="#676A86" stroke-width="1" opacity="1"/><line transform="translate(320,0)" x2="0" y2="5" stroke="#676A86" stroke-width="1" opacity="1"/><line transform="translate(387,0)" x2="0" y2="5" stroke="#676A86" stroke-width="1" opacity="1"/></g><g class="mark-text role-axis-label" pointer-events="none"><text text-anchor="middle" transform="translate(53.333333333333336,16)" font-family="Georgia" font-size="12px" fill="#676A86" opacity="1">1600</text><text text-anchor="middle" transform="translate(120,16)" font-family="Georgia" font-size="12px" fill="#676A86" opacity="1">1650</text><text text-anchor="middle" transform="translate(186.66666666666666,16)" font-family="Georgia" font-size="12px" fill="#676A86" opacity="1">1700</text><text text-anchor="middle" transform="translate(253.33333333333331,16)" font-family="Georgia" font-size="12px" fill="#676A86" opacity="1">1750</text><text text-anchor="middle" transform="translate(320,16)" font-family="Georgia" font-size="12px" fill="#676A86" opacity="1">1800</text><text text-anchor="middle" transform="translate(386.6666666666667,16)" font-family="Georgia" font-size="12px" fill="#676A86" opacity="1">1850</text></g><g class="mark-rule role-axis-domain" pointer-events="none"><line transform="translate(0,0)" x2="400" y2="0" stroke="#676A86" stroke-width="1" opacity="1"/></g></g><path class="foreground" aria-hidden="true" d="" pointer-events="none" display="none"/></g></g><g class="mark-group role-axis" role="graphics-symbol" aria-roledescription="axis" aria-label="Y-axis titled 'GJ' for a linear scale with values from 0 to 100"><g transform="translate(0.5,0.5)"><path class="background" aria-hidden="true" d="M0,0h0v0h0Z" pointer-events="none"/><g><g class="mark-text role-axis-label" pointer-events="none"><text text-anchor="start" transform="translate(5,294)" font-family="Georgia" font-size="12px" fill="#676A86" opacity="1">0</text><text text-anchor="start" transform="translate(5,234)" font-family="Georgia" font-size="12px" fill="#676A86" opacity="1">20</text><text text-anchor="start" transform="translate(5,174)" font-family="Georgia" font-size="12px" fill="#676A86" opacity="1">40</text><text text-anchor="start" transform="translate(5,114)" font-family="Georgia" font-size="12px" fill="#676A86" opacity="1">60</text><text text-anchor="start" transform="translate(5,53.999999999999986)" font-family="Georgia" font-size="12px" fill="#676A86" opacity="1">80</text><text text-anchor="start" transform="translate(5,-6)" font-family="Georgia" font-size="12px" fill="#676A86" opacity="1">100</text></g><g class="mark-rule role-axis-domain" pointer-events="none"><line transform="translate(0,300)" x2="0" y2="-300" stroke="#676A86" stroke-width="1" opacity="1"/></g><g class="mark-text role-axis-title" pointer-events="none"><text text-anchor="start" transform="translate(33,-5)" font-family="Georgia" font-size="10px" font-weight="normal" fill="#676A86" opacity="1">GJ</text></g></g><path class="foreground" aria-hidden="true" d="" pointer-events="none" display="none"/></g></g><g class="mark-area role-mark layer_0_marks" role="graphics-object" aria-roledescription="area mark container"><path aria-label="year: 1566; y: 19" role="graphics-symbol" aria-roledescription="area mark" d="M8,242.499C25.333333333333332,245.85899999999998,42.66666666666667,249.219,60,249.219C82.22222222222221,249.219,104.44444444444444,245.57850000000002,126.66666666666666,239.241C148.88888888888889,232.9035,171.11111111111111,218.61200000000002,193.33333333333334,211.19400000000002C215.55555555555557,203.776,237.77777777777777,205.70700000000002,260,194.73300000000003C282.22222222222223,183.75900000000004,304.44444444444446,173.64600000000004,326.6666666666667,142.959C348.8888888888889,112.27199999999999,371.1111111111111,61.44150000000002,393.3333333333333,10.611000000000004L393.3333333333333,300C371.1111111111111,300,348.8888888888889,300,326.6666666666667,300C304.44444444444446,300,282.22222222222223,300,260,300C237.77777777777777,300,215.55555555555557,300,193.33333333333334,300C171.11111111111111,300,148.88888888888889,300,126.66666666666666,300C104.44444444444444,300,82.22222222222221,300,60,300C42.66666666666667,300,25.333333333333332,300,8,300Z" fill="url(#gradient_0)" fill-opacity="0.7"/></g><g class="mark-line role-mark layer_1_marks" role="graphics-object" aria-roledescription="line mark container"><path aria-label="year: 1566; y: 19" role="graphics-symbol" aria-roledescription="line mark" d="M8,242.499C25.333333333333332,245.85899999999998,42.66666666666667,249.219,60,249.219C82.22222222222221,249.219,104.44444444444444,245.57850000000002,126.66666666666666,239.241C148.88888888888889,232.9035,171.11111111111111,218.61200000000002,193.33333333333334,211.19400000000002C215.55555555555557,203.776,237.77777777777777,205.70700000000002,260,194.73300000000003C282.22222222222223,183.75900000000004,304.44444444444446,173.64600000000004,326.6666666666667,142.959C348.8888888888889,112.27199999999999,371.1111111111111,61.44150000000002,393.3333333333333,10.611000000000004" stroke="#0063AF" stroke-width="2"/></g><g class="mark-group role-title"><g transform="translate(0,-48)"><path class="background" aria-hidden="true" d="M0,0h0v0h0Z" pointer-events="none"/><g><g class="mark-text role-title-text" role="graphics-symbol" aria-roledescription="title" aria-label="Title text 'The Rise of King Coal'" pointer-events="none"><text text-anchor="start" transform="translate(5,4)" font-family="Georgia" font-size="14px" font-weight="bold" fill="#F4134D" opacity="1">The Rise of King Coal</text></g><g class="mark-text role-title-subtitle" role="graphics-symbol" aria-roledescription="subtitle" aria-label="Subtitle text 'Energy consumption per capita in England and Wales. Source: Wrigley (2013)'" pointer-events="none"><text text-anchor="start" transform="translate(5,19)" font-family="Georgia" font-size="12px" font-style="italic" fill="#F4134D" opacity="1">Energy consumption per capita in England and Wales. Source: Wrigley (2013)</text></g></g><path class="foreground" aria-hidden="true" d="" pointer-events="none" display="none"/></g></g></g><path class="foreground" aria-hidden="true" d="" display="none"/></g></g></g><defs><linearGradient id="gradient_0" x1="0.8" x2="1" y1="1" y2="0"><stop offset="0" stop-color="#122B39"/><stop offset="0.7" stop-color="#0063AF"/></linearGradient></defs></svg>