<svg xmlns="http://www.w3.org/2000/svg" xmlns:xlink="http://www.w3.org/1999/xlink" version="1.1" class="marks" width="613" height="392" viewBox="0 0 613 392"><rect width="613" height="392" fill="white"/><g fill="none" stroke-miterlimit="10" transform="translate(7,55)"><g class="mark-group role-frame root" role="graphics-object" aria-roledescription="group mark container"><g transform="translate(0,0)"><path class="background" aria-hidden="true" d="M0,0h400v300h-400Z"/><g><g class="mark-group role-axis" aria-hidden="true"><g transform="translate(0.5,0.5)"><path class="background" aria-hidden="true" d="M0,0h0v0h0Z" pointer-events="none"/><g><g class="mark-rule role-axis-grid" pointer-events="none"><line transform="translate(0,300)" x2="400" y2="0" stroke="#676A86" stroke-opacity="0.1" stroke-width="1" opacity="1"/><line transform="translate(0,238)" x2="400" y2="0" stroke="#676A86" stroke-opacity="0.1" stroke-width="1" opacity="1"/><line transform="translate(0,175)" x2="400" y2="0" stroke="#676A86" stroke-opacity="0.1" stroke-width="1" opacity="1"/><line transform="translate(0,113)" x2="400" y2="0" stroke="#676A86" stroke-opacity="0.1" stroke-width="1" opacity="1"/><line transform="translate(0,50)" x2="400" y2="0" stroke="#676A86" stroke-opacity="0.1" stroke-width="1" opacity="1"/></g></g><path class="foreground" aria-hidden="true" d="" pointer-events="none" display="none"/></g></g><g class="mark-group role-axis" role="graphics-symbol" aria-roledescription="axis" aria-label="X-axis titled 'Year' for a time scale with values from Thursday, 01 January 1970, 12:00:00 AM to Monday, 01 January 2018, 12:00:00 AM"><g transform="translate(0.5,300.5)"><path class="background" aria-hidden="true" d="M0,0h0v0h0Z" pointer-events="none"/><g><g class="mark-rule role-axis-tick" pointer-events="none"><line transform="translate(0,0)" x2="0" y2="5" stroke="#676A86" stroke-width="1" opacity="1"/><line transform="translate(42,0)" x2="0" y2="5" stroke="#676A86" stroke-width="1" opacity="1"/><line transform="translate(83,0)" x2="0" y2="5" stroke="#676A86" stroke-width="1" opacity="1"/><line transform="translate(125,0)" x2="0" y2="5" stroke="#676A86" stroke-width="1" opacity="1"/><line transform="translate(167,0)" x2="0" y2="5" stroke="#676A86" stroke-width="1" opacity="1"/><line transform="translate(208,0)" x2="0" y2="5" stroke="#676A86" stroke-width="1" opacity="1"/><line transform="translate(250,0)" x2="0" y2="5" stroke="#676A86" stroke-width="1" opacity="1"/><line transform="translate(292,0)" x2="0" y2="5" stroke="#676A86" stroke-width="1" opacity="1"/><line transform="translate(333,0)" x2="0" y2="5" stroke="#676A86" stroke-width="1" opacity="1"/><line transform="translate(375,0)" x2="0" y2="5" stroke="#676A86" stroke-width="1" opacity="1"/></g><g class="mark-text role-axis-label" pointer-events="none"><text text-anchor="start" transform="translate(0,15)" font-family="sans-serif" font-size="10px" fill="#676A86" opacity="1">1970</text><text text-anchor="middle" transform="translate(41.66096281086014,15)" font-family="sans-serif" font-size="10px" fill="#676A86" opacity="1">1975</text><text text-anchor="middle" transform="translate(83.32192562172028,15)" font-family="sans-serif" font-size="10px" fill="#676A86" opacity="1">1980</text><text text-anchor="middle" transform="translate(125.00570385580652,15)" font-family="sans-serif" font-size="10px" fill="#676A86" opacity="1">1985</text><text text-anchor="middle" transform="translate(166.66666666666669,15)" font-family="sans-serif" font-size="10px" fill="#676A86" opacity="1">1990</text><text text-anchor="middle" transform="translate(208.32762947752678,15)" font-family="sans-serif" font-size="10px" fill="#676A86" opacity="1">1995</text><text text-anchor="middle" transform="translate(249.98859228838697,15)" font-family="sans-serif" font-size="10px" fill="#676A86" opacity="1">2000</text><text text-anchor="middle" transform="translate(291.6723705224732,15)" font-family="sans-serif" font-size="10px" fill="#676A86" opacity="1">2005</text><text text-anchor="middle" transform="translate(333.33333333333337,15)" font-family="sans-serif" font-size="10px" fill="#676A86" opacity="1">2010</text><text text-anchor="middle" transform="translate(374.99429614419347,15)" font-family="sans-serif" font-size="10px" fill="#676A86" opacity="1">2015</text></g><g class="mark-rule role-axis-domain" pointer-events="none"><line transform="translate(0,0)" x2="400" y2="0" stroke="#676A86" stroke-width="1" opacity="1"/></g><g class="mark-text role-axis-title" pointer-events="none"><text text-anchor="middle" transform="translate(200,30)" font-family="sans-serif" font-size="11px" font-weight="bold" fill="#676A86" opacity="1">Year</text></g></g><path class="foreground" aria-hidden="true" d="" pointer-events="none" display="none"/></g></g><g class="mark-group role-axis" role="graphics-symbol" aria-roledescription="axis" aria-label="Y-axis titled 'tCO₂e / person / year' for a linear scale with values from 0 to 24"><g transform="translate(0.5,0.5)"><path class="background" aria-hidden="true" d="M0,0h0v0h0Z" pointer-events="none"/><g><g class="mark-text role-axis-label" pointer-events="none"><text text-anchor="start" transform="translate(5,293)" font-family="sans-serif" font-size="10px" fill="#676A86" opacity="1">0</text><text text-anchor="start" transform="translate(5,230.5)" font-family="sans-serif" font-size="10px" fill="#676A86" opacity="1">5</text><text text-anchor="start" transform="translate(5,167.99999999999997)" font-family="sans-serif" font-size="10px" fill="#676A86" opacity="1">10</text><text text-anchor="start" transform="translate(5,105.5)" font-family="sans-serif" font-size="10px" fill="#676A86" opacity="1">15</text><text text-anchor="start" transform="translate(5,42.999999999999986)" font-family="sans-serif" font-size="10px" fill="#676A86" opacity="1">20</text></g><g class="mark-rule role-axis-domain" pointer-events="none"><line transform="translate(0,300)" x2="0" y2="-300" stroke="#676A86" stroke-width="1" opacity="1"/></g><g class="mark-text role-axis-title" pointer-events="none"><text text-anchor="start" transform="translate(0,-7)" font-family="sans-serif" font-size="10px" font-weight="normal" fill="#676A86" opacity="1">tCO₂e / person / year</text></g></g><path class="foreground" aria-hidden="true" d="" pointer-events="none" display="none"/></g></g><g class="mark-rule role-mark layer_0_marks" role="graphics-object" aria-roledescription="rule mark container"><line aria-label="Lines: Jan 01, 1997" role="graphics-symbol" aria-roledescription="rule mark" transform="translate(225.00570385580653,0)" x2="0" y2="300" stroke="#676A86" stroke-width="2" opacity="0.1"/><line aria-label="Lines: Jan 01, 2009" role="graphics-symbol" aria-roledescription="rule mark" transform="translate(325.00570385580653,0)" x2="0" y2="300" stroke="#676A86" stroke-width="2" opacity="0.1"/><line aria-label="Lines: Jan 01, 2015" role="graphics-symbol" aria-roledescription="rule mark" transform="translate(374.99429614419347,0)" x2="0" y2="300" stroke="#676A86" stroke-width="2" opacity="0.1"/></g><g class="mark-group role-scope layer_1_pathgroup" role="graphics-object" aria-roledescription="group mark container"><g transform="translate(0,0)"><path class="background" aria-hidden="true" d="M0,0h400v300h-400Z"/><g><g class="mark-line role-mark layer_1_marks" role="graphics-object" aria-roledescription="line mark container"><path aria-label="Region: Sub Saharan Africa; Year: Jan 01, 1970; m: 0.9151738" role="graphics-symbol" aria-roledescription="line mark" d="M0,288.5603275L8.32762947752681,288.2903075L16.65525895505362,287.71030874999997L25.005703855806527,286.3617875L33.33333333333333,285.61591250000004L41.66096281086014,286.4124375L49.988592288386954,285.8709875L58.339037189139866,286.60505L66.66666666666666,287.54863750000004L74.99429614419347,286.6713375L83.32192562172028,286.8159875L91.67237052247319,287.32955L100,287.67798L108.32762947752681,287.8746575L116.65525895505363,287.6452625L125.00570385580652,287.63334625L133.33333333333331,288.00935625L141.66096281086013,287.85541625L149.98859228838694,287.83155L158.33903718913987,288.1210875L166.66666666666669,288.32707L174.99429614419347,288.68895375L183.32192562172028,288.94310125L191.6723705224732,289.28913875L200,289.37514625L208.32762947752678,289.02051625L216.65525895505363,288.61673375L225.00570385580653,288.5472675L233.33333333333334,288.8280625L241.66096281086013,289.34091625L249.98859228838697,289.32753249999996L258.33903718913984,289.25155L266.66666666666663,289.4829125L274.99429614419347,289.15745875L283.32192562172025,288.90647625L291.6723705224732,288.9414275L300,289.2198625L308.3276294775268,289.22544375L316.6552589550536,288.85118625L325.00570385580653,289.65364750000003L333.33333333333337,289.40499375L341.66096281086016,289.73392875L349.98859228838694,289.55736L358.33903718913984,289.49894875L366.66666666666663,289.52243250000004L374.99429614419347,289.66291375000003L383.32192562172025,289.65173375L391.6723705224732,289.83334125L400,289.94786375" stroke="rgb(35, 78, 160)" stroke-width="2"/></g></g><path class="foreground" aria-hidden="true" d="" display="none"/></g><g transform="translate(0,0)"><path class="background" aria-hidden="true" d="M0,0h400v300h-400Z"/><g><g class="mark-line role-mark layer_1_marks" role="graphics-object" aria-roledescription="line mark container"><path aria-label="Region: Latin America and Caribbean; Year: Jan 01, 1970; m: 1.831451" role="graphics-symbol" aria-roledescription="line mark" d="M0,277.1068625L8.32762947752681,277.577525L16.65525895505362,276.7975125L25.005703855806527,275.4134125L33.33333333333333,274.8903625L41.66096281086014,275.09126249999997L49.988592288386954,273.9289875L58.339037189139866,273.556475L66.66666666666666,272.3040125L74.99429614419347,271.3679L83.32192562172028,270.95018749999997L91.67237052247319,271.5995625L100,271.8479375L108.32762947752681,273.22884999999997L116.65525895505363,273.342425L125.00570385580652,273.6181375L133.33333333333331,273.0912125L141.66096281086013,272.7442125L149.98859228838694,272.6700375L158.33903718913987,272.3160125L166.66666666666669,273.0660875L174.99429614419347,272.97985L183.32192562172028,272.947675L191.6723705224732,272.5877875L200,271.59567499999997L208.32762947752678,271.389975L216.65525895505363,269.9736625L225.00570385580653,268.68782500000003L233.33333333333334,268.03184999999996L241.66096281086013,268.7969L249.98859228838697,267.9204625L258.33903718913984,268.402575L266.66666666666663,268.851875L274.99429614419347,268.45545L283.32192562172025,267.3910875L291.6723705224732,266.83873750000004L300,266.3896L308.3276294775268,265.77477500000003L316.6552589550536,264.64475L325.00570385580653,265.9231125L333.33333333333337,264.1554625L341.66096281086016,263.76279999999997L349.98859228838694,262.4757375L358.33903718913984,262.43245L366.66666666666663,262.246725L374.99429614419347,263.22407499999997L383.32192562172025,263.9503375L391.6723705224732,264.259275L400,264.93793750000003" stroke="rgb(116, 201, 189)" stroke-width="2"/></g></g><path class="foreground" aria-hidden="true" d="" display="none"/></g><g transform="translate(0,0)"><path class="background" aria-hidden="true" d="M0,0h400v300h-400Z"/><g><g class="mark-line role-mark layer_1_marks" role="graphics-object" aria-roledescription="line mark container"><path aria-label="Region: North America; Year: Jan 01, 1970; m: 21.84615" role="graphics-symbol" aria-roledescription="line mark" d="M0,26.92312499999997L8.32762947752681,36.07212500000002L16.65525895505362,24.42525000000001L25.005703855806527,16.166875000000015L33.33333333333333,27.127249999999993L41.66096281086014,41.34387500000002L49.988592288386954,28.128999999999994L58.339037189139866,21.698249999999998L66.66666666666666,24.47512500000002L74.99429614419347,24.395625L83.32192562172028,37.979375000000026L91.67237052247319,44.81112500000002L100,60.031124999999975L108.32762947752681,63.486625L116.65525895505363,54.844875L125.00570385580652,55.97500000000003L133.33333333333331,60.686125000000004L141.66096281086013,55.278874999999985L149.98859228838694,46.195999999999984L158.33903718913987,45.43712499999999L166.66666666666669,53.9165L174.99429614419347,58.481750000000034L183.32192562172028,56.7535L191.6723705224732,54.05875L200,52.31462499999998L208.32762947752678,52.29737499999997L216.65525895505363,48.396749999999976L225.00570385580653,43.53099999999998L233.33333333333334,45.798624999999994L241.66096281086013,47.51837499999997L249.98859228838697,41.28025000000002L258.33903718913984,46.540375000000026L266.66666666666663,51.74162500000003L274.99429614419347,50.21200000000001L283.32192562172025,49.47187500000001L291.6723705224732,50.87674999999997L300,57.41125000000002L308.3276294775268,55.548500000000004L316.6552589550536,65.62225000000001L325.00570385580653,84.32750000000001L333.33333333333337,76.81462500000002L341.66096281086016,82.95187500000002L349.98859228838694,91.04749999999999L358.33903718913984,89.50425000000003L366.66666666666663,88.30012499999998L374.99429614419347,95.76825000000004L383.32192562172025,99.57187499999999L391.6723705224732,101.886375L400,98.29625" stroke="rgb(41, 151, 190)" stroke-width="2"/></g></g><path class="foreground" aria-hidden="true" d="" display="none"/></g><g transform="translate(0,0)"><path class="background" aria-hidden="true" d="M0,0h400v300h-400Z"/><g><g class="mark-line role-mark layer_1_marks" role="graphics-object" aria-roledescription="line mark container"><path aria-label="Region: East Asia and Pacific; Year: Jan 01, 1970; m: 1.681293" role="graphics-symbol" aria-roledescription="line mark" d="M0,278.9838375L8.32762947752681,279.4429L16.65525895505362,278.6996125L25.005703855806527,277.4491875L33.33333333333333,277.5406625L41.66096281086014,276.9581L49.988592288386954,276.514825L58.339037189139866,274.9087L66.66666666666666,272.84665L74.99429614419347,272.3991625L83.32192562172028,273.12870000000004L91.67237052247319,273.70709999999997L100,273.7543625L108.32762947752681,273.34461250000004L116.65525895505363,271.8485625L125.00570385580652,272.0415875L133.33333333333331,271.6167625L141.66096281086013,270.8255375L149.98859228838694,269.2197375L158.33903718913987,268.6089L166.66666666666669,267.8110375L174.99429614419347,266.91515L183.32192562172028,266.17708749999997L191.6723705224732,264.6793875L200,263.156125L208.32762947752678,260.7876L216.65525895505363,260.672025L225.00570385580653,260.2100875L233.33333333333334,260.7442L241.66096281086013,260.7052875L249.98859228838697,258.970325L258.33903718913984,257.933975L266.66666666666663,255.96822500000002L274.99429614419347,251.9284625L283.32192562172025,247.40972499999998L291.6723705224732,243.3753625L300,239.5276875L308.3276294775268,235.4871L316.6552589550536,235.2317875L325.00570385580653,232.926875L333.33333333333337,228.2412375L341.66096281086016,223.2444L349.98859228838694,222.033375L358.33903718913984,219.7631625L366.66666666666663,219.5493125L374.99429614419347,220.05837499999998L383.32192562172025,219.20289999999997L391.6723705224732,218.63325000000003L400,217.74475" stroke="rgb(212, 238, 180)" stroke-width="2"/></g></g><path class="foreground" aria-hidden="true" d="" display="none"/></g><g transform="translate(0,0)"><path class="background" aria-hidden="true" d="M0,0h400v300h-400Z"/><g><g class="mark-line role-mark layer_1_marks" role="graphics-object" aria-roledescription="line mark container"><path aria-label="Region: Europe and Central Asia; Year: Jan 01, 1970; m: 9.003093" role="graphics-symbol" aria-roledescription="line mark" d="M0,187.4613375L8.32762947752681,188.29355L16.65525895505362,184.89637499999998L25.005703855806527,179.37287500000002L33.33333333333333,179.84357500000002L41.66096281086014,180.04779999999997L49.988592288386954,174.54712500000002L58.339037189139866,174.40762499999997L66.66666666666666,169.65012499999997L74.99429614419347,166.84537500000002L83.32192562172028,168.277625L91.67237052247319,172.95024999999998L100,174.85550000000003L108.32762947752681,175.3707875L116.65525895505363,175.419875L125.00570385580652,174.8505L133.33333333333331,173.648625L141.66096281086013,171.8425L149.98859228838694,171.71462499999998L158.33903718913987,172.2685L166.66666666666669,172.07025000000002L174.99429614419347,174.92775L183.32192562172028,182.74681249999998L191.6723705224732,189.65885L200,196.0448L208.32762947752678,196.7288L216.65525895505363,196.90000000000003L225.00570385580653,200.27255000000002L233.33333333333334,200.4583L241.66096281086013,201.165275L249.98859228838697,200.1782L258.33903718913984,199.6354375L266.66666666666663,199.99683750000003L274.99429614419347,197.15720000000002L283.32192562172025,197.14943750000003L291.6723705224732,197.92051250000003L300,196.39485000000002L308.3276294775268,196.76586250000003L316.6552589550536,197.93657499999998L325.00570385580653,206.3499625L333.33333333333337,202.5678875L341.66096281086016,202.98090000000002L349.98859228838694,203.4609125L358.33903718913984,206.0694125L366.66666666666663,209.6333875L374.99429614419347,209.9605625L383.32192562172025,209.8570875L391.6723705224732,209.3474375L400,209.056025" stroke="rgb(169, 221, 183)" stroke-width="2"/></g></g><path class="foreground" aria-hidden="true" d="" display="none"/></g><g transform="translate(0,0)"><path class="background" aria-hidden="true" d="M0,0h400v300h-400Z"/><g><g class="mark-line role-mark layer_1_marks" role="graphics-object" aria-roledescription="line mark container"><path aria-label="Region: South Asia; Year: Jan 01, 1970; m: 0.3672203" role="graphics-symbol" aria-roledescription="line mark" d="M0,295.40974625L8.32762947752681,295.47864375L16.65525895505362,295.404555L25.005703855806527,295.50526375L33.33333333333333,295.300585L41.66096281086014,295.0897925L49.988592288386954,294.91385375L58.339037189139866,294.92559625L66.66666666666666,295.4734175L74.99429614419347,295.23932625L83.32192562172028,295.13875625000003L91.67237052247319,294.80793125L100,294.5765025L108.32762947752681,294.37828125L116.65525895505363,294.03256125L125.00570385580652,293.861565L133.33333333333331,293.6074225L141.66096281086013,293.24550875L149.98859228838694,293.00038624999996L158.33903718913987,292.69944L166.66666666666669,292.46939125L174.99429614419347,292.13099625L183.32192562172028,291.96788625L191.6723705224732,291.74123875L200,291.41934L208.32762947752678,290.946395L216.65525895505363,290.70604875L225.00570385580653,290.43755875L233.33333333333334,290.45763999999997L241.66096281086013,289.88931375L249.98859228838697,289.72503374999997L258.33903718913984,289.7032875L266.66666666666663,289.52391125L274.99429614419347,289.43278749999996L283.32192562172025,288.72815125L291.6723705224732,288.41490749999997L300,287.84793625000003L308.3276294775268,286.98539999999997L316.6552589550536,286.473725L325.00570385580653,285.251525L333.33333333333337,284.76977500000004L341.66096281086016,284.17753749999997L349.98859228838694,283.2841L358.33903718913984,283.167225L366.66666666666663,281.9103L374.99429614419347,281.541325L383.32192562172025,281.0676375L391.6723705224732,280.64535L400,279.5792125" stroke="rgb(33, 115, 177)" stroke-width="2"/></g></g><path class="foreground" aria-hidden="true" d="" display="none"/></g><g transform="translate(0,0)"><path class="background" aria-hidden="true" d="M0,0h400v300h-400Z"/><g><g class="mark-line role-mark layer_1_marks" role="graphics-object" aria-roledescription="line mark container"><path aria-label="Region: Middle East and North Africa; Year: Jan 01, 1970; m: 2.57542" role="graphics-symbol" aria-roledescription="line mark" d="M0,267.80725L8.32762947752681,266.543175L16.65525895505362,263.5425125L25.005703855806527,258.8524625L33.33333333333333,259.94939999999997L41.66096281086014,260.6923375L49.988592288386954,255.41789999999997L58.339037189139866,255.1405625L66.66666666666666,254.3161875L74.99429614419347,254.00586249999998L83.32192562172028,254.71615L91.67237052247319,258.3234125L100,256.76133749999997L108.32762947752681,255.7851375L116.65525895505363,257.6763875L125.00570385580652,256.9218125L133.33333333333331,257.30107499999997L141.66096281086013,256.5773125L149.98859228838694,255.9617875L158.33903718913987,254.53583749999999L166.66666666666669,255.1257875L174.99429614419347,254.1508375L183.32192562172028,253.3948125L191.6723705224732,252.0498625L200,249.5214875L208.32762947752678,247.70944999999998L216.65525895505363,246.874875L225.00570385580653,245.58025L233.33333333333334,246.70055L241.66096281086013,245.7575625L249.98859228838697,244.4617125L258.33903718913984,242.57418750000002L266.66666666666663,241.56292499999998L274.99429614419347,240.5236625L283.32192562172025,238.4372375L291.6723705224732,235.47221249999998L300,233.255625L308.3276294775268,231.6421625L316.6552589550536,229.26707499999998L325.00570385580653,227.529425L333.33333333333337,226.08078749999999L341.66096281086016,226.04066250000002L349.98859228838694,223.96545L358.33903718913984,223.5186875L366.66666666666663,222.2742875L374.99429614419347,222.82322500000004L383.32192562172025,222.05281250000002L391.6723705224732,221.2772625L400,220.72463750000003" stroke="rgb(69, 180, 194)" stroke-width="2"/></g></g><path class="foreground" aria-hidden="true" d="" display="none"/></g></g><g class="mark-text role-mark layer_2_marks" role="graphics-object" aria-roledescription="text mark container"><text aria-label="Region: Sub Saharan Africa; m: 0.8041709" role="graphics-symbol" aria-roledescription="text mark" text-anchor="start" transform="translate(405,292.94786375)" font-family="sans-serif" font-size="11px" fill="rgb(35, 78, 160)">Sub Saharan Africa</text><text aria-label="Region: Latin America and Caribbean; m: 2.804965" role="graphics-symbol" aria-roledescription="text mark" text-anchor="start" transform="translate(405,267.93793750000003)" font-family="sans-serif" font-size="11px" fill="rgb(116, 201, 189)">Latin America and Caribbean</text><text aria-label="Region: North America; m: 16.1363" role="graphics-symbol" aria-roledescription="text mark" text-anchor="start" transform="translate(405,101.29625)" font-family="sans-serif" font-size="11px" fill="rgb(41, 151, 190)">North America</text><text aria-label="Region: East Asia and Pacific; m: 6.58042" role="graphics-symbol" aria-roledescription="text mark" text-anchor="start" transform="translate(405,220.74475)" font-family="sans-serif" font-size="11px" fill="rgb(212, 238, 180)">East Asia and Pacific</text><text aria-label="Region: Europe and Central Asia; m: 7.275518" role="graphics-symbol" aria-roledescription="text mark" text-anchor="start" transform="translate(405,212.056025)" font-family="sans-serif" font-size="11px" fill="rgb(169, 221, 183)">Europe and Central Asia</text><text aria-label="Region: South Asia; m: 1.633663" role="graphics-symbol" aria-roledescription="text mark" text-anchor="start" transform="translate(405,282.5792125)" font-family="sans-serif" font-size="11px" fill="rgb(33, 115, 177)">South Asia</text></g><g class="mark-text role-mark layer_3_marks" role="graphics-object" aria-roledescription="text mark container"><text aria-label="Region: Middle East and North Africa; m: 6.342029" role="graphics-symbol" aria-roledescription="text mark" text-anchor="start" transform="translate(405,229.72463750000003)" font-family="sans-serif" font-size="11px" fill="rgb(69, 180, 194)">Middle East and North Africa</text></g><g class="mark-text role-mark layer_4_marks" role="graphics-object" aria-roledescription="text mark container"><text aria-label="t: Kyoto; y: 23.5" role="graphics-symbol" aria-roledescription="text mark" text-anchor="end" transform="translate(220,9.25000000000001)" font-family="sans-serif" font-size="10px" fill="#9a9db2">Kyoto</text><text aria-label="t: 1997; y: 22.5" role="graphics-symbol" aria-roledescription="text mark" text-anchor="end" transform="translate(220,21.75)" font-family="sans-serif" font-size="10px" fill="#9a9db2">1997</text></g><g class="mark-text role-mark layer_5_marks" role="graphics-object" aria-roledescription="text mark container"><text aria-label="t: Copenhagen; y: 23.5" role="graphics-symbol" aria-roledescription="text mark" text-anchor="end" transform="translate(322,9.25000000000001)" font-family="sans-serif" font-size="10px" fill="#9a9db2">Copenhagen</text><text aria-label="t: 2009; y: 22.5" role="graphics-symbol" aria-roledescription="text mark" text-anchor="end" transform="translate(322,21.75)" font-family="sans-serif" font-size="10px" fill="#9a9db2">2009</text></g><g class="mark-text role-mark layer_6_marks" role="graphics-object" aria-roledescription="text mark container"><text aria-label="t: Paris; y: 23.5" role="graphics-symbol" aria-roledescription="text mark" text-anchor="end" transform="translate(370,9.25000000000001)" font-family="sans-serif" font-size="10px" fill="#9a9db2">Paris</text><text aria-label="t: 2015; y: 22.5" role="graphics-symbol" aria-roledescription="text mark" text-anchor="end" transform="translate(370,21.75)" font-family="sans-serif" font-size="10px" fill="#9a9db2">2015</text></g><g class="mark-group role-title"><g transform="translate(-2,-45)"><path class="background" aria-hidden="true" d="M0,0h0v0h0Z" pointer-events="none"/><g><g class="mark-text role-title-text" role="graphics-symbol" aria-roledescription="title" aria-label="Title text 'CO₂ Emissions per capita by region'" pointer-events="none"><text text-anchor="start" transform="translate(0,5)" font-family="sans-serif" font-size="13px" font-weight="bold" fill="black" opacity="1">CO₂ Emissions per capita by region</text></g><g class="mark-text role-title-subtitle" role="graphics-symbol" aria-roledescription="subtitle" aria-label="Subtitle text 'Tonnes of CO₂ equivalent. Source: Author's calculations'" pointer-events="none"><text text-anchor="start" transform="translate(0,19)" font-family="sans-serif" font-size="10px" font-style="italic" fill="#000" opacity="1">Tonnes of CO₂ equivalent. Source: Author's calculations</text></g></g><path class="foreground" aria-hidden="true" d="" pointer-events="none" display="none"/></g></g></g><path class="foreground" aria-hidden="true" d="" display="none"/></g></g></g></svg>