<svg xmlns="http://www.w3.org/2000/svg" xmlns:xlink="http://www.w3.org/1999/xlink" version="1.1" class="marks" width="458" height="429" viewBox="0 0 458 429"><rect width="458" height="429" fill="white"/><g fill="none" stroke-miterlimit="10" transform="translate(5,57)"><g class="mark-group role-frame root" role="graphics-object" aria-roledescription="group mark container"><g transform="translate(0,0)"><path class="background" aria-hidden="true" d="M0,0h300v350h-300Z"/><g><g class="mark-group role-axis" aria-hidden="true"><g transform="translate(0.5,0.5)"><path class="background" aria-hidden="true" d="M0,0h0v0h0Z" pointer-events="none"/><g><g class="mark-rule role-axis-grid" pointer-events="none"><line transform="translate(0,350)" x2="300" y2="0" stroke="#676A86" stroke-opacity="0.1" stroke-width="1" opacity="1"/><line transform="translate(0,280)" x2="300" y2="0" stroke="#676A86" stroke-opacity="0.1" stroke-width="1" opacity="1"/><line transform="translate(0,210)" x2="300" y2="0" stroke="#676A86" stroke-opacity="0.1" stroke-width="1" opacity="1"/><line transform="translate(0,140)" x2="300" y2="0" stroke="#676A86" stroke-opacity="0.1" stroke-width="1" opacity="1"/><line transform="translate(0,70)" x2="300" y2="0" stroke="#676A86" stroke-opacity="0.1" stroke-width="1" opacity="1"/><line transform="translate(0,0)" x2="300" y2="0" stroke="#676A86" stroke-opacity="0.1" stroke-width="1" opacity="1"/></g></g><path class="foreground" aria-hidden="true" d="" pointer-events="none" display="none"/></g></g><g class="mark-group role-axis" role="graphics-symbol" aria-roledescription="axis" aria-label="X-axis for a linear scale with values from 1560 to 1860"><g transform="translate(0.5,350.5)"><path class="background" aria-hidden="true" d="M0,0h0v0h0Z" pointer-events="none"/><g><g class="mark-rule role-axis-tick" pointer-events="none"><line transform="translate(40,0)" x2="0" y2="5" stroke="#676A86" stroke-width="1" opacity="1"/><line transform="translate(90,0)" x2="0" y2="5" stroke="#676A86" stroke-width="1" opacity="1"/><line transform="translate(140,0)" x2="0" y2="5" stroke="#676A86" stroke-width="1" opacity="1"/><line transform="translate(190,0)" x2="0" y2="5" stroke="#676A86" stroke-width="1" opacity="1"/><line transform="translate(240,0)" x2="0" y2="5" stroke="#676A86" stroke-width="1" opacity="1"/><line transform="translate(290,0)" x2="0" y2="5" stroke="#676A86" stroke-width="1" opacity="1"/></g><g class="mark-text role-axis-label" pointer-events="none"><text text-anchor="middle" transform="translate(40,15)" font-family="sans-serif" font-size="10px" fill="#676A86" opacity="1">1600</text><text text-anchor="middle" transform="translate(90,15)" font-family="sans-serif" font-size="10px" fill="#676A86" opacity="1">1650</text><text text-anchor="middle" transform="translate(140,15)" font-family="sans-serif" font-size="10px" fill="#676A86" opacity="1">1700</text><text text-anchor="middle" transform="translate(190,15)" font-family="sans-serif" font-size="10px" fill="#676A86" opacity="1">1750</text><text text-anchor="middle" transform="translate(240,15)" font-family="sans-serif" font-size="10px" fill="#676A86" opacity="1">1800</text><text text-anchor="middle" transform="translate(290,15)" font-family="sans-serif" font-size="10px" fill="#676A86" opacity="1">1850</text></g><g class="mark-rule role-axis-domain" pointer-events="none"><line transform="translate(0,0)" x2="300" y2="0" stroke="#676A86" stroke-width="1" opacity="1"/></g></g><path class="foreground" aria-hidden="true" d="" pointer-events="none" display="none"/></g></g><g class="mark-group role-axis" role="graphics-symbol" aria-roledescription="axis" aria-label="Y-axis titled 'GJ' for a linear scale with values from 0 to 100"><g transform="translate(0.5,0.5)"><path class="background" aria-hidden="true" d="M0,0h0v0h0Z" pointer-events="none"/><g><g class="mark-text role-axis-label" pointer-events="none"><text text-anchor="start" transform="translate(5,343)" font-family="sans-serif" font-size="10px" fill="#676A86" opacity="1">0</text><text text-anchor="start" transform="translate(5,273)" font-family="sans-serif" font-size="10px" fill="#676A86" opacity="1">20</text><text text-anchor="start" transform="translate(5,203)" font-family="sans-serif" font-size="10px" fill="#676A86" opacity="1">40</text><text text-anchor="start" transform="translate(5,133)" font-family="sans-serif" font-size="10px" fill="#676A86" opacity="1">60</text><text text-anchor="start" transform="translate(5,62.999999999999986)" font-family="sans-serif" font-size="10px" fill="#676A86" opacity="1">80</text><text text-anchor="start" transform="translate(5,-7)" font-family="sans-serif" font-size="10px" fill="#676A86" opacity="1">100</text></g><g class="mark-rule role-axis-domain" pointer-events="none"><line transform="translate(0,350)" x2="0" y2="-350" stroke="#676A86" stroke-width="1" opacity="1"/></g><g class="mark-text role-axis-title" pointer-events="none"><text text-anchor="start" transform="translate(25,-7)" font-family="sans-serif" font-size="10px" font-weight="normal" fill="#676A86" opacity="1">GJ</text></g></g><path class="foreground" aria-hidden="true" d="" pointer-events="none" display="none"/></g></g><g class="mark-group role-scope layer_0_layer_0_pathgroup" role="graphics-object" aria-roledescription="group mark container"><g transform="translate(0,0)"><path class="background" aria-hidden="true" d="M0,0h300v350h-300Z"/><g><g class="mark-area role-mark layer_0_layer_0_marks" role="graphics-object" aria-roledescription="area mark container"><path aria-label="Type: Human; year: 1566; y: 4" role="graphics-symbol" aria-roledescription="area mark" d="M6,333.921C19,334.264,32,334.60699999999997,45,334.60699999999997C61.66666666666667,334.60699999999997,78.33333333333333,333.5628333333333,95,333.09499999999997C111.66666666666667,332.62716666666665,128.33333333333334,331.8,145,331.8C161.66666666666666,331.8,178.33333333333334,331.996,195,331.996C211.66666666666666,331.996,228.33333333333334,330.309,245,330.309C261.6666666666667,330.309,278.3333333333333,331.52175,295,332.7345L295,345.2085C278.3333333333333,345.16650000000004,261.6666666666667,345.1245,245,345.1245C228.33333333333334,345.1245,211.66666666666666,347.31316666666663,195,347.8125C178.33333333333334,348.31183333333337,161.66666666666666,348.3771666666667,145,348.5615C128.33333333333334,348.74583333333334,111.66666666666667,348.817,95,348.9185C78.33333333333333,349.02,61.66666666666667,349.12263675213677,45,349.1705C32,349.2078333333333,19,349.2171666666667,6,349.2265Z" fill="#F4134D" fill-opacity="0.7"/></g></g><path class="foreground" aria-hidden="true" d="" display="none"/></g><g transform="translate(0,0)"><path class="background" aria-hidden="true" d="M0,0h300v350h-300Z"/><g><g class="mark-area role-mark layer_0_layer_0_marks" role="graphics-object" aria-roledescription="area mark container"><path aria-label="Type: Draught Animal; year: 1566; y: 6" role="graphics-symbol" aria-roledescription="area mark" d="M6,290.052C19,295.65487,32,301.25774,45,301.791C61.66666666666667,302.4746666666667,78.33333333333333,302.8165,95,302.8165C111.66666666666667,302.8165,128.33333333333334,297.9095,145,297.9095C161.66666666666666,297.9095,178.33333333333334,299.81874999999997,195,302.099C211.66666666666666,304.37925,228.33333333333334,308.08983333333333,245,311.591C261.6666666666667,315.0921666666667,278.3333333333333,319.09908333333334,295,323.106L295,332.32149999999996C278.3333333333333,329.05775,261.6666666666667,325.794,245,323.7395C228.33333333333334,321.68500000000006,211.66666666666666,320.94883333333337,195,319.9945C178.33333333333334,319.04016666666666,161.66666666666666,318.0135,145,318.0135C128.33333333333334,318.0135,111.66666666666667,319.6235,95,319.6235C78.33333333333333,319.6235,61.66666666666667,319.1008333333333,45,318.0555C32,317.24014,19,314.51357,6,311.787Z" fill="#F4C245" fill-opacity="0.7"/></g></g><path class="foreground" aria-hidden="true" d="" display="none"/></g><g transform="translate(0,0)"><path class="background" aria-hidden="true" d="M0,0h300v350h-300Z"/><g><g class="mark-area role-mark layer_0_layer_0_marks" role="graphics-object" aria-roledescription="area mark container"><path aria-label="Type: Firewood; year: 1566; y: 6" role="graphics-symbol" aria-roledescription="area mark" d="M6,311.787C19,314.51357,32,317.24014,45,318.0555C61.66666666666667,319.1008333333333,78.33333333333333,319.6235,95,319.6235C111.66666666666667,319.6235,128.33333333333334,318.0135,145,318.0135C161.66666666666666,318.0135,178.33333333333334,319.04016666666666,195,319.9945C211.66666666666666,320.94883333333337,228.33333333333334,321.68500000000006,245,323.7395C261.6666666666667,325.794,278.3333333333333,329.05775,295,332.32149999999996L295,332.7345C278.3333333333333,331.52175,261.6666666666667,330.309,245,330.309C228.33333333333334,330.309,211.66666666666666,331.996,195,331.996C178.33333333333334,331.996,161.66666666666666,331.8,145,331.8C128.33333333333334,331.8,111.66666666666667,332.62716666666665,95,333.09499999999997C78.33333333333333,333.5628333333333,61.66666666666667,334.60699999999997,45,334.60699999999997C32,334.60699999999997,19,334.264,6,333.921Z" fill="#EB5C2E" fill-opacity="0.7"/></g></g><path class="foreground" aria-hidden="true" d="" display="none"/></g><g transform="translate(0,0)"><path class="background" aria-hidden="true" d="M0,0h300v350h-300Z"/><g><g class="mark-area role-mark layer_0_layer_0_marks" role="graphics-object" aria-roledescription="area mark container"><path aria-label="Type: Wind; year: 1566; y: 0" role="graphics-symbol" aria-roledescription="area mark" d="M6,349.7935C19,349.77007857677904,32,349.74665715355803,45,349.7025C61.66666666666667,349.64588826466917,78.33333333333333,349.55375,95,349.4645C111.66666666666667,349.37525,128.33333333333334,349.3268333333333,145,349.167C161.66666666666666,349.00716666666665,178.33333333333334,348.94649999999996,195,348.5055C211.66666666666666,348.0645,228.33333333333334,345.513,245,345.513C261.6666666666667,345.513,278.3333333333333,345.51649999999995,295,345.52L295,350C278.3333333333333,350,261.6666666666667,350,245,350C228.33333333333334,350,211.66666666666666,350,195,350C178.33333333333334,350,161.66666666666666,350,145,350C128.33333333333334,350,111.66666666666667,350,95,350C78.33333333333333,350,61.66666666666667,350,45,350C32,350,19,350,6,350Z" fill="#36B7B4" fill-opacity="0.7"/></g></g><path class="foreground" aria-hidden="true" d="" display="none"/></g><g transform="translate(0,0)"><path class="background" aria-hidden="true" d="M0,0h300v350h-300Z"/><g><g class="mark-area role-mark layer_0_layer_0_marks" role="graphics-object" aria-roledescription="area mark container"><path aria-label="Type: Water; year: 1566; y: 0" role="graphics-symbol" aria-roledescription="area mark" d="M6,349.2265C19,349.2171666666667,32,349.2078333333333,45,349.1705C61.66666666666667,349.12263675213677,78.33333333333333,349.02,95,348.9185C111.66666666666667,348.817,128.33333333333334,348.74583333333334,145,348.5615C161.66666666666666,348.3771666666667,178.33333333333334,348.31183333333337,195,347.8125C211.66666666666666,347.31316666666663,228.33333333333334,345.1245,245,345.1245C261.6666666666667,345.1245,278.3333333333333,345.16650000000004,295,345.2085L295,345.52C278.3333333333333,345.51649999999995,261.6666666666667,345.513,245,345.513C228.33333333333334,345.513,211.66666666666666,348.0645,195,348.5055C178.33333333333334,348.94649999999996,161.66666666666666,349.00716666666665,145,349.167C128.33333333333334,349.3268333333333,111.66666666666667,349.37525,95,349.4645C78.33333333333333,349.55375,61.66666666666667,349.64588826466917,45,349.7025C32,349.74665715355803,19,349.77007857677904,6,349.7935Z" fill="#179FDB" fill-opacity="0.7"/></g></g><path class="foreground" aria-hidden="true" d="" display="none"/></g><g transform="translate(0,0)"><path class="background" aria-hidden="true" d="M0,0h300v350h-300Z"/><g><g class="mark-area role-mark layer_0_layer_0_marks" role="graphics-object" aria-roledescription="area mark container"><path aria-label="Type: Coal; year: 1566; y: 2" role="graphics-symbol" aria-roledescription="area mark" d="M6,282.9155C19,286.8355,32,290.7555,45,290.7555C61.66666666666667,290.7555,78.33333333333333,286.50825000000003,95,279.1145C111.66666666666667,271.72075,128.33333333333334,255.04733333333337,145,246.39300000000003C161.66666666666666,237.7386666666667,178.33333333333334,239.99150000000003,195,227.18850000000003C211.66666666666666,214.38550000000004,228.33333333333334,202.58700000000002,245,166.7855C261.6666666666667,130.984,278.3333333333333,71.68175000000001,295,12.379500000000004L295,323.106C278.3333333333333,319.09908333333334,261.6666666666667,315.0921666666667,245,311.591C228.33333333333334,308.08983333333333,211.66666666666666,304.37925,195,302.099C178.33333333333334,299.81874999999997,161.66666666666666,297.9095,145,297.9095C128.33333333333334,297.9095,111.66666666666667,302.8165,95,302.8165C78.33333333333333,302.8165,61.66666666666667,302.4746666666667,45,301.791C32,301.25774,19,295.65487,6,290.052Z" fill="#122B39" fill-opacity="0.7"/></g></g><path class="foreground" aria-hidden="true" d="" display="none"/></g></g><g class="mark-group role-scope layer_0_layer_1_pathgroup" role="graphics-object" aria-roledescription="group mark container"><g transform="translate(0,0)"><path class="background" aria-hidden="true" d="M0,0h300v350h-300Z"/><g><g class="mark-line role-mark layer_0_layer_1_marks" role="graphics-object" aria-roledescription="line mark container"><path aria-label="Type: Human; year: 1566; y: 4" role="graphics-symbol" aria-roledescription="line mark" d="M6,333.921C19,334.264,32,334.60699999999997,45,334.60699999999997C61.66666666666667,334.60699999999997,78.33333333333333,333.5628333333333,95,333.09499999999997C111.66666666666667,332.62716666666665,128.33333333333334,331.8,145,331.8C161.66666666666666,331.8,178.33333333333334,331.996,195,331.996C211.66666666666666,331.996,228.33333333333334,330.309,245,330.309C261.6666666666667,330.309,278.3333333333333,331.52175,295,332.7345" stroke="#F4134D" stroke-width="2"/></g></g><path class="foreground" aria-hidden="true" d="" display="none"/></g><g transform="translate(0,0)"><path class="background" aria-hidden="true" d="M0,0h300v350h-300Z"/><g><g class="mark-line role-mark layer_0_layer_1_marks" role="graphics-object" aria-roledescription="line mark container"><path aria-label="Type: Draught Animal; year: 1566; y: 6" role="graphics-symbol" aria-roledescription="line mark" d="M6,290.052C19,295.65487,32,301.25774,45,301.791C61.66666666666667,302.4746666666667,78.33333333333333,302.8165,95,302.8165C111.66666666666667,302.8165,128.33333333333334,297.9095,145,297.9095C161.66666666666666,297.9095,178.33333333333334,299.81874999999997,195,302.099C211.66666666666666,304.37925,228.33333333333334,308.08983333333333,245,311.591C261.6666666666667,315.0921666666667,278.3333333333333,319.09908333333334,295,323.106" stroke="#F4C245" stroke-width="2"/></g></g><path class="foreground" aria-hidden="true" d="" display="none"/></g><g transform="translate(0,0)"><path class="background" aria-hidden="true" d="M0,0h300v350h-300Z"/><g><g class="mark-line role-mark layer_0_layer_1_marks" role="graphics-object" aria-roledescription="line mark container"><path aria-label="Type: Firewood; year: 1566; y: 6" role="graphics-symbol" aria-roledescription="line mark" d="M6,311.787C19,314.51357,32,317.24014,45,318.0555C61.66666666666667,319.1008333333333,78.33333333333333,319.6235,95,319.6235C111.66666666666667,319.6235,128.33333333333334,318.0135,145,318.0135C161.66666666666666,318.0135,178.33333333333334,319.04016666666666,195,319.9945C211.66666666666666,320.94883333333337,228.33333333333334,321.68500000000006,245,323.7395C261.6666666666667,325.794,278.3333333333333,329.05775,295,332.32149999999996" stroke="#EB5C2E" stroke-width="2"/></g></g><path class="foreground" aria-hidden="true" d="" display="none"/></g><g transform="translate(0,0)"><path class="background" aria-hidden="true" d="M0,0h300v350h-300Z"/><g><g class="mark-line role-mark layer_0_layer_1_marks" role="graphics-object" aria-roledescription="line mark container"><path aria-label="Type: Wind; year: 1566; y: 0" role="graphics-symbol" aria-roledescription="line mark" d="M6,349.7935C19,349.77007857677904,32,349.74665715355803,45,349.7025C61.66666666666667,349.64588826466917,78.33333333333333,349.55375,95,349.4645C111.66666666666667,349.37525,128.33333333333334,349.3268333333333,145,349.167C161.66666666666666,349.00716666666665,178.33333333333334,348.94649999999996,195,348.5055C211.66666666666666,348.0645,228.33333333333334,345.513,245,345.513C261.6666666666667,345.513,278.3333333333333,345.51649999999995,295,345.52" stroke="#36B7B4" stroke-width="2"/></g></g><path class="foreground" aria-hidden="true" d="" display="none"/></g><g transform="translate(0,0)"><path class="background" aria-hidden="true" d="M0,0h300v350h-300Z"/><g><g class="mark-line role-mark layer_0_layer_1_marks" role="graphics-object" aria-roledescription="line mark container"><path aria-label="Type: Water; year: 1566; y: 0" role="graphics-symbol" aria-roledescription="line mark" d="M6,349.2265C19,349.2171666666667,32,349.2078333333333,45,349.1705C61.66666666666667,349.12263675213677,78.33333333333333,349.02,95,348.9185C111.66666666666667,348.817,128.33333333333334,348.74583333333334,145,348.5615C161.66666666666666,348.3771666666667,178.33333333333334,348.31183333333337,195,347.8125C211.66666666666666,347.31316666666663,228.33333333333334,345.1245,245,345.1245C261.6666666666667,345.1245,278.3333333333333,345.16650000000004,295,345.2085" stroke="#179FDB" stroke-width="2"/></g></g><path class="foreground" aria-hidden="true" d="" display="none"/></g><g transform="translate(0,0)"><path class="background" aria-hidden="true" d="M0,0h300v350h-300Z"/><g><g class="mark-line role-mark layer_0_layer_1_marks" role="graphics-object" aria-roledescription="line mark container"><path aria-label="Type: Coal; year: 1566; y: 2" role="graphics-symbol" aria-roledescription="line mark" d="M6,282.9155C19,286.8355,32,290.7555,45,290.7555C61.66666666666667,290.7555,78.33333333333333,286.50825000000003,95,279.1145C111.66666666666667,271.72075,128.33333333333334,255.04733333333337,145,246.39300000000003C161.66666666666666,237.7386666666667,178.33333333333334,239.99150000000003,195,227.18850000000003C211.66666666666666,214.38550000000004,228.33333333333334,202.58700000000002,245,166.7855C261.6666666666667,130.984,278.3333333333333,71.68175000000001,295,12.379500000000004" stroke="#122B39" stroke-width="2"/></g></g><path class="foreground" aria-hidden="true" d="" display="none"/></g></g><g class="mark-text role-mark layer_1_marks" role="graphics-object" aria-roledescription="text mark container"><text aria-label="t: Coal; x: 1855; y: 96" role="graphics-symbol" aria-roledescription="text mark" text-anchor="start" transform="translate(300,17.000000000000014)" font-family="sans-serif" font-size="11px" fill="#122B39">Coal</text><text aria-label="t: Draught Animal; x: 1855; y: 12" role="graphics-symbol" aria-roledescription="text mark" text-anchor="start" transform="translate(300,311)" font-family="sans-serif" font-size="11px" fill="#F4C245">Draught Animal</text><text aria-label="t: Firewood; x: 1855; y: 9" role="graphics-symbol" aria-roledescription="text mark" text-anchor="start" transform="translate(300,321.5)" font-family="sans-serif" font-size="11px" fill="#EB5C2E">Firewood</text><text aria-label="t: Human; x: 1855; y: 6" role="graphics-symbol" aria-roledescription="text mark" text-anchor="start" transform="translate(300,332)" font-family="sans-serif" font-size="11px" fill="#F4134D">Human</text><text aria-label="t: Water; x: 1855; y: 3" role="graphics-symbol" aria-roledescription="text mark" text-anchor="start" transform="translate(300,342.5)" font-family="sans-serif" font-size="11px" fill="#179FDB">Water</text><text aria-label="t: Wind; x: 1855; y: 0" role="graphics-symbol" aria-roledescription="text mark" text-anchor="start" transform="translate(300,353)" font-family="sans-serif" font-size="11px" fill="#36B7B4">Wind</text></g><g class="mark-group role-title"><g transform="translate(0,-46)"><path class="background" aria-hidden="true" d="M0,0h0v0h0Z" pointer-events="none"/><g><g class="mark-text role-title-text" role="graphics-symbol" aria-roledescription="title" aria-label="Title text 'The Rise of King Coal'" pointer-events="none"><text text-anchor="start" transform="translate(5,4)" font-family="sans-serif" font-size="12px" font-weight="bold" fill="#000" opacity="1">The Rise of King Coal</text></g><g class="mark-text role-title-subtitle" role="graphics-symbol" aria-roledescription="subtitle" aria-label="Subtitle text 'Energy consumption per capita in England and Wales. Source: Wrigley (2013)'" pointer-events="none"><text text-anchor="start" transform="translate(5,19)" font-family="sans-serif" font-size="11px" font-style="italic" fill="#000" opacity="1">Energy consumption per capita in England and Wales. Source: Wrigley (2013)</text></g></g><path class="foreground" aria-hidden="true" d="" pointer-events="none" display="none"/></g></g></g><path class="foreground" aria-hidden="true" d="" display="none"/></g></g></g></svg>