<svg xmlns="http://www.w3.org/2000/svg" xmlns:xlink="http://www.w3.org/1999/xlink" version="1.1" class="marks" width="485" height="372" viewBox="0 0 485 372"><rect width="485" height="372" fill="#122B39"/><g fill="none" stroke-miterlimit="10" transform="translate(5,50)"><g class="mark-group role-frame root" role="graphics-object" aria-roledescription="group mark container"><g transform="translate(0,0)"><path class="background" aria-hidden="true" d="M0,0h400v300h-400Z"/><g><g class="mark-group role-axis" aria-hidden="true"><g transform="translate(0.5,300.5)"><path class="background" aria-hidden="true" d="M0,0h0v0h0Z" pointer-events="none"/><g><g class="mark-rule role-axis-grid" pointer-events="none"><line transform="translate(15,-300)" x2="0" y2="300" stroke="#676A86" stroke-opacity="0.1" stroke-width="1" opacity="1"/><line transform="translate(92,-300)" x2="0" y2="300" stroke="#676A86" stroke-opacity="0.1" stroke-width="1" opacity="1"/><line transform="translate(169,-300)" x2="0" y2="300" stroke="#676A86" stroke-opacity="0.1" stroke-width="1" opacity="1"/><line transform="translate(246,-300)" x2="0" y2="300" stroke="#676A86" stroke-opacity="0.1" stroke-width="1" opacity="1"/><line transform="translate(323,-300)" x2="0" y2="300" stroke="#676A86" stroke-opacity="0.1" stroke-width="1" opacity="1"/><line transform="translate(400,-300)" x2="0" y2="300" stroke="#676A86" stroke-opacity="0.1" stroke-width="1" opacity="1"/></g></g><path class="foreground" aria-hidden="true" d="" pointer-events="none" display="none"/></g></g><g class="mark-group role-axis" aria-hidden="true"><g transform="translate(0.5,0.5)"><path class="background" aria-hidden="true" d="M0,0h0v0h0Z" pointer-events="none"/><g><g class="mark-rule role-axis-grid" pointer-events="none"><line transform="translate(0,295)" x2="400" y2="0" stroke="#676A86" stroke-opacity="0.1" stroke-width="1" opacity="1"/><line transform="translate(0,241)" x2="400" y2="0" stroke="#676A86" stroke-opacity="0.1" stroke-width="1" opacity="1"/><line transform="translate(0,188)" x2="400" y2="0" stroke="#676A86" stroke-opacity="0.1" stroke-width="1" opacity="1"/><line transform="translate(0,134)" x2="400" y2="0" stroke="#676A86" stroke-opacity="0.1" stroke-width="1" opacity="1"/><line transform="translate(0,80)" x2="400" y2="0" stroke="#676A86" stroke-opacity="0.1" stroke-width="1" opacity="1"/><line transform="translate(0,27)" x2="400" y2="0" stroke="#676A86" stroke-opacity="0.1" stroke-width="1" opacity="1"/></g></g><path class="foreground" aria-hidden="true" d="" pointer-events="none" display="none"/></g></g><g class="mark-group role-axis" role="graphics-symbol" aria-roledescription="axis" aria-label="X-axis titled 'Target reduction in emissions from starting year (%)' for a linear scale with values from −160 to 100"><g transform="translate(0.5,300.5)"><path class="background" aria-hidden="true" d="M0,0h0v0h0Z" pointer-events="none"/><g><g class="mark-rule role-axis-tick" pointer-events="none"><line transform="translate(15,0)" x2="0" y2="5" stroke="#676A86" stroke-width="1" opacity="1"/><line transform="translate(92,0)" x2="0" y2="5" stroke="#676A86" stroke-width="1" opacity="1"/><line transform="translate(169,0)" x2="0" y2="5" stroke="#676A86" stroke-width="1" opacity="1"/><line transform="translate(246,0)" x2="0" y2="5" stroke="#676A86" stroke-width="1" opacity="1"/><line transform="translate(323,0)" x2="0" y2="5" stroke="#676A86" stroke-width="1" opacity="1"/><line transform="translate(400,0)" x2="0" y2="5" stroke="#676A86" stroke-width="1" opacity="1"/></g><g class="mark-text role-axis-label" pointer-events="none"><text text-anchor="middle" transform="translate(15.384615384615385,15)" font-family="Georgia" font-size="10px" fill="#676A86" opacity="1">−150</text><text text-anchor="middle" transform="translate(92.3076923076923,15)" font-family="Georgia" font-size="10px" fill="#676A86" opacity="1">−100</text><text text-anchor="middle" transform="translate(169.23076923076923,15)" font-family="Georgia" font-size="10px" fill="#676A86" opacity="1">−50</text><text text-anchor="middle" transform="translate(246.15384615384616,15)" font-family="Georgia" font-size="10px" fill="#676A86" opacity="1">0</text><text text-anchor="middle" transform="translate(323.0769230769231,15)" font-family="Georgia" font-size="10px" fill="#676A86" opacity="1">50</text><text text-anchor="end" transform="translate(400,15)" font-family="Georgia" font-size="10px" fill="#676A86" opacity="1">100</text></g><g class="mark-rule role-axis-domain" pointer-events="none"><line transform="translate(0,0)" x2="400" y2="0" stroke="#676A86" stroke-width="1" opacity="1"/></g><g class="mark-text role-axis-title" pointer-events="none"><text text-anchor="end" transform="translate(400,-6)" font-family="Georgia" font-size="12px" font-weight="normal" fill="#676A86" opacity="1">Target reduction in emissions from starting year (%)</text></g></g><path class="foreground" aria-hidden="true" d="" pointer-events="none" display="none"/></g></g><g class="mark-group role-axis" role="graphics-symbol" aria-roledescription="axis" aria-label="Y-axis titled 'Actual reduction in emissions between 2010-2018 (%)' for a linear scale with values from −62 to 50"><g transform="translate(0.5,0.5)"><path class="background" aria-hidden="true" d="M0,0h0v0h0Z" pointer-events="none"/><g><g class="mark-text role-axis-label" pointer-events="none"><text text-anchor="start" transform="translate(5,287.6428571428571)" font-family="Georgia" font-size="10px" fill="#676A86" opacity="1">−60</text><text text-anchor="start" transform="translate(5,234.07142857142858)" font-family="Georgia" font-size="10px" fill="#676A86" opacity="1">−40</text><text text-anchor="start" transform="translate(5,180.5)" font-family="Georgia" font-size="10px" fill="#676A86" opacity="1">−20</text><text text-anchor="start" transform="translate(5,126.92857142857142)" font-family="Georgia" font-size="10px" fill="#676A86" opacity="1">0</text><text text-anchor="start" transform="translate(5,73.35714285714288)" font-family="Georgia" font-size="10px" fill="#676A86" opacity="1">20</text><text text-anchor="start" transform="translate(5,19.785714285714292)" font-family="Georgia" font-size="10px" fill="#676A86" opacity="1">40</text></g><g class="mark-rule role-axis-domain" pointer-events="none"><line transform="translate(0,300)" x2="0" y2="-300" stroke="#676A86" stroke-width="1" opacity="1"/></g><g class="mark-text role-axis-title" pointer-events="none"><text text-anchor="start" transform="translate(5,4)" font-family="Georgia" font-size="12px" font-weight="normal" fill="#676A86" opacity="1">Actual reduction in emissions between 2010-2018 (%)</text></g></g><path class="foreground" aria-hidden="true" d="" pointer-events="none" display="none"/></g></g><g class="mark-line role-mark layer_0_marks" clip-path="url(#clip1)" role="graphics-object" aria-roledescription="line mark container"><path aria-label="z: 0; Value1: 73.86544" role="graphics-symbol" aria-roledescription="line mark" d="M246.15384615384616,-63.92528571428575L246.15384615384616,132.47069223214288L246.15384615384616,17.712562500000008L246.15384615384616,291.17386607142856L246.15384615384616,64.26083035714286L246.15384615384616,247.21505357142854L246.15384615384616,229.50283928571432L246.15384615384616,105.50295535714288M246.15384615384616,98.59122321428569L246.15384615384616,132.525765L246.15384615384616,-59.117089285714286L246.15384615384616,141.06855000000002L246.15384615384616,79.20045535714283L246.15384615384616,94.78296428571427L246.15384615384616,254.69927678571426L246.15384615384616,36.676767857142835L246.15384615384616,67.85381249999999L246.15384615384616,136.93808839285717L246.15384615384616,39.17740178571426L246.15384615384616,144.15358125L246.15384615384616,72.46641964285715L246.15384615384616,81.95970535714282L246.15384615384616,159.20211964285716L246.15384615384616,1.81355357142855L246.15384615384616,129.05757589285713L246.15384615384616,62.50907142857143L246.15384615384616,166.80187500000002L246.15384615384616,133.59929223214286L246.15384615384616,102.3061875M246.15384615384616,2946.1901785714285L246.15384615384616,330.09605357142857L246.15384615384616,-22.12325892857143L246.15384615384616,26.01064285714285L246.15384615384616,110.2901223214286L246.15384615384616,514.9135714285713L246.15384615384616,59.73160714285714L246.15384615384616,56.001776785714284L246.15384615384616,85.50190178571428L246.15384615384616,-101.45670535714288L246.15384615384616,67.92822321428572L246.15384615384616,6.953169642857149L246.15384615384616,301.0479107142857L246.15384615384616,223.32851785714288L246.15384615384616,-2669.64375L246.15384615384616,198.97167857142855L246.15384615384616,184.07365178571428L246.15384615384616,-48.95812499999994L246.15384615384616,110.3487375L246.15384615384616,-14.835964285714276L246.15384615384616,82.7430267857143L246.15384615384616,81.79534821428572M246.15384615384616,385.4295535714285L246.15384615384616,130.73815178571428L246.15384615384616,99.80287499999997" stroke="#676A86" stroke-width="2" opacity="0.5"/></g><g class="mark-line role-mark layer_1_marks" clip-path="url(#clip2)" role="graphics-object" aria-roledescription="line mark container"><path aria-label="Value1: 0; z: 0" role="graphics-symbol" aria-roledescription="line mark" d="M-1369.0938461538462,133.92857142857142L27.331692307692318,133.92857142857142L101.702,133.92857142857142L133.48329230769232,133.92857142857142L150.16735384615384,133.92857142857142L155.8386,133.92857142857142L176.7881076923077,133.92857142857142L181.08673846153846,133.92857142857142L191.2599076923077,133.92857142857142L194.8061846153846,133.92857142857142L208.79575384615384,133.92857142857142L217.35256923076923,133.92857142857142L227.27276923076926,133.92857142857142L231.6377569230769,133.92857142857142L240.28101999999998,133.92857142857142L242.05293538461538,133.92857142857142L244.4253030769231,133.92857142857142L246.34297061538462,133.92857142857142L246.9595606153846,133.92857142857142L246.99119215384619,133.92857142857142L247.9862923076923,133.92857142857142L248.95154615384612,133.92857142857142L259.69713538461536,133.92857142857142L259.73080153846155,133.92857142857142L262.48035384615383,133.92857142857142L264.31644615384613,133.92857142857142L265.75424615384617,133.92857142857142L266.45016923076923,133.92857142857142L268.6374769230769,133.92857142857142L273.9681384615385,133.92857142857142L275.5527230769231,133.92857142857142L276.0026307692308,133.92857142857142L276.09703076923074,133.92857142857142L277.58743076923076,133.92857142857142L281.4551846153846,133.92857142857142L284.0617384615385,133.92857142857142L284.10447692307696,133.92857142857142L286.16813846153843,133.92857142857142L287.1742769230769,133.92857142857142L288.76953846153845,133.92857142857142L290.91179999999997,133.92857142857142L300.5750307692308,133.92857142857142L302.0112923076923,133.92857142857142L308.1374769230769,133.92857142857142L312.90355384615384,133.92857142857142L319.0833076923077,133.92857142857142L322.0352923076923,133.92857142857142L331.5980923076923,133.92857142857142L335.78361538461536,133.92857142857142L351.1964615384615,133.92857142857142L357.0313538461539,133.92857142857142L359.7929846153846,133.92857142857142L381.34949230769234,133.92857142857142L1856.4107692307691,133.92857142857142" stroke="#676A86" stroke-width="2" opacity="0.5"/></g><g class="mark-line role-mark layer_2_marks" clip-path="url(#clip3)" role="graphics-object" aria-roledescription="line mark container"><path aria-label="Value1: 0" role="graphics-symbol" aria-roledescription="line mark" d="M-1369.0938461538462,2946.1901785714285L27.331692307692318,514.9135714285713L101.702,385.4295535714285L133.48329230769232,330.09605357142857L150.16735384615384,301.0479107142857L155.8386,291.17386607142856L176.7881076923077,254.69927678571426L181.08673846153846,247.21505357142854L191.2599076923077,229.50283928571432L194.8061846153846,223.32851785714288L208.79575384615384,198.97167857142855L217.35256923076923,184.07365178571428L227.27276923076926,166.80187500000002L231.6377569230769,159.20211964285716L240.28101999999998,144.15358125L242.05293538461538,141.06855000000002L244.4253030769231,136.93808839285717L246.34297061538462,133.59929223214286L246.9595606153846,132.525765L246.99119215384619,132.47069223214288L247.9862923076923,130.73815178571428L248.95154615384612,129.05757589285713L259.69713538461536,110.3487375L259.73080153846155,110.2901223214286L262.48035384615383,105.50295535714288L264.31644615384613,102.3061875L265.75424615384617,99.80287499999997L266.45016923076923,98.59122321428569L268.6374769230769,94.78296428571427L273.9681384615385,85.50190178571428L275.5527230769231,82.7430267857143L276.0026307692308,81.95970535714282L276.09703076923074,81.79534821428572L277.58743076923076,79.20045535714283L281.4551846153846,72.46641964285715L284.0617384615385,67.92822321428572L284.10447692307696,67.85381249999999L286.16813846153843,64.26083035714286L287.1742769230769,62.50907142857143L288.76953846153845,59.73160714285714L290.91179999999997,56.001776785714284L300.5750307692308,39.17740178571426L302.0112923076923,36.676767857142835L308.1374769230769,26.01064285714285L312.90355384615384,17.712562500000008L319.0833076923077,6.953169642857149L322.0352923076923,1.81355357142855L331.5980923076923,-14.835964285714276L335.78361538461536,-22.12325892857143L351.1964615384615,-48.95812499999994L357.0313538461539,-59.117089285714286L359.7929846153846,-63.92528571428575L381.34949230769234,-101.45670535714288L1856.4107692307691,-2669.64375" stroke="#36B7B4" stroke-width="2" opacity="0.8"/></g><g class="mark-symbol role-mark layer_3_marks" clip-path="url(#clip4)" role="graphics-object" aria-roledescription="symbol mark container"><path aria-label="Value1: 73.86544; Value2: −80" role="graphics-symbol" aria-roledescription="point" transform="translate(359.7929846153846,348.35590178571425)" d="M3.5355339059327378,0A3.5355339059327378,3.5355339059327378,0,1,1,-3.5355339059327378,0A3.5355339059327378,3.5355339059327378,0,1,1,3.5355339059327378,0" fill="#36B7B4" stroke="#36B7B4" stroke-width="2" opacity="0.7"/><path aria-label="Value1: 0.5442749; Value2: −1" role="graphics-symbol" aria-roledescription="point" transform="translate(246.99119215384619,135.53985348214286)" d="M3.5355339059327378,0A3.5355339059327378,3.5355339059327378,0,1,1,-3.5355339059327378,0A3.5355339059327378,3.5355339059327378,0,1,1,3.5355339059327378,0" fill="#36B7B4" stroke="#36B7B4" stroke-width="2" opacity="0.7"/><path aria-label="Value1: 43.38731; Value2: 5" role="graphics-symbol" aria-roledescription="point" transform="translate(312.90355384615384,120.1352089285714)" d="M3.5355339059327378,0A3.5355339059327378,3.5355339059327378,0,1,1,-3.5355339059327378,0A3.5355339059327378,3.5355339059327378,0,1,1,3.5355339059327378,0" fill="#36B7B4" stroke="#36B7B4" stroke-width="2" opacity="0.7"/><path aria-label="Value1: −58.70491; Value2: 4" role="graphics-symbol" aria-roledescription="point" transform="translate(155.8386,123.44706160714286)" d="M3.5355339059327378,0A3.5355339059327378,3.5355339059327378,0,1,1,-3.5355339059327378,0A3.5355339059327378,3.5355339059327378,0,1,1,3.5355339059327378,0" fill="#36B7B4" stroke="#36B7B4" stroke-width="2" opacity="0.7"/><path aria-label="Value1: 26.00929; Value2: 9" role="graphics-symbol" aria-roledescription="point" transform="translate(286.16813846153843,110.4957107142857)" d="M3.5355339059327378,0A3.5355339059327378,3.5355339059327378,0,1,1,-3.5355339059327378,0A3.5355339059327378,3.5355339059327378,0,1,1,3.5355339059327378,0" fill="#36B7B4" stroke="#36B7B4" stroke-width="2" opacity="0.7"/><path aria-label="Value1: −42.29362; Value2: −12" role="graphics-symbol" aria-roledescription="point" transform="translate(181.08673846153846,166.9191160714286)" d="M3.5355339059327378,0A3.5355339059327378,3.5355339059327378,0,1,1,-3.5355339059327378,0A3.5355339059327378,3.5355339059327378,0,1,1,3.5355339059327378,0" fill="#36B7B4" stroke="#36B7B4" stroke-width="2" opacity="0.7"/><path aria-label="Value1: −35.68106; Value2: 8" role="graphics-symbol" aria-roledescription="point" transform="translate(191.2599076923077,111.6330830357143)" d="M3.5355339059327378,0A3.5355339059327378,3.5355339059327378,0,1,1,-3.5355339059327378,0A3.5355339059327378,3.5355339059327378,0,1,1,3.5355339059327378,0" fill="#36B7B4" stroke="#36B7B4" stroke-width="2" opacity="0.7"/><path aria-label="Value1: 10.61223; Value2: −5" role="graphics-symbol" aria-roledescription="point" transform="translate(262.48035384615383,147.34640357142857)" d="M3.5355339059327378,0A3.5355339059327378,3.5355339059327378,0,1,1,-3.5355339059327378,0A3.5355339059327378,3.5355339059327378,0,1,1,3.5355339059327378,0" fill="#36B7B4" stroke="#36B7B4" stroke-width="2" opacity="0.7"/><path aria-label="Value1: 13.19261; Value2: −23" role="graphics-symbol" aria-roledescription="point" transform="translate(266.45016923076923,196.4085)" d="M3.5355339059327378,0A3.5355339059327378,3.5355339059327378,0,1,1,-3.5355339059327378,0A3.5355339059327378,3.5355339059327378,0,1,1,3.5355339059327378,0" fill="#36B7B4" stroke="#36B7B4" stroke-width="2" opacity="0.7"/><path aria-label="Value1: 0.5237144; Value2: 9" role="graphics-symbol" aria-roledescription="point" transform="translate(246.9595606153846,108.88230267857145)" d="M3.5355339059327378,0A3.5355339059327378,3.5355339059327378,0,1,1,-3.5355339059327378,0A3.5355339059327378,3.5355339059327378,0,1,1,3.5355339059327378,0" fill="#36B7B4" stroke="#36B7B4" stroke-width="2" opacity="0.7"/><path aria-label="Value1: 72.07038; Value2: 6" role="graphics-symbol" aria-roledescription="point" transform="translate(357.0313538461539,116.60229642857145)" d="M3.5355339059327378,0A3.5355339059327378,3.5355339059327378,0,1,1,-3.5355339059327378,0A3.5355339059327378,3.5355339059327378,0,1,1,3.5355339059327378,0" fill="#36B7B4" stroke="#36B7B4" stroke-width="2" opacity="0.7"/><path aria-label="Value1: −2.665592; Value2: 8" role="graphics-symbol" aria-roledescription="point" transform="translate(242.05293538461538,112.2943767857143)" d="M3.5355339059327378,0A3.5355339059327378,3.5355339059327378,0,1,1,-3.5355339059327378,0A3.5355339059327378,3.5355339059327378,0,1,1,3.5355339059327378,0" fill="#36B7B4" stroke="#36B7B4" stroke-width="2" opacity="0.7"/><path aria-label="Value1: 20.43183; Value2: 32" role="graphics-symbol" aria-roledescription="point" transform="translate(277.58743076923076,46.954098214285686)" d="M3.5355339059327378,0A3.5355339059327378,3.5355339059327378,0,1,1,-3.5355339059327378,0A3.5355339059327378,3.5355339059327378,0,1,1,3.5355339059327378,0" fill="#36B7B4" stroke="#36B7B4" stroke-width="2" opacity="0.7"/><path aria-label="Value1: 14.61436; Value2: 12" role="graphics-symbol" aria-roledescription="point" transform="translate(268.6374769230769,102.16218750000002)" d="M3.5355339059327378,0A3.5355339059327378,3.5355339059327378,0,1,1,-3.5355339059327378,0A3.5355339059327378,3.5355339059327378,0,1,1,3.5355339059327378,0" fill="#36B7B4" stroke="#36B7B4" stroke-width="2" opacity="0.7"/><path aria-label="Value1: −45.08773; Value2: −10" role="graphics-symbol" aria-roledescription="point" transform="translate(176.7881076923077,160.94370535714285)" d="M3.5355339059327378,0A3.5355339059327378,3.5355339059327378,0,1,1,-3.5355339059327378,0A3.5355339059327378,3.5355339059327378,0,1,1,3.5355339059327378,0" fill="#36B7B4" stroke="#36B7B4" stroke-width="2" opacity="0.7"/><path aria-label="Value1: 36.30734; Value2: 26" role="graphics-symbol" aria-roledescription="point" transform="translate(302.0112923076923,64.58488392857141)" d="M3.5355339059327378,0A3.5355339059327378,3.5355339059327378,0,1,1,-3.5355339059327378,0A3.5355339059327378,3.5355339059327378,0,1,1,3.5355339059327378,0" fill="#36B7B4" stroke="#36B7B4" stroke-width="2" opacity="0.7"/><path aria-label="Value1: 24.66791; Value2: 15" role="graphics-symbol" aria-roledescription="point" transform="translate(284.10447692307696,94.28022321428573)" d="M3.5355339059327378,0A3.5355339059327378,3.5355339059327378,0,1,1,-3.5355339059327378,0A3.5355339059327378,3.5355339059327378,0,1,1,3.5355339059327378,0" fill="#36B7B4" stroke="#36B7B4" stroke-width="2" opacity="0.7"/><path aria-label="Value1: −1.123553; Value2: 8" role="graphics-symbol" aria-roledescription="point" transform="translate(244.4253030769231,113.01427232142858)" d="M3.5355339059327378,0A3.5355339059327378,3.5355339059327378,0,1,1,-3.5355339059327378,0A3.5355339059327378,3.5355339059327378,0,1,1,3.5355339059327378,0" fill="#36B7B4" stroke="#36B7B4" stroke-width="2" opacity="0.7"/><path aria-label="Value1: 35.37377; Value2: 20" role="graphics-symbol" aria-roledescription="point" transform="translate(300.5750307692308,81.56308928571428)" d="M3.5355339059327378,0A3.5355339059327378,3.5355339059327378,0,1,1,-3.5355339059327378,0A3.5355339059327378,3.5355339059327378,0,1,1,3.5355339059327378,0" fill="#36B7B4" stroke="#36B7B4" stroke-width="2" opacity="0.7"/><path aria-label="Value1: −3.817337; Value2: 0" role="graphics-symbol" aria-roledescription="point" transform="translate(240.28101999999998,134.97615910714285)" d="M3.5355339059327378,0A3.5355339059327378,3.5355339059327378,0,1,1,-3.5355339059327378,0A3.5355339059327378,3.5355339059327378,0,1,1,3.5355339059327378,0" fill="#36B7B4" stroke="#36B7B4" stroke-width="2" opacity="0.7"/><path aria-label="Value1: 22.94587; Value2: −11" role="graphics-symbol" aria-roledescription="point" transform="translate(281.4551846153846,163.99936607142854)" d="M3.5355339059327378,0A3.5355339059327378,3.5355339059327378,0,1,1,-3.5355339059327378,0A3.5355339059327378,3.5355339059327378,0,1,1,3.5355339059327378,0" fill="#36B7B4" stroke="#36B7B4" stroke-width="2" opacity="0.7"/><path aria-label="Value1: 19.40171; Value2: −50" role="graphics-symbol" aria-roledescription="point" transform="translate(276.0026307692308,267.2562857142857)" d="M3.5355339059327378,0A3.5355339059327378,3.5355339059327378,0,1,1,-3.5355339059327378,0A3.5355339059327378,3.5355339059327378,0,1,1,3.5355339059327378,0" fill="#36B7B4" stroke="#36B7B4" stroke-width="2" opacity="0.7"/><path aria-label="Value1: −9.435458; Value2: −33" role="graphics-symbol" aria-roledescription="point" transform="translate(231.6377569230769,223.09875)" d="M3.5355339059327378,0A3.5355339059327378,3.5355339059327378,0,1,1,-3.5355339059327378,0A3.5355339059327378,3.5355339059327378,0,1,1,3.5355339059327378,0" fill="#36B7B4" stroke="#36B7B4" stroke-width="2" opacity="0.7"/><path aria-label="Value1: 49.32294; Value2: 10" role="graphics-symbol" aria-roledescription="point" transform="translate(322.0352923076923,107.54975089285713)" d="M3.5355339059327378,0A3.5355339059327378,3.5355339059327378,0,1,1,-3.5355339059327378,0A3.5355339059327378,3.5355339059327378,0,1,1,3.5355339059327378,0" fill="#36B7B4" stroke="#36B7B4" stroke-width="2" opacity="0.7"/><path aria-label="Value1: 1.818505; Value2: 7" role="graphics-symbol" aria-roledescription="point" transform="translate(248.95154615384612,114.88898839285714)" d="M3.5355339059327378,0A3.5355339059327378,3.5355339059327378,0,1,1,-3.5355339059327378,0A3.5355339059327378,3.5355339059327378,0,1,1,3.5355339059327378,0" fill="#36B7B4" stroke="#36B7B4" stroke-width="2" opacity="0.7"/><path aria-label="Value1: 26.66328; Value2: 19" role="graphics-symbol" aria-roledescription="point" transform="translate(287.1742769230769,82.48690178571428)" d="M3.5355339059327378,0A3.5355339059327378,3.5355339059327378,0,1,1,-3.5355339059327378,0A3.5355339059327378,3.5355339059327378,0,1,1,3.5355339059327378,0" fill="#36B7B4" stroke="#36B7B4" stroke-width="2" opacity="0.7"/><path aria-label="Value1: −12.2727; Value2: 0" role="graphics-symbol" aria-roledescription="point" transform="translate(227.27276923076926,134.18009169642855)" d="M3.5355339059327378,0A3.5355339059327378,3.5355339059327378,0,1,1,-3.5355339059327378,0A3.5355339059327378,3.5355339059327378,0,1,1,3.5355339059327378,0" fill="#36B7B4" stroke="#36B7B4" stroke-width="2" opacity="0.7"/><path aria-label="Value1: 0.1229309; Value2: −31" role="graphics-symbol" aria-roledescription="point" transform="translate(246.34297061538462,216.10526785714288)" d="M3.5355339059327378,0A3.5355339059327378,3.5355339059327378,0,1,1,-3.5355339059327378,0A3.5355339059327378,3.5355339059327378,0,1,1,3.5355339059327378,0" fill="#36B7B4" stroke="#36B7B4" stroke-width="2" opacity="0.7"/><path aria-label="Value1: 11.80569; Value2: −16" role="graphics-symbol" aria-roledescription="point" transform="translate(264.31644615384613,177.67856250000003)" d="M3.5355339059327378,0A3.5355339059327378,3.5355339059327378,0,1,1,-3.5355339059327378,0A3.5355339059327378,3.5355339059327378,0,1,1,3.5355339059327378,0" fill="#36B7B4" stroke="#36B7B4" stroke-width="2" opacity="0.7"/><path aria-label="Value1: −1049.911; Value2: 12" role="graphics-symbol" aria-roledescription="point" transform="translate(-1369.0938461538462,101.28975)" d="M3.5355339059327378,0A3.5355339059327378,3.5355339059327378,0,1,1,-3.5355339059327378,0A3.5355339059327378,3.5355339059327378,0,1,1,3.5355339059327378,0" fill="#36B7B4" stroke="#36B7B4" stroke-width="2" opacity="0.7"/><path aria-label="Value1: −73.23586; Value2: −4" role="graphics-symbol" aria-roledescription="point" transform="translate(133.48329230769232,145.47883125)" d="M3.5355339059327378,0A3.5355339059327378,3.5355339059327378,0,1,1,-3.5355339059327378,0A3.5355339059327378,3.5355339059327378,0,1,1,3.5355339059327378,0" fill="#36B7B4" stroke="#36B7B4" stroke-width="2" opacity="0.7"/><path aria-label="Value1: 58.25935; Value2: 11" role="graphics-symbol" aria-roledescription="point" transform="translate(335.78361538461536,103.2361607142857)" d="M3.5355339059327378,0A3.5355339059327378,3.5355339059327378,0,1,1,-3.5355339059327378,0A3.5355339059327378,3.5355339059327378,0,1,1,3.5355339059327378,0" fill="#36B7B4" stroke="#36B7B4" stroke-width="2" opacity="0.7"/><path aria-label="Value1: 40.28936; Value2: 43" role="graphics-symbol" aria-roledescription="point" transform="translate(308.1374769230769,19.636874999999964)" d="M3.5355339059327378,0A3.5355339059327378,3.5355339059327378,0,1,1,-3.5355339059327378,0A3.5355339059327378,3.5355339059327378,0,1,1,3.5355339059327378,0" fill="#36B7B4" stroke="#36B7B4" stroke-width="2" opacity="0.7"/><path aria-label="Value1: 8.825021; Value2: −3" role="graphics-symbol" aria-roledescription="point" transform="translate(259.73080153846155,143.18644285714285)" d="M3.5355339059327378,0A3.5355339059327378,3.5355339059327378,0,1,1,-3.5355339059327378,0A3.5355339059327378,3.5355339059327378,0,1,1,3.5355339059327378,0" fill="#36B7B4" stroke="#36B7B4" stroke-width="2" opacity="0.7"/><path aria-label="Value1: −142.2344; Value2: −3" role="graphics-symbol" aria-roledescription="point" transform="translate(27.331692307692318,142.1961080357143)" d="M3.5355339059327378,0A3.5355339059327378,3.5355339059327378,0,1,1,-3.5355339059327378,0A3.5355339059327378,3.5355339059327378,0,1,1,3.5355339059327378,0" fill="#36B7B4" stroke="#36B7B4" stroke-width="2" opacity="0.7"/><path aria-label="Value1: 27.7002; Value2: 13" role="graphics-symbol" aria-roledescription="point" transform="translate(288.76953846153845,100.39049999999997)" d="M3.5355339059327378,0A3.5355339059327378,3.5355339059327378,0,1,1,-3.5355339059327378,0A3.5355339059327378,3.5355339059327378,0,1,1,3.5355339059327378,0" fill="#36B7B4" stroke="#36B7B4" stroke-width="2" opacity="0.7"/><path aria-label="Value1: 29.09267; Value2: −7" role="graphics-symbol" aria-roledescription="point" transform="translate(290.91179999999997,152.9926607142857)" d="M3.5355339059327378,0A3.5355339059327378,3.5355339059327378,0,1,1,-3.5355339059327378,0A3.5355339059327378,3.5355339059327378,0,1,1,3.5355339059327378,0" fill="#36B7B4" stroke="#36B7B4" stroke-width="2" opacity="0.7"/><path aria-label="Value1: 18.07929; Value2: −8" role="graphics-symbol" aria-roledescription="point" transform="translate(273.9681384615385,155.22445178571428)" d="M3.5355339059327378,0A3.5355339059327378,3.5355339059327378,0,1,1,-3.5355339059327378,0A3.5355339059327378,3.5355339059327378,0,1,1,3.5355339059327378,0" fill="#36B7B4" stroke="#36B7B4" stroke-width="2" opacity="0.7"/><path aria-label="Value1: 87.87717; Value2: −27" role="graphics-symbol" aria-roledescription="point" transform="translate(381.34949230769234,207.25925892857143)" d="M3.5355339059327378,0A3.5355339059327378,3.5355339059327378,0,1,1,-3.5355339059327378,0A3.5355339059327378,3.5355339059327378,0,1,1,3.5355339059327378,0" fill="#36B7B4" stroke="#36B7B4" stroke-width="2" opacity="0.7"/><path aria-label="Value1: 24.64013; Value2: −2" role="graphics-symbol" aria-roledescription="point" transform="translate(284.0617384615385,138.39429910714287)" d="M3.5355339059327378,0A3.5355339059327378,3.5355339059327378,0,1,1,-3.5355339059327378,0A3.5355339059327378,3.5355339059327378,0,1,1,3.5355339059327378,0" fill="#36B7B4" stroke="#36B7B4" stroke-width="2" opacity="0.7"/><path aria-label="Value1: 47.40415; Value2: 2" role="graphics-symbol" aria-roledescription="point" transform="translate(319.0833076923077,129.35673482142855)" d="M3.5355339059327378,0A3.5355339059327378,3.5355339059327378,0,1,1,-3.5355339059327378,0A3.5355339059327378,3.5355339059327378,0,1,1,3.5355339059327378,0" fill="#36B7B4" stroke="#36B7B4" stroke-width="2" opacity="0.7"/><path aria-label="Value1: −62.39122; Value2: 3" role="graphics-symbol" aria-roledescription="point" transform="translate(150.16735384615384,126.11226428571429)" d="M3.5355339059327378,0A3.5355339059327378,3.5355339059327378,0,1,1,-3.5355339059327378,0A3.5355339059327378,3.5355339059327378,0,1,1,3.5355339059327378,0" fill="#36B7B4" stroke="#36B7B4" stroke-width="2" opacity="0.7"/><path aria-label="Value1: −33.37598; Value2: −5" role="graphics-symbol" aria-roledescription="point" transform="translate(194.8061846153846,147.39359464285712)" d="M3.5355339059327378,0A3.5355339059327378,3.5355339059327378,0,1,1,-3.5355339059327378,0A3.5355339059327378,3.5355339059327378,0,1,1,3.5355339059327378,0" fill="#36B7B4" stroke="#36B7B4" stroke-width="2" opacity="0.7"/><path aria-label="Value1: 1046.667; Value2: 1" role="graphics-symbol" aria-roledescription="point" transform="translate(1856.4107692307691,129.98906517857145)" d="M3.5355339059327378,0A3.5355339059327378,3.5355339059327378,0,1,1,-3.5355339059327378,0A3.5355339059327378,3.5355339059327378,0,1,1,3.5355339059327378,0" fill="#36B7B4" stroke="#36B7B4" stroke-width="2" opacity="0.7"/><path aria-label="Value1: −24.28276; Value2: −10" role="graphics-symbol" aria-roledescription="point" transform="translate(208.79575384615384,159.72662946428574)" d="M3.5355339059327378,0A3.5355339059327378,3.5355339059327378,0,1,1,-3.5355339059327378,0A3.5355339059327378,3.5355339059327378,0,1,1,3.5355339059327378,0" fill="#36B7B4" stroke="#36B7B4" stroke-width="2" opacity="0.7"/><path aria-label="Value1: −18.72083; Value2: 4" role="graphics-symbol" aria-roledescription="point" transform="translate(217.35256923076923,123.5182044642857)" d="M3.5355339059327378,0A3.5355339059327378,3.5355339059327378,0,1,1,-3.5355339059327378,0A3.5355339059327378,3.5355339059327378,0,1,1,3.5355339059327378,0" fill="#36B7B4" stroke="#36B7B4" stroke-width="2" opacity="0.7"/><path aria-label="Value1: 68.2777; Value2: 13" role="graphics-symbol" aria-roledescription="point" transform="translate(351.1964615384615,98.92108928571429)" d="M3.5355339059327378,0A3.5355339059327378,3.5355339059327378,0,1,1,-3.5355339059327378,0A3.5355339059327378,3.5355339059327378,0,1,1,3.5355339059327378,0" fill="#36B7B4" stroke="#36B7B4" stroke-width="2" opacity="0.7"/><path aria-label="Value1: 8.803138; Value2: −3" role="graphics-symbol" aria-roledescription="point" transform="translate(259.69713538461536,141.05971339285713)" d="M3.5355339059327378,0A3.5355339059327378,3.5355339059327378,0,1,1,-3.5355339059327378,0A3.5355339059327378,3.5355339059327378,0,1,1,3.5355339059327378,0" fill="#36B7B4" stroke="#36B7B4" stroke-width="2" opacity="0.7"/><path aria-label="Value1: 55.53876; Value2: 5" role="graphics-symbol" aria-roledescription="point" transform="translate(331.5980923076923,119.62422321428573)" d="M3.5355339059327378,0A3.5355339059327378,3.5355339059327378,0,1,1,-3.5355339059327378,0A3.5355339059327378,3.5355339059327378,0,1,1,3.5355339059327378,0" fill="#36B7B4" stroke="#36B7B4" stroke-width="2" opacity="0.7"/><path aria-label="Value1: 19.10927; Value2: 16" role="graphics-symbol" aria-roledescription="point" transform="translate(275.5527230769231,89.98288392857144)" d="M3.5355339059327378,0A3.5355339059327378,3.5355339059327378,0,1,1,-3.5355339059327378,0A3.5355339059327378,3.5355339059327378,0,1,1,3.5355339059327378,0" fill="#36B7B4" stroke="#36B7B4" stroke-width="2" opacity="0.7"/><path aria-label="Value1: 19.46307; Value2: 12" role="graphics-symbol" aria-roledescription="point" transform="translate(276.09703076923074,102.06350892857145)" d="M3.5355339059327378,0A3.5355339059327378,3.5355339059327378,0,1,1,-3.5355339059327378,0A3.5355339059327378,3.5355339059327378,0,1,1,3.5355339059327378,0" fill="#36B7B4" stroke="#36B7B4" stroke-width="2" opacity="0.7"/><path aria-label="Value1: −93.8937; Value2: 36" role="graphics-symbol" aria-roledescription="point" transform="translate(101.702,36.77989285714286)" d="M3.5355339059327378,0A3.5355339059327378,3.5355339059327378,0,1,1,-3.5355339059327378,0A3.5355339059327378,3.5355339059327378,0,1,1,3.5355339059327378,0" fill="#36B7B4" stroke="#36B7B4" stroke-width="2" opacity="0.7"/><path aria-label="Value1: 1.19109; Value2: 26" role="graphics-symbol" aria-roledescription="point" transform="translate(247.9862923076923,65.11722321428569)" d="M3.5355339059327378,0A3.5355339059327378,3.5355339059327378,0,1,1,-3.5355339059327378,0A3.5355339059327378,3.5355339059327378,0,1,1,3.5355339059327378,0" fill="#36B7B4" stroke="#36B7B4" stroke-width="2" opacity="0.7"/><path aria-label="Value1: 12.74026; Value2: 5" role="graphics-symbol" aria-roledescription="point" transform="translate(265.75424615384617,120.42994821428572)" d="M3.5355339059327378,0A3.5355339059327378,3.5355339059327378,0,1,1,-3.5355339059327378,0A3.5355339059327378,3.5355339059327378,0,1,1,3.5355339059327378,0" fill="#36B7B4" stroke="#36B7B4" stroke-width="2" opacity="0.7"/></g><g class="mark-text role-mark layer_4_marks" clip-path="url(#clip5)" role="graphics-object" aria-roledescription="text mark container"><text aria-label="CountryCode: BRA; Value1: −42.29362; Value2: −12" role="graphics-symbol" aria-roledescription="text mark" text-anchor="middle" transform="translate(181.08673846153846,181.9191160714286)" font-family="Georgia" font-size="11px" fill="#676A86">BRA</text><text aria-label="CountryCode: CAN; Value1: 10.61223; Value2: −5" role="graphics-symbol" aria-roledescription="text mark" text-anchor="middle" transform="translate(262.48035384615383,162.34640357142857)" font-family="Georgia" font-size="11px" fill="#676A86">CAN</text><text aria-label="CountryCode: CHN; Value1: 13.19261; Value2: −23" role="graphics-symbol" aria-roledescription="text mark" text-anchor="middle" transform="translate(266.45016923076923,211.4085)" font-family="Georgia" font-size="11px" fill="#676A86">CHN</text><text aria-label="CountryCode: CYP; Value1: 72.07038; Value2: 6" role="graphics-symbol" aria-roledescription="text mark" text-anchor="middle" transform="translate(357.0313538461539,131.60229642857144)" font-family="Georgia" font-size="11px" fill="#676A86">CYP</text><text aria-label="CountryCode: DNK; Value1: 20.43183; Value2: 32" role="graphics-symbol" aria-roledescription="text mark" text-anchor="middle" transform="translate(277.58743076923076,61.954098214285686)" font-family="Georgia" font-size="11px" fill="#676A86">DNK</text><text aria-label="CountryCode: EUU; Value1: 14.61436; Value2: 12" role="graphics-symbol" aria-roledescription="text mark" text-anchor="middle" transform="translate(268.6374769230769,117.16218750000002)" font-family="Georgia" font-size="11px" fill="#676A86">EUU</text><text aria-label="CountryCode: FIN; Value1: 36.30734; Value2: 26" role="graphics-symbol" aria-roledescription="text mark" text-anchor="middle" transform="translate(302.0112923076923,79.58488392857141)" font-family="Georgia" font-size="11px" fill="#676A86">FIN</text><text aria-label="CountryCode: FRA; Value1: 24.66791; Value2: 15" role="graphics-symbol" aria-roledescription="text mark" text-anchor="middle" transform="translate(284.10447692307696,109.28022321428573)" font-family="Georgia" font-size="11px" fill="#676A86">FRA</text><text aria-label="CountryCode: DEU; Value1: −1.123553; Value2: 8" role="graphics-symbol" aria-roledescription="text mark" text-anchor="middle" transform="translate(244.4253030769231,128.01427232142856)" font-family="Georgia" font-size="11px" fill="#676A86">DEU</text><text aria-label="CountryCode: IND; Value1: 19.40171; Value2: −50" role="graphics-symbol" aria-roledescription="text mark" text-anchor="middle" transform="translate(276.0026307692308,282.2562857142857)" font-family="Georgia" font-size="11px" fill="#676A86">IND</text><text aria-label="CountryCode: IDN; Value1: −9.435458; Value2: −33" role="graphics-symbol" aria-roledescription="text mark" text-anchor="middle" transform="translate(231.6377569230769,238.09875)" font-family="Georgia" font-size="11px" fill="#676A86">IDN</text><text aria-label="CountryCode: IRL; Value1: 49.32294; Value2: 10" role="graphics-symbol" aria-roledescription="text mark" text-anchor="middle" transform="translate(322.0352923076923,122.54975089285713)" font-family="Georgia" font-size="11px" fill="#676A86">IRL</text><text aria-label="CountryCode: ITA; Value1: 26.66328; Value2: 19" role="graphics-symbol" aria-roledescription="text mark" text-anchor="middle" transform="translate(287.1742769230769,97.48690178571428)" font-family="Georgia" font-size="11px" fill="#676A86">ITA</text><text aria-label="CountryCode: JPN; Value1: −12.2727; Value2: 0" role="graphics-symbol" aria-roledescription="text mark" text-anchor="middle" transform="translate(227.27276923076926,149.18009169642855)" font-family="Georgia" font-size="11px" fill="#676A86">JPN</text><text aria-label="CountryCode: KOR; Value1: 11.80569; Value2: −16" role="graphics-symbol" aria-roledescription="text mark" text-anchor="middle" transform="translate(264.31644615384613,192.67856250000003)" font-family="Georgia" font-size="11px" fill="#676A86">KOR</text><text aria-label="CountryCode: LTU; Value1: −73.23586; Value2: −4" role="graphics-symbol" aria-roledescription="text mark" text-anchor="middle" transform="translate(133.48329230769232,160.47883125)" font-family="Georgia" font-size="11px" fill="#676A86">LTU</text><text aria-label="CountryCode: MLT; Value1: 40.28936; Value2: 43" role="graphics-symbol" aria-roledescription="text mark" text-anchor="middle" transform="translate(308.1374769230769,34.63687499999996)" font-family="Georgia" font-size="11px" fill="#676A86">MLT</text><text aria-label="CountryCode: MDA; Value1: −142.2344; Value2: −3" role="graphics-symbol" aria-roledescription="text mark" text-anchor="middle" transform="translate(27.331692307692318,157.1961080357143)" font-family="Georgia" font-size="11px" fill="#676A86">MDA</text><text aria-label="CountryCode: NZL; Value1: 29.09267; Value2: −7" role="graphics-symbol" aria-roledescription="text mark" text-anchor="middle" transform="translate(290.91179999999997,167.9926607142857)" font-family="Georgia" font-size="11px" fill="#676A86">NZL</text><text aria-label="CountryCode: PNG; Value1: 87.87717; Value2: −27" role="graphics-symbol" aria-roledescription="text mark" text-anchor="middle" transform="translate(381.34949230769234,222.25925892857143)" font-family="Georgia" font-size="11px" fill="#676A86">PNG</text><text aria-label="CountryCode: POL; Value1: 24.64013; Value2: −2" role="graphics-symbol" aria-roledescription="text mark" text-anchor="middle" transform="translate(284.0617384615385,153.39429910714287)" font-family="Georgia" font-size="11px" fill="#676A86">POL</text><text aria-label="CountryCode: ROU; Value1: −62.39122; Value2: 3" role="graphics-symbol" aria-roledescription="text mark" text-anchor="middle" transform="translate(150.16735384615384,141.11226428571428)" font-family="Georgia" font-size="11px" fill="#676A86">ROU</text><text aria-label="CountryCode: RUS; Value1: −33.37598; Value2: −5" role="graphics-symbol" aria-roledescription="text mark" text-anchor="middle" transform="translate(194.8061846153846,162.39359464285712)" font-family="Georgia" font-size="11px" fill="#676A86">RUS</text><text aria-label="CountryCode: SGP; Value1: −24.28276; Value2: −10" role="graphics-symbol" aria-roledescription="text mark" text-anchor="middle" transform="translate(208.79575384615384,174.72662946428574)" font-family="Georgia" font-size="11px" fill="#676A86">SGP</text><text aria-label="CountryCode: SVN; Value1: 68.2777; Value2: 13" role="graphics-symbol" aria-roledescription="text mark" text-anchor="middle" transform="translate(351.1964615384615,113.92108928571429)" font-family="Georgia" font-size="11px" fill="#676A86">SVN</text><text aria-label="CountryCode: UKR; Value1: −93.8937; Value2: 36" role="graphics-symbol" aria-roledescription="text mark" text-anchor="middle" transform="translate(101.702,51.77989285714286)" font-family="Georgia" font-size="11px" fill="#676A86">UKR</text><text aria-label="CountryCode: GBR; Value1: 1.19109; Value2: 26" role="graphics-symbol" aria-roledescription="text mark" text-anchor="middle" transform="translate(247.9862923076923,80.11722321428569)" font-family="Georgia" font-size="11px" fill="#676A86">GBR</text><text aria-label="CountryCode: USA; Value1: 12.74026; Value2: 5" role="graphics-symbol" aria-roledescription="text mark" text-anchor="middle" transform="translate(265.75424615384617,135.42994821428573)" font-family="Georgia" font-size="11px" fill="#676A86">USA</text></g><g class="mark-group role-title"><g transform="translate(0,-38)"><path class="background" aria-hidden="true" d="M0,0h0v0h0Z" pointer-events="none"/><g><g class="mark-text role-title-text" role="graphics-symbol" aria-roledescription="title" aria-label="Title text 'Planned and actual reductions in emissions'" pointer-events="none"><text text-anchor="start" transform="translate(5,4)" font-family="Georgia" font-size="14px" font-weight="bold" fill="#F4134D" opacity="1">Planned and actual reductions in emissions</text></g><g class="mark-text role-title-subtitle" role="graphics-symbol" aria-roledescription="subtitle" aria-label="Subtitle text 'Negative values represent an emissions increase! Source: Tenreyo and de Silva (2021)'" pointer-events="none"><text text-anchor="start" transform="translate(5,19)" font-family="Georgia" font-size="12px" font-style="italic" fill="#F4134D" opacity="1">Negative values represent an emissions increase! Source: Tenreyo and de Silva (2021)</text></g></g><path class="foreground" aria-hidden="true" d="" pointer-events="none" display="none"/></g></g></g><path class="foreground" aria-hidden="true" d="" display="none"/></g></g></g><defs><clipPath id="clip1"><rect x="0" y="0" width="400" height="300"/></clipPath><clipPath id="clip2"><rect x="0" y="0" width="400" height="300"/></clipPath><clipPath id="clip3"><rect x="0" y="0" width="400" height="300"/></clipPath><clipPath id="clip4"><rect x="0" y="0" width="400" height="300"/></clipPath><clipPath id="clip5"><rect x="0" y="0" width="400" height="300"/></clipPath></defs></svg>