<svg xmlns="http://www.w3.org/2000/svg" xmlns:xlink="http://www.w3.org/1999/xlink" version="1.1" class="marks" width="435" height="359" viewBox="0 0 435 359"><rect width="435" height="359" fill="white"/><g fill="none" stroke-miterlimit="10" transform="translate(6,37)"><g class="mark-group role-frame root" role="graphics-object" aria-roledescription="group mark container"><g transform="translate(0,0)"><path class="background" aria-hidden="true" d="M0,0h400v300h-400Z"/><g><g class="mark-group role-axis" aria-hidden="true"><g transform="translate(0.5,0.5)"><path class="background" aria-hidden="true" d="M0,0h0v0h0Z" pointer-events="none"/><g><g class="mark-rule role-axis-grid" pointer-events="none"><line transform="translate(0,300)" x2="400" y2="0" stroke="#676A86" stroke-opacity="0.1" stroke-width="1" opacity="1"/><line transform="translate(0,233)" x2="400" y2="0" stroke="#676A86" stroke-opacity="0.1" stroke-width="1" opacity="1"/><line transform="translate(0,167)" x2="400" y2="0" stroke="#676A86" stroke-opacity="0.1" stroke-width="1" opacity="1"/><line transform="translate(0,100)" x2="400" y2="0" stroke="#676A86" stroke-opacity="0.1" stroke-width="1" opacity="1"/><line transform="translate(0,33)" x2="400" y2="0" stroke="#676A86" stroke-opacity="0.1" stroke-width="1" opacity="1"/></g></g><path class="foreground" aria-hidden="true" d="" pointer-events="none" display="none"/></g></g><g class="mark-group role-axis" role="graphics-symbol" aria-roledescription="axis" aria-label="X-axis for a linear scale with values from 1990 to 2020"><g transform="translate(0.5,300.5)"><path class="background" aria-hidden="true" d="M0,0h0v0h0Z" pointer-events="none"/><g><g class="mark-rule role-axis-tick" pointer-events="none"><line transform="translate(0,0)" x2="0" y2="5" stroke="#676A86" stroke-width="1" opacity="1"/><line transform="translate(67,0)" x2="0" y2="5" stroke="#676A86" stroke-width="1" opacity="1"/><line transform="translate(133,0)" x2="0" y2="5" stroke="#676A86" stroke-width="1" opacity="1"/><line transform="translate(200,0)" x2="0" y2="5" stroke="#676A86" stroke-width="1" opacity="1"/><line transform="translate(267,0)" x2="0" y2="5" stroke="#676A86" stroke-width="1" opacity="1"/><line transform="translate(333,0)" x2="0" y2="5" stroke="#676A86" stroke-width="1" opacity="1"/><line transform="translate(400,0)" x2="0" y2="5" stroke="#676A86" stroke-width="1" opacity="1"/></g><g class="mark-text role-axis-label" pointer-events="none"><text text-anchor="start" transform="translate(0,15)" font-family="sans-serif" font-size="10px" fill="#676A86" opacity="1">1990</text><text text-anchor="middle" transform="translate(66.66666666666666,15)" font-family="sans-serif" font-size="10px" fill="#676A86" opacity="1">1995</text><text text-anchor="middle" transform="translate(133.33333333333331,15)" font-family="sans-serif" font-size="10px" fill="#676A86" opacity="1">2000</text><text text-anchor="middle" transform="translate(200,15)" font-family="sans-serif" font-size="10px" fill="#676A86" opacity="1">2005</text><text text-anchor="middle" transform="translate(266.66666666666663,15)" font-family="sans-serif" font-size="10px" fill="#676A86" opacity="1">2010</text><text text-anchor="middle" transform="translate(333.33333333333337,15)" font-family="sans-serif" font-size="10px" fill="#676A86" opacity="1">2015</text><text text-anchor="end" transform="translate(400,15)" font-family="sans-serif" font-size="10px" fill="#676A86" opacity="1">2020</text></g><g class="mark-rule role-axis-domain" pointer-events="none"><line transform="translate(0,0)" x2="400" y2="0" stroke="#676A86" stroke-width="1" opacity="1"/></g></g><path class="foreground" aria-hidden="true" d="" pointer-events="none" display="none"/></g></g><g class="mark-group role-axis" role="graphics-symbol" aria-roledescription="axis" aria-label="Y-axis titled 'Gt of ice' for a linear scale with values from 0 to 4500"><g transform="translate(0.5,0.5)"><path class="background" aria-hidden="true" d="M0,0h0v0h0Z" pointer-events="none"/><g><g class="mark-text role-axis-label" pointer-events="none"><text text-anchor="start" transform="translate(5,293)" font-family="sans-serif" font-size="10px" fill="#676A86" opacity="1">0</text><text text-anchor="start" transform="translate(5,226.33333333333334)" font-family="sans-serif" font-size="10px" fill="#676A86" opacity="1">1000</text><text text-anchor="start" transform="translate(5,159.66666666666669)" font-family="sans-serif" font-size="10px" fill="#676A86" opacity="1">2000</text><text text-anchor="start" transform="translate(5,93.00000000000001)" font-family="sans-serif" font-size="10px" fill="#676A86" opacity="1">3000</text><text text-anchor="start" transform="translate(5,26.33333333333335)" font-family="sans-serif" font-size="10px" fill="#676A86" opacity="1">4000</text></g><g class="mark-rule role-axis-domain" pointer-events="none"><line transform="translate(0,300)" x2="0" y2="-300" stroke="#676A86" stroke-width="1" opacity="1"/></g><g class="mark-text role-axis-title" pointer-events="none"><text text-anchor="start" transform="translate(30,26)" font-family="sans-serif" font-size="10px" font-weight="normal" fill="#676A86" opacity="1">Gt of ice</text></g></g><path class="foreground" aria-hidden="true" d="" pointer-events="none" display="none"/></g></g><g class="mark-area role-mark layer_0_marks" role="graphics-object" aria-roledescription="area mark container"><path aria-label="year: 1991; greenland1: 0; greenland2: 0" role="graphics-symbol" aria-roledescription="area mark" d="M13.333333333333334,300L26.666666666666668,300.108192589629L40,298.4896888572272L53.333333333333336,292.66805447419773L66.66666666666666,284.0427299063679L80,284.57868368983844L93.33333333333333,288.6011762133137L106.66666666666667,282.106782254245L120,276.22867100059926L133.33333333333331,273.69930745399233L146.66666666666666,270.4905139924239L160,263.65788499941266L173.33333333333334,252.59118516127168L186.66666666666666,241.84839426247044L200,229.2763309497881L213.33333333333334,215.28399125922112L226.66666666666666,199.57495245198146L240,184.04957531350215L253.33333333333331,168.2711139864212L266.66666666666663,149.5061402958969L280,128.0522720145731L293.3333333333333,105.14096918423694L306.6666666666667,87.04413392325279L320,73.24691428328704L333.33333333333337,60.727432737554246L346.6666666666667,44.09247824061217L360,32.548046423131204L360,55.206848553927514L346.6666666666667,66.31124300829852L333.33333333333337,82.55542649898044L320,94.62101613727296L306.6666666666667,107.98479287683791L293.3333333333333,125.60632879541106L280,147.9955834539509L266.66666666666663,169.09728808188842L253.33333333333331,187.52648731448812L240,202.9770928309672L226.66666666666666,218.06842207755324L213.33333333333334,233.2871992742922L200,246.76848956409123L186.66666666666666,258.80179807709555L173.33333333333334,269.0463661529412L160,279.13161730207065L146.66666666666666,284.99764360500154L133.33333333333331,287.22277480298817L120,288.71352624742684L106.66666666666667,293.42169209643436L93.33333333333333,298.57564463578615L80,293.1194659346984L66.66666666666666,290.8906683678679L53.333333333333336,298.2096288591316L40,302.5543278094357L26.666666666666668,301.6432129659264L13.333333333333334,300Z" fill="#36B7B4" opacity="0.5"/></g><g class="mark-area role-mark layer_1_marks" role="graphics-object" aria-roledescription="area mark container"><path aria-label="year: 1991; antarctica1: 0; antarctica2: 0" role="graphics-symbol" aria-roledescription="area mark" d="M26.666666666666668,300.0531819824345L40,297.6545213218261L53.333333333333336,292.39458093370155L66.66666666666666,282.8030290412565L80,279.3936671586874L93.33333333333333,276.6621830575928L106.66666666666667,273.75953948461546L120,271.6175534374258L133.33333333333331,265.76740263643626L146.66666666666666,263.3216906530329L160,261.4489464236814L173.33333333333334,258.6896599373124L186.66666666666666,251.50324339191772L200,245.46879730571925L213.33333333333334,243.7224831988482L226.66666666666666,236.81771562404884L240,222.47277609297578L253.33333333333331,214.36021277577035L266.66666666666663,207.97504808668714L280,192.06197628904505L293.3333333333333,181.69869049877906L306.6666666666667,167.18331878338782L320,148.79964168480123L333.33333333333337,130.91102042671037L346.6666666666667,113.44944907373635L360,108.78376072438375L360,146.32483556879225L346.6666666666667,150.59555582591966L333.33333333333337,167.11222578943898L320,184.1152408200641L306.6666666666667,201.69845391299748L293.3333333333333,215.10265002800892L280,224.47076720080028L266.66666666666663,239.14206549220614L253.33333333333331,244.6434545266017L240,251.71472263754276L226.66666666666666,265.0654381239552L213.33333333333334,270.87412220219966L200,271.3800768212317L186.66666666666666,275.86719457860625L173.33333333333334,281.48200460824205L160,282.58858670206155L146.66666666666666,283.5131187322482L133.33333333333331,284.836476781024L120,289.48300489082936L106.66666666666667,290.3315321220322L93.33333333333333,291.73661167336144L80,292.84265162380876L66.66666666666666,294.3885857313626L53.333333333333336,302.00267717089855L40,304.5294845910763L26.666666666666668,300.53459579534325Z" fill="#179FDB" opacity="0.5"/></g><g class="mark-line role-mark layer_2_marks" role="graphics-object" aria-roledescription="line mark container"><path aria-label="year: 1991; greenland: 0" role="graphics-symbol" aria-roledescription="line mark" d="M13.333333333333334,300L26.666666666666668,300.8757027777777L40,300.5220083333314L53.333333333333336,295.4388416666647L66.66666666666666,287.4666991371179L80,288.8490748122684L93.33333333333333,293.5884104245499L106.66666666666667,287.7642371753397L120,282.47109862401305L133.33333333333331,280.46104112849025L146.66666666666666,277.74407879871274L160,271.3947511507416L173.33333333333334,260.81877565710636L186.66666666666666,250.32509616978302L200,238.02241025693968L213.33333333333334,224.28559526675667L226.66666666666666,208.82168726476732L240,193.51333407223467L253.33333333333331,177.89880065045466L266.66666666666663,159.30171418889267L280,138.02392773426197L293.3333333333333,115.37364898982399L306.6666666666667,97.51446340004534L320,83.93396521028001L333.33333333333337,71.64142961826734L346.6666666666667,55.20186062445532L360,43.87744748852934" stroke="#36B7B4" stroke-width="2"/></g><g class="mark-line role-mark layer_3_marks" role="graphics-object" aria-roledescription="line mark container"><path aria-label="year: 1991; antarctica: 0" role="graphics-symbol" aria-roledescription="line mark" d="M26.666666666666668,300.2938888888889L40,301.09200295645115L53.333333333333336,297.1986290523L66.66666666666666,288.59580738630956L80,286.11815939124807L93.33333333333333,284.1993973654771L106.66666666666667,282.0455358033238L120,280.5502791641276L133.33333333333331,275.3019397087301L146.66666666666666,273.41740469264056L160,272.01876656287146L173.33333333333334,270.08583227277717L186.66666666666666,263.685218985262L200,258.42443706347547L213.33333333333334,257.29830270052395L226.66666666666666,250.94157687400198L240,237.09374936525927L253.33333333333331,229.501833651186L266.66666666666663,223.55855678944667L280,208.26637174492265L293.3333333333333,198.40067026339398L306.6666666666667,184.44088634819263L320,166.45744125243266L333.33333333333337,149.01162310807467L346.6666666666667,132.022502449828L360,127.55429814658802" stroke="#179FDB" stroke-width="2"/></g><g class="mark-text role-mark layer_4_marks" role="graphics-object" aria-roledescription="text mark container"><text aria-label="t: Greenland; x: 2017; y: 3800" role="graphics-symbol" aria-roledescription="text mark" text-anchor="start" transform="translate(365,49.666666666666664)" font-family="sans-serif" font-size="11px" fill="#36B7B4">Greenland</text></g><g class="mark-text role-mark layer_5_marks" role="graphics-object" aria-roledescription="text mark container"><text aria-label="t: Antarctica; x: 2017; y: 2600" role="graphics-symbol" aria-roledescription="text mark" text-anchor="start" transform="translate(365,129.66666666666669)" font-family="sans-serif" font-size="11px" fill="#179FDB">Antarctica</text></g><g class="mark-group role-title"><g transform="translate(-1,-31)"><path class="background" aria-hidden="true" d="M0,0h0v0h0Z" pointer-events="none"/><g><g class="mark-text role-title-text" role="graphics-symbol" aria-roledescription="title" aria-label="Title text 'Cumulative ice mass loss of ice sheets'" pointer-events="none"><text text-anchor="start" transform="translate(5,9)" font-family="sans-serif" font-size="12px" font-weight="bold" fill="#000" opacity="1">Cumulative ice mass loss of ice sheets</text></g><g class="mark-text role-title-subtitle" role="graphics-symbol" aria-roledescription="subtitle" aria-label="Subtitle text 'Source: IMBIE/EEA/ESA'" pointer-events="none"><text text-anchor="start" transform="translate(5,24)" font-family="sans-serif" font-size="11px" font-style="italic" fill="#000" opacity="1">Source: IMBIE/EEA/ESA</text></g></g><path class="foreground" aria-hidden="true" d="" pointer-events="none" display="none"/></g></g></g><path class="foreground" aria-hidden="true" d="" display="none"/></g></g></g></svg>