<svg xmlns="http://www.w3.org/2000/svg" xmlns:xlink="http://www.w3.org/1999/xlink" version="1.1" class="marks" width="411" height="360" viewBox="0 0 411 360"><rect width="411" height="360" fill="#122B39"/><g fill="none" stroke-miterlimit="10" transform="translate(5,37)"><g class="mark-group role-frame root" role="graphics-object" aria-roledescription="group mark container"><g transform="translate(0,0)"><path class="background" aria-hidden="true" d="M0,0h400v300h-400Z"/><g><g class="mark-group role-axis" aria-hidden="true"><g transform="translate(0.5,0.5)"><path class="background" aria-hidden="true" d="M0,0h0v0h0Z" pointer-events="none"/><g><g class="mark-rule role-axis-grid" pointer-events="none"><line transform="translate(0,300)" x2="400" y2="0" stroke="#676A86" stroke-opacity="0.1" stroke-width="1" opacity="1"/><line transform="translate(0,246)" x2="400" y2="0" stroke="#676A86" stroke-opacity="0.1" stroke-width="1" opacity="1"/><line transform="translate(0,193)" x2="400" y2="0" stroke="#676A86" stroke-opacity="0.1" stroke-width="1" opacity="1"/><line transform="translate(0,139)" x2="400" y2="0" stroke="#676A86" stroke-opacity="0.1" stroke-width="1" opacity="1"/><line transform="translate(0,86)" x2="400" y2="0" stroke="#676A86" stroke-opacity="0.1" stroke-width="1" opacity="1"/><line transform="translate(0,32)" x2="400" y2="0" stroke="#676A86" stroke-opacity="0.1" stroke-width="1" opacity="1"/></g></g><path class="foreground" aria-hidden="true" d="" pointer-events="none" display="none"/></g></g><g class="mark-group role-axis" role="graphics-symbol" aria-roledescription="axis" aria-label="X-axis for a linear scale with values from 1955 to 2020"><g transform="translate(0.5,300.5)"><path class="background" aria-hidden="true" d="M0,0h0v0h0Z" pointer-events="none"/><g><g class="mark-rule role-axis-tick" pointer-events="none"><line transform="translate(31,0)" x2="0" y2="5" stroke="#676A86" stroke-width="1" opacity="1"/><line transform="translate(92,0)" x2="0" y2="5" stroke="#676A86" stroke-width="1" opacity="1"/><line transform="translate(154,0)" x2="0" y2="5" stroke="#676A86" stroke-width="1" opacity="1"/><line transform="translate(215,0)" x2="0" y2="5" stroke="#676A86" stroke-width="1" opacity="1"/><line transform="translate(277,0)" x2="0" y2="5" stroke="#676A86" stroke-width="1" opacity="1"/><line transform="translate(338,0)" x2="0" y2="5" stroke="#676A86" stroke-width="1" opacity="1"/><line transform="translate(400,0)" x2="0" y2="5" stroke="#676A86" stroke-width="1" opacity="1"/></g><g class="mark-text role-axis-label" pointer-events="none"><text text-anchor="middle" transform="translate(30.76923076923077,16)" font-family="Georgia" font-size="12px" fill="#676A86" opacity="1">1960</text><text text-anchor="middle" transform="translate(92.3076923076923,16)" font-family="Georgia" font-size="12px" fill="#676A86" opacity="1">1970</text><text text-anchor="middle" transform="translate(153.84615384615387,16)" font-family="Georgia" font-size="12px" fill="#676A86" opacity="1">1980</text><text text-anchor="middle" transform="translate(215.3846153846154,16)" font-family="Georgia" font-size="12px" fill="#676A86" opacity="1">1990</text><text text-anchor="middle" transform="translate(276.9230769230769,16)" font-family="Georgia" font-size="12px" fill="#676A86" opacity="1">2000</text><text text-anchor="middle" transform="translate(338.46153846153845,16)" font-family="Georgia" font-size="12px" fill="#676A86" opacity="1">2010</text><text text-anchor="end" transform="translate(400,16)" font-family="Georgia" font-size="12px" fill="#676A86" opacity="1">2020</text></g><g class="mark-rule role-axis-domain" pointer-events="none"><line transform="translate(0,0)" x2="400" y2="0" stroke="#676A86" stroke-width="1" opacity="1"/></g></g><path class="foreground" aria-hidden="true" d="" pointer-events="none" display="none"/></g></g><g class="mark-group role-axis" role="graphics-symbol" aria-roledescription="axis" aria-label="Y-axis titled 'm of water equivalent' for a linear scale with values from 0 to 28"><g transform="translate(0.5,0.5)"><path class="background" aria-hidden="true" d="M0,0h0v0h0Z" pointer-events="none"/><g><g class="mark-text role-axis-label" pointer-events="none"><text text-anchor="start" transform="translate(5,294)" font-family="Georgia" font-size="12px" fill="#676A86" opacity="1">0</text><text text-anchor="start" transform="translate(5,240.42857142857142)" font-family="Georgia" font-size="12px" fill="#676A86" opacity="1">5</text><text text-anchor="start" transform="translate(5,186.85714285714283)" font-family="Georgia" font-size="12px" fill="#676A86" opacity="1">10</text><text text-anchor="start" transform="translate(5,133.28571428571428)" font-family="Georgia" font-size="12px" fill="#676A86" opacity="1">15</text><text text-anchor="start" transform="translate(5,79.71428571428571)" font-family="Georgia" font-size="12px" fill="#676A86" opacity="1">20</text><text text-anchor="start" transform="translate(5,26.14285714285713)" font-family="Georgia" font-size="12px" fill="#676A86" opacity="1">25</text></g><g class="mark-rule role-axis-domain" pointer-events="none"><line transform="translate(0,300)" x2="0" y2="-300" stroke="#676A86" stroke-width="1" opacity="1"/></g><g class="mark-text role-axis-title" pointer-events="none"><text text-anchor="start" transform="translate(23,26)" font-family="Georgia" font-size="12px" font-weight="normal" fill="#676A86" opacity="1">m of water equivalent</text></g></g><path class="foreground" aria-hidden="true" d="" pointer-events="none" display="none"/></g></g><g class="mark-area role-mark layer_0_marks" role="graphics-object" aria-roledescription="area mark container"><path aria-label="year: 1956; glaciers: 0" role="graphics-symbol" aria-roledescription="area mark" d="M6.153846153846154,300C8.205128205128206,299.7857142857143,10.256410256410257,299.57142857142856,12.307692307692308,298.7142857142857C14.35897435897436,297.8571428571429,16.410256410256412,291.8535714285714,18.461538461538463,289.54285714285714C20.512820512820515,287.2321428571429,22.564102564102566,286.62142857142857,24.615384615384617,284.85C26.666666666666668,283.0785714285715,28.71794871794872,280.60714285714283,30.76923076923077,278.9142857142857C32.820512820512825,277.22142857142853,34.871794871794876,275.7660714285714,36.92307692307693,274.6928571428571C38.97435897435898,273.6196428571428,41.02564102564103,273.4089285714286,43.07692307692308,272.475C45.12820512820513,271.54107142857146,47.17948717948718,269.0892857142857,49.23076923076923,269.0892857142857C51.282051282051285,269.0892857142857,53.333333333333336,271.8178571428572,55.38461538461539,272.7321428571429C57.43589743589744,273.6464285714286,59.48717948717949,274.575,61.53846153846154,274.575C63.58974358974359,274.575,65.64102564102564,272.89464285714286,67.6923076923077,272.37857142857143C69.74358974358975,271.8625,71.7948717948718,271.83214285714286,73.84615384615385,271.4785714285714C75.8974358974359,271.125,77.94871794871796,271.07142857142856,80,270.25714285714287C82.05128205128206,269.4428571428572,84.1025641025641,266.21607142857147,86.15384615384616,264.88928571428573C88.2051282051282,263.5625,90.25641025641026,263.15535714285716,92.3076923076923,262.2964285714286C94.35897435897436,261.4375,96.41025641025641,260.62321428571425,98.46153846153847,259.73571428571427C100.51282051282053,258.8482142857143,102.56410256410257,257.66607142857146,104.61538461538463,256.9714285714286C106.66666666666667,256.2767857142857,108.71794871794873,256.14464285714286,110.76923076923077,255.56785714285712C112.82051282051283,254.99107142857142,114.87179487179488,254.20178571428573,116.92307692307693,253.5107142857143C118.97435897435898,252.81964285714287,121.02564102564104,252.1589285714286,123.07692307692308,251.42142857142858C125.12820512820512,250.68392857142857,127.17948717948718,250.16785714285714,129.23076923076923,249.0857142857143C131.28205128205127,248.00357142857143,133.33333333333334,246.0357142857143,135.3846153846154,244.92857142857144C137.43589743589743,243.82142857142858,139.4871794871795,243.59464285714287,141.53846153846155,242.44285714285715C143.5897435897436,241.29107142857143,145.64102564102566,238.975,147.6923076923077,238.01785714285714C149.74358974358975,237.06071428571428,151.79487179487182,237.1625,153.84615384615387,236.58214285714286C155.8974358974359,236.00178571428572,157.94871794871796,235.69464285714284,160,234.53571428571428C162.05128205128204,233.37678571428572,164.10256410256412,229.62857142857143,166.15384615384616,229.62857142857143C168.2051282051282,229.62857142857143,170.25641025641028,231.02142857142854,172.30769230769232,231.02142857142854C174.35897435897436,231.02142857142854,176.41025641025644,228.95535714285714,178.46153846153848,227.93571428571428C180.51282051282053,226.91607142857143,182.56410256410257,226.4392857142857,184.6153846153846,224.9035714285714C186.66666666666666,223.36785714285713,188.71794871794873,218.7214285714286,190.76923076923077,218.7214285714286C192.82051282051282,218.7214285714286,194.8717948717949,219.91071428571428,196.92307692307693,219.91071428571428C198.97435897435898,219.91071428571428,201.02564102564102,219.6107142857143,203.07692307692307,219.0107142857143C205.12820512820514,218.4107142857143,207.17948717948718,216.94285714285715,209.23076923076925,215.44285714285715C211.2820512820513,213.94285714285715,213.33333333333334,211.68928571428572,215.3846153846154,210.0107142857143C217.43589743589743,208.33214285714288,219.4871794871795,206.1071428571429,221.53846153846155,205.3714285714286C223.5897435897436,204.6357142857143,225.64102564102564,205.00000000000003,227.69230769230768,204.26785714285717C229.74358974358975,203.5357142857143,231.7948717948718,202.73214285714286,233.84615384615387,200.97857142857143C235.8974358974359,199.225,237.94871794871796,195.78571428571428,240,193.74642857142857C242.05128205128204,191.70714285714286,244.10256410256412,190.35357142857143,246.15384615384616,188.74285714285713C248.2051282051282,187.13214285714284,250.25641025641025,186.27321428571426,252.3076923076923,184.08214285714283C254.35897435897434,181.8910714285714,256.4102564102564,177.94464285714284,258.46153846153845,175.59642857142856C260.5128205128205,173.24821428571428,262.56410256410254,172.225,264.6153846153846,169.99285714285713C266.66666666666663,167.76071428571427,268.71794871794873,163.82499999999996,270.7692307692308,162.2035714285714C272.8205128205128,160.58214285714286,274.87179487179486,160.5857142857143,276.9230769230769,159.77142857142857C278.97435897435895,158.95714285714286,281.02564102564105,158.50892857142856,283.0769230769231,157.31785714285712C285.12820512820514,156.1267857142857,287.1794871794872,154.4267857142857,289.2307692307692,152.625C291.28205128205127,150.82321428571427,293.33333333333337,148.7625,295.3846153846154,146.50714285714284C297.43589743589746,144.2517857142857,299.4871794871795,141.64999999999998,301.53846153846155,139.09285714285713C303.5897435897436,136.53571428571428,305.6410256410257,133.97321428571433,307.69230769230774,131.16428571428574C309.7435897435898,128.35535714285717,311.7948717948718,124.81785714285715,313.84615384615387,122.23928571428571C315.8974358974359,119.66071428571428,317.94871794871796,117.52857142857141,320,115.69285714285712C322.05128205128204,113.85714285714283,324.1025641025641,112.9517857142857,326.15384615384613,111.22500000000001C328.2051282051282,109.4982142857143,330.2564102564103,107.81785714285715,332.3076923076923,105.33214285714286C334.35897435897436,102.84642857142858,336.4102564102564,99.4375,338.46153846153845,96.3107142857143C340.5128205128205,93.18392857142857,342.5641025641026,89.51071428571427,344.61538461538464,86.57142857142854C346.6666666666667,83.63214285714284,348.71794871794873,81.49999999999997,350.7692307692308,78.675C352.8205128205128,75.85,354.8717948717949,72.52857142857145,356.92307692307696,69.62142857142858C358.974358974359,66.71428571428574,361.02564102564105,64.625,363.0769230769231,61.23214285714285C365.12820512820514,57.8392857142857,367.1794871794872,53.01071428571426,369.2307692307692,49.26428571428569C371.28205128205127,45.517857142857125,373.3333333333333,41.878571428571426,375.38461538461536,38.75357142857144C377.4358974358974,35.628571428571426,379.4871794871795,33.47857142857143,381.53846153846155,30.514285714285695C383.5897435897436,27.549999999999994,385.64102564102564,24.578571428571422,387.6923076923077,20.96785714285716C389.7435897435897,17.35714285714286,391.7948717948718,13.103571428571428,393.84615384615387,8.84999999999999L393.84615384615387,300C391.7948717948718,300,389.7435897435897,300,387.6923076923077,300C385.64102564102564,300,383.5897435897436,300,381.53846153846155,300C379.4871794871795,300,377.4358974358974,300,375.38461538461536,300C373.3333333333333,300,371.28205128205127,300,369.2307692307692,300C367.1794871794872,300,365.12820512820514,300,363.0769230769231,300C361.02564102564105,300,358.974358974359,300,356.92307692307696,300C354.8717948717949,300,352.8205128205128,300,350.7692307692308,300C348.71794871794873,300,346.6666666666667,300,344.61538461538464,300C342.5641025641026,300,340.5128205128205,300,338.46153846153845,300C336.4102564102564,300,334.35897435897436,300,332.3076923076923,300C330.2564102564103,300,328.2051282051282,300,326.15384615384613,300C324.1025641025641,300,322.05128205128204,300,320,300C317.94871794871796,300,315.8974358974359,300,313.84615384615387,300C311.7948717948718,300,309.7435897435898,300,307.69230769230774,300C305.6410256410257,300,303.5897435897436,300,301.53846153846155,300C299.4871794871795,300,297.43589743589746,300,295.3846153846154,300C293.33333333333337,300,291.28205128205127,300,289.2307692307692,300C287.1794871794872,300,285.12820512820514,300,283.0769230769231,300C281.02564102564105,300,278.97435897435895,300,276.9230769230769,300C274.87179487179486,300,272.8205128205128,300,270.7692307692308,300C268.71794871794873,300,266.66666666666663,300,264.6153846153846,300C262.56410256410254,300,260.5128205128205,300,258.46153846153845,300C256.4102564102564,300,254.35897435897434,300,252.3076923076923,300C250.25641025641025,300,248.2051282051282,300,246.15384615384616,300C244.10256410256412,300,242.05128205128204,300,240,300C237.94871794871796,300,235.8974358974359,300,233.84615384615387,300C231.7948717948718,300,229.74358974358975,300,227.69230769230768,300C225.64102564102564,300,223.5897435897436,300,221.53846153846155,300C219.4871794871795,300,217.43589743589743,300,215.3846153846154,300C213.33333333333334,300,211.2820512820513,300,209.23076923076925,300C207.17948717948718,300,205.12820512820514,300,203.07692307692307,300C201.02564102564102,300,198.97435897435898,300,196.92307692307693,300C194.8717948717949,300,192.82051282051282,300,190.76923076923077,300C188.71794871794873,300,186.66666666666666,300,184.6153846153846,300C182.56410256410257,300,180.51282051282053,300,178.46153846153848,300C176.41025641025644,300,174.35897435897436,300,172.30769230769232,300C170.25641025641028,300,168.2051282051282,300,166.15384615384616,300C164.10256410256412,300,162.05128205128204,300,160,300C157.94871794871796,300,155.8974358974359,300,153.84615384615387,300C151.79487179487182,300,149.74358974358975,300,147.6923076923077,300C145.64102564102566,300,143.5897435897436,300,141.53846153846155,300C139.4871794871795,300,137.43589743589743,300,135.3846153846154,300C133.33333333333334,300,131.28205128205127,300,129.23076923076923,300C127.17948717948718,300,125.12820512820512,300,123.07692307692308,300C121.02564102564104,300,118.97435897435898,300,116.92307692307693,300C114.87179487179488,300,112.82051282051283,300,110.76923076923077,300C108.71794871794873,300,106.66666666666667,300,104.61538461538463,300C102.56410256410257,300,100.51282051282053,300,98.46153846153847,300C96.41025641025641,300,94.35897435897436,300,92.3076923076923,300C90.25641025641026,300,88.2051282051282,300,86.15384615384616,300C84.1025641025641,300,82.05128205128206,300,80,300C77.94871794871796,300,75.8974358974359,300,73.84615384615385,300C71.7948717948718,300,69.74358974358975,300,67.6923076923077,300C65.64102564102564,300,63.58974358974359,300,61.53846153846154,300C59.48717948717949,300,57.43589743589744,300,55.38461538461539,300C53.333333333333336,300,51.282051282051285,300,49.23076923076923,300C47.17948717948718,300,45.12820512820513,300,43.07692307692308,300C41.02564102564103,300,38.97435897435898,300,36.92307692307693,300C34.871794871794876,300,32.820512820512825,300,30.76923076923077,300C28.71794871794872,300,26.666666666666668,300,24.615384615384617,300C22.564102564102566,300,20.512820512820515,300,18.461538461538463,300C16.410256410256412,300,14.35897435897436,300,12.307692307692308,300C10.256410256410257,300,8.205128205128206,300,6.153846153846154,300Z" fill="url(#gradient_0)" fill-opacity="0.7"/></g><g class="mark-line role-mark layer_1_marks" role="graphics-object" aria-roledescription="line mark container"><path aria-label="year: 1956; glaciers: 0" role="graphics-symbol" aria-roledescription="line mark" d="M6.153846153846154,300C8.205128205128206,299.7857142857143,10.256410256410257,299.57142857142856,12.307692307692308,298.7142857142857C14.35897435897436,297.8571428571429,16.410256410256412,291.8535714285714,18.461538461538463,289.54285714285714C20.512820512820515,287.2321428571429,22.564102564102566,286.62142857142857,24.615384615384617,284.85C26.666666666666668,283.0785714285715,28.71794871794872,280.60714285714283,30.76923076923077,278.9142857142857C32.820512820512825,277.22142857142853,34.871794871794876,275.7660714285714,36.92307692307693,274.6928571428571C38.97435897435898,273.6196428571428,41.02564102564103,273.4089285714286,43.07692307692308,272.475C45.12820512820513,271.54107142857146,47.17948717948718,269.0892857142857,49.23076923076923,269.0892857142857C51.282051282051285,269.0892857142857,53.333333333333336,271.8178571428572,55.38461538461539,272.7321428571429C57.43589743589744,273.6464285714286,59.48717948717949,274.575,61.53846153846154,274.575C63.58974358974359,274.575,65.64102564102564,272.89464285714286,67.6923076923077,272.37857142857143C69.74358974358975,271.8625,71.7948717948718,271.83214285714286,73.84615384615385,271.4785714285714C75.8974358974359,271.125,77.94871794871796,271.07142857142856,80,270.25714285714287C82.05128205128206,269.4428571428572,84.1025641025641,266.21607142857147,86.15384615384616,264.88928571428573C88.2051282051282,263.5625,90.25641025641026,263.15535714285716,92.3076923076923,262.2964285714286C94.35897435897436,261.4375,96.41025641025641,260.62321428571425,98.46153846153847,259.73571428571427C100.51282051282053,258.8482142857143,102.56410256410257,257.66607142857146,104.61538461538463,256.9714285714286C106.66666666666667,256.2767857142857,108.71794871794873,256.14464285714286,110.76923076923077,255.56785714285712C112.82051282051283,254.99107142857142,114.87179487179488,254.20178571428573,116.92307692307693,253.5107142857143C118.97435897435898,252.81964285714287,121.02564102564104,252.1589285714286,123.07692307692308,251.42142857142858C125.12820512820512,250.68392857142857,127.17948717948718,250.16785714285714,129.23076923076923,249.0857142857143C131.28205128205127,248.00357142857143,133.33333333333334,246.0357142857143,135.3846153846154,244.92857142857144C137.43589743589743,243.82142857142858,139.4871794871795,243.59464285714287,141.53846153846155,242.44285714285715C143.5897435897436,241.29107142857143,145.64102564102566,238.975,147.6923076923077,238.01785714285714C149.74358974358975,237.06071428571428,151.79487179487182,237.1625,153.84615384615387,236.58214285714286C155.8974358974359,236.00178571428572,157.94871794871796,235.69464285714284,160,234.53571428571428C162.05128205128204,233.37678571428572,164.10256410256412,229.62857142857143,166.15384615384616,229.62857142857143C168.2051282051282,229.62857142857143,170.25641025641028,231.02142857142854,172.30769230769232,231.02142857142854C174.35897435897436,231.02142857142854,176.41025641025644,228.95535714285714,178.46153846153848,227.93571428571428C180.51282051282053,226.91607142857143,182.56410256410257,226.4392857142857,184.6153846153846,224.9035714285714C186.66666666666666,223.36785714285713,188.71794871794873,218.7214285714286,190.76923076923077,218.7214285714286C192.82051282051282,218.7214285714286,194.8717948717949,219.91071428571428,196.92307692307693,219.91071428571428C198.97435897435898,219.91071428571428,201.02564102564102,219.6107142857143,203.07692307692307,219.0107142857143C205.12820512820514,218.4107142857143,207.17948717948718,216.94285714285715,209.23076923076925,215.44285714285715C211.2820512820513,213.94285714285715,213.33333333333334,211.68928571428572,215.3846153846154,210.0107142857143C217.43589743589743,208.33214285714288,219.4871794871795,206.1071428571429,221.53846153846155,205.3714285714286C223.5897435897436,204.6357142857143,225.64102564102564,205.00000000000003,227.69230769230768,204.26785714285717C229.74358974358975,203.5357142857143,231.7948717948718,202.73214285714286,233.84615384615387,200.97857142857143C235.8974358974359,199.225,237.94871794871796,195.78571428571428,240,193.74642857142857C242.05128205128204,191.70714285714286,244.10256410256412,190.35357142857143,246.15384615384616,188.74285714285713C248.2051282051282,187.13214285714284,250.25641025641025,186.27321428571426,252.3076923076923,184.08214285714283C254.35897435897434,181.8910714285714,256.4102564102564,177.94464285714284,258.46153846153845,175.59642857142856C260.5128205128205,173.24821428571428,262.56410256410254,172.225,264.6153846153846,169.99285714285713C266.66666666666663,167.76071428571427,268.71794871794873,163.82499999999996,270.7692307692308,162.2035714285714C272.8205128205128,160.58214285714286,274.87179487179486,160.5857142857143,276.9230769230769,159.77142857142857C278.97435897435895,158.95714285714286,281.02564102564105,158.50892857142856,283.0769230769231,157.31785714285712C285.12820512820514,156.1267857142857,287.1794871794872,154.4267857142857,289.2307692307692,152.625C291.28205128205127,150.82321428571427,293.33333333333337,148.7625,295.3846153846154,146.50714285714284C297.43589743589746,144.2517857142857,299.4871794871795,141.64999999999998,301.53846153846155,139.09285714285713C303.5897435897436,136.53571428571428,305.6410256410257,133.97321428571433,307.69230769230774,131.16428571428574C309.7435897435898,128.35535714285717,311.7948717948718,124.81785714285715,313.84615384615387,122.23928571428571C315.8974358974359,119.66071428571428,317.94871794871796,117.52857142857141,320,115.69285714285712C322.05128205128204,113.85714285714283,324.1025641025641,112.9517857142857,326.15384615384613,111.22500000000001C328.2051282051282,109.4982142857143,330.2564102564103,107.81785714285715,332.3076923076923,105.33214285714286C334.35897435897436,102.84642857142858,336.4102564102564,99.4375,338.46153846153845,96.3107142857143C340.5128205128205,93.18392857142857,342.5641025641026,89.51071428571427,344.61538461538464,86.57142857142854C346.6666666666667,83.63214285714284,348.71794871794873,81.49999999999997,350.7692307692308,78.675C352.8205128205128,75.85,354.8717948717949,72.52857142857145,356.92307692307696,69.62142857142858C358.974358974359,66.71428571428574,361.02564102564105,64.625,363.0769230769231,61.23214285714285C365.12820512820514,57.8392857142857,367.1794871794872,53.01071428571426,369.2307692307692,49.26428571428569C371.28205128205127,45.517857142857125,373.3333333333333,41.878571428571426,375.38461538461536,38.75357142857144C377.4358974358974,35.628571428571426,379.4871794871795,33.47857142857143,381.53846153846155,30.514285714285695C383.5897435897436,27.549999999999994,385.64102564102564,24.578571428571422,387.6923076923077,20.96785714285716C389.7435897435897,17.35714285714286,391.7948717948718,13.103571428571428,393.84615384615387,8.84999999999999" stroke="#179FDB" stroke-width="2"/></g><g class="mark-group role-title"><g transform="translate(0,-32)"><path class="background" aria-hidden="true" d="M0,0h0v0h0Z" pointer-events="none"/><g><g class="mark-text role-title-text" role="graphics-symbol" aria-roledescription="title" aria-label="Title text 'Cumulative mass loss of glaciers worldwide'" pointer-events="none"><text text-anchor="start" transform="translate(5,11)" font-family="Georgia" font-size="14px" font-weight="bold" fill="#F4134D" opacity="1">Cumulative mass loss of glaciers worldwide</text></g><g class="mark-text role-title-subtitle" role="graphics-symbol" aria-roledescription="subtitle" aria-label="Subtitle text 'Source: EPA, based on WGMS'" pointer-events="none"><text text-anchor="start" transform="translate(5,26)" font-family="Georgia" font-size="12px" font-style="italic" fill="#F4134D" opacity="1">Source: EPA, based on WGMS</text></g></g><path class="foreground" aria-hidden="true" d="" pointer-events="none" display="none"/></g></g></g><path class="foreground" aria-hidden="true" d="" display="none"/></g></g></g><defs><linearGradient id="gradient_0" x1="0.8" x2="1" y1="1" y2="0"><stop offset="0" stop-color="#122B39"/><stop offset="0.7" stop-color="#179FDB"/></linearGradient></defs></svg>