<svg xmlns="http://www.w3.org/2000/svg" xmlns:xlink="http://www.w3.org/1999/xlink" version="1.1" class="marks" width="452" height="359" viewBox="0 0 452 359"><rect width="452" height="359" fill="white"/><g fill="none" stroke-miterlimit="10" transform="translate(6,37)"><g class="mark-group role-frame root" role="graphics-object" aria-roledescription="group mark container"><g transform="translate(0,0)"><path class="background" aria-hidden="true" d="M0,0h400v300h-400Z"/><g><g class="mark-group role-axis" aria-hidden="true"><g transform="translate(0.5,0.5)"><path class="background" aria-hidden="true" d="M0,0h0v0h0Z" pointer-events="none"/><g><g class="mark-rule role-axis-grid" pointer-events="none"><line transform="translate(0,270)" x2="400" y2="0" stroke="#ddd" stroke-width="1" opacity="1"/><line transform="translate(0,195)" x2="400" y2="0" stroke="#ddd" stroke-width="1" opacity="1"/><line transform="translate(0,120)" x2="400" y2="0" stroke="#ddd" stroke-width="1" opacity="1"/><line transform="translate(0,45)" x2="400" y2="0" stroke="#ddd" stroke-width="1" opacity="1"/></g></g><path class="foreground" aria-hidden="true" d="" pointer-events="none" display="none"/></g></g><g class="mark-group role-axis" role="graphics-symbol" aria-roledescription="axis" aria-label="X-axis titled 'maximum temperature (°F)' for a discrete scale with 15 values: &lt;30, 31-35, 36-40, 41-45, 46-50, ending with &gt;100"><g transform="translate(0.5,300.5)"><path class="background" aria-hidden="true" d="M0,0h0v0h0Z" pointer-events="none"/><g><g class="mark-rule role-axis-tick" pointer-events="none"><line transform="translate(13,0)" x2="0" y2="5" stroke="#676A86" stroke-width="1" opacity="1"/><line transform="translate(40,0)" x2="0" y2="5" stroke="#676A86" stroke-width="1" opacity="1"/><line transform="translate(67,0)" x2="0" y2="5" stroke="#676A86" stroke-width="1" opacity="1"/><line transform="translate(93,0)" x2="0" y2="5" stroke="#676A86" stroke-width="1" opacity="1"/><line transform="translate(120,0)" x2="0" y2="5" stroke="#676A86" stroke-width="1" opacity="1"/><line transform="translate(147,0)" x2="0" y2="5" stroke="#676A86" stroke-width="1" opacity="1"/><line transform="translate(173,0)" x2="0" y2="5" stroke="#676A86" stroke-width="1" opacity="1"/><line transform="translate(200,0)" x2="0" y2="5" stroke="#676A86" stroke-width="1" opacity="1"/><line transform="translate(227,0)" x2="0" y2="5" stroke="#676A86" stroke-width="1" opacity="1"/><line transform="translate(253,0)" x2="0" y2="5" stroke="#676A86" stroke-width="1" opacity="1"/><line transform="translate(280,0)" x2="0" y2="5" stroke="#676A86" stroke-width="1" opacity="1"/><line transform="translate(307,0)" x2="0" y2="5" stroke="#676A86" stroke-width="1" opacity="1"/><line transform="translate(333,0)" x2="0" y2="5" stroke="#676A86" stroke-width="1" opacity="1"/><line transform="translate(360,0)" x2="0" y2="5" stroke="#676A86" stroke-width="1" opacity="1"/><line transform="translate(387,0)" x2="0" y2="5" stroke="#676A86" stroke-width="1" opacity="1"/></g><g class="mark-text role-axis-label" pointer-events="none"><text text-anchor="middle" transform="translate(13.333333333333314,15)" font-family="sans-serif" font-size="10px" fill="#676A86" opacity="1">&lt;30</text><text text-anchor="middle" transform="translate(39.999999999999986,15)" font-family="sans-serif" font-size="10px" fill="#676A86" opacity="1">31-35</text><text text-anchor="middle" transform="translate(66.66666666666666,15)" font-family="sans-serif" font-size="10px" fill="#676A86" opacity="1">36-40</text><text text-anchor="middle" transform="translate(93.33333333333331,15)" font-family="sans-serif" font-size="10px" fill="#676A86" opacity="1">41-45</text><text text-anchor="middle" transform="translate(119.99999999999999,15)" font-family="sans-serif" font-size="10px" fill="#676A86" opacity="1">46-50</text><text text-anchor="middle" transform="translate(146.66666666666666,15)" font-family="sans-serif" font-size="10px" fill="#676A86" opacity="1">51-55</text><text text-anchor="middle" transform="translate(173.33333333333331,15)" font-family="sans-serif" font-size="10px" fill="#676A86" opacity="1">56-60</text><text text-anchor="middle" transform="translate(200,15)" font-family="sans-serif" font-size="10px" fill="#676A86" opacity="1">61-65</text><text text-anchor="middle" transform="translate(226.66666666666666,15)" font-family="sans-serif" font-size="10px" fill="#676A86" opacity="1">66-70</text><text text-anchor="middle" transform="translate(253.33333333333331,15)" font-family="sans-serif" font-size="10px" fill="#676A86" opacity="1">71-75</text><text text-anchor="middle" transform="translate(280,15)" font-family="sans-serif" font-size="10px" fill="#676A86" opacity="1">81-85</text><text text-anchor="middle" transform="translate(306.6666666666667,15)" font-family="sans-serif" font-size="10px" fill="#676A86" opacity="1">86-90</text><text text-anchor="middle" transform="translate(333.3333333333333,15)" font-family="sans-serif" font-size="10px" fill="#676A86" opacity="1">91-95</text><text text-anchor="middle" transform="translate(360,15)" font-family="sans-serif" font-size="10px" fill="#676A86" opacity="1">96-100</text><text text-anchor="middle" transform="translate(386.6666666666667,15)" font-family="sans-serif" font-size="10px" fill="#676A86" opacity="1">&gt;100</text></g><g class="mark-rule role-axis-domain" pointer-events="none"><line transform="translate(0,0)" x2="400" y2="0" stroke="#676A86" stroke-width="1" opacity="1"/></g><g class="mark-text role-axis-title" pointer-events="none"><text text-anchor="end" transform="translate(400,-7)" font-family="sans-serif" font-size="10px" font-weight="normal" fill="#676A86" opacity="1">maximum temperature (°F)</text></g></g><path class="foreground" aria-hidden="true" d="" pointer-events="none" display="none"/></g></g><g class="mark-group role-axis" role="graphics-symbol" aria-roledescription="axis" aria-label="Y-axis titled 'minutes' for a linear scale with values from −120 to 80"><g transform="translate(0.5,0.5)"><path class="background" aria-hidden="true" d="M0,0h0v0h0Z" pointer-events="none"/><g><g class="mark-text role-axis-label" pointer-events="none"><text text-anchor="start" transform="translate(5,263)" font-family="sans-serif" font-size="10px" fill="#676A86" opacity="1">−100</text><text text-anchor="start" transform="translate(5,188)" font-family="sans-serif" font-size="10px" fill="#676A86" opacity="1">−50</text><text text-anchor="start" transform="translate(5,113)" font-family="sans-serif" font-size="10px" fill="#676A86" opacity="1">0</text><text text-anchor="start" transform="translate(5,38.00000000000001)" font-family="sans-serif" font-size="10px" fill="#676A86" opacity="1">50</text></g><g class="mark-rule role-axis-domain" pointer-events="none"><line transform="translate(0,300)" x2="0" y2="-300" stroke="#676A86" stroke-width="1" opacity="1"/></g><g class="mark-text role-axis-title" pointer-events="none"><text text-anchor="start" transform="translate(20,38)" font-family="sans-serif" font-size="10px" font-weight="normal" fill="#676A86" opacity="1">minutes</text></g></g><path class="foreground" aria-hidden="true" d="" pointer-events="none" display="none"/></g></g><g class="mark-line role-mark layer_0_marks" role="graphics-object" aria-roledescription="line mark container"><path aria-label="temp: &lt;30; y: 0" role="graphics-symbol" aria-roledescription="line mark" d="M13.333333333333314,120L13.333333333333314,120L13.333333333333314,120L13.333333333333314,120L13.333333333333314,120L13.333333333333314,120L13.333333333333314,120L39.999999999999986,120L39.999999999999986,120L39.999999999999986,120L39.999999999999986,120L39.999999999999986,120L39.999999999999986,120L39.999999999999986,120L66.66666666666666,120L66.66666666666666,120L66.66666666666666,120L66.66666666666666,120L66.66666666666666,120L66.66666666666666,120L66.66666666666666,120L93.33333333333331,120L93.33333333333331,120L93.33333333333331,120L93.33333333333331,120L93.33333333333331,120L93.33333333333331,120L93.33333333333331,120L119.99999999999999,120L119.99999999999999,120L119.99999999999999,120L119.99999999999999,120L119.99999999999999,120L119.99999999999999,120L119.99999999999999,120L146.66666666666666,120L146.66666666666666,120L146.66666666666666,120L146.66666666666666,120L146.66666666666666,120L146.66666666666666,120L146.66666666666666,120L173.33333333333331,120L173.33333333333331,120L173.33333333333331,120L173.33333333333331,120L173.33333333333331,120L173.33333333333331,120L173.33333333333331,120L200,120L200,120L200,120L200,120L200,120L200,120L200,120L226.66666666666666,120L226.66666666666666,120L226.66666666666666,120L226.66666666666666,120L226.66666666666666,120L226.66666666666666,120L226.66666666666666,120L253.33333333333331,120L253.33333333333331,120L253.33333333333331,120L253.33333333333331,120L253.33333333333331,120L253.33333333333331,120L253.33333333333331,120L280,120L280,120L280,120L280,120L280,120L280,120L280,120L306.6666666666667,120L306.6666666666667,120L306.6666666666667,120L306.6666666666667,120L306.6666666666667,120L306.6666666666667,120L306.6666666666667,120L333.3333333333333,120L333.3333333333333,120L333.3333333333333,120L333.3333333333333,120L333.3333333333333,120L333.3333333333333,120L333.3333333333333,120L360,120L360,120L360,120L360,120L360,120L360,120L360,120L386.6666666666667,120L386.6666666666667,120L386.6666666666667,120L386.6666666666667,120L386.6666666666667,120L386.6666666666667,120L386.6666666666667,120" stroke="#676A86" stroke-width="2" stroke-dasharray="5,5" opacity="0.5"/></g><g class="mark-area role-mark layer_1_marks" role="graphics-object" aria-roledescription="area mark container"><path aria-label="temp: &lt;30; a1: −32.212; a2: 34.86" role="graphics-symbol" aria-roledescription="area mark" d="M13.333333333333314,168.318L17.77777777777776,168.2115C22.222222222222204,168.105,31.111111111111097,167.89199999999997,39.999999999999986,169.03224999999998C48.88888888888888,170.17249999999999,57.77777777777777,172.66599999999997,66.66666666666666,171.52549999999997C75.55555555555554,170.385,84.44444444444443,165.61049999999997,93.33333333333331,161.987C102.22222222222221,158.36350000000002,111.11111111111109,155.891,119.99999999999999,153.62400000000002C128.88888888888889,151.357,137.77777777777777,149.29550000000003,146.66666666666666,149.07250000000002C155.55555555555554,148.8495,164.44444444444443,150.465,173.33333333333334,150.24025000000003C182.2222222222222,150.0155,191.1111111111111,147.95050000000003,200,148.29375000000002C208.88888888888889,148.63700000000003,217.77777777777774,151.38850000000002,226.66666666666663,150.99800000000002C235.55555555555554,150.6075,244.44444444444443,147.07500000000002,253.33333333333334,146.86225C262.22222222222223,146.6495,271.1111111111111,149.7565,280,149.90824999999998C288.8888888888889,150.05999999999997,297.77777777777777,147.2565,306.6666666666667,146.007C315.5555555555556,144.7575,324.4444444444444,145.06199999999998,333.3333333333333,149.84949999999998C342.2222222222222,154.63699999999997,351.1111111111111,163.9075,360,171.4845C368.8888888888889,179.0615,377.7777777777778,184.94500000000002,382.22222222222223,187.88675L386.6666666666667,190.8285L386.6666666666667,94.0245L382.22222222222223,95.11874999999999C377.7777777777778,96.21300000000001,368.8888888888889,98.40150000000001,360,98.8195C351.1111111111111,99.2375,342.2222222222222,97.88499999999999,333.3333333333333,98.72649999999999C324.4444444444444,99.56799999999998,315.5555555555556,102.60349999999998,306.6666666666667,106.06799999999998C297.77777777777777,109.53249999999998,288.8888888888889,113.426,280,113.41025C271.1111111111111,113.3945,262.22222222222223,109.4695,253.33333333333334,108.89524999999999C244.44444444444443,108.32100000000001,235.55555555555554,111.09750000000001,226.66666666666666,110.11800000000001C217.77777777777774,109.13850000000001,208.88888888888889,104.403,200,102.23575C191.1111111111111,100.06850000000001,182.2222222222222,100.46950000000002,173.33333333333334,98.66425000000002C164.44444444444443,96.859,155.55555555555554,92.84750000000001,146.66666666666666,91.09249999999999C137.77777777777777,89.33749999999999,128.88888888888889,89.839,120,90.41799999999999C111.11111111111109,90.997,102.22222222222221,91.6535,93.33333333333331,93.199C84.44444444444443,94.74449999999997,75.55555555555554,97.17899999999997,66.66666666666666,95.59449999999998C57.77777777777777,94.00999999999999,48.88888888888888,88.4065,39.999999999999986,83.08924999999999C31.111111111111097,77.77199999999999,22.222222222222204,72.74099999999997,17.77777777777776,70.22549999999997L13.333333333333314,67.70999999999997Z" fill="#0063AF" opacity="0.2"/></g><g class="mark-area role-mark layer_2_marks" role="graphics-object" aria-roledescription="area mark container"><path aria-label="temp: &lt;30; a1: −42.859; a2: −18.131" role="graphics-symbol" aria-roledescription="area mark" d="M13.333333333333314,184.2885L17.77777777777776,184.42725C22.222222222222204,184.566,31.111111111111097,184.84350000000003,39.999999999999986,183.36749999999998C48.88888888888888,181.89150000000004,57.77777777777777,178.662,66.66666666666666,175.453C75.55555555555554,172.244,84.44444444444443,169.0555,93.33333333333331,168.09025C102.22222222222221,167.12499999999997,111.11111111111109,168.38299999999995,119.99999999999999,167.64024999999995C128.88888888888889,166.89749999999998,137.77777777777777,164.154,146.66666666666666,161.243C155.55555555555554,158.332,164.44444444444443,155.2535,173.33333333333334,152.38575C182.2222222222222,149.518,191.1111111111111,146.861,200,143.84175000000002C208.88888888888889,140.82250000000002,217.77777777777774,137.441,226.66666666666663,135.17075C235.55555555555554,132.9005,244.44444444444443,131.7415,253.33333333333334,130.41125C262.22222222222223,129.08100000000002,271.1111111111111,127.57950000000001,280,126.71175000000001C288.8888888888889,125.84400000000001,297.77777777777777,125.61000000000001,306.6666666666667,124.67975000000001C315.5555555555556,123.74950000000001,324.4444444444444,122.123,333.3333333333333,122.24874999999999C342.2222222222222,122.3745,351.1111111111111,124.2525,360,127.10575C368.8888888888889,129.959,377.7777777777778,133.7875,382.22222222222223,135.70175L386.6666666666667,137.616L386.6666666666667,95.66400000000002L382.22222222222223,95.12975C377.7777777777778,94.59550000000002,368.8888888888889,93.527,360,93.62675000000002C351.1111111111111,93.7265,342.2222222222222,94.9945,333.3333333333333,97.28075000000001C324.4444444444444,99.56700000000001,315.5555555555556,102.87150000000001,306.6666666666667,105.09275000000001C297.77777777777777,107.31400000000001,288.8888888888889,108.452,280,109.61674999999998C271.1111111111111,110.7815,262.22222222222223,111.973,253.33333333333334,113.04124999999999C244.44444444444443,114.10949999999998,235.55555555555554,115.0545,226.66666666666666,116.88175000000001C217.77777777777774,118.709,208.88888888888889,121.4185,200,123.76475C191.1111111111111,126.11099999999999,182.2222222222222,128.094,173.33333333333334,130.37075000000002C164.44444444444443,132.6475,155.55555555555554,135.218,146.66666666666666,137.648C137.77777777777777,140.078,128.88888888888889,142.3675,120,142.39725C111.11111111111109,142.42700000000002,102.22222222222221,140.197,93.33333333333331,140.39125C84.44444444444443,140.58550000000002,75.55555555555554,143.20400000000004,66.66666666666666,145.669C57.77777777777777,148.13400000000001,48.88888888888888,150.4455,39.999999999999986,150.6745C31.111111111111097,150.9035,22.222222222222204,149.04999999999998,17.77777777777776,148.12324999999998L13.333333333333314,147.1965Z" fill="#36B7B4" opacity="0.2"/></g><g class="mark-line role-mark layer_3_marks" role="graphics-object" aria-roledescription="line mark container"><path aria-label="temp: &lt;30; a: 1" role="graphics-symbol" aria-roledescription="line mark" d="M13.333333333333314,118.01400000000002L17.77777777777776,119.21850000000002C22.222222222222204,120.42300000000002,31.111111111111097,122.83200000000001,39.999999999999986,126.06075000000003C48.88888888888888,129.2895,57.77777777777777,133.338,66.66666666666666,133.56C75.55555555555554,133.782,84.44444444444443,130.1775,93.33333333333331,127.593C102.22222222222221,125.00850000000001,111.11111111111109,123.444,119.99999999999999,122.021C128.88888888888889,120.598,137.77777777777777,119.3165,146.66666666666666,120.0825C155.55555555555554,120.8485,164.44444444444443,123.66199999999999,173.33333333333334,124.45225C182.2222222222222,125.2425,191.1111111111111,124.0095,200,125.26474999999999C208.88888888888889,126.52,217.77777777777774,130.2635,226.66666666666663,130.558C235.55555555555554,130.8525,244.44444444444443,127.69799999999998,253.33333333333334,127.87874999999998C262.22222222222223,128.05949999999999,271.1111111111111,131.5755,280,131.65925000000001C288.8888888888889,131.74300000000002,297.77777777777777,128.3945,306.6666666666667,126.03749999999998C315.5555555555556,123.6805,324.4444444444444,122.315,333.3333333333333,124.28800000000001C342.2222222222222,126.26100000000001,351.1111111111111,131.57250000000002,360,135.15200000000002C368.8888888888889,138.7315,377.7777777777778,140.57899999999998,382.22222222222223,141.50275L386.6666666666667,142.42649999999998" stroke="#0063AF" stroke-width="2"/></g><g class="mark-line role-mark layer_4_marks" role="graphics-object" aria-roledescription="line mark container"><path aria-label="temp: &lt;30; a: −30.495" role="graphics-symbol" aria-roledescription="line mark" d="M13.333333333333314,165.7425L17.77777777777776,166.27525C22.222222222222204,166.808,31.111111111111097,167.8735,39.999999999999986,167.021C48.88888888888888,166.1685,57.77777777777777,163.398,66.66666666666666,160.561C75.55555555555554,157.724,84.44444444444443,154.82049999999998,93.33333333333331,154.24075C102.22222222222221,153.66099999999997,111.11111111111109,155.405,119.99999999999999,155.01874999999998C128.88888888888889,154.63250000000002,137.77777777777777,152.116,146.66666666666666,149.4455C155.55555555555554,146.775,164.44444444444443,143.9505,173.33333333333334,141.37825C182.2222222222222,138.806,191.1111111111111,136.48600000000002,200,133.80325000000002C208.88888888888889,131.12050000000002,217.77777777777774,128.07500000000002,226.66666666666663,126.02625C235.55555555555554,123.97749999999998,244.44444444444443,122.92549999999999,253.33333333333334,121.72625000000001C262.22222222222223,120.527,271.1111111111111,119.1805,280,118.16425C288.8888888888889,117.14800000000001,297.77777777777777,116.462,306.6666666666667,114.88625000000002C315.5555555555556,113.3105,324.4444444444444,110.84499999999998,333.3333333333333,109.76474999999998C342.2222222222222,108.68449999999997,351.1111111111111,108.98949999999998,360,110.36624999999998C368.8888888888889,111.743,377.7777777777778,114.1915,382.22222222222223,115.41575L386.6666666666667,116.64000000000001" stroke="#36B7B4" stroke-width="2"/></g><g class="mark-text role-mark layer_5_marks" role="graphics-object" aria-roledescription="text mark container"><text aria-label="temp: &gt;100; a: −15" role="graphics-symbol" aria-roledescription="text mark" text-anchor="start" transform="translate(391.6666666666667,145.42649999999998)" font-family="sans-serif" font-size="11px" fill="#0063AF">Labour</text></g><g class="mark-text role-mark layer_6_marks" role="graphics-object" aria-roledescription="text mark container"><text aria-label="temp: &gt;100; a: 2.24" role="graphics-symbol" aria-roledescription="text mark" text-anchor="start" transform="translate(391.6666666666667,119.64000000000001)" font-family="sans-serif" font-size="11px" fill="#36B7B4">Outdoor</text></g><g class="mark-text role-mark layer_7_marks" role="graphics-object" aria-roledescription="text mark container"><text aria-label="temp: &gt;100; y: −105" role="graphics-symbol" aria-roledescription="text mark" text-anchor="middle" transform="translate(393.6666666666667,280.5)" font-family="sans-serif" font-size="10px" fill="#676A86">&gt;38 °C</text></g><g class="mark-text role-mark layer_8_marks" role="graphics-object" aria-roledescription="text mark container"><text aria-label="temp: 46-50; y: −115" role="graphics-symbol" aria-roledescription="text mark" text-anchor="middle" transform="translate(126.99999999999999,295.5)" font-family="sans-serif" font-size="10px" fill="#676A86">8-10 °C</text></g><g class="mark-text role-mark layer_9_marks" role="graphics-object" aria-roledescription="text mark container"><text aria-label="temp: 66-70; y: −115" role="graphics-symbol" aria-roledescription="text mark" text-anchor="middle" transform="translate(233.66666666666666,295.5)" font-family="sans-serif" font-size="10px" fill="#676A86">19-21 °C</text></g><g class="mark-text role-mark layer_10_marks" role="graphics-object" aria-roledescription="text mark container"><text aria-label="temp: &lt;30; y: −115" role="graphics-symbol" aria-roledescription="text mark" text-anchor="middle" transform="translate(20.333333333333314,295.5)" font-family="sans-serif" font-size="10px" fill="#676A86">&lt; -1 °C</text></g><g class="mark-group role-title"><g transform="translate(-0.6666666666666856,-31)"><path class="background" aria-hidden="true" d="M0,0h0v0h0Z" pointer-events="none"/><g><g class="mark-text role-title-text" role="graphics-symbol" aria-roledescription="title" aria-label="Title text 'Temperature and time allocation'" pointer-events="none"><text text-anchor="start" transform="translate(5,9)" font-family="sans-serif" font-size="12px" font-weight="bold" fill="#000" opacity="1">Temperature and time allocation</text></g><g class="mark-text role-title-subtitle" role="graphics-symbol" aria-roledescription="subtitle" aria-label="Subtitle text 'Low-risk industries. Source: Zivin and Neidell (2021)'" pointer-events="none"><text text-anchor="start" transform="translate(5,24)" font-family="sans-serif" font-size="11px" font-style="italic" fill="#000" opacity="1">Low-risk industries. Source: Zivin and Neidell (2021)</text></g></g><path class="foreground" aria-hidden="true" d="" pointer-events="none" display="none"/></g></g></g><path class="foreground" aria-hidden="true" d="" display="none"/></g></g></g></svg>