<svg xmlns="http://www.w3.org/2000/svg" xmlns:xlink="http://www.w3.org/1999/xlink" version="1.1" class="marks" width="503" height="374" viewBox="0 0 503 374"><rect width="503" height="374" fill="white"/><g fill="none" stroke-miterlimit="10" transform="translate(8,52)"><g class="mark-group role-frame root" role="graphics-object" aria-roledescription="group mark container"><g transform="translate(0,0)"><path class="background" aria-hidden="true" d="M0,0h400v300h-400Z"/><g><g class="mark-group role-axis" aria-hidden="true"><g transform="translate(0.5,0.5)"><path class="background" aria-hidden="true" d="M0,0h0v0h0Z" pointer-events="none"/><g><g class="mark-rule role-axis-grid" pointer-events="none"><line transform="translate(0,300)" x2="400" y2="0" stroke="#676A86" stroke-opacity="0.1" stroke-width="1" opacity="1"/><line transform="translate(0,240)" x2="400" y2="0" stroke="#676A86" stroke-opacity="0.1" stroke-width="1" opacity="1"/><line transform="translate(0,180)" x2="400" y2="0" stroke="#676A86" stroke-opacity="0.1" stroke-width="1" opacity="1"/><line transform="translate(0,120)" x2="400" y2="0" stroke="#676A86" stroke-opacity="0.1" stroke-width="1" opacity="1"/><line transform="translate(0,60)" x2="400" y2="0" stroke="#676A86" stroke-opacity="0.1" stroke-width="1" opacity="1"/><line transform="translate(0,0)" x2="400" y2="0" stroke="#676A86" stroke-opacity="0.1" stroke-width="1" opacity="1"/></g></g><path class="foreground" aria-hidden="true" d="" pointer-events="none" display="none"/></g></g><g class="mark-group role-axis" role="graphics-symbol" aria-roledescription="axis" aria-label="X-axis for a linear scale with values from 1960 to 2020"><g transform="translate(0.5,300.5)"><path class="background" aria-hidden="true" d="M0,0h0v0h0Z" pointer-events="none"/><g><g class="mark-rule role-axis-tick" pointer-events="none"><line transform="translate(0,0)" x2="0" y2="5" stroke="#676A86" stroke-width="1" opacity="1"/><line transform="translate(67,0)" x2="0" y2="5" stroke="#676A86" stroke-width="1" opacity="1"/><line transform="translate(133,0)" x2="0" y2="5" stroke="#676A86" stroke-width="1" opacity="1"/><line transform="translate(200,0)" x2="0" y2="5" stroke="#676A86" stroke-width="1" opacity="1"/><line transform="translate(267,0)" x2="0" y2="5" stroke="#676A86" stroke-width="1" opacity="1"/><line transform="translate(333,0)" x2="0" y2="5" stroke="#676A86" stroke-width="1" opacity="1"/><line transform="translate(400,0)" x2="0" y2="5" stroke="#676A86" stroke-width="1" opacity="1"/></g><g class="mark-text role-axis-label" pointer-events="none"><text text-anchor="start" transform="translate(0,15)" font-family="sans-serif" font-size="10px" fill="#676A86" opacity="1">1960</text><text text-anchor="middle" transform="translate(66.66666666666666,15)" font-family="sans-serif" font-size="10px" fill="#676A86" opacity="1">1970</text><text text-anchor="middle" transform="translate(133.33333333333331,15)" font-family="sans-serif" font-size="10px" fill="#676A86" opacity="1">1980</text><text text-anchor="middle" transform="translate(200,15)" font-family="sans-serif" font-size="10px" fill="#676A86" opacity="1">1990</text><text text-anchor="middle" transform="translate(266.66666666666663,15)" font-family="sans-serif" font-size="10px" fill="#676A86" opacity="1">2000</text><text text-anchor="middle" transform="translate(333.33333333333337,15)" font-family="sans-serif" font-size="10px" fill="#676A86" opacity="1">2010</text><text text-anchor="end" transform="translate(400,15)" font-family="sans-serif" font-size="10px" fill="#676A86" opacity="1">2020</text></g><g class="mark-rule role-axis-domain" pointer-events="none"><line transform="translate(0,0)" x2="400" y2="0" stroke="#676A86" stroke-width="1" opacity="1"/></g></g><path class="foreground" aria-hidden="true" d="" pointer-events="none" display="none"/></g></g><g class="mark-group role-axis" role="graphics-symbol" aria-roledescription="axis" aria-label="Y-axis titled 'kgCO₂e per 2010 US$ of GDP' for a linear scale with values from 0.0 to 1.0"><g transform="translate(0.5,0.5)"><path class="background" aria-hidden="true" d="M0,0h0v0h0Z" pointer-events="none"/><g><g class="mark-text role-axis-label" pointer-events="none"><text text-anchor="start" transform="translate(5,293)" font-family="sans-serif" font-size="10px" fill="#676A86" opacity="1">0.0</text><text text-anchor="start" transform="translate(5,233)" font-family="sans-serif" font-size="10px" fill="#676A86" opacity="1">0.2</text><text text-anchor="start" transform="translate(5,173)" font-family="sans-serif" font-size="10px" fill="#676A86" opacity="1">0.4</text><text text-anchor="start" transform="translate(5,113)" font-family="sans-serif" font-size="10px" fill="#676A86" opacity="1">0.6</text><text text-anchor="start" transform="translate(5,52.999999999999986)" font-family="sans-serif" font-size="10px" fill="#676A86" opacity="1">0.8</text><text text-anchor="start" transform="translate(5,-7)" font-family="sans-serif" font-size="10px" fill="#676A86" opacity="1">1.0</text></g><g class="mark-rule role-axis-domain" pointer-events="none"><line transform="translate(0,300)" x2="0" y2="-300" stroke="#676A86" stroke-width="1" opacity="1"/></g><g class="mark-text role-axis-title" pointer-events="none"><text text-anchor="start" transform="translate(25,-7)" font-family="sans-serif" font-size="10px" font-weight="normal" fill="#676A86" opacity="1">kgCO₂e per 2010 US$ of GDP</text></g></g><path class="foreground" aria-hidden="true" d="" pointer-events="none" display="none"/></g></g><g class="mark-group role-scope layer_0_pathgroup" role="graphics-object" aria-roledescription="group mark container"><g transform="translate(0,0)"><path class="background" aria-hidden="true" d="M0,0h400v300h-400Z"/><g><g class="mark-line role-mark layer_0_marks" role="graphics-object" aria-roledescription="line mark container"><path aria-label="country: European Union; year: 1970; value: 0.5" role="graphics-symbol" aria-roledescription="line mark" d="M66.66666666666666,138.1690254796485L73.33333333333333,139.3426863964653L80,137.7090428222985L86.66666666666667,137.6013409522851L93.33333333333333,142.5275836453458L100,144.301761696027L106.66666666666667,138.9508639745445L113.33333333333333,144.52992897519928L120,142.9843620329739L126.66666666666666,143.18354011654048L133.33333333333331,147.8608854357258L140,157.8807633912927L146.66666666666666,162.1447879349133L153.33333333333334,166.34487759985407L160,169.75465931640238L166.66666666666669,170.38562346712916L173.33333333333334,174.4935402655872L180,174.8657825664492L186.66666666666666,181.7540238362886L193.33333333333334,182.72215335081358L200,195.167030935527L206.66666666666669,198.1886790837507L213.33333333333334,202.6267070608671L220.00000000000003,203.80657991789582L226.66666666666666,206.6329749288582L233.33333333333334,207.6012764115951L240,206.7115759455096L246.66666666666669,210.92186567061722L253.33333333333331,213.7413125294754L260,217.569465942912L266.66666666666663,220.5072490755498L273.3333333333333,220.9143897752844L280,221.9511197464377L286.6666666666667,220.5722154586308L293.3333333333333,222.4657085254047L300,224.3642071159017L306.6666666666667,226.7544109024377L313.3333333333333,229.8100666505238L320,231.8264186407245L326.6666666666667,234.0123868429005L333.33333333333337,233.67151916906428L340,236.83911165801388L346.6666666666667,237.5782216831428L353.3333333333333,239.061423114321L360,242.91262815559378L366.66666666666663,243.0605725729449L373.3333333333333,244.0403908634874L380,245.14446967905508L386.6666666666667,247.3007124083559" stroke="#179FDB" stroke-width="2"/></g></g><path class="foreground" aria-hidden="true" d="" display="none"/></g><g transform="translate(0,0)"><path class="background" aria-hidden="true" d="M0,0h400v300h-400Z"/><g><g class="mark-line role-mark layer_0_marks" role="graphics-object" aria-roledescription="line mark container"><path aria-label="country: United Kingdom; year: 1960; value: 0.8" role="graphics-symbol" aria-roledescription="line mark" d="M0,60.176759087947204L6.666666666666667,64.5753993511929L13.333333333333334,65.3950516376949L20,72.3548697330369L26.666666666666668,82.6722960137514L33.33333333333333,82.24120424663671L40,87.01021279934518L46.666666666666664,101.50973597700391L53.333333333333336,107.16103880420582L60,103.9785853560348L66.66666666666666,103.09057734767731L73.33333333333333,107.48591050155031L80,118.91696994117511L86.66666666666667,126.98004661795859L93.33333333333333,133.9771386354405L100,135.303827821539L106.66666666666667,141.2155150658844L113.33333333333333,143.5147623461229L120,149.7445941586827L126.66666666666666,145.64593785632007L133.33333333333331,158.47287429385952L140,161.89757248245297L146.66666666666666,167.5681134503883L153.33333333333334,173.57661532673882L160,180.09787970699878L166.66666666666669,178.2346684802676L173.33333333333334,180.07235566950988L180,185.59036617380428L186.66666666666666,192.0589727298312L193.33333333333334,192.6947394959454L200,198.0601454513067L206.66666666666669,194.39564279002562L213.33333333333334,198.0190538880015L220.00000000000003,202.73858043393L226.66666666666666,207.22963184431708L233.33333333333334,211.396155176538L240,210.19135245747572L246.66666666666669,217.9552981777908L253.33333333333331,220.47963038101707L260,223.4078896145484L266.66666666666663,224.9031234121602L273.3333333333333,224.9188510918878L280,228.4429031352858L286.6666666666667,229.19572280380498L293.3333333333333,230.7476757582198L300,232.9491306162903L306.6666666666667,234.58235957047708L313.3333333333333,237.5635167630192L320,239.1342124657836L326.6666666666667,242.6050837982091L333.33333333333337,241.7560470221052L340,246.9504912809181L346.6666666666667,245.0318751849612L353.3333333333333,247.8224732124672L360,253.5526626387867L366.66666666666663,256.208688106032L373.3333333333333,259.2598116034092L380,261.2788190799558L386.6666666666667,262.5490252010937" stroke="#36B7B4" stroke-width="2"/></g></g><path class="foreground" aria-hidden="true" d="" display="none"/></g><g transform="translate(0,0)"><path class="background" aria-hidden="true" d="M0,0h400v300h-400Z"/><g><g class="mark-line role-mark layer_0_marks" role="graphics-object" aria-roledescription="line mark container"><path aria-label="country: United States; year: 1960; value: 0.9" role="graphics-symbol" aria-roledescription="line mark" d="M0,26.937293724134392L6.666666666666667,34.017520786313106L13.333333333333334,40.02332726673659L20,39.97448922151289L26.666666666666668,43.453236726760494L33.33333333333333,48.892887095193295L40,52.33160626108141L46.666666666666664,49.29359500658998L53.333333333333336,51.99594998124601L60,47.310901593737086L66.66666666666666,27.094598193118813L73.33333333333333,34.095094579906814L80,35.30897799895018L86.66666666666667,38.189459422980306L93.33333333333333,46.241874576366L100,56.34510457520791L106.66666666666667,57.9531901516359L113.33333333333333,62.1720951344685L120,67.58613524414581L126.66666666666666,74.21519038273739L133.33333333333331,81.88115752620779L140,95.71981898434409L146.66666666666666,102.4745579143977L153.33333333333334,109.59154139225159L160,116.98901652590492L166.66666666666669,123.6328574420181L173.33333333333334,129.4251131467284L180,128.0539801487892L186.66666666666666,127.76117151238408L193.33333333333334,131.73860568579659L200,138.5224207951722L206.66666666666669,139.5785817735579L213.33333333333334,142.71298389746912L220.00000000000003,143.1582049053417L226.66666666666666,147.0349544308101L233.33333333333334,149.4577153398891L240,150.5103846975228L246.66666666666669,149.69958812958748L253.33333333333331,155.03883361635152L260,161.13137881660708L266.66666666666663,162.6873101271201L273.3333333333333,164.6838545130033L280,170.588062806186L286.6666666666667,172.7153998383195L293.3333333333333,175.6318223009517L300,179.5168988296965L306.6666666666667,184.8860495052819L313.3333333333333,185.33424645048208L320,188.7165514698672L326.6666666666667,194.10731977943038L333.33333333333337,192.0854248940637L340,198.08371935869968L346.6666666666667,204.6020838263772L353.3333333333333,203.6918326822944L360,205.8232018890585L366.66666666666663,210.77816094370078L373.3333333333333,213.9369175046424L380,217.1876098329171L386.6666666666667,216.79778732811752" stroke="#0063AF" stroke-width="2"/></g></g><path class="foreground" aria-hidden="true" d="" display="none"/></g></g><g class="mark-line role-mark layer_1_marks" role="graphics-object" aria-roledescription="line mark container"><path aria-label="year: 1960; value: 0.836009063544" role="graphics-symbol" aria-roledescription="line mark" d="M0,49.19728093690679L6.666666666666667,60.600051033788716L13.333333333333334,65.6096310508197L20,65.09002100322299L26.666666666666668,68.1698353153911L33.33333333333333,68.3923516239909L40,69.73416390629731L46.666666666666664,71.91802124603339L53.333333333333336,73.86062240969491L60,72.44813054190449L66.66666666666666,59.8658069177331L73.33333333333333,60.19136316100321L80,62.33361622315379L86.66666666666667,64.89228166196041L93.33333333333333,69.60842422202968L100,70.22382657126572L106.66666666666667,70.360944429606L113.33333333333333,72.04723868120341L120,72.2656403414145L126.66666666666666,75.44532614226212L133.33333333333331,80.23518488189458L140,89.74199321593831L146.66666666666666,91.51883313142258L153.33333333333334,94.16292877078138L160,97.05563714469181L166.66666666666669,96.73400217570028L173.33333333333334,100.7263188764658L180,102.18088249680301L186.66666666666666,103.12554621181471L193.33333333333334,106.85365646302078L200,136.91029597390468L206.66666666666669,137.8407912960432L213.33333333333334,141.11381430818372L220.00000000000003,142.450469741835L226.66666666666666,146.1560660124783L233.33333333333334,146.4036853375794L240,148.3570742612292L246.66666666666669,151.4260209155985L253.33333333333331,154.38603651833972L260,158.29835253396962L266.66666666666663,160.1277728397447L273.3333333333333,160.4798386639764L280,161.4416369615628L286.6666666666667,159.31641710113377L293.3333333333333,158.9556526499397L300,159.0617635777389L306.6666666666667,160.5198248585421L313.3333333333333,161.13743191682792L320,162.44980082009428L326.6666666666667,161.63779777479L333.33333333333337,159.29315129229448L340,159.28468053233823L346.6666666666667,160.8554477987376L353.3333333333333,161.9293656820323L360,165.65967005083382L366.66666666666663,170.0291869059576L373.3333333333333,173.34035421047372L380,175.83446447299198L386.6666666666667,176.9996444602614" stroke="#676A86" stroke-width="3"/></g><g class="mark-text role-mark layer_2_marks" role="graphics-object" aria-roledescription="text mark container"><text aria-label="country: European Union; year: 2018; value: 0.2" role="graphics-symbol" aria-roledescription="text mark" text-anchor="start" transform="translate(391.6666666666667,250.3007124083559)" font-family="sans-serif" font-size="11px" fill="#179FDB">European Union</text><text aria-label="country: United Kingdom; year: 2018; value: 0.1" role="graphics-symbol" aria-roledescription="text mark" text-anchor="start" transform="translate(391.6666666666667,265.5490252010937)" font-family="sans-serif" font-size="11px" fill="#36B7B4">United Kingdom</text><text aria-label="country: United States; year: 2018; value: 0.3" role="graphics-symbol" aria-roledescription="text mark" text-anchor="start" transform="translate(391.6666666666667,219.79778732811752)" font-family="sans-serif" font-size="11px" fill="#0063AF">United States</text></g><g class="mark-text role-mark layer_3_marks" role="graphics-object" aria-roledescription="text mark container"><text aria-label="country: World; year: 2018; value: 0.410001185132" role="graphics-symbol" aria-roledescription="text mark" text-anchor="start" transform="translate(391.6666666666667,180.9996444602614)" font-family="sans-serif" font-size="12px" font-style="bold" fill="#676A86">World</text></g><g class="mark-group role-title"><g transform="translate(-3,-46)"><path class="background" aria-hidden="true" d="M0,0h0v0h0Z" pointer-events="none"/><g><g class="mark-text role-title-text" role="graphics-symbol" aria-roledescription="title" aria-label="Title text 'Evolution of the emissions intensity of GDP'" pointer-events="none"><text text-anchor="start" transform="translate(5,9)" font-family="sans-serif" font-size="12px" font-weight="bold" fill="#000" opacity="1">Evolution of the emissions intensity of GDP</text></g><g class="mark-text role-title-subtitle" role="graphics-symbol" aria-roledescription="subtitle" aria-label="Subtitle text 'Emissions intensity of GDP. Source: World Bank Development Indicators'" pointer-events="none"><text text-anchor="start" transform="translate(5,24)" font-family="sans-serif" font-size="11px" font-style="italic" fill="#000" opacity="1">Emissions intensity of GDP. Source: World Bank Development Indicators</text></g></g><path class="foreground" aria-hidden="true" d="" pointer-events="none" display="none"/></g></g></g><path class="foreground" aria-hidden="true" d="" display="none"/></g></g></g></svg>