<svg xmlns="http://www.w3.org/2000/svg" xmlns:xlink="http://www.w3.org/1999/xlink" version="1.1" class="marks" width="443" height="360" viewBox="0 0 443 360"><rect width="443" height="360" fill="#122B39"/><g fill="none" stroke-miterlimit="10" transform="translate(5,37)"><g class="mark-group role-frame root" role="graphics-object" aria-roledescription="group mark container"><g transform="translate(0,0)"><path class="background" aria-hidden="true" d="M0,0h400v300h-400Z"/><g><g class="mark-group role-axis" role="graphics-symbol" aria-roledescription="axis" aria-label="X-axis titled 'maximum temperature (°F)' for a discrete scale with 15 values: &lt;30, 31-35, 36-40, 41-45, 46-50, ending with &gt;100"><g transform="translate(0.5,300.5)"><path class="background" aria-hidden="true" d="M0,0h0v0h0Z" pointer-events="none"/><g><g class="mark-rule role-axis-tick" pointer-events="none"><line transform="translate(13,0)" x2="0" y2="5" stroke="#676A86" stroke-width="1" opacity="1"/><line transform="translate(40,0)" x2="0" y2="5" stroke="#676A86" stroke-width="1" opacity="1"/><line transform="translate(67,0)" x2="0" y2="5" stroke="#676A86" stroke-width="1" opacity="1"/><line transform="translate(93,0)" x2="0" y2="5" stroke="#676A86" stroke-width="1" opacity="1"/><line transform="translate(120,0)" x2="0" y2="5" stroke="#676A86" stroke-width="1" opacity="1"/><line transform="translate(147,0)" x2="0" y2="5" stroke="#676A86" stroke-width="1" opacity="1"/><line transform="translate(173,0)" x2="0" y2="5" stroke="#676A86" stroke-width="1" opacity="1"/><line transform="translate(200,0)" x2="0" y2="5" stroke="#676A86" stroke-width="1" opacity="1"/><line transform="translate(227,0)" x2="0" y2="5" stroke="#676A86" stroke-width="1" opacity="1"/><line transform="translate(253,0)" x2="0" y2="5" stroke="#676A86" stroke-width="1" opacity="1"/><line transform="translate(280,0)" x2="0" y2="5" stroke="#676A86" stroke-width="1" opacity="1"/><line transform="translate(307,0)" x2="0" y2="5" stroke="#676A86" stroke-width="1" opacity="1"/><line transform="translate(333,0)" x2="0" y2="5" stroke="#676A86" stroke-width="1" opacity="1"/><line transform="translate(360,0)" x2="0" y2="5" stroke="#676A86" stroke-width="1" opacity="1"/><line transform="translate(387,0)" x2="0" y2="5" stroke="#676A86" stroke-width="1" opacity="1"/></g><g class="mark-text role-axis-label" pointer-events="none"><text text-anchor="middle" transform="translate(13.333333333333314,16)" font-family="Georgia" font-size="12px" fill="#676A86" opacity="1">&lt;30</text><text text-anchor="middle" transform="translate(39.999999999999986,16)" font-family="Georgia" font-size="12px" fill="#676A86" opacity="1">31-35</text><text text-anchor="middle" transform="translate(66.66666666666666,16)" font-family="Georgia" font-size="12px" fill="#676A86" opacity="1">36-40</text><text text-anchor="middle" transform="translate(93.33333333333331,16)" font-family="Georgia" font-size="12px" fill="#676A86" opacity="1">41-45</text><text text-anchor="middle" transform="translate(119.99999999999999,16)" font-family="Georgia" font-size="12px" fill="#676A86" opacity="1">46-50</text><text text-anchor="middle" transform="translate(146.66666666666666,16)" font-family="Georgia" font-size="12px" fill="#676A86" opacity="1">51-55</text><text text-anchor="middle" transform="translate(173.33333333333331,16)" font-family="Georgia" font-size="12px" fill="#676A86" opacity="1">56-60</text><text text-anchor="middle" transform="translate(200,16)" font-family="Georgia" font-size="12px" fill="#676A86" opacity="1">61-65</text><text text-anchor="middle" transform="translate(226.66666666666666,16)" font-family="Georgia" font-size="12px" fill="#676A86" opacity="1">66-70</text><text text-anchor="middle" transform="translate(253.33333333333331,16)" font-family="Georgia" font-size="12px" fill="#676A86" opacity="1">71-75</text><text text-anchor="middle" transform="translate(280,16)" font-family="Georgia" font-size="12px" fill="#676A86" opacity="1">81-85</text><text text-anchor="middle" transform="translate(306.6666666666667,16)" font-family="Georgia" font-size="12px" fill="#676A86" opacity="1">86-90</text><text text-anchor="middle" transform="translate(333.3333333333333,16)" font-family="Georgia" font-size="12px" fill="#676A86" opacity="1">91-95</text><text text-anchor="middle" transform="translate(360,16)" font-family="Georgia" font-size="12px" fill="#676A86" opacity="1">96-100</text><text text-anchor="middle" transform="translate(386.6666666666667,16)" font-family="Georgia" font-size="12px" fill="#676A86" opacity="1">&gt;100</text></g><g class="mark-rule role-axis-domain" pointer-events="none"><line transform="translate(0,0)" x2="400" y2="0" stroke="#676A86" stroke-width="1" opacity="1"/></g><g class="mark-text role-axis-title" pointer-events="none"><text text-anchor="end" transform="translate(420,-8)" font-family="Georgia" font-size="12px" font-weight="normal" fill="#676A86" opacity="1">maximum temperature (°F)</text></g></g><path class="foreground" aria-hidden="true" d="" pointer-events="none" display="none"/></g></g><g class="mark-group role-axis" role="graphics-symbol" aria-roledescription="axis" aria-label="Y-axis titled 'minutes' for a linear scale with values from −120 to 80"><g transform="translate(0.5,0.5)"><path class="background" aria-hidden="true" d="M0,0h0v0h0Z" pointer-events="none"/><g><g class="mark-text role-axis-label" pointer-events="none"><text text-anchor="start" transform="translate(5,264)" font-family="Georgia" font-size="12px" fill="#676A86" opacity="1">−100</text><text text-anchor="start" transform="translate(5,189)" font-family="Georgia" font-size="12px" fill="#676A86" opacity="1">−50</text><text text-anchor="start" transform="translate(5,114)" font-family="Georgia" font-size="12px" fill="#676A86" opacity="1">0</text><text text-anchor="start" transform="translate(5,39.00000000000001)" font-family="Georgia" font-size="12px" fill="#676A86" opacity="1">50</text></g><g class="mark-rule role-axis-domain" pointer-events="none"><line transform="translate(0,300)" x2="0" y2="-300" stroke="#676A86" stroke-width="1" opacity="1"/></g><g class="mark-text role-axis-title" pointer-events="none"><text text-anchor="start" transform="translate(23,39)" font-family="Georgia" font-size="12px" font-weight="normal" fill="#676A86" opacity="1">minutes</text></g></g><path class="foreground" aria-hidden="true" d="" pointer-events="none" display="none"/></g></g><g class="mark-line role-mark layer_0_marks" role="graphics-object" aria-roledescription="line mark container"><path aria-label="temp: &lt;30; y: 0" role="graphics-symbol" aria-roledescription="line mark" d="M13.333333333333314,120L13.333333333333314,120L13.333333333333314,120L13.333333333333314,120L13.333333333333314,120L13.333333333333314,120L13.333333333333314,120L39.999999999999986,120L39.999999999999986,120L39.999999999999986,120L39.999999999999986,120L39.999999999999986,120L39.999999999999986,120L39.999999999999986,120L66.66666666666666,120L66.66666666666666,120L66.66666666666666,120L66.66666666666666,120L66.66666666666666,120L66.66666666666666,120L66.66666666666666,120L93.33333333333331,120L93.33333333333331,120L93.33333333333331,120L93.33333333333331,120L93.33333333333331,120L93.33333333333331,120L93.33333333333331,120L119.99999999999999,120L119.99999999999999,120L119.99999999999999,120L119.99999999999999,120L119.99999999999999,120L119.99999999999999,120L119.99999999999999,120L146.66666666666666,120L146.66666666666666,120L146.66666666666666,120L146.66666666666666,120L146.66666666666666,120L146.66666666666666,120L146.66666666666666,120L173.33333333333331,120L173.33333333333331,120L173.33333333333331,120L173.33333333333331,120L173.33333333333331,120L173.33333333333331,120L173.33333333333331,120L200,120L200,120L200,120L200,120L200,120L200,120L200,120L226.66666666666666,120L226.66666666666666,120L226.66666666666666,120L226.66666666666666,120L226.66666666666666,120L226.66666666666666,120L226.66666666666666,120L253.33333333333331,120L253.33333333333331,120L253.33333333333331,120L253.33333333333331,120L253.33333333333331,120L253.33333333333331,120L253.33333333333331,120L280,120L280,120L280,120L280,120L280,120L280,120L280,120L306.6666666666667,120L306.6666666666667,120L306.6666666666667,120L306.6666666666667,120L306.6666666666667,120L306.6666666666667,120L306.6666666666667,120L333.3333333333333,120L333.3333333333333,120L333.3333333333333,120L333.3333333333333,120L333.3333333333333,120L333.3333333333333,120L333.3333333333333,120L360,120L360,120L360,120L360,120L360,120L360,120L360,120L386.6666666666667,120L386.6666666666667,120L386.6666666666667,120L386.6666666666667,120L386.6666666666667,120L386.6666666666667,120L386.6666666666667,120" stroke="#676A86" stroke-width="2" stroke-dasharray="5,5" opacity="0.5"/></g><g class="mark-area role-mark layer_1_marks" role="graphics-object" aria-roledescription="area mark container"><path aria-label="temp: &lt;30; a1: −37.431; a2: 66.737" role="graphics-symbol" aria-roledescription="area mark" d="M13.333333333333314,176.14650000000003L17.77777777777776,179.60775000000004C22.222222222222204,183.06900000000005,31.111111111111097,189.9915,39.999999999999986,193.782C48.88888888888888,197.5725,57.77777777777777,198.231,66.66666666666666,198.4175C75.55555555555554,198.604,84.44444444444443,198.3185,93.33333333333331,198.40775C102.22222222222221,198.49699999999999,111.11111111111109,198.96099999999998,119.99999999999999,194.63825C128.88888888888889,190.31550000000001,137.77777777777777,181.20600000000002,146.66666666666666,177.0545C155.55555555555554,172.90300000000002,164.44444444444443,173.70950000000002,173.33333333333334,172.22124999999997C182.2222222222222,170.73299999999998,191.1111111111111,166.95000000000002,200,162.65574999999998C208.88888888888889,158.3615,217.77777777777774,153.556,226.66666666666663,156.03675C235.55555555555554,158.5175,244.44444444444443,168.28449999999998,253.33333333333334,169.00375C262.22222222222223,169.72299999999998,271.1111111111111,161.3945,280,159.01049999999998C288.8888888888889,156.6265,297.77777777777777,160.187,306.6666666666667,166.87C315.5555555555556,173.553,324.4444444444444,183.35850000000002,333.3333333333333,196.73450000000003C342.2222222222222,210.1105,351.1111111111111,227.05700000000002,360,241.9275C368.8888888888889,256.798,377.7777777777778,269.59250000000003,382.22222222222223,275.98975L386.6666666666667,282.387L386.6666666666667,131.709L382.22222222222223,129.79875C377.7777777777778,127.88850000000001,368.8888888888889,124.068,360,118.6225C351.1111111111111,113.177,342.2222222222222,106.10649999999998,333.3333333333333,101.3005C324.4444444444444,96.4945,315.5555555555556,93.95299999999999,306.6666666666667,91.86200000000001C297.77777777777777,89.771,288.8888888888889,88.1305,280,90.9185C271.1111111111111,93.7065,262.22222222222223,100.923,253.33333333333334,99.31275C244.44444444444443,97.7025,235.55555555555554,87.26549999999999,226.66666666666666,83.59375C217.77777777777774,79.922,208.88888888888889,83.0155,200,85.21475C191.1111111111111,87.41399999999999,182.2222222222222,88.71899999999998,173.33333333333334,87.04924999999999C164.44444444444443,85.3795,155.55555555555554,80.735,146.66666666666666,81.81450000000001C137.77777777777777,82.89400000000002,128.88888888888889,89.6975,120,89.62325C111.11111111111109,89.54899999999999,102.22222222222221,82.597,93.33333333333331,77.35575C84.44444444444443,72.11449999999999,75.55555555555554,68.58399999999999,66.66666666666666,66.06149999999998C57.77777777777777,63.53899999999999,48.88888888888888,62.02449999999999,39.999999999999986,54.49799999999999C31.111111111111097,46.971499999999985,22.222222222222204,33.43299999999997,17.77777777777776,26.66374999999997L13.333333333333314,19.894499999999965Z" fill="#179FDB" opacity="0.2"/></g><g class="mark-area role-mark layer_2_marks" role="graphics-object" aria-roledescription="area mark container"><path aria-label="temp: &lt;30; a1: −77.729; a2: −16.461" role="graphics-symbol" aria-roledescription="area mark" d="M13.333333333333314,236.5935L17.77777777777776,237.43499999999997C22.222222222222204,238.27650000000003,31.111111111111097,239.95950000000002,39.999999999999986,237.44724999999997C48.88888888888888,234.93499999999997,57.77777777777777,228.2275,66.66666666666666,221.05375000000004C75.55555555555554,213.88000000000002,84.44444444444443,206.24,93.33333333333331,202.34125000000003C102.22222222222221,198.44250000000002,111.11111111111109,198.285,119.99999999999999,197.98975C128.88888888888889,197.69449999999998,137.77777777777777,197.26149999999998,146.66666666666666,192.68250000000003C155.55555555555554,188.10350000000003,164.44444444444443,179.37850000000003,173.33333333333334,174.22500000000002C182.2222222222222,169.07150000000001,191.1111111111111,167.48950000000002,200,164.52225C208.88888888888889,161.55500000000004,217.77777777777774,157.20250000000001,226.66666666666663,153.22975000000002C235.55555555555554,149.25700000000003,244.44444444444443,145.66400000000002,253.33333333333334,145.26800000000003C262.22222222222223,144.87200000000004,271.1111111111111,147.67300000000003,280,147.13200000000003C288.8888888888889,146.591,297.77777777777777,142.708,306.6666666666667,140.16325C315.5555555555556,137.6185,324.4444444444444,136.412,333.3333333333333,139.1935C342.2222222222222,141.975,351.1111111111111,148.74450000000002,360,156.9095C368.8888888888889,165.07450000000003,377.7777777777778,174.635,382.22222222222223,179.41525000000001L386.6666666666667,184.1955L386.6666666666667,85.30349999999999L382.22222222222223,81.95625C377.7777777777778,78.609,368.8888888888889,71.9145,360,69.85950000000001C351.1111111111111,67.80450000000002,342.2222222222222,70.38900000000001,333.3333333333333,74.29950000000001C324.4444444444444,78.21000000000002,315.5555555555556,83.44650000000001,306.6666666666667,89.10825C297.77777777777777,94.77,288.8888888888889,100.85699999999999,280,102.22699999999999C271.1111111111111,103.59699999999998,262.22222222222223,100.25,253.33333333333334,99.54700000000001C244.44444444444443,98.84400000000001,235.55555555555554,100.78500000000001,226.66666666666666,104.31975000000001C217.77777777777774,107.85450000000002,208.88888888888889,112.983,200,115.54625C191.1111111111111,118.10949999999998,182.2222222222222,118.1075,173.33333333333334,121.783C164.44444444444443,125.4585,155.55555555555554,132.8115,146.66666666666666,135.7385C137.77777777777777,138.66549999999998,128.88888888888889,137.16649999999998,120,135.60174999999998C111.11111111111109,134.037,102.22222222222221,132.40649999999997,93.33333333333331,134.69424999999998C84.44444444444443,136.982,75.55555555555554,143.188,66.66666666666666,148.48975C57.77777777777777,153.7915,48.88888888888888,158.189,39.999999999999986,157.40525C31.111111111111097,156.6215,22.222222222222204,150.6565,17.77777777777776,147.674L13.333333333333314,144.6915Z" fill="#36B7B4" opacity="0.2"/></g><g class="mark-line role-mark layer_3_marks" role="graphics-object" aria-roledescription="line mark container"><path aria-label="temp: &lt;30; a: 15" role="graphics-symbol" aria-roledescription="line mark" d="M13.333333333333314,98.0205L17.77777777777776,103.13574999999999C22.222222222222204,108.25099999999999,31.111111111111097,118.48149999999998,39.999999999999986,124.13999999999999C48.88888888888888,129.7985,57.77777777777777,130.885,66.66666666666666,132.2395C75.55555555555554,133.594,84.44444444444443,135.2165,93.33333333333331,137.88174999999998C102.22222222222221,140.547,111.11111111111109,144.25499999999997,119.99999999999999,142.13074999999995C128.88888888888889,140.0065,137.77777777777777,132.04999999999998,146.66666666666666,129.43449999999999C155.55555555555554,126.819,164.44444444444443,129.5445,173.33333333333334,129.63525C182.2222222222222,129.726,191.1111111111111,127.18199999999997,200,123.93524999999998C208.88888888888889,120.68849999999998,217.77777777777774,116.73899999999999,226.66666666666663,119.81525C235.55555555555554,122.8915,244.44444444444443,132.9935,253.33333333333334,134.15824999999998C262.22222222222223,135.323,271.1111111111111,127.55050000000001,280,124.9645C288.8888888888889,122.37850000000002,297.77777777777777,124.979,306.6666666666667,129.366C315.5555555555556,133.75300000000001,324.4444444444444,139.9265,333.3333333333333,149.01749999999998C342.2222222222222,158.1085,351.1111111111111,170.117,360,180.275C368.8888888888889,190.433,377.7777777777778,198.7405,382.22222222222223,202.89424999999997L386.6666666666667,207.048" stroke="#179FDB" stroke-width="2"/></g><g class="mark-line role-mark layer_4_marks" role="graphics-object" aria-roledescription="line mark container"><path aria-label="temp: &lt;30; a: −47.095" role="graphics-symbol" aria-roledescription="line mark" d="M13.333333333333314,190.6425L17.77777777777776,192.5545C22.222222222222204,194.4665,31.111111111111097,198.29049999999998,39.999999999999986,197.42624999999998C48.88888888888888,196.56199999999998,57.77777777777777,191.0095,66.66666666666666,184.77175C75.55555555555554,178.534,84.44444444444443,171.611,93.33333333333331,168.51774999999998C102.22222222222221,165.4245,111.11111111111109,166.16099999999997,119.99999999999999,166.79574999999997C128.88888888888889,167.43049999999997,137.77777777777777,167.96349999999998,146.66666666666666,164.2105C155.55555555555554,160.4575,164.44444444444443,152.4185,173.33333333333334,148.004C182.2222222222222,143.58950000000002,191.1111111111111,142.7995,200,140.03425000000001C208.88888888888889,137.269,217.77777777777774,132.5285,226.66666666666663,128.77474999999998C235.55555555555554,125.021,244.44444444444443,122.254,253.33333333333334,122.40749999999998C262.22222222222223,122.56099999999999,271.1111111111111,125.635,280,124.6795C288.8888888888889,123.724,297.77777777777777,118.73899999999999,306.6666666666667,114.63574999999999C315.5555555555556,110.53249999999998,324.4444444444444,107.31099999999999,333.3333333333333,106.74650000000001C342.2222222222222,106.182,351.1111111111111,108.2745,360,113.38450000000002C368.8888888888889,118.49450000000002,377.7777777777778,126.62200000000001,382.22222222222223,130.68575L386.6666666666667,134.7495" stroke="#36B7B4" stroke-width="2"/></g><g class="mark-text role-mark layer_5_marks" role="graphics-object" aria-roledescription="text mark container"><text aria-label="temp: &gt;100; a: −58" role="graphics-symbol" aria-roledescription="text mark" text-anchor="start" transform="translate(391.6666666666667,210.048)" font-family="Georgia" font-size="11px" fill="#179FDB">Labour</text></g><g class="mark-text role-mark layer_6_marks" role="graphics-object" aria-roledescription="text mark container"><text aria-label="temp: &gt;100; a: −9.833" role="graphics-symbol" aria-roledescription="text mark" text-anchor="start" transform="translate(391.6666666666667,137.7495)" font-family="Georgia" font-size="11px" fill="#36B7B4">Outdoor</text></g><g class="mark-text role-mark layer_7_marks" role="graphics-object" aria-roledescription="text mark container"><text aria-label="temp: &gt;100; y: −102" role="graphics-symbol" aria-roledescription="text mark" text-anchor="middle" transform="translate(393.6666666666667,277)" font-family="Georgia" font-size="12px" fill="#676A86">&gt;38 °C</text></g><g class="mark-text role-mark layer_8_marks" role="graphics-object" aria-roledescription="text mark container"><text aria-label="temp: 46-50; y: −112" role="graphics-symbol" aria-roledescription="text mark" text-anchor="middle" transform="translate(126.99999999999999,292)" font-family="Georgia" font-size="12px" fill="#676A86">8-10 °C</text></g><g class="mark-text role-mark layer_9_marks" role="graphics-object" aria-roledescription="text mark container"><text aria-label="temp: 66-70; y: −112" role="graphics-symbol" aria-roledescription="text mark" text-anchor="middle" transform="translate(233.66666666666666,292)" font-family="Georgia" font-size="12px" fill="#676A86">19-21 °C</text></g><g class="mark-text role-mark layer_10_marks" role="graphics-object" aria-roledescription="text mark container"><text aria-label="temp: &lt;30; y: −112" role="graphics-symbol" aria-roledescription="text mark" text-anchor="middle" transform="translate(20.333333333333314,292)" font-family="Georgia" font-size="12px" fill="#676A86">&lt; -1 °C</text></g><g class="mark-group role-title"><g transform="translate(0,-32)"><path class="background" aria-hidden="true" d="M0,0h0v0h0Z" pointer-events="none"/><g><g class="mark-text role-title-text" role="graphics-symbol" aria-roledescription="title" aria-label="Title text 'Temperature and time allocation'" pointer-events="none"><text text-anchor="start" transform="translate(5,11)" font-family="Georgia" font-size="14px" font-weight="bold" fill="#F4134D" opacity="1">Temperature and time allocation</text></g><g class="mark-text role-title-subtitle" role="graphics-symbol" aria-roledescription="subtitle" aria-label="Subtitle text 'High-risk industries. Source: Zivin and Neidell (2021)'" pointer-events="none"><text text-anchor="start" transform="translate(5,26)" font-family="Georgia" font-size="12px" font-style="italic" fill="#F4134D" opacity="1">High-risk industries. Source: Zivin and Neidell (2021)</text></g></g><path class="foreground" aria-hidden="true" d="" pointer-events="none" display="none"/></g></g></g><path class="foreground" aria-hidden="true" d="" display="none"/></g></g></g></svg>