<svg xmlns="http://www.w3.org/2000/svg" xmlns:xlink="http://www.w3.org/1999/xlink" version="1.1" class="marks" width="488" height="383" viewBox="0 0 488 383"><rect width="488" height="383" fill="#122B39"/><g fill="none" stroke-miterlimit="10" transform="translate(5,60)"><g class="mark-group role-frame root" role="graphics-object" aria-roledescription="group mark container"><g transform="translate(0,0)"><path class="background" aria-hidden="true" d="M0,0h400v300h-400Z"/><g><g class="mark-group role-axis" aria-hidden="true"><g transform="translate(0.5,0.5)"><path class="background" aria-hidden="true" d="M0,0h0v0h0Z" pointer-events="none"/><g><g class="mark-rule role-axis-grid" pointer-events="none"><line transform="translate(0,300)" x2="400" y2="0" stroke="#676A86" stroke-opacity="0.1" stroke-width="1" opacity="1"/><line transform="translate(0,240)" x2="400" y2="0" stroke="#676A86" stroke-opacity="0.1" stroke-width="1" opacity="1"/><line transform="translate(0,180)" x2="400" y2="0" stroke="#676A86" stroke-opacity="0.1" stroke-width="1" opacity="1"/><line transform="translate(0,120)" x2="400" y2="0" stroke="#676A86" stroke-opacity="0.1" stroke-width="1" opacity="1"/><line transform="translate(0,60)" x2="400" y2="0" stroke="#676A86" stroke-opacity="0.1" stroke-width="1" opacity="1"/><line transform="translate(0,0)" x2="400" y2="0" stroke="#676A86" stroke-opacity="0.1" stroke-width="1" opacity="1"/></g></g><path class="foreground" aria-hidden="true" d="" pointer-events="none" display="none"/></g></g><g class="mark-group role-axis" role="graphics-symbol" aria-roledescription="axis" aria-label="X-axis for a linear scale with values from 1560 to 1860"><g transform="translate(0.5,300.5)"><path class="background" aria-hidden="true" d="M0,0h0v0h0Z" pointer-events="none"/><g><g class="mark-rule role-axis-tick" pointer-events="none"><line transform="translate(53,0)" x2="0" y2="5" stroke="#676A86" stroke-width="1" opacity="1"/><line transform="translate(120,0)" x2="0" y2="5" stroke="#676A86" stroke-width="1" opacity="1"/><line transform="translate(187,0)" x2="0" y2="5" stroke="#676A86" stroke-width="1" opacity="1"/><line transform="translate(253,0)" x2="0" y2="5" stroke="#676A86" stroke-width="1" opacity="1"/><line transform="translate(320,0)" x2="0" y2="5" stroke="#676A86" stroke-width="1" opacity="1"/><line transform="translate(387,0)" x2="0" y2="5" stroke="#676A86" stroke-width="1" opacity="1"/></g><g class="mark-text role-axis-label" pointer-events="none"><text text-anchor="middle" transform="translate(53.333333333333336,16)" font-family="Georgia" font-size="12px" fill="#676A86" opacity="1">1600</text><text text-anchor="middle" transform="translate(120,16)" font-family="Georgia" font-size="12px" fill="#676A86" opacity="1">1650</text><text text-anchor="middle" transform="translate(186.66666666666666,16)" font-family="Georgia" font-size="12px" fill="#676A86" opacity="1">1700</text><text text-anchor="middle" transform="translate(253.33333333333331,16)" font-family="Georgia" font-size="12px" fill="#676A86" opacity="1">1750</text><text text-anchor="middle" transform="translate(320,16)" font-family="Georgia" font-size="12px" fill="#676A86" opacity="1">1800</text><text text-anchor="middle" transform="translate(386.6666666666667,16)" font-family="Georgia" font-size="12px" fill="#676A86" opacity="1">1850</text></g><g class="mark-rule role-axis-domain" pointer-events="none"><line transform="translate(0,0)" x2="400" y2="0" stroke="#676A86" stroke-width="1" opacity="1"/></g></g><path class="foreground" aria-hidden="true" d="" pointer-events="none" display="none"/></g></g><g class="mark-group role-axis" role="graphics-symbol" aria-roledescription="axis" aria-label="Y-axis titled 'GJ' for a linear scale with values from 0 to 100"><g transform="translate(0.5,0.5)"><path class="background" aria-hidden="true" d="M0,0h0v0h0Z" pointer-events="none"/><g><g class="mark-text role-axis-label" pointer-events="none"><text text-anchor="start" transform="translate(5,294)" font-family="Georgia" font-size="12px" fill="#676A86" opacity="1">0</text><text text-anchor="start" transform="translate(5,234)" font-family="Georgia" font-size="12px" fill="#676A86" opacity="1">20</text><text text-anchor="start" transform="translate(5,174)" font-family="Georgia" font-size="12px" fill="#676A86" opacity="1">40</text><text text-anchor="start" transform="translate(5,114)" font-family="Georgia" font-size="12px" fill="#676A86" opacity="1">60</text><text text-anchor="start" transform="translate(5,53.999999999999986)" font-family="Georgia" font-size="12px" fill="#676A86" opacity="1">80</text><text text-anchor="start" transform="translate(5,-6)" font-family="Georgia" font-size="12px" fill="#676A86" opacity="1">100</text></g><g class="mark-rule role-axis-domain" pointer-events="none"><line transform="translate(0,300)" x2="0" y2="-300" stroke="#676A86" stroke-width="1" opacity="1"/></g><g class="mark-text role-axis-title" pointer-events="none"><text text-anchor="start" transform="translate(33,-5)" font-family="Georgia" font-size="10px" font-weight="normal" fill="#676A86" opacity="1">GJ</text></g></g><path class="foreground" aria-hidden="true" d="" pointer-events="none" display="none"/></g></g><g class="mark-group role-scope layer_0_layer_0_pathgroup" role="graphics-object" aria-roledescription="group mark container"><g transform="translate(0,0)"><path class="background" aria-hidden="true" d="M0,0h400v300h-400Z"/><g><g class="mark-area role-mark layer_0_layer_0_marks" role="graphics-object" aria-roledescription="area mark container"><path aria-label="Type: Human; year: 1566; y: 4" role="graphics-symbol" aria-roledescription="area mark" d="M8,286.218C25.333333333333332,286.512,42.66666666666667,286.806,60,286.806C82.22222222222221,286.806,104.44444444444444,285.911,126.66666666666666,285.51C148.88888888888889,285.109,171.11111111111111,284.4,193.33333333333334,284.4C215.55555555555557,284.4,237.77777777777777,284.568,260,284.568C282.22222222222223,284.568,304.44444444444446,283.122,326.6666666666667,283.122C348.8888888888889,283.122,371.1111111111111,284.16150000000005,393.3333333333333,285.201L393.3333333333333,295.89300000000003C371.1111111111111,295.857,348.8888888888889,295.821,326.6666666666667,295.821C304.44444444444446,295.821,282.22222222222223,297.697,260,298.125C237.77777777777777,298.553,215.55555555555557,298.609,193.33333333333334,298.767C171.11111111111111,298.925,148.88888888888889,298.986,126.66666666666666,299.073C104.44444444444444,299.15999999999997,82.22222222222221,299.2479743589743,60,299.289C42.66666666666667,299.32099999999997,25.333333333333332,299.329,8,299.337Z" fill="#F4134D" fill-opacity="0.7"/></g></g><path class="foreground" aria-hidden="true" d="" display="none"/></g><g transform="translate(0,0)"><path class="background" aria-hidden="true" d="M0,0h400v300h-400Z"/><g><g class="mark-area role-mark layer_0_layer_0_marks" role="graphics-object" aria-roledescription="area mark container"><path aria-label="Type: Draught Animal; year: 1566; y: 6" role="graphics-symbol" aria-roledescription="area mark" d="M8,248.616C25.333333333333332,253.41846,42.66666666666667,258.22092,60,258.678C82.22222222222221,259.264,104.44444444444444,259.557,126.66666666666666,259.557C148.88888888888889,259.557,171.11111111111111,255.351,193.33333333333334,255.351C215.55555555555557,255.351,237.77777777777777,256.9875,260,258.942C282.22222222222223,260.8965,304.44444444444446,264.07700000000006,326.6666666666667,267.07800000000003C348.8888888888889,270.079,371.1111111111111,273.5135,393.3333333333333,276.948L393.3333333333333,284.847C371.1111111111111,282.0495,348.8888888888889,279.25200000000007,326.6666666666667,277.49100000000004C304.44444444444446,275.73,282.22222222222223,275.099,260,274.281C237.77777777777777,273.463,215.55555555555557,272.583,193.33333333333334,272.583C171.11111111111111,272.583,148.88888888888889,273.96299999999997,126.66666666666666,273.96299999999997C104.44444444444444,273.96299999999997,82.22222222222221,273.515,60,272.619C42.66666666666667,271.92012000000005,25.333333333333332,269.58306000000005,8,267.246Z" fill="#F4C245" fill-opacity="0.7"/></g></g><path class="foreground" aria-hidden="true" d="" display="none"/></g><g transform="translate(0,0)"><path class="background" aria-hidden="true" d="M0,0h400v300h-400Z"/><g><g class="mark-area role-mark layer_0_layer_0_marks" role="graphics-object" aria-roledescription="area mark container"><path aria-label="Type: Firewood; year: 1566; y: 6" role="graphics-symbol" aria-roledescription="area mark" d="M8,267.246C25.333333333333332,269.58306000000005,42.66666666666667,271.92012000000005,60,272.619C82.22222222222221,273.515,104.44444444444444,273.96299999999997,126.66666666666666,273.96299999999997C148.88888888888889,273.96299999999997,171.11111111111111,272.583,193.33333333333334,272.583C215.55555555555557,272.583,237.77777777777777,273.463,260,274.281C282.22222222222223,275.099,304.44444444444446,275.73,326.6666666666667,277.49100000000004C348.8888888888889,279.25200000000007,371.1111111111111,282.0495,393.3333333333333,284.847L393.3333333333333,285.201C371.1111111111111,284.16150000000005,348.8888888888889,283.122,326.6666666666667,283.122C304.44444444444446,283.122,282.22222222222223,284.568,260,284.568C237.77777777777777,284.568,215.55555555555557,284.4,193.33333333333334,284.4C171.11111111111111,284.4,148.88888888888889,285.109,126.66666666666666,285.51C104.44444444444444,285.911,82.22222222222221,286.806,60,286.806C42.66666666666667,286.806,25.333333333333332,286.512,8,286.218Z" fill="#EB5C2E" fill-opacity="0.7"/></g></g><path class="foreground" aria-hidden="true" d="" display="none"/></g><g transform="translate(0,0)"><path class="background" aria-hidden="true" d="M0,0h400v300h-400Z"/><g><g class="mark-area role-mark layer_0_layer_0_marks" role="graphics-object" aria-roledescription="area mark container"><path aria-label="Type: Wind; year: 1566; y: 0" role="graphics-symbol" aria-roledescription="area mark" d="M8,299.823C25.333333333333332,299.802924494382,42.66666666666667,299.78284898876404,60,299.745C82.22222222222221,299.69647565543073,104.44444444444444,299.6175,126.66666666666666,299.541C148.88888888888889,299.4645,171.11111111111111,299.423,193.33333333333334,299.286C215.55555555555557,299.149,237.77777777777777,299.097,260,298.719C282.22222222222223,298.341,304.44444444444446,296.154,326.6666666666667,296.154C348.8888888888889,296.154,371.1111111111111,296.157,393.3333333333333,296.15999999999997L393.3333333333333,300C371.1111111111111,300,348.8888888888889,300,326.6666666666667,300C304.44444444444446,300,282.22222222222223,300,260,300C237.77777777777777,300,215.55555555555557,300,193.33333333333334,300C171.11111111111111,300,148.88888888888889,300,126.66666666666666,300C104.44444444444444,300,82.22222222222221,300,60,300C42.66666666666667,300,25.333333333333332,300,8,300Z" fill="#36B7B4" fill-opacity="0.7"/></g></g><path class="foreground" aria-hidden="true" d="" display="none"/></g><g transform="translate(0,0)"><path class="background" aria-hidden="true" d="M0,0h400v300h-400Z"/><g><g class="mark-area role-mark layer_0_layer_0_marks" role="graphics-object" aria-roledescription="area mark container"><path aria-label="Type: Water; year: 1566; y: 0" role="graphics-symbol" aria-roledescription="area mark" d="M8,299.337C25.333333333333332,299.329,42.66666666666667,299.32099999999997,60,299.289C82.22222222222221,299.2479743589743,104.44444444444444,299.15999999999997,126.66666666666666,299.073C148.88888888888889,298.986,171.11111111111111,298.925,193.33333333333334,298.767C215.55555555555557,298.609,237.77777777777777,298.553,260,298.125C282.22222222222223,297.697,304.44444444444446,295.821,326.6666666666667,295.821C348.8888888888889,295.821,371.1111111111111,295.857,393.3333333333333,295.89300000000003L393.3333333333333,296.15999999999997C371.1111111111111,296.157,348.8888888888889,296.154,326.6666666666667,296.154C304.44444444444446,296.154,282.22222222222223,298.341,260,298.719C237.77777777777777,299.097,215.55555555555557,299.149,193.33333333333334,299.286C171.11111111111111,299.423,148.88888888888889,299.4645,126.66666666666666,299.541C104.44444444444444,299.6175,82.22222222222221,299.69647565543073,60,299.745C42.66666666666667,299.78284898876404,25.333333333333332,299.802924494382,8,299.823Z" fill="#179FDB" fill-opacity="0.7"/></g></g><path class="foreground" aria-hidden="true" d="" display="none"/></g><g transform="translate(0,0)"><path class="background" aria-hidden="true" d="M0,0h400v300h-400Z"/><g><g class="mark-area role-mark layer_0_layer_0_marks" role="graphics-object" aria-roledescription="area mark container"><path aria-label="Type: Coal; year: 1566; y: 2" role="graphics-symbol" aria-roledescription="area mark" d="M8,242.499C25.333333333333332,245.85899999999998,42.66666666666667,249.219,60,249.219C82.22222222222221,249.219,104.44444444444444,245.57850000000002,126.66666666666666,239.241C148.88888888888889,232.9035,171.11111111111111,218.61200000000002,193.33333333333334,211.19400000000002C215.55555555555557,203.776,237.77777777777777,205.70700000000002,260,194.73300000000003C282.22222222222223,183.75900000000004,304.44444444444446,173.64600000000004,326.6666666666667,142.959C348.8888888888889,112.27199999999999,371.1111111111111,61.44150000000002,393.3333333333333,10.611000000000004L393.3333333333333,276.948C371.1111111111111,273.5135,348.8888888888889,270.079,326.6666666666667,267.07800000000003C304.44444444444446,264.07700000000006,282.22222222222223,260.8965,260,258.942C237.77777777777777,256.9875,215.55555555555557,255.351,193.33333333333334,255.351C171.11111111111111,255.351,148.88888888888889,259.557,126.66666666666666,259.557C104.44444444444444,259.557,82.22222222222221,259.264,60,258.678C42.66666666666667,258.22092,25.333333333333332,253.41846,8,248.616Z" fill="#676A86" fill-opacity="0.7"/></g></g><path class="foreground" aria-hidden="true" d="" display="none"/></g></g><g class="mark-group role-scope layer_0_layer_1_pathgroup" role="graphics-object" aria-roledescription="group mark container"><g transform="translate(0,0)"><path class="background" aria-hidden="true" d="M0,0h400v300h-400Z"/><g><g class="mark-line role-mark layer_0_layer_1_marks" role="graphics-object" aria-roledescription="line mark container"><path aria-label="Type: Human; year: 1566; y: 4" role="graphics-symbol" aria-roledescription="line mark" d="M8,286.218C25.333333333333332,286.512,42.66666666666667,286.806,60,286.806C82.22222222222221,286.806,104.44444444444444,285.911,126.66666666666666,285.51C148.88888888888889,285.109,171.11111111111111,284.4,193.33333333333334,284.4C215.55555555555557,284.4,237.77777777777777,284.568,260,284.568C282.22222222222223,284.568,304.44444444444446,283.122,326.6666666666667,283.122C348.8888888888889,283.122,371.1111111111111,284.16150000000005,393.3333333333333,285.201" stroke="#F4134D" stroke-width="2"/></g></g><path class="foreground" aria-hidden="true" d="" display="none"/></g><g transform="translate(0,0)"><path class="background" aria-hidden="true" d="M0,0h400v300h-400Z"/><g><g class="mark-line role-mark layer_0_layer_1_marks" role="graphics-object" aria-roledescription="line mark container"><path aria-label="Type: Draught Animal; year: 1566; y: 6" role="graphics-symbol" aria-roledescription="line mark" d="M8,248.616C25.333333333333332,253.41846,42.66666666666667,258.22092,60,258.678C82.22222222222221,259.264,104.44444444444444,259.557,126.66666666666666,259.557C148.88888888888889,259.557,171.11111111111111,255.351,193.33333333333334,255.351C215.55555555555557,255.351,237.77777777777777,256.9875,260,258.942C282.22222222222223,260.8965,304.44444444444446,264.07700000000006,326.6666666666667,267.07800000000003C348.8888888888889,270.079,371.1111111111111,273.5135,393.3333333333333,276.948" stroke="#F4C245" stroke-width="2"/></g></g><path class="foreground" aria-hidden="true" d="" display="none"/></g><g transform="translate(0,0)"><path class="background" aria-hidden="true" d="M0,0h400v300h-400Z"/><g><g class="mark-line role-mark layer_0_layer_1_marks" role="graphics-object" aria-roledescription="line mark container"><path aria-label="Type: Firewood; year: 1566; y: 6" role="graphics-symbol" aria-roledescription="line mark" d="M8,267.246C25.333333333333332,269.58306000000005,42.66666666666667,271.92012000000005,60,272.619C82.22222222222221,273.515,104.44444444444444,273.96299999999997,126.66666666666666,273.96299999999997C148.88888888888889,273.96299999999997,171.11111111111111,272.583,193.33333333333334,272.583C215.55555555555557,272.583,237.77777777777777,273.463,260,274.281C282.22222222222223,275.099,304.44444444444446,275.73,326.6666666666667,277.49100000000004C348.8888888888889,279.25200000000007,371.1111111111111,282.0495,393.3333333333333,284.847" stroke="#EB5C2E" stroke-width="2"/></g></g><path class="foreground" aria-hidden="true" d="" display="none"/></g><g transform="translate(0,0)"><path class="background" aria-hidden="true" d="M0,0h400v300h-400Z"/><g><g class="mark-line role-mark layer_0_layer_1_marks" role="graphics-object" aria-roledescription="line mark container"><path aria-label="Type: Wind; year: 1566; y: 0" role="graphics-symbol" aria-roledescription="line mark" d="M8,299.823C25.333333333333332,299.802924494382,42.66666666666667,299.78284898876404,60,299.745C82.22222222222221,299.69647565543073,104.44444444444444,299.6175,126.66666666666666,299.541C148.88888888888889,299.4645,171.11111111111111,299.423,193.33333333333334,299.286C215.55555555555557,299.149,237.77777777777777,299.097,260,298.719C282.22222222222223,298.341,304.44444444444446,296.154,326.6666666666667,296.154C348.8888888888889,296.154,371.1111111111111,296.157,393.3333333333333,296.15999999999997" stroke="#36B7B4" stroke-width="2"/></g></g><path class="foreground" aria-hidden="true" d="" display="none"/></g><g transform="translate(0,0)"><path class="background" aria-hidden="true" d="M0,0h400v300h-400Z"/><g><g class="mark-line role-mark layer_0_layer_1_marks" role="graphics-object" aria-roledescription="line mark container"><path aria-label="Type: Water; year: 1566; y: 0" role="graphics-symbol" aria-roledescription="line mark" d="M8,299.337C25.333333333333332,299.329,42.66666666666667,299.32099999999997,60,299.289C82.22222222222221,299.2479743589743,104.44444444444444,299.15999999999997,126.66666666666666,299.073C148.88888888888889,298.986,171.11111111111111,298.925,193.33333333333334,298.767C215.55555555555557,298.609,237.77777777777777,298.553,260,298.125C282.22222222222223,297.697,304.44444444444446,295.821,326.6666666666667,295.821C348.8888888888889,295.821,371.1111111111111,295.857,393.3333333333333,295.89300000000003" stroke="#179FDB" stroke-width="2"/></g></g><path class="foreground" aria-hidden="true" d="" display="none"/></g><g transform="translate(0,0)"><path class="background" aria-hidden="true" d="M0,0h400v300h-400Z"/><g><g class="mark-line role-mark layer_0_layer_1_marks" role="graphics-object" aria-roledescription="line mark container"><path aria-label="Type: Coal; year: 1566; y: 2" role="graphics-symbol" aria-roledescription="line mark" d="M8,242.499C25.333333333333332,245.85899999999998,42.66666666666667,249.219,60,249.219C82.22222222222221,249.219,104.44444444444444,245.57850000000002,126.66666666666666,239.241C148.88888888888889,232.9035,171.11111111111111,218.61200000000002,193.33333333333334,211.19400000000002C215.55555555555557,203.776,237.77777777777777,205.70700000000002,260,194.73300000000003C282.22222222222223,183.75900000000004,304.44444444444446,173.64600000000004,326.6666666666667,142.959C348.8888888888889,112.27199999999999,371.1111111111111,61.44150000000002,393.3333333333333,10.611000000000004" stroke="#676A86" stroke-width="2"/></g></g><path class="foreground" aria-hidden="true" d="" display="none"/></g></g><g class="mark-text role-mark layer_1_marks" role="graphics-object" aria-roledescription="text mark container"><text aria-label="t: Coal; x: 1855; y: 96" role="graphics-symbol" aria-roledescription="text mark" text-anchor="start" transform="translate(398.3333333333333,15.00000000000001)" font-family="Georgia" font-size="11px" fill="#676A86">Coal</text><text aria-label="t: Draught Animal; x: 1855; y: 12" role="graphics-symbol" aria-roledescription="text mark" text-anchor="start" transform="translate(398.3333333333333,267)" font-family="Georgia" font-size="11px" fill="#F4C245">Draught Animal</text><text aria-label="t: Firewood; x: 1855; y: 9" role="graphics-symbol" aria-roledescription="text mark" text-anchor="start" transform="translate(398.3333333333333,276)" font-family="Georgia" font-size="11px" fill="#EB5C2E">Firewood</text><text aria-label="t: Human; x: 1855; y: 6" role="graphics-symbol" aria-roledescription="text mark" text-anchor="start" transform="translate(398.3333333333333,285)" font-family="Georgia" font-size="11px" fill="#F4134D">Human</text><text aria-label="t: Water; x: 1855; y: 3" role="graphics-symbol" aria-roledescription="text mark" text-anchor="start" transform="translate(398.3333333333333,294)" font-family="Georgia" font-size="11px" fill="#179FDB">Water</text><text aria-label="t: Wind; x: 1855; y: 0" role="graphics-symbol" aria-roledescription="text mark" text-anchor="start" transform="translate(398.3333333333333,303)" font-family="Georgia" font-size="11px" fill="#36B7B4">Wind</text></g><g class="mark-group role-title"><g transform="translate(0,-48)"><path class="background" aria-hidden="true" d="M0,0h0v0h0Z" pointer-events="none"/><g><g class="mark-text role-title-text" role="graphics-symbol" aria-roledescription="title" aria-label="Title text 'The Rise of King Coal'" pointer-events="none"><text text-anchor="start" transform="translate(5,4)" font-family="Georgia" font-size="14px" font-weight="bold" fill="#F4134D" opacity="1">The Rise of King Coal</text></g><g class="mark-text role-title-subtitle" role="graphics-symbol" aria-roledescription="subtitle" aria-label="Subtitle text 'Energy consumption per capita in England and Wales. Source: Wrigley (2013)'" pointer-events="none"><text text-anchor="start" transform="translate(5,19)" font-family="Georgia" font-size="12px" font-style="italic" fill="#F4134D" opacity="1">Energy consumption per capita in England and Wales. Source: Wrigley (2013)</text></g></g><path class="foreground" aria-hidden="true" d="" pointer-events="none" display="none"/></g></g></g><path class="foreground" aria-hidden="true" d="" display="none"/></g></g></g></svg>