<svg xmlns="http://www.w3.org/2000/svg" xmlns:xlink="http://www.w3.org/1999/xlink" version="1.1" class="marks" width="545" height="396" viewBox="0 0 545 396"><rect width="545" height="396" fill="#122B39"/><g fill="none" stroke-miterlimit="10" transform="translate(7,58)"><g class="mark-group role-frame root" role="graphics-object" aria-roledescription="group mark container"><g transform="translate(0,0)"><path class="background" aria-hidden="true" d="M0,0h400v300h-400Z"/><g><g class="mark-group role-axis" aria-hidden="true"><g transform="translate(0.5,0.5)"><path class="background" aria-hidden="true" d="M0,0h0v0h0Z" pointer-events="none"/><g><g class="mark-rule role-axis-grid" pointer-events="none"><line transform="translate(0,300)" x2="400" y2="0" stroke="#676A86" stroke-opacity="0.1" stroke-width="1" opacity="1"/><line transform="translate(0,238)" x2="400" y2="0" stroke="#676A86" stroke-opacity="0.1" stroke-width="1" opacity="1"/><line transform="translate(0,175)" x2="400" y2="0" stroke="#676A86" stroke-opacity="0.1" stroke-width="1" opacity="1"/><line transform="translate(0,113)" x2="400" y2="0" stroke="#676A86" stroke-opacity="0.1" stroke-width="1" opacity="1"/><line transform="translate(0,50)" x2="400" y2="0" stroke="#676A86" stroke-opacity="0.1" stroke-width="1" opacity="1"/></g></g><path class="foreground" aria-hidden="true" d="" pointer-events="none" display="none"/></g></g><g class="mark-group role-axis" role="graphics-symbol" aria-roledescription="axis" aria-label="X-axis titled 'Year' for a linear scale with values from 1970 to 2020"><g transform="translate(0.5,300.5)"><path class="background" aria-hidden="true" d="M0,0h0v0h0Z" pointer-events="none"/><g><g class="mark-rule role-axis-tick" pointer-events="none"><line transform="translate(0,0)" x2="0" y2="5" stroke="#676A86" stroke-width="1" opacity="1"/><line transform="translate(40,0)" x2="0" y2="5" stroke="#676A86" stroke-width="1" opacity="1"/><line transform="translate(80,0)" x2="0" y2="5" stroke="#676A86" stroke-width="1" opacity="1"/><line transform="translate(120,0)" x2="0" y2="5" stroke="#676A86" stroke-width="1" opacity="1"/><line transform="translate(160,0)" x2="0" y2="5" stroke="#676A86" stroke-width="1" opacity="1"/><line transform="translate(200,0)" x2="0" y2="5" stroke="#676A86" stroke-width="1" opacity="1"/><line transform="translate(240,0)" x2="0" y2="5" stroke="#676A86" stroke-width="1" opacity="1"/><line transform="translate(280,0)" x2="0" y2="5" stroke="#676A86" stroke-width="1" opacity="1"/><line transform="translate(320,0)" x2="0" y2="5" stroke="#676A86" stroke-width="1" opacity="1"/><line transform="translate(360,0)" x2="0" y2="5" stroke="#676A86" stroke-width="1" opacity="1"/><line transform="translate(400,0)" x2="0" y2="5" stroke="#676A86" stroke-width="1" opacity="1"/></g><g class="mark-text role-axis-label" pointer-events="none"><text text-anchor="start" transform="translate(0,16)" font-family="Georgia" font-size="12px" fill="#676A86" opacity="1">1970</text><text text-anchor="middle" transform="translate(40,16)" font-family="Georgia" font-size="12px" fill="#676A86" opacity="0">1975</text><text text-anchor="middle" transform="translate(80,16)" font-family="Georgia" font-size="12px" fill="#676A86" opacity="1">1980</text><text text-anchor="middle" transform="translate(120,16)" font-family="Georgia" font-size="12px" fill="#676A86" opacity="0">1985</text><text text-anchor="middle" transform="translate(160,16)" font-family="Georgia" font-size="12px" fill="#676A86" opacity="1">1990</text><text text-anchor="middle" transform="translate(200,16)" font-family="Georgia" font-size="12px" fill="#676A86" opacity="0">1995</text><text text-anchor="middle" transform="translate(240,16)" font-family="Georgia" font-size="12px" fill="#676A86" opacity="1">2000</text><text text-anchor="middle" transform="translate(280,16)" font-family="Georgia" font-size="12px" fill="#676A86" opacity="0">2005</text><text text-anchor="middle" transform="translate(320,16)" font-family="Georgia" font-size="12px" fill="#676A86" opacity="1">2010</text><text text-anchor="middle" transform="translate(360,16)" font-family="Georgia" font-size="12px" fill="#676A86" opacity="0">2015</text><text text-anchor="end" transform="translate(400,16)" font-family="Georgia" font-size="12px" fill="#676A86" opacity="1">2020</text></g><g class="mark-rule role-axis-domain" pointer-events="none"><line transform="translate(0,0)" x2="400" y2="0" stroke="#676A86" stroke-width="1" opacity="1"/></g><g class="mark-text role-axis-title" pointer-events="none"><text text-anchor="middle" transform="translate(200,31)" font-family="Georgia" font-size="11px" font-weight="bold" fill="#676A86" opacity="1">Year</text></g></g><path class="foreground" aria-hidden="true" d="" pointer-events="none" display="none"/></g></g><g class="mark-group role-axis" role="graphics-symbol" aria-roledescription="axis" aria-label="Y-axis titled 'tCO₂e / person / year' for a linear scale with values from 0 to 24"><g transform="translate(0.5,0.5)"><path class="background" aria-hidden="true" d="M0,0h0v0h0Z" pointer-events="none"/><g><g class="mark-text role-axis-label" pointer-events="none"><text text-anchor="start" transform="translate(5,294)" font-family="Georgia" font-size="12px" fill="#676A86" opacity="1">0</text><text text-anchor="start" transform="translate(5,231.5)" font-family="Georgia" font-size="12px" fill="#676A86" opacity="1">5</text><text text-anchor="start" transform="translate(5,168.99999999999997)" font-family="Georgia" font-size="12px" fill="#676A86" opacity="1">10</text><text text-anchor="start" transform="translate(5,106.5)" font-family="Georgia" font-size="12px" fill="#676A86" opacity="1">15</text><text text-anchor="start" transform="translate(5,43.999999999999986)" font-family="Georgia" font-size="12px" fill="#676A86" opacity="1">20</text></g><g class="mark-rule role-axis-domain" pointer-events="none"><line transform="translate(0,300)" x2="0" y2="-300" stroke="#676A86" stroke-width="1" opacity="1"/></g><g class="mark-text role-axis-title" pointer-events="none"><text text-anchor="start" transform="translate(0,-6)" font-family="Georgia" font-size="10px" font-weight="normal" fill="#676A86" opacity="1">tCO₂e / person / year</text></g></g><path class="foreground" aria-hidden="true" d="" pointer-events="none" display="none"/></g></g><g class="mark-rule role-mark layer_0_marks" role="graphics-object" aria-roledescription="rule mark container"><line aria-label="x: 1997" role="graphics-symbol" aria-roledescription="rule mark" transform="translate(216,0)" x2="0" y2="300" stroke="#676A86" stroke-width="2" opacity="0.1"/><line aria-label="x: 2009" role="graphics-symbol" aria-roledescription="rule mark" transform="translate(312,0)" x2="0" y2="300" stroke="#676A86" stroke-width="2" opacity="0.1"/><line aria-label="x: 2015" role="graphics-symbol" aria-roledescription="rule mark" transform="translate(360,0)" x2="0" y2="300" stroke="#676A86" stroke-width="2" opacity="0.1"/></g><g class="mark-group role-scope layer_1_pathgroup" role="graphics-object" aria-roledescription="group mark container"><g transform="translate(0,0)"><path class="background" aria-hidden="true" d="M0,0h400v300h-400Z"/><g><g class="mark-line role-mark layer_1_marks" role="graphics-object" aria-roledescription="line mark container"><path aria-label="Region: Sub Saharan Africa; Year: 1970; m: 0.9151738" role="graphics-symbol" aria-roledescription="line mark" d="M0,288.5603275L8,288.2903075L16,287.71030874999997L24,286.3617875L32,285.61591250000004L40,286.4124375L48,285.8709875L56.00000000000001,286.60505L64,287.54863750000004L72,286.6713375L80,286.8159875L88,287.32955L96,287.67798L104,287.8746575L112.00000000000001,287.6452625L120,287.63334625L128,288.00935625L136,287.85541625L144,287.83155L152,288.1210875L160,288.32707L168,288.68895375L176,288.94310125L184,289.28913875L192,289.37514625L200,289.02051625L208,288.61673375L216,288.5472675L224.00000000000003,288.8280625L231.99999999999997,289.34091625L240,289.32753249999996L248,289.25155L256,289.4829125L264,289.15745875L272,288.90647625L280,288.9414275L288,289.2198625L296,289.22544375L304,288.85118625L312,289.65364750000003L320,289.40499375L328,289.73392875L336,289.55736L344,289.49894875L352,289.52243250000004L360,289.66291375000003L368,289.65173375L376,289.83334125L384,289.94786375" stroke="rgb(35, 78, 160)" stroke-width="2"/></g></g><path class="foreground" aria-hidden="true" d="" display="none"/></g><g transform="translate(0,0)"><path class="background" aria-hidden="true" d="M0,0h400v300h-400Z"/><g><g class="mark-line role-mark layer_1_marks" role="graphics-object" aria-roledescription="line mark container"><path aria-label="Region: Latin America and Caribbean; Year: 1970; m: 1.831451" role="graphics-symbol" aria-roledescription="line mark" d="M0,277.1068625L8,277.577525L16,276.7975125L24,275.4134125L32,274.8903625L40,275.09126249999997L48,273.9289875L56.00000000000001,273.556475L64,272.3040125L72,271.3679L80,270.95018749999997L88,271.5995625L96,271.8479375L104,273.22884999999997L112.00000000000001,273.342425L120,273.6181375L128,273.0912125L136,272.7442125L144,272.6700375L152,272.3160125L160,273.0660875L168,272.97985L176,272.947675L184,272.5877875L192,271.59567499999997L200,271.389975L208,269.9736625L216,268.68782500000003L224.00000000000003,268.03184999999996L231.99999999999997,268.7969L240,267.9204625L248,268.402575L256,268.851875L264,268.45545L272,267.3910875L280,266.83873750000004L288,266.3896L296,265.77477500000003L304,264.64475L312,265.9231125L320,264.1554625L328,263.76279999999997L336,262.4757375L344,262.43245L352,262.246725L360,263.22407499999997L368,263.9503375L376,264.259275L384,264.93793750000003" stroke="rgb(116, 201, 189)" stroke-width="2"/></g></g><path class="foreground" aria-hidden="true" d="" display="none"/></g><g transform="translate(0,0)"><path class="background" aria-hidden="true" d="M0,0h400v300h-400Z"/><g><g class="mark-line role-mark layer_1_marks" role="graphics-object" aria-roledescription="line mark container"><path aria-label="Region: North America; Year: 1970; m: 21.84615" role="graphics-symbol" aria-roledescription="line mark" d="M0,26.92312499999997L8,36.07212500000002L16,24.42525000000001L24,16.166875000000015L32,27.127249999999993L40,41.34387500000002L48,28.128999999999994L56.00000000000001,21.698249999999998L64,24.47512500000002L72,24.395625L80,37.979375000000026L88,44.81112500000002L96,60.031124999999975L104,63.486625L112.00000000000001,54.844875L120,55.97500000000003L128,60.686125000000004L136,55.278874999999985L144,46.195999999999984L152,45.43712499999999L160,53.9165L168,58.481750000000034L176,56.7535L184,54.05875L192,52.31462499999998L200,52.29737499999997L208,48.396749999999976L216,43.53099999999998L224.00000000000003,45.798624999999994L231.99999999999997,47.51837499999997L240,41.28025000000002L248,46.540375000000026L256,51.74162500000003L264,50.21200000000001L272,49.47187500000001L280,50.87674999999997L288,57.41125000000002L296,55.548500000000004L304,65.62225000000001L312,84.32750000000001L320,76.81462500000002L328,82.95187500000002L336,91.04749999999999L344,89.50425000000003L352,88.30012499999998L360,95.76825000000004L368,99.57187499999999L376,101.886375L384,98.29625" stroke="rgb(41, 151, 190)" stroke-width="2"/></g></g><path class="foreground" aria-hidden="true" d="" display="none"/></g><g transform="translate(0,0)"><path class="background" aria-hidden="true" d="M0,0h400v300h-400Z"/><g><g class="mark-line role-mark layer_1_marks" role="graphics-object" aria-roledescription="line mark container"><path aria-label="Region: East Asia and Pacific; Year: 1970; m: 1.681293" role="graphics-symbol" aria-roledescription="line mark" d="M0,278.9838375L8,279.4429L16,278.6996125L24,277.4491875L32,277.5406625L40,276.9581L48,276.514825L56.00000000000001,274.9087L64,272.84665L72,272.3991625L80,273.12870000000004L88,273.70709999999997L96,273.7543625L104,273.34461250000004L112.00000000000001,271.8485625L120,272.0415875L128,271.6167625L136,270.8255375L144,269.2197375L152,268.6089L160,267.8110375L168,266.91515L176,266.17708749999997L184,264.6793875L192,263.156125L200,260.7876L208,260.672025L216,260.2100875L224.00000000000003,260.7442L231.99999999999997,260.7052875L240,258.970325L248,257.933975L256,255.96822500000002L264,251.9284625L272,247.40972499999998L280,243.3753625L288,239.5276875L296,235.4871L304,235.2317875L312,232.926875L320,228.2412375L328,223.2444L336,222.033375L344,219.7631625L352,219.5493125L360,220.05837499999998L368,219.20289999999997L376,218.63325000000003L384,217.74475" stroke="rgb(212, 238, 180)" stroke-width="2"/></g></g><path class="foreground" aria-hidden="true" d="" display="none"/></g><g transform="translate(0,0)"><path class="background" aria-hidden="true" d="M0,0h400v300h-400Z"/><g><g class="mark-line role-mark layer_1_marks" role="graphics-object" aria-roledescription="line mark container"><path aria-label="Region: Europe and Central Asia; Year: 1970; m: 9.003093" role="graphics-symbol" aria-roledescription="line mark" d="M0,187.4613375L8,188.29355L16,184.89637499999998L24,179.37287500000002L32,179.84357500000002L40,180.04779999999997L48,174.54712500000002L56.00000000000001,174.40762499999997L64,169.65012499999997L72,166.84537500000002L80,168.277625L88,172.95024999999998L96,174.85550000000003L104,175.3707875L112.00000000000001,175.419875L120,174.8505L128,173.648625L136,171.8425L144,171.71462499999998L152,172.2685L160,172.07025000000002L168,174.92775L176,182.74681249999998L184,189.65885L192,196.0448L200,196.7288L208,196.90000000000003L216,200.27255000000002L224.00000000000003,200.4583L231.99999999999997,201.165275L240,200.1782L248,199.6354375L256,199.99683750000003L264,197.15720000000002L272,197.14943750000003L280,197.92051250000003L288,196.39485000000002L296,196.76586250000003L304,197.93657499999998L312,206.3499625L320,202.5678875L328,202.98090000000002L336,203.4609125L344,206.0694125L352,209.6333875L360,209.9605625L368,209.8570875L376,209.3474375L384,209.056025" stroke="rgb(169, 221, 183)" stroke-width="2"/></g></g><path class="foreground" aria-hidden="true" d="" display="none"/></g><g transform="translate(0,0)"><path class="background" aria-hidden="true" d="M0,0h400v300h-400Z"/><g><g class="mark-line role-mark layer_1_marks" role="graphics-object" aria-roledescription="line mark container"><path aria-label="Region: South Asia; Year: 1970; m: 0.3672203" role="graphics-symbol" aria-roledescription="line mark" d="M0,295.40974625L8,295.47864375L16,295.404555L24,295.50526375L32,295.300585L40,295.0897925L48,294.91385375L56.00000000000001,294.92559625L64,295.4734175L72,295.23932625L80,295.13875625000003L88,294.80793125L96,294.5765025L104,294.37828125L112.00000000000001,294.03256125L120,293.861565L128,293.6074225L136,293.24550875L144,293.00038624999996L152,292.69944L160,292.46939125L168,292.13099625L176,291.96788625L184,291.74123875L192,291.41934L200,290.946395L208,290.70604875L216,290.43755875L224.00000000000003,290.45763999999997L231.99999999999997,289.88931375L240,289.72503374999997L248,289.7032875L256,289.52391125L264,289.43278749999996L272,288.72815125L280,288.41490749999997L288,287.84793625000003L296,286.98539999999997L304,286.473725L312,285.251525L320,284.76977500000004L328,284.17753749999997L336,283.2841L344,283.167225L352,281.9103L360,281.541325L368,281.0676375L376,280.64535L384,279.5792125" stroke="rgb(33, 115, 177)" stroke-width="2"/></g></g><path class="foreground" aria-hidden="true" d="" display="none"/></g><g transform="translate(0,0)"><path class="background" aria-hidden="true" d="M0,0h400v300h-400Z"/><g><g class="mark-line role-mark layer_1_marks" role="graphics-object" aria-roledescription="line mark container"><path aria-label="Region: Middle East and North Africa; Year: 1970; m: 2.57542" role="graphics-symbol" aria-roledescription="line mark" d="M0,267.80725L8,266.543175L16,263.5425125L24,258.8524625L32,259.94939999999997L40,260.6923375L48,255.41789999999997L56.00000000000001,255.1405625L64,254.3161875L72,254.00586249999998L80,254.71615L88,258.3234125L96,256.76133749999997L104,255.7851375L112.00000000000001,257.6763875L120,256.9218125L128,257.30107499999997L136,256.5773125L144,255.9617875L152,254.53583749999999L160,255.1257875L168,254.1508375L176,253.3948125L184,252.0498625L192,249.5214875L200,247.70944999999998L208,246.874875L216,245.58025L224.00000000000003,246.70055L231.99999999999997,245.7575625L240,244.4617125L248,242.57418750000002L256,241.56292499999998L264,240.5236625L272,238.4372375L280,235.47221249999998L288,233.255625L296,231.6421625L304,229.26707499999998L312,227.529425L320,226.08078749999999L328,226.04066250000002L336,223.96545L344,223.5186875L352,222.2742875L360,222.82322500000004L368,222.05281250000002L376,221.2772625L384,220.72463750000003" stroke="rgb(69, 180, 194)" stroke-width="2"/></g></g><path class="foreground" aria-hidden="true" d="" display="none"/></g></g><g class="mark-text role-mark layer_2_marks" role="graphics-object" aria-roledescription="text mark container"><text aria-label="Region: Sub Saharan Africa; Year: 2018; m: 0.8041709" role="graphics-symbol" aria-roledescription="text mark" text-anchor="start" transform="translate(389,292.94786375)" font-family="Georgia" font-size="11px" fill="rgb(35, 78, 160)">Sub Saharan Africa</text><text aria-label="Region: Latin America and Caribbean; Year: 2018; m: 2.804965" role="graphics-symbol" aria-roledescription="text mark" text-anchor="start" transform="translate(389,267.93793750000003)" font-family="Georgia" font-size="11px" fill="rgb(116, 201, 189)">Latin America and Caribbean</text><text aria-label="Region: North America; Year: 2018; m: 16.1363" role="graphics-symbol" aria-roledescription="text mark" text-anchor="start" transform="translate(389,101.29625)" font-family="Georgia" font-size="11px" fill="rgb(41, 151, 190)">North America</text><text aria-label="Region: East Asia and Pacific; Year: 2018; m: 6.58042" role="graphics-symbol" aria-roledescription="text mark" text-anchor="start" transform="translate(389,220.74475)" font-family="Georgia" font-size="11px" fill="rgb(212, 238, 180)">East Asia and Pacific</text><text aria-label="Region: Europe and Central Asia; Year: 2018; m: 7.275518" role="graphics-symbol" aria-roledescription="text mark" text-anchor="start" transform="translate(389,212.056025)" font-family="Georgia" font-size="11px" fill="rgb(169, 221, 183)">Europe and Central Asia</text><text aria-label="Region: South Asia; Year: 2018; m: 1.633663" role="graphics-symbol" aria-roledescription="text mark" text-anchor="start" transform="translate(389,282.5792125)" font-family="Georgia" font-size="11px" fill="rgb(33, 115, 177)">South Asia</text></g><g class="mark-text role-mark layer_3_marks" role="graphics-object" aria-roledescription="text mark container"><text aria-label="Region: Middle East and North Africa; Year: 2018; m: 6.342029" role="graphics-symbol" aria-roledescription="text mark" text-anchor="start" transform="translate(389,229.72463750000003)" font-family="Georgia" font-size="11px" fill="rgb(69, 180, 194)">Middle East and North Africa</text></g><g class="mark-text role-mark layer_4_marks" role="graphics-object" aria-roledescription="text mark container"><text aria-label="t: Kyoto; x: 1997; y: 23.5" role="graphics-symbol" aria-roledescription="text mark" text-anchor="end" transform="translate(211,9.25000000000001)" font-family="Georgia" font-size="10px" fill="#5d5f79">Kyoto</text><text aria-label="t: 1997; x: 1997; y: 22.5" role="graphics-symbol" aria-roledescription="text mark" text-anchor="end" transform="translate(211,21.75)" font-family="Georgia" font-size="10px" fill="#5d5f79">1997</text></g><g class="mark-text role-mark layer_5_marks" role="graphics-object" aria-roledescription="text mark container"><text aria-label="t: Copenhagen; x: 2009; y: 23.5" role="graphics-symbol" aria-roledescription="text mark" text-anchor="end" transform="translate(307,9.25000000000001)" font-family="Georgia" font-size="10px" fill="#5d5f79">Copenhagen</text><text aria-label="t: 2009; x: 2009; y: 22.5" role="graphics-symbol" aria-roledescription="text mark" text-anchor="end" transform="translate(307,21.75)" font-family="Georgia" font-size="10px" fill="#5d5f79">2009</text></g><g class="mark-text role-mark layer_6_marks" role="graphics-object" aria-roledescription="text mark container"><text aria-label="t: Paris; x: 2015; y: 23.5" role="graphics-symbol" aria-roledescription="text mark" text-anchor="end" transform="translate(355,9.25000000000001)" font-family="Georgia" font-size="10px" fill="#5d5f79">Paris</text><text aria-label="t: 2015; x: 2015; y: 22.5" role="graphics-symbol" aria-roledescription="text mark" text-anchor="end" transform="translate(355,21.75)" font-family="Georgia" font-size="10px" fill="#5d5f79">2015</text></g><g class="mark-group role-title"><g transform="translate(-2,-46)"><path class="background" aria-hidden="true" d="M0,0h0v0h0Z" pointer-events="none"/><g><g class="mark-text role-title-text" role="graphics-symbol" aria-roledescription="title" aria-label="Title text 'CO₂ Emissions per capita by region'" pointer-events="none"><text text-anchor="start" transform="translate(0,4)" font-family="Georgia" font-size="14px" font-weight="bold" fill="#F4134D" opacity="1">CO₂ Emissions per capita by region</text></g><g class="mark-text role-title-subtitle" role="graphics-symbol" aria-roledescription="subtitle" aria-label="Subtitle text 'Tonnes of CO₂ equivalent. Source: Author's calculations'" pointer-events="none"><text text-anchor="start" transform="translate(0,19)" font-family="Georgia" font-size="12px" font-style="italic" fill="#F4134D" opacity="1">Tonnes of CO₂ equivalent. Source: Author's calculations</text></g></g><path class="foreground" aria-hidden="true" d="" pointer-events="none" display="none"/></g></g></g><path class="foreground" aria-hidden="true" d="" display="none"/></g></g></g></svg>