<svg xmlns="http://www.w3.org/2000/svg" xmlns:xlink="http://www.w3.org/1999/xlink" version="1.1" class="marks" width="613" height="383" viewBox="0 0 613 383"><rect width="613" height="383" fill="#122B39"/><g fill="none" stroke-miterlimit="10" transform="translate(7,60)"><g class="mark-group role-frame root" role="graphics-object" aria-roledescription="group mark container"><g transform="translate(0,0)"><path class="background" aria-hidden="true" d="M0,0h400v300h-400Z"/><g><g class="mark-group role-axis" aria-hidden="true"><g transform="translate(0.5,0.5)"><path class="background" aria-hidden="true" d="M0,0h0v0h0Z" pointer-events="none"/><g><g class="mark-rule role-axis-grid" pointer-events="none"><line transform="translate(0,300)" x2="400" y2="0" stroke="#676A86" stroke-opacity="0.1" stroke-width="1" opacity="1"/><line transform="translate(0,263)" x2="400" y2="0" stroke="#676A86" stroke-opacity="0.1" stroke-width="1" opacity="1"/><line transform="translate(0,225)" x2="400" y2="0" stroke="#676A86" stroke-opacity="0.1" stroke-width="1" opacity="1"/><line transform="translate(0,188)" x2="400" y2="0" stroke="#676A86" stroke-opacity="0.1" stroke-width="1" opacity="1"/><line transform="translate(0,150)" x2="400" y2="0" stroke="#676A86" stroke-opacity="0.1" stroke-width="1" opacity="1"/><line transform="translate(0,113)" x2="400" y2="0" stroke="#676A86" stroke-opacity="0.1" stroke-width="1" opacity="1"/><line transform="translate(0,75)" x2="400" y2="0" stroke="#676A86" stroke-opacity="0.1" stroke-width="1" opacity="1"/><line transform="translate(0,38)" x2="400" y2="0" stroke="#676A86" stroke-opacity="0.1" stroke-width="1" opacity="1"/><line transform="translate(0,0)" x2="400" y2="0" stroke="#676A86" stroke-opacity="0.1" stroke-width="1" opacity="1"/></g></g><path class="foreground" aria-hidden="true" d="" pointer-events="none" display="none"/></g></g><g class="mark-group role-axis" role="graphics-symbol" aria-roledescription="axis" aria-label="X-axis for a time scale with values from Thursday, 01 January 1970, 12:00:00 AM to Monday, 01 January 2018, 12:00:00 AM"><g transform="translate(0.5,300.5)"><path class="background" aria-hidden="true" d="M0,0h0v0h0Z" pointer-events="none"/><g><g class="mark-rule role-axis-tick" pointer-events="none"><line transform="translate(0,0)" x2="0" y2="5" stroke="#676A86" stroke-width="1" opacity="1"/><line transform="translate(42,0)" x2="0" y2="5" stroke="#676A86" stroke-width="1" opacity="1"/><line transform="translate(83,0)" x2="0" y2="5" stroke="#676A86" stroke-width="1" opacity="1"/><line transform="translate(125,0)" x2="0" y2="5" stroke="#676A86" stroke-width="1" opacity="1"/><line transform="translate(167,0)" x2="0" y2="5" stroke="#676A86" stroke-width="1" opacity="1"/><line transform="translate(208,0)" x2="0" y2="5" stroke="#676A86" stroke-width="1" opacity="1"/><line transform="translate(250,0)" x2="0" y2="5" stroke="#676A86" stroke-width="1" opacity="1"/><line transform="translate(292,0)" x2="0" y2="5" stroke="#676A86" stroke-width="1" opacity="1"/><line transform="translate(333,0)" x2="0" y2="5" stroke="#676A86" stroke-width="1" opacity="1"/><line transform="translate(375,0)" x2="0" y2="5" stroke="#676A86" stroke-width="1" opacity="1"/></g><g class="mark-text role-axis-label" pointer-events="none"><text text-anchor="start" transform="translate(0,16)" font-family="Georgia" font-size="12px" fill="#676A86" opacity="1">1970</text><text text-anchor="middle" transform="translate(41.66096281086014,16)" font-family="Georgia" font-size="12px" fill="#676A86" opacity="0">1975</text><text text-anchor="middle" transform="translate(83.32192562172028,16)" font-family="Georgia" font-size="12px" fill="#676A86" opacity="1">1980</text><text text-anchor="middle" transform="translate(125.00570385580652,16)" font-family="Georgia" font-size="12px" fill="#676A86" opacity="0">1985</text><text text-anchor="middle" transform="translate(166.66666666666669,16)" font-family="Georgia" font-size="12px" fill="#676A86" opacity="1">1990</text><text text-anchor="middle" transform="translate(208.32762947752678,16)" font-family="Georgia" font-size="12px" fill="#676A86" opacity="0">1995</text><text text-anchor="middle" transform="translate(249.98859228838697,16)" font-family="Georgia" font-size="12px" fill="#676A86" opacity="1">2000</text><text text-anchor="middle" transform="translate(291.6723705224732,16)" font-family="Georgia" font-size="12px" fill="#676A86" opacity="0">2005</text><text text-anchor="middle" transform="translate(333.33333333333337,16)" font-family="Georgia" font-size="12px" fill="#676A86" opacity="1">2010</text><text text-anchor="middle" transform="translate(374.99429614419347,16)" font-family="Georgia" font-size="12px" fill="#676A86" opacity="0">2015</text></g><g class="mark-rule role-axis-domain" pointer-events="none"><line transform="translate(0,0)" x2="400" y2="0" stroke="#676A86" stroke-width="1" opacity="1"/></g></g><path class="foreground" aria-hidden="true" d="" pointer-events="none" display="none"/></g></g><g class="mark-group role-axis" role="graphics-symbol" aria-roledescription="axis" aria-label="Y-axis titled 'GtCO₂e / year' for a linear scale with values from 0 to 16"><g transform="translate(0.5,0.5)"><path class="background" aria-hidden="true" d="M0,0h0v0h0Z" pointer-events="none"/><g><g class="mark-text role-axis-label" pointer-events="none"><text text-anchor="start" transform="translate(5,294)" font-family="Georgia" font-size="12px" fill="#676A86" opacity="1">0</text><text text-anchor="start" transform="translate(5,256.5)" font-family="Georgia" font-size="12px" fill="#676A86" opacity="1">2</text><text text-anchor="start" transform="translate(5,219)" font-family="Georgia" font-size="12px" fill="#676A86" opacity="1">4</text><text text-anchor="start" transform="translate(5,181.5)" font-family="Georgia" font-size="12px" fill="#676A86" opacity="1">6</text><text text-anchor="start" transform="translate(5,144)" font-family="Georgia" font-size="12px" fill="#676A86" opacity="1">8</text><text text-anchor="start" transform="translate(5,106.5)" font-family="Georgia" font-size="12px" fill="#676A86" opacity="1">10</text><text text-anchor="start" transform="translate(5,69)" font-family="Georgia" font-size="12px" fill="#676A86" opacity="1">12</text><text text-anchor="start" transform="translate(5,31.5)" font-family="Georgia" font-size="12px" fill="#676A86" opacity="1">14</text><text text-anchor="start" transform="translate(5,-6)" font-family="Georgia" font-size="12px" fill="#676A86" opacity="1">16</text></g><g class="mark-rule role-axis-domain" pointer-events="none"><line transform="translate(0,300)" x2="0" y2="-300" stroke="#676A86" stroke-width="1" opacity="1"/></g><g class="mark-text role-axis-title" pointer-events="none"><text text-anchor="start" transform="translate(23,-6)" font-family="Georgia" font-size="10px" font-weight="normal" fill="#676A86" opacity="1">GtCO₂e / year</text></g></g><path class="foreground" aria-hidden="true" d="" pointer-events="none" display="none"/></g></g><g class="mark-rule role-mark layer_0_marks" role="graphics-object" aria-roledescription="rule mark container"><line aria-label="Lines: Jan 01, 1997" role="graphics-symbol" aria-roledescription="rule mark" transform="translate(225.00570385580653,0)" x2="0" y2="300" stroke="#676A86" stroke-width="2" opacity="0.1"/><line aria-label="Lines: Jan 01, 2009" role="graphics-symbol" aria-roledescription="rule mark" transform="translate(325.00570385580653,0)" x2="0" y2="300" stroke="#676A86" stroke-width="2" opacity="0.1"/><line aria-label="Lines: Jan 01, 2015" role="graphics-symbol" aria-roledescription="rule mark" transform="translate(374.99429614419347,0)" x2="0" y2="300" stroke="#676A86" stroke-width="2" opacity="0.1"/></g><g class="mark-group role-scope layer_1_pathgroup" role="graphics-object" aria-roledescription="group mark container"><g transform="translate(0,0)"><path class="background" aria-hidden="true" d="M0,0h400v300h-400Z"/><g><g class="mark-line role-mark layer_1_marks" role="graphics-object" aria-roledescription="line mark container"><path aria-label="Region: Sub Saharan Africa; Year: Jan 01, 1970; m: 0.2714065" role="graphics-symbol" aria-roledescription="line mark" d="M0,294.911128125L8.32762947752681,294.65831249999997L16.65525895505362,294.242435625L25.005703855806527,293.435955L33.33333333333333,292.893015L41.66096281086014,293.086929375L49.988592288386954,292.6146825L58.339037189139866,292.784926875L66.66666666666666,293.10439875000003L74.99429614419347,292.42172625L83.32192562172028,292.279453125L91.67237052247319,292.36042125L100,292.3575825L108.32762947752681,292.269496875L116.65525895505363,291.907786875L125.00570385580652,291.677563125L133.33333333333331,291.710368125L141.66096281086013,291.375485625L149.98859228838694,291.11792625L158.33903718913987,291.0963675L166.66666666666669,291.00719625L174.99429614419347,291.04628249999996L183.32192562172028,291.012046875L191.6723705224732,291.05092125L200,290.8738575L208.32762947752678,290.31700875L216.65525895505363,289.69555125L225.00570385580653,289.34851875L233.33333333333334,289.32994125L241.66096281086013,289.545714375L249.98859228838697,289.250491875L258.33903718913984,288.8783175L266.66666666666663,288.8143125L274.99429614419347,288.1564725L283.32192562172025,287.54979L291.6723705224732,287.252746875L300,287.239215L308.3276294775268,286.91184375L316.6552589550536,286.11651375L325.00570385580653,286.77585L333.33333333333337,286.106925L341.66096281086016,286.17034125L349.98859228838694,285.59672812499997L358.33903718913984,285.156755625L366.66666666666663,284.794033125L374.99429614419347,284.5877325L383.32192562172025,284.163163125L391.6723705224732,284.01772875L400,283.782050625" stroke="rgb(35, 78, 160)" stroke-width="2"/></g></g><path class="foreground" aria-hidden="true" d="" display="none"/></g><g transform="translate(0,0)"><path class="background" aria-hidden="true" d="M0,0h400v300h-400Z"/><g><g class="mark-line role-mark layer_1_marks" role="graphics-object" aria-roledescription="line mark container"><path aria-label="Region: Latin America and Caribbean; Year: Jan 01, 1970; m: 0.5315656" role="graphics-symbol" aria-roledescription="line mark" d="M0,290.033145L8.32762947752681,289.992283125L16.65525895505362,289.3740375L25.005703855806527,288.45871312500003L33.33333333333333,287.949463125L41.66096281086014,287.731951875L49.988592288386954,286.87968L58.339037189139866,286.3745175L66.66666666666666,285.40347L74.99429614419347,284.584820625L83.32192562172028,284.01081937500004L91.67237052247319,284.015990625L100,283.815481875L108.32762947752681,284.284434375L116.65525895505363,284.018565L125.00570385580652,283.86528749999997L133.33333333333331,283.215200625L141.66096281086013,282.65219437499997L149.98859228838694,282.27353999999997L158.33903718913987,281.697894375L166.66666666666669,281.852424375L174.99429614419347,281.45172L183.32192562172028,281.09293125L191.6723705224732,280.4960625L200,279.43715625L208.32762947752678,278.94226875L216.65525895505363,277.54528125L225.00570385580653,276.2140125L233.33333333333334,275.33685L241.66096281086013,275.56633125L249.98859228838697,274.52120625L258.33903718913984,274.55199375L266.66666666666663,274.5807375L274.99429614419347,273.92647500000004L283.32192562172025,272.7084375L291.6723705224732,271.90306875L300,271.16296875L308.3276294775268,270.26015625L316.6552589550536,268.88896875L325.00570385580653,269.63709374999996L333.33333333333337,267.67539375L341.66096281086016,266.94114375000004L349.98859228838694,265.33809375L358.33903718913984,264.90234375L366.66666666666663,264.3618L374.99429614419347,264.885375L383.32192562172025,265.17204375L391.6723705224732,265.09768125L400,265.420125" stroke="rgb(116, 201, 189)" stroke-width="2"/></g></g><path class="foreground" aria-hidden="true" d="" display="none"/></g><g transform="translate(0,0)"><path class="background" aria-hidden="true" d="M0,0h400v300h-400Z"/><g><g class="mark-line role-mark layer_1_marks" role="graphics-object" aria-roledescription="line mark container"><path aria-label="Region: North America; Year: Jan 01, 1970; m: 5.050316" role="graphics-symbol" aria-roledescription="line mark" d="M0,205.30657500000004L8.32762947752681,207.5853L16.65525895505362,202.58988750000003L25.005703855806527,198.71450624999997L33.33333333333333,201.69729375L41.66096281086014,205.92558749999998L49.988592288386954,200.16345L58.339037189139866,196.81389375L66.66666666666666,196.85698125L74.99429614419347,195.83544375L83.32192562172028,200.0178375L91.67237052247319,201.68966250000003L100,206.67138749999998L108.32762947752681,207.13912499999998L116.65525895505363,202.82546250000001L125.00570385580652,202.34101875L133.33333333333331,203.292L141.66096281086013,200.12671875L149.98859228838694,195.38848125L158.33903718913987,194.01931875L166.66666666666669,196.51805624999997L174.99429614419347,197.4310125L183.32192562172028,195.67681875L191.6723705224732,193.46122499999998L200,191.5806L208.32762947752678,190.37825625L216.65525895505363,187.35388125L225.00570385580653,183.7833L233.33333333333334,183.40700625000002L241.66096281086013,182.83456874999996L249.98859228838697,178.61870624999997L258.33903718913984,179.88331875L266.66666666666663,181.24719374999998L274.99429614419347,179.456625L283.32192562172025,178.03670625L291.6723705224732,177.62745L300,179.72728125L308.3276294775268,177.65126250000003L316.6552589550536,181.58199375L325.00570385580653,190.03310625L333.33333333333337,185.21833125L341.66096281086016,187.46733749999999L349.98859228838694,190.83256875L358.33903718913984,189.21832500000002L366.66666666666663,187.78130625L374.99429614419347,190.9560375L383.32192562172025,192.20765625L391.6723705224732,192.67550624999998L400,189.93384375000002" stroke="rgb(41, 151, 190)" stroke-width="2"/></g></g><path class="foreground" aria-hidden="true" d="" display="none"/></g><g transform="translate(0,0)"><path class="background" aria-hidden="true" d="M0,0h400v300h-400Z"/><g><g class="mark-line role-mark layer_1_marks" role="graphics-object" aria-roledescription="line mark container"><path aria-label="Region: East Asia and Pacific; Year: Jan 01, 1970; m: 2.196186" role="graphics-symbol" aria-roledescription="line mark" d="M0,258.8215125L8.32762947752681,258.73638750000003L16.65525895505362,256.186575L25.005703855806527,252.452775L33.33333333333333,251.80370625L41.66096281086014,249.61681875L49.988592288386954,247.53285L58.339037189139866,243.0204375L66.66666666666666,237.32491875000002L74.99429614419347,235.26598124999998L83.32192562172028,235.84910625L91.67237052247319,236.37676875L100,235.51899375L108.32762947752681,233.40135L116.65525895505363,228.5644125L125.00570385580652,227.887575L133.33333333333331,225.3164625L141.66096281086013,221.81278125L149.98859228838694,215.86423125L158.33903718913987,212.63979375000002L166.66666666666669,209.07890625L174.99429614419347,205.10039999999998L183.32192562172028,201.58696875L191.6723705224732,195.8802L200,190.1344875L208.32762947752678,181.86223124999998L216.65525895505363,180.2298L225.00570385580653,177.48489375L233.33333333333334,177.80075625000003L241.66096281086013,176.5113375L249.98859228838697,169.81824375L258.33903718913984,165.51133124999998L266.66666666666663,158.17231875000002L274.99429614419347,144.16655625L283.32192562172025,128.44664999999998L291.6723705224732,114.09864375000002L300,100.19774999999997L308.3276294775268,85.52737499999998L316.6552589550536,83.40299999999999L325.00570385580653,74.49543750000002L333.33333333333337,56.98368749999997L341.66096281086016,38.47200000000001L349.98859228838694,32.651624999999996L358.33903718913984,22.99706250000002L366.66666666666663,20.33737499999999L374.99429614419347,20.285812500000013L383.32192562172025,15.48131250000001L391.6723705224732,11.71293750000002L400,7.036312500000008" stroke="rgb(212, 238, 180)" stroke-width="2"/></g></g><path class="foreground" aria-hidden="true" d="" display="none"/></g><g transform="translate(0,0)"><path class="background" aria-hidden="true" d="M0,0h400v300h-400Z"/><g><g class="mark-line role-mark layer_1_marks" role="graphics-object" aria-roledescription="line mark container"><path aria-label="Region: Europe and Central Asia; Year: Jan 01, 1970; m: 6.5852" role="graphics-symbol" aria-roledescription="line mark" d="M0,176.5275L8.32762947752681,176.44535625000003L16.65525895505362,171.71259375L25.005703855806527,164.5123875L33.33333333333333,163.97353125L41.66096281086014,163.1049L49.988592288386954,155.77156875L58.339037189139866,154.5901125L66.66666666666666,148.06569374999998L74.99429614419347,143.77644374999997L83.32192562172028,144.498375L91.67237052247319,148.93162500000003L100,150.24253125L108.32762947752681,149.86659375L116.65525895505363,148.9892625L125.00570385580652,147.33155625L133.33333333333331,144.88130625L141.66096281086013,141.756225L149.98859228838694,140.60949375L158.33903718913987,140.44220625000003L166.66666666666669,138.72811875L174.99429614419347,141.76213125L183.32192562172028,151.10596875L191.6723705224732,159.40363125L200,167.13905624999998L208.32762947752678,167.70414375L216.65525895505363,167.662575L225.00570385580653,171.78976874999998L233.33333333333334,171.88327499999997L241.66096281086013,172.721175L249.98859228838697,171.19768125L258.33903718913984,170.26933125L266.66666666666663,170.42763749999997L274.99429614419347,166.36659375L283.32192562172025,165.91959375000002L291.6723705224732,166.50504375L300,164.0227125L308.3276294775268,164.01645L316.6552589550536,165.04925625L325.00570385580653,175.726875L333.33333333333337,170.20599375000003L341.66096281086016,170.1606375L349.98859228838694,170.36739375000002L358.33903718913984,173.3917875L366.66666666666663,177.76873125L374.99429614419347,177.77199375L383.32192562172025,177.22799999999998L391.6723705224732,176.12625L400,175.31951249999997" stroke="rgb(169, 221, 183)" stroke-width="2"/></g></g><path class="foreground" aria-hidden="true" d="" display="none"/></g><g transform="translate(0,0)"><path class="background" aria-hidden="true" d="M0,0h400v300h-400Z"/><g><g class="mark-line role-mark layer_1_marks" role="graphics-object" aria-roledescription="line mark container"><path aria-label="Region: South Asia; Year: Jan 01, 1970; m: 0.2614283" role="graphics-symbol" aria-roledescription="line mark" d="M0,295.098219375L8.32762947752681,295.060741875L16.65525895505362,294.86413500000003L25.005703855806527,294.860236875L33.33333333333333,294.50107125L41.66096281086014,294.11913375L49.988592288386954,293.7641475L58.339037189139866,293.63023125L66.66666666666666,294.1812L74.99429614419347,293.73343124999997L83.32192562172028,293.44732500000003L91.67237052247319,292.834295625L100,292.3358025L108.32762947752681,291.86733937500003L116.65525895505363,291.16351125L125.00570385580652,290.696814375L133.33333333333331,290.08734937500003L141.66096281086013,289.285336875L149.98859228838694,288.64413L158.33903718913987,287.889481875L166.66666666666669,287.22944812500003L174.99429614419347,286.36204875L183.32192562172028,285.773731875L191.6723705224732,285.056685L200,284.1452925L208.32762947752678,282.92350125L216.65525895505363,282.116101875L225.00570385580653,281.2356L233.33333333333334,280.9132125L241.66096281086013,279.39356250000003L249.98859228838697,278.6662875L258.33903718913984,278.22646875L266.66666666666663,277.44568125L274.99429614419347,276.84868125L283.32192562172025,274.88473125L291.6723705224732,273.75515624999997L300,272.02995L308.3276294775268,269.58155625L316.6552589550536,267.894375L325.00570385580653,264.46612500000003L333.33333333333337,262.76371875L341.66096281086016,260.76549375L349.98859228838694,257.9731875L358.33903718913984,257.11239375L366.66666666666663,253.29519375000004L374.99429614419347,251.72064375L383.32192562172025,249.84384375000002L391.6723705224732,248.08561874999998L400,244.53744375" stroke="rgb(33, 115, 177)" stroke-width="2"/></g></g><path class="foreground" aria-hidden="true" d="" display="none"/></g><g transform="translate(0,0)"><path class="background" aria-hidden="true" d="M0,0h400v300h-400Z"/><g><g class="mark-line role-mark layer_1_marks" role="graphics-object" aria-roledescription="line mark container"><path aria-label="Region: Middle East and North Africa; Year: Jan 01, 1970; m: 0.3567005" role="graphics-symbol" aria-roledescription="line mark" d="M0,293.311865625L8.32762947752681,292.855875L16.65525895505362,291.99716625L25.005703855806527,290.717143125L33.33333333333333,290.708368125L41.66096281086014,290.61607125L49.988592288386954,289.03843125000003L58.339037189139866,288.638229375L66.66666666666666,288.07221562499996L74.99429614419347,287.61801375L83.32192562172028,287.40999375L91.67237052247319,288.028284375L100,287.164036875L108.32762947752681,286.43245875L116.65525895505363,286.574379375L125.00570385580652,285.88719375L133.33333333333331,285.562935L141.66096281086013,284.85781875000004L149.98859228838694,284.17886250000004L158.33903718913987,283.19410125L166.66666666666669,282.96602812500004L174.99429614419347,282.16789125L183.32192562172028,281.07313125L191.6723705224732,279.97288125L200,278.381775L208.32762947752678,277.80553125L216.65525895505363,276.97927500000003L225.00570385580653,275.93353125L233.33333333333334,275.94823125L241.66096281086013,275.0344875L249.98859228838697,273.9349875L258.33903718913984,272.52999375L266.66666666666663,271.515375L274.99429614419347,270.45493125L283.32192562172025,268.824975L291.6723705224732,266.66949375L300,264.81945L308.3276294775268,263.21176875L316.6552589550536,261.1428375L325.00570385580653,259.32834375L333.33333333333337,257.6311125L341.66096281086016,256.715025L349.98859228838694,254.59453125L358.33903718913984,253.40934375L366.66666666666663,251.73988125000002L374.99429614419347,251.19928124999998L383.32192562172025,249.8319375L391.6723705224732,248.47335L400,247.24963125000002" stroke="rgb(69, 180, 194)" stroke-width="2"/></g></g><path class="foreground" aria-hidden="true" d="" display="none"/></g></g><g class="mark-text role-mark layer_2_marks" role="graphics-object" aria-roledescription="text mark container"><text aria-label="Region: Sub Saharan Africa; m: 0.8649573" role="graphics-symbol" aria-roledescription="text mark" text-anchor="start" transform="translate(405,286.782050625)" font-family="Georgia" font-size="11px" fill="rgb(35, 78, 160)">Sub Saharan Africa</text><text aria-label="Region: Latin America and Caribbean; m: 1.84426" role="graphics-symbol" aria-roledescription="text mark" text-anchor="start" transform="translate(405,268.420125)" font-family="Georgia" font-size="11px" fill="rgb(116, 201, 189)">Latin America and Caribbean</text><text aria-label="Region: North America; m: 5.870195" role="graphics-symbol" aria-roledescription="text mark" text-anchor="start" transform="translate(405,192.93384375000002)" font-family="Georgia" font-size="11px" fill="rgb(41, 151, 190)">North America</text><text aria-label="Region: East Asia and Pacific; m: 15.62473" role="graphics-symbol" aria-roledescription="text mark" text-anchor="start" transform="translate(405,10.036312500000008)" font-family="Georgia" font-size="11px" fill="rgb(212, 238, 180)">East Asia and Pacific</text><text aria-label="Region: Europe and Central Asia; m: 6.649626" role="graphics-symbol" aria-roledescription="text mark" text-anchor="start" transform="translate(405,178.31951249999997)" font-family="Georgia" font-size="11px" fill="rgb(169, 221, 183)">Europe and Central Asia</text><text aria-label="Region: Middle East and North Africa; m: 2.813353" role="graphics-symbol" aria-roledescription="text mark" text-anchor="start" transform="translate(405,250.24963125000002)" font-family="Georgia" font-size="11px" fill="rgb(69, 180, 194)">Middle East and North Africa</text></g><g class="mark-text role-mark layer_3_marks" role="graphics-object" aria-roledescription="text mark container"><text aria-label="Region: South Asia; m: 2.958003" role="graphics-symbol" aria-roledescription="text mark" text-anchor="start" transform="translate(405,237.53744375)" font-family="Georgia" font-size="11px" fill="rgb(33, 115, 177)">South Asia</text></g><g class="mark-text role-mark layer_4_marks" role="graphics-object" aria-roledescription="text mark container"><text aria-label="t: Kyoto; y: 15.5" role="graphics-symbol" aria-roledescription="text mark" text-anchor="end" transform="translate(220,12.375)" font-family="Georgia" font-size="10px" fill="#5d5f79">Kyoto</text><text aria-label="t: 1997; y: 14.8" role="graphics-symbol" aria-roledescription="text mark" text-anchor="end" transform="translate(220,25.499999999999986)" font-family="Georgia" font-size="10px" fill="#5d5f79">1997</text></g><g class="mark-text role-mark layer_5_marks" role="graphics-object" aria-roledescription="text mark container"><text aria-label="t: Copenhagen; y: 15.5" role="graphics-symbol" aria-roledescription="text mark" text-anchor="end" transform="translate(322,12.375)" font-family="Georgia" font-size="10px" fill="#5d5f79">Copenhagen</text><text aria-label="t: 2009; y: 14.8" role="graphics-symbol" aria-roledescription="text mark" text-anchor="end" transform="translate(322,25.499999999999986)" font-family="Georgia" font-size="10px" fill="#5d5f79">2009</text></g><g class="mark-text role-mark layer_6_marks" role="graphics-object" aria-roledescription="text mark container"><text aria-label="t: Paris; y: 11.5" role="graphics-symbol" aria-roledescription="text mark" text-anchor="end" transform="translate(370,87.375)" font-family="Georgia" font-size="10px" fill="#5d5f79">Paris</text><text aria-label="t: 2015; y: 10.8" role="graphics-symbol" aria-roledescription="text mark" text-anchor="end" transform="translate(370,100.49999999999999)" font-family="Georgia" font-size="10px" fill="#5d5f79">2015</text></g><g class="mark-group role-title"><g transform="translate(-2,-48)"><path class="background" aria-hidden="true" d="M0,0h0v0h0Z" pointer-events="none"/><g><g class="mark-text role-title-text" role="graphics-symbol" aria-roledescription="title" aria-label="Title text 'CO₂ Emissions by region'" pointer-events="none"><text text-anchor="start" transform="translate(0,4)" font-family="Georgia" font-size="14px" font-weight="bold" fill="#F4134D" opacity="1">CO₂ Emissions by region</text></g><g class="mark-text role-title-subtitle" role="graphics-symbol" aria-roledescription="subtitle" aria-label="Subtitle text 'Gigatonnes of CO₂ equivalent. Source: Author's calculations'" pointer-events="none"><text text-anchor="start" transform="translate(0,19)" font-family="Georgia" font-size="12px" font-style="italic" fill="#F4134D" opacity="1">Gigatonnes of CO₂ equivalent. Source: Author's calculations</text></g></g><path class="foreground" aria-hidden="true" d="" pointer-events="none" display="none"/></g></g></g><path class="foreground" aria-hidden="true" d="" display="none"/></g></g></g></svg>