<svg xmlns="http://www.w3.org/2000/svg" xmlns:xlink="http://www.w3.org/1999/xlink" version="1.1" class="marks" width="393" height="297" viewBox="0 0 393 297"><rect width="393" height="297" fill="white"/><g fill="none" stroke-miterlimit="10" transform="translate(7,55)"><g class="mark-group role-frame root" role="graphics-object" aria-roledescription="group mark container"><g transform="translate(0,0)"><path class="background" aria-hidden="true" d="M0,0h300v220h-300Z"/><g><g class="mark-group role-axis" aria-hidden="true"><g transform="translate(0.5,0.5)"><path class="background" aria-hidden="true" d="M0,0h0v0h0Z" pointer-events="none"/><g><g class="mark-rule role-axis-grid" pointer-events="none"><line transform="translate(0,220)" x2="300" y2="0" stroke="#676A86" stroke-opacity="0.1" stroke-width="1" opacity="1"/><line transform="translate(0,183)" x2="300" y2="0" stroke="#676A86" stroke-opacity="0.1" stroke-width="1" opacity="1"/><line transform="translate(0,147)" x2="300" y2="0" stroke="#676A86" stroke-opacity="0.1" stroke-width="1" opacity="1"/><line transform="translate(0,110)" x2="300" y2="0" stroke="#676A86" stroke-opacity="0.1" stroke-width="1" opacity="1"/><line transform="translate(0,73)" x2="300" y2="0" stroke="#676A86" stroke-opacity="0.1" stroke-width="1" opacity="1"/><line transform="translate(0,37)" x2="300" y2="0" stroke="#676A86" stroke-opacity="0.1" stroke-width="1" opacity="1"/><line transform="translate(0,0)" x2="300" y2="0" stroke="#676A86" stroke-opacity="0.1" stroke-width="1" opacity="1"/></g></g><path class="foreground" aria-hidden="true" d="" pointer-events="none" display="none"/></g></g><g class="mark-group role-axis" role="graphics-symbol" aria-roledescription="axis" aria-label="X-axis for a time scale with values from Tuesday, 01 January 2002, 12:00:00 AM to Wednesday, 01 January 2020, 12:00:00 AM"><g transform="translate(0.5,220.5)"><path class="background" aria-hidden="true" d="M0,0h0v0h0Z" pointer-events="none"/><g><g class="mark-rule role-axis-tick" pointer-events="none"><line transform="translate(0,0)" x2="0" y2="5" stroke="#676A86" stroke-width="1" opacity="1"/><line transform="translate(33,0)" x2="0" y2="5" stroke="#676A86" stroke-width="1" opacity="1"/><line transform="translate(67,0)" x2="0" y2="5" stroke="#676A86" stroke-width="1" opacity="1"/><line transform="translate(100,0)" x2="0" y2="5" stroke="#676A86" stroke-width="1" opacity="1"/><line transform="translate(133,0)" x2="0" y2="5" stroke="#676A86" stroke-width="1" opacity="1"/><line transform="translate(167,0)" x2="0" y2="5" stroke="#676A86" stroke-width="1" opacity="1"/><line transform="translate(200,0)" x2="0" y2="5" stroke="#676A86" stroke-width="1" opacity="1"/><line transform="translate(233,0)" x2="0" y2="5" stroke="#676A86" stroke-width="1" opacity="1"/><line transform="translate(267,0)" x2="0" y2="5" stroke="#676A86" stroke-width="1" opacity="1"/><line transform="translate(300,0)" x2="0" y2="5" stroke="#676A86" stroke-width="1" opacity="1"/></g><g class="mark-text role-axis-label" pointer-events="none"><text text-anchor="start" transform="translate(0,15)" font-family="sans-serif" font-size="10px" fill="#676A86" opacity="1">2002</text><text text-anchor="middle" transform="translate(33.31305141466383,15)" font-family="sans-serif" font-size="10px" fill="#676A86" opacity="0">2004</text><text text-anchor="middle" transform="translate(66.67173714633404,15)" font-family="sans-serif" font-size="10px" fill="#676A86" opacity="1">2006</text><text text-anchor="middle" transform="translate(99.98478856099787,15)" font-family="sans-serif" font-size="10px" fill="#676A86" opacity="0">2008</text><text text-anchor="middle" transform="translate(133.34347429266808,15)" font-family="sans-serif" font-size="10px" fill="#676A86" opacity="1">2010</text><text text-anchor="middle" transform="translate(166.6565257073319,15)" font-family="sans-serif" font-size="10px" fill="#676A86" opacity="0">2012</text><text text-anchor="middle" transform="translate(200.01521143900212,15)" font-family="sans-serif" font-size="10px" fill="#676A86" opacity="1">2014</text><text text-anchor="middle" transform="translate(233.32826285366596,15)" font-family="sans-serif" font-size="10px" fill="#676A86" opacity="0">2016</text><text text-anchor="middle" transform="translate(266.68694858533615,15)" font-family="sans-serif" font-size="10px" fill="#676A86" opacity="1">2018</text><text text-anchor="end" transform="translate(300,15)" font-family="sans-serif" font-size="10px" fill="#676A86" opacity="0">2020</text></g><g class="mark-rule role-axis-domain" pointer-events="none"><line transform="translate(0,0)" x2="300" y2="0" stroke="#676A86" stroke-width="1" opacity="1"/></g></g><path class="foreground" aria-hidden="true" d="" pointer-events="none" display="none"/></g></g><g class="mark-group role-axis" role="graphics-symbol" aria-roledescription="axis" aria-label="Y-axis for a linear scale with values from 0% to 300%"><g transform="translate(0.5,0.5)"><path class="background" aria-hidden="true" d="M0,0h0v0h0Z" pointer-events="none"/><g><g class="mark-text role-axis-label" pointer-events="none"><text text-anchor="start" transform="translate(5,213)" font-family="sans-serif" font-size="10px" fill="#676A86" opacity="1">0%</text><text text-anchor="start" transform="translate(5,176.33333333333334)" font-family="sans-serif" font-size="10px" fill="#676A86" opacity="1">50%</text><text text-anchor="start" transform="translate(5,139.66666666666669)" font-family="sans-serif" font-size="10px" fill="#676A86" opacity="1">100%</text><text text-anchor="start" transform="translate(5,103)" font-family="sans-serif" font-size="10px" fill="#676A86" opacity="1">150%</text><text text-anchor="start" transform="translate(5,66.33333333333334)" font-family="sans-serif" font-size="10px" fill="#676A86" opacity="1">200%</text><text text-anchor="start" transform="translate(5,29.666666666666657)" font-family="sans-serif" font-size="10px" fill="#676A86" opacity="1">250%</text><text text-anchor="start" transform="translate(5,-7)" font-family="sans-serif" font-size="10px" fill="#676A86" opacity="1">300%</text></g><g class="mark-rule role-axis-domain" pointer-events="none"><line transform="translate(0,220)" x2="0" y2="-220" stroke="#676A86" stroke-width="1" opacity="1"/></g></g><path class="foreground" aria-hidden="true" d="" pointer-events="none" display="none"/></g></g><g class="mark-group role-scope layer_0_pathgroup" role="graphics-object" aria-roledescription="group mark container"><g transform="translate(0,0)"><path class="background" aria-hidden="true" d="M0,0h300v220h-300Z"/><g><g class="mark-line role-mark layer_0_marks" role="graphics-object" aria-roledescription="line mark container"><path aria-label="Country: Canada; Year: 2002; GDP ($ trillion): 0.760149; Gross debt ($ trillion): 0.75068091; Debt (% GDP): 98.75444288; m: 99%" role="graphics-symbol" aria-roledescription="line mark" d="M0,147.58007522133332L16.656525707331916,158.38586472866666L33.31305141466383,165.80413904266666L50.01521143900213,170.42410205333334L66.67173714633404,174.05151083466666L83.32826285366595,178.39677536266666L99.98478856099787,178.03278681466668L116.68694858533618,167.575028148L133.34347429266808,171.53064539599998L150,173.132384634L166.6565257073319,170.55311608866668L183.35868573167022,168.59883353133333L200.01521143900212,165.227774976L216.67173714633404,152.44082509333336L233.32826285366596,149.55185340333335L250.03042287800426,153.19718703666666L266.68694858533615,153.31283913L283.3434742926681,153.26512974666667L300,128.43987442" stroke="rgb(212, 238, 180)" stroke-width="2"/></g></g><path class="foreground" aria-hidden="true" d="" display="none"/></g><g transform="translate(0,0)"><path class="background" aria-hidden="true" d="M0,0h300v220h-300Z"/><g><g class="mark-line role-mark layer_0_marks" role="graphics-object" aria-roledescription="line mark container"><path aria-label="Country: France; Year: 2002; GDP ($ trillion): 1.50035; Gross debt ($ trillion): 1.10032; Debt (% GDP): 73.33755457; m: 73%" role="graphics-symbol" aria-roledescription="line mark" d="M0,166.21912664866667L16.656525707331916,171.963183084L33.31305141466383,175.2752749L50.01521143900213,174.348985822L66.67173714633404,176.60612354733334L83.32826285366595,180.29131637733335L99.98478856099787,180.55878652533335L116.68694858533618,169.73683820133334L133.34347429266808,165.81017495533334L150,166.77371872333333L166.6565257073319,160.56653893866667L183.35868573167022,160.68606741000002L200.01521143900212,159.77961750666668L216.67173714633404,147.35642879466667L233.32826285366596,145.34684582L250.03042287800426,146.57762328L266.68694858533615,150.05659534800003L283.3434742926681,146.12918936L300,136.15957461333335" stroke="rgb(169, 221, 183)" stroke-width="2"/></g></g><path class="foreground" aria-hidden="true" d="" display="none"/></g><g transform="translate(0,0)"><path class="background" aria-hidden="true" d="M0,0h300v220h-300Z"/><g><g class="mark-line role-mark layer_0_marks" role="graphics-object" aria-roledescription="line mark container"><path aria-label="Country: Germany; Year: 2002; GDP ($ trillion): 2.07702; Gross debt ($ trillion): 1.509214; Debt (% GDP): 72.66246834; m: 73%" role="graphics-symbol" aria-roledescription="line mark" d="M0,166.71418988399998L16.656525707331916,172.78835883466667L33.31305141466383,175.92007336933332L50.01521143900213,174.37288481066668L66.67173714633404,175.19958863L83.32826285366595,180.625260508L99.98478856099787,182.42523643666667L116.68694858533618,175.819763504L133.34347429266808,167.67696712066666L150,171.67884879933334L166.6565257073319,166.813594266L183.35868573167022,170.05264793L200.01521143900212,172.01209822866667L216.67173714633404,165.03903694666667L233.32826285366596,167.20445002066666L250.03042287800426,171.38227890666667L266.68694858533615,175.902026696L283.3434742926681,175.072962064L300,169.0679453026667" stroke="rgb(116, 201, 189)" stroke-width="2"/></g></g><path class="foreground" aria-hidden="true" d="" display="none"/></g><g transform="translate(0,0)"><path class="background" aria-hidden="true" d="M0,0h300v220h-300Z"/><g><g class="mark-line role-mark layer_0_marks" role="graphics-object" aria-roledescription="line mark container"><path aria-label="Country: Italy; Year: 2002; GDP ($ trillion): 1.27587; Gross debt ($ trillion): 1.651561; Debt (% GDP): 129.4458683; m: 129%" role="graphics-symbol" aria-roledescription="line mark" d="M0,125.07302991333333L16.656525707331916,141.32906216000003L33.31305141466383,148.71187116133336L50.01521143900213,147.807466136L66.67173714633404,148.31151927533335L83.32826285366595,156.07855141266666L99.98478856099787,159.11860205266666L116.68694858533618,149.41725899466667L133.34347429266808,144.23589744666668L150,147.470297524L166.6565257073319,137.02276514666664L183.35868573167022,135.89384438666667L200.01521143900212,134.0919754533333L216.67173714633404,117.18497545333335L233.32826285366596,117.28235500666666L250.03042287800426,119.83086448666667L266.68694858533615,124.06841084L283.3434742926681,118.64303740666669L300,105.04978410666666" stroke="rgb(69, 180, 194)" stroke-width="2"/></g></g><path class="foreground" aria-hidden="true" d="" display="none"/></g><g transform="translate(0,0)"><path class="background" aria-hidden="true" d="M0,0h300v220h-300Z"/><g><g class="mark-line role-mark layer_0_marks" role="graphics-object" aria-roledescription="line mark container"><path aria-label="Country: Japan; Year: 2002; GDP ($ trillion): 4.18285; Gross debt ($ trillion): 7.2737901; Debt (% GDP): 173.8955521; m: 174%" role="graphics-symbol" aria-roledescription="line mark" d="M0,92.47659512666665L16.656525707331916,97.5582707L33.31305141466383,98.97227714L50.01521143900213,93.21218140666667L66.67173714633404,86.41624155999999L83.32826285366595,85.69743981333335L99.98478856099787,96.72137317333333L116.68694858533618,97.28864258666665L133.34347429266808,100.83224272L150,104.59722936666667L166.6565257073319,100.93561529333336L183.35868573167022,72.09071452L200.01521143900212,56.70924768666666L216.67173714633404,37.535887400000014L233.32826285366596,53.04308826666668L250.03042287800426,48.683550886666644L266.68694858533615,50.54885337333332L283.3434742926681,51.02730702666666L300,39.440632879999995" stroke="rgb(41, 151, 190)" stroke-width="2"/></g></g><path class="foreground" aria-hidden="true" d="" display="none"/></g><g transform="translate(0,0)"><path class="background" aria-hidden="true" d="M0,0h300v220h-300Z"/><g><g class="mark-line role-mark layer_0_marks" role="graphics-object" aria-roledescription="line mark container"><path aria-label="Country: UK; Year: 2002; GDP ($ trillion): 1.78289; Gross debt ($ trillion): 0.55265504; Debt (% GDP): 30.99770822; m: 31%" role="graphics-symbol" aria-roledescription="line mark" d="M0,197.26834730533332L16.656525707331916,198.396171974L33.31305141466383,199.09618462066666L50.01521143900213,198.30692621666668L66.67173714633404,198.06936198866666L83.32826285366595,199.297902298L99.98478856099787,193.517814248L116.68694858533618,179.68866345466665L133.34347429266808,172.1075074546667L150,170.23472377266668L166.6565257073319,167.504754296L183.35868573167022,166.3471293293333L200.01521143900212,167.864952134L216.67173714633404,163.40206515600002L233.32826285366596,156.139439588L250.03042287800426,153.16840031533332L266.68694858533615,155.9579239753333L283.3434742926681,153.43355286599999L300,139.41928388666668" stroke="rgb(33, 115, 177)" stroke-width="2"/></g></g><path class="foreground" aria-hidden="true" d="" display="none"/></g><g transform="translate(0,0)"><path class="background" aria-hidden="true" d="M0,0h300v220h-300Z"/><g><g class="mark-line role-mark layer_0_marks" role="graphics-object" aria-roledescription="line mark container"><path aria-label="Country: United States; Year: 2002; GDP ($ trillion): 10.93645; Gross debt ($ trillion): 6.07022; Debt (% GDP): 55.50448272; m: 56%" role="graphics-symbol" aria-roledescription="line mark" d="M0,179.29671267199998L16.656525707331916,177.01543138399998L33.31305141466383,171.51018839533333L50.01521143900213,171.98867600933335L66.67173714633404,172.92208725733335L83.32826285366595,172.57868641933334L99.98478856099787,165.94728093533334L116.68694858533618,156.37930744333335L133.34347429266808,149.97213412133334L150,146.78216858066668L166.6565257073319,144.20715298L183.35868573167022,143.11596046L200.01521143900212,143.31573791333335L216.67173714633404,143.24239651333332L233.32826285366596,141.81045714L250.03042287800426,142.5421268333333L266.68694858533615,141.82657441333333L283.3434742926681,140.66074036666666L300,126.78347249333333" stroke="rgb(35, 78, 160)" stroke-width="2"/></g></g><path class="foreground" aria-hidden="true" d="" display="none"/></g></g><g class="mark-text role-mark layer_1_marks" role="graphics-object" aria-roledescription="text mark container"><text aria-label="Country: Canada; Year: 2020; GDP ($ trillion): 1.64341; Gross debt ($ trillion): 2.0518749; Debt (% GDP): 124.8547167; m: 125%" role="graphics-symbol" aria-roledescription="text mark" text-anchor="start" transform="translate(305,131.43987442)" font-family="sans-serif" font-size="11px" fill="rgb(212, 238, 180)">Canada</text><text aria-label="Country: France; Year: 2020; GDP ($ trillion): 2.59891; Gross debt ($ trillion): 2.971278; Debt (% GDP): 114.3278528; m: 114%" role="graphics-symbol" aria-roledescription="text mark" text-anchor="start" transform="translate(305,139.15957461333335)" font-family="sans-serif" font-size="11px" fill="rgb(169, 221, 183)">France</text><text aria-label="Country: Germany; Year: 2020; GDP ($ trillion): 3.80301; Gross debt ($ trillion): 2.641297; Debt (% GDP): 69.45280186; m: 69%" role="graphics-symbol" aria-roledescription="text mark" text-anchor="start" transform="translate(305,172.0679453026667)" font-family="sans-serif" font-size="11px" fill="rgb(116, 201, 189)">Germany</text><text aria-label="Country: Italy; Year: 2020; GDP ($ trillion): 1.88494; Gross debt ($ trillion): 2.954649; Debt (% GDP): 156.7502944; m: 157%" role="graphics-symbol" aria-roledescription="text mark" text-anchor="start" transform="translate(305,108.04978410666666)" font-family="sans-serif" font-size="11px" fill="rgb(69, 180, 194)">Italy</text><text aria-label="Country: Japan; Year: 2020; GDP ($ trillion): 5.04869; Gross debt ($ trillion): 12.43074915; Debt (% GDP): 246.2173188; m: 246%" role="graphics-symbol" aria-roledescription="text mark" text-anchor="start" transform="translate(305,42.440632879999995)" font-family="sans-serif" font-size="11px" fill="rgb(41, 151, 190)">Japan</text></g><g class="mark-text role-mark layer_2_marks" role="graphics-object" aria-roledescription="text mark container"><text aria-label="Country: UK; Year: 2020; GDP ($ trillion): 2.71097; Gross debt ($ trillion): 2.9788896; Debt (% GDP): 109.8827947; m: 110%" role="graphics-symbol" aria-roledescription="text mark" text-anchor="start" transform="translate(305,152.41928388666668)" font-family="sans-serif" font-size="11px" fill="rgb(33, 115, 177)">UK</text></g><g class="mark-text role-mark layer_3_marks" role="graphics-object" aria-roledescription="text mark container"><text aria-label="Country: United States; Year: 2020; GDP ($ trillion): 20.93275; Gross debt ($ trillion): 26.60834; Debt (% GDP): 127.1134466; m: 127%" role="graphics-symbol" aria-roledescription="text mark" text-anchor="start" transform="translate(305,120.78347249333333)" font-family="sans-serif" font-size="11px" fill="rgb(35, 78, 160)">United States</text></g><g class="mark-group role-title"><g transform="translate(-2,-45)"><path class="background" aria-hidden="true" d="M0,0h0v0h0Z" pointer-events="none"/><g><g class="mark-text role-title-text" role="graphics-symbol" aria-roledescription="title" aria-label="Title text 'Government debt – G7'" pointer-events="none"><text text-anchor="start" transform="translate(0,5)" font-family="sans-serif" font-size="13px" font-weight="bold" fill="black" opacity="1">Government debt – G7</text></g><g class="mark-text role-title-subtitle" role="graphics-symbol" aria-roledescription="subtitle" aria-label="Subtitle text '% of GDP. Source: IMF World Economic Outlook 2021'" pointer-events="none"><text text-anchor="start" transform="translate(0,19)" font-family="sans-serif" font-size="10px" font-style="italic" fill="#000" opacity="1">% of GDP. Source: IMF World Economic Outlook 2021</text></g></g><path class="foreground" aria-hidden="true" d="" pointer-events="none" display="none"/></g></g></g><path class="foreground" aria-hidden="true" d="" display="none"/></g></g></g></svg>