<svg xmlns="http://www.w3.org/2000/svg" xmlns:xlink="http://www.w3.org/1999/xlink" version="1.1" class="marks" width="384" height="297" viewBox="0 0 384 297"><rect width="384" height="297" fill="white"/><g fill="none" stroke-miterlimit="10" transform="translate(7,55)"><g class="mark-group role-frame root" role="graphics-object" aria-roledescription="group mark container"><g transform="translate(0,0)"><path class="background" aria-hidden="true" d="M0,0h300v220h-300Z"/><g><g class="mark-group role-axis" aria-hidden="true"><g transform="translate(0.5,0.5)"><path class="background" aria-hidden="true" d="M0,0h0v0h0Z" pointer-events="none"/><g><g class="mark-rule role-axis-grid" pointer-events="none"><line transform="translate(0,220)" x2="300" y2="0" stroke="#676A86" stroke-opacity="0.1" stroke-width="1" opacity="1"/><line transform="translate(0,196)" x2="300" y2="0" stroke="#676A86" stroke-opacity="0.1" stroke-width="1" opacity="1"/><line transform="translate(0,171)" x2="300" y2="0" stroke="#676A86" stroke-opacity="0.1" stroke-width="1" opacity="1"/><line transform="translate(0,147)" x2="300" y2="0" stroke="#676A86" stroke-opacity="0.1" stroke-width="1" opacity="1"/><line transform="translate(0,122)" x2="300" y2="0" stroke="#676A86" stroke-opacity="0.1" stroke-width="1" opacity="1"/><line transform="translate(0,98)" x2="300" y2="0" stroke="#676A86" stroke-opacity="0.1" stroke-width="1" opacity="1"/><line transform="translate(0,73)" x2="300" y2="0" stroke="#676A86" stroke-opacity="0.1" stroke-width="1" opacity="1"/><line transform="translate(0,49)" x2="300" y2="0" stroke="#676A86" stroke-opacity="0.1" stroke-width="1" opacity="1"/><line transform="translate(0,24)" x2="300" y2="0" stroke="#676A86" stroke-opacity="0.1" stroke-width="1" opacity="1"/><line transform="translate(0,0)" x2="300" y2="0" stroke="#676A86" stroke-opacity="0.1" stroke-width="1" opacity="1"/></g></g><path class="foreground" aria-hidden="true" d="" pointer-events="none" display="none"/></g></g><g class="mark-group role-axis" role="graphics-symbol" aria-roledescription="axis" aria-label="X-axis for a time scale with values from Monday, 01 January 1990, 12:00:00 AM to Monday, 01 January 2018, 12:00:00 AM"><g transform="translate(0.5,220.5)"><path class="background" aria-hidden="true" d="M0,0h0v0h0Z" pointer-events="none"/><g><g class="mark-rule role-axis-tick" pointer-events="none"><line transform="translate(0,0)" x2="0" y2="5" stroke="#676A86" stroke-width="1" opacity="1"/><line transform="translate(54,0)" x2="0" y2="5" stroke="#676A86" stroke-width="1" opacity="1"/><line transform="translate(107,0)" x2="0" y2="5" stroke="#676A86" stroke-width="1" opacity="1"/><line transform="translate(161,0)" x2="0" y2="5" stroke="#676A86" stroke-width="1" opacity="1"/><line transform="translate(214,0)" x2="0" y2="5" stroke="#676A86" stroke-width="1" opacity="1"/><line transform="translate(268,0)" x2="0" y2="5" stroke="#676A86" stroke-width="1" opacity="1"/></g><g class="mark-text role-axis-label" pointer-events="none"><text text-anchor="start" transform="translate(0,15)" font-family="sans-serif" font-size="10px" fill="#676A86" opacity="1">1990</text><text text-anchor="middle" transform="translate(53.56409504253447,15)" font-family="sans-serif" font-size="10px" fill="#676A86" opacity="1">1995</text><text text-anchor="middle" transform="translate(107.12819008506894,15)" font-family="sans-serif" font-size="10px" fill="#676A86" opacity="1">2000</text><text text-anchor="middle" transform="translate(160.72161924317982,15)" font-family="sans-serif" font-size="10px" fill="#676A86" opacity="1">2005</text><text text-anchor="middle" transform="translate(214.28571428571428,15)" font-family="sans-serif" font-size="10px" fill="#676A86" opacity="1">2010</text><text text-anchor="middle" transform="translate(267.84980932824874,15)" font-family="sans-serif" font-size="10px" fill="#676A86" opacity="1">2015</text></g><g class="mark-rule role-axis-domain" pointer-events="none"><line transform="translate(0,0)" x2="300" y2="0" stroke="#676A86" stroke-width="1" opacity="1"/></g></g><path class="foreground" aria-hidden="true" d="" pointer-events="none" display="none"/></g></g><g class="mark-group role-axis" role="graphics-symbol" aria-roledescription="axis" aria-label="Y-axis for a linear scale with values from −40% to 5%"><g transform="translate(0.5,0.5)"><path class="background" aria-hidden="true" d="M0,0h0v0h0Z" pointer-events="none"/><g><g class="mark-text role-axis-label" pointer-events="none"><text text-anchor="start" transform="translate(5,213)" font-family="sans-serif" font-size="10px" fill="#676A86" opacity="1">−40%</text><text text-anchor="start" transform="translate(5,188.55555555555554)" font-family="sans-serif" font-size="10px" fill="#676A86" opacity="1">−35%</text><text text-anchor="start" transform="translate(5,164.1111111111111)" font-family="sans-serif" font-size="10px" fill="#676A86" opacity="1">−30%</text><text text-anchor="start" transform="translate(5,139.66666666666666)" font-family="sans-serif" font-size="10px" fill="#676A86" opacity="1">−25%</text><text text-anchor="start" transform="translate(5,115.22222222222223)" font-family="sans-serif" font-size="10px" fill="#676A86" opacity="1">−20%</text><text text-anchor="start" transform="translate(5,90.77777777777777)" font-family="sans-serif" font-size="10px" fill="#676A86" opacity="1">−15%</text><text text-anchor="start" transform="translate(5,66.33333333333331)" font-family="sans-serif" font-size="10px" fill="#676A86" opacity="1">−10%</text><text text-anchor="start" transform="translate(5,41.888888888888886)" font-family="sans-serif" font-size="10px" fill="#676A86" opacity="1">−5%</text><text text-anchor="start" transform="translate(5,17.444444444444432)" font-family="sans-serif" font-size="10px" fill="#676A86" opacity="1">0%</text><text text-anchor="start" transform="translate(5,-7)" font-family="sans-serif" font-size="10px" fill="#676A86" opacity="1">5%</text></g><g class="mark-rule role-axis-domain" pointer-events="none"><line transform="translate(0,220)" x2="0" y2="-220" stroke="#676A86" stroke-width="1" opacity="1"/></g></g><path class="foreground" aria-hidden="true" d="" pointer-events="none" display="none"/></g></g><g class="mark-group role-scope layer_0_pathgroup" role="graphics-object" aria-roledescription="group mark container"><g transform="translate(0,0)"><path class="background" aria-hidden="true" d="M0,0h300v220h-300Z"/><g><g class="mark-line role-mark layer_0_marks" role="graphics-object" aria-roledescription="line mark container"><path aria-label="Country: Brazil; Date: 1990; Reduction of forest area (%): 0; Forest area (million square km): 70.45802056; Year: Jan 01, 1990; m: 0%" role="graphics-symbol" aria-roledescription="line mark" d="M0,24.444444444444432L10.70695218539161,27.377777777777784L21.41390437078322,30.800000000000004L32.15019067175125,33.733333333333334L42.857142857142854,37.15555555555555L53.56409504253447,40.0888888888889L64.27104722792608,43.5111111111111L75.0073335288941,46.44444444444443L85.71428571428571,49.37777777777778L96.42123789967732,52.8L107.12819008506894,55.73333333333333L117.86447638603696,59.155555555555544L128.57142857142856,62.57777777777777L139.27838075682018,65.51111111111112L149.98533294221178,68.93333333333331L160.72161924317982,72.35555555555553L171.42857142857142,75.77777777777776L182.13552361396304,78.71111111111111L192.84247579935465,82.13333333333333L203.57876210032265,85.55555555555554L214.28571428571428,88.48888888888887L224.99266647110588,89.95555555555555L235.6996186564975,91.42222222222223L246.43590495746554,92.4L257.1428571428571,93.86666666666666L267.84980932824874,94.84444444444445L278.55676151364037,96.31111111111112L289.2930478146084,98.26666666666667L300,99.24444444444443" stroke="rgb(199, 233, 181)" stroke-width="2"/></g></g><path class="foreground" aria-hidden="true" d="" display="none"/></g><g transform="translate(0,0)"><path class="background" aria-hidden="true" d="M0,0h300v220h-300Z"/><g><g class="mark-line role-mark layer_0_marks" role="graphics-object" aria-roledescription="line mark container"><path aria-label="Country: Indonesia; Date: 1990; Reduction of forest area (%): 0; Forest area (million square km): 65.43771425; Year: Jan 01, 1990; m: 0%" role="graphics-symbol" aria-roledescription="line mark" d="M0,24.444444444444432L10.70695218539161,31.777777777777786L21.41390437078322,38.62222222222223L32.15019067175125,45.955555555555534L42.857142857142854,52.8L53.56409504253447,60.13333333333333L64.27104722792608,66.97777777777775L75.0073335288941,74.3111111111111L85.71428571428571,81.64444444444443L96.42123789967732,88.48888888888887L107.12819008506894,95.82222222222222L117.86447638603696,96.31111111111112L128.57142857142856,96.80000000000001L139.27838075682018,97.77777777777777L149.98533294221178,98.26666666666667L160.72161924317982,99.24444444444443L171.42857142857142,99.73333333333332L182.13552361396304,100.22222222222221L192.84247579935465,101.19999999999999L203.57876210032265,101.68888888888888L214.28571428571428,102.17777777777778L224.99266647110588,106.08888888888886L235.6996186564975,109.99999999999997L246.43590495746554,113.91111111111108L257.1428571428571,117.82222222222222L267.84980932824874,121.24444444444444L278.55676151364037,134.44444444444446L289.2930478146084,139.33333333333331L300,141.77777777777777" stroke="rgb(134, 208, 187)" stroke-width="2"/></g></g><path class="foreground" aria-hidden="true" d="" display="none"/></g><g transform="translate(0,0)"><path class="background" aria-hidden="true" d="M0,0h300v220h-300Z"/><g><g class="mark-line role-mark layer_0_marks" role="graphics-object" aria-roledescription="line mark container"><path aria-label="Country: North Korea; Date: 1990; Reduction of forest area (%): 0; Forest area (million square km): 67.91416131; Year: Jan 01, 1990; m: 0%" role="graphics-symbol" aria-roledescription="line mark" d="M0,24.444444444444432L10.70695218539161,24.933333333333323L21.41390437078322,25.422222222222214L32.15019067175125,25.911111111111108L42.857142857142854,26.888888888888893L53.56409504253447,27.377777777777784L64.27104722792608,27.866666666666674L75.0073335288941,28.355555555555544L85.71428571428571,28.844444444444434L96.42123789967732,29.33333333333333L107.12819008506894,29.82222222222222L117.86447638603696,32.26666666666668L128.57142857142856,33.24444444444444L139.27838075682018,33.733333333333334L149.98533294221178,34.711111111111116L160.72161924317982,35.20000000000001L171.42857142857142,36.17777777777779L182.13552361396304,37.15555555555555L192.84247579935465,38.13333333333333L203.57876210032265,39.11111111111112L214.28571428571428,40.5777777777778L224.99266647110588,41.066666666666684L235.6996186564975,42.53333333333334L246.43590495746554,43.5111111111111L257.1428571428571,44.48888888888888L267.84980932824874,44.977777777777774L278.55676151364037,46.44444444444443L289.2930478146084,46.933333333333316L300,47.911111111111104" stroke="rgb(69, 180, 194)" stroke-width="2"/></g></g><path class="foreground" aria-hidden="true" d="" display="none"/></g><g transform="translate(0,0)"><path class="background" aria-hidden="true" d="M0,0h300v220h-300Z"/><g><g class="mark-line role-mark layer_0_marks" role="graphics-object" aria-roledescription="line mark container"><path aria-label="Country: Tanzania; Date: 1990; Reduction of forest area (%): 0; Forest area (million square km): 64.78890269; Year: Jan 01, 1990; m: 0%" role="graphics-symbol" aria-roledescription="line mark" d="M0,24.444444444444432L10.70695218539161,27.866666666666674L21.41390437078322,30.800000000000004L32.15019067175125,33.733333333333334L42.857142857142854,37.15555555555555L53.56409504253447,40.0888888888889L64.27104722792608,43.5111111111111L75.0073335288941,46.44444444444443L85.71428571428571,49.866666666666646L96.42123789967732,52.8L107.12819008506894,56.222222222222214L117.86447638603696,59.155555555555544L128.57142857142856,62.57777777777777L139.27838075682018,65.51111111111112L149.98533294221178,68.93333333333331L160.72161924317982,71.86666666666665L171.42857142857142,75.28888888888886L182.13552361396304,78.22222222222221L192.84247579935465,81.64444444444443L203.57876210032265,84.57777777777775L214.28571428571428,88L224.99266647110588,90.93333333333334L235.6996186564975,94.35555555555555L246.43590495746554,97.28888888888888L257.1428571428571,100.7111111111111L267.84980932824874,103.64444444444443L278.55676151364037,107.55555555555557L289.2930478146084,111.46666666666665L300,115.86666666666666" stroke="rgb(34, 90, 165)" stroke-width="2"/></g></g><path class="foreground" aria-hidden="true" d="" display="none"/></g><g transform="translate(0,0)"><path class="background" aria-hidden="true" d="M0,0h300v220h-300Z"/><g><g class="mark-line role-mark layer_0_marks" role="graphics-object" aria-roledescription="line mark container"><path aria-label="Country: Paraguay; Date: 1990; Reduction of forest area (%): 0; Forest area (million square km): 64.298666; Year: Jan 01, 1990; m: 0%" role="graphics-symbol" aria-roledescription="line mark" d="M0,24.444444444444432L10.70695218539161,29.33333333333333L21.41390437078322,34.22222222222222L32.15019067175125,39.11111111111112L42.857142857142854,43.99999999999999L53.56409504253447,48.888888888888886L64.27104722792608,53.777777777777786L75.0073335288941,58.66666666666666L85.71428571428571,63.55555555555555L96.42123789967732,68.44444444444441L107.12819008506894,73.33333333333331L117.86447638603696,79.68888888888887L128.57142857142856,86.53333333333333L139.27838075682018,92.88888888888887L149.98533294221178,99.73333333333332L160.72161924317982,106.08888888888886L171.42857142857142,112.44444444444443L182.13552361396304,119.28888888888888L192.84247579935465,125.64444444444445L203.57876210032265,132.48888888888888L214.28571428571428,138.8444444444444L224.99266647110588,146.66666666666666L235.6996186564975,154.48888888888888L246.43590495746554,162.8L257.1428571428571,170.62222222222223L267.84980932824874,178.44444444444446L278.55676151364037,181.86666666666667L289.2930478146084,189.2L300,194.57777777777775" stroke="rgb(37, 139, 187)" stroke-width="2"/></g></g><path class="foreground" aria-hidden="true" d="" display="none"/></g></g><g class="mark-text role-mark layer_1_marks" role="graphics-object" aria-roledescription="text mark container"><text aria-label="Country: Brazil; Date: 2018; Reduction of forest area (%): −15.3; Forest area (million square km): 59.70842795; Year: Jan 01, 2018; m: −15%" role="graphics-symbol" aria-roledescription="text mark" text-anchor="start" transform="translate(305,102.24444444444443)" font-family="sans-serif" font-size="11px" fill="rgb(199, 233, 181)">Brazil</text><text aria-label="Country: Indonesia; Date: 2018; Reduction of forest area (%): −24; Forest area (million square km): 49.71681778; Year: Jan 01, 2018; m: −24%" role="graphics-symbol" aria-roledescription="text mark" text-anchor="start" transform="translate(305,144.77777777777777)" font-family="sans-serif" font-size="11px" fill="rgb(134, 208, 187)">Indonesia</text><text aria-label="Country: North Korea; Date: 2018; Reduction of forest area (%): −4.8; Forest area (million square km): 64.67391304; Year: Jan 01, 2018; m: −5%" role="graphics-symbol" aria-roledescription="text mark" text-anchor="start" transform="translate(305,50.911111111111104)" font-family="sans-serif" font-size="11px" fill="rgb(69, 180, 194)">North Korea</text><text aria-label="Country: Tanzania; Date: 2018; Reduction of forest area (%): −18.7; Forest area (million square km): 52.70151276; Year: Jan 01, 2018; m: −19%" role="graphics-symbol" aria-roledescription="text mark" text-anchor="start" transform="translate(305,118.86666666666666)" font-family="sans-serif" font-size="11px" fill="rgb(34, 90, 165)">Tanzania</text><text aria-label="Country: Paraguay; Date: 2018; Reduction of forest area (%): −34.8; Forest area (million square km): 41.93538887; Year: Jan 01, 2018; m: −35%" role="graphics-symbol" aria-roledescription="text mark" text-anchor="start" transform="translate(305,197.57777777777775)" font-family="sans-serif" font-size="11px" fill="rgb(37, 139, 187)">Paraguay</text></g><g class="mark-group role-title"><g transform="translate(-2,-45)"><path class="background" aria-hidden="true" d="M0,0h0v0h0Z" pointer-events="none"/><g><g class="mark-text role-title-text" role="graphics-symbol" aria-roledescription="title" aria-label="Title text 'Forest area by country'" pointer-events="none"><text text-anchor="start" transform="translate(0,5)" font-family="sans-serif" font-size="13px" font-weight="bold" fill="black" opacity="1">Forest area by country</text></g><g class="mark-text role-title-subtitle" role="graphics-symbol" aria-roledescription="subtitle" aria-label="Subtitle text '% change, in square km (Base year = 1990). Source: World Bank'" pointer-events="none"><text text-anchor="start" transform="translate(0,19)" font-family="sans-serif" font-size="10px" font-style="italic" fill="#000" opacity="1">% change, in square km (Base year = 1990). Source: World Bank</text></g></g><path class="foreground" aria-hidden="true" d="" pointer-events="none" display="none"/></g></g></g><path class="foreground" aria-hidden="true" d="" display="none"/></g></g></g></svg>