<svg xmlns="http://www.w3.org/2000/svg" xmlns:xlink="http://www.w3.org/1999/xlink" version="1.1" class="marks" width="395" height="287" viewBox="0 0 395 287"><rect width="395" height="287" fill="#122B39"/><g fill="none" stroke-miterlimit="10" transform="translate(7,44)"><g class="mark-group role-frame root" role="graphics-object" aria-roledescription="group mark container"><g transform="translate(0,0)"><path class="background" aria-hidden="true" d="M0,0h300v220h-300Z"/><g><g class="mark-group role-axis" aria-hidden="true"><g transform="translate(0.5,0.5)"><path class="background" aria-hidden="true" d="M0,0h0v0h0Z" pointer-events="none"/><g><g class="mark-rule role-axis-grid" pointer-events="none"><line transform="translate(0,220)" x2="300" y2="0" stroke="#676A86" stroke-opacity="0.1" stroke-width="1" opacity="1"/><line transform="translate(0,174)" x2="300" y2="0" stroke="#676A86" stroke-opacity="0.1" stroke-width="1" opacity="1"/><line transform="translate(0,128)" x2="300" y2="0" stroke="#676A86" stroke-opacity="0.1" stroke-width="1" opacity="1"/><line transform="translate(0,83)" x2="300" y2="0" stroke="#676A86" stroke-opacity="0.1" stroke-width="1" opacity="1"/><line transform="translate(0,37)" x2="300" y2="0" stroke="#676A86" stroke-opacity="0.1" stroke-width="1" opacity="1"/></g></g><path class="foreground" aria-hidden="true" d="" pointer-events="none" display="none"/></g></g><g class="mark-group role-axis" role="graphics-symbol" aria-roledescription="axis" aria-label="X-axis for a time scale with values from Tuesday, 01 January 1901, 12:00:00 AM to Tuesday, 01 January 2019, 12:00:00 AM"><g transform="translate(0.5,220.5)"><path class="background" aria-hidden="true" d="M0,0h0v0h0Z" pointer-events="none"/><g><g class="mark-rule role-axis-tick" pointer-events="none"><line transform="translate(48,0)" x2="0" y2="5" stroke="#676A86" stroke-width="1" opacity="1"/><line transform="translate(99,0)" x2="0" y2="5" stroke="#676A86" stroke-width="1" opacity="1"/><line transform="translate(150,0)" x2="0" y2="5" stroke="#676A86" stroke-width="1" opacity="1"/><line transform="translate(201,0)" x2="0" y2="5" stroke="#676A86" stroke-width="1" opacity="1"/><line transform="translate(252,0)" x2="0" y2="5" stroke="#676A86" stroke-width="1" opacity="1"/></g><g class="mark-text role-axis-label" pointer-events="none"><text text-anchor="middle" transform="translate(48.30042460381912,16)" font-family="Georgia" font-size="12px" fill="#676A86" opacity="1">1920</text><text text-anchor="middle" transform="translate(99.14847212232303,16)" font-family="Georgia" font-size="12px" fill="#676A86" opacity="1">1940</text><text text-anchor="middle" transform="translate(149.99651964082693,16)" font-family="Georgia" font-size="12px" fill="#676A86" opacity="1">1960</text><text text-anchor="middle" transform="translate(200.84456715933086,16)" font-family="Georgia" font-size="12px" fill="#676A86" opacity="1">1980</text><text text-anchor="middle" transform="translate(251.69261467783474,16)" font-family="Georgia" font-size="12px" fill="#676A86" opacity="1">2000</text></g><g class="mark-rule role-axis-domain" pointer-events="none"><line transform="translate(0,0)" x2="300" y2="0" stroke="#676A86" stroke-width="1" opacity="1"/></g></g><path class="foreground" aria-hidden="true" d="" pointer-events="none" display="none"/></g></g><g class="mark-group role-axis" role="graphics-symbol" aria-roledescription="axis" aria-label="Y-axis for a linear scale with values from 0 to 24"><g transform="translate(0.5,0.5)"><path class="background" aria-hidden="true" d="M0,0h0v0h0Z" pointer-events="none"/><g><g class="mark-text role-axis-label" pointer-events="none"><text text-anchor="start" transform="translate(5,214)" font-family="Georgia" font-size="12px" fill="#676A86" opacity="1">0</text><text text-anchor="start" transform="translate(5,168.16666666666666)" font-family="Georgia" font-size="12px" fill="#676A86" opacity="1">5</text><text text-anchor="start" transform="translate(5,122.33333333333331)" font-family="Georgia" font-size="12px" fill="#676A86" opacity="1">10</text><text text-anchor="start" transform="translate(5,76.5)" font-family="Georgia" font-size="12px" fill="#676A86" opacity="1">15</text><text text-anchor="start" transform="translate(5,30.666666666666657)" font-family="Georgia" font-size="12px" fill="#676A86" opacity="1">20</text></g><g class="mark-rule role-axis-domain" pointer-events="none"><line transform="translate(0,220)" x2="0" y2="-220" stroke="#676A86" stroke-width="1" opacity="1"/></g></g><path class="foreground" aria-hidden="true" d="" pointer-events="none" display="none"/></g></g><g class="mark-group role-scope layer_0_pathgroup" role="graphics-object" aria-roledescription="group mark container"><g transform="translate(0,0)"><path class="background" aria-hidden="true" d="M0,0h300v220h-300Z"/><g><g class="mark-line role-mark layer_0_marks" role="graphics-object" aria-roledescription="line mark container"><path aria-label="Country: Brazil; Year: 1901; CO2 per capita (t): 0.113601872; Time: Jan 01, 1901; Value: 0.113601872" role="graphics-symbol" aria-roledescription="line mark" d="M0,218.95864950666666L2.540662196338662,218.78602114416665L5.081324392677324,218.84348409916666L7.621986589015987,218.78486516333334L10.169609503700784,218.72891943833332L12.710271700039444,218.57468265416668L15.250933896378106,218.49608551833333L17.79159609271677,218.46656238916668L20.339219007401567,218.49249774L22.87988120374023,218.28276124416666L25.420543400078888,218.15526866833335L27.96120559641755,217.80732061916666L30.508828511102344,217.68292117916667L33.04949070744101,218.4559015925L35.59015290377967,218.84286395583334L38.13081510011833,218.96213873416667L40.678438014803135,219.118284825L43.219100211141786,219.197332145L45.75976240748046,218.96109197416666L48.30042460381912,218.79184058416666L50.848047518503904,219.06146025500001L53.38870971484257,218.79708892250002L55.92937191118123,218.56080678666666L58.47003410751989,218.4408279075L61.01765702220469,218.39096389L63.55831921854335,218.39316367916666L66.09898141488202,218.25373325249998L68.63964361122068,218.33016407583335L71.18726652590547,218.24839095583332L73.72792872224414,218.50852282416668L76.2685909185828,218.8949713225L78.80925311492146,218.9171255425L81.35687602960627,218.79811063L83.89753822594491,218.84701981083333L86.43820042228357,218.65349645333333L88.97886261862224,218.767512755L91.52648553330704,218.5713329525L94.0671477296457,218.5983694675L96.60780992598436,218.65961423166667L99.14847212232303,218.56891831500002L101.69609503700781,218.64472475083332L104.23675723334648,218.76323591833332L106.77741942968514,218.66670980916666L109.31808162602381,218.81416406666668L111.86570454070859,218.65955136666668L114.40636673704726,218.56837823333333L116.94702893338592,218.322850625L119.4876911297246,218.56320431L122.03531404440938,218.69959743500002L124.57597624074805,216.66126614L127.1166384370867,216.4294496375L129.65730063342536,216.0099763066667L132.20492354811017,216.0818143825L134.74558574444882,215.52212264L137.2862479407875,215.01257137250002L139.82691013712616,214.78560642L142.37453305181094,215.0202746725L144.91519524814962,214.74619401583334L147.4558574444883,214.89958263583335L149.99651964082693,214.04986178583334L152.54414255551174,213.9377578341667L155.08480475185038,213.57474951083333L157.62546694818903,213.5356412475L160.16612914452773,213.5922464775L162.71375205921254,213.80676453583334L165.25441425555118,213.13153722666667L167.79507645188983,213.11954306500002L170.3357386482285,212.16346426L172.8833615629133,211.68472835583333L175.42402375925195,210.98585044166668L177.9646859555906,210.37492562166668L180.5053481519293,209.53392944L183.05297106661408,208.165542805L185.59363326295275,207.4871827325L188.1342954592914,207.13150526750002L190.67495765563007,207.10900085333333L193.22258057031488,206.78480668999998L195.76324276665352,205.9912146325L198.30390496299216,205.4460695375L200.84456715933086,205.89171863333334L203.39219007401562,207.3543537358333L205.93285227035432,207.6237648375L208.47351446669296,208.2856291725L211.01417666303163,208.394484485L213.5617995777164,207.80681813833334L216.1024617740551,206.90956350166667L218.64312397039373,206.61104390666668L221.18378616673243,206.752857795L223.73140908141718,206.71221454583332L226.27207127775588,207.27021045499998L228.81273347409453,206.86923956416666L231.3533956704332,207.02281742083332L233.90101858511798,206.6556077025L236.44168078145665,206.23153954333335L238.9823429777953,205.53975386083334L241.523005174134,204.34153189083332L244.07062808881875,203.74070764666666L246.61129028515742,203.35462971083334L249.1519524814961,203.17506737L251.69261467783474,202.99632683L254.24023759251955,202.7739649925L256.7808997888582,203.2821688975L259.32156198519687,203.99148058666665L261.8622241815355,203.37723324416666L264.40984709622035,203.15240386833335L266.950509292559,203.3418811966667L269.49117148889763,202.79200953916666L272.0318336852363,201.84401644000002L274.5794565999211,202.97548583583333L277.12011879625976,200.73872201166668L279.66078099259846,200.0455963L282.2014431889371,198.83672878666667L284.7490661036219,197.4272831391667L287.2897282999606,196.31550994L289.83039049629923,197.79911675333332L292.3710526926379,198.72690295333334L294.91867560732265,198.62689527083333L297.45933780366136,199.57875015833332L300,199.77227564249998" stroke="rgb(199, 233, 181)" stroke-width="2"/></g></g><path class="foreground" aria-hidden="true" d="" display="none"/></g><g transform="translate(0,0)"><path class="background" aria-hidden="true" d="M0,0h300v220h-300Z"/><g><g class="mark-line role-mark layer_0_marks" role="graphics-object" aria-roledescription="line mark container"><path aria-label="Country: China; Year: 1901; CO2 per capita (t): NaN; Time: Jan 01, 1901; Value: NaN" role="graphics-symbol" aria-roledescription="line mark" d="M2.540662196338662,219.99784414666667L5.081324392677324,219.95579986416666L7.621986589015987,219.95325649916668L10.169609503700784,219.94886990999998L12.710271700039444,219.6213058875L15.250933896378106,219.62936534L17.79159609271677,219.502491395L20.339219007401567,219.54699590083334L22.87988120374023,219.59556065333334L25.420543400078888,219.4039333475L27.96120559641755,219.79280190083333L30.508828511102344,219.77473252166666L33.04949070744101,219.68711392833333L35.59015290377967,219.67041543333332L38.13081510011833,219.63600461L40.678438014803135,219.60216454L43.219100211141786,219.58289436416666L45.75976240748046,219.52444029083333L48.30042460381912,219.47958438999999L50.848047518503904,219.51130157L53.38870971484257,219.4871339375L55.92937191118123,219.38306462416668L58.47003410751989,219.32898746916666L61.01765702220469,219.36703068499997L63.55831921854335,219.43820405833333L66.09898141488202,219.36574093500002L68.63964361122068,219.35700831916668L71.18726652590547,219.32740982166666L73.72792872224414,219.29132672333333L76.2685909185828,219.25231428833334L78.80925311492146,219.28838284833333L81.35687602960627,219.22699942916665L83.89753822594491,219.10303876083333L86.43820042228357,218.9566225L88.97886261862224,218.82949833249998L91.52648553330704,218.91567424833335L94.0671477296457,219.01387745416665L96.60780992598436,218.80955903583333L99.14847212232303,218.4817403725L101.69609503700781,218.11285495083334L104.23675723334648,218.01410994916668L106.77741942968514,218.3121871975L109.31808162602381,218.3108534475L111.86570454070859,219.13472433416666L114.40636673704726,219.46559672583334L116.94702893338592,219.4293820125L119.4876911297246,219.59676232083334L122.03531404440938,219.00497301833335L124.57597624074805,218.70073943666665L127.1166384370867,218.36554097416666L129.65730063342536,217.9861627625L132.20492354811017,217.93323031333333L134.74558574444882,217.55457338083335L137.2862479407875,217.14745823833334L139.82691013712616,216.81605743416668L142.37453305181094,216.28226202000002L144.91519524814962,212.48942135666667L147.4558574444883,209.847335005L149.99651964082693,209.18752482833332L152.54414255551174,212.47271705L155.08480475185038,214.09575566499998L157.62546694818903,214.2502947475L160.16612914452773,214.36085741583332L162.71375205921254,213.991818755L165.25441425555118,213.56149829666666L167.79507645188983,214.80442167249998L170.3357386482285,214.53085693416668L172.8833615629133,213.44964686833333L175.42402375925195,211.46948142833332L177.9646859555906,210.56056291416667L180.5053481519293,210.2070176525L183.05297106661408,210.04844304583335L185.59363326295275,210.06020292583335L188.1342954592914,208.69703759666666L190.67495765563007,208.419063765L193.22258057031488,207.5173423125L195.76324276665352,206.27875748333335L198.30390496299216,206.17642412583334L200.84456715933086,206.62806198833334L203.39219007401562,206.95737960333335L205.93285227035432,205.9954533175L208.47351446669296,205.43955128583332L211.01417666303163,204.38699989583333L213.5617995777164,203.3660861925L216.1024617740551,202.82011195416666L218.64312397039373,202.00453098833333L221.18378616673243,201.08401971166668L223.73140908141718,201.1113680675L226.27207127775588,201.14464103249998L228.81273347409453,200.49682906916667L231.3533956704332,199.84527642749998L233.90101858511798,198.67211294333333L236.44168078145665,197.56630835333334L238.9823429777953,195.881067525L241.523005174134,195.03812779L244.07062808881875,195.19799244L246.61129028515742,196.463942235L249.1519524814961,196.69458532166666L251.69261467783474,196.21026205916667L254.24023759251955,195.82511487916665L256.7808997888582,193.47894176416668L259.32156198519687,188.97078822416665L261.8622241815355,184.48651183416666L264.40984709622035,180.24697257416668L266.950509292559,176.31926272583334L269.49117148889763,173.26919605416668L272.0318336852363,170.0535943975L274.5794565999211,167.74900108083332L277.12011879625976,163.07348427333335L279.66078099259846,157.4801198575L282.2014431889371,156.2011531025L284.7490661036219,155.48200822L287.2897282999606,155.67493341583332L289.83039049629923,156.90670691666668L292.3710526926379,158.07517737L294.91867560732265,157.10044051166668L297.45933780366136,156.07069474333335L300,154.9498209325" stroke="rgb(134, 208, 187)" stroke-width="2"/></g></g><path class="foreground" aria-hidden="true" d="" display="none"/></g><g transform="translate(0,0)"><path class="background" aria-hidden="true" d="M0,0h300v220h-300Z"/><g><g class="mark-line role-mark layer_0_marks" role="graphics-object" aria-roledescription="line mark container"><path aria-label="Country: United Kingdom; Year: 1901; CO2 per capita (t): 10.69973871; Time: Jan 01, 1901; Value: 10.69973871" role="graphics-symbol" aria-roledescription="line mark" d="M0,121.919061825L2.540662196338662,119.14653382499999L5.081324392677324,119.35460579166667L7.621986589015987,119.86466405833332L10.169609503700784,119.51909080833333L12.710271700039444,116.90595574166666L15.250933896378106,113.30395229999999L17.79159609271677,116.90853450833332L20.339219007401567,116.95607614166668L22.87988120374023,117.00067206666665L25.420543400078888,115.34580575833333L27.96120559641755,121.47873063333333L30.508828511102344,112.996940925L33.04949070744101,117.038486675L35.59015290377967,116.43650470833332L38.13081510011833,113.21848651666669L40.678438014803135,114.653293975L43.219100211141786,121.83941164999999L45.75976240748046,124.19879477500001L48.30042460381912,121.690970225L50.848047518503904,153.58205804333335L53.38870971484257,131.65249190500003L55.92937191118123,126.74102008333331L58.47003410751989,122.91547308333332L61.01765702220469,128.71648217999999L63.55831921854335,170.1596934125L66.09898141488202,125.94035969166664L68.63964361122068,132.0878419116667L71.18726652590547,127.78273190833335L73.72792872224414,132.02450919166668L76.2685909185828,138.17531651000002L78.80925311492146,141.7833591625L81.35687602960627,142.8520258091667L83.89753822594491,137.06062105083333L86.43820042228357,136.2392156675L88.97886261862224,131.8106801825L91.52648553330704,129.42634408L94.0671477296457,133.69299048416664L96.60780992598436,133.58411223666667L99.14847212232303,129.70460656999998L101.69609503700781,131.0003942683333L104.23675723334648,131.48687282499998L106.77741942968514,134.61441566833335L109.31808162602381,137.45811904916667L111.86570454070859,142.24092348583335L114.40636673704726,139.07176839416667L116.94702893338592,134.88537201333335L119.4876911297246,132.88902273166667L122.03531404440938,131.78633736583333L124.57597624074805,129.3054710475L127.1166384370867,121.22622095833331L129.65730063342536,124.31634801666664L132.20492354811017,122.42691211666666L134.74558574444882,120.38994036666668L137.2862479407875,116.42951136666665L139.82691013712616,117.30752284166668L142.37453305181094,118.40868572499998L144.91519524814962,121.46726139166665L147.4558574444883,123.72831322499998L149.99651964082693,117.777074525L152.54414255551174,117.67039001666667L155.08480475185038,117.65942860833333L157.62546694818903,116.61809600833331L160.16612914452773,116.58881464999999L162.71375205921254,114.86385093333334L165.25441425555118,116.17393690833333L167.79507645188983,121.08463345L170.3357386482285,119.16245953333335L172.8833615629133,115.96565979166668L175.42402375925195,112.35852925L177.9646859555906,111.41402946666669L180.5053481519293,113.71927215000002L183.05297106661408,112.04504070833332L185.59363326295275,119.13857605833334L188.1342954592914,121.52145014166666L190.67495765563007,122.35474579166664L193.22258057031488,121.43074725833334L195.76324276665352,121.37687136666666L198.30390496299216,114.88410825833336L200.84456715933086,125.56975273333336L203.39219007401562,128.60317501166665L205.93285227035432,130.64273222916668L208.47351446669296,131.14866739333334L211.01417666303163,133.90189075083333L213.5617995777164,129.06647151750002L216.1024617740551,127.79413331666665L218.64312397039373,127.51006500833334L221.18378616673243,127.98403804999998L223.73140908141718,126.42880360000002L226.27207127775588,123.658147525L228.81273347409453,122.62620021666667L231.3533956704332,125.36011812499997L233.90101858511798,127.88422029166668L236.44168078145665,128.73357514416668L238.9823429777953,130.31260024749997L241.523005174134,127.18119480000001L244.07062808881875,131.55758990916667L246.61129028515742,131.04154831166667L249.1519524814961,132.42497029666666L251.69261467783474,131.7132679775L254.24023759251955,130.66586224083335L256.7808997888582,133.42600118833334L259.32156198519687,132.002313025L261.8622241815355,132.23960209166668L264.40984709622035,133.34370367083332L266.950509292559,134.46478932333332L269.49117148889763,136.58210215833333L272.0318336852363,139.6377787658333L274.5794565999211,147.88313771L277.12011879625976,146.03922783083334L279.66078099259846,152.73351751166666L282.2014431889371,150.70186884499998L284.7490661036219,152.58711611916667L287.2897282999606,158.48197401666667L289.83039049629923,161.1960127433333L292.3710526926379,164.81726770666666L294.91867560732265,166.686097655L297.45933780366136,168.10098809166666L300,169.79191525083334" stroke="rgb(69, 180, 194)" stroke-width="2"/></g></g><path class="foreground" aria-hidden="true" d="" display="none"/></g><g transform="translate(0,0)"><path class="background" aria-hidden="true" d="M0,0h300v220h-300Z"/><g><g class="mark-line role-mark layer_0_marks" role="graphics-object" aria-roledescription="line mark container"><path aria-label="Country: United States; Year: 1901; CO2 per capita (t): 9.122886129; Time: Jan 01, 1901; Value: 9.122886129" role="graphics-symbol" aria-roledescription="line mark" d="M0,136.37354381749998L2.540662196338662,132.94004301416663L5.081324392677324,120.06401375833335L7.621986589015987,123.49670822499999L10.169609503700784,114.10534703333332L12.710271700039444,110.93743237500001L15.250933896378106,95.51950375L17.79159609271677,113.20985344166667L20.339219007401567,103.95352797499999L22.87988120374023,95.67121235833334L25.420543400078888,99.17894781666666L27.96120559641755,93.24028037500001L30.508828511102344,86.351441275L33.04949070744101,100.04352040833332L35.59015290377967,97.55909038333334L38.13081510011833,85.9951587L40.678438014803135,74.54997064166666L43.219100211141786,69.51953616666667L45.75976240748046,93.74948137499999L48.30042460381912,73.43422634166666L50.848047518503904,101.65903430833333L53.38870971484257,102.58212680833333L55.92937191118123,67.51503559166666L58.47003410751989,85.61185728333334L61.01765702220469,84.14943019999998L63.55831921854335,74.75757189999999L66.09898141488202,79.906900425L68.63964361122068,83.97377440833334L71.18726652590547,75.76168435L73.72792872224414,93.06686115833332L76.2685909185828,112.89171391666665L78.80925311492146,129.86331151749997L81.35687602960627,123.94454554166668L83.89753822594491,118.37233310833331L86.43820042228357,115.11375470833332L88.97886261862224,100.36656785833334L91.52648553330704,95.68692824166668L94.0671477296457,115.64757489999998L96.60780992598436,105.91967503333333L99.14847212232303,93.09868498333334L101.69609503700781,83.04717327499999L104.23675723334648,74.34149772500001L106.77741942968514,71.29611371666668L109.31808162602381,61.914343333333335L111.86570454070859,69.11227445833332L114.40636673704726,77.59765566666667L116.94702893338592,65.63647300833333L119.4876911297246,62.48460469166666L122.03531404440938,91.78056873333333L124.57597624074805,73.60857505833333L127.1166384370867,71.12431901666666L129.65730063342536,77.08813475L132.20492354811017,76.01315580833332L134.74558574444882,85.09371255L137.2862479407875,74.71816935L139.82691013712616,70.33708568333336L142.37453305181094,74.14324793333334L144.91519524814962,81.05304185L147.4558574444883,79.19742123333334L149.99651964082693,78.22864903333333L152.54414255551174,80.864639625L155.08480475185038,77.76724880833335L157.62546694818903,73.46921789166666L160.16612914452773,68.95788258333333L162.71375205921254,64.50102193333333L165.25441425555118,58.40289574166668L167.79507645188983,53.96564790833336L170.3357386482285,49.48599415833332L172.8833615629133,42.479292625L175.42402375925195,30.74956811666667L177.9646859555906,31.305508941666677L180.5053481519293,24.070821591666686L183.05297106661408,17.118630008333334L185.59363326295275,26.083799683333318L188.1342954592914,35.86434976666668L190.67495765563007,28.977614874999997L193.22258057031488,25.466062966666666L195.76324276665352,21.261408116666654L198.30390496299216,22.664487358333332L200.84456715933086,31.58567087500001L203.39219007401562,40.717029191666654L205.93285227035432,51.34721569999999L208.47351446669296,51.60656765L211.01417666303163,48.08870165000002L213.5617995777164,49.07927924166667L216.1024617740551,50.53975501666668L218.64312397039373,44.90462524166668L221.18378616673243,38.958574049999996L223.73140908141718,38.37349468333335L226.27207127775588,33.54346214999999L228.81273347409453,37.094880075000006L231.3533956704332,35.13693690833335L233.90101858511798,33.38905689166668L236.44168078145665,32.04514930833332L238.9823429777953,31.97811310833332L241.523005174134,27.77750121666666L244.07062808881875,27.577145016666663L246.61129028515742,28.42018730833334L249.1519524814961,28.13218906666665L251.69261467783474,24.827249333333327L254.24023759251955,29.95848515L256.7808997888582,30.378372383333343L259.32156198519687,30.478729141666665L261.8622241815355,28.498233133333322L264.40984709622035,29.457066925000007L266.950509292559,33.71523210000001L269.49117148889763,33.12116875833334L272.0318336852363,40.87056013333333L274.5794565999211,55.67358939999999L277.12011879625976,50.96984694999999L279.66078099259846,56.27144306666668L282.2014431889371,63.325420125000015L284.7490661036219,60.249336125L287.2897282999606,60.01648262500001L289.83039049629923,65.38061410833335L292.3710526926379,69.81408775L294.91867560732265,71.860106175L297.45933780366136,67.97099191666665L300,72.78576002499999" stroke="rgb(37, 139, 187)" stroke-width="2"/></g></g><path class="foreground" aria-hidden="true" d="" display="none"/></g><g transform="translate(0,0)"><path class="background" aria-hidden="true" d="M0,0h300v220h-300Z"/><g><g class="mark-line role-mark layer_0_marks" role="graphics-object" aria-roledescription="line mark container"><path aria-label="Country: India; Year: 1901; CO2 per capita (t): 0.054076903; Time: Jan 01, 1901; Value: 0.054076903" role="graphics-symbol" aria-roledescription="line mark" d="M0,219.50429505583332L2.540662196338662,219.45637497666667L5.081324392677324,219.4480376L7.621986589015987,219.38511807666669L10.169609503700784,219.37409201583333L12.710271700039444,219.28038201666666L15.250933896378106,219.2019395041667L17.79159609271677,219.09091992333333L20.339219007401567,219.12271077583333L22.87988120374023,219.1501344175L25.420543400078888,219.10711659833333L27.96120559641755,218.9768142375L30.508828511102344,218.87664313166667L33.04949070744101,218.87450168833334L35.59015290377967,218.83029185416666L38.13081510011833,218.82410523416667L40.678438014803135,218.77872400083334L43.219100211141786,218.63498484666667L45.75976240748046,218.51803589916668L48.30042460381912,218.8044463825L50.848047518503904,218.72129288166667L53.38870971484257,218.748943545L55.92937191118123,218.71999716416667L58.47003410751989,218.6382009625L61.01765702220469,218.664008475L63.55831921854335,218.67627084416668L66.09898141488202,218.61978941916666L68.63964361122068,218.68678654166666L71.18726652590547,218.64418956416665L73.72792872224414,218.6360135575L76.2685909185828,218.76604275166667L78.80925311492146,218.86705339583332L81.35687602960627,218.90193401083334L83.89753822594491,218.78921725833334L86.43820042228357,218.75080644083332L88.97886261862224,218.78778156583334L91.52648553330704,218.67423984083334L94.0671477296457,218.53674290249998L96.60780992598436,218.58592435166668L99.14847212232303,218.51902160916666L101.69609503700781,218.50176854916666L104.23675723334648,218.52109785000002L106.77741942968514,218.72625968416665L109.31808162602381,218.71262958416668L111.86570454070859,218.589383705L114.40636673704726,218.62437717083336L116.94702893338592,218.616880955L119.4876911297246,218.63488555333333L122.03531404440938,218.59295351666668L124.57597624074805,218.5092270808333L127.1166384370867,218.46274365666667L129.65730063342536,218.40772261916666L132.20492354811017,218.405196405L134.74558574444882,218.348551025L137.2862479407875,218.23528784750002L139.82691013712616,218.20420365333334L142.37453305181094,218.02185085083332L144.91519524814962,217.97032733666666L147.4558574444883,217.89201102166666L149.99651964082693,217.73165500166667L152.54414255551174,217.59520314583335L155.08480475185038,217.40529756916666L157.62546694818903,217.26905765583334L160.16612914452773,217.38063181083334L162.71375205921254,217.17314783999998L165.25441425555118,217.12941008916667L167.79507645188983,217.18552936666666L170.3357386482285,216.99391646166666L172.8833615629133,217.00153023083334L175.42402375925195,216.99575645916667L177.9646859555906,216.89741075749998L180.5053481519293,216.79310422L183.05297106661408,216.77339794916668L185.59363326295275,216.745793055L188.1342954592914,216.55000030583332L190.67495765563007,216.47686752083334L193.22258057031488,216.35675875916667L195.76324276665352,216.381688435L198.30390496299216,216.28733525666667L200.84456715933086,216.1693725675L203.39219007401562,215.95906500666666L205.93285227035432,215.92164142083334L208.47351446669296,215.68670592333334L211.01417666303163,215.6727277375L213.5617995777164,215.34783578L216.1024617740551,215.121345835L218.64312397039373,214.90165053500002L221.18378616673243,214.61154344666667L223.73140908141718,214.19894418083334L226.27207127775588,213.92561039666668L228.81273347409453,213.66340307583334L231.3533956704332,213.38466106833334L233.90101858511798,213.29735372916667L236.44168078145665,213.04816559583335L238.9823429777953,212.75035716L241.523005174134,212.29099882833333L244.07062808881875,212.12440253583333L246.61129028515742,212.10602791583335L249.1519524814961,211.59617983166666L251.69261467783474,211.51134058083332L254.24023759251955,211.53657348083334L256.7808997888582,211.42415624L259.32156198519687,211.26305706916668L261.8622241815355,210.86870875583332L264.40984709622035,210.52860036083334L266.950509292559,210.09372651666666L269.49117148889763,209.4798297441667L272.0318336852363,208.83379381333333L274.5794565999211,207.861485205L277.12011879625976,207.53439853666666L279.66078099259846,207.0518396283333L282.2014431889371,205.94118532166667L284.7490661036219,205.4473752925L287.2897282999606,204.544654435L289.83039049629923,204.23356106083335L292.3710526926379,203.44304806833335L294.91867560732265,203.17659636083334L297.45933780366136,202.43896013L300,202.44745507250002" stroke="rgb(34, 90, 165)" stroke-width="2"/></g></g><path class="foreground" aria-hidden="true" d="" display="none"/></g></g><g class="mark-text role-mark layer_1_marks" role="graphics-object" aria-roledescription="text mark container"><text aria-label="Country: Brazil; Year: 2018; CO2 per capita (t): 2.22777271; Time: Jan 01, 2018; Value: 2.22777271" role="graphics-symbol" aria-roledescription="text mark" text-anchor="start" transform="translate(302.45933780366136,202.57875015833332)" font-family="Georgia" font-size="11px" fill="rgb(199, 233, 181)">Brazil</text><text aria-label="Country: China; Year: 2018; CO2 per capita (t): 6.974106028; Time: Jan 01, 2018; Value: 6.974106028" role="graphics-symbol" aria-roledescription="text mark" text-anchor="start" transform="translate(302.45933780366136,159.07069474333335)" font-family="Georgia" font-size="11px" fill="rgb(134, 208, 187)">China</text><text aria-label="Country: United Kingdom; Year: 2018; CO2 per capita (t): 5.66171039; Time: Jan 01, 2018; Value: 5.66171039" role="graphics-symbol" aria-roledescription="text mark" text-anchor="start" transform="translate(302.45933780366136,171.10098809166666)" font-family="Georgia" font-size="11px" fill="rgb(69, 180, 194)">United Kingdom</text><text aria-label="Country: United States; Year: 2018; CO2 per capita (t): 16.5849827; Time: Jan 01, 2018; Value: 16.5849827" role="graphics-symbol" aria-roledescription="text mark" text-anchor="start" transform="translate(302.45933780366136,70.97099191666665)" font-family="Georgia" font-size="11px" fill="rgb(37, 139, 187)">United States</text><text aria-label="Country: India; Year: 2018; CO2 per capita (t): 1.915749804; Time: Jan 01, 2018; Value: 1.915749804" role="graphics-symbol" aria-roledescription="text mark" text-anchor="start" transform="translate(302.45933780366136,205.43896013)" font-family="Georgia" font-size="11px" fill="rgb(34, 90, 165)">India</text></g><g class="mark-group role-title"><g transform="translate(-2,-32)"><path class="background" aria-hidden="true" d="M0,0h0v0h0Z" pointer-events="none"/><g><g class="mark-text role-title-text" role="graphics-symbol" aria-roledescription="title" aria-label="Title text 'CO2 Emissions'" pointer-events="none"><text text-anchor="start" transform="translate(0,4)" font-family="Georgia" font-size="14px" font-weight="bold" fill="#F4134D" opacity="1">CO2 Emissions</text></g><g class="mark-text role-title-subtitle" role="graphics-symbol" aria-roledescription="subtitle" aria-label="Subtitle text 'Tonnes per capita. Source: Global Carbon Project'" pointer-events="none"><text text-anchor="start" transform="translate(0,19)" font-family="Georgia" font-size="12px" font-style="italic" fill="#F4134D" opacity="1">Tonnes per capita. Source: Global Carbon Project</text></g></g><path class="foreground" aria-hidden="true" d="" pointer-events="none" display="none"/></g></g></g><path class="foreground" aria-hidden="true" d="" display="none"/></g></g></g></svg>