<svg xmlns="http://www.w3.org/2000/svg" xmlns:xlink="http://www.w3.org/1999/xlink" version="1.1" class="marks" width="350" height="303" viewBox="0 0 350 303"><rect width="350" height="303" fill="#122B39"/><g fill="none" stroke-miterlimit="10" transform="translate(7,60)"><g class="mark-group role-frame root" role="graphics-object" aria-roledescription="group mark container"><g transform="translate(0,0)"><path class="background" aria-hidden="true" d="M0,0h300v220h-300Z"/><g><g class="mark-group role-axis" aria-hidden="true"><g transform="translate(0.5,0.5)"><path class="background" aria-hidden="true" d="M0,0h0v0h0Z" pointer-events="none"/><g><g class="mark-rule role-axis-grid" pointer-events="none"><line transform="translate(0,220)" x2="300" y2="0" stroke="#676A86" stroke-opacity="0.1" stroke-width="1" opacity="1"/><line transform="translate(0,176)" x2="300" y2="0" stroke="#676A86" stroke-opacity="0.1" stroke-width="1" opacity="1"/><line transform="translate(0,132)" x2="300" y2="0" stroke="#676A86" stroke-opacity="0.1" stroke-width="1" opacity="1"/><line transform="translate(0,88)" x2="300" y2="0" stroke="#676A86" stroke-opacity="0.1" stroke-width="1" opacity="1"/><line transform="translate(0,44)" x2="300" y2="0" stroke="#676A86" stroke-opacity="0.1" stroke-width="1" opacity="1"/><line transform="translate(0,0)" x2="300" y2="0" stroke="#676A86" stroke-opacity="0.1" stroke-width="1" opacity="1"/></g></g><path class="foreground" aria-hidden="true" d="" pointer-events="none" display="none"/></g></g><g class="mark-group role-axis" role="graphics-symbol" aria-roledescription="axis" aria-label="X-axis for a time scale with values from Tuesday, 01 January 1901, 12:00:00 AM to Tuesday, 01 January 2019, 12:00:00 AM"><g transform="translate(0.5,220.5)"><path class="background" aria-hidden="true" d="M0,0h0v0h0Z" pointer-events="none"/><g><g class="mark-rule role-axis-tick" pointer-events="none"><line transform="translate(48,0)" x2="0" y2="5" stroke="#676A86" stroke-width="1" opacity="1"/><line transform="translate(99,0)" x2="0" y2="5" stroke="#676A86" stroke-width="1" opacity="1"/><line transform="translate(150,0)" x2="0" y2="5" stroke="#676A86" stroke-width="1" opacity="1"/><line transform="translate(201,0)" x2="0" y2="5" stroke="#676A86" stroke-width="1" opacity="1"/><line transform="translate(252,0)" x2="0" y2="5" stroke="#676A86" stroke-width="1" opacity="1"/></g><g class="mark-text role-axis-label" pointer-events="none"><text text-anchor="middle" transform="translate(48.30042460381912,16)" font-family="Georgia" font-size="12px" fill="#676A86" opacity="1">1920</text><text text-anchor="middle" transform="translate(99.14847212232303,16)" font-family="Georgia" font-size="12px" fill="#676A86" opacity="1">1940</text><text text-anchor="middle" transform="translate(149.99651964082693,16)" font-family="Georgia" font-size="12px" fill="#676A86" opacity="1">1960</text><text text-anchor="middle" transform="translate(200.84456715933086,16)" font-family="Georgia" font-size="12px" fill="#676A86" opacity="1">1980</text><text text-anchor="middle" transform="translate(251.69261467783474,16)" font-family="Georgia" font-size="12px" fill="#676A86" opacity="1">2000</text></g><g class="mark-rule role-axis-domain" pointer-events="none"><line transform="translate(0,0)" x2="300" y2="0" stroke="#676A86" stroke-width="1" opacity="1"/></g></g><path class="foreground" aria-hidden="true" d="" pointer-events="none" display="none"/></g></g><g class="mark-group role-axis" role="graphics-symbol" aria-roledescription="axis" aria-label="Y-axis for a linear scale with values from 0 to 5"><g transform="translate(0.5,0.5)"><path class="background" aria-hidden="true" d="M0,0h0v0h0Z" pointer-events="none"/><g><g class="mark-text role-axis-label" pointer-events="none"><text text-anchor="start" transform="translate(5,214)" font-family="Georgia" font-size="12px" fill="#676A86" opacity="1">0</text><text text-anchor="start" transform="translate(5,170)" font-family="Georgia" font-size="12px" fill="#676A86" opacity="1">1</text><text text-anchor="start" transform="translate(5,126)" font-family="Georgia" font-size="12px" fill="#676A86" opacity="1">2</text><text text-anchor="start" transform="translate(5,82)" font-family="Georgia" font-size="12px" fill="#676A86" opacity="1">3</text><text text-anchor="start" transform="translate(5,37.99999999999999)" font-family="Georgia" font-size="12px" fill="#676A86" opacity="1">4</text><text text-anchor="start" transform="translate(5,-6)" font-family="Georgia" font-size="12px" fill="#676A86" opacity="1">5</text></g><g class="mark-rule role-axis-domain" pointer-events="none"><line transform="translate(0,220)" x2="0" y2="-220" stroke="#676A86" stroke-width="1" opacity="1"/></g></g><path class="foreground" aria-hidden="true" d="" pointer-events="none" display="none"/></g></g><g class="mark-group role-scope layer_0_pathgroup" role="graphics-object" aria-roledescription="group mark container"><g transform="translate(0,0)"><path class="background" aria-hidden="true" d="M0,0h300v220h-300Z"/><g><g class="mark-line role-mark layer_0_marks" role="graphics-object" aria-roledescription="line mark container"><path aria-label="Country: World; Year: 1901; CO2 per capita (t): 1.215954441; Time: Jan 01, 1901; Value: 1.215954441" role="graphics-symbol" aria-roledescription="line mark" d="M0,166.498004596L2.540662196338662,165.462383724L5.081324392677324,160.849885284L7.621986589015987,160.576686512L10.169609503700784,157.09202586L12.710271700039444,154.29865668800002L15.250933896378106,146.151266844L17.79159609271677,149.335742996L20.339219007401567,146.918528856L22.87988120374023,143.76293492000002L25.420543400078888,142.79395746L27.96120559641755,139.56775258800002L30.508828511102344,133.44163183999999L33.04949070744101,141.890410816L35.59015290377967,143.395056684L38.13081510011833,137.804985208L40.678438014803135,134.57222631599998L43.219100211141786,136.345674916L45.75976240748046,147.998807616L48.30042460381912,136.88744146L50.848047518503904,147.684449L53.38870971484257,144.8318619L55.92937191118123,135.517127152L58.47003410751989,136.098138836L61.01765702220469,136.389452144L63.55831921854335,138.822343704L66.09898141488202,132.34214034800002L68.63964361122068,133.7754649L71.18726652590547,128.509360496L73.72792872224414,136.689105432L76.2685909185828,146.44741738L78.80925311492146,154.500183552L81.35687602960627,151.860999268L83.89753822594491,146.758073396L86.43820042228357,144.017493092L88.97886261862224,137.42224526799998L91.52648553330704,132.60204847999998L94.0671477296457,138.52065682399999L96.60780992598436,134.52702538L99.14847212232303,127.27317059599999L101.69609503700781,125.77538181999999L104.23675723334648,126.655828156L106.77741942968514,125.573463048L109.31808162602381,124.555347004L111.86570454070859,141.153967196L114.40636673704726,134.587537436L116.94702893338592,126.33842716L119.4876911297246,122.57353323600002L122.03531404440938,126.81794831199998L124.57597624074805,115.94536162L127.1166384370867,111.46948771199999L129.65730063342536,111.956641104L132.20492354811017,110.858394944L134.74558574444882,110.43879417999999L137.2862479407875,101.99519242000001L139.82691013712616,96.56506882L142.37453305181094,94.74674483999999L144.91519524814962,93.48852717599999L147.4558574444883,89.332290036L149.99651964082693,84.664867144L152.54414255551174,86.854819172L155.08480475185038,84.70049460399999L157.62546694818903,79.736778484L160.16612914452773,75.263908368L162.71375205921254,71.52380276800001L165.25441425555118,67.72869699200001L167.79507645188983,66.05309893599998L170.3357386482285,60.97759896799998L172.8833615629133,53.84057527199998L175.42402375925195,43.701375256L177.9646859555906,40.238415887999984L180.5053481519293,35.59216694L183.05297106661408,29.55370197999999L185.59363326295275,33.99183818799999L188.1342954592914,37.68980846399999L190.67495765563007,31.491643128000014L193.22258057031488,29.748661228L195.76324276665352,26.206989600000007L198.30390496299216,24.491431755999997L200.84456715933086,28.82563574000001L203.39219007401562,37.275578032L205.93285227035432,41.794781908000026L208.47351446669296,43.269739480000005L211.01417666303163,41.33106309199999L213.5617995777164,38.28076449999998L216.1024617740551,39.037940524L218.64312397039373,36.57497439199999L221.18378616673243,33.01786712399997L223.73140908141718,33.55247460400001L226.27207127775588,32.53020020799998L228.81273347409453,31.709476524000003L231.3533956704332,40.405121372L233.90101858511798,41.191976891999985L236.44168078145665,42.51456426800001L238.9823429777953,41.27838915199999L241.523005174134,38.32502000800001L244.07062808881875,39.745601367999974L246.61129028515742,42.72853371599999L249.1519524814961,42.73683229199998L251.69261467783474,40.09621303600001L254.24023759251955,40.876786631999984L256.7808997888582,39.083893948000004L259.32156198519687,32.61284690400001L261.8622241815355,26.11839577600003L264.40984709622035,22.18625208800001L266.950509292559,18.221982108000013L269.49117148889763,14.670325735999977L272.0318336852363,12.958151008000003L274.5794565999211,18.56369002399998L277.12011879625976,10.449769352000013L279.66078099259846,6.226364936000004L282.2014431889371,5.366649683999989L284.7490661036219,6.50272713200001L287.2897282999606,7.428051575999996L289.83039049629923,10.073405759999988L292.3710526926379,12.377602424L294.91867560732265,11.909286751999987L297.45933780366136,10.008103248000014L300,12.127085564000023" stroke="rgb(69, 180, 194)" stroke-width="2"/></g></g><path class="foreground" aria-hidden="true" d="" display="none"/></g></g><g class="mark-text role-mark layer_1_marks" role="graphics-object" aria-roledescription="text mark container"><text aria-label="Country: World; Year: 2018; CO2 per capita (t): 4.772543108; Time: Jan 01, 2018; Value: 4.772543108" role="graphics-symbol" aria-roledescription="text mark" text-anchor="start" transform="translate(302.45933780366136,13.008103248000014)" font-family="Georgia" font-size="11px" fill="rgb(69, 180, 194)">World</text></g><g class="mark-group role-title"><g transform="translate(-2,-48)"><path class="background" aria-hidden="true" d="M0,0h0v0h0Z" pointer-events="none"/><g><g class="mark-text role-title-text" role="graphics-symbol" aria-roledescription="title" aria-label="Title text 'CO2 Emissions'" pointer-events="none"><text text-anchor="start" transform="translate(0,4)" font-family="Georgia" font-size="14px" font-weight="bold" fill="#F4134D" opacity="1">CO2 Emissions</text></g><g class="mark-text role-title-subtitle" role="graphics-symbol" aria-roledescription="subtitle" aria-label="Subtitle text 'Tonnes per capita. Source: Global Carbon Project'" pointer-events="none"><text text-anchor="start" transform="translate(0,19)" font-family="Georgia" font-size="12px" font-style="italic" fill="#F4134D" opacity="1">Tonnes per capita. Source: Global Carbon Project</text></g></g><path class="foreground" aria-hidden="true" d="" pointer-events="none" display="none"/></g></g></g><path class="foreground" aria-hidden="true" d="" display="none"/></g></g></g></svg>