<svg xmlns="http://www.w3.org/2000/svg" xmlns:xlink="http://www.w3.org/1999/xlink" version="1.1" class="marks" width="371" height="303" viewBox="0 0 371 303"><rect width="371" height="303" fill="#122B39"/><g fill="none" stroke-miterlimit="10" transform="translate(5,60)"><g class="mark-group role-frame root" role="graphics-object" aria-roledescription="group mark container"><g transform="translate(0,0)"><path class="background" aria-hidden="true" d="M0,0h300v220h-300Z"/><g><g class="mark-group role-axis" aria-hidden="true"><g transform="translate(0.5,0.5)"><path class="background" aria-hidden="true" d="M0,0h0v0h0Z" pointer-events="none"/><g><g class="mark-rule role-axis-grid" pointer-events="none"><line transform="translate(0,220)" x2="300" y2="0" stroke="#676A86" stroke-opacity="0.1" stroke-width="1" opacity="1"/><line transform="translate(0,189)" x2="300" y2="0" stroke="#676A86" stroke-opacity="0.1" stroke-width="1" opacity="1"/><line transform="translate(0,157)" x2="300" y2="0" stroke="#676A86" stroke-opacity="0.1" stroke-width="1" opacity="1"/><line transform="translate(0,126)" x2="300" y2="0" stroke="#676A86" stroke-opacity="0.1" stroke-width="1" opacity="1"/><line transform="translate(0,94)" x2="300" y2="0" stroke="#676A86" stroke-opacity="0.1" stroke-width="1" opacity="1"/><line transform="translate(0,63)" x2="300" y2="0" stroke="#676A86" stroke-opacity="0.1" stroke-width="1" opacity="1"/><line transform="translate(0,31)" x2="300" y2="0" stroke="#676A86" stroke-opacity="0.1" stroke-width="1" opacity="1"/><line transform="translate(0,0)" x2="300" y2="0" stroke="#676A86" stroke-opacity="0.1" stroke-width="1" opacity="1"/></g></g><path class="foreground" aria-hidden="true" d="" pointer-events="none" display="none"/></g></g><g class="mark-group role-axis" role="graphics-symbol" aria-roledescription="axis" aria-label="X-axis for a time scale with values from 1850 to 2019"><g transform="translate(0.5,220.5)"><path class="background" aria-hidden="true" d="M0,0h0v0h0Z" pointer-events="none"/><g><g class="mark-rule role-axis-tick" pointer-events="none"><line transform="translate(18,0)" x2="0" y2="5" stroke="#676A86" stroke-width="1" opacity="1"/><line transform="translate(53,0)" x2="0" y2="5" stroke="#676A86" stroke-width="1" opacity="1"/><line transform="translate(89,0)" x2="0" y2="5" stroke="#676A86" stroke-width="1" opacity="1"/><line transform="translate(124,0)" x2="0" y2="5" stroke="#676A86" stroke-width="1" opacity="1"/><line transform="translate(160,0)" x2="0" y2="5" stroke="#676A86" stroke-width="1" opacity="1"/><line transform="translate(195,0)" x2="0" y2="5" stroke="#676A86" stroke-width="1" opacity="1"/><line transform="translate(231,0)" x2="0" y2="5" stroke="#676A86" stroke-width="1" opacity="1"/><line transform="translate(266,0)" x2="0" y2="5" stroke="#676A86" stroke-width="1" opacity="1"/></g><g class="mark-text role-axis-label" pointer-events="none"><text text-anchor="middle" transform="translate(17.74940867705667,16)" font-family="Georgia" font-size="12px" fill="#676A86" opacity="1">1860</text><text text-anchor="middle" transform="translate(53.25308621974533,16)" font-family="Georgia" font-size="12px" fill="#676A86" opacity="1">1880</text><text text-anchor="middle" transform="translate(88.75676376243399,16)" font-family="Georgia" font-size="12px" fill="#676A86" opacity="1">1900</text><text text-anchor="middle" transform="translate(124.25558111654732,16)" font-family="Georgia" font-size="12px" fill="#676A86" opacity="1">1920</text><text text-anchor="middle" transform="translate(159.75925865923597,16)" font-family="Georgia" font-size="12px" fill="#676A86" opacity="1">1940</text><text text-anchor="middle" transform="translate(195.26293620192465,16)" font-family="Georgia" font-size="12px" fill="#676A86" opacity="1">1960</text><text text-anchor="middle" transform="translate(230.7666137446133,16)" font-family="Georgia" font-size="12px" fill="#676A86" opacity="1">1980</text><text text-anchor="middle" transform="translate(266.270291287302,16)" font-family="Georgia" font-size="12px" fill="#676A86" opacity="1">2000</text></g><g class="mark-rule role-axis-domain" pointer-events="none"><line transform="translate(0,0)" x2="300" y2="0" stroke="#676A86" stroke-width="1" opacity="1"/></g></g><path class="foreground" aria-hidden="true" d="" pointer-events="none" display="none"/></g></g><g class="mark-group role-axis" role="graphics-symbol" aria-roledescription="axis" aria-label="Y-axis for a linear scale with values from 0 to 140,000"><g transform="translate(0.5,0.5)"><path class="background" aria-hidden="true" d="M0,0h0v0h0Z" pointer-events="none"/><g><g class="mark-text role-axis-label" pointer-events="none"><text text-anchor="start" transform="translate(5,214)" font-family="Georgia" font-size="12px" fill="#676A86" opacity="1">0</text><text text-anchor="start" transform="translate(5,182.57142857142858)" font-family="Georgia" font-size="12px" fill="#676A86" opacity="1">20,000</text><text text-anchor="start" transform="translate(5,151.14285714285714)" font-family="Georgia" font-size="12px" fill="#676A86" opacity="1">40,000</text><text text-anchor="start" transform="translate(5,119.71428571428571)" font-family="Georgia" font-size="12px" fill="#676A86" opacity="1">60,000</text><text text-anchor="start" transform="translate(5,88.28571428571429)" font-family="Georgia" font-size="12px" fill="#676A86" opacity="1">80,000</text><text text-anchor="start" transform="translate(5,56.857142857142854)" font-family="Georgia" font-size="12px" fill="#676A86" opacity="1">100,000</text><text text-anchor="start" transform="translate(5,25.428571428571438)" font-family="Georgia" font-size="12px" fill="#676A86" opacity="1">120,000</text><text text-anchor="start" transform="translate(5,-6)" font-family="Georgia" font-size="12px" fill="#676A86" opacity="1">140,000</text></g><g class="mark-rule role-axis-domain" pointer-events="none"><line transform="translate(0,220)" x2="0" y2="-220" stroke="#676A86" stroke-width="1" opacity="1"/></g></g><path class="foreground" aria-hidden="true" d="" pointer-events="none" display="none"/></g></g><g class="mark-group role-scope layer_0_pathgroup" role="graphics-object" aria-roledescription="group mark container"><g transform="translate(0,0)"><path class="background" aria-hidden="true" d="M0,0h300v220h-300Z"/><g><g class="mark-area role-mark layer_0_marks" role="graphics-object" aria-roledescription="area mark container"><path aria-label="Source: Coal; Year: 1850; TWh consumed): 569; Time (year): 1850; Sum of Value: 569" role="graphics-symbol" aria-roledescription="area mark" d="M0,219.10585714285713L17.74940867705667,218.33271428571427L35.503677542688656,217.41028571428572L53.25308621974533,215.95357142857145L71.00735508537731,213.74885714285713L88.75676376243399,210.61385714285714L106.50617243949065,205.55071428571426L124.25558111654732,202.785L142.0098499821793,200.38228571428573L159.75925865923597,196.24942857142858L177.51352752486798,188.35299999999998L195.26293620192465,171.26842857142856L204.14250072902828,156.27542857142856L205.91646955901888,152.91728571428573L207.6904383890095,150.3432857142857L209.4644072190001,146.11142857142858L211.24303372970874,141.10014285714286L213.0170025596993,136.11557142857143L214.7909713896899,132.84385714285713L216.56514272753782,128.23957142857142L218.34397174610373,122.89828571428572L220.11794057609436,123.18428571428572L221.89190940608495,123.14657142857142L223.66587823607554,117.74085714285714L225.4447072546415,114.37328571428571L227.21867608463208,111.29171428571428L228.99264491462267,107.63185714285716L230.7666137446133,108.94085714285715L232.5454427631792,110.25142857142856L234.3194115931698,111.49128571428571L236.0933804231604,110.4447142857143L237.86734925315102,105.84828571428572L239.64617827171693,103.65771428571429L241.42014710170753,101.39171428571429L243.19411593169815,97.44428571428571L244.96808476168874,93.09614285714285L246.7469137802547,90.54257142857142L248.52088261024525,89.463L250.2948514402359,89.08585714285714L252.06882027022647,88.06128571428573L253.8476492887924,87.93242857142857L255.62161811878303,86.2667142857143L257.3955869487736,84.06042857142857L259.1695557787642,79.96057142857141L260.9483847973301,78.61385714285714L262.72235362732073,77.90671428571429L264.49632245731135,75.47885714285715L266.270291287302,71.79228571428571L268.04912030586786,69.98828571428571L269.8230891358585,66.57042857142856L271.59705796584905,59.93428571428572L273.37102679583967,52.39771428571429L275.1498558144056,46.421571428571426L276.9238246443962,41.465285714285706L278.6977934743868,35.34614285714285L280.4717623043774,34.00414285714285L282.2505913229433,37.378000000000014L284.02456015293393,28.77285714285714L285.79852898292455,23.66571428571428L287.5724978129151,21.118428571428563L289.35132683148106,18.151571428571437L291.1252956614716,17.345428571428563L292.89926449146225,16.473285714285723L294.67323332145287,14.606428571428571L296.4520623400188,11.763714285714295L298.22603117000943,6.5890000000000075L300,5.089857142857137L300,73.99542857142858L298.22603117000943,75.90314285714285L296.4520623400188,79.90085714285715L294.67323332145287,82.48585714285714L292.89926449146225,85.371L291.1252956614716,87.98742857142858L289.35132683148106,88.85485714285713L287.5724978129151,90.55199999999999L285.79852898292455,92.83685714285713L284.02456015293393,94.76814285714286L282.2505913229433,100.4692857142857L280.4717623043774,98.07128571428572L278.6977934743868,98.55528571428572L276.9238246443962,101.29114285714284L275.1498558144056,103.26171428571428L273.37102679583967,105.29828571428571L271.59705796584905,109.42957142857142L269.8230891358585,112.05542857142856L268.04912030586786,113.75728571428573L266.270291287302,114.87614285714284L264.49632245731135,117.15628571428572L262.72235362732073,119.32957142857143L260.9483847973301,120.29914285714285L259.1695557787642,121.71657142857144L257.3955869487736,124.84528571428572L255.62161811878303,126.76871428571428L253.8476492887924,128.27885714285713L252.06882027022647,128.2112857142857L250.2948514402359,129.382L248.52088261024525,130.15514285714283L246.7469137802547,131.73442857142857L244.96808476168874,133.89828571428572L243.19411593169815,137.06L241.42014710170753,139.5082857142857L239.64617827171693,141.35000000000002L237.86734925315102,141.99114285714285L236.0933804231604,145.08685714285713L234.3194115931698,145.0947142857143L232.5454427631792,143.48714285714283L230.7666137446133,141.7177142857143L228.99264491462267,139.6324285714286L227.21867608463208,141.8685714285714L225.4447072546415,144.60914285714287L223.66587823607554,147.10771428571428L221.89190940608495,151.47157142857142L220.11794057609436,150.97028571428572L218.34397174610373,150.66228571428573L216.56514272753782,155.19585714285714L214.7909713896899,159.5047142857143L213.0170025596993,162.92257142857144L211.24303372970874,167.49857142857144L209.4644072190001,171.72728571428573L207.6904383890095,175.582L205.91646955901888,178.5692857142857L204.14250072902828,181.6382857142857L195.26293620192465,195.53442857142858L177.51352752486798,208.1577142857143L159.75925865923597,214.456L142.0098499821793,216.293L124.25558111654732,218.23685714285713L106.50617243949065,219.153L88.75676376243399,219.61499999999998L71.00735508537731,219.80828571428572L53.25308621974533,219.94814285714284L35.503677542688656,219.99057142857143L17.74940867705667,220L0,220Z" fill="rgb(169, 221, 183)" opacity="0.9"/></g></g><path class="foreground" aria-hidden="true" d="" display="none"/></g><g transform="translate(0,0)"><path class="background" aria-hidden="true" d="M0,0h300v220h-300Z"/><g><g class="mark-area role-mark layer_0_marks" role="graphics-object" aria-roledescription="area mark container"><path aria-label="Source: Oil; Year: 1850; TWh consumed): 0; Time (year): 1850; Sum of Value: 0" role="graphics-symbol" aria-roledescription="area mark" d="M0,220L17.74940867705667,220L35.503677542688656,219.99057142857143L53.25308621974533,219.94814285714284L71.00735508537731,219.86014285714285L88.75676376243399,219.71557142857145L106.50617243949065,219.37614285714287L124.25558111654732,218.603L142.0098499821793,217.24057142857143L159.75925865923597,215.831L177.51352752486798,211.44514285714286L195.26293620192465,202.56185714285715L204.14250072902828,191.543L205.91646955901888,189.36342857142859L207.6904383890095,187.17128571428572L209.4644072190001,184.36785714285713L211.24303372970874,181.379L213.0170025596993,178.0302857142857L214.7909713896899,175.67785714285716L216.56514272753782,172.26314285714284L218.34397174610373,168.542L220.11794057609436,169.28685714285714L221.89190940608495,169.79600000000002L223.66587823607554,166.5242857142857L225.4447072546415,164.66214285714284L227.21867608463208,162.75914285714288L228.99264491462267,161.81942857142857L230.7666137446133,164.0932857142857L232.5454427631792,166.10628571428572L234.3194115931698,167.83171428571427L236.0933804231604,168.19157142857142L237.86734925315102,166.98157142857144L239.64617827171693,166.90300000000002L241.42014710170753,165.30957142857142L243.19411593169815,164.21585714285715L244.96808476168874,162.32385714285715L246.7469137802547,161.38571428571427L248.52088261024525,160.77128571428574L250.2948514402359,160.77128571428574L252.06882027022647,159.74514285714287L253.8476492887924,160.13014285714286L255.62161811878303,158.81642857142856L257.3955869487736,158.01500000000001L259.1695557787642,156.54571428571427L260.9483847973301,154.92242857142855L262.72235362732073,154.59085714285715L264.49632245731135,153.417L266.270291287302,152.59042857142856L268.04912030586786,151.9917142857143L269.8230891358585,151.42442857142856L271.59705796584905,149.89857142857144L273.37102679583967,147.31199999999998L275.1498558144056,146.4194285714286L276.9238246443962,145.56614285714286L278.6977934743868,144.6374285714286L280.4717623043774,145.25342857142857L282.2505913229433,146.68657142857143L284.02456015293393,144.43471428571428L285.79852898292455,143.70714285714286L287.5724978129151,142.7532857142857L289.35132683148106,141.9172857142857L291.1252956614716,141.40657142857143L292.89926449146225,140.02685714285715L294.67323332145287,138.4114285714286L296.4520623400188,137.39314285714286L298.22603117000943,136.42985714285714L300,135.74L300,220L298.22603117000943,220L296.4520623400188,220L294.67323332145287,220L292.89926449146225,220L291.1252956614716,220L289.35132683148106,220L287.5724978129151,220L285.79852898292455,220L284.02456015293393,220L282.2505913229433,220L280.4717623043774,220L278.6977934743868,220L276.9238246443962,220L275.1498558144056,220L273.37102679583967,220L271.59705796584905,220L269.8230891358585,220L268.04912030586786,220L266.270291287302,220L264.49632245731135,220L262.72235362732073,220L260.9483847973301,220L259.1695557787642,220L257.3955869487736,220L255.62161811878303,220L253.8476492887924,220L252.06882027022647,220L250.2948514402359,220L248.52088261024525,220L246.7469137802547,220L244.96808476168874,220L243.19411593169815,220L241.42014710170753,220L239.64617827171693,220L237.86734925315102,220L236.0933804231604,220L234.3194115931698,220L232.5454427631792,220L230.7666137446133,220L228.99264491462267,220L227.21867608463208,220L225.4447072546415,220L223.66587823607554,220L221.89190940608495,220L220.11794057609436,220L218.34397174610373,220L216.56514272753782,220L214.7909713896899,220L213.0170025596993,220L211.24303372970874,220L209.4644072190001,220L207.6904383890095,220L205.91646955901888,220L204.14250072902828,220L195.26293620192465,220L177.51352752486798,220L159.75925865923597,220L142.0098499821793,220L124.25558111654732,220L106.50617243949065,220L88.75676376243399,220L71.00735508537731,220L53.25308621974533,220L35.503677542688656,220L17.74940867705667,220L0,220Z" fill="rgb(33, 115, 177)" opacity="0.9"/></g></g><path class="foreground" aria-hidden="true" d="" display="none"/></g><g transform="translate(0,0)"><path class="background" aria-hidden="true" d="M0,0h300v220h-300Z"/><g><g class="mark-area role-mark layer_0_marks" role="graphics-object" aria-roledescription="area mark container"><path aria-label="Source: Gas; Year: 1850; TWh consumed): 0; Time (year): 1850; Sum of Value: 0" role="graphics-symbol" aria-roledescription="area mark" d="M0,220L17.74940867705667,220L35.503677542688656,219.99057142857143L53.25308621974533,219.94814285714284L71.00735508537731,219.80828571428572L88.75676376243399,219.61499999999998L106.50617243949065,219.153L124.25558111654732,218.23685714285713L142.0098499821793,216.293L159.75925865923597,214.456L177.51352752486798,208.1577142857143L195.26293620192465,195.53442857142858L204.14250072902828,181.6382857142857L205.91646955901888,178.5692857142857L207.6904383890095,175.582L209.4644072190001,171.72728571428573L211.24303372970874,167.49857142857144L213.0170025596993,162.92257142857144L214.7909713896899,159.5047142857143L216.56514272753782,155.19585714285714L218.34397174610373,150.66228571428573L220.11794057609436,150.97028571428572L221.89190940608495,151.47157142857142L223.66587823607554,147.10771428571428L225.4447072546415,144.60914285714287L227.21867608463208,141.8685714285714L228.99264491462267,139.6324285714286L230.7666137446133,141.7177142857143L232.5454427631792,143.48714285714283L234.3194115931698,145.0947142857143L236.0933804231604,145.08685714285713L237.86734925315102,141.99114285714285L239.64617827171693,141.35000000000002L241.42014710170753,139.5082857142857L243.19411593169815,137.06L244.96808476168874,133.89828571428572L246.7469137802547,131.73442857142857L248.52088261024525,130.15514285714283L250.2948514402359,129.382L252.06882027022647,128.2112857142857L253.8476492887924,128.27885714285713L255.62161811878303,126.76871428571428L257.3955869487736,124.84528571428572L259.1695557787642,121.71657142857144L260.9483847973301,120.29914285714285L262.72235362732073,119.32957142857143L264.49632245731135,117.15628571428572L266.270291287302,114.87614285714284L268.04912030586786,113.75728571428573L269.8230891358585,112.05542857142856L271.59705796584905,109.42957142857142L273.37102679583967,105.29828571428571L275.1498558144056,103.26171428571428L276.9238246443962,101.29114285714284L278.6977934743868,98.55528571428572L280.4717623043774,98.07128571428572L282.2505913229433,100.4692857142857L284.02456015293393,94.76814285714286L285.79852898292455,92.83685714285714L287.5724978129151,90.55199999999999L289.35132683148106,88.85485714285714L291.1252956614716,87.98742857142858L292.89926449146225,85.371L294.67323332145287,82.48585714285714L296.4520623400188,79.90085714285715L298.22603117000943,75.90314285714285L300,73.99542857142858L300,135.74L298.22603117000943,136.42985714285714L296.4520623400188,137.39314285714286L294.67323332145287,138.4114285714286L292.89926449146225,140.02685714285715L291.1252956614716,141.40657142857143L289.35132683148106,141.9172857142857L287.5724978129151,142.7532857142857L285.79852898292455,143.70714285714286L284.02456015293393,144.43471428571428L282.2505913229433,146.68657142857143L280.4717623043774,145.25342857142857L278.6977934743868,144.6374285714286L276.9238246443962,145.56614285714286L275.1498558144056,146.4194285714286L273.37102679583967,147.31199999999998L271.59705796584905,149.89857142857144L269.8230891358585,151.42442857142856L268.04912030586786,151.9917142857143L266.270291287302,152.59042857142856L264.49632245731135,153.417L262.72235362732073,154.59085714285715L260.9483847973301,154.92242857142855L259.1695557787642,156.54571428571427L257.3955869487736,158.01500000000001L255.62161811878303,158.81642857142856L253.8476492887924,160.13014285714286L252.06882027022647,159.74514285714287L250.2948514402359,160.77128571428574L248.52088261024525,160.77128571428574L246.7469137802547,161.38571428571427L244.96808476168874,162.32385714285715L243.19411593169815,164.21585714285715L241.42014710170753,165.30957142857142L239.64617827171693,166.90300000000002L237.86734925315102,166.98157142857144L236.0933804231604,168.19157142857142L234.3194115931698,167.83171428571427L232.5454427631792,166.10628571428572L230.7666137446133,164.0932857142857L228.99264491462267,161.81942857142857L227.21867608463208,162.75914285714288L225.4447072546415,164.66214285714284L223.66587823607554,166.5242857142857L221.89190940608495,169.79600000000002L220.11794057609436,169.28685714285714L218.34397174610373,168.542L216.56514272753782,172.26314285714284L214.7909713896899,175.67785714285716L213.0170025596993,178.0302857142857L211.24303372970874,181.379L209.4644072190001,184.36785714285713L207.6904383890095,187.17128571428572L205.91646955901888,189.36342857142859L204.14250072902828,191.543L195.26293620192465,202.56185714285715L177.51352752486798,211.44514285714286L159.75925865923597,215.831L142.0098499821793,217.24057142857143L124.25558111654732,218.603L106.50617243949065,219.37614285714287L88.75676376243399,219.71557142857145L71.00735508537731,219.86014285714285L53.25308621974533,219.94814285714284L35.503677542688656,219.99057142857143L17.74940867705667,220L0,220Z" fill="rgb(69, 180, 194)" opacity="0.9"/></g></g><path class="foreground" aria-hidden="true" d="" display="none"/></g></g><g class="mark-text role-mark layer_1_marks" role="graphics-object" aria-roledescription="text mark container"><text aria-label="c: #0a0b0d; Source: Coal; Year: 2012; TWh consumed): 44185; Time (year): 2012; Value: 44185" role="graphics-symbol" aria-roledescription="text mark" text-anchor="middle" transform="translate(287.5724978129151,59.118428571428566)" font-family="Georgia" font-size="11px" fill="#0a0b0d">Coal</text><text aria-label="c: #0a0b0d; Source: Oil; Year: 2012; TWh consumed): 49157; Time (year): 2012; Value: 49157" role="graphics-symbol" aria-roledescription="text mark" text-anchor="middle" transform="translate(287.5724978129151,180.7532857142857)" font-family="Georgia" font-size="11px" fill="#0a0b0d">Oil</text><text aria-label="c: #0a0b0d; Source: Gas; Year: 2012; TWh consumed): 33219; Time (year): 2012; Value: 33219" role="graphics-symbol" aria-roledescription="text mark" text-anchor="middle" transform="translate(287.5724978129151,128.552)" font-family="Georgia" font-size="11px" fill="#0a0b0d">Gas</text></g><g class="mark-group role-title"><g transform="translate(0,-48)"><path class="background" aria-hidden="true" d="M0,0h0v0h0Z" pointer-events="none"/><g><g class="mark-text role-title-text" role="graphics-symbol" aria-roledescription="title" aria-label="Title text 'Global fossil fuel consumption'" pointer-events="none"><text text-anchor="start" transform="translate(0,4)" font-family="Georgia" font-size="14px" font-weight="bold" fill="#F4134D" opacity="1">Global fossil fuel consumption</text></g><g class="mark-text role-title-subtitle" role="graphics-symbol" aria-roledescription="subtitle" aria-label="Subtitle text 'TWh. Source: Smil (2017) / BP Statistical Review of World Energy'" pointer-events="none"><text text-anchor="start" transform="translate(0,19)" font-family="Georgia" font-size="12px" font-style="italic" fill="#F4134D" opacity="1">TWh. Source: Smil (2017) / BP Statistical Review of World Energy</text></g></g><path class="foreground" aria-hidden="true" d="" pointer-events="none" display="none"/></g></g></g><path class="foreground" aria-hidden="true" d="" display="none"/></g></g></g></svg>