<svg xmlns="http://www.w3.org/2000/svg" xmlns:xlink="http://www.w3.org/1999/xlink" version="1.1" class="marks" width="458" height="287" viewBox="0 0 458 287"><rect width="458" height="287" fill="#122B39"/><g fill="none" stroke-miterlimit="10" transform="translate(7,44)"><g class="mark-group role-frame root" role="graphics-object" aria-roledescription="group mark container"><g transform="translate(0,0)"><path class="background" aria-hidden="true" d="M0,0h300v220h-300Z"/><g><g class="mark-group role-axis" aria-hidden="true"><g transform="translate(0.5,0.5)"><path class="background" aria-hidden="true" d="M0,0h0v0h0Z" pointer-events="none"/><g><g class="mark-rule role-axis-grid" pointer-events="none"><line transform="translate(0,220)" x2="300" y2="0" stroke="#676A86" stroke-opacity="0.1" stroke-width="1" opacity="1"/><line transform="translate(0,181)" x2="300" y2="0" stroke="#676A86" stroke-opacity="0.1" stroke-width="1" opacity="1"/><line transform="translate(0,141)" x2="300" y2="0" stroke="#676A86" stroke-opacity="0.1" stroke-width="1" opacity="1"/><line transform="translate(0,102)" x2="300" y2="0" stroke="#676A86" stroke-opacity="0.1" stroke-width="1" opacity="1"/><line transform="translate(0,63)" x2="300" y2="0" stroke="#676A86" stroke-opacity="0.1" stroke-width="1" opacity="1"/><line transform="translate(0,24)" x2="300" y2="0" stroke="#676A86" stroke-opacity="0.1" stroke-width="1" opacity="1"/></g></g><path class="foreground" aria-hidden="true" d="" pointer-events="none" display="none"/></g></g><g class="mark-group role-axis" role="graphics-symbol" aria-roledescription="axis" aria-label="X-axis for a time scale with values from Sunday, 01 January 1950, 12:00:00 AM to Saturday, 01 January 2050, 12:00:00 AM"><g transform="translate(0.5,220.5)"><path class="background" aria-hidden="true" d="M0,0h0v0h0Z" pointer-events="none"/><g><g class="mark-rule role-axis-tick" pointer-events="none"><line transform="translate(0,0)" x2="0" y2="5" stroke="#676A86" stroke-width="1" opacity="1"/><line transform="translate(30,0)" x2="0" y2="5" stroke="#676A86" stroke-width="1" opacity="1"/><line transform="translate(60,0)" x2="0" y2="5" stroke="#676A86" stroke-width="1" opacity="1"/><line transform="translate(90,0)" x2="0" y2="5" stroke="#676A86" stroke-width="1" opacity="1"/><line transform="translate(120,0)" x2="0" y2="5" stroke="#676A86" stroke-width="1" opacity="1"/><line transform="translate(150,0)" x2="0" y2="5" stroke="#676A86" stroke-width="1" opacity="1"/><line transform="translate(180,0)" x2="0" y2="5" stroke="#676A86" stroke-width="1" opacity="1"/><line transform="translate(210,0)" x2="0" y2="5" stroke="#676A86" stroke-width="1" opacity="1"/><line transform="translate(240,0)" x2="0" y2="5" stroke="#676A86" stroke-width="1" opacity="1"/><line transform="translate(270,0)" x2="0" y2="5" stroke="#676A86" stroke-width="1" opacity="1"/><line transform="translate(300,0)" x2="0" y2="5" stroke="#676A86" stroke-width="1" opacity="1"/></g><g class="mark-text role-axis-label" pointer-events="none"><text text-anchor="start" transform="translate(0,16)" font-family="Georgia" font-size="12px" fill="#676A86" opacity="1">1950</text><text text-anchor="middle" transform="translate(29.9958932238193,16)" font-family="Georgia" font-size="12px" fill="#676A86" opacity="0">1960</text><text text-anchor="middle" transform="translate(60,16)" font-family="Georgia" font-size="12px" fill="#676A86" opacity="1">1970</text><text text-anchor="middle" transform="translate(89.99589322381931,16)" font-family="Georgia" font-size="12px" fill="#676A86" opacity="0">1980</text><text text-anchor="middle" transform="translate(120,16)" font-family="Georgia" font-size="12px" fill="#676A86" opacity="1">1990</text><text text-anchor="middle" transform="translate(149.9958932238193,16)" font-family="Georgia" font-size="12px" fill="#676A86" opacity="0">2000</text><text text-anchor="middle" transform="translate(180,16)" font-family="Georgia" font-size="12px" fill="#676A86" opacity="1">2010</text><text text-anchor="middle" transform="translate(209.9958932238193,16)" font-family="Georgia" font-size="12px" fill="#676A86" opacity="0">2020</text><text text-anchor="middle" transform="translate(240,16)" font-family="Georgia" font-size="12px" fill="#676A86" opacity="1">2030</text><text text-anchor="middle" transform="translate(269.99589322381934,16)" font-family="Georgia" font-size="12px" fill="#676A86" opacity="0">2040</text><text text-anchor="end" transform="translate(300,16)" font-family="Georgia" font-size="12px" fill="#676A86" opacity="1">2050</text></g><g class="mark-rule role-axis-domain" pointer-events="none"><line transform="translate(0,0)" x2="300" y2="0" stroke="#676A86" stroke-width="1" opacity="1"/></g></g><path class="foreground" aria-hidden="true" d="" pointer-events="none" display="none"/></g></g><g class="mark-group role-axis" role="graphics-symbol" aria-roledescription="axis" aria-label="Y-axis titled 'million tonnes' for a linear scale with values from 0.0 to 2.8"><g transform="translate(0.5,0.5)"><path class="background" aria-hidden="true" d="M0,0h0v0h0Z" pointer-events="none"/><g><g class="mark-text role-axis-label" pointer-events="none"><text text-anchor="start" transform="translate(5,214)" font-family="Georgia" font-size="12px" fill="#676A86" opacity="1">0.0</text><text text-anchor="start" transform="translate(5,174.7142857142857)" font-family="Georgia" font-size="12px" fill="#676A86" opacity="1">0.5</text><text text-anchor="start" transform="translate(5,135.42857142857142)" font-family="Georgia" font-size="12px" fill="#676A86" opacity="1">1.0</text><text text-anchor="start" transform="translate(5,96.14285714285715)" font-family="Georgia" font-size="12px" fill="#676A86" opacity="1">1.5</text><text text-anchor="start" transform="translate(5,56.857142857142854)" font-family="Georgia" font-size="12px" fill="#676A86" opacity="1">2.0</text><text text-anchor="start" transform="translate(5,17.571428571428562)" font-family="Georgia" font-size="12px" fill="#676A86" opacity="1">2.5</text></g><g class="mark-rule role-axis-domain" pointer-events="none"><line transform="translate(0,220)" x2="0" y2="-220" stroke="#676A86" stroke-width="1" opacity="1"/></g><g class="mark-text role-axis-title" pointer-events="none"><text text-anchor="start" transform="translate(25,17)" font-family="Georgia" font-size="10px" font-weight="normal" fill="#676A86" opacity="1">million tonnes</text></g></g><path class="foreground" aria-hidden="true" d="" pointer-events="none" display="none"/></g></g><g class="mark-group role-scope pathgroup" role="graphics-object" aria-roledescription="group mark container"><g transform="translate(0,0)"><path class="background" aria-hidden="true" d="M0,0h300v220h-300Z"/><g><g class="mark-line role-mark marks" role="graphics-object" aria-roledescription="line mark container"><path aria-label="Scenario: Plastic waste growth up to 2050; Year: 1950; CO2 per capita (t): 0; m: 0" role="graphics-symbol" aria-roledescription="line mark" d="M0,220L2.9979466119096507,220L5.9958932238193015,220L9.00205338809035,220L12,219.99214285714285L14.99794661190965,219.99214285714285L17.9958932238193,219.9842857142857L21.002053388090346,219.9842857142857L24,219.97642857142858L26.99794661190965,219.96857142857144L29.9958932238193,219.95285714285714L33.00205338809035,219.945L36,219.9292857142857L38.99794661190965,219.90571428571428L41.99589322381931,219.88214285714287L45.00205338809035,219.85857142857142L48,219.82714285714286L50.99794661190965,219.78785714285715L53.9958932238193,219.74071428571426L57.002053388090346,219.69357142857143L60,219.63071428571428L62.997946611909654,219.56L65.99589322381931,219.48142857142858L69.00205338809035,219.37928571428571L72,219.2692857142857L74.99794661190965,219.15142857142857L77.9958932238193,219.01000000000002L81.00205338809035,218.85285714285715L84.00000000000001,218.68L86.99794661190965,218.48357142857142L89.99589322381931,218.27142857142857L93.00205338809035,218.0357142857143L96,217.78428571428572L98.99794661190964,217.5092857142857L101.9958932238193,217.20285714285714L105.00205338809036,216.8807142857143L108,216.52714285714285L110.99794661190965,216.14214285714286L113.9958932238193,215.73357142857145L117.00205338809035,215.29357142857143L120,214.82214285714284L122.99794661190965,214.31142857142856L125.99589322381931,213.7692857142857L129.00205338809033,213.18L132,212.55928571428572L134.99794661190967,211.89928571428572L137.9958932238193,211.19214285714287L141.00205338809036,210.43785714285713L144,209.62857142857143L146.99794661190964,208.77214285714285L149.9958932238193,207.8607142857143L153.00205338809036,206.88642857142858L156,205.8492857142857L158.99794661190964,204.74928571428572L161.99589322381928,203.57857142857142L165.00205338809033,202.345L168.00000000000003,201.03285714285715L170.99794661190967,199.63428571428574L173.9958932238193,198.165L177.00205338809036,196.6092857142857L180,194.975L182.99794661190964,193.25428571428571L185.9958932238193,191.44714285714286L189.00205338809036,189.54571428571427L192,187.54214285714284L194.99794661190964,185.4442857142857L197.99589322381928,183.24428571428572L201.00205338809033,180.93428571428572L204.00000000000003,178.5142857142857L206.99794661190967,175.9842857142857L209.9958932238193,173.32857142857142L213.00205338809036,170.555L216,167.64785714285713L218.99794661190967,164.61499999999998L221.9958932238193,161.44857142857143L225.00205338809036,158.14071428571427L228,154.6835714285714L230.99794661190964,151.07714285714286L233.9958932238193,147.32142857142856L237.00205338809033,143.4007142857143L240,139.30714285714285L242.99794661190964,135.04857142857142L245.9958932238193,130.60928571428573L249.00205338809036,125.98142857142854L252,121.16499999999999L254.99794661190967,116.15214285714285L257.9958932238193,110.92714285714285L261.00205338809036,105.49785714285714L264,99.84071428571427L266.99794661190964,93.95571428571428L269.99589322381934,87.835L273.00205338809036,81.4707142857143L276,74.85499999999999L278.99794661190964,67.97214285714286L281.9958932238193,60.814285714285724L285.00205338809036,53.37357142857144L288,45.642142857142844L290.99794661190964,37.61214285714285L293.9958932238193,29.26L297.00205338809036,20.585714285714275L300,11.573571428571427" stroke="rgb(169, 221, 183)" stroke-width="2"/></g></g><path class="foreground" aria-hidden="true" d="" display="none"/></g><g transform="translate(0,0)"><path class="background" aria-hidden="true" d="M0,0h300v220h-300Z"/><g><g class="mark-line role-mark marks" role="graphics-object" aria-roledescription="line mark container"><path aria-label="Scenario: Plastic waste at 2020 level; Year: 1950; CO2 per capita (t): 0; m: 0" role="graphics-symbol" aria-roledescription="line mark" d="M0,220L2.9979466119096507,220L5.9958932238193015,220L9.00205338809035,220L12,219.99214285714285L14.99794661190965,219.99214285714285L17.9958932238193,219.9842857142857L21.002053388090346,219.9842857142857L24,219.97642857142858L26.99794661190965,219.96857142857144L29.9958932238193,219.95285714285714L33.00205338809035,219.945L36,219.9292857142857L38.99794661190965,219.90571428571428L41.99589322381931,219.88214285714287L45.00205338809035,219.85857142857142L48,219.82714285714286L50.99794661190965,219.78785714285715L53.9958932238193,219.74071428571426L57.002053388090346,219.69357142857143L60,219.63071428571428L62.997946611909654,219.56L65.99589322381931,219.48142857142858L69.00205338809035,219.37928571428571L72,219.2692857142857L74.99794661190965,219.15142857142857L77.9958932238193,219.01000000000002L81.00205338809035,218.85285714285715L84.00000000000001,218.68L86.99794661190965,218.48357142857142L89.99589322381931,218.27142857142857L93.00205338809035,218.0357142857143L96,217.78428571428572L98.99794661190964,217.5092857142857L101.9958932238193,217.20285714285714L105.00205338809036,216.8807142857143L108,216.52714285714285L110.99794661190965,216.14214285714286L113.9958932238193,215.73357142857145L117.00205338809035,215.29357142857143L120,214.82214285714284L122.99794661190965,214.31142857142856L125.99589322381931,213.7692857142857L129.00205338809033,213.18L132,212.55928571428572L134.99794661190967,211.89928571428572L137.9958932238193,211.19214285714287L141.00205338809036,210.43785714285713L144,209.62857142857143L146.99794661190964,208.77214285714285L149.9958932238193,207.8607142857143L153.00205338809036,206.88642857142858L156,205.8492857142857L158.99794661190964,204.74928571428572L161.99589322381928,203.57857142857142L165.00205338809033,202.345L168.00000000000003,201.03285714285715L170.99794661190967,199.63428571428574L173.9958932238193,198.165L177.00205338809036,196.6092857142857L180,194.975L182.99794661190964,193.25428571428571L185.9958932238193,191.44714285714286L189.00205338809036,189.54571428571427L192,187.54214285714284L194.99794661190964,185.4442857142857L197.99589322381928,183.24428571428572L201.00205338809033,180.93428571428572L204.00000000000003,178.5142857142857L206.99794661190967,175.9842857142857L209.9958932238193,173.32857142857142L213.00205338809036,170.555L216,167.65571428571428L218.99794661190967,164.63071428571428L221.9958932238193,161.48785714285714L225.00205338809036,158.21928571428572L228,154.83285714285714L230.99794661190964,151.32857142857142L233.9958932238193,147.6985714285714L237.00205338809033,143.95857142857142L240,140.1007142857143L242.99794661190964,136.13285714285715L245.9958932238193,132.04714285714286L249.00205338809036,127.85142857142856L252,123.5535714285714L254.99794661190967,119.13785714285713L257.9958932238193,114.62785714285714L261.00205338809036,110L264,105.27785714285714L266.99794661190964,100.45357142857141L269.99589322381934,95.53499999999998L273.00205338809036,90.51428571428572L276,85.39142857142856L278.99794661190964,80.18214285714285L281.9958932238193,74.87857142857142L285.00205338809036,69.48071428571428L288,63.99642857142855L290.99794661190964,58.41785714285712L293.9958932238193,52.75285714285714L297.00205338809036,47.00142857142857L300,41.17142857142858" stroke="rgb(69, 180, 194)" stroke-width="2"/></g></g><path class="foreground" aria-hidden="true" d="" display="none"/></g><g transform="translate(0,0)"><path class="background" aria-hidden="true" d="M0,0h300v220h-300Z"/><g><g class="mark-line role-mark marks" role="graphics-object" aria-roledescription="line mark container"><path aria-label="Scenario: Plastic waste stops in 2020; Year: 1950; CO2 per capita (t): 0; m: 0" role="graphics-symbol" aria-roledescription="line mark" d="M0,220L2.9979466119096507,220L5.9958932238193015,220L9.00205338809035,220L12,219.99214285714285L14.99794661190965,219.99214285714285L17.9958932238193,219.9842857142857L21.002053388090346,219.9842857142857L24,219.97642857142858L26.99794661190965,219.96857142857144L29.9958932238193,219.95285714285714L33.00205338809035,219.945L36,219.9292857142857L38.99794661190965,219.90571428571428L41.99589322381931,219.88214285714287L45.00205338809035,219.85857142857142L48,219.82714285714286L50.99794661190965,219.78785714285715L53.9958932238193,219.74071428571426L57.002053388090346,219.69357142857143L60,219.63071428571428L62.997946611909654,219.56L65.99589322381931,219.48142857142858L69.00205338809035,219.37928571428571L72,219.2692857142857L74.99794661190965,219.15142857142857L77.9958932238193,219.01000000000002L81.00205338809035,218.85285714285715L84.00000000000001,218.68L86.99794661190965,218.48357142857142L89.99589322381931,218.27142857142857L93.00205338809035,218.0357142857143L96,217.78428571428572L98.99794661190964,217.5092857142857L101.9958932238193,217.20285714285714L105.00205338809036,216.8807142857143L108,216.52714285714285L110.99794661190965,216.14214285714286L113.9958932238193,215.73357142857145L117.00205338809035,215.29357142857143L120,214.82214285714284L122.99794661190965,214.31142857142856L125.99589322381931,213.7692857142857L129.00205338809033,213.18L132,212.55928571428572L134.99794661190967,211.89928571428572L137.9958932238193,211.19214285714287L141.00205338809036,210.43785714285713L144,209.62857142857143L146.99794661190964,208.77214285714285L149.9958932238193,207.8607142857143L153.00205338809036,206.88642857142858L156,205.8492857142857L158.99794661190964,204.74928571428572L161.99589322381928,203.57857142857142L165.00205338809033,202.345L168.00000000000003,201.03285714285715L170.99794661190967,199.63428571428574L173.9958932238193,198.165L177.00205338809036,196.6092857142857L180,194.975L182.99794661190964,193.25428571428571L185.9958932238193,191.44714285714286L189.00205338809036,189.54571428571427L192,187.54214285714284L194.99794661190964,185.4442857142857L197.99589322381928,183.24428571428572L201.00205338809033,180.93428571428572L204.00000000000003,178.5142857142857L206.99794661190967,175.9842857142857L209.9958932238193,173.32857142857142L213.00205338809036,170.64928571428572L216,167.96214285714285L218.99794661190967,165.26714285714286L221.9958932238193,162.59571428571428L225.00205338809036,159.93214285714285L228,157.29999999999998L230.99794661190964,154.6992857142857L233.9958932238193,152.13L237.00205338809033,149.59214285714285L240,147.0857142857143L242.99794661190964,144.6107142857143L245.9958932238193,142.16714285714284L249.00205338809036,139.76285714285714L252,137.39000000000001L254.99794661190967,135.04857142857142L257.9958932238193,132.74642857142857L261.00205338809036,130.48357142857142L264,128.25214285714284L266.99794661190964,126.05214285714285L269.99589322381934,123.88357142857141L273.00205338809036,121.7542857142857L276,119.65642857142858L278.99794661190964,117.58214285714284L281.9958932238193,115.54714285714284L285.00205338809036,113.53571428571428L288,111.56357142857141L290.99794661190964,109.60714285714286L293.9958932238193,107.68999999999998L297.00205338809036,105.79642857142856L300,103.9342857142857" stroke="rgb(33, 115, 177)" stroke-width="2"/></g></g><path class="foreground" aria-hidden="true" d="" display="none"/></g></g><g class="mark-group role-legend" role="graphics-symbol" aria-roledescription="legend" aria-label="Symbol legend for stroke color with 3 values: Plastic waste growth up to 2050, Plastic waste at 2020 level, Plastic waste stops in 2020"><g transform="translate(40,40)"><path class="background" aria-hidden="true" d="M0,0h170v37h-170Z" pointer-events="none"/><g><g class="mark-group role-legend-entry"><g transform="translate(0,0)"><path class="background" aria-hidden="true" d="M0,0h0v0h0Z" pointer-events="none"/><g><g class="mark-group role-scope" role="graphics-object" aria-roledescription="group mark container"><g transform="translate(0,0)"><path class="background" aria-hidden="true" d="M0,0h170v11h-170Z" pointer-events="none" opacity="1"/><g><g class="mark-symbol role-legend-symbol" pointer-events="none"><path transform="translate(6,6)" d="M-5,0L5,0" stroke="rgb(169, 221, 183)" stroke-width="1.5" opacity="1"/></g><g class="mark-text role-legend-label" pointer-events="none"><text text-anchor="start" transform="translate(16,9)" font-family="Georgia" font-size="11px" fill="#676A86" opacity="1">Plastic waste growth …</text></g></g><path class="foreground" aria-hidden="true" d="" pointer-events="none" display="none"/></g><g transform="translate(0,13)"><path class="background" aria-hidden="true" d="M0,0h170v11h-170Z" pointer-events="none" opacity="1"/><g><g class="mark-symbol role-legend-symbol" pointer-events="none"><path transform="translate(6,6)" d="M-5,0L5,0" stroke="rgb(69, 180, 194)" stroke-width="1.5" opacity="1"/></g><g class="mark-text role-legend-label" pointer-events="none"><text text-anchor="start" transform="translate(16,9)" font-family="Georgia" font-size="11px" fill="#676A86" opacity="1">Plastic waste at 2020…</text></g></g><path class="foreground" aria-hidden="true" d="" pointer-events="none" display="none"/></g><g transform="translate(0,26)"><path class="background" aria-hidden="true" d="M0,0h170v11h-170Z" pointer-events="none" opacity="1"/><g><g class="mark-symbol role-legend-symbol" pointer-events="none"><path transform="translate(6,6)" d="M-5,0L5,0" stroke="rgb(33, 115, 177)" stroke-width="1.5" opacity="1"/></g><g class="mark-text role-legend-label" pointer-events="none"><text text-anchor="start" transform="translate(16,9)" font-family="Georgia" font-size="11px" fill="#676A86" opacity="1">Plastic waste stops i…</text></g></g><path class="foreground" aria-hidden="true" d="" pointer-events="none" display="none"/></g></g></g><path class="foreground" aria-hidden="true" d="" pointer-events="none" display="none"/></g></g></g><path class="foreground" aria-hidden="true" d="" pointer-events="none" display="none"/></g></g><g class="mark-group role-title"><g transform="translate(-2,-32)"><path class="background" aria-hidden="true" d="M0,0h0v0h0Z" pointer-events="none"/><g><g class="mark-text role-title-text" role="graphics-symbol" aria-roledescription="title" aria-label="Title text 'Projected ocean microplastics'" pointer-events="none"><text text-anchor="start" transform="translate(0,4)" font-family="Georgia" font-size="14px" font-weight="bold" fill="#F4134D" opacity="1">Projected ocean microplastics</text></g><g class="mark-text role-title-subtitle" role="graphics-symbol" aria-roledescription="subtitle" aria-label="Subtitle text 'Accumlation by emissions scenario. Source: Lebreton et al (2019)'" pointer-events="none"><text text-anchor="start" transform="translate(0,19)" font-family="Georgia" font-size="12px" font-style="italic" fill="#F4134D" opacity="1">Accumlation by emissions scenario. Source: Lebreton et al (2019)</text></g></g><path class="foreground" aria-hidden="true" d="" pointer-events="none" display="none"/></g></g></g><path class="foreground" aria-hidden="true" d="" display="none"/></g></g></g></svg>