<svg xmlns="http://www.w3.org/2000/svg" xmlns:xlink="http://www.w3.org/1999/xlink" version="1.1" class="marks" width="445" height="287" viewBox="0 0 445 287"><rect width="445" height="287" fill="#122B39"/><g fill="none" stroke-miterlimit="10" transform="translate(7,44)"><g class="mark-group role-frame root" role="graphics-object" aria-roledescription="group mark container"><g transform="translate(0,0)"><path class="background" aria-hidden="true" d="M0,0h300v220h-300Z"/><g><g class="mark-group role-axis" aria-hidden="true"><g transform="translate(0.5,0.5)"><path class="background" aria-hidden="true" d="M0,0h0v0h0Z" pointer-events="none"/><g><g class="mark-rule role-axis-grid" pointer-events="none"><line transform="translate(0,220)" x2="300" y2="0" stroke="#676A86" stroke-opacity="0.1" stroke-width="1" opacity="1"/><line transform="translate(0,186)" x2="300" y2="0" stroke="#676A86" stroke-opacity="0.1" stroke-width="1" opacity="1"/><line transform="translate(0,152)" x2="300" y2="0" stroke="#676A86" stroke-opacity="0.1" stroke-width="1" opacity="1"/><line transform="translate(0,118)" x2="300" y2="0" stroke="#676A86" stroke-opacity="0.1" stroke-width="1" opacity="1"/><line transform="translate(0,85)" x2="300" y2="0" stroke="#676A86" stroke-opacity="0.1" stroke-width="1" opacity="1"/><line transform="translate(0,51)" x2="300" y2="0" stroke="#676A86" stroke-opacity="0.1" stroke-width="1" opacity="1"/><line transform="translate(0,17)" x2="300" y2="0" stroke="#676A86" stroke-opacity="0.1" stroke-width="1" opacity="1"/></g></g><path class="foreground" aria-hidden="true" d="" pointer-events="none" display="none"/></g></g><g class="mark-group role-axis" role="graphics-symbol" aria-roledescription="axis" aria-label="X-axis for a time scale with values from Friday, 01 January 1960, 12:00:00 AM to Wednesday, 01 January 2020, 12:00:00 AM"><g transform="translate(0.5,220.5)"><path class="background" aria-hidden="true" d="M0,0h0v0h0Z" pointer-events="none"/><g><g class="mark-rule role-axis-tick" pointer-events="none"><line transform="translate(0,0)" x2="0" y2="5" stroke="#676A86" stroke-width="1" opacity="1"/><line transform="translate(50,0)" x2="0" y2="5" stroke="#676A86" stroke-width="1" opacity="1"/><line transform="translate(100,0)" x2="0" y2="5" stroke="#676A86" stroke-width="1" opacity="1"/><line transform="translate(150,0)" x2="0" y2="5" stroke="#676A86" stroke-width="1" opacity="1"/><line transform="translate(200,0)" x2="0" y2="5" stroke="#676A86" stroke-width="1" opacity="1"/><line transform="translate(250,0)" x2="0" y2="5" stroke="#676A86" stroke-width="1" opacity="1"/><line transform="translate(300,0)" x2="0" y2="5" stroke="#676A86" stroke-width="1" opacity="1"/></g><g class="mark-text role-axis-label" pointer-events="none"><text text-anchor="start" transform="translate(0,16)" font-family="Georgia" font-size="12px" fill="#676A86" opacity="1">1960</text><text text-anchor="middle" transform="translate(50.006844626967826,16)" font-family="Georgia" font-size="12px" fill="#676A86" opacity="1">1970</text><text text-anchor="middle" transform="translate(100,16)" font-family="Georgia" font-size="12px" fill="#676A86" opacity="1">1980</text><text text-anchor="middle" transform="translate(150.00684462696785,16)" font-family="Georgia" font-size="12px" fill="#676A86" opacity="1">1990</text><text text-anchor="middle" transform="translate(200,16)" font-family="Georgia" font-size="12px" fill="#676A86" opacity="1">2000</text><text text-anchor="middle" transform="translate(250.00684462696782,16)" font-family="Georgia" font-size="12px" fill="#676A86" opacity="1">2010</text><text text-anchor="end" transform="translate(300,16)" font-family="Georgia" font-size="12px" fill="#676A86" opacity="1">2020</text></g><g class="mark-rule role-axis-domain" pointer-events="none"><line transform="translate(0,0)" x2="300" y2="0" stroke="#676A86" stroke-width="1" opacity="1"/></g></g><path class="foreground" aria-hidden="true" d="" pointer-events="none" display="none"/></g></g><g class="mark-group role-axis" role="graphics-symbol" aria-roledescription="axis" aria-label="Y-axis titled '$ / year / person' for a linear scale with values from 0 to 1,300"><g transform="translate(0.5,0.5)"><path class="background" aria-hidden="true" d="M0,0h0v0h0Z" pointer-events="none"/><g><g class="mark-text role-axis-label" pointer-events="none"><text text-anchor="start" transform="translate(5,214)" font-family="Georgia" font-size="12px" fill="#676A86" opacity="1">0</text><text text-anchor="start" transform="translate(5,180.15384615384616)" font-family="Georgia" font-size="12px" fill="#676A86" opacity="1">200</text><text text-anchor="start" transform="translate(5,146.3076923076923)" font-family="Georgia" font-size="12px" fill="#676A86" opacity="1">400</text><text text-anchor="start" transform="translate(5,112.46153846153845)" font-family="Georgia" font-size="12px" fill="#676A86" opacity="1">600</text><text text-anchor="start" transform="translate(5,78.61538461538461)" font-family="Georgia" font-size="12px" fill="#676A86" opacity="1">800</text><text text-anchor="start" transform="translate(5,44.76923076923076)" font-family="Georgia" font-size="12px" fill="#676A86" opacity="1">1,000</text><text text-anchor="start" transform="translate(5,10.923076923076913)" font-family="Georgia" font-size="12px" fill="#676A86" opacity="1">1,200</text></g><g class="mark-rule role-axis-domain" pointer-events="none"><line transform="translate(0,220)" x2="0" y2="-220" stroke="#676A86" stroke-width="1" opacity="1"/></g><g class="mark-text role-axis-title" pointer-events="none"><text text-anchor="start" transform="translate(40,11)" font-family="Georgia" font-size="10px" font-weight="normal" fill="#676A86" opacity="1">$ / year / person</text></g></g><path class="foreground" aria-hidden="true" d="" pointer-events="none" display="none"/></g></g><g class="mark-group role-scope layer_0_pathgroup" role="graphics-object" aria-roledescription="group mark container"><g transform="translate(0,0)"><path class="background" aria-hidden="true" d="M0,0h300v220h-300Z"/><g><g class="mark-line role-mark layer_0_marks" role="graphics-object" aria-roledescription="line mark container"><path aria-label="Country: Central Afican Republic; Year: 1960; GDP per capita ($): 599.7006184; Value: 599.7006184" role="graphics-symbol" aria-roledescription="line mark" d="M0,118.51220304L5.010266940451745,115.1872430246154L10.00684462696783,120.76086397692308L15.003422313483915,123.1761666553846L20,122.95869005538461L25.010266940451746,123.89643570615385L30.00684462696783,125.20271948461541L35.00342231348392,122.81913779384615L40,123.48246954153848L45.01026694045175,118.65252135846153L50.006844626967826,118.13704717692308L55.00342231348392,118.6290764153846L60,120.10992146153845L65.01026694045174,119.67673027538461L70.00684462696783,114.95460106307691L75.00342231348392,116.3592789276923L80,112.8437938523077L85.01026694045174,111.10431484307693L90.00684462696783,112.30823666615386L95.00342231348391,117.56911710923079L100,124.76273241384617L105.01026694045176,128.9285659030769L110.00684462696783,124.87983428461538L115.00342231348391,135.2581043846154L120,129.8457677169231L125.01026694045174,128.6561979153846L130.00684462696782,127.41273682923077L135.00342231348392,133.61735277846154L140,133.67740211692308L145.01026694045174,133.6300505353846L150.00684462696785,137.3218210353846L155.00342231348392,139.82859795384616L160,147.02547431846153L165.01026694045174,148.8698817523077L170.00684462696785,147.4996823553846L175.00342231348392,144.39334552923077L180,149.29514435846153L185.01026694045174,147.39566564461538L190.00684462696782,145.7997184769231L195.0034223134839,144.91168499076923L200,148.43829241999998L205.01026694045174,146.8820858153846L210.00684462696782,145.8340989769231L215.0034223134839,151.26634132923076L219.99999999999997,148.5937285292308L225.01026694045174,149.34579189538462L230.00684462696782,147.4073907476923L235.0034223134839,145.50848988923076L240,145.31903487538463L245.01026694045174,140.10726501538463L250.00684462696782,137.34400762923076L255.00342231348392,134.49815850307692L260,130.53692479384617L265.01026694045174,163.24186922153848L270.00684462696785,163.40232212615385L275.00342231348395,161.32875055846154L280,159.14455028153847L285.01026694045174,157.19690050307693L290.00684462696785,155.79973536769234L295.0034223134839,154.97189775692306L300,156.11075298923078" stroke="rgb(189, 229, 181)" stroke-width="2"/></g></g><path class="foreground" aria-hidden="true" d="" display="none"/></g><g transform="translate(0,0)"><path class="background" aria-hidden="true" d="M0,0h300v220h-300Z"/><g><g class="mark-line role-mark layer_0_marks" role="graphics-object" aria-roledescription="line mark container"><path aria-label="Country: Democratic Republic of Congo; Year: 1960; GDP per capita ($): 1038.932091; Value: 1038.932091" role="graphics-symbol" aria-roledescription="line mark" d="M0,44.18072306153849L5.010266940451745,67.16302587076925L10.00684462696783,39.419884815384606L15.003422313483915,34.85931815384614L20,44.10009763076923L25.010266940451746,47.11241006153846L30.00684462696783,40.484938153846166L35.00342231348392,47.25038187692309L40,44.86621124615387L45.01026694045175,33.89999258461539L50.006844626967826,39.4697087230769L55.00342231348392,33.77537392307691L60,38.41498167692307L65.01026694045174,28.790794830769222L70.00684462696783,28.04114178461539L75.00342231348392,42.55291446153846L80,56.65828232307692L85.01026694045174,60.089662684615384L90.00684462696783,72.9269299846154L95.00342231348391,76.36470513692308L100,77.08407415076923L105.01026694045176,77.41097763384616L110.00684462696783,81.53021468307692L115.00342231348391,82.9697097476923L120,78.9318161246154L125.01026694045174,81.88394078615383L130.00684462696782,79.15210505230769L135.00342231348392,79.25857919692307L140,82.58486401846153L145.01026694045174,88.46395574923076L150.00684462696785,101.17719507076922L155.00342231348392,115.11139311692307L160,129.70953855538463L165.01026694045174,144.8536369753846L170.00684462696785,150.36263341846154L175.00342231348392,152.10706765692308L180,154.65781661846154L185.01026694045174,159.8337114676923L190.00684462696782,162.16067698769234L195.0034223134839,165.92026929076923L200,170.92539618L205.01026694045174,173.26824788307692L210.00684462696782,173.2828437323077L215.0034223134839,172.16742225692306L219.99999999999997,170.5252326969231L225.01026694045174,169.13558169538462L230.00684462696782,168.1259948923077L235.0034223134839,166.64765752461537L240,165.16240860307693L245.01026694045174,165.43690903384615L250.00684462696782,163.47327146615385L255.00342231348392,161.57034804307693L260,159.48336706923078L265.01026694045174,156.50136762615384L270.00684462696785,152.75756164307694L275.00342231348395,150.44266129538462L280,151.07406302153845L285.01026694045174,150.79734350153848L290.00684462696785,149.09420197692307L295.0034223134839,148.30703449692308L300,149.9877008723077" stroke="rgb(105, 197, 190)" stroke-width="2"/></g></g><path class="foreground" aria-hidden="true" d="" display="none"/></g><g transform="translate(0,0)"><path class="background" aria-hidden="true" d="M0,0h300v220h-300Z"/><g><g class="mark-line role-mark layer_0_marks" role="graphics-object" aria-roledescription="line mark container"><path aria-label="Country: Kenya; Year: 1960; GDP per capita ($): 537.4608807; Value: 537.4608807" role="graphics-symbol" aria-roledescription="line mark" d="M0,129.04508172769232L5.010266940451745,138.6958817030769L10.00684462696783,133.77833782923076L15.003422313483915,129.16663803999998L20,127.69845323230767L25.010266940451746,128.88177593076924L30.00684462696783,118.87073463692309L35.00342231348392,118.91941380000002L40,114.5000873076923L45.01026694045175,109.97357084153846L50.006844626967826,118.72258941230768L55.00342231348392,100.6140650476923L60,85.20339347384615L65.01026694045174,82.40628705692308L70.00684462696783,82.03005514000002L75.00342231348392,85.92434383076923L80,88.0923803523077L85.01026694045174,80.9738486953846L90.00684462696783,76.90129261692307L95.00342231348391,71.77859502000001L100,69.39531246153847L105.01026694045176,69.63499488000001L110.00684462696783,73.15660903692307L115.00342231348391,76.84731287538463L120,79.77165764615384L125.01026694045174,79.11748304307692L130.00684462696782,74.46383889999998L135.00342231348392,71.29998177076924L140,67.57606764615385L145.01026694045174,65.86354237692308L150.00684462696785,64.74630371846155L155.00342231348392,67.6327212L160,73.65144207384614L165.01026694045174,77.68689043076922L170.00684462696785,78.35319219538461L175.00342231348392,76.46729827846154L180,74.80879558307691L185.01026694045174,78.21666308923078L190.00684462696782,77.59324790461538L195.0034223134839,78.28417113846155L200,81.29585113692308L205.01026694045174,79.92682857076923L210.00684462696782,82.92959909384614L215.0034223134839,82.6816672676923L219.99999999999997,79.54642078307693L225.01026694045174,75.26961651846155L230.00684462696782,70.09377839538462L235.0034223134839,64.19783293846153L240,68.09814627846154L245.01026694045174,67.33279156153847L250.00684462696782,58.94514492307694L255.00342231348392,53.64944680615384L260,50.629127153846156L265.01026694045174,45.30728619999998L270.00684462696785,40.59961992307691L275.00342231348395,35.00807504615384L280,28.817162676923076L285.01026694045174,24.2959831230769L290.00684462696785,16.673183153846168L295.0034223134839,10.577322461538454L300,15.87019635384615" stroke="rgb(44, 158, 192)" stroke-width="2"/></g></g><path class="foreground" aria-hidden="true" d="" display="none"/></g></g><g class="mark-group role-scope layer_1_pathgroup" role="graphics-object" aria-roledescription="group mark container"><g transform="translate(0,0)"><path class="background" aria-hidden="true" d="M0,0h300v220h-300Z"/><g><g class="mark-line role-mark layer_1_marks" role="graphics-object" aria-roledescription="line mark container"><path aria-label="Country: Tanzania; Year: 1988; GDP per capita ($): 494.2807429; Value: 494.2807429" role="graphics-symbol" aria-roledescription="line mark" d="M140,136.3524896630769L145.01026694045174,135.8325361292308L150.00684462696785,132.7287224661538L155.00342231348392,133.83012386615383L160,136.22915124923077L165.01026694045174,138.0287991923077L170.00684462696785,139.35659831076924L175.00342231348392,138.88504046153847L180,137.4089071553846L185.01026694045174,136.54302433538462L190.00684462696782,135.42517512615385L195.0034223134839,133.36282888923077L200,131.64853536153845L205.01026694045174,128.69527758153848L210.00684462696782,124.83842011384617L215.0034223134839,121.2852412876923L219.99999999999997,116.83070682461536L225.01026694045174,112.19905721538461L230.00684462696782,108.34081097230771L235.0034223134839,104.09655140923078L240,100.93117785384614L245.01026694045174,98.20069814923076L250.00684462696782,94.19322610923076L255.00342231348392,88.4697648830769L260,86.57340123384614L265.01026694045174,81.72017857384616L270.00684462696785,76.7674269153846L275.00342231348395,72.43106007076923L280,66.94626022615384L285.01026694045174,61.36941309230769L290.00684462696785,57.63353034153845L295.0034223134839,53.23184170615386L300,54.804263393846135" stroke="rgb(33, 99, 170)" stroke-width="2"/></g></g><path class="foreground" aria-hidden="true" d="" display="none"/></g></g><g class="mark-text role-mark layer_2_marks" role="graphics-object" aria-roledescription="text mark container"><text aria-label="Country: Kenya; Year: 2020; GDP per capita ($): 1206.221567; Value: 1206.221567" role="graphics-symbol" aria-roledescription="text mark" text-anchor="start" transform="translate(305,18.87019635384615)" font-family="Georgia" font-size="11px" fill="rgb(44, 158, 192)">Kenya</text></g><g class="mark-text role-mark layer_3_marks" role="graphics-object" aria-roledescription="text mark container"><text aria-label="Country: Central Afican Republic; Year: 2012; GDP per capita ($): 528.6454444; Value: 528.6454444" role="graphics-symbol" aria-roledescription="text mark" text-anchor="start" transform="translate(265,133.53692479384617)" font-family="Georgia" font-size="11px" fill="rgb(189, 229, 181)">Central African Republic</text></g><g class="mark-text role-mark layer_4_marks" role="graphics-object" aria-roledescription="text mark container"><text aria-label="Country: Democratic Republic of Congo; Year: 2020; GDP per capita ($): 413.7090403; Value: 413.7090403" role="graphics-symbol" aria-roledescription="text mark" text-anchor="start" transform="translate(305,152.9877008723077)" font-family="Georgia" font-size="11px" fill="rgb(105, 197, 190)">DRC</text></g><g class="mark-text role-mark layer_5_marks" role="graphics-object" aria-roledescription="text mark container"><text aria-label="Country: Tanzania; Year: 2020; GDP per capita ($): 976.1566254; Value: 976.1566254" role="graphics-symbol" aria-roledescription="text mark" text-anchor="start" transform="translate(305,57.804263393846135)" font-family="Georgia" font-size="11px" fill="rgb(33, 99, 170)">Tanzania</text></g><g class="mark-group role-title"><g transform="translate(-2,-32)"><path class="background" aria-hidden="true" d="M0,0h0v0h0Z" pointer-events="none"/><g><g class="mark-text role-title-text" role="graphics-symbol" aria-roledescription="title" aria-label="Title text 'GDP per capita by country'" pointer-events="none"><text text-anchor="start" transform="translate(0,4)" font-family="Georgia" font-size="14px" font-weight="bold" fill="#F4134D" opacity="1">GDP per capita by country</text></g><g class="mark-text role-title-subtitle" role="graphics-symbol" aria-roledescription="subtitle" aria-label="Subtitle text '2010 US$. Source: World Bank, OECD'" pointer-events="none"><text text-anchor="start" transform="translate(0,19)" font-family="Georgia" font-size="12px" font-style="italic" fill="#F4134D" opacity="1">2010 US$. Source: World Bank, OECD</text></g></g><path class="foreground" aria-hidden="true" d="" pointer-events="none" display="none"/></g></g></g><path class="foreground" aria-hidden="true" d="" display="none"/></g></g></g></svg>