<svg xmlns="http://www.w3.org/2000/svg" xmlns:xlink="http://www.w3.org/1999/xlink" version="1.1" class="marks" width="412" height="327" viewBox="0 0 412 327"><rect width="412" height="327" fill="white"/><g fill="none" stroke-miterlimit="10" transform="translate(6,5)"><g class="mark-group role-frame root" role="graphics-object" aria-roledescription="group mark container"><g transform="translate(0,0)"><path class="background" aria-hidden="true" d="M0,0h400v300h-400Z"/><g><g class="mark-group role-axis" aria-hidden="true"><g transform="translate(0.5,0.5)"><path class="background" aria-hidden="true" d="M0,0h0v0h0Z" pointer-events="none"/><g><g class="mark-rule role-axis-grid" pointer-events="none"><line transform="translate(0,300)" x2="400" y2="0" stroke="#ddd" stroke-width="1" opacity="1"/><line transform="translate(0,214)" x2="400" y2="0" stroke="#ddd" stroke-width="1" opacity="1"/><line transform="translate(0,129)" x2="400" y2="0" stroke="#ddd" stroke-width="1" opacity="1"/><line transform="translate(0,43)" x2="400" y2="0" stroke="#ddd" stroke-width="1" opacity="1"/></g></g><path class="foreground" aria-hidden="true" d="" pointer-events="none" display="none"/></g></g><g class="mark-group role-axis" role="graphics-symbol" aria-roledescription="axis" aria-label="X-axis for a time scale with values from Friday, 01 January 1993, 12:00:00 AM to Monday, 01 January 2018, 12:00:00 AM"><g transform="translate(0.5,300.5)"><path class="background" aria-hidden="true" d="M0,0h0v0h0Z" pointer-events="none"/><g><g class="mark-rule role-axis-tick" pointer-events="none"><line transform="translate(16,0)" x2="0" y2="5" stroke="#676A86" stroke-width="1" opacity="1"/><line transform="translate(48,0)" x2="0" y2="5" stroke="#676A86" stroke-width="1" opacity="1"/><line transform="translate(80,0)" x2="0" y2="5" stroke="#676A86" stroke-width="1" opacity="1"/><line transform="translate(112,0)" x2="0" y2="5" stroke="#676A86" stroke-width="1" opacity="1"/><line transform="translate(144,0)" x2="0" y2="5" stroke="#676A86" stroke-width="1" opacity="1"/><line transform="translate(176,0)" x2="0" y2="5" stroke="#676A86" stroke-width="1" opacity="1"/><line transform="translate(208,0)" x2="0" y2="5" stroke="#676A86" stroke-width="1" opacity="1"/><line transform="translate(240,0)" x2="0" y2="5" stroke="#676A86" stroke-width="1" opacity="1"/><line transform="translate(272,0)" x2="0" y2="5" stroke="#676A86" stroke-width="1" opacity="1"/><line transform="translate(304,0)" x2="0" y2="5" stroke="#676A86" stroke-width="1" opacity="1"/><line transform="translate(336,0)" x2="0" y2="5" stroke="#676A86" stroke-width="1" opacity="1"/><line transform="translate(368,0)" x2="0" y2="5" stroke="#676A86" stroke-width="1" opacity="1"/><line transform="translate(400,0)" x2="0" y2="5" stroke="#676A86" stroke-width="1" opacity="1"/></g><g class="mark-text role-axis-label" pointer-events="none"><text text-anchor="middle" transform="translate(15.989486365129777,15)" font-family="sans-serif" font-size="10px" fill="#676A86" opacity="1">1994</text><text text-anchor="middle" transform="translate(47.968459095389335,15)" font-family="sans-serif" font-size="10px" fill="#676A86" opacity="0">1996</text><text text-anchor="middle" transform="translate(79.99123863760815,15)" font-family="sans-serif" font-size="10px" fill="#676A86" opacity="1">1998</text><text text-anchor="middle" transform="translate(111.9702113678677,15)" font-family="sans-serif" font-size="10px" fill="#676A86" opacity="0">2000</text><text text-anchor="middle" transform="translate(143.99299091008652,15)" font-family="sans-serif" font-size="10px" fill="#676A86" opacity="1">2002</text><text text-anchor="middle" transform="translate(175.97196364034608,15)" font-family="sans-serif" font-size="10px" fill="#676A86" opacity="0">2004</text><text text-anchor="middle" transform="translate(207.9947431825649,15)" font-family="sans-serif" font-size="10px" fill="#676A86" opacity="1">2006</text><text text-anchor="middle" transform="translate(239.97371591282445,15)" font-family="sans-serif" font-size="10px" fill="#676A86" opacity="0">2008</text><text text-anchor="middle" transform="translate(271.99649545504326,15)" font-family="sans-serif" font-size="10px" fill="#676A86" opacity="1">2010</text><text text-anchor="middle" transform="translate(303.9754681853028,15)" font-family="sans-serif" font-size="10px" fill="#676A86" opacity="0">2012</text><text text-anchor="middle" transform="translate(335.99824772752163,15)" font-family="sans-serif" font-size="10px" fill="#676A86" opacity="1">2014</text><text text-anchor="middle" transform="translate(367.9772204577812,15)" font-family="sans-serif" font-size="10px" fill="#676A86" opacity="0">2016</text><text text-anchor="end" transform="translate(400,15)" font-family="sans-serif" font-size="10px" fill="#676A86" opacity="1">2018</text></g><g class="mark-rule role-axis-domain" pointer-events="none"><line transform="translate(0,0)" x2="400" y2="0" stroke="#676A86" stroke-width="1" opacity="1"/></g></g><path class="foreground" aria-hidden="true" d="" pointer-events="none" display="none"/></g></g><g class="mark-group role-axis" role="graphics-symbol" aria-roledescription="axis" aria-label="Y-axis titled '%' for a linear scale with values from 0 to 35"><g transform="translate(0.5,0.5)"><path class="background" aria-hidden="true" d="M0,0h0v0h0Z" pointer-events="none"/><g><g class="mark-text role-axis-label" pointer-events="none"><text text-anchor="start" transform="translate(5,293)" font-family="sans-serif" font-size="10px" fill="#676A86" opacity="1">0</text><text text-anchor="start" transform="translate(5,207.28571428571428)" font-family="sans-serif" font-size="10px" fill="#676A86" opacity="1">10</text><text text-anchor="start" transform="translate(5,121.57142857142858)" font-family="sans-serif" font-size="10px" fill="#676A86" opacity="1">20</text><text text-anchor="start" transform="translate(5,35.85714285714287)" font-family="sans-serif" font-size="10px" fill="#676A86" opacity="1">30</text></g><g class="mark-rule role-axis-domain" pointer-events="none"><line transform="translate(0,300)" x2="0" y2="-300" stroke="#676A86" stroke-width="1" opacity="1"/></g><g class="mark-text role-axis-title" pointer-events="none"><text text-anchor="start" transform="translate(20,35)" font-family="sans-serif" font-size="10px" font-weight="normal" fill="#676A86" opacity="1">%</text></g></g><path class="foreground" aria-hidden="true" d="" pointer-events="none" display="none"/></g></g><g class="mark-area role-mark layer_0_marks" role="graphics-object" aria-roledescription="area mark container"><path aria-label="year: Jan 01, 1993; stack: 15.7288667888" role="graphics-symbol" aria-roledescription="area mark" d="M0,165.1811418102965C5.3298287883765925,162.2190250885729,10.659657576753183,159.25690836684927,15.989486365129777,156.99687600362032C21.31931515350637,154.73684364039136,26.64914394188296,154.0801684605547,31.978972730259553,151.6209476309227C37.308801518636145,149.16172680129068,42.63863030701274,146.1153681629459,47.968459095389335,142.2415510258283C53.312890154419016,138.35712069107475,58.65732121344869,131.69001221976072,64.00175227247837,128.3339031544095C69.33158106085496,124.98696378595817,74.66140984923156,124.0254688751764,79.99123863760815,122.11145449107762C85.32106742598474,120.19744010697885,90.65089621436134,119.59745027051542,95.98072500273793,116.84981684981686C101.31055379111451,114.1021834291183,106.64038257949112,109.41817576336315,111.9702113678677,105.6256539668862C117.31464242689738,101.82274169973398,122.65907348592707,95.53047974790043,128.00350454495674,94.06267294579553C133.33333333333334,92.59887654478926,138.66316212170992,92.56590214102879,143.99299091008652,91.86697834428614C149.32281969846312,91.16805454754349,154.6526484868397,90.3470004110343,159.9824772752163,89.86913016533963C165.3123060635929,89.39125991964495,170.64213485196947,89.57933906693243,175.97196364034608,88.99975687011806C181.31639469937576,88.41858677687406,186.66082575840542,87.23753279041863,192.0052568174351,85.24139729519511C197.3350856058117,83.25071572208971,202.6649143941883,77.05147506621641,207.9947431825649,77.05147506621641C213.3245719709415,77.05147506621641,218.65440075931807,79.17868631599167,223.98422954769467,79.17868631599167C229.31405833607127,79.17868631599167,234.64388712444784,72.78395939065196,239.97371591282445,72.78395939065196C245.31814697185413,72.78395939065196,250.6625780308838,82.77201885628995,256.0070090899135,82.77201885628995C261.33683787829005,82.77201885628995,266.6666666666667,52.79219999999999,271.99649545504326,52.79219999999999C277.32632424341983,52.79219999999999,282.65615303179646,66.28604285714286,287.98598182017304,66.62757428571429C293.3158106085496,66.96910571428572,298.64563939692624,67.13987142857142,303.9754681853028,67.13987142857142C309.3198992443325,67.13987142857142,314.6643303033622,64.56955291621534,320.00876136239185,63.03588857142856C325.3385901507684,61.50641456638162,330.66841893914506,60.970709736114536,335.99824772752163,57.95316857142855C341.3280765158982,54.93562740674256,346.65790530427483,44.93064158331263,351.9877340926514,44.93064158331263C357.317562881028,44.93064158331263,362.6473916694046,50.801107205523465,367.9772204577812,50.801107205523465C373.32165151681085,50.801107205523465,378.66608257584056,23.24659009718819,384.0105136348702,23.24659009718819C389.3403424232468,23.24659009718819,394.6701712116234,29.285234431836763,400,35.323878766485336L400,300C394.6701712116234,300,389.3403424232468,300,384.0105136348702,300C378.66608257584056,300,373.32165151681085,300,367.9772204577812,300C362.6473916694046,300,357.317562881028,300,351.9877340926514,300C346.65790530427483,300,341.3280765158982,300,335.99824772752163,300C330.66841893914506,300,325.3385901507684,300,320.00876136239185,300C314.6643303033622,300,309.3198992443325,300,303.9754681853028,300C298.64563939692624,300,293.3158106085496,300,287.98598182017304,300C282.65615303179646,300,277.32632424341983,300,271.99649545504326,300C266.6666666666667,300,261.33683787829005,300,256.0070090899135,300C250.6625780308838,300,245.31814697185413,300,239.97371591282445,300C234.64388712444784,300,229.31405833607127,300,223.98422954769467,300C218.65440075931807,300,213.3245719709415,300,207.9947431825649,300C202.6649143941883,300,197.3350856058117,300,192.0052568174351,300C186.66082575840542,300,181.31639469937576,300,175.97196364034608,300C170.64213485196947,300,165.3123060635929,300,159.9824772752163,300C154.6526484868397,300,149.32281969846312,300,143.99299091008652,300C138.66316212170992,300,133.33333333333334,300,128.00350454495674,300C122.65907348592707,300,117.31464242689738,300,111.9702113678677,300C106.64038257949112,300,101.31055379111451,300,95.98072500273793,300C90.65089621436134,300,85.32106742598474,300,79.99123863760815,300C74.66140984923156,300,69.33158106085496,300,64.00175227247837,300C58.65732121344869,300,53.312890154419016,300,47.968459095389335,300C42.63863030701274,300,37.308801518636145,300,31.978972730259553,300C26.64914394188296,300,21.31931515350637,300,15.989486365129777,300C10.659657576753183,300,5.3298287883765925,300,0,300Z" fill="url(#gradient_0)" fill-opacity="0.8" stroke="#676A86" stroke-width="0.5"/></g><g class="mark-area role-mark layer_1_marks" role="graphics-object" aria-roledescription="area mark container"><path aria-label="year: Jan 01, 1993; obese: 15" role="graphics-symbol" aria-roledescription="area mark" d="M0,172.24735484353386C5.3298287883765925,170.07272719163424,10.659657576753183,167.89809953973466,15.989486365129777,165.69735190213424C21.31931515350637,163.49660426453383,26.64914394188296,161.6432065642688,31.978972730259553,159.04286901793137C37.308801518636145,156.44253147159392,42.63863030701274,152.92474926193097,47.968459095389335,150.0953266241096C53.312890154419016,147.25815214344487,58.65732121344869,144.81948495574886,64.00175227247837,142.04559768232775C69.33158106085496,139.27928933588322,74.66140984923156,135.68880666080764,79.99123863760815,133.47622370650978C85.32106742598474,131.26364075221193,90.65089621436134,131.25761771940626,95.98072500273793,128.77009995654066C101.31055379111451,126.28258219367507,106.64038257949112,121.97107171629192,111.9702113678677,118.55111712931618C117.31464242689738,115.12179280374599,122.65907348592707,108.89481574854055,128.00350454495674,108.22203890693036C133.33333333333334,107.55110025341202,138.66316212170992,107.51409005707342,143.99299091008652,107.21563092665284C149.32281969846312,106.91717179623225,154.6526484868397,106.95418199257087,159.9824772752163,106.43128412440691C165.3123060635929,105.90838625624296,170.64213485196947,104.27931641549416,175.97196364034608,103.38519428871768C181.31639469937576,102.48862251227881,186.66082575840542,102.49981074827873,192.0052568174351,101.06119815013986C197.3350856058117,99.62651618751502,202.6649143941883,95.14878825596456,207.9947431825649,94.77618011768709C213.3245719709415,94.40357197940962,218.65440075931807,94.58987604854836,223.98422954769467,94.21726791027089C229.31405833607127,93.84465977199342,234.64388712444784,89.78318933703395,239.97371591282445,89.78318933703395C245.31814697185413,89.78318933703395,250.6625780308838,103.15497798977272,256.0070090899135,103.15497798977272C261.33683787829005,103.15497798977272,266.6666666666667,75.86125714285716,271.99649545504326,75.86125714285716C277.32632424341983,75.86125714285716,282.65615303179646,87.69868857142855,287.98598182017304,87.82943142857141C293.3158106085496,87.96017428571427,298.64563939692624,88.0255457142857,303.9754681853028,88.0255457142857C309.3198992443325,88.0255457142857,314.6643303033622,87.54909142857142,320.00876136239185,86.59618285714285C325.3385901507684,85.64587786104606,330.66841893914506,83.70608350355533,335.99824772752163,80.90716285714286C341.3280765158982,78.1082422107304,346.65790530427483,69.80265897866805,351.9877340926514,69.80265897866805C357.317562881028,69.80265897866805,362.6473916694046,75.56762939030456,367.9772204577812,75.56762939030456C373.32165151681085,75.56762939030456,378.66608257584056,53.709437348508985,384.0105136348702,53.709437348508985C389.3403424232468,53.709437348508985,394.6701712116234,58.05094338207536,400,62.392449415641735L400,300C394.6701712116234,300,389.3403424232468,300,384.0105136348702,300C378.66608257584056,300,373.32165151681085,300,367.9772204577812,300C362.6473916694046,300,357.317562881028,300,351.9877340926514,300C346.65790530427483,300,341.3280765158982,300,335.99824772752163,300C330.66841893914506,300,325.3385901507684,300,320.00876136239185,300C314.6643303033622,300,309.3198992443325,300,303.9754681853028,300C298.64563939692624,300,293.3158106085496,300,287.98598182017304,300C282.65615303179646,300,277.32632424341983,300,271.99649545504326,300C266.6666666666667,300,261.33683787829005,300,256.0070090899135,300C250.6625780308838,300,245.31814697185413,300,239.97371591282445,300C234.64388712444784,300,229.31405833607127,300,223.98422954769467,300C218.65440075931807,300,213.3245719709415,300,207.9947431825649,300C202.6649143941883,300,197.3350856058117,300,192.0052568174351,300C186.66082575840542,300,181.31639469937576,300,175.97196364034608,300C170.64213485196947,300,165.3123060635929,300,159.9824772752163,300C154.6526484868397,300,149.32281969846312,300,143.99299091008652,300C138.66316212170992,300,133.33333333333334,300,128.00350454495674,300C122.65907348592707,300,117.31464242689738,300,111.9702113678677,300C106.64038257949112,300,101.31055379111451,300,95.98072500273793,300C90.65089621436134,300,85.32106742598474,300,79.99123863760815,300C74.66140984923156,300,69.33158106085496,300,64.00175227247837,300C58.65732121344869,300,53.312890154419016,300,47.968459095389335,300C42.63863030701274,300,37.308801518636145,300,31.978972730259553,300C26.64914394188296,300,21.31931515350637,300,15.989486365129777,300C10.659657576753183,300,5.3298287883765925,300,0,300Z" fill="url(#gradient_1)" fill-opacity="0.8" stroke="#676A86" stroke-width="0.5"/></g><g class="mark-text role-mark layer_2_marks" role="graphics-object" aria-roledescription="text mark container"><text aria-label="c: #36B7B4; t: Obese; x: Mar 15, 1999; y: 24" role="graphics-symbol" aria-roledescription="text mark" text-anchor="end" transform="translate(99.17862227576389,102.28571428571428)" font-family="sans-serif" font-size="10px" fill="#36B7B4">Obese</text></g><g class="mark-text role-mark layer_3_marks" role="graphics-object" aria-roledescription="text mark container"><text aria-label="c: #243B5A; t: Morbidly obese; x: Mar 01, 2004; y: 26" role="graphics-symbol" aria-roledescription="text mark" text-anchor="end" transform="translate(178.60037235790165,75.14285714285714)" font-family="sans-serif" font-size="10px" fill="#243B5A">Morbidly obese</text></g></g><path class="foreground" aria-hidden="true" d="" display="none"/></g></g></g><defs><linearGradient id="gradient_0" x1="0.8" x2="0.8" y1="0.8" y2="0"><stop offset="0" stop-color="white"/><stop offset="0.9" stop-color="#243B5A"/></linearGradient><linearGradient id="gradient_1" x1="0.8" x2="1" y1="1" y2="0"><stop offset="0" stop-color="white"/><stop offset="0.9" stop-color="#36B7B4"/></linearGradient></defs></svg>