<svg xmlns="http://www.w3.org/2000/svg" xmlns:xlink="http://www.w3.org/1999/xlink" version="1.1" class="marks" width="412" height="342" viewBox="0 0 412 342"><rect width="412" height="342" fill="white"/><g fill="none" stroke-miterlimit="10" transform="translate(6,20)"><g class="mark-group role-frame root" role="graphics-object" aria-roledescription="group mark container"><g transform="translate(0,0)"><path class="background" aria-hidden="true" d="M0,0h400v300h-400Z"/><g><g class="mark-group role-axis" aria-hidden="true"><g transform="translate(0.5,0.5)"><path class="background" aria-hidden="true" d="M0,0h0v0h0Z" pointer-events="none"/><g><g class="mark-rule role-axis-grid" pointer-events="none"><line transform="translate(0,300)" x2="400" y2="0" stroke="#ddd" stroke-width="1" opacity="1"/><line transform="translate(0,200)" x2="400" y2="0" stroke="#ddd" stroke-width="1" opacity="1"/><line transform="translate(0,100)" x2="400" y2="0" stroke="#ddd" stroke-width="1" opacity="1"/><line transform="translate(0,0)" x2="400" y2="0" stroke="#ddd" stroke-width="1" opacity="1"/></g></g><path class="foreground" aria-hidden="true" d="" pointer-events="none" display="none"/></g></g><g class="mark-group role-axis" role="graphics-symbol" aria-roledescription="axis" aria-label="X-axis for a time scale with values from Friday, 01 January 1993, 12:00:00 AM to Monday, 01 January 2018, 12:00:00 AM"><g transform="translate(0.5,300.5)"><path class="background" aria-hidden="true" d="M0,0h0v0h0Z" pointer-events="none"/><g><g class="mark-rule role-axis-tick" pointer-events="none"><line transform="translate(16,0)" x2="0" y2="5" stroke="#676A86" stroke-width="1" opacity="1"/><line transform="translate(48,0)" x2="0" y2="5" stroke="#676A86" stroke-width="1" opacity="1"/><line transform="translate(80,0)" x2="0" y2="5" stroke="#676A86" stroke-width="1" opacity="1"/><line transform="translate(112,0)" x2="0" y2="5" stroke="#676A86" stroke-width="1" opacity="1"/><line transform="translate(144,0)" x2="0" y2="5" stroke="#676A86" stroke-width="1" opacity="1"/><line transform="translate(176,0)" x2="0" y2="5" stroke="#676A86" stroke-width="1" opacity="1"/><line transform="translate(208,0)" x2="0" y2="5" stroke="#676A86" stroke-width="1" opacity="1"/><line transform="translate(240,0)" x2="0" y2="5" stroke="#676A86" stroke-width="1" opacity="1"/><line transform="translate(272,0)" x2="0" y2="5" stroke="#676A86" stroke-width="1" opacity="1"/><line transform="translate(304,0)" x2="0" y2="5" stroke="#676A86" stroke-width="1" opacity="1"/><line transform="translate(336,0)" x2="0" y2="5" stroke="#676A86" stroke-width="1" opacity="1"/><line transform="translate(368,0)" x2="0" y2="5" stroke="#676A86" stroke-width="1" opacity="1"/><line transform="translate(400,0)" x2="0" y2="5" stroke="#676A86" stroke-width="1" opacity="1"/></g><g class="mark-text role-axis-label" pointer-events="none"><text text-anchor="middle" transform="translate(15.989486365129777,15)" font-family="sans-serif" font-size="10px" fill="#676A86" opacity="1">1994</text><text text-anchor="middle" transform="translate(47.968459095389335,15)" font-family="sans-serif" font-size="10px" fill="#676A86" opacity="0">1996</text><text text-anchor="middle" transform="translate(79.99123863760815,15)" font-family="sans-serif" font-size="10px" fill="#676A86" opacity="1">1998</text><text text-anchor="middle" transform="translate(111.9702113678677,15)" font-family="sans-serif" font-size="10px" fill="#676A86" opacity="0">2000</text><text text-anchor="middle" transform="translate(143.99299091008652,15)" font-family="sans-serif" font-size="10px" fill="#676A86" opacity="1">2002</text><text text-anchor="middle" transform="translate(175.97196364034608,15)" font-family="sans-serif" font-size="10px" fill="#676A86" opacity="0">2004</text><text text-anchor="middle" transform="translate(207.9947431825649,15)" font-family="sans-serif" font-size="10px" fill="#676A86" opacity="1">2006</text><text text-anchor="middle" transform="translate(239.97371591282445,15)" font-family="sans-serif" font-size="10px" fill="#676A86" opacity="0">2008</text><text text-anchor="middle" transform="translate(271.99649545504326,15)" font-family="sans-serif" font-size="10px" fill="#676A86" opacity="1">2010</text><text text-anchor="middle" transform="translate(303.9754681853028,15)" font-family="sans-serif" font-size="10px" fill="#676A86" opacity="0">2012</text><text text-anchor="middle" transform="translate(335.99824772752163,15)" font-family="sans-serif" font-size="10px" fill="#676A86" opacity="1">2014</text><text text-anchor="middle" transform="translate(367.9772204577812,15)" font-family="sans-serif" font-size="10px" fill="#676A86" opacity="0">2016</text><text text-anchor="end" transform="translate(400,15)" font-family="sans-serif" font-size="10px" fill="#676A86" opacity="1">2018</text></g><g class="mark-rule role-axis-domain" pointer-events="none"><line transform="translate(0,0)" x2="400" y2="0" stroke="#676A86" stroke-width="1" opacity="1"/></g></g><path class="foreground" aria-hidden="true" d="" pointer-events="none" display="none"/></g></g><g class="mark-group role-axis" role="graphics-symbol" aria-roledescription="axis" aria-label="Y-axis titled '%' for a linear scale with values from 0 to 30"><g transform="translate(0.5,0.5)"><path class="background" aria-hidden="true" d="M0,0h0v0h0Z" pointer-events="none"/><g><g class="mark-text role-axis-label" pointer-events="none"><text text-anchor="start" transform="translate(5,293)" font-family="sans-serif" font-size="10px" fill="#676A86" opacity="1">0</text><text text-anchor="start" transform="translate(5,193.00000000000003)" font-family="sans-serif" font-size="10px" fill="#676A86" opacity="1">10</text><text text-anchor="start" transform="translate(5,93.00000000000001)" font-family="sans-serif" font-size="10px" fill="#676A86" opacity="1">20</text><text text-anchor="start" transform="translate(5,-7)" font-family="sans-serif" font-size="10px" fill="#676A86" opacity="1">30</text></g><g class="mark-rule role-axis-domain" pointer-events="none"><line transform="translate(0,300)" x2="0" y2="-300" stroke="#676A86" stroke-width="1" opacity="1"/></g><g class="mark-text role-axis-title" pointer-events="none"><text text-anchor="start" transform="translate(20,35)" font-family="sans-serif" font-size="10px" font-weight="normal" fill="#676A86" opacity="1">%</text></g></g><path class="foreground" aria-hidden="true" d="" pointer-events="none" display="none"/></g></g><g class="mark-area role-mark layer_0_marks" role="graphics-object" aria-roledescription="area mark container"><path aria-label="year: Jan 01, 1993; stack: NaN" role="graphics-symbol" aria-roledescription="area mark" fill="url(#gradient_0)" fill-opacity="0.8" stroke="#676A86" stroke-width="0.5"/></g><g class="mark-area role-mark layer_1_marks" role="graphics-object" aria-roledescription="area mark container"><path aria-label="year: Jan 01, 1993; obese: 15" role="graphics-symbol" aria-roledescription="area mark" d="M0,150.95524731745618C5.3298287883765925,148.41818172357333,10.659657576753183,145.88111612969044,15.989486365129777,143.31357721915663C21.31931515350637,140.74603830862281,26.64914394188296,138.58374099164695,31.978972730259553,135.55001385425325C37.308801518636145,132.51628671685955,42.63863030701274,128.4122074722528,47.968459095389335,125.1112143947945C53.312890154419016,121.80117750068565,58.65732121344869,118.956065781707,64.00175227247837,115.7198639627157C69.33158106085496,112.49250422519708,74.66140984923156,108.30360777094225,79.99123863760815,105.72226099092809C85.32106742598474,103.14091421091393,90.65089621436134,103.13388733930728,95.98072500273793,100.23178328263074C101.31055379111451,97.32967922595421,106.64038257949112,92.29958366900725,111.9702113678677,88.30963665086888C117.31464242689738,84.308758271037,122.65907348592707,77.0439517066306,128.00350454495674,76.25904539141874C133.33333333333334,75.47628362898068,138.66316212170992,75.43310506658567,143.99299091008652,75.08490274776166C149.32281969846312,74.73670042893765,154.6526484868397,74.77987899133268,159.9824772752163,74.16983147847472C165.3123060635929,73.55978396561676,170.64213485196947,71.6592024847432,175.97196364034608,70.61606000350399C181.31639469937576,69.57005959765863,186.66082575840542,69.58311253965853,192.0052568174351,67.90473117516316C197.3350856058117,66.23093555210085,202.6649143941883,61.006919631958645,207.9947431825649,60.572210137301596C213.3245719709415,60.13750064264455,218.65440075931807,60.354855389973075,223.98422954769467,59.920145895316026C229.31405833607127,59.485436400658976,234.64388712444784,54.7470542265396,239.97371591282445,54.7470542265396C245.31814697185413,54.7470542265396,250.6625780308838,70.34747432140152,256.0070090899135,70.34747432140152C261.33683787829005,70.34747432140152,266.6666666666667,38.504799999999996,271.99649545504326,38.504799999999996C277.32632424341983,38.504799999999996,282.65615303179646,52.31513666666664,287.98598182017304,52.46766999999998C293.3158106085496,52.620203333333315,298.64563939692624,52.696469999999984,303.9754681853028,52.696469999999984C309.3198992443325,52.696469999999984,314.6643303033622,52.140606666666656,320.00876136239185,51.02888C325.3385901507684,49.92019083788708,330.66841893914506,47.65709742081453,335.99824772752163,44.39168999999998C341.3280765158982,41.126282579185435,346.65790530427483,31.436435475112713,351.9877340926514,31.436435475112713C357.317562881028,31.436435475112713,362.6473916694046,38.16223428868866,367.9772204577812,38.16223428868866C373.32165151681085,38.16223428868866,378.66608257584056,12.661010239927151,384.0105136348702,12.661010239927151C389.3403424232468,12.661010239927151,394.6701712116234,17.72610061242125,400,22.791190984915342L400,300C394.6701712116234,300,389.3403424232468,300,384.0105136348702,300C378.66608257584056,300,373.32165151681085,300,367.9772204577812,300C362.6473916694046,300,357.317562881028,300,351.9877340926514,300C346.65790530427483,300,341.3280765158982,300,335.99824772752163,300C330.66841893914506,300,325.3385901507684,300,320.00876136239185,300C314.6643303033622,300,309.3198992443325,300,303.9754681853028,300C298.64563939692624,300,293.3158106085496,300,287.98598182017304,300C282.65615303179646,300,277.32632424341983,300,271.99649545504326,300C266.6666666666667,300,261.33683787829005,300,256.0070090899135,300C250.6625780308838,300,245.31814697185413,300,239.97371591282445,300C234.64388712444784,300,229.31405833607127,300,223.98422954769467,300C218.65440075931807,300,213.3245719709415,300,207.9947431825649,300C202.6649143941883,300,197.3350856058117,300,192.0052568174351,300C186.66082575840542,300,181.31639469937576,300,175.97196364034608,300C170.64213485196947,300,165.3123060635929,300,159.9824772752163,300C154.6526484868397,300,149.32281969846312,300,143.99299091008652,300C138.66316212170992,300,133.33333333333334,300,128.00350454495674,300C122.65907348592707,300,117.31464242689738,300,111.9702113678677,300C106.64038257949112,300,101.31055379111451,300,95.98072500273793,300C90.65089621436134,300,85.32106742598474,300,79.99123863760815,300C74.66140984923156,300,69.33158106085496,300,64.00175227247837,300C58.65732121344869,300,53.312890154419016,300,47.968459095389335,300C42.63863030701274,300,37.308801518636145,300,31.978972730259553,300C26.64914394188296,300,21.31931515350637,300,15.989486365129777,300C10.659657576753183,300,5.3298287883765925,300,0,300Z" fill="url(#gradient_1)" fill-opacity="0.8" stroke="#676A86" stroke-width="0.5"/></g><g class="mark-text role-mark layer_2_marks" role="graphics-object" aria-roledescription="text mark container"><text aria-label="c: #36B7B4; t: Obese; x: Mar 15, 1999; y: 24" role="graphics-symbol" aria-roledescription="text mark" text-anchor="end" transform="translate(99.17862227576389,67.99999999999999)" font-family="sans-serif" font-size="10px" fill="#36B7B4">Obese</text></g><g class="mark-text role-mark layer_3_marks" role="graphics-object" aria-roledescription="text mark container"><text aria-label="c: #243B5A; t: Morbidly obese; x: Mar 01, 2004; y: 26" role="graphics-symbol" aria-roledescription="text mark" text-anchor="end" transform="translate(178.60037235790165,37.99999999999999)" font-family="sans-serif" font-size="10px" fill="#243B5A">Morbidly obese</text></g></g><path class="foreground" aria-hidden="true" d="" display="none"/></g></g></g><defs><linearGradient id="gradient_0" x1="0.8" x2="0.8" y1="0.8" y2="0"><stop offset="0" stop-color="white"/><stop offset="0.9" stop-color="#243B5A"/></linearGradient><linearGradient id="gradient_1" x1="0.8" x2="1" y1="1" y2="0"><stop offset="0" stop-color="white"/><stop offset="0.9" stop-color="#36B7B4"/></linearGradient></defs></svg>