<svg xmlns="http://www.w3.org/2000/svg" xmlns:xlink="http://www.w3.org/1999/xlink" version="1.1" class="marks" width="638" height="263" viewBox="0 0 638 263"><rect width="638" height="263" fill="white"/><g fill="none" stroke-miterlimit="10" transform="translate(7,21)"><g class="mark-group role-frame root" role="graphics-object" aria-roledescription="group mark container"><g transform="translate(0,0)"><path class="background" aria-hidden="true" d="M0,0h0v220h0Z"/><g><g class="mark-group role-scope concat_0_group" role="graphics-object" aria-roledescription="group mark container"><g transform="translate(0,0)"><path class="background" aria-hidden="true" d="M0,0h300v220h-300Z"/><g><g class="mark-group role-axis" aria-hidden="true"><g transform="translate(0.5,0.5)"><path class="background" aria-hidden="true" d="M0,0h0v0h0Z" pointer-events="none"/><g><g class="mark-rule role-axis-grid" pointer-events="none"><line transform="translate(0,220)" x2="300" y2="0" stroke="#ddd" stroke-width="1" opacity="1"/><line transform="translate(0,147)" x2="300" y2="0" stroke="#ddd" stroke-width="1" opacity="1"/><line transform="translate(0,73)" x2="300" y2="0" stroke="#ddd" stroke-width="1" opacity="1"/><line transform="translate(0,0)" x2="300" y2="0" stroke="#ddd" stroke-width="1" opacity="1"/></g></g><path class="foreground" aria-hidden="true" d="" pointer-events="none" display="none"/></g></g><g class="mark-group role-axis" role="graphics-symbol" aria-roledescription="axis" aria-label="X-axis for a time scale with values from Sunday, 01 January 2006, 12:00:00 AM to Tuesday, 01 January 2019, 12:00:00 AM"><g transform="translate(0.5,220.5)"><path class="background" aria-hidden="true" d="M0,0h0v0h0Z" pointer-events="none"/><g><g class="mark-rule role-axis-tick" pointer-events="none"><line transform="translate(0,0)" x2="0" y2="5" stroke="#676A86" stroke-width="1" opacity="1"/><line transform="translate(23,0)" x2="0" y2="5" stroke="#676A86" stroke-width="1" opacity="1"/><line transform="translate(46,0)" x2="0" y2="5" stroke="#676A86" stroke-width="1" opacity="1"/><line transform="translate(69,0)" x2="0" y2="5" stroke="#676A86" stroke-width="1" opacity="1"/><line transform="translate(92,0)" x2="0" y2="5" stroke="#676A86" stroke-width="1" opacity="1"/><line transform="translate(115,0)" x2="0" y2="5" stroke="#676A86" stroke-width="1" opacity="1"/><line transform="translate(138,0)" x2="0" y2="5" stroke="#676A86" stroke-width="1" opacity="1"/><line transform="translate(162,0)" x2="0" y2="5" stroke="#676A86" stroke-width="1" opacity="1"/><line transform="translate(185,0)" x2="0" y2="5" stroke="#676A86" stroke-width="1" opacity="1"/><line transform="translate(208,0)" x2="0" y2="5" stroke="#676A86" stroke-width="1" opacity="1"/><line transform="translate(231,0)" x2="0" y2="5" stroke="#676A86" stroke-width="1" opacity="1"/><line transform="translate(254,0)" x2="0" y2="5" stroke="#676A86" stroke-width="1" opacity="1"/><line transform="translate(277,0)" x2="0" y2="5" stroke="#676A86" stroke-width="1" opacity="1"/><line transform="translate(300,0)" x2="0" y2="5" stroke="#676A86" stroke-width="1" opacity="1"/></g><g class="mark-text role-axis-label" pointer-events="none"><text text-anchor="start" transform="translate(0,15)" font-family="sans-serif" font-size="10px" fill="#676A86" opacity="1">2006</text><text text-anchor="middle" transform="translate(23.062342038753158,15)" font-family="sans-serif" font-size="10px" fill="#676A86" opacity="0">2007</text><text text-anchor="middle" transform="translate(46.124684077506316,15)" font-family="sans-serif" font-size="10px" fill="#676A86" opacity="1">2008</text><text text-anchor="middle" transform="translate(69.25021061499578,15)" font-family="sans-serif" font-size="10px" fill="#676A86" opacity="0">2009</text><text text-anchor="middle" transform="translate(92.31255265374895,15)" font-family="sans-serif" font-size="10px" fill="#676A86" opacity="1">2010</text><text text-anchor="middle" transform="translate(115.37489469250211,15)" font-family="sans-serif" font-size="10px" fill="#676A86" opacity="0">2011</text><text text-anchor="middle" transform="translate(138.43723673125527,15)" font-family="sans-serif" font-size="10px" fill="#676A86" opacity="1">2012</text><text text-anchor="middle" transform="translate(161.56276326874476,15)" font-family="sans-serif" font-size="10px" fill="#676A86" opacity="0">2013</text><text text-anchor="middle" transform="translate(184.6251053074979,15)" font-family="sans-serif" font-size="10px" fill="#676A86" opacity="1">2014</text><text text-anchor="middle" transform="translate(207.68744734625108,15)" font-family="sans-serif" font-size="10px" fill="#676A86" opacity="0">2015</text><text text-anchor="middle" transform="translate(230.74978938500422,15)" font-family="sans-serif" font-size="10px" fill="#676A86" opacity="1">2016</text><text text-anchor="middle" transform="translate(253.87531592249368,15)" font-family="sans-serif" font-size="10px" fill="#676A86" opacity="0">2017</text><text text-anchor="middle" transform="translate(276.9376579612468,15)" font-family="sans-serif" font-size="10px" fill="#676A86" opacity="1">2018</text><text text-anchor="end" transform="translate(300,15)" font-family="sans-serif" font-size="10px" fill="#676A86" opacity="0">2019</text></g><g class="mark-rule role-axis-domain" pointer-events="none"><line transform="translate(0,0)" x2="300" y2="0" stroke="#676A86" stroke-width="1" opacity="1"/></g></g><path class="foreground" aria-hidden="true" d="" pointer-events="none" display="none"/></g></g><g class="mark-group role-axis" role="graphics-symbol" aria-roledescription="axis" aria-label="Y-axis titled '% of children age 10-11 that are' for a linear scale with values from 0 to 30"><g transform="translate(0.5,0.5)"><path class="background" aria-hidden="true" d="M0,0h0v0h0Z" pointer-events="none"/><g><g class="mark-text role-axis-label" pointer-events="none"><text text-anchor="start" transform="translate(5,213)" font-family="sans-serif" font-size="10px" fill="#676A86" opacity="1">0</text><text text-anchor="start" transform="translate(5,139.66666666666669)" font-family="sans-serif" font-size="10px" fill="#676A86" opacity="1">10</text><text text-anchor="start" transform="translate(5,66.33333333333334)" font-family="sans-serif" font-size="10px" fill="#676A86" opacity="1">20</text><text text-anchor="start" transform="translate(5,-7)" font-family="sans-serif" font-size="10px" fill="#676A86" opacity="1">30</text></g><g class="mark-rule role-axis-domain" pointer-events="none"><line transform="translate(0,220)" x2="0" y2="-220" stroke="#676A86" stroke-width="1" opacity="1"/></g><g class="mark-text role-axis-title" pointer-events="none"><text text-anchor="start" transform="translate(20,-7)" font-family="sans-serif" font-size="10px" font-weight="normal" fill="#676A86" opacity="1">% of children age 10-11 that are</text></g></g><path class="foreground" aria-hidden="true" d="" pointer-events="none" display="none"/></g></g><g class="mark-group role-scope concat_0_layer_0_pathgroup" role="graphics-object" aria-roledescription="group mark container"><g transform="translate(0,0)"><path class="background" aria-hidden="true" d="M0,0h300v220h-300Z"/><g><g class="mark-area role-mark concat_0_layer_0_marks" role="graphics-object" aria-roledescription="area mark container"><path aria-label="category: obese; year: Jan 01, 2006; least: 12.9888458912; most: 21.4938088162" role="graphics-symbol" aria-roledescription="area mark" d="M0,124.74846346460299L23.062342038753158,120.6080888054526L46.124684077506316,122.50339760887141L69.25021061499578,119.96457669146281L92.31255265374895,118.71978132209873L115.37489469250211,119.64667388248152L138.43723673125527,124.66487127817875L161.56276326874476,124.04385901074639L184.6251053074979,126.53973606866462L207.68744734625108,122.75941627732567L230.74978938500422,126.39280284981754L253.87531592249368,122.80611539533334L276.9376579612468,124.39206430211807L300,117.99275947936545L300,20.341087467101147L276.9376579612468,22.581418464596936L253.87531592249368,23.949773092666675L230.74978938500422,27.82023096961241L207.68744734625108,31.79621141176628L184.6251053074979,38.466452962913806L161.56276326874476,39.1072826938134L138.43723673125527,42.608244749805536L115.37489469250211,41.667280992750605L92.31255265374895,46.356334228523L69.25021061499578,47.94807089370026L46.124684077506316,53.99707105064212L23.062342038753158,55.298731095191485L0,62.37873534753154Z" fill="url(#gradient_0)" opacity="0.3"/></g></g><path class="foreground" aria-hidden="true" d="" display="none"/></g></g><g class="mark-group role-scope concat_0_layer_1_pathgroup" role="graphics-object" aria-roledescription="group mark container"><g transform="translate(0,0)"><path class="background" aria-hidden="true" d="M0,0h300v220h-300Z"/><g><g class="mark-area role-mark concat_0_layer_1_marks" role="graphics-object" aria-roledescription="area mark container"><path aria-label="category: obese; year: Jan 01, 2006; least: 13; most: 21.4938088162" role="graphics-symbol" aria-roledescription="area mark" d="M0,124.74846346460299L23.062342038753158,120.6080888054526L46.124684077506316,122.50339760887141L69.25021061499578,119.96457669146281L92.31255265374895,118.71978132209873L115.37489469250211,119.64667388248152L138.43723673125527,124.66487127817875L161.56276326874476,124.04385901074639L184.6251053074979,126.53973606866462L207.68744734625108,122.75941627732567L230.74978938500422,126.39280284981754L253.87531592249368,122.80611539533334L276.9376579612468,124.39206430211807L300,117.99275947936545L300,20.341087467101147L276.9376579612468,22.581418464596936L253.87531592249368,23.949773092666675L230.74978938500422,27.82023096961241L207.68744734625108,31.79621141176628L184.6251053074979,38.466452962913806L161.56276326874476,39.1072826938134L138.43723673125527,42.608244749805536L115.37489469250211,41.667280992750605L92.31255265374895,46.356334228523L69.25021061499578,47.94807089370026L46.124684077506316,53.99707105064212L23.062342038753158,55.298731095191485L0,62.37873534753154Z" fill="url(#gradient_1)" opacity="0.3"/></g></g><path class="foreground" aria-hidden="true" d="" display="none"/></g></g><g class="mark-line role-mark concat_0_layer_2_marks" role="graphics-object" aria-roledescription="line mark container"><path aria-label="category: obese; year: Jan 01, 2006; least: 12.9888458912" role="graphics-symbol" aria-roledescription="line mark" d="M0,124.74846346460299L23.062342038753158,120.6080888054526L46.124684077506316,122.50339760887141L69.25021061499578,119.96457669146281L92.31255265374895,118.71978132209873L115.37489469250211,119.64667388248152L138.43723673125527,124.66487127817875L161.56276326874476,124.04385901074639L184.6251053074979,126.53973606866462L207.68744734625108,122.75941627732567L230.74978938500422,126.39280284981754L253.87531592249368,122.80611539533334L276.9376579612468,124.39206430211807L300,117.99275947936545" stroke="#36B7B4" stroke-width="2"/></g><g class="mark-line role-mark concat_0_layer_3_marks" role="graphics-object" aria-roledescription="line mark container"><path aria-label="category: obese; year: Jan 01, 2006; most: 21.4938088162" role="graphics-symbol" aria-roledescription="line mark" d="M0,62.37873534753154L23.062342038753158,55.29873109519148L46.124684077506316,53.99707105064213L69.25021061499578,47.94807089370026L92.31255265374895,46.356334228523L115.37489469250211,41.6672809927506L138.43723673125527,42.60824474980554L161.56276326874476,39.10728269381341L184.6251053074979,38.466452962913806L207.68744734625108,31.796211411766272L230.74978938500422,27.820230969612407L253.87531592249368,23.949773092666668L276.9376579612468,22.581418464596936L300,20.341087467101147" stroke="#F4134D" stroke-width="2"/></g><g class="mark-text role-mark concat_0_layer_4_marks" role="graphics-object" aria-roledescription="text mark container"><text aria-label="c: #36B7B4; t: Obese; x: Mar 15, 2013; y: 31.9" role="graphics-symbol" aria-roledescription="text mark" text-anchor="start" transform="translate(166.17523167649537,-5.933333333333312)" font-family="sans-serif" font-size="11px" font-weight="bold" fill="#36B7B4">Obese</text></g><g class="mark-text role-mark concat_0_layer_5_marks" role="graphics-object" aria-roledescription="text mark container"><text aria-label="c: #36B7B4; t: least dperived regions; x: Mar 15, 2010; y: 11.9" role="graphics-symbol" aria-roledescription="text mark" text-anchor="start" transform="translate(96.92502106149958,140.73333333333332)" font-family="sans-serif" font-size="10px" fill="#36B7B4">least dperived regions</text><text aria-label="c: #F4134D; t: most dperived regions; x: Mar 15, 2009; y: 26.9" role="graphics-symbol" aria-roledescription="text mark" text-anchor="start" transform="translate(73.86267902274642,30.733333333333345)" font-family="sans-serif" font-size="10px" fill="#F4134D">most dperived regions</text><text aria-label="c: #F4134D; t: +13.3 pp; x: Dec 31, 2016; y: 29.2" role="graphics-symbol" aria-roledescription="text mark" text-anchor="start" transform="translate(253.8121314237574,13.86666666666668)" font-family="sans-serif" font-size="10px" fill="#F4134D">+13.3 pp</text><text aria-label="c: #F4134D; t: +8.5 pp; x: Apr 01, 2006; y: 24.8" role="graphics-symbol" aria-roledescription="text mark" text-anchor="start" transform="translate(5.686604886267902,46.13333333333333)" font-family="sans-serif" font-size="10px" fill="#F4134D">+8.5 pp</text></g></g><path class="foreground" aria-hidden="true" d="" display="none"/></g></g><g class="mark-group role-scope concat_1_group" role="graphics-object" aria-roledescription="group mark container"><g transform="translate(324,0)"><path class="background" aria-hidden="true" d="M0,0h300v220h-300Z"/><g><g class="mark-group role-axis" aria-hidden="true"><g transform="translate(0.5,0.5)"><path class="background" aria-hidden="true" d="M0,0h0v0h0Z" pointer-events="none"/><g><g class="mark-rule role-axis-grid" pointer-events="none"><line transform="translate(0,220)" x2="300" y2="0" stroke="#ddd" stroke-width="1" opacity="1"/><line transform="translate(0,165)" x2="300" y2="0" stroke="#ddd" stroke-width="1" opacity="1"/><line transform="translate(0,110)" x2="300" y2="0" stroke="#ddd" stroke-width="1" opacity="1"/><line transform="translate(0,55)" x2="300" y2="0" stroke="#ddd" stroke-width="1" opacity="1"/><line transform="translate(0,0)" x2="300" y2="0" stroke="#ddd" stroke-width="1" opacity="1"/></g></g><path class="foreground" aria-hidden="true" d="" pointer-events="none" display="none"/></g></g><g class="mark-group role-axis" role="graphics-symbol" aria-roledescription="axis" aria-label="X-axis for a time scale with values from Sunday, 01 January 2006, 12:00:00 AM to Tuesday, 01 January 2019, 12:00:00 AM"><g transform="translate(0.5,220.5)"><path class="background" aria-hidden="true" d="M0,0h0v0h0Z" pointer-events="none"/><g><g class="mark-rule role-axis-tick" pointer-events="none"><line transform="translate(0,0)" x2="0" y2="5" stroke="#676A86" stroke-width="1" opacity="1"/><line transform="translate(23,0)" x2="0" y2="5" stroke="#676A86" stroke-width="1" opacity="1"/><line transform="translate(46,0)" x2="0" y2="5" stroke="#676A86" stroke-width="1" opacity="1"/><line transform="translate(69,0)" x2="0" y2="5" stroke="#676A86" stroke-width="1" opacity="1"/><line transform="translate(92,0)" x2="0" y2="5" stroke="#676A86" stroke-width="1" opacity="1"/><line transform="translate(115,0)" x2="0" y2="5" stroke="#676A86" stroke-width="1" opacity="1"/><line transform="translate(138,0)" x2="0" y2="5" stroke="#676A86" stroke-width="1" opacity="1"/><line transform="translate(162,0)" x2="0" y2="5" stroke="#676A86" stroke-width="1" opacity="1"/><line transform="translate(185,0)" x2="0" y2="5" stroke="#676A86" stroke-width="1" opacity="1"/><line transform="translate(208,0)" x2="0" y2="5" stroke="#676A86" stroke-width="1" opacity="1"/><line transform="translate(231,0)" x2="0" y2="5" stroke="#676A86" stroke-width="1" opacity="1"/><line transform="translate(254,0)" x2="0" y2="5" stroke="#676A86" stroke-width="1" opacity="1"/><line transform="translate(277,0)" x2="0" y2="5" stroke="#676A86" stroke-width="1" opacity="1"/><line transform="translate(300,0)" x2="0" y2="5" stroke="#676A86" stroke-width="1" opacity="1"/></g><g class="mark-text role-axis-label" pointer-events="none"><text text-anchor="start" transform="translate(0,15)" font-family="sans-serif" font-size="10px" fill="#676A86" opacity="1">2006</text><text text-anchor="middle" transform="translate(23.062342038753158,15)" font-family="sans-serif" font-size="10px" fill="#676A86" opacity="0">2007</text><text text-anchor="middle" transform="translate(46.124684077506316,15)" font-family="sans-serif" font-size="10px" fill="#676A86" opacity="1">2008</text><text text-anchor="middle" transform="translate(69.25021061499578,15)" font-family="sans-serif" font-size="10px" fill="#676A86" opacity="0">2009</text><text text-anchor="middle" transform="translate(92.31255265374895,15)" font-family="sans-serif" font-size="10px" fill="#676A86" opacity="1">2010</text><text text-anchor="middle" transform="translate(115.37489469250211,15)" font-family="sans-serif" font-size="10px" fill="#676A86" opacity="0">2011</text><text text-anchor="middle" transform="translate(138.43723673125527,15)" font-family="sans-serif" font-size="10px" fill="#676A86" opacity="1">2012</text><text text-anchor="middle" transform="translate(161.56276326874476,15)" font-family="sans-serif" font-size="10px" fill="#676A86" opacity="0">2013</text><text text-anchor="middle" transform="translate(184.6251053074979,15)" font-family="sans-serif" font-size="10px" fill="#676A86" opacity="1">2014</text><text text-anchor="middle" transform="translate(207.68744734625108,15)" font-family="sans-serif" font-size="10px" fill="#676A86" opacity="0">2015</text><text text-anchor="middle" transform="translate(230.74978938500422,15)" font-family="sans-serif" font-size="10px" fill="#676A86" opacity="1">2016</text><text text-anchor="middle" transform="translate(253.87531592249368,15)" font-family="sans-serif" font-size="10px" fill="#676A86" opacity="0">2017</text><text text-anchor="middle" transform="translate(276.9376579612468,15)" font-family="sans-serif" font-size="10px" fill="#676A86" opacity="1">2018</text><text text-anchor="end" transform="translate(300,15)" font-family="sans-serif" font-size="10px" fill="#676A86" opacity="0">2019</text></g><g class="mark-rule role-axis-domain" pointer-events="none"><line transform="translate(0,0)" x2="300" y2="0" stroke="#676A86" stroke-width="1" opacity="1"/></g></g><path class="foreground" aria-hidden="true" d="" pointer-events="none" display="none"/></g></g><g class="mark-group role-axis" role="graphics-symbol" aria-roledescription="axis" aria-label="Y-axis titled '% of children age 10-11 that are' for a linear scale with values from 0 to 8"><g transform="translate(0.5,0.5)"><path class="background" aria-hidden="true" d="M0,0h0v0h0Z" pointer-events="none"/><g><g class="mark-text role-axis-label" pointer-events="none"><text text-anchor="start" transform="translate(5,213)" font-family="sans-serif" font-size="10px" fill="#676A86" opacity="1">0</text><text text-anchor="start" transform="translate(5,158)" font-family="sans-serif" font-size="10px" fill="#676A86" opacity="1">2</text><text text-anchor="start" transform="translate(5,103)" font-family="sans-serif" font-size="10px" fill="#676A86" opacity="1">4</text><text text-anchor="start" transform="translate(5,48)" font-family="sans-serif" font-size="10px" fill="#676A86" opacity="1">6</text><text text-anchor="start" transform="translate(5,-7)" font-family="sans-serif" font-size="10px" fill="#676A86" opacity="1">8</text></g><g class="mark-rule role-axis-domain" pointer-events="none"><line transform="translate(0,220)" x2="0" y2="-220" stroke="#676A86" stroke-width="1" opacity="1"/></g><g class="mark-text role-axis-title" pointer-events="none"><text text-anchor="start" transform="translate(15,-7)" font-family="sans-serif" font-size="10px" font-weight="normal" fill="#676A86" opacity="1">% of children age 10-11 that are</text></g></g><path class="foreground" aria-hidden="true" d="" pointer-events="none" display="none"/></g></g><g class="mark-group role-scope concat_1_layer_0_pathgroup" role="graphics-object" aria-roledescription="group mark container"><g transform="translate(0,0)"><path class="background" aria-hidden="true" d="M0,0h300v220h-300Z"/><g><g class="mark-area role-mark concat_1_layer_0_marks" role="graphics-object" aria-roledescription="area mark container"><path aria-label="category: severely; year: Jan 01, 2006; least: 1.72547234236; most: 4.82813273898" role="graphics-symbol" aria-roledescription="area mark" d="M0,172.54951058502164L23.062342038753158,171.12333183691788L46.124684077506316,173.4182899686828L69.25021061499578,168.4059511158343L92.31255265374895,167.44959374059593L115.37489469250211,169.34777740454587L138.43723673125527,171.7834610821296L161.56276326874476,172.7690852194164L184.6251053074979,171.36034706853565L207.68744734625108,168.51185326181002L230.74978938500422,173.95139881560127L253.87531592249368,165.89864808825L276.9376579612468,165.61750446542482L300,163.24699899473708L300,17.179832170803508L276.9376579612468,22.50906273753145L253.87531592249368,26.49371650475001L230.74978938500422,39.15849607651191L207.68744734625108,44.51903330211783L184.6251053074979,57.46827834913853L161.56276326874476,55.1387801270339L138.43723673125527,67.57305826141722L115.37489469250211,61.56837449318104L92.31255265374895,68.42519685039363L69.25021061499578,66.50237351544985L46.124684077506316,72.87344104308399L23.062342038753158,76.20346958842529L0,87.22634967805853Z" fill="url(#gradient_2)" opacity="0.3"/></g></g><path class="foreground" aria-hidden="true" d="" display="none"/></g></g><g class="mark-group role-scope concat_1_layer_1_pathgroup" role="graphics-object" aria-roledescription="group mark container"><g transform="translate(0,0)"><path class="background" aria-hidden="true" d="M0,0h300v220h-300Z"/><g><g class="mark-area role-mark concat_1_layer_1_marks" role="graphics-object" aria-roledescription="area mark container"><path aria-label="category: severely; year: Jan 01, 2006; least: 2; most: 4.82813273898" role="graphics-symbol" aria-roledescription="area mark" d="M0,172.54951058502164L23.062342038753158,171.12333183691788L46.124684077506316,173.4182899686828L69.25021061499578,168.4059511158343L92.31255265374895,167.44959374059593L115.37489469250211,169.34777740454587L138.43723673125527,171.7834610821296L161.56276326874476,172.7690852194164L184.6251053074979,171.36034706853565L207.68744734625108,168.51185326181002L230.74978938500422,173.95139881560127L253.87531592249368,165.89864808825L276.9376579612468,165.61750446542482L300,163.24699899473708L300,17.179832170803508L276.9376579612468,22.50906273753145L253.87531592249368,26.49371650475001L230.74978938500422,39.15849607651191L207.68744734625108,44.51903330211783L184.6251053074979,57.46827834913853L161.56276326874476,55.1387801270339L138.43723673125527,67.57305826141722L115.37489469250211,61.56837449318104L92.31255265374895,68.42519685039363L69.25021061499578,66.50237351544985L46.124684077506316,72.87344104308399L23.062342038753158,76.20346958842529L0,87.22634967805853Z" fill="url(#gradient_3)" opacity="0.3"/></g></g><path class="foreground" aria-hidden="true" d="" display="none"/></g></g><g class="mark-line role-mark concat_1_layer_2_marks" role="graphics-object" aria-roledescription="line mark container"><path aria-label="category: severely; year: Jan 01, 2006; least: 1.72547234236" role="graphics-symbol" aria-roledescription="line mark" d="M0,172.54951058502164L23.062342038753158,171.12333183691788L46.124684077506316,173.4182899686828L69.25021061499578,168.4059511158343L92.31255265374895,167.44959374059593L115.37489469250211,169.34777740454587L138.43723673125527,171.7834610821296L161.56276326874476,172.7690852194164L184.6251053074979,171.36034706853565L207.68744734625108,168.51185326181002L230.74978938500422,173.95139881560127L253.87531592249368,165.89864808825L276.9376579612468,165.61750446542482L300,163.24699899473708" stroke="#243B5A" stroke-width="2"/></g><g class="mark-line role-mark concat_1_layer_3_marks" role="graphics-object" aria-roledescription="line mark container"><path aria-label="category: severely; year: Jan 01, 2006; most: 4.82813273898" role="graphics-symbol" aria-roledescription="line mark" d="M0,87.22634967805853L23.062342038753158,76.20346958842529L46.124684077506316,72.87344104308399L69.25021061499578,66.50237351544985L92.31255265374895,68.42519685039363L115.37489469250211,61.56837449318105L138.43723673125527,67.57305826141722L161.56276326874476,55.1387801270339L184.6251053074979,57.46827834913853L207.68744734625108,44.51903330211783L230.74978938500422,39.1584960765119L253.87531592249368,26.49371650475001L276.9376579612468,22.509062737531437L300,17.179832170803508" stroke="#F4134D" stroke-width="2"/></g><g class="mark-text role-mark concat_1_layer_4_marks" role="graphics-object" aria-roledescription="text mark container"><text aria-label="c: #243B5A; t: Severely obese; x: Jan 01, 2013; y: 8.51" role="graphics-symbol" aria-roledescription="text mark" text-anchor="start" transform="translate(161.56276326874476,-6.024999999999995)" font-family="sans-serif" font-size="11px" font-weight="bold" fill="#243B5A">Severely obese</text></g><g class="mark-text role-mark concat_1_layer_5_marks" role="graphics-object" aria-roledescription="text mark container"><text aria-label="c: #243B5A; t: least deprived regions; x: Mar 15, 2010; y: 1.4" role="graphics-symbol" aria-roledescription="text mark" text-anchor="start" transform="translate(96.92502106149958,189.5)" font-family="sans-serif" font-size="10px" fill="#243B5A">least deprived regions</text><text aria-label="c: #F4134D; t: most deprived regions; x: Nov 15, 2009; y: 6.7" role="graphics-symbol" aria-roledescription="text mark" text-anchor="start" transform="translate(89.34288121314238,43.74999999999999)" font-family="sans-serif" font-size="10px" fill="#F4134D">most deprived regions</text><text aria-label="c: #F4134D; t: +5.3 pp; x: Dec 31, 2016; y: 7.8" role="graphics-symbol" aria-roledescription="text mark" text-anchor="start" transform="translate(253.8121314237574,13.500000000000005)" font-family="sans-serif" font-size="10px" fill="#F4134D">+5.3 pp</text><text aria-label="c: #F4134D; t: +3.1 pp; x: Mar 01, 2006; y: 5.8" role="graphics-symbol" aria-roledescription="text mark" text-anchor="start" transform="translate(3.7278854254422917,68.5)" font-family="sans-serif" font-size="10px" fill="#F4134D">+3.1 pp</text></g></g><path class="foreground" aria-hidden="true" d="" display="none"/></g></g></g><path class="foreground" aria-hidden="true" d="" display="none"/></g></g></g><defs><linearGradient id="gradient_0" x1="0.8" x2="1" y1="1" y2="0"><stop offset="0" stop-color="white"/><stop offset="0.9" stop-color="#F4134D"/></linearGradient><linearGradient id="gradient_1" x1="1" x2="1" y1="1" y2="0"><stop offset="0.5" stop-color="white"/><stop offset="0" stop-color="#36B7B4"/></linearGradient><linearGradient id="gradient_2" x1="0.8" x2="1" y1="1" y2="0"><stop offset="0" stop-color="white"/><stop offset="0.9" stop-color="#F4134D"/></linearGradient><linearGradient id="gradient_3" x1="1" x2="1" y1="1" y2="0"><stop offset="0.5" stop-color="white"/><stop offset="0" stop-color="#243B5A"/></linearGradient></defs></svg>