<svg xmlns="http://www.w3.org/2000/svg" xmlns:xlink="http://www.w3.org/1999/xlink" version="1.1" class="marks" width="412" height="327" viewBox="0 0 412 327"><rect width="412" height="327" fill="white"/><g fill="none" stroke-miterlimit="10" transform="translate(6,5)"><g class="mark-group role-frame root" role="graphics-object" aria-roledescription="group mark container"><g transform="translate(0,0)"><path class="background" aria-hidden="true" d="M0,0h400v300h-400Z"/><g><g class="mark-group role-axis" aria-hidden="true"><g transform="translate(0.5,0.5)"><path class="background" aria-hidden="true" d="M0,0h0v0h0Z" pointer-events="none"/><g><g class="mark-rule role-axis-grid" pointer-events="none"><line transform="translate(0,300)" x2="400" y2="0" stroke="#ddd" stroke-width="1" opacity="1"/><line transform="translate(0,217)" x2="400" y2="0" stroke="#ddd" stroke-width="1" opacity="1"/><line transform="translate(0,133)" x2="400" y2="0" stroke="#ddd" stroke-width="1" opacity="1"/><line transform="translate(0,50)" x2="400" y2="0" stroke="#ddd" stroke-width="1" opacity="1"/></g></g><path class="foreground" aria-hidden="true" d="" pointer-events="none" display="none"/></g></g><g class="mark-group role-axis" role="graphics-symbol" aria-roledescription="axis" aria-label="X-axis for a time scale with values from Saturday, 01 January 2011, 12:00:00 AM to Monday, 01 January 2018, 12:00:00 AM"><g transform="translate(0.5,300.5)"><path class="background" aria-hidden="true" d="M0,0h0v0h0Z" pointer-events="none"/><g><g class="mark-rule role-axis-tick" pointer-events="none"><line transform="translate(0,0)" x2="0" y2="5" stroke="#676A86" stroke-width="1" opacity="1"/><line transform="translate(57,0)" x2="0" y2="5" stroke="#676A86" stroke-width="1" opacity="1"/><line transform="translate(114,0)" x2="0" y2="5" stroke="#676A86" stroke-width="1" opacity="1"/><line transform="translate(171,0)" x2="0" y2="5" stroke="#676A86" stroke-width="1" opacity="1"/><line transform="translate(229,0)" x2="0" y2="5" stroke="#676A86" stroke-width="1" opacity="1"/><line transform="translate(286,0)" x2="0" y2="5" stroke="#676A86" stroke-width="1" opacity="1"/><line transform="translate(343,0)" x2="0" y2="5" stroke="#676A86" stroke-width="1" opacity="1"/><line transform="translate(400,0)" x2="0" y2="5" stroke="#676A86" stroke-width="1" opacity="1"/></g><g class="mark-text role-axis-label" pointer-events="none"><text text-anchor="start" transform="translate(0,15)" font-family="sans-serif" font-size="10px" fill="#676A86" opacity="1">2011</text><text text-anchor="middle" transform="translate(57.09816190848651,15)" font-family="sans-serif" font-size="10px" fill="#676A86" opacity="1">2012</text><text text-anchor="middle" transform="translate(114.35275713727025,15)" font-family="sans-serif" font-size="10px" fill="#676A86" opacity="1">2013</text><text text-anchor="middle" transform="translate(171.45091904575676,15)" font-family="sans-serif" font-size="10px" fill="#676A86" opacity="1">2014</text><text text-anchor="middle" transform="translate(228.54908095424324,15)" font-family="sans-serif" font-size="10px" fill="#676A86" opacity="1">2015</text><text text-anchor="middle" transform="translate(285.6472428627298,15)" font-family="sans-serif" font-size="10px" fill="#676A86" opacity="1">2016</text><text text-anchor="middle" transform="translate(342.9018380915135,15)" font-family="sans-serif" font-size="10px" fill="#676A86" opacity="1">2017</text><text text-anchor="end" transform="translate(400,15)" font-family="sans-serif" font-size="10px" fill="#676A86" opacity="1">2018</text></g><g class="mark-rule role-axis-domain" pointer-events="none"><line transform="translate(0,0)" x2="400" y2="0" stroke="#676A86" stroke-width="1" opacity="1"/></g></g><path class="foreground" aria-hidden="true" d="" pointer-events="none" display="none"/></g></g><g class="mark-group role-axis" role="graphics-symbol" aria-roledescription="axis" aria-label="Y-axis titled 'persons / 100,000 population' for a linear scale with values from 0 to 1800"><g transform="translate(0.5,0.5)"><path class="background" aria-hidden="true" d="M0,0h0v0h0Z" pointer-events="none"/><g><g class="mark-text role-axis-label" pointer-events="none"><text text-anchor="start" transform="translate(5,293)" font-family="sans-serif" font-size="10px" fill="#676A86" opacity="1">0</text><text text-anchor="start" transform="translate(5,209.66666666666666)" font-family="sans-serif" font-size="10px" fill="#676A86" opacity="1">500</text><text text-anchor="start" transform="translate(5,126.33333333333331)" font-family="sans-serif" font-size="10px" fill="#676A86" opacity="1">1000</text><text text-anchor="start" transform="translate(5,42.999999999999986)" font-family="sans-serif" font-size="10px" fill="#676A86" opacity="1">1500</text></g><g class="mark-rule role-axis-domain" pointer-events="none"><line transform="translate(0,300)" x2="0" y2="-300" stroke="#676A86" stroke-width="1" opacity="1"/></g><g class="mark-text role-axis-title" pointer-events="none"><text text-anchor="start" transform="translate(30,43)" font-family="sans-serif" font-size="10px" font-weight="normal" fill="#676A86" opacity="1">persons / 100,000 population</text></g></g><path class="foreground" aria-hidden="true" d="" pointer-events="none" display="none"/></g></g><g class="mark-area role-mark marks" role="graphics-object" aria-roledescription="area mark container"><path aria-label="year: Jan 01, 2011; value: 530" role="graphics-symbol" aria-roledescription="area mark" d="M0,211.60000000000002C19.03272063616217,210.5527777777778,38.065441272324335,209.5055555555556,57.09816190848651,205.3166666666667C76.18302698474776,201.11630136986304,95.26789206100901,189.42682572402435,114.35275713727025,181.70000000000002C133.38547777343243,173.99428582166973,152.4181984095946,166.95277777777775,171.45091904575676,159.01666666666665C190.48363968191893,151.08055555555555,209.51636031808107,142.76944444444445,228.54908095424324,134.08333333333334C247.58180159040543,125.39722222222224,266.6145222265676,115.97917986273598,285.6472428627298,106.90000000000002C304.732107938991,97.79594567188671,323.8169730152523,92.23824293570038,342.9018380915135,79.53333333333336C361.93455872767566,66.86313659873237,380.96727936383786,48.84823496603285,400,30.833333333333325L400,300C380.96727936383786,300,361.93455872767566,300,342.9018380915135,300C323.8169730152523,300,304.732107938991,300,285.6472428627298,300C266.6145222265676,300,247.58180159040543,300,228.54908095424324,300C209.51636031808107,300,190.48363968191893,300,171.45091904575676,300C152.4181984095946,300,133.38547777343243,300,114.35275713727025,300C95.26789206100901,300,76.18302698474776,300,57.09816190848651,300C38.065441272324335,300,19.03272063616217,300,0,300Z" fill="url(#gradient_0)" fill-opacity="0.8" stroke="#676A86" stroke-width="0.5"/></g></g><path class="foreground" aria-hidden="true" d="" display="none"/></g></g></g><defs><linearGradient id="gradient_0" x1="0.8" x2="1" y1="1" y2="0"><stop offset="0" stop-color="white"/><stop offset="0.9" stop-color="#F4134D"/></linearGradient></defs></svg>