<svg xmlns="http://www.w3.org/2000/svg" xmlns:xlink="http://www.w3.org/1999/xlink" version="1.1" class="marks" width="565" height="396" viewBox="0 0 565 396"><rect width="565" height="396" fill="white"/><g fill="none" stroke-miterlimit="10" transform="translate(30,51)"><g class="mark-group role-frame root" role="graphics-object" aria-roledescription="group mark container"><g transform="translate(0,0)"><path class="background" aria-hidden="true" d="M0,0h400v300h-400Z"/><g><g class="mark-group role-axis" aria-hidden="true"><g transform="translate(0.5,300.5)"><path class="background" aria-hidden="true" d="M0,0h0v0h0Z" pointer-events="none"/><g><g class="mark-rule role-axis-grid" pointer-events="none"><line transform="translate(0,-300)" x2="0" y2="300" stroke="#676A86" stroke-opacity="0.5" stroke-width="1" stroke-dasharray="1,5" opacity="1"/><line transform="translate(57,-300)" x2="0" y2="300" stroke="#676A86" stroke-opacity="0.5" stroke-width="1" stroke-dasharray="1,5" opacity="1"/><line transform="translate(114,-300)" x2="0" y2="300" stroke="#676A86" stroke-opacity="0.5" stroke-width="1" stroke-dasharray="1,5" opacity="1"/><line transform="translate(171,-300)" x2="0" y2="300" stroke="#676A86" stroke-opacity="0.5" stroke-width="1" stroke-dasharray="1,5" opacity="1"/><line transform="translate(229,-300)" x2="0" y2="300" stroke="#676A86" stroke-opacity="0.5" stroke-width="1" stroke-dasharray="1,5" opacity="1"/><line transform="translate(286,-300)" x2="0" y2="300" stroke="#676A86" stroke-opacity="0.5" stroke-width="1" stroke-dasharray="1,5" opacity="1"/><line transform="translate(343,-300)" x2="0" y2="300" stroke="#676A86" stroke-opacity="0.5" stroke-width="1" stroke-dasharray="1,5" opacity="1"/><line transform="translate(400,-300)" x2="0" y2="300" stroke="#676A86" stroke-opacity="0.5" stroke-width="1" stroke-dasharray="1,5" opacity="1"/></g></g><path class="foreground" aria-hidden="true" d="" pointer-events="none" display="none"/></g></g><g class="mark-group role-axis" aria-hidden="true"><g transform="translate(0.5,0.5)"><path class="background" aria-hidden="true" d="M0,0h0v0h0Z" pointer-events="none"/><g><g class="mark-rule role-axis-grid" pointer-events="none"><line transform="translate(0,300)" x2="400" y2="0" stroke="#676A86" stroke-opacity="0.5" stroke-width="1" stroke-dasharray="1,5" opacity="1"/><line transform="translate(0,289)" x2="400" y2="0" stroke="#676A86" stroke-opacity="0.5" stroke-width="1" stroke-dasharray="1,5" opacity="1"/><line transform="translate(0,280)" x2="400" y2="0" stroke="#676A86" stroke-opacity="0.5" stroke-width="1" stroke-dasharray="1,5" opacity="1"/><line transform="translate(0,273)" x2="400" y2="0" stroke="#676A86" stroke-opacity="0.5" stroke-width="1" stroke-dasharray="1,5" opacity="1"/><line transform="translate(0,267)" x2="400" y2="0" stroke="#676A86" stroke-opacity="0.5" stroke-width="1" stroke-dasharray="1,5" opacity="1"/><line transform="translate(0,261)" x2="400" y2="0" stroke="#676A86" stroke-opacity="0.5" stroke-width="1" stroke-dasharray="1,5" opacity="1"/><line transform="translate(0,256)" x2="400" y2="0" stroke="#676A86" stroke-opacity="0.5" stroke-width="1" stroke-dasharray="1,5" opacity="1"/><line transform="translate(0,222)" x2="400" y2="0" stroke="#676A86" stroke-opacity="0.5" stroke-width="1" stroke-dasharray="1,5" opacity="1"/><line transform="translate(0,203)" x2="400" y2="0" stroke="#676A86" stroke-opacity="0.5" stroke-width="1" stroke-dasharray="1,5" opacity="1"/><line transform="translate(0,189)" x2="400" y2="0" stroke="#676A86" stroke-opacity="0.5" stroke-width="1" stroke-dasharray="1,5" opacity="1"/><line transform="translate(0,178)" x2="400" y2="0" stroke="#676A86" stroke-opacity="0.5" stroke-width="1" stroke-dasharray="1,5" opacity="1"/><line transform="translate(0,169)" x2="400" y2="0" stroke="#676A86" stroke-opacity="0.5" stroke-width="1" stroke-dasharray="1,5" opacity="1"/><line transform="translate(0,162)" x2="400" y2="0" stroke="#676A86" stroke-opacity="0.5" stroke-width="1" stroke-dasharray="1,5" opacity="1"/><line transform="translate(0,155)" x2="400" y2="0" stroke="#676A86" stroke-opacity="0.5" stroke-width="1" stroke-dasharray="1,5" opacity="1"/><line transform="translate(0,150)" x2="400" y2="0" stroke="#676A86" stroke-opacity="0.5" stroke-width="1" stroke-dasharray="1,5" opacity="1"/><line transform="translate(0,145)" x2="400" y2="0" stroke="#676A86" stroke-opacity="0.5" stroke-width="1" stroke-dasharray="1,5" opacity="1"/><line transform="translate(0,111)" x2="400" y2="0" stroke="#676A86" stroke-opacity="0.5" stroke-width="1" stroke-dasharray="1,5" opacity="1"/><line transform="translate(0,92)" x2="400" y2="0" stroke="#676A86" stroke-opacity="0.5" stroke-width="1" stroke-dasharray="1,5" opacity="1"/><line transform="translate(0,78)" x2="400" y2="0" stroke="#676A86" stroke-opacity="0.5" stroke-width="1" stroke-dasharray="1,5" opacity="1"/><line transform="translate(0,67)" x2="400" y2="0" stroke="#676A86" stroke-opacity="0.5" stroke-width="1" stroke-dasharray="1,5" opacity="1"/><line transform="translate(0,58)" x2="400" y2="0" stroke="#676A86" stroke-opacity="0.5" stroke-width="1" stroke-dasharray="1,5" opacity="1"/><line transform="translate(0,51)" x2="400" y2="0" stroke="#676A86" stroke-opacity="0.5" stroke-width="1" stroke-dasharray="1,5" opacity="1"/><line transform="translate(0,44)" x2="400" y2="0" stroke="#676A86" stroke-opacity="0.5" stroke-width="1" stroke-dasharray="1,5" opacity="1"/><line transform="translate(0,39)" x2="400" y2="0" stroke="#676A86" stroke-opacity="0.5" stroke-width="1" stroke-dasharray="1,5" opacity="1"/><line transform="translate(0,33)" x2="400" y2="0" stroke="#676A86" stroke-opacity="0.5" stroke-width="1" stroke-dasharray="1,5" opacity="1"/><line transform="translate(0,0)" x2="400" y2="0" stroke="#676A86" stroke-opacity="0.5" stroke-width="1" stroke-dasharray="1,5" opacity="1"/></g></g><path class="foreground" aria-hidden="true" d="" pointer-events="none" display="none"/></g></g><g class="mark-group role-axis" role="graphics-symbol" aria-roledescription="axis" aria-label="X-axis titled '(projection)' for a linear scale with values from 1700 to 2050"><g transform="translate(0.5,300.5)"><path class="background" aria-hidden="true" d="M0,0h0v0h0Z" pointer-events="none"/><g><g class="mark-rule role-axis-tick" pointer-events="none"><line transform="translate(0,0)" x2="0" y2="5" stroke="#676A86" stroke-opacity="0.5" stroke-width="1" opacity="1"/><line transform="translate(57,0)" x2="0" y2="5" stroke="#676A86" stroke-opacity="0.5" stroke-width="1" opacity="1"/><line transform="translate(114,0)" x2="0" y2="5" stroke="#676A86" stroke-opacity="0.5" stroke-width="1" opacity="1"/><line transform="translate(171,0)" x2="0" y2="5" stroke="#676A86" stroke-opacity="0.5" stroke-width="1" opacity="1"/><line transform="translate(229,0)" x2="0" y2="5" stroke="#676A86" stroke-opacity="0.5" stroke-width="1" opacity="1"/><line transform="translate(286,0)" x2="0" y2="5" stroke="#676A86" stroke-opacity="0.5" stroke-width="1" opacity="1"/><line transform="translate(343,0)" x2="0" y2="5" stroke="#676A86" stroke-opacity="0.5" stroke-width="1" opacity="1"/><line transform="translate(400,0)" x2="0" y2="5" stroke="#676A86" stroke-opacity="0.5" stroke-width="1" opacity="1"/></g><g class="mark-text role-axis-label" pointer-events="none"><text text-anchor="start" transform="translate(0,15)" font-family="Circular Std Book" font-size="10px" fill="#676A86" fill-opacity="0.7" opacity="1">1700</text><text text-anchor="middle" transform="translate(57.14285714285714,15)" font-family="Circular Std Book" font-size="10px" fill="#676A86" fill-opacity="0.7" opacity="1">1750</text><text text-anchor="middle" transform="translate(114.28571428571428,15)" font-family="Circular Std Book" font-size="10px" fill="#676A86" fill-opacity="0.7" opacity="1">1800</text><text text-anchor="middle" transform="translate(171.42857142857142,15)" font-family="Circular Std Book" font-size="10px" fill="#676A86" fill-opacity="0.7" opacity="1">1850</text><text text-anchor="middle" transform="translate(228.57142857142856,15)" font-family="Circular Std Book" font-size="10px" fill="#676A86" fill-opacity="0.7" opacity="1">1900</text><text text-anchor="middle" transform="translate(285.7142857142857,15)" font-family="Circular Std Book" font-size="10px" fill="#676A86" fill-opacity="0.7" opacity="1">1950</text><text text-anchor="middle" transform="translate(342.85714285714283,15)" font-family="Circular Std Book" font-size="10px" fill="#676A86" fill-opacity="0.7" opacity="1">2000</text><text text-anchor="end" transform="translate(400,15)" font-family="Circular Std Book" font-size="10px" fill="#676A86" fill-opacity="0.7" opacity="1">2050</text></g><g class="mark-rule role-axis-domain" pointer-events="none"><line transform="translate(0,0)" x2="400" y2="0" stroke="#676A86" stroke-opacity="0.5" stroke-width="1" opacity="1"/></g><g class="mark-text role-axis-title" pointer-events="none"><text text-anchor="start" transform="translate(405,14)" font-family="Circular Std Book" font-size="10px" font-weight="normal" fill="#676A86" fill-opacity="0.8" opacity="1">(projection)</text></g></g><path class="foreground" aria-hidden="true" d="" pointer-events="none" display="none"/></g></g><g class="mark-group role-axis" role="graphics-symbol" aria-roledescription="axis" aria-label="Y-axis titled 'GDP per capita, adjusted for PPP, in constant 2017 international USD (log scale)' for a log scale with values from 400 to 200k"><g transform="translate(0.5,0.5)"><path class="background" aria-hidden="true" d="M0,0h0v0h0Z" pointer-events="none"/><g><g class="mark-text role-axis-label" pointer-events="none"><text text-anchor="end" transform="translate(-5,303)" font-family="Circular Std Book" font-size="10px" fill="#676A86" fill-opacity="0.7" opacity="1"/><text text-anchor="end" transform="translate(-5,292.2281115182052)" font-family="Circular Std Book" font-size="10px" fill="#676A86" fill-opacity="0.7" opacity="1"/><text text-anchor="end" transform="translate(-5,283.42683778188166)" font-family="Circular Std Book" font-size="10px" fill="#676A86" fill-opacity="0.7" opacity="1"/><text text-anchor="end" transform="translate(-5,275.9854668674521)" font-family="Circular Std Book" font-size="10px" fill="#676A86" fill-opacity="0.7" opacity="1"/><text text-anchor="end" transform="translate(-5,269.539458180673)" font-family="Circular Std Book" font-size="10px" fill="#676A86" fill-opacity="0.7" opacity="1"/><text text-anchor="end" transform="translate(-5,263.8536755637634)" font-family="Circular Std Book" font-size="10px" fill="#676A86" fill-opacity="0.7" opacity="1"/><text text-anchor="end" transform="translate(-5,258.7675696988782)" font-family="Circular Std Book" font-size="10px" fill="#676A86" fill-opacity="0.7" opacity="1">1k</text><text text-anchor="end" transform="translate(-5,225.30702787955127)" font-family="Circular Std Book" font-size="10px" fill="#676A86" fill-opacity="0.7" opacity="1">2k</text><text text-anchor="end" transform="translate(-5,205.73386566143301)" font-family="Circular Std Book" font-size="10px" fill="#676A86" fill-opacity="0.7" opacity="1">3k</text><text text-anchor="end" transform="translate(-5,191.84648606022435)" font-family="Circular Std Book" font-size="10px" fill="#676A86" fill-opacity="0.7" opacity="1"/><text text-anchor="end" transform="translate(-5,181.07459757842946)" font-family="Circular Std Book" font-size="10px" fill="#676A86" fill-opacity="0.7" opacity="1"/><text text-anchor="end" transform="translate(-5,172.2733238421061)" font-family="Circular Std Book" font-size="10px" fill="#676A86" fill-opacity="0.7" opacity="1"/><text text-anchor="end" transform="translate(-5,164.83195292767647)" font-family="Circular Std Book" font-size="10px" fill="#676A86" fill-opacity="0.7" opacity="1"/><text text-anchor="end" transform="translate(-5,158.3859442408974)" font-family="Circular Std Book" font-size="10px" fill="#676A86" fill-opacity="0.7" opacity="1"/><text text-anchor="end" transform="translate(-5,152.70016162398773)" font-family="Circular Std Book" font-size="10px" fill="#676A86" fill-opacity="0.7" opacity="1"/><text text-anchor="end" transform="translate(-5,147.61405575910254)" font-family="Circular Std Book" font-size="10px" fill="#676A86" fill-opacity="0.7" opacity="1">10k</text><text text-anchor="end" transform="translate(-5,114.15351393977568)" font-family="Circular Std Book" font-size="10px" fill="#676A86" fill-opacity="0.7" opacity="1">20k</text><text text-anchor="end" transform="translate(-5,94.58035172165734)" font-family="Circular Std Book" font-size="10px" fill="#676A86" fill-opacity="0.7" opacity="1">30k</text><text text-anchor="end" transform="translate(-5,80.69297212044876)" font-family="Circular Std Book" font-size="10px" fill="#676A86" fill-opacity="0.7" opacity="1"/><text text-anchor="end" transform="translate(-5,69.92108363865387)" font-family="Circular Std Book" font-size="10px" fill="#676A86" fill-opacity="0.7" opacity="1"/><text text-anchor="end" transform="translate(-5,61.11980990233039)" font-family="Circular Std Book" font-size="10px" fill="#676A86" fill-opacity="0.7" opacity="1"/><text text-anchor="end" transform="translate(-5,53.67843898790086)" font-family="Circular Std Book" font-size="10px" fill="#676A86" fill-opacity="0.7" opacity="1"/><text text-anchor="end" transform="translate(-5,47.23243030112181)" font-family="Circular Std Book" font-size="10px" fill="#676A86" fill-opacity="0.7" opacity="1"/><text text-anchor="end" transform="translate(-5,41.54664768421212)" font-family="Circular Std Book" font-size="10px" fill="#676A86" fill-opacity="0.7" opacity="1"/><text text-anchor="end" transform="translate(-5,36.46054181932695)" font-family="Circular Std Book" font-size="10px" fill="#676A86" fill-opacity="0.7" opacity="1">100k</text><text text-anchor="end" transform="translate(-5,3)" font-family="Circular Std Book" font-size="10px" fill="#676A86" fill-opacity="0.7" opacity="1">200k</text></g><g class="mark-rule role-axis-domain" pointer-events="none"><line transform="translate(0,300)" x2="0" y2="-300" stroke="#676A86" stroke-opacity="0.5" stroke-width="1" opacity="1"/></g><g class="mark-text role-axis-title" pointer-events="none"><text text-anchor="start" transform="translate(0,-10)" font-family="Circular Std Book" font-size="12px" font-weight="normal" fill="#676A86" fill-opacity="0.8" opacity="1">GDP per capita, adjusted for PPP, in constant 2017 international USD (log scale)</text></g></g><path class="foreground" aria-hidden="true" d="" pointer-events="none" display="none"/></g></g><g class="mark-group role-scope layer_0_pathgroup" role="graphics-object" aria-roledescription="group mark container"><g transform="translate(0,0)"><path class="background" aria-hidden="true" d="M0,0h400v300h-400Z"/><g><g class="mark-line role-mark layer_0_marks" clip-path="url(#clip143)" role="graphics-object" aria-roledescription="line mark container"><path aria-label="year: 1700; value: 1.20827k; key: China" role="graphics-symbol" aria-roledescription="line mark" d="M0,246.635C19.048,246.99,38.095,247.346,57.143,248.271C76.19,249.197,95.238,250.913,114.286,252.187C133.333,253.46,152.381,255.913,171.429,255.913C190.476,255.913,209.524,249.868,228.571,249.868C247.619,249.868,266.667,259.323,285.714,259.323C304.762,259.323,323.81,238.202,342.857,195.959C351.619,176.528,360.381,132.754,369.143,112.781C379.429,89.335,389.714,81.916,400,74.497" stroke="#36B7B4" stroke-width="2" opacity="0.8"/></g></g><path class="foreground" aria-hidden="true" d="" display="none"/></g><g transform="translate(0,0)"><path class="background" aria-hidden="true" d="M0,0h400v300h-400Z"/><g><g class="mark-line role-mark layer_0_marks" clip-path="url(#clip144)" role="graphics-object" aria-roledescription="line mark container"><path aria-label="year: 1700; value: 748.979; key: Egypt" role="graphics-symbol" aria-roledescription="line mark" d="M0,269.721C19.048,269.724,38.095,269.727,57.143,269.727C76.19,269.727,95.238,254.367,114.286,250.297C133.333,246.227,152.381,247.814,171.429,244.191C190.476,240.569,209.524,228.56,228.571,228.56C247.619,228.56,266.667,230.523,285.714,230.523C304.762,230.523,323.81,177.034,342.857,156.95C351.619,147.711,360.381,140.925,369.143,132.053C379.429,121.638,389.714,110.038,400,98.438" stroke="#F4134D" stroke-width="2" opacity="0.8"/></g></g><path class="foreground" aria-hidden="true" d="" display="none"/></g><g transform="translate(0,0)"><path class="background" aria-hidden="true" d="M0,0h400v300h-400Z"/><g><g class="mark-line role-mark layer_0_marks" clip-path="url(#clip145)" role="graphics-object" aria-roledescription="line mark container"><path aria-label="year: 1700; value: 1.41820k; key: Germany" role="graphics-symbol" aria-roledescription="line mark" d="M0,238.901C19.048,237.827,38.095,236.753,57.143,234.716C76.19,232.678,95.238,230.994,114.286,226.674C133.333,222.354,152.381,217.707,171.429,208.795C190.476,199.883,209.524,181.246,228.571,173.202C247.619,165.159,266.667,168.979,285.714,160.532C304.762,152.086,323.81,89.414,342.857,74.283C351.619,67.322,360.381,67.449,369.143,62.047C379.429,55.706,389.714,46.629,400,37.553" stroke="#0063AF" stroke-width="2" opacity="0.8"/></g></g><path class="foreground" aria-hidden="true" d="" display="none"/></g><g transform="translate(0,0)"><path class="background" aria-hidden="true" d="M0,0h400v300h-400Z"/><g><g class="mark-line role-mark layer_0_marks" clip-path="url(#clip146)" role="graphics-object" aria-roledescription="line mark container"><path aria-label="year: 1700; value: 577.720; key: India" role="graphics-symbol" aria-roledescription="line mark" d="M0,282.254C19.048,282.567,38.095,282.881,57.143,282.881C76.19,282.881,95.238,246.886,114.286,246.886C133.333,246.886,152.381,251.123,171.429,251.123C190.476,251.123,209.524,250.992,228.571,250.73C247.619,250.468,266.667,250.202,285.714,249.147C304.762,248.092,323.81,236.109,342.857,210.033C351.619,198.038,360.381,172.401,369.143,157.754C379.429,140.56,389.714,129.112,400,117.663" stroke="#F4C245" stroke-width="2" opacity="0.8"/></g></g><path class="foreground" aria-hidden="true" d="" display="none"/></g><g transform="translate(0,0)"><path class="background" aria-hidden="true" d="M0,0h400v300h-400Z"/><g><g class="mark-line role-mark layer_0_marks" clip-path="url(#clip147)" role="graphics-object" aria-roledescription="line mark container"><path aria-label="year: 1700; value: 923.247; key: Japan" role="graphics-symbol" aria-roledescription="line mark" d="M0,259.623C19.048,259.086,38.095,258.549,57.143,256.401C76.19,254.254,95.238,237.984,114.286,235.207C133.333,232.429,152.381,233.818,171.429,231.041C190.476,228.263,209.524,218.25,228.571,212.157C247.619,206.064,266.667,206.267,285.714,194.486C304.762,182.705,323.81,94.598,342.857,82.348C351.619,76.713,360.381,78.495,369.143,73.895C379.429,68.496,389.714,59.413,400,50.329" stroke="#36B7B4" stroke-width="2" opacity="0.8"/></g></g><path class="foreground" aria-hidden="true" d="" display="none"/></g><g transform="translate(0,0)"><path class="background" aria-hidden="true" d="M0,0h400v300h-400Z"/><g><g class="mark-line role-mark layer_0_marks" clip-path="url(#clip148)" role="graphics-object" aria-roledescription="line mark container"><path aria-label="year: 1800; value: 963.000; key: Nigeria" role="graphics-symbol" aria-roledescription="line mark" d="M114.286,257.588C133.333,256.156,152.381,254.725,171.429,253.597C190.476,252.468,209.524,252.67,228.571,250.817C247.619,248.964,266.667,246.222,285.714,239.698C304.762,233.173,323.81,230.355,342.857,211.67C351.619,203.076,360.381,186.594,369.143,177.68C379.429,167.217,389.714,161.749,400,156.281" stroke="#F4134D" stroke-width="2" opacity="0.8"/></g></g><path class="foreground" aria-hidden="true" d="" display="none"/></g><g transform="translate(0,0)"><path class="background" aria-hidden="true" d="M0,0h400v300h-400Z"/><g><g class="mark-line role-mark layer_0_marks" clip-path="url(#clip149)" role="graphics-object" aria-roledescription="line mark container"><path aria-label="year: 1700; value: 683.269; key: Pakistan" role="graphics-symbol" aria-roledescription="line mark" d="M0,274.153C19.048,274.467,38.095,274.781,57.143,274.781C76.19,274.781,95.238,248.825,114.286,248.77C133.333,248.714,152.381,248.742,171.429,248.686C190.476,248.631,209.524,242.659,228.571,242.659C247.619,242.659,266.667,247.289,285.714,247.289C304.762,247.289,323.81,213.964,342.857,198.944C351.619,192.035,360.381,186.491,369.143,178.912C379.429,170.016,389.714,159.257,400,148.498" stroke="#F4C245" stroke-width="2" opacity="0.8"/></g></g><path class="foreground" aria-hidden="true" d="" display="none"/></g><g transform="translate(0,0)"><path class="background" aria-hidden="true" d="M0,0h400v300h-400Z"/><g><g class="mark-line role-mark layer_0_marks" clip-path="url(#clip150)" role="graphics-object" aria-roledescription="line mark container"><path aria-label="year: 1800; value: 1.61900k; key: Russia" role="graphics-symbol" aria-roledescription="line mark" d="M114.286,232.509C133.333,230.347,152.381,228.186,171.429,221.994C190.476,215.803,209.524,203.941,228.571,195.362C247.619,186.783,266.667,182.006,285.714,170.52C304.762,159.034,323.81,144.038,342.857,126.445C351.619,118.352,360.381,108.122,369.143,100.326C379.429,91.174,389.714,83.904,400,76.634" stroke="#0063AF" stroke-width="2" opacity="0.8"/></g></g><path class="foreground" aria-hidden="true" d="" display="none"/></g><g transform="translate(0,0)"><path class="background" aria-hidden="true" d="M0,0h400v300h-400Z"/><g><g class="mark-line role-mark layer_0_marks" clip-path="url(#clip151)" role="graphics-object" aria-roledescription="line mark container"><path aria-label="year: 1800; value: 1.77700k; key: South Africa" role="graphics-symbol" aria-roledescription="line mark" d="M114.286,228.014C133.333,237.27,152.381,246.526,171.429,246.526C190.476,246.526,209.524,240.722,228.571,229.113C247.619,217.504,266.667,179.723,285.714,164.848C304.762,149.973,323.81,146.762,342.857,139.864C351.619,136.691,360.381,135.323,369.143,131.252C379.429,126.474,389.714,119.215,400,111.957" stroke="#F4134D" stroke-width="2" opacity="0.8"/></g></g><path class="foreground" aria-hidden="true" d="" display="none"/></g><g transform="translate(0,0)"><path class="background" aria-hidden="true" d="M0,0h400v300h-400Z"/><g><g class="mark-line role-mark layer_0_marks" clip-path="url(#clip152)" role="graphics-object" aria-roledescription="line mark container"><path aria-label="year: 1700; value: 670.000; key: Turkey" role="graphics-symbol" aria-roledescription="line mark" d="M0,275.1C19.048,273.561,38.095,272.022,57.143,267.924C76.19,263.826,95.238,254.405,114.286,250.513C133.333,246.621,152.381,247.453,171.429,244.573C190.476,241.692,209.524,238.465,228.571,233.23C247.619,227.995,266.667,226.542,285.714,213.165C304.762,199.788,323.81,150.788,342.857,123.664C351.619,111.187,360.381,98.071,369.143,87.953C379.429,76.076,389.714,67.89,400,59.705" stroke="#00A767" stroke-width="2" opacity="0.8"/></g></g><path class="foreground" aria-hidden="true" d="" display="none"/></g><g transform="translate(0,0)"><path class="background" aria-hidden="true" d="M0,0h400v300h-400Z"/><g><g class="mark-line role-mark layer_0_marks" clip-path="url(#clip153)" role="graphics-object" aria-roledescription="line mark container"><path aria-label="year: 1800; value: 1.13000k; key: United Arab Emirates" role="graphics-symbol" aria-roledescription="line mark" d="M114.286,249.868C133.333,248.365,152.381,246.863,171.429,240.853C190.476,234.844,209.524,222.407,228.571,197.943C247.619,173.479,266.667,118.801,285.714,94.07C304.762,69.339,323.81,49.559,342.857,49.559C351.619,49.559,360.381,53.268,369.143,53.268C379.429,53.268,389.714,38.596,400,23.924" stroke="#00A767" stroke-width="2" opacity="0.8"/></g></g><path class="foreground" aria-hidden="true" d="" display="none"/></g><g transform="translate(0,0)"><path class="background" aria-hidden="true" d="M0,0h400v300h-400Z"/><g><g class="mark-line role-mark layer_0_marks" clip-path="url(#clip154)" role="graphics-object" aria-roledescription="line mark container"><path aria-label="year: 1700; value: 1.81569k; key: United Kingdom" role="graphics-symbol" aria-roledescription="line mark" d="M0,226.974C19.048,225.489,38.095,224.003,57.143,218.06C76.19,212.117,95.238,196.964,114.286,190.242C133.333,183.52,152.381,184.33,171.429,177.728C190.476,171.127,209.524,158.173,228.571,150.632C247.619,143.09,266.667,144.414,285.714,132.479C304.762,120.544,323.81,89.424,342.857,79.02C351.619,74.235,360.381,74.306,369.143,69.372C379.429,63.58,389.714,54.238,400,44.895" stroke="#5C267B" stroke-width="2" opacity="0.8"/></g></g><path class="foreground" aria-hidden="true" d="" display="none"/></g><g transform="translate(0,0)"><path class="background" aria-hidden="true" d="M0,0h400v300h-400Z"/><g><g class="mark-line role-mark layer_0_marks" clip-path="url(#clip155)" role="graphics-object" aria-roledescription="line mark container"><path aria-label="year: 1800; value: 2.95900k; key: United States" role="graphics-symbol" aria-roledescription="line mark" d="M114.286,203.398C133.333,199.444,152.381,195.49,171.429,186.239C190.476,176.988,209.524,159.433,228.571,147.895C247.619,136.356,266.667,130.523,285.714,117.007C304.762,103.492,323.81,78.849,342.857,66.801C351.619,61.258,360.381,58.751,369.143,53.149C379.429,46.572,389.714,37.823,400,29.073" stroke="#122B39" stroke-width="2" opacity="0.8"/></g></g><path class="foreground" aria-hidden="true" d="" display="none"/></g></g><g class="mark-group role-scope layer_1_pathgroup" role="graphics-object" aria-roledescription="group mark container"><g transform="translate(0,0)"><path class="background" aria-hidden="true" d="M0,0h400v300h-400Z"/><g><g class="mark-line role-mark layer_1_marks" clip-path="url(#clip156)" role="graphics-object" aria-roledescription="line mark container"><path aria-label="year: 1700; value: 1.81569k; key: United Kingdom" role="graphics-symbol" aria-roledescription="line mark" d="M0,226.974C19.048,225.489,38.095,224.003,57.143,218.06C76.19,212.117,95.238,196.964,114.286,190.242C133.333,183.52,152.381,184.33,171.429,177.728C190.476,171.127,209.524,158.173,228.571,150.632C247.619,143.09,266.667,144.414,285.714,132.479C304.762,120.544,323.81,89.424,342.857,79.02C351.619,74.235,360.381,74.306,369.143,69.372C379.429,63.58,389.714,54.238,400,44.895" stroke="#5C267B" stroke-width="3" opacity="0.8"/></g></g><path class="foreground" aria-hidden="true" d="" display="none"/></g></g><g class="mark-area role-mark layer_2_marks" role="graphics-object" aria-roledescription="area mark container"><path aria-label="x: 2023; y: 400; y2: 200000" role="graphics-symbol" aria-roledescription="area mark" d="M369.143,300L400,300L400,0L369.143,0Z" fill="url(#gradient_65)" opacity="0.4"/></g><g class="mark-text role-mark layer_3_marks" role="graphics-object" aria-roledescription="text mark container"><text aria-label="x: 2023; y: 200000" role="graphics-symbol" aria-roledescription="text mark" text-anchor="end" transform="translate(364.1428571428571,14)" font-family="Circular Std Book" font-size="11px" fill="#676A86" opacity="0.5">2023</text></g><g class="mark-symbol role-mark layer_4_marks" role="graphics-object" aria-roledescription="symbol mark container"><path aria-label="year: 2023; value: 19.3370k; key: China" role="graphics-symbol" aria-roledescription="circle" transform="translate(369.1428571428571,112.78090124811264)" d="M2.739,0A2.739,2.739,0,1,1,-2.739,0A2.739,2.739,0,1,1,2.739,0" fill="#36B7B4" stroke-width="2" opacity="1"/><path aria-label="year: 2023; value: 12.9720k; key: Egypt" role="graphics-symbol" aria-roledescription="circle" transform="translate(369.1428571428571,132.05293727841723)" d="M2.739,0A2.739,2.739,0,1,1,-2.739,0A2.739,2.739,0,1,1,2.739,0" fill="#F4134D" stroke-width="2" opacity="1"/><path aria-label="year: 2023; value: 55.3120k; key: Germany" role="graphics-symbol" aria-roledescription="circle" transform="translate(369.1428571428571,62.047073428255054)" d="M2.739,0A2.739,2.739,0,1,1,-2.739,0A2.739,2.739,0,1,1,2.739,0" fill="#0063AF" stroke-width="2" opacity="1"/><path aria-label="year: 2023; value: 7.61700k; key: India" role="graphics-symbol" aria-roledescription="circle" transform="translate(369.1428571428571,157.7541844989584)" d="M2.739,0A2.739,2.739,0,1,1,-2.739,0A2.739,2.739,0,1,1,2.739,0" fill="#F4C245" stroke-width="2" opacity="1"/><path aria-label="year: 2023; value: 43.2740k; key: Japan" role="graphics-symbol" aria-roledescription="circle" transform="translate(369.1428571428571,73.8951845171753)" d="M2.739,0A2.739,2.739,0,1,1,-2.739,0A2.739,2.739,0,1,1,2.739,0" fill="#36B7B4" stroke-width="2" opacity="1"/><path aria-label="year: 2023; value: 5.04100k; key: Nigeria" role="graphics-symbol" aria-roledescription="circle" transform="translate(369.1428571428571,177.68037017726158)" d="M2.739,0A2.739,2.739,0,1,1,-2.739,0A2.739,2.739,0,1,1,2.739,0" fill="#F4134D" stroke-width="2" opacity="1"/><path aria-label="year: 2023; value: 4.91400k; key: Pakistan" role="graphics-symbol" aria-roledescription="circle" transform="translate(369.1428571428571,178.91212287658234)" d="M2.739,0A2.739,2.739,0,1,1,-2.739,0A2.739,2.739,0,1,1,2.739,0" fill="#F4C245" stroke-width="2" opacity="1"/><path aria-label="year: 2023; value: 25.0290k; key: Russia" role="graphics-symbol" aria-roledescription="circle" transform="translate(369.1428571428571,100.32566081621323)" d="M2.739,0A2.739,2.739,0,1,1,-2.739,0A2.739,2.739,0,1,1,2.739,0" fill="#0063AF" stroke-width="2" opacity="1"/><path aria-label="year: 2023; value: 13.1890k; key: South Africa" role="graphics-symbol" aria-roledescription="circle" transform="translate(369.1428571428571,131.25208418506347)" d="M2.739,0A2.739,2.739,0,1,1,-2.739,0A2.739,2.739,0,1,1,2.739,0" fill="#F4134D" stroke-width="2" opacity="1"/><path aria-label="year: 2023; value: 32.3410k; key: Turkey" role="graphics-symbol" aria-roledescription="circle" transform="translate(369.1428571428571,87.95316917313988)" d="M2.739,0A2.739,2.739,0,1,1,-2.739,0A2.739,2.739,0,1,1,2.739,0" fill="#00A767" stroke-width="2" opacity="1"/><path aria-label="year: 2023; value: 66.3440k; key: United Arab Emirates" role="graphics-symbol" aria-roledescription="circle" transform="translate(369.1428571428571,53.26791433618904)" d="M2.739,0A2.739,2.739,0,1,1,-2.739,0A2.739,2.739,0,1,1,2.739,0" fill="#00A767" stroke-width="2" opacity="1"/><path aria-label="year: 2023; value: 47.5250k; key: United Kingdom" role="graphics-symbol" aria-roledescription="circle" transform="translate(369.1428571428571,69.37178284202963)" d="M2.739,0A2.739,2.739,0,1,1,-2.739,0A2.739,2.739,0,1,1,2.739,0" fill="#5C267B" stroke-width="2" opacity="1"/><path aria-label="year: 2023; value: 66.5080k; key: United States" role="graphics-symbol" aria-roledescription="circle" transform="translate(369.1428571428571,53.148731566006504)" d="M2.739,0A2.739,2.739,0,1,1,-2.739,0A2.739,2.739,0,1,1,2.739,0" fill="#122B39" stroke-width="2" opacity="1"/></g><g class="mark-text role-mark layer_5_marks" role="graphics-object" aria-roledescription="text mark container"><text aria-label="year: 2050; value: 42.7380k; key: China; t: China" role="graphics-symbol" aria-roledescription="text mark" text-anchor="start" transform="translate(405,77.49684137197185)" font-family="Circular Std Book" font-size="11px" fill="#36B7B4">China</text><text aria-label="year: 2050; value: 26.0270k; key: Egypt; t: Egypt" role="graphics-symbol" aria-roledescription="text mark" text-anchor="start" transform="translate(405,101.43820592648453)" font-family="Circular Std Book" font-size="11px" fill="#F4134D">Egypt</text><text aria-label="year: 2050; value: 91.8720k; key: Germany; t: Germany" role="graphics-symbol" aria-roledescription="text mark" text-anchor="start" transform="translate(405,40.55286175520324)" font-family="Circular Std Book" font-size="11px" fill="#0063AF">Germany</text><text aria-label="year: 2050; value: 70.5080k; key: Japan; t: Japan" role="graphics-symbol" aria-roledescription="text mark" text-anchor="start" transform="translate(405,53.32937740297885)" font-family="Circular Std Book" font-size="11px" fill="#36B7B4">Japan</text><text aria-label="year: 2050; value: 7.85300k; key: Nigeria; t: Nigeria" role="graphics-symbol" aria-roledescription="text mark" text-anchor="start" transform="translate(405,159.2812179408661)" font-family="Circular Std Book" font-size="11px" fill="#F4134D">Nigeria</text><text aria-label="year: 2050; value: 19.6700k; key: South Africa; t: South Africa" role="graphics-symbol" aria-roledescription="text mark" text-anchor="start" transform="translate(405,114.95666874324168)" font-family="Circular Std Book" font-size="11px" fill="#F4134D">South Africa</text><text aria-label="year: 2050; value: 58.0620k; key: Turkey; t: Turkey" role="graphics-symbol" aria-roledescription="text mark" text-anchor="start" transform="translate(405,62.70477664079179)" font-family="Circular Std Book" font-size="11px" fill="#00A767">Turkey</text><text aria-label="year: 2050; value: 109.514k; key: United States; t: United States" role="graphics-symbol" aria-roledescription="text mark" text-anchor="start" transform="translate(405,32.07335243242713)" font-family="Circular Std Book" font-size="11px" fill="#122B39">United States</text></g><g class="mark-text role-mark layer_6_marks" role="graphics-object" aria-roledescription="text mark container"><text aria-label="year: 2050; value: 9.22700k; key: Pakistan; t: Pakistan" role="graphics-symbol" aria-roledescription="text mark" text-anchor="start" transform="translate(405,146.49770166839423)" font-family="Circular Std Book" font-size="11px" fill="#F4C245">Pakistan</text></g><g class="mark-text role-mark layer_7_marks" role="graphics-object" aria-roledescription="text mark container"><text aria-label="year: 2050; value: 17.4770k; key: India; t: India" role="graphics-symbol" aria-roledescription="text mark" text-anchor="start" transform="translate(405,125.66300934000868)" font-family="Circular Std Book" font-size="11px" fill="#F4C245">India</text></g><g class="mark-text role-mark layer_8_marks" role="graphics-object" aria-roledescription="text mark container"><text aria-label="year: 2050; value: 40.8870k; key: Russia; t: Russia" role="graphics-symbol" aria-roledescription="text mark" text-anchor="start" transform="translate(405,86.63420656425292)" font-family="Circular Std Book" font-size="11px" fill="#0063AF">Russia</text></g><g class="mark-text role-mark layer_9_marks" role="graphics-object" aria-roledescription="text mark container"><text aria-label="year: 2050; value: 121.841k; key: United Arab Emirates; t: United Arab Emirates" role="graphics-symbol" aria-roledescription="text mark" text-anchor="start" transform="translate(405,19.924297847618657)" font-family="Circular Std Book" font-size="11px" fill="#00A767">United Arab Emirates</text></g><g class="mark-text role-mark layer_10_marks" role="graphics-object" aria-roledescription="text mark container"><text aria-label="year: 2050; value: 78.9090k; key: United Kingdom; t: United Kingdom" role="graphics-symbol" aria-roledescription="text mark" text-anchor="start" transform="translate(455,47.89528842518196)" font-family="Circular Std Book" font-size="11px" fill="#5C267B">United Kingdom</text></g><g class="mark-group role-title"><g transform="translate(-25,-46)"><path class="background" aria-hidden="true" d="M0,0h0v0h0Z" pointer-events="none"/><g><g class="mark-text role-title-text" role="graphics-symbol" aria-roledescription="title" aria-label="Title text 'In the past 300 years global GDP per capita grew twenty-fold'" pointer-events="none"><text text-anchor="start" transform="translate(0,12)" font-family="Circular Std Book" font-size="15px" font-weight="bold" fill="#676A86dd" opacity="1">In the past 300 years global GDP per capita grew twenty-fold</text></g><g class="mark-text role-title-subtitle" role="graphics-symbol" aria-roledescription="subtitle" aria-label="Subtitle text 'Source: Gapminder (v28) based on World Bank World Development Indicators &amp; Angus Maddison/CLIO, 2022'" pointer-events="none"><text text-anchor="start" transform="translate(0,384)" font-family="Circular Std Book" font-size="11px" fill="#676A86bb" opacity="1">Source: Gapminder (v28) based on World Bank World Development Indicators &amp; Angus Maddison/CLIO, 2022</text></g></g><path class="foreground" aria-hidden="true" d="" pointer-events="none" display="none"/></g></g></g><path class="foreground" aria-hidden="true" d="" display="none"/></g></g></g><defs><linearGradient id="gradient_65" x1="1" x2="0" y1="1" y2="1"><stop offset="0" stop-color="#ffffff00"/><stop offset="1" stop-color="#676A86"/></linearGradient><clipPath id="clip143"><rect x="0" y="0" width="400" height="300"/></clipPath><clipPath id="clip144"><rect x="0" y="0" width="400" height="300"/></clipPath><clipPath id="clip145"><rect x="0" y="0" width="400" height="300"/></clipPath><clipPath id="clip146"><rect x="0" y="0" width="400" height="300"/></clipPath><clipPath id="clip147"><rect x="0" y="0" width="400" height="300"/></clipPath><clipPath id="clip148"><rect x="0" y="0" width="400" height="300"/></clipPath><clipPath id="clip149"><rect x="0" y="0" width="400" height="300"/></clipPath><clipPath id="clip150"><rect x="0" y="0" width="400" height="300"/></clipPath><clipPath id="clip151"><rect x="0" y="0" width="400" height="300"/></clipPath><clipPath id="clip152"><rect x="0" y="0" width="400" height="300"/></clipPath><clipPath id="clip153"><rect x="0" y="0" width="400" height="300"/></clipPath><clipPath id="clip154"><rect x="0" y="0" width="400" height="300"/></clipPath><clipPath id="clip155"><rect x="0" y="0" width="400" height="300"/></clipPath><clipPath id="clip156"><rect x="0" y="0" width="400" height="300"/></clipPath></defs></svg>