<svg xmlns="http://www.w3.org/2000/svg" xmlns:xlink="http://www.w3.org/1999/xlink" version="1.1" class="marks" width="528" height="397" viewBox="0 0 528 397"><rect width="528" height="397" fill="white"/><g fill="none" stroke-miterlimit="10" transform="translate(28,50)"><g class="mark-group role-frame root" role="graphics-object" aria-roledescription="group mark container"><g transform="translate(0,0)"><path class="background" aria-hidden="true" d="M0,0h400v300h-400Z"/><g><g class="mark-group role-axis" aria-hidden="true"><g transform="translate(0.5,300.5)"><path class="background" aria-hidden="true" d="M0,0h0v0h0Z" pointer-events="none"/><g><g class="mark-rule role-axis-grid" pointer-events="none"><line transform="translate(27,-300)" x2="0" y2="300" stroke="#676A86" stroke-opacity="0.5" stroke-width="1" stroke-dasharray="1,5" opacity="1"/><line transform="translate(82,-300)" x2="0" y2="300" stroke="#676A86" stroke-opacity="0.5" stroke-width="1" stroke-dasharray="1,5" opacity="1"/><line transform="translate(136,-300)" x2="0" y2="300" stroke="#676A86" stroke-opacity="0.5" stroke-width="1" stroke-dasharray="1,5" opacity="1"/><line transform="translate(190,-300)" x2="0" y2="300" stroke="#676A86" stroke-opacity="0.5" stroke-width="1" stroke-dasharray="1,5" opacity="1"/><line transform="translate(245,-300)" x2="0" y2="300" stroke="#676A86" stroke-opacity="0.5" stroke-width="1" stroke-dasharray="1,5" opacity="1"/><line transform="translate(299,-300)" x2="0" y2="300" stroke="#676A86" stroke-opacity="0.5" stroke-width="1" stroke-dasharray="1,5" opacity="1"/><line transform="translate(354,-300)" x2="0" y2="300" stroke="#676A86" stroke-opacity="0.5" stroke-width="1" stroke-dasharray="1,5" opacity="1"/></g></g><path class="foreground" aria-hidden="true" d="" pointer-events="none" display="none"/></g></g><g class="mark-group role-axis" aria-hidden="true"><g transform="translate(0.5,0.5)"><path class="background" aria-hidden="true" d="M0,0h0v0h0Z" pointer-events="none"/><g><g class="mark-rule role-axis-grid" pointer-events="none"><line transform="translate(0,300)" x2="400" y2="0" stroke="#676A86" stroke-opacity="0.5" stroke-width="1" stroke-dasharray="1,5" opacity="1"/><line transform="translate(0,242)" x2="400" y2="0" stroke="#676A86" stroke-opacity="0.5" stroke-width="1" stroke-dasharray="1,5" opacity="1"/><line transform="translate(0,185)" x2="400" y2="0" stroke="#676A86" stroke-opacity="0.5" stroke-width="1" stroke-dasharray="1,5" opacity="1"/><line transform="translate(0,127)" x2="400" y2="0" stroke="#676A86" stroke-opacity="0.5" stroke-width="1" stroke-dasharray="1,5" opacity="1"/><line transform="translate(0,69)" x2="400" y2="0" stroke="#676A86" stroke-opacity="0.5" stroke-width="1" stroke-dasharray="1,5" opacity="1"/><line transform="translate(0,12)" x2="400" y2="0" stroke="#676A86" stroke-opacity="0.5" stroke-width="1" stroke-dasharray="1,5" opacity="1"/></g></g><path class="foreground" aria-hidden="true" d="" pointer-events="none" display="none"/></g></g><g class="mark-group role-axis" role="graphics-symbol" aria-roledescription="axis" aria-label="X-axis for a linear scale with values from 1870 to 2017"><g transform="translate(0.5,300.5)"><path class="background" aria-hidden="true" d="M0,0h0v0h0Z" pointer-events="none"/><g><g class="mark-rule role-axis-tick" pointer-events="none"><line transform="translate(27,0)" x2="0" y2="5" stroke="#676A86" stroke-opacity="0.5" stroke-width="1" opacity="1"/><line transform="translate(82,0)" x2="0" y2="5" stroke="#676A86" stroke-opacity="0.5" stroke-width="1" opacity="1"/><line transform="translate(136,0)" x2="0" y2="5" stroke="#676A86" stroke-opacity="0.5" stroke-width="1" opacity="1"/><line transform="translate(190,0)" x2="0" y2="5" stroke="#676A86" stroke-opacity="0.5" stroke-width="1" opacity="1"/><line transform="translate(245,0)" x2="0" y2="5" stroke="#676A86" stroke-opacity="0.5" stroke-width="1" opacity="1"/><line transform="translate(299,0)" x2="0" y2="5" stroke="#676A86" stroke-opacity="0.5" stroke-width="1" opacity="1"/><line transform="translate(354,0)" x2="0" y2="5" stroke="#676A86" stroke-opacity="0.5" stroke-width="1" opacity="1"/></g><g class="mark-text role-axis-label" pointer-events="none"><text text-anchor="middle" transform="translate(27.2108843537415,15)" font-family="Circular Std Book" font-size="10px" fill="#676A86" fill-opacity="0.7" opacity="1">1880</text><text text-anchor="middle" transform="translate(81.63265306122449,15)" font-family="Circular Std Book" font-size="10px" fill="#676A86" fill-opacity="0.7" opacity="1">1900</text><text text-anchor="middle" transform="translate(136.05442176870747,15)" font-family="Circular Std Book" font-size="10px" fill="#676A86" fill-opacity="0.7" opacity="1">1920</text><text text-anchor="middle" transform="translate(190.47619047619045,15)" font-family="Circular Std Book" font-size="10px" fill="#676A86" fill-opacity="0.7" opacity="1">1940</text><text text-anchor="middle" transform="translate(244.89795918367346,15)" font-family="Circular Std Book" font-size="10px" fill="#676A86" fill-opacity="0.7" opacity="1">1960</text><text text-anchor="middle" transform="translate(299.3197278911565,15)" font-family="Circular Std Book" font-size="10px" fill="#676A86" fill-opacity="0.7" opacity="1">1980</text><text text-anchor="middle" transform="translate(353.74149659863946,15)" font-family="Circular Std Book" font-size="10px" fill="#676A86" fill-opacity="0.7" opacity="1">2000</text></g><g class="mark-rule role-axis-domain" pointer-events="none"><line transform="translate(0,0)" x2="400" y2="0" stroke="#676A86" stroke-opacity="0.5" stroke-width="1" opacity="1"/></g></g><path class="foreground" aria-hidden="true" d="" pointer-events="none" display="none"/></g></g><g class="mark-group role-axis" role="graphics-symbol" aria-roledescription="axis" aria-label="Y-axis titled 'Average working hours per worker over a year (hours)' for a linear scale with values from 1.0k to 3.6k"><g transform="translate(0.5,0.5)"><path class="background" aria-hidden="true" d="M0,0h0v0h0Z" pointer-events="none"/><g><g class="mark-text role-axis-label" pointer-events="none"><text text-anchor="end" transform="translate(-5,303)" font-family="Circular Std Book" font-size="10px" fill="#676A86" fill-opacity="0.7" opacity="1">1.0k</text><text text-anchor="end" transform="translate(-5,245.30769230769232)" font-family="Circular Std Book" font-size="10px" fill="#676A86" fill-opacity="0.7" opacity="1">1.5k</text><text text-anchor="end" transform="translate(-5,187.6153846153846)" font-family="Circular Std Book" font-size="10px" fill="#676A86" fill-opacity="0.7" opacity="1">2.0k</text><text text-anchor="end" transform="translate(-5,129.92307692307693)" font-family="Circular Std Book" font-size="10px" fill="#676A86" fill-opacity="0.7" opacity="1">2.5k</text><text text-anchor="end" transform="translate(-5,72.23076923076921)" font-family="Circular Std Book" font-size="10px" fill="#676A86" fill-opacity="0.7" opacity="1">3.0k</text><text text-anchor="end" transform="translate(-5,14.538461538461531)" font-family="Circular Std Book" font-size="10px" fill="#676A86" fill-opacity="0.7" opacity="1">3.5k</text></g><g class="mark-rule role-axis-domain" pointer-events="none"><line transform="translate(0,300)" x2="0" y2="-300" stroke="#676A86" stroke-opacity="0.5" stroke-width="1" opacity="1"/></g><g class="mark-text role-axis-title" pointer-events="none"><text text-anchor="start" transform="translate(0,-10)" font-family="Circular Std Book" font-size="12px" font-weight="normal" fill="#676A86" fill-opacity="0.8" opacity="1">Average working hours per worker over a year (hours)</text></g></g><path class="foreground" aria-hidden="true" d="" pointer-events="none" display="none"/></g></g><g class="mark-group role-scope layer_0_pathgroup" role="graphics-object" aria-roledescription="group mark container"><g transform="translate(0,0)"><path class="background" aria-hidden="true" d="M0,0h400v300h-400Z"/><g><g class="mark-line role-mark layer_0_marks" clip-path="url(#clip301)" role="graphics-object" aria-roledescription="line mark container"><path aria-label="year: 1870; value: 2.79200k; key: Australia" role="graphics-symbol" aria-roledescription="line mark" d="M0,93.231C9.07,98.798,18.141,104.365,27.211,109.962C36.281,115.558,45.351,121.769,54.422,126.808C63.492,131.846,72.562,135.471,81.633,140.192C93.424,146.33,105.215,158.173,117.007,159.923C131.519,162.077,146.032,161,160.544,163.154C168.707,164.365,176.871,172.038,185.034,172.038C195.918,172.038,206.803,164.049,217.687,164.049C218.594,164.049,219.501,165.602,220.408,166.373C221.315,167.144,222.222,167.912,223.129,168.676C224.036,169.44,224.943,170.2,225.85,170.957C226.757,171.714,227.664,172.468,228.571,173.218C229.478,173.968,230.385,174.714,231.293,175.457C232.2,176.2,233.107,176.94,234.014,177.676C234.921,178.412,235.828,179.145,236.735,179.874C237.642,180.604,238.549,181.33,239.456,182.052C240.363,182.775,241.27,183.494,242.177,184.21C243.084,184.926,243.991,186.066,244.898,186.348C245.805,186.63,246.712,186.63,247.619,186.771C248.526,186.911,249.433,187.052,250.34,187.192C251.247,187.333,252.154,187.473,253.061,187.613C253.968,187.754,254.875,187.894,255.782,188.034C256.689,188.173,257.596,188.313,258.503,188.453C259.41,188.593,260.317,188.732,261.224,188.872C262.132,189.011,263.039,189.15,263.946,189.289C264.853,189.429,265.76,189.568,266.667,189.707C267.574,189.846,268.481,189.984,269.388,190.123C270.295,190.262,271.202,190.261,272.109,190.538C273.016,190.816,273.923,191.944,274.83,192.696C275.737,193.448,276.644,194.4,277.551,195.05C278.458,195.7,279.365,196.595,280.272,196.595C281.179,196.595,282.086,194.596,282.993,194.596C283.9,194.596,284.807,196.129,285.714,196.129C286.621,196.129,287.528,195.066,288.435,194.927C289.342,194.788,290.249,194.77,291.156,194.719C292.063,194.668,292.971,194.686,293.878,194.621C294.785,194.555,295.692,194.027,296.599,193.996C297.506,193.964,298.413,193.949,299.32,193.949C300.227,193.949,301.134,195.356,302.041,196.08C302.948,196.803,303.855,197.68,304.762,198.288C305.669,198.896,306.576,199.728,307.483,199.728C308.39,199.728,309.297,198.036,310.204,198.036C311.111,198.036,312.018,199.589,312.925,199.589C313.832,199.589,314.739,198.384,315.646,198.384C316.553,198.384,317.46,198.629,318.367,198.746C319.274,198.864,320.181,199.087,321.088,199.087C321.995,199.087,322.902,197.623,323.81,197.623C324.717,197.623,325.624,199.21,326.531,199.852C327.438,200.494,328.345,201.315,329.252,201.473C330.159,201.632,331.066,201.711,331.973,201.711C332.88,201.711,333.787,200.157,334.694,199.659C335.601,199.161,336.508,198.724,337.415,198.724C338.322,198.724,339.229,198.793,340.136,198.933C341.043,199.072,341.95,199.629,342.857,199.759C343.764,199.888,344.671,199.823,345.578,199.953C346.485,200.082,347.392,201.781,348.299,201.781C349.206,201.781,350.113,201.25,351.02,201.25C351.927,201.25,352.834,201.319,353.741,201.457C354.649,201.595,355.556,205.275,356.463,205.591C357.37,205.907,358.277,205.844,359.184,206.065C360.091,206.286,360.998,206.786,361.905,206.917C362.812,207.048,363.719,207.042,364.626,207.113C365.533,207.184,366.44,207.19,367.347,207.345C368.254,207.5,369.161,208.616,370.068,208.616C370.975,208.616,371.882,208.54,372.789,208.54C373.696,208.54,374.603,208.621,375.51,208.784C376.417,208.946,377.324,212.1,378.231,212.1C379.138,212.1,380.045,211.234,380.952,211.234C381.859,211.234,382.766,211.259,383.673,211.31C384.58,211.36,385.488,212.117,386.395,212.363C387.302,212.61,388.209,212.566,389.116,212.789C390.023,213.012,390.93,213.628,391.837,213.7C392.744,213.771,393.651,213.735,394.558,213.807C395.465,213.878,396.372,215.074,397.279,215.283C398.186,215.492,399.093,215.544,400,215.597" stroke="#676A86" stroke-width="2" opacity="0.8"/></g></g><path class="foreground" aria-hidden="true" d="" display="none"/></g><g transform="translate(0,0)"><path class="background" aria-hidden="true" d="M0,0h400v300h-400Z"/><g><g class="mark-line role-mark layer_0_marks" clip-path="url(#clip302)" role="graphics-object" aria-roledescription="line mark container"><path aria-label="year: 1870; value: 3.48300k; key: Belgium" role="graphics-symbol" aria-roledescription="line mark" d="M0,13.5C9.07,18.577,18.141,23.654,27.211,29.538C36.281,35.423,45.351,43.423,54.422,48.808C63.492,54.192,72.562,56.521,81.633,61.846C93.424,68.769,105.215,74.272,117.007,87.577C131.519,103.953,146.032,153.679,160.544,158.192C168.707,160.731,176.871,160.164,185.034,162C195.918,164.448,206.803,167.722,217.687,172.367C218.594,172.754,219.501,173.159,220.408,173.553C221.315,173.948,222.222,174.341,223.129,174.733C224.036,175.126,224.943,175.517,225.85,175.908C226.757,176.298,227.664,176.688,228.571,177.077C229.478,177.465,230.385,177.853,231.293,178.24C232.2,178.626,233.107,179.012,234.014,179.397C234.921,179.782,235.828,180.166,236.735,180.549C237.642,180.931,238.549,181.314,239.456,181.695C240.363,182.076,241.27,182.456,242.177,182.835C243.084,183.214,243.991,183.551,244.898,183.97C245.805,184.389,246.712,184.892,247.619,185.35C248.526,185.809,249.433,186.267,250.34,186.723C251.247,187.179,252.154,187.633,253.061,188.087C253.968,188.54,254.875,188.992,255.782,189.442C256.689,189.893,257.596,190.342,258.503,190.79C259.41,191.238,260.317,191.685,261.224,192.13C262.132,192.575,263.039,193.019,263.946,193.462C264.853,193.904,265.76,194.345,266.667,194.785C267.574,195.225,268.481,195.664,269.388,196.101C270.295,196.539,271.202,197.011,272.109,197.409C273.016,197.807,273.923,197.806,274.83,198.489C275.737,199.173,276.644,200.498,277.551,201.51C278.458,202.523,279.365,203.477,280.272,204.564C281.179,205.651,282.086,207.27,282.993,208.03C283.9,208.79,284.807,209.169,285.714,209.169C286.621,209.169,287.528,209.079,288.435,209.079C289.342,209.079,290.249,211.167,291.156,212.018C292.063,212.868,292.971,213.499,293.878,214.182C294.785,214.865,295.692,215.412,296.599,216.117C297.506,216.821,298.413,217.573,299.32,218.409C300.227,219.244,301.134,220.409,302.041,221.132C302.948,221.855,303.855,222.748,304.762,222.748C305.669,222.748,306.576,222.517,307.483,222.055C308.39,221.593,309.297,219.747,310.204,219.285C311.111,218.823,312.018,218.593,312.925,218.593C313.832,218.593,314.739,220.228,315.646,220.901C316.553,221.574,317.46,222.113,318.367,222.633C319.274,223.152,320.181,223.613,321.088,224.017C321.995,224.421,322.902,225.056,323.81,225.056C324.717,225.056,325.624,223.44,326.531,223.44C327.438,223.44,328.345,226.557,329.252,227.711C330.159,228.865,331.066,229.077,331.973,230.366C332.88,231.654,333.787,235.444,334.694,235.444C335.601,235.444,336.508,235.444,337.415,235.444C338.322,235.444,339.229,232.443,340.136,232.443C341.043,232.443,341.95,235.444,342.857,235.444C343.764,235.444,344.671,234.405,345.578,233.944C346.485,233.482,347.392,232.674,348.299,232.674C349.206,232.674,350.113,232.79,351.02,232.79C351.927,232.79,352.834,231.363,353.741,231.363C354.649,231.363,355.556,231.877,356.463,232.111C357.37,232.344,358.277,232.56,359.184,232.764C360.091,232.967,360.998,233.144,361.905,233.332C362.812,233.519,363.719,233.651,364.626,233.889C365.533,234.127,366.44,234.758,367.347,234.758C368.254,234.758,369.161,234.188,370.068,233.972C370.975,233.756,371.882,233.463,372.789,233.463C373.696,233.463,374.603,233.72,375.51,234.233C376.417,234.747,377.324,236.581,378.231,236.756C379.138,236.93,380.045,237.018,380.952,237.018C381.859,237.018,382.766,235.45,383.673,235.428C384.58,235.406,385.488,235.396,386.395,235.396C387.302,235.396,388.209,235.524,389.116,235.614C390.023,235.705,390.93,235.722,391.837,235.938C392.744,236.154,393.651,237.16,394.558,237.16C395.465,237.16,396.372,237.021,397.279,237.021C398.186,237.021,399.093,237.111,400,237.2" stroke="#0063AF" stroke-width="2" opacity="0.8"/></g></g><path class="foreground" aria-hidden="true" d="" display="none"/></g><g transform="translate(0,0)"><path class="background" aria-hidden="true" d="M0,0h400v300h-400Z"/><g><g class="mark-line role-mark layer_0_marks" clip-path="url(#clip303)" role="graphics-object" aria-roledescription="line mark container"><path aria-label="year: 1870; value: 2.84500k; key: Canada" role="graphics-symbol" aria-roledescription="line mark" d="M0,87.115C9.07,83.635,18.141,80.154,27.211,76.846C36.281,73.538,45.351,70.5,54.422,67.269C63.492,64.038,72.562,57.462,81.633,57.462C93.424,57.462,105.215,72.296,117.007,84.462C131.519,99.435,146.032,130.438,160.544,143.769C168.707,151.268,176.871,159.994,185.034,160.154C195.918,160.367,206.803,160.26,217.687,160.473C218.594,160.491,219.501,161.685,220.408,162.21C221.315,162.734,222.222,163.514,223.129,163.622C224.036,163.731,224.943,163.677,225.85,163.785C226.757,163.894,227.664,164.202,228.571,164.7C229.478,165.197,230.385,166.187,231.293,166.77C232.2,167.354,233.107,167.589,234.014,168.199C234.921,168.808,235.828,169.759,236.735,170.425C237.642,171.092,238.549,171.954,239.456,172.198C240.363,172.443,241.27,172.321,242.177,172.565C243.084,172.81,243.991,173.408,244.898,174.138C245.805,174.867,246.712,176.831,247.619,176.943C248.526,177.054,249.433,176.999,250.34,177.11C251.247,177.222,252.154,178.306,253.061,178.805C253.968,179.304,254.875,179.542,255.782,180.103C256.689,180.663,257.596,181.322,258.503,182.168C259.41,183.014,260.317,184.494,261.224,185.179C262.132,185.864,263.039,185.63,263.946,186.277C264.853,186.924,265.76,188.231,266.667,189.06C267.574,189.89,268.481,190.552,269.388,191.254C270.295,191.955,271.202,192.683,272.109,193.269C273.016,193.855,273.923,194.365,274.83,194.769C275.737,195.173,276.644,195.423,277.551,195.692C278.458,195.962,279.365,196.135,280.272,196.385C281.179,196.635,282.086,196.692,282.993,197.192C283.9,197.692,284.807,198.827,285.714,199.385C286.621,199.942,287.528,199.808,288.435,200.538C289.342,201.269,290.249,203.769,291.156,203.769C292.063,203.769,292.971,203.673,293.878,203.538C294.785,203.404,295.692,202.962,296.599,202.962C297.506,202.962,298.413,204.019,299.32,204.577C300.227,205.135,301.134,205.577,302.041,206.308C302.948,207.038,303.855,208.327,304.762,208.962C305.669,209.596,306.576,210.115,307.483,210.115C308.39,210.115,309.297,209.269,310.204,208.962C311.111,208.654,312.018,208.423,312.925,208.269C313.832,208.115,314.739,208.192,315.646,208.038C316.553,207.885,317.46,206.962,318.367,206.885C319.274,206.808,320.181,206.769,321.088,206.769C321.995,206.769,322.902,207.25,323.81,207.462C324.717,207.673,325.624,207.654,326.531,208.038C327.438,208.423,328.345,210.346,329.252,210.577C330.159,210.808,331.066,210.808,331.973,210.923C332.88,211.038,333.787,211.269,334.694,211.269C335.601,211.269,336.508,210.231,337.415,210.231C338.322,210.231,339.229,210.577,340.136,210.577C341.043,210.577,341.95,208.846,342.857,208.846C343.764,208.846,344.671,209.237,345.578,209.388C346.485,209.54,347.392,209.747,348.299,209.755C349.206,209.763,350.113,209.759,351.02,209.767C351.927,209.774,352.834,209.949,353.741,210.16C354.649,210.37,355.556,210.547,356.463,211.029C357.37,211.51,358.277,212.567,359.184,213.049C360.091,213.531,360.998,213.92,361.905,213.92C362.812,213.92,363.719,212.413,364.626,212.413C365.533,212.413,366.44,213.722,367.347,213.854C368.254,213.985,369.161,213.948,370.068,214.051C370.975,214.154,371.882,214.276,372.789,214.469C373.696,214.663,374.603,214.718,375.51,215.214C376.417,215.71,377.324,219.109,378.231,219.109C379.138,219.109,380.045,218.881,380.952,218.881C381.859,218.881,382.766,219.276,383.673,219.276C384.58,219.276,385.488,217.784,386.395,217.784C387.302,217.784,388.209,218.204,389.116,218.375C390.023,218.546,390.93,218.81,391.837,218.81C392.744,218.81,393.651,218.415,394.558,218.415C395.465,218.415,396.372,218.684,397.279,218.888C398.186,219.092,399.093,219.366,400,219.639" stroke-width="2" opacity="0.8"/></g></g><path class="foreground" aria-hidden="true" d="" display="none"/></g><g transform="translate(0,0)"><path class="background" aria-hidden="true" d="M0,0h400v300h-400Z"/><g><g class="mark-line role-mark layer_0_marks" clip-path="url(#clip304)" role="graphics-object" aria-roledescription="line mark container"><path aria-label="year: 1951; value: 2.67781k; key: Chile" role="graphics-symbol" aria-roledescription="line mark" d="M220.408,106.407C221.315,107.284,222.222,108.162,223.129,109.033C224.036,109.905,224.943,110.773,225.85,111.638C226.757,112.502,227.664,113.363,228.571,114.22C229.478,115.077,230.385,115.93,231.293,116.78C232.2,117.629,233.107,118.475,234.014,119.318C234.921,120.16,235.828,120.999,236.735,121.835C237.642,122.67,238.549,123.502,239.456,124.33C240.363,125.158,241.27,125.983,242.177,126.804C243.084,127.625,243.991,128.684,244.898,129.257C245.805,129.831,246.712,129.916,247.619,130.244C248.526,130.573,249.433,130.901,250.34,131.228C251.247,131.556,252.154,131.883,253.061,132.209C253.968,132.535,254.875,132.861,255.782,133.186C256.689,133.511,257.596,133.836,258.503,134.16C259.41,134.484,260.317,134.807,261.224,135.13C262.132,135.453,263.039,135.775,263.946,136.097C264.853,136.419,265.76,136.74,266.667,137.061C267.574,137.381,268.481,137.701,269.388,138.021C270.295,138.34,271.202,138.764,272.109,138.978C273.016,139.192,273.923,139.197,274.83,139.307C275.737,139.417,276.644,139.526,277.551,139.636C278.458,139.745,279.365,139.852,280.272,139.964C281.179,140.076,282.086,140.193,282.993,140.307C283.9,140.422,284.807,140.536,285.714,140.65C286.621,140.765,287.528,140.879,288.435,140.993C289.342,141.107,290.249,141.221,291.156,141.335C292.063,141.449,292.971,141.563,293.878,141.677C294.785,141.791,295.692,141.904,296.599,142.018C297.506,142.132,298.413,142.359,299.32,142.359C300.227,142.359,301.134,141.935,302.041,141.723C302.948,141.511,303.855,141.299,304.762,141.086C305.669,140.873,306.576,140.66,307.483,140.447C308.39,140.234,309.297,140.02,310.204,139.807C311.111,139.593,312.018,139.379,312.925,139.165C313.832,138.951,314.739,138.736,315.646,138.522C316.553,138.307,317.46,138.092,318.367,137.877C319.274,137.662,320.181,137.446,321.088,137.231C321.995,137.015,322.902,136.808,323.81,136.583C324.717,136.358,325.624,135.879,326.531,135.879C327.438,135.879,328.345,136.146,329.252,136.28C330.159,136.414,331.066,136.414,331.973,136.682C332.88,136.95,333.787,138.689,334.694,139.685C335.601,140.68,336.508,141.67,337.415,142.655C338.322,143.64,339.229,144.619,340.136,145.593C341.043,146.567,341.95,146.919,342.857,148.5C343.764,150.081,344.671,155.077,345.578,155.077C346.485,155.077,347.392,150.115,348.299,150.115C349.206,150.115,350.113,151.962,351.02,152.654C351.927,153.346,352.834,153.596,353.741,154.269C354.649,154.942,355.556,156.692,356.463,156.692C357.37,156.692,358.277,155.769,359.184,155.769C360.091,155.769,360.998,157.269,361.905,157.5C362.812,157.731,363.719,157.615,364.626,157.846C365.533,158.077,366.44,166.5,367.347,166.5C368.254,166.5,369.161,165.577,370.068,165.577C370.975,165.577,371.882,168.5,372.789,169.846C373.696,171.192,374.603,172.615,375.51,173.654C376.417,174.692,377.324,175.769,378.231,176.077C379.138,176.385,380.045,176.231,380.952,176.538C381.859,176.846,382.766,178.308,383.673,179.192C384.58,180.077,385.488,181.231,386.395,181.846C387.302,182.462,388.209,182.231,389.116,182.885C390.023,183.538,390.93,185.615,391.837,185.769C392.744,185.923,393.651,185.846,394.558,186C395.465,186.154,396.372,187.615,397.279,187.615C398.186,187.615,399.093,187.615,400,187.615" stroke="#EB5C2E" stroke-width="2" opacity="0.8"/></g></g><path class="foreground" aria-hidden="true" d="" display="none"/></g><g transform="translate(0,0)"><path class="background" aria-hidden="true" d="M0,0h400v300h-400Z"/><g><g class="mark-line role-mark layer_0_marks" clip-path="url(#clip305)" role="graphics-object" aria-roledescription="line mark container"><path aria-label="year: 1870; value: 3.16800k; key: France" role="graphics-symbol" aria-roledescription="line mark" d="M0,49.846C9.07,49.904,18.141,49.962,27.211,50.192C36.281,50.423,45.351,55.192,54.422,55.5C63.492,55.808,72.562,55.654,81.633,55.962C93.424,56.362,105.215,62.962,117.007,76.962C131.519,94.192,146.032,132.425,160.544,161.769C168.707,178.275,176.871,212.308,185.034,212.308C195.918,212.308,206.803,172.626,217.687,162.31C218.594,161.45,219.501,159.863,220.408,159.863C221.315,159.863,222.222,161.108,223.129,161.791C224.036,162.474,224.943,163.961,225.85,163.961C226.757,163.961,227.664,162.267,228.571,162.267C229.478,162.267,230.385,162.831,231.293,163.96C232.2,165.088,233.107,168.177,234.014,169.559C234.921,170.94,235.828,171.595,236.735,172.25C237.642,172.904,238.549,173.483,239.456,173.483C240.363,173.483,241.27,173.344,242.177,173.067C243.084,172.79,243.991,171.737,244.898,171.737C245.805,171.737,246.712,174.002,247.619,174.002C248.526,174.002,249.433,172.212,250.34,172.212C251.247,172.212,252.154,173.801,253.061,173.801C253.968,173.801,254.875,172.644,255.782,172.644C256.689,172.644,257.596,173.568,258.503,173.888C259.41,174.209,260.317,174.114,261.224,174.565C262.132,175.015,263.039,177.16,263.946,178.177C264.853,179.193,265.76,179.005,266.667,180.661C267.574,182.318,268.481,187.471,269.388,188.718C270.295,189.965,271.202,190.557,272.109,190.589C273.016,190.621,273.923,190.605,274.83,190.637C275.737,190.668,276.644,195.326,277.551,196.374C278.458,197.423,279.365,197.113,280.272,197.947C281.179,198.78,282.086,200.331,282.993,201.375C283.9,202.419,284.807,204.213,285.714,204.213C286.621,204.213,287.528,201.135,288.435,201.135C289.342,201.135,290.249,204.105,291.156,205.395C292.063,206.685,292.971,208.665,293.878,208.875C294.785,209.085,295.692,208.981,296.599,209.19C297.506,209.399,298.413,209.604,299.32,210.131C300.227,210.658,301.134,210.871,302.041,212.352C302.948,213.832,303.855,219.304,304.762,220.625C305.669,221.946,306.576,222.165,307.483,222.606C308.39,223.048,309.297,222.829,310.204,223.275C311.111,223.72,312.018,226.971,312.925,227.257C313.832,227.544,314.739,227.687,315.646,227.687C316.553,227.687,317.46,226.683,318.367,226.269C319.274,225.856,320.181,225.205,321.088,225.205C321.995,225.205,322.902,226.53,323.81,226.883C324.717,227.236,325.624,227.199,326.531,227.412C327.438,227.625,328.345,228.078,329.252,228.159C330.159,228.24,331.066,228.2,331.973,228.281C332.88,228.362,333.787,228.958,334.694,229.145C335.601,229.332,336.508,229.238,337.415,229.425C338.322,229.613,339.229,231.568,340.136,231.844C341.043,232.12,341.95,232.158,342.857,232.258C343.764,232.358,344.671,232.319,345.578,232.442C346.485,232.564,347.392,233.261,348.299,233.57C349.206,233.879,350.113,233.812,351.02,234.296C351.927,234.78,352.834,235.793,353.741,236.543C354.649,237.292,355.556,237.781,356.463,238.793C357.37,239.805,358.277,242.615,359.184,242.615C360.091,242.615,360.998,242.432,361.905,242.066C362.812,241.7,363.719,239.414,364.626,239.308C365.533,239.202,366.44,239.149,367.347,239.149C368.254,239.149,369.161,241.084,370.068,241.084C370.975,241.084,371.882,239.368,372.789,238.846C373.696,238.323,374.603,237.951,375.51,237.951C376.417,237.951,377.324,239.853,378.231,239.853C379.138,239.853,380.045,239.339,380.952,239.083C381.859,238.826,382.766,238.315,383.673,238.315C384.58,238.315,385.488,238.575,386.395,238.974C387.302,239.373,388.209,240.331,389.116,240.707C390.023,241.083,390.93,241.271,391.837,241.271C392.744,241.271,393.651,241.222,394.558,241.222C395.465,241.222,396.372,241.993,397.279,241.993C398.186,241.993,399.093,241.335,400,240.676" stroke="#36B7B4" stroke-width="2" opacity="0.8"/></g></g><path class="foreground" aria-hidden="true" d="" display="none"/></g><g transform="translate(0,0)"><path class="background" aria-hidden="true" d="M0,0h400v300h-400Z"/><g><g class="mark-line role-mark layer_0_marks" clip-path="url(#clip306)" role="graphics-object" aria-roledescription="line mark container"><path aria-label="year: 1870; value: 3.28400k; key: Germany" role="graphics-symbol" aria-roledescription="line mark" d="M0,36.462C9.07,38.288,18.141,40.115,27.211,43.5C36.281,46.885,45.351,53.558,54.422,56.769C63.492,59.981,72.562,58.769,81.633,62.769C93.424,67.969,105.215,85.791,117.007,101.192C131.519,120.148,146.032,169.846,160.544,169.846C168.707,169.846,176.871,167.307,185.034,163.038C195.918,157.346,206.803,135.297,217.687,135.297C218.594,135.297,219.501,137.289,220.408,138.277C221.315,139.266,222.222,140.249,223.129,141.227C224.036,142.204,224.943,143.177,225.85,144.144C226.757,145.112,227.664,146.074,228.571,147.031C229.478,147.988,230.385,148.94,231.293,149.887C232.2,150.834,233.107,151.775,234.014,152.712C234.921,153.649,235.828,154.581,236.735,155.508C237.642,156.434,238.549,157.356,239.456,158.273C240.363,159.19,241.27,160.102,242.177,161.01C243.084,161.917,243.991,162.754,244.898,163.717C245.805,164.68,246.712,165.563,247.619,166.788C248.526,168.013,249.433,169.77,250.34,171.069C251.247,172.368,252.154,174.582,253.061,174.582C253.968,174.582,254.875,173.256,255.782,173.256C256.689,173.256,257.596,174.117,258.503,174.896C259.41,175.676,260.317,176.702,261.224,177.933C262.132,179.164,263.039,181.322,263.946,182.284C264.853,183.245,265.76,183.106,266.667,183.726C267.574,184.347,268.481,185.33,269.388,186.006C270.295,186.683,271.202,186.875,272.109,187.786C273.016,188.698,273.923,190.377,274.83,191.474C275.737,192.572,276.644,193.301,277.551,194.371C278.458,195.441,279.365,196.669,280.272,197.896C281.179,199.123,282.086,200.331,282.993,201.735C283.9,203.139,284.807,206.319,285.714,206.319C286.621,206.319,287.528,204.888,288.435,204.888C289.342,204.888,290.249,206.257,291.156,206.971C292.063,207.684,292.971,208.571,293.878,209.169C294.785,209.767,295.692,209.96,296.599,210.558C297.506,211.156,298.413,211.966,299.32,212.757C300.227,213.547,301.134,214.666,302.041,215.303C302.948,215.939,303.855,216.113,304.762,216.576C305.669,217.038,306.576,217.617,307.483,218.08C308.39,218.543,309.297,218.697,310.204,219.353C311.111,220.009,312.018,221.204,312.925,222.014C313.832,222.824,314.739,223.403,315.646,224.213C316.553,225.023,317.46,226.489,318.367,226.875C319.274,227.26,320.181,227.068,321.088,227.453C321.995,227.839,322.902,229.228,323.81,230.115C324.717,231.002,325.624,231.774,326.531,232.777C327.438,233.779,328.345,236.132,329.252,236.132C330.159,236.132,331.066,234.841,331.973,234.841C332.88,234.841,333.787,237.178,334.694,237.51C335.601,237.843,336.508,237.748,337.415,238.01C338.322,238.271,339.229,238.565,340.136,239.079C341.043,239.594,341.95,240.552,342.857,241.097C343.764,241.642,344.671,242.023,345.578,242.349C346.485,242.674,347.392,242.646,348.299,243.048C349.206,243.451,350.113,243.963,351.02,244.763C351.927,245.562,352.834,247.137,353.741,247.845C354.649,248.553,355.556,248.604,356.463,249.01C357.37,249.417,358.277,249.955,359.184,250.285C360.091,250.615,360.998,250.825,361.905,250.991C362.812,251.157,363.719,251.088,364.626,251.282C365.533,251.476,366.44,252.545,367.347,252.545C368.254,252.545,369.161,250.999,370.068,250.999C370.975,250.999,371.882,251.011,372.789,251.036C373.696,251.061,374.603,251.265,375.51,251.723C376.417,252.182,377.324,256.995,378.231,256.995C379.138,256.995,380.045,255.239,380.952,255.014C381.859,254.788,382.766,254.675,383.673,254.675C384.58,254.675,385.488,256.149,386.395,256.728C387.302,257.307,388.209,258.15,389.116,258.15C390.023,258.15,390.93,257.724,391.837,257.645C392.744,257.566,393.651,257.526,394.558,257.526C395.465,257.526,396.372,258.351,397.279,258.625C398.186,258.898,399.093,259.033,400,259.167" stroke="#aaa" stroke-width="2" opacity="0.8"/></g></g><path class="foreground" aria-hidden="true" d="" display="none"/></g><g transform="translate(0,0)"><path class="background" aria-hidden="true" d="M0,0h400v300h-400Z"/><g><g class="mark-line role-mark layer_0_marks" clip-path="url(#clip307)" role="graphics-object" aria-roledescription="line mark container"><path aria-label="year: 1960; value: 2.72237k; key: Hong Kong" role="graphics-symbol" aria-roledescription="line mark" d="M244.898,101.266C245.805,102.048,246.712,102.83,247.619,103.608C248.526,104.386,249.433,105.162,250.34,105.934C251.247,106.706,252.154,107.475,253.061,108.242C253.968,109.008,254.875,109.772,255.782,110.533C256.689,111.294,257.596,112.052,258.503,112.807C259.41,113.562,260.317,114.314,261.224,115.064C262.132,115.813,263.039,116.56,263.946,117.304C264.853,118.047,265.76,118.788,266.667,119.527C267.574,120.265,268.481,121.001,269.388,121.734C270.295,122.466,271.202,123.924,272.109,123.924C273.016,123.924,273.923,123.802,274.83,123.802C275.737,123.802,276.644,123.916,277.551,123.977C278.458,124.038,279.365,124.102,280.272,124.168C281.179,124.235,282.086,124.305,282.993,124.376C283.9,124.446,284.807,124.514,285.714,124.592C286.621,124.669,287.528,124.674,288.435,124.84C289.342,125.006,290.249,125.591,291.156,125.96C292.063,126.329,292.971,126.708,293.878,127.053C294.785,127.399,295.692,127.657,296.599,128.032C297.506,128.406,298.413,128.835,299.32,129.301C300.227,129.767,301.134,130.101,302.041,130.828C302.948,131.555,303.855,132.596,304.762,133.661C305.669,134.727,306.576,136.073,307.483,137.223C308.39,138.374,309.297,139.514,310.204,140.565C311.111,141.616,312.018,143.529,312.925,143.529C313.832,143.529,314.739,143.048,315.646,143.048C316.553,143.048,317.46,147.195,318.367,147.195C319.274,147.195,320.181,141.642,321.088,141.642C321.995,141.642,322.902,146.575,323.81,148.381C324.717,150.187,325.624,152.478,326.531,152.478C327.438,152.478,328.345,148.857,329.252,148.857C330.159,148.857,331.066,158.749,331.973,158.749C332.88,158.749,333.787,151.695,334.694,151.389C335.601,151.084,336.508,150.931,337.415,150.931C338.322,150.931,339.229,155.21,340.136,155.21C341.043,155.21,341.95,149.508,342.857,149.508C343.764,149.508,344.671,154.868,345.578,154.868C346.485,154.868,347.392,154.816,348.299,154.713C349.206,154.61,350.113,151.153,351.02,149.778C351.927,148.403,352.834,146.462,353.741,146.462C354.649,146.462,355.556,146.959,356.463,146.959C357.37,146.959,358.277,144.989,359.184,144.989C360.091,144.989,360.998,146.435,361.905,146.435C362.812,146.435,363.719,143.726,364.626,143.726C365.533,143.726,366.44,144.033,367.347,144.648C368.254,145.262,369.161,148.212,370.068,148.212C370.975,148.212,371.882,146.795,372.789,146.795C373.696,146.795,374.603,151.194,375.51,152.651C376.417,154.109,377.324,155.539,378.231,155.539C379.138,155.539,380.045,149.76,380.952,149.76C381.859,149.76,382.766,153.711,383.673,154.989C384.58,156.268,385.488,156.829,386.395,157.431C387.302,158.034,388.209,157.823,389.116,158.606C390.023,159.389,390.93,164.395,391.837,164.395C392.744,164.395,393.651,163.202,394.558,163.202C395.465,163.202,396.372,163.202,397.279,163.202C398.186,163.202,399.093,163.202,400,163.202" stroke="#F4C245" stroke-width="2" opacity="0.8"/></g></g><path class="foreground" aria-hidden="true" d="" display="none"/></g><g transform="translate(0,0)"><path class="background" aria-hidden="true" d="M0,0h400v300h-400Z"/><g><g class="mark-line role-mark layer_0_marks" clip-path="url(#clip308)" role="graphics-object" aria-roledescription="line mark container"><path aria-label="year: 1870; value: 3.10800k; key: Ireland" role="graphics-symbol" aria-roledescription="line mark" d="M0,56.769C9.07,59.721,18.141,62.673,27.211,67.269C36.281,71.865,45.351,80.077,54.422,84.346C63.492,88.615,72.562,89.925,81.633,92.885C93.424,96.732,105.215,96.923,117.007,105C131.519,114.941,146.032,162.111,160.544,163.615C168.707,164.462,176.871,164.885,185.034,164.885C195.918,164.885,206.803,136.222,217.687,136.222C218.594,136.222,219.501,137.133,220.408,137.588C221.315,138.042,222.222,138.495,223.129,138.947C224.036,139.398,224.943,139.849,225.85,140.299C226.757,140.749,227.664,141.197,228.571,141.645C229.478,142.092,230.385,142.539,231.293,142.984C232.2,143.429,233.107,143.873,234.014,144.316C234.921,144.76,235.828,145.202,236.735,145.643C237.642,146.084,238.549,146.523,239.456,146.962C240.363,147.401,241.27,147.839,242.177,148.275C243.084,148.712,243.991,149.582,244.898,149.582C245.805,149.582,246.712,149.352,247.619,149.237C248.526,149.121,249.433,149.006,250.34,148.891C251.247,148.775,252.154,148.66,253.061,148.544C253.968,148.429,254.875,148.313,255.782,148.198C256.689,148.082,257.596,147.966,258.503,147.85C259.41,147.735,260.317,147.619,261.224,147.503C262.132,147.387,263.039,147.271,263.946,147.155C264.853,147.038,265.76,146.922,266.667,146.806C267.574,146.69,268.481,146.573,269.388,146.457C270.295,146.341,271.202,146.107,272.109,146.107C273.016,146.107,273.923,147.355,274.83,148.069C275.737,148.784,276.644,149.765,277.551,150.394C278.458,151.023,279.365,150.902,280.272,151.843C281.179,152.783,282.086,155.274,282.993,156.038C283.9,156.803,284.807,156.888,285.714,157.185C286.621,157.482,287.528,157.397,288.435,157.819C289.342,158.242,290.249,160.284,291.156,161.23C292.063,162.176,292.971,162.699,293.878,163.494C294.785,164.289,295.692,164.827,296.599,165.999C297.506,167.171,298.413,169.169,299.32,170.527C300.227,171.885,301.134,173.586,302.041,174.149C302.948,174.712,303.855,174.657,304.762,174.994C305.669,175.331,306.576,175.628,307.483,176.171C308.39,176.715,309.297,178.254,310.204,178.254C311.111,178.254,312.018,177.982,312.925,177.439C313.832,176.896,314.739,173.455,315.646,173.455C316.553,173.455,317.46,175.839,318.367,175.839C319.274,175.839,320.181,175.175,321.088,174.873C321.995,174.572,322.902,174.028,323.81,174.028C324.717,174.028,325.624,174.471,326.531,175.356C327.438,176.242,328.345,177.796,329.252,179.401C330.159,181.006,331.066,183.541,331.973,184.985C332.88,186.429,333.787,188.064,334.694,188.064C335.601,188.064,336.508,188.034,337.415,188.034C338.322,188.034,339.229,188.677,340.136,189C341.043,189.322,341.95,189.969,342.857,189.969C343.764,189.969,344.671,189.901,345.578,189.901C346.485,189.901,347.392,189.939,348.299,190.016C349.206,190.093,350.113,190.928,351.02,191.321C351.927,191.715,352.834,192.025,353.741,192.378C354.649,192.731,355.556,192.892,356.463,193.439C357.37,193.986,358.277,194.954,359.184,195.66C360.091,196.367,360.998,197.12,361.905,197.678C362.812,198.237,363.719,199.009,364.626,199.009C365.533,199.009,366.44,198.093,367.347,198.093C368.254,198.093,369.161,198.262,370.068,198.598C370.975,198.935,371.882,199.529,372.789,200.2C373.696,200.872,374.603,201.606,375.51,202.627C376.417,203.649,377.324,205.521,378.231,206.33C379.138,207.14,380.045,206.735,380.952,207.545C381.859,208.355,382.766,218.98,383.673,218.98C384.58,218.98,385.488,218.7,386.395,218.366C387.302,218.031,388.209,217.427,389.116,216.974C390.023,216.521,390.93,216.052,391.837,215.648C392.744,215.245,393.651,214.554,394.558,214.554C395.465,214.554,396.372,214.762,397.279,214.762C398.186,214.762,399.093,214.361,400,213.96" stroke="#F4134D" stroke-width="2" opacity="0.8"/></g></g><path class="foreground" aria-hidden="true" d="" display="none"/></g><g transform="translate(0,0)"><path class="background" aria-hidden="true" d="M0,0h400v300h-400Z"/><g><g class="mark-line role-mark layer_0_marks" clip-path="url(#clip309)" role="graphics-object" aria-roledescription="line mark container"><path aria-label="year: 1950; value: 2.03041k; key: Japan" role="graphics-symbol" aria-roledescription="line mark" d="M217.687,181.106C218.594,181.778,219.501,182.449,220.408,183.116C221.315,183.784,222.222,184.448,223.129,185.11C224.036,185.771,224.943,187.086,225.85,187.086C226.757,187.086,227.664,184.659,228.571,183.583C229.478,182.508,230.385,182.095,231.293,180.633C232.2,179.171,233.107,176.225,234.014,174.812C234.921,173.398,235.828,173.075,236.735,172.149C237.642,171.222,238.549,170.179,239.456,169.253C240.363,168.326,241.27,167.352,242.177,166.587C243.084,165.823,243.991,164.851,244.898,164.666C245.805,164.48,246.712,164.387,247.619,164.387C248.526,164.387,249.433,166.506,250.34,166.996C251.247,167.486,252.154,167.731,253.061,167.731C253.968,167.731,254.875,166.9,255.782,166.9C256.689,166.9,257.596,169.024,258.503,169.024C259.41,169.024,260.317,168.534,261.224,168.121C262.132,167.709,263.039,166.839,263.946,166.55C264.853,166.26,265.76,166.115,266.667,166.115C267.574,166.115,268.481,167.208,269.388,167.652C270.295,168.097,271.202,168.442,272.109,168.783C273.016,169.123,273.923,169.697,274.83,169.697C275.737,169.697,276.644,169.423,277.551,169.423C278.458,169.423,279.365,169.966,280.272,171.053C281.179,172.139,282.086,176.162,282.993,177.84C283.9,179.519,284.807,181.124,285.714,181.124C286.621,181.124,287.528,178.481,288.435,177.981C289.342,177.48,290.249,177.432,291.156,177.23C292.063,177.028,292.971,176.938,293.878,176.771C294.785,176.603,295.692,176.322,296.599,176.227C297.506,176.131,298.413,176.083,299.32,176.083C300.227,176.083,301.134,176.658,302.041,176.674C302.948,176.69,303.855,176.698,304.762,176.698C305.669,176.698,306.576,176.375,307.483,175.978C308.39,175.58,309.297,174.314,310.204,174.314C311.111,174.314,312.018,175.758,312.925,175.758C313.832,175.758,314.739,175.691,315.646,175.558C316.553,175.425,317.46,174.927,318.367,174.927C319.274,174.927,320.181,175.063,321.088,175.334C321.995,175.606,322.902,176.535,323.81,177.535C324.717,178.536,325.624,180.363,326.531,181.336C327.438,182.31,328.345,182.101,329.252,183.376C330.159,184.651,331.066,187.37,331.973,188.985C332.88,190.6,333.787,192.044,334.694,193.064C335.601,194.084,336.508,195.104,337.415,195.104C338.322,195.104,339.229,194.925,340.136,194.815C341.043,194.706,341.95,194.446,342.857,194.446C343.764,194.446,344.671,196.713,345.578,197.642C346.485,198.571,347.392,199.323,348.299,200.019C349.206,200.715,350.113,201.819,351.02,201.819C351.927,201.819,352.834,200.942,353.741,200.942C354.649,200.942,355.556,202.183,356.463,202.719C357.37,203.256,358.277,204.162,359.184,204.162C360.091,204.162,360.998,203.956,361.905,203.746C362.812,203.537,363.719,202.904,364.626,202.904C365.533,202.904,366.44,204.485,367.347,204.485C368.254,204.485,369.161,203.538,370.068,203.538C370.975,203.538,371.882,204.083,372.789,204.635C373.696,205.187,374.603,205.517,375.51,206.85C376.417,208.183,377.324,212.631,378.231,212.631C379.138,212.631,380.045,210.254,380.952,210.254C381.859,210.254,382.766,210.842,383.673,210.842C384.58,210.842,385.488,209.665,386.395,209.665C387.302,209.665,388.209,211.75,389.116,212.135C390.023,212.519,390.93,212.508,391.837,212.712C392.744,212.915,393.651,213.079,394.558,213.358C395.465,213.637,396.372,214.144,397.279,214.385C398.186,214.626,399.093,214.715,400,214.804" stroke-width="2" opacity="0.8"/></g></g><path class="foreground" aria-hidden="true" d="" display="none"/></g><g transform="translate(0,0)"><path class="background" aria-hidden="true" d="M0,0h400v300h-400Z"/><g><g class="mark-line role-mark layer_0_marks" clip-path="url(#clip310)" role="graphics-object" aria-roledescription="line mark container"><path aria-label="year: 1953; value: 2.30455k; key: South Korea" role="graphics-symbol" aria-roledescription="line mark" d="M225.85,149.475C226.757,148.685,227.664,147.894,228.571,147.098C229.478,146.303,230.385,145.503,231.293,144.7C232.2,143.897,233.107,143.091,234.014,142.281C234.921,141.471,235.828,140.657,236.735,139.84C237.642,139.022,238.549,138.201,239.456,137.377C240.363,136.552,241.27,135.724,242.177,134.892C243.084,134.059,243.991,133.224,244.898,132.384C245.805,131.545,246.712,130.702,247.619,129.855C248.526,129.008,249.433,128.157,250.34,127.302C251.247,126.448,252.154,124.727,253.061,124.727C253.968,124.727,254.875,133.906,255.782,133.906C256.689,133.906,257.596,121.668,258.503,121.668C259.41,121.668,260.317,123.504,261.224,123.504C262.132,123.504,263.039,121.362,263.946,119.832C264.853,118.302,265.76,116.365,266.667,114.325C267.574,112.285,268.481,107.594,269.388,107.594C270.295,107.594,271.202,119.832,272.109,119.832C273.016,119.832,273.923,114.937,274.83,112.489C275.737,110.041,276.644,107.288,277.551,105.146C278.458,103.005,279.365,101.577,280.272,99.639C281.179,97.701,282.086,94.948,282.993,93.52C283.9,92.092,284.807,92.704,285.714,91.072C286.621,89.441,287.528,81.282,288.435,81.282C289.342,81.282,290.249,84.953,291.156,84.953C292.063,84.953,292.971,81.282,293.878,81.282C294.785,81.282,295.692,82.506,296.599,83.117C297.506,83.729,298.413,84.953,299.32,84.953C300.227,84.953,301.134,83.665,302.041,83.107C302.948,82.55,303.855,82.203,304.762,81.607C305.669,81.011,306.576,79.531,307.483,79.531C308.39,79.531,309.297,79.684,310.204,79.992C311.111,80.3,312.018,82.876,312.925,82.876C313.832,82.876,314.739,79.531,315.646,79.531C316.553,79.531,317.46,81.627,318.367,83.107C319.274,84.588,320.181,85.549,321.088,88.414C321.995,91.28,322.902,97.279,323.81,100.298C324.717,103.317,325.624,105.297,326.531,106.528C327.438,107.759,328.345,107.643,329.252,108.374C330.159,109.105,331.066,110.912,331.973,110.912C332.88,110.912,333.787,108.963,334.694,108.963C335.601,108.963,336.508,110.752,337.415,110.752C338.322,110.752,339.229,109.934,340.136,109.934C341.043,109.934,341.95,110.345,342.857,111.166C343.764,111.987,344.671,114.695,345.578,117.593C346.485,120.491,347.392,128.553,348.299,128.553C349.206,128.553,350.113,128.286,351.02,127.836C351.927,127.385,352.834,125.851,353.741,125.851C354.649,125.851,355.556,126.366,356.463,127.394C357.37,128.422,358.277,130.739,359.184,132.129C360.091,133.519,360.998,134.515,361.905,135.733C362.812,136.951,363.719,138.048,364.626,139.439C365.533,140.83,366.44,143.663,367.347,144.079C368.254,144.494,369.161,144.286,370.068,144.702C370.975,145.118,371.882,146.727,372.789,149.285C373.696,151.843,374.603,157.392,375.51,160.049C376.417,162.705,377.324,164.379,378.231,165.225C379.138,166.07,380.045,165.706,380.952,166.493C381.859,167.279,382.766,168.909,383.673,169.945C384.58,170.98,385.488,172.071,386.395,172.704C387.302,173.337,388.209,173.091,389.116,173.743C390.023,174.395,390.93,176.618,391.837,176.618C392.744,176.618,393.651,175.812,394.558,175.812C395.465,175.812,396.372,177.308,397.279,177.308C398.186,177.308,399.093,177.308,400,177.308" stroke="#00A767" stroke-width="2" opacity="0.8"/></g></g><path class="foreground" aria-hidden="true" d="" display="none"/></g><g transform="translate(0,0)"><path class="background" aria-hidden="true" d="M0,0h400v300h-400Z"/><g><g class="mark-line role-mark layer_0_marks" clip-path="url(#clip311)" role="graphics-object" aria-roledescription="line mark container"><path aria-label="year: 1870; value: 2.96800k; key: Spain" role="graphics-symbol" aria-roledescription="line mark" d="M0,72.923C9.07,76.49,18.141,80.058,27.211,83.538C36.281,87.019,45.351,90.615,54.422,93.808C63.492,97,72.562,99.616,81.633,102.692C93.424,106.691,105.215,109.328,117.007,115.269C131.519,122.582,146.032,127.914,160.544,145.154C168.707,154.851,176.871,181.154,185.034,181.154C195.918,181.154,206.803,160.534,217.687,160.534C218.594,160.534,219.501,160.858,220.408,161.016C221.315,161.175,222.222,161.331,223.129,161.485C224.036,161.639,224.943,161.942,225.85,161.942C226.757,161.942,227.664,159.974,228.571,159.974C229.478,159.974,230.385,161.403,231.293,162.061C232.2,162.719,233.107,163.322,234.014,163.922C234.921,164.522,235.828,165.09,236.735,165.661C237.642,166.232,238.549,166.865,239.456,167.349C240.363,167.833,241.27,168.185,242.177,168.566C243.084,168.947,243.991,169.105,244.898,169.634C245.805,170.163,246.712,171.058,247.619,171.74C248.526,172.422,249.433,173.068,250.34,173.724C251.247,174.381,252.154,174.473,253.061,175.677C253.968,176.882,254.875,180.358,255.782,180.952C256.689,181.546,257.596,181.843,258.503,181.843C259.41,181.843,260.317,181.79,261.224,181.683C262.132,181.576,263.039,180.662,263.946,180.662C264.853,180.662,265.76,184.383,266.667,185.018C267.574,185.652,268.481,185.969,269.388,185.969C270.295,185.969,271.202,185.06,272.109,185.051C273.016,185.042,273.923,185.038,274.83,185.038C275.737,185.038,276.644,185.209,277.551,185.516C278.458,185.823,279.365,186.882,280.272,186.882C281.179,186.882,282.086,186.477,282.993,186.17C283.9,185.862,284.807,185.419,285.714,185.036C286.621,184.652,287.528,183.87,288.435,183.87C289.342,183.87,290.249,184.108,291.156,184.584C292.063,185.06,292.971,186.315,293.878,187.679C294.785,189.043,295.692,191.886,296.599,192.766C297.506,193.646,298.413,193.217,299.32,194.086C300.227,194.954,301.134,196.912,302.041,197.979C302.948,199.046,303.855,199.459,304.762,200.488C305.669,201.517,306.576,202.686,307.483,204.154C308.39,205.621,309.297,208.534,310.204,209.295C311.111,210.056,312.018,210.093,312.925,210.436C313.832,210.779,314.739,211.047,315.646,211.351C316.553,211.656,317.46,212.036,318.367,212.265C319.274,212.494,320.181,212.418,321.088,212.723C321.995,213.029,322.902,214.098,323.81,214.098C324.717,214.098,325.624,214.023,326.531,213.871C327.438,213.72,328.345,212.844,329.252,212.844C330.159,212.844,331.066,213.448,331.973,213.752C332.88,214.055,333.787,214.584,334.694,214.665C335.601,214.745,336.508,214.785,337.415,214.785C338.322,214.785,339.229,214.774,340.136,214.752C341.043,214.73,341.95,214.663,342.857,214.592C343.764,214.521,344.671,214.504,345.578,214.328C346.485,214.151,347.392,213.611,348.299,213.35C349.206,213.09,350.113,212.763,351.02,212.763C351.927,212.763,352.834,213.144,353.741,213.144C354.649,213.144,355.556,212.179,356.463,212.019C357.37,211.86,358.277,211.78,359.184,211.78C360.091,211.78,360.998,212.333,361.905,212.776C362.812,213.22,363.719,213.858,364.626,214.441C365.533,215.025,366.44,215.78,367.347,216.277C368.254,216.774,369.161,216.999,370.068,217.424C370.975,217.85,371.882,218.828,372.789,218.828C373.696,218.828,374.603,218.094,375.51,217.782C376.417,217.471,377.324,216.961,378.231,216.961C379.138,216.961,380.045,218.031,380.952,218.031C381.859,218.031,382.766,217.441,383.673,217.441C384.58,217.441,385.488,218.671,386.395,219.093C387.302,219.516,388.209,219.977,389.116,219.977C390.023,219.977,390.93,219.936,391.837,219.855C392.744,219.774,393.651,219.419,394.558,219.289C395.465,219.158,396.372,219.073,397.279,219.073C398.186,219.073,399.093,219.931,400,220.789" stroke-width="2" opacity="0.8"/></g></g><path class="foreground" aria-hidden="true" d="" display="none"/></g><g transform="translate(0,0)"><path class="background" aria-hidden="true" d="M0,0h400v300h-400Z"/><g><g class="mark-line role-mark layer_0_marks" clip-path="url(#clip312)" role="graphics-object" aria-roledescription="line mark container"><path aria-label="year: 1870; value: 3.43600k; key: Sweden" role="graphics-symbol" aria-roledescription="line mark" d="M0,18.923C9.07,28.49,18.141,38.058,27.211,47.654C36.281,57.25,45.351,68,54.422,76.5C63.492,85,72.562,98.654,81.633,98.654C93.424,98.654,105.215,98.654,117.007,98.654C131.519,98.654,146.032,164.205,160.544,167.077C168.707,168.692,176.871,167.885,185.034,169.5C195.918,171.654,206.803,181.646,217.687,185.849C218.594,186.199,219.501,186.873,220.408,186.873C221.315,186.873,222.222,186.873,223.129,186.873C224.036,186.873,224.943,189.151,225.85,189.151C226.757,189.151,227.664,187.898,228.571,187.898C229.478,187.898,230.385,188.467,231.293,189.151C232.2,189.834,233.107,191.997,234.014,191.997C234.921,191.997,235.828,191.997,236.735,191.997C237.642,191.997,238.549,194.54,239.456,195.64C240.363,196.741,241.27,198.221,242.177,198.601C243.084,198.98,243.991,199.17,244.898,199.17C245.805,199.17,246.712,198.942,247.619,198.942C248.526,198.942,249.433,199.967,250.34,200.309C251.247,200.65,252.154,200.536,253.061,200.992C253.968,201.447,254.875,203.724,255.782,204.521C256.689,205.318,257.596,205.299,258.503,205.774C259.41,206.248,260.317,206.514,261.224,207.368C262.132,208.222,263.039,209.493,263.946,210.897C264.853,212.302,265.76,214.541,266.667,215.793C267.574,217.046,268.481,218.412,269.388,218.412C270.295,218.412,271.202,218.412,272.109,218.412C273.016,218.412,273.923,220.712,274.83,222.085C275.737,223.458,276.644,225.59,277.551,226.648C278.458,227.707,279.365,227.778,280.272,228.436C281.179,229.095,282.086,229.784,282.993,230.6C283.9,231.415,284.807,233.328,285.714,233.328C286.621,233.328,287.528,231.826,288.435,231.826C289.342,231.826,290.249,233.983,291.156,235.285C292.063,236.587,292.971,238.924,293.878,239.638C294.785,240.351,295.692,240.708,296.599,240.708C297.506,240.708,298.413,240.368,299.32,240.368C300.227,240.368,301.134,241.337,302.041,241.337C302.948,241.337,303.855,240.157,304.762,239.707C305.669,239.256,306.576,238.801,307.483,238.634C308.39,238.466,309.297,238.502,310.204,238.383C311.111,238.263,312.018,237.917,312.925,237.917C313.832,237.917,314.739,238.146,315.646,238.146C316.553,238.146,317.46,237.549,318.367,236.978C319.274,236.407,320.181,234.72,321.088,234.72C321.995,234.72,322.902,234.764,323.81,234.852C324.717,234.941,325.624,234.994,326.531,235.276C327.438,235.559,328.345,236.807,329.252,236.807C330.159,236.807,331.066,235.724,331.973,234.775C332.88,233.827,333.787,232.461,334.694,231.115C335.601,229.77,336.508,227.099,337.415,226.705C338.322,226.311,339.229,226.457,340.136,226.114C341.043,225.771,341.95,224.988,342.857,224.649C343.764,224.31,344.671,224.08,345.578,224.08C346.485,224.08,347.392,224.271,348.299,224.271C349.206,224.271,350.113,223.291,351.02,223.291C351.927,223.291,352.834,225.017,353.741,225.914C354.649,226.81,355.556,227.761,356.463,228.668C357.37,229.576,358.277,230.656,359.184,231.361C360.091,232.065,360.998,232.897,361.905,232.897C362.812,232.897,363.719,230.133,364.626,230.133C365.533,230.133,366.44,230.151,367.347,230.185C368.254,230.219,369.161,230.87,370.068,230.87C370.975,230.87,371.882,229.784,372.789,229.443C373.696,229.102,374.603,228.823,375.51,228.823C376.417,228.823,377.324,229.714,378.231,229.714C379.138,229.714,380.045,226.73,380.952,226.73C381.859,226.73,382.766,226.826,383.673,227.017C384.58,227.209,385.488,228.191,386.395,228.649C387.302,229.107,388.209,229.763,389.116,229.763C390.023,229.763,390.93,229.708,391.837,229.682C392.744,229.656,393.651,229.657,394.558,229.607C395.465,229.557,396.372,227.716,397.279,227.716C398.186,227.716,399.093,228.707,400,229.697" stroke="#E54753" stroke-width="2" opacity="0.8"/></g></g><path class="foreground" aria-hidden="true" d="" display="none"/></g><g transform="translate(0,0)"><path class="background" aria-hidden="true" d="M0,0h400v300h-400Z"/><g><g class="mark-line role-mark layer_0_marks" clip-path="url(#clip313)" role="graphics-object" aria-roledescription="line mark container"><path aria-label="year: 1870; value: 2.75500k; key: United Kingdom" role="graphics-symbol" aria-roledescription="line mark" d="M0,97.5C9.07,97.788,18.141,98.077,27.211,99.231C36.281,100.385,45.351,106.423,54.422,107.423C63.492,108.423,72.562,108.923,81.633,108.923C93.424,108.923,105.215,108.923,117.007,108.923C131.519,108.923,146.032,147.167,160.544,154.962C168.707,159.346,176.871,160.612,185.034,161.538C195.918,162.774,206.803,163.391,217.687,163.391C218.594,163.391,219.501,162.385,220.408,162.385C221.315,162.385,222.222,166.055,223.129,166.055C224.036,166.055,224.943,165.758,225.85,165.602C226.757,165.447,227.664,165.123,228.571,165.123C229.478,165.123,230.385,165.184,231.293,165.304C232.2,165.425,233.107,166.196,234.014,166.872C234.921,167.547,235.828,168.368,236.735,169.356C237.642,170.343,238.549,172.794,239.456,172.794C240.363,172.794,241.27,171.665,242.177,171.665C243.084,171.665,243.991,171.998,244.898,172.663C245.805,173.329,246.712,175.473,247.619,176.906C248.526,178.34,249.433,180.614,250.34,181.264C251.247,181.914,252.154,182.239,253.061,182.239C253.968,182.239,254.875,182.212,255.782,182.212C256.689,182.212,257.596,183.372,258.503,184.896C259.41,186.42,260.317,190.423,261.224,191.353C262.132,192.282,263.039,192.374,263.946,192.747C264.853,193.12,265.76,193.267,266.667,193.592C267.574,193.918,268.481,193.961,269.388,194.699C270.295,195.438,271.202,197.926,272.109,199.512C273.016,201.098,273.923,204.214,274.83,204.214C275.737,204.214,276.644,202.344,277.551,201.765C278.458,201.186,279.365,200.74,280.272,200.74C281.179,200.74,282.086,201.578,282.993,202.466C283.9,203.354,284.807,205.525,285.714,206.068C286.621,206.61,287.528,206.882,288.435,206.882C289.342,206.882,290.249,205.824,291.156,205.739C292.063,205.654,292.971,205.611,293.878,205.611C294.785,205.611,295.692,205.709,296.599,205.905C297.506,206.1,298.413,208.101,299.32,209.377C300.227,210.654,301.134,213.278,302.041,213.563C302.948,213.848,303.855,213.806,304.762,213.99C305.669,214.174,306.576,214.667,307.483,214.667C308.39,214.667,309.297,214.116,310.204,213.952C311.111,213.788,312.018,213.683,312.925,213.683C313.832,213.683,314.739,214.3,315.646,214.3C316.553,214.3,317.46,213.973,318.367,213.742C319.274,213.512,320.181,213.128,321.088,212.916C321.995,212.705,322.902,212.474,323.81,212.474C324.717,212.474,325.624,213.199,326.531,213.93C327.438,214.66,328.345,216.382,329.252,216.86C330.159,217.338,331.066,217.381,331.973,217.577C332.88,217.774,333.787,218.04,334.694,218.04C335.601,218.04,336.508,217.011,337.415,216.855C338.322,216.698,339.229,216.62,340.136,216.62C341.043,216.62,341.95,216.654,342.857,216.682C343.764,216.709,344.671,216.716,345.578,216.785C346.485,216.854,347.392,217.027,348.299,217.269C349.206,217.511,350.113,217.775,351.02,218.237C351.927,218.7,352.834,220.044,353.741,220.044C354.649,220.044,355.556,219.695,356.463,219.695C357.37,219.695,358.277,221.193,359.184,221.704C360.091,222.216,360.998,222.559,361.905,222.764C362.812,222.969,363.719,223.071,364.626,223.071C365.533,223.071,366.44,222.723,367.347,222.723C368.254,222.723,369.161,223.386,370.068,223.386C370.975,223.386,371.882,223.174,372.789,223.174C373.696,223.174,374.603,223.38,375.51,223.792C376.417,224.204,377.324,226.346,378.231,226.346C379.138,226.346,380.045,225.784,380.952,225.784C381.859,225.784,382.766,226.002,383.673,226.002C384.58,226.002,385.488,224.883,386.395,224.411C387.302,223.938,388.209,223.496,389.116,223.166C390.023,222.836,390.93,222.431,391.837,222.431C392.744,222.431,393.651,222.746,394.558,222.799C395.465,222.852,396.372,222.878,397.279,222.878C398.186,222.878,399.093,222.77,400,222.661" stroke="#5C267B" stroke-width="2" opacity="0.8"/></g></g><path class="foreground" aria-hidden="true" d="" display="none"/></g><g transform="translate(0,0)"><path class="background" aria-hidden="true" d="M0,0h400v300h-400Z"/><g><g class="mark-line role-mark layer_0_marks" clip-path="url(#clip314)" role="graphics-object" aria-roledescription="line mark container"><path aria-label="year: 1870; value: 3.09600k; key: United States" role="graphics-symbol" aria-roledescription="line mark" d="M0,58.154C9.07,60.067,18.141,61.981,27.211,64.154C36.281,66.327,45.351,69.154,54.422,71.192C63.492,73.231,72.562,74.918,81.633,76.385C93.424,78.292,105.215,77.846,117.007,80.769C131.519,84.367,146.032,115.562,160.544,148.154C168.707,166.487,176.871,212.769,185.034,212.769C195.918,212.769,206.803,203.799,217.687,185.857C218.594,184.362,219.501,181.089,220.408,181.089C221.315,181.089,222.222,181.332,223.129,181.531C224.036,181.729,224.943,181.78,225.85,182.279C226.757,182.778,227.664,184.952,228.571,184.952C229.478,184.952,230.385,184.096,231.293,184.096C232.2,184.096,233.107,185.016,234.014,185.843C234.921,186.669,235.828,187.866,236.735,189.055C237.642,190.244,238.549,192.975,239.456,192.975C240.363,192.975,241.27,190.055,242.177,190.055C243.084,190.055,243.991,191.562,244.898,192.198C245.805,192.833,246.712,193.87,247.619,193.87C248.526,193.87,249.433,191.626,250.34,191.626C251.247,191.626,252.154,192.985,253.061,192.985C253.968,192.985,254.875,192.768,255.782,192.332C256.689,191.896,257.596,190.589,258.503,190.04C259.41,189.49,260.317,189.033,261.224,189.033C262.132,189.033,263.039,191.378,263.946,191.66C264.853,191.942,265.76,192.083,266.667,192.083C267.574,192.083,268.481,192.004,269.388,192.004C270.295,192.004,271.202,195.985,272.109,197.145C273.016,198.305,273.923,198.785,274.83,198.964C275.737,199.143,276.644,199.156,277.551,199.232C278.458,199.309,279.365,199.296,280.272,199.422C281.179,199.549,282.086,201.497,282.993,202.637C283.9,203.777,284.807,205.955,285.714,206.26C286.621,206.565,287.528,206.717,288.435,206.717C289.342,206.717,290.249,206.715,291.156,206.711C292.063,206.706,292.971,206.148,293.878,205.982C294.785,205.817,295.692,205.717,296.599,205.717C297.506,205.717,298.413,206.994,299.32,207.539C300.227,208.083,301.134,208.401,302.041,208.984C302.948,209.566,303.855,211.033,304.762,211.033C305.669,211.033,306.576,210.561,307.483,210.106C308.39,209.651,309.297,208.717,310.204,208.301C311.111,207.886,312.018,207.611,312.925,207.611C313.832,207.611,314.739,209.941,315.646,209.941C316.553,209.941,317.46,209.411,318.367,209.079C319.274,208.748,320.181,208.375,321.088,207.953C321.995,207.531,322.902,206.547,323.81,206.547C324.717,206.547,325.624,207.77,326.531,208.206C327.438,208.642,328.345,208.77,329.252,209.163C330.159,209.557,331.066,210.567,331.973,210.567C332.88,210.567,333.787,209.47,334.694,208.838C335.601,208.205,336.508,207.302,337.415,206.773C338.322,206.244,339.229,205.965,340.136,205.664C341.043,205.363,341.95,205.18,342.857,204.967C343.764,204.753,344.671,204.688,345.578,204.383C346.485,204.077,347.392,203.297,348.299,203.133C349.206,202.969,350.113,202.991,351.02,202.888C351.927,202.784,352.834,202.509,353.741,202.509C354.649,202.509,355.556,204.212,356.463,204.944C357.37,205.675,358.277,206.266,359.184,206.896C360.091,207.525,360.998,208.633,361.905,208.72C362.812,208.807,363.719,208.777,364.626,208.85C365.533,208.923,366.44,209.156,367.347,209.156C368.254,209.156,369.161,209.126,370.068,209.126C370.975,209.126,371.882,209.183,372.789,209.298C373.696,209.413,374.603,210.419,375.51,211.499C376.417,212.578,377.324,215.774,378.231,215.774C379.138,215.774,380.045,215.356,380.952,215.066C381.859,214.776,382.766,214.063,383.673,214.033C384.58,214.003,385.488,214.018,386.395,213.988C387.302,213.958,388.209,213.625,389.116,213.452C390.023,213.28,390.93,213.242,391.837,212.951C392.744,212.661,393.651,211.71,394.558,211.71C395.465,211.71,396.372,212.063,397.279,212.216C398.186,212.369,399.093,212.498,400,212.628" stroke="#122B39" stroke-width="2" opacity="0.8"/></g></g><path class="foreground" aria-hidden="true" d="" display="none"/></g></g><g class="mark-group role-scope layer_1_pathgroup" role="graphics-object" aria-roledescription="group mark container"><g transform="translate(0,0)"><path class="background" aria-hidden="true" d="M0,0h400v300h-400Z"/><g><g class="mark-line role-mark layer_1_marks" clip-path="url(#clip315)" role="graphics-object" aria-roledescription="line mark container"><path aria-label="year: 1870; value: 2.75500k; key: United Kingdom" role="graphics-symbol" aria-roledescription="line mark" d="M0,97.5C9.07,97.788,18.141,98.077,27.211,99.231C36.281,100.385,45.351,106.423,54.422,107.423C63.492,108.423,72.562,108.923,81.633,108.923C93.424,108.923,105.215,108.923,117.007,108.923C131.519,108.923,146.032,147.167,160.544,154.962C168.707,159.346,176.871,160.612,185.034,161.538C195.918,162.774,206.803,163.391,217.687,163.391C218.594,163.391,219.501,162.385,220.408,162.385C221.315,162.385,222.222,166.055,223.129,166.055C224.036,166.055,224.943,165.758,225.85,165.602C226.757,165.447,227.664,165.123,228.571,165.123C229.478,165.123,230.385,165.184,231.293,165.304C232.2,165.425,233.107,166.196,234.014,166.872C234.921,167.547,235.828,168.368,236.735,169.356C237.642,170.343,238.549,172.794,239.456,172.794C240.363,172.794,241.27,171.665,242.177,171.665C243.084,171.665,243.991,171.998,244.898,172.663C245.805,173.329,246.712,175.473,247.619,176.906C248.526,178.34,249.433,180.614,250.34,181.264C251.247,181.914,252.154,182.239,253.061,182.239C253.968,182.239,254.875,182.212,255.782,182.212C256.689,182.212,257.596,183.372,258.503,184.896C259.41,186.42,260.317,190.423,261.224,191.353C262.132,192.282,263.039,192.374,263.946,192.747C264.853,193.12,265.76,193.267,266.667,193.592C267.574,193.918,268.481,193.961,269.388,194.699C270.295,195.438,271.202,197.926,272.109,199.512C273.016,201.098,273.923,204.214,274.83,204.214C275.737,204.214,276.644,202.344,277.551,201.765C278.458,201.186,279.365,200.74,280.272,200.74C281.179,200.74,282.086,201.578,282.993,202.466C283.9,203.354,284.807,205.525,285.714,206.068C286.621,206.61,287.528,206.882,288.435,206.882C289.342,206.882,290.249,205.824,291.156,205.739C292.063,205.654,292.971,205.611,293.878,205.611C294.785,205.611,295.692,205.709,296.599,205.905C297.506,206.1,298.413,208.101,299.32,209.377C300.227,210.654,301.134,213.278,302.041,213.563C302.948,213.848,303.855,213.806,304.762,213.99C305.669,214.174,306.576,214.667,307.483,214.667C308.39,214.667,309.297,214.116,310.204,213.952C311.111,213.788,312.018,213.683,312.925,213.683C313.832,213.683,314.739,214.3,315.646,214.3C316.553,214.3,317.46,213.973,318.367,213.742C319.274,213.512,320.181,213.128,321.088,212.916C321.995,212.705,322.902,212.474,323.81,212.474C324.717,212.474,325.624,213.199,326.531,213.93C327.438,214.66,328.345,216.382,329.252,216.86C330.159,217.338,331.066,217.381,331.973,217.577C332.88,217.774,333.787,218.04,334.694,218.04C335.601,218.04,336.508,217.011,337.415,216.855C338.322,216.698,339.229,216.62,340.136,216.62C341.043,216.62,341.95,216.654,342.857,216.682C343.764,216.709,344.671,216.716,345.578,216.785C346.485,216.854,347.392,217.027,348.299,217.269C349.206,217.511,350.113,217.775,351.02,218.237C351.927,218.7,352.834,220.044,353.741,220.044C354.649,220.044,355.556,219.695,356.463,219.695C357.37,219.695,358.277,221.193,359.184,221.704C360.091,222.216,360.998,222.559,361.905,222.764C362.812,222.969,363.719,223.071,364.626,223.071C365.533,223.071,366.44,222.723,367.347,222.723C368.254,222.723,369.161,223.386,370.068,223.386C370.975,223.386,371.882,223.174,372.789,223.174C373.696,223.174,374.603,223.38,375.51,223.792C376.417,224.204,377.324,226.346,378.231,226.346C379.138,226.346,380.045,225.784,380.952,225.784C381.859,225.784,382.766,226.002,383.673,226.002C384.58,226.002,385.488,224.883,386.395,224.411C387.302,223.938,388.209,223.496,389.116,223.166C390.023,222.836,390.93,222.431,391.837,222.431C392.744,222.431,393.651,222.746,394.558,222.799C395.465,222.852,396.372,222.878,397.279,222.878C398.186,222.878,399.093,222.77,400,222.661" stroke="#5C267B" stroke-width="3" opacity="0.8"/></g></g><path class="foreground" aria-hidden="true" d="" display="none"/></g></g><g class="mark-text role-mark layer_2_marks" role="graphics-object" aria-roledescription="text mark container"><text aria-label="year: 2017; value: 1.54427k; key: Belgium; t: Belgium" role="graphics-symbol" aria-roledescription="text mark" text-anchor="start" transform="translate(405,240.19973076923077)" font-family="Circular Std Book" font-size="11px" fill="#0063AF">Belgium</text><text aria-label="year: 2017; value: 1.97400k; key: Chile; t: Chile" role="graphics-symbol" aria-roledescription="text mark" text-anchor="start" transform="translate(405,190.61538461538464)" font-family="Circular Std Book" font-size="11px" fill="#EB5C2E">Chile</text><text aria-label="year: 2017; value: 1.35389k; key: Germany; t: Germany" role="graphics-symbol" aria-roledescription="text mark" text-anchor="start" transform="translate(405,262.1669076923077)" font-family="Circular Std Book" font-size="11px" fill="#aaa">Germany</text><text aria-label="year: 2017; value: 2.18558k; key: Hong Kong; t: Hong Kong" role="graphics-symbol" aria-roledescription="text mark" text-anchor="start" transform="translate(405,166.20243461538465)" font-family="Circular Std Book" font-size="11px" fill="#F4C245">Hong Kong</text><text aria-label="year: 2017; value: 2.06333k; key: South Korea; t: South Korea" role="graphics-symbol" aria-roledescription="text mark" text-anchor="start" transform="translate(405,180.3079038461539)" font-family="Circular Std Book" font-size="11px" fill="#00A767">South Korea</text><text aria-label="year: 2017; value: 1.67027k; key: United Kingdom; t: United Kingdom" role="graphics-symbol" aria-roledescription="text mark" text-anchor="start" transform="translate(405,225.66083076923076)" font-family="Circular Std Book" font-size="11px" fill="#5C267B">United Kingdom</text><text aria-label="year: 2017; value: 1.75723k; key: United States; t: United States" role="graphics-symbol" aria-roledescription="text mark" text-anchor="start" transform="translate(405,215.62782692307692)" font-family="Circular Std Book" font-size="11px" fill="#122B39">United States</text></g><g class="mark-text role-mark layer_3_marks" role="graphics-object" aria-roledescription="text mark container"><text aria-label="year: 2017; value: 1.73149k; key: Australia; t: Australia" role="graphics-symbol" aria-roledescription="text mark" text-anchor="start" transform="translate(405,204.5968115384615)" font-family="Circular Std Book" font-size="11px" fill="#676A86">Australia</text></g><g class="mark-text role-mark layer_4_marks" role="graphics-object" aria-roledescription="text mark container"><text aria-label="year: 2017; value: 1.74568k; key: Ireland; t: Ireland" role="graphics-symbol" aria-roledescription="text mark" text-anchor="start" transform="translate(460,205.95950384615386)" font-family="Circular Std Book" font-size="11px" fill="#F4134D">Ireland</text></g><g class="mark-text role-mark layer_5_marks" role="graphics-object" aria-roledescription="text mark container"><text aria-label="year: 2017; value: 1.51414k; key: France; t: France" role="graphics-symbol" aria-roledescription="text mark" text-anchor="start" transform="translate(405,250.67648846153847)" font-family="Circular Std Book" font-size="11px" fill="#36B7B4">France</text></g><g class="mark-text role-mark layer_6_marks" role="graphics-object" aria-roledescription="text mark container"><text aria-label="year: 2017; value: 1.60929k; key: Sweden; t: Sweden" role="graphics-symbol" aria-roledescription="text mark" text-anchor="start" transform="translate(460,239.69735384615385)" font-family="Circular Std Book" font-size="11px" fill="#E54753">Sweden</text></g><g class="mark-image role-mark layer_7_marks" role="graphics-object" aria-roledescription="image mark container"><image aria-label="x: 2017; y: 3300; img: https://raw.githubusercontent.com/EconomicsObservatory/ECOvisualisations/main/guidelines/logos/eco-icon-dark.png" role="graphics-symbol" aria-roledescription="image mark" xlink:href="https://raw.githubusercontent.com/EconomicsObservatory/ECOvisualisations/main/guidelines/logos/eco-icon-dark.png" transform="translate(450,-33.38461538461537)" width="40" height="40" preserveAspectRatio="xMidYMid" opacity="0.5"/></g><g class="mark-group role-title"><g transform="translate(-22.5,-44.38461538461536)"><path class="background" aria-hidden="true" d="M0,0h0v0h0Z" pointer-events="none"/><g><g class="mark-text role-title-text" role="graphics-symbol" aria-roledescription="title" aria-label="Title text 'In the past 150 years working hours halved'" pointer-events="none"><text text-anchor="start" transform="translate(0,12)" font-family="Circular Std Book" font-size="15px" font-weight="bold" fill="#676A86dd" opacity="1">In the past 150 years working hours halved</text></g><g class="mark-text role-title-subtitle" role="graphics-symbol" aria-roledescription="subtitle" aria-label="Subtitle text 'Source: Huberman and Minns, 2007 &amp; Penn World Tables (v9.1), 2019'" pointer-events="none"><text text-anchor="start" transform="translate(0,384)" font-family="Circular Std Book" font-size="11px" fill="#676A86bb" opacity="1">Source: Huberman and Minns, 2007 &amp; Penn World Tables (v9.1), 2019</text></g></g><path class="foreground" aria-hidden="true" d="" pointer-events="none" display="none"/></g></g></g><path class="foreground" aria-hidden="true" d="" display="none"/></g></g></g><defs><clipPath id="clip301"><rect x="0" y="0" width="400" height="300"/></clipPath><clipPath id="clip302"><rect x="0" y="0" width="400" height="300"/></clipPath><clipPath id="clip303"><rect x="0" y="0" width="400" height="300"/></clipPath><clipPath id="clip304"><rect x="0" y="0" width="400" height="300"/></clipPath><clipPath id="clip305"><rect x="0" y="0" width="400" height="300"/></clipPath><clipPath id="clip306"><rect x="0" y="0" width="400" height="300"/></clipPath><clipPath id="clip307"><rect x="0" y="0" width="400" height="300"/></clipPath><clipPath id="clip308"><rect x="0" y="0" width="400" height="300"/></clipPath><clipPath id="clip309"><rect x="0" y="0" width="400" height="300"/></clipPath><clipPath id="clip310"><rect x="0" y="0" width="400" height="300"/></clipPath><clipPath id="clip311"><rect x="0" y="0" width="400" height="300"/></clipPath><clipPath id="clip312"><rect x="0" y="0" width="400" height="300"/></clipPath><clipPath id="clip313"><rect x="0" y="0" width="400" height="300"/></clipPath><clipPath id="clip314"><rect x="0" y="0" width="400" height="300"/></clipPath><clipPath id="clip315"><rect x="0" y="0" width="400" height="300"/></clipPath></defs></svg>