<svg xmlns="http://www.w3.org/2000/svg" xmlns:xlink="http://www.w3.org/1999/xlink" version="1.1" class="marks" width="410" height="310" viewBox="0 0 410 310"><rect width="410" height="310" fill="#122B39"/><g fill="none" stroke-miterlimit="10" transform="translate(5,5)"><g class="mark-group role-frame root" role="graphics-object" aria-roledescription="group mark container"><g transform="translate(0,0)"><path class="background" aria-hidden="true" d="M0,0h400v300h-400Z"/><g><g class="mark-group role-axis" aria-hidden="true"><g transform="translate(0,0)"><path class="background" aria-hidden="true" d="M0,0h0v0h0Z" pointer-events="none"/><g><g class="mark-rule role-axis-grid" pointer-events="none"><line transform="translate(0,-300)" x2="0" y2="300" stroke="#b4c8d8" stroke-opacity="0.5" stroke-width="1" stroke-dasharray="1,5" opacity="1"/><line transform="translate(38,-300)" x2="0" y2="300" stroke="#b4c8d8" stroke-opacity="0.5" stroke-width="1" stroke-dasharray="1,5" opacity="1"/><line transform="translate(75,-300)" x2="0" y2="300" stroke="#b4c8d8" stroke-opacity="0.5" stroke-width="1" stroke-dasharray="1,5" opacity="1"/><line transform="translate(113,-300)" x2="0" y2="300" stroke="#b4c8d8" stroke-opacity="0.5" stroke-width="1" stroke-dasharray="1,5" opacity="1"/><line transform="translate(151,-300)" x2="0" y2="300" stroke="#b4c8d8" stroke-opacity="0.5" stroke-width="1" stroke-dasharray="1,5" opacity="1"/><line transform="translate(189,-300)" x2="0" y2="300" stroke="#b4c8d8" stroke-opacity="0.5" stroke-width="1" stroke-dasharray="1,5" opacity="1"/><line transform="translate(226,-300)" x2="0" y2="300" stroke="#b4c8d8" stroke-opacity="0.5" stroke-width="1" stroke-dasharray="1,5" opacity="1"/><line transform="translate(264,-300)" x2="0" y2="300" stroke="#b4c8d8" stroke-opacity="0.5" stroke-width="1" stroke-dasharray="1,5" opacity="1"/><line transform="translate(302,-300)" x2="0" y2="300" stroke="#b4c8d8" stroke-opacity="0.5" stroke-width="1" stroke-dasharray="1,5" opacity="1"/><line transform="translate(340,-300)" x2="0" y2="300" stroke="#b4c8d8" stroke-opacity="0.5" stroke-width="1" stroke-dasharray="1,5" opacity="1"/><line transform="translate(377,-300)" x2="0" y2="300" stroke="#b4c8d8" stroke-opacity="0.5" stroke-width="1" stroke-dasharray="1,5" opacity="1"/></g></g><path class="foreground" aria-hidden="true" d="" pointer-events="none" display="none"/></g></g><g class="mark-group role-axis" aria-hidden="true"><g transform="translate(0,0)"><path class="background" aria-hidden="true" d="M0,0h0v0h0Z" pointer-events="none"/><g><g class="mark-rule role-axis-grid" pointer-events="none"><line transform="translate(0,286)" x2="400" y2="0" stroke="#b4c8d8" stroke-opacity="0.5" stroke-width="1" stroke-dasharray="1,5" opacity="1"/><line transform="translate(0,251)" x2="400" y2="0" stroke="#b4c8d8" stroke-opacity="0.5" stroke-width="1" stroke-dasharray="1,5" opacity="1"/><line transform="translate(0,215)" x2="400" y2="0" stroke="#b4c8d8" stroke-opacity="0.5" stroke-width="1" stroke-dasharray="1,5" opacity="1"/><line transform="translate(0,180)" x2="400" y2="0" stroke="#b4c8d8" stroke-opacity="0.5" stroke-width="1" stroke-dasharray="1,5" opacity="1"/><line transform="translate(0,144)" x2="400" y2="0" stroke="#b4c8d8" stroke-opacity="0.5" stroke-width="1" stroke-dasharray="1,5" opacity="1"/><line transform="translate(0,109)" x2="400" y2="0" stroke="#b4c8d8" stroke-opacity="0.5" stroke-width="1" stroke-dasharray="1,5" opacity="1"/><line transform="translate(0,74)" x2="400" y2="0" stroke="#b4c8d8" stroke-opacity="0.5" stroke-width="1" stroke-dasharray="1,5" opacity="1"/><line transform="translate(0,38)" x2="400" y2="0" stroke="#b4c8d8" stroke-opacity="0.5" stroke-width="1" stroke-dasharray="1,5" opacity="1"/><line transform="translate(0,3)" x2="400" y2="0" stroke="#b4c8d8" stroke-opacity="0.5" stroke-width="1" stroke-dasharray="1,5" opacity="1"/></g></g><path class="foreground" aria-hidden="true" d="" pointer-events="none" display="none"/></g></g><g class="mark-group role-axis" role="graphics-symbol" aria-roledescription="axis" aria-label="X-axis for a linear scale with values from 1970 to 2023"><g transform="translate(0,0)"><path class="background" aria-hidden="true" d="M0,0h0v0h0Z" pointer-events="none"/><g><g class="mark-rule role-axis-tick" pointer-events="none"><line transform="translate(0,0)" x2="0" y2="5" stroke="#b4c8d8" stroke-opacity="0.5" stroke-width="1" opacity="1"/><line transform="translate(38,0)" x2="0" y2="5" stroke="#b4c8d8" stroke-opacity="0.5" stroke-width="1" opacity="1"/><line transform="translate(75,0)" x2="0" y2="5" stroke="#b4c8d8" stroke-opacity="0.5" stroke-width="1" opacity="1"/><line transform="translate(113,0)" x2="0" y2="5" stroke="#b4c8d8" stroke-opacity="0.5" stroke-width="1" opacity="1"/><line transform="translate(151,0)" x2="0" y2="5" stroke="#b4c8d8" stroke-opacity="0.5" stroke-width="1" opacity="1"/><line transform="translate(189,0)" x2="0" y2="5" stroke="#b4c8d8" stroke-opacity="0.5" stroke-width="1" opacity="1"/><line transform="translate(226,0)" x2="0" y2="5" stroke="#b4c8d8" stroke-opacity="0.5" stroke-width="1" opacity="1"/><line transform="translate(264,0)" x2="0" y2="5" stroke="#b4c8d8" stroke-opacity="0.5" stroke-width="1" opacity="1"/><line transform="translate(302,0)" x2="0" y2="5" stroke="#b4c8d8" stroke-opacity="0.5" stroke-width="1" opacity="1"/><line transform="translate(340,0)" x2="0" y2="5" stroke="#b4c8d8" stroke-opacity="0.5" stroke-width="1" opacity="1"/><line transform="translate(377,0)" x2="0" y2="5" stroke="#b4c8d8" stroke-opacity="0.5" stroke-width="1" opacity="1"/></g><g class="mark-text role-axis-label" pointer-events="none"><text text-anchor="start" transform="translate(0,15)" font-family="Circular Std Book" font-size="10px" fill="#b4c8d8" fill-opacity="0.7" opacity="1">1970</text><text text-anchor="middle" transform="translate(37.735849056603776,15)" font-family="Circular Std Book" font-size="10px" fill="#b4c8d8" fill-opacity="0.7" opacity="1">1975</text><text text-anchor="middle" transform="translate(75.47169811320755,15)" font-family="Circular Std Book" font-size="10px" fill="#b4c8d8" fill-opacity="0.7" opacity="1">1980</text><text text-anchor="middle" transform="translate(113.20754716981132,15)" font-family="Circular Std Book" font-size="10px" fill="#b4c8d8" fill-opacity="0.7" opacity="1">1985</text><text text-anchor="middle" transform="translate(150.9433962264151,15)" font-family="Circular Std Book" font-size="10px" fill="#b4c8d8" fill-opacity="0.7" opacity="1">1990</text><text text-anchor="middle" transform="translate(188.67924528301887,15)" font-family="Circular Std Book" font-size="10px" fill="#b4c8d8" fill-opacity="0.7" opacity="1">1995</text><text text-anchor="middle" transform="translate(226.41509433962264,15)" font-family="Circular Std Book" font-size="10px" fill="#b4c8d8" fill-opacity="0.7" opacity="1">2000</text><text text-anchor="middle" transform="translate(264.1509433962264,15)" font-family="Circular Std Book" font-size="10px" fill="#b4c8d8" fill-opacity="0.7" opacity="1">2005</text><text text-anchor="middle" transform="translate(301.8867924528302,15)" font-family="Circular Std Book" font-size="10px" fill="#b4c8d8" fill-opacity="0.7" opacity="1">2010</text><text text-anchor="middle" transform="translate(339.62264150943395,15)" font-family="Circular Std Book" font-size="10px" fill="#b4c8d8" fill-opacity="0.7" opacity="1">2015</text><text text-anchor="middle" transform="translate(377.35849056603774,15)" font-family="Circular Std Book" font-size="10px" fill="#b4c8d8" fill-opacity="0.7" opacity="1">2020</text></g><g class="mark-rule role-axis-domain" pointer-events="none"><line transform="translate(0,0)" x2="400" y2="0" stroke="#b4c8d8" stroke-opacity="0.5" stroke-width="1" opacity="1"/></g></g><path class="foreground" aria-hidden="true" d="" pointer-events="none" display="none"/></g></g><g class="mark-group role-axis" role="graphics-symbol" aria-roledescription="axis" aria-label="Y-axis titled 'Transistor count on a single microchip (log scale)' for a log scale with values from 400 to 120G"><g transform="translate(0,0)"><path class="background" aria-hidden="true" d="M0,0h0v0h0Z" pointer-events="none"/><g><g class="mark-text role-axis-label" pointer-events="none"><text text-anchor="end" transform="translate(-5,288.91715288546277)" font-family="Circular Std Book" font-size="10px" fill="#b4c8d8" fill-opacity="0.7" opacity="1">1k</text><text text-anchor="end" transform="translate(-5,253.52778059908968)" font-family="Circular Std Book" font-size="10px" fill="#b4c8d8" fill-opacity="0.7" opacity="1">10k</text><text text-anchor="end" transform="translate(-5,218.13840831271662)" font-family="Circular Std Book" font-size="10px" fill="#b4c8d8" fill-opacity="0.7" opacity="1">100k</text><text text-anchor="end" transform="translate(-5,182.74903602634356)" font-family="Circular Std Book" font-size="10px" fill="#b4c8d8" fill-opacity="0.7" opacity="1">1M</text><text text-anchor="end" transform="translate(-5,147.3596637399705)" font-family="Circular Std Book" font-size="10px" fill="#b4c8d8" fill-opacity="0.7" opacity="1">10M</text><text text-anchor="end" transform="translate(-5,111.97029145359741)" font-family="Circular Std Book" font-size="10px" fill="#b4c8d8" fill-opacity="0.7" opacity="1">100M</text><text text-anchor="end" transform="translate(-5,76.5809191672244)" font-family="Circular Std Book" font-size="10px" fill="#b4c8d8" fill-opacity="0.7" opacity="1">1G</text><text text-anchor="end" transform="translate(-5,41.191546880851334)" font-family="Circular Std Book" font-size="10px" fill="#b4c8d8" fill-opacity="0.7" opacity="1">10G</text><text text-anchor="end" transform="translate(-5,5.802174594478246)" font-family="Circular Std Book" font-size="10px" fill="#b4c8d8" fill-opacity="0.7" opacity="1">100G</text></g><g class="mark-rule role-axis-domain" pointer-events="none"><line transform="translate(0,300)" x2="0" y2="-300" stroke="#b4c8d8" stroke-opacity="0.5" stroke-width="1" opacity="1"/></g><g class="mark-text role-axis-title" pointer-events="none"><text text-anchor="start" transform="translate(0,-10)" font-family="Circular Std Book" font-size="12px" font-weight="normal" fill="#b4c8d8" fill-opacity="0.8" opacity="1">Transistor count on a single microchip (log scale)</text></g></g><path class="foreground" aria-hidden="true" d="" pointer-events="none" display="none"/></g></g><g class="mark-symbol role-mark layer_0_marks" role="graphics-symbol" aria-roledescription="symbol mark container"><path transform="translate(0,0)" d="M4,0A4,4,0,1,1,-4,0A4,4,0,1,1,4,0"/><path transform="translate(0,0)" d="M4,0A4,4,0,1,1,-4,0A4,4,0,1,1,4,0"/><path transform="translate(0,0)" d="M4,0A4,4,0,1,1,-4,0A4,4,0,1,1,4,0"/><path transform="translate(0,0)" d="M4,0A4,4,0,1,1,-4,0A4,4,0,1,1,4,0"/><path transform="translate(0,0)" d="M4,0A4,4,0,1,1,-4,0A4,4,0,1,1,4,0"/><path transform="translate(0,0)" d="M4,0A4,4,0,1,1,-4,0A4,4,0,1,1,4,0"/><path transform="translate(0,0)" d="M4,0A4,4,0,1,1,-4,0A4,4,0,1,1,4,0"/><path transform="translate(0,0)" d="M4,0A4,4,0,1,1,-4,0A4,4,0,1,1,4,0"/><path transform="translate(0,0)" d="M4,0A4,4,0,1,1,-4,0A4,4,0,1,1,4,0"/><path transform="translate(0,0)" d="M4,0A4,4,0,1,1,-4,0A4,4,0,1,1,4,0"/><path transform="translate(0,0)" d="M4,0A4,4,0,1,1,-4,0A4,4,0,1,1,4,0"/><path transform="translate(0,0)" d="M4,0A4,4,0,1,1,-4,0A4,4,0,1,1,4,0"/><path transform="translate(0,0)" d="M4,0A4,4,0,1,1,-4,0A4,4,0,1,1,4,0"/><path transform="translate(0,0)" d="M4,0A4,4,0,1,1,-4,0A4,4,0,1,1,4,0"/><path transform="translate(0,0)" d="M4,0A4,4,0,1,1,-4,0A4,4,0,1,1,4,0"/><path transform="translate(0,0)" d="M4,0A4,4,0,1,1,-4,0A4,4,0,1,1,4,0"/><path transform="translate(0,0)" d="M4,0A4,4,0,1,1,-4,0A4,4,0,1,1,4,0"/><path transform="translate(0,0)" d="M4,0A4,4,0,1,1,-4,0A4,4,0,1,1,4,0"/><path transform="translate(0,0)" d="M4,0A4,4,0,1,1,-4,0A4,4,0,1,1,4,0"/><path transform="translate(0,0)" d="M4,0A4,4,0,1,1,-4,0A4,4,0,1,1,4,0"/><path transform="translate(0,0)" d="M4,0A4,4,0,1,1,-4,0A4,4,0,1,1,4,0"/><path transform="translate(0,0)" d="M4,0A4,4,0,1,1,-4,0A4,4,0,1,1,4,0"/><path transform="translate(0,0)" d="M4,0A4,4,0,1,1,-4,0A4,4,0,1,1,4,0"/><path transform="translate(0,0)" d="M4,0A4,4,0,1,1,-4,0A4,4,0,1,1,4,0"/><path transform="translate(0,0)" d="M4,0A4,4,0,1,1,-4,0A4,4,0,1,1,4,0"/><path transform="translate(0,0)" d="M4,0A4,4,0,1,1,-4,0A4,4,0,1,1,4,0"/><path transform="translate(0,0)" d="M4,0A4,4,0,1,1,-4,0A4,4,0,1,1,4,0"/><path transform="translate(0,0)" d="M4,0A4,4,0,1,1,-4,0A4,4,0,1,1,4,0"/><path transform="translate(0,0)" d="M4,0A4,4,0,1,1,-4,0A4,4,0,1,1,4,0"/><path transform="translate(0,0)" d="M4,0A4,4,0,1,1,-4,0A4,4,0,1,1,4,0"/><path transform="translate(0,0)" d="M4,0A4,4,0,1,1,-4,0A4,4,0,1,1,4,0"/><path transform="translate(0,0)" d="M4,0A4,4,0,1,1,-4,0A4,4,0,1,1,4,0"/><path transform="translate(0,0)" d="M4,0A4,4,0,1,1,-4,0A4,4,0,1,1,4,0"/><path transform="translate(0,0)" d="M4,0A4,4,0,1,1,-4,0A4,4,0,1,1,4,0"/><path transform="translate(0,0)" d="M4,0A4,4,0,1,1,-4,0A4,4,0,1,1,4,0"/><path transform="translate(0,0)" d="M4,0A4,4,0,1,1,-4,0A4,4,0,1,1,4,0"/><path transform="translate(0,0)" d="M4,0A4,4,0,1,1,-4,0A4,4,0,1,1,4,0"/><path transform="translate(0,0)" d="M4,0A4,4,0,1,1,-4,0A4,4,0,1,1,4,0"/><path transform="translate(0,0)" d="M4,0A4,4,0,1,1,-4,0A4,4,0,1,1,4,0"/><path transform="translate(0,0)" d="M4,0A4,4,0,1,1,-4,0A4,4,0,1,1,4,0"/><path transform="translate(0,0)" d="M4,0A4,4,0,1,1,-4,0A4,4,0,1,1,4,0"/><path transform="translate(0,0)" d="M4,0A4,4,0,1,1,-4,0A4,4,0,1,1,4,0"/><path transform="translate(0,0)" d="M4,0A4,4,0,1,1,-4,0A4,4,0,1,1,4,0"/><path transform="translate(0,0)" d="M4,0A4,4,0,1,1,-4,0A4,4,0,1,1,4,0"/><path transform="translate(0,0)" d="M4,0A4,4,0,1,1,-4,0A4,4,0,1,1,4,0"/><path transform="translate(0,0)" d="M4,0A4,4,0,1,1,-4,0A4,4,0,1,1,4,0"/><path transform="translate(0,0)" d="M4,0A4,4,0,1,1,-4,0A4,4,0,1,1,4,0"/><path transform="translate(0,0)" d="M4,0A4,4,0,1,1,-4,0A4,4,0,1,1,4,0"/><path transform="translate(0,0)" d="M4,0A4,4,0,1,1,-4,0A4,4,0,1,1,4,0"/><path transform="translate(0,0)" d="M4,0A4,4,0,1,1,-4,0A4,4,0,1,1,4,0"/><path transform="translate(0,0)" d="M4,0A4,4,0,1,1,-4,0A4,4,0,1,1,4,0"/><path transform="translate(0,0)" d="M4,0A4,4,0,1,1,-4,0A4,4,0,1,1,4,0"/><path transform="translate(0,0)" d="M4,0A4,4,0,1,1,-4,0A4,4,0,1,1,4,0"/><path transform="translate(0,0)" d="M4,0A4,4,0,1,1,-4,0A4,4,0,1,1,4,0"/><path transform="translate(0,0)" d="M4,0A4,4,0,1,1,-4,0A4,4,0,1,1,4,0"/><path transform="translate(0,0)" d="M4,0A4,4,0,1,1,-4,0A4,4,0,1,1,4,0"/><path transform="translate(0,0)" d="M4,0A4,4,0,1,1,-4,0A4,4,0,1,1,4,0"/><path transform="translate(0,0)" d="M4,0A4,4,0,1,1,-4,0A4,4,0,1,1,4,0"/><path transform="translate(0,0)" d="M4,0A4,4,0,1,1,-4,0A4,4,0,1,1,4,0"/><path transform="translate(0,0)" d="M4,0A4,4,0,1,1,-4,0A4,4,0,1,1,4,0"/><path transform="translate(0,0)" d="M4,0A4,4,0,1,1,-4,0A4,4,0,1,1,4,0"/><path transform="translate(0,0)" d="M4,0A4,4,0,1,1,-4,0A4,4,0,1,1,4,0"/><path transform="translate(0,0)" d="M4,0A4,4,0,1,1,-4,0A4,4,0,1,1,4,0"/><path transform="translate(0,0)" d="M4,0A4,4,0,1,1,-4,0A4,4,0,1,1,4,0"/><path transform="translate(0,0)" d="M4,0A4,4,0,1,1,-4,0A4,4,0,1,1,4,0"/><path transform="translate(0,0)" d="M4,0A4,4,0,1,1,-4,0A4,4,0,1,1,4,0"/><path transform="translate(0,0)" d="M4,0A4,4,0,1,1,-4,0A4,4,0,1,1,4,0"/><path transform="translate(0,0)" d="M4,0A4,4,0,1,1,-4,0A4,4,0,1,1,4,0"/><path transform="translate(0,0)" d="M4,0A4,4,0,1,1,-4,0A4,4,0,1,1,4,0"/><path transform="translate(0,0)" d="M4,0A4,4,0,1,1,-4,0A4,4,0,1,1,4,0"/><path transform="translate(0,0)" d="M4,0A4,4,0,1,1,-4,0A4,4,0,1,1,4,0"/><path transform="translate(0,0)" d="M4,0A4,4,0,1,1,-4,0A4,4,0,1,1,4,0"/><path transform="translate(0,0)" d="M4,0A4,4,0,1,1,-4,0A4,4,0,1,1,4,0"/><path transform="translate(0,0)" d="M4,0A4,4,0,1,1,-4,0A4,4,0,1,1,4,0"/><path transform="translate(0,0)" d="M4,0A4,4,0,1,1,-4,0A4,4,0,1,1,4,0"/><path transform="translate(0,0)" d="M4,0A4,4,0,1,1,-4,0A4,4,0,1,1,4,0"/><path transform="translate(0,0)" d="M4,0A4,4,0,1,1,-4,0A4,4,0,1,1,4,0"/><path transform="translate(0,0)" d="M4,0A4,4,0,1,1,-4,0A4,4,0,1,1,4,0"/><path transform="translate(0,0)" d="M4,0A4,4,0,1,1,-4,0A4,4,0,1,1,4,0"/><path transform="translate(0,0)" d="M4,0A4,4,0,1,1,-4,0A4,4,0,1,1,4,0"/><path transform="translate(0,0)" d="M4,0A4,4,0,1,1,-4,0A4,4,0,1,1,4,0"/><path transform="translate(0,0)" d="M4,0A4,4,0,1,1,-4,0A4,4,0,1,1,4,0"/><path transform="translate(0,0)" d="M4,0A4,4,0,1,1,-4,0A4,4,0,1,1,4,0"/><path transform="translate(0,0)" d="M4,0A4,4,0,1,1,-4,0A4,4,0,1,1,4,0"/><path transform="translate(0,0)" d="M4,0A4,4,0,1,1,-4,0A4,4,0,1,1,4,0"/><path transform="translate(0,0)" d="M4,0A4,4,0,1,1,-4,0A4,4,0,1,1,4,0"/><path transform="translate(0,0)" d="M4,0A4,4,0,1,1,-4,0A4,4,0,1,1,4,0"/><path transform="translate(0,0)" d="M4,0A4,4,0,1,1,-4,0A4,4,0,1,1,4,0"/><path transform="translate(0,0)" d="M4,0A4,4,0,1,1,-4,0A4,4,0,1,1,4,0"/><path transform="translate(0,0)" d="M4,0A4,4,0,1,1,-4,0A4,4,0,1,1,4,0"/><path transform="translate(0,0)" d="M4,0A4,4,0,1,1,-4,0A4,4,0,1,1,4,0"/><path transform="translate(0,0)" d="M4,0A4,4,0,1,1,-4,0A4,4,0,1,1,4,0"/><path transform="translate(0,0)" d="M4,0A4,4,0,1,1,-4,0A4,4,0,1,1,4,0"/><path transform="translate(0,0)" d="M4,0A4,4,0,1,1,-4,0A4,4,0,1,1,4,0"/><path transform="translate(0,0)" d="M4,0A4,4,0,1,1,-4,0A4,4,0,1,1,4,0"/><path transform="translate(0,0)" d="M4,0A4,4,0,1,1,-4,0A4,4,0,1,1,4,0"/><path transform="translate(0,0)" d="M4,0A4,4,0,1,1,-4,0A4,4,0,1,1,4,0"/><path transform="translate(0,0)" d="M4,0A4,4,0,1,1,-4,0A4,4,0,1,1,4,0"/><path transform="translate(0,0)" d="M4,0A4,4,0,1,1,-4,0A4,4,0,1,1,4,0"/><path transform="translate(0,0)" d="M4,0A4,4,0,1,1,-4,0A4,4,0,1,1,4,0"/><path transform="translate(0,0)" d="M4,0A4,4,0,1,1,-4,0A4,4,0,1,1,4,0"/><path transform="translate(0,0)" d="M4,0A4,4,0,1,1,-4,0A4,4,0,1,1,4,0"/><path transform="translate(0,0)" d="M4,0A4,4,0,1,1,-4,0A4,4,0,1,1,4,0"/><path transform="translate(0,0)" d="M4,0A4,4,0,1,1,-4,0A4,4,0,1,1,4,0"/><path transform="translate(0,0)" d="M4,0A4,4,0,1,1,-4,0A4,4,0,1,1,4,0"/><path transform="translate(0,0)" d="M4,0A4,4,0,1,1,-4,0A4,4,0,1,1,4,0"/><path transform="translate(0,0)" d="M4,0A4,4,0,1,1,-4,0A4,4,0,1,1,4,0"/><path transform="translate(0,0)" d="M4,0A4,4,0,1,1,-4,0A4,4,0,1,1,4,0"/><path transform="translate(0,0)" d="M4,0A4,4,0,1,1,-4,0A4,4,0,1,1,4,0"/><path transform="translate(0,0)" d="M4,0A4,4,0,1,1,-4,0A4,4,0,1,1,4,0"/><path transform="translate(0,0)" d="M4,0A4,4,0,1,1,-4,0A4,4,0,1,1,4,0"/><path transform="translate(0,0)" d="M4,0A4,4,0,1,1,-4,0A4,4,0,1,1,4,0"/><path transform="translate(0,0)" d="M4,0A4,4,0,1,1,-4,0A4,4,0,1,1,4,0"/><path transform="translate(0,0)" d="M4,0A4,4,0,1,1,-4,0A4,4,0,1,1,4,0"/><path transform="translate(0,0)" d="M4,0A4,4,0,1,1,-4,0A4,4,0,1,1,4,0"/><path transform="translate(0,0)" d="M4,0A4,4,0,1,1,-4,0A4,4,0,1,1,4,0"/><path transform="translate(0,0)" d="M4,0A4,4,0,1,1,-4,0A4,4,0,1,1,4,0"/><path transform="translate(0,0)" d="M4,0A4,4,0,1,1,-4,0A4,4,0,1,1,4,0"/><path transform="translate(0,0)" d="M4,0A4,4,0,1,1,-4,0A4,4,0,1,1,4,0"/><path transform="translate(0,0)" d="M4,0A4,4,0,1,1,-4,0A4,4,0,1,1,4,0"/><path transform="translate(0,0)" d="M4,0A4,4,0,1,1,-4,0A4,4,0,1,1,4,0"/><path transform="translate(0,0)" d="M4,0A4,4,0,1,1,-4,0A4,4,0,1,1,4,0"/><path transform="translate(0,0)" d="M4,0A4,4,0,1,1,-4,0A4,4,0,1,1,4,0"/><path transform="translate(0,0)" d="M4,0A4,4,0,1,1,-4,0A4,4,0,1,1,4,0"/><path transform="translate(0,0)" d="M4,0A4,4,0,1,1,-4,0A4,4,0,1,1,4,0"/><path transform="translate(0,0)" d="M4,0A4,4,0,1,1,-4,0A4,4,0,1,1,4,0"/><path transform="translate(0,0)" d="M4,0A4,4,0,1,1,-4,0A4,4,0,1,1,4,0"/><path transform="translate(0,0)" d="M4,0A4,4,0,1,1,-4,0A4,4,0,1,1,4,0"/><path transform="translate(0,0)" d="M4,0A4,4,0,1,1,-4,0A4,4,0,1,1,4,0"/><path transform="translate(0,0)" d="M4,0A4,4,0,1,1,-4,0A4,4,0,1,1,4,0"/><path transform="translate(0,0)" d="M4,0A4,4,0,1,1,-4,0A4,4,0,1,1,4,0"/><path transform="translate(0,0)" d="M4,0A4,4,0,1,1,-4,0A4,4,0,1,1,4,0"/><path transform="translate(0,0)" d="M4,0A4,4,0,1,1,-4,0A4,4,0,1,1,4,0"/><path transform="translate(0,0)" d="M4,0A4,4,0,1,1,-4,0A4,4,0,1,1,4,0"/><path transform="translate(0,0)" d="M4,0A4,4,0,1,1,-4,0A4,4,0,1,1,4,0"/><path transform="translate(0,0)" d="M4,0A4,4,0,1,1,-4,0A4,4,0,1,1,4,0"/><path transform="translate(0,0)" d="M4,0A4,4,0,1,1,-4,0A4,4,0,1,1,4,0"/><path transform="translate(0,0)" d="M4,0A4,4,0,1,1,-4,0A4,4,0,1,1,4,0"/><path transform="translate(0,0)" d="M4,0A4,4,0,1,1,-4,0A4,4,0,1,1,4,0"/><path transform="translate(0,0)" d="M4,0A4,4,0,1,1,-4,0A4,4,0,1,1,4,0"/><path transform="translate(0,0)" d="M4,0A4,4,0,1,1,-4,0A4,4,0,1,1,4,0"/><path transform="translate(0,0)" d="M4,0A4,4,0,1,1,-4,0A4,4,0,1,1,4,0"/><path transform="translate(0,0)" d="M4,0A4,4,0,1,1,-4,0A4,4,0,1,1,4,0"/><path transform="translate(0,0)" d="M4,0A4,4,0,1,1,-4,0A4,4,0,1,1,4,0"/><path transform="translate(0,0)" d="M4,0A4,4,0,1,1,-4,0A4,4,0,1,1,4,0"/><path transform="translate(0,0)" d="M4,0A4,4,0,1,1,-4,0A4,4,0,1,1,4,0"/><path transform="translate(0,0)" d="M4,0A4,4,0,1,1,-4,0A4,4,0,1,1,4,0"/><path transform="translate(0,0)" d="M4,0A4,4,0,1,1,-4,0A4,4,0,1,1,4,0"/><path transform="translate(0,0)" d="M4,0A4,4,0,1,1,-4,0A4,4,0,1,1,4,0"/><path transform="translate(0,0)" d="M4,0A4,4,0,1,1,-4,0A4,4,0,1,1,4,0"/><path transform="translate(0,0)" d="M4,0A4,4,0,1,1,-4,0A4,4,0,1,1,4,0"/><path transform="translate(0,0)" d="M4,0A4,4,0,1,1,-4,0A4,4,0,1,1,4,0"/><path transform="translate(0,0)" d="M4,0A4,4,0,1,1,-4,0A4,4,0,1,1,4,0"/><path transform="translate(0,0)" d="M4,0A4,4,0,1,1,-4,0A4,4,0,1,1,4,0"/><path transform="translate(0,0)" d="M4,0A4,4,0,1,1,-4,0A4,4,0,1,1,4,0"/><path transform="translate(0,0)" d="M4,0A4,4,0,1,1,-4,0A4,4,0,1,1,4,0"/><path transform="translate(0,0)" d="M4,0A4,4,0,1,1,-4,0A4,4,0,1,1,4,0"/><path transform="translate(0,0)" d="M4,0A4,4,0,1,1,-4,0A4,4,0,1,1,4,0"/><path transform="translate(0,0)" d="M4,0A4,4,0,1,1,-4,0A4,4,0,1,1,4,0"/><path transform="translate(0,0)" d="M4,0A4,4,0,1,1,-4,0A4,4,0,1,1,4,0"/><path transform="translate(0,0)" d="M4,0A4,4,0,1,1,-4,0A4,4,0,1,1,4,0"/><path transform="translate(0,0)" d="M4,0A4,4,0,1,1,-4,0A4,4,0,1,1,4,0"/><path transform="translate(0,0)" d="M4,0A4,4,0,1,1,-4,0A4,4,0,1,1,4,0"/><path transform="translate(0,0)" d="M4,0A4,4,0,1,1,-4,0A4,4,0,1,1,4,0"/><path transform="translate(0,0)" d="M4,0A4,4,0,1,1,-4,0A4,4,0,1,1,4,0"/><path transform="translate(0,0)" d="M4,0A4,4,0,1,1,-4,0A4,4,0,1,1,4,0"/><path transform="translate(0,0)" d="M4,0A4,4,0,1,1,-4,0A4,4,0,1,1,4,0"/><path transform="translate(0,0)" d="M4,0A4,4,0,1,1,-4,0A4,4,0,1,1,4,0"/><path transform="translate(0,0)" d="M4,0A4,4,0,1,1,-4,0A4,4,0,1,1,4,0"/><path transform="translate(0,0)" d="M4,0A4,4,0,1,1,-4,0A4,4,0,1,1,4,0"/><path transform="translate(0,0)" d="M4,0A4,4,0,1,1,-4,0A4,4,0,1,1,4,0"/><path transform="translate(0,0)" d="M4,0A4,4,0,1,1,-4,0A4,4,0,1,1,4,0"/><path transform="translate(0,0)" d="M4,0A4,4,0,1,1,-4,0A4,4,0,1,1,4,0"/><path transform="translate(0,0)" d="M4,0A4,4,0,1,1,-4,0A4,4,0,1,1,4,0"/><path transform="translate(0,0)" d="M4,0A4,4,0,1,1,-4,0A4,4,0,1,1,4,0"/><path transform="translate(0,0)" d="M4,0A4,4,0,1,1,-4,0A4,4,0,1,1,4,0"/><path transform="translate(0,0)" d="M4,0A4,4,0,1,1,-4,0A4,4,0,1,1,4,0"/><path transform="translate(0,0)" d="M4,0A4,4,0,1,1,-4,0A4,4,0,1,1,4,0"/><path transform="translate(0,0)" d="M4,0A4,4,0,1,1,-4,0A4,4,0,1,1,4,0"/><path transform="translate(0,0)" d="M4,0A4,4,0,1,1,-4,0A4,4,0,1,1,4,0"/><path transform="translate(0,0)" d="M4,0A4,4,0,1,1,-4,0A4,4,0,1,1,4,0"/><path transform="translate(0,0)" d="M4,0A4,4,0,1,1,-4,0A4,4,0,1,1,4,0"/><path transform="translate(0,0)" d="M4,0A4,4,0,1,1,-4,0A4,4,0,1,1,4,0"/><path transform="translate(0,0)" d="M4,0A4,4,0,1,1,-4,0A4,4,0,1,1,4,0"/><path transform="translate(0,0)" d="M4,0A4,4,0,1,1,-4,0A4,4,0,1,1,4,0"/><path transform="translate(0,0)" d="M4,0A4,4,0,1,1,-4,0A4,4,0,1,1,4,0"/><path transform="translate(0,0)" d="M4,0A4,4,0,1,1,-4,0A4,4,0,1,1,4,0"/><path transform="translate(0,0)" d="M4,0A4,4,0,1,1,-4,0A4,4,0,1,1,4,0"/><path transform="translate(0,0)" d="M4,0A4,4,0,1,1,-4,0A4,4,0,1,1,4,0"/><path transform="translate(0,0)" d="M4,0A4,4,0,1,1,-4,0A4,4,0,1,1,4,0"/><path transform="translate(0,0)" d="M4,0A4,4,0,1,1,-4,0A4,4,0,1,1,4,0"/><path transform="translate(0,0)" d="M4,0A4,4,0,1,1,-4,0A4,4,0,1,1,4,0"/><path transform="translate(0,0)" d="M4,0A4,4,0,1,1,-4,0A4,4,0,1,1,4,0"/><path transform="translate(0,0)" d="M4,0A4,4,0,1,1,-4,0A4,4,0,1,1,4,0"/><path transform="translate(0,0)" d="M4,0A4,4,0,1,1,-4,0A4,4,0,1,1,4,0"/><path transform="translate(0,0)" d="M4,0A4,4,0,1,1,-4,0A4,4,0,1,1,4,0"/><path transform="translate(0,0)" d="M4,0A4,4,0,1,1,-4,0A4,4,0,1,1,4,0"/><path transform="translate(0,0)" d="M4,0A4,4,0,1,1,-4,0A4,4,0,1,1,4,0"/><path transform="translate(0,0)" d="M4,0A4,4,0,1,1,-4,0A4,4,0,1,1,4,0"/><path transform="translate(0,0)" d="M4,0A4,4,0,1,1,-4,0A4,4,0,1,1,4,0"/><path transform="translate(0,0)" d="M4,0A4,4,0,1,1,-4,0A4,4,0,1,1,4,0"/><path transform="translate(0,0)" d="M4,0A4,4,0,1,1,-4,0A4,4,0,1,1,4,0"/><path transform="translate(0,0)" d="M4,0A4,4,0,1,1,-4,0A4,4,0,1,1,4,0"/><path transform="translate(0,0)" d="M4,0A4,4,0,1,1,-4,0A4,4,0,1,1,4,0"/><path transform="translate(0,0)" d="M4,0A4,4,0,1,1,-4,0A4,4,0,1,1,4,0"/><path transform="translate(0,0)" d="M4,0A4,4,0,1,1,-4,0A4,4,0,1,1,4,0"/><path transform="translate(0,0)" d="M4,0A4,4,0,1,1,-4,0A4,4,0,1,1,4,0"/><path transform="translate(0,0)" d="M4,0A4,4,0,1,1,-4,0A4,4,0,1,1,4,0"/><path transform="translate(0,0)" d="M4,0A4,4,0,1,1,-4,0A4,4,0,1,1,4,0"/><path transform="translate(0,0)" d="M4,0A4,4,0,1,1,-4,0A4,4,0,1,1,4,0"/><path transform="translate(0,0)" d="M4,0A4,4,0,1,1,-4,0A4,4,0,1,1,4,0"/><path transform="translate(0,0)" d="M4,0A4,4,0,1,1,-4,0A4,4,0,1,1,4,0"/><path transform="translate(0,0)" d="M4,0A4,4,0,1,1,-4,0A4,4,0,1,1,4,0"/><path transform="translate(0,0)" d="M4,0A4,4,0,1,1,-4,0A4,4,0,1,1,4,0"/><path transform="translate(0,0)" d="M4,0A4,4,0,1,1,-4,0A4,4,0,1,1,4,0"/><path transform="translate(0,0)" d="M4,0A4,4,0,1,1,-4,0A4,4,0,1,1,4,0"/><path transform="translate(0,0)" d="M4,0A4,4,0,1,1,-4,0A4,4,0,1,1,4,0"/><path transform="translate(0,0)" d="M4,0A4,4,0,1,1,-4,0A4,4,0,1,1,4,0"/><path transform="translate(0,0)" d="M4,0A4,4,0,1,1,-4,0A4,4,0,1,1,4,0"/><path transform="translate(0,0)" d="M4,0A4,4,0,1,1,-4,0A4,4,0,1,1,4,0"/><path transform="translate(0,0)" d="M4,0A4,4,0,1,1,-4,0A4,4,0,1,1,4,0"/><path transform="translate(0,0)" d="M4,0A4,4,0,1,1,-4,0A4,4,0,1,1,4,0"/><path transform="translate(0,0)" d="M4,0A4,4,0,1,1,-4,0A4,4,0,1,1,4,0"/><path transform="translate(0,0)" d="M4,0A4,4,0,1,1,-4,0A4,4,0,1,1,4,0"/><path transform="translate(0,0)" d="M4,0A4,4,0,1,1,-4,0A4,4,0,1,1,4,0"/><path transform="translate(0,0)" d="M4,0A4,4,0,1,1,-4,0A4,4,0,1,1,4,0"/><path transform="translate(0,0)" d="M4,0A4,4,0,1,1,-4,0A4,4,0,1,1,4,0"/><path transform="translate(0,0)" d="M4,0A4,4,0,1,1,-4,0A4,4,0,1,1,4,0"/><path transform="translate(0,0)" d="M4,0A4,4,0,1,1,-4,0A4,4,0,1,1,4,0"/><path transform="translate(0,0)" d="M4,0A4,4,0,1,1,-4,0A4,4,0,1,1,4,0"/><path transform="translate(0,0)" d="M4,0A4,4,0,1,1,-4,0A4,4,0,1,1,4,0"/><path transform="translate(0,0)" d="M4,0A4,4,0,1,1,-4,0A4,4,0,1,1,4,0"/></g><g class="mark-text role-mark layer_1_marks" role="graphics-object" aria-roledescription="text mark container"><text text-anchor="middle" transform="translate(200,153)" font-family="Circular Std Book" font-size="11px" fill="black"/></g></g><path class="foreground" aria-hidden="true" d="" display="none"/></g></g></g></svg>