<svg xmlns="http://www.w3.org/2000/svg" xmlns:xlink="http://www.w3.org/1999/xlink" version="1.1" class="marks" width="507" height="396" viewBox="0 0 507 396"><rect width="507" height="396" fill="#122B39"/><g fill="none" stroke-miterlimit="10" transform="translate(29,51)"><g class="mark-group role-frame root" role="graphics-object" aria-roledescription="group mark container"><g transform="translate(0,0)"><path class="background" aria-hidden="true" d="M0,0h400v300h-400Z"/><g><g class="mark-group role-axis" aria-hidden="true"><g transform="translate(0.5,300.5)"><path class="background" aria-hidden="true" d="M0,0h0v0h0Z" pointer-events="none"/><g><g class="mark-rule role-axis-grid" pointer-events="none"><line transform="translate(0,-300)" x2="0" y2="300" stroke="#b4c8d8" stroke-opacity="0.5" stroke-width="1" stroke-dasharray="1,5" opacity="1"/><line transform="translate(27,-300)" x2="0" y2="300" stroke="#b4c8d8" stroke-opacity="0.5" stroke-width="1" stroke-dasharray="1,5" opacity="1"/><line transform="translate(53,-300)" x2="0" y2="300" stroke="#b4c8d8" stroke-opacity="0.5" stroke-width="1" stroke-dasharray="1,5" opacity="1"/><line transform="translate(80,-300)" x2="0" y2="300" stroke="#b4c8d8" stroke-opacity="0.5" stroke-width="1" stroke-dasharray="1,5" opacity="1"/><line transform="translate(107,-300)" x2="0" y2="300" stroke="#b4c8d8" stroke-opacity="0.5" stroke-width="1" stroke-dasharray="1,5" opacity="1"/><line transform="translate(133,-300)" x2="0" y2="300" stroke="#b4c8d8" stroke-opacity="0.5" stroke-width="1" stroke-dasharray="1,5" opacity="1"/><line transform="translate(160,-300)" x2="0" y2="300" stroke="#b4c8d8" stroke-opacity="0.5" stroke-width="1" stroke-dasharray="1,5" opacity="1"/><line transform="translate(187,-300)" x2="0" y2="300" stroke="#b4c8d8" stroke-opacity="0.5" stroke-width="1" stroke-dasharray="1,5" opacity="1"/><line transform="translate(213,-300)" x2="0" y2="300" stroke="#b4c8d8" stroke-opacity="0.5" stroke-width="1" stroke-dasharray="1,5" opacity="1"/><line transform="translate(240,-300)" x2="0" y2="300" stroke="#b4c8d8" stroke-opacity="0.5" stroke-width="1" stroke-dasharray="1,5" opacity="1"/><line transform="translate(267,-300)" x2="0" y2="300" stroke="#b4c8d8" stroke-opacity="0.5" stroke-width="1" stroke-dasharray="1,5" opacity="1"/><line transform="translate(293,-300)" x2="0" y2="300" stroke="#b4c8d8" stroke-opacity="0.5" stroke-width="1" stroke-dasharray="1,5" opacity="1"/><line transform="translate(320,-300)" x2="0" y2="300" stroke="#b4c8d8" stroke-opacity="0.5" stroke-width="1" stroke-dasharray="1,5" opacity="1"/><line transform="translate(347,-300)" x2="0" y2="300" stroke="#b4c8d8" stroke-opacity="0.5" stroke-width="1" stroke-dasharray="1,5" opacity="1"/><line transform="translate(373,-300)" x2="0" y2="300" stroke="#b4c8d8" stroke-opacity="0.5" stroke-width="1" stroke-dasharray="1,5" opacity="1"/><line transform="translate(400,-300)" x2="0" y2="300" stroke="#b4c8d8" stroke-opacity="0.5" stroke-width="1" stroke-dasharray="1,5" opacity="1"/></g></g><path class="foreground" aria-hidden="true" d="" pointer-events="none" display="none"/></g></g><g class="mark-group role-axis" aria-hidden="true"><g transform="translate(0.5,0.5)"><path class="background" aria-hidden="true" d="M0,0h0v0h0Z" pointer-events="none"/><g><g class="mark-rule role-axis-grid" pointer-events="none"><line transform="translate(0,300)" x2="400" y2="0" stroke="#b4c8d8" stroke-opacity="0.5" stroke-width="1" stroke-dasharray="1,5" opacity="1"/><line transform="translate(0,263)" x2="400" y2="0" stroke="#b4c8d8" stroke-opacity="0.5" stroke-width="1" stroke-dasharray="1,5" opacity="1"/><line transform="translate(0,225)" x2="400" y2="0" stroke="#b4c8d8" stroke-opacity="0.5" stroke-width="1" stroke-dasharray="1,5" opacity="1"/><line transform="translate(0,188)" x2="400" y2="0" stroke="#b4c8d8" stroke-opacity="0.5" stroke-width="1" stroke-dasharray="1,5" opacity="1"/><line transform="translate(0,150)" x2="400" y2="0" stroke="#b4c8d8" stroke-opacity="0.5" stroke-width="1" stroke-dasharray="1,5" opacity="1"/><line transform="translate(0,113)" x2="400" y2="0" stroke="#b4c8d8" stroke-opacity="0.5" stroke-width="1" stroke-dasharray="1,5" opacity="1"/><line transform="translate(0,75)" x2="400" y2="0" stroke="#b4c8d8" stroke-opacity="0.5" stroke-width="1" stroke-dasharray="1,5" opacity="1"/><line transform="translate(0,38)" x2="400" y2="0" stroke="#b4c8d8" stroke-opacity="0.5" stroke-width="1" stroke-dasharray="1,5" opacity="1"/><line transform="translate(0,0)" x2="400" y2="0" stroke="#b4c8d8" stroke-opacity="0.5" stroke-width="1" stroke-dasharray="1,5" opacity="1"/></g></g><path class="foreground" aria-hidden="true" d="" pointer-events="none" display="none"/></g></g><g class="mark-group role-axis" role="graphics-symbol" aria-roledescription="axis" aria-label="X-axis titled '(projection)' for a linear scale with values from 1760 to 2060"><g transform="translate(0.5,300.5)"><path class="background" aria-hidden="true" d="M0,0h0v0h0Z" pointer-events="none"/><g><g class="mark-rule role-axis-tick" pointer-events="none"><line transform="translate(0,0)" x2="0" y2="5" stroke="#b4c8d8" stroke-opacity="0.5" stroke-width="1" opacity="1"/><line transform="translate(27,0)" x2="0" y2="5" stroke="#b4c8d8" stroke-opacity="0.5" stroke-width="1" opacity="1"/><line transform="translate(53,0)" x2="0" y2="5" stroke="#b4c8d8" stroke-opacity="0.5" stroke-width="1" opacity="1"/><line transform="translate(80,0)" x2="0" y2="5" stroke="#b4c8d8" stroke-opacity="0.5" stroke-width="1" opacity="1"/><line transform="translate(107,0)" x2="0" y2="5" stroke="#b4c8d8" stroke-opacity="0.5" stroke-width="1" opacity="1"/><line transform="translate(133,0)" x2="0" y2="5" stroke="#b4c8d8" stroke-opacity="0.5" stroke-width="1" opacity="1"/><line transform="translate(160,0)" x2="0" y2="5" stroke="#b4c8d8" stroke-opacity="0.5" stroke-width="1" opacity="1"/><line transform="translate(187,0)" x2="0" y2="5" stroke="#b4c8d8" stroke-opacity="0.5" stroke-width="1" opacity="1"/><line transform="translate(213,0)" x2="0" y2="5" stroke="#b4c8d8" stroke-opacity="0.5" stroke-width="1" opacity="1"/><line transform="translate(240,0)" x2="0" y2="5" stroke="#b4c8d8" stroke-opacity="0.5" stroke-width="1" opacity="1"/><line transform="translate(267,0)" x2="0" y2="5" stroke="#b4c8d8" stroke-opacity="0.5" stroke-width="1" opacity="1"/><line transform="translate(293,0)" x2="0" y2="5" stroke="#b4c8d8" stroke-opacity="0.5" stroke-width="1" opacity="1"/><line transform="translate(320,0)" x2="0" y2="5" stroke="#b4c8d8" stroke-opacity="0.5" stroke-width="1" opacity="1"/><line transform="translate(347,0)" x2="0" y2="5" stroke="#b4c8d8" stroke-opacity="0.5" stroke-width="1" opacity="1"/><line transform="translate(373,0)" x2="0" y2="5" stroke="#b4c8d8" stroke-opacity="0.5" stroke-width="1" opacity="1"/><line transform="translate(400,0)" x2="0" y2="5" stroke="#b4c8d8" stroke-opacity="0.5" stroke-width="1" opacity="1"/></g><g class="mark-text role-axis-label" pointer-events="none"><text text-anchor="start" transform="translate(0,15)" font-family="Circular Std Book" font-size="10px" fill="#b4c8d8" fill-opacity="0.7" opacity="1">1760</text><text text-anchor="middle" transform="translate(26.666666666666668,15)" font-family="Circular Std Book" font-size="10px" fill="#b4c8d8" fill-opacity="0.7" opacity="0">1780</text><text text-anchor="middle" transform="translate(53.333333333333336,15)" font-family="Circular Std Book" font-size="10px" fill="#b4c8d8" fill-opacity="0.7" opacity="1">1800</text><text text-anchor="middle" transform="translate(80,15)" font-family="Circular Std Book" font-size="10px" fill="#b4c8d8" fill-opacity="0.7" opacity="0">1820</text><text text-anchor="middle" transform="translate(106.66666666666667,15)" font-family="Circular Std Book" font-size="10px" fill="#b4c8d8" fill-opacity="0.7" opacity="1">1840</text><text text-anchor="middle" transform="translate(133.33333333333331,15)" font-family="Circular Std Book" font-size="10px" fill="#b4c8d8" fill-opacity="0.7" opacity="0">1860</text><text text-anchor="middle" transform="translate(160,15)" font-family="Circular Std Book" font-size="10px" fill="#b4c8d8" fill-opacity="0.7" opacity="1">1880</text><text text-anchor="middle" transform="translate(186.66666666666666,15)" font-family="Circular Std Book" font-size="10px" fill="#b4c8d8" fill-opacity="0.7" opacity="0">1900</text><text text-anchor="middle" transform="translate(213.33333333333334,15)" font-family="Circular Std Book" font-size="10px" fill="#b4c8d8" fill-opacity="0.7" opacity="1">1920</text><text text-anchor="middle" transform="translate(240,15)" font-family="Circular Std Book" font-size="10px" fill="#b4c8d8" fill-opacity="0.7" opacity="0">1940</text><text text-anchor="middle" transform="translate(266.66666666666663,15)" font-family="Circular Std Book" font-size="10px" fill="#b4c8d8" fill-opacity="0.7" opacity="1">1960</text><text text-anchor="middle" transform="translate(293.3333333333333,15)" font-family="Circular Std Book" font-size="10px" fill="#b4c8d8" fill-opacity="0.7" opacity="0">1980</text><text text-anchor="middle" transform="translate(320,15)" font-family="Circular Std Book" font-size="10px" fill="#b4c8d8" fill-opacity="0.7" opacity="1">2000</text><text text-anchor="middle" transform="translate(346.6666666666667,15)" font-family="Circular Std Book" font-size="10px" fill="#b4c8d8" fill-opacity="0.7" opacity="0">2020</text><text text-anchor="middle" transform="translate(373.3333333333333,15)" font-family="Circular Std Book" font-size="10px" fill="#b4c8d8" fill-opacity="0.7" opacity="1">2040</text><text text-anchor="end" transform="translate(400,15)" font-family="Circular Std Book" font-size="10px" fill="#b4c8d8" fill-opacity="0.7" opacity="0">2060</text></g><g class="mark-rule role-axis-domain" pointer-events="none"><line transform="translate(0,0)" x2="400" y2="0" stroke="#b4c8d8" stroke-opacity="0.5" stroke-width="1" opacity="1"/></g><g class="mark-text role-axis-title" pointer-events="none"><text text-anchor="start" transform="translate(405,14)" font-family="Circular Std Book" font-size="10px" font-weight="normal" fill="#b4c8d8" fill-opacity="0.8" opacity="1">(projection)</text></g></g><path class="foreground" aria-hidden="true" d="" pointer-events="none" display="none"/></g></g><g class="mark-group role-axis" role="graphics-symbol" aria-roledescription="axis" aria-label="Y-axis titled 'Percentage points (change in output per hour, ten-year rolling average)' for a linear scale with values from −3.0 to 5.0"><g transform="translate(0.5,0.5)"><path class="background" aria-hidden="true" d="M0,0h0v0h0Z" pointer-events="none"/><g><g class="mark-text role-axis-label" pointer-events="none"><text text-anchor="end" transform="translate(-5,303)" font-family="Circular Std Book" font-size="10px" fill="#b4c8d8" fill-opacity="0.7" opacity="1">−3.0</text><text text-anchor="end" transform="translate(-5,265.5)" font-family="Circular Std Book" font-size="10px" fill="#b4c8d8" fill-opacity="0.7" opacity="1">−2.0</text><text text-anchor="end" transform="translate(-5,228)" font-family="Circular Std Book" font-size="10px" fill="#b4c8d8" fill-opacity="0.7" opacity="1">−1.0</text><text text-anchor="end" transform="translate(-5,190.5)" font-family="Circular Std Book" font-size="10px" fill="#b4c8d8" fill-opacity="0.7" opacity="1">0.0</text><text text-anchor="end" transform="translate(-5,153)" font-family="Circular Std Book" font-size="10px" fill="#b4c8d8" fill-opacity="0.7" opacity="1">1.0</text><text text-anchor="end" transform="translate(-5,115.5)" font-family="Circular Std Book" font-size="10px" fill="#b4c8d8" fill-opacity="0.7" opacity="1">2.0</text><text text-anchor="end" transform="translate(-5,78)" font-family="Circular Std Book" font-size="10px" fill="#b4c8d8" fill-opacity="0.7" opacity="1">3.0</text><text text-anchor="end" transform="translate(-5,40.5)" font-family="Circular Std Book" font-size="10px" fill="#b4c8d8" fill-opacity="0.7" opacity="1">4.0</text><text text-anchor="end" transform="translate(-5,3)" font-family="Circular Std Book" font-size="10px" fill="#b4c8d8" fill-opacity="0.7" opacity="1">5.0</text></g><g class="mark-rule role-axis-domain" pointer-events="none"><line transform="translate(0,300)" x2="0" y2="-300" stroke="#b4c8d8" stroke-opacity="0.5" stroke-width="1" opacity="1"/></g><g class="mark-text role-axis-title" pointer-events="none"><text text-anchor="start" transform="translate(0,-10)" font-family="Circular Std Book" font-size="12px" font-weight="normal" fill="#b4c8d8" fill-opacity="0.8" opacity="1">Percentage points (change in output per hour, ten-year rolling average)</text></g></g><path class="foreground" aria-hidden="true" d="" pointer-events="none" display="none"/></g></g><g class="mark-group role-scope layer_0_pathgroup" role="graphics-object" aria-roledescription="group mark container"><g transform="translate(0,0)"><path class="background" aria-hidden="true" d="M0,0h400v300h-400Z"/><g><g class="mark-line role-mark layer_0_marks" clip-path="url(#clip269)" role="graphics-object" aria-roledescription="line mark container"><path aria-label="year: 1770; value: 0.6; ind: Real GDP" role="graphics-symbol" aria-roledescription="line mark" d="M13.333,165.444C13.778,169.405,14.222,173.366,14.667,173.366C15.111,173.366,15.556,173.082,16,172.514C16.444,171.946,16.889,164.596,17.333,164.596C17.778,164.596,18.222,172.779,18.667,172.779C19.111,172.779,19.556,161.45,20,157.757C20.444,154.064,20.889,153.187,21.333,150.62C21.778,148.053,22.222,142.355,22.667,142.355C23.111,142.355,23.556,144.378,24,148.424C24.444,152.471,24.889,170.642,25.333,170.642C25.778,170.642,26.222,145.715,26.667,143.263C27.111,140.812,27.556,141.173,28,139.586C28.444,137.999,28.889,133.743,29.333,133.743C29.778,133.743,30.222,142.36,30.667,142.36C31.111,142.36,31.556,132.538,32,132.538C32.444,132.538,32.889,143.769,33.333,147.133C33.778,150.497,34.222,148.995,34.667,152.72C35.111,156.445,35.556,169.811,36,169.811C36.444,169.811,36.889,169.225,37.333,168.054C37.778,166.883,38.222,162.093,38.667,158.635C39.111,155.177,39.556,147.307,40,147.307C40.444,147.307,40.889,156.384,41.333,156.384C41.778,156.384,42.222,137.577,42.667,137.577C43.111,137.577,43.556,138.961,44,141.728C44.444,144.495,44.889,155.344,45.333,155.344C45.778,155.344,46.222,112.112,46.667,111.998C47.111,111.885,47.556,111.942,48,111.828C48.444,111.715,48.889,109.638,49.333,108.307C49.778,106.976,50.222,104.819,50.667,103.844C51.111,102.869,51.556,102.381,52,102.381C52.444,102.381,52.889,112.564,53.333,112.564C53.778,112.564,54.222,110.799,54.667,110.799C55.111,110.799,55.556,120.339,56,121.519C56.444,122.698,56.889,123.288,57.333,123.288C57.778,123.288,58.222,111.493,58.667,111.493C59.111,111.493,59.556,125.114,60,129.475C60.444,133.836,60.889,137.657,61.333,137.657C61.778,137.657,62.222,110.44,62.667,110.44C63.111,110.44,63.556,131.513,64,131.513C64.444,131.513,64.889,130.87,65.333,129.585C65.778,128.3,66.222,123.698,66.667,123.698C67.111,123.698,67.556,126.445,68,130.952C68.444,135.459,68.889,150.742,69.333,150.742C69.778,150.742,70.222,122.53,70.667,122.53C71.111,122.53,71.556,130.484,72,130.484C72.444,130.484,72.889,113.187,73.333,113.187C73.778,113.187,74.222,125.311,74.667,131.375C75.111,137.439,75.556,149.57,76,149.57C76.444,149.57,76.889,132.471,77.333,132.471C77.778,132.471,78.222,150.405,78.667,150.405C79.111,150.405,79.556,146.875,80,144.113C80.444,141.351,80.889,139.327,81.333,133.833C81.778,128.339,82.222,111.149,82.667,111.149C83.111,111.149,83.556,120.46,84,120.46C84.444,120.46,84.889,91.603,85.333,91.603C85.778,91.603,86.222,122.931,86.667,123.187C87.111,123.443,87.556,123.571,88,123.571C88.444,123.571,88.889,101.998,89.333,100.985C89.778,99.971,90.222,100.478,90.667,99.464C91.111,98.451,91.556,90.133,92,90.133C92.444,90.133,92.889,103.779,93.333,103.779C93.778,103.779,94.222,98.744,94.667,98.744C95.111,98.744,95.556,101.941,96,103.951C96.444,105.961,96.889,108.399,97.333,110.803C97.778,113.207,98.222,118.375,98.667,118.375C99.111,118.375,99.556,111.469,100,104.106C100.444,96.743,100.889,74.198,101.333,74.198C101.778,74.198,102.222,106.283,102.667,106.283C103.111,106.283,103.556,92.582,104,89.282C104.444,85.981,104.889,84.331,105.333,84.331C105.778,84.331,106.222,93.315,106.667,99.453C107.111,105.591,107.556,117.624,108,121.159C108.444,124.693,108.889,126.461,109.333,126.461C109.778,126.461,110.222,121.539,110.667,117.614C111.111,113.689,111.556,102.911,112,102.911C112.444,102.911,112.889,107.936,113.333,107.936C113.778,107.936,114.222,99.83,114.667,99.83C115.111,99.83,115.556,100.46,116,101.722C116.444,102.984,116.889,107.233,117.333,108.843C117.778,110.454,118.222,109.913,118.667,111.386C119.111,112.859,119.556,117.681,120,117.681C120.444,117.681,120.889,97.412,121.333,90.323C121.778,83.234,122.222,75.25,122.667,75.147C123.111,75.043,123.556,74.992,124,74.992C124.444,74.992,124.889,83.01,125.333,88.677C125.778,94.345,126.222,108.997,126.667,108.997C127.111,108.997,127.556,108.988,128,108.971C128.444,108.954,128.889,101.208,129.333,101.208C129.778,101.208,130.222,113.41,130.667,113.41C131.111,113.41,131.556,107.641,132,103.892C132.444,100.144,132.889,90.92,133.333,90.92C133.778,90.92,134.222,96.807,134.667,101.119C135.111,105.43,135.556,116.788,136,116.788C136.444,116.788,136.889,110.763,137.333,110.763C137.778,110.763,138.222,119.978,138.667,119.978C139.111,119.978,139.556,99.525,140,99.525C140.444,99.525,140.889,112.585,141.333,112.686C141.778,112.786,142.222,112.837,142.667,112.837C143.111,112.837,143.556,97.111,144,97.111C144.444,97.111,144.889,103.806,145.333,103.806C145.778,103.806,146.222,88.757,146.667,82.837C147.111,76.917,147.556,71.614,148,68.284C148.444,64.954,148.889,62.858,149.333,62.858C149.778,62.858,150.222,79.6,150.667,79.6C151.111,79.6,151.556,68.819,152,68.819C152.444,68.819,152.889,80.653,153.333,82.843C153.778,85.033,154.222,86.128,154.667,86.128C155.111,86.128,155.556,85.089,156,85.089C156.444,85.089,156.889,95.166,157.333,100.126C157.778,105.086,158.222,113.093,158.667,114.851C159.111,116.609,159.556,115.73,160,117.488C160.444,119.246,160.889,128.617,161.333,128.617C161.778,128.617,162.222,126.234,162.667,124.034C163.111,121.834,163.556,115.418,164,115.418C164.444,115.418,164.889,130.695,165.333,135.319C165.778,139.943,166.222,142.867,166.667,143.16C167.111,143.453,167.556,143.6,168,143.6C168.444,143.6,168.889,135.444,169.333,131.096C169.778,126.748,170.222,122.846,170.667,117.51C171.111,112.173,171.556,99.076,172,99.076C172.444,99.076,172.889,122.113,173.333,122.113C173.778,122.113,174.222,120.711,174.667,120.711C175.111,120.711,175.556,131.614,176,136.747C176.444,141.88,176.889,151.509,177.333,151.509C177.778,151.509,178.222,135.437,178.667,128.951C179.111,122.465,179.556,117.643,180,112.593C180.444,107.542,180.889,98.65,181.333,98.65C181.778,98.65,182.222,109.482,182.667,109.482C183.111,109.482,183.556,105.732,184,104.616C184.444,103.501,184.889,102.787,185.333,102.787C185.778,102.787,186.222,105.387,186.667,106.569C187.111,107.752,187.556,109.881,188,109.881C188.444,109.881,188.889,94.443,189.333,94.443C189.778,94.443,190.222,94.675,190.667,95.139C191.111,95.602,191.556,108.605,192,108.605C192.444,108.605,192.889,108.504,193.333,108.504C193.778,108.504,194.222,114.382,194.667,114.382C195.111,114.382,195.556,110.523,196,110.523C196.444,110.523,196.889,140.225,197.333,143.652C197.778,147.079,198.222,148.792,198.667,148.792C199.111,148.792,199.556,140.615,200,138.04C200.444,135.466,200.889,134.031,201.333,133.343C201.778,132.656,202.222,133,202.667,132.312C203.111,131.625,203.556,113.223,204,111.298C204.444,109.373,204.889,110.272,205.333,108.411C205.778,106.55,206.222,100.132,206.667,100.132C207.111,100.132,207.556,102.317,208,104.977C208.444,107.638,208.889,116.095,209.333,116.095C209.778,116.095,210.222,93.658,210.667,93.658C211.111,93.658,211.556,120.029,212,131.773C212.444,143.518,212.889,150.481,213.333,164.125C213.778,177.769,214.222,213.639,214.667,213.639C215.111,213.639,215.556,200.412,216,200.412C216.444,200.412,216.889,205.96,217.333,205.96C217.778,205.96,218.222,195.911,218.667,195.911C219.111,195.911,219.556,199.502,220,203.43C220.444,207.357,220.889,219.478,221.333,219.478C221.778,219.478,222.222,188.613,222.667,188.613C223.111,188.613,223.556,192.543,224,192.543C224.444,192.543,224.889,162.327,225.333,152.537C225.778,142.746,226.222,140.091,226.667,133.798C227.111,127.505,227.556,114.779,228,114.779C228.444,114.779,228.889,134.433,229.333,134.433C229.778,134.433,230.222,134.16,230.667,133.616C231.111,133.071,231.556,129.389,232,128.941C232.444,128.492,232.889,128.716,233.333,128.268C233.778,127.819,234.222,98.686,234.667,98.686C235.111,98.686,235.556,114.11,236,114.401C236.444,114.693,236.889,114.839,237.333,114.839C237.778,114.839,238.222,112.905,238.667,109.037C239.111,105.169,239.556,83.884,240,68.843C240.444,53.802,240.889,23.106,241.333,18.794C241.778,14.481,242.222,12.325,242.667,12.325C243.111,12.325,243.556,14.153,244,17.809C244.444,21.464,244.889,45.035,245.333,56.684C245.778,68.333,246.222,78.016,246.667,87.702C247.111,97.389,247.556,107.301,248,114.803C248.444,122.305,248.889,132.713,249.333,132.713C249.778,132.713,250.222,123.565,250.667,123.565C251.111,123.565,251.556,124.839,252,127.388C252.444,129.937,252.889,144.949,253.333,152.181C253.778,159.414,254.222,170.283,254.667,170.784C255.111,171.284,255.556,171.535,256,171.535C256.444,171.535,256.889,165.072,257.333,157.256C257.778,149.44,258.222,135.325,258.667,124.642C259.111,113.958,259.556,100.952,260,93.156C260.444,85.361,260.889,82.41,261.333,77.868C261.778,73.326,262.222,65.905,262.667,65.905C263.111,65.905,263.556,73.213,264,73.213C264.444,73.213,264.889,72.305,265.333,70.488C265.778,68.671,266.222,59.358,266.667,59.358C267.111,59.358,267.556,62.394,268,63.374C268.444,64.355,268.889,64.525,269.333,65.241C269.778,65.957,270.222,67.671,270.667,67.671C271.111,67.671,271.556,63.016,272,63.016C272.444,63.016,272.889,69.237,273.333,69.369C273.778,69.502,274.222,69.568,274.667,69.568C275.111,69.568,275.556,68.484,276,66.315C276.444,64.146,276.889,50.63,277.333,50.63C277.778,50.63,278.222,55.235,278.667,58.828C279.111,62.421,279.556,72.187,280,72.187C280.444,72.187,280.889,71.183,281.333,69.174C281.778,67.166,282.222,60.2,282.667,57.176C283.111,54.153,283.556,51.033,284,51.033C284.444,51.033,284.889,73.806,285.333,81.073C285.778,88.341,286.222,94.638,286.667,94.638C287.111,94.638,287.556,89.552,288,89.552C288.444,89.552,288.889,89.95,289.333,90.746C289.778,91.542,290.222,95.448,290.667,95.448C291.111,95.448,291.556,88.646,292,88.646C292.444,88.646,292.889,100.852,293.333,106.487C293.778,112.122,294.222,118.37,294.667,122.455C295.111,126.541,295.556,128.142,296,131.001C296.444,133.86,296.889,139.609,297.333,139.609C297.778,139.609,298.222,128.321,298.667,121.807C299.111,115.293,299.556,101.102,300,100.523C300.444,99.945,300.889,100.234,301.333,99.655C301.778,99.077,302.222,91.599,302.667,88.794C303.111,85.989,303.556,82.824,304,82.824C304.444,82.824,304.889,87.146,305.333,87.146C305.778,87.146,306.222,76.803,306.667,76.803C307.111,76.803,307.556,77.228,308,78.079C308.444,78.929,308.889,82.182,309.333,84.288C309.778,86.394,310.222,90.714,310.667,90.714C311.111,90.714,311.556,84.674,312,84.674C312.444,84.674,312.889,89.549,313.333,90.978C313.778,92.406,314.222,91.733,314.667,93.245C315.111,94.756,315.556,98.598,316,101.616C316.444,104.634,316.889,111.353,317.333,111.353C317.778,111.353,318.222,110.478,318.667,108.726C319.111,106.975,319.556,101.667,320,97.371C320.444,93.075,320.889,86.629,321.333,82.952C321.778,79.276,322.222,77.185,322.667,75.312C323.111,73.439,323.556,71.715,324,71.715C324.444,71.715,324.889,76.804,325.333,76.804C325.778,76.804,326.222,75.058,326.667,75.058C327.111,75.058,327.556,75.115,328,75.229C328.444,75.344,328.889,75.944,329.333,77.372C329.778,78.8,330.222,84.546,330.667,91.689C331.111,98.833,331.556,115.656,332,120.231C332.444,124.806,332.889,125.189,333.333,127.093C333.778,128.997,334.222,130.218,334.667,131.657C335.111,133.095,335.556,134.073,336,135.722C336.444,137.372,336.889,141.554,337.333,141.554C337.778,141.554,338.222,139.52,338.667,139.52C339.111,139.52,339.556,141.515,340,142.437C340.444,143.358,340.889,143.925,341.333,145.05C341.778,146.176,342.222,149.19,342.667,149.19C343.111,149.19,343.556,146.371,344,141.601C344.444,136.831,344.889,120.571,345.333,120.571C345.778,120.571,346.222,122.729,346.667,122.729C347.111,122.729,347.556,122.712,348,122.68C348.444,122.647,348.889,121.811,349.333,121.811C349.778,121.811,350.222,122.232,350.667,123.072C351.111,123.912,351.556,127.343,352,128.199C352.444,129.055,352.889,129.483,353.333,129.483C353.778,129.483,354.222,129.286,354.667,128.893C355.111,128.499,355.556,127.427,356,126.569C356.444,125.711,356.889,124.774,357.333,123.743C357.778,122.711,358.222,121.519,358.667,120.38C359.111,119.241,359.556,117.946,360,116.91C360.444,115.874,360.889,115.055,361.333,114.161C361.778,113.267,362.222,112.371,362.667,111.547C363.111,110.723,363.556,109.914,364,109.216C364.444,108.517,364.889,107.892,365.333,107.356C365.778,106.819,366.222,106.418,366.667,105.995C367.111,105.573,367.556,105.149,368,104.819C368.444,104.489,368.889,104.231,369.333,104.017C369.778,103.803,370.222,103.663,370.667,103.535C371.111,103.407,371.556,103.248,372,103.248C372.444,103.248,372.889,103.317,373.333,103.341C373.778,103.366,374.222,103.397,374.667,103.397C375.111,103.397,375.556,103.396,376,103.395C376.444,103.395,376.889,103.289,377.333,103.288C377.778,103.286,378.222,103.285,378.667,103.285C379.111,103.285,379.556,103.322,380,103.395C380.444,103.469,380.889,103.623,381.333,103.775C381.778,103.927,382.222,104.124,382.667,104.31C383.111,104.495,383.556,104.71,384,104.887C384.444,105.065,384.889,105.229,385.333,105.375C385.778,105.521,386.222,105.691,386.667,105.763C387.111,105.835,387.556,105.833,388,105.872C388.444,105.91,388.889,105.959,389.333,105.994C389.778,106.028,390.222,106.051,390.667,106.079C391.111,106.106,391.556,106.122,392,106.158C392.444,106.193,392.889,106.256,393.333,106.294C393.778,106.331,394.222,106.383,394.667,106.383C395.111,106.383,395.556,106.377,396,106.366C396.444,106.354,396.889,106.296,397.333,106.267C397.778,106.239,398.222,106.209,398.667,106.192C399.111,106.176,399.556,106.168,400,106.168C400.444,106.168,400.889,106.31,401.333,106.368C401.778,106.426,402.222,106.476,402.667,106.517C403.111,106.557,403.556,106.61,404,106.61C404.444,106.61,404.889,106.595,405.333,106.566C405.778,106.536,406.222,106.453,406.667,106.388C407.111,106.323,407.556,106.252,408,106.175C408.444,106.098,408.889,106.013,409.333,105.927" stroke="#00A767" stroke-width="2" opacity="0.8"/></g></g><path class="foreground" aria-hidden="true" d="" display="none"/></g><g transform="translate(0,0)"><path class="background" aria-hidden="true" d="M0,0h400v300h-400Z"/><g><g class="mark-line role-mark layer_0_marks" clip-path="url(#clip270)" role="graphics-object" aria-roledescription="line mark container"><path aria-label="year: 1770; value: −0.5; ind: Employment" role="graphics-symbol" aria-roledescription="line mark" d="M13.333,204.759C13.778,203.956,14.222,203.152,14.667,203.152C15.111,203.152,15.556,204.113,16,205.377C16.444,206.641,16.889,210.658,17.333,210.737C17.778,210.817,18.222,210.777,18.667,210.856C19.111,210.936,19.556,213.266,20,213.798C20.444,214.33,20.889,214.137,21.333,214.596C21.778,215.055,22.222,216.553,22.667,216.553C23.111,216.553,23.556,215.739,24,214.184C24.444,212.629,24.889,207.224,25.333,207.224C25.778,207.224,26.222,209.775,26.667,210.634C27.111,211.494,27.556,211.966,28,212.38C28.444,212.794,28.889,213.119,29.333,213.119C29.778,213.119,30.222,213.056,30.667,213.056C31.111,213.056,31.556,213.723,32,213.723C32.444,213.723,32.889,211.027,33.333,211.027C33.778,211.027,34.222,211.198,34.667,211.198C35.111,211.198,35.556,209.341,36,209.341C36.444,209.341,36.889,209.857,37.333,210.889C37.778,211.922,38.222,214.039,38.667,215.749C39.111,217.459,39.556,221.149,40,221.149C40.444,221.149,40.889,219.66,41.333,219.66C41.778,219.66,42.222,224.967,42.667,224.967C43.111,224.967,43.556,221.759,44,219.701C44.444,217.644,44.889,212.62,45.333,212.62C45.778,212.62,46.222,225.401,46.667,225.401C47.111,225.401,47.556,224.788,48,224.491C48.444,224.194,48.889,223.619,49.333,223.619C49.778,223.619,50.222,227.684,50.667,227.684C51.111,227.684,51.556,226.567,52,225.943C52.444,225.319,52.889,224.524,53.333,223.939C53.778,223.353,54.222,223.389,54.667,222.43C55.111,221.47,55.556,219.081,56,218.182C56.444,217.283,56.889,216.834,57.333,216.834C57.778,216.834,58.222,224.055,58.667,224.055C59.111,224.055,59.556,221.498,60,221.44C60.444,221.381,60.889,221.351,61.333,221.351C61.778,221.351,62.222,232.271,62.667,232.271C63.111,232.271,63.556,225.615,64,225.615C64.444,225.615,64.889,226.326,65.333,227.062C65.778,227.798,66.222,230.03,66.667,230.03C67.111,230.03,67.556,229.5,68,228.44C68.444,227.38,68.889,223.564,69.333,223.564C69.778,223.564,70.222,233.438,70.667,233.438C71.111,233.438,71.556,229.708,72,229.708C72.444,229.708,72.889,240.594,73.333,240.594C73.778,240.594,74.222,234.664,74.667,231.697C75.111,228.731,75.556,222.794,76,222.794C76.444,222.794,76.889,227.191,77.333,227.191C77.778,227.191,78.222,221.218,78.667,221.218C79.111,221.218,79.556,227.038,80,229.56C80.444,232.083,80.889,233.448,81.333,236.353C81.778,239.257,82.222,245.013,82.667,246.988C83.111,248.964,83.556,247.976,84,249.952C84.444,251.927,84.889,261.646,85.333,261.646C85.778,261.646,86.222,247.153,86.667,243.964C87.111,240.775,87.556,239.181,88,239.181C88.444,239.181,88.889,248.137,89.333,248.137C89.778,248.137,90.222,243.924,90.667,243.924C91.111,243.924,91.556,248.517,92,248.517C92.444,248.517,92.889,240.699,93.333,240.699C93.778,240.699,94.222,242.28,94.667,242.28C95.111,242.28,95.556,233.302,96,231.674C96.444,230.046,96.889,229.688,97.333,229.232C97.778,228.777,98.222,228.549,98.667,228.549C99.111,228.549,99.556,230.049,100,233.051C100.444,236.052,100.889,248.341,101.333,248.341C101.778,248.341,102.222,234.912,102.667,234.912C103.111,234.912,103.556,241.074,104,243.672C104.444,246.27,104.889,250.501,105.333,250.501C105.778,250.501,106.222,233.923,106.667,227.78C107.111,221.637,107.556,213.643,108,213.643C108.444,213.643,108.889,217.518,109.333,220.891C109.778,224.264,110.222,230.746,110.667,233.881C111.111,237.016,111.556,238.681,112,239.7C112.444,240.719,112.889,240.209,113.333,241.228C113.778,242.247,114.222,246.836,114.667,246.836C115.111,246.836,115.556,245.085,116,242.725C116.444,240.366,116.889,236.517,117.333,232.679C117.778,228.84,118.222,219.693,118.667,219.693C119.111,219.693,119.556,221.533,120,225.213C120.444,228.892,120.889,242.643,121.333,244.842C121.778,247.04,122.222,248.139,122.667,248.139C123.111,248.139,123.556,245.897,124,243.893C124.444,241.889,124.889,238.445,125.333,236.112C125.778,233.78,126.222,232.149,126.667,229.897C127.111,227.645,127.556,222.601,128,222.601C128.444,222.601,128.889,228.693,129.333,229.242C129.778,229.792,130.222,229.517,130.667,230.066C131.111,230.616,131.556,239.821,132,243.887C132.444,247.952,132.889,254.459,133.333,254.459C133.778,254.459,134.222,244.223,134.667,240.532C135.111,236.84,135.556,235.368,136,232.312C136.444,229.255,136.889,222.193,137.333,222.193C137.778,222.193,138.222,222.477,138.667,222.477C139.111,222.477,139.556,220.896,140,220.049C140.444,219.202,140.889,218.592,141.333,217.393C141.778,216.195,142.222,212.857,142.667,212.857C143.111,212.857,143.556,216.674,144,216.674C144.444,216.674,144.889,209.448,145.333,209.448C145.778,209.448,146.222,210.316,146.667,211.537C147.111,212.757,147.556,214.763,148,216.771C148.444,218.779,148.889,223.584,149.333,223.584C149.778,223.584,150.222,222.409,150.667,220.954C151.111,219.5,151.556,216.323,152,214.859C152.444,213.396,152.889,212.837,153.333,212.174C153.778,211.511,154.222,211.072,154.667,210.88C155.111,210.688,155.556,210.784,156,210.592C156.444,210.4,156.889,208.176,157.333,206.609C157.778,205.043,158.222,201.193,158.667,201.193C159.111,201.193,159.556,206.293,160,206.442C160.444,206.59,160.889,206.549,161.333,206.665C161.778,206.78,162.222,206.821,162.667,207.133C163.111,207.445,163.556,209.106,164,209.106C164.444,209.106,164.889,207.744,165.333,207.017C165.778,206.29,166.222,204.742,166.667,204.742C167.111,204.742,167.556,206.628,168,209.028C168.444,211.427,168.889,215.757,169.333,219.137C169.778,222.518,170.222,225.819,170.667,229.311C171.111,232.803,171.556,240.087,172,240.087C172.444,240.087,172.889,235.156,173.333,233.214C173.778,231.273,174.222,230.228,174.667,228.438C175.111,226.649,175.556,224.132,176,222.477C176.444,220.822,176.889,218.508,177.333,218.508C177.778,218.508,178.222,222.908,178.667,224.852C179.111,226.796,179.556,228.564,180,230.17C180.444,231.775,180.889,234.485,181.333,234.485C181.778,234.485,182.222,233.088,182.667,232.824C183.111,232.561,183.556,232.692,184,232.429C184.444,232.165,184.889,229.925,185.333,229.754C185.778,229.583,186.222,229.668,186.667,229.497C187.111,229.325,187.556,228.263,188,228.263C188.444,228.263,188.889,229.709,189.333,230.252C189.778,230.795,190.222,231.523,190.667,231.523C191.111,231.523,191.556,224.479,192,224.479C192.444,224.479,192.889,226.219,193.333,226.219C193.778,226.219,194.222,226.216,194.667,226.216C195.111,226.216,195.556,227.622,196,227.622C196.444,227.622,196.889,215.613,197.333,212.437C197.778,209.261,198.222,207.673,198.667,207.673C199.111,207.673,199.556,211.174,200,213.456C200.444,215.737,200.889,219.379,201.333,221.362C201.778,223.345,202.222,224.187,202.667,225.356C203.111,226.525,203.556,226.746,204,228.376C204.444,230.006,204.889,232.877,205.333,235.137C205.778,237.396,206.222,241.935,206.667,241.935C207.111,241.935,207.556,240.107,208,239.003C208.444,237.899,208.889,235.313,209.333,235.313C209.778,235.313,210.222,245.088,210.667,245.088C211.111,245.088,211.556,239.395,212,237.667C212.444,235.94,212.889,236.685,213.333,234.721C213.778,232.757,214.222,187.653,214.667,183.09C215.111,178.527,215.556,176.246,216,176.246C216.444,176.246,216.889,176.334,217.333,176.49C217.778,176.647,218.222,177.187,218.667,177.187C219.111,177.187,219.556,171.792,220,169.62C220.444,167.448,220.889,164.156,221.333,164.156C221.778,164.156,222.222,172.454,222.667,172.454C223.111,172.454,223.556,171.328,224,171.328C224.444,171.328,224.889,182.457,225.333,182.457C225.778,182.457,226.222,168.183,226.667,168.183C227.111,168.183,227.556,201.854,228,203.493C228.444,205.132,228.889,205.073,229.333,205.952C229.778,206.831,230.222,207.442,230.667,208.765C231.111,210.088,231.556,212.632,232,213.89C232.444,215.147,232.889,214.697,233.333,216.31C233.778,217.924,234.222,226.964,234.667,228.056C235.111,229.149,235.556,229.695,236,229.695C236.444,229.695,236.889,229.311,237.333,229.311C237.778,229.311,238.222,234.294,238.667,239.383C239.111,244.472,239.556,252.527,240,259.844C240.444,267.16,240.889,277.587,241.333,283.282C241.778,288.977,242.222,294.014,242.667,294.014C243.111,294.014,243.556,292.469,244,289.38C244.444,286.29,244.889,279.047,245.333,274.121C245.778,269.195,246.222,267.281,246.667,259.824C247.111,252.368,247.556,236.283,248,229.383C248.444,222.482,248.889,219.444,249.333,218.422C249.778,217.401,250.222,217.912,250.667,216.89C251.111,215.868,251.556,206.039,252,201.87C252.444,197.701,252.889,195.047,253.333,191.876C253.778,188.706,254.222,186.468,254.667,182.845C255.111,179.222,255.556,170.957,256,170.139C256.444,169.32,256.889,168.911,257.333,168.911C257.778,168.911,258.222,175.136,258.667,178.711C259.111,182.285,259.556,184.762,260,190.358C260.444,195.954,260.889,212.286,261.333,212.286C261.778,212.286,262.222,211.875,262.667,211.1C263.111,210.324,263.556,209.616,264,207.635C264.444,205.654,264.889,199.211,265.333,199.211C265.778,199.211,266.222,202.428,266.667,202.428C267.111,202.428,267.556,201.098,268,201.098C268.444,201.098,268.889,203.988,269.333,203.988C269.778,203.988,270.222,203.01,270.667,202.633C271.111,202.256,271.556,201.887,272,201.728C272.444,201.569,272.889,201.648,273.333,201.489C273.778,201.33,274.222,201.127,274.667,200.402C275.111,199.678,275.556,194.59,276,194.59C276.444,194.59,276.889,195.184,277.333,196.373C277.778,197.562,278.222,204.616,278.667,204.616C279.111,204.616,279.556,199.008,280,196.371C280.444,193.733,280.889,189.843,281.333,188.789C281.778,187.734,282.222,187.207,282.667,187.207C283.111,187.207,283.556,192.655,284,192.655C284.444,192.655,284.889,190.67,285.333,189.222C285.778,187.773,286.222,185.585,286.667,183.966C287.111,182.347,287.556,179.508,288,179.508C288.444,179.508,288.889,183.564,289.333,185.225C289.778,186.885,290.222,188.164,290.667,189.471C291.111,190.777,291.556,193.063,292,193.063C292.444,193.063,292.889,193.046,293.333,193.01C293.778,192.974,294.222,189.025,294.667,186.537C295.111,184.049,295.556,180.932,296,178.082C296.444,175.232,296.889,169.438,297.333,169.438C297.778,169.438,298.222,174.31,298.667,176.52C299.111,178.731,299.556,180.91,300,182.699C300.444,184.489,300.889,185.311,301.333,187.258C301.778,189.206,302.222,191.466,302.667,194.381C303.111,197.296,303.556,202.032,304,204.748C304.444,207.465,304.889,209.137,305.333,210.681C305.778,212.225,306.222,214.014,306.667,214.014C307.111,214.014,307.556,213.984,308,213.925C308.444,213.867,308.889,212.744,309.333,212.363C309.778,211.981,310.222,212.121,310.667,211.638C311.111,211.156,311.556,206.655,312,206.573C312.444,206.491,312.889,206.449,313.333,206.449C313.778,206.449,314.222,207.616,314.667,207.616C315.111,207.616,315.556,207.361,316,206.851C316.444,206.341,316.889,200.489,317.333,198.307C317.778,196.125,318.222,193.76,318.667,193.76C319.111,193.76,319.556,194.644,320,196.411C320.444,198.179,320.889,205.24,321.333,209.417C321.778,213.594,322.222,218.263,322.667,221.472C323.111,224.68,323.556,227.917,324,228.669C324.444,229.42,324.889,229.796,325.333,229.796C325.778,229.796,326.222,229.385,326.667,229.385C327.111,229.385,327.556,229.614,328,229.614C328.444,229.614,328.889,226.405,329.333,225.997C329.778,225.589,330.222,225.793,330.667,225.385C331.111,224.977,331.556,216.481,332,214.191C332.444,211.9,332.889,211.53,333.333,210.755C333.778,209.98,334.222,209.543,334.667,209.543C335.111,209.543,335.556,210.218,336,210.489C336.444,210.759,336.889,210.714,337.333,211.166C337.778,211.617,338.222,214.766,338.667,215.959C339.111,217.152,339.556,217.666,340,218.325C340.444,218.984,340.889,219.914,341.333,219.914C346.222,219.914,351.111,203.408,356,201.005C356.444,200.787,356.889,200.598,357.333,200.447C357.778,200.295,358.222,200.184,358.667,200.097C359.111,200.011,359.556,200.034,360,199.926C360.444,199.818,360.889,199.592,361.333,199.45C361.778,199.308,362.222,199.189,362.667,199.075C363.111,198.961,363.556,198.883,364,198.764C364.444,198.644,364.889,198.513,365.333,198.356C365.778,198.2,366.222,197.97,366.667,197.824C367.111,197.679,367.556,197.597,368,197.483C368.444,197.37,368.889,197.248,369.333,197.143C369.778,197.039,370.222,196.923,370.667,196.857C371.111,196.792,371.556,196.786,372,196.752C372.444,196.719,372.889,196.683,373.333,196.659C373.778,196.634,374.222,196.603,374.667,196.603C375.111,196.603,375.556,196.604,376,196.605C376.444,196.605,376.889,196.711,377.333,196.712C377.778,196.714,378.222,196.715,378.667,196.715C379.111,196.715,379.556,196.678,380,196.605C380.444,196.531,380.889,196.377,381.333,196.225C381.778,196.073,382.222,195.876,382.667,195.69C383.111,195.505,383.556,195.29,384,195.113C384.444,194.935,384.889,194.771,385.333,194.625C385.778,194.479,386.222,194.309,386.667,194.237C387.111,194.165,387.556,194.167,388,194.128C388.444,194.09,388.889,194.041,389.333,194.006C389.778,193.972,390.222,193.949,390.667,193.921C391.111,193.894,391.556,193.878,392,193.842C392.444,193.807,392.889,193.744,393.333,193.706C393.778,193.669,394.222,193.617,394.667,193.617C395.111,193.617,395.556,193.623,396,193.634C396.444,193.646,396.889,193.704,397.333,193.733C397.778,193.761,398.222,193.791,398.667,193.808C399.111,193.824,399.556,193.832,400,193.832C400.444,193.832,400.889,193.69,401.333,193.632C401.778,193.574,402.222,193.524,402.667,193.483C403.111,193.443,403.556,193.39,404,193.39C404.444,193.39,404.889,193.405,405.333,193.434C405.778,193.464,406.222,193.547,406.667,193.612C407.111,193.677,407.556,193.748,408,193.825C408.444,193.902,408.889,193.987,409.333,194.073" stroke="#F4C245" stroke-width="2" opacity="0.8"/></g></g><path class="foreground" aria-hidden="true" d="" display="none"/></g><g transform="translate(0,0)"><path class="background" aria-hidden="true" d="M0,0h400v300h-400Z"/><g><g class="mark-line role-mark layer_0_marks" clip-path="url(#clip271)" role="graphics-object" aria-roledescription="line mark container"><path aria-label="year: 1770; value: −0.6; ind: Average hours" role="graphics-symbol" aria-roledescription="line mark" d="M13.333,211.59C13.778,211.59,14.222,211.59,14.667,211.59C15.111,211.59,15.556,211.59,16,211.59C16.444,211.59,16.889,211.59,17.333,211.59C17.778,211.59,18.222,211.59,18.667,211.59C19.111,211.59,19.556,211.59,20,211.59C20.444,211.59,20.889,211.59,21.333,211.59C21.778,211.59,22.222,211.59,22.667,211.59C23.111,211.59,23.556,211.59,24,211.59C24.444,211.59,24.889,211.59,25.333,211.59C25.778,211.59,26.222,211.59,26.667,211.59C27.111,211.59,27.556,211.59,28,211.59C28.444,211.59,28.889,211.59,29.333,211.59C29.778,211.59,30.222,211.59,30.667,211.59C31.111,211.59,31.556,211.59,32,211.59C32.444,211.59,32.889,211.59,33.333,211.59C33.778,211.59,34.222,211.59,34.667,211.59C35.111,211.59,35.556,211.59,36,211.59C36.444,211.59,36.889,211.59,37.333,211.59C37.778,211.59,38.222,211.59,38.667,211.59C39.111,211.59,39.556,211.59,40,211.59C40.444,211.59,40.889,211.59,41.333,211.59C41.778,211.59,42.222,211.59,42.667,211.59C43.111,211.59,43.556,211.59,44,211.59C44.444,211.59,44.889,211.59,45.333,211.59C45.778,211.59,46.222,211.59,46.667,211.59C47.111,211.59,47.556,211.59,48,211.59C48.444,211.59,48.889,211.59,49.333,211.59C49.778,211.59,50.222,211.59,50.667,211.59C51.111,211.59,51.556,211.59,52,211.59C52.444,211.59,52.889,211.59,53.333,211.59C53.778,211.59,54.222,210.053,54.667,209.285C55.111,208.517,55.556,207.749,56,206.981C56.444,206.213,56.889,205.445,57.333,204.677C57.778,203.909,58.222,203.141,58.667,202.373C59.111,201.605,59.556,200.837,60,200.069C60.444,199.3,60.889,198.532,61.333,197.764C61.778,196.996,62.222,196.228,62.667,195.46C63.111,194.692,63.556,193.924,64,193.156C64.444,192.388,64.889,191.62,65.333,190.852C65.778,190.084,66.222,188.547,66.667,188.547C67.111,188.547,67.556,188.547,68,188.547C68.444,188.547,68.889,188.547,69.333,188.547C69.778,188.547,70.222,188.547,70.667,188.547C71.111,188.547,71.556,188.547,72,188.547C72.444,188.547,72.889,188.547,73.333,188.547C73.778,188.547,74.222,188.547,74.667,188.547C75.111,188.547,75.556,188.547,76,188.547C76.444,188.547,76.889,188.547,77.333,188.547C77.778,188.547,78.222,188.547,78.667,188.547C79.111,188.547,79.556,188.547,80,188.547C80.444,188.547,80.889,188.547,81.333,188.547C81.778,188.547,82.222,188.547,82.667,188.547C83.111,188.547,83.556,188.547,84,188.547C84.444,188.547,84.889,188.547,85.333,188.547C85.778,188.547,86.222,188.547,86.667,188.547C87.111,188.547,87.556,188.547,88,188.547C88.444,188.547,88.889,188.547,89.333,188.547C89.778,188.547,90.222,188.547,90.667,188.547C91.111,188.547,91.556,188.547,92,188.547C92.444,188.547,92.889,188.547,93.333,188.547C93.778,188.547,94.222,187.975,94.667,187.689C95.111,187.403,95.556,187.117,96,186.831C96.444,186.545,96.889,186.259,97.333,185.973C97.778,185.687,98.222,185.4,98.667,185.114C99.111,184.828,99.556,184.542,100,184.256C100.444,183.97,100.889,183.684,101.333,183.398C101.778,183.112,102.222,182.826,102.667,182.539C103.111,182.253,103.556,181.967,104,181.681C104.444,181.395,104.889,181.109,105.333,180.823C105.778,180.537,106.222,179.965,106.667,179.965C107.111,179.965,107.556,179.965,108,179.965C108.444,179.965,108.889,179.965,109.333,179.965C109.778,179.965,110.222,179.965,110.667,179.965C111.111,179.965,111.556,179.965,112,179.965C112.444,179.965,112.889,179.965,113.333,179.965C113.778,179.965,114.222,179.965,114.667,179.965C115.111,179.965,115.556,179.965,116,179.965C116.444,179.965,116.889,179.965,117.333,179.965C117.778,179.965,118.222,179.965,118.667,179.965C119.111,179.965,119.556,179.965,120,179.965C120.444,179.965,120.889,179.965,121.333,179.965C121.778,179.965,122.222,179.965,122.667,179.965C123.111,179.965,123.556,179.965,124,179.965C124.444,179.965,124.889,179.965,125.333,179.965C125.778,179.965,126.222,179.965,126.667,179.965C127.111,179.965,127.556,179.965,128,179.965C128.444,179.965,128.889,179.991,129.333,180.003C129.778,180.016,130.222,180.028,130.667,180.04C131.111,180.053,131.556,180.065,132,180.076C132.444,180.088,132.889,180.111,133.333,180.111C133.778,180.111,134.222,179.795,134.667,179.565C135.111,179.335,135.556,178.729,136,178.729C136.444,178.729,136.889,179.295,137.333,179.482C137.778,179.669,138.222,179.729,138.667,179.852C139.111,179.976,139.556,180.222,140,180.222C140.444,180.222,140.889,178.989,141.333,178.544C141.778,178.099,142.222,177.986,142.667,177.552C143.111,177.117,143.556,175.938,144,175.938C144.444,175.938,144.889,176.232,145.333,176.428C145.778,176.624,146.222,177.115,146.667,177.115C147.111,177.115,147.556,176.972,148,176.687C148.444,176.402,148.889,173.315,149.333,170.945C149.778,168.575,150.222,164.522,150.667,162.465C151.111,160.408,151.556,159.322,152,158.605C152.444,157.888,152.889,157.53,153.333,157.53C153.778,157.53,154.222,159.33,154.667,159.815C155.111,160.3,155.556,160.092,156,160.543C156.444,160.993,156.889,162.277,157.333,162.517C157.778,162.756,158.222,162.636,158.667,162.876C159.111,163.115,159.556,164.947,160,165.546C160.444,166.145,160.889,165.854,161.333,166.47C161.778,167.086,162.222,171.231,162.667,173.863C163.111,176.496,163.556,180.177,164,182.266C164.444,184.355,164.889,185.455,165.333,186.397C165.778,187.339,166.222,187.779,166.667,187.918C167.111,188.056,167.556,187.987,168,188.126C168.444,188.264,168.889,188.895,169.333,189.132C169.778,189.369,170.222,189.549,170.667,189.549C171.111,189.549,171.556,189.526,172,189.479C172.444,189.433,172.889,187.482,173.333,186.903C173.778,186.324,174.222,186.241,174.667,186.004C175.111,185.767,175.556,185.83,176,185.481C176.444,185.131,176.889,183.268,177.333,183.268C177.778,183.268,178.222,184.284,178.667,184.452C179.111,184.619,179.556,184.703,180,184.703C180.444,184.703,180.889,184.066,181.333,183.764C181.778,183.463,182.222,183.474,182.667,182.893C183.111,182.313,183.556,179.109,184,179.109C184.444,179.109,184.889,182.05,185.333,182.05C185.778,182.05,186.222,181.772,186.667,181.772C187.111,181.772,187.556,183.404,188,183.404C188.444,183.404,188.889,182.987,189.333,182.987C189.778,182.987,190.222,185.405,190.667,185.405C191.111,185.405,191.556,184.667,192,184.446C192.444,184.224,192.889,184.074,193.333,184.074C193.778,184.074,194.222,184.592,194.667,184.838C195.111,185.084,195.556,185.075,196,185.55C196.444,186.024,196.889,188.242,197.333,188.242C197.778,188.242,198.222,184.687,198.667,184.564C199.111,184.441,199.556,184.38,200,184.38C200.444,184.38,200.889,184.437,201.333,184.437C201.778,184.437,202.222,183.465,202.667,183.256C203.111,183.047,203.556,183.152,204,182.943C204.444,182.734,204.889,181.683,205.333,181.683C205.778,181.683,206.222,181.772,206.667,181.772C207.111,181.772,207.556,181.668,208,181.574C208.444,181.48,208.889,181.208,209.333,181.208C209.778,181.208,210.222,181.886,210.667,181.886C211.111,181.886,211.556,155.384,212,147.183C212.444,138.981,212.889,137.786,213.333,132.677C213.778,127.567,214.222,116.526,214.667,116.526C215.111,116.526,215.556,122.308,216,122.308C216.444,122.308,216.889,119.67,217.333,118.423C217.778,117.177,218.222,114.827,218.667,114.827C219.111,114.827,219.556,118.541,220,118.541C220.444,118.541,220.889,115.34,221.333,115.34C221.778,115.34,222.222,126.884,222.667,126.884C223.111,126.884,223.556,126.598,224,126.598C224.444,126.598,224.889,152.16,225.333,160.008C225.778,167.857,226.222,168.764,226.667,173.687C227.111,178.61,227.556,189.547,228,189.547C228.444,189.547,228.889,185.543,229.333,185.543C229.778,185.543,230.222,187.779,230.667,189.288C231.111,190.798,231.556,194.603,232,194.603C232.444,194.603,232.889,193.084,233.333,193.084C233.778,193.084,234.222,198.603,234.667,198.603C235.111,198.603,235.556,193.36,236,189.166C236.444,184.971,236.889,173.435,237.333,173.435C237.778,173.435,238.222,179.894,238.667,182.896C239.111,185.899,239.556,191.448,240,191.448C240.444,191.448,240.889,190.709,241.333,190.327C241.778,189.946,242.222,189.542,242.667,189.159C243.111,188.776,243.556,188.569,244,188.029C244.444,187.489,244.889,187.326,245.333,185.92C245.778,184.514,246.222,173.972,246.667,169.931C247.111,165.89,247.556,165.403,248,161.674C248.444,157.945,248.889,147.558,249.333,147.558C249.778,147.558,250.222,160.609,250.667,160.609C251.111,160.609,251.556,153.801,252,151.426C252.444,149.052,252.889,146.36,253.333,146.36C253.778,146.36,254.222,149.282,254.667,149.282C255.111,149.282,255.556,145.292,256,145.292C256.444,145.292,256.889,146.695,257.333,147.427C257.778,148.159,258.222,148.18,258.667,149.685C259.111,151.19,259.556,160.58,260,163.179C260.444,165.778,260.889,164.967,261.333,167.077C261.778,169.187,262.222,175.837,262.667,175.837C263.111,175.837,263.556,173.915,264,173.915C264.444,173.915,264.889,177.35,265.333,177.35C265.778,177.35,266.222,175.53,266.667,173.556C267.111,171.581,267.556,166.445,268,165.503C268.444,164.561,268.889,164.7,269.333,164.09C269.778,163.481,270.222,162.299,270.667,161.849C271.111,161.399,271.556,161.624,272,161.174C272.444,160.723,272.889,159.161,273.333,157.127C273.778,155.094,274.222,148.973,274.667,148.973C275.111,148.973,275.556,149.515,276,150.387C276.444,151.259,276.889,154.204,277.333,154.204C277.778,154.204,278.222,152.297,278.667,150.587C279.111,148.877,279.556,145.02,280,143.945C280.444,142.87,280.889,142.332,281.333,142.332C281.778,142.332,282.222,151.285,282.667,153.528C283.111,155.77,283.556,156.892,284,156.892C284.444,156.892,284.889,154.683,285.333,153.835C285.778,152.987,286.222,151.804,286.667,151.804C287.111,151.804,287.556,158.613,288,160.853C288.444,163.093,288.889,164.235,289.333,165.242C289.778,166.249,290.222,166.394,290.667,166.894C291.111,167.394,291.556,167.695,292,168.244C292.444,168.792,292.889,169.814,293.333,170.187C293.778,170.56,294.222,170.747,294.667,170.747C295.111,170.747,295.556,166.98,296,165.614C296.444,164.248,296.889,162.552,297.333,162.552C297.778,162.552,298.222,165.032,298.667,166.899C299.111,168.765,299.556,173.546,300,173.751C300.444,173.957,300.889,174.06,301.333,174.06C301.778,174.06,302.222,173.039,302.667,173.039C303.111,173.039,303.556,173.907,304,174.349C304.444,174.791,304.889,174.879,305.333,175.693C305.778,176.507,306.222,178.286,306.667,179.234C307.111,180.183,307.556,181.382,308,181.382C308.444,181.382,308.889,180.824,309.333,180.824C309.778,180.824,310.222,180.992,310.667,181.208C311.111,181.424,311.556,182.121,312,182.121C312.444,182.121,312.889,182.068,313.333,182.068C313.778,182.068,314.222,183.098,314.667,183.098C315.111,183.098,315.556,182.481,316,181.868C316.444,181.255,316.889,180.272,317.333,179.421C317.778,178.57,318.222,177.26,318.667,176.762C319.111,176.263,319.556,176.014,320,176.014C320.444,176.014,320.889,182.15,321.333,182.15C321.778,182.15,322.222,180.262,322.667,179.649C323.111,179.037,323.556,179.144,324,178.472C324.444,177.801,324.889,175.621,325.333,175.621C325.778,175.621,326.222,175.852,326.667,175.852C327.111,175.852,327.556,174.679,328,174.679C328.444,174.679,328.889,175.292,329.333,175.292C329.778,175.292,330.222,175.191,330.667,174.99C331.111,174.79,331.556,171.832,332,171.832C332.444,171.832,332.889,176.385,333.333,176.385C333.778,176.385,334.222,175.283,334.667,175.283C335.111,175.283,335.556,180.36,336,182.275C336.444,184.19,336.889,185.684,337.333,186.773C337.778,187.862,338.222,188.81,338.667,188.81C339.111,188.81,339.556,187.413,340,187.413C340.444,187.413,340.889,188.552,341.333,188.552C346.222,188.552,351.111,187.5,356,187.5C356.444,187.5,356.889,187.5,357.333,187.5C357.778,187.5,358.222,187.5,358.667,187.5C359.111,187.5,359.556,187.5,360,187.5C360.444,187.5,360.889,187.5,361.333,187.5C361.778,187.5,362.222,187.5,362.667,187.5C363.111,187.5,363.556,187.5,364,187.5C364.444,187.5,364.889,187.5,365.333,187.5C365.778,187.5,366.222,187.5,366.667,187.5C367.111,187.5,367.556,187.5,368,187.5C368.444,187.5,368.889,187.5,369.333,187.5C369.778,187.5,370.222,187.5,370.667,187.5C371.111,187.5,371.556,187.5,372,187.5C372.444,187.5,372.889,187.5,373.333,187.5C373.778,187.5,374.222,187.5,374.667,187.5C375.111,187.5,375.556,187.5,376,187.5C376.444,187.5,376.889,187.5,377.333,187.5C377.778,187.5,378.222,187.5,378.667,187.5C379.111,187.5,379.556,187.5,380,187.5C380.444,187.5,380.889,187.5,381.333,187.5C381.778,187.5,382.222,187.5,382.667,187.5C383.111,187.5,383.556,187.5,384,187.5C384.444,187.5,384.889,187.5,385.333,187.5C385.778,187.5,386.222,187.5,386.667,187.5C387.111,187.5,387.556,187.5,388,187.5C388.444,187.5,388.889,187.5,389.333,187.5C389.778,187.5,390.222,187.5,390.667,187.5C391.111,187.5,391.556,187.5,392,187.5C392.444,187.5,392.889,187.5,393.333,187.5C393.778,187.5,394.222,187.5,394.667,187.5C395.111,187.5,395.556,187.5,396,187.5C396.444,187.5,396.889,187.5,397.333,187.5C397.778,187.5,398.222,187.5,398.667,187.5C399.111,187.5,399.556,187.5,400,187.5C400.444,187.5,400.889,187.5,401.333,187.5C401.778,187.5,402.222,187.5,402.667,187.5C403.111,187.5,403.556,187.5,404,187.5C404.444,187.5,404.889,187.5,405.333,187.5C405.778,187.5,406.222,187.5,406.667,187.5C407.111,187.5,407.556,187.5,408,187.5C408.444,187.5,408.889,187.5,409.333,187.5" stroke="#179FDB" stroke-width="2" opacity="0.8"/></g></g><path class="foreground" aria-hidden="true" d="" display="none"/></g><g transform="translate(0,0)"><path class="background" aria-hidden="true" d="M0,0h400v300h-400Z"/><g><g class="mark-line role-mark layer_0_marks" clip-path="url(#clip272)" role="graphics-object" aria-roledescription="line mark container"><path aria-label="year: 1770; value: −0.5; ind: Productivity" role="graphics-symbol" aria-roledescription="line mark" d="M13.333,207.077C13.778,209.728,14.222,212.379,14.667,213.258C15.111,214.138,15.556,214.578,16,214.578C16.444,214.578,16.889,212.076,17.333,212.076C17.778,212.076,18.222,220.31,18.667,220.31C19.111,220.31,19.556,211.441,20,208.424C20.444,205.407,20.889,204.276,21.333,202.206C21.778,200.137,22.222,196.007,22.667,196.007C23.111,196.007,23.556,197.231,24,199.678C24.444,202.126,24.889,214.578,25.333,214.578C25.778,214.578,26.222,192.167,26.667,190.916C27.111,189.664,27.556,190.199,28,189.039C28.444,187.878,28.889,183.953,29.333,183.953C29.778,183.953,30.222,192.395,30.667,192.395C31.111,192.395,31.556,183.315,32,183.315C32.444,183.315,32.889,192.127,33.333,195.019C33.778,197.911,34.222,197.225,34.667,200.67C35.111,204.114,35.556,215.688,36,215.688C36.444,215.688,36.889,215.616,37.333,215.473C37.778,215.329,38.222,212.662,38.667,210.987C39.111,209.312,39.556,205.422,40,205.422C40.444,205.422,40.889,212.873,41.333,212.873C41.778,212.873,42.222,200.304,42.667,199.601C43.111,198.899,43.556,198.548,44,198.548C44.444,198.548,44.889,205.139,45.333,205.139C45.778,205.139,46.222,176.491,46.667,175.78C47.111,175.07,47.556,175.425,48,174.715C48.444,174.004,48.889,170.658,49.333,170.384C49.778,170.109,50.222,170.246,50.667,169.972C51.111,169.697,51.556,166.8,52,166.8C52.444,166.8,52.889,174.673,53.333,174.673C53.778,174.673,54.222,169.144,54.667,169.144C55.111,169.144,55.556,173.14,56,173.14C56.444,173.14,56.889,172.53,57.333,171.31C57.778,170.089,58.222,164.381,58.667,164.381C59.111,164.381,59.556,173.652,60,176.646C60.444,179.64,60.889,182.347,61.333,182.347C61.778,182.347,62.222,164.19,62.667,164.19C63.111,164.19,63.556,176.408,64,176.408C64.444,176.408,64.889,174.945,65.333,173.63C65.778,172.315,66.222,168.518,66.667,168.518C67.111,168.518,67.556,170.727,68,174.17C68.444,177.614,68.889,189.182,69.333,189.182C69.778,189.182,70.222,171.03,70.667,171.03C71.111,171.03,71.556,175.296,72,175.296C72.444,175.296,72.889,169.535,73.333,169.535C73.778,169.535,74.222,175.998,74.667,179.077C75.111,182.155,75.556,188.006,76,188.006C76.444,188.006,76.889,175.218,77.333,175.218C77.778,175.218,78.222,185.613,78.667,187.105C79.111,188.597,79.556,189.343,80,189.343C80.444,189.343,80.889,188.178,81.333,185.847C81.778,183.516,82.222,173.692,82.667,173.692C83.111,173.692,83.556,185.794,84,185.794C84.444,185.794,84.889,168.872,85.333,168.872C85.778,168.872,86.222,181.833,86.667,181.833C87.111,181.833,87.556,180.393,88,177.512C88.444,174.632,88.889,167.525,89.333,164.384C89.778,161.244,90.222,160.415,90.667,158.67C91.111,156.925,91.556,153.915,92,153.915C92.444,153.915,92.889,159.351,93.333,159.351C93.778,159.351,94.222,156.867,94.667,155.106C95.111,153.345,95.556,148.783,96,148.783C96.444,148.783,96.889,150.698,97.333,152.249C97.778,153.801,98.222,158.09,98.667,158.09C99.111,158.09,99.556,152.069,100,147.726C100.444,143.383,100.889,132.032,101.333,132.032C101.778,132.032,102.222,149.309,102.667,149.309C103.111,149.309,103.556,140.403,104,140.403C104.444,140.403,104.889,141.373,105.333,141.373C105.778,141.373,106.222,132.275,106.667,132.275C107.111,132.275,107.556,136.507,108,139.865C108.444,143.223,108.889,149.836,109.333,152.423C109.778,155.009,110.222,156.303,110.667,156.303C111.111,156.303,111.556,147.795,112,147.795C112.444,147.795,112.889,154.213,113.333,154.213C113.778,154.213,114.222,152.612,114.667,151.845C115.111,151.078,115.556,150.523,116,149.612C116.444,148.7,116.889,148.533,117.333,146.377C117.778,144.221,118.222,135.901,118.667,135.901C119.111,135.901,119.556,148.154,120,148.154C120.444,148.154,120.889,143.689,121.333,140.447C121.778,137.206,122.222,131.357,122.667,128.704C123.111,126.051,123.556,124.53,124,124.53C124.444,124.53,124.889,126.852,125.333,130.083C125.778,133.315,126.222,143.919,126.667,143.919C127.111,143.919,127.556,137.247,128,136.529C128.444,135.81,128.889,135.451,129.333,135.451C129.778,135.451,130.222,145.68,130.667,148.632C131.111,151.584,131.556,153.163,132,153.163C132.444,153.163,132.889,151.986,133.333,150.87C133.778,149.754,134.222,146.468,134.667,146.468C135.111,146.468,135.556,153.015,136,153.015C136.444,153.015,136.889,137.879,137.333,137.879C137.778,137.879,138.222,147.597,138.667,147.597C139.111,147.597,139.556,125.285,140,125.285C140.444,125.285,140.889,133.97,141.333,133.97C141.778,133.97,142.222,131.674,142.667,128.507C143.111,125.34,143.556,115.038,144,114.966C144.444,114.895,144.889,114.931,145.333,114.859C145.778,114.788,146.222,101.579,146.667,97.008C147.111,92.437,147.556,89.778,148,87.433C148.444,85.088,148.889,82.939,149.333,82.939C149.778,82.939,150.222,88.186,150.667,88.186C151.111,88.186,151.556,67.312,152,67.312C152.444,67.312,152.889,75.049,153.333,77.457C153.778,79.866,154.222,81.761,154.667,81.761C155.111,81.761,155.556,81.157,156,81.157C156.444,81.157,156.889,90.419,157.333,94.2C157.778,97.981,158.222,100.451,158.667,103.844C159.111,107.237,159.556,110.741,160,114.558C160.444,118.375,160.889,124.474,161.333,126.746C161.778,129.017,162.222,129.246,162.667,130.153C163.111,131.06,163.556,130.831,164,132.187C164.444,133.544,164.889,149.577,165.333,154.32C165.778,159.063,166.222,159.432,166.667,161.434C167.111,163.436,167.556,166.334,168,166.334C168.444,166.334,168.889,165.868,169.333,165.198C169.778,164.529,170.222,164.077,170.667,162.317C171.111,160.558,171.556,154.643,172,154.643C172.444,154.643,172.889,167.68,173.333,167.68C173.778,167.68,174.222,160.513,174.667,160.513C175.111,160.513,175.556,167.058,176,170.069C176.444,173.081,176.889,178.581,177.333,178.581C177.778,178.581,178.222,168.01,178.667,163.753C179.111,159.496,179.556,156.558,180,153.039C180.444,149.519,180.889,142.635,181.333,142.635C181.778,142.635,182.222,150.772,182.667,150.772C183.111,150.772,183.556,142.676,184,141.693C184.444,140.711,184.889,140.22,185.333,140.22C185.778,140.22,186.222,142.272,186.667,143.429C187.111,144.586,187.556,147.161,188,147.161C188.444,147.161,188.889,133.297,189.333,133.297C189.778,133.297,190.222,136.053,190.667,137.648C191.111,139.243,191.556,142.016,192,142.868C192.444,143.721,192.889,143.294,193.333,144.147C193.778,144.999,194.222,150.673,194.667,150.673C195.111,150.673,195.556,148.974,196,148.974C196.444,148.974,196.889,169.716,197.333,169.716C197.778,169.716,198.222,167.692,198.667,166.269C199.111,164.846,199.556,161.177,200,161.177C200.444,161.177,200.889,163.705,201.333,164.564C201.778,165.423,202.222,166.331,202.667,166.331C203.111,166.331,203.556,148.191,204,148.191C204.444,148.191,204.889,150.858,205.333,150.858C205.778,150.858,206.222,149.642,206.667,149.642C207.111,149.642,207.556,150.203,208,151.325C208.444,152.447,208.889,158.314,209.333,158.314C209.778,158.314,210.222,149.012,210.667,146.181C211.111,143.35,211.556,141.329,212,141.329C212.444,141.329,212.889,156.227,213.333,156.227C213.778,156.227,214.222,141.478,214.667,135.697C215.111,129.916,215.556,121.542,216,121.542C216.444,121.542,216.889,123.277,217.333,123.277C217.778,123.277,218.222,110.27,218.667,110.27C219.111,110.27,219.556,111.977,220,113.814C220.444,115.65,220.889,121.29,221.333,121.29C221.778,121.29,222.222,110.984,222.667,110.984C223.111,110.984,223.556,112.161,224,113.476C224.444,114.791,224.889,118.874,225.333,118.874C225.778,118.874,226.222,99.437,226.667,99.437C227.111,99.437,227.556,125.205,228,133.953C228.444,142.702,228.889,148.025,229.333,151.929C229.778,155.832,230.222,155.785,230.667,157.784C231.111,159.782,231.556,163.767,232,163.922C232.444,164.077,232.889,164.155,233.333,164.155C233.778,164.155,234.222,151.968,234.667,151.968C235.111,151.968,235.556,159.209,236,159.209C236.444,159.209,236.889,142.696,237.333,142.696C237.778,142.696,238.222,156.307,238.667,156.307C239.111,156.307,239.556,152.559,240,146.341C240.444,140.123,240.889,119.001,241.333,119.001C241.778,119.001,242.222,121.933,242.667,121.933C243.111,121.933,243.556,121.578,244,121.578C244.444,121.578,244.889,142.52,245.333,142.935C245.778,143.35,246.222,143.558,246.667,143.558C247.111,143.558,247.556,134.324,248,130.993C248.444,127.662,248.889,123.574,249.333,123.574C249.778,123.574,250.222,126.614,250.667,126.614C251.111,126.614,251.556,106.271,252,106.271C252.444,106.271,252.889,111.541,253.333,115.004C253.778,118.466,254.222,127.043,254.667,127.043C255.111,127.043,255.556,115.961,256,111.094C256.444,106.226,256.889,103.475,257.333,97.836C257.778,92.198,258.222,81.452,258.667,77.26C259.111,73.069,259.556,70.974,260,70.974C260.444,70.974,260.889,82.267,261.333,82.267C261.778,82.267,262.222,78.018,262.667,78.018C263.111,78.018,263.556,79.806,264,79.806C264.444,79.806,264.889,75.013,265.333,71.733C265.778,68.453,266.222,63.005,266.667,60.125C267.111,57.246,267.556,54.454,268,54.454C268.444,54.454,268.889,57.828,269.333,57.828C269.778,57.828,270.222,57.378,270.667,56.478C271.111,55.578,271.556,50.265,272,50.265C272.444,50.265,272.889,52.175,273.333,52.175C273.778,52.175,274.222,45.641,274.667,42.755C275.111,39.868,275.556,37.843,276,34.857C276.444,31.871,276.889,24.838,277.333,24.838C277.778,24.838,278.222,38.029,278.667,38.029C279.111,38.029,279.556,37.281,280,35.786C280.444,34.291,280.889,24.418,281.333,23.035C281.778,21.652,282.222,20.96,282.667,20.96C283.111,20.96,283.556,21.992,284,24.054C284.444,26.117,284.889,43.238,285.333,47.445C285.778,51.653,286.222,53.757,286.667,53.757C287.111,53.757,287.556,53.512,288,53.512C288.444,53.512,288.889,61.435,289.333,65.202C289.778,68.969,290.222,76.113,290.667,76.113C291.111,76.113,291.556,74.381,292,74.381C292.444,74.381,292.889,89.545,293.333,94.63C293.778,99.716,294.222,104.893,294.667,104.893C295.111,104.893,295.556,100.889,296,99.354C296.444,97.819,296.889,97.362,297.333,95.685C297.778,94.007,298.222,91.7,298.667,89.288C299.111,86.875,299.556,81.208,300,81.208C300.444,81.208,300.889,85.369,301.333,85.369C301.778,85.369,302.222,80.843,302.667,80.843C303.111,80.843,303.556,83.888,304,86.798C304.444,89.708,304.889,98.304,305.333,98.304C305.778,98.304,306.222,94.791,306.667,94.791C307.111,94.791,307.556,97.021,308,98.293C308.444,99.564,308.889,100.709,309.333,102.42C309.778,104.131,310.222,108.558,310.667,108.558C311.111,108.558,311.556,98.505,312,98.505C312.444,98.505,312.889,102.789,313.333,104.545C313.778,106.3,314.222,107.257,314.667,109.036C315.111,110.815,315.556,115.219,316,115.219C316.444,115.219,316.889,114.712,317.333,113.696C317.778,112.681,318.222,107.124,318.667,103.922C319.111,100.72,319.556,94.483,320,94.483C320.444,94.483,320.889,98.385,321.333,99.597C321.778,100.809,322.222,100.959,322.667,101.753C323.111,102.546,323.556,103.379,324,104.358C324.444,105.337,324.889,107.626,325.333,107.626C325.778,107.626,326.222,106.174,326.667,105.724C327.111,105.275,327.556,105.209,328,104.929C328.444,104.648,328.889,104.042,329.333,104.042C329.778,104.042,330.222,112.739,330.667,117.353C331.111,121.967,331.556,127.995,332,131.727C332.444,135.459,332.889,138.283,333.333,139.746C333.778,141.209,334.222,140.477,334.667,141.94C335.111,143.403,335.556,150.143,336,153.985C336.444,157.828,336.889,162.359,337.333,164.996C337.778,167.634,338.222,168.37,338.667,169.809C339.111,171.248,339.556,172.105,340,173.63C340.444,175.155,340.889,177.472,341.333,178.959C341.778,180.447,342.222,182.557,342.667,182.557C343.111,182.557,343.556,177.666,344,174.91C344.444,172.153,344.889,166.017,345.333,166.017C345.778,166.017,346.222,167.27,346.667,167.27C347.111,167.27,347.556,167.236,348,167.169C348.444,167.101,348.889,162.258,349.333,160.363C349.778,158.468,350.222,157.245,350.667,155.798C351.111,154.351,351.556,152.91,352,151.681C352.444,150.452,352.889,149.701,353.333,148.422C353.778,147.144,354.222,145.402,354.667,144.011C355.111,142.62,355.556,141.295,356,140.074C356.444,138.854,356.889,137.872,357.333,136.689C357.778,135.506,358.222,134.203,358.667,132.977C359.111,131.752,359.556,130.481,360,129.336C360.444,128.192,360.889,127.147,361.333,126.111C361.778,125.075,362.222,124.06,362.667,123.122C363.111,122.183,363.556,121.298,364,120.479C364.444,119.661,364.889,118.905,365.333,118.212C365.778,117.519,366.222,116.888,366.667,116.32C367.111,115.751,367.556,115.246,368,114.802C368.444,114.359,368.889,113.978,369.333,113.66C369.778,113.342,370.222,113.086,370.667,112.892C371.111,112.699,371.556,112.5,372,112.5C372.444,112.5,372.889,112.5,373.333,112.5C373.778,112.5,374.222,112.5,374.667,112.5C375.111,112.5,375.556,112.5,376,112.5C376.444,112.5,376.889,112.5,377.333,112.5C377.778,112.5,378.222,112.5,378.667,112.5C379.111,112.5,379.556,112.5,380,112.5C380.444,112.5,380.889,112.5,381.333,112.5C381.778,112.5,382.222,112.5,382.667,112.5C383.111,112.5,383.556,112.5,384,112.5C384.444,112.5,384.889,112.5,385.333,112.5C385.778,112.5,386.222,112.5,386.667,112.5C387.111,112.5,387.556,112.5,388,112.5C388.444,112.5,388.889,112.5,389.333,112.5C389.778,112.5,390.222,112.5,390.667,112.5C391.111,112.5,391.556,112.5,392,112.5C392.444,112.5,392.889,112.5,393.333,112.5C393.778,112.5,394.222,112.5,394.667,112.5C395.111,112.5,395.556,112.5,396,112.5C396.444,112.5,396.889,112.5,397.333,112.5C397.778,112.5,398.222,112.5,398.667,112.5C399.111,112.5,399.556,112.5,400,112.5C400.444,112.5,400.889,112.5,401.333,112.5C401.778,112.5,402.222,112.5,402.667,112.5C403.111,112.5,403.556,112.5,404,112.5C404.444,112.5,404.889,112.5,405.333,112.5C405.778,112.5,406.222,112.5,406.667,112.5C407.111,112.5,407.556,112.5,408,112.5C408.444,112.5,408.889,112.5,409.333,112.5" stroke="#FF69B4" stroke-width="2" opacity="0.8"/></g></g><path class="foreground" aria-hidden="true" d="" display="none"/></g></g><g class="mark-rule role-mark layer_1_marks" role="graphics-object" aria-roledescription="rule mark container"><line aria-label="y: 0" role="graphics-symbol" aria-roledescription="rule mark" transform="translate(400,187.5)" x2="-400" y2="0" stroke="#b4c8d8" stroke-width="3" opacity="0.3"/></g><g class="mark-group role-scope layer_2_pathgroup" role="graphics-object" aria-roledescription="group mark container"><g transform="translate(0,0)"><path class="background" aria-hidden="true" d="M0,0h400v300h-400Z"/><g><g class="mark-line role-mark layer_2_marks" clip-path="url(#clip273)" role="graphics-object" aria-roledescription="line mark container"><path aria-label="year: 1770; value: −0.5; ind: Productivity" role="graphics-symbol" aria-roledescription="line mark" d="M13.333,207.077C13.778,209.728,14.222,212.379,14.667,213.258C15.111,214.138,15.556,214.578,16,214.578C16.444,214.578,16.889,212.076,17.333,212.076C17.778,212.076,18.222,220.31,18.667,220.31C19.111,220.31,19.556,211.441,20,208.424C20.444,205.407,20.889,204.276,21.333,202.206C21.778,200.137,22.222,196.007,22.667,196.007C23.111,196.007,23.556,197.231,24,199.678C24.444,202.126,24.889,214.578,25.333,214.578C25.778,214.578,26.222,192.167,26.667,190.916C27.111,189.664,27.556,190.199,28,189.039C28.444,187.878,28.889,183.953,29.333,183.953C29.778,183.953,30.222,192.395,30.667,192.395C31.111,192.395,31.556,183.315,32,183.315C32.444,183.315,32.889,192.127,33.333,195.019C33.778,197.911,34.222,197.225,34.667,200.67C35.111,204.114,35.556,215.688,36,215.688C36.444,215.688,36.889,215.616,37.333,215.473C37.778,215.329,38.222,212.662,38.667,210.987C39.111,209.312,39.556,205.422,40,205.422C40.444,205.422,40.889,212.873,41.333,212.873C41.778,212.873,42.222,200.304,42.667,199.601C43.111,198.899,43.556,198.548,44,198.548C44.444,198.548,44.889,205.139,45.333,205.139C45.778,205.139,46.222,176.491,46.667,175.78C47.111,175.07,47.556,175.425,48,174.715C48.444,174.004,48.889,170.658,49.333,170.384C49.778,170.109,50.222,170.246,50.667,169.972C51.111,169.697,51.556,166.8,52,166.8C52.444,166.8,52.889,174.673,53.333,174.673C53.778,174.673,54.222,169.144,54.667,169.144C55.111,169.144,55.556,173.14,56,173.14C56.444,173.14,56.889,172.53,57.333,171.31C57.778,170.089,58.222,164.381,58.667,164.381C59.111,164.381,59.556,173.652,60,176.646C60.444,179.64,60.889,182.347,61.333,182.347C61.778,182.347,62.222,164.19,62.667,164.19C63.111,164.19,63.556,176.408,64,176.408C64.444,176.408,64.889,174.945,65.333,173.63C65.778,172.315,66.222,168.518,66.667,168.518C67.111,168.518,67.556,170.727,68,174.17C68.444,177.614,68.889,189.182,69.333,189.182C69.778,189.182,70.222,171.03,70.667,171.03C71.111,171.03,71.556,175.296,72,175.296C72.444,175.296,72.889,169.535,73.333,169.535C73.778,169.535,74.222,175.998,74.667,179.077C75.111,182.155,75.556,188.006,76,188.006C76.444,188.006,76.889,175.218,77.333,175.218C77.778,175.218,78.222,185.613,78.667,187.105C79.111,188.597,79.556,189.343,80,189.343C80.444,189.343,80.889,188.178,81.333,185.847C81.778,183.516,82.222,173.692,82.667,173.692C83.111,173.692,83.556,185.794,84,185.794C84.444,185.794,84.889,168.872,85.333,168.872C85.778,168.872,86.222,181.833,86.667,181.833C87.111,181.833,87.556,180.393,88,177.512C88.444,174.632,88.889,167.525,89.333,164.384C89.778,161.244,90.222,160.415,90.667,158.67C91.111,156.925,91.556,153.915,92,153.915C92.444,153.915,92.889,159.351,93.333,159.351C93.778,159.351,94.222,156.867,94.667,155.106C95.111,153.345,95.556,148.783,96,148.783C96.444,148.783,96.889,150.698,97.333,152.249C97.778,153.801,98.222,158.09,98.667,158.09C99.111,158.09,99.556,152.069,100,147.726C100.444,143.383,100.889,132.032,101.333,132.032C101.778,132.032,102.222,149.309,102.667,149.309C103.111,149.309,103.556,140.403,104,140.403C104.444,140.403,104.889,141.373,105.333,141.373C105.778,141.373,106.222,132.275,106.667,132.275C107.111,132.275,107.556,136.507,108,139.865C108.444,143.223,108.889,149.836,109.333,152.423C109.778,155.009,110.222,156.303,110.667,156.303C111.111,156.303,111.556,147.795,112,147.795C112.444,147.795,112.889,154.213,113.333,154.213C113.778,154.213,114.222,152.612,114.667,151.845C115.111,151.078,115.556,150.523,116,149.612C116.444,148.7,116.889,148.533,117.333,146.377C117.778,144.221,118.222,135.901,118.667,135.901C119.111,135.901,119.556,148.154,120,148.154C120.444,148.154,120.889,143.689,121.333,140.447C121.778,137.206,122.222,131.357,122.667,128.704C123.111,126.051,123.556,124.53,124,124.53C124.444,124.53,124.889,126.852,125.333,130.083C125.778,133.315,126.222,143.919,126.667,143.919C127.111,143.919,127.556,137.247,128,136.529C128.444,135.81,128.889,135.451,129.333,135.451C129.778,135.451,130.222,145.68,130.667,148.632C131.111,151.584,131.556,153.163,132,153.163C132.444,153.163,132.889,151.986,133.333,150.87C133.778,149.754,134.222,146.468,134.667,146.468C135.111,146.468,135.556,153.015,136,153.015C136.444,153.015,136.889,137.879,137.333,137.879C137.778,137.879,138.222,147.597,138.667,147.597C139.111,147.597,139.556,125.285,140,125.285C140.444,125.285,140.889,133.97,141.333,133.97C141.778,133.97,142.222,131.674,142.667,128.507C143.111,125.34,143.556,115.038,144,114.966C144.444,114.895,144.889,114.931,145.333,114.859C145.778,114.788,146.222,101.579,146.667,97.008C147.111,92.437,147.556,89.778,148,87.433C148.444,85.088,148.889,82.939,149.333,82.939C149.778,82.939,150.222,88.186,150.667,88.186C151.111,88.186,151.556,67.312,152,67.312C152.444,67.312,152.889,75.049,153.333,77.457C153.778,79.866,154.222,81.761,154.667,81.761C155.111,81.761,155.556,81.157,156,81.157C156.444,81.157,156.889,90.419,157.333,94.2C157.778,97.981,158.222,100.451,158.667,103.844C159.111,107.237,159.556,110.741,160,114.558C160.444,118.375,160.889,124.474,161.333,126.746C161.778,129.017,162.222,129.246,162.667,130.153C163.111,131.06,163.556,130.831,164,132.187C164.444,133.544,164.889,149.577,165.333,154.32C165.778,159.063,166.222,159.432,166.667,161.434C167.111,163.436,167.556,166.334,168,166.334C168.444,166.334,168.889,165.868,169.333,165.198C169.778,164.529,170.222,164.077,170.667,162.317C171.111,160.558,171.556,154.643,172,154.643C172.444,154.643,172.889,167.68,173.333,167.68C173.778,167.68,174.222,160.513,174.667,160.513C175.111,160.513,175.556,167.058,176,170.069C176.444,173.081,176.889,178.581,177.333,178.581C177.778,178.581,178.222,168.01,178.667,163.753C179.111,159.496,179.556,156.558,180,153.039C180.444,149.519,180.889,142.635,181.333,142.635C181.778,142.635,182.222,150.772,182.667,150.772C183.111,150.772,183.556,142.676,184,141.693C184.444,140.711,184.889,140.22,185.333,140.22C185.778,140.22,186.222,142.272,186.667,143.429C187.111,144.586,187.556,147.161,188,147.161C188.444,147.161,188.889,133.297,189.333,133.297C189.778,133.297,190.222,136.053,190.667,137.648C191.111,139.243,191.556,142.016,192,142.868C192.444,143.721,192.889,143.294,193.333,144.147C193.778,144.999,194.222,150.673,194.667,150.673C195.111,150.673,195.556,148.974,196,148.974C196.444,148.974,196.889,169.716,197.333,169.716C197.778,169.716,198.222,167.692,198.667,166.269C199.111,164.846,199.556,161.177,200,161.177C200.444,161.177,200.889,163.705,201.333,164.564C201.778,165.423,202.222,166.331,202.667,166.331C203.111,166.331,203.556,148.191,204,148.191C204.444,148.191,204.889,150.858,205.333,150.858C205.778,150.858,206.222,149.642,206.667,149.642C207.111,149.642,207.556,150.203,208,151.325C208.444,152.447,208.889,158.314,209.333,158.314C209.778,158.314,210.222,149.012,210.667,146.181C211.111,143.35,211.556,141.329,212,141.329C212.444,141.329,212.889,156.227,213.333,156.227C213.778,156.227,214.222,141.478,214.667,135.697C215.111,129.916,215.556,121.542,216,121.542C216.444,121.542,216.889,123.277,217.333,123.277C217.778,123.277,218.222,110.27,218.667,110.27C219.111,110.27,219.556,111.977,220,113.814C220.444,115.65,220.889,121.29,221.333,121.29C221.778,121.29,222.222,110.984,222.667,110.984C223.111,110.984,223.556,112.161,224,113.476C224.444,114.791,224.889,118.874,225.333,118.874C225.778,118.874,226.222,99.437,226.667,99.437C227.111,99.437,227.556,125.205,228,133.953C228.444,142.702,228.889,148.025,229.333,151.929C229.778,155.832,230.222,155.785,230.667,157.784C231.111,159.782,231.556,163.767,232,163.922C232.444,164.077,232.889,164.155,233.333,164.155C233.778,164.155,234.222,151.968,234.667,151.968C235.111,151.968,235.556,159.209,236,159.209C236.444,159.209,236.889,142.696,237.333,142.696C237.778,142.696,238.222,156.307,238.667,156.307C239.111,156.307,239.556,152.559,240,146.341C240.444,140.123,240.889,119.001,241.333,119.001C241.778,119.001,242.222,121.933,242.667,121.933C243.111,121.933,243.556,121.578,244,121.578C244.444,121.578,244.889,142.52,245.333,142.935C245.778,143.35,246.222,143.558,246.667,143.558C247.111,143.558,247.556,134.324,248,130.993C248.444,127.662,248.889,123.574,249.333,123.574C249.778,123.574,250.222,126.614,250.667,126.614C251.111,126.614,251.556,106.271,252,106.271C252.444,106.271,252.889,111.541,253.333,115.004C253.778,118.466,254.222,127.043,254.667,127.043C255.111,127.043,255.556,115.961,256,111.094C256.444,106.226,256.889,103.475,257.333,97.836C257.778,92.198,258.222,81.452,258.667,77.26C259.111,73.069,259.556,70.974,260,70.974C260.444,70.974,260.889,82.267,261.333,82.267C261.778,82.267,262.222,78.018,262.667,78.018C263.111,78.018,263.556,79.806,264,79.806C264.444,79.806,264.889,75.013,265.333,71.733C265.778,68.453,266.222,63.005,266.667,60.125C267.111,57.246,267.556,54.454,268,54.454C268.444,54.454,268.889,57.828,269.333,57.828C269.778,57.828,270.222,57.378,270.667,56.478C271.111,55.578,271.556,50.265,272,50.265C272.444,50.265,272.889,52.175,273.333,52.175C273.778,52.175,274.222,45.641,274.667,42.755C275.111,39.868,275.556,37.843,276,34.857C276.444,31.871,276.889,24.838,277.333,24.838C277.778,24.838,278.222,38.029,278.667,38.029C279.111,38.029,279.556,37.281,280,35.786C280.444,34.291,280.889,24.418,281.333,23.035C281.778,21.652,282.222,20.96,282.667,20.96C283.111,20.96,283.556,21.992,284,24.054C284.444,26.117,284.889,43.238,285.333,47.445C285.778,51.653,286.222,53.757,286.667,53.757C287.111,53.757,287.556,53.512,288,53.512C288.444,53.512,288.889,61.435,289.333,65.202C289.778,68.969,290.222,76.113,290.667,76.113C291.111,76.113,291.556,74.381,292,74.381C292.444,74.381,292.889,89.545,293.333,94.63C293.778,99.716,294.222,104.893,294.667,104.893C295.111,104.893,295.556,100.889,296,99.354C296.444,97.819,296.889,97.362,297.333,95.685C297.778,94.007,298.222,91.7,298.667,89.288C299.111,86.875,299.556,81.208,300,81.208C300.444,81.208,300.889,85.369,301.333,85.369C301.778,85.369,302.222,80.843,302.667,80.843C303.111,80.843,303.556,83.888,304,86.798C304.444,89.708,304.889,98.304,305.333,98.304C305.778,98.304,306.222,94.791,306.667,94.791C307.111,94.791,307.556,97.021,308,98.293C308.444,99.564,308.889,100.709,309.333,102.42C309.778,104.131,310.222,108.558,310.667,108.558C311.111,108.558,311.556,98.505,312,98.505C312.444,98.505,312.889,102.789,313.333,104.545C313.778,106.3,314.222,107.257,314.667,109.036C315.111,110.815,315.556,115.219,316,115.219C316.444,115.219,316.889,114.712,317.333,113.696C317.778,112.681,318.222,107.124,318.667,103.922C319.111,100.72,319.556,94.483,320,94.483C320.444,94.483,320.889,98.385,321.333,99.597C321.778,100.809,322.222,100.959,322.667,101.753C323.111,102.546,323.556,103.379,324,104.358C324.444,105.337,324.889,107.626,325.333,107.626C325.778,107.626,326.222,106.174,326.667,105.724C327.111,105.275,327.556,105.209,328,104.929C328.444,104.648,328.889,104.042,329.333,104.042C329.778,104.042,330.222,112.739,330.667,117.353C331.111,121.967,331.556,127.995,332,131.727C332.444,135.459,332.889,138.283,333.333,139.746C333.778,141.209,334.222,140.477,334.667,141.94C335.111,143.403,335.556,150.143,336,153.985C336.444,157.828,336.889,162.359,337.333,164.996C337.778,167.634,338.222,168.37,338.667,169.809C339.111,171.248,339.556,172.105,340,173.63C340.444,175.155,340.889,177.472,341.333,178.959C341.778,180.447,342.222,182.557,342.667,182.557C343.111,182.557,343.556,177.666,344,174.91C344.444,172.153,344.889,166.017,345.333,166.017C345.778,166.017,346.222,167.27,346.667,167.27C347.111,167.27,347.556,167.236,348,167.169C348.444,167.101,348.889,162.258,349.333,160.363C349.778,158.468,350.222,157.245,350.667,155.798C351.111,154.351,351.556,152.91,352,151.681C352.444,150.452,352.889,149.701,353.333,148.422C353.778,147.144,354.222,145.402,354.667,144.011C355.111,142.62,355.556,141.295,356,140.074C356.444,138.854,356.889,137.872,357.333,136.689C357.778,135.506,358.222,134.203,358.667,132.977C359.111,131.752,359.556,130.481,360,129.336C360.444,128.192,360.889,127.147,361.333,126.111C361.778,125.075,362.222,124.06,362.667,123.122C363.111,122.183,363.556,121.298,364,120.479C364.444,119.661,364.889,118.905,365.333,118.212C365.778,117.519,366.222,116.888,366.667,116.32C367.111,115.751,367.556,115.246,368,114.802C368.444,114.359,368.889,113.978,369.333,113.66C369.778,113.342,370.222,113.086,370.667,112.892C371.111,112.699,371.556,112.5,372,112.5C372.444,112.5,372.889,112.5,373.333,112.5C373.778,112.5,374.222,112.5,374.667,112.5C375.111,112.5,375.556,112.5,376,112.5C376.444,112.5,376.889,112.5,377.333,112.5C377.778,112.5,378.222,112.5,378.667,112.5C379.111,112.5,379.556,112.5,380,112.5C380.444,112.5,380.889,112.5,381.333,112.5C381.778,112.5,382.222,112.5,382.667,112.5C383.111,112.5,383.556,112.5,384,112.5C384.444,112.5,384.889,112.5,385.333,112.5C385.778,112.5,386.222,112.5,386.667,112.5C387.111,112.5,387.556,112.5,388,112.5C388.444,112.5,388.889,112.5,389.333,112.5C389.778,112.5,390.222,112.5,390.667,112.5C391.111,112.5,391.556,112.5,392,112.5C392.444,112.5,392.889,112.5,393.333,112.5C393.778,112.5,394.222,112.5,394.667,112.5C395.111,112.5,395.556,112.5,396,112.5C396.444,112.5,396.889,112.5,397.333,112.5C397.778,112.5,398.222,112.5,398.667,112.5C399.111,112.5,399.556,112.5,400,112.5C400.444,112.5,400.889,112.5,401.333,112.5C401.778,112.5,402.222,112.5,402.667,112.5C403.111,112.5,403.556,112.5,404,112.5C404.444,112.5,404.889,112.5,405.333,112.5C405.778,112.5,406.222,112.5,406.667,112.5C407.111,112.5,407.556,112.5,408,112.5C408.444,112.5,408.889,112.5,409.333,112.5" stroke="#FF69B4" stroke-width="3" opacity="0.8"/></g></g><path class="foreground" aria-hidden="true" d="" display="none"/></g></g><g class="mark-area role-mark layer_3_marks" role="graphics-object" aria-roledescription="area mark container"><path aria-label="x: 2018; y: −3; y2: 5" role="graphics-symbol" aria-roledescription="area mark" d="M344,300L386.667,300L386.667,0L344,0Z" fill="url(#gradient_119)" opacity="0.4"/></g><g class="mark-text role-mark layer_4_marks" role="graphics-object" aria-roledescription="text mark container"><text aria-label="x: 2018; y: 5" role="graphics-symbol" aria-roledescription="text mark" text-anchor="end" transform="translate(339,14)" font-family="Circular Std Book" font-size="11px" fill="#b4c8d8" opacity="0.5">2018</text></g><g class="mark-symbol role-mark layer_5_marks" role="graphics-object" aria-roledescription="symbol mark container"><path aria-label="year: 2018; value: 1.2; ind: Real GDP" role="graphics-symbol" aria-roledescription="circle" transform="translate(344,141.60081232684132)" d="M2.739,0A2.739,2.739,0,1,1,-2.739,0A2.739,2.739,0,1,1,2.739,0" fill="#00A767" stroke-width="2" opacity="1"/><path aria-label="year: 2018; value: 0.3; ind: Productivity" role="graphics-symbol" aria-roledescription="circle" transform="translate(344,174.90952511341902)" d="M2.739,0A2.739,2.739,0,1,1,-2.739,0A2.739,2.739,0,1,1,2.739,0" fill="#FF69B4" stroke-width="2" opacity="1"/></g><g class="mark-text role-mark layer_6_marks" role="graphics-object" aria-roledescription="text mark container"><text aria-label="year: 2067; value: −0.2; ind: Employment; t: Employment" role="graphics-symbol" aria-roledescription="text mark" text-anchor="start" transform="translate(409.33333333333337,197.07252651772345)" font-family="Circular Std Book" font-size="11px" fill="#F4C245">Employment</text><text aria-label="year: 2067; value: 2.0; ind: Productivity; t: Productivity" role="graphics-symbol" aria-roledescription="text mark" text-anchor="start" transform="translate(409.33333333333337,115.5)" font-family="Circular Std Book" font-size="11px" fill="#FF69B4">Productivity</text></g><g class="mark-text role-mark layer_7_marks" role="graphics-object" aria-roledescription="text mark container"><text aria-label="year: 2067; value: 2.2; ind: Real GDP; t: Real GDP" role="graphics-symbol" aria-roledescription="text mark" text-anchor="start" transform="translate(409.33333333333337,103.92747348227655)" font-family="Circular Std Book" font-size="11px" fill="#00A767">Real GDP</text></g><g class="mark-text role-mark layer_8_marks" role="graphics-object" aria-roledescription="text mark container"><text aria-label="year: 2067; value: 0.0; ind: Average hours; t: Average hours" role="graphics-symbol" aria-roledescription="text mark" text-anchor="start" transform="translate(409.33333333333337,183.5)" font-family="Circular Std Book" font-size="11px" fill="#179FDB">Average hours</text></g><g class="mark-group role-title"><g transform="translate(-23.1396484375,-46)"><path class="background" aria-hidden="true" d="M0,0h0v0h0Z" pointer-events="none"/><g><g class="mark-text role-title-text" role="graphics-symbol" aria-roledescription="title" aria-label="Title text 'Contributions to growth of productivity'" pointer-events="none"><text text-anchor="start" transform="translate(0,12)" font-family="Circular Std Book" font-size="15px" font-weight="bold" fill="#b4c8d8dd" opacity="1">Contributions to growth of productivity</text></g><g class="mark-text role-title-subtitle" role="graphics-symbol" aria-roledescription="subtitle" aria-label="Subtitle text 'Source: Office for Budget Responsibility, UK, 2018'" pointer-events="none"><text text-anchor="start" transform="translate(0,384)" font-family="Circular Std Book" font-size="11px" fill="#b4c8d8bb" opacity="1">Source: Office for Budget Responsibility, UK, 2018</text></g></g><path class="foreground" aria-hidden="true" d="" pointer-events="none" display="none"/></g></g></g><path class="foreground" aria-hidden="true" d="" display="none"/></g></g></g><defs><linearGradient id="gradient_119" x1="1" x2="0" y1="1" y2="1"><stop offset="0" stop-color="#ffffff00"/><stop offset="1" stop-color="#b4c8d8"/></linearGradient><clipPath id="clip269"><rect x="0" y="0" width="400" height="300"/></clipPath><clipPath id="clip270"><rect x="0" y="0" width="400" height="300"/></clipPath><clipPath id="clip271"><rect x="0" y="0" width="400" height="300"/></clipPath><clipPath id="clip272"><rect x="0" y="0" width="400" height="300"/></clipPath><clipPath id="clip273"><rect x="0" y="0" width="400" height="300"/></clipPath></defs></svg>