<svg xmlns="http://www.w3.org/2000/svg" xmlns:xlink="http://www.w3.org/1999/xlink" version="1.1" class="marks" width="528" height="396" viewBox="0 0 528 396"><rect width="528" height="396" fill="white"/><g fill="none" stroke-miterlimit="10" transform="translate(28,36)"><g class="mark-group role-frame root" role="graphics-object" aria-roledescription="group mark container"><g transform="translate(0,0)"><path class="background" aria-hidden="true" d="M0,0h400v300h-400Z"/><g><g class="mark-group role-axis" aria-hidden="true"><g transform="translate(0.5,300.5)"><path class="background" aria-hidden="true" d="M0,0h0v0h0Z" pointer-events="none"/><g><g class="mark-rule role-axis-grid" pointer-events="none"><line transform="translate(27,-300)" x2="0" y2="300" stroke="#676A86" stroke-opacity="0.5" stroke-width="1" stroke-dasharray="1,5" opacity="1"/><line transform="translate(82,-300)" x2="0" y2="300" stroke="#676A86" stroke-opacity="0.5" stroke-width="1" stroke-dasharray="1,5" opacity="1"/><line transform="translate(136,-300)" x2="0" y2="300" stroke="#676A86" stroke-opacity="0.5" stroke-width="1" stroke-dasharray="1,5" opacity="1"/><line transform="translate(190,-300)" x2="0" y2="300" stroke="#676A86" stroke-opacity="0.5" stroke-width="1" stroke-dasharray="1,5" opacity="1"/><line transform="translate(245,-300)" x2="0" y2="300" stroke="#676A86" stroke-opacity="0.5" stroke-width="1" stroke-dasharray="1,5" opacity="1"/><line transform="translate(299,-300)" x2="0" y2="300" stroke="#676A86" stroke-opacity="0.5" stroke-width="1" stroke-dasharray="1,5" opacity="1"/><line transform="translate(354,-300)" x2="0" y2="300" stroke="#676A86" stroke-opacity="0.5" stroke-width="1" stroke-dasharray="1,5" opacity="1"/></g></g><path class="foreground" aria-hidden="true" d="" pointer-events="none" display="none"/></g></g><g class="mark-group role-axis" aria-hidden="true"><g transform="translate(0.5,0.5)"><path class="background" aria-hidden="true" d="M0,0h0v0h0Z" pointer-events="none"/><g><g class="mark-rule role-axis-grid" pointer-events="none"><line transform="translate(0,300)" x2="400" y2="0" stroke="#676A86" stroke-opacity="0.5" stroke-width="1" stroke-dasharray="1,5" opacity="1"/><line transform="translate(0,276)" x2="400" y2="0" stroke="#676A86" stroke-opacity="0.5" stroke-width="1" stroke-dasharray="1,5" opacity="1"/><line transform="translate(0,252)" x2="400" y2="0" stroke="#676A86" stroke-opacity="0.5" stroke-width="1" stroke-dasharray="1,5" opacity="1"/><line transform="translate(0,228)" x2="400" y2="0" stroke="#676A86" stroke-opacity="0.5" stroke-width="1" stroke-dasharray="1,5" opacity="1"/><line transform="translate(0,204)" x2="400" y2="0" stroke="#676A86" stroke-opacity="0.5" stroke-width="1" stroke-dasharray="1,5" opacity="1"/><line transform="translate(0,180)" x2="400" y2="0" stroke="#676A86" stroke-opacity="0.5" stroke-width="1" stroke-dasharray="1,5" opacity="1"/><line transform="translate(0,156)" x2="400" y2="0" stroke="#676A86" stroke-opacity="0.5" stroke-width="1" stroke-dasharray="1,5" opacity="1"/><line transform="translate(0,132)" x2="400" y2="0" stroke="#676A86" stroke-opacity="0.5" stroke-width="1" stroke-dasharray="1,5" opacity="1"/><line transform="translate(0,108)" x2="400" y2="0" stroke="#676A86" stroke-opacity="0.5" stroke-width="1" stroke-dasharray="1,5" opacity="1"/><line transform="translate(0,84)" x2="400" y2="0" stroke="#676A86" stroke-opacity="0.5" stroke-width="1" stroke-dasharray="1,5" opacity="1"/><line transform="translate(0,60)" x2="400" y2="0" stroke="#676A86" stroke-opacity="0.5" stroke-width="1" stroke-dasharray="1,5" opacity="1"/><line transform="translate(0,36)" x2="400" y2="0" stroke="#676A86" stroke-opacity="0.5" stroke-width="1" stroke-dasharray="1,5" opacity="1"/><line transform="translate(0,12)" x2="400" y2="0" stroke="#676A86" stroke-opacity="0.5" stroke-width="1" stroke-dasharray="1,5" opacity="1"/></g></g><path class="foreground" aria-hidden="true" d="" pointer-events="none" display="none"/></g></g><g class="mark-group role-axis" role="graphics-symbol" aria-roledescription="axis" aria-label="X-axis for a linear scale with values from 1870 to 2017"><g transform="translate(0.5,300.5)"><path class="background" aria-hidden="true" d="M0,0h0v0h0Z" pointer-events="none"/><g><g class="mark-rule role-axis-tick" pointer-events="none"><line transform="translate(27,0)" x2="0" y2="5" stroke="#676A86" stroke-opacity="0.5" stroke-width="1" opacity="1"/><line transform="translate(82,0)" x2="0" y2="5" stroke="#676A86" stroke-opacity="0.5" stroke-width="1" opacity="1"/><line transform="translate(136,0)" x2="0" y2="5" stroke="#676A86" stroke-opacity="0.5" stroke-width="1" opacity="1"/><line transform="translate(190,0)" x2="0" y2="5" stroke="#676A86" stroke-opacity="0.5" stroke-width="1" opacity="1"/><line transform="translate(245,0)" x2="0" y2="5" stroke="#676A86" stroke-opacity="0.5" stroke-width="1" opacity="1"/><line transform="translate(299,0)" x2="0" y2="5" stroke="#676A86" stroke-opacity="0.5" stroke-width="1" opacity="1"/><line transform="translate(354,0)" x2="0" y2="5" stroke="#676A86" stroke-opacity="0.5" stroke-width="1" opacity="1"/></g><g class="mark-text role-axis-label" pointer-events="none"><text text-anchor="middle" transform="translate(27.2108843537415,15)" font-family="Circular Std Book" font-size="10px" fill="#676A86" fill-opacity="0.7" opacity="1">1880</text><text text-anchor="middle" transform="translate(81.63265306122449,15)" font-family="Circular Std Book" font-size="10px" fill="#676A86" fill-opacity="0.7" opacity="1">1900</text><text text-anchor="middle" transform="translate(136.05442176870747,15)" font-family="Circular Std Book" font-size="10px" fill="#676A86" fill-opacity="0.7" opacity="1">1920</text><text text-anchor="middle" transform="translate(190.47619047619045,15)" font-family="Circular Std Book" font-size="10px" fill="#676A86" fill-opacity="0.7" opacity="1">1940</text><text text-anchor="middle" transform="translate(244.89795918367346,15)" font-family="Circular Std Book" font-size="10px" fill="#676A86" fill-opacity="0.7" opacity="1">1960</text><text text-anchor="middle" transform="translate(299.3197278911565,15)" font-family="Circular Std Book" font-size="10px" fill="#676A86" fill-opacity="0.7" opacity="1">1980</text><text text-anchor="middle" transform="translate(353.74149659863946,15)" font-family="Circular Std Book" font-size="10px" fill="#676A86" fill-opacity="0.7" opacity="1">2000</text></g><g class="mark-rule role-axis-domain" pointer-events="none"><line transform="translate(0,0)" x2="400" y2="0" stroke="#676A86" stroke-opacity="0.5" stroke-width="1" opacity="1"/></g></g><path class="foreground" aria-hidden="true" d="" pointer-events="none" display="none"/></g></g><g class="mark-group role-axis" role="graphics-symbol" aria-roledescription="axis" aria-label="Y-axis titled 'Average working hours per worker over a year (hours)' for a linear scale with values from 1.0k to 3.5k"><g transform="translate(0.5,0.5)"><path class="background" aria-hidden="true" d="M0,0h0v0h0Z" pointer-events="none"/><g><g class="mark-text role-axis-label" pointer-events="none"><text text-anchor="end" transform="translate(-5,303)" font-family="Circular Std Book" font-size="10px" fill="#676A86" fill-opacity="0.7" opacity="1">1.0k</text><text text-anchor="end" transform="translate(-5,279)" font-family="Circular Std Book" font-size="10px" fill="#676A86" fill-opacity="0.7" opacity="1">1.2k</text><text text-anchor="end" transform="translate(-5,255)" font-family="Circular Std Book" font-size="10px" fill="#676A86" fill-opacity="0.7" opacity="1">1.4k</text><text text-anchor="end" transform="translate(-5,231)" font-family="Circular Std Book" font-size="10px" fill="#676A86" fill-opacity="0.7" opacity="1">1.6k</text><text text-anchor="end" transform="translate(-5,206.99999999999997)" font-family="Circular Std Book" font-size="10px" fill="#676A86" fill-opacity="0.7" opacity="1">1.8k</text><text text-anchor="end" transform="translate(-5,183)" font-family="Circular Std Book" font-size="10px" fill="#676A86" fill-opacity="0.7" opacity="1">2.0k</text><text text-anchor="end" transform="translate(-5,159)" font-family="Circular Std Book" font-size="10px" fill="#676A86" fill-opacity="0.7" opacity="1">2.2k</text><text text-anchor="end" transform="translate(-5,134.99999999999997)" font-family="Circular Std Book" font-size="10px" fill="#676A86" fill-opacity="0.7" opacity="1">2.4k</text><text text-anchor="end" transform="translate(-5,111)" font-family="Circular Std Book" font-size="10px" fill="#676A86" fill-opacity="0.7" opacity="1">2.6k</text><text text-anchor="end" transform="translate(-5,87.00000000000001)" font-family="Circular Std Book" font-size="10px" fill="#676A86" fill-opacity="0.7" opacity="1">2.8k</text><text text-anchor="end" transform="translate(-5,62.999999999999986)" font-family="Circular Std Book" font-size="10px" fill="#676A86" fill-opacity="0.7" opacity="1">3.0k</text><text text-anchor="end" transform="translate(-5,39)" font-family="Circular Std Book" font-size="10px" fill="#676A86" fill-opacity="0.7" opacity="1">3.2k</text><text text-anchor="end" transform="translate(-5,15.00000000000001)" font-family="Circular Std Book" font-size="10px" fill="#676A86" fill-opacity="0.7" opacity="1">3.4k</text></g><g class="mark-rule role-axis-domain" pointer-events="none"><line transform="translate(0,300)" x2="0" y2="-300" stroke="#676A86" stroke-opacity="0.5" stroke-width="1" opacity="1"/></g><g class="mark-text role-axis-title" pointer-events="none"><text text-anchor="start" transform="translate(0,-10)" font-family="Circular Std Book" font-size="12px" font-weight="normal" fill="#676A86" fill-opacity="0.8" opacity="1">Average working hours per worker over a year (hours)</text></g></g><path class="foreground" aria-hidden="true" d="" pointer-events="none" display="none"/></g></g><g class="mark-group role-scope layer_0_pathgroup" role="graphics-object" aria-roledescription="group mark container"><g transform="translate(0,0)"><path class="background" aria-hidden="true" d="M0,0h400v300h-400Z"/><g><g class="mark-line role-mark layer_0_marks" clip-path="url(#clip241)" role="graphics-object" aria-roledescription="line mark container"><path aria-label="year: 1870; value: 2.79200k; key: Australia" role="graphics-symbol" aria-roledescription="line mark" d="M0,84.96C9.07,90.75,18.141,96.54,27.211,102.36C36.281,108.18,45.351,114.64,54.422,119.88C63.492,125.12,72.562,128.89,81.633,133.8C93.424,140.183,105.215,152.5,117.007,154.32C131.519,156.56,146.032,155.44,160.544,157.68C168.707,158.94,176.871,166.92,185.034,166.92C195.918,166.92,206.803,158.611,217.687,158.611C218.594,158.611,219.501,160.226,220.408,161.028C221.315,161.83,222.222,162.628,223.129,163.423C224.036,164.217,224.943,165.008,225.85,165.796C226.757,166.583,227.664,167.366,228.571,168.146C229.478,168.926,230.385,169.703,231.293,170.476C232.2,171.248,233.107,172.017,234.014,172.783C234.921,173.549,235.828,174.311,236.735,175.069C237.642,175.828,238.549,176.583,239.456,177.334C240.363,178.086,241.27,178.834,242.177,179.579C243.084,180.323,243.991,181.509,244.898,181.802C245.805,182.095,246.712,182.095,247.619,182.241C248.526,182.388,249.433,182.534,250.34,182.68C251.247,182.826,252.154,182.972,253.061,183.118C253.968,183.264,254.875,183.409,255.782,183.555C256.689,183.7,257.596,183.846,258.503,183.991C259.41,184.136,260.317,184.281,261.224,184.426C262.132,184.571,263.039,184.716,263.946,184.861C264.853,185.006,265.76,185.15,266.667,185.295C267.574,185.439,268.481,185.584,269.388,185.728C270.295,185.872,271.202,185.872,272.109,186.16C273.016,186.448,273.923,187.622,274.83,188.404C275.737,189.186,276.644,190.176,277.551,190.852C278.458,191.528,279.365,192.458,280.272,192.458C281.179,192.458,282.086,190.38,282.993,190.38C283.9,190.38,284.807,191.974,285.714,191.974C286.621,191.974,287.528,190.869,288.435,190.724C289.342,190.58,290.249,190.561,291.156,190.508C292.063,190.455,292.971,190.474,293.878,190.406C294.785,190.338,295.692,189.788,296.599,189.755C297.506,189.723,298.413,189.707,299.32,189.707C300.227,189.707,301.134,191.171,302.041,191.923C302.948,192.675,303.855,193.587,304.762,194.219C305.669,194.852,306.576,195.717,307.483,195.717C308.39,195.717,309.297,193.958,310.204,193.958C311.111,193.958,312.018,195.572,312.925,195.572C313.832,195.572,314.739,194.32,315.646,194.32C316.553,194.32,317.46,194.574,318.367,194.696C319.274,194.818,320.181,195.05,321.088,195.05C321.995,195.05,322.902,193.528,323.81,193.528C324.717,193.528,325.624,195.178,326.531,195.846C327.438,196.513,328.345,197.368,329.252,197.532C330.159,197.697,331.066,197.779,331.973,197.779C332.88,197.779,333.787,196.163,334.694,195.646C335.601,195.128,336.508,194.673,337.415,194.673C338.322,194.673,339.229,194.745,340.136,194.89C341.043,195.035,341.95,195.614,342.857,195.749C343.764,195.884,344.671,195.816,345.578,195.951C346.485,196.086,347.392,197.852,348.299,197.852C349.206,197.852,350.113,197.301,351.02,197.301C351.927,197.301,352.834,197.372,353.741,197.516C354.649,197.659,355.556,201.486,356.463,201.814C357.37,202.143,358.277,202.078,359.184,202.308C360.091,202.538,360.998,203.057,361.905,203.193C362.812,203.33,363.719,203.323,364.626,203.398C365.533,203.472,366.44,203.478,367.347,203.639C368.254,203.8,369.161,204.961,370.068,204.961C370.975,204.961,371.882,204.882,372.789,204.882C373.696,204.882,374.603,204.966,375.51,205.135C376.417,205.304,377.324,208.585,378.231,208.585C379.138,208.585,380.045,207.683,380.952,207.683C381.859,207.683,382.766,207.709,383.673,207.762C384.58,207.815,385.488,208.601,386.395,208.858C387.302,209.114,388.209,209.069,389.116,209.301C390.023,209.532,390.93,210.173,391.837,210.248C392.744,210.322,393.651,210.285,394.558,210.359C395.465,210.433,396.372,211.677,397.279,211.894C398.186,212.112,399.093,212.166,400,212.221" stroke="#676A86" stroke-width="2" opacity="0.8"/></g></g><path class="foreground" aria-hidden="true" d="" display="none"/></g><g transform="translate(0,0)"><path class="background" aria-hidden="true" d="M0,0h400v300h-400Z"/><g><g class="mark-line role-mark layer_0_marks" clip-path="url(#clip242)" role="graphics-object" aria-roledescription="line mark container"><path aria-label="year: 1870; value: 3.48300k; key: Belgium" role="graphics-symbol" aria-roledescription="line mark" d="M0,2.04C9.07,7.32,18.141,12.6,27.211,18.72C36.281,24.84,45.351,33.16,54.422,38.76C63.492,44.36,72.562,46.782,81.633,52.32C93.424,59.519,105.215,65.242,117.007,79.08C131.519,96.111,146.032,147.827,160.544,152.52C168.707,155.16,176.871,154.571,185.034,156.48C195.918,159.026,206.803,162.431,217.687,167.262C218.594,167.665,219.501,168.085,220.408,168.495C221.315,168.906,222.222,169.315,223.129,169.723C224.036,170.131,224.943,170.538,225.85,170.944C226.757,171.35,227.664,171.755,228.571,172.16C229.478,172.564,230.385,172.967,231.293,173.369C232.2,173.771,233.107,174.173,234.014,174.573C234.921,174.973,235.828,175.372,236.735,175.77C237.642,176.169,238.549,176.566,239.456,176.962C240.363,177.359,241.27,177.754,242.177,178.148C243.084,178.543,243.991,178.893,244.898,179.329C245.805,179.765,246.712,180.287,247.619,180.764C248.526,181.241,249.433,181.717,250.34,182.191C251.247,182.666,252.154,183.139,253.061,183.61C253.968,184.081,254.875,184.551,255.782,185.02C256.689,185.489,257.596,185.956,258.503,186.422C259.41,186.888,260.317,187.352,261.224,187.815C262.132,188.278,263.039,188.74,263.946,189.2C264.853,189.66,265.76,190.119,266.667,190.577C267.574,191.034,268.481,191.491,269.388,191.945C270.295,192.4,271.202,192.892,272.109,193.306C273.016,193.72,273.923,193.718,274.83,194.429C275.737,195.14,276.644,196.518,277.551,197.571C278.458,198.624,279.365,199.617,280.272,200.747C281.179,201.877,282.086,203.56,282.993,204.351C283.9,205.141,284.807,205.536,285.714,205.536C286.621,205.536,287.528,205.442,288.435,205.442C289.342,205.442,290.249,207.614,291.156,208.498C292.063,209.383,292.971,210.039,293.878,210.749C294.785,211.46,295.692,212.029,296.599,212.761C297.506,213.494,298.413,214.276,299.32,215.145C300.227,216.014,301.134,217.225,302.041,217.977C302.948,218.73,303.855,219.658,304.762,219.658C305.669,219.658,306.576,219.418,307.483,218.937C308.39,218.457,309.297,216.537,310.204,216.057C311.111,215.576,312.018,215.336,312.925,215.336C313.832,215.336,314.739,217.037,315.646,217.737C316.553,218.437,317.46,218.998,318.367,219.538C319.274,220.078,320.181,220.558,321.088,220.978C321.995,221.398,322.902,222.059,323.81,222.059C324.717,222.059,325.624,220.378,326.531,220.378C327.438,220.378,328.345,223.619,329.252,224.819C330.159,226.02,331.066,226.24,331.973,227.58C332.88,228.921,333.787,232.862,334.694,232.862C335.601,232.862,336.508,232.862,337.415,232.862C338.322,232.862,339.229,229.741,340.136,229.741C341.043,229.741,341.95,232.862,342.857,232.862C343.764,232.862,344.671,231.782,345.578,231.301C346.485,230.821,347.392,229.981,348.299,229.981C349.206,229.981,350.113,230.101,351.02,230.101C351.927,230.101,352.834,228.618,353.741,228.618C354.649,228.618,355.556,229.152,356.463,229.395C357.37,229.638,358.277,229.862,359.184,230.074C360.091,230.286,360.998,230.47,361.905,230.665C362.812,230.86,363.719,230.997,364.626,231.245C365.533,231.492,366.44,232.148,367.347,232.148C368.254,232.148,369.161,231.555,370.068,231.331C370.975,231.106,371.882,230.801,372.789,230.801C373.696,230.801,374.603,231.068,375.51,231.602C376.417,232.137,377.324,234.045,378.231,234.226C379.138,234.408,380.045,234.498,380.952,234.498C381.859,234.498,382.766,232.868,383.673,232.845C384.58,232.823,385.488,232.811,386.395,232.811C387.302,232.811,388.209,232.945,389.116,233.039C390.023,233.133,390.93,233.151,391.837,233.376C392.744,233.6,393.651,234.647,394.558,234.647C395.465,234.647,396.372,234.502,397.279,234.502C398.186,234.502,399.093,234.595,400,234.688" stroke="#0063AF" stroke-width="2" opacity="0.8"/></g></g><path class="foreground" aria-hidden="true" d="" display="none"/></g><g transform="translate(0,0)"><path class="background" aria-hidden="true" d="M0,0h400v300h-400Z"/><g><g class="mark-line role-mark layer_0_marks" clip-path="url(#clip243)" role="graphics-object" aria-roledescription="line mark container"><path aria-label="year: 1870; value: 2.84500k; key: Canada" role="graphics-symbol" aria-roledescription="line mark" d="M0,78.6C9.07,74.98,18.141,71.36,27.211,67.92C36.281,64.48,45.351,61.32,54.422,57.96C63.492,54.6,72.562,47.76,81.633,47.76C93.424,47.76,105.215,63.187,117.007,75.84C131.519,91.412,146.032,123.656,160.544,137.52C168.707,145.319,176.871,154.394,185.034,154.56C195.918,154.781,206.803,154.671,217.687,154.892C218.594,154.91,219.501,156.152,220.408,156.698C221.315,157.244,222.222,158.054,223.129,158.167C224.036,158.28,224.943,158.224,225.85,158.337C226.757,158.45,227.664,158.77,228.571,159.288C229.478,159.805,230.385,160.835,231.293,161.441C232.2,162.048,233.107,162.293,234.014,162.927C234.921,163.56,235.828,164.549,236.735,165.242C237.642,165.935,238.549,166.832,239.456,167.086C240.363,167.341,241.27,167.213,242.177,167.468C243.084,167.722,243.991,168.345,244.898,169.103C245.805,169.862,246.712,171.905,247.619,172.021C248.526,172.137,249.433,172.079,250.34,172.195C251.247,172.311,252.154,173.438,253.061,173.957C253.968,174.476,254.875,174.724,255.782,175.307C256.689,175.89,257.596,176.574,258.503,177.454C259.41,178.334,260.317,179.874,261.224,180.586C262.132,181.299,263.039,181.055,263.946,181.728C264.853,182.401,265.76,183.76,266.667,184.623C267.574,185.485,268.481,186.174,269.388,186.904C270.295,187.633,271.202,188.391,272.109,189C273.016,189.609,273.923,190.14,274.83,190.56C275.737,190.98,276.644,191.24,277.551,191.52C278.458,191.8,279.365,191.98,280.272,192.24C281.179,192.5,282.086,192.56,282.993,193.08C283.9,193.6,284.807,194.78,285.714,195.36C286.621,195.94,287.528,195.8,288.435,196.56C289.342,197.32,290.249,199.92,291.156,199.92C292.063,199.92,292.971,199.82,293.878,199.68C294.785,199.54,295.692,199.08,296.599,199.08C297.506,199.08,298.413,200.18,299.32,200.76C300.227,201.34,301.134,201.8,302.041,202.56C302.948,203.32,303.855,204.66,304.762,205.32C305.669,205.98,306.576,206.52,307.483,206.52C308.39,206.52,309.297,205.64,310.204,205.32C311.111,205,312.018,204.76,312.925,204.6C313.832,204.44,314.739,204.52,315.646,204.36C316.553,204.2,317.46,203.24,318.367,203.16C319.274,203.08,320.181,203.04,321.088,203.04C321.995,203.04,322.902,203.54,323.81,203.76C324.717,203.98,325.624,203.96,326.531,204.36C327.438,204.76,328.345,206.76,329.252,207C330.159,207.24,331.066,207.24,331.973,207.36C332.88,207.48,333.787,207.72,334.694,207.72C335.601,207.72,336.508,206.64,337.415,206.64C338.322,206.64,339.229,207,340.136,207C341.043,207,341.95,205.2,342.857,205.2C343.764,205.2,344.671,205.606,345.578,205.764C346.485,205.921,347.392,206.137,348.299,206.145C349.206,206.153,350.113,206.149,351.02,206.157C351.927,206.165,352.834,206.347,353.741,206.566C354.649,206.785,355.556,206.969,356.463,207.47C357.37,207.971,358.277,209.07,359.184,209.571C360.091,210.072,360.998,210.477,361.905,210.477C362.812,210.477,363.719,208.91,364.626,208.91C365.533,208.91,366.44,210.271,367.347,210.408C368.254,210.545,369.161,210.506,370.068,210.613C370.975,210.72,371.882,210.847,372.789,211.048C373.696,211.25,374.603,211.306,375.51,211.822C376.417,212.338,377.324,215.873,378.231,215.873C379.138,215.873,380.045,215.637,380.952,215.637C381.859,215.637,382.766,216.047,383.673,216.047C384.58,216.047,385.488,214.495,386.395,214.495C387.302,214.495,388.209,214.933,389.116,215.11C390.023,215.288,390.93,215.562,391.837,215.562C392.744,215.562,393.651,215.151,394.558,215.151C395.465,215.151,396.372,215.432,397.279,215.644C398.186,215.856,399.093,216.14,400,216.425" stroke-width="2" opacity="0.8"/></g></g><path class="foreground" aria-hidden="true" d="" display="none"/></g><g transform="translate(0,0)"><path class="background" aria-hidden="true" d="M0,0h400v300h-400Z"/><g><g class="mark-line role-mark layer_0_marks" clip-path="url(#clip244)" role="graphics-object" aria-roledescription="line mark container"><path aria-label="year: 1951; value: 2.67781k; key: Chile" role="graphics-symbol" aria-roledescription="line mark" d="M220.408,98.663C221.315,99.576,222.222,100.488,223.129,101.395C224.036,102.301,224.943,103.204,225.85,104.103C226.757,105.002,227.664,105.897,228.571,106.788C229.478,107.68,230.385,108.567,231.293,109.451C232.2,110.334,233.107,111.214,234.014,112.091C234.921,112.967,235.828,113.839,236.735,114.708C237.642,115.577,238.549,116.442,239.456,117.303C240.363,118.165,241.27,119.022,242.177,119.876C243.084,120.73,243.991,121.831,244.898,122.427C245.805,123.024,246.712,123.113,247.619,123.454C248.526,123.796,249.433,124.137,250.34,124.477C251.247,124.818,252.154,125.158,253.061,125.497C253.968,125.836,254.875,126.175,255.782,126.513C256.689,126.851,257.596,127.189,258.503,127.526C259.41,127.863,260.317,128.199,261.224,128.535C262.132,128.871,263.039,129.206,263.946,129.541C264.853,129.875,265.76,130.209,266.667,130.543C267.574,130.876,268.481,131.209,269.388,131.542C270.295,131.874,271.202,132.314,272.109,132.537C273.016,132.76,273.923,132.765,274.83,132.879C275.737,132.993,276.644,133.107,277.551,133.221C278.458,133.335,279.365,133.446,280.272,133.563C281.179,133.679,282.086,133.801,282.993,133.92C283.9,134.039,284.807,134.158,285.714,134.277C286.621,134.395,287.528,134.514,288.435,134.633C289.342,134.751,290.249,134.87,291.156,134.989C292.063,135.107,292.971,135.226,293.878,135.344C294.785,135.462,295.692,135.581,296.599,135.699C297.506,135.817,298.413,136.053,299.32,136.053C300.227,136.053,301.134,135.613,302.041,135.392C302.948,135.171,303.855,134.951,304.762,134.729C305.669,134.508,306.576,134.287,307.483,134.065C308.39,133.843,309.297,133.621,310.204,133.399C311.111,133.177,312.018,132.954,312.925,132.732C313.832,132.509,314.739,132.286,315.646,132.063C316.553,131.839,317.46,131.616,318.367,131.392C319.274,131.168,320.181,130.944,321.088,130.72C321.995,130.496,322.902,130.281,323.81,130.046C324.717,129.812,325.624,129.314,326.531,129.314C327.438,129.314,328.345,129.592,329.252,129.731C330.159,129.871,331.066,129.871,331.973,130.149C332.88,130.428,333.787,132.237,334.694,133.272C335.601,134.307,336.508,135.337,337.415,136.361C338.322,137.385,339.229,138.404,340.136,139.417C341.043,140.43,341.95,140.796,342.857,142.44C343.764,144.084,344.671,149.28,345.578,149.28C346.485,149.28,347.392,144.12,348.299,144.12C349.206,144.12,350.113,146.04,351.02,146.76C351.927,147.48,352.834,147.74,353.741,148.44C354.649,149.14,355.556,150.96,356.463,150.96C357.37,150.96,358.277,150,359.184,150C360.091,150,360.998,151.56,361.905,151.8C362.812,152.04,363.719,151.92,364.626,152.16C365.533,152.4,366.44,161.16,367.347,161.16C368.254,161.16,369.161,160.2,370.068,160.2C370.975,160.2,371.882,163.24,372.789,164.64C373.696,166.04,374.603,167.52,375.51,168.6C376.417,169.68,377.324,170.8,378.231,171.12C379.138,171.44,380.045,171.28,380.952,171.6C381.859,171.92,382.766,173.44,383.673,174.36C384.58,175.28,385.488,176.48,386.395,177.12C387.302,177.76,388.209,177.52,389.116,178.2C390.023,178.88,390.93,181.04,391.837,181.2C392.744,181.36,393.651,181.28,394.558,181.44C395.465,181.6,396.372,183.12,397.279,183.12C398.186,183.12,399.093,183.12,400,183.12" stroke="#EB5C2E" stroke-width="2" opacity="0.8"/></g></g><path class="foreground" aria-hidden="true" d="" display="none"/></g><g transform="translate(0,0)"><path class="background" aria-hidden="true" d="M0,0h400v300h-400Z"/><g><g class="mark-line role-mark layer_0_marks" clip-path="url(#clip245)" role="graphics-object" aria-roledescription="line mark container"><path aria-label="year: 1870; value: 3.16800k; key: France" role="graphics-symbol" aria-roledescription="line mark" d="M0,39.84C9.07,39.9,18.141,39.96,27.211,40.2C36.281,40.44,45.351,45.4,54.422,45.72C63.492,46.04,72.562,45.88,81.633,46.2C93.424,46.616,105.215,53.48,117.007,68.04C131.519,85.96,146.032,125.722,160.544,156.24C168.707,173.406,176.871,208.8,185.034,208.8C195.918,208.8,206.803,167.531,217.687,156.802C218.594,155.908,219.501,154.257,220.408,154.257C221.315,154.257,222.222,155.552,223.129,156.262C224.036,156.973,224.943,158.52,225.85,158.52C226.757,158.52,227.664,156.757,228.571,156.757C229.478,156.757,230.385,157.344,231.293,158.518C232.2,159.692,233.107,162.904,234.014,164.341C234.921,165.778,235.828,166.459,236.735,167.139C237.642,167.82,238.549,168.422,239.456,168.422C240.363,168.422,241.27,168.278,242.177,167.99C243.084,167.701,243.991,166.607,244.898,166.607C245.805,166.607,246.712,168.962,247.619,168.962C248.526,168.962,249.433,167.1,250.34,167.1C251.247,167.1,252.154,168.753,253.061,168.753C253.968,168.753,254.875,167.55,255.782,167.55C256.689,167.55,257.596,168.511,258.503,168.844C259.41,169.177,260.317,169.078,261.224,169.547C262.132,170.016,263.039,172.247,263.946,173.304C264.853,174.36,265.76,174.165,266.667,175.888C267.574,177.611,268.481,182.969,269.388,184.267C270.295,185.564,271.202,186.179,272.109,186.212C273.016,186.245,273.923,186.229,274.83,186.262C275.737,186.295,276.644,191.139,277.551,192.229C278.458,193.32,279.365,192.998,280.272,193.865C281.179,194.732,282.086,196.344,282.993,197.43C283.9,198.516,284.807,200.382,285.714,200.382C286.621,200.382,287.528,197.181,288.435,197.181C289.342,197.181,290.249,200.27,291.156,201.611C292.063,202.953,292.971,205.012,293.878,205.23C294.785,205.448,295.692,205.34,296.599,205.558C297.506,205.775,298.413,205.988,299.32,206.536C300.227,207.084,301.134,207.306,302.041,208.846C302.948,210.386,303.855,216.076,304.762,217.45C305.669,218.824,306.576,219.051,307.483,219.511C308.39,219.97,309.297,219.742,310.204,220.206C311.111,220.669,312.018,224.05,312.925,224.348C313.832,224.645,314.739,224.794,315.646,224.794C316.553,224.794,317.46,223.75,318.367,223.32C319.274,222.89,320.181,222.213,321.088,222.213C321.995,222.213,322.902,223.591,323.81,223.958C324.717,224.325,325.624,224.287,326.531,224.508C327.438,224.73,328.345,225.201,329.252,225.286C330.159,225.37,331.066,225.328,331.973,225.412C332.88,225.496,333.787,226.116,334.694,226.311C335.601,226.505,336.508,226.408,337.415,226.602C338.322,226.797,339.229,228.831,340.136,229.118C341.043,229.405,341.95,229.445,342.857,229.548C343.764,229.652,344.671,229.612,345.578,229.74C346.485,229.867,347.392,230.591,348.299,230.913C349.206,231.234,350.113,231.164,351.02,231.668C351.927,232.171,352.834,233.225,353.741,234.004C354.649,234.784,355.556,235.292,356.463,236.345C357.37,237.397,358.277,240.319,359.184,240.319C360.091,240.319,360.998,240.129,361.905,239.748C362.812,239.368,363.719,236.99,364.626,236.88C365.533,236.77,366.44,236.715,367.347,236.715C368.254,236.715,369.161,238.727,370.068,238.727C370.975,238.727,371.882,236.943,372.789,236.399C373.696,235.856,374.603,235.469,375.51,235.469C376.417,235.469,377.324,237.447,378.231,237.447C379.138,237.447,380.045,236.913,380.952,236.646C381.859,236.379,382.766,235.847,383.673,235.847C384.58,235.847,385.488,236.118,386.395,236.533C387.302,236.948,388.209,237.944,389.116,238.335C390.023,238.726,390.93,238.921,391.837,238.921C392.744,238.921,393.651,238.87,394.558,238.87C395.465,238.87,396.372,239.673,397.279,239.673C398.186,239.673,399.093,238.988,400,238.304" stroke="#36B7B4" stroke-width="2" opacity="0.8"/></g></g><path class="foreground" aria-hidden="true" d="" display="none"/></g><g transform="translate(0,0)"><path class="background" aria-hidden="true" d="M0,0h400v300h-400Z"/><g><g class="mark-line role-mark layer_0_marks" clip-path="url(#clip246)" role="graphics-object" aria-roledescription="line mark container"><path aria-label="year: 1870; value: 3.28400k; key: Germany" role="graphics-symbol" aria-roledescription="line mark" d="M0,25.92C9.07,27.82,18.141,29.72,27.211,33.24C36.281,36.76,45.351,43.7,54.422,47.04C63.492,50.38,72.562,49.12,81.633,53.28C93.424,58.688,105.215,77.223,117.007,93.24C131.519,112.954,146.032,164.64,160.544,164.64C168.707,164.64,176.871,162,185.034,157.56C195.918,151.64,206.803,128.709,217.687,128.709C218.594,128.709,219.501,130.781,220.408,131.809C221.315,132.836,222.222,133.859,223.129,134.876C224.036,135.892,224.943,136.904,225.85,137.91C226.757,138.916,227.664,139.917,228.571,140.912C229.478,141.907,230.385,142.897,231.293,143.882C232.2,144.867,233.107,145.846,234.014,146.821C234.921,147.795,235.828,148.764,236.735,149.728C237.642,150.692,238.549,151.651,239.456,152.604C240.363,153.558,241.27,154.506,242.177,155.45C243.084,156.393,243.991,157.264,244.898,158.265C245.805,159.267,246.712,160.185,247.619,161.459C248.526,162.734,249.433,164.561,250.34,165.912C251.247,167.263,252.154,169.566,253.061,169.566C253.968,169.566,254.875,168.186,255.782,168.186C256.689,168.186,257.596,169.082,258.503,169.892C259.41,170.703,260.317,171.77,261.224,173.05C262.132,174.331,263.039,176.575,263.946,177.575C264.853,178.575,265.76,178.43,266.667,179.075C267.574,179.721,268.481,180.743,269.388,181.447C270.295,182.151,271.202,182.35,272.109,183.298C273.016,184.246,273.923,185.992,274.83,187.133C275.737,188.275,276.644,189.033,277.551,190.146C278.458,191.259,279.365,192.535,280.272,193.812C281.179,195.088,282.086,196.344,282.993,197.804C283.9,199.264,284.807,202.571,285.714,202.571C286.621,202.571,287.528,201.083,288.435,201.083C289.342,201.083,290.249,202.507,291.156,203.249C292.063,203.992,292.971,204.914,293.878,205.536C294.785,206.158,295.692,206.359,296.599,206.98C297.506,207.602,298.413,208.445,299.32,209.267C300.227,210.089,301.134,211.253,302.041,211.915C302.948,212.577,303.855,212.757,304.762,213.239C305.669,213.72,306.576,214.322,307.483,214.803C308.39,215.285,309.297,215.445,310.204,216.127C311.111,216.809,312.018,218.053,312.925,218.895C313.832,219.737,314.739,220.339,315.646,221.182C316.553,222.024,317.46,223.549,318.367,223.95C319.274,224.351,320.181,224.15,321.088,224.551C321.995,224.953,322.902,226.397,323.81,227.32C324.717,228.242,325.624,229.045,326.531,230.088C327.438,231.131,328.345,233.578,329.252,233.578C330.159,233.578,331.066,232.234,331.973,232.234C332.88,232.234,333.787,234.665,334.694,235.011C335.601,235.357,336.508,235.258,337.415,235.53C338.322,235.802,339.229,236.108,340.136,236.643C341.043,237.178,341.95,238.174,342.857,238.741C343.764,239.307,344.671,239.704,345.578,240.043C346.485,240.381,347.392,240.352,348.299,240.77C349.206,241.189,350.113,241.722,351.02,242.553C351.927,243.385,352.834,245.022,353.741,245.758C354.649,246.495,355.556,246.548,356.463,246.971C357.37,247.394,358.277,247.953,359.184,248.297C360.091,248.64,360.998,248.858,361.905,249.031C362.812,249.203,363.719,249.131,364.626,249.333C365.533,249.535,366.44,250.646,367.347,250.646C368.254,250.646,369.161,249.039,370.068,249.039C370.975,249.039,371.882,249.052,372.789,249.078C373.696,249.104,374.603,249.316,375.51,249.792C376.417,250.269,377.324,255.274,378.231,255.274C379.138,255.274,380.045,253.448,380.952,253.214C381.859,252.98,382.766,252.862,383.673,252.862C384.58,252.862,385.488,254.394,386.395,254.997C387.302,255.599,388.209,256.476,389.116,256.476C390.023,256.476,390.93,256.033,391.837,255.951C392.744,255.868,393.651,255.827,394.558,255.827C395.465,255.827,396.372,256.685,397.279,256.97C398.186,257.254,399.093,257.394,400,257.534" stroke="#aaa" stroke-width="2" opacity="0.8"/></g></g><path class="foreground" aria-hidden="true" d="" display="none"/></g><g transform="translate(0,0)"><path class="background" aria-hidden="true" d="M0,0h400v300h-400Z"/><g><g class="mark-line role-mark layer_0_marks" clip-path="url(#clip247)" role="graphics-object" aria-roledescription="line mark container"><path aria-label="year: 1960; value: 2.72237k; key: Hong Kong" role="graphics-symbol" aria-roledescription="line mark" d="M244.898,93.316C245.805,94.13,246.712,94.944,247.619,95.753C248.526,96.562,249.433,97.368,250.34,98.171C251.247,98.974,252.154,99.775,253.061,100.572C253.968,101.369,254.875,102.163,255.782,102.954C256.689,103.745,257.596,104.534,258.503,105.319C259.41,106.104,260.317,106.887,261.224,107.666C262.132,108.445,263.039,109.222,263.946,109.996C264.853,110.769,265.76,111.54,266.667,112.308C267.574,113.076,268.481,113.841,269.388,114.603C270.295,115.365,271.202,116.881,272.109,116.881C273.016,116.881,273.923,116.754,274.83,116.754C275.737,116.754,276.644,116.873,277.551,116.936C278.458,117,279.365,117.066,280.272,117.135C281.179,117.204,282.086,117.278,282.993,117.351C283.9,117.424,284.807,117.495,285.714,117.575C286.621,117.656,287.528,117.661,288.435,117.834C289.342,118.006,290.249,118.615,291.156,118.999C292.063,119.382,292.971,119.777,293.878,120.136C294.785,120.495,295.692,120.763,296.599,121.153C297.506,121.543,298.413,121.989,299.32,122.473C300.227,122.958,301.134,123.306,302.041,124.061C302.948,124.817,303.855,125.899,304.762,127.008C305.669,128.116,306.576,129.516,307.483,130.712C308.39,131.909,309.297,133.095,310.204,134.188C311.111,135.281,312.018,137.27,312.925,137.27C313.832,137.27,314.739,136.77,315.646,136.77C316.553,136.77,317.46,141.083,318.367,141.083C319.274,141.083,320.181,135.307,321.088,135.307C321.995,135.307,322.902,140.438,323.81,142.316C324.717,144.195,325.624,146.577,326.531,146.577C327.438,146.577,328.345,142.811,329.252,142.811C330.159,142.811,331.066,153.099,331.973,153.099C332.88,153.099,333.787,145.762,334.694,145.445C335.601,145.127,336.508,144.969,337.415,144.969C338.322,144.969,339.229,149.418,340.136,149.418C341.043,149.418,341.95,143.488,342.857,143.488C343.764,143.488,344.671,149.062,345.578,149.062C346.485,149.062,347.392,149.009,348.299,148.902C349.206,148.794,350.113,145.199,351.02,143.769C351.927,142.339,352.834,140.32,353.741,140.32C354.649,140.32,355.556,140.837,356.463,140.837C357.37,140.837,358.277,138.788,359.184,138.788C360.091,138.788,360.998,140.292,361.905,140.292C362.812,140.292,363.719,137.475,364.626,137.475C365.533,137.475,366.44,137.795,367.347,138.434C368.254,139.073,369.161,142.141,370.068,142.141C370.975,142.141,371.882,140.666,372.789,140.666C373.696,140.666,374.603,145.242,375.51,146.757C376.417,148.273,377.324,149.76,378.231,149.76C379.138,149.76,380.045,143.75,380.952,143.75C381.859,143.75,382.766,147.859,383.673,149.189C384.58,150.518,385.488,151.102,386.395,151.729C387.302,152.356,388.209,152.136,389.116,152.95C390.023,153.765,390.93,158.97,391.837,158.97C392.744,158.97,393.651,157.731,394.558,157.731C395.465,157.731,396.372,157.731,397.279,157.731C398.186,157.731,399.093,157.731,400,157.731" stroke="#F4C245" stroke-width="2" opacity="0.8"/></g></g><path class="foreground" aria-hidden="true" d="" display="none"/></g><g transform="translate(0,0)"><path class="background" aria-hidden="true" d="M0,0h400v300h-400Z"/><g><g class="mark-line role-mark layer_0_marks" clip-path="url(#clip248)" role="graphics-object" aria-roledescription="line mark container"><path aria-label="year: 1870; value: 3.10800k; key: Ireland" role="graphics-symbol" aria-roledescription="line mark" d="M0,47.04C9.07,50.11,18.141,53.18,27.211,57.96C36.281,62.74,45.351,71.28,54.422,75.72C63.492,80.16,72.562,81.522,81.633,84.6C93.424,88.601,105.215,88.8,117.007,97.2C131.519,107.538,146.032,156.596,160.544,158.16C168.707,159.04,176.871,159.48,185.034,159.48C195.918,159.48,206.803,129.671,217.687,129.671C218.594,129.671,219.501,130.619,220.408,131.091C221.315,131.563,222.222,132.034,223.129,132.504C224.036,132.974,224.943,133.443,225.85,133.911C226.757,134.379,227.664,134.845,228.571,135.31C229.478,135.776,230.385,136.24,231.293,136.703C232.2,137.166,233.107,137.628,234.014,138.089C234.921,138.55,235.828,139.01,236.735,139.468C237.642,139.927,238.549,140.384,239.456,140.841C240.363,141.297,241.27,141.752,242.177,142.206C243.084,142.66,243.991,143.565,244.898,143.565C245.805,143.565,246.712,143.326,247.619,143.206C248.526,143.086,249.433,142.966,250.34,142.846C251.247,142.726,252.154,142.606,253.061,142.486C253.968,142.366,254.875,142.246,255.782,142.126C256.689,142.005,257.596,141.885,258.503,141.764C259.41,141.644,260.317,141.523,261.224,141.403C262.132,141.282,263.039,141.162,263.946,141.041C264.853,140.92,265.76,140.799,266.667,140.678C267.574,140.557,268.481,140.436,269.388,140.315C270.295,140.194,271.202,139.952,272.109,139.952C273.016,139.952,273.923,141.249,274.83,141.992C275.737,142.735,276.644,143.755,277.551,144.409C278.458,145.063,279.365,144.938,280.272,145.916C281.179,146.895,282.086,149.484,282.993,150.28C283.9,151.075,284.807,151.164,285.714,151.473C286.621,151.781,287.528,151.692,288.435,152.132C289.342,152.571,290.249,154.696,291.156,155.679C292.063,156.663,292.971,157.207,293.878,158.034C294.785,158.86,295.692,159.42,296.599,160.639C297.506,161.858,298.413,163.935,299.32,165.348C300.227,166.761,301.134,168.529,302.041,169.115C302.948,169.701,303.855,169.643,304.762,169.994C305.669,170.344,306.576,170.653,307.483,171.218C308.39,171.783,309.297,173.384,310.204,173.384C311.111,173.384,312.018,173.102,312.925,172.537C313.832,171.972,314.739,168.393,315.646,168.393C316.553,168.393,317.46,170.873,318.367,170.873C319.274,170.873,320.181,170.182,321.088,169.868C321.995,169.554,322.902,168.989,323.81,168.989C324.717,168.989,325.624,169.45,326.531,170.371C327.438,171.291,328.345,172.908,329.252,174.577C330.159,176.246,331.066,178.883,331.973,180.385C332.88,181.886,333.787,183.587,334.694,183.587C335.601,183.587,336.508,183.555,337.415,183.555C338.322,183.555,339.229,184.224,340.136,184.56C341.043,184.895,341.95,185.568,342.857,185.568C343.764,185.568,344.671,185.497,345.578,185.497C346.485,185.497,347.392,185.537,348.299,185.617C349.206,185.697,350.113,186.565,351.02,186.974C351.927,187.383,352.834,187.706,353.741,188.073C354.649,188.44,355.556,188.608,356.463,189.176C357.37,189.745,358.277,190.752,359.184,191.487C360.091,192.222,360.998,193.005,361.905,193.586C362.812,194.166,363.719,194.969,364.626,194.969C365.533,194.969,366.44,194.017,367.347,194.017C368.254,194.017,369.161,194.192,370.068,194.542C370.975,194.893,371.882,195.51,372.789,196.208C373.696,196.906,374.603,197.67,375.51,198.732C376.417,199.795,377.324,201.742,378.231,202.584C379.138,203.426,380.045,203.005,380.952,203.847C381.859,204.689,382.766,215.739,383.673,215.739C384.58,215.739,385.488,215.448,386.395,215.1C387.302,214.753,388.209,214.124,389.116,213.653C390.023,213.182,390.93,212.694,391.837,212.274C392.744,211.855,393.651,211.137,394.558,211.137C395.465,211.137,396.372,211.352,397.279,211.352C398.186,211.352,399.093,210.935,400,210.518" stroke="#F4134D" stroke-width="2" opacity="0.8"/></g></g><path class="foreground" aria-hidden="true" d="" display="none"/></g><g transform="translate(0,0)"><path class="background" aria-hidden="true" d="M0,0h400v300h-400Z"/><g><g class="mark-line role-mark layer_0_marks" clip-path="url(#clip249)" role="graphics-object" aria-roledescription="line mark container"><path aria-label="year: 1950; value: 2.03041k; key: Japan" role="graphics-symbol" aria-roledescription="line mark" d="M217.687,176.35C218.594,177.049,219.501,177.747,220.408,178.441C221.315,179.135,222.222,179.826,223.129,180.514C224.036,181.202,224.943,182.569,225.85,182.569C226.757,182.569,227.664,180.045,228.571,178.927C229.478,177.808,230.385,177.378,231.293,175.858C232.2,174.338,233.107,171.275,234.014,169.804C234.921,168.333,235.828,167.998,236.735,167.035C237.642,166.071,238.549,164.987,239.456,164.023C240.363,163.059,241.27,162.046,242.177,161.251C243.084,160.456,243.991,159.445,244.898,159.252C245.805,159.059,246.712,158.962,247.619,158.962C248.526,158.962,249.433,161.166,250.34,161.676C251.247,162.186,252.154,162.441,253.061,162.441C253.968,162.441,254.875,161.577,255.782,161.577C256.689,161.577,257.596,163.785,258.503,163.785C259.41,163.785,260.317,163.275,261.224,162.846C262.132,162.417,263.039,161.513,263.946,161.211C264.853,160.91,265.76,160.759,266.667,160.759C267.574,160.759,268.481,161.896,269.388,162.359C270.295,162.821,271.202,163.18,272.109,163.534C273.016,163.888,273.923,164.485,274.83,164.485C275.737,164.485,276.644,164.2,277.551,164.2C278.458,164.2,279.365,164.765,280.272,165.895C281.179,167.024,282.086,171.208,282.993,172.954C283.9,174.7,284.807,176.369,285.714,176.369C286.621,176.369,287.528,173.621,288.435,173.1C289.342,172.579,290.249,172.529,291.156,172.319C292.063,172.109,292.971,172.015,293.878,171.841C294.785,171.668,295.692,171.375,296.599,171.276C297.506,171.176,298.413,171.127,299.32,171.127C300.227,171.127,301.134,171.724,302.041,171.741C302.948,171.757,303.855,171.766,304.762,171.766C305.669,171.766,306.576,171.43,307.483,171.017C308.39,170.604,309.297,169.286,310.204,169.286C311.111,169.286,312.018,170.788,312.925,170.788C313.832,170.788,314.739,170.719,315.646,170.581C316.553,170.442,317.46,169.924,318.367,169.924C319.274,169.924,320.181,170.065,321.088,170.347C321.995,170.63,322.902,171.596,323.81,172.637C324.717,173.677,325.624,175.577,326.531,176.59C327.438,177.602,328.345,177.385,329.252,178.711C330.159,180.037,331.066,182.865,331.973,184.544C332.88,186.224,333.787,187.726,334.694,188.787C335.601,189.847,336.508,190.908,337.415,190.908C338.322,190.908,339.229,190.722,340.136,190.608C341.043,190.494,341.95,190.224,342.857,190.224C343.764,190.224,344.671,192.582,345.578,193.548C346.485,194.514,347.392,195.296,348.299,196.02C349.206,196.744,350.113,197.892,351.02,197.892C351.927,197.892,352.834,196.98,353.741,196.98C354.649,196.98,355.556,198.27,356.463,198.828C357.37,199.386,358.277,200.328,359.184,200.328C360.091,200.328,360.998,200.114,361.905,199.896C362.812,199.678,363.719,199.02,364.626,199.02C365.533,199.02,366.44,200.664,367.347,200.664C368.254,200.664,369.161,199.68,370.068,199.68C370.975,199.68,371.882,200.246,372.789,200.82C373.696,201.394,374.603,201.738,375.51,203.124C376.417,204.51,377.324,209.136,378.231,209.136C379.138,209.136,380.045,206.664,380.952,206.664C381.859,206.664,382.766,207.276,383.673,207.276C384.58,207.276,385.488,206.052,386.395,206.052C387.302,206.052,388.209,208.22,389.116,208.62C390.023,209.02,390.93,209.008,391.837,209.22C392.744,209.432,393.651,209.602,394.558,209.892C395.465,210.182,396.372,210.709,397.279,210.96C398.186,211.211,399.093,211.304,400,211.396" stroke-width="2" opacity="0.8"/></g></g><path class="foreground" aria-hidden="true" d="" display="none"/></g><g transform="translate(0,0)"><path class="background" aria-hidden="true" d="M0,0h400v300h-400Z"/><g><g class="mark-line role-mark layer_0_marks" clip-path="url(#clip250)" role="graphics-object" aria-roledescription="line mark container"><path aria-label="year: 1953; value: 2.30455k; key: South Korea" role="graphics-symbol" aria-roledescription="line mark" d="M225.85,143.454C226.757,142.632,227.664,141.81,228.571,140.982C229.478,140.155,230.385,139.323,231.293,138.488C232.2,137.653,233.107,136.814,234.014,135.972C234.921,135.129,235.828,134.283,236.735,133.433C237.642,132.583,238.549,131.729,239.456,130.872C240.363,130.014,241.27,129.152,242.177,128.287C243.084,127.422,243.991,126.553,244.898,125.68C245.805,124.807,246.712,123.93,247.619,123.049C248.526,122.168,249.433,121.283,250.34,120.394C251.247,119.506,252.154,117.716,253.061,117.716C253.968,117.716,254.875,127.262,255.782,127.262C256.689,127.262,257.596,114.534,258.503,114.534C259.41,114.534,260.317,116.444,261.224,116.444C262.132,116.444,263.039,114.216,263.946,112.625C264.853,111.034,265.76,109.019,266.667,106.898C267.574,104.777,268.481,99.898,269.388,99.898C270.295,99.898,271.202,112.625,272.109,112.625C273.016,112.625,273.923,107.534,274.83,104.989C275.737,102.443,276.644,99.579,277.551,97.352C278.458,95.125,279.365,93.64,280.272,91.625C281.179,89.609,282.086,86.746,282.993,85.261C283.9,83.776,284.807,84.412,285.714,82.715C286.621,81.018,287.528,72.533,288.435,72.533C289.342,72.533,290.249,76.351,291.156,76.351C292.063,76.351,292.971,72.533,293.878,72.533C294.785,72.533,295.692,73.806,296.599,74.442C297.506,75.079,298.413,76.351,299.32,76.351C300.227,76.351,301.134,75.011,302.041,74.431C302.948,73.852,303.855,73.492,304.762,72.872C305.669,72.252,306.576,70.712,307.483,70.712C308.39,70.712,309.297,70.872,310.204,71.192C311.111,71.512,312.018,74.191,312.925,74.191C313.832,74.191,314.739,70.712,315.646,70.712C316.553,70.712,317.46,72.892,318.367,74.431C319.274,75.971,320.181,76.971,321.088,79.951C321.995,82.931,322.902,89.17,323.81,92.31C324.717,95.45,325.624,97.509,326.531,98.789C327.438,100.069,328.345,99.949,329.252,100.709C330.159,101.469,331.066,103.349,331.973,103.349C332.88,103.349,333.787,101.321,334.694,101.321C335.601,101.321,336.508,103.183,337.415,103.183C338.322,103.183,339.229,102.332,340.136,102.332C341.043,102.332,341.95,102.759,342.857,103.613C343.764,104.467,344.671,107.283,345.578,110.297C346.485,113.31,347.392,121.695,348.299,121.695C349.206,121.695,350.113,121.417,351.02,120.949C351.927,120.481,352.834,118.885,353.741,118.885C354.649,118.885,355.556,119.42,356.463,120.49C357.37,121.559,358.277,123.969,359.184,125.414C360.091,126.86,360.998,127.895,361.905,129.162C362.812,130.429,363.719,131.57,364.626,133.016C365.533,134.463,366.44,137.409,367.347,137.842C368.254,138.274,369.161,138.058,370.068,138.49C370.975,138.923,371.882,140.596,372.789,143.256C373.696,145.916,374.603,151.688,375.51,154.451C376.417,157.214,377.324,158.955,378.231,159.834C379.138,160.713,380.045,160.334,380.952,161.152C381.859,161.97,382.766,163.666,383.673,164.742C384.58,165.819,385.488,166.954,386.395,167.612C387.302,168.271,388.209,168.014,389.116,168.692C390.023,169.371,390.93,171.682,391.837,171.682C392.744,171.682,393.651,170.844,394.558,170.844C395.465,170.844,396.372,172.4,397.279,172.4C398.186,172.4,399.093,172.4,400,172.4" stroke="#00A767" stroke-width="2" opacity="0.8"/></g></g><path class="foreground" aria-hidden="true" d="" display="none"/></g><g transform="translate(0,0)"><path class="background" aria-hidden="true" d="M0,0h400v300h-400Z"/><g><g class="mark-line role-mark layer_0_marks" clip-path="url(#clip251)" role="graphics-object" aria-roledescription="line mark container"><path aria-label="year: 1870; value: 2.96800k; key: Spain" role="graphics-symbol" aria-roledescription="line mark" d="M0,63.84C9.07,67.55,18.141,71.26,27.211,74.88C36.281,78.5,45.351,82.24,54.422,85.56C63.492,88.88,72.562,91.601,81.633,94.8C93.424,98.959,105.215,101.701,117.007,107.88C131.519,115.485,146.032,121.031,160.544,138.96C168.707,149.045,176.871,176.4,185.034,176.4C195.918,176.4,206.803,154.956,217.687,154.956C218.594,154.956,219.501,155.292,220.408,155.457C221.315,155.622,222.222,155.784,223.129,155.944C224.036,156.105,224.943,156.419,225.85,156.419C226.757,156.419,227.664,154.373,228.571,154.373C229.478,154.373,230.385,155.859,231.293,156.543C232.2,157.227,233.107,157.855,234.014,158.479C234.921,159.103,235.828,159.694,236.735,160.288C237.642,160.882,238.549,161.539,239.456,162.043C240.363,162.547,241.27,162.913,242.177,163.309C243.084,163.705,243.991,163.869,244.898,164.419C245.805,164.969,246.712,165.9,247.619,166.609C248.526,167.318,249.433,167.991,250.34,168.673C251.247,169.356,252.154,169.451,253.061,170.704C253.968,171.957,254.875,175.572,255.782,176.19C256.689,176.808,257.596,177.117,258.503,177.117C259.41,177.117,260.317,177.062,261.224,176.951C262.132,176.839,263.039,175.889,263.946,175.889C264.853,175.889,265.76,179.759,266.667,180.418C267.574,181.078,268.481,181.408,269.388,181.408C270.295,181.408,271.202,180.463,272.109,180.454C273.016,180.444,273.923,180.439,274.83,180.439C275.737,180.439,276.644,180.617,277.551,180.937C278.458,181.256,279.365,182.357,280.272,182.357C281.179,182.357,282.086,181.936,282.993,181.616C283.9,181.296,284.807,180.836,285.714,180.437C286.621,180.039,287.528,179.224,288.435,179.224C289.342,179.224,290.249,179.472,291.156,179.967C292.063,180.462,292.971,181.768,293.878,183.186C294.785,184.604,295.692,187.562,296.599,188.477C297.506,189.392,298.413,188.945,299.32,189.849C300.227,190.753,301.134,192.788,302.041,193.898C302.948,195.008,303.855,195.437,304.762,196.508C305.669,197.578,306.576,198.793,307.483,200.32C308.39,201.846,309.297,204.875,310.204,205.666C311.111,206.458,312.018,206.497,312.925,206.854C313.832,207.21,314.739,207.488,315.646,207.805C316.553,208.122,317.46,208.518,318.367,208.756C319.274,208.993,320.181,208.914,321.088,209.232C321.995,209.55,322.902,210.662,323.81,210.662C324.717,210.662,325.624,210.584,326.531,210.426C327.438,210.269,328.345,209.358,329.252,209.358C330.159,209.358,331.066,209.986,331.973,210.302C332.88,210.617,333.787,211.168,334.694,211.251C335.601,211.335,336.508,211.377,337.415,211.377C338.322,211.377,339.229,211.365,340.136,211.342C341.043,211.319,341.95,211.249,342.857,211.176C343.764,211.102,344.671,211.084,345.578,210.901C346.485,210.717,347.392,210.155,348.299,209.884C349.206,209.613,350.113,209.274,351.02,209.274C351.927,209.274,352.834,209.669,353.741,209.669C354.649,209.669,355.556,208.666,356.463,208.5C357.37,208.334,358.277,208.251,359.184,208.251C360.091,208.251,360.998,208.826,361.905,209.287C362.812,209.749,363.719,210.412,364.626,211.019C365.533,211.626,366.44,212.411,367.347,212.928C368.254,213.445,369.161,213.679,370.068,214.121C370.975,214.564,371.882,215.581,372.789,215.581C373.696,215.581,374.603,214.817,375.51,214.494C376.417,214.17,377.324,213.639,378.231,213.639C379.138,213.639,380.045,214.753,380.952,214.753C381.859,214.753,382.766,214.139,383.673,214.139C384.58,214.139,385.488,215.417,386.395,215.857C387.302,216.296,388.209,216.776,389.116,216.776C390.023,216.776,390.93,216.734,391.837,216.65C392.744,216.565,393.651,216.196,394.558,216.06C395.465,215.925,396.372,215.836,397.279,215.836C398.186,215.836,399.093,216.728,400,217.62" stroke-width="2" opacity="0.8"/></g></g><path class="foreground" aria-hidden="true" d="" display="none"/></g><g transform="translate(0,0)"><path class="background" aria-hidden="true" d="M0,0h400v300h-400Z"/><g><g class="mark-line role-mark layer_0_marks" clip-path="url(#clip252)" role="graphics-object" aria-roledescription="line mark container"><path aria-label="year: 1870; value: 3.43600k; key: Sweden" role="graphics-symbol" aria-roledescription="line mark" d="M0,7.68C9.07,17.63,18.141,27.58,27.211,37.56C36.281,47.54,45.351,58.72,54.422,67.56C63.492,76.4,72.562,90.6,81.633,90.6C93.424,90.6,105.215,90.6,117.007,90.6C131.519,90.6,146.032,158.773,160.544,161.76C168.707,163.44,176.871,162.6,185.034,164.28C195.918,166.52,206.803,176.912,217.687,181.283C218.594,181.647,219.501,182.348,220.408,182.348C221.315,182.348,222.222,182.348,223.129,182.348C224.036,182.348,224.943,184.717,225.85,184.717C226.757,184.717,227.664,183.414,228.571,183.414C229.478,183.414,230.385,184.006,231.293,184.717C232.2,185.427,233.107,187.677,234.014,187.677C234.921,187.677,235.828,187.677,236.735,187.677C237.642,187.677,238.549,190.321,239.456,191.466C240.363,192.611,241.27,194.15,242.177,194.545C243.084,194.939,243.991,195.137,244.898,195.137C245.805,195.137,246.712,194.9,247.619,194.9C248.526,194.9,249.433,195.966,250.34,196.321C251.247,196.676,252.154,196.558,253.061,197.031C253.968,197.505,254.875,199.873,255.782,200.702C256.689,201.531,257.596,201.511,258.503,202.005C259.41,202.498,260.317,202.774,261.224,203.662C262.132,204.551,263.039,205.873,263.946,207.333C264.853,208.794,265.76,211.122,266.667,212.425C267.574,213.727,268.481,215.148,269.388,215.148C270.295,215.148,271.202,215.148,272.109,215.148C273.016,215.148,273.923,217.541,274.83,218.968C275.737,220.396,276.644,222.613,277.551,223.714C278.458,224.815,279.365,224.889,280.272,225.574C281.179,226.259,282.086,226.976,282.993,227.824C283.9,228.672,284.807,230.661,285.714,230.661C286.621,230.661,287.528,229.099,288.435,229.099C289.342,229.099,290.249,231.343,291.156,232.697C292.063,234.051,292.971,236.481,293.878,237.223C294.785,237.965,295.692,238.336,296.599,238.336C297.506,238.336,298.413,237.983,299.32,237.983C300.227,237.983,301.134,238.991,302.041,238.991C302.948,238.991,303.855,237.764,304.762,237.295C305.669,236.826,306.576,236.354,307.483,236.179C308.39,236.005,309.297,236.042,310.204,235.918C311.111,235.794,312.018,235.434,312.925,235.434C313.832,235.434,314.739,235.671,315.646,235.671C316.553,235.671,317.46,235.051,318.367,234.457C319.274,233.863,320.181,232.109,321.088,232.109C321.995,232.109,322.902,232.155,323.81,232.247C324.717,232.338,325.624,232.394,326.531,232.688C327.438,232.982,328.345,234.279,329.252,234.279C330.159,234.279,331.066,233.153,331.973,232.166C332.88,231.18,333.787,229.759,334.694,228.36C335.601,226.961,336.508,224.183,337.415,223.773C338.322,223.364,339.229,223.515,340.136,223.159C341.043,222.802,341.95,221.988,342.857,221.635C343.764,221.283,344.671,221.044,345.578,221.044C346.485,221.044,347.392,221.242,348.299,221.242C349.206,221.242,350.113,220.223,351.02,220.223C351.927,220.223,352.834,222.018,353.741,222.95C354.649,223.882,355.556,224.871,356.463,225.815C357.37,226.759,358.277,227.882,359.184,228.615C360.091,229.348,360.998,230.212,361.905,230.212C362.812,230.212,363.719,227.339,364.626,227.339C365.533,227.339,366.44,227.357,367.347,227.392C368.254,227.428,369.161,228.105,370.068,228.105C370.975,228.105,371.882,226.975,372.789,226.621C373.696,226.266,374.603,225.976,375.51,225.976C376.417,225.976,377.324,226.902,378.231,226.902C379.138,226.902,380.045,223.799,380.952,223.799C381.859,223.799,382.766,223.899,383.673,224.098C384.58,224.297,385.488,225.319,386.395,225.795C387.302,226.271,388.209,226.954,389.116,226.954C390.023,226.954,390.93,226.896,391.837,226.869C392.744,226.842,393.651,226.843,394.558,226.791C395.465,226.739,396.372,224.825,397.279,224.825C398.186,224.825,399.093,225.855,400,226.885" stroke="#E54753" stroke-width="2" opacity="0.8"/></g></g><path class="foreground" aria-hidden="true" d="" display="none"/></g><g transform="translate(0,0)"><path class="background" aria-hidden="true" d="M0,0h400v300h-400Z"/><g><g class="mark-line role-mark layer_0_marks" clip-path="url(#clip253)" role="graphics-object" aria-roledescription="line mark container"><path aria-label="year: 1870; value: 2.75500k; key: United Kingdom" role="graphics-symbol" aria-roledescription="line mark" d="M0,89.4C9.07,89.7,18.141,90,27.211,91.2C36.281,92.4,45.351,98.68,54.422,99.72C63.492,100.76,72.562,101.28,81.633,101.28C93.424,101.28,105.215,101.28,117.007,101.28C131.519,101.28,146.032,141.053,160.544,149.16C168.707,153.72,176.871,155.037,185.034,156C195.918,157.285,206.803,157.927,217.687,157.927C218.594,157.927,219.501,156.88,220.408,156.88C221.315,156.88,222.222,160.697,223.129,160.697C224.036,160.697,224.943,160.388,225.85,160.226C226.757,160.065,227.664,159.728,228.571,159.728C229.478,159.728,230.385,159.791,231.293,159.916C232.2,160.042,233.107,160.844,234.014,161.546C234.921,162.249,235.828,163.103,236.735,164.13C237.642,165.156,238.549,167.706,239.456,167.706C240.363,167.706,241.27,166.531,242.177,166.531C243.084,166.531,243.991,166.878,244.898,167.57C245.805,168.262,246.712,170.492,247.619,171.983C248.526,173.473,249.433,175.839,250.34,176.515C251.247,177.19,252.154,177.528,253.061,177.528C253.968,177.528,254.875,177.5,255.782,177.5C256.689,177.5,257.596,178.707,258.503,180.292C259.41,181.876,260.317,186.04,261.224,187.007C262.132,187.973,263.039,188.069,263.946,188.457C264.853,188.845,265.76,188.997,266.667,189.336C267.574,189.674,268.481,189.72,269.388,190.487C270.295,191.255,271.202,193.843,272.109,195.493C273.016,197.142,273.923,200.383,274.83,200.383C275.737,200.383,276.644,198.438,277.551,197.836C278.458,197.234,279.365,196.77,280.272,196.77C281.179,196.77,282.086,197.641,282.993,198.564C283.9,199.488,284.807,201.746,285.714,202.31C286.621,202.875,287.528,203.157,288.435,203.157C289.342,203.157,290.249,202.057,291.156,201.968C292.063,201.88,292.971,201.836,293.878,201.836C294.785,201.836,295.692,201.937,296.599,202.141C297.506,202.344,298.413,204.425,299.32,205.752C300.227,207.08,301.134,209.81,302.041,210.106C302.948,210.402,303.855,210.358,304.762,210.55C305.669,210.741,306.576,211.254,307.483,211.254C308.39,211.254,309.297,210.68,310.204,210.51C311.111,210.339,312.018,210.23,312.925,210.23C313.832,210.23,314.739,210.872,315.646,210.872C316.553,210.872,317.46,210.532,318.367,210.292C319.274,210.052,320.181,209.653,321.088,209.433C321.995,209.213,322.902,208.973,323.81,208.973C324.717,208.973,325.624,209.727,326.531,210.487C327.438,211.247,328.345,213.037,329.252,213.534C330.159,214.032,331.066,214.076,331.973,214.28C332.88,214.485,333.787,214.762,334.694,214.762C335.601,214.762,336.508,213.692,337.415,213.529C338.322,213.366,339.229,213.285,340.136,213.285C341.043,213.285,341.95,213.32,342.857,213.349C343.764,213.377,344.671,213.385,345.578,213.457C346.485,213.528,347.392,213.708,348.299,213.96C349.206,214.212,350.113,214.486,351.02,214.967C351.927,215.448,352.834,216.846,353.741,216.846C354.649,216.846,355.556,216.483,356.463,216.483C357.37,216.483,358.277,218.041,359.184,218.573C360.091,219.105,360.998,219.461,361.905,219.674C362.812,219.888,363.719,219.994,364.626,219.994C365.533,219.994,366.44,219.632,367.347,219.632C368.254,219.632,369.161,220.322,370.068,220.322C370.975,220.322,371.882,220.101,372.789,220.101C373.696,220.101,374.603,220.316,375.51,220.744C376.417,221.172,377.324,223.4,378.231,223.4C379.138,223.4,380.045,222.815,380.952,222.815C381.859,222.815,382.766,223.042,383.673,223.042C384.58,223.042,385.488,221.879,386.395,221.387C387.302,220.896,388.209,220.436,389.116,220.093C390.023,219.75,390.93,219.328,391.837,219.328C392.744,219.328,393.651,219.656,394.558,219.711C395.465,219.766,396.372,219.793,397.279,219.793C398.186,219.793,399.093,219.68,400,219.567" stroke="#5C267B" stroke-width="2" opacity="0.8"/></g></g><path class="foreground" aria-hidden="true" d="" display="none"/></g><g transform="translate(0,0)"><path class="background" aria-hidden="true" d="M0,0h400v300h-400Z"/><g><g class="mark-line role-mark layer_0_marks" clip-path="url(#clip254)" role="graphics-object" aria-roledescription="line mark container"><path aria-label="year: 1870; value: 3.09600k; key: United States" role="graphics-symbol" aria-roledescription="line mark" d="M0,48.48C9.07,50.47,18.141,52.46,27.211,54.72C36.281,56.98,45.351,59.92,54.422,62.04C63.492,64.16,72.562,65.914,81.633,67.44C93.424,69.423,105.215,68.96,117.007,72C131.519,75.742,146.032,108.184,160.544,142.08C168.707,161.146,176.871,209.28,185.034,209.28C195.918,209.28,206.803,199.95,217.687,181.291C218.594,179.737,219.501,176.333,220.408,176.333C221.315,176.333,222.222,176.586,223.129,176.792C224.036,176.998,224.943,177.051,225.85,177.57C226.757,178.089,227.664,180.35,228.571,180.35C229.478,180.35,230.385,179.46,231.293,179.46C232.2,179.46,233.107,180.417,234.014,181.276C234.921,182.136,235.828,183.381,236.735,184.617C237.642,185.853,238.549,188.694,239.456,188.694C240.363,188.694,241.27,185.658,242.177,185.658C243.084,185.658,243.991,187.224,244.898,187.886C245.805,188.547,246.712,189.624,247.619,189.624C248.526,189.624,249.433,187.291,250.34,187.291C251.247,187.291,252.154,188.705,253.061,188.705C253.968,188.705,254.875,188.478,255.782,188.025C256.689,187.572,257.596,186.213,258.503,185.641C259.41,185.069,260.317,184.595,261.224,184.595C262.132,184.595,263.039,187.033,263.946,187.326C264.853,187.619,265.76,187.766,266.667,187.766C267.574,187.766,268.481,187.684,269.388,187.684C270.295,187.684,271.202,191.824,272.109,193.031C273.016,194.237,273.923,194.736,274.83,194.922C275.737,195.109,276.644,195.122,277.551,195.202C278.458,195.281,279.365,195.267,280.272,195.399C281.179,195.531,282.086,197.557,282.993,198.743C283.9,199.928,284.807,202.193,285.714,202.51C286.621,202.827,287.528,202.986,288.435,202.986C289.342,202.986,290.249,202.984,291.156,202.979C292.063,202.974,292.971,202.394,293.878,202.222C294.785,202.049,295.692,201.946,296.599,201.946C297.506,201.946,298.413,203.274,299.32,203.84C300.227,204.406,301.134,204.737,302.041,205.343C302.948,205.949,303.855,207.475,304.762,207.475C305.669,207.475,306.576,206.984,307.483,206.51C308.39,206.037,309.297,205.066,310.204,204.633C311.111,204.201,312.018,203.916,312.925,203.916C313.832,203.916,314.739,206.339,315.646,206.339C316.553,206.339,317.46,205.787,318.367,205.443C319.274,205.098,320.181,204.71,321.088,204.271C321.995,203.832,322.902,202.809,323.81,202.809C324.717,202.809,325.624,204.08,326.531,204.534C327.438,204.987,328.345,205.12,329.252,205.53C330.159,205.939,331.066,206.989,331.973,206.989C332.88,206.989,333.787,205.849,334.694,205.191C335.601,204.534,336.508,203.594,337.415,203.044C338.322,202.494,339.229,202.204,340.136,201.891C341.043,201.578,341.95,201.387,342.857,201.165C343.764,200.943,344.671,200.876,345.578,200.558C346.485,200.24,347.392,199.428,348.299,199.258C349.206,199.088,350.113,199.111,351.02,199.003C351.927,198.895,352.834,198.61,353.741,198.61C354.649,198.61,355.556,200.381,356.463,201.141C357.37,201.902,358.277,202.517,359.184,203.172C360.091,203.826,360.998,204.979,361.905,205.069C362.812,205.159,363.719,205.128,364.626,205.204C365.533,205.279,366.44,205.523,367.347,205.523C368.254,205.523,369.161,205.491,370.068,205.491C370.975,205.491,371.882,205.55,372.789,205.67C373.696,205.789,374.603,206.836,375.51,207.958C376.417,209.081,377.324,212.405,378.231,212.405C379.138,212.405,380.045,211.97,380.952,211.669C381.859,211.367,382.766,210.625,383.673,210.594C384.58,210.563,385.488,210.579,386.395,210.547C387.302,210.516,388.209,210.17,389.116,209.991C390.023,209.811,390.93,209.771,391.837,209.469C392.744,209.167,393.651,208.178,394.558,208.178C395.465,208.178,396.372,208.545,397.279,208.704C398.186,208.864,399.093,208.998,400,209.133" stroke="#122B39" stroke-width="2" opacity="0.8"/></g></g><path class="foreground" aria-hidden="true" d="" display="none"/></g></g><g class="mark-group role-scope layer_1_pathgroup" role="graphics-object" aria-roledescription="group mark container"><g transform="translate(0,0)"><path class="background" aria-hidden="true" d="M0,0h400v300h-400Z"/><g><g class="mark-line role-mark layer_1_marks" clip-path="url(#clip255)" role="graphics-object" aria-roledescription="line mark container"><path aria-label="year: 1870; value: 2.75500k; key: United Kingdom" role="graphics-symbol" aria-roledescription="line mark" d="M0,89.4C9.07,89.7,18.141,90,27.211,91.2C36.281,92.4,45.351,98.68,54.422,99.72C63.492,100.76,72.562,101.28,81.633,101.28C93.424,101.28,105.215,101.28,117.007,101.28C131.519,101.28,146.032,141.053,160.544,149.16C168.707,153.72,176.871,155.037,185.034,156C195.918,157.285,206.803,157.927,217.687,157.927C218.594,157.927,219.501,156.88,220.408,156.88C221.315,156.88,222.222,160.697,223.129,160.697C224.036,160.697,224.943,160.388,225.85,160.226C226.757,160.065,227.664,159.728,228.571,159.728C229.478,159.728,230.385,159.791,231.293,159.916C232.2,160.042,233.107,160.844,234.014,161.546C234.921,162.249,235.828,163.103,236.735,164.13C237.642,165.156,238.549,167.706,239.456,167.706C240.363,167.706,241.27,166.531,242.177,166.531C243.084,166.531,243.991,166.878,244.898,167.57C245.805,168.262,246.712,170.492,247.619,171.983C248.526,173.473,249.433,175.839,250.34,176.515C251.247,177.19,252.154,177.528,253.061,177.528C253.968,177.528,254.875,177.5,255.782,177.5C256.689,177.5,257.596,178.707,258.503,180.292C259.41,181.876,260.317,186.04,261.224,187.007C262.132,187.973,263.039,188.069,263.946,188.457C264.853,188.845,265.76,188.997,266.667,189.336C267.574,189.674,268.481,189.72,269.388,190.487C270.295,191.255,271.202,193.843,272.109,195.493C273.016,197.142,273.923,200.383,274.83,200.383C275.737,200.383,276.644,198.438,277.551,197.836C278.458,197.234,279.365,196.77,280.272,196.77C281.179,196.77,282.086,197.641,282.993,198.564C283.9,199.488,284.807,201.746,285.714,202.31C286.621,202.875,287.528,203.157,288.435,203.157C289.342,203.157,290.249,202.057,291.156,201.968C292.063,201.88,292.971,201.836,293.878,201.836C294.785,201.836,295.692,201.937,296.599,202.141C297.506,202.344,298.413,204.425,299.32,205.752C300.227,207.08,301.134,209.81,302.041,210.106C302.948,210.402,303.855,210.358,304.762,210.55C305.669,210.741,306.576,211.254,307.483,211.254C308.39,211.254,309.297,210.68,310.204,210.51C311.111,210.339,312.018,210.23,312.925,210.23C313.832,210.23,314.739,210.872,315.646,210.872C316.553,210.872,317.46,210.532,318.367,210.292C319.274,210.052,320.181,209.653,321.088,209.433C321.995,209.213,322.902,208.973,323.81,208.973C324.717,208.973,325.624,209.727,326.531,210.487C327.438,211.247,328.345,213.037,329.252,213.534C330.159,214.032,331.066,214.076,331.973,214.28C332.88,214.485,333.787,214.762,334.694,214.762C335.601,214.762,336.508,213.692,337.415,213.529C338.322,213.366,339.229,213.285,340.136,213.285C341.043,213.285,341.95,213.32,342.857,213.349C343.764,213.377,344.671,213.385,345.578,213.457C346.485,213.528,347.392,213.708,348.299,213.96C349.206,214.212,350.113,214.486,351.02,214.967C351.927,215.448,352.834,216.846,353.741,216.846C354.649,216.846,355.556,216.483,356.463,216.483C357.37,216.483,358.277,218.041,359.184,218.573C360.091,219.105,360.998,219.461,361.905,219.674C362.812,219.888,363.719,219.994,364.626,219.994C365.533,219.994,366.44,219.632,367.347,219.632C368.254,219.632,369.161,220.322,370.068,220.322C370.975,220.322,371.882,220.101,372.789,220.101C373.696,220.101,374.603,220.316,375.51,220.744C376.417,221.172,377.324,223.4,378.231,223.4C379.138,223.4,380.045,222.815,380.952,222.815C381.859,222.815,382.766,223.042,383.673,223.042C384.58,223.042,385.488,221.879,386.395,221.387C387.302,220.896,388.209,220.436,389.116,220.093C390.023,219.75,390.93,219.328,391.837,219.328C392.744,219.328,393.651,219.656,394.558,219.711C395.465,219.766,396.372,219.793,397.279,219.793C398.186,219.793,399.093,219.68,400,219.567" stroke="#5C267B" stroke-width="3" opacity="0.8"/></g></g><path class="foreground" aria-hidden="true" d="" display="none"/></g></g><g class="mark-text role-mark layer_2_marks" role="graphics-object" aria-roledescription="text mark container"><text aria-label="year: 2017; value: 1.54427k; key: Belgium; t: Belgium" role="graphics-symbol" aria-roledescription="text mark" text-anchor="start" transform="translate(405,237.68772)" font-family="Circular Std Book" font-size="11px" fill="#0063AF">Belgium</text><text aria-label="year: 2017; value: 1.97400k; key: Chile; t: Chile" role="graphics-symbol" aria-roledescription="text mark" text-anchor="start" transform="translate(405,186.12)" font-family="Circular Std Book" font-size="11px" fill="#EB5C2E">Chile</text><text aria-label="year: 2017; value: 1.35389k; key: Germany; t: Germany" role="graphics-symbol" aria-roledescription="text mark" text-anchor="start" transform="translate(405,260.533584)" font-family="Circular Std Book" font-size="11px" fill="#aaa">Germany</text><text aria-label="year: 2017; value: 2.18558k; key: Hong Kong; t: Hong Kong" role="graphics-symbol" aria-roledescription="text mark" text-anchor="start" transform="translate(405,160.730532)" font-family="Circular Std Book" font-size="11px" fill="#F4C245">Hong Kong</text><text aria-label="year: 2017; value: 2.06333k; key: South Korea; t: South Korea" role="graphics-symbol" aria-roledescription="text mark" text-anchor="start" transform="translate(405,175.40022000000002)" font-family="Circular Std Book" font-size="11px" fill="#00A767">South Korea</text><text aria-label="year: 2017; value: 1.67027k; key: United Kingdom; t: United Kingdom" role="graphics-symbol" aria-roledescription="text mark" text-anchor="start" transform="translate(405,222.567264)" font-family="Circular Std Book" font-size="11px" fill="#5C267B">United Kingdom</text><text aria-label="year: 2017; value: 1.75723k; key: United States; t: United States" role="graphics-symbol" aria-roledescription="text mark" text-anchor="start" transform="translate(405,212.13294)" font-family="Circular Std Book" font-size="11px" fill="#122B39">United States</text></g><g class="mark-text role-mark layer_3_marks" role="graphics-object" aria-roledescription="text mark container"><text aria-label="year: 2017; value: 1.73149k; key: Australia; t: Australia" role="graphics-symbol" aria-roledescription="text mark" text-anchor="start" transform="translate(405,201.22068399999998)" font-family="Circular Std Book" font-size="11px" fill="#676A86">Australia</text></g><g class="mark-text role-mark layer_4_marks" role="graphics-object" aria-roledescription="text mark container"><text aria-label="year: 2017; value: 1.74568k; key: Ireland; t: Ireland" role="graphics-symbol" aria-roledescription="text mark" text-anchor="start" transform="translate(460,202.517884)" font-family="Circular Std Book" font-size="11px" fill="#F4134D">Ireland</text></g><g class="mark-text role-mark layer_5_marks" role="graphics-object" aria-roledescription="text mark container"><text aria-label="year: 2017; value: 1.51414k; key: France; t: France" role="graphics-symbol" aria-roledescription="text mark" text-anchor="start" transform="translate(405,248.303548)" font-family="Circular Std Book" font-size="11px" fill="#36B7B4">France</text></g><g class="mark-text role-mark layer_6_marks" role="graphics-object" aria-roledescription="text mark container"><text aria-label="year: 2017; value: 1.60929k; key: Sweden; t: Sweden" role="graphics-symbol" aria-roledescription="text mark" text-anchor="start" transform="translate(460,236.885248)" font-family="Circular Std Book" font-size="11px" fill="#E54753">Sweden</text></g><g class="mark-group role-title"><g transform="translate(-22.5,-31)"><path class="background" aria-hidden="true" d="M0,0h0v0h0Z" pointer-events="none"/><g><g class="mark-text role-title-text" role="graphics-symbol" aria-roledescription="title" aria-label="Title text 'In the past 150 years working hours halved'" pointer-events="none"><text text-anchor="start" transform="translate(0,12)" font-family="Circular Std Book" font-size="15px" font-weight="bold" fill="#676A86dd" opacity="1">In the past 150 years working hours halved</text></g><g class="mark-text role-title-subtitle" role="graphics-symbol" aria-roledescription="subtitle" aria-label="Subtitle text 'Source: Huberman and Minns, 2007 &amp; Penn World Tables (v9.1), 2019'" pointer-events="none"><text text-anchor="start" transform="translate(0,384)" font-family="Circular Std Book" font-size="11px" fill="#676A86bb" opacity="1">Source: Huberman and Minns, 2007 &amp; Penn World Tables (v9.1), 2019</text></g></g><path class="foreground" aria-hidden="true" d="" pointer-events="none" display="none"/></g></g></g><path class="foreground" aria-hidden="true" d="" display="none"/></g></g></g><defs><clipPath id="clip241"><rect x="0" y="0" width="400" height="300"/></clipPath><clipPath id="clip242"><rect x="0" y="0" width="400" height="300"/></clipPath><clipPath id="clip243"><rect x="0" y="0" width="400" height="300"/></clipPath><clipPath id="clip244"><rect x="0" y="0" width="400" height="300"/></clipPath><clipPath id="clip245"><rect x="0" y="0" width="400" height="300"/></clipPath><clipPath id="clip246"><rect x="0" y="0" width="400" height="300"/></clipPath><clipPath id="clip247"><rect x="0" y="0" width="400" height="300"/></clipPath><clipPath id="clip248"><rect x="0" y="0" width="400" height="300"/></clipPath><clipPath id="clip249"><rect x="0" y="0" width="400" height="300"/></clipPath><clipPath id="clip250"><rect x="0" y="0" width="400" height="300"/></clipPath><clipPath id="clip251"><rect x="0" y="0" width="400" height="300"/></clipPath><clipPath id="clip252"><rect x="0" y="0" width="400" height="300"/></clipPath><clipPath id="clip253"><rect x="0" y="0" width="400" height="300"/></clipPath><clipPath id="clip254"><rect x="0" y="0" width="400" height="300"/></clipPath><clipPath id="clip255"><rect x="0" y="0" width="400" height="300"/></clipPath></defs></svg>