<svg xmlns="http://www.w3.org/2000/svg" xmlns:xlink="http://www.w3.org/1999/xlink" version="1.1" class="marks" width="488" height="360" viewBox="0 0 488 360"><rect width="488" height="360" fill="#122B39"/><g fill="none" stroke-miterlimit="10" transform="translate(30,38)"><g class="mark-group role-frame root" role="graphics-object" aria-roledescription="group mark container"><g transform="translate(0,0)"><path class="background" aria-hidden="true" d="M0,0h300v300h-300Z"/><g><g class="mark-group role-axis" aria-hidden="true"><g transform="translate(0.5,300.5)"><path class="background" aria-hidden="true" d="M0,0h0v0h0Z" pointer-events="none"/><g><g class="mark-rule role-axis-grid" pointer-events="none"><line transform="translate(0,-300)" x2="0" y2="300" stroke="#b4c8d8" stroke-opacity="0.5" stroke-width="1" stroke-dasharray="1,5" opacity="1"/><line transform="translate(43,-300)" x2="0" y2="300" stroke="#b4c8d8" stroke-opacity="0.5" stroke-width="1" stroke-dasharray="1,5" opacity="1"/><line transform="translate(86,-300)" x2="0" y2="300" stroke="#b4c8d8" stroke-opacity="0.5" stroke-width="1" stroke-dasharray="1,5" opacity="1"/><line transform="translate(129,-300)" x2="0" y2="300" stroke="#b4c8d8" stroke-opacity="0.5" stroke-width="1" stroke-dasharray="1,5" opacity="1"/><line transform="translate(171,-300)" x2="0" y2="300" stroke="#b4c8d8" stroke-opacity="0.5" stroke-width="1" stroke-dasharray="1,5" opacity="1"/><line transform="translate(214,-300)" x2="0" y2="300" stroke="#b4c8d8" stroke-opacity="0.5" stroke-width="1" stroke-dasharray="1,5" opacity="1"/><line transform="translate(257,-300)" x2="0" y2="300" stroke="#b4c8d8" stroke-opacity="0.5" stroke-width="1" stroke-dasharray="1,5" opacity="1"/><line transform="translate(300,-300)" x2="0" y2="300" stroke="#b4c8d8" stroke-opacity="0.5" stroke-width="1" stroke-dasharray="1,5" opacity="1"/></g></g><path class="foreground" aria-hidden="true" d="" pointer-events="none" display="none"/></g></g><g class="mark-group role-axis" aria-hidden="true"><g transform="translate(0.5,0.5)"><path class="background" aria-hidden="true" d="M0,0h0v0h0Z" pointer-events="none"/><g><g class="mark-rule role-axis-grid" pointer-events="none"><line transform="translate(0,300)" x2="300" y2="0" stroke="#b4c8d8" stroke-opacity="0.5" stroke-width="1" stroke-dasharray="1,5" opacity="1"/><line transform="translate(0,289)" x2="300" y2="0" stroke="#b4c8d8" stroke-opacity="0.5" stroke-width="1" stroke-dasharray="1,5" opacity="1"/><line transform="translate(0,280)" x2="300" y2="0" stroke="#b4c8d8" stroke-opacity="0.5" stroke-width="1" stroke-dasharray="1,5" opacity="1"/><line transform="translate(0,273)" x2="300" y2="0" stroke="#b4c8d8" stroke-opacity="0.5" stroke-width="1" stroke-dasharray="1,5" opacity="1"/><line transform="translate(0,267)" x2="300" y2="0" stroke="#b4c8d8" stroke-opacity="0.5" stroke-width="1" stroke-dasharray="1,5" opacity="1"/><line transform="translate(0,261)" x2="300" y2="0" stroke="#b4c8d8" stroke-opacity="0.5" stroke-width="1" stroke-dasharray="1,5" opacity="1"/><line transform="translate(0,256)" x2="300" y2="0" stroke="#b4c8d8" stroke-opacity="0.5" stroke-width="1" stroke-dasharray="1,5" opacity="1"/><line transform="translate(0,222)" x2="300" y2="0" stroke="#b4c8d8" stroke-opacity="0.5" stroke-width="1" stroke-dasharray="1,5" opacity="1"/><line transform="translate(0,203)" x2="300" y2="0" stroke="#b4c8d8" stroke-opacity="0.5" stroke-width="1" stroke-dasharray="1,5" opacity="1"/><line transform="translate(0,189)" x2="300" y2="0" stroke="#b4c8d8" stroke-opacity="0.5" stroke-width="1" stroke-dasharray="1,5" opacity="1"/><line transform="translate(0,178)" x2="300" y2="0" stroke="#b4c8d8" stroke-opacity="0.5" stroke-width="1" stroke-dasharray="1,5" opacity="1"/><line transform="translate(0,169)" x2="300" y2="0" stroke="#b4c8d8" stroke-opacity="0.5" stroke-width="1" stroke-dasharray="1,5" opacity="1"/><line transform="translate(0,162)" x2="300" y2="0" stroke="#b4c8d8" stroke-opacity="0.5" stroke-width="1" stroke-dasharray="1,5" opacity="1"/><line transform="translate(0,155)" x2="300" y2="0" stroke="#b4c8d8" stroke-opacity="0.5" stroke-width="1" stroke-dasharray="1,5" opacity="1"/><line transform="translate(0,150)" x2="300" y2="0" stroke="#b4c8d8" stroke-opacity="0.5" stroke-width="1" stroke-dasharray="1,5" opacity="1"/><line transform="translate(0,145)" x2="300" y2="0" stroke="#b4c8d8" stroke-opacity="0.5" stroke-width="1" stroke-dasharray="1,5" opacity="1"/><line transform="translate(0,111)" x2="300" y2="0" stroke="#b4c8d8" stroke-opacity="0.5" stroke-width="1" stroke-dasharray="1,5" opacity="1"/><line transform="translate(0,92)" x2="300" y2="0" stroke="#b4c8d8" stroke-opacity="0.5" stroke-width="1" stroke-dasharray="1,5" opacity="1"/><line transform="translate(0,78)" x2="300" y2="0" stroke="#b4c8d8" stroke-opacity="0.5" stroke-width="1" stroke-dasharray="1,5" opacity="1"/><line transform="translate(0,67)" x2="300" y2="0" stroke="#b4c8d8" stroke-opacity="0.5" stroke-width="1" stroke-dasharray="1,5" opacity="1"/><line transform="translate(0,58)" x2="300" y2="0" stroke="#b4c8d8" stroke-opacity="0.5" stroke-width="1" stroke-dasharray="1,5" opacity="1"/><line transform="translate(0,51)" x2="300" y2="0" stroke="#b4c8d8" stroke-opacity="0.5" stroke-width="1" stroke-dasharray="1,5" opacity="1"/><line transform="translate(0,44)" x2="300" y2="0" stroke="#b4c8d8" stroke-opacity="0.5" stroke-width="1" stroke-dasharray="1,5" opacity="1"/><line transform="translate(0,39)" x2="300" y2="0" stroke="#b4c8d8" stroke-opacity="0.5" stroke-width="1" stroke-dasharray="1,5" opacity="1"/><line transform="translate(0,33)" x2="300" y2="0" stroke="#b4c8d8" stroke-opacity="0.5" stroke-width="1" stroke-dasharray="1,5" opacity="1"/><line transform="translate(0,0)" x2="300" y2="0" stroke="#b4c8d8" stroke-opacity="0.5" stroke-width="1" stroke-dasharray="1,5" opacity="1"/></g></g><path class="foreground" aria-hidden="true" d="" pointer-events="none" display="none"/></g></g><g class="mark-group role-axis" role="graphics-symbol" aria-roledescription="axis" aria-label="X-axis titled '(projection)' for a linear scale with values from 1700 to 2050"><g transform="translate(0.5,300.5)"><path class="background" aria-hidden="true" d="M0,0h0v0h0Z" pointer-events="none"/><g><g class="mark-rule role-axis-tick" pointer-events="none"><line transform="translate(0,0)" x2="0" y2="5" stroke="#b4c8d8" stroke-opacity="0.5" stroke-width="1" opacity="1"/><line transform="translate(43,0)" x2="0" y2="5" stroke="#b4c8d8" stroke-opacity="0.5" stroke-width="1" opacity="1"/><line transform="translate(86,0)" x2="0" y2="5" stroke="#b4c8d8" stroke-opacity="0.5" stroke-width="1" opacity="1"/><line transform="translate(129,0)" x2="0" y2="5" stroke="#b4c8d8" stroke-opacity="0.5" stroke-width="1" opacity="1"/><line transform="translate(171,0)" x2="0" y2="5" stroke="#b4c8d8" stroke-opacity="0.5" stroke-width="1" opacity="1"/><line transform="translate(214,0)" x2="0" y2="5" stroke="#b4c8d8" stroke-opacity="0.5" stroke-width="1" opacity="1"/><line transform="translate(257,0)" x2="0" y2="5" stroke="#b4c8d8" stroke-opacity="0.5" stroke-width="1" opacity="1"/><line transform="translate(300,0)" x2="0" y2="5" stroke="#b4c8d8" stroke-opacity="0.5" stroke-width="1" opacity="1"/></g><g class="mark-text role-axis-label" pointer-events="none"><text text-anchor="start" transform="translate(0,15)" font-family="Circular Std Book" font-size="10px" fill="#b4c8d8" fill-opacity="0.7" opacity="1">1700</text><text text-anchor="middle" transform="translate(42.857142857142854,15)" font-family="Circular Std Book" font-size="10px" fill="#b4c8d8" fill-opacity="0.7" opacity="1">1750</text><text text-anchor="middle" transform="translate(85.71428571428571,15)" font-family="Circular Std Book" font-size="10px" fill="#b4c8d8" fill-opacity="0.7" opacity="1">1800</text><text text-anchor="middle" transform="translate(128.57142857142856,15)" font-family="Circular Std Book" font-size="10px" fill="#b4c8d8" fill-opacity="0.7" opacity="1">1850</text><text text-anchor="middle" transform="translate(171.42857142857142,15)" font-family="Circular Std Book" font-size="10px" fill="#b4c8d8" fill-opacity="0.7" opacity="1">1900</text><text text-anchor="middle" transform="translate(214.28571428571428,15)" font-family="Circular Std Book" font-size="10px" fill="#b4c8d8" fill-opacity="0.7" opacity="1">1950</text><text text-anchor="middle" transform="translate(257.1428571428571,15)" font-family="Circular Std Book" font-size="10px" fill="#b4c8d8" fill-opacity="0.7" opacity="1">2000</text><text text-anchor="end" transform="translate(300,15)" font-family="Circular Std Book" font-size="10px" fill="#b4c8d8" fill-opacity="0.7" opacity="1">2050</text></g><g class="mark-rule role-axis-domain" pointer-events="none"><line transform="translate(0,0)" x2="300" y2="0" stroke="#b4c8d8" stroke-opacity="0.5" stroke-width="1" opacity="1"/></g><g class="mark-text role-axis-title" pointer-events="none"><text text-anchor="start" transform="translate(405,14)" font-family="Circular Std Book" font-size="10px" font-weight="normal" fill="#b4c8d8" fill-opacity="0.8" opacity="1">(projection)</text></g></g><path class="foreground" aria-hidden="true" d="" pointer-events="none" display="none"/></g></g><g class="mark-group role-axis" role="graphics-symbol" aria-roledescription="axis" aria-label="Y-axis titled 'GDP per capita, adjusted for PPP, in constant 2017 international USD (log scale)' for a log scale with values from 400 to 200k"><g transform="translate(0.5,0.5)"><path class="background" aria-hidden="true" d="M0,0h0v0h0Z" pointer-events="none"/><g><g class="mark-text role-axis-label" pointer-events="none"><text text-anchor="end" transform="translate(-5,303)" font-family="Circular Std Book" font-size="10px" fill="#b4c8d8" fill-opacity="0.7" opacity="1"/><text text-anchor="end" transform="translate(-5,292.2281115182052)" font-family="Circular Std Book" font-size="10px" fill="#b4c8d8" fill-opacity="0.7" opacity="1"/><text text-anchor="end" transform="translate(-5,283.42683778188166)" font-family="Circular Std Book" font-size="10px" fill="#b4c8d8" fill-opacity="0.7" opacity="1"/><text text-anchor="end" transform="translate(-5,275.9854668674521)" font-family="Circular Std Book" font-size="10px" fill="#b4c8d8" fill-opacity="0.7" opacity="1"/><text text-anchor="end" transform="translate(-5,269.539458180673)" font-family="Circular Std Book" font-size="10px" fill="#b4c8d8" fill-opacity="0.7" opacity="1"/><text text-anchor="end" transform="translate(-5,263.8536755637634)" font-family="Circular Std Book" font-size="10px" fill="#b4c8d8" fill-opacity="0.7" opacity="1"/><text text-anchor="end" transform="translate(-5,258.7675696988782)" font-family="Circular Std Book" font-size="10px" fill="#b4c8d8" fill-opacity="0.7" opacity="1">1k</text><text text-anchor="end" transform="translate(-5,225.30702787955127)" font-family="Circular Std Book" font-size="10px" fill="#b4c8d8" fill-opacity="0.7" opacity="1">2k</text><text text-anchor="end" transform="translate(-5,205.73386566143301)" font-family="Circular Std Book" font-size="10px" fill="#b4c8d8" fill-opacity="0.7" opacity="1">3k</text><text text-anchor="end" transform="translate(-5,191.84648606022435)" font-family="Circular Std Book" font-size="10px" fill="#b4c8d8" fill-opacity="0.7" opacity="1"/><text text-anchor="end" transform="translate(-5,181.07459757842946)" font-family="Circular Std Book" font-size="10px" fill="#b4c8d8" fill-opacity="0.7" opacity="1"/><text text-anchor="end" transform="translate(-5,172.2733238421061)" font-family="Circular Std Book" font-size="10px" fill="#b4c8d8" fill-opacity="0.7" opacity="1"/><text text-anchor="end" transform="translate(-5,164.83195292767647)" font-family="Circular Std Book" font-size="10px" fill="#b4c8d8" fill-opacity="0.7" opacity="1"/><text text-anchor="end" transform="translate(-5,158.3859442408974)" font-family="Circular Std Book" font-size="10px" fill="#b4c8d8" fill-opacity="0.7" opacity="1"/><text text-anchor="end" transform="translate(-5,152.70016162398773)" font-family="Circular Std Book" font-size="10px" fill="#b4c8d8" fill-opacity="0.7" opacity="1"/><text text-anchor="end" transform="translate(-5,147.61405575910254)" font-family="Circular Std Book" font-size="10px" fill="#b4c8d8" fill-opacity="0.7" opacity="1">10k</text><text text-anchor="end" transform="translate(-5,114.15351393977568)" font-family="Circular Std Book" font-size="10px" fill="#b4c8d8" fill-opacity="0.7" opacity="1">20k</text><text text-anchor="end" transform="translate(-5,94.58035172165734)" font-family="Circular Std Book" font-size="10px" fill="#b4c8d8" fill-opacity="0.7" opacity="1">30k</text><text text-anchor="end" transform="translate(-5,80.69297212044876)" font-family="Circular Std Book" font-size="10px" fill="#b4c8d8" fill-opacity="0.7" opacity="1"/><text text-anchor="end" transform="translate(-5,69.92108363865387)" font-family="Circular Std Book" font-size="10px" fill="#b4c8d8" fill-opacity="0.7" opacity="1"/><text text-anchor="end" transform="translate(-5,61.11980990233039)" font-family="Circular Std Book" font-size="10px" fill="#b4c8d8" fill-opacity="0.7" opacity="1"/><text text-anchor="end" transform="translate(-5,53.67843898790086)" font-family="Circular Std Book" font-size="10px" fill="#b4c8d8" fill-opacity="0.7" opacity="1"/><text text-anchor="end" transform="translate(-5,47.23243030112181)" font-family="Circular Std Book" font-size="10px" fill="#b4c8d8" fill-opacity="0.7" opacity="1"/><text text-anchor="end" transform="translate(-5,41.54664768421212)" font-family="Circular Std Book" font-size="10px" fill="#b4c8d8" fill-opacity="0.7" opacity="1"/><text text-anchor="end" transform="translate(-5,36.46054181932695)" font-family="Circular Std Book" font-size="10px" fill="#b4c8d8" fill-opacity="0.7" opacity="1">100k</text><text text-anchor="end" transform="translate(-5,3)" font-family="Circular Std Book" font-size="10px" fill="#b4c8d8" fill-opacity="0.7" opacity="1">200k</text></g><g class="mark-rule role-axis-domain" pointer-events="none"><line transform="translate(0,300)" x2="0" y2="-300" stroke="#b4c8d8" stroke-opacity="0.5" stroke-width="1" opacity="1"/></g><g class="mark-text role-axis-title" pointer-events="none"><text text-anchor="start" transform="translate(0,-10)" font-family="Circular Std Book" font-size="12px" font-weight="bold" fill="#b4c8d8" fill-opacity="0.8" opacity="1">GDP per capita, adjusted for PPP, in constant 2017 international USD (log scale)</text></g></g><path class="foreground" aria-hidden="true" d="" pointer-events="none" display="none"/></g></g><g class="mark-group role-scope layer_0_pathgroup" role="graphics-object" aria-roledescription="group mark container"><g transform="translate(0,0)"><path class="background" aria-hidden="true" d="M0,0h300v300h-300Z"/><g><g class="mark-line role-mark layer_0_marks" clip-path="url(#clip12761)" role="graphics-object" aria-roledescription="line mark container"><path aria-label="year: 1700; value: 1.20827k; key: China" role="graphics-symbol" aria-roledescription="line mark" d="M0,246.635C14.286,246.99,28.571,247.346,42.857,248.271C57.143,249.197,71.429,250.913,85.714,252.187C100,253.46,114.286,255.913,128.571,255.913C142.857,255.913,157.143,249.868,171.429,249.868C185.714,249.868,200,259.323,214.286,259.323C228.571,259.323,242.857,238.202,257.143,195.959C263.714,176.528,270.286,132.754,276.857,112.781C284.571,89.335,292.286,81.916,300,74.497" stroke="#36B7B4" stroke-width="2" opacity="0.8"/></g></g><path class="foreground" aria-hidden="true" d="" display="none"/></g><g transform="translate(0,0)"><path class="background" aria-hidden="true" d="M0,0h300v300h-300Z"/><g><g class="mark-line role-mark layer_0_marks" clip-path="url(#clip12762)" role="graphics-object" aria-roledescription="line mark container"><path aria-label="year: 1700; value: 748.979; key: Egypt" role="graphics-symbol" aria-roledescription="line mark" d="M0,269.721C14.286,269.724,28.571,269.727,42.857,269.727C57.143,269.727,71.429,254.367,85.714,250.297C100,246.227,114.286,247.814,128.571,244.191C142.857,240.569,157.143,228.56,171.429,228.56C185.714,228.56,200,230.523,214.286,230.523C228.571,230.523,242.857,177.034,257.143,156.95C263.714,147.711,270.286,140.925,276.857,132.053C284.571,121.638,292.286,110.038,300,98.438" stroke="#F4134D" stroke-width="2" opacity="0.8"/></g></g><path class="foreground" aria-hidden="true" d="" display="none"/></g><g transform="translate(0,0)"><path class="background" aria-hidden="true" d="M0,0h300v300h-300Z"/><g><g class="mark-line role-mark layer_0_marks" clip-path="url(#clip12763)" role="graphics-object" aria-roledescription="line mark container"><path aria-label="year: 1700; value: 1.41820k; key: Germany" role="graphics-symbol" aria-roledescription="line mark" d="M0,238.901C14.286,237.827,28.571,236.753,42.857,234.716C57.143,232.678,71.429,230.994,85.714,226.674C100,222.354,114.286,217.707,128.571,208.795C142.857,199.883,157.143,181.246,171.429,173.202C185.714,165.159,200,168.979,214.286,160.532C228.571,152.086,242.857,89.414,257.143,74.283C263.714,67.322,270.286,67.449,276.857,62.047C284.571,55.706,292.286,46.629,300,37.553" stroke="#00A767" stroke-width="2" opacity="0.8"/></g></g><path class="foreground" aria-hidden="true" d="" display="none"/></g><g transform="translate(0,0)"><path class="background" aria-hidden="true" d="M0,0h300v300h-300Z"/><g><g class="mark-line role-mark layer_0_marks" clip-path="url(#clip12764)" role="graphics-object" aria-roledescription="line mark container"><path aria-label="year: 1700; value: 577.720; key: India" role="graphics-symbol" aria-roledescription="line mark" d="M0,282.254C14.286,282.567,28.571,282.881,42.857,282.881C57.143,282.881,71.429,246.886,85.714,246.886C100,246.886,114.286,251.123,128.571,251.123C142.857,251.123,157.143,250.992,171.429,250.73C185.714,250.468,200,250.202,214.286,249.147C228.571,248.092,242.857,236.109,257.143,210.033C263.714,198.038,270.286,172.401,276.857,157.754C284.571,140.56,292.286,129.112,300,117.663" stroke="#F4C245" stroke-width="2" opacity="0.8"/></g></g><path class="foreground" aria-hidden="true" d="" display="none"/></g><g transform="translate(0,0)"><path class="background" aria-hidden="true" d="M0,0h300v300h-300Z"/><g><g class="mark-line role-mark layer_0_marks" clip-path="url(#clip12765)" role="graphics-object" aria-roledescription="line mark container"><path aria-label="year: 1700; value: 923.247; key: Japan" role="graphics-symbol" aria-roledescription="line mark" d="M0,259.623C14.286,259.086,28.571,258.549,42.857,256.401C57.143,254.254,71.429,237.984,85.714,235.207C100,232.429,114.286,233.818,128.571,231.041C142.857,228.263,157.143,218.25,171.429,212.157C185.714,206.064,200,206.267,214.286,194.486C228.571,182.705,242.857,94.598,257.143,82.348C263.714,76.713,270.286,78.495,276.857,73.895C284.571,68.496,292.286,59.413,300,50.329" stroke="#36B7B4" stroke-width="2" opacity="0.8"/></g></g><path class="foreground" aria-hidden="true" d="" display="none"/></g><g transform="translate(0,0)"><path class="background" aria-hidden="true" d="M0,0h300v300h-300Z"/><g><g class="mark-line role-mark layer_0_marks" clip-path="url(#clip12766)" role="graphics-object" aria-roledescription="line mark container"><path aria-label="year: 1800; value: 963.000; key: Nigeria" role="graphics-symbol" aria-roledescription="line mark" d="M85.714,257.588C100,256.156,114.286,254.725,128.571,253.597C142.857,252.468,157.143,252.67,171.429,250.817C185.714,248.964,200,246.222,214.286,239.698C228.571,233.173,242.857,230.355,257.143,211.67C263.714,203.076,270.286,186.594,276.857,177.68C284.571,167.217,292.286,161.749,300,156.281" stroke="#F4134D" stroke-width="2" opacity="0.8"/></g></g><path class="foreground" aria-hidden="true" d="" display="none"/></g><g transform="translate(0,0)"><path class="background" aria-hidden="true" d="M0,0h300v300h-300Z"/><g><g class="mark-line role-mark layer_0_marks" clip-path="url(#clip12767)" role="graphics-object" aria-roledescription="line mark container"><path aria-label="year: 1700; value: 683.269; key: Pakistan" role="graphics-symbol" aria-roledescription="line mark" d="M0,274.153C14.286,274.467,28.571,274.781,42.857,274.781C57.143,274.781,71.429,248.825,85.714,248.77C100,248.714,114.286,248.742,128.571,248.686C142.857,248.631,157.143,242.659,171.429,242.659C185.714,242.659,200,247.289,214.286,247.289C228.571,247.289,242.857,213.964,257.143,198.944C263.714,192.035,270.286,186.491,276.857,178.912C284.571,170.016,292.286,159.257,300,148.498" stroke="#F4C245" stroke-width="2" opacity="0.8"/></g></g><path class="foreground" aria-hidden="true" d="" display="none"/></g><g transform="translate(0,0)"><path class="background" aria-hidden="true" d="M0,0h300v300h-300Z"/><g><g class="mark-line role-mark layer_0_marks" clip-path="url(#clip12768)" role="graphics-object" aria-roledescription="line mark container"><path aria-label="year: 1800; value: 1.61900k; key: Russia" role="graphics-symbol" aria-roledescription="line mark" d="M85.714,232.509C100,230.347,114.286,228.186,128.571,221.994C142.857,215.803,157.143,203.941,171.429,195.362C185.714,186.783,200,182.006,214.286,170.52C228.571,159.034,242.857,144.038,257.143,126.445C263.714,118.352,270.286,108.122,276.857,100.326C284.571,91.174,292.286,83.904,300,76.634" stroke="#00A767" stroke-width="2" opacity="0.8"/></g></g><path class="foreground" aria-hidden="true" d="" display="none"/></g><g transform="translate(0,0)"><path class="background" aria-hidden="true" d="M0,0h300v300h-300Z"/><g><g class="mark-line role-mark layer_0_marks" clip-path="url(#clip12769)" role="graphics-object" aria-roledescription="line mark container"><path aria-label="year: 1800; value: 1.77700k; key: South Africa" role="graphics-symbol" aria-roledescription="line mark" d="M85.714,228.014C100,237.27,114.286,246.526,128.571,246.526C142.857,246.526,157.143,240.722,171.429,229.113C185.714,217.504,200,179.723,214.286,164.848C228.571,149.973,242.857,146.762,257.143,139.864C263.714,136.691,270.286,135.323,276.857,131.252C284.571,126.474,292.286,119.215,300,111.957" stroke="#F4134D" stroke-width="2" opacity="0.8"/></g></g><path class="foreground" aria-hidden="true" d="" display="none"/></g><g transform="translate(0,0)"><path class="background" aria-hidden="true" d="M0,0h300v300h-300Z"/><g><g class="mark-line role-mark layer_0_marks" clip-path="url(#clip12770)" role="graphics-object" aria-roledescription="line mark container"><path aria-label="year: 1700; value: 670.000; key: Turkey" role="graphics-symbol" aria-roledescription="line mark" d="M0,275.1C14.286,273.561,28.571,272.022,42.857,267.924C57.143,263.826,71.429,254.405,85.714,250.513C100,246.621,114.286,247.453,128.571,244.573C142.857,241.692,157.143,238.465,171.429,233.23C185.714,227.995,200,226.542,214.286,213.165C228.571,199.788,242.857,150.788,257.143,123.664C263.714,111.187,270.286,98.071,276.857,87.953C284.571,76.076,292.286,67.89,300,59.705" stroke="#0063AF" stroke-width="2" opacity="0.8"/></g></g><path class="foreground" aria-hidden="true" d="" display="none"/></g><g transform="translate(0,0)"><path class="background" aria-hidden="true" d="M0,0h300v300h-300Z"/><g><g class="mark-line role-mark layer_0_marks" clip-path="url(#clip12771)" role="graphics-object" aria-roledescription="line mark container"><path aria-label="year: 1800; value: 1.13000k; key: United Arab Emirates" role="graphics-symbol" aria-roledescription="line mark" d="M85.714,249.868C100,248.365,114.286,246.863,128.571,240.853C142.857,234.844,157.143,222.407,171.429,197.943C185.714,173.479,200,118.801,214.286,94.07C228.571,69.339,242.857,49.559,257.143,49.559C263.714,49.559,270.286,53.268,276.857,53.268C284.571,53.268,292.286,38.596,300,23.924" stroke="#0063AF" stroke-width="2" opacity="0.8"/></g></g><path class="foreground" aria-hidden="true" d="" display="none"/></g><g transform="translate(0,0)"><path class="background" aria-hidden="true" d="M0,0h300v300h-300Z"/><g><g class="mark-line role-mark layer_0_marks" clip-path="url(#clip12772)" role="graphics-object" aria-roledescription="line mark container"><path aria-label="year: 1700; value: 1.81569k; key: United Kingdom" role="graphics-symbol" aria-roledescription="line mark" d="M0,226.974C14.286,225.489,28.571,224.003,42.857,218.06C57.143,212.117,71.429,196.964,85.714,190.242C100,183.52,114.286,184.33,128.571,177.728C142.857,171.127,157.143,158.173,171.429,150.632C185.714,143.09,200,144.414,214.286,132.479C228.571,120.544,242.857,89.424,257.143,79.02C263.714,74.235,270.286,74.306,276.857,69.372C284.571,63.58,292.286,54.238,300,44.895" stroke="#5C267B" stroke-width="2" opacity="0.8"/></g></g><path class="foreground" aria-hidden="true" d="" display="none"/></g><g transform="translate(0,0)"><path class="background" aria-hidden="true" d="M0,0h300v300h-300Z"/><g><g class="mark-line role-mark layer_0_marks" clip-path="url(#clip12773)" role="graphics-object" aria-roledescription="line mark container"><path aria-label="year: 1800; value: 2.95900k; key: United States" role="graphics-symbol" aria-roledescription="line mark" d="M85.714,203.398C100,199.444,114.286,195.49,128.571,186.239C142.857,176.988,157.143,159.433,171.429,147.895C185.714,136.356,200,130.523,214.286,117.007C228.571,103.492,242.857,78.849,257.143,66.801C263.714,61.258,270.286,58.751,276.857,53.149C284.571,46.572,292.286,37.823,300,29.073" stroke="#122B39" stroke-width="2" opacity="0.8"/></g></g><path class="foreground" aria-hidden="true" d="" display="none"/></g></g><g class="mark-group role-scope layer_1_pathgroup" role="graphics-object" aria-roledescription="group mark container"><g transform="translate(0,0)"><path class="background" aria-hidden="true" d="M0,0h300v300h-300Z"/><g><g class="mark-line role-mark layer_1_marks" clip-path="url(#clip12774)" role="graphics-object" aria-roledescription="line mark container"><path aria-label="year: 1700; value: 1.81569k; key: United Kingdom" role="graphics-symbol" aria-roledescription="line mark" d="M0,226.974C14.286,225.489,28.571,224.003,42.857,218.06C57.143,212.117,71.429,196.964,85.714,190.242C100,183.52,114.286,184.33,128.571,177.728C142.857,171.127,157.143,158.173,171.429,150.632C185.714,143.09,200,144.414,214.286,132.479C228.571,120.544,242.857,89.424,257.143,79.02C263.714,74.235,270.286,74.306,276.857,69.372C284.571,63.58,292.286,54.238,300,44.895" stroke="#5C267B" stroke-width="3" opacity="0.8"/></g></g><path class="foreground" aria-hidden="true" d="" display="none"/></g></g><g class="mark-area role-mark layer_2_marks" role="graphics-object" aria-roledescription="area mark container"><path aria-label="x: 2023; y: 400; y2: 200000" role="graphics-symbol" aria-roledescription="area mark" d="M276.857,300L300,300L300,0L276.857,0Z" fill="url(#gradient_172)" opacity="0.4"/></g><g class="mark-text role-mark layer_3_marks" role="graphics-object" aria-roledescription="text mark container"><text aria-label="x: 2023; y: 200000" role="graphics-symbol" aria-roledescription="text mark" text-anchor="end" transform="translate(271.85714285714283,14)" font-family="Circular Std Book" font-size="11px" fill="#b4c8d8" opacity="0.5">2023</text></g><g class="mark-symbol role-mark layer_4_marks" role="graphics-object" aria-roledescription="symbol mark container"><path aria-label="year: 2023; value: 19.3370k; key: China" role="graphics-symbol" aria-roledescription="circle" transform="translate(276.85714285714283,112.78090124811264)" d="M2.739,0A2.739,2.739,0,1,1,-2.739,0A2.739,2.739,0,1,1,2.739,0" fill="#36B7B4" stroke-width="2" opacity="1"/><path aria-label="year: 2023; value: 12.9720k; key: Egypt" role="graphics-symbol" aria-roledescription="circle" transform="translate(276.85714285714283,132.05293727841723)" d="M2.739,0A2.739,2.739,0,1,1,-2.739,0A2.739,2.739,0,1,1,2.739,0" fill="#F4134D" stroke-width="2" opacity="1"/><path aria-label="year: 2023; value: 55.3120k; key: Germany" role="graphics-symbol" aria-roledescription="circle" transform="translate(276.85714285714283,62.047073428255054)" d="M2.739,0A2.739,2.739,0,1,1,-2.739,0A2.739,2.739,0,1,1,2.739,0" fill="#00A767" stroke-width="2" opacity="1"/><path aria-label="year: 2023; value: 7.61700k; key: India" role="graphics-symbol" aria-roledescription="circle" transform="translate(276.85714285714283,157.7541844989584)" d="M2.739,0A2.739,2.739,0,1,1,-2.739,0A2.739,2.739,0,1,1,2.739,0" fill="#F4C245" stroke-width="2" opacity="1"/><path aria-label="year: 2023; value: 43.2740k; key: Japan" role="graphics-symbol" aria-roledescription="circle" transform="translate(276.85714285714283,73.8951845171753)" d="M2.739,0A2.739,2.739,0,1,1,-2.739,0A2.739,2.739,0,1,1,2.739,0" fill="#36B7B4" stroke-width="2" opacity="1"/><path aria-label="year: 2023; value: 5.04100k; key: Nigeria" role="graphics-symbol" aria-roledescription="circle" transform="translate(276.85714285714283,177.68037017726158)" d="M2.739,0A2.739,2.739,0,1,1,-2.739,0A2.739,2.739,0,1,1,2.739,0" fill="#F4134D" stroke-width="2" opacity="1"/><path aria-label="year: 2023; value: 4.91400k; key: Pakistan" role="graphics-symbol" aria-roledescription="circle" transform="translate(276.85714285714283,178.91212287658234)" d="M2.739,0A2.739,2.739,0,1,1,-2.739,0A2.739,2.739,0,1,1,2.739,0" fill="#F4C245" stroke-width="2" opacity="1"/><path aria-label="year: 2023; value: 25.0290k; key: Russia" role="graphics-symbol" aria-roledescription="circle" transform="translate(276.85714285714283,100.32566081621323)" d="M2.739,0A2.739,2.739,0,1,1,-2.739,0A2.739,2.739,0,1,1,2.739,0" fill="#00A767" stroke-width="2" opacity="1"/><path aria-label="year: 2023; value: 13.1890k; key: South Africa" role="graphics-symbol" aria-roledescription="circle" transform="translate(276.85714285714283,131.25208418506347)" d="M2.739,0A2.739,2.739,0,1,1,-2.739,0A2.739,2.739,0,1,1,2.739,0" fill="#F4134D" stroke-width="2" opacity="1"/><path aria-label="year: 2023; value: 32.3410k; key: Turkey" role="graphics-symbol" aria-roledescription="circle" transform="translate(276.85714285714283,87.95316917313988)" d="M2.739,0A2.739,2.739,0,1,1,-2.739,0A2.739,2.739,0,1,1,2.739,0" fill="#0063AF" stroke-width="2" opacity="1"/><path aria-label="year: 2023; value: 66.3440k; key: United Arab Emirates" role="graphics-symbol" aria-roledescription="circle" transform="translate(276.85714285714283,53.26791433618904)" d="M2.739,0A2.739,2.739,0,1,1,-2.739,0A2.739,2.739,0,1,1,2.739,0" fill="#0063AF" stroke-width="2" opacity="1"/><path aria-label="year: 2023; value: 47.5250k; key: United Kingdom" role="graphics-symbol" aria-roledescription="circle" transform="translate(276.85714285714283,69.37178284202963)" d="M2.739,0A2.739,2.739,0,1,1,-2.739,0A2.739,2.739,0,1,1,2.739,0" fill="#5C267B" stroke-width="2" opacity="1"/><path aria-label="year: 2023; value: 66.5080k; key: United States" role="graphics-symbol" aria-roledescription="circle" transform="translate(276.85714285714283,53.148731566006504)" d="M2.739,0A2.739,2.739,0,1,1,-2.739,0A2.739,2.739,0,1,1,2.739,0" fill="#122B39" stroke-width="2" opacity="1"/></g><g class="mark-text role-mark layer_5_marks" role="graphics-object" aria-roledescription="text mark container"><text aria-label="year: 2050; value: 42.7380k; key: China; t: China" role="graphics-symbol" aria-roledescription="text mark" text-anchor="start" transform="translate(305,77.49684137197185)" font-family="Circular Std Book" font-size="11px" fill="#36B7B4">China</text><text aria-label="year: 2050; value: 26.0270k; key: Egypt; t: Egypt" role="graphics-symbol" aria-roledescription="text mark" text-anchor="start" transform="translate(305,101.43820592648453)" font-family="Circular Std Book" font-size="11px" fill="#F4134D">Egypt</text><text aria-label="year: 2050; value: 91.8720k; key: Germany; t: Germany" role="graphics-symbol" aria-roledescription="text mark" text-anchor="start" transform="translate(305,40.55286175520324)" font-family="Circular Std Book" font-size="11px" fill="#00A767">Germany</text><text aria-label="year: 2050; value: 70.5080k; key: Japan; t: Japan" role="graphics-symbol" aria-roledescription="text mark" text-anchor="start" transform="translate(305,53.32937740297885)" font-family="Circular Std Book" font-size="11px" fill="#36B7B4">Japan</text><text aria-label="year: 2050; value: 7.85300k; key: Nigeria; t: Nigeria" role="graphics-symbol" aria-roledescription="text mark" text-anchor="start" transform="translate(305,159.2812179408661)" font-family="Circular Std Book" font-size="11px" fill="#F4134D">Nigeria</text><text aria-label="year: 2050; value: 19.6700k; key: South Africa; t: South Africa" role="graphics-symbol" aria-roledescription="text mark" text-anchor="start" transform="translate(305,114.95666874324168)" font-family="Circular Std Book" font-size="11px" fill="#F4134D">South Africa</text><text aria-label="year: 2050; value: 58.0620k; key: Turkey; t: Turkey" role="graphics-symbol" aria-roledescription="text mark" text-anchor="start" transform="translate(305,62.70477664079179)" font-family="Circular Std Book" font-size="11px" fill="#0063AF">Turkey</text><text aria-label="year: 2050; value: 109.514k; key: United States; t: United States" role="graphics-symbol" aria-roledescription="text mark" text-anchor="start" transform="translate(305,32.07335243242713)" font-family="Circular Std Book" font-size="11px" fill="#122B39">United States</text></g><g class="mark-text role-mark layer_6_marks" role="graphics-object" aria-roledescription="text mark container"><text aria-label="year: 2050; value: 9.22700k; key: Pakistan; t: Pakistan" role="graphics-symbol" aria-roledescription="text mark" text-anchor="start" transform="translate(305,146.49770166839423)" font-family="Circular Std Book" font-size="11px" fill="#F4C245">Pakistan</text></g><g class="mark-text role-mark layer_7_marks" role="graphics-object" aria-roledescription="text mark container"><text aria-label="year: 2050; value: 17.4770k; key: India; t: India" role="graphics-symbol" aria-roledescription="text mark" text-anchor="start" transform="translate(305,125.66300934000868)" font-family="Circular Std Book" font-size="11px" fill="#F4C245">India</text></g><g class="mark-text role-mark layer_8_marks" role="graphics-object" aria-roledescription="text mark container"><text aria-label="year: 2050; value: 40.8870k; key: Russia; t: Russia" role="graphics-symbol" aria-roledescription="text mark" text-anchor="start" transform="translate(305,86.63420656425292)" font-family="Circular Std Book" font-size="11px" fill="#00A767">Russia</text></g><g class="mark-text role-mark layer_9_marks" role="graphics-object" aria-roledescription="text mark container"><text aria-label="year: 2050; value: 121.841k; key: United Arab Emirates; t: United Arab Emirates" role="graphics-symbol" aria-roledescription="text mark" text-anchor="start" transform="translate(305,19.924297847618657)" font-family="Circular Std Book" font-size="11px" fill="#0063AF">United Arab Emirates</text></g><g class="mark-text role-mark layer_10_marks" role="graphics-object" aria-roledescription="text mark container"><text aria-label="year: 2050; value: 78.9090k; key: United Kingdom; t: United Kingdom" role="graphics-symbol" aria-roledescription="text mark" text-anchor="start" transform="translate(355,47.89528842518196)" font-family="Circular Std Book" font-size="11px" fill="#5C267B">United Kingdom</text></g><g class="mark-image role-mark layer_11_marks" role="graphics-object" aria-roledescription="image mark container"><image aria-label="x: 2020; y: 200000; img: https://raw.githubusercontent.com/EconomicsObservatory/ECOvisualisations/main/guidelines/logos/eco-icon-light.png" role="graphics-symbol" aria-roledescription="image mark" xlink:href="https://raw.githubusercontent.com/EconomicsObservatory/ECOvisualisations/main/guidelines/logos/eco-icon-light.png" transform="translate(409.2857142857143,-33)" width="40" height="40" preserveAspectRatio="xMidYMid" opacity="0.5"/></g></g><path class="foreground" aria-hidden="true" d="" display="none"/></g></g></g><defs><linearGradient id="gradient_172" x1="1" x2="0" y1="1" y2="1"><stop offset="0" stop-color="#ffffff00"/><stop offset="1" stop-color="#00A767"/></linearGradient><clipPath id="clip12761"><rect x="0" y="0" width="300" height="300"/></clipPath><clipPath id="clip12762"><rect x="0" y="0" width="300" height="300"/></clipPath><clipPath id="clip12763"><rect x="0" y="0" width="300" height="300"/></clipPath><clipPath id="clip12764"><rect x="0" y="0" width="300" height="300"/></clipPath><clipPath id="clip12765"><rect x="0" y="0" width="300" height="300"/></clipPath><clipPath id="clip12766"><rect x="0" y="0" width="300" height="300"/></clipPath><clipPath id="clip12767"><rect x="0" y="0" width="300" height="300"/></clipPath><clipPath id="clip12768"><rect x="0" y="0" width="300" height="300"/></clipPath><clipPath id="clip12769"><rect x="0" y="0" width="300" height="300"/></clipPath><clipPath id="clip12770"><rect x="0" y="0" width="300" height="300"/></clipPath><clipPath id="clip12771"><rect x="0" y="0" width="300" height="300"/></clipPath><clipPath id="clip12772"><rect x="0" y="0" width="300" height="300"/></clipPath><clipPath id="clip12773"><rect x="0" y="0" width="300" height="300"/></clipPath><clipPath id="clip12774"><rect x="0" y="0" width="300" height="300"/></clipPath></defs></svg>