<svg xmlns="http://www.w3.org/2000/svg" xmlns:xlink="http://www.w3.org/1999/xlink" version="1.1" class="marks" width="514" height="392" viewBox="0 0 514 392"><rect width="514" height="392" fill="white"/><g fill="none" stroke-miterlimit="10" transform="translate(7,20)"><g class="mark-group role-frame root" role="graphics-object" aria-roledescription="group mark container"><g transform="translate(0,0)"><path class="background" aria-hidden="true" d="M0,0h500v350h-500Z"/><g><g class="mark-group role-axis" aria-hidden="true"><g transform="translate(0.5,0.5)"><path class="background" aria-hidden="true" d="M0,0h0v0h0Z" pointer-events="none"/><g><g class="mark-rule role-axis-grid" pointer-events="none"><line transform="translate(0,350)" x2="500" y2="0" stroke="#ddd" stroke-opacity="0.4" stroke-width="1" opacity="1"/><line transform="translate(0,263)" x2="500" y2="0" stroke="#ddd" stroke-opacity="0.4" stroke-width="1" opacity="1"/><line transform="translate(0,175)" x2="500" y2="0" stroke="#ddd" stroke-opacity="0.4" stroke-width="1" opacity="1"/><line transform="translate(0,88)" x2="500" y2="0" stroke="#ddd" stroke-opacity="0.4" stroke-width="1" opacity="1"/><line transform="translate(0,0)" x2="500" y2="0" stroke="#ddd" stroke-opacity="0.4" stroke-width="1" opacity="1"/></g></g><path class="foreground" aria-hidden="true" d="" pointer-events="none" display="none"/></g></g><g class="mark-group role-axis" role="graphics-symbol" aria-roledescription="axis" aria-label="X-axis for a time scale with values from Wednesday, 01 January 2020, 12:00:00 AM to Friday, 03 December 2021, 12:00:00 AM"><g transform="translate(0.5,350.5)"><path class="background" aria-hidden="true" d="M0,0h0v0h0Z" pointer-events="none"/><g><g class="mark-rule role-axis-tick" pointer-events="none"><line transform="translate(0,0)" x2="0" y2="5" stroke="#676A86" stroke-width="1" opacity="1"/><line transform="translate(65,0)" x2="0" y2="5" stroke="#676A86" stroke-width="1" opacity="1"/><line transform="translate(130,0)" x2="0" y2="5" stroke="#676A86" stroke-width="1" opacity="1"/><line transform="translate(195,0)" x2="0" y2="5" stroke="#676A86" stroke-width="1" opacity="1"/><line transform="translate(261,0)" x2="0" y2="5" stroke="#676A86" stroke-width="1" opacity="1"/><line transform="translate(325,0)" x2="0" y2="5" stroke="#676A86" stroke-width="1" opacity="1"/><line transform="translate(390,0)" x2="0" y2="5" stroke="#676A86" stroke-width="1" opacity="1"/><line transform="translate(455,0)" x2="0" y2="5" stroke="#676A86" stroke-width="1" opacity="1"/></g><g class="mark-text role-axis-label" pointer-events="none"><text text-anchor="start" transform="translate(0,15)" font-family="sans-serif" font-size="10px" fill="#676A86" opacity="1">2020</text><text text-anchor="middle" transform="translate(64.81481481481481,15)" font-family="sans-serif" font-size="10px" fill="#676A86" opacity="1">April</text><text text-anchor="middle" transform="translate(129.62962962962962,15)" font-family="sans-serif" font-size="10px" fill="#676A86" opacity="1">July</text><text text-anchor="middle" transform="translate(195.15669515669515,15)" font-family="sans-serif" font-size="10px" fill="#676A86" opacity="1">October</text><text text-anchor="middle" transform="translate(260.6837606837607,15)" font-family="sans-serif" font-size="10px" fill="#676A86" opacity="1">2021</text><text text-anchor="middle" transform="translate(324.7863247863248,15)" font-family="sans-serif" font-size="10px" fill="#676A86" opacity="1">April</text><text text-anchor="middle" transform="translate(389.6011396011396,15)" font-family="sans-serif" font-size="10px" fill="#676A86" opacity="1">July</text><text text-anchor="middle" transform="translate(455.12820512820514,15)" font-family="sans-serif" font-size="10px" fill="#676A86" opacity="1">October</text></g><g class="mark-rule role-axis-domain" pointer-events="none"><line transform="translate(0,0)" x2="500" y2="0" stroke="#676A86" stroke-width="1" opacity="1"/></g></g><path class="foreground" aria-hidden="true" d="" pointer-events="none" display="none"/></g></g><g class="mark-group role-axis" role="graphics-symbol" aria-roledescription="axis" aria-label="Y-axis titled '%' for a linear scale with values from 0.0 to 0.4"><g transform="translate(0.5,0.5)"><path class="background" aria-hidden="true" d="M0,0h0v0h0Z" pointer-events="none"/><g><g class="mark-text role-axis-label" pointer-events="none"><text text-anchor="start" transform="translate(5,343)" font-family="sans-serif" font-size="10px" fill="#676A86" opacity="1">0.0</text><text text-anchor="start" transform="translate(5,255.5)" font-family="sans-serif" font-size="10px" fill="#676A86" opacity="1">0.1</text><text text-anchor="start" transform="translate(5,168)" font-family="sans-serif" font-size="10px" fill="#676A86" opacity="1">0.2</text><text text-anchor="start" transform="translate(5,80.50000000000004)" font-family="sans-serif" font-size="10px" fill="#676A86" opacity="1">0.3</text><text text-anchor="start" transform="translate(5,-7)" font-family="sans-serif" font-size="10px" fill="#676A86" opacity="1">0.4</text></g><g class="mark-rule role-axis-domain" pointer-events="none"><line transform="translate(0,350)" x2="0" y2="-350" stroke="#676A86" stroke-width="1" opacity="1"/></g><g class="mark-text role-axis-title" pointer-events="none"><text text-anchor="start" transform="translate(21,-7)" font-family="sans-serif" font-size="10px" font-weight="normal" fill="#676A86" opacity="1">%</text></g></g><path class="foreground" aria-hidden="true" d="" pointer-events="none" display="none"/></g></g><g class="mark-rule role-mark layer_0_marks" role="graphics-object" aria-roledescription="rule mark container"><line aria-label="x: Jan 29, 2020" role="graphics-symbol" aria-roledescription="rule mark" transform="translate(19.943019943019944,0)" x2="0" y2="350" stroke="#676A86" stroke-width="1" stroke-dasharray="0,1,1" opacity="0.3"/><line aria-label="x: Mar 18, 2020" role="graphics-symbol" aria-roledescription="rule mark" transform="translate(54.84330484330484,0)" x2="0" y2="350" stroke="#676A86" stroke-width="1" stroke-dasharray="0,1,1" opacity="0.3"/></g><g class="mark-text role-mark layer_1_marks" role="graphics-object" aria-roledescription="text mark container"><text aria-label="text: ➡ First COVID-related death in the UK; x: Jan 29, 2020; y: 0.37" role="graphics-symbol" aria-roledescription="text mark" text-anchor="start" transform="translate(19.943019943019944,24.250000000000025)" font-family="sans-serif" font-size="10px" font-weight="lighter" fill="#676A86">➡ First COVID-related death in the UK</text><text aria-label="text: ➡ Start of first UK lockdown; x: Mar 18, 2020; y: 0.34" role="graphics-symbol" aria-roledescription="text mark" text-anchor="start" transform="translate(54.84330484330484,50.50000000000001)" font-family="sans-serif" font-size="10px" font-weight="lighter" fill="#676A86">➡ Start of first UK lockdown</text></g><g class="mark-area role-mark layer_2_marks" role="graphics-object" aria-roledescription="area mark container"><path aria-label="weekx: Jan 01, 2020; max_quit_week: 0.2; min_quit_week: 0.155835524201" role="graphics-symbol" aria-roledescription="area mark" d="M0,179.65867221355438L4.985754985754986,180.38386143743992L9.971509971509972,164.20267187058926L14.957264957264957,179.5744303613901L19.943019943019944,180.19017428159714L24.928774928774928,179.01543006300926L29.914529914529915,176.40223763883114L34.9002849002849,208.01453702151775L39.88603988603989,204.82836700975895L44.87179487179487,183.8148295879364L49.857549857549856,179.94326390326023L54.84330484330484,208.3516739308834L59.82905982905983,177.22781039774418L64.81481481481481,158.28245542943478L69.8005698005698,184.10491049289703L74.78632478632478,207.97710344195366L79.77207977207978,193.07019412517548L84.75783475783476,168.3996919542551L89.74358974358974,168.45875643193722L94.72934472934473,190.3223529458046L99.71509971509971,146.16406746208668L104.7008547008547,192.86541119217873L109.68660968660969,155.12854270637035L114.67236467236468,172.4122691899538L119.65811965811966,178.63254100084305L124.64387464387465,151.32188275456429L129.62962962962962,193.8602890819311L134.6153846153846,164.18448314070702L139.6011396011396,150.75079575181007L144.58689458689457,160.4421030730009L149.57264957264957,160.1865090429783L154.55840455840456,172.02317379415035L159.54415954415956,156.21513351798058L164.52991452991452,141.85286909341812L169.51566951566952,152.84235626459122L174.5014245014245,145.7504205405712L179.48717948717947,145.54777592420578L184.47293447293447,126.20790153741837L189.45868945868946,102.4394690990448L199.43019943019942,145.01485265791416L204.41595441595442,58.6845301091671L209.4017094017094,99.31802228093147L214.3874643874644,93.91353130340576L219.37321937321937,134.855579957366L224.35897435897436,136.77492775022984L229.34472934472936,154.41995151340961L234.33048433048435,121.79324254393578L239.31623931623932,168.87867487967014L244.3019943019943,169.79357451200485L249.2877492877493,163.3840225636959L254.27350427350427,191.49194695055485L260.6837606837607,179.65867221355438L265.6695156695157,180.38386143743992L270.65527065527067,164.20267187058926L275.64102564102564,179.5744303613901L280.62678062678066,180.19017428159714L285.6125356125356,179.01543006300926L290.59829059829065,176.40223763883114L295.5840455840456,208.01453702151775L300.5698005698006,204.82836700975895L305.5555555555556,183.8148295879364L310.54131054131057,179.94326390326023L315.52706552706553,208.3516739308834L320.51282051282055,177.22781039774418L325.49857549857546,158.28245542943478L330.4843304843305,184.10491049289703L335.47008547008545,207.97710344195366L340.4558404558404,193.07019412517548L345.44159544159544,168.3996919542551L350.4273504273504,168.45875643193722L355.41310541310537,190.3223529458046L360.3988603988604,146.16406746208668L365.38461538461536,192.86541119217873L370.3703703703703,155.12854270637035L375.35612535612535,172.4122691899538L380.3418803418803,178.63254100084305L385.32763532763533,151.32188275456429L390.3133903133903,193.8602890819311L395.29914529914527,164.18448314070702L400.2849002849003,150.75079575181007L405.27065527065525,160.4421030730009L410.2564102564102,160.1865090429783L415.24216524216524,172.02317379415035L420.2279202279202,156.21513351798058L425.2136752136752,141.85286909341812L430.1994301994302,152.84235626459122L435.18518518518516,145.7504205405712L440.1709401709402,145.54777592420578L445.15669515669515,126.20790153741837L450.1424501424501,102.4394690990448L455.12820512820514,108.38860496878624L460.1139601139601,145.01485265791416L465.09971509971507,58.6845301091671L470.0854700854701,99.31802228093147L475.07122507122506,93.91353130340576L480.0569800569801,134.855579957366L485.04273504273505,136.77492775022984L490.02849002849,154.41995151340961L495.01424501424503,121.79324254393578L500,168.87867487967014L500,223.7268876284361L495.01424501424503,181.86617121100426L490.02849002849,184.45571176707745L485.04273504273505,194.7196837514639L480.0569800569801,173.9347506314516L475.07122507122506,207.2730626910925L470.0854700854701,212.05098778009415L465.09971509971507,182.37473852932453L460.1139601139601,176.8568255007267L455.12820512820514,185.91384813189507L450.1424501424501,163.6854339390993L445.15669515669515,203.31257432699203L440.1709401709402,193.8160102814436L435.18518518518516,193.5967154800892L430.1994301994302,210.0346725434065L425.2136752136752,191.96785278618336L420.2279202279202,209.62346382439137L415.24216524216524,212.2275684028864L410.2564102564102,224.81840699911118L405.27065527065525,194.5075862109661L400.2849002849003,244.68911848962307L395.29914529914527,229.92650642991066L390.3133903133903,250.58564394712448L385.32763532763533,234.7936149686575L380.3418803418803,217.81075224280357L375.35612535612535,216.60689301788807L370.3703703703703,220.44418044388294L365.38461538461536,218.9001202583313L360.3988603988604,232.1933176368475L355.41310541310537,217.76190996170044L350.4273504273504,252.67577674239874L345.44159544159544,268.23896020650864L340.4558404558404,232.8725591301918L335.47008547008545,236.83839328587055L330.4843304843305,229.7657024115324L325.49857549857546,230.2939709275961L320.51282051282055,226.67575664818287L315.52706552706553,255.27976397424936L310.54131054131057,231.72172755002975L305.5555555555556,230.64870983362198L300.5698005698006,247.02379517257214L295.5840455840456,222.65423499047756L290.59829059829065,230.60478307306767L285.6125356125356,240.6810199841857L280.62678062678066,249.41251650452614L275.64102564102564,240.8019782975316L270.65527065527067,216.02931283414364L265.6695156695157,245.89661546051502L260.6837606837607,213.643916323781L254.27350427350427,231.78692013025284L249.2877492877493,218.28819662332535L244.3019943019943,218.08070167899132L239.31623931623932,223.7268876284361L234.33048433048435,181.86617121100426L229.34472934472936,184.45571176707745L224.35897435897436,194.7196837514639L219.37321937321937,173.9347506314516L214.3874643874644,207.2730626910925L209.4017094017094,212.05098778009415L204.41595441595442,182.37473852932453L199.43019943019942,176.8568255007267L189.45868945868946,163.6854339390993L184.47293447293447,203.31257432699203L179.48717948717947,193.8160102814436L174.5014245014245,193.5967154800892L169.51566951566952,210.0346725434065L164.52991452991452,191.96785278618336L159.54415954415956,209.62346382439137L154.55840455840456,212.2275684028864L149.57264957264957,224.81840699911118L144.58689458689457,194.5075862109661L139.6011396011396,244.68911848962307L134.6153846153846,229.92650642991066L129.62962962962962,250.58564394712448L124.64387464387465,234.7936149686575L119.65811965811966,217.81075224280357L114.67236467236468,216.60689301788807L109.68660968660969,220.44418044388294L104.7008547008547,218.9001202583313L99.71509971509971,232.1933176368475L94.72934472934473,217.76190996170044L89.74358974358974,252.67577674239874L84.75783475783476,268.23896020650864L79.77207977207978,232.8725591301918L74.78632478632478,236.83839328587055L69.8005698005698,229.7657024115324L64.81481481481481,230.2939709275961L59.82905982905983,226.67575664818287L54.84330484330484,255.27976397424936L49.857549857549856,231.72172755002975L44.87179487179487,230.64870983362198L39.88603988603989,247.02379517257214L34.9002849002849,222.65423499047756L29.914529914529915,230.60478307306767L24.928774928774928,240.6810199841857L19.943019943019944,249.41251650452614L14.957264957264957,240.8019782975316L9.971509971509972,216.02931283414364L4.985754985754986,245.89661546051502L0,213.643916323781Z" fill="#676A86" opacity="0.15"/></g><g class="mark-line role-mark layer_3_marks" role="graphics-object" aria-roledescription="line mark container"><path aria-label="weekx: Jan 01, 2020; m_quit_week: 0.178205192089" role="graphics-symbol" aria-roledescription="line mark" d="M0,194.0704569220543L4.985754985754986,219.82500739395618L9.971509971509972,190.49686044454575L14.957264957264957,213.37361484766006L19.943019943019944,208.29809866845608L24.928774928774928,220.1980523765087L29.914529914529915,194.1332895308733L34.9002849002849,215.78708328306675L39.88603988603989,234.24376770853996L44.87179487179487,210.4321125894785L49.857549857549856,192.56338700652122L54.84330484330484,227.66792252659798L59.82905982905983,215.63770100474358L64.81481481481481,226.56160444021225L69.8005698005698,194.92905624210835L74.78632478632478,234.68420878052711L79.77207977207978,211.1001931130886L84.75783475783476,221.06527015566826L89.74358974358974,229.69925813376904L94.72934472934473,195.95976397395134L99.71509971509971,207.8813225030899L104.7008547008547,213.52906003594398L109.68660968660969,190.4072467237711L114.67236467236468,203.10553573071957L119.65811965811966,191.88398905098438L124.64387464387465,213.42372186481953L129.62962962962962,228.35440039634705L134.6153846153846,213.7278974056244L139.6011396011396,152.5817945599556L144.58689458689457,182.7649161219597L149.57264957264957,201.83285921812057L154.55840455840456,184.5662783831358L159.54415954415956,186.65932528674603L164.52991452991452,168.4264600276947L169.51566951566952,186.60591952502728L174.5014245014245,171.4882556349039L179.48717948717947,178.4064270555973L184.47293447293447,145.38359493017197L189.45868945868946,149.05966110527515L199.43019943019942,168.6640478670597L204.41595441595442,124.98817443847656L209.4017094017094,162.3863935470581L214.3874643874644,164.2345119267702L219.37321937321937,161.87010742723942L224.35897435897436,157.91832879185677L229.34472934472936,177.7237955480814L234.33048433048435,169.470701739192L239.31623931623932,185.38130298256874L244.3019943019943,198.71229901909828L249.2877492877493,194.3469386547804L254.27350427350427,211.06492392718792L260.6837606837607,194.0704569220543L265.6695156695157,219.82500739395618L270.65527065527067,190.49686044454575L275.64102564102564,213.37361484766006L280.62678062678066,208.29809866845608L285.6125356125356,220.1980523765087L290.59829059829065,194.1332895308733L295.5840455840456,215.78708328306675L300.5698005698006,234.24376770853996L305.5555555555556,210.4321125894785L310.54131054131057,192.56338700652122L315.52706552706553,227.66792252659798L320.51282051282055,215.63770100474358L325.49857549857546,226.56160444021225L330.4843304843305,194.92905624210835L335.47008547008545,234.68420878052711L340.4558404558404,211.1001931130886L345.44159544159544,221.06527015566826L350.4273504273504,229.69925813376904L355.41310541310537,195.95976397395134L360.3988603988604,207.8813225030899L365.38461538461536,213.52906003594398L370.3703703703703,190.4072467237711L375.35612535612535,203.10553573071957L380.3418803418803,191.88398905098438L385.32763532763533,213.42372186481953L390.3133903133903,228.35440039634705L395.29914529914527,213.7278974056244L400.2849002849003,152.5817945599556L405.27065527065525,182.7649161219597L410.2564102564102,201.83285921812057L415.24216524216524,184.5662783831358L420.2279202279202,186.65932528674603L425.2136752136752,168.4264600276947L430.1994301994302,186.60591952502728L435.18518518518516,171.4882556349039L440.1709401709402,178.4064270555973L445.15669515669515,145.38359493017197L450.1424501424501,149.05966110527515L455.12820512820514,155.76814711093903L460.1139601139601,168.6640478670597L465.09971509971507,124.98817443847656L470.0854700854701,162.3863935470581L475.07122507122506,164.2345119267702L480.0569800569801,161.87010742723942L485.04273504273505,157.91832879185677L490.02849002849,177.7237955480814L495.01424501424503,169.470701739192L500,185.38130298256874" stroke="#676A86" stroke-width="1" stroke-dasharray="0,2,2" opacity="0.8"/></g><g class="mark-area role-mark layer_4_marks" role="graphics-object" aria-roledescription="area mark container"><path aria-label="weekx: Jan 01, 2020; max0: 0.194675803185; max_quit_week: 0.194675803185" role="graphics-symbol" aria-roledescription="area mark" d="M0,179.65867221355438L4.985754985754986,180.38386143743992L9.971509971509972,164.20267187058926L14.957264957264957,179.5744303613901L19.943019943019944,180.19017428159714L24.928774928774928,179.01543006300926L29.914529914529915,176.40223763883114L34.9002849002849,208.01453702151775L39.88603988603989,203.55197452008724L44.87179487179487,183.8148295879364L49.857549857549856,179.94326390326023L54.84330484330484,208.3516739308834L59.82905982905983,177.22781039774418L64.81481481481481,158.28245542943478L69.8005698005698,184.10491049289703L74.78632478632478,207.97710344195366L79.77207977207978,193.07019412517548L84.75783475783476,168.3996919542551L89.74358974358974,168.45875643193722L94.72934472934473,190.3223529458046L99.71509971509971,146.16406746208668L104.7008547008547,192.86541119217873L109.68660968660969,155.12854270637035L114.67236467236468,172.4122691899538L119.65811965811966,178.63254100084305L124.64387464387465,151.32188275456429L129.62962962962962,193.8602890819311L134.6153846153846,164.18448314070702L139.6011396011396,150.75079575181007L144.58689458689457,160.4421030730009L149.57264957264957,160.1865090429783L154.55840455840456,172.02317379415035L159.54415954415956,156.21513351798058L164.52991452991452,141.85286909341812L169.51566951566952,152.84235626459122L174.5014245014245,145.7504205405712L179.48717948717947,145.54777592420578L184.47293447293447,126.20790153741837L189.45868945868946,102.4394690990448L199.43019943019942,145.01485265791416L204.41595441595442,58.6845301091671L209.4017094017094,99.31802228093147L214.3874643874644,93.91353130340576L219.37321937321937,134.855579957366L224.35897435897436,136.77492775022984L229.34472934472936,154.41995151340961L234.33048433048435,121.79324254393578L239.31623931623932,168.87867487967014L244.3019943019943,169.79357451200485L249.2877492877493,163.3840225636959L254.27350427350427,191.49194695055485L260.6837606837607,179.65867221355438L265.6695156695157,180.38386143743992L270.65527065527067,164.20267187058926L275.64102564102564,179.5744303613901L280.62678062678066,180.19017428159714L285.6125356125356,179.01543006300926L290.59829059829065,176.40223763883114L295.5840455840456,208.01453702151775L300.5698005698006,204.82836700975895L305.5555555555556,183.8148295879364L310.54131054131057,179.94326390326023L315.52706552706553,208.3516739308834L320.51282051282055,177.22781039774418L325.49857549857546,158.28245542943478L330.4843304843305,184.10491049289703L335.47008547008545,207.97710344195366L340.4558404558404,193.07019412517548L345.44159544159544,168.3996919542551L350.4273504273504,168.45875643193722L355.41310541310537,190.3223529458046L360.3988603988604,146.16406746208668L365.38461538461536,192.86541119217873L370.3703703703703,155.12854270637035L375.35612535612535,172.4122691899538L380.3418803418803,178.63254100084305L385.32763532763533,151.32188275456429L390.3133903133903,193.8602890819311L395.29914529914527,164.18448314070702L400.2849002849003,150.75079575181007L405.27065527065525,160.4421030730009L410.2564102564102,160.1865090429783L415.24216524216524,172.02317379415035L420.2279202279202,156.21513351798058L425.2136752136752,141.85286909341812L430.1994301994302,152.84235626459122L435.18518518518516,145.7504205405712L440.1709401709402,145.54777592420578L445.15669515669515,126.20790153741837L450.1424501424501,102.4394690990448L455.12820512820514,108.38860496878624L460.1139601139601,145.01485265791416L465.09971509971507,58.6845301091671L470.0854700854701,99.31802228093147L475.07122507122506,93.91353130340576L480.0569800569801,134.855579957366L485.04273504273505,136.77492775022984L490.02849002849,154.41995151340961L495.01424501424503,121.79324254393578L500,168.87867487967014L500,168.87867487967014L495.01424501424503,121.79324254393578L490.02849002849,154.41995151340961L485.04273504273505,136.77492775022984L480.0569800569801,134.855579957366L475.07122507122506,93.91353130340576L470.0854700854701,99.31802228093147L465.09971509971507,58.6845301091671L460.1139601139601,145.01485265791416L455.12820512820514,108.38860496878624L450.1424501424501,102.4394690990448L445.15669515669515,126.20790153741837L440.1709401709402,145.54777592420578L435.18518518518516,145.7504205405712L430.1994301994302,152.84235626459122L425.2136752136752,141.85286909341812L420.2279202279202,156.21513351798058L415.24216524216524,172.02317379415035L410.2564102564102,160.1865090429783L405.27065527065525,160.4421030730009L400.2849002849003,150.75079575181007L395.29914529914527,164.18448314070702L390.3133903133903,193.8602890819311L385.32763532763533,151.32188275456429L380.3418803418803,178.63254100084305L375.35612535612535,172.4122691899538L370.3703703703703,155.12854270637035L365.38461538461536,192.86541119217873L360.3988603988604,146.16406746208668L355.41310541310537,190.3223529458046L350.4273504273504,168.45875643193722L345.44159544159544,168.3996919542551L340.4558404558404,193.07019412517548L335.47008547008545,207.97710344195366L330.4843304843305,184.10491049289703L325.49857549857546,158.28245542943478L320.51282051282055,177.22781039774418L315.52706552706553,208.3516739308834L310.54131054131057,179.94326390326023L305.5555555555556,183.8148295879364L300.5698005698006,204.82836700975895L295.5840455840456,208.01453702151775L290.59829059829065,176.40223763883114L285.6125356125356,179.01543006300926L280.62678062678066,180.19017428159714L275.64102564102564,179.5744303613901L270.65527065527067,164.20267187058926L265.6695156695157,180.38386143743992L260.6837606837607,179.65867221355438L254.27350427350427,191.49194695055485L249.2877492877493,163.3840225636959L244.3019943019943,169.79357451200485L239.31623931623932,168.87867487967014L234.33048433048435,121.79324254393578L229.34472934472936,154.41995151340961L224.35897435897436,136.77492775022984L219.37321937321937,134.855579957366L214.3874643874644,93.91353130340576L209.4017094017094,99.31802228093147L204.41595441595442,58.6845301091671L199.43019943019942,145.01485265791416L189.45868945868946,102.4394690990448L184.47293447293447,126.20790153741837L179.48717948717947,145.54777592420578L174.5014245014245,145.7504205405712L169.51566951566952,152.84235626459122L164.52991452991452,141.85286909341812L159.54415954415956,156.21513351798058L154.55840455840456,172.02317379415035L149.57264957264957,160.1865090429783L144.58689458689457,160.4421030730009L139.6011396011396,150.75079575181007L134.6153846153846,164.18448314070702L129.62962962962962,193.8602890819311L124.64387464387465,151.32188275456429L119.65811965811966,178.63254100084305L114.67236467236468,172.4122691899538L109.68660968660969,155.12854270637035L104.7008547008547,192.86541119217873L99.71509971509971,146.16406746208668L94.72934472934473,190.3223529458046L89.74358974358974,168.45875643193722L84.75783475783476,168.3996919542551L79.77207977207978,193.07019412517548L74.78632478632478,207.97710344195366L69.8005698005698,184.10491049289703L64.81481481481481,158.28245542943478L59.82905982905983,177.22781039774418L54.84330484330484,208.3516739308834L49.857549857549856,179.94326390326023L44.87179487179487,183.8148295879364L39.88603988603989,204.82836700975895L34.9002849002849,208.01453702151775L29.914529914529915,176.40223763883114L24.928774928774928,179.01543006300926L19.943019943019944,180.19017428159714L14.957264957264957,179.5744303613901L9.971509971509972,164.20267187058926L4.985754985754986,180.38386143743992L0,179.65867221355438Z" fill="#36B7B4" opacity="0.3"/></g><g class="mark-area role-mark layer_5_marks" role="graphics-object" aria-roledescription="area mark container"><path aria-label="weekx: Jan 01, 2020; min0: 0.140353307128; min_quit_week: 0.155835524201" role="graphics-symbol" aria-roledescription="area mark" d="M0,227.1908562630415L4.985754985754986,245.89661546051502L9.971509971509972,225.9279064834118L14.957264957264957,240.8019782975316L19.943019943019944,249.41251650452614L24.928774928774928,240.6810199841857L29.914529914529915,239.28375393152237L34.9002849002849,222.65423499047756L39.88603988603989,247.02379517257214L44.87179487179487,262.0238842442632L49.857549857549856,268.43835823237896L54.84330484330484,255.27976397424936L59.82905982905983,227.5064665824175L64.81481481481481,261.20705381035805L69.8005698005698,252.9860021546483L74.78632478632478,244.91495210677385L79.77207977207978,232.8725591301918L84.75783475783476,268.23896020650864L89.74358974358974,252.67577674239874L94.72934472934473,256.13977797329426L99.71509971509971,232.1933176368475L104.7008547008547,219.76371333003044L109.68660968660969,285.19146274775267L114.67236467236468,262.08135802298784L119.65811965811966,242.8361628204584L124.64387464387465,254.43885140120983L129.62962962962962,289.55023866146803L134.6153846153846,276.165621727705L139.6011396011396,304.0451602078974L144.58689458689457,271.84901237487793L149.57264957264957,280.4685993120074L154.55840455840456,267.0784018933773L159.54415954415956,284.09701623022556L164.52991452991452,275.6689716130495L169.51566951566952,265.02832993865013L174.5014245014245,240.79792331904173L179.48717948717947,279.8399994149804L184.47293447293447,235.19174605607986L189.45868945868946,214.12591114640236L199.43019943019942,202.13519632816315L204.41595441595442,240.75738657265902L209.4017094017094,218.26785653829575L214.3874643874644,249.36572778970003L219.37321937321937,232.87777453660965L224.35897435897436,225.78248791396618L229.34472934472936,220.9172047674656L234.33048433048435,226.82288326323032L239.31623931623932,246.45444229245186L244.3019943019943,251.38065442442894L249.2877492877493,281.9746131077409L254.27350427350427,283.6604019626975L260.6837606837607,276.71752255409956L265.6695156695157,264.1829190775752L270.65527065527067,257.3108062148094L275.64102564102564,259.9342077970505L280.62678062678066,254.50592152774334L285.6125356125356,245.82901075482368L290.59829059829065,275.7797859609127L295.5840455840456,259.77776516228914L300.5698005698006,247.02379517257214L305.5555555555556,284.11051109433174L310.54131054131057,271.2641566991806L315.52706552706553,260.93425545841455L320.51282051282055,254.10577598959208L325.49857549857546,252.20785047858953L330.4843304843305,259.99554097652435L335.47008547008545,258.3300270140171L340.4558404558404,234.38275828957558L345.44159544159544,268.23896020650864L350.4273504273504,252.67577674239874L355.41310541310537,218.61001327633858L360.3988603988604,254.8402225598693L365.38461538461536,230.1137525588274L370.3703703703703,228.11284884810448L375.35612535612535,229.0187519043684L380.3418803418803,232.49500282108784L385.32763532763533,234.7936149686575L390.3133903133903,250.58564394712448L395.29914529914527,229.92650642991066L400.2849002849003,244.68911848962307L405.27065527065525,194.5075862109661L410.2564102564102,248.91309570521116L415.24216524216524,227.55503505468369L420.2279202279202,213.68103697896004L425.2136752136752,200.74804164469242L430.1994301994302,210.0346725434065L435.18518518518516,193.5967154800892L440.1709401709402,193.8160102814436L445.15669515669515,203.31257432699203L450.1424501424501,188.85739743709564L455.12820512820514,185.91384813189507L460.1139601139601,176.8568255007267L465.09971509971507,207.22970962524414L470.0854700854701,212.05098778009415L475.07122507122506,207.2730626910925L480.0569800569801,184.40573513507843L485.04273504273505,194.7196837514639L490.02849002849,200.80302506685257L495.01424501424503,181.86617121100426L500,228.64952720701694L500,223.7268876284361L495.01424501424503,181.86617121100426L490.02849002849,184.45571176707745L485.04273504273505,194.7196837514639L480.0569800569801,173.9347506314516L475.07122507122506,207.2730626910925L470.0854700854701,212.05098778009415L465.09971509971507,182.37473852932453L460.1139601139601,176.8568255007267L455.12820512820514,185.91384813189507L450.1424501424501,163.6854339390993L445.15669515669515,203.31257432699203L440.1709401709402,193.8160102814436L435.18518518518516,193.5967154800892L430.1994301994302,210.0346725434065L425.2136752136752,191.96785278618336L420.2279202279202,209.62346382439137L415.24216524216524,212.2275684028864L410.2564102564102,224.81840699911118L405.27065527065525,194.5075862109661L400.2849002849003,244.68911848962307L395.29914529914527,229.92650642991066L390.3133903133903,250.58564394712448L385.32763532763533,234.7936149686575L380.3418803418803,217.81075224280357L375.35612535612535,216.60689301788807L370.3703703703703,220.44418044388294L365.38461538461536,218.9001202583313L360.3988603988604,232.1933176368475L355.41310541310537,217.76190996170044L350.4273504273504,252.67577674239874L345.44159544159544,268.23896020650864L340.4558404558404,232.8725591301918L335.47008547008545,236.83839328587055L330.4843304843305,229.7657024115324L325.49857549857546,230.2939709275961L320.51282051282055,226.67575664818287L315.52706552706553,255.27976397424936L310.54131054131057,231.72172755002975L305.5555555555556,230.64870983362198L300.5698005698006,247.02379517257214L295.5840455840456,222.65423499047756L290.59829059829065,230.60478307306767L285.6125356125356,240.6810199841857L280.62678062678066,249.41251650452614L275.64102564102564,240.8019782975316L270.65527065527067,216.02931283414364L265.6695156695157,245.89661546051502L260.6837606837607,213.643916323781L254.27350427350427,231.78692013025284L249.2877492877493,218.28819662332535L244.3019943019943,218.08070167899132L239.31623931623932,223.7268876284361L234.33048433048435,181.86617121100426L229.34472934472936,184.45571176707745L224.35897435897436,194.7196837514639L219.37321937321937,173.9347506314516L214.3874643874644,207.2730626910925L209.4017094017094,212.05098778009415L204.41595441595442,182.37473852932453L199.43019943019942,176.8568255007267L189.45868945868946,163.6854339390993L184.47293447293447,203.31257432699203L179.48717948717947,193.8160102814436L174.5014245014245,193.5967154800892L169.51566951566952,210.0346725434065L164.52991452991452,191.96785278618336L159.54415954415956,209.62346382439137L154.55840455840456,212.2275684028864L149.57264957264957,224.81840699911118L144.58689458689457,194.5075862109661L139.6011396011396,244.68911848962307L134.6153846153846,229.92650642991066L129.62962962962962,250.58564394712448L124.64387464387465,234.7936149686575L119.65811965811966,217.81075224280357L114.67236467236468,216.60689301788807L109.68660968660969,220.44418044388294L104.7008547008547,218.9001202583313L99.71509971509971,232.1933176368475L94.72934472934473,217.76190996170044L89.74358974358974,252.67577674239874L84.75783475783476,268.23896020650864L79.77207977207978,232.8725591301918L74.78632478632478,236.83839328587055L69.8005698005698,229.7657024115324L64.81481481481481,230.2939709275961L59.82905982905983,226.67575664818287L54.84330484330484,255.27976397424936L49.857549857549856,231.72172755002975L44.87179487179487,230.64870983362198L39.88603988603989,247.02379517257214L34.9002849002849,222.65423499047756L29.914529914529915,230.60478307306767L24.928774928774928,240.6810199841857L19.943019943019944,249.41251650452614L14.957264957264957,240.8019782975316L9.971509971509972,216.02931283414364L4.985754985754986,245.89661546051502L0,213.643916323781Z" fill="#36B7B4" opacity="0.3"/></g><g class="mark-line role-mark layer_6_marks" role="graphics-object" aria-roledescription="line mark container"><path aria-label="weekx: Jan 01, 2020; quit_week: 0.140353307128" role="graphics-symbol" aria-roledescription="line mark" d="M0,227.1908562630415L4.985754985754986,230.0770491361618L9.971509971509972,225.9279064834118L14.957264957264957,215.15485867857933L19.943019943019944,238.14682140946388L24.928774928774928,216.92837066948414L29.914529914529915,239.28375393152237L34.9002849002849,210.30901595950127L39.88603988603989,203.55197452008724L44.87179487179487,262.0238842442632L49.857549857549856,268.43835823237896L54.84330484330484,228.4187976270914L59.82905982905983,227.5064665824175L64.81481481481481,261.20705381035805L69.8005698005698,252.9860021546483L74.78632478632478,244.91495210677385L79.77207977207978,201.60711035132408L84.75783475783476,244.4458393380046L89.74358974358974,198.82905893027782L94.72934472934473,256.13977797329426L99.71509971509971,225.29954127967358L104.7008547008547,219.76371333003044L109.68660968660969,285.19146274775267L114.67236467236468,262.08135802298784L119.65811965811966,242.8361628204584L124.64387464387465,254.43885140120983L129.62962962962962,289.55023866146803L134.6153846153846,276.165621727705L139.6011396011396,304.0451602078974L144.58689458689457,271.84901237487793L149.57264957264957,280.4685993120074L154.55840455840456,267.0784018933773L159.54415954415956,284.09701623022556L164.52991452991452,275.6689716130495L169.51566951566952,265.02832993865013L174.5014245014245,240.79792331904173L179.48717948717947,279.8399994149804L184.47293447293447,235.19174605607986L189.45868945868946,214.12591114640236L199.43019943019942,202.13519632816315L204.41595441595442,240.75738657265902L209.4017094017094,218.26785653829575L214.3874643874644,249.36572778970003L219.37321937321937,232.87777453660965L224.35897435897436,225.78248791396618L229.34472934472936,220.9172047674656L234.33048433048435,226.82288326323032L239.31623931623932,246.45444229245186L244.3019943019943,251.38065442442894L249.2877492877493,281.9746131077409L254.27350427350427,283.6604019626975L260.6837606837607,276.71752255409956L265.6695156695157,264.1829190775752L270.65527065527067,257.3108062148094L275.64102564102564,259.9342077970505L280.62678062678066,254.50592152774334L285.6125356125356,245.82901075482368L290.59829059829065,275.7797859609127L295.5840455840456,259.77776516228914L300.5698005698006,243.28136295080185L305.5555555555556,284.11051109433174L310.54131054131057,271.2641566991806L315.52706552706553,260.93425545841455L320.51282051282055,254.10577598959208L325.49857549857546,252.20785047858953L330.4843304843305,259.99554097652435L335.47008547008545,258.3300270140171L340.4558404558404,234.38275828957558L345.44159544159544,258.21724385023117L350.4273504273504,247.32476323843002L355.41310541310537,218.61001327633858L360.3988603988604,254.8402225598693L365.38461538461536,230.1137525588274L370.3703703703703,228.11284884810448L375.35612535612535,229.0187519043684L380.3418803418803,232.49500282108784L385.32763532763533,215.56696705520153L390.3133903133903,218.28221194446087L395.29914529914527,228.8387943059206L400.2849002849003,190.18501825630665L405.27065527065525,179.65624704957008L410.2564102564102,248.91309570521116L415.24216524216524,227.55503505468369L420.2279202279202,213.68103697896004L425.2136752136752,200.74804164469242L430.1994301994302,168.56464222073555L435.18518518518516,147.9742046445608L440.1709401709402,165.7022837549448L445.15669515669515,127.43425220251083L450.1424501424501,188.85739743709564L455.12820512820514,169.84252110123634L460.1139601139601,172.1136089414358L465.09971509971507,207.22970962524414L470.0854700854701,178.8904558867216L475.07122507122506,144.74979266524315L480.0569800569801,184.40573513507843L485.04273504273505,171.67199440300465L490.02849002849,200.80302506685257L495.01424501424503,142.78448410332203L500,228.64952720701694" stroke="#36B7B4" stroke-width="2"/></g><g class="mark-text role-mark layer_7_marks" role="graphics-object" aria-roledescription="text mark container"><text aria-label="text: 2020/21; x: Oct 05, 2020; y: 0.09" role="graphics-symbol" aria-roledescription="text mark" text-anchor="start" transform="translate(198.005698005698,269.25)" font-family="sans-serif" font-size="11px" font-weight="bold" fill="#36B7B4">2020/21</text></g><g class="mark-text role-mark layer_8_marks" role="graphics-object" aria-roledescription="text mark container"><text aria-label="text: 2014-2019 average; x: Oct 28, 2020; y: 0.267" role="graphics-symbol" aria-roledescription="text mark" text-anchor="start" transform="translate(214.3874643874644,114.375)" font-family="sans-serif" font-size="10px" font-weight="lighter" fill="#676A86">2014-2019 average</text></g><g class="mark-text role-mark layer_9_marks" role="graphics-object" aria-roledescription="text mark container"><text aria-label="text: and min-max range; x: Oct 28, 2020; y: 0.25" role="graphics-symbol" aria-roledescription="text mark" text-anchor="start" transform="translate(214.3874643874644,129.25)" font-family="sans-serif" font-size="10px" font-weight="lighter" fill="#676A86" opacity="0.5">and min-max range</text></g></g><path class="foreground" aria-hidden="true" d="" display="none"/></g></g></g></svg>