<svg xmlns="http://www.w3.org/2000/svg" xmlns:xlink="http://www.w3.org/1999/xlink" version="1.1" class="marks" width="514" height="392" viewBox="0 0 514 392"><rect width="514" height="392" fill="white"/><g fill="none" stroke-miterlimit="10" transform="translate(7,20)"><g class="mark-group role-frame root" role="graphics-object" aria-roledescription="group mark container"><g transform="translate(0,0)"><path class="background" aria-hidden="true" d="M0,0h500v350h-500Z"/><g><g class="mark-group role-axis" aria-hidden="true"><g transform="translate(0.5,0.5)"><path class="background" aria-hidden="true" d="M0,0h0v0h0Z" pointer-events="none"/><g><g class="mark-rule role-axis-grid" pointer-events="none"><line transform="translate(0,350)" x2="500" y2="0" stroke="#ddd" stroke-opacity="0.4" stroke-width="1" opacity="1"/><line transform="translate(0,300)" x2="500" y2="0" stroke="#ddd" stroke-opacity="0.4" stroke-width="1" opacity="1"/><line transform="translate(0,250)" x2="500" y2="0" stroke="#ddd" stroke-opacity="0.4" stroke-width="1" opacity="1"/><line transform="translate(0,200)" x2="500" y2="0" stroke="#ddd" stroke-opacity="0.4" stroke-width="1" opacity="1"/><line transform="translate(0,150)" x2="500" y2="0" stroke="#ddd" stroke-opacity="0.4" stroke-width="1" opacity="1"/><line transform="translate(0,100)" x2="500" y2="0" stroke="#ddd" stroke-opacity="0.4" stroke-width="1" opacity="1"/><line transform="translate(0,50)" x2="500" y2="0" stroke="#ddd" stroke-opacity="0.4" stroke-width="1" opacity="1"/><line transform="translate(0,0)" x2="500" y2="0" stroke="#ddd" stroke-opacity="0.4" stroke-width="1" opacity="1"/></g></g><path class="foreground" aria-hidden="true" d="" pointer-events="none" display="none"/></g></g><g class="mark-group role-axis" role="graphics-symbol" aria-roledescription="axis" aria-label="X-axis for a time scale with values from Wednesday, 01 January 2020, 12:00:00 AM to Friday, 03 December 2021, 12:00:00 AM"><g transform="translate(0.5,350.5)"><path class="background" aria-hidden="true" d="M0,0h0v0h0Z" pointer-events="none"/><g><g class="mark-rule role-axis-tick" pointer-events="none"><line transform="translate(0,0)" x2="0" y2="5" stroke="#676A86" stroke-width="1" opacity="1"/><line transform="translate(65,0)" x2="0" y2="5" stroke="#676A86" stroke-width="1" opacity="1"/><line transform="translate(130,0)" x2="0" y2="5" stroke="#676A86" stroke-width="1" opacity="1"/><line transform="translate(195,0)" x2="0" y2="5" stroke="#676A86" stroke-width="1" opacity="1"/><line transform="translate(261,0)" x2="0" y2="5" stroke="#676A86" stroke-width="1" opacity="1"/><line transform="translate(325,0)" x2="0" y2="5" stroke="#676A86" stroke-width="1" opacity="1"/><line transform="translate(390,0)" x2="0" y2="5" stroke="#676A86" stroke-width="1" opacity="1"/><line transform="translate(455,0)" x2="0" y2="5" stroke="#676A86" stroke-width="1" opacity="1"/></g><g class="mark-text role-axis-label" pointer-events="none"><text text-anchor="start" transform="translate(0,15)" font-family="sans-serif" font-size="10px" fill="#676A86" opacity="1">2020</text><text text-anchor="middle" transform="translate(64.81481481481481,15)" font-family="sans-serif" font-size="10px" fill="#676A86" opacity="1">April</text><text text-anchor="middle" transform="translate(129.62962962962962,15)" font-family="sans-serif" font-size="10px" fill="#676A86" opacity="1">July</text><text text-anchor="middle" transform="translate(195.15669515669515,15)" font-family="sans-serif" font-size="10px" fill="#676A86" opacity="1">October</text><text text-anchor="middle" transform="translate(260.6837606837607,15)" font-family="sans-serif" font-size="10px" fill="#676A86" opacity="1">2021</text><text text-anchor="middle" transform="translate(324.7863247863248,15)" font-family="sans-serif" font-size="10px" fill="#676A86" opacity="1">April</text><text text-anchor="middle" transform="translate(389.6011396011396,15)" font-family="sans-serif" font-size="10px" fill="#676A86" opacity="1">July</text><text text-anchor="middle" transform="translate(455.12820512820514,15)" font-family="sans-serif" font-size="10px" fill="#676A86" opacity="1">October</text></g><g class="mark-rule role-axis-domain" pointer-events="none"><line transform="translate(0,0)" x2="500" y2="0" stroke="#676A86" stroke-width="1" opacity="1"/></g></g><path class="foreground" aria-hidden="true" d="" pointer-events="none" display="none"/></g></g><g class="mark-group role-axis" role="graphics-symbol" aria-roledescription="axis" aria-label="Y-axis titled '%' for a linear scale with values from 0.0 to 1.4"><g transform="translate(0.5,0.5)"><path class="background" aria-hidden="true" d="M0,0h0v0h0Z" pointer-events="none"/><g><g class="mark-text role-axis-label" pointer-events="none"><text text-anchor="start" transform="translate(5,343)" font-family="sans-serif" font-size="10px" fill="#676A86" opacity="1">0.0</text><text text-anchor="start" transform="translate(5,293)" font-family="sans-serif" font-size="10px" fill="#676A86" opacity="1">0.2</text><text text-anchor="start" transform="translate(5,242.99999999999997)" font-family="sans-serif" font-size="10px" fill="#676A86" opacity="1">0.4</text><text text-anchor="start" transform="translate(5,193)" font-family="sans-serif" font-size="10px" fill="#676A86" opacity="1">0.6</text><text text-anchor="start" transform="translate(5,142.99999999999997)" font-family="sans-serif" font-size="10px" fill="#676A86" opacity="1">0.8</text><text text-anchor="start" transform="translate(5,93)" font-family="sans-serif" font-size="10px" fill="#676A86" opacity="1">1.0</text><text text-anchor="start" transform="translate(5,42.99999999999998)" font-family="sans-serif" font-size="10px" fill="#676A86" opacity="1">1.2</text><text text-anchor="start" transform="translate(5,-7)" font-family="sans-serif" font-size="10px" fill="#676A86" opacity="1">1.4</text></g><g class="mark-rule role-axis-domain" pointer-events="none"><line transform="translate(0,350)" x2="0" y2="-350" stroke="#676A86" stroke-width="1" opacity="1"/></g><g class="mark-text role-axis-title" pointer-events="none"><text text-anchor="start" transform="translate(21,-7)" font-family="sans-serif" font-size="10px" font-weight="normal" fill="#676A86" opacity="1">%</text></g></g><path class="foreground" aria-hidden="true" d="" pointer-events="none" display="none"/></g></g><g class="mark-rule role-mark layer_0_marks" role="graphics-object" aria-roledescription="rule mark container"><line aria-label="x: Jan 29, 2020" role="graphics-symbol" aria-roledescription="rule mark" transform="translate(19.943019943019944,0)" x2="0" y2="350" stroke="#676A86" stroke-width="1" stroke-dasharray="0,1,1" opacity="0.3"/><line aria-label="x: Mar 18, 2020" role="graphics-symbol" aria-roledescription="rule mark" transform="translate(54.84330484330484,0)" x2="0" y2="350" stroke="#676A86" stroke-width="1" stroke-dasharray="0,1,1" opacity="0.3"/></g><g class="mark-text role-mark layer_1_marks" role="graphics-object" aria-roledescription="text mark container"><text aria-label="text: ➡ First COVID-related death in the UK; x: Jan 29, 2020; y: 1.3" role="graphics-symbol" aria-roledescription="text mark" text-anchor="start" transform="translate(19.943019943019944,22.99999999999995)" font-family="sans-serif" font-size="10px" font-weight="lighter" fill="#676A86">➡ First COVID-related death in the UK</text><text aria-label="text: ➡ Start of first UK lockdown; x: Mar 18, 2020; y: 1.22" role="graphics-symbol" aria-roledescription="text mark" text-anchor="start" transform="translate(54.84330484330484,42.99999999999999)" font-family="sans-serif" font-size="10px" font-weight="lighter" fill="#676A86">➡ Start of first UK lockdown</text></g><g class="mark-area role-mark layer_2_marks" role="graphics-object" aria-roledescription="area mark container"><path aria-label="weekx: Jan 01, 2020; max_hired_week: 0.5; min_hired_week: 0.437460899353" role="graphics-symbol" aria-roledescription="area mark" d="M0,218.758887052536L4.985754985754986,194.64143216609952L9.971509971509972,172.01084494590756L14.957264957264957,173.6044496297836L19.943019943019944,136.90995275974274L24.928774928774928,168.55534017086026L29.914529914529915,138.55831921100616L34.9002849002849,138.06360065937042L39.88603988603989,159.28745865821836L44.87179487179487,205.41315376758575L49.857549857549856,190.3339833021164L54.84330484330484,173.1876939535141L59.82905982905983,108.43687355518341L64.81481481481481,216.1794066429138L69.8005698005698,193.50836277008057L74.78632478632478,183.13985168933868L79.77207977207978,154.16654050350186L84.75783475783476,181.36381208896634L89.74358974358974,174.6434777975082L94.72934472934473,165.76140224933624L99.71509971509971,146.56587541103363L104.7008547008547,130.76083958148953L109.68660968660969,144.71030831336975L114.67236467236468,200.45915842056274L119.65811965811966,158.95426869392392L124.64387464387465,125.07460117340086L129.62962962962962,192.52201020717618L134.6153846153846,170.2422708272934L139.6011396011396,151.10318958759308L144.58689458689457,108.82260501384735L149.57264957264957,77.27340459823606L154.55840455840456,126.68730914592741L159.54415954415956,124.52108263969421L164.52991452991452,105.4955780506134L169.51566951566952,93.04914474487302L174.5014245014245,152.3587465286255L179.48717948717947,104.49398159980773L184.47293447293447,86.24286055564878L189.45868945868946,68.1311547756195L199.43019943019942,94.33517456054685L204.41595441595442,81.91642761230469L209.4017094017094,83.85989665985107L214.3874643874644,67.66477823257445L219.37321937321937,154.65878546237943L224.35897435897436,128.65344285964966L229.34472934472936,109.58697497844696L234.33048433048435,111.4266127347946L239.31623931623932,205.216845870018L244.3019943019943,181.37349784374237L249.2877492877493,165.0957077741623L254.27350427350427,177.58624851703644L260.6837606837607,218.758887052536L265.6695156695157,194.64143216609952L270.65527065527067,172.01084494590756L275.64102564102564,173.6044496297836L280.62678062678066,136.90995275974274L285.6125356125356,168.55534017086026L290.59829059829065,138.55831921100616L295.5840455840456,138.06360065937042L300.5698005698006,159.28745865821836L305.5555555555556,205.41315376758575L310.54131054131057,190.3339833021164L315.52706552706553,173.1876939535141L320.51282051282055,108.43687355518341L325.49857549857546,216.1794066429138L330.4843304843305,193.50836277008057L335.47008547008545,183.13985168933868L340.4558404558404,154.16654050350186L345.44159544159544,181.36381208896634L350.4273504273504,174.6434777975082L355.41310541310537,165.76140224933624L360.3988603988604,146.56587541103363L365.38461538461536,130.76083958148953L370.3703703703703,144.71030831336975L375.35612535612535,200.45915842056274L380.3418803418803,158.95426869392392L385.32763532763533,125.07460117340086L390.3133903133903,192.52201020717618L395.29914529914527,170.2422708272934L400.2849002849003,151.10318958759308L405.27065527065525,108.82260501384735L410.2564102564102,77.27340459823606L415.24216524216524,126.68730914592741L420.2279202279202,124.52108263969421L425.2136752136752,105.4955780506134L430.1994301994302,93.04914474487302L435.18518518518516,152.3587465286255L440.1709401709402,104.49398159980773L445.15669515669515,86.24286055564878L450.1424501424501,68.1311547756195L455.12820512820514,133.98258984088895L460.1139601139601,94.33517456054685L465.09971509971507,81.91642761230469L470.0854700854701,83.85989665985107L475.07122507122506,67.66477823257445L480.0569800569801,154.65878546237943L485.04273504273505,128.65344285964966L490.02849002849,109.58697497844696L495.01424501424503,111.4266127347946L500,205.216845870018L500,227.66863405704495L495.01424501424503,261.02536767721176L490.02849002849,180.39888739585874L485.04273504273505,190.46395123004913L480.0569800569801,254.9864560365677L475.07122507122506,249.72615987062454L470.0854700854701,182.01226592063904L465.09971509971507,167.0567899942398L460.1139601139601,149.32212829589844L455.12820512820514,177.9357701539993L450.1424501424501,117.28790998458861L445.15669515669515,133.20705890655515L440.1709401709402,183.80421996116638L435.18518518518516,213.42455446720123L430.1994301994302,240.83133637905118L425.2136752136752,219.72209811210632L420.2279202279202,223.44419956207275L415.24216524216524,239.41858708858487L410.2564102564102,223.05414676666257L405.27065527065525,169.25386190414426L400.2849002849003,189.2478823661804L395.29914529914527,204.34521734714505L390.3133903133903,215.24528264999387L385.32763532763533,240.43931663036346L380.3418803418803,192.7731990814209L375.35612535612535,234.75413620471952L370.3703703703703,240.5362784862518L365.38461538461536,250.58811008930203L360.3988603988604,236.78248971700665L355.41310541310537,215.90903997421262L350.4273504273504,229.99384850263596L345.44159544159544,260.02796590328217L340.4558404558404,219.826003909111L335.47008547008545,241.5654346346855L330.4843304843305,261.158449947834L325.49857549857546,264.4262671470642L320.51282051282055,206.86257481575012L315.52706552706553,222.39323556423184L310.54131054131057,238.4513825178146L305.5555555555556,257.6529070734978L300.5698005698006,247.16725051403043L295.5840455840456,171.1434185504913L290.59829059829065,209.6730828285217L285.6125356125356,227.58368998765945L280.62678062678066,220.03245949745178L275.64102564102564,236.43132150173187L270.65527065527067,232.22014158964157L265.6695156695157,251.05123817920682L260.6837606837607,240.63477516174316L254.27350427350427,227.43686884641644L249.2877492877493,230.33951818943024L244.3019943019943,280.3526058793068L239.31623931623932,227.66863405704495L234.33048433048435,261.02536767721176L229.34472934472936,180.39888739585874L224.35897435897436,190.46395123004913L219.37321937321937,254.9864560365677L214.3874643874644,249.72615987062454L209.4017094017094,182.01226592063904L204.41595441595442,167.0567899942398L199.43019943019942,149.32212829589844L189.45868945868946,117.28790998458861L184.47293447293447,133.20705890655515L179.48717948717947,183.80421996116638L174.5014245014245,213.42455446720123L169.51566951566952,240.83133637905118L164.52991452991452,219.72209811210632L159.54415954415956,223.44419956207275L154.55840455840456,239.41858708858487L149.57264957264957,223.05414676666257L144.58689458689457,169.25386190414426L139.6011396011396,189.2478823661804L134.6153846153846,204.34521734714505L129.62962962962962,215.24528264999387L124.64387464387465,240.43931663036346L119.65811965811966,192.7731990814209L114.67236467236468,234.75413620471952L109.68660968660969,240.5362784862518L104.7008547008547,250.58811008930203L99.71509971509971,236.78248971700665L94.72934472934473,215.90903997421262L89.74358974358974,229.99384850263596L84.75783475783476,260.02796590328217L79.77207977207978,219.826003909111L74.78632478632478,241.5654346346855L69.8005698005698,261.158449947834L64.81481481481481,264.4262671470642L59.82905982905983,206.86257481575012L54.84330484330484,222.39323556423184L49.857549857549856,238.4513825178146L44.87179487179487,257.6529070734978L39.88603988603989,247.16725051403043L34.9002849002849,171.1434185504913L29.914529914529915,209.6730828285217L24.928774928774928,227.58368998765945L19.943019943019944,220.03245949745178L14.957264957264957,236.43132150173187L9.971509971509972,232.22014158964157L4.985754985754986,251.05123817920682L0,240.63477516174316Z" fill="#676A86" opacity="0.15"/></g><g class="mark-line role-mark layer_3_marks" role="graphics-object" aria-roledescription="line mark container"><path aria-label="weekx: Jan 01, 2020; m_hired_week: 0.45080062747" role="graphics-symbol" aria-roledescription="line mark" d="M0,237.29984313249588L4.985754985754986,232.38716870546338L9.971509971509972,186.35243773460388L14.957264957264957,222.22586572170258L19.943019943019944,196.63765132427213L24.928774928774928,199.12343323230743L29.914529914529915,174.87849891185758L34.9002849002849,163.95949423313138L39.88603988603989,244.67910677194592L44.87179487179487,233.5460990667343L49.857549857549856,201.41043365001678L54.84330484330484,186.72234416007996L59.82905982905983,195.9183722734451L64.81481481481481,233.11404734849927L69.8005698005698,203.2212674617767L74.78632478632478,216.4802461862564L79.77207977207978,212.2823804616928L84.75783475783476,242.1332508325577L89.74358974358974,208.9929938316345L94.72934472934473,194.1484123468399L99.71509971509971,175.3921717405319L104.7008547008547,170.31817734241486L109.68660968660969,186.4663869142532L114.67236467236468,206.31756484508514L119.65811965811966,167.08034873008728L124.64387464387465,176.6601264476776L129.62962962962962,210.26182770729065L134.6153846153846,188.49041163921356L139.6011396011396,170.34917175769806L144.58689458689457,147.88871109485626L149.57264957264957,186.97915077209473L154.55840455840456,188.7956917285919L159.54415954415956,177.06619799137115L164.52991452991452,139.1007661819458L169.51566951566952,159.24254655838013L174.5014245014245,184.64698493480682L179.48717948717947,148.50538074970245L184.47293447293447,130.7985246181488L189.45868945868946,106.62547349929807L199.43019943019942,141.70164465904236L204.41595441595442,102.88042426109311L209.4017094017094,96.24776840209958L214.3874643874644,178.64029705524445L219.37321937321937,201.6990393400192L224.35897435897436,153.73862385749817L229.34472934472936,123.3691930770874L234.33048433048435,164.10510838031766L239.31623931623932,214.02554810047147L244.3019943019943,195.66861391067505L249.2877492877493,214.45578932762146L254.27350427350427,181.17572963237762L260.6837606837607,237.29984313249588L265.6695156695157,232.38716870546338L270.65527065527067,186.35243773460388L275.64102564102564,222.22586572170258L280.62678062678066,196.63765132427213L285.6125356125356,199.12343323230743L290.59829059829065,174.87849891185758L295.5840455840456,163.95949423313138L300.5698005698006,244.67910677194592L305.5555555555556,233.5460990667343L310.54131054131057,201.41043365001678L315.52706552706553,186.72234416007996L320.51282051282055,195.9183722734451L325.49857549857546,233.11404734849927L330.4843304843305,203.2212674617767L335.47008547008545,216.4802461862564L340.4558404558404,212.2823804616928L345.44159544159544,242.1332508325577L350.4273504273504,208.9929938316345L355.41310541310537,194.1484123468399L360.3988603988604,175.3921717405319L365.38461538461536,170.31817734241486L370.3703703703703,186.4663869142532L375.35612535612535,206.31756484508514L380.3418803418803,167.08034873008728L385.32763532763533,176.6601264476776L390.3133903133903,210.26182770729065L395.29914529914527,188.49041163921356L400.2849002849003,170.34917175769806L405.27065527065525,147.88871109485626L410.2564102564102,186.97915077209473L415.24216524216524,188.7956917285919L420.2279202279202,177.06619799137115L425.2136752136752,139.1007661819458L430.1994301994302,159.24254655838013L435.18518518518516,184.64698493480682L440.1709401709402,148.50538074970245L445.15669515669515,130.7985246181488L450.1424501424501,106.62547349929807L455.12820512820514,166.48376584053037L460.1139601139601,141.70164465904236L465.09971509971507,102.88042426109311L470.0854700854701,96.24776840209958L475.07122507122506,178.64029705524445L480.0569800569801,201.6990393400192L485.04273504273505,153.73862385749817L490.02849002849,123.3691930770874L495.01424501424503,164.10510838031766L500,214.02554810047147" stroke="#676A86" stroke-width="1" stroke-dasharray="0,2,2" opacity="0.8"/></g><g class="mark-area role-mark layer_4_marks" role="graphics-object" aria-roledescription="area mark container"><path aria-label="weekx: Jan 01, 2020; max0: 0.52496445179; max_hired_week: 0.52496445179" role="graphics-symbol" aria-roledescription="area mark" d="M0,218.758887052536L4.985754985754986,194.64143216609952L9.971509971509972,172.01084494590756L14.957264957264957,173.6044496297836L19.943019943019944,136.90995275974274L24.928774928774928,168.55534017086026L29.914529914529915,138.55831921100616L34.9002849002849,138.06360065937042L39.88603988603989,159.28745865821836L44.87179487179487,205.41315376758575L49.857549857549856,190.3339833021164L54.84330484330484,173.1876939535141L59.82905982905983,108.43687355518341L64.81481481481481,216.1794066429138L69.8005698005698,193.50836277008057L74.78632478632478,183.13985168933868L79.77207977207978,154.16654050350186L84.75783475783476,181.36381208896634L89.74358974358974,174.6434777975082L94.72934472934473,165.76140224933624L99.71509971509971,146.56587541103363L104.7008547008547,130.76083958148953L109.68660968660969,144.71030831336975L114.67236467236468,200.45915842056274L119.65811965811966,158.95426869392392L124.64387464387465,125.07460117340086L129.62962962962962,192.52201020717618L134.6153846153846,170.2422708272934L139.6011396011396,151.10318958759308L144.58689458689457,108.82260501384735L149.57264957264957,77.27340459823606L154.55840455840456,126.68730914592741L159.54415954415956,124.52108263969421L164.52991452991452,105.4955780506134L169.51566951566952,93.04914474487302L174.5014245014245,152.3587465286255L179.48717948717947,104.49398159980773L184.47293447293447,86.24286055564878L189.45868945868946,68.1311547756195L199.43019943019942,94.33517456054685L204.41595441595442,81.91642761230469L209.4017094017094,83.85989665985107L214.3874643874644,67.66477823257445L219.37321937321937,154.65878546237943L224.35897435897436,128.65344285964966L229.34472934472936,109.58697497844696L234.33048433048435,111.4266127347946L239.31623931623932,205.216845870018L244.3019943019943,181.37349784374237L249.2877492877493,165.0957077741623L254.27350427350427,177.58624851703644L260.6837606837607,218.758887052536L265.6695156695157,194.64143216609952L270.65527065527067,172.01084494590756L275.64102564102564,173.6044496297836L280.62678062678066,136.90995275974274L285.6125356125356,168.55534017086026L290.59829059829065,138.55831921100616L295.5840455840456,138.06360065937042L300.5698005698006,159.28745865821836L305.5555555555556,205.41315376758575L310.54131054131057,190.3339833021164L315.52706552706553,173.1876939535141L320.51282051282055,108.43687355518341L325.49857549857546,216.1794066429138L330.4843304843305,193.50836277008057L335.47008547008545,183.13985168933868L340.4558404558404,154.16654050350186L345.44159544159544,181.36381208896634L350.4273504273504,174.6434777975082L355.41310541310537,165.76140224933624L360.3988603988604,146.56587541103363L365.38461538461536,130.76083958148953L370.3703703703703,144.71030831336975L375.35612535612535,200.45915842056274L380.3418803418803,158.95426869392392L385.32763532763533,125.07460117340086L390.3133903133903,192.52201020717618L395.29914529914527,170.2422708272934L400.2849002849003,151.10318958759308L405.27065527065525,108.82260501384735L410.2564102564102,77.27340459823606L415.24216524216524,126.68730914592741L420.2279202279202,124.52108263969421L425.2136752136752,105.4955780506134L430.1994301994302,93.04914474487302L435.18518518518516,152.3587465286255L440.1709401709402,104.49398159980773L445.15669515669515,86.24286055564878L450.1424501424501,68.1311547756195L455.12820512820514,133.98258984088895L460.1139601139601,94.33517456054685L465.09971509971507,81.91642761230469L470.0854700854701,83.85989665985107L475.07122507122506,67.66477823257445L480.0569800569801,154.65878546237943L485.04273504273505,128.65344285964966L490.02849002849,109.58697497844696L495.01424501424503,111.4266127347946L500,205.216845870018L500,205.216845870018L495.01424501424503,111.4266127347946L490.02849002849,109.58697497844696L485.04273504273505,128.65344285964966L480.0569800569801,154.65878546237943L475.07122507122506,67.66477823257445L470.0854700854701,83.85989665985107L465.09971509971507,81.91642761230469L460.1139601139601,94.33517456054685L455.12820512820514,133.98258984088895L450.1424501424501,68.1311547756195L445.15669515669515,86.24286055564878L440.1709401709402,104.49398159980773L435.18518518518516,152.3587465286255L430.1994301994302,93.04914474487302L425.2136752136752,105.4955780506134L420.2279202279202,124.52108263969421L415.24216524216524,126.68730914592741L410.2564102564102,77.27340459823606L405.27065527065525,108.82260501384735L400.2849002849003,151.10318958759308L395.29914529914527,170.2422708272934L390.3133903133903,192.52201020717618L385.32763532763533,125.07460117340086L380.3418803418803,158.95426869392392L375.35612535612535,200.45915842056274L370.3703703703703,144.71030831336975L365.38461538461536,130.76083958148953L360.3988603988604,146.56587541103363L355.41310541310537,165.76140224933624L350.4273504273504,174.6434777975082L345.44159544159544,181.36381208896634L340.4558404558404,154.16654050350186L335.47008547008545,183.13985168933868L330.4843304843305,193.50836277008057L325.49857549857546,216.1794066429138L320.51282051282055,108.43687355518341L315.52706552706553,173.1876939535141L310.54131054131057,190.3339833021164L305.5555555555556,205.41315376758575L300.5698005698006,159.28745865821836L295.5840455840456,138.06360065937042L290.59829059829065,138.55831921100616L285.6125356125356,168.55534017086026L280.62678062678066,136.90995275974274L275.64102564102564,173.6044496297836L270.65527065527067,172.01084494590756L265.6695156695157,194.64143216609952L260.6837606837607,218.758887052536L254.27350427350427,177.58624851703644L249.2877492877493,165.0957077741623L244.3019943019943,181.37349784374237L239.31623931623932,205.216845870018L234.33048433048435,111.4266127347946L229.34472934472936,109.58697497844696L224.35897435897436,128.65344285964966L219.37321937321937,154.65878546237943L214.3874643874644,67.66477823257445L209.4017094017094,83.85989665985107L204.41595441595442,81.91642761230469L199.43019943019942,94.33517456054685L189.45868945868946,68.1311547756195L184.47293447293447,86.24286055564878L179.48717948717947,104.49398159980773L174.5014245014245,152.3587465286255L169.51566951566952,93.04914474487302L164.52991452991452,105.4955780506134L159.54415954415956,124.52108263969421L154.55840455840456,126.68730914592741L149.57264957264957,77.27340459823606L144.58689458689457,108.82260501384735L139.6011396011396,151.10318958759308L134.6153846153846,170.2422708272934L129.62962962962962,192.52201020717618L124.64387464387465,125.07460117340086L119.65811965811966,158.95426869392392L114.67236467236468,200.45915842056274L109.68660968660969,144.71030831336975L104.7008547008547,130.76083958148953L99.71509971509971,146.56587541103363L94.72934472934473,165.76140224933624L89.74358974358974,174.6434777975082L84.75783475783476,181.36381208896634L79.77207977207978,154.16654050350186L74.78632478632478,183.13985168933868L69.8005698005698,193.50836277008057L64.81481481481481,216.1794066429138L59.82905982905983,108.43687355518341L54.84330484330484,173.1876939535141L49.857549857549856,190.3339833021164L44.87179487179487,205.41315376758575L39.88603988603989,159.28745865821836L34.9002849002849,138.06360065937042L29.914529914529915,138.55831921100616L24.928774928774928,168.55534017086026L19.943019943019944,136.90995275974274L14.957264957264957,173.6044496297836L9.971509971509972,172.01084494590756L4.985754985754986,194.64143216609952L0,218.758887052536Z" fill="#36B7B4" opacity="0.3"/></g><g class="mark-area role-mark layer_5_marks" role="graphics-object" aria-roledescription="area mark container"><path aria-label="weekx: Jan 01, 2020; min0: 0.285888820887; min_hired_week: 0.437460899353" role="graphics-symbol" aria-roledescription="area mark" d="M0,278.527794778347L4.985754985754986,251.05123817920682L9.971509971509972,254.00800853967664L14.957264957264957,236.43132150173187L19.943019943019944,253.65554392337802L24.928774928774928,243.92728358507154L29.914529914529915,229.9091205000877L34.9002849002849,200.8699536323547L39.88603988603989,249.36190098524094L44.87179487179487,280.28438091278076L49.857549857549856,306.02328702807426L54.84330484330484,261.10231727361673L59.82905982905983,273.7336739897728L64.81481481481481,292.8950361907482L69.8005698005698,285.40243804454803L74.78632478632478,262.40866482257843L79.77207977207978,242.75845140218735L84.75783475783476,302.5740556418896L89.74358974358974,277.9748722910881L94.72934472934473,279.62244153022766L99.71509971509971,300.32166317105293L104.7008547008547,304.83478531241417L109.68660968660969,282.46715515851974L114.67236467236468,295.934496819973L119.65811965811966,287.2083693742752L124.64387464387465,293.12190636992455L129.62962962962962,272.96313494443893L134.6153846153846,253.45080196857452L139.6011396011396,283.8323622941971L144.58689458689457,249.41711723804474L149.57264957264957,264.99826312065125L154.55840455840456,239.41858708858487L159.54415954415956,258.2760512828827L164.52991452991452,257.6167941093445L169.51566951566952,240.83133637905118L174.5014245014245,248.65721762180328L179.48717948717947,228.3759996294975L184.47293447293447,148.07960987091064L189.45868945868946,142.93462634086606L199.43019943019942,180.2531838417053L204.41595441595442,238.75985145568848L209.4017094017094,182.0123553276062L214.3874643874644,249.7261598706245L219.37321937321937,254.9864560365677L224.35897435897436,208.58874022960663L229.34472934472936,190.95115959644318L234.33048433048435,261.02536767721176L239.31623931623932,232.04041868448257L244.3019943019943,280.3526058793068L249.2877492877493,265.49837589263916L254.27350427350427,257.033808529377L260.6837606837607,291.5518119931221L265.6695156695157,266.2969961762428L270.65527065527067,236.23952120542526L275.64102564102564,238.8983130455017L280.62678062678066,229.20167297124863L285.6125356125356,248.58295023441315L290.59829059829065,271.51594161987305L295.5840455840456,257.49241411685944L300.5698005698006,247.16725051403043L305.5555555555556,262.97324001789093L310.54131054131057,240.815943479538L315.52706552706553,234.42830741405484L320.51282051282055,249.18861538171768L325.49857549857546,264.4262671470642L330.4843304843305,261.158449947834L335.47008547008545,241.5654346346855L340.4558404558404,219.826003909111L345.44159544159544,260.02796590328217L350.4273504273504,253.99982780218124L355.41310541310537,235.88229566812515L360.3988603988604,236.78248971700665L365.38461538461536,250.58811008930203L370.3703703703703,240.5362784862518L375.35612535612535,234.75413620471952L380.3418803418803,192.7731990814209L385.32763532763533,240.43931663036346L390.3133903133903,226.04808807373044L395.29914529914527,204.34521734714505L400.2849002849003,189.2478823661804L405.27065527065525,169.25386190414426L410.2564102564102,223.05414676666257L415.24216524216524,239.41858708858487L420.2279202279202,223.44419956207275L425.2136752136752,219.72209811210632L430.1994301994302,240.83133637905118L435.18518518518516,213.42455446720123L440.1709401709402,183.80421996116638L445.15669515669515,139.91605341434476L450.1424501424501,137.65687346458432L455.12820512820514,207.19004273414612L460.1139601139601,216.08892679214475L465.09971509971507,177.65384018421173L470.0854700854701,182.01226592063904L475.07122507122506,249.7261598706245L480.0569800569801,254.9864560365677L485.04273504273505,208.93326997756958L490.02849002849,193.76233816146848L495.01424501424503,261.02536767721176L500,247.91102707386017L500,227.66863405704495L495.01424501424503,261.02536767721176L490.02849002849,180.39888739585874L485.04273504273505,190.46395123004913L480.0569800569801,254.9864560365677L475.07122507122506,249.7261598706245L470.0854700854701,182.01226592063904L465.09971509971507,167.0567899942398L460.1139601139601,149.32212829589844L455.12820512820514,177.9357701539993L450.1424501424501,117.28790998458861L445.15669515669515,133.20705890655515L440.1709401709402,183.80421996116638L435.18518518518516,213.42455446720123L430.1994301994302,240.83133637905118L425.2136752136752,219.72209811210632L420.2279202279202,223.44419956207275L415.24216524216524,239.41858708858487L410.2564102564102,223.05414676666257L405.27065527065525,169.25386190414426L400.2849002849003,189.2478823661804L395.29914529914527,204.34521734714505L390.3133903133903,215.24528264999387L385.32763532763533,240.43931663036346L380.3418803418803,192.7731990814209L375.35612535612535,234.75413620471952L370.3703703703703,240.5362784862518L365.38461538461536,250.58811008930203L360.3988603988604,236.78248971700665L355.41310541310537,215.90903997421262L350.4273504273504,229.99384850263596L345.44159544159544,260.02796590328217L340.4558404558404,219.826003909111L335.47008547008545,241.5654346346855L330.4843304843305,261.158449947834L325.49857549857546,264.4262671470642L320.51282051282055,206.86257481575012L315.52706552706553,222.39323556423184L310.54131054131057,238.4513825178146L305.5555555555556,257.6529070734978L300.5698005698006,247.16725051403043L295.5840455840456,171.1434185504913L290.59829059829065,209.6730828285217L285.6125356125356,227.58368998765945L280.62678062678066,220.03245949745178L275.64102564102564,236.43132150173187L270.65527065527067,232.22014158964157L265.6695156695157,251.05123817920682L260.6837606837607,240.63477516174316L254.27350427350427,227.43686884641644L249.2877492877493,230.33951818943024L244.3019943019943,280.3526058793068L239.31623931623932,227.66863405704495L234.33048433048435,261.02536767721176L229.34472934472936,180.39888739585874L224.35897435897436,190.46395123004913L219.37321937321937,254.9864560365677L214.3874643874644,249.7261598706245L209.4017094017094,182.01226592063904L204.41595441595442,167.0567899942398L199.43019943019942,149.32212829589844L189.45868945868946,117.28790998458861L184.47293447293447,133.20705890655515L179.48717948717947,183.80421996116638L174.5014245014245,213.42455446720123L169.51566951566952,240.83133637905118L164.52991452991452,219.72209811210632L159.54415954415956,223.44419956207275L154.55840455840456,239.41858708858487L149.57264957264957,223.05414676666257L144.58689458689457,169.25386190414426L139.6011396011396,189.2478823661804L134.6153846153846,204.34521734714505L129.62962962962962,215.24528264999387L124.64387464387465,240.43931663036346L119.65811965811966,192.7731990814209L114.67236467236468,234.75413620471952L109.68660968660969,240.5362784862518L104.7008547008547,250.58811008930203L99.71509971509971,236.78248971700665L94.72934472934473,215.90903997421262L89.74358974358974,229.99384850263596L84.75783475783476,260.02796590328217L79.77207977207978,219.826003909111L74.78632478632478,241.5654346346855L69.8005698005698,261.158449947834L64.81481481481481,264.4262671470642L59.82905982905983,206.86257481575012L54.84330484330484,222.39323556423184L49.857549857549856,238.4513825178146L44.87179487179487,257.6529070734978L39.88603988603989,247.16725051403043L34.9002849002849,171.1434185504913L29.914529914529915,209.6730828285217L24.928774928774928,227.58368998765945L19.943019943019944,220.03245949745178L14.957264957264957,236.43132150173187L9.971509971509972,232.22014158964157L4.985754985754986,251.05123817920682L0,240.63477516174316Z" fill="#36B7B4" opacity="0.3"/></g><g class="mark-line role-mark layer_6_marks" role="graphics-object" aria-roledescription="line mark container"><path aria-label="weekx: Jan 01, 2020; hired_week: 0.285888820887" role="graphics-symbol" aria-roledescription="line mark" d="M0,278.527794778347L4.985754985754986,245.55467665195465L9.971509971509972,254.00800853967664L14.957264957264957,213.53372037410733L19.943019943019944,253.65554392337802L24.928774928774928,243.92728358507154L29.914529914529915,229.9091205000877L34.9002849002849,200.8699536323547L39.88603988603989,249.36190098524094L44.87179487179487,280.28438091278076L49.857549857549856,306.02328702807426L54.84330484330484,261.10231727361673L59.82905982905983,273.7336739897728L64.81481481481481,292.8950361907482L69.8005698005698,285.40243804454803L74.78632478632478,262.40866482257843L79.77207977207978,242.75845140218735L84.75783475783476,302.5740556418896L89.74358974358974,277.9748722910881L94.72934472934473,279.62244153022766L99.71509971509971,300.32166317105293L104.7008547008547,304.83478531241417L109.68660968660969,282.46715515851974L114.67236467236468,295.934496819973L119.65811965811966,287.2083693742752L124.64387464387465,293.12190636992455L129.62962962962962,272.96313494443893L134.6153846153846,253.45080196857452L139.6011396011396,283.8323622941971L144.58689458689457,249.41711723804474L149.57264957264957,264.99826312065125L154.55840455840456,234.88701730966565L159.54415954415956,258.2760512828827L164.52991452991452,257.6167941093445L169.51566951566952,224.09213185310364L174.5014245014245,248.65721762180328L179.48717948717947,228.3759996294975L184.47293447293447,148.07960987091064L189.45868945868946,142.93462634086606L199.43019943019942,180.2531838417053L204.41595441595442,238.75985145568848L209.4017094017094,182.0123553276062L214.3874643874644,222.4890053272247L219.37321937321937,216.40694737434387L224.35897435897436,208.58874022960663L229.34472934472936,190.95115959644318L234.33048433048435,168.06814670562744L239.31623931623932,232.04041868448257L244.3019943019943,235.9342858195305L249.2877492877493,265.49837589263916L254.27350427350427,257.033808529377L260.6837606837607,291.5518119931221L265.6695156695157,266.2969961762428L270.65527065527067,236.23952120542526L275.64102564102564,238.8983130455017L280.62678062678066,229.20167297124863L285.6125356125356,248.58295023441315L290.59829059829065,271.51594161987305L295.5840455840456,257.49241411685944L300.5698005698006,221.421217918396L305.5555555555556,262.97324001789093L310.54131054131057,240.815943479538L315.52706552706553,234.42830741405484L320.51282051282055,249.18861538171768L325.49857549857546,242.8458318114281L330.4843304843305,245.9123864769936L335.47008547008545,220.42613327503204L340.4558404558404,213.49640786647797L345.44159544159544,251.98417007923123L350.4273504273504,253.99982780218124L355.41310541310537,235.88229566812515L360.3988603988604,229.28995490074155L365.38461538461536,194.45750713348386L370.3703703703703,218.4510141611099L375.35612535612535,221.24373018741605L380.3418803418803,180.7395875453949L385.32763532763533,132.2141498327255L390.3133903133903,226.04808807373044L395.29914529914527,197.00973331928253L400.2849002849003,155.3915649652481L405.27065527065525,143.22373867034912L410.2564102564102,220.86814641952512L415.24216524216524,222.3977506160736L420.2279202279202,170.95898687839505L425.2136752136752,176.0474056005478L430.1994301994302,139.34335708618164L435.18518518518516,194.72888708114624L440.1709401709402,162.45261430740356L445.15669515669515,139.91605341434476L450.1424501424501,137.65687346458432L455.12820512820514,207.19004273414612L460.1139601139601,216.08892679214475L465.09971509971507,177.65384018421173L470.0854700854701,121.87931537628171L475.07122507122506,92.65888333320616L480.0569800569801,233.76725465059278L485.04273504273505,208.93326997756958L490.02849002849,193.76233816146848L495.01424501424503,149.73550140857697L500,247.91102707386017" stroke="#36B7B4" stroke-width="2"/></g><g class="mark-text role-mark layer_7_marks" role="graphics-object" aria-roledescription="text mark container"><text aria-label="text: 2020/21; x: Aug 15, 2020; y: 0.29" role="graphics-symbol" aria-roledescription="text mark" text-anchor="start" transform="translate(161.68091168091166,275.5)" font-family="sans-serif" font-size="11px" font-weight="bold" fill="#36B7B4">2020/21</text></g><g class="mark-text role-mark layer_8_marks" role="graphics-object" aria-roledescription="text mark container"><text aria-label="text: 2014-2019 average; x: Nov 05, 2020; y: 1.07" role="graphics-symbol" aria-roledescription="text mark" text-anchor="start" transform="translate(220.0854700854701,80.49999999999999)" font-family="sans-serif" font-size="10px" font-weight="lighter" fill="#676A86">2014-2019 average</text></g><g class="mark-text role-mark layer_9_marks" role="graphics-object" aria-roledescription="text mark container"><text aria-label="text: and min-max range; x: Nov 05, 2020; y: 1.02" role="graphics-symbol" aria-roledescription="text mark" text-anchor="start" transform="translate(220.0854700854701,92.99999999999997)" font-family="sans-serif" font-size="10px" font-weight="lighter" fill="#676A86" opacity="0.5">and min-max range</text></g></g><path class="foreground" aria-hidden="true" d="" display="none"/></g></g></g></svg>