<svg xmlns="http://www.w3.org/2000/svg" xmlns:xlink="http://www.w3.org/1999/xlink" version="1.1" class="marks" width="590" height="393" viewBox="0 0 590 393"><rect width="590" height="393" fill="white"/><g fill="none" stroke-miterlimit="10" transform="translate(30,21)"><g class="mark-group role-frame root" role="graphics-object" aria-roledescription="group mark container"><g transform="translate(0,0)"><path class="background" aria-hidden="true" d="M0,0h500v350h-500Z"/><g><g class="mark-group role-axis" aria-hidden="true"><g transform="translate(0.5,0.5)"><path class="background" aria-hidden="true" d="M0,0h0v0h0Z" pointer-events="none"/><g><g class="mark-rule role-axis-grid" pointer-events="none"><line transform="translate(0,350)" x2="500" y2="0" stroke="#ddd" stroke-opacity="0.4" stroke-width="1" opacity="1"/><line transform="translate(0,306)" x2="500" y2="0" stroke="#ddd" stroke-opacity="0.4" stroke-width="1" opacity="1"/><line transform="translate(0,263)" x2="500" y2="0" stroke="#ddd" stroke-opacity="0.4" stroke-width="1" opacity="1"/><line transform="translate(0,219)" x2="500" y2="0" stroke="#ddd" stroke-opacity="0.4" stroke-width="1" opacity="1"/><line transform="translate(0,175)" x2="500" y2="0" stroke="#ddd" stroke-opacity="0.4" stroke-width="1" opacity="1"/><line transform="translate(0,131)" x2="500" y2="0" stroke="#ddd" stroke-opacity="0.4" stroke-width="1" opacity="1"/><line transform="translate(0,88)" x2="500" y2="0" stroke="#ddd" stroke-opacity="0.4" stroke-width="1" opacity="1"/><line transform="translate(0,44)" x2="500" y2="0" stroke="#ddd" stroke-opacity="0.4" stroke-width="1" opacity="1"/><line transform="translate(0,0)" x2="500" y2="0" stroke="#ddd" stroke-opacity="0.4" stroke-width="1" opacity="1"/></g></g><path class="foreground" aria-hidden="true" d="" pointer-events="none" display="none"/></g></g><g class="mark-group role-axis" role="graphics-symbol" aria-roledescription="axis" aria-label="X-axis for a time scale with values from Friday, 01 April 2016, 12:00:00 AM to Friday, 24 September 2021, 12:00:00 AM"><g transform="translate(0.5,350.5)"><path class="background" aria-hidden="true" d="M0,0h0v0h0Z" pointer-events="none"/><g><g class="mark-rule role-axis-tick" pointer-events="none"><line transform="translate(69,0)" x2="0" y2="5" stroke="#676A86" stroke-width="1" opacity="1"/><line transform="translate(160,0)" x2="0" y2="5" stroke="#676A86" stroke-width="1" opacity="1"/><line transform="translate(251,0)" x2="0" y2="5" stroke="#676A86" stroke-width="1" opacity="1"/><line transform="translate(342,0)" x2="0" y2="5" stroke="#676A86" stroke-width="1" opacity="1"/><line transform="translate(434,0)" x2="0" y2="5" stroke="#676A86" stroke-width="1" opacity="1"/></g><g class="mark-text role-axis-label" pointer-events="none"><text text-anchor="middle" transform="translate(68.68131868131869,15)" font-family="sans-serif" font-size="10px" fill="#676A86" opacity="1">2017</text><text text-anchor="middle" transform="translate(159.84015984015983,15)" font-family="sans-serif" font-size="10px" fill="#676A86" opacity="1">2018</text><text text-anchor="middle" transform="translate(250.99900099900103,15)" font-family="sans-serif" font-size="10px" fill="#676A86" opacity="1">2019</text><text text-anchor="middle" transform="translate(342.1578421578422,15)" font-family="sans-serif" font-size="10px" fill="#676A86" opacity="1">2020</text><text text-anchor="middle" transform="translate(433.56643356643355,15)" font-family="sans-serif" font-size="10px" fill="#676A86" opacity="1">2021</text></g><g class="mark-rule role-axis-domain" pointer-events="none"><line transform="translate(0,0)" x2="500" y2="0" stroke="#676A86" stroke-width="1" opacity="1"/></g></g><path class="foreground" aria-hidden="true" d="" pointer-events="none" display="none"/></g></g><g class="mark-group role-axis" role="graphics-symbol" aria-roledescription="axis" aria-label="Y-axis titled '% with job tenure less than 3 months having been in a different job last quarter' for a linear scale with values from 0 to 4"><g transform="translate(0.5,0.5)"><path class="background" aria-hidden="true" d="M0,0h0v0h0Z" pointer-events="none"/><g><g class="mark-rule role-axis-tick" pointer-events="none"><line transform="translate(0,350)" x2="-5" y2="0" stroke="#676A86" stroke-width="1" opacity="1"/><line transform="translate(0,306)" x2="-5" y2="0" stroke="#676A86" stroke-width="1" opacity="1"/><line transform="translate(0,263)" x2="-5" y2="0" stroke="#676A86" stroke-width="1" opacity="1"/><line transform="translate(0,219)" x2="-5" y2="0" stroke="#676A86" stroke-width="1" opacity="1"/><line transform="translate(0,175)" x2="-5" y2="0" stroke="#676A86" stroke-width="1" opacity="1"/><line transform="translate(0,131)" x2="-5" y2="0" stroke="#676A86" stroke-width="1" opacity="1"/><line transform="translate(0,88)" x2="-5" y2="0" stroke="#676A86" stroke-width="1" opacity="1"/><line transform="translate(0,44)" x2="-5" y2="0" stroke="#676A86" stroke-width="1" opacity="1"/><line transform="translate(0,0)" x2="-5" y2="0" stroke="#676A86" stroke-width="1" opacity="1"/></g><g class="mark-text role-axis-label" pointer-events="none"><text text-anchor="end" transform="translate(-7,353)" font-family="sans-serif" font-size="10px" fill="#676A86" opacity="1">0.0</text><text text-anchor="end" transform="translate(-7,309.25)" font-family="sans-serif" font-size="10px" fill="#676A86" opacity="1">0.5</text><text text-anchor="end" transform="translate(-7,265.5)" font-family="sans-serif" font-size="10px" fill="#676A86" opacity="1">1.0</text><text text-anchor="end" transform="translate(-7,221.75)" font-family="sans-serif" font-size="10px" fill="#676A86" opacity="1">1.5</text><text text-anchor="end" transform="translate(-7,178)" font-family="sans-serif" font-size="10px" fill="#676A86" opacity="1">2.0</text><text text-anchor="end" transform="translate(-7,134.25)" font-family="sans-serif" font-size="10px" fill="#676A86" opacity="1">2.5</text><text text-anchor="end" transform="translate(-7,90.5)" font-family="sans-serif" font-size="10px" fill="#676A86" opacity="1">3.0</text><text text-anchor="end" transform="translate(-7,46.75)" font-family="sans-serif" font-size="10px" fill="#676A86" opacity="1">3.5</text><text text-anchor="end" transform="translate(-7,3)" font-family="sans-serif" font-size="10px" fill="#676A86" opacity="1">4.0</text></g><g class="mark-rule role-axis-domain" pointer-events="none"><line transform="translate(0,350)" x2="0" y2="-350" stroke="#676A86" stroke-width="1" opacity="1"/></g><g class="mark-text role-axis-title" pointer-events="none"><text text-anchor="start" transform="translate(-5,-7)" font-family="sans-serif" font-size="11px" font-weight="bold" fill="#676A86" opacity="1">% with job tenure less than 3 months having been in a different job last quarter</text></g></g><path class="foreground" aria-hidden="true" d="" pointer-events="none" display="none"/></g></g><g class="mark-area role-mark layer_0_marks" role="graphics-object" aria-roledescription="area mark container"><path aria-label="tooltip: undefined | undefined | undefined £/year/head; date: Apr 01, 2016; jtj: 2.05595" role="graphics-symbol" aria-roledescription="area mark" d="M0,170.10448575019836C0.5827505827505828,197.83059284090996,1.1655011655011656,225.55669993162155,1.7482517482517483,225.55669993162155C2.331002331002331,225.55669993162155,2.913752913752914,163.23786079883575,3.4965034965034967,163.23786079883575C4.0792540792540795,163.23786079883575,4.662004662004662,228.48982363939285,5.244755244755245,228.48982363939285C5.827505827505828,228.48982363939285,6.410256410256411,119.19909417629242,6.993006993006993,119.19909417629242C7.575757575757576,119.19909417629242,8.158508158508159,135.59106265505156,8.741258741258742,148.65235090255737C9.324009324009324,161.7136391500632,9.906759906759907,197.56682366132736,10.48951048951049,197.56682366132736C11.072261072261073,197.56682366132736,11.655011655011656,168.7859684228897,12.237762237762238,162.11462914943695C12.820512820512821,155.4432898759842,13.403263403263404,152.1076202392578,13.986013986013987,152.1076202392578C14.56876456876457,152.1076202392578,15.151515151515152,176.03793889284134,15.734265734265735,176.03793889284134C16.317016317016318,176.03793889284134,16.899766899766902,152.177345007658,17.482517482517483,144.01956796646118C18.065268065268068,135.86179092526436,18.64801864801865,127.0912766456604,19.230769230769234,127.0912766456604C19.813519813519815,127.0912766456604,20.3962703962704,178.72737447420755,20.97902097902098,192.1733945608139C21.56177156177156,205.61941464742026,22.144522144522146,212.34242469072342,22.727272727272727,212.34242469072342C23.31002331002331,212.34242469072342,23.892773892773892,176.08662992715836,24.475524475524477,176.08662992715836C25.058275058275058,176.08662992715836,25.641025641025642,182.31378346681595,26.223776223776223,182.31378346681595C26.806526806526808,182.31378346681595,27.38927738927739,78.47350835800171,27.972027972027973,78.47350835800171C28.554778554778554,78.47350835800171,29.13752913752914,216.66239798069,29.72027972027972,216.66239798069C30.303030303030305,216.66239798069,30.885780885780886,135.6984704732895,31.46853146853147,135.6984704732895C32.05128205128205,135.6984704732895,32.634032634032636,150.507053732872,33.21678321678321,154.9807459115982C33.7995337995338,159.45443809032443,34.38228438228438,162.54062354564667,34.96503496503497,162.54062354564667C35.54778554778555,162.54062354564667,36.13053613053613,92.6598310470581,36.71328671328671,92.6598310470581C37.2960372960373,92.6598310470581,37.87878787878788,177.60132998228073,38.46153846153847,177.60132998228073C39.044289044289044,177.60132998228073,39.62703962703963,136.92846496899918,40.20979020979021,130.83168268203735C40.79254079254079,124.73490039507548,41.375291375291376,121.68650925159454,41.95804195804196,121.68650925159454C42.540792540792545,121.68650925159454,43.12354312354312,144.29919719696045,43.70629370629371,144.29919719696045C44.28904428904429,144.29919719696045,44.87179487179487,104.52396273612976,45.45454545454545,104.52396273612976C46.03729603729604,104.52396273612976,46.620046620046615,119.23220505317055,47.2027972027972,127.44158506393433C47.785547785547784,135.65096507469815,48.36829836829837,153.78024280071259,48.95104895104895,153.78024280071259C49.53379953379953,153.78024280071259,50.116550116550115,118.37539374828339,50.69930069930069,118.37539374828339C51.28205128205128,118.37539374828339,51.86480186480186,178.8705825805664,52.44755244755245,178.8705825805664C53.03030303030303,178.8705825805664,53.61305361305361,108.01978707313538,54.19580419580419,108.01978707313538C54.77855477855478,108.01978707313538,55.36130536130536,197.27414548397064,55.94405594405595,197.27414548397064C56.52680652680653,197.27414548397064,57.10955710955711,36.25018298625946,57.69230769230769,36.25018298625946C58.27505827505828,36.25018298625946,58.857808857808855,235.85985004901886,59.44055944055944,235.85985004901886C60.023310023310025,235.85985004901886,60.60606060606061,234.16214833656946,61.188811188811194,230.76674491167068C61.77156177156178,227.3713414867719,62.354312354312356,137.3703420162201,62.93706293706294,137.3703420162201C63.519813519813525,137.3703420162201,64.10256410256412,162.21943969527865,64.6853146853147,180.23457825183868C65.26806526806527,198.2497168083985,65.85081585081585,245.46117335557938,66.43356643356643,245.46117335557938C67.5990675990676,245.46117335557938,68.76456876456876,175.19405484199524,69.93006993006993,175.19405484199524C70.51282051282051,175.19405484199524,71.0955710955711,246.71593755483627,71.67832167832168,246.71593755483627C72.26107226107226,246.71593755483627,72.84382284382285,167.7429497241974,73.42657342657343,167.7429497241974C74.009324009324,167.7429497241974,74.5920745920746,188.38511109352112,75.17482517482517,188.38511109352112C75.75757575757576,188.38511109352112,76.34032634032634,158.66968631744385,76.92307692307693,158.66968631744385C77.50582750582751,158.66968631744385,78.08857808857809,216.31353944540024,78.67132867132867,216.31353944540024C79.25407925407924,216.31353944540024,79.83682983682984,182.47128874063492,80.41958041958041,182.47128874063492C81.00233100233099,182.47128874063492,81.58508158508158,213.9776527881623,82.16783216783216,220.69905996322632C82.75058275058275,227.4204671382904,83.33333333333333,230.78117072582245,83.91608391608392,230.78117072582245C84.4988344988345,230.78117072582245,85.08158508158509,157.34884639581045,85.66433566433567,150.27269423007965C86.24708624708624,143.19654206434885,86.82983682983684,146.1491192380587,87.41258741258741,139.65846598148346C87.995337995338,133.1678127249082,88.57808857808858,111.32877469062805,89.16083916083917,111.32877469062805C89.74358974358975,111.32877469062805,90.32634032634033,197.81717360019684,90.9090909090909,197.81717360019684C91.49184149184148,197.81717360019684,92.07459207459208,168.64442229270935,92.65734265734265,168.64442229270935C93.24009324009323,168.64442229270935,93.82284382284382,177.66700237989426,94.4055944055944,177.66700237989426C94.98834498834499,177.66700237989426,95.57109557109557,171.6076284646988,96.15384615384616,171.6076284646988C96.73659673659674,171.6076284646988,97.31934731934733,185.575769841671,97.9020979020979,185.575769841671C98.48484848484848,185.575769841671,99.06759906759908,160.44766008853912,99.65034965034965,160.44766008853912C100.23310023310023,160.44766008853912,100.81585081585081,191.803976893425,101.39860139860139,191.803976893425C101.98135198135198,191.803976893425,102.56410256410255,103.97398769855499,103.14685314685315,103.97398769855499C103.72960372960372,103.97398769855499,104.31235431235432,234.79608446359634,104.8951048951049,234.79608446359634C105.47785547785547,234.79608446359634,106.06060606060606,166.284242272377,106.64335664335664,166.284242272377C107.22610722610722,166.284242272377,107.80885780885781,201.79658085107803,108.39160839160839,201.79658085107803C108.97435897435898,201.79658085107803,109.55710955710956,115.87996780872345,110.13986013986015,115.87996780872345C110.72261072261072,115.87996780872345,111.30536130536132,119.52747702598572,111.8881118881119,126.82249546051025C112.47086247086247,134.11751389503473,113.05361305361305,191.5554940700531,113.63636363636363,191.5554940700531C114.21911421911422,191.5554940700531,114.8018648018648,156.55101786057162,115.38461538461539,139.17101323604584C115.96736596736596,121.7910086115202,116.55011655011656,87.27546632289886,117.13286713286713,87.27546632289886C117.71561771561771,87.27546632289886,118.2983682983683,105.27471353610356,118.88111888111888,126.91971063613892C119.46386946386946,148.56470773617426,120.04662004662005,217.14544892311096,120.62937062937063,217.14544892311096C121.21212121212122,217.14544892311096,121.7948717948718,171.36749029159546,122.37762237762239,171.36749029159546C122.96037296037296,171.36749029159546,123.54312354312356,208.6588978767395,124.12587412587413,208.6588978767395C124.70862470862471,208.6588978767395,125.2913752913753,108.23388993740082,125.87412587412588,108.23388993740082C126.45687645687646,108.23388993740082,127.03962703962705,148.81553575396538,127.62237762237763,160.56872010231018C128.2051282051282,172.32190445065507,128.7878787878788,176.85711234807965,129.3706293706294,178.75299602746964C129.95337995337997,180.6488797068596,130.53613053613054,181.59682154655457,131.11888111888112,181.59682154655457C131.7016317016317,181.59682154655457,132.28438228438227,143.541419506073,132.86713286713285,143.541419506073C133.44988344988343,143.541419506073,134.03263403263404,145.81078886985776,134.6153846153846,147.94756174087524C135.1981351981352,150.0843346118927,135.78088578088577,156.36205673217773,136.36363636363635,156.36205673217773C136.94638694638692,156.36205673217773,137.52913752913753,92.01848208904266,138.1118881118881,92.01848208904266C138.69463869463868,92.01848208904266,139.2773892773893,102.99486815929413,139.86013986013987,102.99486815929413C140.44289044289044,102.99486815929413,141.02564102564105,62.31202781200409,141.60839160839163,62.31202781200409C142.1911421911422,62.31202781200409,142.77389277389278,75.52454893787703,143.35664335664336,94.68367993831635C143.93939393939394,113.84281093875566,144.52214452214452,177.26681381464005,145.1048951048951,177.26681381464005C145.68764568764567,177.26681381464005,146.27039627039628,153.08531423409784,146.85314685314685,151.18559896945953C147.43589743589743,149.28588370482126,148.018648018648,150.2357413371404,148.60139860139859,148.33602607250214C149.18414918414916,146.43631080786383,149.76689976689977,128.5610407590866,150.34965034965035,128.5610407590866C150.93240093240092,128.5610407590866,151.51515151515153,152.88219153881073,152.0979020979021,152.88219153881073C152.68065268065268,152.88219153881073,153.2634032634033,115.35206437110901,153.84615384615387,115.35206437110901C154.42890442890445,115.35206437110901,155.01165501165502,232.5494334101677,155.5944055944056,232.5494334101677C156.17715617715618,232.5494334101677,156.75990675990676,200.15896409749985,157.34265734265733,200.15896409749985C157.9254079254079,200.15896409749985,158.50815850815852,282.34255611896515,159.0909090909091,282.34255611896515C159.67365967365967,282.34255611896515,160.25641025641025,240.0539199511209,160.83916083916083,231.93091750144958C161.4219114219114,223.80791505177817,162.004662004662,227.83327872554474,162.5874125874126,219.74641382694244C163.17016317016316,211.65954892834029,163.75291375291374,191.8361281355222,164.33566433566432,183.40972810983658C164.91841491841492,174.98332808415068,165.5011655011655,169.18801367282867,166.0839160839161,169.18801367282867C166.66666666666669,169.18801367282867,167.24941724941726,217.49831289052963,167.83216783216784,223.28017503023148C168.41491841491842,229.06203716993332,168.997668997669,226.1711061000824,169.58041958041957,231.95296823978424C170.16317016317015,237.73483037948617,170.74592074592076,297.88932278752327,171.32867132867133,297.88932278752327C171.9114219114219,297.88932278752327,172.4941724941725,169.8578178882599,173.07692307692307,169.8578178882599C173.65967365967364,169.8578178882599,174.24242424242425,224.69265311956406,174.82517482517483,224.69265311956406C175.4079254079254,224.69265311956406,175.99067599067598,220.5801174044609,176.57342657342656,212.3550459742546C177.15617715617716,204.12997454404805,177.73892773892774,153.6772906780243,178.32167832167835,153.6772906780243C178.90442890442893,153.6772906780243,179.4871794871795,178.19756219784418,180.06993006993008,181.93036764860153C180.65268065268066,185.6631730993589,181.23543123543124,184.76511662205064,181.8181818181818,187.52957582473755C182.4009324009324,190.2940350274245,182.983682983683,198.5171228647232,183.56643356643357,198.5171228647232C184.14918414918415,198.5171228647232,184.73193473193473,189.882523814837,185.3146853146853,179.80740517377853C185.89743589743588,169.7322865327199,186.4801864801865,138.06641101837158,187.06293706293707,138.06641101837158C187.64568764568764,138.06641101837158,188.22843822843822,158.46742590268454,188.8111888111888,164.73172008991241C189.39393939393938,170.9960142771404,189.97668997668998,175.39352675278982,190.55944055944056,175.6521761417389C191.14219114219114,175.91082553068796,191.72494172494174,175.78150083621344,192.30769230769232,176.0401502251625C192.8904428904429,176.29879961411157,193.47319347319348,215.26577472686768,194.05594405594405,215.26577472686768C194.63869463869463,215.26577472686768,195.22144522144524,110.11679768562317,195.8041958041958,110.11679768562317C196.3869463869464,110.11679768562317,196.96969696969697,189.6600902080536,197.55244755244755,189.6600902080536C198.13519813519812,189.6600902080536,198.71794871794873,128.38229835033417,199.3006993006993,128.38229835033417C199.88344988344988,128.38229835033417,200.46620046620046,182.00307041406631,201.04895104895104,182.00307041406631C201.63170163170162,182.00307041406631,202.2144522144522,152.88121104240417,202.79720279720277,152.88121104240417C203.37995337995338,152.88121104240417,203.96270396270396,216.3391888141632,204.54545454545456,216.3391888141632C205.12820512820514,216.3391888141632,205.71095571095572,209.32037134965262,206.2937062937063,195.2827364206314C206.87645687645687,181.24510149160997,207.45920745920748,96.90008163452148,208.04195804195805,96.90008163452148C208.62470862470863,96.90008163452148,209.2074592074592,185.46296060085297,209.7902097902098,185.46296060085297C210.37296037296036,185.46296060085297,210.95571095571097,154.10298953453702,211.53846153846155,144.18034851551056C212.12121212121212,134.25770749648427,212.7039627039627,132.1280136704445,213.28671328671328,125.92711448669434C213.86946386946386,119.72621530294418,214.45221445221443,106.97495341300964,215.034965034965,106.97495341300964C215.6177156177156,106.97495341300964,216.2004662004662,183.91264975070953,216.78321678321677,183.91264975070953C217.36596736596735,183.91264975070953,217.94871794871796,172.47240543365479,218.53146853146853,172.47240543365479C219.1142191142191,172.47240543365479,219.69696969696972,174.55228169759116,220.2797202797203,178.71203422546387C220.86247086247087,182.87178675333652,221.44522144522145,202.41884142160416,222.02797202797203,202.41884142160416C222.6107226107226,202.41884142160416,223.1934731934732,9.966850280761719,223.7762237762238,9.966850280761719C224.35897435897436,9.966850280761719,224.94172494172494,120.16027271747589,225.52447552447552,120.16027271747589C226.1072261072261,120.16027271747589,226.68997668997667,119.18227970600128,227.27272727272725,119.18227970600128C227.85547785547783,119.18227970600128,228.43822843822844,122.03430036703746,229.020979020979,127.7383416891098C229.6037296037296,133.44238301118216,230.1864801864802,148.5584944486618,230.76923076923077,158.85952711105347C231.35198135198135,169.16055977344513,231.93473193473196,189.54453766345978,232.51748251748253,189.54453766345978C233.1002331002331,189.54453766345978,233.6829836829837,113.45069408416748,234.26573426573427,113.45069408416748C234.84848484848484,113.45069408416748,235.43123543123545,158.0578774213791,236.01398601398603,158.0578774213791C236.5967365967366,158.0578774213791,237.17948717948718,136.70471012592316,237.76223776223776,136.70471012592316C238.34498834498834,136.70471012592316,238.92773892773891,142.52714812755585,239.5104895104895,142.52714812755585C240.09324009324007,142.52714812755585,240.67599067599068,114.9762213230133,241.25874125874125,114.9762213230133C241.84149184149183,114.9762213230133,242.4242424242424,186.40400767326355,243.00699300699299,186.40400767326355C243.5897435897436,186.40400767326355,244.17249417249417,124.30727183818817,244.75524475524477,124.30727183818817C245.33799533799535,124.30727183818817,245.92074592074593,267.7752688527107,246.5034965034965,267.7752688527107C247.08624708624708,267.7752688527107,247.6689976689977,261.934197942416,248.25174825174827,252.84396708011627C248.83449883449885,243.75373621781668,249.41724941724942,213.23388367891312,250,213.23388367891312C250.58275058275058,213.23388367891312,251.16550116550118,230.65360188484192,251.74825174825176,230.65360188484192C252.33100233100234,230.65360188484192,252.91375291375292,201.16247087717056,253.4965034965035,201.16247087717056C254.07925407925407,201.16247087717056,254.66200466200468,212.34308183193207,255.24475524475525,212.34308183193207C255.82750582750583,212.34308183193207,256.4102564102564,154.69423234462738,256.993006993007,154.69423234462738C257.57575757575756,154.69423234462738,258.1585081585082,258.1578195095062,258.7412587412588,258.1578195095062C259.32400932400935,258.1578195095062,259.9067599067599,160.1561814546585,260.48951048951045,160.1561814546585C261.072261072261,160.1561814546585,261.65501165501166,178.25538540879884,262.23776223776224,187.82163858413696C262.8205128205128,197.38789175947508,263.40326340326345,217.55370050668716,263.98601398601403,217.55370050668716C264.5687645687646,217.55370050668716,265.1515151515151,193.97003948688507,265.7342657342657,193.97003948688507C266.3170163170163,193.97003948688507,266.8997668997669,213.7260302901268,267.4825174825175,213.7260302901268C268.06526806526807,213.7260302901268,268.64801864801865,168.97867942849777,269.2307692307692,151.15578770637512C269.8135198135198,133.3328959842519,270.39627039627044,106.78867995738983,270.979020979021,106.78867995738983C271.5617715617716,106.78867995738983,272.1445221445221,121.64355516433798,272.7272727272727,136.64629757404327C273.31002331002327,151.64903998374956,273.8927738927739,196.80513441562653,274.4755244755245,196.80513441562653C275.05827505827506,196.80513441562653,275.64102564102564,194.94386365016302,276.2237762237762,192.81876981258392C276.8065268065268,190.69367597500482,277.38927738927737,188.50398759047178,277.97202797202794,184.05457139015198C278.5547785547785,179.60515518983203,279.13752913752916,166.12227261066437,279.72027972027973,166.12227261066437C280.3030303030303,166.12227261066437,280.8857808857809,238.644877076149,281.46853146853147,238.644877076149C282.05128205128204,238.644877076149,282.6340326340327,152.09466516971588,283.21678321678326,152.09466516971588C283.79953379953383,152.09466516971588,284.38228438228435,208.10233056545258,284.96503496503493,208.10233056545258C285.5477855477855,208.10233056545258,286.13053613053614,181.36624495188403,286.7132867132867,178.68528962135315C287.2960372960373,176.00433429082236,287.8787878787879,177.34481195608774,288.46153846153845,174.66385662555695C289.04428904428903,171.98290129502615,289.6270396270396,133.47462117671967,290.2097902097902,133.47462117671967C290.79254079254076,133.47462117671967,291.3752913752914,168.24654936790466,291.958041958042,178.1975343823433C292.54079254079255,188.1485193967816,293.12354312354313,193.18053126335144,293.7062937062937,193.18053126335144C294.2890442890443,193.18053126335144,294.8717948717949,69.70951855182648,295.4545454545455,69.70951855182648C296.0372960372961,69.70951855182648,296.6200466200466,162.68022259076537,297.20279720279717,177.98002064228058C297.78554778554775,193.27981869379678,298.3682983682984,190.95447063446022,298.95104895104896,200.9297177195549C299.53379953379954,210.90496480464927,300.1165501165501,237.8315031528473,300.6993006993007,237.8315031528473C301.28205128205127,237.8315031528473,301.86480186480185,127.34105288982391,302.4475524475524,127.34105288982391C303.030303030303,127.34105288982391,303.61305361305364,254.56406027078629,304.1958041958042,254.56406027078629C304.7785547785548,254.56406027078629,305.36130536130537,239.23331573605458,305.94405594405595,214.12027329206467C306.5268065268065,189.00723084807393,307.10955710955716,103.88580560684204,307.69230769230774,103.88580560684204C308.2750582750583,103.88580560684204,308.85780885780883,168.8307687640193,309.4405594405594,191.0892367362976C310.02331002331,213.34770470857737,310.6060606060606,237.4366134405136,311.1888111888112,237.4366134405136C311.7715617715618,237.4366134405136,312.35431235431236,226.1566107471784,312.93706293706293,209.25739705562592C313.5198135198135,192.35818336407343,314.1025641025641,136.04133129119873,314.68531468531467,136.04133129119873C315.26806526806524,136.04133129119873,315.8508158508159,150.80406069755554,316.43356643356645,150.80406069755554C317.01631701631703,150.80406069755554,317.5990675990676,57.31285214424133,318.1818181818182,57.31285214424133C318.76456876456876,57.31285214424133,319.3473193473194,96.21422092119835,319.93006993007,109.80606377124786C320.51282051282055,123.3979066212965,321.0955710955711,124.88532836238616,321.67832167832165,138.86390924453735C322.26107226107223,152.84249012668946,322.84382284382286,193.6775490641594,323.42657342657344,193.6775490641594C324.009324009324,193.6775490641594,324.5920745920746,63.796645402908325,325.1748251748252,63.796645402908325C325.75757575757575,63.796645402908325,326.3403263403263,139.7865355014801,326.9230769230769,139.7865355014801C327.5058275058275,139.7865355014801,328.08857808857806,95.30458450317383,328.67132867132864,95.30458450317383C329.2540792540792,95.30458450317383,329.83682983682985,96.49718105792999,330.4195804195804,98.88237416744232C331.002331002331,101.26756727695465,331.58508158508164,147.56405899922015,332.1678321678322,166.68858230113983C332.7505827505828,185.8131056030583,333.3333333333333,213.62951397895813,333.9160839160839,213.62951397895813C334.49883449883447,213.62951397895813,335.0815850815851,161.12867395083148,335.6643356643357,135.74205040931702C336.24708624708626,110.35542686780337,336.82983682983684,61.30977272987366,337.4125874125874,61.30977272987366C337.995337995338,61.30977272987366,338.57808857808857,231.27940893173218,339.16083916083915,231.27940893173218C339.7435897435897,231.27940893173218,340.3263403263403,206.8588837981224,340.9090909090909,206.8588837981224C341.49184149184146,206.8588837981224,342.0745920745921,239.78489190340042,342.65734265734267,239.78489190340042C343.24009324009324,239.78489190340042,343.8228438228439,203.94371151924133,344.40559440559446,203.94371151924133C344.98834498834503,203.94371151924133,345.57109557109555,205.4812341928482,346.15384615384613,205.4812341928482C346.7365967365967,205.4812341928482,347.31934731934734,179.13435697555542,347.9020979020979,179.13435697555542C348.4848484848485,179.13435697555542,349.0675990675991,222.83073216676712,349.65034965034965,222.83073216676712C350.23310023310023,222.83073216676712,350.8158508158508,205.34765720367432,351.3986013986014,205.34765720367432C351.98135198135196,205.34765720367432,352.56410256410254,251.56233310699463,353.1468531468531,251.56233310699463C353.7296037296037,251.56233310699463,354.31235431235433,201.90275957187018,354.8951048951049,194.7961911559105C355.4778554778555,187.6896227399508,356.0606060606061,184.13633853197098,356.6433566433567,184.13633853197098C357.2261072261073,184.13633853197098,357.8088578088578,210.3734314441681,358.3916083916084,210.3734314441681C358.97435897435895,210.3734314441681,359.5571095571096,200.8315846323967,360.13986013986016,200.8315846323967C360.72261072261074,200.8315846323967,361.3053613053613,218.83575171232224,361.8881118881119,218.83575171232224C362.47086247086247,218.83575171232224,363.05361305361305,178.43454331159592,363.6363636363636,178.43454331159592C364.2191142191142,178.43454331159592,364.8018648018648,256.5219447016716,365.38461538461536,256.5219447016716C365.96736596736594,256.5219447016716,366.55011655011657,216.43946195642164,367.13286713286715,202.07459330558777C367.7156177156177,187.70972465475435,368.2983682983683,180.93770196040472,368.8811188811189,170.332732796669C369.46386946386946,159.7277636329333,370.04662004662003,138.44477832317352,370.6293706293706,138.44477832317352C371.2121212121212,138.44477832317352,371.7948717948718,190.93050062656403,372.3776223776224,190.93050062656403C372.960372960373,190.93050062656403,373.54312354312356,161.8412584066391,374.12587412587413,161.8412584066391C374.7086247086247,161.8412584066391,375.2913752913753,167.36432686448097,375.87412587412587,176.9106537103653C376.45687645687644,186.45698055624962,377.039627039627,214.17375554641103,377.6223776223776,219.11921948194504C378.2051282051282,224.0646834174792,378.7878787878788,223.4691066046555,379.3706293706294,226.53741538524628C379.95337995337997,229.60572416583693,380.53613053613054,230.20130097866058,381.1188811188811,237.5290721654892C381.7016317016317,244.8568433523178,382.2843822843823,278.27893048524857,382.86713286713285,278.27893048524857C383.44988344988343,278.27893048524857,384.03263403263406,263.0258433520794,384.61538461538464,263.0258433520794C385.1981351981352,263.0258433520794,385.7808857808858,277.9728330671787,386.3636363636364,277.9728330671787C386.94638694638695,277.9728330671787,387.52913752913753,268.63323884705704,388.1118881118881,259.51799750328064C388.6946386946387,250.40275615950426,389.27738927738926,223.28138500452042,389.86013986013984,223.28138500452042C390.4428904428904,223.28138500452042,391.02564102564105,260.04694402217865,391.6083916083916,260.04694402217865C392.1911421911422,260.04694402217865,392.7738927738927,233.4453985095024,393.3566433566433,233.4453985095024C393.9393939393939,233.4453985095024,394.5221445221445,270.5272875726223,395.1048951048951,270.5272875726223C395.68764568764567,270.5272875726223,396.2703962703963,195.93214839696884,396.8531468531469,195.93214839696884C397.43589743589746,195.93214839696884,398.01864801864804,284.98546332120895,398.6013986013986,284.98546332120895C399.1841491841492,284.98546332120895,399.76689976689977,258.21151038010913,400.34965034965035,244.6048140525818C400.9324009324009,230.9981177250544,401.5151515151515,203.34528535604477,402.0979020979021,203.34528535604477C402.68065268065266,203.34528535604477,403.2634032634033,237.15143501758575,403.84615384615387,237.15143501758575C404.42890442890445,237.15143501758575,405.01165501165497,111.34690344333649,405.59440559440554,111.34690344333649C406.1771561771561,111.34690344333649,406.75990675990676,197.98187613487244,407.34265734265733,197.98187613487244C407.9254079254079,197.98187613487244,408.50815850815854,154.33217883110046,409.0909090909091,154.33217883110046C409.6736596736597,154.33217883110046,410.2564102564103,158.31526120503744,410.83916083916085,166.28142595291138C411.42191142191143,174.2475907007853,412.004662004662,214.88997340202332,412.5874125874126,214.88997340202332C413.17016317016316,214.88997340202332,413.75291375291374,114.65824842453003,414.3356643356643,114.65824842453003C414.9184149184149,114.65824842453003,415.50116550116553,162.6062124967575,416.0839160839161,162.6062124967575C416.6666666666667,162.6062124967575,417.2494172494172,162.3789389928182,417.8321678321678,161.92439198493958C418.41491841491836,161.46984497706092,418.997668997669,117.91645884513855,419.5804195804196,117.91645884513855C420.16317016317015,117.91645884513855,420.7459207459208,136.70669198036194,421.32867132867136,136.70669198036194C421.91142191142194,136.70669198036194,422.4941724941725,13.370424509048462,423.0769230769231,13.370424509048462C423.6596736596737,13.370424509048462,424.24242424242425,158.65969359874725,424.8251748251748,158.65969359874725C425.4079254079254,158.65969359874725,425.990675990676,140.55705964565277,426.57342657342656,140.55705964565277C427.15617715617714,140.55705964565277,427.73892773892777,247.74011125167192,428.32167832167835,250.77099949121475C428.9044289044289,253.8018877307574,429.48717948717945,253.21907127896955,430.06993006993,255.31733185052872C430.6526806526806,257.415592422088,431.23543123543124,263.3605629205704,431.8181818181818,263.3605629205704C432.4009324009324,263.3605629205704,432.98368298368297,229.44805721441864,433.56643356643355,209.20428335666656C434.1491841491841,188.96050949891384,434.73193473193476,141.89791977405548,435.31468531468533,141.89791977405548C435.8974358974359,141.89791977405548,436.4801864801865,200.5996137857437,437.06293706293707,200.5996137857437C437.64568764568764,200.5996137857437,438.2284382284382,182.88224190473557,438.8111888111888,182.88224190473557C439.3939393939394,182.88224190473557,439.97668997669,195.68384637435238,440.5594405594406,204.4240191578865C441.14219114219117,213.16419194142006,441.7249417249417,225.5565964927279,442.30769230769226,235.32327860593796C442.89044289044284,245.08996071914868,443.4731934731935,263.02411183714867,444.05594405594405,263.02411183714867C444.63869463869463,263.02411183714867,445.2214452214452,181.06519430875778,445.8041958041958,181.06519430875778C446.38694638694636,181.06519430875778,446.969696969697,257.73292034864426,447.5524475524476,257.73292034864426C448.13519813519815,257.73292034864426,448.71794871794873,157.0634663105011,449.3006993006993,157.0634663105011C449.8834498834499,157.0634663105011,450.46620046620046,196.51147574186328,451.04895104895104,197.71919697523117C451.6317016317016,198.9269182085991,452.21445221445225,198.32305759191513,452.79720279720283,199.53077882528305C453.3799533799534,200.73850005865089,453.9627039627039,227.4207279086113,454.5454545454545,227.4207279086113C455.1282051282051,227.4207279086113,455.7109557109557,143.29172670841217,456.2937062937063,143.29172670841217C456.87645687645687,143.29172670841217,457.45920745920745,164.28982913494113,458.041958041958,170.67886888980865C458.6247086247086,177.0679086446764,459.20745920745924,181.6259652376175,459.7902097902098,181.6259652376175C460.3729603729604,181.6259652376175,460.95571095571097,179.25982574621835,461.53846153846155,174.5275467634201C462.1212121212121,169.79526778062186,462.7039627039627,151.44242644309998,463.2867132867133,151.44242644309998C463.86946386946386,151.44242644309998,464.4522144522145,202.32423394918442,465.03496503496507,202.32423394918442C465.61771561771565,202.32423394918442,466.20046620046617,162.42112641533183,466.78321678321674,146.57659828662872C467.3659673659673,130.7320701579246,467.94871794871796,107.2570651769638,468.53146853146853,107.2570651769638C469.1142191142191,107.2570651769638,469.6969696969697,150.63652098178886,470.27972027972027,169.23382580280304C470.86247086247084,187.8311306238178,471.4452214452215,218.84089410305023,472.02797202797206,218.84089410305023C472.61072261072263,218.84089410305023,473.1934731934732,208.10706615447998,473.7762237762238,195.94579190015793C474.35897435897436,183.78451764583588,474.94172494172494,156.0826222101844,475.5244755244755,145.87324857711792C476.1072261072261,135.66387494405112,476.68997668997673,138.59399805466379,477.2727272727273,130.5591881275177C477.8554778554779,122.52437820037213,478.4382284382284,107.4540684620537,479.020979020979,97.66438901424408C479.60372960372956,87.87470956643384,480.1864801864802,82.01016932725928,480.7692307692308,71.82111144065857C481.35198135198135,61.63205355405819,481.93473193473193,36.53004169464111,482.5174825174825,36.53004169464111C483.1002331002331,36.53004169464111,483.6829836829837,90.79956163962629,484.2657342657343,113.30856382846832C484.8484848484849,135.81756601730888,485.4312354312354,171.58405482769012,486.01398601398597,171.58405482769012C486.59673659673655,171.58405482769012,487.1794871794872,156.38910035292307,487.76223776223776,136.3900125026703C488.34498834498834,116.3909246524175,488.927738927739,51.5895277261734,489.51048951048955,51.5895277261734C490.0932400932401,51.5895277261734,490.67599067599065,123.23372562726354,491.2587412587412,125.66363215446472C491.8414918414918,128.09353868166605,492.42424242424244,127.25397646427149,493.006993006993,129.30849194526672C493.5897435897436,131.3630074262619,494.17249417249417,137.9907250404358,494.75524475524475,137.9907250404358C495.3379953379953,137.9907250404358,495.92074592074596,82.4281632900238,496.50349650349654,82.4281632900238C497.0862470862471,82.4281632900238,497.66899766899763,121.50059044361142,498.2517482517482,125.64204037189484C498.8344988344988,129.78349030017853,499.4172494172494,130.81885278224945,500,131.85421526432037L500,350C499.4172494172494,350,498.8344988344988,350,498.2517482517482,350C497.66899766899763,350,497.0862470862471,350,496.50349650349654,350C495.92074592074596,350,495.3379953379953,350,494.75524475524475,350C494.17249417249417,350,493.5897435897436,350,493.006993006993,350C492.42424242424244,350,491.8414918414918,350,491.2587412587412,350C490.67599067599065,350,490.0932400932401,350,489.51048951048955,350C488.927738927739,350,488.34498834498834,350,487.76223776223776,350C487.1794871794872,350,486.59673659673655,350,486.01398601398597,350C485.4312354312354,350,484.8484848484849,350,484.2657342657343,350C483.6829836829837,350,483.1002331002331,350,482.5174825174825,350C481.93473193473193,350,481.35198135198135,350,480.7692307692308,350C480.1864801864802,350,479.60372960372956,350,479.020979020979,350C478.4382284382284,350,477.8554778554779,350,477.2727272727273,350C476.68997668997673,350,476.1072261072261,350,475.5244755244755,350C474.94172494172494,350,474.35897435897436,350,473.7762237762238,350C473.1934731934732,350,472.61072261072263,350,472.02797202797206,350C471.4452214452215,350,470.86247086247084,350,470.27972027972027,350C469.6969696969697,350,469.1142191142191,350,468.53146853146853,350C467.94871794871796,350,467.3659673659673,350,466.78321678321674,350C466.20046620046617,350,465.61771561771565,350,465.03496503496507,350C464.4522144522145,350,463.86946386946386,350,463.2867132867133,350C462.7039627039627,350,462.1212121212121,350,461.53846153846155,350C460.95571095571097,350,460.3729603729604,350,459.7902097902098,350C459.20745920745924,350,458.6247086247086,350,458.041958041958,350C457.45920745920745,350,456.87645687645687,350,456.2937062937063,350C455.7109557109557,350,455.1282051282051,350,454.5454545454545,350C453.9627039627039,350,453.3799533799534,350,452.79720279720283,350C452.21445221445225,350,451.6317016317016,350,451.04895104895104,350C450.46620046620046,350,449.8834498834499,350,449.3006993006993,350C448.71794871794873,350,448.13519813519815,350,447.5524475524476,350C446.969696969697,350,446.38694638694636,350,445.8041958041958,350C445.2214452214452,350,444.63869463869463,350,444.05594405594405,350C443.4731934731935,350,442.89044289044284,350,442.30769230769226,350C441.7249417249417,350,441.14219114219117,350,440.5594405594406,350C439.97668997669,350,439.3939393939394,350,438.8111888111888,350C438.2284382284382,350,437.64568764568764,350,437.06293706293707,350C436.4801864801865,350,435.8974358974359,350,435.31468531468533,350C434.73193473193476,350,434.1491841491841,350,433.56643356643355,350C432.98368298368297,350,432.4009324009324,350,431.8181818181818,350C431.23543123543124,350,430.6526806526806,350,430.06993006993,350C429.48717948717945,350,428.9044289044289,350,428.32167832167835,350C427.73892773892777,350,427.15617715617714,350,426.57342657342656,350C425.990675990676,350,425.4079254079254,350,424.8251748251748,350C424.24242424242425,350,423.6596736596737,350,423.0769230769231,350C422.4941724941725,350,421.91142191142194,350,421.32867132867136,350C420.7459207459208,350,420.16317016317015,350,419.5804195804196,350C418.997668997669,350,418.41491841491836,350,417.8321678321678,350C417.2494172494172,350,416.6666666666667,350,416.0839160839161,350C415.50116550116553,350,414.9184149184149,350,414.3356643356643,350C413.75291375291374,350,413.17016317016316,350,412.5874125874126,350C412.004662004662,350,411.42191142191143,350,410.83916083916085,350C410.2564102564103,350,409.6736596736597,350,409.0909090909091,350C408.50815850815854,350,407.9254079254079,350,407.34265734265733,350C406.75990675990676,350,406.1771561771561,350,405.59440559440554,350C405.01165501165497,350,404.42890442890445,350,403.84615384615387,350C403.2634032634033,350,402.68065268065266,350,402.0979020979021,350C401.5151515151515,350,400.9324009324009,350,400.34965034965035,350C399.76689976689977,350,399.1841491841492,350,398.6013986013986,350C398.01864801864804,350,397.43589743589746,350,396.8531468531469,350C396.2703962703963,350,395.68764568764567,350,395.1048951048951,350C394.5221445221445,350,393.9393939393939,350,393.3566433566433,350C392.7738927738927,350,392.1911421911422,350,391.6083916083916,350C391.02564102564105,350,390.4428904428904,350,389.86013986013984,350C389.27738927738926,350,388.6946386946387,350,388.1118881118881,350C387.52913752913753,350,386.94638694638695,350,386.3636363636364,350C385.7808857808858,350,385.1981351981352,350,384.61538461538464,350C384.03263403263406,350,383.44988344988343,350,382.86713286713285,350C382.2843822843823,350,381.7016317016317,350,381.1188811188811,350C380.53613053613054,350,379.95337995337997,350,379.3706293706294,350C378.7878787878788,350,378.2051282051282,350,377.6223776223776,350C377.039627039627,350,376.45687645687644,350,375.87412587412587,350C375.2913752913753,350,374.7086247086247,350,374.12587412587413,350C373.54312354312356,350,372.960372960373,350,372.3776223776224,350C371.7948717948718,350,371.2121212121212,350,370.6293706293706,350C370.04662004662003,350,369.46386946386946,350,368.8811188811189,350C368.2983682983683,350,367.7156177156177,350,367.13286713286715,350C366.55011655011657,350,365.96736596736594,350,365.38461538461536,350C364.8018648018648,350,364.2191142191142,350,363.6363636363636,350C363.05361305361305,350,362.47086247086247,350,361.8881118881119,350C361.3053613053613,350,360.72261072261074,350,360.13986013986016,350C359.5571095571096,350,358.97435897435895,350,358.3916083916084,350C357.8088578088578,350,357.2261072261073,350,356.6433566433567,350C356.0606060606061,350,355.4778554778555,350,354.8951048951049,350C354.31235431235433,350,353.7296037296037,350,353.1468531468531,350C352.56410256410254,350,351.98135198135196,350,351.3986013986014,350C350.8158508158508,350,350.23310023310023,350,349.65034965034965,350C349.0675990675991,350,348.4848484848485,350,347.9020979020979,350C347.31934731934734,350,346.7365967365967,350,346.15384615384613,350C345.57109557109555,350,344.98834498834503,350,344.40559440559446,350C343.8228438228439,350,343.24009324009324,350,342.65734265734267,350C342.0745920745921,350,341.49184149184146,350,340.9090909090909,350C340.3263403263403,350,339.7435897435897,350,339.16083916083915,350C338.57808857808857,350,337.995337995338,350,337.4125874125874,350C336.82983682983684,350,336.24708624708626,350,335.6643356643357,350C335.0815850815851,350,334.49883449883447,350,333.9160839160839,350C333.3333333333333,350,332.7505827505828,350,332.1678321678322,350C331.58508158508164,350,331.002331002331,350,330.4195804195804,350C329.83682983682985,350,329.2540792540792,350,328.67132867132864,350C328.08857808857806,350,327.5058275058275,350,326.9230769230769,350C326.3403263403263,350,325.75757575757575,350,325.1748251748252,350C324.5920745920746,350,324.009324009324,350,323.42657342657344,350C322.84382284382286,350,322.26107226107223,350,321.67832167832165,350C321.0955710955711,350,320.51282051282055,350,319.93006993007,350C319.3473193473194,350,318.76456876456876,350,318.1818181818182,350C317.5990675990676,350,317.01631701631703,350,316.43356643356645,350C315.8508158508159,350,315.26806526806524,350,314.68531468531467,350C314.1025641025641,350,313.5198135198135,350,312.93706293706293,350C312.35431235431236,350,311.7715617715618,350,311.1888111888112,350C310.6060606060606,350,310.02331002331,350,309.4405594405594,350C308.85780885780883,350,308.2750582750583,350,307.69230769230774,350C307.10955710955716,350,306.5268065268065,350,305.94405594405595,350C305.36130536130537,350,304.7785547785548,350,304.1958041958042,350C303.61305361305364,350,303.030303030303,350,302.4475524475524,350C301.86480186480185,350,301.28205128205127,350,300.6993006993007,350C300.1165501165501,350,299.53379953379954,350,298.95104895104896,350C298.3682983682984,350,297.78554778554775,350,297.20279720279717,350C296.6200466200466,350,296.0372960372961,350,295.4545454545455,350C294.8717948717949,350,294.2890442890443,350,293.7062937062937,350C293.12354312354313,350,292.54079254079255,350,291.958041958042,350C291.3752913752914,350,290.79254079254076,350,290.2097902097902,350C289.6270396270396,350,289.04428904428903,350,288.46153846153845,350C287.8787878787879,350,287.2960372960373,350,286.7132867132867,350C286.13053613053614,350,285.5477855477855,350,284.96503496503493,350C284.38228438228435,350,283.79953379953383,350,283.21678321678326,350C282.6340326340327,350,282.05128205128204,350,281.46853146853147,350C280.8857808857809,350,280.3030303030303,350,279.72027972027973,350C279.13752913752916,350,278.5547785547785,350,277.97202797202794,350C277.38927738927737,350,276.8065268065268,350,276.2237762237762,350C275.64102564102564,350,275.05827505827506,350,274.4755244755245,350C273.8927738927739,350,273.31002331002327,350,272.7272727272727,350C272.1445221445221,350,271.5617715617716,350,270.979020979021,350C270.39627039627044,350,269.8135198135198,350,269.2307692307692,350C268.64801864801865,350,268.06526806526807,350,267.4825174825175,350C266.8997668997669,350,266.3170163170163,350,265.7342657342657,350C265.1515151515151,350,264.5687645687646,350,263.98601398601403,350C263.40326340326345,350,262.8205128205128,350,262.23776223776224,350C261.65501165501166,350,261.072261072261,350,260.48951048951045,350C259.9067599067599,350,259.32400932400935,350,258.7412587412588,350C258.1585081585082,350,257.57575757575756,350,256.993006993007,350C256.4102564102564,350,255.82750582750583,350,255.24475524475525,350C254.66200466200468,350,254.07925407925407,350,253.4965034965035,350C252.91375291375292,350,252.33100233100234,350,251.74825174825176,350C251.16550116550118,350,250.58275058275058,350,250,350C249.41724941724942,350,248.83449883449885,350,248.25174825174827,350C247.6689976689977,350,247.08624708624708,350,246.5034965034965,350C245.92074592074593,350,245.33799533799535,350,244.75524475524477,350C244.17249417249417,350,243.5897435897436,350,243.00699300699299,350C242.4242424242424,350,241.84149184149183,350,241.25874125874125,350C240.67599067599068,350,240.09324009324007,350,239.5104895104895,350C238.92773892773891,350,238.34498834498834,350,237.76223776223776,350C237.17948717948718,350,236.5967365967366,350,236.01398601398603,350C235.43123543123545,350,234.84848484848484,350,234.26573426573427,350C233.6829836829837,350,233.1002331002331,350,232.51748251748253,350C231.93473193473196,350,231.35198135198135,350,230.76923076923077,350C230.1864801864802,350,229.6037296037296,350,229.020979020979,350C228.43822843822844,350,227.85547785547783,350,227.27272727272725,350C226.68997668997667,350,226.1072261072261,350,225.52447552447552,350C224.94172494172494,350,224.35897435897436,350,223.7762237762238,350C223.1934731934732,350,222.6107226107226,350,222.02797202797203,350C221.44522144522145,350,220.86247086247087,350,220.2797202797203,350C219.69696969696972,350,219.1142191142191,350,218.53146853146853,350C217.94871794871796,350,217.36596736596735,350,216.78321678321677,350C216.2004662004662,350,215.6177156177156,350,215.034965034965,350C214.45221445221443,350,213.86946386946386,350,213.28671328671328,350C212.7039627039627,350,212.12121212121212,350,211.53846153846155,350C210.95571095571097,350,210.37296037296036,350,209.7902097902098,350C209.2074592074592,350,208.62470862470863,350,208.04195804195805,350C207.45920745920748,350,206.87645687645687,350,206.2937062937063,350C205.71095571095572,350,205.12820512820514,350,204.54545454545456,350C203.96270396270396,350,203.37995337995338,350,202.79720279720277,350C202.2144522144522,350,201.63170163170162,350,201.04895104895104,350C200.46620046620046,350,199.88344988344988,350,199.3006993006993,350C198.71794871794873,350,198.13519813519812,350,197.55244755244755,350C196.96969696969697,350,196.3869463869464,350,195.8041958041958,350C195.22144522144524,350,194.63869463869463,350,194.05594405594405,350C193.47319347319348,350,192.8904428904429,350,192.30769230769232,350C191.72494172494174,350,191.14219114219114,350,190.55944055944056,350C189.97668997668998,350,189.39393939393938,350,188.8111888111888,350C188.22843822843822,350,187.64568764568764,350,187.06293706293707,350C186.4801864801865,350,185.89743589743588,350,185.3146853146853,350C184.73193473193473,350,184.14918414918415,350,183.56643356643357,350C182.983682983683,350,182.4009324009324,350,181.8181818181818,350C181.23543123543124,350,180.65268065268066,350,180.06993006993008,350C179.4871794871795,350,178.90442890442893,350,178.32167832167835,350C177.73892773892774,350,177.15617715617716,350,176.57342657342656,350C175.99067599067598,350,175.4079254079254,350,174.82517482517483,350C174.24242424242425,350,173.65967365967364,350,173.07692307692307,350C172.4941724941725,350,171.9114219114219,350,171.32867132867133,350C170.74592074592076,350,170.16317016317015,350,169.58041958041957,350C168.997668997669,350,168.41491841491842,350,167.83216783216784,350C167.24941724941726,350,166.66666666666669,350,166.0839160839161,350C165.5011655011655,350,164.91841491841492,350,164.33566433566432,350C163.75291375291374,350,163.17016317016316,350,162.5874125874126,350C162.004662004662,350,161.4219114219114,350,160.83916083916083,350C160.25641025641025,350,159.67365967365967,350,159.0909090909091,350C158.50815850815852,350,157.9254079254079,350,157.34265734265733,350C156.75990675990676,350,156.17715617715618,350,155.5944055944056,350C155.01165501165502,350,154.42890442890445,350,153.84615384615387,350C153.2634032634033,350,152.68065268065268,350,152.0979020979021,350C151.51515151515153,350,150.93240093240092,350,150.34965034965035,350C149.76689976689977,350,149.18414918414916,350,148.60139860139859,350C148.018648018648,350,147.43589743589743,350,146.85314685314685,350C146.27039627039628,350,145.68764568764567,350,145.1048951048951,350C144.52214452214452,350,143.93939393939394,350,143.35664335664336,350C142.77389277389278,350,142.1911421911422,350,141.60839160839163,350C141.02564102564105,350,140.44289044289044,350,139.86013986013987,350C139.2773892773893,350,138.69463869463868,350,138.1118881118881,350C137.52913752913753,350,136.94638694638692,350,136.36363636363635,350C135.78088578088577,350,135.1981351981352,350,134.6153846153846,350C134.03263403263404,350,133.44988344988343,350,132.86713286713285,350C132.28438228438227,350,131.7016317016317,350,131.11888111888112,350C130.53613053613054,350,129.95337995337997,350,129.3706293706294,350C128.7878787878788,350,128.2051282051282,350,127.62237762237763,350C127.03962703962705,350,126.45687645687646,350,125.87412587412588,350C125.2913752913753,350,124.70862470862471,350,124.12587412587413,350C123.54312354312356,350,122.96037296037296,350,122.37762237762239,350C121.7948717948718,350,121.21212121212122,350,120.62937062937063,350C120.04662004662005,350,119.46386946386946,350,118.88111888111888,350C118.2983682983683,350,117.71561771561771,350,117.13286713286713,350C116.55011655011656,350,115.96736596736596,350,115.38461538461539,350C114.8018648018648,350,114.21911421911422,350,113.63636363636363,350C113.05361305361305,350,112.47086247086247,350,111.8881118881119,350C111.30536130536132,350,110.72261072261072,350,110.13986013986015,350C109.55710955710956,350,108.97435897435898,350,108.39160839160839,350C107.80885780885781,350,107.22610722610722,350,106.64335664335664,350C106.06060606060606,350,105.47785547785547,350,104.8951048951049,350C104.31235431235432,350,103.72960372960372,350,103.14685314685315,350C102.56410256410255,350,101.98135198135198,350,101.39860139860139,350C100.81585081585081,350,100.23310023310023,350,99.65034965034965,350C99.06759906759908,350,98.48484848484848,350,97.9020979020979,350C97.31934731934733,350,96.73659673659674,350,96.15384615384616,350C95.57109557109557,350,94.98834498834499,350,94.4055944055944,350C93.82284382284382,350,93.24009324009323,350,92.65734265734265,350C92.07459207459208,350,91.49184149184148,350,90.9090909090909,350C90.32634032634033,350,89.74358974358975,350,89.16083916083917,350C88.57808857808858,350,87.995337995338,350,87.41258741258741,350C86.82983682983684,350,86.24708624708624,350,85.66433566433567,350C85.08158508158509,350,84.4988344988345,350,83.91608391608392,350C83.33333333333333,350,82.75058275058275,350,82.16783216783216,350C81.58508158508158,350,81.00233100233099,350,80.41958041958041,350C79.83682983682984,350,79.25407925407924,350,78.67132867132867,350C78.08857808857809,350,77.50582750582751,350,76.92307692307693,350C76.34032634032634,350,75.75757575757576,350,75.17482517482517,350C74.5920745920746,350,74.009324009324,350,73.42657342657343,350C72.84382284382285,350,72.26107226107226,350,71.67832167832168,350C71.0955710955711,350,70.51282051282051,350,69.93006993006993,350C68.76456876456876,350,67.5990675990676,350,66.43356643356643,350C65.85081585081585,350,65.26806526806527,350,64.6853146853147,350C64.10256410256412,350,63.519813519813525,350,62.93706293706294,350C62.354312354312356,350,61.77156177156178,350,61.188811188811194,350C60.60606060606061,350,60.023310023310025,350,59.44055944055944,350C58.857808857808855,350,58.27505827505828,350,57.69230769230769,350C57.10955710955711,350,56.52680652680653,350,55.94405594405595,350C55.36130536130536,350,54.77855477855478,350,54.19580419580419,350C53.61305361305361,350,53.03030303030303,350,52.44755244755245,350C51.86480186480186,350,51.28205128205128,350,50.69930069930069,350C50.116550116550115,350,49.53379953379953,350,48.95104895104895,350C48.36829836829837,350,47.785547785547784,350,47.2027972027972,350C46.620046620046615,350,46.03729603729604,350,45.45454545454545,350C44.87179487179487,350,44.28904428904429,350,43.70629370629371,350C43.12354312354312,350,42.540792540792545,350,41.95804195804196,350C41.375291375291376,350,40.79254079254079,350,40.20979020979021,350C39.62703962703963,350,39.044289044289044,350,38.46153846153847,350C37.87878787878788,350,37.2960372960373,350,36.71328671328671,350C36.13053613053613,350,35.54778554778555,350,34.96503496503497,350C34.38228438228438,350,33.7995337995338,350,33.21678321678321,350C32.634032634032636,350,32.05128205128205,350,31.46853146853147,350C30.885780885780886,350,30.303030303030305,350,29.72027972027972,350C29.13752913752914,350,28.554778554778554,350,27.972027972027973,350C27.38927738927739,350,26.806526806526808,350,26.223776223776223,350C25.641025641025642,350,25.058275058275058,350,24.475524475524477,350C23.892773892773892,350,23.31002331002331,350,22.727272727272727,350C22.144522144522146,350,21.56177156177156,350,20.97902097902098,350C20.3962703962704,350,19.813519813519815,350,19.230769230769234,350C18.64801864801865,350,18.065268065268068,350,17.482517482517483,350C16.899766899766902,350,16.317016317016318,350,15.734265734265735,350C15.151515151515152,350,14.56876456876457,350,13.986013986013987,350C13.403263403263404,350,12.820512820512821,350,12.237762237762238,350C11.655011655011656,350,11.072261072261073,350,10.48951048951049,350C9.906759906759907,350,9.324009324009324,350,8.741258741258742,350C8.158508158508159,350,7.575757575757576,350,6.993006993006993,350C6.410256410256411,350,5.827505827505828,350,5.244755244755245,350C4.662004662004662,350,4.0792540792540795,350,3.4965034965034967,350C2.913752913752914,350,2.331002331002331,350,1.7482517482517483,350C1.1655011655011656,350,0.5827505827505828,350,0,350Z" fill="url(#gradient_0)" fill-opacity="0.7"/></g><g class="mark-line role-mark layer_1_marks" role="graphics-object" aria-roledescription="line mark container"><path aria-label="tooltip: undefined | undefined | undefined £/year/head; date: Apr 01, 2016; jtj: 2.05595" role="graphics-symbol" aria-roledescription="line mark" d="M0,170.10448575019836C0.5827505827505828,197.83059284090996,1.1655011655011656,225.55669993162155,1.7482517482517483,225.55669993162155C2.331002331002331,225.55669993162155,2.913752913752914,163.23786079883575,3.4965034965034967,163.23786079883575C4.0792540792540795,163.23786079883575,4.662004662004662,228.48982363939285,5.244755244755245,228.48982363939285C5.827505827505828,228.48982363939285,6.410256410256411,119.19909417629242,6.993006993006993,119.19909417629242C7.575757575757576,119.19909417629242,8.158508158508159,135.59106265505156,8.741258741258742,148.65235090255737C9.324009324009324,161.7136391500632,9.906759906759907,197.56682366132736,10.48951048951049,197.56682366132736C11.072261072261073,197.56682366132736,11.655011655011656,168.7859684228897,12.237762237762238,162.11462914943695C12.820512820512821,155.4432898759842,13.403263403263404,152.1076202392578,13.986013986013987,152.1076202392578C14.56876456876457,152.1076202392578,15.151515151515152,176.03793889284134,15.734265734265735,176.03793889284134C16.317016317016318,176.03793889284134,16.899766899766902,152.177345007658,17.482517482517483,144.01956796646118C18.065268065268068,135.86179092526436,18.64801864801865,127.0912766456604,19.230769230769234,127.0912766456604C19.813519813519815,127.0912766456604,20.3962703962704,178.72737447420755,20.97902097902098,192.1733945608139C21.56177156177156,205.61941464742026,22.144522144522146,212.34242469072342,22.727272727272727,212.34242469072342C23.31002331002331,212.34242469072342,23.892773892773892,176.08662992715836,24.475524475524477,176.08662992715836C25.058275058275058,176.08662992715836,25.641025641025642,182.31378346681595,26.223776223776223,182.31378346681595C26.806526806526808,182.31378346681595,27.38927738927739,78.47350835800171,27.972027972027973,78.47350835800171C28.554778554778554,78.47350835800171,29.13752913752914,216.66239798069,29.72027972027972,216.66239798069C30.303030303030305,216.66239798069,30.885780885780886,135.6984704732895,31.46853146853147,135.6984704732895C32.05128205128205,135.6984704732895,32.634032634032636,150.507053732872,33.21678321678321,154.9807459115982C33.7995337995338,159.45443809032443,34.38228438228438,162.54062354564667,34.96503496503497,162.54062354564667C35.54778554778555,162.54062354564667,36.13053613053613,92.6598310470581,36.71328671328671,92.6598310470581C37.2960372960373,92.6598310470581,37.87878787878788,177.60132998228073,38.46153846153847,177.60132998228073C39.044289044289044,177.60132998228073,39.62703962703963,136.92846496899918,40.20979020979021,130.83168268203735C40.79254079254079,124.73490039507548,41.375291375291376,121.68650925159454,41.95804195804196,121.68650925159454C42.540792540792545,121.68650925159454,43.12354312354312,144.29919719696045,43.70629370629371,144.29919719696045C44.28904428904429,144.29919719696045,44.87179487179487,104.52396273612976,45.45454545454545,104.52396273612976C46.03729603729604,104.52396273612976,46.620046620046615,119.23220505317055,47.2027972027972,127.44158506393433C47.785547785547784,135.65096507469815,48.36829836829837,153.78024280071259,48.95104895104895,153.78024280071259C49.53379953379953,153.78024280071259,50.116550116550115,118.37539374828339,50.69930069930069,118.37539374828339C51.28205128205128,118.37539374828339,51.86480186480186,178.8705825805664,52.44755244755245,178.8705825805664C53.03030303030303,178.8705825805664,53.61305361305361,108.01978707313538,54.19580419580419,108.01978707313538C54.77855477855478,108.01978707313538,55.36130536130536,197.27414548397064,55.94405594405595,197.27414548397064C56.52680652680653,197.27414548397064,57.10955710955711,36.25018298625946,57.69230769230769,36.25018298625946C58.27505827505828,36.25018298625946,58.857808857808855,235.85985004901886,59.44055944055944,235.85985004901886C60.023310023310025,235.85985004901886,60.60606060606061,234.16214833656946,61.188811188811194,230.76674491167068C61.77156177156178,227.3713414867719,62.354312354312356,137.3703420162201,62.93706293706294,137.3703420162201C63.519813519813525,137.3703420162201,64.10256410256412,162.21943969527865,64.6853146853147,180.23457825183868C65.26806526806527,198.2497168083985,65.85081585081585,245.46117335557938,66.43356643356643,245.46117335557938C67.5990675990676,245.46117335557938,68.76456876456876,175.19405484199524,69.93006993006993,175.19405484199524C70.51282051282051,175.19405484199524,71.0955710955711,246.71593755483627,71.67832167832168,246.71593755483627C72.26107226107226,246.71593755483627,72.84382284382285,167.7429497241974,73.42657342657343,167.7429497241974C74.009324009324,167.7429497241974,74.5920745920746,188.38511109352112,75.17482517482517,188.38511109352112C75.75757575757576,188.38511109352112,76.34032634032634,158.66968631744385,76.92307692307693,158.66968631744385C77.50582750582751,158.66968631744385,78.08857808857809,216.31353944540024,78.67132867132867,216.31353944540024C79.25407925407924,216.31353944540024,79.83682983682984,182.47128874063492,80.41958041958041,182.47128874063492C81.00233100233099,182.47128874063492,81.58508158508158,213.9776527881623,82.16783216783216,220.69905996322632C82.75058275058275,227.4204671382904,83.33333333333333,230.78117072582245,83.91608391608392,230.78117072582245C84.4988344988345,230.78117072582245,85.08158508158509,157.34884639581045,85.66433566433567,150.27269423007965C86.24708624708624,143.19654206434885,86.82983682983684,146.1491192380587,87.41258741258741,139.65846598148346C87.995337995338,133.1678127249082,88.57808857808858,111.32877469062805,89.16083916083917,111.32877469062805C89.74358974358975,111.32877469062805,90.32634032634033,197.81717360019684,90.9090909090909,197.81717360019684C91.49184149184148,197.81717360019684,92.07459207459208,168.64442229270935,92.65734265734265,168.64442229270935C93.24009324009323,168.64442229270935,93.82284382284382,177.66700237989426,94.4055944055944,177.66700237989426C94.98834498834499,177.66700237989426,95.57109557109557,171.6076284646988,96.15384615384616,171.6076284646988C96.73659673659674,171.6076284646988,97.31934731934733,185.575769841671,97.9020979020979,185.575769841671C98.48484848484848,185.575769841671,99.06759906759908,160.44766008853912,99.65034965034965,160.44766008853912C100.23310023310023,160.44766008853912,100.81585081585081,191.803976893425,101.39860139860139,191.803976893425C101.98135198135198,191.803976893425,102.56410256410255,103.97398769855499,103.14685314685315,103.97398769855499C103.72960372960372,103.97398769855499,104.31235431235432,234.79608446359634,104.8951048951049,234.79608446359634C105.47785547785547,234.79608446359634,106.06060606060606,166.284242272377,106.64335664335664,166.284242272377C107.22610722610722,166.284242272377,107.80885780885781,201.79658085107803,108.39160839160839,201.79658085107803C108.97435897435898,201.79658085107803,109.55710955710956,115.87996780872345,110.13986013986015,115.87996780872345C110.72261072261072,115.87996780872345,111.30536130536132,119.52747702598572,111.8881118881119,126.82249546051025C112.47086247086247,134.11751389503473,113.05361305361305,191.5554940700531,113.63636363636363,191.5554940700531C114.21911421911422,191.5554940700531,114.8018648018648,156.55101786057162,115.38461538461539,139.17101323604584C115.96736596736596,121.7910086115202,116.55011655011656,87.27546632289886,117.13286713286713,87.27546632289886C117.71561771561771,87.27546632289886,118.2983682983683,105.27471353610356,118.88111888111888,126.91971063613892C119.46386946386946,148.56470773617426,120.04662004662005,217.14544892311096,120.62937062937063,217.14544892311096C121.21212121212122,217.14544892311096,121.7948717948718,171.36749029159546,122.37762237762239,171.36749029159546C122.96037296037296,171.36749029159546,123.54312354312356,208.6588978767395,124.12587412587413,208.6588978767395C124.70862470862471,208.6588978767395,125.2913752913753,108.23388993740082,125.87412587412588,108.23388993740082C126.45687645687646,108.23388993740082,127.03962703962705,148.81553575396538,127.62237762237763,160.56872010231018C128.2051282051282,172.32190445065507,128.7878787878788,176.85711234807965,129.3706293706294,178.75299602746964C129.95337995337997,180.6488797068596,130.53613053613054,181.59682154655457,131.11888111888112,181.59682154655457C131.7016317016317,181.59682154655457,132.28438228438227,143.541419506073,132.86713286713285,143.541419506073C133.44988344988343,143.541419506073,134.03263403263404,145.81078886985776,134.6153846153846,147.94756174087524C135.1981351981352,150.0843346118927,135.78088578088577,156.36205673217773,136.36363636363635,156.36205673217773C136.94638694638692,156.36205673217773,137.52913752913753,92.01848208904266,138.1118881118881,92.01848208904266C138.69463869463868,92.01848208904266,139.2773892773893,102.99486815929413,139.86013986013987,102.99486815929413C140.44289044289044,102.99486815929413,141.02564102564105,62.31202781200409,141.60839160839163,62.31202781200409C142.1911421911422,62.31202781200409,142.77389277389278,75.52454893787703,143.35664335664336,94.68367993831635C143.93939393939394,113.84281093875566,144.52214452214452,177.26681381464005,145.1048951048951,177.26681381464005C145.68764568764567,177.26681381464005,146.27039627039628,153.08531423409784,146.85314685314685,151.18559896945953C147.43589743589743,149.28588370482126,148.018648018648,150.2357413371404,148.60139860139859,148.33602607250214C149.18414918414916,146.43631080786383,149.76689976689977,128.5610407590866,150.34965034965035,128.5610407590866C150.93240093240092,128.5610407590866,151.51515151515153,152.88219153881073,152.0979020979021,152.88219153881073C152.68065268065268,152.88219153881073,153.2634032634033,115.35206437110901,153.84615384615387,115.35206437110901C154.42890442890445,115.35206437110901,155.01165501165502,232.5494334101677,155.5944055944056,232.5494334101677C156.17715617715618,232.5494334101677,156.75990675990676,200.15896409749985,157.34265734265733,200.15896409749985C157.9254079254079,200.15896409749985,158.50815850815852,282.34255611896515,159.0909090909091,282.34255611896515C159.67365967365967,282.34255611896515,160.25641025641025,240.0539199511209,160.83916083916083,231.93091750144958C161.4219114219114,223.80791505177817,162.004662004662,227.83327872554474,162.5874125874126,219.74641382694244C163.17016317016316,211.65954892834029,163.75291375291374,191.8361281355222,164.33566433566432,183.40972810983658C164.91841491841492,174.98332808415068,165.5011655011655,169.18801367282867,166.0839160839161,169.18801367282867C166.66666666666669,169.18801367282867,167.24941724941726,217.49831289052963,167.83216783216784,223.28017503023148C168.41491841491842,229.06203716993332,168.997668997669,226.1711061000824,169.58041958041957,231.95296823978424C170.16317016317015,237.73483037948617,170.74592074592076,297.88932278752327,171.32867132867133,297.88932278752327C171.9114219114219,297.88932278752327,172.4941724941725,169.8578178882599,173.07692307692307,169.8578178882599C173.65967365967364,169.8578178882599,174.24242424242425,224.69265311956406,174.82517482517483,224.69265311956406C175.4079254079254,224.69265311956406,175.99067599067598,220.5801174044609,176.57342657342656,212.3550459742546C177.15617715617716,204.12997454404805,177.73892773892774,153.6772906780243,178.32167832167835,153.6772906780243C178.90442890442893,153.6772906780243,179.4871794871795,178.19756219784418,180.06993006993008,181.93036764860153C180.65268065268066,185.6631730993589,181.23543123543124,184.76511662205064,181.8181818181818,187.52957582473755C182.4009324009324,190.2940350274245,182.983682983683,198.5171228647232,183.56643356643357,198.5171228647232C184.14918414918415,198.5171228647232,184.73193473193473,189.882523814837,185.3146853146853,179.80740517377853C185.89743589743588,169.7322865327199,186.4801864801865,138.06641101837158,187.06293706293707,138.06641101837158C187.64568764568764,138.06641101837158,188.22843822843822,158.46742590268454,188.8111888111888,164.73172008991241C189.39393939393938,170.9960142771404,189.97668997668998,175.39352675278982,190.55944055944056,175.6521761417389C191.14219114219114,175.91082553068796,191.72494172494174,175.78150083621344,192.30769230769232,176.0401502251625C192.8904428904429,176.29879961411157,193.47319347319348,215.26577472686768,194.05594405594405,215.26577472686768C194.63869463869463,215.26577472686768,195.22144522144524,110.11679768562317,195.8041958041958,110.11679768562317C196.3869463869464,110.11679768562317,196.96969696969697,189.6600902080536,197.55244755244755,189.6600902080536C198.13519813519812,189.6600902080536,198.71794871794873,128.38229835033417,199.3006993006993,128.38229835033417C199.88344988344988,128.38229835033417,200.46620046620046,182.00307041406631,201.04895104895104,182.00307041406631C201.63170163170162,182.00307041406631,202.2144522144522,152.88121104240417,202.79720279720277,152.88121104240417C203.37995337995338,152.88121104240417,203.96270396270396,216.3391888141632,204.54545454545456,216.3391888141632C205.12820512820514,216.3391888141632,205.71095571095572,209.32037134965262,206.2937062937063,195.2827364206314C206.87645687645687,181.24510149160997,207.45920745920748,96.90008163452148,208.04195804195805,96.90008163452148C208.62470862470863,96.90008163452148,209.2074592074592,185.46296060085297,209.7902097902098,185.46296060085297C210.37296037296036,185.46296060085297,210.95571095571097,154.10298953453702,211.53846153846155,144.18034851551056C212.12121212121212,134.25770749648427,212.7039627039627,132.1280136704445,213.28671328671328,125.92711448669434C213.86946386946386,119.72621530294418,214.45221445221443,106.97495341300964,215.034965034965,106.97495341300964C215.6177156177156,106.97495341300964,216.2004662004662,183.91264975070953,216.78321678321677,183.91264975070953C217.36596736596735,183.91264975070953,217.94871794871796,172.47240543365479,218.53146853146853,172.47240543365479C219.1142191142191,172.47240543365479,219.69696969696972,174.55228169759116,220.2797202797203,178.71203422546387C220.86247086247087,182.87178675333652,221.44522144522145,202.41884142160416,222.02797202797203,202.41884142160416C222.6107226107226,202.41884142160416,223.1934731934732,9.966850280761719,223.7762237762238,9.966850280761719C224.35897435897436,9.966850280761719,224.94172494172494,120.16027271747589,225.52447552447552,120.16027271747589C226.1072261072261,120.16027271747589,226.68997668997667,119.18227970600128,227.27272727272725,119.18227970600128C227.85547785547783,119.18227970600128,228.43822843822844,122.03430036703746,229.020979020979,127.7383416891098C229.6037296037296,133.44238301118216,230.1864801864802,148.5584944486618,230.76923076923077,158.85952711105347C231.35198135198135,169.16055977344513,231.93473193473196,189.54453766345978,232.51748251748253,189.54453766345978C233.1002331002331,189.54453766345978,233.6829836829837,113.45069408416748,234.26573426573427,113.45069408416748C234.84848484848484,113.45069408416748,235.43123543123545,158.0578774213791,236.01398601398603,158.0578774213791C236.5967365967366,158.0578774213791,237.17948717948718,136.70471012592316,237.76223776223776,136.70471012592316C238.34498834498834,136.70471012592316,238.92773892773891,142.52714812755585,239.5104895104895,142.52714812755585C240.09324009324007,142.52714812755585,240.67599067599068,114.9762213230133,241.25874125874125,114.9762213230133C241.84149184149183,114.9762213230133,242.4242424242424,186.40400767326355,243.00699300699299,186.40400767326355C243.5897435897436,186.40400767326355,244.17249417249417,124.30727183818817,244.75524475524477,124.30727183818817C245.33799533799535,124.30727183818817,245.92074592074593,267.7752688527107,246.5034965034965,267.7752688527107C247.08624708624708,267.7752688527107,247.6689976689977,261.934197942416,248.25174825174827,252.84396708011627C248.83449883449885,243.75373621781668,249.41724941724942,213.23388367891312,250,213.23388367891312C250.58275058275058,213.23388367891312,251.16550116550118,230.65360188484192,251.74825174825176,230.65360188484192C252.33100233100234,230.65360188484192,252.91375291375292,201.16247087717056,253.4965034965035,201.16247087717056C254.07925407925407,201.16247087717056,254.66200466200468,212.34308183193207,255.24475524475525,212.34308183193207C255.82750582750583,212.34308183193207,256.4102564102564,154.69423234462738,256.993006993007,154.69423234462738C257.57575757575756,154.69423234462738,258.1585081585082,258.1578195095062,258.7412587412588,258.1578195095062C259.32400932400935,258.1578195095062,259.9067599067599,160.1561814546585,260.48951048951045,160.1561814546585C261.072261072261,160.1561814546585,261.65501165501166,178.25538540879884,262.23776223776224,187.82163858413696C262.8205128205128,197.38789175947508,263.40326340326345,217.55370050668716,263.98601398601403,217.55370050668716C264.5687645687646,217.55370050668716,265.1515151515151,193.97003948688507,265.7342657342657,193.97003948688507C266.3170163170163,193.97003948688507,266.8997668997669,213.7260302901268,267.4825174825175,213.7260302901268C268.06526806526807,213.7260302901268,268.64801864801865,168.97867942849777,269.2307692307692,151.15578770637512C269.8135198135198,133.3328959842519,270.39627039627044,106.78867995738983,270.979020979021,106.78867995738983C271.5617715617716,106.78867995738983,272.1445221445221,121.64355516433798,272.7272727272727,136.64629757404327C273.31002331002327,151.64903998374956,273.8927738927739,196.80513441562653,274.4755244755245,196.80513441562653C275.05827505827506,196.80513441562653,275.64102564102564,194.94386365016302,276.2237762237762,192.81876981258392C276.8065268065268,190.69367597500482,277.38927738927737,188.50398759047178,277.97202797202794,184.05457139015198C278.5547785547785,179.60515518983203,279.13752913752916,166.12227261066437,279.72027972027973,166.12227261066437C280.3030303030303,166.12227261066437,280.8857808857809,238.644877076149,281.46853146853147,238.644877076149C282.05128205128204,238.644877076149,282.6340326340327,152.09466516971588,283.21678321678326,152.09466516971588C283.79953379953383,152.09466516971588,284.38228438228435,208.10233056545258,284.96503496503493,208.10233056545258C285.5477855477855,208.10233056545258,286.13053613053614,181.36624495188403,286.7132867132867,178.68528962135315C287.2960372960373,176.00433429082236,287.8787878787879,177.34481195608774,288.46153846153845,174.66385662555695C289.04428904428903,171.98290129502615,289.6270396270396,133.47462117671967,290.2097902097902,133.47462117671967C290.79254079254076,133.47462117671967,291.3752913752914,168.24654936790466,291.958041958042,178.1975343823433C292.54079254079255,188.1485193967816,293.12354312354313,193.18053126335144,293.7062937062937,193.18053126335144C294.2890442890443,193.18053126335144,294.8717948717949,69.70951855182648,295.4545454545455,69.70951855182648C296.0372960372961,69.70951855182648,296.6200466200466,162.68022259076537,297.20279720279717,177.98002064228058C297.78554778554775,193.27981869379678,298.3682983682984,190.95447063446022,298.95104895104896,200.9297177195549C299.53379953379954,210.90496480464927,300.1165501165501,237.8315031528473,300.6993006993007,237.8315031528473C301.28205128205127,237.8315031528473,301.86480186480185,127.34105288982391,302.4475524475524,127.34105288982391C303.030303030303,127.34105288982391,303.61305361305364,254.56406027078629,304.1958041958042,254.56406027078629C304.7785547785548,254.56406027078629,305.36130536130537,239.23331573605458,305.94405594405595,214.12027329206467C306.5268065268065,189.00723084807393,307.10955710955716,103.88580560684204,307.69230769230774,103.88580560684204C308.2750582750583,103.88580560684204,308.85780885780883,168.8307687640193,309.4405594405594,191.0892367362976C310.02331002331,213.34770470857737,310.6060606060606,237.4366134405136,311.1888111888112,237.4366134405136C311.7715617715618,237.4366134405136,312.35431235431236,226.1566107471784,312.93706293706293,209.25739705562592C313.5198135198135,192.35818336407343,314.1025641025641,136.04133129119873,314.68531468531467,136.04133129119873C315.26806526806524,136.04133129119873,315.8508158508159,150.80406069755554,316.43356643356645,150.80406069755554C317.01631701631703,150.80406069755554,317.5990675990676,57.31285214424133,318.1818181818182,57.31285214424133C318.76456876456876,57.31285214424133,319.3473193473194,96.21422092119835,319.93006993007,109.80606377124786C320.51282051282055,123.3979066212965,321.0955710955711,124.88532836238616,321.67832167832165,138.86390924453735C322.26107226107223,152.84249012668946,322.84382284382286,193.6775490641594,323.42657342657344,193.6775490641594C324.009324009324,193.6775490641594,324.5920745920746,63.796645402908325,325.1748251748252,63.796645402908325C325.75757575757575,63.796645402908325,326.3403263403263,139.7865355014801,326.9230769230769,139.7865355014801C327.5058275058275,139.7865355014801,328.08857808857806,95.30458450317383,328.67132867132864,95.30458450317383C329.2540792540792,95.30458450317383,329.83682983682985,96.49718105792999,330.4195804195804,98.88237416744232C331.002331002331,101.26756727695465,331.58508158508164,147.56405899922015,332.1678321678322,166.68858230113983C332.7505827505828,185.8131056030583,333.3333333333333,213.62951397895813,333.9160839160839,213.62951397895813C334.49883449883447,213.62951397895813,335.0815850815851,161.12867395083148,335.6643356643357,135.74205040931702C336.24708624708626,110.35542686780337,336.82983682983684,61.30977272987366,337.4125874125874,61.30977272987366C337.995337995338,61.30977272987366,338.57808857808857,231.27940893173218,339.16083916083915,231.27940893173218C339.7435897435897,231.27940893173218,340.3263403263403,206.8588837981224,340.9090909090909,206.8588837981224C341.49184149184146,206.8588837981224,342.0745920745921,239.78489190340042,342.65734265734267,239.78489190340042C343.24009324009324,239.78489190340042,343.8228438228439,203.94371151924133,344.40559440559446,203.94371151924133C344.98834498834503,203.94371151924133,345.57109557109555,205.4812341928482,346.15384615384613,205.4812341928482C346.7365967365967,205.4812341928482,347.31934731934734,179.13435697555542,347.9020979020979,179.13435697555542C348.4848484848485,179.13435697555542,349.0675990675991,222.83073216676712,349.65034965034965,222.83073216676712C350.23310023310023,222.83073216676712,350.8158508158508,205.34765720367432,351.3986013986014,205.34765720367432C351.98135198135196,205.34765720367432,352.56410256410254,251.56233310699463,353.1468531468531,251.56233310699463C353.7296037296037,251.56233310699463,354.31235431235433,201.90275957187018,354.8951048951049,194.7961911559105C355.4778554778555,187.6896227399508,356.0606060606061,184.13633853197098,356.6433566433567,184.13633853197098C357.2261072261073,184.13633853197098,357.8088578088578,210.3734314441681,358.3916083916084,210.3734314441681C358.97435897435895,210.3734314441681,359.5571095571096,200.8315846323967,360.13986013986016,200.8315846323967C360.72261072261074,200.8315846323967,361.3053613053613,218.83575171232224,361.8881118881119,218.83575171232224C362.47086247086247,218.83575171232224,363.05361305361305,178.43454331159592,363.6363636363636,178.43454331159592C364.2191142191142,178.43454331159592,364.8018648018648,256.5219447016716,365.38461538461536,256.5219447016716C365.96736596736594,256.5219447016716,366.55011655011657,216.43946195642164,367.13286713286715,202.07459330558777C367.7156177156177,187.70972465475435,368.2983682983683,180.93770196040472,368.8811188811189,170.332732796669C369.46386946386946,159.7277636329333,370.04662004662003,138.44477832317352,370.6293706293706,138.44477832317352C371.2121212121212,138.44477832317352,371.7948717948718,190.93050062656403,372.3776223776224,190.93050062656403C372.960372960373,190.93050062656403,373.54312354312356,161.8412584066391,374.12587412587413,161.8412584066391C374.7086247086247,161.8412584066391,375.2913752913753,167.36432686448097,375.87412587412587,176.9106537103653C376.45687645687644,186.45698055624962,377.039627039627,214.17375554641103,377.6223776223776,219.11921948194504C378.2051282051282,224.0646834174792,378.7878787878788,223.4691066046555,379.3706293706294,226.53741538524628C379.95337995337997,229.60572416583693,380.53613053613054,230.20130097866058,381.1188811188811,237.5290721654892C381.7016317016317,244.8568433523178,382.2843822843823,278.27893048524857,382.86713286713285,278.27893048524857C383.44988344988343,278.27893048524857,384.03263403263406,263.0258433520794,384.61538461538464,263.0258433520794C385.1981351981352,263.0258433520794,385.7808857808858,277.9728330671787,386.3636363636364,277.9728330671787C386.94638694638695,277.9728330671787,387.52913752913753,268.63323884705704,388.1118881118881,259.51799750328064C388.6946386946387,250.40275615950426,389.27738927738926,223.28138500452042,389.86013986013984,223.28138500452042C390.4428904428904,223.28138500452042,391.02564102564105,260.04694402217865,391.6083916083916,260.04694402217865C392.1911421911422,260.04694402217865,392.7738927738927,233.4453985095024,393.3566433566433,233.4453985095024C393.9393939393939,233.4453985095024,394.5221445221445,270.5272875726223,395.1048951048951,270.5272875726223C395.68764568764567,270.5272875726223,396.2703962703963,195.93214839696884,396.8531468531469,195.93214839696884C397.43589743589746,195.93214839696884,398.01864801864804,284.98546332120895,398.6013986013986,284.98546332120895C399.1841491841492,284.98546332120895,399.76689976689977,258.21151038010913,400.34965034965035,244.6048140525818C400.9324009324009,230.9981177250544,401.5151515151515,203.34528535604477,402.0979020979021,203.34528535604477C402.68065268065266,203.34528535604477,403.2634032634033,237.15143501758575,403.84615384615387,237.15143501758575C404.42890442890445,237.15143501758575,405.01165501165497,111.34690344333649,405.59440559440554,111.34690344333649C406.1771561771561,111.34690344333649,406.75990675990676,197.98187613487244,407.34265734265733,197.98187613487244C407.9254079254079,197.98187613487244,408.50815850815854,154.33217883110046,409.0909090909091,154.33217883110046C409.6736596736597,154.33217883110046,410.2564102564103,158.31526120503744,410.83916083916085,166.28142595291138C411.42191142191143,174.2475907007853,412.004662004662,214.88997340202332,412.5874125874126,214.88997340202332C413.17016317016316,214.88997340202332,413.75291375291374,114.65824842453003,414.3356643356643,114.65824842453003C414.9184149184149,114.65824842453003,415.50116550116553,162.6062124967575,416.0839160839161,162.6062124967575C416.6666666666667,162.6062124967575,417.2494172494172,162.3789389928182,417.8321678321678,161.92439198493958C418.41491841491836,161.46984497706092,418.997668997669,117.91645884513855,419.5804195804196,117.91645884513855C420.16317016317015,117.91645884513855,420.7459207459208,136.70669198036194,421.32867132867136,136.70669198036194C421.91142191142194,136.70669198036194,422.4941724941725,13.370424509048462,423.0769230769231,13.370424509048462C423.6596736596737,13.370424509048462,424.24242424242425,158.65969359874725,424.8251748251748,158.65969359874725C425.4079254079254,158.65969359874725,425.990675990676,140.55705964565277,426.57342657342656,140.55705964565277C427.15617715617714,140.55705964565277,427.73892773892777,247.74011125167192,428.32167832167835,250.77099949121475C428.9044289044289,253.8018877307574,429.48717948717945,253.21907127896955,430.06993006993,255.31733185052872C430.6526806526806,257.415592422088,431.23543123543124,263.3605629205704,431.8181818181818,263.3605629205704C432.4009324009324,263.3605629205704,432.98368298368297,229.44805721441864,433.56643356643355,209.20428335666656C434.1491841491841,188.96050949891384,434.73193473193476,141.89791977405548,435.31468531468533,141.89791977405548C435.8974358974359,141.89791977405548,436.4801864801865,200.5996137857437,437.06293706293707,200.5996137857437C437.64568764568764,200.5996137857437,438.2284382284382,182.88224190473557,438.8111888111888,182.88224190473557C439.3939393939394,182.88224190473557,439.97668997669,195.68384637435238,440.5594405594406,204.4240191578865C441.14219114219117,213.16419194142006,441.7249417249417,225.5565964927279,442.30769230769226,235.32327860593796C442.89044289044284,245.08996071914868,443.4731934731935,263.02411183714867,444.05594405594405,263.02411183714867C444.63869463869463,263.02411183714867,445.2214452214452,181.06519430875778,445.8041958041958,181.06519430875778C446.38694638694636,181.06519430875778,446.969696969697,257.73292034864426,447.5524475524476,257.73292034864426C448.13519813519815,257.73292034864426,448.71794871794873,157.0634663105011,449.3006993006993,157.0634663105011C449.8834498834499,157.0634663105011,450.46620046620046,196.51147574186328,451.04895104895104,197.71919697523117C451.6317016317016,198.9269182085991,452.21445221445225,198.32305759191513,452.79720279720283,199.53077882528305C453.3799533799534,200.73850005865089,453.9627039627039,227.4207279086113,454.5454545454545,227.4207279086113C455.1282051282051,227.4207279086113,455.7109557109557,143.29172670841217,456.2937062937063,143.29172670841217C456.87645687645687,143.29172670841217,457.45920745920745,164.28982913494113,458.041958041958,170.67886888980865C458.6247086247086,177.0679086446764,459.20745920745924,181.6259652376175,459.7902097902098,181.6259652376175C460.3729603729604,181.6259652376175,460.95571095571097,179.25982574621835,461.53846153846155,174.5275467634201C462.1212121212121,169.79526778062186,462.7039627039627,151.44242644309998,463.2867132867133,151.44242644309998C463.86946386946386,151.44242644309998,464.4522144522145,202.32423394918442,465.03496503496507,202.32423394918442C465.61771561771565,202.32423394918442,466.20046620046617,162.42112641533183,466.78321678321674,146.57659828662872C467.3659673659673,130.7320701579246,467.94871794871796,107.2570651769638,468.53146853146853,107.2570651769638C469.1142191142191,107.2570651769638,469.6969696969697,150.63652098178886,470.27972027972027,169.23382580280304C470.86247086247084,187.8311306238178,471.4452214452215,218.84089410305023,472.02797202797206,218.84089410305023C472.61072261072263,218.84089410305023,473.1934731934732,208.10706615447998,473.7762237762238,195.94579190015793C474.35897435897436,183.78451764583588,474.94172494172494,156.0826222101844,475.5244755244755,145.87324857711792C476.1072261072261,135.66387494405112,476.68997668997673,138.59399805466379,477.2727272727273,130.5591881275177C477.8554778554779,122.52437820037213,478.4382284382284,107.4540684620537,479.020979020979,97.66438901424408C479.60372960372956,87.87470956643384,480.1864801864802,82.01016932725928,480.7692307692308,71.82111144065857C481.35198135198135,61.63205355405819,481.93473193473193,36.53004169464111,482.5174825174825,36.53004169464111C483.1002331002331,36.53004169464111,483.6829836829837,90.79956163962629,484.2657342657343,113.30856382846832C484.8484848484849,135.81756601730888,485.4312354312354,171.58405482769012,486.01398601398597,171.58405482769012C486.59673659673655,171.58405482769012,487.1794871794872,156.38910035292307,487.76223776223776,136.3900125026703C488.34498834498834,116.3909246524175,488.927738927739,51.5895277261734,489.51048951048955,51.5895277261734C490.0932400932401,51.5895277261734,490.67599067599065,123.23372562726354,491.2587412587412,125.66363215446472C491.8414918414918,128.09353868166605,492.42424242424244,127.25397646427149,493.006993006993,129.30849194526672C493.5897435897436,131.3630074262619,494.17249417249417,137.9907250404358,494.75524475524475,137.9907250404358C495.3379953379953,137.9907250404358,495.92074592074596,82.4281632900238,496.50349650349654,82.4281632900238C497.0862470862471,82.4281632900238,497.66899766899763,121.50059044361142,498.2517482517482,125.64204037189484C498.8344988344988,129.78349030017853,499.4172494172494,130.81885278224945,500,131.85421526432037" stroke="#36B7B4" stroke-width="2"/></g></g><path class="foreground" aria-hidden="true" d="" display="none"/></g></g></g><defs><linearGradient id="gradient_0" x1="1" x2="1" y1="1" y2="0"><stop offset="0.7" stop-color="#36B7B4"/><stop offset="0" stop-color="white"/></linearGradient></defs></svg>