<svg xmlns="http://www.w3.org/2000/svg" xmlns:xlink="http://www.w3.org/1999/xlink" version="1.1" class="marks" width="514" height="392" viewBox="0 0 514 392"><rect width="514" height="392" fill="white"/><g fill="none" stroke-miterlimit="10" transform="translate(7,20)"><g class="mark-group role-frame root" role="graphics-object" aria-roledescription="group mark container"><g transform="translate(0,0)"><path class="background" aria-hidden="true" d="M0,0h500v350h-500Z"/><g><g class="mark-group role-axis" aria-hidden="true"><g transform="translate(0.5,0.5)"><path class="background" aria-hidden="true" d="M0,0h0v0h0Z" pointer-events="none"/><g><g class="mark-rule role-axis-grid" pointer-events="none"><line transform="translate(0,350)" x2="500" y2="0" stroke="#ddd" stroke-opacity="0.4" stroke-width="1" opacity="1"/><line transform="translate(0,292)" x2="500" y2="0" stroke="#ddd" stroke-opacity="0.4" stroke-width="1" opacity="1"/><line transform="translate(0,233)" x2="500" y2="0" stroke="#ddd" stroke-opacity="0.4" stroke-width="1" opacity="1"/><line transform="translate(0,175)" x2="500" y2="0" stroke="#ddd" stroke-opacity="0.4" stroke-width="1" opacity="1"/><line transform="translate(0,117)" x2="500" y2="0" stroke="#ddd" stroke-opacity="0.4" stroke-width="1" opacity="1"/><line transform="translate(0,58)" x2="500" y2="0" stroke="#ddd" stroke-opacity="0.4" stroke-width="1" opacity="1"/><line transform="translate(0,0)" x2="500" y2="0" stroke="#ddd" stroke-opacity="0.4" stroke-width="1" opacity="1"/></g></g><path class="foreground" aria-hidden="true" d="" pointer-events="none" display="none"/></g></g><g class="mark-group role-axis" role="graphics-symbol" aria-roledescription="axis" aria-label="X-axis for a time scale with values from Wednesday, 01 January 2020, 12:00:00 AM to Friday, 03 December 2021, 12:00:00 AM"><g transform="translate(0.5,350.5)"><path class="background" aria-hidden="true" d="M0,0h0v0h0Z" pointer-events="none"/><g><g class="mark-rule role-axis-tick" pointer-events="none"><line transform="translate(0,0)" x2="0" y2="5" stroke="#676A86" stroke-width="1" opacity="1"/><line transform="translate(65,0)" x2="0" y2="5" stroke="#676A86" stroke-width="1" opacity="1"/><line transform="translate(130,0)" x2="0" y2="5" stroke="#676A86" stroke-width="1" opacity="1"/><line transform="translate(195,0)" x2="0" y2="5" stroke="#676A86" stroke-width="1" opacity="1"/><line transform="translate(261,0)" x2="0" y2="5" stroke="#676A86" stroke-width="1" opacity="1"/><line transform="translate(325,0)" x2="0" y2="5" stroke="#676A86" stroke-width="1" opacity="1"/><line transform="translate(390,0)" x2="0" y2="5" stroke="#676A86" stroke-width="1" opacity="1"/><line transform="translate(455,0)" x2="0" y2="5" stroke="#676A86" stroke-width="1" opacity="1"/></g><g class="mark-text role-axis-label" pointer-events="none"><text text-anchor="start" transform="translate(0,15)" font-family="sans-serif" font-size="10px" fill="#676A86" opacity="1">2020</text><text text-anchor="middle" transform="translate(64.81481481481481,15)" font-family="sans-serif" font-size="10px" fill="#676A86" opacity="1">April</text><text text-anchor="middle" transform="translate(129.62962962962962,15)" font-family="sans-serif" font-size="10px" fill="#676A86" opacity="1">July</text><text text-anchor="middle" transform="translate(195.15669515669515,15)" font-family="sans-serif" font-size="10px" fill="#676A86" opacity="1">October</text><text text-anchor="middle" transform="translate(260.6837606837607,15)" font-family="sans-serif" font-size="10px" fill="#676A86" opacity="1">2021</text><text text-anchor="middle" transform="translate(324.7863247863248,15)" font-family="sans-serif" font-size="10px" fill="#676A86" opacity="1">April</text><text text-anchor="middle" transform="translate(389.6011396011396,15)" font-family="sans-serif" font-size="10px" fill="#676A86" opacity="1">July</text><text text-anchor="middle" transform="translate(455.12820512820514,15)" font-family="sans-serif" font-size="10px" fill="#676A86" opacity="1">October</text></g><g class="mark-rule role-axis-domain" pointer-events="none"><line transform="translate(0,0)" x2="500" y2="0" stroke="#676A86" stroke-width="1" opacity="1"/></g></g><path class="foreground" aria-hidden="true" d="" pointer-events="none" display="none"/></g></g><g class="mark-group role-axis" role="graphics-symbol" aria-roledescription="axis" aria-label="Y-axis titled '%' for a linear scale with values from 2 to 8"><g transform="translate(0.5,0.5)"><path class="background" aria-hidden="true" d="M0,0h0v0h0Z" pointer-events="none"/><g><g class="mark-text role-axis-label" pointer-events="none"><text text-anchor="start" transform="translate(5,343)" font-family="sans-serif" font-size="10px" fill="#676A86" opacity="1">2</text><text text-anchor="start" transform="translate(5,284.6666666666667)" font-family="sans-serif" font-size="10px" fill="#676A86" opacity="1">3</text><text text-anchor="start" transform="translate(5,226.33333333333337)" font-family="sans-serif" font-size="10px" fill="#676A86" opacity="1">4</text><text text-anchor="start" transform="translate(5,168)" font-family="sans-serif" font-size="10px" fill="#676A86" opacity="1">5</text><text text-anchor="start" transform="translate(5,109.66666666666669)" font-family="sans-serif" font-size="10px" fill="#676A86" opacity="1">6</text><text text-anchor="start" transform="translate(5,51.33333333333332)" font-family="sans-serif" font-size="10px" fill="#676A86" opacity="1">7</text><text text-anchor="start" transform="translate(5,-7)" font-family="sans-serif" font-size="10px" fill="#676A86" opacity="1">8</text></g><g class="mark-rule role-axis-domain" pointer-events="none"><line transform="translate(0,350)" x2="0" y2="-350" stroke="#676A86" stroke-width="1" opacity="1"/></g><g class="mark-text role-axis-title" pointer-events="none"><text text-anchor="start" transform="translate(13,-7)" font-family="sans-serif" font-size="10px" font-weight="normal" fill="#676A86" opacity="1">%</text></g></g><path class="foreground" aria-hidden="true" d="" pointer-events="none" display="none"/></g></g><g class="mark-rule role-mark layer_0_marks" role="graphics-object" aria-roledescription="rule mark container"><line aria-label="x: Jan 29, 2020" role="graphics-symbol" aria-roledescription="rule mark" transform="translate(19.943019943019944,0)" x2="0" y2="350" stroke="#676A86" stroke-width="1" stroke-dasharray="0,1,1" opacity="0.3"/><line aria-label="x: Mar 18, 2020" role="graphics-symbol" aria-roledescription="rule mark" transform="translate(54.84330484330484,0)" x2="0" y2="350" stroke="#676A86" stroke-width="1" stroke-dasharray="0,1,1" opacity="0.3"/></g><g class="mark-text role-mark layer_1_marks" role="graphics-object" aria-roledescription="text mark container"><text aria-label="text: ➡ First COVID-related death in the UK; x: Jan 29, 2020; y: 2.1" role="graphics-symbol" aria-roledescription="text mark" text-anchor="start" transform="translate(19.943019943019944,342.16666666666663)" font-family="sans-serif" font-size="10px" font-weight="lighter" fill="#676A86">➡ First COVID-related death in the UK</text><text aria-label="text: ➡ Start of first UK lockdown; x: Mar 18, 2020; y: 2.4" role="graphics-symbol" aria-roledescription="text mark" text-anchor="start" transform="translate(54.84330484330484,324.6666666666667)" font-family="sans-serif" font-size="10px" font-weight="lighter" fill="#676A86">➡ Start of first UK lockdown</text></g><g class="mark-area role-mark layer_2_marks" role="graphics-object" aria-roledescription="area mark container"><path aria-label="weekx: Jan 01, 2020; max_looknew: 7; min_looknew: 4.02649736404" role="graphics-symbol" aria-roledescription="area mark" d="M0,56.07863664627075L4.985754985754986,77.02818711598712L9.971509971509972,40.642062822977714L14.957264957264957,50.14915068944294L19.943019943019944,43.43674182891846L24.928774928774928,96.98892434438068L29.914529914529915,34.50473944346111L34.9002849002849,64.95025157928467L39.88603988603989,121.9014048576355L44.87179487179487,67.66704718271893L49.857549857549856,65.25497039159137L54.84330484330484,75.63521464665729L59.82905982905983,93.97080341974896L64.81481481481481,110.28300921122235L69.8005698005698,34.63908831278484L74.78632478632478,110.8150641123454L79.77207977207978,99.97297128041583L84.75783475783476,119.58237091700238L89.74358974358974,95.83858648935956L94.72934472934473,101.02364619572955L99.71509971509971,102.83162593841553L104.7008547008547,125.39127667744953L109.68660968660969,93.37374369303387L114.67236467236468,120.33213774363202L119.65811965811966,68.50284735361737L124.64387464387465,127.77823607126874L129.62962962962962,102.10522413253784L134.6153846153846,101.60451730092365L139.6011396011396,43.33755175272625L144.58689458689457,101.15220944086713L149.57264957264957,62.79502312342327L154.55840455840456,51.929954687754325L159.54415954415956,39.74284331003826L164.52991452991452,71.11461162567139L169.51566951566952,137.71721522013348L174.5014245014245,148.71774514516193L179.48717948717947,36.2755576769511L184.47293447293447,80.74194590250653L189.45868945868946,80.60915470123291L199.43019943019942,42.28053490320843L204.41595441595442,73.60217968622845L209.4017094017094,81.46225611368817L214.3874643874644,77.14509566624957L219.37321937321937,74.09298419952393L224.35897435897436,87.61332035064697L229.34472934472936,47.82288471857708L234.33048433048435,97.17395305633545L239.31623931623932,100.86114803949994L244.3019943019943,107.50104188919067L249.2877492877493,79.65068817138672L254.27350427350427,119.12394364674884L260.6837606837607,56.07863664627075L265.6695156695157,77.02818711598712L270.65527065527067,40.642062822977714L275.64102564102564,50.14915068944294L280.62678062678066,43.43674182891846L285.6125356125356,96.98892434438068L290.59829059829065,34.50473944346111L295.5840455840456,64.95025157928467L300.5698005698006,121.9014048576355L305.5555555555556,67.66704718271893L310.54131054131057,65.25497039159137L315.52706552706553,75.63521464665729L320.51282051282055,93.97080341974896L325.49857549857546,110.28300921122235L330.4843304843305,34.63908831278484L335.47008547008545,110.8150641123454L340.4558404558404,99.97297128041583L345.44159544159544,119.58237091700238L350.4273504273504,95.83858648935956L355.41310541310537,101.02364619572955L360.3988603988604,102.83162593841553L365.38461538461536,125.39127667744953L370.3703703703703,93.37374369303387L375.35612535612535,120.33213774363202L380.3418803418803,68.50284735361737L385.32763532763533,127.77823607126874L390.3133903133903,102.10522413253784L395.29914529914527,101.60451730092365L400.2849002849003,43.33755175272625L405.27065527065525,101.15220944086713L410.2564102564102,62.79502312342327L415.24216524216524,51.929954687754325L420.2279202279202,39.74284331003826L425.2136752136752,71.11461162567139L430.1994301994302,137.71721522013348L435.18518518518516,148.71774514516193L440.1709401709402,36.2755576769511L445.15669515669515,80.74194590250653L450.1424501424501,80.60915470123291L455.12820512820514,107.59094158808392L460.1139601139601,42.28053490320843L465.09971509971507,73.60217968622845L470.0854700854701,81.46225611368817L475.07122507122506,77.14509566624957L480.0569800569801,74.09298419952393L485.04273504273505,87.61332035064697L490.02849002849,47.82288471857708L495.01424501424503,97.17395305633545L500,100.86114803949994L500,169.45650974909466L495.01424501424503,166.5611942609151L490.02849002849,166.15547736485797L485.04273504273505,166.29313627878827L480.0569800569801,188.9503916104635L475.07122507122506,164.21217521031696L470.0854700854701,172.6962645848592L465.09971509971507,168.8170035680135L460.1139601139601,122.14512427647907L455.12820512820514,203.44251791636145L450.1424501424501,179.99883492787683L445.15669515669515,165.77974557876587L440.1709401709402,183.74049266179406L435.18518518518516,197.66381978988647L430.1994301994302,197.09451993306482L425.2136752136752,199.16374286015832L420.2279202279202,222.04399506251013L415.24216524216524,143.91272862752277L410.2564102564102,178.10148398081458L405.27065527065525,156.11577828725177L400.2849002849003,186.73994938532508L395.29914529914527,173.27115535736084L390.3133903133903,137.0426058769226L385.32763532763533,205.89417616526282L380.3418803418803,190.43067693710327L375.35612535612535,202.04414923985803L370.3703703703703,223.0609575907389L365.38461538461536,164.69930807749432L360.3988603988604,167.09091265996295L355.41310541310537,137.37127383550006L350.4273504273504,169.0994143486023L345.44159544159544,151.72226428985596L340.4558404558404,152.06853946050006L335.47008547008545,167.7489995956421L330.4843304843305,204.72559134165442L325.49857549857546,224.39407110214233L320.51282051282055,153.30652395884198L315.52706552706553,167.1697974205017L310.54131054131057,186.40407721201575L305.5555555555556,180.29977083206177L300.5698005698006,151.8699924151103L295.5840455840456,121.89617554346722L290.59829059829065,125.58954556783038L285.6125356125356,145.8062966664632L280.62678062678066,136.12650235493976L275.64102564102564,129.15629943211871L270.65527065527067,161.3322416941325L265.6695156695157,131.7764361699422L260.6837606837607,231.787653764089L254.27350427350427,236.14937464396155L249.2877492877493,201.19530359903968L244.3019943019943,195.50909201304114L239.31623931623932,169.45650974909466L234.33048433048435,166.5611942609151L229.34472934472936,166.15547736485797L224.35897435897436,166.29313627878827L219.37321937321937,188.9503916104635L214.3874643874644,164.21217521031696L209.4017094017094,172.6962645848592L204.41595441595442,168.8170035680135L199.43019943019942,122.14512427647907L189.45868945868946,179.99883492787683L184.47293447293447,165.77974557876587L179.48717948717947,183.74049266179406L174.5014245014245,197.66381978988647L169.51566951566952,197.09451993306482L164.52991452991452,199.16374286015832L159.54415954415956,222.04399506251013L154.55840455840456,143.91272862752277L149.57264957264957,178.10148398081458L144.58689458689457,156.11577828725177L139.6011396011396,186.73994938532508L134.6153846153846,173.27115535736084L129.62962962962962,137.0426058769226L124.64387464387465,205.89417616526282L119.65811965811966,190.43067693710327L114.67236467236468,202.04414923985803L109.68660968660969,223.0609575907389L104.7008547008547,164.69930807749432L99.71509971509971,167.09091265996295L94.72934472934473,137.37127383550006L89.74358974358974,169.0994143486023L84.75783475783476,151.72226428985596L79.77207977207978,152.06853946050006L74.78632478632478,167.7489995956421L69.8005698005698,204.72559134165442L64.81481481481481,224.39407110214233L59.82905982905983,153.30652395884198L54.84330484330484,167.1697974205017L49.857549857549856,186.40407721201575L44.87179487179487,180.29977083206177L39.88603988603989,151.8699924151103L34.9002849002849,121.89617554346722L29.914529914529915,125.58954556783038L24.928774928774928,145.8062966664632L19.943019943019944,136.12650235493976L14.957264957264957,129.15629943211871L9.971509971509972,161.3322416941325L4.985754985754986,131.7764361699422L0,231.787653764089Z" fill="#676A86" opacity="0.15"/></g><g class="mark-line role-mark layer_3_marks" role="graphics-object" aria-roledescription="line mark container"><path aria-label="weekx: Jan 01, 2020; m_looknew: 5.78057336807" role="graphics-symbol" aria-roledescription="line mark" d="M0,129.46655352910358L4.985754985754986,105.72084983189899L9.971509971509972,102.41990089416504L14.957264957264957,116.77751143773395L19.943019943019944,116.90001090367633L24.928774928774928,105.7960907618205L29.914529914529915,119.31420167287189L34.9002849002849,102.88455883661908L39.88603988603989,137.57963975270587L44.87179487179487,163.2104555765788L49.857549857549856,80.38941224416095L54.84330484330484,132.50244855880737L59.82905982905983,120.68583965301514L64.81481481481481,125.1201868057251L69.8005698005698,175.0026146570841L74.78632478632478,159.6082369486491L79.77207977207978,131.4401189486186L84.75783475783476,121.74177169799805L89.74358974358974,130.44129212697345L94.72934472934473,103.49764029184979L99.71509971509971,139.96851841608685L104.7008547008547,136.86219453811646L109.68660968660969,118.07279586791992L114.67236467236468,147.2104509671529L119.65811965811966,119.87896760304767L124.64387464387465,164.36468760172528L129.62962962962962,124.23782348632812L134.6153846153846,133.8775912920634L139.6011396011396,130.04978895187378L144.58689458689457,124.8441179593404L149.57264957264957,144.89848216374713L154.55840455840456,100.5933403968811L159.54415954415956,150.32692750295L164.52991452991452,137.66745328903198L169.51566951566952,160.15570163726807L174.5014245014245,154.52189445495605L179.48717948717947,102.88127660751343L184.47293447293447,129.80737686157227L189.45868945868946,164.39778804779053L199.43019943019942,83.83327722549438L204.41595441595442,105.88579575220746L209.4017094017094,134.05789136886597L214.3874643874644,146.09090487162274L219.37321937321937,155.23360967636108L224.35897435897436,141.5968934694926L229.34472934472936,138.28075726826984L234.33048433048435,116.60060485204059L239.31623931623932,110.0810130437215L244.3019943019943,143.95956993103027L249.2877492877493,173.18848768870038L254.27350427350427,157.9944372177124L260.6837606837607,129.46655352910358L265.6695156695157,105.72084983189899L270.65527065527067,102.41990089416504L275.64102564102564,116.77751143773395L280.62678062678066,116.90001090367633L285.6125356125356,105.7960907618205L290.59829059829065,119.31420167287189L295.5840455840456,102.88455883661908L300.5698005698006,137.57963975270587L305.5555555555556,163.2104555765788L310.54131054131057,80.38941224416095L315.52706552706553,132.50244855880737L320.51282051282055,120.68583965301514L325.49857549857546,125.1201868057251L330.4843304843305,175.0026146570841L335.47008547008545,159.6082369486491L340.4558404558404,131.4401189486186L345.44159544159544,121.74177169799805L350.4273504273504,130.44129212697345L355.41310541310537,103.49764029184979L360.3988603988604,139.96851841608685L365.38461538461536,136.86219453811646L370.3703703703703,118.07279586791992L375.35612535612535,147.2104509671529L380.3418803418803,119.87896760304767L385.32763532763533,164.36468760172528L390.3133903133903,124.23782348632812L395.29914529914527,133.8775912920634L400.2849002849003,130.04978895187378L405.27065527065525,124.8441179593404L410.2564102564102,144.89848216374713L415.24216524216524,100.5933403968811L420.2279202279202,150.32692750295L425.2136752136752,137.66745328903198L430.1994301994302,160.15570163726807L435.18518518518516,154.52189445495605L440.1709401709402,102.88127660751343L445.15669515669515,129.80737686157227L450.1424501424501,164.39778804779053L455.12820512820514,142.67290830612183L460.1139601139601,83.83327722549438L465.09971509971507,105.88579575220746L470.0854700854701,134.05789136886597L475.07122507122506,146.09090487162274L480.0569800569801,155.23360967636108L485.04273504273505,141.5968934694926L490.02849002849,138.28075726826984L495.01424501424503,116.60060485204059L500,110.0810130437215" stroke="#676A86" stroke-width="1" stroke-dasharray="0,2,2" opacity="0.8"/></g><g class="mark-area role-mark layer_4_marks" role="graphics-object" aria-roledescription="area mark container"><path aria-label="weekx: Jan 01, 2020; max0: 7.03865194321; max_looknew: 7.03865194321" role="graphics-symbol" aria-roledescription="area mark" d="M0,56.07863664627075L4.985754985754986,77.02818711598712L9.971509971509972,40.642062822977714L14.957264957264957,50.14915068944294L19.943019943019944,43.43674182891846L24.928774928774928,96.98892434438068L29.914529914529915,34.50473944346111L34.9002849002849,64.95025157928467L39.88603988603989,121.9014048576355L44.87179487179487,67.66704718271893L49.857549857549856,65.25497039159137L54.84330484330484,75.63521464665729L59.82905982905983,93.97080341974896L64.81481481481481,110.28300921122235L69.8005698005698,34.63908831278484L74.78632478632478,110.8150641123454L79.77207977207978,99.97297128041583L84.75783475783476,119.58237091700238L89.74358974358974,95.83858648935956L94.72934472934473,101.02364619572955L99.71509971509971,102.83162593841553L104.7008547008547,125.39127667744953L109.68660968660969,93.37374369303387L114.67236467236468,120.33213774363202L119.65811965811966,68.50284735361737L124.64387464387465,127.77823607126874L129.62962962962962,102.10522413253784L134.6153846153846,101.60451730092365L139.6011396011396,43.33755175272625L144.58689458689457,101.15220944086713L149.57264957264957,62.79502312342327L154.55840455840456,51.929954687754325L159.54415954415956,39.74284331003826L164.52991452991452,71.11461162567139L169.51566951566952,137.71721522013348L174.5014245014245,148.71774514516193L179.48717948717947,36.2755576769511L184.47293447293447,80.74194590250653L189.45868945868946,80.60915470123291L199.43019943019942,42.28053490320843L204.41595441595442,73.60217968622845L209.4017094017094,81.46225611368817L214.3874643874644,77.14509566624957L219.37321937321937,74.09298419952393L224.35897435897436,87.61332035064697L229.34472934472936,47.82288471857708L234.33048433048435,97.17395305633545L239.31623931623932,100.86114803949994L244.3019943019943,107.50104188919067L249.2877492877493,79.65068817138672L254.27350427350427,119.12394364674884L260.6837606837607,56.07863664627075L265.6695156695157,77.02818711598712L270.65527065527067,40.642062822977714L275.64102564102564,50.14915068944294L280.62678062678066,43.43674182891846L285.6125356125356,96.98892434438068L290.59829059829065,34.50473944346111L295.5840455840456,64.95025157928467L300.5698005698006,121.9014048576355L305.5555555555556,67.66704718271893L310.54131054131057,65.25497039159137L315.52706552706553,75.63521464665729L320.51282051282055,93.97080341974896L325.49857549857546,110.28300921122235L330.4843304843305,34.63908831278484L335.47008547008545,110.8150641123454L340.4558404558404,99.97297128041583L345.44159544159544,119.58237091700238L350.4273504273504,95.83858648935956L355.41310541310537,101.02364619572955L360.3988603988604,102.83162593841553L365.38461538461536,125.39127667744953L370.3703703703703,93.37374369303387L375.35612535612535,120.33213774363202L380.3418803418803,68.50284735361737L385.32763532763533,127.77823607126874L390.3133903133903,102.10522413253784L395.29914529914527,101.60451730092365L400.2849002849003,43.33755175272625L405.27065527065525,101.15220944086713L410.2564102564102,62.79502312342327L415.24216524216524,51.929954687754325L420.2279202279202,39.74284331003826L425.2136752136752,71.11461162567139L430.1994301994302,137.71721522013348L435.18518518518516,148.71774514516193L440.1709401709402,36.2755576769511L445.15669515669515,80.74194590250653L450.1424501424501,80.60915470123291L455.12820512820514,107.59094158808392L460.1139601139601,42.28053490320843L465.09971509971507,73.60217968622845L470.0854700854701,81.46225611368817L475.07122507122506,77.14509566624957L480.0569800569801,74.09298419952393L485.04273504273505,87.61332035064697L490.02849002849,47.82288471857708L495.01424501424503,97.17395305633545L500,100.86114803949994L500,100.86114803949994L495.01424501424503,97.17395305633545L490.02849002849,47.82288471857708L485.04273504273505,87.61332035064697L480.0569800569801,74.09298419952393L475.07122507122506,77.14509566624957L470.0854700854701,81.46225611368817L465.09971509971507,73.60217968622845L460.1139601139601,42.28053490320843L455.12820512820514,107.59094158808392L450.1424501424501,80.60915470123291L445.15669515669515,80.74194590250653L440.1709401709402,36.2755576769511L435.18518518518516,148.71774514516193L430.1994301994302,137.71721522013348L425.2136752136752,71.11461162567139L420.2279202279202,39.74284331003826L415.24216524216524,51.929954687754325L410.2564102564102,62.79502312342327L405.27065527065525,101.15220944086713L400.2849002849003,43.33755175272625L395.29914529914527,101.60451730092365L390.3133903133903,102.10522413253784L385.32763532763533,127.77823607126874L380.3418803418803,68.50284735361737L375.35612535612535,120.33213774363202L370.3703703703703,93.37374369303387L365.38461538461536,125.39127667744953L360.3988603988604,102.83162593841553L355.41310541310537,101.02364619572955L350.4273504273504,95.83858648935956L345.44159544159544,119.58237091700238L340.4558404558404,99.97297128041583L335.47008547008545,110.8150641123454L330.4843304843305,34.63908831278484L325.49857549857546,110.28300921122235L320.51282051282055,93.97080341974896L315.52706552706553,75.63521464665729L310.54131054131057,65.25497039159137L305.5555555555556,67.66704718271893L300.5698005698006,121.9014048576355L295.5840455840456,64.95025157928467L290.59829059829065,34.50473944346111L285.6125356125356,96.98892434438068L280.62678062678066,43.43674182891846L275.64102564102564,50.14915068944294L270.65527065527067,40.642062822977714L265.6695156695157,77.02818711598712L260.6837606837607,56.07863664627075L254.27350427350427,119.12394364674884L249.2877492877493,79.65068817138672L244.3019943019943,107.50104188919067L239.31623931623932,100.86114803949994L234.33048433048435,97.17395305633545L229.34472934472936,47.82288471857708L224.35897435897436,87.61332035064697L219.37321937321937,74.09298419952393L214.3874643874644,77.14509566624957L209.4017094017094,81.46225611368817L204.41595441595442,73.60217968622845L199.43019943019942,42.28053490320843L189.45868945868946,80.60915470123291L184.47293447293447,80.74194590250653L179.48717948717947,36.2755576769511L174.5014245014245,148.71774514516193L169.51566951566952,137.71721522013348L164.52991452991452,71.11461162567139L159.54415954415956,39.74284331003826L154.55840455840456,51.929954687754325L149.57264957264957,62.79502312342327L144.58689458689457,101.15220944086713L139.6011396011396,43.33755175272625L134.6153846153846,101.60451730092365L129.62962962962962,102.10522413253784L124.64387464387465,127.77823607126874L119.65811965811966,68.50284735361737L114.67236467236468,120.33213774363202L109.68660968660969,93.37374369303387L104.7008547008547,125.39127667744953L99.71509971509971,102.83162593841553L94.72934472934473,101.02364619572955L89.74358974358974,95.83858648935956L84.75783475783476,119.58237091700238L79.77207977207978,99.97297128041583L74.78632478632478,110.8150641123454L69.8005698005698,34.63908831278484L64.81481481481481,110.28300921122235L59.82905982905983,93.97080341974896L54.84330484330484,75.63521464665729L49.857549857549856,65.25497039159137L44.87179487179487,67.66704718271893L39.88603988603989,121.9014048576355L34.9002849002849,64.95025157928467L29.914529914529915,34.50473944346111L24.928774928774928,96.98892434438068L19.943019943019944,43.43674182891846L14.957264957264957,50.14915068944294L9.971509971509972,40.642062822977714L4.985754985754986,77.02818711598712L0,56.07863664627075Z" fill="#36B7B4" opacity="0.3"/></g><g class="mark-area role-mark layer_5_marks" role="graphics-object" aria-roledescription="area mark container"><path aria-label="weekx: Jan 01, 2020; min0: 4.02649736404; min_looknew: 4.02649736404" role="graphics-symbol" aria-roledescription="area mark" d="M0,231.787653764089L4.985754985754986,152.0644227663676L9.971509971509972,161.3322416941325L14.957264957264957,134.80223417282104L19.943019943019944,163.40747276941937L24.928774928774928,145.8062966664632L29.914529914529915,143.56909592946369L34.9002849002849,156.2843680381775L39.88603988603989,179.5417984326681L44.87179487179487,180.29977083206177L49.857549857549856,206.83904091517127L54.84330484330484,201.07249816258752L59.82905982905983,236.1281931400299L64.81481481481481,224.39407110214233L69.8005698005698,225.9535471598307L74.78632478632478,250.02109011014306L79.77207977207978,292.1092947324117L84.75783475783476,266.04910492897034L89.74358974358974,227.87868579228723L94.72934472934473,218.06518236796057L99.71509971509971,232.8600525856018L104.7008547008547,254.1432638963064L109.68660968660969,244.52177087465918L114.67236467236468,242.4165825049082L119.65811965811966,223.55896631876624L124.64387464387465,281.6843092441559L129.62962962962962,203.99362643559778L134.6153846153846,229.0211796760559L139.6011396011396,214.58465655644738L144.58689458689457,241.2656466166178L149.57264957264957,178.10148398081458L154.55840455840456,223.98312489191687L159.54415954415956,257.6363066832224L164.52991452991452,221.82058095932007L169.51566951566952,264.0718122323354L174.5014245014245,221.98892037073767L179.48717948717947,219.77928479512536L184.47293447293447,165.77974557876587L189.45868945868946,224.84501600265503L199.43019943019942,122.14512427647907L204.41595441595442,168.8170035680135L209.4017094017094,202.70804961522424L214.3874643874644,208.54841470718384L219.37321937321937,211.3513549168905L224.35897435897436,189.67974185943604L229.34472934472936,237.39116986592614L234.33048433048435,180.34180005391443L239.31623931623932,203.91474167505896L244.3019943019943,195.50909201304114L249.2877492877493,201.19530359903968L254.27350427350427,268.7664012114207L260.6837606837607,231.787653764089L265.6695156695157,174.12798404693604L270.65527065527067,209.09701983133948L275.64102564102564,207.55654176076257L280.62678062678066,230.31001091003418L285.6125356125356,230.42958974838257L290.59829059829065,145.19705375035602L295.5840455840456,228.92265717188513L300.5698005698006,222.08655277887976L305.5555555555556,218.11575094858802L310.54131054131057,186.40407721201575L315.52706552706553,170.768400033315L320.51282051282055,215.19020001093543L325.49857549857546,224.39407110214233L330.4843304843305,204.72559134165442L335.47008547008545,177.5695403416952L340.4558404558404,220.56496143341064L345.44159544159544,229.6245813369751L350.4273504273504,189.21742041905725L355.41310541310537,148.20616245269775L360.3988603988604,180.46115636825562L365.38461538461536,185.87956031163537L370.3703703703703,223.0609575907389L375.35612535612535,202.04414923985803L380.3418803418803,192.92091528574622L385.32763532763533,205.89417616526282L390.3133903133903,194.72889502843225L395.29914529914527,178.80866527557373L400.2849002849003,186.73994938532508L405.27065527065525,156.11577828725177L410.2564102564102,220.950456460317L415.24216524216524,165.3591752052307L420.2279202279202,222.04399506251013L425.2136752136752,199.16374286015832L430.1994301994302,259.42883491516113L435.18518518518516,197.66381978988647L440.1709401709402,198.7553834915161L445.15669515669515,201.97689135869348L450.1424501424501,189.61075941721595L455.12820512820514,203.44251791636145L460.1139601139601,122.14512427647907L465.09971509971507,168.8170035680135L470.0854700854701,172.6962645848592L475.07122507122506,225.95315774281823L480.0569800569801,188.9503916104635L485.04273504273505,166.29313627878827L490.02849002849,225.86870988210046L495.01424501424503,166.5611942609151L500,204.89167769749963L500,169.45650974909466L495.01424501424503,166.5611942609151L490.02849002849,166.15547736485797L485.04273504273505,166.29313627878827L480.0569800569801,188.9503916104635L475.07122507122506,164.21217521031696L470.0854700854701,172.6962645848592L465.09971509971507,168.8170035680135L460.1139601139601,122.14512427647907L455.12820512820514,203.44251791636145L450.1424501424501,179.99883492787683L445.15669515669515,165.77974557876587L440.1709401709402,183.74049266179406L435.18518518518516,197.66381978988647L430.1994301994302,197.09451993306482L425.2136752136752,199.16374286015832L420.2279202279202,222.04399506251013L415.24216524216524,143.91272862752277L410.2564102564102,178.10148398081458L405.27065527065525,156.11577828725177L400.2849002849003,186.73994938532508L395.29914529914527,173.27115535736084L390.3133903133903,137.0426058769226L385.32763532763533,205.89417616526282L380.3418803418803,190.43067693710327L375.35612535612535,202.04414923985803L370.3703703703703,223.0609575907389L365.38461538461536,164.69930807749432L360.3988603988604,167.09091265996295L355.41310541310537,137.37127383550006L350.4273504273504,169.0994143486023L345.44159544159544,151.72226428985596L340.4558404558404,152.06853946050006L335.47008547008545,167.7489995956421L330.4843304843305,204.72559134165442L325.49857549857546,224.39407110214233L320.51282051282055,153.30652395884198L315.52706552706553,167.1697974205017L310.54131054131057,186.40407721201575L305.5555555555556,180.29977083206177L300.5698005698006,151.8699924151103L295.5840455840456,121.89617554346722L290.59829059829065,125.58954556783038L285.6125356125356,145.8062966664632L280.62678062678066,136.12650235493976L275.64102564102564,129.15629943211871L270.65527065527067,161.3322416941325L265.6695156695157,131.7764361699422L260.6837606837607,231.787653764089L254.27350427350427,236.14937464396155L249.2877492877493,201.19530359903968L244.3019943019943,195.50909201304114L239.31623931623932,169.45650974909466L234.33048433048435,166.5611942609151L229.34472934472936,166.15547736485797L224.35897435897436,166.29313627878827L219.37321937321937,188.9503916104635L214.3874643874644,164.21217521031696L209.4017094017094,172.6962645848592L204.41595441595442,168.8170035680135L199.43019943019942,122.14512427647907L189.45868945868946,179.99883492787683L184.47293447293447,165.77974557876587L179.48717948717947,183.74049266179406L174.5014245014245,197.66381978988647L169.51566951566952,197.09451993306482L164.52991452991452,199.16374286015832L159.54415954415956,222.04399506251013L154.55840455840456,143.91272862752277L149.57264957264957,178.10148398081458L144.58689458689457,156.11577828725177L139.6011396011396,186.73994938532508L134.6153846153846,173.27115535736084L129.62962962962962,137.0426058769226L124.64387464387465,205.89417616526282L119.65811965811966,190.43067693710327L114.67236467236468,202.04414923985803L109.68660968660969,223.0609575907389L104.7008547008547,164.69930807749432L99.71509971509971,167.09091265996295L94.72934472934473,137.37127383550006L89.74358974358974,169.0994143486023L84.75783475783476,151.72226428985596L79.77207977207978,152.06853946050006L74.78632478632478,167.7489995956421L69.8005698005698,204.72559134165442L64.81481481481481,224.39407110214233L59.82905982905983,153.30652395884198L54.84330484330484,167.1697974205017L49.857549857549856,186.40407721201575L44.87179487179487,180.29977083206177L39.88603988603989,151.8699924151103L34.9002849002849,121.89617554346722L29.914529914529915,125.58954556783038L24.928774928774928,145.8062966664632L19.943019943019944,136.12650235493976L14.957264957264957,129.15629943211871L9.971509971509972,161.3322416941325L4.985754985754986,131.7764361699422L0,231.787653764089Z" fill="#36B7B4" opacity="0.3"/></g><g class="mark-line role-mark layer_6_marks" role="graphics-object" aria-roledescription="line mark container"><path aria-label="weekx: Jan 01, 2020; looknew: 5.72204017639" role="graphics-symbol" aria-roledescription="line mark" d="M0,132.88098971048993L4.985754985754986,152.0644227663676L9.971509971509972,90.47161340713501L14.957264957264957,134.80223417282104L19.943019943019944,163.40747276941937L24.928774928774928,119.811209042867L29.914529914529915,143.56909592946369L34.9002849002849,156.2843680381775L39.88603988603989,179.5417984326681L44.87179487179487,145.6526716550191L49.857549857549856,206.83904091517127L54.84330484330484,201.07249816258752L59.82905982905983,236.1281931400299L64.81481481481481,194.90371545155847L69.8005698005698,225.9535471598307L74.78632478632478,250.02109011014306L79.77207977207978,292.1092947324117L84.75783475783476,266.04910492897034L89.74358974358974,227.87868579228723L94.72934472934473,218.06518236796057L99.71509971509971,232.8600525856018L104.7008547008547,254.1432638963064L109.68660968660969,244.52177087465918L114.67236467236468,242.4165825049082L119.65811965811966,223.55896631876624L124.64387464387465,281.6843092441559L129.62962962962962,203.99362643559778L134.6153846153846,229.0211796760559L139.6011396011396,214.58465655644738L144.58689458689457,241.2656466166178L149.57264957264957,171.7455307642619L154.55840455840456,223.98312489191687L159.54415954415956,257.6363066832224L164.52991452991452,221.82058095932007L169.51566951566952,264.0718122323354L174.5014245014245,221.98892037073767L179.48717948717947,219.77928479512536L184.47293447293447,148.4241247177124L189.45868945868946,224.84501600265503L199.43019943019942,121.3089068730672L204.41595441595442,158.86211395263672L209.4017094017094,202.70804961522424L214.3874643874644,208.54841470718384L219.37321937321937,211.3513549168905L224.35897435897436,189.67974185943604L229.34472934472936,237.39116986592614L234.33048433048435,180.34180005391443L239.31623931623932,203.91474167505896L244.3019943019943,159.93932485580444L249.2877492877493,192.8239504496256L254.27350427350427,268.7664012114207L260.6837606837607,216.23283624649048L265.6695156695157,174.12798404693604L270.65527065527067,209.09701983133948L275.64102564102564,207.55654176076257L280.62678062678066,230.31001091003418L285.6125356125356,230.42958974838257L290.59829059829065,145.19705375035602L295.5840455840456,228.92265717188513L300.5698005698006,222.08655277887976L305.5555555555556,218.11575094858802L310.54131054131057,183.69565407435095L315.52706552706553,170.768400033315L320.51282051282055,215.19020001093543L325.49857549857546,177.18629837036133L330.4843304843305,184.67695713043213L335.47008547008545,177.5695403416952L340.4558404558404,220.56496143341064L345.44159544159544,229.6245813369751L350.4273504273504,189.21742041905725L355.41310541310537,148.20616245269775L360.3988603988604,180.46115636825562L365.38461538461536,185.87956031163537L370.3703703703703,186.55725717544556L375.35612535612535,190.6632423400879L380.3418803418803,192.92091528574622L385.32763532763533,152.19120581944782L390.3133903133903,194.72889502843225L395.29914529914527,178.80866527557373L400.2849002849003,168.6034083366394L405.27065527065525,132.03612168629962L410.2564102564102,220.950456460317L415.24216524216524,165.3591752052307L420.2279202279202,137.5223120053609L425.2136752136752,164.7870659828186L430.1994301994302,259.42883491516113L435.18518518518516,186.28171682357788L440.1709401709402,198.7553834915161L445.15669515669515,201.97689135869348L450.1424501424501,189.61075941721595L455.12820512820514,199.63643948237097L460.1139601139601,103.16994587580365L465.09971509971507,168.36027304331463L470.0854700854701,158.59500169754028L475.07122507122506,225.95315774281823L480.0569800569801,155.5943210919698L485.04273504273505,162.00393040974933L490.02849002849,225.86870988210046L495.01424501424503,161.42194668451947L500,204.89167769749963" stroke="#36B7B4" stroke-width="2"/></g><g class="mark-text role-mark layer_7_marks" role="graphics-object" aria-roledescription="text mark container"><text aria-label="text: 2020/21; x: Sep 11, 2020; y: 3.4" role="graphics-symbol" aria-roledescription="text mark" text-anchor="start" transform="translate(180.91168091168092,266.33333333333337)" font-family="sans-serif" font-size="11px" font-weight="bold" fill="#36B7B4">2020/21</text></g><g class="mark-text role-mark layer_8_marks" role="graphics-object" aria-roledescription="text mark container"><text aria-label="text: 2014-2019 average; x: Nov 05, 2020; y: 7.1" role="graphics-symbol" aria-roledescription="text mark" text-anchor="start" transform="translate(220.0854700854701,50.50000000000001)" font-family="sans-serif" font-size="10px" font-weight="lighter" fill="#676A86">2014-2019 average</text></g><g class="mark-text role-mark layer_9_marks" role="graphics-object" aria-roledescription="text mark container"><text aria-label="text: and min-max range; x: Nov 05, 2020; y: 6.85" role="graphics-symbol" aria-roledescription="text mark" text-anchor="start" transform="translate(220.0854700854701,65.08333333333337)" font-family="sans-serif" font-size="10px" font-weight="lighter" fill="#676A86" opacity="0.5">and min-max range</text></g></g><path class="foreground" aria-hidden="true" d="" display="none"/></g></g></g></svg>