<svg xmlns="http://www.w3.org/2000/svg" xmlns:xlink="http://www.w3.org/1999/xlink" version="1.1" class="marks" width="514" height="342" viewBox="0 0 514 342"><rect width="514" height="342" fill="white"/><g fill="none" stroke-miterlimit="10" transform="translate(7,20)"><g class="mark-group role-frame root" role="graphics-object" aria-roledescription="group mark container"><g transform="translate(0,0)"><path class="background" aria-hidden="true" d="M0.5,0.5h500v300h-500Z" stroke="#ddd"/><g><g class="mark-group role-axis" aria-hidden="true"><g transform="translate(0.5,0.5)"><path class="background" aria-hidden="true" d="M0,0h0v0h0Z" pointer-events="none"/><g><g class="mark-rule role-axis-grid" pointer-events="none"><line transform="translate(0,285)" x2="500" y2="0" stroke="#ddd" stroke-width="1" opacity="1"/><line transform="translate(0,210)" x2="500" y2="0" stroke="#ddd" stroke-width="1" opacity="1"/><line transform="translate(0,135)" x2="500" y2="0" stroke="#ddd" stroke-width="1" opacity="1"/><line transform="translate(0,60)" x2="500" y2="0" stroke="#ddd" stroke-width="1" opacity="1"/></g></g><path class="foreground" aria-hidden="true" d="" pointer-events="none" display="none"/></g></g><g class="mark-group role-axis" role="graphics-symbol" aria-roledescription="axis" aria-label="X-axis for a time scale with values from Wednesday, 01 January 2020, 12:00:00 AM to Friday, 29 January 2021, 12:00:00 AM"><g transform="translate(0.5,300.5)"><path class="background" aria-hidden="true" d="M0,0h0v0h0Z" pointer-events="none"/><g><g class="mark-rule role-axis-tick" pointer-events="none"><line transform="translate(0,0)" x2="0" y2="5" stroke="#888" stroke-width="1" opacity="1"/><line transform="translate(39,0)" x2="0" y2="5" stroke="#888" stroke-width="1" opacity="1"/><line transform="translate(76,0)" x2="0" y2="5" stroke="#888" stroke-width="1" opacity="1"/><line transform="translate(115,0)" x2="0" y2="5" stroke="#888" stroke-width="1" opacity="1"/><line transform="translate(154,0)" x2="0" y2="5" stroke="#888" stroke-width="1" opacity="1"/><line transform="translate(193,0)" x2="0" y2="5" stroke="#888" stroke-width="1" opacity="1"/><line transform="translate(231,0)" x2="0" y2="5" stroke="#888" stroke-width="1" opacity="1"/><line transform="translate(270,0)" x2="0" y2="5" stroke="#888" stroke-width="1" opacity="1"/><line transform="translate(310,0)" x2="0" y2="5" stroke="#888" stroke-width="1" opacity="1"/><line transform="translate(348,0)" x2="0" y2="5" stroke="#888" stroke-width="1" opacity="1"/><line transform="translate(387,0)" x2="0" y2="5" stroke="#888" stroke-width="1" opacity="1"/><line transform="translate(425,0)" x2="0" y2="5" stroke="#888" stroke-width="1" opacity="1"/><line transform="translate(464,0)" x2="0" y2="5" stroke="#888" stroke-width="1" opacity="1"/></g><g class="mark-text role-axis-label" pointer-events="none"><text text-anchor="start" transform="translate(0,15)" font-family="sans-serif" font-size="10px" fill="#000" opacity="1">2020</text><text text-anchor="middle" transform="translate(39.34010152284264,15)" font-family="sans-serif" font-size="10px" fill="#000" opacity="0">February</text><text text-anchor="middle" transform="translate(76.14213197969544,15)" font-family="sans-serif" font-size="10px" fill="#000" opacity="1">March</text><text text-anchor="middle" transform="translate(115.48223350253807,15)" font-family="sans-serif" font-size="10px" fill="#000" opacity="0">April</text><text text-anchor="middle" transform="translate(153.55329949238578,15)" font-family="sans-serif" font-size="10px" fill="#000" opacity="1">May</text><text text-anchor="middle" transform="translate(192.89340101522842,15)" font-family="sans-serif" font-size="10px" fill="#000" opacity="0">June</text><text text-anchor="middle" transform="translate(230.96446700507613,15)" font-family="sans-serif" font-size="10px" fill="#000" opacity="1">July</text><text text-anchor="middle" transform="translate(270.3045685279188,15)" font-family="sans-serif" font-size="10px" fill="#000" opacity="0">August</text><text text-anchor="middle" transform="translate(309.6446700507614,15)" font-family="sans-serif" font-size="10px" fill="#000" opacity="1">September</text><text text-anchor="middle" transform="translate(347.7157360406091,15)" font-family="sans-serif" font-size="10px" fill="#000" opacity="0">October</text><text text-anchor="middle" transform="translate(387.0558375634518,15)" font-family="sans-serif" font-size="10px" fill="#000" opacity="1">November</text><text text-anchor="middle" transform="translate(425.12690355329954,15)" font-family="sans-serif" font-size="10px" fill="#000" opacity="0">December</text><text text-anchor="middle" transform="translate(464.46700507614213,15)" font-family="sans-serif" font-size="10px" fill="#000" opacity="1">2021</text></g><g class="mark-rule role-axis-domain" pointer-events="none"><line transform="translate(0,0)" x2="500" y2="0" stroke="#888" stroke-width="1" opacity="1"/></g></g><path class="foreground" aria-hidden="true" d="" pointer-events="none" display="none"/></g></g><g class="mark-group role-axis" role="graphics-symbol" aria-roledescription="axis" aria-label="Y-axis titled 'percent' for a linear scale with values from 4 to 24"><g transform="translate(0.5,0.5)"><path class="background" aria-hidden="true" d="M0,0h0v0h0Z" pointer-events="none"/><g><g class="mark-text role-axis-label" pointer-events="none"><text text-anchor="start" transform="translate(5,278)" font-family="sans-serif" font-size="10px" fill="#000" opacity="1">5</text><text text-anchor="start" transform="translate(5,203)" font-family="sans-serif" font-size="10px" fill="#000" opacity="1">10</text><text text-anchor="start" transform="translate(5,128)" font-family="sans-serif" font-size="10px" fill="#000" opacity="1">15</text><text text-anchor="start" transform="translate(5,52.999999999999986)" font-family="sans-serif" font-size="10px" fill="#000" opacity="1">20</text></g><g class="mark-text role-axis-title" pointer-events="none"><text text-anchor="start" transform="translate(21,-7)" font-family="sans-serif" font-size="10px" font-weight="normal" fill="#000" opacity="1">percent</text></g></g><path class="foreground" aria-hidden="true" d="" pointer-events="none" display="none"/></g></g><g class="mark-rule role-mark layer_0_marks" role="graphics-object" aria-roledescription="rule mark container"><line aria-label="x: Jan 29, 2020" role="graphics-symbol" aria-roledescription="rule mark" transform="translate(35.53299492385787,0)" x2="0" y2="300" stroke="#666A86" stroke-width="1" stroke-dasharray="0,1,1" opacity="0.5"/><line aria-label="x: Mar 18, 2020" role="graphics-symbol" aria-roledescription="rule mark" transform="translate(97.71573604060914,0)" x2="0" y2="300" stroke="#666A86" stroke-width="1" stroke-dasharray="0,1,1" opacity="0.5"/></g><g class="mark-text role-mark layer_1_marks" role="graphics-object" aria-roledescription="text mark container"><text aria-label="text: ➡ First COVID-related death in the UK; x: Jan 29, 2020; y: 4.4" role="graphics-symbol" aria-roledescription="text mark" text-anchor="start" transform="translate(35.53299492385787,292)" font-family="sans-serif" font-size="10px" font-weight="lighter" fill="#666A86">➡ First COVID-related death in the UK</text><text aria-label="text: ➡ Start of first UK lockdown; x: Mar 18, 2020; y: 5.4" role="graphics-symbol" aria-roledescription="text mark" text-anchor="start" transform="translate(97.71573604060914,277)" font-family="sans-serif" font-size="10px" font-weight="lighter" fill="#666A86">➡ Start of first UK lockdown</text></g><g class="mark-area role-mark layer_2_marks" role="graphics-object" aria-roledescription="area mark container"><path aria-label="weekx: Jan 01, 2020; max_ur_1624: 15; min_ur_1624: 10.1770629883" role="graphics-symbol" aria-roledescription="area mark" d="M0,128.83848667144775L8.883248730964468,112.47433662414552L17.766497461928935,115.09105682373047L26.6497461928934,121.71494007110597L35.53299492385787,64.38025474548341L44.41624365482234,110.65126419067381L53.2994923857868,147.60679721832275L62.18274111675127,127.32881069183348L71.06598984771574,147.98157691955566L79.94923857868021,73.78149032592773L88.83248730964468,128.09735298156738L97.71573604060914,167.6387357711792L106.5989847715736,164.59924221038818L115.48223350253807,149.31987762451172L124.36548223350253,123.13123226165771L133.24873096446703,154.85864639282227L142.13197969543148,144.40442562103271L151.01522842639594,132.4670934677124L159.89847715736042,170.35828113555908L168.78172588832487,123.66602897644043L177.66497461928935,103.0576229095459L186.5482233502538,128.95678997039795L195.4314720812183,85.46636581420898L204.31472081218274,104.10698890686037L213.1979695431472,126.94723606109619L222.08121827411168,77.6118278503418L230.96446700507613,103.40194702148438L239.8477157360406,90.56545257568358L248.73096446700507,87.65745162963867L257.61421319796955,84.88180160522461L266.49746192893406,146.54457092285156L275.3807106598985,82.78884887695312L284.26395939086296,121.63152694702148L293.1472081218274,121.34086132049562L302.0304568527919,160.55005073547363L310.9137055837564,150.25251388549805L319.79695431472084,123.84598731994629L328.6802030456853,136.19035720825195L337.56345177664974,135.1505470275879L355.3299492385787,96.12387657165529L364.21319796954316,115.01781463623047L373.0964467005076,124.24484252929686L381.97969543147207,129.04694080352783L390.8629441624366,135.54937362670898L399.74619289340103,170.88126182556152L408.6294416243655,113.41243743896483L417.51269035532994,152.4713373184204L426.3959390862944,164.47078227996826L435.2791878172589,101.62899971008301L444.16243654822335,144.27446365356445L453.0456852791878,124.45977687835692L464.46700507614213,128.83848667144775L473.3502538071066,112.47433662414552L482.2335025380711,115.09105682373047L491.11675126903555,121.71494007110597L500,64.38025474548341L500,210.91166496276855L491.11675126903555,223.73705863952637L482.2335025380711,195.21616458892822L473.3502538071066,188.57488632202148L464.46700507614213,207.34405517578125L453.0456852791878,244.998300075531L444.16243654822335,275.9272813796997L435.2791878172589,249.58798170089722L426.3959390862944,226.54722690582275L417.51269035532994,225.02755165100098L408.6294416243655,231.8047285079956L399.74619289340103,228.50127696990967L390.8629441624366,225.77407836914062L381.97969543147207,235.9751272201538L373.0964467005076,246.04290962219238L364.21319796954316,200.689959526062L355.3299492385787,183.82352828979492L337.56345177664974,183.69183540344238L328.6802030456853,196.44760608673096L319.79695431472084,199.0528106689453L310.9137055837564,181.40976905822754L302.0304568527919,190.76758861541748L293.1472081218274,183.5553216934204L284.26395939086296,168.3758783340454L275.3807106598985,155.94451904296875L266.49746192893406,187.84016132354736L257.61421319796955,158.29556465148926L248.73096446700507,167.6063346862793L239.8477157360406,165.22200107574463L230.96446700507613,185.4336977005005L222.08121827411168,202.54408836364746L213.1979695431472,160.33883571624756L204.31472081218274,170.51326274871826L195.4314720812183,183.98860931396484L186.5482233502538,213.46132278442383L177.66497461928935,201.49526596069336L168.78172588832487,216.27907276153564L159.89847715736042,257.22394466400146L151.01522842639594,207.1561574935913L142.13197969543148,249.83013153076172L133.24873096446703,278.08223247528076L124.36548223350253,267.17162132263184L115.48223350253807,202.9648733139038L106.5989847715736,195.73635578155518L97.71573604060914,238.54851722717285L88.83248730964468,186.5035915374756L79.94923857868021,255.06101846694946L71.06598984771574,253.2080626487732L62.18274111675127,238.59121799468994L53.2994923857868,251.54276847839355L44.41624365482234,222.72395610809326L35.53299492385787,210.91166496276855L26.6497461928934,223.73705863952637L17.766497461928935,195.21616458892822L8.883248730964468,188.57488632202148L0,207.34405517578125Z" fill="#666A86" opacity="0.15"/></g><g class="mark-line role-mark layer_3_marks" role="graphics-object" aria-roledescription="line mark container"><path aria-label="weekx: Jan 01, 2020; m_ur_1624: 11.2811508179" role="graphics-symbol" aria-roledescription="line mark" d="M0,190.7827377319336L8.883248730964468,145.47895431518555L17.766497461928935,160.45297622680664L26.6497461928934,166.77231788635254L35.53299492385787,128.46014499664307L44.41624365482234,203.52551937103271L53.2994923857868,218.7410831451416L62.18274111675127,227.50185012817383L71.06598984771574,211.16416454315186L79.94923857868021,116.81419372558592L88.83248730964468,157.61738777160645L97.71573604060914,192.63237476348877L106.5989847715736,183.5844898223877L115.48223350253807,159.96159553527832L124.36548223350253,220.05598068237305L133.24873096446703,209.9827766418457L142.13197969543148,239.6836280822754L151.01522842639594,169.33579444885254L159.89847715736042,238.06084156036377L168.78172588832487,188.03518295288086L177.66497461928935,169.25312519073486L186.5482233502538,157.72130012512207L195.4314720812183,151.56457901000977L204.31472081218274,139.1881227493286L213.1979695431472,147.82296180725098L222.08121827411168,155.76187133789062L230.96446700507613,126.72025680541992L239.8477157360406,144.37817573547363L248.73096446700507,119.64529037475586L257.61421319796955,139.96202945709229L266.49746192893406,168.07146549224854L275.3807106598985,108.39054107666016L284.26395939086296,131.8534755706787L293.1472081218274,155.40570259094238L302.0304568527919,169.69648361206055L310.9137055837564,164.6284818649292L319.79695431472084,156.57706260681152L328.6802030456853,147.98616886138916L337.56345177664974,160.39692878723145L355.3299492385787,157.1122169494629L364.21319796954316,163.31186771392822L373.0964467005076,190.0810718536377L381.97969543147207,145.61938762664795L390.8629441624366,214.5094871520996L399.74619289340103,226.86010837554932L408.6294416243655,177.94395446777344L417.51269035532994,216.85017585754395L426.3959390862944,198.935866355896L435.2791878172589,233.85310649871826L444.16243654822335,239.9758243560791L453.0456852791878,189.91868019104004L464.46700507614213,190.7827377319336L473.3502538071066,145.47895431518555L482.2335025380711,160.45297622680664L491.11675126903555,166.77231788635254L500,128.46014499664307" stroke="#666A86" stroke-width="1" stroke-dasharray="0,2,2" opacity="0.8"/></g><g class="mark-area role-mark layer_4_marks" role="graphics-object" aria-roledescription="area mark container"><path aria-label="weekx: Jan 01, 2020; max0: 15.4107675552; max_ur_1624: 15.4107675552" role="graphics-symbol" aria-roledescription="area mark" d="M0,128.83848667144775L8.883248730964468,112.47433662414552L17.766497461928935,115.09105682373047L26.6497461928934,121.71494007110597L35.53299492385787,64.38025474548341L44.41624365482234,110.65126419067381L53.2994923857868,147.60679721832275L62.18274111675127,127.32881069183348L71.06598984771574,147.98157691955566L79.94923857868021,73.78149032592773L88.83248730964468,128.09735298156738L97.71573604060914,167.6387357711792L106.5989847715736,164.59924221038818L115.48223350253807,149.31987762451172L124.36548223350253,123.13123226165771L133.24873096446703,154.85864639282227L142.13197969543148,144.40442562103271L151.01522842639594,132.4670934677124L159.89847715736042,170.35828113555908L168.78172588832487,123.66602897644043L177.66497461928935,103.0576229095459L186.5482233502538,128.95678997039795L195.4314720812183,85.46636581420898L204.31472081218274,104.10698890686037L213.1979695431472,115.85000038146973L222.08121827411168,77.6118278503418L230.96446700507613,103.40194702148438L239.8477157360406,90.56545257568358L248.73096446700507,30.572891235351562L257.61421319796955,84.88180160522461L266.49746192893406,129.4306468963623L275.3807106598985,82.78884887695312L284.26395939086296,118.4868049621582L293.1472081218274,121.34086132049562L302.0304568527919,146.67848110198975L310.9137055837564,108.23521614074707L319.79695431472084,123.84598731994629L328.6802030456853,128.48666667938232L337.56345177664974,115.26709556579588L355.3299492385787,96.12387657165529L364.21319796954316,94.47280883789062L373.0964467005076,93.27607154846191L381.97969543147207,126.35888099670412L390.8629441624366,135.54937362670898L399.74619289340103,154.21404361724854L408.6294416243655,113.41243743896483L417.51269035532994,145.99990367889404L426.3959390862944,130.5902624130249L435.2791878172589,101.62899971008301L444.16243654822335,144.27446365356445L453.0456852791878,124.45977687835692L464.46700507614213,128.83848667144775L473.3502538071066,112.47433662414552L482.2335025380711,115.09105682373047L491.11675126903555,121.71494007110597L500,64.38025474548341L500,64.38025474548341L491.11675126903555,121.71494007110597L482.2335025380711,115.09105682373047L473.3502538071066,112.47433662414552L464.46700507614213,128.83848667144775L453.0456852791878,124.45977687835692L444.16243654822335,144.27446365356445L435.2791878172589,101.62899971008301L426.3959390862944,164.47078227996826L417.51269035532994,152.4713373184204L408.6294416243655,113.41243743896483L399.74619289340103,170.88126182556152L390.8629441624366,135.54937362670898L381.97969543147207,129.04694080352783L373.0964467005076,124.24484252929686L364.21319796954316,115.01781463623047L355.3299492385787,96.12387657165529L337.56345177664974,135.1505470275879L328.6802030456853,136.19035720825195L319.79695431472084,123.84598731994629L310.9137055837564,150.25251388549805L302.0304568527919,160.55005073547363L293.1472081218274,121.34086132049562L284.26395939086296,121.63152694702148L275.3807106598985,82.78884887695312L266.49746192893406,146.54457092285156L257.61421319796955,84.88180160522461L248.73096446700507,87.65745162963867L239.8477157360406,90.56545257568358L230.96446700507613,103.40194702148438L222.08121827411168,77.6118278503418L213.1979695431472,126.94723606109619L204.31472081218274,104.10698890686037L195.4314720812183,85.46636581420898L186.5482233502538,128.95678997039795L177.66497461928935,103.0576229095459L168.78172588832487,123.66602897644043L159.89847715736042,170.35828113555908L151.01522842639594,132.4670934677124L142.13197969543148,144.40442562103271L133.24873096446703,154.85864639282227L124.36548223350253,123.13123226165771L115.48223350253807,149.31987762451172L106.5989847715736,164.59924221038818L97.71573604060914,167.6387357711792L88.83248730964468,128.09735298156738L79.94923857868021,73.78149032592773L71.06598984771574,147.98157691955566L62.18274111675127,127.32881069183348L53.2994923857868,147.60679721832275L44.41624365482234,110.65126419067381L35.53299492385787,64.38025474548341L26.6497461928934,121.71494007110597L17.766497461928935,115.09105682373047L8.883248730964468,112.47433662414552L0,128.83848667144775Z" fill="#36b7b4" opacity="0.3"/></g><g class="mark-area role-mark layer_5_marks" role="graphics-object" aria-roledescription="area mark container"><path aria-label="weekx: Jan 01, 2020; min0: 9.12491703033; min_ur_1624: 10.1770629883" role="graphics-symbol" aria-roledescription="area mark" d="M0,223.1262445449829L8.883248730964468,188.57488632202148L17.766497461928935,195.21616458892822L26.6497461928934,223.73705863952637L35.53299492385787,210.91166496276855L44.41624365482234,222.72395610809326L53.2994923857868,251.54276847839355L62.18274111675127,238.59121799468994L71.06598984771574,253.2080626487732L79.94923857868021,255.06101846694946L88.83248730964468,214.0785312652588L97.71573604060914,238.54851722717285L106.5989847715736,195.73635578155518L115.48223350253807,202.9648733139038L124.36548223350253,267.17162132263184L133.24873096446703,278.08223247528076L142.13197969543148,249.83013153076172L151.01522842639594,208.55486869812012L159.89847715736042,257.22394466400146L168.78172588832487,216.27907276153564L177.66497461928935,201.49526596069336L186.5482233502538,213.46132278442383L195.4314720812183,183.98860931396484L204.31472081218274,170.51326274871826L213.1979695431472,160.33883571624756L222.08121827411168,202.54408836364746L230.96446700507613,185.4336977005005L239.8477157360406,165.22200107574463L248.73096446700507,167.6063346862793L257.61421319796955,158.29556465148926L266.49746192893406,187.84016132354736L275.3807106598985,155.94451904296875L284.26395939086296,168.3758783340454L293.1472081218274,183.5553216934204L302.0304568527919,190.76758861541748L310.9137055837564,181.40976905822754L319.79695431472084,199.0528106689453L328.6802030456853,196.44760608673096L337.56345177664974,183.69183540344238L355.3299492385787,183.82352828979492L364.21319796954316,200.689959526062L373.0964467005076,246.04290962219238L381.97969543147207,235.9751272201538L390.8629441624366,225.77407836914062L399.74619289340103,228.50127696990967L408.6294416243655,231.8047285079956L417.51269035532994,225.02755165100098L426.3959390862944,226.54722690582275L435.2791878172589,249.58798170089722L444.16243654822335,275.9272813796997L453.0456852791878,244.998300075531L464.46700507614213,207.34405517578125L473.3502538071066,188.57488632202148L482.2335025380711,195.21616458892822L491.11675126903555,223.73705863952637L500,210.91166496276855L500,210.91166496276855L491.11675126903555,223.73705863952637L482.2335025380711,195.21616458892822L473.3502538071066,188.57488632202148L464.46700507614213,207.34405517578125L453.0456852791878,244.998300075531L444.16243654822335,275.9272813796997L435.2791878172589,249.58798170089722L426.3959390862944,226.54722690582275L417.51269035532994,225.02755165100098L408.6294416243655,231.8047285079956L399.74619289340103,228.50127696990967L390.8629441624366,225.77407836914062L381.97969543147207,235.9751272201538L373.0964467005076,246.04290962219238L364.21319796954316,200.689959526062L355.3299492385787,183.82352828979492L337.56345177664974,183.69183540344238L328.6802030456853,196.44760608673096L319.79695431472084,199.0528106689453L310.9137055837564,181.40976905822754L302.0304568527919,190.76758861541748L293.1472081218274,183.5553216934204L284.26395939086296,168.3758783340454L275.3807106598985,155.94451904296875L266.49746192893406,187.84016132354736L257.61421319796955,158.29556465148926L248.73096446700507,167.6063346862793L239.8477157360406,165.22200107574463L230.96446700507613,185.4336977005005L222.08121827411168,202.54408836364746L213.1979695431472,160.33883571624756L204.31472081218274,170.51326274871826L195.4314720812183,183.98860931396484L186.5482233502538,213.46132278442383L177.66497461928935,201.49526596069336L168.78172588832487,216.27907276153564L159.89847715736042,257.22394466400146L151.01522842639594,207.1561574935913L142.13197969543148,249.83013153076172L133.24873096446703,278.08223247528076L124.36548223350253,267.17162132263184L115.48223350253807,202.9648733139038L106.5989847715736,195.73635578155518L97.71573604060914,238.54851722717285L88.83248730964468,186.5035915374756L79.94923857868021,255.06101846694946L71.06598984771574,253.2080626487732L62.18274111675127,238.59121799468994L53.2994923857868,251.54276847839355L44.41624365482234,222.72395610809326L35.53299492385787,210.91166496276855L26.6497461928934,223.73705863952637L17.766497461928935,195.21616458892822L8.883248730964468,188.57488632202148L0,207.34405517578125Z" fill="#36b7b4" opacity="0.3"/></g><g class="mark-line role-mark layer_6_marks" role="graphics-object" aria-roledescription="line mark container"><path aria-label="weekx: Jan 01, 2020; ur_1624: 9.12491703033" role="graphics-symbol" aria-roledescription="line mark" d="M0,223.1262445449829L8.883248730964468,166.19805335998535L17.766497461928935,141.98225498199463L26.6497461928934,216.01385593414307L35.53299492385787,205.8219337463379L44.41624365482234,164.48388576507568L53.2994923857868,201.44052028656006L62.18274111675127,157.46858596801758L71.06598984771574,215.12389183044434L79.94923857868021,157.30490684509277L88.83248730964468,214.0785312652588L97.71573604060914,200.06700038909912L106.5989847715736,188.14579010009766L115.48223350253807,150.56445121765137L124.36548223350253,203.51629257202148L133.24873096446703,154.8629093170166L142.13197969543148,214.17418956756592L151.01522842639594,208.55486869812012L159.89847715736042,174.47389125823975L168.78172588832487,185.5924129486084L177.66497461928935,168.1506586074829L186.5482233502538,174.94458675384521L195.4314720812183,148.3640956878662L204.31472081218274,142.09412097930908L213.1979695431472,115.85000038146973L222.08121827411168,166.63304328918457L230.96446700507613,145.98631381988525L239.8477157360406,110.23338317871094L248.73096446700507,30.572891235351562L257.61421319796955,105.15260696411133L266.49746192893406,129.4306468963623L275.3807106598985,141.45265102386475L284.26395939086296,118.4868049621582L293.1472081218274,152.21450328826904L302.0304568527919,146.67848110198975L310.9137055837564,108.23521614074707L319.79695431472084,136.20526313781738L328.6802030456853,128.48666667938232L337.56345177664974,115.26709556579588L355.3299492385787,177.57360935211182L364.21319796954316,94.47280883789062L373.0964467005076,93.27607154846191L381.97969543147207,126.35888099670412L390.8629441624366,186.11329078674316L399.74619289340103,154.21404361724854L408.6294416243655,205.36325454711914L417.51269035532994,145.99990367889404L426.3959390862944,130.5902624130249L435.2791878172589,185.5402135848999L444.16243654822335,164.2965602874756L453.0456852791878,143.46622467041016L464.46700507614213,134.78693962097168L473.3502538071066,181.09777450561523L482.2335025380711,133.1290340423584L491.11675126903555,126.05841636657715L500,144.5304822921753" stroke="#36b7b4" stroke-width="2"/></g><g class="mark-text role-mark layer_7_marks" role="graphics-object" aria-roledescription="text mark container"><text aria-label="text: 2020; x: Oct 05, 2020; y: 18.5" role="graphics-symbol" aria-roledescription="text mark" text-anchor="start" transform="translate(352.79187817258884,80.5)" font-family="sans-serif" font-size="11px" font-weight="bold" fill="#36b7b4">2020</text></g><g class="mark-text role-mark layer_8_marks" role="graphics-object" aria-roledescription="text mark container"><text aria-label="text: 2015-2019 average; x: Oct 18, 2020; y: 6.4" role="graphics-symbol" aria-roledescription="text mark" text-anchor="start" transform="translate(369.28934010152284,262)" font-family="sans-serif" font-size="10px" font-weight="lighter" fill="#666A86">2015-2019 average</text></g><g class="mark-text role-mark layer_9_marks" role="graphics-object" aria-roledescription="text mark container"><text aria-label="text: and min-max range; x: Oct 18, 2020; y: 5.6" role="graphics-symbol" aria-roledescription="text mark" text-anchor="start" transform="translate(369.28934010152284,274)" font-family="sans-serif" font-size="10px" font-weight="lighter" fill="#666A86" opacity="0.5">and min-max range</text></g></g><path class="foreground" aria-hidden="true" d="" display="none"/></g></g></g></svg>