<svg xmlns="http://www.w3.org/2000/svg" xmlns:xlink="http://www.w3.org/1999/xlink" version="1.1" class="marks" width="514" height="342" viewBox="0 0 514 342"><rect width="514" height="342" fill="white"/><g fill="none" stroke-miterlimit="10" transform="translate(7,20)"><g class="mark-group role-frame root" role="graphics-object" aria-roledescription="group mark container"><g transform="translate(0,0)"><path class="background" aria-hidden="true" d="M0.5,0.5h500v300h-500Z" stroke="#ddd"/><g><g class="mark-group role-axis" aria-hidden="true"><g transform="translate(0.5,0.5)"><path class="background" aria-hidden="true" d="M0,0h0v0h0Z" pointer-events="none"/><g><g class="mark-rule role-axis-grid" pointer-events="none"><line transform="translate(0,300)" x2="500" y2="0" stroke="#ddd" stroke-width="1" opacity="1"/><line transform="translate(0,240)" x2="500" y2="0" stroke="#ddd" stroke-width="1" opacity="1"/><line transform="translate(0,180)" x2="500" y2="0" stroke="#ddd" stroke-width="1" opacity="1"/><line transform="translate(0,120)" x2="500" y2="0" stroke="#ddd" stroke-width="1" opacity="1"/><line transform="translate(0,60)" x2="500" y2="0" stroke="#ddd" stroke-width="1" opacity="1"/><line transform="translate(0,0)" x2="500" y2="0" stroke="#ddd" stroke-width="1" opacity="1"/></g></g><path class="foreground" aria-hidden="true" d="" pointer-events="none" display="none"/></g></g><g class="mark-group role-axis" role="graphics-symbol" aria-roledescription="axis" aria-label="X-axis for a time scale with values from Wednesday, 01 January 2020, 12:00:00 AM to Friday, 29 January 2021, 12:00:00 AM"><g transform="translate(0.5,300.5)"><path class="background" aria-hidden="true" d="M0,0h0v0h0Z" pointer-events="none"/><g><g class="mark-rule role-axis-tick" pointer-events="none"><line transform="translate(0,0)" x2="0" y2="5" stroke="#888" stroke-width="1" opacity="1"/><line transform="translate(39,0)" x2="0" y2="5" stroke="#888" stroke-width="1" opacity="1"/><line transform="translate(76,0)" x2="0" y2="5" stroke="#888" stroke-width="1" opacity="1"/><line transform="translate(115,0)" x2="0" y2="5" stroke="#888" stroke-width="1" opacity="1"/><line transform="translate(154,0)" x2="0" y2="5" stroke="#888" stroke-width="1" opacity="1"/><line transform="translate(193,0)" x2="0" y2="5" stroke="#888" stroke-width="1" opacity="1"/><line transform="translate(231,0)" x2="0" y2="5" stroke="#888" stroke-width="1" opacity="1"/><line transform="translate(270,0)" x2="0" y2="5" stroke="#888" stroke-width="1" opacity="1"/><line transform="translate(310,0)" x2="0" y2="5" stroke="#888" stroke-width="1" opacity="1"/><line transform="translate(348,0)" x2="0" y2="5" stroke="#888" stroke-width="1" opacity="1"/><line transform="translate(387,0)" x2="0" y2="5" stroke="#888" stroke-width="1" opacity="1"/><line transform="translate(425,0)" x2="0" y2="5" stroke="#888" stroke-width="1" opacity="1"/><line transform="translate(464,0)" x2="0" y2="5" stroke="#888" stroke-width="1" opacity="1"/></g><g class="mark-text role-axis-label" pointer-events="none"><text text-anchor="start" transform="translate(0,15)" font-family="sans-serif" font-size="10px" fill="#000" opacity="1">2020</text><text text-anchor="middle" transform="translate(39.34010152284264,15)" font-family="sans-serif" font-size="10px" fill="#000" opacity="0">February</text><text text-anchor="middle" transform="translate(76.14213197969544,15)" font-family="sans-serif" font-size="10px" fill="#000" opacity="1">March</text><text text-anchor="middle" transform="translate(115.48223350253807,15)" font-family="sans-serif" font-size="10px" fill="#000" opacity="0">April</text><text text-anchor="middle" transform="translate(153.55329949238578,15)" font-family="sans-serif" font-size="10px" fill="#000" opacity="1">May</text><text text-anchor="middle" transform="translate(192.89340101522842,15)" font-family="sans-serif" font-size="10px" fill="#000" opacity="0">June</text><text text-anchor="middle" transform="translate(230.96446700507613,15)" font-family="sans-serif" font-size="10px" fill="#000" opacity="1">July</text><text text-anchor="middle" transform="translate(270.3045685279188,15)" font-family="sans-serif" font-size="10px" fill="#000" opacity="0">August</text><text text-anchor="middle" transform="translate(309.6446700507614,15)" font-family="sans-serif" font-size="10px" fill="#000" opacity="1">September</text><text text-anchor="middle" transform="translate(347.7157360406091,15)" font-family="sans-serif" font-size="10px" fill="#000" opacity="0">October</text><text text-anchor="middle" transform="translate(387.0558375634518,15)" font-family="sans-serif" font-size="10px" fill="#000" opacity="1">November</text><text text-anchor="middle" transform="translate(425.12690355329954,15)" font-family="sans-serif" font-size="10px" fill="#000" opacity="0">December</text><text text-anchor="middle" transform="translate(464.46700507614213,15)" font-family="sans-serif" font-size="10px" fill="#000" opacity="1">2021</text></g><g class="mark-rule role-axis-domain" pointer-events="none"><line transform="translate(0,0)" x2="500" y2="0" stroke="#888" stroke-width="1" opacity="1"/></g></g><path class="foreground" aria-hidden="true" d="" pointer-events="none" display="none"/></g></g><g class="mark-group role-axis" role="graphics-symbol" aria-roledescription="axis" aria-label="Y-axis titled 'percent' for a linear scale with values from 2 to 7"><g transform="translate(0.5,0.5)"><path class="background" aria-hidden="true" d="M0,0h0v0h0Z" pointer-events="none"/><g><g class="mark-text role-axis-label" pointer-events="none"><text text-anchor="start" transform="translate(5,293)" font-family="sans-serif" font-size="10px" fill="#000" opacity="1">2</text><text text-anchor="start" transform="translate(5,233)" font-family="sans-serif" font-size="10px" fill="#000" opacity="1">3</text><text text-anchor="start" transform="translate(5,173)" font-family="sans-serif" font-size="10px" fill="#000" opacity="1">4</text><text text-anchor="start" transform="translate(5,113)" font-family="sans-serif" font-size="10px" fill="#000" opacity="1">5</text><text text-anchor="start" transform="translate(5,52.999999999999986)" font-family="sans-serif" font-size="10px" fill="#000" opacity="1">6</text><text text-anchor="start" transform="translate(5,-7)" font-family="sans-serif" font-size="10px" fill="#000" opacity="1">7</text></g><g class="mark-text role-axis-title" pointer-events="none"><text text-anchor="start" transform="translate(21,-7)" font-family="sans-serif" font-size="10px" font-weight="normal" fill="#000" opacity="1">percent</text></g></g><path class="foreground" aria-hidden="true" d="" pointer-events="none" display="none"/></g></g><g class="mark-rule role-mark layer_0_marks" role="graphics-object" aria-roledescription="rule mark container"><line aria-label="x: Jan 29, 2020" role="graphics-symbol" aria-roledescription="rule mark" transform="translate(35.53299492385787,0)" x2="0" y2="300" stroke="#666A86" stroke-width="1" stroke-dasharray="0,1,1" opacity="0.5"/><line aria-label="x: Mar 18, 2020" role="graphics-symbol" aria-roledescription="rule mark" transform="translate(97.71573604060914,0)" x2="0" y2="300" stroke="#666A86" stroke-width="1" stroke-dasharray="0,1,1" opacity="0.5"/></g><g class="mark-text role-mark layer_1_marks" role="graphics-object" aria-roledescription="text mark container"><text aria-label="text: ➡ First COVID-related death in the UK; x: Jan 29, 2020; y: 2.2" role="graphics-symbol" aria-roledescription="text mark" text-anchor="start" transform="translate(35.53299492385787,286)" font-family="sans-serif" font-size="10px" font-weight="lighter" fill="#666A86">➡ First COVID-related death in the UK</text><text aria-label="text: ➡ Start of first UK lockdown; x: Mar 18, 2020; y: 2.5" role="graphics-symbol" aria-roledescription="text mark" text-anchor="start" transform="translate(97.71573604060914,268)" font-family="sans-serif" font-size="10px" font-weight="lighter" fill="#666A86">➡ Start of first UK lockdown</text></g><g class="mark-area role-mark layer_2_marks" role="graphics-object" aria-roledescription="area mark container"><path aria-label="weekx: Jan 01, 2020; max_ur: 6; min_ur: 3.70006847382" role="graphics-symbol" aria-roledescription="area mark" d="M0,44.80442047119142L8.883248730964468,78.23452949523926L17.766497461928935,50.15522003173827L26.6497461928934,65.06715774536131L35.53299492385787,10.191621780395522L44.41624365482234,46.483097076416L53.2994923857868,85.23900032043457L62.18274111675127,100.00863075256348L71.06598984771574,95.27120590209961L79.94923857868021,28.655748367309563L88.83248730964468,30.879478454589837L97.71573604060914,120.19240379333496L106.5989847715736,55.112514495849595L115.48223350253807,109.7391414642334L124.36548223350253,83.33084106445312L133.24873096446703,127.60265350341797L142.13197969543148,108.76316070556642L151.01522842639594,99.26164627075195L159.89847715736042,105.89527130126955L168.78172588832487,111.24893188476561L177.66497461928935,102.39254951477051L186.5482233502538,72.5167465209961L195.4314720812183,107.34231948852539L204.31472081218274,75.10025024414062L213.1979695431472,72.74394035339355L222.08121827411168,81.55451774597167L230.96446700507613,67.82346725463866L239.8477157360406,69.30584907531738L248.73096446700507,44.53485488891601L257.61421319796955,27.624835968017592L266.49746192893406,100.90647697448729L275.3807106598985,60.791187286376946L284.26395939086296,91.56028747558594L293.1472081218274,72.41666793823242L302.0304568527919,78.92126083374025L310.9137055837564,85.78179359436035L319.79695431472084,50.18820762634277L328.6802030456853,99.38252449035645L337.56345177664974,88.9816188812256L355.3299492385787,48.284797668457024L364.21319796954316,70.19156455993654L373.0964467005076,122.67499923706053L381.97969543147207,132.96154975891113L390.8629441624366,113.71919631958008L399.74619289340103,150.6507682800293L408.6294416243655,98.45174789428712L417.51269035532994,128.37567329406738L426.3959390862944,113.20372581481932L435.2791878172589,91.22886657714844L444.16243654822335,86.76435470581055L453.0456852791878,129.59867477416992L464.46700507614213,44.80442047119142L473.3502538071066,78.23452949523926L482.2335025380711,50.15522003173827L491.11675126903555,65.06715774536131L500,10.191621780395522L500,174.68605041503906L491.11675126903555,180.2437448501587L482.2335025380711,187.2955083847046L473.3502538071066,168.98466110229492L464.46700507614213,197.99589157104492L453.0456852791878,257.2985601425171L444.16243654822335,243.5556936264038L435.2791878172589,242.78896808624268L426.3959390862944,202.43947505950928L417.51269035532994,219.20817375183105L408.6294416243655,218.0773401260376L399.74619289340103,231.1393404006958L390.8629441624366,204.47038650512695L381.97969543147207,194.89861965179443L373.0964467005076,215.9602689743042L364.21319796954316,190.18856048583984L355.3299492385787,174.74092483520508L337.56345177664974,198.55738162994385L328.6802030456853,149.6260929107666L319.79695431472084,200.9196424484253L310.9137055837564,174.0310764312744L302.0304568527919,192.79056072235107L293.1472081218274,182.38736629486084L284.26395939086296,176.49147033691406L275.3807106598985,165.00643730163574L266.49746192893406,182.84957885742188L257.61421319796955,188.77598762512207L248.73096446700507,169.88536834716797L239.8477157360406,144.10589218139648L230.96446700507613,193.96226406097412L222.08121827411168,146.4375114440918L213.1979695431472,193.18664073944092L204.31472081218274,167.1196460723877L195.4314720812183,171.34946823120117L186.5482233502538,196.3892126083374L177.66497461928935,187.48648166656494L168.78172588832487,220.23880004882812L159.89847715736042,233.19734573364258L151.01522842639594,194.27298545837402L142.13197969543148,230.94168663024902L133.24873096446703,214.52101707458496L124.36548223350253,224.1576862335205L115.48223350253807,184.5297145843506L106.5989847715736,201.96290016174316L97.71573604060914,207.22270488739014L88.83248730964468,162.71347045898438L79.94923857868021,235.14328479766846L71.06598984771574,151.99679374694824L62.18274111675127,217.46469497680664L53.2994923857868,177.72442817687988L44.41624365482234,189.29124355316162L35.53299492385787,174.68605041503906L26.6497461928934,180.2437448501587L17.766497461928935,187.2955083847046L8.883248730964468,168.98466110229492L0,197.99589157104492Z" fill="#666A86" opacity="0.15"/></g><g class="mark-line role-mark layer_3_marks" role="graphics-object" aria-roledescription="line mark container"><path aria-label="weekx: Jan 01, 2020; mean_ur: 4.79541301727" role="graphics-symbol" aria-roledescription="line mark" d="M0,132.27521896362305L8.883248730964468,115.69570541381837L17.766497461928935,136.27355575561523L26.6497461928934,128.5708236694336L35.53299492385787,132.82098770141602L44.41624365482234,156.6331958770752L53.2994923857868,106.36693954467773L62.18274111675127,165.22295951843262L71.06598984771574,129.3289089202881L79.94923857868021,68.45664024353029L88.83248730964468,121.11674308776854L97.71573604060914,145.78259468078613L106.5989847715736,166.78424835205078L115.48223350253807,131.49616241455078L124.36548223350253,174.9638557434082L133.24873096446703,187.22232341766357L142.13197969543148,162.379732131958L151.01522842639594,111.62664413452148L159.89847715736042,147.64532089233398L168.78172588832487,150.4002571105957L177.66497461928935,157.40655899047852L186.5482233502538,185.22894859313965L195.4314720812183,135.5112648010254L204.31472081218274,113.50988388061525L213.1979695431472,109.24429893493652L222.08121827411168,141.7031478881836L230.96446700507613,144.27695274353027L239.8477157360406,103.92803192138673L248.73096446700507,128.7934970855713L257.61421319796955,141.1915397644043L266.49746192893406,119.55182075500488L275.3807106598985,125.9351348876953L284.26395939086296,125.71440696716307L293.1472081218274,110.59475898742674L302.0304568527919,134.79869842529297L310.9137055837564,110.6316089630127L319.79695431472084,142.75691986083984L328.6802030456853,121.36802673339844L337.56345177664974,143.4008502960205L355.3299492385787,106.5743064880371L364.21319796954316,166.67716026306152L373.0964467005076,144.26210403442383L381.97969543147207,168.91307830810547L390.8629441624366,155.52289009094238L399.74619289340103,193.98443698883057L408.6294416243655,163.8522434234619L417.51269035532994,178.75897407531738L426.3959390862944,175.6472682952881L435.2791878172589,212.10070610046387L444.16243654822335,197.74703979492188L453.0456852791878,183.26027870178223L464.46700507614213,132.27521896362305L473.3502538071066,115.69570541381837L482.2335025380711,136.27355575561523L491.11675126903555,128.5708236694336L500,132.82098770141602" stroke="#666A86" stroke-width="1" stroke-dasharray="0,2,2" opacity="0.8"/></g><g class="mark-area role-mark layer_4_marks" role="graphics-object" aria-roledescription="area mark container"><path aria-label="weekx: Jan 01, 2020; max0: 6.25325965881; max_ur: 6.25325965881" role="graphics-symbol" aria-roledescription="area mark" d="M0,44.80442047119142L8.883248730964468,78.23452949523926L17.766497461928935,50.15522003173827L26.6497461928934,65.06715774536131L35.53299492385787,10.191621780395522L44.41624365482234,46.483097076416L53.2994923857868,85.23900032043457L62.18274111675127,100.00863075256348L71.06598984771574,95.27120590209961L79.94923857868021,28.655748367309563L88.83248730964468,30.879478454589837L97.71573604060914,120.19240379333496L106.5989847715736,55.112514495849595L115.48223350253807,109.7391414642334L124.36548223350253,83.33084106445312L133.24873096446703,127.60265350341797L142.13197969543148,108.76316070556642L151.01522842639594,99.26164627075195L159.89847715736042,105.89527130126955L168.78172588832487,111.24893188476561L177.66497461928935,102.39254951477051L186.5482233502538,72.5167465209961L195.4314720812183,107.34231948852539L204.31472081218274,75.10025024414062L213.1979695431472,72.74394035339355L222.08121827411168,81.55451774597167L230.96446700507613,67.82346725463866L239.8477157360406,69.30584907531738L248.73096446700507,44.53485488891601L257.61421319796955,27.624835968017592L266.49746192893406,100.90647697448729L275.3807106598985,60.791187286376946L284.26395939086296,91.56028747558594L293.1472081218274,72.41666793823242L302.0304568527919,78.92126083374025L310.9137055837564,85.78179359436035L319.79695431472084,50.18820762634277L328.6802030456853,99.38252449035645L337.56345177664974,88.9816188812256L355.3299492385787,48.284797668457024L364.21319796954316,70.19156455993654L373.0964467005076,48.21038246154785L381.97969543147207,74.14109230041504L390.8629441624366,113.71919631958008L399.74619289340103,135.24624824523926L408.6294416243655,98.45174789428712L417.51269035532994,79.66907501220703L426.3959390862944,113.20372581481932L435.2791878172589,91.22886657714844L444.16243654822335,86.76435470581055L453.0456852791878,129.59867477416992L464.46700507614213,44.80442047119142L473.3502538071066,78.23452949523926L482.2335025380711,50.15522003173827L491.11675126903555,65.06715774536131L500,10.191621780395522L500,10.191621780395522L491.11675126903555,65.06715774536131L482.2335025380711,50.15522003173827L473.3502538071066,78.23452949523926L464.46700507614213,44.80442047119142L453.0456852791878,129.59867477416992L444.16243654822335,86.76435470581055L435.2791878172589,91.22886657714844L426.3959390862944,113.20372581481932L417.51269035532994,128.37567329406738L408.6294416243655,98.45174789428712L399.74619289340103,150.6507682800293L390.8629441624366,113.71919631958008L381.97969543147207,132.96154975891113L373.0964467005076,122.67499923706053L364.21319796954316,70.19156455993654L355.3299492385787,48.284797668457024L337.56345177664974,88.9816188812256L328.6802030456853,99.38252449035645L319.79695431472084,50.18820762634277L310.9137055837564,85.78179359436035L302.0304568527919,78.92126083374025L293.1472081218274,72.41666793823242L284.26395939086296,91.56028747558594L275.3807106598985,60.791187286376946L266.49746192893406,100.90647697448729L257.61421319796955,27.624835968017592L248.73096446700507,44.53485488891601L239.8477157360406,69.30584907531738L230.96446700507613,67.82346725463866L222.08121827411168,81.55451774597167L213.1979695431472,72.74394035339355L204.31472081218274,75.10025024414062L195.4314720812183,107.34231948852539L186.5482233502538,72.5167465209961L177.66497461928935,102.39254951477051L168.78172588832487,111.24893188476561L159.89847715736042,105.89527130126955L151.01522842639594,99.26164627075195L142.13197969543148,108.76316070556642L133.24873096446703,127.60265350341797L124.36548223350253,83.33084106445312L115.48223350253807,109.7391414642334L106.5989847715736,55.112514495849595L97.71573604060914,120.19240379333496L88.83248730964468,30.879478454589837L79.94923857868021,28.655748367309563L71.06598984771574,95.27120590209961L62.18274111675127,100.00863075256348L53.2994923857868,85.23900032043457L44.41624365482234,46.483097076416L35.53299492385787,10.191621780395522L26.6497461928934,65.06715774536131L17.766497461928935,50.15522003173827L8.883248730964468,78.23452949523926L0,44.80442047119142Z" fill="#36b7b4" opacity="0.3"/></g><g class="mark-area role-mark layer_5_marks" role="graphics-object" aria-roledescription="area mark container"><path aria-label="weekx: Jan 01, 2020; min0: 3.70006847382; min_ur: 3.70006847382" role="graphics-symbol" aria-roledescription="area mark" d="M0,197.99589157104492L8.883248730964468,168.98466110229492L17.766497461928935,187.2955083847046L26.6497461928934,188.3759593963623L35.53299492385787,178.9943790435791L44.41624365482234,189.29124355316162L53.2994923857868,190.44078826904297L62.18274111675127,217.46469497680664L71.06598984771574,160.64532279968262L79.94923857868021,235.14328479766846L88.83248730964468,197.65501499176025L97.71573604060914,228.067946434021L106.5989847715736,218.3943271636963L115.48223350253807,184.5297145843506L124.36548223350253,224.1576862335205L133.24873096446703,214.52101707458496L142.13197969543148,230.94168663024902L151.01522842639594,212.76851177215576L159.89847715736042,233.19734573364258L168.78172588832487,220.23880004882812L177.66497461928935,187.48648166656494L186.5482233502538,196.3892126083374L195.4314720812183,171.34946823120117L204.31472081218274,167.1196460723877L213.1979695431472,193.18664073944092L222.08121827411168,230.91638088226318L230.96446700507613,193.96226406097412L239.8477157360406,144.10589218139648L248.73096446700507,169.88536834716797L257.61421319796955,188.77598762512207L266.49746192893406,182.84957885742188L275.3807106598985,165.00643730163574L284.26395939086296,176.49147033691406L293.1472081218274,182.38736629486084L302.0304568527919,192.79056072235107L310.9137055837564,174.0310764312744L319.79695431472084,200.9196424484253L328.6802030456853,149.6260929107666L337.56345177664974,198.55738162994385L355.3299492385787,174.74092483520508L364.21319796954316,190.18856048583984L373.0964467005076,215.9602689743042L381.97969543147207,194.89861965179443L390.8629441624366,204.47038650512695L399.74619289340103,231.1393404006958L408.6294416243655,218.0773401260376L417.51269035532994,219.20817375183105L426.3959390862944,202.43947505950928L435.2791878172589,242.78896808624268L444.16243654822335,243.5556936264038L453.0456852791878,257.2985601425171L464.46700507614213,197.99589157104492L473.3502538071066,168.98466110229492L482.2335025380711,187.2955083847046L491.11675126903555,180.2437448501587L500,174.68605041503906L500,174.68605041503906L491.11675126903555,180.2437448501587L482.2335025380711,187.2955083847046L473.3502538071066,168.98466110229492L464.46700507614213,197.99589157104492L453.0456852791878,257.2985601425171L444.16243654822335,243.5556936264038L435.2791878172589,242.78896808624268L426.3959390862944,202.43947505950928L417.51269035532994,219.20817375183105L408.6294416243655,218.0773401260376L399.74619289340103,231.1393404006958L390.8629441624366,204.47038650512695L381.97969543147207,194.89861965179443L373.0964467005076,215.9602689743042L364.21319796954316,190.18856048583984L355.3299492385787,174.74092483520508L337.56345177664974,198.55738162994385L328.6802030456853,149.6260929107666L319.79695431472084,200.9196424484253L310.9137055837564,174.0310764312744L302.0304568527919,192.79056072235107L293.1472081218274,182.38736629486084L284.26395939086296,176.49147033691406L275.3807106598985,165.00643730163574L266.49746192893406,182.84957885742188L257.61421319796955,188.77598762512207L248.73096446700507,169.88536834716797L239.8477157360406,144.10589218139648L230.96446700507613,193.96226406097412L222.08121827411168,146.4375114440918L213.1979695431472,193.18664073944092L204.31472081218274,167.1196460723877L195.4314720812183,171.34946823120117L186.5482233502538,196.3892126083374L177.66497461928935,187.48648166656494L168.78172588832487,220.23880004882812L159.89847715736042,233.19734573364258L151.01522842639594,194.27298545837402L142.13197969543148,230.94168663024902L133.24873096446703,214.52101707458496L124.36548223350253,224.1576862335205L115.48223350253807,184.5297145843506L106.5989847715736,201.96290016174316L97.71573604060914,207.22270488739014L88.83248730964468,162.71347045898438L79.94923857868021,235.14328479766846L71.06598984771574,151.99679374694824L62.18274111675127,217.46469497680664L53.2994923857868,177.72442817687988L44.41624365482234,189.29124355316162L35.53299492385787,174.68605041503906L26.6497461928934,180.2437448501587L17.766497461928935,187.2955083847046L8.883248730964468,168.98466110229492L0,197.99589157104492Z" fill="#36b7b4" opacity="0.3"/></g><g class="mark-line role-mark layer_6_marks" role="graphics-object" aria-roledescription="line mark container"><path aria-label="weekx: Jan 01, 2020; ur: 4.35413599014" role="graphics-symbol" aria-roledescription="line mark" d="M0,158.75184059143066L8.883248730964468,143.845796585083L17.766497461928935,166.71944618225098L26.6497461928934,188.3759593963623L35.53299492385787,178.9943790435791L44.41624365482234,183.76071453094482L53.2994923857868,190.44078826904297L62.18274111675127,140.89582443237305L71.06598984771574,160.64532279968262L79.94923857868021,159.69717979431152L88.83248730964468,197.65501499176025L97.71573604060914,228.067946434021L106.5989847715736,218.3943271636963L115.48223350253807,142.79019355773926L124.36548223350253,202.72855281829834L133.24873096446703,175.35295486450195L142.13197969543148,190.9109115600586L151.01522842639594,212.76851177215576L159.89847715736042,162.67807960510254L168.78172588832487,184.32908535003662L177.66497461928935,159.31955337524414L186.5482233502538,165.6071376800537L195.4314720812183,157.80126571655273L204.31472081218274,149.82321739196777L213.1979695431472,174.6823024749756L222.08121827411168,230.91638088226318L230.96446700507613,149.3415355682373L239.8477157360406,124.01381492614745L248.73096446700507,87.30048179626466L257.61421319796955,83.52710723876953L266.49746192893406,165.10594367980957L275.3807106598985,98.78866195678711L284.26395939086296,129.67755317687988L293.1472081218274,118.52877616882324L302.0304568527919,84.83244895935059L310.9137055837564,103.64336013793947L319.79695431472084,119.27335739135742L328.6802030456853,115.87514877319336L337.56345177664974,106.83643341064453L355.3299492385787,87.52404212951659L364.21319796954316,77.61480331420898L373.0964467005076,48.21038246154785L381.97969543147207,74.14109230041504L390.8629441624366,147.701997756958L399.74619289340103,135.24624824523926L408.6294416243655,145.90513229370117L417.51269035532994,79.66907501220703L426.3959390862944,130.41220664978027L435.2791878172589,109.21448707580568L444.16243654822335,148.9284610748291L453.0456852791878,153.6599636077881L464.46700507614213,83.02431106567383L473.3502538071066,88.64590644836426L482.2335025380711,143.0302333831787L491.11675126903555,85.16120910644531L500,109.78119850158691" stroke="#36b7b4" stroke-width="2"/></g><g class="mark-text role-mark layer_7_marks" role="graphics-object" aria-roledescription="text mark container"><text aria-label="text: 2020; x: Oct 05, 2020; y: 6.3" role="graphics-symbol" aria-roledescription="text mark" text-anchor="start" transform="translate(352.79187817258884,40.00000000000001)" font-family="sans-serif" font-size="11px" font-weight="bold" fill="#36b7b4">2020</text></g><g class="mark-text role-mark layer_8_marks" role="graphics-object" aria-roledescription="text mark container"><text aria-label="text: 2015-2019 average; x: Oct 18, 2020; y: 2.8" role="graphics-symbol" aria-roledescription="text mark" text-anchor="start" transform="translate(369.28934010152284,250.00000000000003)" font-family="sans-serif" font-size="10px" font-weight="lighter" fill="#666A86">2015-2019 average</text></g><g class="mark-text role-mark layer_9_marks" role="graphics-object" aria-roledescription="text mark container"><text aria-label="text: and min-max range; x: Oct 18, 2020; y: 2.6" role="graphics-symbol" aria-roledescription="text mark" text-anchor="start" transform="translate(369.28934010152284,262)" font-family="sans-serif" font-size="10px" font-weight="lighter" fill="#666A86" opacity="0.5">and min-max range</text></g></g><path class="foreground" aria-hidden="true" d="" display="none"/></g></g></g></svg>