<svg xmlns="http://www.w3.org/2000/svg" xmlns:xlink="http://www.w3.org/1999/xlink" version="1.1" class="marks" width="514" height="342" viewBox="0 0 514 342"><rect width="514" height="342" fill="white"/><g fill="none" stroke-miterlimit="10" transform="translate(7,20)"><g class="mark-group role-frame root" role="graphics-object" aria-roledescription="group mark container"><g transform="translate(0,0)"><path class="background" aria-hidden="true" d="M0.5,0.5h500v300h-500Z" stroke="#ddd"/><g><g class="mark-group role-axis" aria-hidden="true"><g transform="translate(0.5,0.5)"><path class="background" aria-hidden="true" d="M0,0h0v0h0Z" pointer-events="none"/><g><g class="mark-rule role-axis-grid" pointer-events="none"><line transform="translate(0,270)" x2="500" y2="0" stroke="#ddd" stroke-width="1" opacity="1"/><line transform="translate(0,210)" x2="500" y2="0" stroke="#ddd" stroke-width="1" opacity="1"/><line transform="translate(0,150)" x2="500" y2="0" stroke="#ddd" stroke-width="1" opacity="1"/><line transform="translate(0,90)" x2="500" y2="0" stroke="#ddd" stroke-width="1" opacity="1"/><line transform="translate(0,30)" x2="500" y2="0" stroke="#ddd" stroke-width="1" opacity="1"/></g></g><path class="foreground" aria-hidden="true" d="" pointer-events="none" display="none"/></g></g><g class="mark-group role-axis" role="graphics-symbol" aria-roledescription="axis" aria-label="X-axis for a time scale with values from Wednesday, 01 January 2020, 12:00:00 AM to Friday, 29 January 2021, 12:00:00 AM"><g transform="translate(0.5,300.5)"><path class="background" aria-hidden="true" d="M0,0h0v0h0Z" pointer-events="none"/><g><g class="mark-rule role-axis-tick" pointer-events="none"><line transform="translate(0,0)" x2="0" y2="5" stroke="#888" stroke-width="1" opacity="1"/><line transform="translate(39,0)" x2="0" y2="5" stroke="#888" stroke-width="1" opacity="1"/><line transform="translate(76,0)" x2="0" y2="5" stroke="#888" stroke-width="1" opacity="1"/><line transform="translate(115,0)" x2="0" y2="5" stroke="#888" stroke-width="1" opacity="1"/><line transform="translate(154,0)" x2="0" y2="5" stroke="#888" stroke-width="1" opacity="1"/><line transform="translate(193,0)" x2="0" y2="5" stroke="#888" stroke-width="1" opacity="1"/><line transform="translate(231,0)" x2="0" y2="5" stroke="#888" stroke-width="1" opacity="1"/><line transform="translate(270,0)" x2="0" y2="5" stroke="#888" stroke-width="1" opacity="1"/><line transform="translate(310,0)" x2="0" y2="5" stroke="#888" stroke-width="1" opacity="1"/><line transform="translate(348,0)" x2="0" y2="5" stroke="#888" stroke-width="1" opacity="1"/><line transform="translate(387,0)" x2="0" y2="5" stroke="#888" stroke-width="1" opacity="1"/><line transform="translate(425,0)" x2="0" y2="5" stroke="#888" stroke-width="1" opacity="1"/><line transform="translate(464,0)" x2="0" y2="5" stroke="#888" stroke-width="1" opacity="1"/></g><g class="mark-text role-axis-label" pointer-events="none"><text text-anchor="start" transform="translate(0,15)" font-family="sans-serif" font-size="10px" fill="#000" opacity="1">2020</text><text text-anchor="middle" transform="translate(39.34010152284264,15)" font-family="sans-serif" font-size="10px" fill="#000" opacity="0">February</text><text text-anchor="middle" transform="translate(76.14213197969544,15)" font-family="sans-serif" font-size="10px" fill="#000" opacity="1">March</text><text text-anchor="middle" transform="translate(115.48223350253807,15)" font-family="sans-serif" font-size="10px" fill="#000" opacity="0">April</text><text text-anchor="middle" transform="translate(153.55329949238578,15)" font-family="sans-serif" font-size="10px" fill="#000" opacity="1">May</text><text text-anchor="middle" transform="translate(192.89340101522842,15)" font-family="sans-serif" font-size="10px" fill="#000" opacity="0">June</text><text text-anchor="middle" transform="translate(230.96446700507613,15)" font-family="sans-serif" font-size="10px" fill="#000" opacity="1">July</text><text text-anchor="middle" transform="translate(270.3045685279188,15)" font-family="sans-serif" font-size="10px" fill="#000" opacity="0">August</text><text text-anchor="middle" transform="translate(309.6446700507614,15)" font-family="sans-serif" font-size="10px" fill="#000" opacity="1">September</text><text text-anchor="middle" transform="translate(347.7157360406091,15)" font-family="sans-serif" font-size="10px" fill="#000" opacity="0">October</text><text text-anchor="middle" transform="translate(387.0558375634518,15)" font-family="sans-serif" font-size="10px" fill="#000" opacity="1">November</text><text text-anchor="middle" transform="translate(425.12690355329954,15)" font-family="sans-serif" font-size="10px" fill="#000" opacity="0">December</text><text text-anchor="middle" transform="translate(464.46700507614213,15)" font-family="sans-serif" font-size="10px" fill="#000" opacity="1">2021</text></g><g class="mark-rule role-axis-domain" pointer-events="none"><line transform="translate(0,0)" x2="500" y2="0" stroke="#888" stroke-width="1" opacity="1"/></g></g><path class="foreground" aria-hidden="true" d="" pointer-events="none" display="none"/></g></g><g class="mark-group role-axis" role="graphics-symbol" aria-roledescription="axis" aria-label="Y-axis titled 'percent' for a linear scale with values from 3 to 8"><g transform="translate(0.5,0.5)"><path class="background" aria-hidden="true" d="M0,0h0v0h0Z" pointer-events="none"/><g><g class="mark-text role-axis-label" pointer-events="none"><text text-anchor="start" transform="translate(5,263)" font-family="sans-serif" font-size="10px" fill="#000" opacity="1">3</text><text text-anchor="start" transform="translate(5,203)" font-family="sans-serif" font-size="10px" fill="#000" opacity="1">4</text><text text-anchor="start" transform="translate(5,143)" font-family="sans-serif" font-size="10px" fill="#000" opacity="1">5</text><text text-anchor="start" transform="translate(5,83.00000000000001)" font-family="sans-serif" font-size="10px" fill="#000" opacity="1">6</text><text text-anchor="start" transform="translate(5,22.999999999999993)" font-family="sans-serif" font-size="10px" fill="#000" opacity="1">7</text></g><g class="mark-text role-axis-title" pointer-events="none"><text text-anchor="start" transform="translate(21,-7)" font-family="sans-serif" font-size="10px" font-weight="normal" fill="#000" opacity="1">percent</text></g></g><path class="foreground" aria-hidden="true" d="" pointer-events="none" display="none"/></g></g><g class="mark-rule role-mark layer_0_marks" role="graphics-object" aria-roledescription="rule mark container"><line aria-label="x: Jan 29, 2020" role="graphics-symbol" aria-roledescription="rule mark" transform="translate(35.53299492385787,0)" x2="0" y2="300" stroke="#666A86" stroke-width="1" stroke-dasharray="0,1,1" opacity="0.5"/><line aria-label="x: Mar 18, 2020" role="graphics-symbol" aria-roledescription="rule mark" transform="translate(97.71573604060914,0)" x2="0" y2="300" stroke="#666A86" stroke-width="1" stroke-dasharray="0,1,1" opacity="0.5"/></g><g class="mark-text role-mark layer_1_marks" role="graphics-object" aria-roledescription="text mark container"><text aria-label="text: ➡ First COVID-related death in the UK; x: Jan 29, 2020; y: 2.65" role="graphics-symbol" aria-roledescription="text mark" text-anchor="start" transform="translate(35.53299492385787,289)" font-family="sans-serif" font-size="10px" font-weight="lighter" fill="#666A86">➡ First COVID-related death in the UK</text><text aria-label="text: ➡ Start of first UK lockdown; x: Mar 18, 2020; y: 3.1" role="graphics-symbol" aria-roledescription="text mark" text-anchor="start" transform="translate(97.71573604060914,262)" font-family="sans-serif" font-size="10px" font-weight="lighter" fill="#666A86">➡ Start of first UK lockdown</text></g><g class="mark-area role-mark layer_2_marks" role="graphics-object" aria-roledescription="area mark container"><path aria-label="weekx: Jan 01, 2020; max_temp: 6; min_temp: 4.65529060364" role="graphics-symbol" aria-roledescription="area mark" d="M0,107.07630157470705L8.883248730964468,90.00174522399902L17.766497461928935,46.41368865966796L26.6497461928934,119.13379669189455L35.53299492385787,112.08352088928224L44.41624365482234,138.82241249084473L53.2994923857868,108.43849182128906L62.18274111675127,80.20643234252931L71.06598984771574,87.0175838470459L79.94923857868021,142.83631324768066L88.83248730964468,112.35091209411621L97.71573604060914,80.55459022521971L106.5989847715736,148.82277488708496L115.48223350253807,142.37749099731445L124.36548223350253,112.72759437561035L133.24873096446703,112.50357627868652L142.13197969543148,96.10593795776367L151.01522842639594,100.49800872802734L159.89847715736042,134.7341251373291L168.78172588832487,65.42830467224121L177.66497461928935,112.72293090820311L186.5482233502538,104.59527969360352L195.4314720812183,107.01516151428223L204.31472081218274,80.72064399719238L213.1979695431472,69.92611885070801L222.08121827411168,71.47610664367676L230.96446700507613,102.28122711181642L239.8477157360406,89.48681831359863L248.73096446700507,98.88876914978029L257.61421319796955,94.13586616516112L266.49746192893406,68.91494750976561L275.3807106598985,69.26816940307619L284.26395939086296,71.0599136352539L293.1472081218274,89.05892372131348L302.0304568527919,93.15261840820312L310.9137055837564,135.04334449768066L319.79695431472084,72.24969863891602L328.6802030456853,96.32268905639647L337.56345177664974,95.0950813293457L355.3299492385787,123.0293083190918L364.21319796954316,80.2053451538086L373.0964467005076,88.28418731689453L381.97969543147207,108.7320613861084L390.8629441624366,99.66779708862303L399.74619289340103,76.49688720703125L408.6294416243655,90.58413505554199L417.51269035532994,73.80300521850585L426.3959390862944,109.59288597106934L435.2791878172589,83.54799270629883L444.16243654822335,29.395236968994155L453.0456852791878,106.61247253417969L464.46700507614213,107.07630157470705L473.3502538071066,90.00174522399902L482.2335025380711,46.41368865966796L491.11675126903555,119.13379669189455L500,112.08352088928224L500,158.32569122314453L491.11675126903555,204.3745994567871L482.2335025380711,188.89989852905273L473.3502538071066,159.87107276916504L464.46700507614213,170.68256378173828L453.0456852791878,197.87761688232422L444.16243654822335,199.76932525634766L435.2791878172589,127.29689598083496L426.3959390862944,146.32976531982422L417.51269035532994,171.88353538513184L408.6294416243655,170.96454620361328L399.74619289340103,233.39577198028564L390.8629441624366,217.5051212310791L381.97969543147207,208.74515533447266L373.0964467005076,228.35643768310547L364.21319796954316,238.63464832305908L355.3299492385787,202.14117050170898L337.56345177664974,213.57098579406738L328.6802030456853,197.58539199829102L319.79695431472084,213.65487098693848L310.9137055837564,203.60069274902344L302.0304568527919,169.98516082763672L293.1472081218274,192.74771690368652L284.26395939086296,171.72245979309082L275.3807106598985,186.00025177001953L266.49746192893406,174.79548454284668L257.61421319796955,141.78025245666504L248.73096446700507,199.53128814697266L239.8477157360406,181.0605239868164L230.96446700507613,204.44214820861816L222.08121827411168,224.8752737045288L213.1979695431472,198.58363151550293L204.31472081218274,168.84418487548828L195.4314720812183,170.59598922729492L186.5482233502538,204.72593307495117L177.66497461928935,213.14033031463623L168.78172588832487,191.71051025390625L159.89847715736042,195.79153060913086L151.01522842639594,201.61059379577637L142.13197969543148,222.8718137741089L133.24873096446703,231.33240222930908L124.36548223350253,189.24445152282715L115.48223350253807,228.00672054290771L106.5989847715736,200.8824062347412L97.71573604060914,143.57033729553223L88.83248730964468,177.48693466186523L79.94923857868021,243.42859268188477L71.06598984771574,218.5583782196045L62.18274111675127,203.29676628112793L53.2994923857868,202.67443656921387L44.41624365482234,204.38040733337402L35.53299492385787,158.32569122314453L26.6497461928934,204.3745994567871L17.766497461928935,188.89989852905273L8.883248730964468,159.87107276916504L0,170.68256378173828Z" fill="#666A86" opacity="0.15"/></g><g class="mark-line role-mark layer_3_marks" role="graphics-object" aria-roledescription="line mark container"><path aria-label="weekx: Jan 01, 2020; m_temp: 5.12513828278" role="graphics-symbol" aria-roledescription="line mark" d="M0,142.49170303344727L8.883248730964468,122.02491760253906L17.766497461928935,148.50568771362305L26.6497461928934,179.19965744018555L35.53299492385787,124.31797027587892L44.41624365482234,148.90854835510254L53.2994923857868,143.17171096801758L62.18274111675127,106.55868530273438L71.06598984771574,153.27415466308594L79.94923857868021,187.82655715942383L88.83248730964468,135.90957641601562L97.71573604060914,126.52773857116699L106.5989847715736,190.05183219909668L115.48223350253807,170.87825775146484L124.36548223350253,161.51103973388672L133.24873096446703,149.07414436340332L142.13197969543148,134.78259086608887L151.01522842639594,159.77983474731445L159.89847715736042,158.0903434753418L168.78172588832487,110.21484375000001L177.66497461928935,168.32857131958008L186.5482233502538,159.94462966918945L195.4314720812183,153.0592918395996L204.31472081218274,129.55052375793457L213.1979695431472,157.44458198547363L222.08121827411168,141.15477561950684L230.96446700507613,124.90839958190918L239.8477157360406,142.04269409179688L248.73096446700507,129.5566463470459L257.61421319796955,122.58888244628905L266.49746192893406,149.3668270111084L275.3807106598985,120.728759765625L284.26395939086296,121.7892837524414L293.1472081218274,160.9138011932373L302.0304568527919,165.55277824401855L310.9137055837564,162.84602165222168L319.79695431472084,161.8860626220703L328.6802030456853,152.12016105651855L337.56345177664974,175.4922580718994L355.3299492385787,156.6609764099121L364.21319796954316,172.5432586669922L373.0964467005076,134.21396255493164L381.97969543147207,178.240385055542L390.8629441624366,121.997652053833L399.74619289340103,117.99459457397461L408.6294416243655,164.11474227905273L417.51269035532994,147.87365913391113L426.3959390862944,130.80279350280762L435.2791878172589,106.25856399536133L444.16243654822335,141.0849094390869L453.0456852791878,153.1908416748047L464.46700507614213,142.49170303344727L473.3502538071066,122.02491760253906L482.2335025380711,148.50568771362305L491.11675126903555,179.19965744018555L500,124.31797027587892" stroke="#666A86" stroke-width="1" stroke-dasharray="0,2,2" opacity="0.8"/></g><g class="mark-area role-mark layer_4_marks" role="graphics-object" aria-roledescription="area mark container"><path aria-label="weekx: Jan 01, 2020; max0: 5.71539497375; max_temp: 5.71539497375" role="graphics-symbol" aria-roledescription="area mark" d="M0,107.07630157470705L8.883248730964468,90.00174522399902L17.766497461928935,46.41368865966796L26.6497461928934,119.13379669189455L35.53299492385787,112.08352088928224L44.41624365482234,136.3033676147461L53.2994923857868,108.43849182128906L62.18274111675127,80.20643234252931L71.06598984771574,87.0175838470459L79.94923857868021,142.83631324768066L88.83248730964468,112.35091209411621L97.71573604060914,80.55459022521971L106.5989847715736,148.82277488708496L115.48223350253807,142.37749099731445L124.36548223350253,112.72759437561035L133.24873096446703,112.50357627868652L142.13197969543148,96.10593795776367L151.01522842639594,100.49800872802734L159.89847715736042,134.7341251373291L168.78172588832487,65.42830467224121L177.66497461928935,112.72293090820311L186.5482233502538,104.59527969360352L195.4314720812183,107.01516151428223L204.31472081218274,80.72064399719238L213.1979695431472,69.92611885070801L222.08121827411168,71.47610664367676L230.96446700507613,102.28122711181642L239.8477157360406,89.48681831359863L248.73096446700507,98.88876914978029L257.61421319796955,94.13586616516112L266.49746192893406,68.91494750976561L275.3807106598985,69.26816940307619L284.26395939086296,71.0599136352539L293.1472081218274,89.05892372131348L302.0304568527919,93.15261840820312L310.9137055837564,135.04334449768066L319.79695431472084,72.24969863891602L328.6802030456853,96.32268905639647L337.56345177664974,95.0950813293457L355.3299492385787,123.0293083190918L364.21319796954316,80.2053451538086L373.0964467005076,88.28418731689453L381.97969543147207,108.7320613861084L390.8629441624366,99.66779708862303L399.74619289340103,76.49688720703125L408.6294416243655,90.58413505554199L417.51269035532994,73.80300521850585L426.3959390862944,109.59288597106934L435.2791878172589,83.54799270629883L444.16243654822335,29.395236968994155L453.0456852791878,106.61247253417969L464.46700507614213,107.07630157470705L473.3502538071066,90.00174522399902L482.2335025380711,46.41368865966796L491.11675126903555,119.13379669189455L500,112.08352088928224L500,112.08352088928224L491.11675126903555,119.13379669189455L482.2335025380711,46.41368865966796L473.3502538071066,90.00174522399902L464.46700507614213,107.07630157470705L453.0456852791878,106.61247253417969L444.16243654822335,29.395236968994155L435.2791878172589,83.54799270629883L426.3959390862944,109.59288597106934L417.51269035532994,73.80300521850585L408.6294416243655,90.58413505554199L399.74619289340103,76.49688720703125L390.8629441624366,99.66779708862303L381.97969543147207,108.7320613861084L373.0964467005076,88.28418731689453L364.21319796954316,80.2053451538086L355.3299492385787,123.0293083190918L337.56345177664974,95.0950813293457L328.6802030456853,96.32268905639647L319.79695431472084,72.24969863891602L310.9137055837564,135.04334449768066L302.0304568527919,93.15261840820312L293.1472081218274,89.05892372131348L284.26395939086296,71.0599136352539L275.3807106598985,69.26816940307619L266.49746192893406,68.91494750976561L257.61421319796955,94.13586616516112L248.73096446700507,98.88876914978029L239.8477157360406,89.48681831359863L230.96446700507613,102.28122711181642L222.08121827411168,71.47610664367676L213.1979695431472,69.92611885070801L204.31472081218274,80.72064399719238L195.4314720812183,107.01516151428223L186.5482233502538,104.59527969360352L177.66497461928935,112.72293090820311L168.78172588832487,65.42830467224121L159.89847715736042,134.7341251373291L151.01522842639594,100.49800872802734L142.13197969543148,96.10593795776367L133.24873096446703,112.50357627868652L124.36548223350253,112.72759437561035L115.48223350253807,142.37749099731445L106.5989847715736,148.82277488708496L97.71573604060914,80.55459022521971L88.83248730964468,112.35091209411621L79.94923857868021,142.83631324768066L71.06598984771574,87.0175838470459L62.18274111675127,80.20643234252931L53.2994923857868,108.43849182128906L44.41624365482234,138.82241249084473L35.53299492385787,112.08352088928224L26.6497461928934,119.13379669189455L17.766497461928935,46.41368865966796L8.883248730964468,90.00174522399902L0,107.07630157470705Z" fill="#36b7b4" opacity="0.3"/></g><g class="mark-area role-mark layer_5_marks" role="graphics-object" aria-roledescription="area mark container"><path aria-label="weekx: Jan 01, 2020; min0: 4.19099760056; min_temp: 4.65529060364" role="graphics-symbol" aria-roledescription="area mark" d="M0,198.5401439666748L8.883248730964468,187.6599884033203L17.766497461928935,199.62261199951172L26.6497461928934,204.3745994567871L35.53299492385787,200.60686111450195L44.41624365482234,204.38040733337402L53.2994923857868,202.67443656921387L62.18274111675127,203.29676628112793L71.06598984771574,218.5583782196045L79.94923857868021,243.42859268188477L88.83248730964468,177.48693466186523L97.71573604060914,206.27992630004883L106.5989847715736,200.8824062347412L115.48223350253807,228.00672054290771L124.36548223350253,189.24445152282715L133.24873096446703,231.33240222930908L142.13197969543148,222.8718137741089L151.01522842639594,201.61059379577637L159.89847715736042,195.79153060913086L168.78172588832487,191.71051025390625L177.66497461928935,213.14033031463623L186.5482233502538,204.72593307495117L195.4314720812183,170.59598922729492L204.31472081218274,168.84418487548828L213.1979695431472,198.58363151550293L222.08121827411168,224.8752737045288L230.96446700507613,204.44214820861816L239.8477157360406,181.0605239868164L248.73096446700507,263.99455547332764L257.61421319796955,141.78025245666504L266.49746192893406,174.79548454284668L275.3807106598985,186.00025177001953L284.26395939086296,171.72245979309082L293.1472081218274,192.74771690368652L302.0304568527919,169.98516082763672L310.9137055837564,203.60069274902344L319.79695431472084,213.65487098693848L328.6802030456853,197.58539199829102L337.56345177664974,213.57098579406738L355.3299492385787,202.14117050170898L364.21319796954316,238.63464832305908L373.0964467005076,228.35643768310547L381.97969543147207,208.74515533447266L390.8629441624366,217.5051212310791L399.74619289340103,233.39577198028564L408.6294416243655,170.96454620361328L417.51269035532994,171.88353538513184L426.3959390862944,146.32976531982422L435.2791878172589,151.61913871765137L444.16243654822335,199.76932525634766L453.0456852791878,197.87761688232422L464.46700507614213,170.68256378173828L473.3502538071066,188.58592987060547L482.2335025380711,188.89989852905273L491.11675126903555,222.77963161468506L500,158.32569122314453L500,158.32569122314453L491.11675126903555,204.3745994567871L482.2335025380711,188.89989852905273L473.3502538071066,159.87107276916504L464.46700507614213,170.68256378173828L453.0456852791878,197.87761688232422L444.16243654822335,199.76932525634766L435.2791878172589,127.29689598083496L426.3959390862944,146.32976531982422L417.51269035532994,171.88353538513184L408.6294416243655,170.96454620361328L399.74619289340103,233.39577198028564L390.8629441624366,217.5051212310791L381.97969543147207,208.74515533447266L373.0964467005076,228.35643768310547L364.21319796954316,238.63464832305908L355.3299492385787,202.14117050170898L337.56345177664974,213.57098579406738L328.6802030456853,197.58539199829102L319.79695431472084,213.65487098693848L310.9137055837564,203.60069274902344L302.0304568527919,169.98516082763672L293.1472081218274,192.74771690368652L284.26395939086296,171.72245979309082L275.3807106598985,186.00025177001953L266.49746192893406,174.79548454284668L257.61421319796955,141.78025245666504L248.73096446700507,199.53128814697266L239.8477157360406,181.0605239868164L230.96446700507613,204.44214820861816L222.08121827411168,224.8752737045288L213.1979695431472,198.58363151550293L204.31472081218274,168.84418487548828L195.4314720812183,170.59598922729492L186.5482233502538,204.72593307495117L177.66497461928935,213.14033031463623L168.78172588832487,191.71051025390625L159.89847715736042,195.79153060913086L151.01522842639594,201.61059379577637L142.13197969543148,222.8718137741089L133.24873096446703,231.33240222930908L124.36548223350253,189.24445152282715L115.48223350253807,228.00672054290771L106.5989847715736,200.8824062347412L97.71573604060914,143.57033729553223L88.83248730964468,177.48693466186523L79.94923857868021,243.42859268188477L71.06598984771574,218.5583782196045L62.18274111675127,203.29676628112793L53.2994923857868,202.67443656921387L44.41624365482234,204.38040733337402L35.53299492385787,158.32569122314453L26.6497461928934,204.3745994567871L17.766497461928935,188.89989852905273L8.883248730964468,159.87107276916504L0,170.68256378173828Z" fill="#36b7b4" opacity="0.3"/></g><g class="mark-line role-mark layer_6_marks" role="graphics-object" aria-roledescription="line mark container"><path aria-label="weekx: Jan 01, 2020; temp: 4.19099760056" role="graphics-symbol" aria-roledescription="line mark" d="M0,198.5401439666748L8.883248730964468,187.6599884033203L17.766497461928935,199.62261199951172L26.6497461928934,169.60979461669922L35.53299492385787,200.60686111450195L44.41624365482234,136.3033676147461L53.2994923857868,154.75750923156738L62.18274111675127,159.2552089691162L71.06598984771574,121.15954399108888L79.94923857868021,168.33612442016602L88.83248730964468,142.37926483154297L97.71573604060914,206.27992630004883L106.5989847715736,183.23999404907227L115.48223350253807,199.53180313110352L124.36548223350253,168.53602409362793L133.24873096446703,220.061616897583L142.13197969543148,166.44498825073242L151.01522842639594,174.1871166229248L159.89847715736042,166.66202545166016L168.78172588832487,162.08908081054688L177.66497461928935,155.04435539245605L186.5482233502538,150.00226020812988L195.4314720812183,165.6203842163086L204.31472081218274,153.09585571289062L213.1979695431472,155.08031845092773L222.08121827411168,193.42975616455078L230.96446700507613,178.90637397766113L239.8477157360406,175.75839042663574L248.73096446700507,263.99455547332764L257.61421319796955,121.02012634277344L266.49746192893406,137.40880966186523L275.3807106598985,154.03607368469238L284.26395939086296,167.4839687347412L293.1472081218274,176.54654502868652L302.0304568527919,166.46538734436035L310.9137055837564,166.81629180908203L319.79695431472084,169.0377902984619L328.6802030456853,172.85018920898438L337.56345177664974,199.1872787475586L355.3299492385787,148.1092929840088L364.21319796954316,167.48834609985352L373.0964467005076,220.12454509735107L381.97969543147207,141.31908416748047L390.8629441624366,170.62271118164062L399.74619289340103,155.4796028137207L408.6294416243655,169.7307014465332L417.51269035532994,121.82710647583008L426.3959390862944,115.17943382263185L435.2791878172589,151.61913871765137L444.16243654822335,119.33850288391115L453.0456852791878,178.055419921875L464.46700507614213,122.34472274780275L473.3502538071066,188.58592987060547L482.2335025380711,128.21279525756836L491.11675126903555,222.77963161468506L500,133.8229751586914" stroke="#36b7b4" stroke-width="2"/></g><g class="mark-text role-mark layer_7_marks" role="graphics-object" aria-roledescription="text mark container"><text aria-label="text: 2020; x: Jul 21, 2020; y: 3.4" role="graphics-symbol" aria-roledescription="text mark" text-anchor="start" transform="translate(256.3451776649746,244.00000000000003)" font-family="sans-serif" font-size="11px" font-weight="bold" fill="#36b7b4">2020</text></g><g class="mark-text role-mark layer_8_marks" role="graphics-object" aria-roledescription="text mark container"><text aria-label="text: 2015-2019 average; x: Sep 18, 2020; y: 6.52" role="graphics-symbol" aria-roledescription="text mark" text-anchor="start" transform="translate(331.21827411167516,56.80000000000002)" font-family="sans-serif" font-size="10px" font-weight="lighter" fill="#666A86">2015-2019 average</text></g><g class="mark-text role-mark layer_9_marks" role="graphics-object" aria-roledescription="text mark container"><text aria-label="text: and min-max range; x: Sep 18, 2020; y: 6.3" role="graphics-symbol" aria-roledescription="text mark" text-anchor="start" transform="translate(331.21827411167516,70)" font-family="sans-serif" font-size="10px" font-weight="lighter" fill="#666A86" opacity="0.5">and min-max range</text></g></g><path class="foreground" aria-hidden="true" d="" display="none"/></g></g></g></svg>