<svg xmlns="http://www.w3.org/2000/svg" xmlns:xlink="http://www.w3.org/1999/xlink" version="1.1" class="marks" width="514" height="342" viewBox="0 0 514 342"><rect width="514" height="342" fill="white"/><g fill="none" stroke-miterlimit="10" transform="translate(7,20)"><g class="mark-group role-frame root" role="graphics-object" aria-roledescription="group mark container"><g transform="translate(0,0)"><path class="background" aria-hidden="true" d="M0.5,0.5h500v300h-500Z" stroke="#ddd"/><g><g class="mark-group role-axis" aria-hidden="true"><g transform="translate(0.5,0.5)"><path class="background" aria-hidden="true" d="M0,0h0v0h0Z" pointer-events="none"/><g><g class="mark-rule role-axis-grid" pointer-events="none"><line transform="translate(0,300)" x2="500" y2="0" stroke="#ddd" stroke-width="1" opacity="1"/><line transform="translate(0,225)" x2="500" y2="0" stroke="#ddd" stroke-width="1" opacity="1"/><line transform="translate(0,150)" x2="500" y2="0" stroke="#ddd" stroke-width="1" opacity="1"/><line transform="translate(0,75)" x2="500" y2="0" stroke="#ddd" stroke-width="1" opacity="1"/><line transform="translate(0,0)" x2="500" y2="0" stroke="#ddd" stroke-width="1" opacity="1"/></g></g><path class="foreground" aria-hidden="true" d="" pointer-events="none" display="none"/></g></g><g class="mark-group role-axis" role="graphics-symbol" aria-roledescription="axis" aria-label="X-axis for a time scale with values from Wednesday, 01 January 2020, 12:00:00 AM to Friday, 29 January 2021, 12:00:00 AM"><g transform="translate(0.5,300.5)"><path class="background" aria-hidden="true" d="M0,0h0v0h0Z" pointer-events="none"/><g><g class="mark-rule role-axis-tick" pointer-events="none"><line transform="translate(0,0)" x2="0" y2="5" stroke="#888" stroke-width="1" opacity="1"/><line transform="translate(39,0)" x2="0" y2="5" stroke="#888" stroke-width="1" opacity="1"/><line transform="translate(76,0)" x2="0" y2="5" stroke="#888" stroke-width="1" opacity="1"/><line transform="translate(115,0)" x2="0" y2="5" stroke="#888" stroke-width="1" opacity="1"/><line transform="translate(154,0)" x2="0" y2="5" stroke="#888" stroke-width="1" opacity="1"/><line transform="translate(193,0)" x2="0" y2="5" stroke="#888" stroke-width="1" opacity="1"/><line transform="translate(231,0)" x2="0" y2="5" stroke="#888" stroke-width="1" opacity="1"/><line transform="translate(270,0)" x2="0" y2="5" stroke="#888" stroke-width="1" opacity="1"/><line transform="translate(310,0)" x2="0" y2="5" stroke="#888" stroke-width="1" opacity="1"/><line transform="translate(348,0)" x2="0" y2="5" stroke="#888" stroke-width="1" opacity="1"/><line transform="translate(387,0)" x2="0" y2="5" stroke="#888" stroke-width="1" opacity="1"/><line transform="translate(425,0)" x2="0" y2="5" stroke="#888" stroke-width="1" opacity="1"/><line transform="translate(464,0)" x2="0" y2="5" stroke="#888" stroke-width="1" opacity="1"/></g><g class="mark-text role-axis-label" pointer-events="none"><text text-anchor="start" transform="translate(0,15)" font-family="sans-serif" font-size="10px" fill="#000" opacity="1">2020</text><text text-anchor="middle" transform="translate(39.34010152284264,15)" font-family="sans-serif" font-size="10px" fill="#000" opacity="0">February</text><text text-anchor="middle" transform="translate(76.14213197969544,15)" font-family="sans-serif" font-size="10px" fill="#000" opacity="1">March</text><text text-anchor="middle" transform="translate(115.48223350253807,15)" font-family="sans-serif" font-size="10px" fill="#000" opacity="0">April</text><text text-anchor="middle" transform="translate(153.55329949238578,15)" font-family="sans-serif" font-size="10px" fill="#000" opacity="1">May</text><text text-anchor="middle" transform="translate(192.89340101522842,15)" font-family="sans-serif" font-size="10px" fill="#000" opacity="0">June</text><text text-anchor="middle" transform="translate(230.96446700507613,15)" font-family="sans-serif" font-size="10px" fill="#000" opacity="1">July</text><text text-anchor="middle" transform="translate(270.3045685279188,15)" font-family="sans-serif" font-size="10px" fill="#000" opacity="0">August</text><text text-anchor="middle" transform="translate(309.6446700507614,15)" font-family="sans-serif" font-size="10px" fill="#000" opacity="1">September</text><text text-anchor="middle" transform="translate(347.7157360406091,15)" font-family="sans-serif" font-size="10px" fill="#000" opacity="0">October</text><text text-anchor="middle" transform="translate(387.0558375634518,15)" font-family="sans-serif" font-size="10px" fill="#000" opacity="1">November</text><text text-anchor="middle" transform="translate(425.12690355329954,15)" font-family="sans-serif" font-size="10px" fill="#000" opacity="0">December</text><text text-anchor="middle" transform="translate(464.46700507614213,15)" font-family="sans-serif" font-size="10px" fill="#000" opacity="1">2021</text></g><g class="mark-rule role-axis-domain" pointer-events="none"><line transform="translate(0,0)" x2="500" y2="0" stroke="#888" stroke-width="1" opacity="1"/></g></g><path class="foreground" aria-hidden="true" d="" pointer-events="none" display="none"/></g></g><g class="mark-group role-axis" role="graphics-symbol" aria-roledescription="axis" aria-label="Y-axis titled 'percent' for a linear scale with values from 10 to 18"><g transform="translate(0.5,0.5)"><path class="background" aria-hidden="true" d="M0,0h0v0h0Z" pointer-events="none"/><g><g class="mark-text role-axis-label" pointer-events="none"><text text-anchor="start" transform="translate(5,293)" font-family="sans-serif" font-size="10px" fill="#000" opacity="1">10</text><text text-anchor="start" transform="translate(5,218)" font-family="sans-serif" font-size="10px" fill="#000" opacity="1">12</text><text text-anchor="start" transform="translate(5,143)" font-family="sans-serif" font-size="10px" fill="#000" opacity="1">14</text><text text-anchor="start" transform="translate(5,68)" font-family="sans-serif" font-size="10px" fill="#000" opacity="1">16</text><text text-anchor="start" transform="translate(5,-7)" font-family="sans-serif" font-size="10px" fill="#000" opacity="1">18</text></g><g class="mark-text role-axis-title" pointer-events="none"><text text-anchor="start" transform="translate(21,-7)" font-family="sans-serif" font-size="10px" font-weight="normal" fill="#000" opacity="1">percent</text></g></g><path class="foreground" aria-hidden="true" d="" pointer-events="none" display="none"/></g></g><g class="mark-rule role-mark layer_0_marks" role="graphics-object" aria-roledescription="rule mark container"><line aria-label="x: Jan 29, 2020" role="graphics-symbol" aria-roledescription="rule mark" transform="translate(35.53299492385787,0)" x2="0" y2="300" stroke="#666A86" stroke-width="1" stroke-dasharray="0,1,1" opacity="0.5"/><line aria-label="x: Mar 18, 2020" role="graphics-symbol" aria-roledescription="rule mark" transform="translate(97.71573604060914,0)" x2="0" y2="300" stroke="#666A86" stroke-width="1" stroke-dasharray="0,1,1" opacity="0.5"/></g><g class="mark-text role-mark layer_1_marks" role="graphics-object" aria-roledescription="text mark container"><text aria-label="text: ➡ First COVID-related death in the UK; x: Jan 29, 2020; y: 10.3" role="graphics-symbol" aria-roledescription="text mark" text-anchor="start" transform="translate(35.53299492385787,286.75)" font-family="sans-serif" font-size="10px" font-weight="lighter" fill="#666A86">➡ First COVID-related death in the UK</text><text aria-label="text: ➡ Start of first UK lockdown; x: Mar 18, 2020; y: 10.9" role="graphics-symbol" aria-roledescription="text mark" text-anchor="start" transform="translate(97.71573604060914,264.25)" font-family="sans-serif" font-size="10px" font-weight="lighter" fill="#666A86">➡ Start of first UK lockdown</text></g><g class="mark-area role-mark layer_2_marks" role="graphics-object" aria-roledescription="area mark container"><path aria-label="weekx: Jan 01, 2020; max_self: 15; min_self: 12.6732740402" role="graphics-symbol" aria-roledescription="area mark" d="M0,108.54896306991577L8.883248730964468,110.42368412017822L17.766497461928935,112.42532730102539L26.6497461928934,94.57039833068848L35.53299492385787,124.99791383743286L44.41624365482234,124.33387041091919L53.2994923857868,132.576584815979L62.18274111675127,144.23503875732422L71.06598984771574,103.62153053283691L79.94923857868021,114.92249965667725L88.83248730964468,50.28805732727051L97.71573604060914,107.11029767990112L106.5989847715736,93.16856861114502L115.48223350253807,90.89963436126709L124.36548223350253,101.61981582641602L133.24873096446703,132.5648546218872L142.13197969543148,103.36453914642334L151.01522842639594,134.59646701812744L159.89847715736042,117.80115365982056L168.78172588832487,54.37431335449219L177.66497461928935,86.35647296905518L186.5482233502538,102.35803127288818L195.4314720812183,95.73326110839844L204.31472081218274,96.3119387626648L213.1979695431472,118.2435393333435L222.08121827411168,122.2937822341919L230.96446700507613,115.15932083129883L239.8477157360406,137.39558458328247L248.73096446700507,89.75980281829834L257.61421319796955,117.35780239105225L266.49746192893406,69.43953037261963L275.3807106598985,103.18493843078613L284.26395939086296,137.43456602096558L293.1472081218274,130.9274196624756L302.0304568527919,100.0173568725586L310.9137055837564,96.49686813354492L319.79695431472084,72.23668098449707L328.6802030456853,86.94158792495728L337.56345177664974,61.45462989807129L355.3299492385787,112.19369173049927L364.21319796954316,140.11813402175903L373.0964467005076,125.44505596160889L381.97969543147207,112.59609460830688L390.8629441624366,45.46165466308594L399.74619289340103,63.55390548706055L408.6294416243655,73.27373027801514L417.51269035532994,59.880924224853516L426.3959390862944,114.6024227142334L435.2791878172589,129.50913906097412L444.16243654822335,70.70174217224121L453.0456852791878,77.9487133026123L464.46700507614213,108.54896306991577L473.3502538071066,110.42368412017822L482.2335025380711,112.42532730102539L491.11675126903555,94.57039833068848L500,124.99791383743286L500,209.52222347259521L491.11675126903555,188.55693340301514L482.2335025380711,159.25354957580566L473.3502538071066,178.2606840133667L464.46700507614213,199.7522234916687L453.0456852791878,172.30428457260132L444.16243654822335,204.82850074768066L435.2791878172589,159.75290536880493L426.3959390862944,230.73760271072388L417.51269035532994,174.49722290039062L408.6294416243655,154.46984767913818L399.74619289340103,212.10733652114868L390.8629441624366,171.57987356185913L381.97969543147207,144.97203826904297L373.0964467005076,204.9251675605774L364.21319796954316,216.14574193954468L355.3299492385787,186.76611185073853L337.56345177664974,158.7099552154541L328.6802030456853,195.10620832443237L319.79695431472084,196.09683752059937L310.9137055837564,167.57640838623047L302.0304568527919,175.1026153564453L293.1472081218274,198.1980800628662L284.26395939086296,208.33804607391357L275.3807106598985,204.8457384109497L266.49746192893406,153.7927508354187L257.61421319796955,234.83941555023193L248.73096446700507,145.3421115875244L239.8477157360406,237.1770143508911L230.96446700507613,140.9343123435974L222.08121827411168,164.14486169815063L213.1979695431472,189.40311670303345L204.31472081218274,144.74633932113647L195.4314720812183,156.794536113739L186.5482233502538,178.82362604141235L177.66497461928935,165.29395580291748L168.78172588832487,161.19396686553955L159.89847715736042,190.83770513534546L151.01522842639594,148.62245321273804L142.13197969543148,153.4882664680481L133.24873096446703,214.98799324035645L124.36548223350253,242.46346950531006L115.48223350253807,178.39200496673584L106.5989847715736,169.61292028427124L97.71573604060914,159.6329927444458L88.83248730964468,208.76001119613647L79.94923857868021,196.81777954101562L71.06598984771574,198.3684539794922L62.18274111675127,172.28808403015137L53.2994923857868,254.2064666748047L44.41624365482234,191.16722345352173L35.53299492385787,209.52222347259521L26.6497461928934,188.55693340301514L17.766497461928935,159.25354957580566L8.883248730964468,178.2606840133667L0,199.7522234916687Z" fill="#666A86" opacity="0.15"/></g><g class="mark-line role-mark layer_3_marks" role="graphics-object" aria-roledescription="line mark container"><path aria-label="weekx: Jan 01, 2020; m_self: 14.0157146454" role="graphics-symbol" aria-roledescription="line mark" d="M0,149.41070079803467L8.883248730964468,155.09029626846313L17.766497461928935,155.65778017044067L26.6497461928934,140.36768674850464L35.53299492385787,161.86702251434326L44.41624365482234,181.4867377281189L53.2994923857868,197.77679443359375L62.18274111675127,147.27351665496826L71.06598984771574,127.90045738220215L79.94923857868021,156.20834827423096L88.83248730964468,151.42239332199097L97.71573604060914,133.22746753692627L106.5989847715736,134.036386013031L115.48223350253807,141.7790651321411L124.36548223350253,147.93291091918945L133.24873096446703,178.5650610923767L142.13197969543148,140.11523723602295L151.01522842639594,143.18904876708984L159.89847715736042,139.9401068687439L168.78172588832487,145.0976014137268L177.66497461928935,116.2527322769165L186.5482233502538,120.85579633712769L195.4314720812183,129.1043758392334L204.31472081218274,120.12866735458374L213.1979695431472,127.77822017669678L222.08121827411168,130.94308376312256L230.96446700507613,130.66874742507935L239.8477157360406,153.82461547851562L248.73096446700507,127.17171907424927L257.61421319796955,213.49217891693115L266.49746192893406,134.77227687835693L275.3807106598985,175.60837268829346L284.26395939086296,160.04040241241455L293.1472081218274,178.671133518219L302.0304568527919,157.05889463424683L310.9137055837564,149.59834814071655L319.79695431472084,182.64130353927612L328.6802030456853,149.23957586288452L337.56345177664974,143.88753175735474L355.3299492385787,137.77202367782593L364.21319796954316,170.4347848892212L373.0964467005076,157.75169134140015L381.97969543147207,117.46770143508911L390.8629441624366,84.38858985900879L399.74619289340103,146.31457328796387L408.6294416243655,128.96132469177246L417.51269035532994,122.37049341201782L426.3959390862944,134.6476435661316L435.2791878172589,132.67425298690796L444.16243654822335,105.2198052406311L453.0456852791878,130.63323497772217L464.46700507614213,149.41070079803467L473.3502538071066,155.09029626846313L482.2335025380711,155.65778017044067L491.11675126903555,140.36768674850464L500,161.86702251434326" stroke="#666A86" stroke-width="1" stroke-dasharray="0,2,2" opacity="0.8"/></g><g class="mark-area role-mark layer_4_marks" role="graphics-object" aria-roledescription="area mark container"><path aria-label="weekx: Jan 01, 2020; max0: 15.1053609848; max_self: 15.1053609848" role="graphics-symbol" aria-roledescription="area mark" d="M0,108.54896306991577L8.883248730964468,110.42368412017822L17.766497461928935,112.42532730102539L26.6497461928934,94.57039833068848L35.53299492385787,124.99791383743286L44.41624365482234,116.41101837158203L53.2994923857868,132.576584815979L62.18274111675127,144.23503875732422L71.06598984771574,103.62153053283691L79.94923857868021,114.92249965667725L88.83248730964468,50.28805732727051L97.71573604060914,107.11029767990112L106.5989847715736,91.06782674789429L115.48223350253807,90.89963436126709L124.36548223350253,101.61981582641602L133.24873096446703,132.5648546218872L142.13197969543148,103.36453914642334L151.01522842639594,134.59646701812744L159.89847715736042,117.80115365982056L168.78172588832487,54.37431335449219L177.66497461928935,86.35647296905518L186.5482233502538,102.35803127288818L195.4314720812183,95.73326110839844L204.31472081218274,96.3119387626648L213.1979695431472,118.2435393333435L222.08121827411168,110.33531427383423L230.96446700507613,115.15932083129883L239.8477157360406,137.39558458328247L248.73096446700507,89.75980281829834L257.61421319796955,117.35780239105225L266.49746192893406,69.43953037261963L275.3807106598985,103.18493843078613L284.26395939086296,137.43456602096558L293.1472081218274,130.9274196624756L302.0304568527919,100.0173568725586L310.9137055837564,96.49686813354492L319.79695431472084,72.23668098449707L328.6802030456853,86.94158792495728L337.56345177664974,61.45462989807129L355.3299492385787,112.19369173049927L364.21319796954316,140.11813402175903L373.0964467005076,125.44505596160889L381.97969543147207,112.59609460830688L390.8629441624366,45.46165466308594L399.74619289340103,63.55390548706055L408.6294416243655,73.27373027801514L417.51269035532994,59.880924224853516L426.3959390862944,114.6024227142334L435.2791878172589,129.50913906097412L444.16243654822335,70.70174217224121L453.0456852791878,77.9487133026123L464.46700507614213,108.54896306991577L473.3502538071066,110.42368412017822L482.2335025380711,112.42532730102539L491.11675126903555,94.57039833068848L500,124.99791383743286L500,124.99791383743286L491.11675126903555,94.57039833068848L482.2335025380711,112.42532730102539L473.3502538071066,110.42368412017822L464.46700507614213,108.54896306991577L453.0456852791878,77.9487133026123L444.16243654822335,70.70174217224121L435.2791878172589,129.50913906097412L426.3959390862944,114.6024227142334L417.51269035532994,59.880924224853516L408.6294416243655,73.27373027801514L399.74619289340103,63.55390548706055L390.8629441624366,45.46165466308594L381.97969543147207,112.59609460830688L373.0964467005076,125.44505596160889L364.21319796954316,140.11813402175903L355.3299492385787,112.19369173049927L337.56345177664974,61.45462989807129L328.6802030456853,86.94158792495728L319.79695431472084,72.23668098449707L310.9137055837564,96.49686813354492L302.0304568527919,100.0173568725586L293.1472081218274,130.9274196624756L284.26395939086296,137.43456602096558L275.3807106598985,103.18493843078613L266.49746192893406,69.43953037261963L257.61421319796955,117.35780239105225L248.73096446700507,89.75980281829834L239.8477157360406,137.39558458328247L230.96446700507613,115.15932083129883L222.08121827411168,122.2937822341919L213.1979695431472,118.2435393333435L204.31472081218274,96.3119387626648L195.4314720812183,95.73326110839844L186.5482233502538,102.35803127288818L177.66497461928935,86.35647296905518L168.78172588832487,54.37431335449219L159.89847715736042,117.80115365982056L151.01522842639594,134.59646701812744L142.13197969543148,103.36453914642334L133.24873096446703,132.5648546218872L124.36548223350253,101.61981582641602L115.48223350253807,90.89963436126709L106.5989847715736,93.16856861114502L97.71573604060914,107.11029767990112L88.83248730964468,50.28805732727051L79.94923857868021,114.92249965667725L71.06598984771574,103.62153053283691L62.18274111675127,144.23503875732422L53.2994923857868,132.576584815979L44.41624365482234,124.33387041091919L35.53299492385787,124.99791383743286L26.6497461928934,94.57039833068848L17.766497461928935,112.42532730102539L8.883248730964468,110.42368412017822L0,108.54896306991577Z" fill="#36b7b4" opacity="0.3"/></g><g class="mark-area role-mark layer_5_marks" role="graphics-object" aria-roledescription="area mark container"><path aria-label="weekx: Jan 01, 2020; min0: 12.6732740402; min_self: 12.6732740402" role="graphics-symbol" aria-roledescription="area mark" d="M0,199.7522234916687L8.883248730964468,178.2606840133667L17.766497461928935,185.63790321350098L26.6497461928934,194.1741943359375L35.53299492385787,209.52222347259521L44.41624365482234,191.16722345352173L53.2994923857868,254.2064666748047L62.18274111675127,172.28808403015137L71.06598984771574,198.3684539794922L79.94923857868021,196.81777954101562L88.83248730964468,208.76001119613647L97.71573604060914,164.42549228668213L106.5989847715736,169.61292028427124L115.48223350253807,186.59605979919434L124.36548223350253,242.46346950531006L133.24873096446703,214.98799324035645L142.13197969543148,202.04064846038818L151.01522842639594,172.16033935546875L159.89847715736042,190.83770513534546L168.78172588832487,161.19396686553955L177.66497461928935,165.29395580291748L186.5482233502538,178.82362604141235L195.4314720812183,156.794536113739L204.31472081218274,223.95308017730713L213.1979695431472,193.86416673660278L222.08121827411168,164.14486169815063L230.96446700507613,195.03092765808105L239.8477157360406,237.1770143508911L248.73096446700507,168.60369443893433L257.61421319796955,254.07907962799072L266.49746192893406,220.0169563293457L275.3807106598985,204.8457384109497L284.26395939086296,212.7105474472046L293.1472081218274,198.1980800628662L302.0304568527919,175.1026153564453L310.9137055837564,167.57640838623047L319.79695431472084,233.24739933013916L328.6802030456853,213.82112503051758L337.56345177664974,158.7099552154541L355.3299492385787,186.76611185073853L364.21319796954316,216.14574193954468L373.0964467005076,223.3120322227478L381.97969543147207,255.33363819122314L390.8629441624366,209.17006731033325L399.74619289340103,212.10733652114868L408.6294416243655,182.9326629638672L417.51269035532994,174.49722290039062L426.3959390862944,230.73760271072388L435.2791878172589,208.22921991348267L444.16243654822335,252.44300365447998L453.0456852791878,253.51552963256836L464.46700507614213,199.7522234916687L473.3502538071066,202.810800075531L482.2335025380711,167.57673025131226L491.11675126903555,227.40987539291382L500,237.5067114830017L500,209.52222347259521L491.11675126903555,188.55693340301514L482.2335025380711,159.25354957580566L473.3502538071066,178.2606840133667L464.46700507614213,199.7522234916687L453.0456852791878,172.30428457260132L444.16243654822335,204.82850074768066L435.2791878172589,159.75290536880493L426.3959390862944,230.73760271072388L417.51269035532994,174.49722290039062L408.6294416243655,154.46984767913818L399.74619289340103,212.10733652114868L390.8629441624366,171.57987356185913L381.97969543147207,144.97203826904297L373.0964467005076,204.9251675605774L364.21319796954316,216.14574193954468L355.3299492385787,186.76611185073853L337.56345177664974,158.7099552154541L328.6802030456853,195.10620832443237L319.79695431472084,196.09683752059937L310.9137055837564,167.57640838623047L302.0304568527919,175.1026153564453L293.1472081218274,198.1980800628662L284.26395939086296,208.33804607391357L275.3807106598985,204.8457384109497L266.49746192893406,153.7927508354187L257.61421319796955,234.83941555023193L248.73096446700507,145.3421115875244L239.8477157360406,237.1770143508911L230.96446700507613,140.9343123435974L222.08121827411168,164.14486169815063L213.1979695431472,189.40311670303345L204.31472081218274,144.74633932113647L195.4314720812183,156.794536113739L186.5482233502538,178.82362604141235L177.66497461928935,165.29395580291748L168.78172588832487,161.19396686553955L159.89847715736042,190.83770513534546L151.01522842639594,148.62245321273804L142.13197969543148,153.4882664680481L133.24873096446703,214.98799324035645L124.36548223350253,242.46346950531006L115.48223350253807,178.39200496673584L106.5989847715736,169.61292028427124L97.71573604060914,159.6329927444458L88.83248730964468,208.76001119613647L79.94923857868021,196.81777954101562L71.06598984771574,198.3684539794922L62.18274111675127,172.28808403015137L53.2994923857868,254.2064666748047L44.41624365482234,191.16722345352173L35.53299492385787,209.52222347259521L26.6497461928934,188.55693340301514L17.766497461928935,159.25354957580566L8.883248730964468,178.2606840133667L0,199.7522234916687Z" fill="#36b7b4" opacity="0.3"/></g><g class="mark-line role-mark layer_6_marks" role="graphics-object" aria-roledescription="line mark container"><path aria-label="weekx: Jan 01, 2020; self: 14.3144416809" role="graphics-symbol" aria-roledescription="line mark" d="M0,138.20843696594238L8.883248730964468,118.6307430267334L17.766497461928935,185.63790321350098L26.6497461928934,194.1741943359375L35.53299492385787,159.58271026611328L44.41624365482234,116.41101837158203L53.2994923857868,134.50051546096802L62.18274111675127,159.91491079330444L71.06598984771574,157.78613090515137L79.94923857868021,140.7699465751648L88.83248730964468,130.39008378982544L97.71573604060914,164.42549228668213L106.5989847715736,91.06782674789429L115.48223350253807,186.59605979919434L124.36548223350253,155.10098934173584L133.24873096446703,195.27132511138916L142.13197969543148,202.04064846038818L151.01522842639594,172.16033935546875L159.89847715736042,117.98951625823975L168.78172588832487,152.30026245117188L177.66497461928935,154.02270555496216L186.5482233502538,154.6507716178894L195.4314720812183,134.3295693397522L204.31472081218274,223.95308017730713L213.1979695431472,193.86416673660278L222.08121827411168,110.33531427383423L230.96446700507613,195.03092765808105L239.8477157360406,199.9393343925476L248.73096446700507,168.60369443893433L257.61421319796955,254.07907962799072L266.49746192893406,220.0169563293457L275.3807106598985,190.31059741973877L284.26395939086296,212.7105474472046L293.1472081218274,143.76883506774902L302.0304568527919,161.28137111663818L310.9137055837564,153.22086811065674L319.79695431472084,233.24739933013916L328.6802030456853,213.82112503051758L337.56345177664974,145.1074719429016L355.3299492385787,174.65121746063232L364.21319796954316,213.1830096244812L373.0964467005076,223.3120322227478L381.97969543147207,255.33363819122314L390.8629441624366,209.17006731033325L399.74619289340103,185.24640798568726L408.6294416243655,182.9326629638672L417.51269035532994,165.08724689483643L426.3959390862944,180.35448789596558L435.2791878172589,208.22921991348267L444.16243654822335,252.44300365447998L453.0456852791878,253.51552963256836L464.46700507614213,186.34679317474365L473.3502538071066,202.810800075531L482.2335025380711,167.57673025131226L491.11675126903555,227.40987539291382L500,237.5067114830017" stroke="#36b7b4" stroke-width="2"/></g><g class="mark-text role-mark layer_7_marks" role="graphics-object" aria-roledescription="text mark container"><text aria-label="text: 2020; x: Oct 05, 2020; y: 10.9" role="graphics-symbol" aria-roledescription="text mark" text-anchor="start" transform="translate(352.79187817258884,264.25)" font-family="sans-serif" font-size="11px" font-weight="bold" fill="#36b7b4">2020</text></g><g class="mark-text role-mark layer_8_marks" role="graphics-object" aria-roledescription="text mark container"><text aria-label="text: 2015-2019 average; x: Oct 18, 2020; y: 17.2" role="graphics-symbol" aria-roledescription="text mark" text-anchor="start" transform="translate(369.28934010152284,28.00000000000003)" font-family="sans-serif" font-size="10px" font-weight="lighter" fill="#666A86">2015-2019 average</text></g><g class="mark-text role-mark layer_9_marks" role="graphics-object" aria-roledescription="text mark container"><text aria-label="text: and min-max range; x: Oct 18, 2020; y: 16.8" role="graphics-symbol" aria-roledescription="text mark" text-anchor="start" transform="translate(369.28934010152284,42.99999999999997)" font-family="sans-serif" font-size="10px" font-weight="lighter" fill="#666A86" opacity="0.5">and min-max range</text></g></g><path class="foreground" aria-hidden="true" d="" display="none"/></g></g></g></svg>