<svg xmlns="http://www.w3.org/2000/svg" xmlns:xlink="http://www.w3.org/1999/xlink" version="1.1" class="marks" width="514" height="342" viewBox="0 0 514 342"><rect width="514" height="342" fill="white"/><g fill="none" stroke-miterlimit="10" transform="translate(7,20)"><g class="mark-group role-frame root" role="graphics-object" aria-roledescription="group mark container"><g transform="translate(0,0)"><path class="background" aria-hidden="true" d="M0.5,0.5h500v300h-500Z" stroke="#ddd"/><g><g class="mark-group role-axis" aria-hidden="true"><g transform="translate(0.5,0.5)"><path class="background" aria-hidden="true" d="M0,0h0v0h0Z" pointer-events="none"/><g><g class="mark-rule role-axis-grid" pointer-events="none"><line transform="translate(0,300)" x2="500" y2="0" stroke="#ddd" stroke-width="1" opacity="1"/><line transform="translate(0,240)" x2="500" y2="0" stroke="#ddd" stroke-width="1" opacity="1"/><line transform="translate(0,180)" x2="500" y2="0" stroke="#ddd" stroke-width="1" opacity="1"/><line transform="translate(0,120)" x2="500" y2="0" stroke="#ddd" stroke-width="1" opacity="1"/><line transform="translate(0,60)" x2="500" y2="0" stroke="#ddd" stroke-width="1" opacity="1"/><line transform="translate(0,0)" x2="500" y2="0" stroke="#ddd" stroke-width="1" opacity="1"/></g></g><path class="foreground" aria-hidden="true" d="" pointer-events="none" display="none"/></g></g><g class="mark-group role-axis" role="graphics-symbol" aria-roledescription="axis" aria-label="X-axis for a time scale with values from Wednesday, 01 January 2020, 12:00:00 AM to Friday, 29 January 2021, 12:00:00 AM"><g transform="translate(0.5,300.5)"><path class="background" aria-hidden="true" d="M0,0h0v0h0Z" pointer-events="none"/><g><g class="mark-rule role-axis-tick" pointer-events="none"><line transform="translate(0,0)" x2="0" y2="5" stroke="#888" stroke-width="1" opacity="1"/><line transform="translate(39,0)" x2="0" y2="5" stroke="#888" stroke-width="1" opacity="1"/><line transform="translate(76,0)" x2="0" y2="5" stroke="#888" stroke-width="1" opacity="1"/><line transform="translate(115,0)" x2="0" y2="5" stroke="#888" stroke-width="1" opacity="1"/><line transform="translate(154,0)" x2="0" y2="5" stroke="#888" stroke-width="1" opacity="1"/><line transform="translate(193,0)" x2="0" y2="5" stroke="#888" stroke-width="1" opacity="1"/><line transform="translate(231,0)" x2="0" y2="5" stroke="#888" stroke-width="1" opacity="1"/><line transform="translate(270,0)" x2="0" y2="5" stroke="#888" stroke-width="1" opacity="1"/><line transform="translate(310,0)" x2="0" y2="5" stroke="#888" stroke-width="1" opacity="1"/><line transform="translate(348,0)" x2="0" y2="5" stroke="#888" stroke-width="1" opacity="1"/><line transform="translate(387,0)" x2="0" y2="5" stroke="#888" stroke-width="1" opacity="1"/><line transform="translate(425,0)" x2="0" y2="5" stroke="#888" stroke-width="1" opacity="1"/><line transform="translate(464,0)" x2="0" y2="5" stroke="#888" stroke-width="1" opacity="1"/></g><g class="mark-text role-axis-label" pointer-events="none"><text text-anchor="start" transform="translate(0,15)" font-family="sans-serif" font-size="10px" fill="#000" opacity="1">2020</text><text text-anchor="middle" transform="translate(39.34010152284264,15)" font-family="sans-serif" font-size="10px" fill="#000" opacity="0">February</text><text text-anchor="middle" transform="translate(76.14213197969544,15)" font-family="sans-serif" font-size="10px" fill="#000" opacity="1">March</text><text text-anchor="middle" transform="translate(115.48223350253807,15)" font-family="sans-serif" font-size="10px" fill="#000" opacity="0">April</text><text text-anchor="middle" transform="translate(153.55329949238578,15)" font-family="sans-serif" font-size="10px" fill="#000" opacity="1">May</text><text text-anchor="middle" transform="translate(192.89340101522842,15)" font-family="sans-serif" font-size="10px" fill="#000" opacity="0">June</text><text text-anchor="middle" transform="translate(230.96446700507613,15)" font-family="sans-serif" font-size="10px" fill="#000" opacity="1">July</text><text text-anchor="middle" transform="translate(270.3045685279188,15)" font-family="sans-serif" font-size="10px" fill="#000" opacity="0">August</text><text text-anchor="middle" transform="translate(309.6446700507614,15)" font-family="sans-serif" font-size="10px" fill="#000" opacity="1">September</text><text text-anchor="middle" transform="translate(347.7157360406091,15)" font-family="sans-serif" font-size="10px" fill="#000" opacity="0">October</text><text text-anchor="middle" transform="translate(387.0558375634518,15)" font-family="sans-serif" font-size="10px" fill="#000" opacity="1">November</text><text text-anchor="middle" transform="translate(425.12690355329954,15)" font-family="sans-serif" font-size="10px" fill="#000" opacity="0">December</text><text text-anchor="middle" transform="translate(464.46700507614213,15)" font-family="sans-serif" font-size="10px" fill="#000" opacity="1">2021</text></g><g class="mark-rule role-axis-domain" pointer-events="none"><line transform="translate(0,0)" x2="500" y2="0" stroke="#888" stroke-width="1" opacity="1"/></g></g><path class="foreground" aria-hidden="true" d="" pointer-events="none" display="none"/></g></g><g class="mark-group role-axis" role="graphics-symbol" aria-roledescription="axis" aria-label="Y-axis titled 'percent' for a linear scale with values from 70 to 80"><g transform="translate(0.5,0.5)"><path class="background" aria-hidden="true" d="M0,0h0v0h0Z" pointer-events="none"/><g><g class="mark-text role-axis-label" pointer-events="none"><text text-anchor="start" transform="translate(5,293)" font-family="sans-serif" font-size="10px" fill="#000" opacity="1">70</text><text text-anchor="start" transform="translate(5,233)" font-family="sans-serif" font-size="10px" fill="#000" opacity="1">72</text><text text-anchor="start" transform="translate(5,173)" font-family="sans-serif" font-size="10px" fill="#000" opacity="1">74</text><text text-anchor="start" transform="translate(5,113)" font-family="sans-serif" font-size="10px" fill="#000" opacity="1">76</text><text text-anchor="start" transform="translate(5,52.999999999999986)" font-family="sans-serif" font-size="10px" fill="#000" opacity="1">78</text><text text-anchor="start" transform="translate(5,-7)" font-family="sans-serif" font-size="10px" fill="#000" opacity="1">80</text></g><g class="mark-text role-axis-title" pointer-events="none"><text text-anchor="start" transform="translate(21,-7)" font-family="sans-serif" font-size="10px" font-weight="normal" fill="#000" opacity="1">percent</text></g></g><path class="foreground" aria-hidden="true" d="" pointer-events="none" display="none"/></g></g><g class="mark-rule role-mark layer_0_marks" role="graphics-object" aria-roledescription="rule mark container"><line aria-label="x: Jan 29, 2020" role="graphics-symbol" aria-roledescription="rule mark" transform="translate(35.53299492385787,0)" x2="0" y2="300" stroke="#666A86" stroke-width="1" stroke-dasharray="0,1,1" opacity="0.5"/><line aria-label="x: Mar 18, 2020" role="graphics-symbol" aria-roledescription="rule mark" transform="translate(97.71573604060914,0)" x2="0" y2="300" stroke="#666A86" stroke-width="1" stroke-dasharray="0,1,1" opacity="0.5"/></g><g class="mark-text role-mark layer_1_marks" role="graphics-object" aria-roledescription="text mark container"><text aria-label="text: ➡ First COVID-related death in the UK; x: Jan 29, 2020; y: 70.3" role="graphics-symbol" aria-roledescription="text mark" text-anchor="start" transform="translate(35.53299492385787,289.0000000000001)" font-family="sans-serif" font-size="10px" font-weight="lighter" fill="#666A86">➡ First COVID-related death in the UK</text><text aria-label="text: ➡ Start of first UK lockdown; x: Mar 18, 2020; y: 70.9" role="graphics-symbol" aria-roledescription="text mark" text-anchor="start" transform="translate(97.71573604060914,270.99999999999983)" font-family="sans-serif" font-size="10px" font-weight="lighter" fill="#666A86">➡ Start of first UK lockdown</text></g><g class="mark-area role-mark layer_2_marks" role="graphics-object" aria-roledescription="area mark container"><path aria-label="weekx: Jan 01, 2020; max_ft: 76; min_ft: 72.1528701782" role="graphics-symbol" aria-roledescription="area mark" d="M0,125.196533203125L8.883248730964468,74.3060302734375L17.766497461928935,59.29756164550781L26.6497461928934,91.62712097167969L35.53299492385787,120.86380004882812L44.41624365482234,105.00022888183594L53.2994923857868,122.955322265625L62.18274111675127,99.85519409179686L71.06598984771574,121.22863769531251L79.94923857868021,122.44628906250001L88.83248730964468,108.20114135742188L97.71573604060914,104.58457946777344L106.5989847715736,118.40904235839844L115.48223350253807,107.36938476562499L124.36548223350253,127.40318298339844L133.24873096446703,102.70774841308594L142.13197969543148,129.54849243164062L151.01522842639594,117.83638000488281L159.89847715736042,115.83595275878906L168.78172588832487,86.59950256347655L177.66497461928935,131.57615661621094L186.5482233502538,111.11595153808594L195.4314720812183,108.58016967773436L204.31472081218274,101.15089416503906L213.1979695431472,92.22564697265625L222.08121827411168,134.7772979736328L230.96446700507613,127.62428283691405L239.8477157360406,117.49626159667967L248.73096446700507,117.26783752441408L257.61421319796955,112.5688934326172L266.49746192893406,89.60792541503906L275.3807106598985,31.917114257812507L284.26395939086296,79.04548645019531L293.1472081218274,82.85842895507811L302.0304568527919,139.14413452148438L310.9137055837564,72.61505126953125L319.79695431472084,135.07415771484375L328.6802030456853,79.48860168457033L337.56345177664974,105.14854431152345L355.3299492385787,90.96931457519533L364.21319796954316,91.50444030761717L373.0964467005076,95.72845458984374L381.97969543147207,112.88406372070312L390.8629441624366,99.79751586914062L399.74619289340103,113.62747192382814L408.6294416243655,135.88714599609375L417.51269035532994,142.5428009033203L426.3959390862944,81.04614257812501L435.2791878172589,120.22979736328125L444.16243654822335,129.7247314453125L453.0456852791878,107.86651611328126L464.46700507614213,125.196533203125L473.3502538071066,74.3060302734375L482.2335025380711,59.29756164550781L491.11675126903555,91.62712097167969L500,120.86380004882812L500,210.1618194580078L491.11675126903555,183.99765014648438L482.2335025380711,171.14089965820312L473.3502538071066,192.40447998046875L464.46700507614213,235.4138946533203L453.0456852791878,157.21343994140625L444.16243654822335,239.81529235839844L435.2791878172589,211.32614135742188L426.3959390862944,169.75318908691406L417.51269035532994,193.824462890625L408.6294416243655,237.32391357421875L399.74619289340103,213.77105712890625L390.8629441624366,192.83065795898438L381.97969543147207,145.1978302001953L373.0964467005076,189.95132446289062L364.21319796954316,137.95486450195312L355.3299492385787,176.14013671875L337.56345177664974,153.52020263671875L328.6802030456853,191.18934631347656L319.79695431472084,209.47105407714844L310.9137055837564,151.1304473876953L302.0304568527919,199.5055389404297L293.1472081218274,173.49334716796875L284.26395939086296,166.1382293701172L275.3807106598985,148.97781372070312L266.49746192893406,186.58287048339844L257.61421319796955,153.7774658203125L248.73096446700507,167.36618041992188L239.8477157360406,193.02200317382812L230.96446700507613,220.56427001953125L222.08121827411168,169.97085571289062L213.1979695431472,165.49575805664062L204.31472081218274,170.1166534423828L195.4314720812183,167.71408081054688L186.5482233502538,165.12725830078125L177.66497461928935,173.94561767578125L168.78172588832487,240.90431213378906L159.89847715736042,213.78890991210938L151.01522842639594,212.81593322753906L142.13197969543148,170.5712127685547L133.24873096446703,184.73785400390625L124.36548223350253,156.9605255126953L115.48223350253807,237.8290557861328L106.5989847715736,215.27389526367188L97.71573604060914,229.42771911621094L88.83248730964468,196.77154541015625L79.94923857868021,155.01480102539062L71.06598984771574,182.76351928710938L62.18274111675127,179.43283081054688L53.2994923857868,202.50755310058594L44.41624365482234,223.71734619140625L35.53299492385787,210.1618194580078L26.6497461928934,183.99765014648438L17.766497461928935,171.14089965820312L8.883248730964468,192.40447998046875L0,235.4138946533203Z" fill="#666A86" opacity="0.15"/></g><g class="mark-line role-mark layer_3_marks" role="graphics-object" aria-roledescription="line mark container"><path aria-label="weekx: Jan 01, 2020; m_ft: 74.3957595825" role="graphics-symbol" aria-roledescription="line mark" d="M0,168.12721252441406L8.883248730964468,134.18838500976562L17.766497461928935,124.6380615234375L26.6497461928934,141.9568634033203L35.53299492385787,162.0318603515625L44.41624365482234,131.641845703125L53.2994923857868,139.4146728515625L62.18274111675127,163.6241912841797L71.06598984771574,156.44439697265625L79.94923857868021,130.99388122558594L88.83248730964468,144.68856811523438L97.71573604060914,156.419677734375L106.5989847715736,160.21499633789062L115.48223350253807,158.9948272705078L124.36548223350253,140.7085418701172L133.24873096446703,144.64759826660156L142.13197969543148,155.62957763671875L151.01522842639594,157.2718048095703L159.89847715736042,190.7160186767578L168.78172588832487,200.4254150390625L177.66497461928935,147.22618103027344L186.5482233502538,127.60505676269531L195.4314720812183,141.98959350585938L204.31472081218274,139.9072265625L213.1979695431472,132.16896057128906L222.08121827411168,155.13587951660156L230.96446700507613,144.94216918945312L239.8477157360406,166.19110107421875L248.73096446700507,142.6025390625L257.61421319796955,148.53652954101562L266.49746192893406,141.66114807128906L275.3807106598985,112.45285034179686L284.26395939086296,108.23455810546874L293.1472081218274,135.80291748046875L302.0304568527919,157.83462524414062L310.9137055837564,109.04205322265625L319.79695431472084,150.72967529296875L328.6802030456853,106.06224060058594L337.56345177664974,143.10081481933594L355.3299492385787,132.513427734375L364.21319796954316,130.6615447998047L373.0964467005076,118.47175598144533L381.97969543147207,121.70059204101562L390.8629441624366,166.5179443359375L399.74619289340103,150.81207275390625L408.6294416243655,143.59909057617188L417.51269035532994,173.28048706054688L426.3959390862944,142.68699645996094L435.2791878172589,145.645751953125L444.16243654822335,156.25213623046875L453.0456852791878,152.17666625976562L464.46700507614213,168.12721252441406L473.3502538071066,134.18838500976562L482.2335025380711,124.6380615234375L491.11675126903555,141.9568634033203L500,162.0318603515625" stroke="#666A86" stroke-width="1" stroke-dasharray="0,2,2" opacity="0.8"/></g><g class="mark-area role-mark layer_4_marks" role="graphics-object" aria-roledescription="area mark container"><path aria-label="weekx: Jan 01, 2020; max0: 75.8267822266; max_ft: 75.8267822266" role="graphics-symbol" aria-roledescription="area mark" d="M0,125.196533203125L8.883248730964468,27.05978393554689L17.766497461928935,59.29756164550781L26.6497461928934,80.85594177246094L35.53299492385787,120.86380004882812L44.41624365482234,105.00022888183594L53.2994923857868,122.955322265625L62.18274111675127,99.85519409179686L71.06598984771574,121.22863769531251L79.94923857868021,122.44628906250001L88.83248730964468,108.20114135742188L97.71573604060914,104.58457946777344L106.5989847715736,118.40904235839844L115.48223350253807,107.36938476562499L124.36548223350253,78.41583251953124L133.24873096446703,69.01130676269531L142.13197969543148,67.34161376953125L151.01522842639594,117.83638000488281L159.89847715736042,65.30960083007812L168.78172588832487,86.59950256347655L177.66497461928935,109.98504638671875L186.5482233502538,101.30584716796875L195.4314720812183,108.58016967773436L204.31472081218274,101.15089416503906L213.1979695431472,92.22564697265625L222.08121827411168,134.7772979736328L230.96446700507613,97.5725555419922L239.8477157360406,112.58628845214844L248.73096446700507,22.2058868408203L257.61421319796955,67.30316162109375L266.49746192893406,71.30882263183594L275.3807106598985,31.917114257812507L284.26395939086296,50.69320678710937L293.1472081218274,70.2440643310547L302.0304568527919,133.2140350341797L310.9137055837564,72.61505126953125L319.79695431472084,85.29693603515625L328.6802030456853,79.48860168457033L337.56345177664974,86.43241882324217L355.3299492385787,53.78059387207033L364.21319796954316,91.50444030761717L373.0964467005076,39.312744140625L381.97969543147207,50.42449951171876L390.8629441624366,99.79751586914062L399.74619289340103,45.910720825195305L408.6294416243655,20.457000732421882L417.51269035532994,40.464019775390625L426.3959390862944,81.04614257812501L435.2791878172589,60.88668823242188L444.16243654822335,85.14358520507812L453.0456852791878,86.52076721191406L464.46700507614213,125.196533203125L473.3502538071066,32.119674682617195L482.2335025380711,59.29756164550781L491.11675126903555,32.10502624511717L500,35.418090820312486L500,120.86380004882812L491.11675126903555,91.62712097167969L482.2335025380711,59.29756164550781L473.3502538071066,74.3060302734375L464.46700507614213,125.196533203125L453.0456852791878,107.86651611328126L444.16243654822335,129.7247314453125L435.2791878172589,120.22979736328125L426.3959390862944,81.04614257812501L417.51269035532994,142.5428009033203L408.6294416243655,135.88714599609375L399.74619289340103,113.62747192382815L390.8629441624366,99.79751586914062L381.97969543147207,112.88406372070312L373.0964467005076,95.72845458984374L364.21319796954316,91.50444030761717L355.3299492385787,90.96931457519533L337.56345177664974,105.14854431152345L328.6802030456853,79.48860168457033L319.79695431472084,135.07415771484375L310.9137055837564,72.61505126953125L302.0304568527919,139.14413452148438L293.1472081218274,82.85842895507811L284.26395939086296,79.04548645019531L275.3807106598985,31.917114257812507L266.49746192893406,89.60792541503906L257.61421319796955,112.5688934326172L248.73096446700507,117.26783752441408L239.8477157360406,117.49626159667967L230.96446700507613,127.62428283691405L222.08121827411168,134.7772979736328L213.1979695431472,92.22564697265625L204.31472081218274,101.15089416503906L195.4314720812183,108.58016967773436L186.5482233502538,111.11595153808594L177.66497461928935,131.57615661621094L168.78172588832487,86.59950256347655L159.89847715736042,115.83595275878906L151.01522842639594,117.83638000488281L142.13197969543148,129.54849243164062L133.24873096446703,102.70774841308594L124.36548223350253,127.40318298339844L115.48223350253807,107.36938476562499L106.5989847715736,118.40904235839844L97.71573604060914,104.58457946777344L88.83248730964468,108.20114135742188L79.94923857868021,122.44628906250001L71.06598984771574,121.22863769531251L62.18274111675127,99.85519409179686L53.2994923857868,122.955322265625L44.41624365482234,105.00022888183594L35.53299492385787,120.86380004882812L26.6497461928934,91.62712097167969L17.766497461928935,59.29756164550781L8.883248730964468,74.3060302734375L0,125.196533203125Z" fill="#36b7b4" opacity="0.3"/></g><g class="mark-area role-mark layer_5_marks" role="graphics-object" aria-roledescription="area mark container"><path aria-label="weekx: Jan 01, 2020; min0: 72.1528701782; min_ft: 72.1528701782" role="graphics-symbol" aria-roledescription="area mark" d="M0,235.4138946533203L8.883248730964468,192.40447998046875L17.766497461928935,171.14089965820312L26.6497461928934,183.99765014648438L35.53299492385787,210.1618194580078L44.41624365482234,223.71734619140625L53.2994923857868,202.50755310058594L62.18274111675127,179.43283081054688L71.06598984771574,182.76351928710938L79.94923857868021,179.56626892089844L88.83248730964468,196.77154541015625L97.71573604060914,229.42771911621094L106.5989847715736,215.27389526367188L115.48223350253807,237.8290557861328L124.36548223350253,156.9605255126953L133.24873096446703,184.73785400390625L142.13197969543148,170.5712127685547L151.01522842639594,212.81593322753906L159.89847715736042,213.78890991210938L168.78172588832487,240.90431213378906L177.66497461928935,173.94561767578125L186.5482233502538,165.12725830078125L195.4314720812183,167.71408081054688L204.31472081218274,170.1166534423828L213.1979695431472,165.49575805664062L222.08121827411168,169.97085571289062L230.96446700507613,220.56427001953125L239.8477157360406,193.02200317382812L248.73096446700507,167.36618041992188L257.61421319796955,153.7774658203125L266.49746192893406,186.58287048339844L275.3807106598985,148.97781372070312L284.26395939086296,166.1382293701172L293.1472081218274,173.49334716796875L302.0304568527919,199.5055389404297L310.9137055837564,151.1304473876953L319.79695431472084,209.47105407714844L328.6802030456853,191.18934631347656L337.56345177664974,153.52020263671875L355.3299492385787,176.14013671875L364.21319796954316,137.95486450195312L373.0964467005076,189.95132446289062L381.97969543147207,145.1978302001953L390.8629441624366,192.83065795898438L399.74619289340103,213.77105712890625L408.6294416243655,237.32391357421875L417.51269035532994,193.824462890625L426.3959390862944,169.75318908691406L435.2791878172589,211.32614135742188L444.16243654822335,239.81529235839844L453.0456852791878,157.21343994140625L464.46700507614213,235.4138946533203L473.3502538071066,192.40447998046875L482.2335025380711,171.14089965820312L491.11675126903555,183.99765014648438L500,210.1618194580078L500,210.1618194580078L491.11675126903555,183.99765014648438L482.2335025380711,171.14089965820312L473.3502538071066,192.40447998046875L464.46700507614213,235.4138946533203L453.0456852791878,157.21343994140625L444.16243654822335,239.81529235839844L435.2791878172589,211.32614135742188L426.3959390862944,169.75318908691406L417.51269035532994,193.824462890625L408.6294416243655,237.32391357421875L399.74619289340103,213.77105712890625L390.8629441624366,192.83065795898438L381.97969543147207,145.1978302001953L373.0964467005076,189.95132446289062L364.21319796954316,137.95486450195312L355.3299492385787,176.14013671875L337.56345177664974,153.52020263671875L328.6802030456853,191.18934631347656L319.79695431472084,209.47105407714844L310.9137055837564,151.1304473876953L302.0304568527919,199.5055389404297L293.1472081218274,173.49334716796875L284.26395939086296,166.1382293701172L275.3807106598985,148.97781372070312L266.49746192893406,186.58287048339844L257.61421319796955,153.7774658203125L248.73096446700507,167.36618041992188L239.8477157360406,193.02200317382812L230.96446700507613,220.56427001953125L222.08121827411168,169.97085571289062L213.1979695431472,165.49575805664062L204.31472081218274,170.1166534423828L195.4314720812183,167.71408081054688L186.5482233502538,165.12725830078125L177.66497461928935,173.94561767578125L168.78172588832487,240.90431213378906L159.89847715736042,213.78890991210938L151.01522842639594,212.81593322753906L142.13197969543148,170.5712127685547L133.24873096446703,184.73785400390625L124.36548223350253,156.9605255126953L115.48223350253807,237.8290557861328L106.5989847715736,215.27389526367188L97.71573604060914,229.42771911621094L88.83248730964468,196.77154541015625L79.94923857868021,155.01480102539062L71.06598984771574,182.76351928710938L62.18274111675127,179.43283081054688L53.2994923857868,202.50755310058594L44.41624365482234,223.71734619140625L35.53299492385787,210.1618194580078L26.6497461928934,183.99765014648438L17.766497461928935,171.14089965820312L8.883248730964468,192.40447998046875L0,235.4138946533203Z" fill="#36b7b4" opacity="0.3"/></g><g class="mark-line role-mark layer_6_marks" role="graphics-object" aria-roledescription="line mark container"><path aria-label="weekx: Jan 01, 2020; ft: 74.8918762207" role="graphics-symbol" aria-roledescription="line mark" d="M0,153.24371337890625L8.883248730964468,27.05978393554689L17.766497461928935,114.85794067382812L26.6497461928934,80.85594177246094L35.53299492385787,125.81268310546874L44.41624365482234,114.29397583007812L53.2994923857868,171.8712615966797L62.18274111675127,124.59457397460938L71.06598984771574,125.9564208984375L79.94923857868021,179.56626892089844L88.83248730964468,162.0977783203125L97.71573604060914,110.87745666503908L106.5989847715736,150.30189514160156L115.48223350253807,108.8360595703125L124.36548223350253,78.41583251953124L133.24873096446703,69.01130676269531L142.13197969543148,67.34161376953125L151.01522842639594,121.23092651367189L159.89847715736042,65.30960083007812L168.78172588832487,137.08946228027344L177.66497461928935,109.98504638671875L186.5482233502538,101.30584716796875L195.4314720812183,143.02688598632812L204.31472081218274,119.2657470703125L213.1979695431472,104.17648315429686L222.08121827411168,142.57713317871094L230.96446700507613,97.5725555419922L239.8477157360406,112.58628845214844L248.73096446700507,22.2058868408203L257.61421319796955,67.30316162109375L266.49746192893406,71.30882263183594L275.3807106598985,89.90982055664062L284.26395939086296,50.69320678710937L293.1472081218274,70.2440643310547L302.0304568527919,133.2140350341797L310.9137055837564,87.93136596679688L319.79695431472084,85.29693603515625L328.6802030456853,83.01933288574219L337.56345177664974,86.43241882324217L355.3299492385787,53.78059387207033L364.21319796954316,103.27468872070311L373.0964467005076,39.312744140625L381.97969543147207,50.42449951171876L390.8629441624366,113.18092346191406L399.74619289340103,45.910720825195305L408.6294416243655,20.457000732421882L417.51269035532994,40.464019775390625L426.3959390862944,100.92155456542969L435.2791878172589,60.88668823242188L444.16243654822335,85.14358520507812L453.0456852791878,86.52076721191406L464.46700507614213,131.27059936523438L473.3502538071066,32.119674682617195L482.2335025380711,71.79977416992188L491.11675126903555,32.10502624511717L500,35.418090820312486" stroke="#36b7b4" stroke-width="2"/></g><g class="mark-text role-mark layer_7_marks" role="graphics-object" aria-roledescription="text mark container"><text aria-label="text: 2020; x: Oct 05, 2020; y: 79" role="graphics-symbol" aria-roledescription="text mark" text-anchor="start" transform="translate(352.79187817258884,27.999999999999993)" font-family="sans-serif" font-size="11px" font-weight="bold" fill="#36b7b4">2020</text></g><g class="mark-text role-mark layer_8_marks" role="graphics-object" aria-roledescription="text mark container"><text aria-label="text: 2015-2019 average; x: Oct 18, 2020; y: 72" role="graphics-symbol" aria-roledescription="text mark" text-anchor="start" transform="translate(369.28934010152284,238)" font-family="sans-serif" font-size="10px" font-weight="lighter" fill="#666A86">2015-2019 average</text></g><g class="mark-text role-mark layer_9_marks" role="graphics-object" aria-roledescription="text mark container"><text aria-label="text: and min-max range; x: Oct 18, 2020; y: 71.6" role="graphics-symbol" aria-roledescription="text mark" text-anchor="start" transform="translate(369.28934010152284,250.00000000000017)" font-family="sans-serif" font-size="10px" font-weight="lighter" fill="#666A86" opacity="0.5">and min-max range</text></g></g><path class="foreground" aria-hidden="true" d="" display="none"/></g></g></g></svg>