<svg xmlns="http://www.w3.org/2000/svg" xmlns:xlink="http://www.w3.org/1999/xlink" version="1.1" class="marks" width="514" height="342" viewBox="0 0 514 342"><rect width="514" height="342" fill="white"/><g fill="none" stroke-miterlimit="10" transform="translate(7,20)"><g class="mark-group role-frame root" role="graphics-object" aria-roledescription="group mark container"><g transform="translate(0,0)"><path class="background" aria-hidden="true" d="M0.5,0.5h500v300h-500Z" stroke="#ddd"/><g><g class="mark-group role-axis" aria-hidden="true"><g transform="translate(0.5,0.5)"><path class="background" aria-hidden="true" d="M0,0h0v0h0Z" pointer-events="none"/><g><g class="mark-rule role-axis-grid" pointer-events="none"><line transform="translate(0,300)" x2="500" y2="0" stroke="#ddd" stroke-width="1" opacity="1"/><line transform="translate(0,240)" x2="500" y2="0" stroke="#ddd" stroke-width="1" opacity="1"/><line transform="translate(0,180)" x2="500" y2="0" stroke="#ddd" stroke-width="1" opacity="1"/><line transform="translate(0,120)" x2="500" y2="0" stroke="#ddd" stroke-width="1" opacity="1"/><line transform="translate(0,60)" x2="500" y2="0" stroke="#ddd" stroke-width="1" opacity="1"/><line transform="translate(0,0)" x2="500" y2="0" stroke="#ddd" stroke-width="1" opacity="1"/></g></g><path class="foreground" aria-hidden="true" d="" pointer-events="none" display="none"/></g></g><g class="mark-group role-axis" role="graphics-symbol" aria-roledescription="axis" aria-label="X-axis for a time scale with values from Wednesday, 01 January 2020, 12:00:00 AM to Friday, 29 January 2021, 12:00:00 AM"><g transform="translate(0.5,300.5)"><path class="background" aria-hidden="true" d="M0,0h0v0h0Z" pointer-events="none"/><g><g class="mark-rule role-axis-tick" pointer-events="none"><line transform="translate(0,0)" x2="0" y2="5" stroke="#888" stroke-width="1" opacity="1"/><line transform="translate(39,0)" x2="0" y2="5" stroke="#888" stroke-width="1" opacity="1"/><line transform="translate(76,0)" x2="0" y2="5" stroke="#888" stroke-width="1" opacity="1"/><line transform="translate(115,0)" x2="0" y2="5" stroke="#888" stroke-width="1" opacity="1"/><line transform="translate(154,0)" x2="0" y2="5" stroke="#888" stroke-width="1" opacity="1"/><line transform="translate(193,0)" x2="0" y2="5" stroke="#888" stroke-width="1" opacity="1"/><line transform="translate(231,0)" x2="0" y2="5" stroke="#888" stroke-width="1" opacity="1"/><line transform="translate(270,0)" x2="0" y2="5" stroke="#888" stroke-width="1" opacity="1"/><line transform="translate(310,0)" x2="0" y2="5" stroke="#888" stroke-width="1" opacity="1"/><line transform="translate(348,0)" x2="0" y2="5" stroke="#888" stroke-width="1" opacity="1"/><line transform="translate(387,0)" x2="0" y2="5" stroke="#888" stroke-width="1" opacity="1"/><line transform="translate(425,0)" x2="0" y2="5" stroke="#888" stroke-width="1" opacity="1"/><line transform="translate(464,0)" x2="0" y2="5" stroke="#888" stroke-width="1" opacity="1"/></g><g class="mark-text role-axis-label" pointer-events="none"><text text-anchor="start" transform="translate(0,15)" font-family="sans-serif" font-size="10px" fill="#000" opacity="1">2020</text><text text-anchor="middle" transform="translate(39.34010152284264,15)" font-family="sans-serif" font-size="10px" fill="#000" opacity="0">February</text><text text-anchor="middle" transform="translate(76.14213197969544,15)" font-family="sans-serif" font-size="10px" fill="#000" opacity="1">March</text><text text-anchor="middle" transform="translate(115.48223350253807,15)" font-family="sans-serif" font-size="10px" fill="#000" opacity="0">April</text><text text-anchor="middle" transform="translate(153.55329949238578,15)" font-family="sans-serif" font-size="10px" fill="#000" opacity="1">May</text><text text-anchor="middle" transform="translate(192.89340101522842,15)" font-family="sans-serif" font-size="10px" fill="#000" opacity="0">June</text><text text-anchor="middle" transform="translate(230.96446700507613,15)" font-family="sans-serif" font-size="10px" fill="#000" opacity="1">July</text><text text-anchor="middle" transform="translate(270.3045685279188,15)" font-family="sans-serif" font-size="10px" fill="#000" opacity="0">August</text><text text-anchor="middle" transform="translate(309.6446700507614,15)" font-family="sans-serif" font-size="10px" fill="#000" opacity="1">September</text><text text-anchor="middle" transform="translate(347.7157360406091,15)" font-family="sans-serif" font-size="10px" fill="#000" opacity="0">October</text><text text-anchor="middle" transform="translate(387.0558375634518,15)" font-family="sans-serif" font-size="10px" fill="#000" opacity="1">November</text><text text-anchor="middle" transform="translate(425.12690355329954,15)" font-family="sans-serif" font-size="10px" fill="#000" opacity="0">December</text><text text-anchor="middle" transform="translate(464.46700507614213,15)" font-family="sans-serif" font-size="10px" fill="#000" opacity="1">2021</text></g><g class="mark-rule role-axis-domain" pointer-events="none"><line transform="translate(0,0)" x2="500" y2="0" stroke="#888" stroke-width="1" opacity="1"/></g></g><path class="foreground" aria-hidden="true" d="" pointer-events="none" display="none"/></g></g><g class="mark-group role-axis" role="graphics-symbol" aria-roledescription="axis" aria-label="Y-axis titled 'percent' for a linear scale with values from 20 to 30"><g transform="translate(0.5,0.5)"><path class="background" aria-hidden="true" d="M0,0h0v0h0Z" pointer-events="none"/><g><g class="mark-text role-axis-label" pointer-events="none"><text text-anchor="start" transform="translate(5,293)" font-family="sans-serif" font-size="10px" fill="#000" opacity="1">20</text><text text-anchor="start" transform="translate(5,233)" font-family="sans-serif" font-size="10px" fill="#000" opacity="1">22</text><text text-anchor="start" transform="translate(5,173)" font-family="sans-serif" font-size="10px" fill="#000" opacity="1">24</text><text text-anchor="start" transform="translate(5,113)" font-family="sans-serif" font-size="10px" fill="#000" opacity="1">26</text><text text-anchor="start" transform="translate(5,52.999999999999986)" font-family="sans-serif" font-size="10px" fill="#000" opacity="1">28</text><text text-anchor="start" transform="translate(5,-7)" font-family="sans-serif" font-size="10px" fill="#000" opacity="1">30</text></g><g class="mark-text role-axis-title" pointer-events="none"><text text-anchor="start" transform="translate(21,-7)" font-family="sans-serif" font-size="10px" font-weight="normal" fill="#000" opacity="1">percent</text></g></g><path class="foreground" aria-hidden="true" d="" pointer-events="none" display="none"/></g></g><g class="mark-rule role-mark layer_0_marks" role="graphics-object" aria-roledescription="rule mark container"><line aria-label="x: Jan 29, 2020" role="graphics-symbol" aria-roledescription="rule mark" transform="translate(35.53299492385787,0)" x2="0" y2="300" stroke="#666A86" stroke-width="1" stroke-dasharray="0,1,1" opacity="0.5"/><line aria-label="x: Mar 18, 2020" role="graphics-symbol" aria-roledescription="rule mark" transform="translate(97.71573604060914,0)" x2="0" y2="300" stroke="#666A86" stroke-width="1" stroke-dasharray="0,1,1" opacity="0.5"/></g><g class="mark-text role-mark layer_1_marks" role="graphics-object" aria-roledescription="text mark container"><text aria-label="text: ➡ First COVID-related death in the UK; x: Jan 29, 2020; y: 20.3" role="graphics-symbol" aria-roledescription="text mark" text-anchor="start" transform="translate(35.53299492385787,289)" font-family="sans-serif" font-size="10px" font-weight="lighter" fill="#666A86">➡ First COVID-related death in the UK</text><text aria-label="text: ➡ Start of first UK lockdown; x: Mar 18, 2020; y: 20.9" role="graphics-symbol" aria-roledescription="text mark" text-anchor="start" transform="translate(97.71573604060914,271.00000000000006)" font-family="sans-serif" font-size="10px" font-weight="lighter" fill="#666A86">➡ Start of first UK lockdown</text></g><g class="mark-area role-mark layer_2_marks" role="graphics-object" aria-roledescription="area mark container"><path aria-label="weekx: Jan 01, 2020; max_pt: 28; min_pt: 24.0009727478" role="graphics-symbol" aria-roledescription="area mark" d="M0,67.40318298339842L8.883248730964468,112.98889160156251L17.766497461928935,129.61429595947266L26.6497461928934,118.02852630615234L35.53299492385787,95.98148345947266L44.41624365482234,77.77490615844727L53.2994923857868,97.4923324584961L62.18274111675127,123.55831146240234L71.06598984771574,127.42206573486328L79.94923857868021,147.94384002685547L88.83248730964468,110.31503677368164L97.71573604060914,71.91747665405275L106.5989847715736,84.72610473632811L115.48223350253807,63.390998840332024L124.36548223350253,146.11587524414062L133.24873096446703,118.72684478759766L142.13197969543148,132.71976470947266L151.01522842639594,92.23480224609375L159.89847715736042,89.95588302612305L168.78172588832487,61.89737319946289L177.66497461928935,131.91993713378906L186.5482233502538,134.87268447875977L195.4314720812183,133.85147094726562L204.31472081218274,134.27518844604492L213.1979695431472,135.8415985107422L222.08121827411168,131.35311126708984L230.96446700507613,88.61137390136717L239.8477157360406,109.0616226196289L248.73096446700507,137.4884033203125L257.61421319796955,148.00146102905273L266.49746192893406,113.41718673706056L275.3807106598985,154.42731857299805L284.26395939086296,133.86188507080078L293.1472081218274,132.2307014465332L302.0304568527919,103.32229614257812L310.9137055837564,152.16608047485352L319.79695431472084,90.90860366821289L328.6802030456853,111.4877700805664L337.56345177664974,147.58312225341797L355.3299492385787,125.77417373657227L364.21319796954316,162.60074615478516L373.0964467005076,118.61263275146483L381.97969543147207,154.80234146118164L390.8629441624366,109.91277694702148L399.74619289340103,87.9774284362793L408.6294416243655,62.67597198486329L417.51269035532994,109.77636337280272L426.3959390862944,134.55059051513672L435.2791878172589,95.18119812011719L444.16243654822335,60.94465255737305L453.0456852791878,143.45386505126953L464.46700507614213,67.40318298339842L473.3502538071066,112.98889160156251L482.2335025380711,129.61429595947266L491.11675126903555,118.02852630615234L500,95.98148345947266L500,183.52935791015625L491.11675126903555,212.5455093383789L482.2335025380711,243.49519729614258L473.3502538071066,228.00670623779297L464.46700507614213,179.97081756591797L453.0456852791878,192.13348388671875L444.16243654822335,173.19231033325195L435.2791878172589,190.39352416992188L426.3959390862944,224.06707763671875L417.51269035532994,158.96020889282227L408.6294416243655,168.08996200561523L399.74619289340103,191.4722442626953L390.8629441624366,201.12882614135742L381.97969543147207,187.11593627929688L373.0964467005076,208.8303565979004L364.21319796954316,208.4956169128418L355.3299492385787,213.1475830078125L337.56345177664974,200.89176177978516L328.6802030456853,220.51128387451172L319.79695431472084,167.62779235839844L310.9137055837564,231.18146896362305L302.0304568527919,165.3226089477539L293.1472081218274,218.40991973876953L284.26395939086296,220.95462799072266L275.3807106598985,268.08305740356445L266.49746192893406,211.12987518310547L257.61421319796955,188.08319091796875L248.73096446700507,182.73204803466797L239.8477157360406,188.03512573242188L230.96446700507613,172.37577438354492L222.08121827411168,171.05072021484375L213.1979695431472,213.0857276916504L204.31472081218274,205.87703704833984L195.4314720812183,192.51537322998047L186.5482233502538,190.17333984375L177.66497461928935,168.4236717224121L168.78172588832487,216.29425048828125L159.89847715736042,190.0180435180664L151.01522842639594,182.16373443603516L142.13197969543148,174.1607666015625L133.24873096446703,197.29242324829102L124.36548223350253,176.48248672485352L115.48223350253807,197.67608642578125L106.5989847715736,181.59090042114258L97.71573604060914,198.58709335327148L88.83248730964468,192.38914489746094L79.94923857868021,182.66595840454102L71.06598984771574,187.63280868530273L62.18274111675127,200.1448631286621L53.2994923857868,180.99786758422852L44.41624365482234,198.0718231201172L35.53299492385787,183.52935791015625L26.6497461928934,212.5455093383789L17.766497461928935,243.49519729614258L8.883248730964468,228.00670623779297L0,179.97081756591797Z" fill="#666A86" opacity="0.15"/></g><g class="mark-line role-mark layer_3_marks" role="graphics-object" aria-roledescription="line mark container"><path aria-label="weekx: Jan 01, 2020; m_pt: 25.4606342316" role="graphics-symbol" aria-roledescription="line mark" d="M0,136.18097305297852L8.883248730964468,170.21060943603516L17.766497461928935,179.11657333374023L26.6497461928934,159.2951774597168L35.53299492385787,142.37966537475586L44.41624365482234,170.87190628051758L53.2994923857868,160.9244155883789L62.18274111675127,137.84574508666992L71.06598984771574,151.03981018066406L79.94923857868021,171.5668487548828L88.83248730964468,156.69198989868164L97.71573604060914,143.58049392700195L106.5989847715736,142.17893600463867L115.48223350253807,146.70238494873047L124.36548223350253,163.05164337158203L133.24873096446703,158.20856094360352L142.13197969543148,145.14249801635742L151.01522842639594,145.623779296875L159.89847715736042,113.66580963134767L168.78172588832487,101.07667922973633L177.66497461928935,158.3181381225586L186.5482233502538,174.05250549316406L195.4314720812183,161.01327896118164L204.31472081218274,160.09283065795898L213.1979695431472,167.8312110900879L222.08121827411168,144.86417770385742L230.96446700507613,155.62522888183594L239.8477157360406,139.01905059814453L248.73096446700507,160.28955459594727L257.61421319796955,158.05612564086914L266.49746192893406,160.1400375366211L275.3807106598985,188.80125045776367L284.26395939086296,195.83301544189453L293.1472081218274,169.59955215454102L302.0304568527919,143.59846115112305L310.9137055837564,192.24843978881836L319.79695431472084,152.8561019897461L328.6802030456853,196.6922378540039L337.56345177664974,160.2257537841797L355.3299492385787,168.61392974853516L364.21319796954316,174.6749496459961L373.0964467005076,181.5281867980957L381.97969543147207,182.42351531982422L390.8629441624366,140.47073364257812L399.74619289340103,150.83868026733398L408.6294416243655,159.4093894958496L417.51269035532994,126.71951293945314L426.3959390862944,161.62342071533203L435.2791878172589,160.13076782226562L444.16243654822335,147.04204559326172L453.0456852791878,147.8232765197754L464.46700507614213,136.18097305297852L473.3502538071066,170.21060943603516L482.2335025380711,179.11657333374023L491.11675126903555,159.2951774597168L500,142.37966537475586" stroke="#666A86" stroke-width="1" stroke-dasharray="0,2,2" opacity="0.8"/></g><g class="mark-area role-mark layer_4_marks" role="graphics-object" aria-roledescription="area mark container"><path aria-label="weekx: Jan 01, 2020; max0: 27.7532272339; max_pt: 27.7532272339" role="graphics-symbol" aria-roledescription="area mark" d="M0,67.40318298339842L8.883248730964468,112.98889160156251L17.766497461928935,129.61429595947266L26.6497461928934,118.02852630615234L35.53299492385787,95.98148345947266L44.41624365482234,77.77490615844727L53.2994923857868,97.4923324584961L62.18274111675127,123.55831146240234L71.06598984771574,127.42206573486328L79.94923857868021,122.60604858398436L88.83248730964468,110.31503677368164L97.71573604060914,71.91747665405275L106.5989847715736,84.72610473632811L115.48223350253807,63.390998840332024L124.36548223350253,146.11587524414062L133.24873096446703,118.72684478759766L142.13197969543148,132.71976470947266L151.01522842639594,92.23480224609375L159.89847715736042,89.95588302612305L168.78172588832487,61.89737319946289L177.66497461928935,131.91993713378906L186.5482233502538,134.87268447875977L195.4314720812183,133.85147094726562L204.31472081218274,134.27518844604492L213.1979695431472,135.8415985107422L222.08121827411168,131.35311126708984L230.96446700507613,88.61137390136717L239.8477157360406,109.0616226196289L248.73096446700507,137.4884033203125L257.61421319796955,148.00146102905273L266.49746192893406,113.41718673706056L275.3807106598985,154.42731857299805L284.26395939086296,133.86188507080078L293.1472081218274,132.2307014465332L302.0304568527919,103.32229614257812L310.9137055837564,152.16608047485352L319.79695431472084,90.90860366821289L328.6802030456853,111.4877700805664L337.56345177664974,147.58312225341797L355.3299492385787,125.77417373657227L364.21319796954316,162.60074615478516L373.0964467005076,118.61263275146483L381.97969543147207,154.80234146118164L390.8629441624366,109.91277694702148L399.74619289340103,87.9774284362793L408.6294416243655,62.67597198486329L417.51269035532994,109.77636337280272L426.3959390862944,134.55059051513672L435.2791878172589,95.18119812011719L444.16243654822335,60.94465255737305L453.0456852791878,143.45386505126953L464.46700507614213,67.40318298339842L473.3502538071066,112.98889160156251L482.2335025380711,129.61429595947266L491.11675126903555,118.02852630615234L500,95.98148345947266L500,95.98148345947266L491.11675126903555,118.02852630615234L482.2335025380711,129.61429595947266L473.3502538071066,112.98889160156251L464.46700507614213,67.40318298339842L453.0456852791878,143.45386505126953L444.16243654822335,60.94465255737305L435.2791878172589,95.18119812011719L426.3959390862944,134.55059051513672L417.51269035532994,109.77636337280272L408.6294416243655,62.67597198486329L399.74619289340103,87.9774284362793L390.8629441624366,109.91277694702148L381.97969543147207,154.80234146118164L373.0964467005076,118.61263275146483L364.21319796954316,162.60074615478516L355.3299492385787,125.77417373657227L337.56345177664974,147.58312225341797L328.6802030456853,111.4877700805664L319.79695431472084,90.90860366821289L310.9137055837564,152.16608047485352L302.0304568527919,103.32229614257812L293.1472081218274,132.2307014465332L284.26395939086296,133.86188507080078L275.3807106598985,154.42731857299805L266.49746192893406,113.41718673706056L257.61421319796955,148.00146102905273L248.73096446700507,137.4884033203125L239.8477157360406,109.0616226196289L230.96446700507613,88.61137390136717L222.08121827411168,131.35311126708984L213.1979695431472,135.8415985107422L204.31472081218274,134.27518844604492L195.4314720812183,133.85147094726562L186.5482233502538,134.87268447875977L177.66497461928935,131.91993713378906L168.78172588832487,61.89737319946289L159.89847715736042,89.95588302612305L151.01522842639594,92.23480224609375L142.13197969543148,132.71976470947266L133.24873096446703,118.72684478759766L124.36548223350253,146.11587524414062L115.48223350253807,63.390998840332024L106.5989847715736,84.72610473632811L97.71573604060914,71.91747665405275L88.83248730964468,110.31503677368164L79.94923857868021,147.94384002685547L71.06598984771574,127.42206573486328L62.18274111675127,123.55831146240234L53.2994923857868,97.4923324584961L44.41624365482234,77.77490615844727L35.53299492385787,95.98148345947266L26.6497461928934,118.02852630615234L17.766497461928935,129.61429595947266L8.883248730964468,112.98889160156251L0,67.40318298339842Z" fill="#36b7b4" opacity="0.3"/></g><g class="mark-area role-mark layer_5_marks" role="graphics-object" aria-roledescription="area mark container"><path aria-label="weekx: Jan 01, 2020; min0: 24.0009727478; min_pt: 24.0009727478" role="graphics-symbol" aria-roledescription="area mark" d="M0,179.97081756591797L8.883248730964468,274.45043563842773L17.766497461928935,243.49519729614258L26.6497461928934,222.16672897338867L35.53299492385787,183.52935791015625L44.41624365482234,198.0718231201172L53.2994923857868,180.99786758422852L62.18274111675127,200.1448631286621L71.06598984771574,187.63280868530273L79.94923857868021,182.66595840454102L88.83248730964468,192.38914489746094L97.71573604060914,198.58709335327148L106.5989847715736,181.59090042114258L115.48223350253807,197.67608642578125L124.36548223350253,226.1795425415039L133.24873096446703,230.98852157592773L142.13197969543148,236.73786163330078L151.01522842639594,182.16373443603516L159.89847715736042,239.36594009399414L168.78172588832487,216.29425048828125L177.66497461928935,191.57913208007812L186.5482233502538,198.69403839111328L195.4314720812183,192.51537322998047L204.31472081218274,205.87703704833984L213.1979695431472,213.0857276916504L222.08121827411168,171.05072021484375L230.96446700507613,205.52827835083008L239.8477157360406,190.1946258544922L248.73096446700507,277.7940559387207L257.61421319796955,236.62353515625L266.49746192893406,228.69117736816406L275.3807106598985,268.08305740356445L284.26395939086296,255.12348175048828L293.1472081218274,229.75582122802734L302.0304568527919,168.22053909301758L310.9137055837564,231.18146896362305L319.79695431472084,215.97530364990234L328.6802030456853,220.51128387451172L337.56345177664974,216.85792922973633L355.3299492385787,246.55941009521484L364.21319796954316,208.4956169128418L373.0964467005076,263.88702392578125L381.97969543147207,251.4887237548828L390.8629441624366,201.12882614135742L399.74619289340103,254.08916473388672L408.6294416243655,288.4153747558594L417.51269035532994,263.64383697509766L426.3959390862944,224.06707763671875L435.2791878172589,239.1134262084961L444.16243654822335,221.73940658569336L453.0456852791878,216.89334869384766L464.46700507614213,179.97081756591797L473.3502538071066,270.17383575439453L482.2335025380711,243.49519729614258L491.11675126903555,269.36222076416016L500,266.05945587158203L500,183.52935791015625L491.11675126903555,212.5455093383789L482.2335025380711,243.49519729614258L473.3502538071066,228.00670623779297L464.46700507614213,179.97081756591797L453.0456852791878,192.13348388671875L444.16243654822335,173.19231033325195L435.2791878172589,190.39352416992188L426.3959390862944,224.06707763671875L417.51269035532994,158.96020889282227L408.6294416243655,168.08996200561523L399.74619289340103,191.4722442626953L390.8629441624366,201.12882614135742L381.97969543147207,187.11593627929688L373.0964467005076,208.8303565979004L364.21319796954316,208.4956169128418L355.3299492385787,213.1475830078125L337.56345177664974,200.89176177978516L328.6802030456853,220.51128387451172L319.79695431472084,167.62779235839844L310.9137055837564,231.18146896362305L302.0304568527919,165.3226089477539L293.1472081218274,218.40991973876953L284.26395939086296,220.95462799072266L275.3807106598985,268.08305740356445L266.49746192893406,211.12987518310547L257.61421319796955,188.08319091796875L248.73096446700507,182.73204803466797L239.8477157360406,188.03512573242188L230.96446700507613,172.37577438354492L222.08121827411168,171.05072021484375L213.1979695431472,213.0857276916504L204.31472081218274,205.87703704833984L195.4314720812183,192.51537322998047L186.5482233502538,190.17333984375L177.66497461928935,168.4236717224121L168.78172588832487,216.29425048828125L159.89847715736042,190.0180435180664L151.01522842639594,182.16373443603516L142.13197969543148,174.1607666015625L133.24873096446703,197.29242324829102L124.36548223350253,176.48248672485352L115.48223350253807,197.67608642578125L106.5989847715736,181.59090042114258L97.71573604060914,198.58709335327148L88.83248730964468,192.38914489746094L79.94923857868021,182.66595840454102L71.06598984771574,187.63280868530273L62.18274111675127,200.1448631286621L53.2994923857868,180.99786758422852L44.41624365482234,198.0718231201172L35.53299492385787,183.52935791015625L26.6497461928934,212.5455093383789L17.766497461928935,243.49519729614258L8.883248730964468,228.00670623779297L0,179.97081756591797Z" fill="#36b7b4" opacity="0.3"/></g><g class="mark-line role-mark layer_6_marks" role="graphics-object" aria-roledescription="line mark container"><path aria-label="weekx: Jan 01, 2020; pt: 25.1081237793" role="graphics-symbol" aria-roledescription="line mark" d="M0,146.75628662109375L8.883248730964468,274.45043563842773L17.766497461928935,187.4110221862793L26.6497461928934,222.16672897338867L35.53299492385787,175.30122756958008L44.41624365482234,187.88721084594727L53.2994923857868,132.57854461669922L62.18274111675127,178.0181121826172L71.06598984771574,174.04375076293945L79.94923857868021,122.60604858398436L88.83248730964468,140.30244827270508L97.71573604060914,190.7659149169922L106.5989847715736,151.28671646118164L115.48223350253807,191.16388320922852L124.36548223350253,226.1795425415039L133.24873096446703,230.98852157592773L142.13197969543148,236.73786163330078L151.01522842639594,178.76901626586914L159.89847715736042,239.36594009399414L168.78172588832487,167.4411392211914L177.66497461928935,191.57913208007812L186.5482233502538,198.69403839111328L195.4314720812183,156.97311401367188L204.31472081218274,182.08093643188477L213.1979695431472,198.21813583374023L222.08121827411168,157.42298126220703L230.96446700507613,205.52827835083008L239.8477157360406,190.1946258544922L248.73096446700507,277.7940559387207L257.61421319796955,236.62353515625L266.49746192893406,228.69117736816406L275.3807106598985,212.15309143066406L284.26395939086296,255.12348175048828L293.1472081218274,229.75582122802734L302.0304568527919,168.22053909301758L310.9137055837564,213.1629180908203L319.79695431472084,215.97530364990234L328.6802030456853,219.3537712097168L337.56345177664974,216.85792922973633L355.3299492385787,246.55941009521484L364.21319796954316,197.48571395874023L373.0964467005076,263.88702392578125L381.97969543147207,251.4887237548828L390.8629441624366,189.50185775756836L399.74619289340103,254.08916473388672L408.6294416243655,288.4153747558594L417.51269035532994,263.64383697509766L426.3959390862944,201.06977462768555L435.2791878172589,239.1134262084961L444.16243654822335,221.73940658569336L453.0456852791878,216.89334869384766L464.46700507614213,168.72940063476562L473.3502538071066,270.17383575439453L482.2335025380711,232.64219284057617L491.11675126903555,269.36222076416016L500,266.05945587158203" stroke="#36b7b4" stroke-width="2"/></g><g class="mark-text role-mark layer_7_marks" role="graphics-object" aria-roledescription="text mark container"><text aria-label="text: 2020; x: Oct 05, 2020; y: 20.5" role="graphics-symbol" aria-roledescription="text mark" text-anchor="start" transform="translate(352.79187817258884,283)" font-family="sans-serif" font-size="11px" font-weight="bold" fill="#36b7b4">2020</text></g><g class="mark-text role-mark layer_8_marks" role="graphics-object" aria-roledescription="text mark container"><text aria-label="text: 2015-2019 average; x: Oct 18, 2020; y: 28" role="graphics-symbol" aria-roledescription="text mark" text-anchor="start" transform="translate(369.28934010152284,57.999999999999986)" font-family="sans-serif" font-size="10px" font-weight="lighter" fill="#666A86">2015-2019 average</text></g><g class="mark-text role-mark layer_9_marks" role="graphics-object" aria-roledescription="text mark container"><text aria-label="text: and min-max range; x: Oct 18, 2020; y: 27.6" role="graphics-symbol" aria-roledescription="text mark" text-anchor="start" transform="translate(369.28934010152284,69.99999999999996)" font-family="sans-serif" font-size="10px" font-weight="lighter" fill="#666A86" opacity="0.5">and min-max range</text></g></g><path class="foreground" aria-hidden="true" d="" display="none"/></g></g></g></svg>