<svg xmlns="http://www.w3.org/2000/svg" xmlns:xlink="http://www.w3.org/1999/xlink" version="1.1" class="marks" width="514" height="342" viewBox="0 0 514 342"><rect width="514" height="342" fill="white"/><g fill="none" stroke-miterlimit="10" transform="translate(7,20)"><g class="mark-group role-frame root" role="graphics-object" aria-roledescription="group mark container"><g transform="translate(0,0)"><path class="background" aria-hidden="true" d="M0.5,0.5h500v300h-500Z" stroke="#ddd"/><g><g class="mark-group role-axis" aria-hidden="true"><g transform="translate(0.5,0.5)"><path class="background" aria-hidden="true" d="M0,0h0v0h0Z" pointer-events="none"/><g><g class="mark-rule role-axis-grid" pointer-events="none"><line transform="translate(0,300)" x2="500" y2="0" stroke="#ddd" stroke-width="1" opacity="1"/><line transform="translate(0,217)" x2="500" y2="0" stroke="#ddd" stroke-width="1" opacity="1"/><line transform="translate(0,133)" x2="500" y2="0" stroke="#ddd" stroke-width="1" opacity="1"/><line transform="translate(0,50)" x2="500" y2="0" stroke="#ddd" stroke-width="1" opacity="1"/></g></g><path class="foreground" aria-hidden="true" d="" pointer-events="none" display="none"/></g></g><g class="mark-group role-axis" role="graphics-symbol" aria-roledescription="axis" aria-label="X-axis for a time scale with values from Wednesday, 01 January 2020, 12:00:00 AM to Friday, 29 January 2021, 12:00:00 AM"><g transform="translate(0.5,300.5)"><path class="background" aria-hidden="true" d="M0,0h0v0h0Z" pointer-events="none"/><g><g class="mark-rule role-axis-tick" pointer-events="none"><line transform="translate(0,0)" x2="0" y2="5" stroke="#888" stroke-width="1" opacity="1"/><line transform="translate(39,0)" x2="0" y2="5" stroke="#888" stroke-width="1" opacity="1"/><line transform="translate(76,0)" x2="0" y2="5" stroke="#888" stroke-width="1" opacity="1"/><line transform="translate(115,0)" x2="0" y2="5" stroke="#888" stroke-width="1" opacity="1"/><line transform="translate(154,0)" x2="0" y2="5" stroke="#888" stroke-width="1" opacity="1"/><line transform="translate(193,0)" x2="0" y2="5" stroke="#888" stroke-width="1" opacity="1"/><line transform="translate(231,0)" x2="0" y2="5" stroke="#888" stroke-width="1" opacity="1"/><line transform="translate(270,0)" x2="0" y2="5" stroke="#888" stroke-width="1" opacity="1"/><line transform="translate(310,0)" x2="0" y2="5" stroke="#888" stroke-width="1" opacity="1"/><line transform="translate(348,0)" x2="0" y2="5" stroke="#888" stroke-width="1" opacity="1"/><line transform="translate(387,0)" x2="0" y2="5" stroke="#888" stroke-width="1" opacity="1"/><line transform="translate(425,0)" x2="0" y2="5" stroke="#888" stroke-width="1" opacity="1"/><line transform="translate(464,0)" x2="0" y2="5" stroke="#888" stroke-width="1" opacity="1"/></g><g class="mark-text role-axis-label" pointer-events="none"><text text-anchor="start" transform="translate(0,15)" font-family="sans-serif" font-size="10px" fill="#000" opacity="1">2020</text><text text-anchor="middle" transform="translate(39.34010152284264,15)" font-family="sans-serif" font-size="10px" fill="#000" opacity="0">February</text><text text-anchor="middle" transform="translate(76.14213197969544,15)" font-family="sans-serif" font-size="10px" fill="#000" opacity="1">March</text><text text-anchor="middle" transform="translate(115.48223350253807,15)" font-family="sans-serif" font-size="10px" fill="#000" opacity="0">April</text><text text-anchor="middle" transform="translate(153.55329949238578,15)" font-family="sans-serif" font-size="10px" fill="#000" opacity="1">May</text><text text-anchor="middle" transform="translate(192.89340101522842,15)" font-family="sans-serif" font-size="10px" fill="#000" opacity="0">June</text><text text-anchor="middle" transform="translate(230.96446700507613,15)" font-family="sans-serif" font-size="10px" fill="#000" opacity="1">July</text><text text-anchor="middle" transform="translate(270.3045685279188,15)" font-family="sans-serif" font-size="10px" fill="#000" opacity="0">August</text><text text-anchor="middle" transform="translate(309.6446700507614,15)" font-family="sans-serif" font-size="10px" fill="#000" opacity="1">September</text><text text-anchor="middle" transform="translate(347.7157360406091,15)" font-family="sans-serif" font-size="10px" fill="#000" opacity="0">October</text><text text-anchor="middle" transform="translate(387.0558375634518,15)" font-family="sans-serif" font-size="10px" fill="#000" opacity="1">November</text><text text-anchor="middle" transform="translate(425.12690355329954,15)" font-family="sans-serif" font-size="10px" fill="#000" opacity="0">December</text><text text-anchor="middle" transform="translate(464.46700507614213,15)" font-family="sans-serif" font-size="10px" fill="#000" opacity="1">2021</text></g><g class="mark-rule role-axis-domain" pointer-events="none"><line transform="translate(0,0)" x2="500" y2="0" stroke="#888" stroke-width="1" opacity="1"/></g></g><path class="foreground" aria-hidden="true" d="" pointer-events="none" display="none"/></g></g><g class="mark-group role-axis" role="graphics-symbol" aria-roledescription="axis" aria-label="Y-axis titled 'percent' for a linear scale with values from 400 to 580"><g transform="translate(0.5,0.5)"><path class="background" aria-hidden="true" d="M0,0h0v0h0Z" pointer-events="none"/><g><g class="mark-text role-axis-label" pointer-events="none"><text text-anchor="start" transform="translate(5,293)" font-family="sans-serif" font-size="10px" fill="#000" opacity="1">400</text><text text-anchor="start" transform="translate(5,209.66666666666666)" font-family="sans-serif" font-size="10px" fill="#000" opacity="1">450</text><text text-anchor="start" transform="translate(5,126.33333333333331)" font-family="sans-serif" font-size="10px" fill="#000" opacity="1">500</text><text text-anchor="start" transform="translate(5,42.999999999999986)" font-family="sans-serif" font-size="10px" fill="#000" opacity="1">550</text></g><g class="mark-text role-axis-title" pointer-events="none"><text text-anchor="start" transform="translate(26,-7)" font-family="sans-serif" font-size="10px" font-weight="normal" fill="#000" opacity="1">percent</text></g></g><path class="foreground" aria-hidden="true" d="" pointer-events="none" display="none"/></g></g><g class="mark-rule role-mark layer_0_marks" role="graphics-object" aria-roledescription="rule mark container"><line aria-label="x: Jan 29, 2020" role="graphics-symbol" aria-roledescription="rule mark" transform="translate(35.53299492385787,0)" x2="0" y2="300" stroke="#666A86" stroke-width="1" stroke-dasharray="0,1,1" opacity="0.5"/><line aria-label="x: Mar 18, 2020" role="graphics-symbol" aria-roledescription="rule mark" transform="translate(97.71573604060914,0)" x2="0" y2="300" stroke="#666A86" stroke-width="1" stroke-dasharray="0,1,1" opacity="0.5"/></g><g class="mark-text role-mark layer_1_marks" role="graphics-object" aria-roledescription="text mark container"><text aria-label="text: ➡ First COVID-related death in the UK; x: Jan 29, 2020; y: 403" role="graphics-symbol" aria-roledescription="text mark" text-anchor="start" transform="translate(35.53299492385787,293)" font-family="sans-serif" font-size="10px" font-weight="lighter" fill="#666A86">➡ First COVID-related death in the UK</text><text aria-label="text: ➡ Start of first UK lockdown; x: Mar 18, 2020; y: 412" role="graphics-symbol" aria-roledescription="text mark" text-anchor="start" transform="translate(97.71573604060914,278)" font-family="sans-serif" font-size="10px" font-weight="lighter" fill="#666A86">➡ Start of first UK lockdown</text></g><g class="mark-area role-mark layer_2_marks" role="graphics-object" aria-roledescription="area mark container"><path aria-label="weekx: Jan 01, 2020; max_rwpay_rpi: 483; min_rwpay_rpi: 445.79095459" role="graphics-symbol" aria-roledescription="area mark" d="M0,162.05434163411456L8.883248730964468,205.01057942708331L17.766497461928935,154.80728149414065L26.6497461928934,170.54651896158853L35.53299492385787,184.66639200846353L44.41624365482234,176.1333211263021L53.2994923857868,188.2756551106771L62.18274111675127,235.26163736979169L71.06598984771574,176.4106241861979L79.94923857868021,176.4106241861979L88.83248730964468,191.55497233072919L97.71573604060914,176.4106241861979L106.5989847715736,195.2904256184896L115.48223350253807,184.91093953450522L124.36548223350253,187.78055826822916L133.24873096446703,192.44450887044275L142.13197969543148,203.03359985351562L151.01522842639594,184.87116495768228L159.89847715736042,187.6140848795573L168.78172588832487,187.6140848795573L177.66497461928935,187.6140848795573L186.5482233502538,187.0929463704427L195.4314720812183,182.61876424153644L204.31472081218274,180.4541524251302L213.1979695431472,200.95204671223962L222.08121827411168,156.69545491536462L230.96446700507613,156.41565958658853L239.8477157360406,208.63555908203125L248.73096446700507,184.06163533528647L257.61421319796955,190.10594685872397L266.49746192893406,194.29092407226562L275.3807106598985,194.29092407226562L284.26395939086296,191.92525227864584L293.1472081218274,192.00703938802081L302.0304568527919,187.32315063476562L310.9137055837564,187.07626342773438L319.79695431472084,202.48799641927081L328.6802030456853,192.43301391601562L337.56345177664974,190.2289835611979L355.3299492385787,207.44766235351562L364.21319796954316,190.83333333333331L373.0964467005076,190.83333333333331L381.97969543147207,187.65233357747397L390.8629441624366,160.59219360351562L399.74619289340103,187.67644246419272L408.6294416243655,187.67644246419272L417.51269035532994,191.45426432291669L426.3959390862944,194.82014973958331L435.2791878172589,177.79413859049478L444.16243654822335,177.56205240885416L453.0456852791878,177.79413859049478L464.46700507614213,162.05434163411456L473.3502538071066,205.01057942708331L482.2335025380711,154.80728149414065L491.11675126903555,170.54651896158853L500,184.66639200846353L500,230.1690165201823L491.11675126903555,240.2544148763021L482.2335025380711,231.53874715169272L473.3502538071066,219.26447550455728L464.46700507614213,223.6817423502604L453.0456852791878,212.6182556152344L444.16243654822335,242.46480305989581L435.2791878172589,224.90829467773438L426.3959390862944,242.44394938151044L417.51269035532994,246.64657592773435L408.6294416243655,232.8680419921875L399.74619289340103,216.14664713541666L390.8629441624366,218.72248331705728L381.97969543147207,236.84951782226562L373.0964467005076,219.66278076171875L364.21319796954316,215.88282267252606L355.3299492385787,255.30756632486978L337.56345177664974,219.01133219401044L328.6802030456853,218.25881958007812L319.79695431472084,230.2824910481771L310.9137055837564,216.8193562825521L302.0304568527919,243.98895263671875L293.1472081218274,243.98895263671875L284.26395939086296,233.48017374674478L275.3807106598985,230.84935506184894L266.49746192893406,240.82921346028647L257.61421319796955,244.72702026367188L248.73096446700507,244.72702026367188L239.8477157360406,256.8927001953125L230.96446700507613,218.8072204589844L222.08121827411168,232.66438802083331L213.1979695431472,253.05333455403647L204.31472081218274,228.29147338867188L195.4314720812183,209.10883585611978L186.5482233502538,250.33065795898438L177.66497461928935,224.8296101888021L168.78172588832487,216.14298502604166L159.89847715736042,221.79489135742185L151.01522842639594,233.58515421549478L142.13197969543148,248.4123738606771L133.24873096446703,238.9470418294271L124.36548223350253,246.5868123372396L115.48223350253807,235.35324096679688L106.5989847715736,229.15145874023438L97.71573604060914,247.5871276855469L88.83248730964468,235.07614135742188L79.94923857868021,202.66138712565103L71.06598984771574,227.1937052408854L62.18274111675127,251.21180216471353L53.2994923857868,235.26163736979169L44.41624365482234,208.90767415364581L35.53299492385787,230.1690165201823L26.6497461928934,240.2544148763021L17.766497461928935,231.53874715169272L8.883248730964468,219.26447550455728L0,223.6817423502604Z" fill="#666A86" opacity="0.15"/></g><g class="mark-line role-mark layer_3_marks" role="graphics-object" aria-roledescription="line mark container"><path aria-label="weekx: Jan 01, 2020; m_rwpay_rpi: 466.176269531" role="graphics-symbol" aria-roledescription="line mark" d="M0,189.70621744791666L8.883248730964468,215.08107503255206L17.766497461928935,211.90343221028647L26.6497461928934,195.25970458984375L35.53299492385787,210.35558064778647L44.41624365482234,199.1663614908854L53.2994923857868,201.79997762044272L62.18274111675127,239.8906962076823L71.06598984771574,207.9476420084635L79.94923857868021,200.36041259765625L88.83248730964468,200.36041259765625L97.71573604060914,216.67984008789062L106.5989847715736,200.6696573893229L115.48223350253807,203.03359985351562L124.36548223350253,207.9539489746094L133.24873096446703,225.52164713541666L142.13197969543148,225.66441853841144L151.01522842639594,204.51065063476562L159.89847715736042,201.375732421875L168.78172588832487,207.4359130859375L177.66497461928935,214.97899373372397L186.5482233502538,207.4359130859375L195.4314720812183,188.69013468424478L204.31472081218274,188.69013468424478L213.1979695431472,209.10883585611978L222.08121827411168,209.10883585611978L230.96446700507613,204.80534871419272L239.8477157360406,218.68896484374997L248.73096446700507,218.68896484374997L257.61421319796955,216.12014770507815L266.49746192893406,210.77438354492188L275.3807106598985,201.2291971842448L284.26395939086296,212.07850138346356L293.1472081218274,208.22662353515625L302.0304568527919,221.5178934733073L310.9137055837564,209.1912841796875L319.79695431472084,209.72859700520834L328.6802030456853,208.19681803385416L337.56345177664974,199.37698364257812L355.3299492385787,217.36409505208334L364.21319796954316,207.44766235351562L373.0964467005076,202.38545735677084L381.97969543147207,208.3243306477865L390.8629441624366,189.70621744791666L399.74619289340103,192.43301391601562L408.6294416243655,202.48799641927081L417.51269035532994,228.23338826497397L426.3959390862944,214.44402058919272L435.2791878172589,210.6523640950521L444.16243654822335,194.8692830403646L453.0456852791878,193.8104248046875L464.46700507614213,189.70621744791666L473.3502538071066,215.08107503255206L482.2335025380711,211.90343221028647L491.11675126903555,195.25970458984375L500,210.35558064778647" stroke="#666A86" stroke-width="1" stroke-dasharray="0,2,2" opacity="0.8"/></g><g class="mark-area role-mark layer_4_marks" role="graphics-object" aria-roledescription="area mark container"><path aria-label="weekx: Jan 01, 2020; max0: 484.310394287; max_rwpay_rpi: 482.76739502" role="graphics-symbol" aria-roledescription="area mark" d="M0,159.48267618815103L8.883248730964468,172.90776570638022L17.766497461928935,154.80728149414065L26.6497461928934,159.48267618815103L35.53299492385787,156.67236328125L44.41624365482234,176.1333211263021L53.2994923857868,188.2756551106771L62.18274111675127,195.084482828776L71.06598984771574,176.4106241861979L79.94923857868021,165L88.83248730964468,166.66666666666669L97.71573604060914,133.33333333333331L106.5989847715736,195.2904256184896L115.48223350253807,120L124.36548223350253,187.78055826822916L133.24873096446703,133.33333333333331L142.13197969543148,154.99999999999997L151.01522842639594,118.84099324544269L159.89847715736042,132.19258626302084L168.78172588832487,163.902587890625L177.66497461928935,106.32385253906251L186.5482233502538,118.84099324544269L195.4314720812183,165.27389526367188L204.31472081218274,133.6180623372396L213.1979695431472,133.6180623372396L222.08121827411168,120.28925577799478L230.96446700507613,58.30047607421876L239.8477157360406,124.60459391276044L248.73096446700507,74.87650553385417L257.61421319796955,124.60459391276044L266.49746192893406,103.7310791015625L275.3807106598985,135.32221476236978L284.26395939086296,72.13999430338541L293.1472081218274,133.65951538085938L302.0304568527919,83.77878824869794L310.9137055837564,129.86180623372394L319.79695431472084,138.1470235188802L328.6802030456853,138.1470235188802L337.56345177664974,106.66330973307292L355.3299492385787,138.1470235188802L364.21319796954316,106.66330973307292L373.0964467005076,106.66330973307292L381.97969543147207,135.88872273763022L390.8629441624366,160.59219360351562L399.74619289340103,39.51843261718751L408.6294416243655,72.74953206380209L417.51269035532994,135.88872273763022L426.3959390862944,141.23224894205728L435.2791878172589,172.59872436523435L444.16243654822335,109.86572265625L453.0456852791878,109.86572265625L464.46700507614213,162.05434163411456L473.3502538071066,107.53906250000001L482.2335025380711,132.3692830403646L491.11675126903555,90.98551432291666L500,90.98551432291666L500,184.66639200846353L491.11675126903555,170.54651896158853L482.2335025380711,154.80728149414065L473.3502538071066,205.01057942708331L464.46700507614213,162.05434163411456L453.0456852791878,177.79413859049478L444.16243654822335,177.56205240885416L435.2791878172589,177.79413859049478L426.3959390862944,194.82014973958331L417.51269035532994,191.45426432291669L408.6294416243655,187.67644246419272L399.74619289340103,187.67644246419272L390.8629441624366,160.59219360351562L381.97969543147207,187.65233357747397L373.0964467005076,190.83333333333331L364.21319796954316,190.83333333333331L355.3299492385787,207.44766235351562L337.56345177664974,190.2289835611979L328.6802030456853,192.43301391601562L319.79695431472084,202.48799641927081L310.9137055837564,187.07626342773438L302.0304568527919,187.32315063476562L293.1472081218274,192.00703938802081L284.26395939086296,191.92525227864584L275.3807106598985,194.29092407226562L266.49746192893406,194.29092407226562L257.61421319796955,190.10594685872397L248.73096446700507,184.06163533528647L239.8477157360406,208.63555908203125L230.96446700507613,156.41565958658853L222.08121827411168,156.69545491536462L213.1979695431472,200.95204671223962L204.31472081218274,180.4541524251302L195.4314720812183,182.61876424153644L186.5482233502538,187.0929463704427L177.66497461928935,187.6140848795573L168.78172588832487,187.6140848795573L159.89847715736042,187.6140848795573L151.01522842639594,184.87116495768228L142.13197969543148,203.03359985351562L133.24873096446703,192.44450887044275L124.36548223350253,187.78055826822916L115.48223350253807,184.91093953450522L106.5989847715736,195.2904256184896L97.71573604060914,176.4106241861979L88.83248730964468,191.55497233072919L79.94923857868021,176.4106241861979L71.06598984771574,176.4106241861979L62.18274111675127,235.26163736979169L53.2994923857868,188.2756551106771L44.41624365482234,176.1333211263021L35.53299492385787,184.66639200846353L26.6497461928934,170.54651896158853L17.766497461928935,154.80728149414065L8.883248730964468,205.01057942708331L0,162.05434163411456Z" fill="#36b7b4" opacity="0.3"/></g><g class="mark-area role-mark layer_5_marks" role="graphics-object" aria-roledescription="area mark container"><path aria-label="weekx: Jan 01, 2020; min0: 445.79095459; min_rwpay_rpi: 445.79095459" role="graphics-symbol" aria-roledescription="area mark" d="M0,223.6817423502604L8.883248730964468,219.26447550455728L17.766497461928935,231.53874715169272L26.6497461928934,240.2544148763021L35.53299492385787,230.1690165201823L44.41624365482234,208.90767415364581L53.2994923857868,235.26163736979169L62.18274111675127,251.21180216471353L71.06598984771574,227.1937052408854L79.94923857868021,202.66138712565103L88.83248730964468,235.07614135742188L97.71573604060914,247.5871276855469L106.5989847715736,229.15145874023438L115.48223350253807,235.35324096679688L124.36548223350253,246.5868123372396L133.24873096446703,238.9470418294271L142.13197969543148,248.4123738606771L151.01522842639594,233.58515421549478L159.89847715736042,221.79489135742185L168.78172588832487,216.14298502604166L177.66497461928935,224.8296101888021L186.5482233502538,250.33065795898438L195.4314720812183,209.10883585611978L204.31472081218274,228.29147338867188L213.1979695431472,253.05333455403647L222.08121827411168,232.66438802083331L230.96446700507613,218.8072204589844L239.8477157360406,256.8927001953125L248.73096446700507,244.72702026367188L257.61421319796955,244.72702026367188L266.49746192893406,240.82921346028647L275.3807106598985,230.84935506184894L284.26395939086296,233.48017374674478L293.1472081218274,243.98895263671875L302.0304568527919,243.98895263671875L310.9137055837564,216.8193562825521L319.79695431472084,230.2824910481771L328.6802030456853,218.25881958007812L337.56345177664974,219.01133219401044L355.3299492385787,255.30756632486978L364.21319796954316,215.88282267252606L373.0964467005076,219.66278076171875L381.97969543147207,236.84951782226562L390.8629441624366,218.72248331705728L399.74619289340103,216.14664713541666L408.6294416243655,232.8680419921875L417.51269035532994,246.64657592773435L426.3959390862944,242.44394938151044L435.2791878172589,224.90829467773438L444.16243654822335,242.46480305989581L453.0456852791878,212.6182556152344L464.46700507614213,223.6817423502604L473.3502538071066,219.26447550455728L482.2335025380711,231.53874715169272L491.11675126903555,240.2544148763021L500,230.1690165201823L500,230.1690165201823L491.11675126903555,240.2544148763021L482.2335025380711,231.53874715169272L473.3502538071066,219.26447550455728L464.46700507614213,223.6817423502604L453.0456852791878,212.6182556152344L444.16243654822335,242.46480305989581L435.2791878172589,224.90829467773438L426.3959390862944,242.44394938151044L417.51269035532994,246.64657592773435L408.6294416243655,232.8680419921875L399.74619289340103,216.14664713541666L390.8629441624366,218.72248331705728L381.97969543147207,236.84951782226562L373.0964467005076,219.66278076171875L364.21319796954316,215.88282267252606L355.3299492385787,255.30756632486978L337.56345177664974,219.01133219401044L328.6802030456853,218.25881958007812L319.79695431472084,230.2824910481771L310.9137055837564,216.8193562825521L302.0304568527919,243.98895263671875L293.1472081218274,243.98895263671875L284.26395939086296,233.48017374674478L275.3807106598985,230.84935506184894L266.49746192893406,240.82921346028647L257.61421319796955,244.72702026367188L248.73096446700507,244.72702026367188L239.8477157360406,256.8927001953125L230.96446700507613,218.8072204589844L222.08121827411168,232.66438802083331L213.1979695431472,253.05333455403647L204.31472081218274,228.29147338867188L195.4314720812183,209.10883585611978L186.5482233502538,250.33065795898438L177.66497461928935,224.8296101888021L168.78172588832487,216.14298502604166L159.89847715736042,221.79489135742185L151.01522842639594,233.58515421549478L142.13197969543148,248.4123738606771L133.24873096446703,238.9470418294271L124.36548223350253,246.5868123372396L115.48223350253807,235.35324096679688L106.5989847715736,229.15145874023438L97.71573604060914,247.5871276855469L88.83248730964468,235.07614135742188L79.94923857868021,202.66138712565103L71.06598984771574,227.1937052408854L62.18274111675127,251.21180216471353L53.2994923857868,235.26163736979169L44.41624365482234,208.90767415364581L35.53299492385787,230.1690165201823L26.6497461928934,240.2544148763021L17.766497461928935,231.53874715169272L8.883248730964468,219.26447550455728L0,223.6817423502604Z" fill="#36b7b4" opacity="0.3"/></g><g class="mark-line role-mark layer_6_marks" role="graphics-object" aria-roledescription="line mark container"><path aria-label="weekx: Jan 01, 2020; rwpay_rpi: 484.310394287" role="graphics-symbol" aria-roledescription="line mark" d="M0,159.48267618815103L8.883248730964468,172.90776570638022L17.766497461928935,191.36728922526044L26.6497461928934,159.48267618815103L35.53299492385787,156.67236328125L44.41624365482234,195.084482828776L53.2994923857868,195.084482828776L62.18274111675127,195.084482828776L71.06598984771574,196.66666666666666L79.94923857868021,165L88.83248730964468,166.66666666666669L97.71573604060914,133.33333333333331L106.5989847715736,216.66666666666666L115.48223350253807,120L124.36548223350253,196.66666666666666L133.24873096446703,133.33333333333331L142.13197969543148,154.99999999999997L151.01522842639594,118.84099324544269L159.89847715736042,132.19258626302084L168.78172588832487,163.902587890625L177.66497461928935,106.32385253906251L186.5482233502538,118.84099324544269L195.4314720812183,165.27389526367188L204.31472081218274,133.6180623372396L213.1979695431472,133.6180623372396L222.08121827411168,120.28925577799478L230.96446700507613,58.30047607421876L239.8477157360406,124.60459391276044L248.73096446700507,74.87650553385417L257.61421319796955,124.60459391276044L266.49746192893406,103.7310791015625L275.3807106598985,135.32221476236978L284.26395939086296,72.13999430338541L293.1472081218274,133.65951538085938L302.0304568527919,83.77878824869794L310.9137055837564,129.86180623372394L319.79695431472084,138.1470235188802L328.6802030456853,138.1470235188802L337.56345177664974,106.66330973307292L355.3299492385787,138.1470235188802L364.21319796954316,106.66330973307292L373.0964467005076,106.66330973307292L381.97969543147207,135.88872273763022L390.8629441624366,160.81202189127606L399.74619289340103,39.51843261718751L408.6294416243655,72.74953206380209L417.51269035532994,135.88872273763022L426.3959390862944,141.23224894205728L435.2791878172589,172.59872436523435L444.16243654822335,109.86572265625L453.0456852791878,109.86572265625L464.46700507614213,170.4424031575521L473.3502538071066,107.53906250000001L482.2335025380711,132.3692830403646L491.11675126903555,90.98551432291666L500,90.98551432291666" stroke="#36b7b4" stroke-width="2"/></g><g class="mark-text role-mark layer_7_marks" role="graphics-object" aria-roledescription="text mark container"><text aria-label="text: 2020; x: Oct 05, 2020; y: 520" role="graphics-symbol" aria-roledescription="text mark" text-anchor="start" transform="translate(352.79187817258884,98.00000000000001)" font-family="sans-serif" font-size="11px" font-weight="bold" fill="#36b7b4">2020</text></g><g class="mark-text role-mark layer_8_marks" role="graphics-object" aria-roledescription="text mark container"><text aria-label="text: 2015-2019 average; x: Oct 18, 2020; y: 428" role="graphics-symbol" aria-roledescription="text mark" text-anchor="start" transform="translate(369.28934010152284,251.33333333333334)" font-family="sans-serif" font-size="10px" font-weight="lighter" fill="#666A86">2015-2019 average</text></g><g class="mark-text role-mark layer_9_marks" role="graphics-object" aria-roledescription="text mark container"><text aria-label="text: and min-max range; x: Oct 18, 2020; y: 420" role="graphics-symbol" aria-roledescription="text mark" text-anchor="start" transform="translate(369.28934010152284,264.66666666666663)" font-family="sans-serif" font-size="10px" font-weight="lighter" fill="#666A86" opacity="0.5">and min-max range</text></g></g><path class="foreground" aria-hidden="true" d="" display="none"/></g></g></g></svg>