<svg xmlns="http://www.w3.org/2000/svg" xmlns:xlink="http://www.w3.org/1999/xlink" version="1.1" class="marks" width="514" height="342" viewBox="0 0 514 342"><rect width="514" height="342" fill="white"/><g fill="none" stroke-miterlimit="10" transform="translate(7,20)"><g class="mark-group role-frame root" role="graphics-object" aria-roledescription="group mark container"><g transform="translate(0,0)"><path class="background" aria-hidden="true" d="M0.5,0.5h500v300h-500Z" stroke="#ddd"/><g><g class="mark-group role-axis" aria-hidden="true"><g transform="translate(0.5,0.5)"><path class="background" aria-hidden="true" d="M0,0h0v0h0Z" pointer-events="none"/><g><g class="mark-rule role-axis-grid" pointer-events="none"><line transform="translate(0,300)" x2="500" y2="0" stroke="#ddd" stroke-width="1" opacity="1"/><line transform="translate(0,225)" x2="500" y2="0" stroke="#ddd" stroke-width="1" opacity="1"/><line transform="translate(0,150)" x2="500" y2="0" stroke="#ddd" stroke-width="1" opacity="1"/><line transform="translate(0,75)" x2="500" y2="0" stroke="#ddd" stroke-width="1" opacity="1"/><line transform="translate(0,0)" x2="500" y2="0" stroke="#ddd" stroke-width="1" opacity="1"/></g></g><path class="foreground" aria-hidden="true" d="" pointer-events="none" display="none"/></g></g><g class="mark-group role-axis" role="graphics-symbol" aria-roledescription="axis" aria-label="X-axis for a time scale with values from Wednesday, 01 January 2020, 12:00:00 AM to Friday, 29 January 2021, 12:00:00 AM"><g transform="translate(0.5,300.5)"><path class="background" aria-hidden="true" d="M0,0h0v0h0Z" pointer-events="none"/><g><g class="mark-rule role-axis-tick" pointer-events="none"><line transform="translate(0,0)" x2="0" y2="5" stroke="#888" stroke-width="1" opacity="1"/><line transform="translate(39,0)" x2="0" y2="5" stroke="#888" stroke-width="1" opacity="1"/><line transform="translate(76,0)" x2="0" y2="5" stroke="#888" stroke-width="1" opacity="1"/><line transform="translate(115,0)" x2="0" y2="5" stroke="#888" stroke-width="1" opacity="1"/><line transform="translate(154,0)" x2="0" y2="5" stroke="#888" stroke-width="1" opacity="1"/><line transform="translate(193,0)" x2="0" y2="5" stroke="#888" stroke-width="1" opacity="1"/><line transform="translate(231,0)" x2="0" y2="5" stroke="#888" stroke-width="1" opacity="1"/><line transform="translate(270,0)" x2="0" y2="5" stroke="#888" stroke-width="1" opacity="1"/><line transform="translate(310,0)" x2="0" y2="5" stroke="#888" stroke-width="1" opacity="1"/><line transform="translate(348,0)" x2="0" y2="5" stroke="#888" stroke-width="1" opacity="1"/><line transform="translate(387,0)" x2="0" y2="5" stroke="#888" stroke-width="1" opacity="1"/><line transform="translate(425,0)" x2="0" y2="5" stroke="#888" stroke-width="1" opacity="1"/><line transform="translate(464,0)" x2="0" y2="5" stroke="#888" stroke-width="1" opacity="1"/></g><g class="mark-text role-axis-label" pointer-events="none"><text text-anchor="start" transform="translate(0,15)" font-family="sans-serif" font-size="10px" fill="#000" opacity="1">2020</text><text text-anchor="middle" transform="translate(39.34010152284264,15)" font-family="sans-serif" font-size="10px" fill="#000" opacity="0">February</text><text text-anchor="middle" transform="translate(76.14213197969544,15)" font-family="sans-serif" font-size="10px" fill="#000" opacity="1">March</text><text text-anchor="middle" transform="translate(115.48223350253807,15)" font-family="sans-serif" font-size="10px" fill="#000" opacity="0">April</text><text text-anchor="middle" transform="translate(153.55329949238578,15)" font-family="sans-serif" font-size="10px" fill="#000" opacity="1">May</text><text text-anchor="middle" transform="translate(192.89340101522842,15)" font-family="sans-serif" font-size="10px" fill="#000" opacity="0">June</text><text text-anchor="middle" transform="translate(230.96446700507613,15)" font-family="sans-serif" font-size="10px" fill="#000" opacity="1">July</text><text text-anchor="middle" transform="translate(270.3045685279188,15)" font-family="sans-serif" font-size="10px" fill="#000" opacity="0">August</text><text text-anchor="middle" transform="translate(309.6446700507614,15)" font-family="sans-serif" font-size="10px" fill="#000" opacity="1">September</text><text text-anchor="middle" transform="translate(347.7157360406091,15)" font-family="sans-serif" font-size="10px" fill="#000" opacity="0">October</text><text text-anchor="middle" transform="translate(387.0558375634518,15)" font-family="sans-serif" font-size="10px" fill="#000" opacity="1">November</text><text text-anchor="middle" transform="translate(425.12690355329954,15)" font-family="sans-serif" font-size="10px" fill="#000" opacity="0">December</text><text text-anchor="middle" transform="translate(464.46700507614213,15)" font-family="sans-serif" font-size="10px" fill="#000" opacity="1">2021</text></g><g class="mark-rule role-axis-domain" pointer-events="none"><line transform="translate(0,0)" x2="500" y2="0" stroke="#888" stroke-width="1" opacity="1"/></g></g><path class="foreground" aria-hidden="true" d="" pointer-events="none" display="none"/></g></g><g class="mark-group role-axis" role="graphics-symbol" aria-roledescription="axis" aria-label="Y-axis titled 'percent' for a linear scale with values from 0 to 4"><g transform="translate(0.5,0.5)"><path class="background" aria-hidden="true" d="M0,0h0v0h0Z" pointer-events="none"/><g><g class="mark-text role-axis-label" pointer-events="none"><text text-anchor="start" transform="translate(5,293)" font-family="sans-serif" font-size="10px" fill="#000" opacity="1">0</text><text text-anchor="start" transform="translate(5,218)" font-family="sans-serif" font-size="10px" fill="#000" opacity="1">1</text><text text-anchor="start" transform="translate(5,143)" font-family="sans-serif" font-size="10px" fill="#000" opacity="1">2</text><text text-anchor="start" transform="translate(5,68)" font-family="sans-serif" font-size="10px" fill="#000" opacity="1">3</text><text text-anchor="start" transform="translate(5,-7)" font-family="sans-serif" font-size="10px" fill="#000" opacity="1">4</text></g><g class="mark-text role-axis-title" pointer-events="none"><text text-anchor="start" transform="translate(21,-7)" font-family="sans-serif" font-size="10px" font-weight="normal" fill="#000" opacity="1">percent</text></g></g><path class="foreground" aria-hidden="true" d="" pointer-events="none" display="none"/></g></g><g class="mark-rule role-mark layer_0_marks" role="graphics-object" aria-roledescription="rule mark container"><line aria-label="x: Jan 29, 2020" role="graphics-symbol" aria-roledescription="rule mark" transform="translate(35.53299492385787,0)" x2="0" y2="300" stroke="#666A86" stroke-width="1" stroke-dasharray="0,1,1" opacity="0.5"/><line aria-label="x: Mar 18, 2020" role="graphics-symbol" aria-roledescription="rule mark" transform="translate(97.71573604060914,0)" x2="0" y2="300" stroke="#666A86" stroke-width="1" stroke-dasharray="0,1,1" opacity="0.5"/></g><g class="mark-text role-mark layer_1_marks" role="graphics-object" aria-roledescription="text mark container"><text aria-label="text: ➡ First COVID-related death in the UK; x: Jan 29, 2020; y: 0.1" role="graphics-symbol" aria-roledescription="text mark" text-anchor="start" transform="translate(35.53299492385787,290.5)" font-family="sans-serif" font-size="10px" font-weight="lighter" fill="#666A86">➡ First COVID-related death in the UK</text><text aria-label="text: ➡ Start of first UK lockdown; x: Mar 18, 2020; y: 0.35" role="graphics-symbol" aria-roledescription="text mark" text-anchor="start" transform="translate(97.71573604060914,271.75)" font-family="sans-serif" font-size="10px" font-weight="lighter" fill="#666A86">➡ Start of first UK lockdown</text></g><g class="mark-area role-mark layer_2_marks" role="graphics-object" aria-roledescription="area mark container"><path aria-label="weekx: Jan 01, 2020; max_ill: 3; min_ill: 1.23288047314" role="graphics-symbol" aria-roledescription="area mark" d="M0,106.4609706401825L8.883248730964468,91.03113412857056L17.766497461928935,86.58807277679443L26.6497461928934,111.84023022651672L35.53299492385787,72.94508814811707L44.41624365482234,30.23713231086731L53.2994923857868,124.95741248130798L62.18274111675127,131.0946822166443L71.06598984771574,147.35718369483948L79.94923857868021,115.60236811637878L88.83248730964468,83.42174291610718L97.71573604060914,91.49694442749023L106.5989847715736,143.65312457084656L115.48223350253807,153.11984717845917L124.36548223350253,151.96029245853424L133.24873096446703,173.2415646314621L142.13197969543148,146.680748462677L151.01522842639594,154.13695871829987L159.89847715736042,117.95428991317749L168.78172588832487,148.87382984161377L177.66497461928935,138.05177807807922L186.5482233502538,165.79735279083252L195.4314720812183,166.35980308055878L204.31472081218274,151.8972873687744L213.1979695431472,118.72512102127075L222.08121827411168,126.37318968772888L230.96446700507613,156.6234916448593L239.8477157360406,155.04497587680817L248.73096446700507,182.42340087890625L257.61421319796955,172.69627153873444L266.49746192893406,180.05408942699432L275.3807106598985,161.45602762699127L284.26395939086296,147.92636632919312L293.1472081218274,187.29553520679474L302.0304568527919,168.9353048801422L310.9137055837564,156.31040632724762L319.79695431472084,159.64755713939667L328.6802030456853,120.17599940299988L337.56345177664974,126.1770486831665L355.3299492385787,135.89431643486023L364.21319796954316,132.56383538246155L373.0964467005076,130.0471544265747L381.97969543147207,117.7901566028595L390.8629441624366,86.95955872535706L399.74619289340103,106.00115060806274L408.6294416243655,64.36550617218018L417.51269035532994,103.7799060344696L426.3959390862944,80.71035146713257L435.2791878172589,69.04898285865784L444.16243654822335,133.0203652381897L453.0456852791878,181.49034976959229L464.46700507614213,106.4609706401825L473.3502538071066,91.03113412857056L482.2335025380711,86.58807277679443L491.11675126903555,111.84023022651672L500,72.94508814811707L500,164.64244723320007L491.11675126903555,149.4642198085785L482.2335025380711,155.12242019176483L473.3502538071066,161.23899221420288L464.46700507614213,207.53396451473236L453.0456852791878,259.75862592458725L444.16243654822335,201.02410912513733L435.2791878172589,146.09021544456482L426.3959390862944,178.8886696100235L417.51269035532994,145.10189294815063L408.6294416243655,167.16878414154053L399.74619289340103,198.85786771774292L390.8629441624366,186.2753838300705L381.97969543147207,176.35811269283295L373.0964467005076,172.7219581604004L364.21319796954316,172.3563551902771L355.3299492385787,176.127290725708L337.56345177664974,182.43750929832458L328.6802030456853,208.73740017414093L319.79695431472084,225.54065734148026L310.9137055837564,240.84574431180954L302.0304568527919,240.80399572849274L293.1472081218274,235.38249135017395L284.26395939086296,198.21641743183136L275.3807106598985,194.0421849489212L266.49746192893406,237.4547079205513L257.61421319796955,224.95838105678558L248.73096446700507,202.29078233242035L239.8477157360406,217.3010677099228L230.96446700507613,195.11125087738037L222.08121827411168,214.37068283557892L213.1979695431472,196.99798822402954L204.31472081218274,190.8556580543518L195.4314720812183,211.9946926832199L186.5482233502538,199.2131620645523L177.66497461928935,201.53677761554718L168.78172588832487,209.9339872598648L159.89847715736042,195.14058530330658L151.01522842639594,210.81595122814178L142.13197969543148,221.66308164596558L133.24873096446703,222.1430629491806L124.36548223350253,221.50857746601105L115.48223350253807,206.36981427669525L106.5989847715736,192.74688363075256L97.71573604060914,169.47324872016907L88.83248730964468,165.99465608596802L79.94923857868021,185.8710765838623L71.06598984771574,182.09064602851868L62.18274111675127,199.5083749294281L53.2994923857868,180.7957023382187L44.41624365482234,129.4552445411682L35.53299492385787,164.64244723320007L26.6497461928934,149.4642198085785L17.766497461928935,155.12242019176483L8.883248730964468,161.23899221420288L0,207.53396451473236Z" fill="#666A86" opacity="0.15"/></g><g class="mark-line role-mark layer_3_marks" role="graphics-object" aria-roledescription="line mark container"><path aria-label="weekx: Jan 01, 2020; m_ill: 1.56726312637" role="graphics-symbol" aria-roledescription="line mark" d="M0,182.45526552200317L8.883248730964468,118.7340259552002L17.766497461928935,118.60227584838867L26.6497461928934,126.66751742362976L35.53299492385787,143.58860850334167L44.41624365482234,125.4764199256897L53.2994923857868,150.5537509918213L62.18274111675127,154.2759507894516L71.06598984771574,161.57682538032532L79.94923857868021,125.89266300201416L88.83248730964468,159.65758860111237L97.71573604060914,124.49061870574951L106.5989847715736,178.44495177268982L115.48223350253807,177.67177820205688L124.36548223350253,171.56518399715424L133.24873096446703,206.87225461006165L142.13197969543148,203.74521017074585L151.01522842639594,170.07628083229065L159.89847715736042,174.28051829338074L168.78172588832487,190.00658690929413L177.66497461928935,180.17546832561493L186.5482233502538,187.05005049705505L195.4314720812183,192.28583872318268L204.31472081218274,172.90488481521606L213.1979695431472,160.65666675567627L222.08121827411168,182.54937529563904L230.96446700507613,183.620086312294L239.8477157360406,190.38652181625366L248.73096446700507,189.19259011745453L257.61421319796955,197.99686074256897L266.49746192893406,212.90294229984283L275.3807106598985,178.83739471435547L284.26395939086296,179.64157462120056L293.1472081218274,199.91516768932343L302.0304568527919,207.23594427108765L310.9137055837564,218.45048367977142L319.79695431472084,171.70259356498718L328.6802030456853,166.41280353069305L337.56345177664974,160.1260095834732L355.3299492385787,143.81550550460815L364.21319796954316,157.07876086235046L373.0964467005076,157.84110724925995L381.97969543147207,142.67608523368835L390.8629441624366,141.82074666023254L399.74619289340103,135.4724943637848L408.6294416243655,114.16736841201782L417.51269035532994,135.19814014434814L426.3959390862944,126.49644613265991L435.2791878172589,89.8699700832367L444.16243654822335,180.83395063877106L453.0456852791878,212.26206421852112L464.46700507614213,182.45526552200317L473.3502538071066,118.7340259552002L482.2335025380711,118.60227584838867L491.11675126903555,126.66751742362976L500,143.58860850334167" stroke="#666A86" stroke-width="1" stroke-dasharray="0,2,2" opacity="0.8"/></g><g class="mark-area role-mark layer_4_marks" role="graphics-object" aria-roledescription="area mark container"><path aria-label="weekx: Jan 01, 2020; max0: 2.58052039146; max_ill: 2.58052039146" role="graphics-symbol" aria-roledescription="area mark" d="M0,106.4609706401825L8.883248730964468,91.03113412857056L17.766497461928935,86.58807277679443L26.6497461928934,111.84023022651672L35.53299492385787,72.94508814811707L44.41624365482234,30.23713231086731L53.2994923857868,106.77228569984436L62.18274111675127,131.0946822166443L71.06598984771574,147.35718369483948L79.94923857868021,106.55382871627808L88.83248730964468,83.42174291610718L97.71573604060914,91.49694442749023L106.5989847715736,143.65312457084656L115.48223350253807,153.11984717845917L124.36548223350253,151.96029245853424L133.24873096446703,173.2415646314621L142.13197969543148,146.680748462677L151.01522842639594,154.13695871829987L159.89847715736042,117.95428991317749L168.78172588832487,148.87382984161377L177.66497461928935,138.05177807807922L186.5482233502538,165.79735279083252L195.4314720812183,166.35980308055878L204.31472081218274,151.8972873687744L213.1979695431472,118.72512102127075L222.08121827411168,126.37318968772888L230.96446700507613,156.6234916448593L239.8477157360406,155.04497587680817L248.73096446700507,182.42340087890625L257.61421319796955,172.69627153873444L266.49746192893406,180.05408942699432L275.3807106598985,161.45602762699127L284.26395939086296,147.92636632919312L293.1472081218274,187.29553520679474L302.0304568527919,168.9353048801422L310.9137055837564,156.31040632724762L319.79695431472084,159.64755713939667L328.6802030456853,120.17599940299988L337.56345177664974,126.1770486831665L355.3299492385787,135.89431643486023L364.21319796954316,132.56383538246155L373.0964467005076,130.0471544265747L381.97969543147207,117.7901566028595L390.8629441624366,86.95955872535706L399.74619289340103,106.00115060806274L408.6294416243655,64.36550617218018L417.51269035532994,103.7799060344696L426.3959390862944,80.71035146713257L435.2791878172589,69.04898285865784L444.16243654822335,133.0203652381897L453.0456852791878,181.49034976959229L464.46700507614213,106.4609706401825L473.3502538071066,91.03113412857056L482.2335025380711,86.58807277679443L491.11675126903555,111.84023022651672L500,72.94508814811707L500,72.94508814811707L491.11675126903555,111.84023022651672L482.2335025380711,86.58807277679443L473.3502538071066,91.03113412857056L464.46700507614213,106.4609706401825L453.0456852791878,181.49034976959229L444.16243654822335,133.0203652381897L435.2791878172589,69.04898285865784L426.3959390862944,80.71035146713257L417.51269035532994,103.7799060344696L408.6294416243655,64.36550617218018L399.74619289340103,106.00115060806274L390.8629441624366,86.95955872535706L381.97969543147207,117.7901566028595L373.0964467005076,130.0471544265747L364.21319796954316,132.56383538246155L355.3299492385787,135.89431643486023L337.56345177664974,126.1770486831665L328.6802030456853,120.17599940299988L319.79695431472084,159.64755713939667L310.9137055837564,156.31040632724762L302.0304568527919,168.9353048801422L293.1472081218274,187.29553520679474L284.26395939086296,147.92636632919312L275.3807106598985,161.45602762699127L266.49746192893406,180.05408942699432L257.61421319796955,172.69627153873444L248.73096446700507,182.42340087890625L239.8477157360406,155.04497587680817L230.96446700507613,156.6234916448593L222.08121827411168,126.37318968772888L213.1979695431472,118.72512102127075L204.31472081218274,151.8972873687744L195.4314720812183,166.35980308055878L186.5482233502538,165.79735279083252L177.66497461928935,138.05177807807922L168.78172588832487,148.87382984161377L159.89847715736042,117.95428991317749L151.01522842639594,154.13695871829987L142.13197969543148,146.680748462677L133.24873096446703,173.2415646314621L124.36548223350253,151.96029245853424L115.48223350253807,153.11984717845917L106.5989847715736,143.65312457084656L97.71573604060914,91.49694442749023L88.83248730964468,83.42174291610718L79.94923857868021,115.60236811637878L71.06598984771574,147.35718369483948L62.18274111675127,131.0946822166443L53.2994923857868,124.95741248130798L44.41624365482234,30.23713231086731L35.53299492385787,72.94508814811707L26.6497461928934,111.84023022651672L17.766497461928935,86.58807277679443L8.883248730964468,91.03113412857056L0,106.4609706401825Z" fill="#36b7b4" opacity="0.3"/></g><g class="mark-area role-mark layer_5_marks" role="graphics-object" aria-roledescription="area mark container"><path aria-label="weekx: Jan 01, 2020; min0: 1.23288047314; min_ill: 1.23288047314" role="graphics-symbol" aria-roledescription="area mark" d="M0,207.53396451473236L8.883248730964468,161.23899221420288L17.766497461928935,155.12242019176483L26.6497461928934,154.16094660758972L35.53299492385787,164.64244723320007L44.41624365482234,152.2583395242691L53.2994923857868,180.7957023382187L62.18274111675127,199.5083749294281L71.06598984771574,182.09064602851868L79.94923857868021,185.8710765838623L88.83248730964468,179.78209555149078L97.71573604060914,169.47324872016907L106.5989847715736,216.90974235534668L115.48223350253807,206.36981427669525L124.36548223350253,221.50857746601105L133.24873096446703,222.1430629491806L142.13197969543148,221.66308164596558L151.01522842639594,236.88503801822662L159.89847715736042,232.4124053120613L168.78172588832487,211.20034754276276L177.66497461928935,243.12652498483658L186.5482233502538,227.7928590774536L195.4314720812183,242.66020506620407L204.31472081218274,222.98784255981445L213.1979695431472,198.80162179470062L222.08121827411168,254.1838824748993L230.96446700507613,239.8665726184845L239.8477157360406,222.02260494232178L248.73096446700507,235.2532222867012L257.61421319796955,234.09952819347382L266.49746192893406,237.4547079205513L275.3807106598985,232.90307968854904L284.26395939086296,204.39085364341736L293.1472081218274,260.87456792593L302.0304568527919,240.80399572849274L310.9137055837564,240.84574431180954L319.79695431472084,248.04367125034332L328.6802030456853,243.8253253698349L337.56345177664974,213.33132684230804L355.3299492385787,213.87197971343994L364.21319796954316,207.5767993927002L373.0964467005076,174.52660202980042L381.97969543147207,222.62372374534607L390.8629441624366,186.2753838300705L399.74619289340103,237.17255741357803L408.6294416243655,174.8152256011963L417.51269035532994,222.65547215938568L426.3959390862944,178.8886696100235L435.2791878172589,194.940385222435L444.16243654822335,236.9661659002304L453.0456852791878,259.75862592458725L464.46700507614213,235.72811633348465L473.3502538071066,200.62029361724854L482.2335025380711,195.93630731105804L491.11675126903555,149.4642198085785L500,204.3745994567871L500,164.64244723320007L491.11675126903555,149.4642198085785L482.2335025380711,155.12242019176483L473.3502538071066,161.23899221420288L464.46700507614213,207.53396451473236L453.0456852791878,259.75862592458725L444.16243654822335,201.02410912513733L435.2791878172589,146.09021544456482L426.3959390862944,178.8886696100235L417.51269035532994,145.10189294815063L408.6294416243655,167.16878414154053L399.74619289340103,198.85786771774292L390.8629441624366,186.2753838300705L381.97969543147207,176.35811269283295L373.0964467005076,172.7219581604004L364.21319796954316,172.3563551902771L355.3299492385787,176.127290725708L337.56345177664974,182.43750929832458L328.6802030456853,208.73740017414093L319.79695431472084,225.54065734148026L310.9137055837564,240.84574431180954L302.0304568527919,240.80399572849274L293.1472081218274,235.38249135017395L284.26395939086296,198.21641743183136L275.3807106598985,194.0421849489212L266.49746192893406,237.4547079205513L257.61421319796955,224.95838105678558L248.73096446700507,202.29078233242035L239.8477157360406,217.3010677099228L230.96446700507613,195.11125087738037L222.08121827411168,214.37068283557892L213.1979695431472,196.99798822402954L204.31472081218274,190.8556580543518L195.4314720812183,211.9946926832199L186.5482233502538,199.2131620645523L177.66497461928935,201.53677761554718L168.78172588832487,209.9339872598648L159.89847715736042,195.14058530330658L151.01522842639594,210.81595122814178L142.13197969543148,221.66308164596558L133.24873096446703,222.1430629491806L124.36548223350253,221.50857746601105L115.48223350253807,206.36981427669525L106.5989847715736,192.74688363075256L97.71573604060914,169.47324872016907L88.83248730964468,165.99465608596802L79.94923857868021,185.8710765838623L71.06598984771574,182.09064602851868L62.18274111675127,199.5083749294281L53.2994923857868,180.7957023382187L44.41624365482234,129.4552445411682L35.53299492385787,164.64244723320007L26.6497461928934,149.4642198085785L17.766497461928935,155.12242019176483L8.883248730964468,161.23899221420288L0,207.53396451473236Z" fill="#36b7b4" opacity="0.3"/></g><g class="mark-line role-mark layer_6_marks" role="graphics-object" aria-roledescription="line mark container"><path aria-label="weekx: Jan 01, 2020; ill: 1.76641106606" role="graphics-symbol" aria-roledescription="line mark" d="M0,167.51917004585266L8.883248730964468,108.23049545288086L17.766497461928935,154.01175320148468L26.6497461928934,154.16094660758972L35.53299492385787,142.5081431865692L44.41624365482234,152.2583395242691L53.2994923857868,106.77228569984436L62.18274111675127,176.24791860580444L71.06598984771574,149.55224990844727L79.94923857868021,106.55382871627808L88.83248730964468,179.78209555149078L97.71573604060914,105.30638694763184L106.5989847715736,216.90974235534668L115.48223350253807,160.06332635879517L124.36548223350253,159.19917225837708L133.24873096446703,193.70854496955872L142.13197969543148,200.09155869483948L151.01522842639594,236.88503801822662L159.89847715736042,232.4124053120613L168.78172588832487,211.20034754276276L177.66497461928935,243.12652498483658L186.5482233502538,227.7928590774536L195.4314720812183,242.66020506620407L204.31472081218274,222.98784255981445L213.1979695431472,198.80162179470062L222.08121827411168,254.1838824748993L230.96446700507613,239.8665726184845L239.8477157360406,222.02260494232178L248.73096446700507,235.2532222867012L257.61421319796955,234.09952819347382L266.49746192893406,207.60205686092377L275.3807106598985,232.90307968854904L284.26395939086296,204.39085364341736L293.1472081218274,260.87456792593L302.0304568527919,221.2561547756195L310.9137055837564,237.90691494941711L319.79695431472084,248.04367125034332L328.6802030456853,243.8253253698349L337.56345177664974,213.33132684230804L355.3299492385787,213.87197971343994L364.21319796954316,207.5767993927002L373.0964467005076,174.52660202980042L381.97969543147207,222.62372374534607L390.8629441624366,165.26861786842346L399.74619289340103,237.17255741357803L408.6294416243655,174.8152256011963L417.51269035532994,222.65547215938568L426.3959390862944,160.7776790857315L435.2791878172589,194.940385222435L444.16243654822335,236.9661659002304L453.0456852791878,259.33717489242554L464.46700507614213,235.72811633348465L473.3502538071066,200.62029361724854L482.2335025380711,195.93630731105804L491.11675126903555,128.64017486572266L500,204.3745994567871" stroke="#36b7b4" stroke-width="2"/></g><g class="mark-text role-mark layer_7_marks" role="graphics-object" aria-roledescription="text mark container"><text aria-label="text: 2020; x: Oct 05, 2020; y: 0.8" role="graphics-symbol" aria-roledescription="text mark" text-anchor="start" transform="translate(352.79187817258884,238)" font-family="sans-serif" font-size="11px" font-weight="bold" fill="#36b7b4">2020</text></g><g class="mark-text role-mark layer_8_marks" role="graphics-object" aria-roledescription="text mark container"><text aria-label="text: 2015-2019 average; x: Oct 18, 2020; y: 3.4" role="graphics-symbol" aria-roledescription="text mark" text-anchor="start" transform="translate(369.28934010152284,43.00000000000001)" font-family="sans-serif" font-size="10px" font-weight="lighter" fill="#666A86">2015-2019 average</text></g><g class="mark-text role-mark layer_9_marks" role="graphics-object" aria-roledescription="text mark container"><text aria-label="text: and min-max range; x: Oct 18, 2020; y: 3.2" role="graphics-symbol" aria-roledescription="text mark" text-anchor="start" transform="translate(369.28934010152284,57.999999999999986)" font-family="sans-serif" font-size="10px" font-weight="lighter" fill="#666A86" opacity="0.5">and min-max range</text></g></g><path class="foreground" aria-hidden="true" d="" display="none"/></g></g></g></svg>