<svg xmlns="http://www.w3.org/2000/svg" xmlns:xlink="http://www.w3.org/1999/xlink" version="1.1" class="marks" width="514" height="342" viewBox="0 0 514 342"><rect width="514" height="342" fill="white"/><g fill="none" stroke-miterlimit="10" transform="translate(7,20)"><g class="mark-group role-frame root" role="graphics-object" aria-roledescription="group mark container"><g transform="translate(0,0)"><path class="background" aria-hidden="true" d="M0.5,0.5h500v300h-500Z" stroke="#ddd"/><g><g class="mark-group role-axis" aria-hidden="true"><g transform="translate(0.5,0.5)"><path class="background" aria-hidden="true" d="M0,0h0v0h0Z" pointer-events="none"/><g><g class="mark-rule role-axis-grid" pointer-events="none"><line transform="translate(0,300)" x2="500" y2="0" stroke="#ddd" stroke-width="1" opacity="1"/><line transform="translate(0,257)" x2="500" y2="0" stroke="#ddd" stroke-width="1" opacity="1"/><line transform="translate(0,214)" x2="500" y2="0" stroke="#ddd" stroke-width="1" opacity="1"/><line transform="translate(0,171)" x2="500" y2="0" stroke="#ddd" stroke-width="1" opacity="1"/><line transform="translate(0,129)" x2="500" y2="0" stroke="#ddd" stroke-width="1" opacity="1"/><line transform="translate(0,86)" x2="500" y2="0" stroke="#ddd" stroke-width="1" opacity="1"/><line transform="translate(0,43)" x2="500" y2="0" stroke="#ddd" stroke-width="1" opacity="1"/><line transform="translate(0,0)" x2="500" y2="0" stroke="#ddd" stroke-width="1" opacity="1"/></g></g><path class="foreground" aria-hidden="true" d="" pointer-events="none" display="none"/></g></g><g class="mark-group role-axis" role="graphics-symbol" aria-roledescription="axis" aria-label="X-axis for a time scale with values from Wednesday, 01 January 2020, 12:00:00 AM to Friday, 29 January 2021, 12:00:00 AM"><g transform="translate(0.5,300.5)"><path class="background" aria-hidden="true" d="M0,0h0v0h0Z" pointer-events="none"/><g><g class="mark-rule role-axis-tick" pointer-events="none"><line transform="translate(0,0)" x2="0" y2="5" stroke="#888" stroke-width="1" opacity="1"/><line transform="translate(39,0)" x2="0" y2="5" stroke="#888" stroke-width="1" opacity="1"/><line transform="translate(76,0)" x2="0" y2="5" stroke="#888" stroke-width="1" opacity="1"/><line transform="translate(115,0)" x2="0" y2="5" stroke="#888" stroke-width="1" opacity="1"/><line transform="translate(154,0)" x2="0" y2="5" stroke="#888" stroke-width="1" opacity="1"/><line transform="translate(193,0)" x2="0" y2="5" stroke="#888" stroke-width="1" opacity="1"/><line transform="translate(231,0)" x2="0" y2="5" stroke="#888" stroke-width="1" opacity="1"/><line transform="translate(270,0)" x2="0" y2="5" stroke="#888" stroke-width="1" opacity="1"/><line transform="translate(310,0)" x2="0" y2="5" stroke="#888" stroke-width="1" opacity="1"/><line transform="translate(348,0)" x2="0" y2="5" stroke="#888" stroke-width="1" opacity="1"/><line transform="translate(387,0)" x2="0" y2="5" stroke="#888" stroke-width="1" opacity="1"/><line transform="translate(425,0)" x2="0" y2="5" stroke="#888" stroke-width="1" opacity="1"/><line transform="translate(464,0)" x2="0" y2="5" stroke="#888" stroke-width="1" opacity="1"/></g><g class="mark-text role-axis-label" pointer-events="none"><text text-anchor="start" transform="translate(0,15)" font-family="sans-serif" font-size="10px" fill="#000" opacity="1">2020</text><text text-anchor="middle" transform="translate(39.34010152284264,15)" font-family="sans-serif" font-size="10px" fill="#000" opacity="0">February</text><text text-anchor="middle" transform="translate(76.14213197969544,15)" font-family="sans-serif" font-size="10px" fill="#000" opacity="1">March</text><text text-anchor="middle" transform="translate(115.48223350253807,15)" font-family="sans-serif" font-size="10px" fill="#000" opacity="0">April</text><text text-anchor="middle" transform="translate(153.55329949238578,15)" font-family="sans-serif" font-size="10px" fill="#000" opacity="1">May</text><text text-anchor="middle" transform="translate(192.89340101522842,15)" font-family="sans-serif" font-size="10px" fill="#000" opacity="0">June</text><text text-anchor="middle" transform="translate(230.96446700507613,15)" font-family="sans-serif" font-size="10px" fill="#000" opacity="1">July</text><text text-anchor="middle" transform="translate(270.3045685279188,15)" font-family="sans-serif" font-size="10px" fill="#000" opacity="0">August</text><text text-anchor="middle" transform="translate(309.6446700507614,15)" font-family="sans-serif" font-size="10px" fill="#000" opacity="1">September</text><text text-anchor="middle" transform="translate(347.7157360406091,15)" font-family="sans-serif" font-size="10px" fill="#000" opacity="0">October</text><text text-anchor="middle" transform="translate(387.0558375634518,15)" font-family="sans-serif" font-size="10px" fill="#000" opacity="1">November</text><text text-anchor="middle" transform="translate(425.12690355329954,15)" font-family="sans-serif" font-size="10px" fill="#000" opacity="0">December</text><text text-anchor="middle" transform="translate(464.46700507614213,15)" font-family="sans-serif" font-size="10px" fill="#000" opacity="1">2021</text></g><g class="mark-rule role-axis-domain" pointer-events="none"><line transform="translate(0,0)" x2="500" y2="0" stroke="#888" stroke-width="1" opacity="1"/></g></g><path class="foreground" aria-hidden="true" d="" pointer-events="none" display="none"/></g></g><g class="mark-group role-axis" role="graphics-symbol" aria-roledescription="axis" aria-label="Y-axis titled 'percent' for a linear scale with values from 0 to 35"><g transform="translate(0.5,0.5)"><path class="background" aria-hidden="true" d="M0,0h0v0h0Z" pointer-events="none"/><g><g class="mark-text role-axis-label" pointer-events="none"><text text-anchor="start" transform="translate(5,293)" font-family="sans-serif" font-size="10px" fill="#000" opacity="1">0</text><text text-anchor="start" transform="translate(5,250.14285714285717)" font-family="sans-serif" font-size="10px" fill="#000" opacity="1">5</text><text text-anchor="start" transform="translate(5,207.28571428571428)" font-family="sans-serif" font-size="10px" fill="#000" opacity="1">10</text><text text-anchor="start" transform="translate(5,164.42857142857142)" font-family="sans-serif" font-size="10px" fill="#000" opacity="1">15</text><text text-anchor="start" transform="translate(5,121.57142857142858)" font-family="sans-serif" font-size="10px" fill="#000" opacity="1">20</text><text text-anchor="start" transform="translate(5,78.71428571428571)" font-family="sans-serif" font-size="10px" fill="#000" opacity="1">25</text><text text-anchor="start" transform="translate(5,35.85714285714287)" font-family="sans-serif" font-size="10px" fill="#000" opacity="1">30</text><text text-anchor="start" transform="translate(5,-7)" font-family="sans-serif" font-size="10px" fill="#000" opacity="1">35</text></g><g class="mark-text role-axis-title" pointer-events="none"><text text-anchor="start" transform="translate(21,-7)" font-family="sans-serif" font-size="10px" font-weight="normal" fill="#000" opacity="1">percent</text></g></g><path class="foreground" aria-hidden="true" d="" pointer-events="none" display="none"/></g></g><g class="mark-rule role-mark layer_0_marks" role="graphics-object" aria-roledescription="rule mark container"><line aria-label="x: Jan 29, 2020" role="graphics-symbol" aria-roledescription="rule mark" transform="translate(35.53299492385787,0)" x2="0" y2="300" stroke="#666A86" stroke-width="1" stroke-dasharray="0,1,1" opacity="0.5"/><line aria-label="x: Mar 18, 2020" role="graphics-symbol" aria-roledescription="rule mark" transform="translate(97.71573604060914,0)" x2="0" y2="300" stroke="#666A86" stroke-width="1" stroke-dasharray="0,1,1" opacity="0.5"/></g><g class="mark-text role-mark layer_1_marks" role="graphics-object" aria-roledescription="text mark container"><text aria-label="text: ➡ First COVID-related death in the UK; x: Jan 29, 2020; y: 0.5" role="graphics-symbol" aria-roledescription="text mark" text-anchor="start" transform="translate(35.53299492385787,293.7142857142857)" font-family="sans-serif" font-size="10px" font-weight="lighter" fill="#666A86">➡ First COVID-related death in the UK</text><text aria-label="text: ➡ Start of first UK lockdown; x: Mar 18, 2020; y: 2.5" role="graphics-symbol" aria-roledescription="text mark" text-anchor="start" transform="translate(97.71573604060914,276.57142857142856)" font-family="sans-serif" font-size="10px" font-weight="lighter" fill="#666A86">➡ Start of first UK lockdown</text></g><g class="mark-area role-mark layer_2_marks" role="graphics-object" aria-roledescription="area mark container"><path aria-label="weekx: Jan 01, 2020; max_away: 26; min_away: 7.31433773041" role="graphics-symbol" aria-roledescription="area mark" d="M0,73.00853184291294L8.883248730964468,244.41164016723633L17.766497461928935,253.20448739188058L26.6497461928934,254.12957872663227L35.53299492385787,256.96228981018066L44.41624365482234,253.9013671875L53.2994923857868,241.3893985748291L62.18274111675127,228.76002175467355L71.06598984771574,251.34128706795826L79.94923857868021,255.07472583225794L88.83248730964468,252.94644355773926L97.71573604060914,239.01526042393277L106.5989847715736,212.99890790666853L115.48223350253807,188.22210584368023L124.36548223350253,208.895686013358L133.24873096446703,213.176520211356L142.13197969543148,220.4768862043108L151.01522842639594,251.7191505432129L159.89847715736042,257.4292782374791L168.78172588832487,251.22595923287528L177.66497461928935,247.55519321986606L186.5482233502538,217.82597678048273L195.4314720812183,214.66384342738561L204.31472081218274,245.6938525608608L213.1979695431472,240.67332540239605L222.08121827411168,233.55494499206543L230.96446700507613,229.59910256522045L239.8477157360406,221.20192664010185L248.73096446700507,224.28592136928012L257.61421319796955,203.76296997070312L266.49746192893406,182.00977870396204L275.3807106598985,166.74436569213867L284.26395939086296,186.1987086704799L293.1472081218274,186.02533067975725L302.0304568527919,189.28029196602955L310.9137055837564,201.80235181535994L319.79695431472084,239.13231713431225L328.6802030456853,234.17821475437708L337.56345177664974,246.01513317653112L355.3299492385787,248.2298101697649L364.21319796954316,244.75172996520996L373.0964467005076,227.58803231375558L381.97969543147207,216.57188415527344L390.8629441624366,249.55709184919087L399.74619289340103,244.1128921508789L408.6294416243655,252.9800646645682L417.51269035532994,250.69254602704729L426.3959390862944,251.97011947631836L435.2791878172589,248.49187987191334L444.16243654822335,184.0196473257882L453.0456852791878,75.20697457449775L464.46700507614213,73.00853184291294L473.3502538071066,244.41164016723633L482.2335025380711,253.20448739188058L491.11675126903555,254.12957872663227L500,256.96228981018066L500,271.3590431213379L491.11675126903555,262.0046833583287L482.2335025380711,256.5250928061349L473.3502538071066,259.23013278416227L464.46700507614213,237.3056765965053L453.0456852791878,207.3159844534738L444.16243654822335,256.22331619262695L435.2791878172589,257.67943790980746L426.3959390862944,273.0739075796945L417.51269035532994,263.5834285191127L408.6294416243655,261.3499668666295L399.74619289340103,262.7472332545689L390.8629441624366,259.5591708592006L381.97969543147207,253.11461448669434L373.0964467005076,252.96625409807478L364.21319796954316,257.53192356654574L355.3299492385787,258.23415347508023L337.56345177664974,251.54860496520996L328.6802030456853,253.86510167803084L319.79695431472084,256.5210832868304L310.9137055837564,245.191011428833L302.0304568527919,212.76967457362582L293.1472081218274,196.8294198172433L284.26395939086296,192.73509161812922L275.3807106598985,198.23880059378487L266.49746192893406,202.08912440708704L257.61421319796955,224.83383996146065L248.73096446700507,235.7420172010149L239.8477157360406,239.13741384233748L230.96446700507613,245.47979899815152L222.08121827411168,251.89713069370814L213.1979695431472,249.73371505737305L204.31472081218274,254.41202708653043L195.4314720812183,254.14907864161898L186.5482233502538,249.44328853062223L177.66497461928935,254.2407989501953L168.78172588832487,261.28993443080356L159.89847715736042,268.71663297925676L151.01522842639594,259.22990798950195L142.13197969543148,270.32982894352506L133.24873096446703,253.63234928676061L124.36548223350253,241.14932196480885L115.48223350253807,246.64375713893344L106.5989847715736,253.69947705950057L97.71573604060914,256.49434498378207L88.83248730964468,259.57892417907715L79.94923857868021,265.3632300240653L71.06598984771574,261.09780039106096L62.18274111675127,246.3050283704485L53.2994923857868,255.73443276541573L44.41624365482234,266.79747104644775L35.53299492385787,271.3590431213379L26.6497461928934,262.0046833583287L17.766497461928935,256.5250928061349L8.883248730964468,259.23013278416227L0,237.3056765965053Z" fill="#666A86" opacity="0.15"/></g><g class="mark-line role-mark layer_3_marks" role="graphics-object" aria-roledescription="line mark container"><path aria-label="weekx: Jan 01, 2020; m_away: 12.9295244217" role="graphics-symbol" aria-roledescription="line mark" d="M0,189.17550495692663L8.883248730964468,254.1280255998884L17.766497461928935,254.21103613717213L26.6497461928934,259.9746077401297L35.53299492385787,262.81476974487305L44.41624365482234,256.66814395359586L53.2994923857868,253.53470666067943L62.18274111675127,241.84115818568637L71.06598984771574,257.9258414677211L79.94923857868021,257.3273072923933L88.83248730964468,255.9564277103969L97.71573604060914,254.12888390677315L106.5989847715736,242.78816086905343L115.48223350253807,207.72569111415316L124.36548223350253,231.32799421037947L133.24873096446703,242.16747828892298L142.13197969543148,253.90951292855397L151.01522842639594,255.72875567844935L159.89847715736042,258.4859848022461L168.78172588832487,256.21611867632186L177.66497461928935,248.7291158948626L186.5482233502538,235.8376979827881L195.4314720812183,249.69436781746998L204.31472081218274,251.06964111328125L213.1979695431472,245.17069816589355L222.08121827411168,249.9137142726353L230.96446700507613,238.6457715715681L239.8477157360406,234.71824918474468L248.73096446700507,230.7874815804618L257.61421319796955,209.2358044215611L266.49746192893406,197.13296617780412L275.3807106598985,188.26670510428292L284.26395939086296,191.51824951171875L293.1472081218274,186.83714185442244L302.0304568527919,206.4159229823521L310.9137055837564,232.56893839154924L319.79695431472084,245.5243328639439L328.6802030456853,238.65259306771415L337.56345177664974,248.40082577296667L355.3299492385787,252.31246948242188L364.21319796954316,256.3195405687605L373.0964467005076,244.4682230268206L381.97969543147207,230.90559278215682L390.8629441624366,253.65757942199707L399.74619289340103,253.3660207475935L408.6294416243655,254.22706195286344L417.51269035532994,257.6505170549665L426.3959390862944,259.69902992248535L435.2791878172589,255.4200390407017L444.16243654822335,249.72405706133162L453.0456852791878,97.87105015345983L464.46700507614213,189.17550495692663L473.3502538071066,254.1280255998884L482.2335025380711,254.21103613717213L491.11675126903555,259.9746077401297L500,262.81476974487305" stroke="#666A86" stroke-width="1" stroke-dasharray="0,2,2" opacity="0.8"/></g><g class="mark-area role-mark layer_4_marks" role="graphics-object" aria-roledescription="area mark container"><path aria-label="weekx: Jan 01, 2020; max0: 26.4823379517; max_away: 26.4823379517" role="graphics-symbol" aria-roledescription="area mark" d="M0,73.00853184291294L8.883248730964468,244.41164016723633L17.766497461928935,253.20448739188058L26.6497461928934,254.12957872663227L35.53299492385787,254.06600270952498L44.41624365482234,253.9013671875L53.2994923857868,241.3893985748291L62.18274111675127,228.76002175467355L71.06598984771574,251.34128706795826L79.94923857868021,255.07472583225794L88.83248730964468,242.9529026576451L97.71573604060914,204.01814052036832L106.5989847715736,110.84583827427454L115.48223350253807,102.0331518990653L124.36548223350253,90.13093675885881L133.24873096446703,89.51257978166852L142.13197969543148,99.30702209472655L151.01522842639594,98.15976824079242L159.89847715736042,106.13857269287108L168.78172588832487,100.02474648611886L177.66497461928935,127.87582397460938L186.5482233502538,132.31954847063338L195.4314720812183,135.10047912597656L204.31472081218274,139.11573682512554L213.1979695431472,138.03477696010043L222.08121827411168,119.35157775878906L230.96446700507613,136.83687482561385L239.8477157360406,130.04478999546598L248.73096446700507,137.0697293962751L257.61421319796955,136.758302961077L266.49746192893406,121.87684740339006L275.3807106598985,135.7912118094308L284.26395939086296,134.3235887799944L293.1472081218274,139.9580873761858L302.0304568527919,149.28477696010046L310.9137055837564,194.00079182216098L319.79695431472084,213.94214630126953L328.6802030456853,211.2955938066755L337.56345177664974,220.54517473493306L355.3299492385787,217.98106874738423L364.21319796954316,210.70255279541016L373.0964467005076,208.01323209490093L381.97969543147207,201.43329620361328L390.8629441624366,196.06998988560267L399.74619289340103,190.75845173427035L408.6294416243655,195.60887472970143L417.51269035532994,202.9369190761021L426.3959390862944,218.14464569091797L435.2791878172589,228.6441911969866L444.16243654822335,184.0196473257882L453.0456852791878,75.20697457449775L464.46700507614213,30.082005092075892L473.3502538071066,194.08323015485493L482.2335025380711,201.4779281616211L491.11675126903555,191.33710588727678L500,204.88257816859655L500,256.96228981018066L491.11675126903555,254.12957872663227L482.2335025380711,253.20448739188058L473.3502538071066,244.41164016723633L464.46700507614213,73.00853184291294L453.0456852791878,75.20697457449775L444.16243654822335,184.0196473257882L435.2791878172589,248.49187987191334L426.3959390862944,251.97011947631836L417.51269035532994,250.69254602704729L408.6294416243655,252.9800646645682L399.74619289340103,244.1128921508789L390.8629441624366,249.55709184919087L381.97969543147207,216.57188415527344L373.0964467005076,227.58803231375558L364.21319796954316,244.75172996520996L355.3299492385787,248.2298101697649L337.56345177664974,246.01513317653112L328.6802030456853,234.17821475437708L319.79695431472084,239.13231713431225L310.9137055837564,201.80235181535994L302.0304568527919,189.28029196602955L293.1472081218274,186.02533067975725L284.26395939086296,186.1987086704799L275.3807106598985,166.74436569213867L266.49746192893406,182.00977870396204L257.61421319796955,203.76296997070312L248.73096446700507,224.28592136928012L239.8477157360406,221.20192664010185L230.96446700507613,229.59910256522045L222.08121827411168,233.55494499206543L213.1979695431472,240.67332540239605L204.31472081218274,245.6938525608608L195.4314720812183,214.66384342738561L186.5482233502538,217.82597678048273L177.66497461928935,247.55519321986606L168.78172588832487,251.22595923287528L159.89847715736042,257.4292782374791L151.01522842639594,251.7191505432129L142.13197969543148,220.4768862043108L133.24873096446703,213.176520211356L124.36548223350253,208.895686013358L115.48223350253807,188.22210584368023L106.5989847715736,212.99890790666853L97.71573604060914,239.01526042393277L88.83248730964468,252.94644355773926L79.94923857868021,255.07472583225794L71.06598984771574,251.34128706795826L62.18274111675127,228.76002175467355L53.2994923857868,241.3893985748291L44.41624365482234,253.9013671875L35.53299492385787,256.96228981018066L26.6497461928934,254.12957872663227L17.766497461928935,253.20448739188058L8.883248730964468,244.41164016723633L0,73.00853184291294Z" fill="#36b7b4" opacity="0.3"/></g><g class="mark-area role-mark layer_5_marks" role="graphics-object" aria-roledescription="area mark container"><path aria-label="weekx: Jan 01, 2020; min0: 7.31433773041; min_away: 7.31433773041" role="graphics-symbol" aria-roledescription="area mark" d="M0,237.3056765965053L8.883248730964468,259.23013278416227L17.766497461928935,258.5154124668666L26.6497461928934,262.0046833583287L35.53299492385787,271.3590431213379L44.41624365482234,266.79747104644775L53.2994923857868,255.73443276541573L62.18274111675127,246.3050283704485L71.06598984771574,261.09780039106096L79.94923857868021,265.3632300240653L88.83248730964468,259.57892417907715L97.71573604060914,256.49434498378207L106.5989847715736,253.69947705950057L115.48223350253807,246.64375713893344L124.36548223350253,241.14932196480885L133.24873096446703,253.63234928676061L142.13197969543148,270.32982894352506L151.01522842639594,259.22990798950195L159.89847715736042,268.71663297925676L168.78172588832487,261.28993443080356L177.66497461928935,254.2407989501953L186.5482233502538,249.44328853062223L195.4314720812183,254.14907864161898L204.31472081218274,254.41202708653043L213.1979695431472,249.73371505737305L222.08121827411168,251.89713069370814L230.96446700507613,245.47979899815152L239.8477157360406,239.13741384233748L248.73096446700507,235.7420172010149L257.61421319796955,224.83383996146065L266.49746192893406,202.08912440708704L275.3807106598985,198.23880059378487L284.26395939086296,192.73509161812922L293.1472081218274,196.8294198172433L302.0304568527919,212.76967457362582L310.9137055837564,245.191011428833L319.79695431472084,256.5210832868304L328.6802030456853,253.86510167803084L337.56345177664974,251.54860496520996L355.3299492385787,258.23415347508023L364.21319796954316,257.53192356654574L373.0964467005076,252.96625409807478L381.97969543147207,253.11461448669434L390.8629441624366,259.5591708592006L399.74619289340103,262.7472332545689L408.6294416243655,261.3499668666295L417.51269035532994,263.5834285191127L426.3959390862944,273.0739075796945L435.2791878172589,257.67943790980746L444.16243654822335,256.22331619262695L453.0456852791878,207.3159844534738L464.46700507614213,237.3056765965053L473.3502538071066,259.23013278416227L482.2335025380711,256.5250928061349L491.11675126903555,262.0046833583287L500,271.3590431213379L500,271.3590431213379L491.11675126903555,262.0046833583287L482.2335025380711,256.5250928061349L473.3502538071066,259.23013278416227L464.46700507614213,237.3056765965053L453.0456852791878,207.3159844534738L444.16243654822335,256.22331619262695L435.2791878172589,257.67943790980746L426.3959390862944,273.0739075796945L417.51269035532994,263.5834285191127L408.6294416243655,261.3499668666295L399.74619289340103,262.7472332545689L390.8629441624366,259.5591708592006L381.97969543147207,253.11461448669434L373.0964467005076,252.96625409807478L364.21319796954316,257.53192356654574L355.3299492385787,258.23415347508023L337.56345177664974,251.54860496520996L328.6802030456853,253.86510167803084L319.79695431472084,256.5210832868304L310.9137055837564,245.191011428833L302.0304568527919,212.76967457362582L293.1472081218274,196.8294198172433L284.26395939086296,192.73509161812922L275.3807106598985,198.23880059378487L266.49746192893406,202.08912440708704L257.61421319796955,224.83383996146065L248.73096446700507,235.7420172010149L239.8477157360406,239.13741384233748L230.96446700507613,245.47979899815152L222.08121827411168,251.89713069370814L213.1979695431472,249.73371505737305L204.31472081218274,254.41202708653043L195.4314720812183,254.14907864161898L186.5482233502538,249.44328853062223L177.66497461928935,254.2407989501953L168.78172588832487,261.28993443080356L159.89847715736042,268.71663297925676L151.01522842639594,259.22990798950195L142.13197969543148,270.32982894352506L133.24873096446703,253.63234928676061L124.36548223350253,241.14932196480885L115.48223350253807,246.64375713893344L106.5989847715736,253.69947705950057L97.71573604060914,256.49434498378207L88.83248730964468,259.57892417907715L79.94923857868021,265.3632300240653L71.06598984771574,261.09780039106096L62.18274111675127,246.3050283704485L53.2994923857868,255.73443276541573L44.41624365482234,266.79747104644775L35.53299492385787,271.3590431213379L26.6497461928934,262.0046833583287L17.766497461928935,256.5250928061349L8.883248730964468,259.23013278416227L0,237.3056765965053Z" fill="#36b7b4" opacity="0.3"/></g><g class="mark-line role-mark layer_6_marks" role="graphics-object" aria-roledescription="line mark container"><path aria-label="weekx: Jan 01, 2020; away: 15.4782619476" role="graphics-symbol" aria-roledescription="line mark" d="M0,167.32918330601285L8.883248730964468,250.36241667611256L17.766497461928935,258.5154124668666L26.6497461928934,254.47751590183805L35.53299492385787,254.06600270952498L44.41624365482234,260.8123561314174L53.2994923857868,252.3153305053711L62.18274111675127,234.98295920235768L71.06598984771574,255.32396180289135L79.94923857868021,258.5745416368757L88.83248730964468,242.9529026576451L97.71573604060914,204.01814052036832L106.5989847715736,110.84583827427454L115.48223350253807,102.0331518990653L124.36548223350253,90.13093675885881L133.24873096446703,89.51257978166852L142.13197969543148,99.30702209472655L151.01522842639594,98.15976824079242L159.89847715736042,106.13857269287108L168.78172588832487,100.02474648611886L177.66497461928935,127.87582397460938L186.5482233502538,132.31954847063338L195.4314720812183,135.10047912597656L204.31472081218274,139.11573682512554L213.1979695431472,138.03477696010043L222.08121827411168,119.35157775878906L230.96446700507613,136.83687482561385L239.8477157360406,130.04478999546598L248.73096446700507,137.0697293962751L257.61421319796955,136.758302961077L266.49746192893406,121.87684740339006L275.3807106598985,135.7912118094308L284.26395939086296,134.3235887799944L293.1472081218274,139.9580873761858L302.0304568527919,149.28477696010046L310.9137055837564,194.00079182216098L319.79695431472084,213.94214630126953L328.6802030456853,211.2955938066755L337.56345177664974,220.54517473493306L355.3299492385787,217.98106874738423L364.21319796954316,210.70255279541016L373.0964467005076,208.01323209490093L381.97969543147207,201.43329620361328L390.8629441624366,196.06998988560267L399.74619289340103,190.75845173427035L408.6294416243655,195.60887472970143L417.51269035532994,202.9369190761021L426.3959390862944,218.14464569091797L435.2791878172589,228.6441911969866L444.16243654822335,227.7009119306292L453.0456852791878,82.15894971575057L464.46700507614213,30.082005092075892L473.3502538071066,194.08323015485493L482.2335025380711,201.4779281616211L491.11675126903555,191.33710588727678L500,204.88257816859655" stroke="#36b7b4" stroke-width="2"/></g><g class="mark-text role-mark layer_7_marks" role="graphics-object" aria-roledescription="text mark container"><text aria-label="text: 2020; x: Oct 05, 2020; y: 12" role="graphics-symbol" aria-roledescription="text mark" text-anchor="start" transform="translate(352.79187817258884,195.14285714285714)" font-family="sans-serif" font-size="11px" font-weight="bold" fill="#36b7b4">2020</text></g><g class="mark-text role-mark layer_8_marks" role="graphics-object" aria-roledescription="text mark container"><text aria-label="text: 2015-2019 average; x: Oct 18, 2020; y: 2.5" role="graphics-symbol" aria-roledescription="text mark" text-anchor="start" transform="translate(369.28934010152284,276.57142857142856)" font-family="sans-serif" font-size="10px" font-weight="lighter" fill="#666A86">2015-2019 average</text></g><g class="mark-text role-mark layer_9_marks" role="graphics-object" aria-roledescription="text mark container"><text aria-label="text: and min-max range; x: Oct 18, 2020; y: 1" role="graphics-symbol" aria-roledescription="text mark" text-anchor="start" transform="translate(369.28934010152284,289.42857142857144)" font-family="sans-serif" font-size="10px" font-weight="lighter" fill="#666A86" opacity="0.5">and min-max range</text></g></g><path class="foreground" aria-hidden="true" d="" display="none"/></g></g></g></svg>