<svg xmlns="http://www.w3.org/2000/svg" xmlns:xlink="http://www.w3.org/1999/xlink" version="1.1" class="marks" width="514" height="342" viewBox="0 0 514 342"><rect width="514" height="342" fill="white"/><g fill="none" stroke-miterlimit="10" transform="translate(7,20)"><g class="mark-group role-frame root" role="graphics-object" aria-roledescription="group mark container"><g transform="translate(0,0)"><path class="background" aria-hidden="true" d="M0.5,0.5h500v300h-500Z" stroke="#ddd"/><g><g class="mark-group role-axis" aria-hidden="true"><g transform="translate(0.5,0.5)"><path class="background" aria-hidden="true" d="M0,0h0v0h0Z" pointer-events="none"/><g><g class="mark-rule role-axis-grid" pointer-events="none"><line transform="translate(0,257)" x2="500" y2="0" stroke="#ddd" stroke-width="1" opacity="1"/><line transform="translate(0,171)" x2="500" y2="0" stroke="#ddd" stroke-width="1" opacity="1"/><line transform="translate(0,86)" x2="500" y2="0" stroke="#ddd" stroke-width="1" opacity="1"/><line transform="translate(0,0)" x2="500" y2="0" stroke="#ddd" stroke-width="1" opacity="1"/></g></g><path class="foreground" aria-hidden="true" d="" pointer-events="none" display="none"/></g></g><g class="mark-group role-axis" role="graphics-symbol" aria-roledescription="axis" aria-label="X-axis for a time scale with values from Wednesday, 01 January 2020, 12:00:00 AM to Friday, 29 January 2021, 12:00:00 AM"><g transform="translate(0.5,300.5)"><path class="background" aria-hidden="true" d="M0,0h0v0h0Z" pointer-events="none"/><g><g class="mark-rule role-axis-tick" pointer-events="none"><line transform="translate(0,0)" x2="0" y2="5" stroke="#888" stroke-width="1" opacity="1"/><line transform="translate(39,0)" x2="0" y2="5" stroke="#888" stroke-width="1" opacity="1"/><line transform="translate(76,0)" x2="0" y2="5" stroke="#888" stroke-width="1" opacity="1"/><line transform="translate(115,0)" x2="0" y2="5" stroke="#888" stroke-width="1" opacity="1"/><line transform="translate(154,0)" x2="0" y2="5" stroke="#888" stroke-width="1" opacity="1"/><line transform="translate(193,0)" x2="0" y2="5" stroke="#888" stroke-width="1" opacity="1"/><line transform="translate(231,0)" x2="0" y2="5" stroke="#888" stroke-width="1" opacity="1"/><line transform="translate(270,0)" x2="0" y2="5" stroke="#888" stroke-width="1" opacity="1"/><line transform="translate(310,0)" x2="0" y2="5" stroke="#888" stroke-width="1" opacity="1"/><line transform="translate(348,0)" x2="0" y2="5" stroke="#888" stroke-width="1" opacity="1"/><line transform="translate(387,0)" x2="0" y2="5" stroke="#888" stroke-width="1" opacity="1"/><line transform="translate(425,0)" x2="0" y2="5" stroke="#888" stroke-width="1" opacity="1"/><line transform="translate(464,0)" x2="0" y2="5" stroke="#888" stroke-width="1" opacity="1"/></g><g class="mark-text role-axis-label" pointer-events="none"><text text-anchor="start" transform="translate(0,15)" font-family="sans-serif" font-size="10px" fill="#000" opacity="1">2020</text><text text-anchor="middle" transform="translate(39.34010152284264,15)" font-family="sans-serif" font-size="10px" fill="#000" opacity="0">February</text><text text-anchor="middle" transform="translate(76.14213197969544,15)" font-family="sans-serif" font-size="10px" fill="#000" opacity="1">March</text><text text-anchor="middle" transform="translate(115.48223350253807,15)" font-family="sans-serif" font-size="10px" fill="#000" opacity="0">April</text><text text-anchor="middle" transform="translate(153.55329949238578,15)" font-family="sans-serif" font-size="10px" fill="#000" opacity="1">May</text><text text-anchor="middle" transform="translate(192.89340101522842,15)" font-family="sans-serif" font-size="10px" fill="#000" opacity="0">June</text><text text-anchor="middle" transform="translate(230.96446700507613,15)" font-family="sans-serif" font-size="10px" fill="#000" opacity="1">July</text><text text-anchor="middle" transform="translate(270.3045685279188,15)" font-family="sans-serif" font-size="10px" fill="#000" opacity="0">August</text><text text-anchor="middle" transform="translate(309.6446700507614,15)" font-family="sans-serif" font-size="10px" fill="#000" opacity="1">September</text><text text-anchor="middle" transform="translate(347.7157360406091,15)" font-family="sans-serif" font-size="10px" fill="#000" opacity="0">October</text><text text-anchor="middle" transform="translate(387.0558375634518,15)" font-family="sans-serif" font-size="10px" fill="#000" opacity="1">November</text><text text-anchor="middle" transform="translate(425.12690355329954,15)" font-family="sans-serif" font-size="10px" fill="#000" opacity="0">December</text><text text-anchor="middle" transform="translate(464.46700507614213,15)" font-family="sans-serif" font-size="10px" fill="#000" opacity="1">2021</text></g><g class="mark-rule role-axis-domain" pointer-events="none"><line transform="translate(0,0)" x2="500" y2="0" stroke="#888" stroke-width="1" opacity="1"/></g></g><path class="foreground" aria-hidden="true" d="" pointer-events="none" display="none"/></g></g><g class="mark-group role-axis" role="graphics-symbol" aria-roledescription="axis" aria-label="Y-axis titled 'percent' for a linear scale with values from 500 to 1200"><g transform="translate(0.5,0.5)"><path class="background" aria-hidden="true" d="M0,0h0v0h0Z" pointer-events="none"/><g><g class="mark-text role-axis-label" pointer-events="none"><text text-anchor="start" transform="translate(5,250.14285714285717)" font-family="sans-serif" font-size="10px" fill="#000" opacity="1">600</text><text text-anchor="start" transform="translate(5,164.42857142857142)" font-family="sans-serif" font-size="10px" fill="#000" opacity="1">800</text><text text-anchor="start" transform="translate(5,78.71428571428571)" font-family="sans-serif" font-size="10px" fill="#000" opacity="1">1000</text><text text-anchor="start" transform="translate(5,-7)" font-family="sans-serif" font-size="10px" fill="#000" opacity="1">1200</text></g><g class="mark-text role-axis-title" pointer-events="none"><text text-anchor="start" transform="translate(31,-7)" font-family="sans-serif" font-size="10px" font-weight="normal" fill="#000" opacity="1">percent</text></g></g><path class="foreground" aria-hidden="true" d="" pointer-events="none" display="none"/></g></g><g class="mark-rule role-mark layer_0_marks" role="graphics-object" aria-roledescription="rule mark container"><line aria-label="x: Jan 29, 2020" role="graphics-symbol" aria-roledescription="rule mark" transform="translate(35.53299492385787,0)" x2="0" y2="300" stroke="#666A86" stroke-width="1" stroke-dasharray="0,1,1" opacity="0.5"/><line aria-label="x: Mar 18, 2020" role="graphics-symbol" aria-roledescription="rule mark" transform="translate(97.71573604060914,0)" x2="0" y2="300" stroke="#666A86" stroke-width="1" stroke-dasharray="0,1,1" opacity="0.5"/></g><g class="mark-text role-mark layer_1_marks" role="graphics-object" aria-roledescription="text mark container"><text aria-label="text: ➡ First COVID-related death in the UK; x: Jan 29, 2020; y: 515" role="graphics-symbol" aria-roledescription="text mark" text-anchor="start" transform="translate(35.53299492385787,291.57142857142856)" font-family="sans-serif" font-size="10px" font-weight="lighter" fill="#666A86">➡ First COVID-related death in the UK</text><text aria-label="text: ➡ Start of first UK lockdown; x: Mar 18, 2020; y: 550" role="graphics-symbol" aria-roledescription="text mark" text-anchor="start" transform="translate(97.71573604060914,276.57142857142856)" font-family="sans-serif" font-size="10px" font-weight="lighter" fill="#666A86">➡ Start of first UK lockdown</text></g><g class="mark-area role-mark layer_2_marks" role="graphics-object" aria-roledescription="area mark container"><path aria-label="weekx: Jan 01, 2020; max_nhoursx2: 913; min_nhoursx2: 538.213989258" role="graphics-symbol" aria-roledescription="area mark" d="M0,122.87368338448661L8.883248730964468,50.28782435825892L17.766497461928935,64.88703264508929L26.6497461928934,59.981689453124986L35.53299492385787,51.065133231026785L44.41624365482234,44.09153529575893L53.2994923857868,57.38373674665178L62.18274111675127,60.869750976562486L71.06598984771574,58.684570312499986L79.94923857868021,60.55643136160713L88.83248730964468,53.421491350446416L97.71573604060914,74.33417619977676L106.5989847715736,60.253313337053584L115.48223350253807,71.03231375558036L124.36548223350253,50.80444335937501L133.24873096446703,30.941737583705343L142.13197969543148,59.963378906249986L151.01522842639594,29.999947684151774L159.89847715736042,52.49053083147322L168.78172588832487,32.428135463169625L177.66497461928935,80.22530691964286L186.5482233502538,83.23121861049107L195.4314720812183,65.72633579799107L204.31472081218274,36.02338518415179L213.1979695431472,33.19168526785714L222.08121827411168,47.154105050223215L230.96446700507613,24.345598493303566L239.8477157360406,44.16362653459822L248.73096446700507,88.20624651227678L257.61421319796955,109.60057721819196L266.49746192893406,119.73828996930803L275.3807106598985,103.26256452287947L284.26395939086296,110.7952880859375L293.1472081218274,97.36970738002232L302.0304568527919,98.09119524274553L310.9137055837564,76.55618722098215L319.79695431472084,57.87629045758928L328.6802030456853,81.58844866071428L337.56345177664974,65.24544852120535L355.3299492385787,61.77716936383929L364.21319796954316,54.873046874999986L373.0964467005076,83.5400390625L381.97969543147207,68.51241629464285L390.8629441624366,43.197509765625L399.74619289340103,11.75913783482142L408.6294416243655,48.52676827566964L417.51269035532994,35.00081961495535L426.3959390862944,63.08271135602678L435.2791878172589,69.26136997767857L444.16243654822335,93.01749965122768L453.0456852791878,172.45037841796875L464.46700507614213,122.87368338448661L473.3502538071066,50.28782435825892L482.2335025380711,64.88703264508929L491.11675126903555,59.981689453124986L500,51.065133231026785L500,105.63587297712054L491.11675126903555,92.8307582310268L482.2335025380711,81.62041364397321L473.3502538071066,75.21805245535715L464.46700507614213,283.62257603236606L453.0456852791878,291.9748273577009L444.16243654822335,186.86185128348214L435.2791878172589,157.44349888392856L426.3959390862944,117.66297258649556L417.51269035532994,98.57969447544644L408.6294416243655,84.05079868861608L399.74619289340103,94.71834019252233L390.8629441624366,74.31581333705358L381.97969543147207,122.85704694475446L373.0964467005076,119.53797258649554L364.21319796954316,91.14302280970983L355.3299492385787,88.71389334542411L337.56345177664974,110.48050362723214L328.6802030456853,92.28107561383929L319.79695431472084,101.63394601004465L310.9137055837564,148.9566650390625L302.0304568527919,137.82960728236606L293.1472081218274,150.89025878906247L284.26395939086296,127.01228550502233L275.3807106598985,128.7762451171875L266.49746192893406,147.1083199637277L257.61421319796955,139.46000453404017L248.73096446700507,131.6986083984375L239.8477157360406,113.59002685546876L230.96446700507613,88.14134870256697L222.08121827411168,116.59279959542411L213.1979695431472,105.93995884486606L204.31472081218274,101.39828927176339L195.4314720812183,130.1092267717634L186.5482233502538,129.64994594029017L177.66497461928935,105.48517717633928L168.78172588832487,102.35726492745538L159.89847715736042,125.48863874162947L151.01522842639594,95.10042898995535L142.13197969543148,168.19741385323658L133.24873096446703,136.38746861049106L124.36548223350253,125.75453404017858L115.48223350253807,162.0874720982143L106.5989847715736,148.6047886439732L97.71573604060914,121.20561872209822L88.83248730964468,111.06458391462054L79.94923857868021,106.51135253906251L71.06598984771574,80.80637904575892L62.18274111675127,92.29488699776786L53.2994923857868,88.91405378069196L44.41624365482234,94.79241943359375L35.53299492385787,105.63587297712054L26.6497461928934,92.8307582310268L17.766497461928935,81.62041364397321L8.883248730964468,75.21805245535715L0,283.62257603236606Z" fill="#666A86" opacity="0.15"/></g><g class="mark-line role-mark layer_3_marks" role="graphics-object" aria-roledescription="line mark container"><path aria-label="weekx: Jan 01, 2020; m_nhoursx2: 795.93927002" role="graphics-symbol" aria-roledescription="line mark" d="M0,173.16888427734375L8.883248730964468,65.36519949776786L17.766497461928935,72.43354143415178L26.6497461928934,71.43828473772321L35.53299492385787,60.99441964285713L44.41624365482234,62.63724190848215L53.2994923857868,68.12627301897322L62.18274111675127,83.3331298828125L71.06598984771574,63.96632603236606L79.94923857868021,80.4320068359375L88.83248730964468,78.72528076171876L97.71573604060914,83.25763811383928L106.5989847715736,132.9382585797991L115.48223350253807,137.41942487444197L124.36548223350253,90.56430489676337L133.24873096446703,87.30055454799107L142.13197969543148,103.01003592354911L151.01522842639594,77.22363281250001L159.89847715736042,102.2296142578125L168.78172588832487,70.72124372209821L177.66497461928935,89.68341064453125L186.5482233502538,96.97760009765626L195.4314720812183,85.15814208984376L204.31472081218274,62.53988211495535L213.1979695431472,77.7414027622768L222.08121827411168,87.71018763950893L230.96446700507613,71.40611049107143L239.8477157360406,83.51764787946429L248.73096446700507,114.81848144531251L257.61421319796955,129.14930943080358L266.49746192893406,134.20516531808036L275.3807106598985,117.8189261300223L284.26395939086296,117.24818638392858L293.1472081218274,131.2170933314732L302.0304568527919,125.00508335658482L310.9137055837564,93.43584333147322L319.79695431472084,81.21470424107143L328.6802030456853,87.4068341936384L337.56345177664974,71.468994140625L355.3299492385787,70.88378906250001L364.21319796954316,77.87716238839286L373.0964467005076,100.64698137555803L381.97969543147207,93.79075404575893L390.8629441624366,71.8728724888393L399.74619289340103,48.991803850446416L408.6294416243655,61.48420061383929L417.51269035532994,78.82295445033482L426.3959390862944,91.30386788504465L435.2791878172589,104.22318812779018L444.16243654822335,153.68876429966517L453.0456852791878,259.1766095842634L464.46700507614213,173.16888427734375L473.3502538071066,65.36519949776786L482.2335025380711,72.43354143415178L491.11675126903555,71.43828473772321L500,60.99441964285713" stroke="#666A86" stroke-width="1" stroke-dasharray="0,2,2" opacity="0.8"/></g><g class="mark-area role-mark layer_4_marks" role="graphics-object" aria-roledescription="area mark container"><path aria-label="weekx: Jan 01, 2020; max0: 913.29473877; max_nhoursx2: 913.29473877" role="graphics-symbol" aria-roledescription="area mark" d="M0,122.87368338448661L8.883248730964468,50.28782435825892L17.766497461928935,64.88703264508929L26.6497461928934,56.12371500000004L35.53299492385787,51.065133231026785L44.41624365482234,44.09153529575893L53.2994923857868,57.38373674665178L62.18274111675127,60.869750976562486L71.06598984771574,58.684570312499986L79.94923857868021,57.49184614285715L88.83248730964468,53.421491350446416L97.71573604060914,74.33417619977676L106.5989847715736,60.253313337053584L115.48223350253807,71.03231375558036L124.36548223350253,50.80444335937501L133.24873096446703,30.941737583705343L142.13197969543148,59.963378906249986L151.01522842639594,29.999947684151774L159.89847715736042,52.49053083147322L168.78172588832487,32.428135463169625L177.66497461928935,80.22530691964286L186.5482233502538,83.23121861049107L195.4314720812183,65.72633579799107L204.31472081218274,36.02338518415179L213.1979695431472,33.19168526785714L222.08121827411168,47.154105050223215L230.96446700507613,24.345598493303566L239.8477157360406,44.16362653459822L248.73096446700507,88.20624651227678L257.61421319796955,109.60057721819196L266.49746192893406,119.73828996930803L275.3807106598985,103.26256452287947L284.26395939086296,110.7952880859375L293.1472081218274,97.36970738002232L302.0304568527919,98.09119524274553L310.9137055837564,76.55618722098215L319.79695431472084,57.87629045758928L328.6802030456853,81.58844866071428L337.56345177664974,65.24544852120535L355.3299492385787,61.77716936383929L364.21319796954316,54.873046874999986L373.0964467005076,83.5400390625L381.97969543147207,68.51241629464285L390.8629441624366,43.197509765625L399.74619289340103,11.75913783482142L408.6294416243655,48.52676827566964L417.51269035532994,35.00081961495535L426.3959390862944,63.08271135602678L435.2791878172589,69.26136997767857L444.16243654822335,86.98739014285718L453.0456852791878,172.45037841796875L464.46700507614213,46.48475357142853L473.3502538071066,50.28782435825892L482.2335025380711,64.88703264508929L491.11675126903555,59.981689453124986L500,51.065133231026785L500,51.065133231026785L491.11675126903555,59.981689453124986L482.2335025380711,64.88703264508929L473.3502538071066,50.28782435825892L464.46700507614213,122.87368338448661L453.0456852791878,172.45037841796875L444.16243654822335,93.01749965122768L435.2791878172589,69.26136997767857L426.3959390862944,63.08271135602678L417.51269035532994,35.00081961495535L408.6294416243655,48.52676827566964L399.74619289340103,11.75913783482142L390.8629441624366,43.197509765625L381.97969543147207,68.51241629464285L373.0964467005076,83.5400390625L364.21319796954316,54.873046874999986L355.3299492385787,61.77716936383929L337.56345177664974,65.24544852120535L328.6802030456853,81.58844866071428L319.79695431472084,57.87629045758928L310.9137055837564,76.55618722098215L302.0304568527919,98.09119524274553L293.1472081218274,97.36970738002232L284.26395939086296,110.7952880859375L275.3807106598985,103.26256452287947L266.49746192893406,119.73828996930803L257.61421319796955,109.60057721819196L248.73096446700507,88.20624651227678L239.8477157360406,44.16362653459822L230.96446700507613,24.345598493303566L222.08121827411168,47.154105050223215L213.1979695431472,33.19168526785714L204.31472081218274,36.02338518415179L195.4314720812183,65.72633579799107L186.5482233502538,83.23121861049107L177.66497461928935,80.22530691964286L168.78172588832487,32.428135463169625L159.89847715736042,52.49053083147322L151.01522842639594,29.999947684151774L142.13197969543148,59.963378906249986L133.24873096446703,30.941737583705343L124.36548223350253,50.80444335937501L115.48223350253807,71.03231375558036L106.5989847715736,60.253313337053584L97.71573604060914,74.33417619977676L88.83248730964468,53.421491350446416L79.94923857868021,60.55643136160713L71.06598984771574,58.684570312499986L62.18274111675127,60.869750976562486L53.2994923857868,57.38373674665178L44.41624365482234,44.09153529575893L35.53299492385787,51.065133231026785L26.6497461928934,59.981689453124986L17.766497461928935,64.88703264508929L8.883248730964468,50.28782435825892L0,122.87368338448661Z" fill="#36b7b4" opacity="0.3"/></g><g class="mark-area role-mark layer_5_marks" role="graphics-object" aria-roledescription="area mark container"><path aria-label="weekx: Jan 01, 2020; min0: 538.213989258; min_nhoursx2: 538.213989258" role="graphics-symbol" aria-roledescription="area mark" d="M0,283.62257603236606L8.883248730964468,75.21805245535715L17.766497461928935,81.62041364397321L26.6497461928934,92.8307582310268L35.53299492385787,105.63587297712054L44.41624365482234,94.79241943359375L53.2994923857868,88.91405378069196L62.18274111675127,92.29488699776786L71.06598984771574,80.80637904575892L79.94923857868021,106.51135253906251L88.83248730964468,111.06458391462054L97.71573604060914,121.20561872209822L106.5989847715736,216.5970317142857L115.48223350253807,189.94176299999998L124.36548223350253,185.83394314285715L133.24873096446703,197.36040428571428L142.13197969543148,168.19741385323658L151.01522842639594,168.98399871428575L159.89847715736042,166.3284274285714L168.78172588832487,155.18918057142855L177.66497461928935,153.19528328571425L186.5482233502538,160.85250985714285L195.4314720812183,141.0903797142857L204.31472081218274,150.53185628571427L213.1979695431472,162.35486228571426L222.08121827411168,168.25253142857142L230.96446700507613,150.53903785714286L239.8477157360406,156.32455414285712L248.73096446700507,159.72414514285717L257.61421319796955,157.78851942857145L266.49746192893406,147.3464922857143L275.3807106598985,146.9773182857143L284.26395939086296,148.09340914285715L293.1472081218274,150.89025878906247L302.0304568527919,160.85941842857144L310.9137055837564,148.9566650390625L319.79695431472084,101.63394601004465L328.6802030456853,115.78915199999999L337.56345177664974,110.48050362723214L355.3299492385787,96.10919485714285L364.21319796954316,100.53913800000001L373.0964467005076,119.53797258649554L381.97969543147207,122.85704694475446L390.8629441624366,103.2968502857143L399.74619289340103,100.08413614285712L408.6294416243655,103.79310857142856L417.51269035532994,98.57969447544644L426.3959390862944,117.66297258649556L435.2791878172589,157.44349888392856L444.16243654822335,186.86185128348214L453.0456852791878,291.9748273577009L464.46700507614213,283.62257603236606L473.3502538071066,106.7958857142857L482.2335025380711,90.39576728571427L491.11675126903555,111.04510842857141L500,105.63587297712054L500,105.63587297712054L491.11675126903555,92.8307582310268L482.2335025380711,81.62041364397321L473.3502538071066,75.21805245535715L464.46700507614213,283.62257603236606L453.0456852791878,291.9748273577009L444.16243654822335,186.86185128348214L435.2791878172589,157.44349888392856L426.3959390862944,117.66297258649556L417.51269035532994,98.57969447544644L408.6294416243655,84.05079868861608L399.74619289340103,94.71834019252233L390.8629441624366,74.31581333705358L381.97969543147207,122.85704694475446L373.0964467005076,119.53797258649554L364.21319796954316,91.14302280970983L355.3299492385787,88.71389334542411L337.56345177664974,110.48050362723214L328.6802030456853,92.28107561383929L319.79695431472084,101.63394601004465L310.9137055837564,148.9566650390625L302.0304568527919,137.82960728236606L293.1472081218274,150.89025878906247L284.26395939086296,127.01228550502233L275.3807106598985,128.7762451171875L266.49746192893406,147.1083199637277L257.61421319796955,139.46000453404017L248.73096446700507,131.6986083984375L239.8477157360406,113.59002685546876L230.96446700507613,88.14134870256697L222.08121827411168,116.5927995954241L213.1979695431472,105.93995884486606L204.31472081218274,101.39828927176339L195.4314720812183,130.1092267717634L186.5482233502538,129.64994594029017L177.66497461928935,105.48517717633928L168.78172588832487,102.35726492745538L159.89847715736042,125.48863874162947L151.01522842639594,95.10042898995535L142.13197969543148,168.19741385323658L133.24873096446703,136.38746861049106L124.36548223350253,125.75453404017858L115.48223350253807,162.0874720982143L106.5989847715736,148.6047886439732L97.71573604060914,121.20561872209822L88.83248730964468,111.06458391462054L79.94923857868021,106.51135253906251L71.06598984771574,80.80637904575892L62.18274111675127,92.29488699776786L53.2994923857868,88.91405378069196L44.41624365482234,94.79241943359375L35.53299492385787,105.63587297712054L26.6497461928934,92.8307582310268L17.766497461928935,81.62041364397321L8.883248730964468,75.21805245535715L0,283.62257603236606Z" fill="#36b7b4" opacity="0.3"/></g><g class="mark-line role-mark layer_6_marks" role="graphics-object" aria-roledescription="line mark container"><path aria-label="weekx: Jan 01, 2020; nhoursx2: 734.41069" role="graphics-symbol" aria-roledescription="line mark" d="M0,199.5382757142857L8.883248730964468,61.08222514285717L17.766497461928935,70.12040271428569L26.6497461928934,56.12371500000004L35.53299492385787,59.35058057142856L44.41624365482234,51.23256342857147L53.2994923857868,70.87884685714289L62.18274111675127,86.65140514285712L71.06598984771574,77.06603528571426L79.94923857868021,57.49184614285715L88.83248730964468,68.18964642857145L97.71573604060914,109.66667571428572L106.5989847715736,216.5970317142857L115.48223350253807,189.94176299999998L124.36548223350253,185.83394314285715L133.24873096446703,197.36040428571428L142.13197969543148,163.07927614285717L151.01522842639594,168.98399871428575L159.89847715736042,166.3284274285714L168.78172588832487,155.18918057142855L177.66497461928935,153.19528328571425L186.5482233502538,160.85250985714285L195.4314720812183,141.0903797142857L204.31472081218274,150.53185628571427L213.1979695431472,162.35486228571426L222.08121827411168,168.25253142857142L230.96446700507613,150.53903785714286L239.8477157360406,156.32455414285712L248.73096446700507,159.72414514285717L257.61421319796955,157.78851942857145L266.49746192893406,147.3464922857143L275.3807106598985,146.9773182857143L284.26395939086296,148.09340914285715L293.1472081218274,148.61170800000002L302.0304568527919,160.85941842857144L310.9137055837564,121.39883957142858L319.79695431472084,90.64104385714286L328.6802030456853,115.78915199999999L337.56345177664974,92.39375957142856L355.3299492385787,96.10919485714285L364.21319796954316,100.53913800000001L373.0964467005076,105.01574185714287L381.97969543147207,110.16248271428572L390.8629441624366,103.2968502857143L399.74619289340103,100.08413614285712L408.6294416243655,103.79310857142856L417.51269035532994,94.33774242857143L426.3959390862944,89.65015971428572L435.2791878172589,87.16845042857142L444.16243654822335,86.98739014285718L453.0456852791878,244.05856971428574L464.46700507614213,46.48475357142853L473.3502538071066,106.7958857142857L482.2335025380711,90.39576728571427L491.11675126903555,111.04510842857141L500,98.64119185714284" stroke="#36b7b4" stroke-width="2"/></g><g class="mark-text role-mark layer_7_marks" role="graphics-object" aria-roledescription="text mark container"><text aria-label="text: 2020; x: Jul 28, 2020; y: 810" role="graphics-symbol" aria-roledescription="text mark" text-anchor="start" transform="translate(265.2284263959391,165.14285714285714)" font-family="sans-serif" font-size="11px" font-weight="bold" fill="#36b7b4">2020</text></g><g class="mark-text role-mark layer_8_marks" role="graphics-object" aria-roledescription="text mark container"><text aria-label="text: 2015-2019 average; x: Sep 30, 2020; y: 605" role="graphics-symbol" aria-roledescription="text mark" text-anchor="start" transform="translate(346.44670050761425,253)" font-family="sans-serif" font-size="10px" font-weight="lighter" fill="#666A86">2015-2019 average</text></g><g class="mark-text role-mark layer_9_marks" role="graphics-object" aria-roledescription="text mark container"><text aria-label="text: and min-max range; x: Sep 30, 2020; y: 570" role="graphics-symbol" aria-roledescription="text mark" text-anchor="start" transform="translate(346.44670050761425,268)" font-family="sans-serif" font-size="10px" font-weight="lighter" fill="#666A86" opacity="0.5">and min-max range</text></g></g><path class="foreground" aria-hidden="true" d="" display="none"/></g></g></g></svg>