<svg xmlns="http://www.w3.org/2000/svg" xmlns:xlink="http://www.w3.org/1999/xlink" version="1.1" class="marks" width="514" height="342" viewBox="0 0 514 342"><rect width="514" height="342" fill="white"/><g fill="none" stroke-miterlimit="10" transform="translate(7,20)"><g class="mark-group role-frame root" role="graphics-object" aria-roledescription="group mark container"><g transform="translate(0,0)"><path class="background" aria-hidden="true" d="M0.5,0.5h500v300h-500Z" stroke="#ddd"/><g><g class="mark-group role-axis" aria-hidden="true"><g transform="translate(0.5,0.5)"><path class="background" aria-hidden="true" d="M0,0h0v0h0Z" pointer-events="none"/><g><g class="mark-rule role-axis-grid" pointer-events="none"><line transform="translate(0,300)" x2="500" y2="0" stroke="#ddd" stroke-width="1" opacity="1"/><line transform="translate(0,250)" x2="500" y2="0" stroke="#ddd" stroke-width="1" opacity="1"/><line transform="translate(0,200)" x2="500" y2="0" stroke="#ddd" stroke-width="1" opacity="1"/><line transform="translate(0,150)" x2="500" y2="0" stroke="#ddd" stroke-width="1" opacity="1"/><line transform="translate(0,100)" x2="500" y2="0" stroke="#ddd" stroke-width="1" opacity="1"/><line transform="translate(0,50)" x2="500" y2="0" stroke="#ddd" stroke-width="1" opacity="1"/><line transform="translate(0,0)" x2="500" y2="0" stroke="#ddd" stroke-width="1" opacity="1"/></g></g><path class="foreground" aria-hidden="true" d="" pointer-events="none" display="none"/></g></g><g class="mark-group role-axis" role="graphics-symbol" aria-roledescription="axis" aria-label="X-axis for a time scale with values from Wednesday, 01 January 2020, 12:00:00 AM to Friday, 29 January 2021, 12:00:00 AM"><g transform="translate(0.5,300.5)"><path class="background" aria-hidden="true" d="M0,0h0v0h0Z" pointer-events="none"/><g><g class="mark-rule role-axis-tick" pointer-events="none"><line transform="translate(0,0)" x2="0" y2="5" stroke="#888" stroke-width="1" opacity="1"/><line transform="translate(39,0)" x2="0" y2="5" stroke="#888" stroke-width="1" opacity="1"/><line transform="translate(76,0)" x2="0" y2="5" stroke="#888" stroke-width="1" opacity="1"/><line transform="translate(115,0)" x2="0" y2="5" stroke="#888" stroke-width="1" opacity="1"/><line transform="translate(154,0)" x2="0" y2="5" stroke="#888" stroke-width="1" opacity="1"/><line transform="translate(193,0)" x2="0" y2="5" stroke="#888" stroke-width="1" opacity="1"/><line transform="translate(231,0)" x2="0" y2="5" stroke="#888" stroke-width="1" opacity="1"/><line transform="translate(270,0)" x2="0" y2="5" stroke="#888" stroke-width="1" opacity="1"/><line transform="translate(310,0)" x2="0" y2="5" stroke="#888" stroke-width="1" opacity="1"/><line transform="translate(348,0)" x2="0" y2="5" stroke="#888" stroke-width="1" opacity="1"/><line transform="translate(387,0)" x2="0" y2="5" stroke="#888" stroke-width="1" opacity="1"/><line transform="translate(425,0)" x2="0" y2="5" stroke="#888" stroke-width="1" opacity="1"/><line transform="translate(464,0)" x2="0" y2="5" stroke="#888" stroke-width="1" opacity="1"/></g><g class="mark-text role-axis-label" pointer-events="none"><text text-anchor="start" transform="translate(0,15)" font-family="sans-serif" font-size="10px" fill="#000" opacity="1">2020</text><text text-anchor="middle" transform="translate(39.34010152284264,15)" font-family="sans-serif" font-size="10px" fill="#000" opacity="0">February</text><text text-anchor="middle" transform="translate(76.14213197969544,15)" font-family="sans-serif" font-size="10px" fill="#000" opacity="1">March</text><text text-anchor="middle" transform="translate(115.48223350253807,15)" font-family="sans-serif" font-size="10px" fill="#000" opacity="0">April</text><text text-anchor="middle" transform="translate(153.55329949238578,15)" font-family="sans-serif" font-size="10px" fill="#000" opacity="1">May</text><text text-anchor="middle" transform="translate(192.89340101522842,15)" font-family="sans-serif" font-size="10px" fill="#000" opacity="0">June</text><text text-anchor="middle" transform="translate(230.96446700507613,15)" font-family="sans-serif" font-size="10px" fill="#000" opacity="1">July</text><text text-anchor="middle" transform="translate(270.3045685279188,15)" font-family="sans-serif" font-size="10px" fill="#000" opacity="0">August</text><text text-anchor="middle" transform="translate(309.6446700507614,15)" font-family="sans-serif" font-size="10px" fill="#000" opacity="1">September</text><text text-anchor="middle" transform="translate(347.7157360406091,15)" font-family="sans-serif" font-size="10px" fill="#000" opacity="0">October</text><text text-anchor="middle" transform="translate(387.0558375634518,15)" font-family="sans-serif" font-size="10px" fill="#000" opacity="1">November</text><text text-anchor="middle" transform="translate(425.12690355329954,15)" font-family="sans-serif" font-size="10px" fill="#000" opacity="0">December</text><text text-anchor="middle" transform="translate(464.46700507614213,15)" font-family="sans-serif" font-size="10px" fill="#000" opacity="1">2021</text></g><g class="mark-rule role-axis-domain" pointer-events="none"><line transform="translate(0,0)" x2="500" y2="0" stroke="#888" stroke-width="1" opacity="1"/></g></g><path class="foreground" aria-hidden="true" d="" pointer-events="none" display="none"/></g></g><g class="mark-group role-axis" role="graphics-symbol" aria-roledescription="axis" aria-label="Y-axis titled 'percent' for a linear scale with values from 0.0 to 1.2"><g transform="translate(0.5,0.5)"><path class="background" aria-hidden="true" d="M0,0h0v0h0Z" pointer-events="none"/><g><g class="mark-text role-axis-label" pointer-events="none"><text text-anchor="start" transform="translate(5,293)" font-family="sans-serif" font-size="10px" fill="#000" opacity="1">0.0</text><text text-anchor="start" transform="translate(5,242.99999999999997)" font-family="sans-serif" font-size="10px" fill="#000" opacity="1">0.2</text><text text-anchor="start" transform="translate(5,193)" font-family="sans-serif" font-size="10px" fill="#000" opacity="1">0.4</text><text text-anchor="start" transform="translate(5,143)" font-family="sans-serif" font-size="10px" fill="#000" opacity="1">0.6</text><text text-anchor="start" transform="translate(5,92.99999999999997)" font-family="sans-serif" font-size="10px" fill="#000" opacity="1">0.8</text><text text-anchor="start" transform="translate(5,42.999999999999986)" font-family="sans-serif" font-size="10px" fill="#000" opacity="1">1.0</text><text text-anchor="start" transform="translate(5,-7)" font-family="sans-serif" font-size="10px" fill="#000" opacity="1">1.2</text></g><g class="mark-text role-axis-title" pointer-events="none"><text text-anchor="start" transform="translate(26,-7)" font-family="sans-serif" font-size="10px" font-weight="normal" fill="#000" opacity="1">percent</text></g></g><path class="foreground" aria-hidden="true" d="" pointer-events="none" display="none"/></g></g><g class="mark-rule role-mark layer_0_marks" role="graphics-object" aria-roledescription="rule mark container"><line aria-label="x: Jan 29, 2020" role="graphics-symbol" aria-roledescription="rule mark" transform="translate(35.53299492385787,0)" x2="0" y2="300" stroke="#666A86" stroke-width="1" stroke-dasharray="0,1,1" opacity="0.5"/><line aria-label="x: Mar 18, 2020" role="graphics-symbol" aria-roledescription="rule mark" transform="translate(97.71573604060914,0)" x2="0" y2="300" stroke="#666A86" stroke-width="1" stroke-dasharray="0,1,1" opacity="0.5"/></g><g class="mark-text role-mark layer_1_marks" role="graphics-object" aria-roledescription="text mark container"><text aria-label="text: ➡ First COVID-related death in the UK; x: Jan 29, 2020; y: 0.03" role="graphics-symbol" aria-roledescription="text mark" text-anchor="start" transform="translate(35.53299492385787,290.5)" font-family="sans-serif" font-size="10px" font-weight="lighter" fill="#666A86">➡ First COVID-related death in the UK</text><text aria-label="text: ➡ Start of first UK lockdown; x: Mar 18, 2020; y: 0.1" role="graphics-symbol" aria-roledescription="text mark" text-anchor="start" transform="translate(97.71573604060914,273)" font-family="sans-serif" font-size="10px" font-weight="lighter" fill="#666A86">➡ Start of first UK lockdown</text></g><g class="mark-area role-mark layer_2_marks" role="graphics-object" aria-roledescription="area mark container"><path aria-label="weekx: Jan 01, 2020; max_hired_week: 0.6; min_hired_week: 0.473915964365" role="graphics-symbol" aria-roledescription="area mark" d="M0,157.82212018966675L8.883248730964468,131.69488608837125L17.766497461928935,107.17840790748596L26.6497461928934,108.90481173992157L35.53299492385787,69.15244758129118L44.41624365482234,103.43496799468993L53.2994923857868,70.93818783760071L62.18274111675127,70.40223777294159L71.06598984771574,93.3947443962097L79.94923857868021,143.36423873901364L88.83248730964468,127.02848315238951L97.71573604060914,108.45333635807036L106.5989847715736,38.30661177635193L115.48223350253807,155.02769052982327L124.36548223350253,130.46738803386688L133.24873096446703,119.23483312129973L142.13197969543148,87.8470867872238L151.01522842639594,117.31079518795012L159.89847715736042,110.03043055534361L168.78172588832487,100.40818452835082L177.66497461928935,79.61303293704987L186.5482233502538,62.490928173065186L195.4314720812183,77.60285139083862L204.31472081218274,137.9974216222763L213.1979695431472,93.03379356861112L222.08121827411168,56.330832839012146L230.96446700507613,129.39885556697845L239.8477157360406,105.26246130466461L248.73096446700507,84.52846407890317L257.61421319796955,38.72449994087219L266.49746192893406,4.546213150024403L275.3807106598985,58.0779194831848L284.26395939086296,55.73118031024933L293.1472081218274,35.1202070713043L302.0304568527919,21.636563539504984L310.9137055837564,85.88864207267761L319.79695431472084,34.03516411781309L328.6802030456853,14.263081550598123L337.56345177664974,-5.357933044433638L355.3299492385787,23.029762506484975L364.21319796954316,9.576129913330078L373.0964467005076,11.68154478073118L381.97969543147207,-5.863171815872237L390.8629441624366,88.38036954402924L399.74619289340103,60.20790636539458L408.6294416243655,39.552557468414285L417.51269035532994,41.54549837112425L426.3959390862944,143.15158426761624L435.2791878172589,117.32130050659178L444.16243654822335,99.68701303005216L453.0456852791878,113.21844458580014L464.46700507614213,157.82212018966675L473.3502538071066,131.69488608837125L482.2335025380711,107.17840790748596L491.11675126903555,108.90481173992157L500,69.15244758129118L500,159.20183360576627L491.11675126903555,176.96727365255356L482.2335025380711,172.40515649318695L473.3502538071066,192.80550181865692L464.46700507614213,181.5210089087486L453.0456852791878,167.22327768802643L444.16243654822335,170.36781013011932L435.2791878172589,224.5486557483673L426.3959390862944,167.47436225414276L417.51269035532994,203.61081063747406L408.6294416243655,116.26546382904053L399.74619289340103,127.16928422451016L390.8629441624366,197.06865698099134L381.97969543147207,191.37001335620877L373.0964467005076,118.0132806301117L364.21319796954316,101.81153118610382L355.3299492385787,82.59897232055661L337.56345177664974,47.895240783691406L328.6802030456853,65.14098048210143L319.79695431472084,119.95455920696256L310.9137055837564,152.0432561635971L302.0304568527919,181.7339390516281L293.1472081218274,158.86560380458832L284.26395939086296,162.89788782596588L275.3807106598985,180.20346313714978L266.49746192893406,162.47532069683075L257.61421319796955,104.19169366359708L248.73096446700507,125.85185766220093L239.8477157360406,142.2073125839233L230.96446700507613,154.01572287082672L222.08121827411168,181.30925595760345L213.1979695431472,129.6709656715393L204.31472081218274,175.1503154635429L195.4314720812183,181.41430169343946L186.5482233502538,192.30378717184067L177.66497461928935,177.34769284725186L168.78172588832487,154.734793305397L159.89847715736042,169.99332904815674L151.01522842639594,202.53029763698578L142.13197969543148,158.97816717624664L133.24873096446703,182.52922147512436L124.36548223350253,203.75498682260513L115.48223350253807,207.2951227426529L106.5989847715736,144.93444859981534L97.71573604060914,161.75933480262756L88.83248730964468,179.15566563606262L79.94923857868021,199.9573141336441L71.06598984771574,188.59784603118896L62.18274111675127,106.23871088027951L53.2994923857868,147.97917306423187L44.41624365482234,167.38233268260956L35.53299492385787,159.20183360576627L26.6497461928934,176.96727365255356L17.766497461928935,172.40515649318695L8.883248730964468,192.80550181865692L0,181.5210089087486Z" fill="#666A86" opacity="0.15"/></g><g class="mark-line role-mark layer_3_marks" role="graphics-object" aria-roledescription="line mark container"><path aria-label="weekx: Jan 01, 2020; m_hired_week: 0.488367348909" role="graphics-symbol" aria-roledescription="line mark" d="M0,177.90816277265546L8.883248730964468,172.58610129356381L17.766497461928935,122.7151483297348L26.6497461928934,161.57801747322083L35.53299492385787,133.85746181011197L44.41624365482234,136.55036985874176L53.2994923857868,110.28503179550171L62.18274111675127,98.45611751079558L71.06598984771574,185.90236753225327L79.94923857868021,173.84159862995145L88.83248730964468,139.0279859304428L97.71573604060914,123.11587035655975L106.5989847715736,133.0782353878021L115.48223350253807,173.3735531568527L124.36548223350253,140.98970890045166L133.24873096446703,155.35360872745514L142.13197969543148,150.80592334270477L151.01522842639594,183.14436376094818L159.89847715736042,147.24240005016324L168.78172588832487,131.16076886653897L177.66497461928935,110.84151566028592L186.5482233502538,105.34468591213223L195.4314720812183,122.83858954906461L204.31472081218274,144.34403479099274L213.1979695431472,101.83704197406767L222.08121827411168,112.2151345014572L230.96446700507613,148.6169874668121L239.8477157360406,125.03128051757812L248.73096446700507,105.37825822830197L257.61421319796955,81.04609251022339L266.49746192893406,123.39407503604886L275.3807106598985,125.36201179027555L284.26395939086296,112.65504658222196L293.1472081218274,71.52583003044126L302.0304568527919,93.34609210491178L310.9137055837564,120.8675682544708L319.79695431472084,81.71417117118834L328.6802030456853,62.531712651252725L337.56345177664974,36.34427785873411L355.3299492385787,74.34344589710233L364.21319796954316,32.287138700485215L373.0964467005076,25.101739168167114L381.97969543147207,114.3603205680847L390.8629441624366,139.3406122922897L399.74619289340103,87.383496761322L408.6294416243655,54.48329746723173L417.51269035532994,98.61387610435484L426.3959390862944,152.6943325996399L435.2791878172589,132.80766010284424L444.16243654822335,153.16044092178345L453.0456852791878,117.10705161094666L464.46700507614213,177.90816277265546L473.3502538071066,172.58610129356381L482.2335025380711,122.7151483297348L491.11675126903555,161.57801747322083L500,133.85746181011197" stroke="#666A86" stroke-width="1" stroke-dasharray="0,2,2" opacity="0.8"/></g><g class="mark-area role-mark layer_4_marks" role="graphics-object" aria-roledescription="area mark container"><path aria-label="weekx: Jan 01, 2020; max0: 0.568711519241; max_hired_week: 0.568711519241" role="graphics-symbol" aria-roledescription="area mark" d="M0,157.82212018966675L8.883248730964468,131.69488608837125L17.766497461928935,107.17840790748596L26.6497461928934,108.90481173992157L35.53299492385787,69.15244758129118L44.41624365482234,103.43496799468993L53.2994923857868,70.93818783760071L62.18274111675127,70.40223777294159L71.06598984771574,93.3947443962097L79.94923857868021,143.36423873901364L88.83248730964468,127.02848315238951L97.71573604060914,108.45333635807036L106.5989847715736,38.30661177635193L115.48223350253807,155.02769052982327L124.36548223350253,130.46738803386688L133.24873096446703,119.23483312129973L142.13197969543148,87.8470867872238L151.01522842639594,117.31079518795012L159.89847715736042,110.03043055534361L168.78172588832487,100.40818452835082L177.66497461928935,79.61303293704987L186.5482233502538,62.490928173065186L195.4314720812183,77.60285139083862L204.31472081218274,137.9974216222763L213.1979695431472,93.03379356861112L222.08121827411168,56.330832839012146L230.96446700507613,129.39885556697845L239.8477157360406,105.26246130466461L248.73096446700507,84.52846407890317L257.61421319796955,38.72449994087219L266.49746192893406,4.546213150024403L275.3807106598985,58.0779194831848L284.26395939086296,55.73118031024933L293.1472081218274,35.1202070713043L302.0304568527919,21.636563539504984L310.9137055837564,85.88864207267761L319.79695431472084,34.03516411781309L328.6802030456853,14.263081550598123L337.56345177664974,-5.357933044433638L355.3299492385787,23.029762506484975L364.21319796954316,9.576129913330078L373.0964467005076,11.68154478073118L381.97969543147207,-5.863171815872237L390.8629441624366,88.38036954402924L399.74619289340103,60.20790636539458L408.6294416243655,39.552557468414285L417.51269035532994,41.54549837112425L426.3959390862944,143.15158426761624L435.2791878172589,117.32130050659178L444.16243654822335,99.68701303005216L453.0456852791878,113.21844458580014L464.46700507614213,157.82212018966675L473.3502538071066,131.69488608837125L482.2335025380711,107.17840790748596L491.11675126903555,108.90481173992157L500,69.15244758129118L500,69.15244758129118L491.11675126903555,108.90481173992157L482.2335025380711,107.17840790748596L473.3502538071066,131.69488608837125L464.46700507614213,157.82212018966675L453.0456852791878,113.21844458580014L444.16243654822335,99.68701303005216L435.2791878172589,117.32130050659178L426.3959390862944,143.15158426761624L417.51269035532994,41.54549837112425L408.6294416243655,39.552557468414285L399.74619289340103,60.20790636539458L390.8629441624366,88.38036954402924L381.97969543147207,-5.863171815872237L373.0964467005076,11.68154478073118L364.21319796954316,9.576129913330078L355.3299492385787,23.029762506484975L337.56345177664974,-5.357933044433638L328.6802030456853,14.263081550598123L319.79695431472084,34.03516411781309L310.9137055837564,85.88864207267761L302.0304568527919,21.636563539504984L293.1472081218274,35.1202070713043L284.26395939086296,55.73118031024933L275.3807106598985,58.0779194831848L266.49746192893406,4.546213150024403L257.61421319796955,38.72449994087219L248.73096446700507,84.52846407890317L239.8477157360406,105.26246130466461L230.96446700507613,129.39885556697845L222.08121827411168,56.330832839012146L213.1979695431472,93.03379356861112L204.31472081218274,137.9974216222763L195.4314720812183,77.60285139083862L186.5482233502538,62.490928173065186L177.66497461928935,79.61303293704987L168.78172588832487,100.40818452835082L159.89847715736042,110.03043055534361L151.01522842639594,117.31079518795012L142.13197969543148,87.8470867872238L133.24873096446703,119.23483312129973L124.36548223350253,130.46738803386688L115.48223350253807,155.02769052982327L106.5989847715736,38.30661177635193L97.71573604060914,108.45333635807036L88.83248730964468,127.02848315238951L79.94923857868021,143.36423873901364L71.06598984771574,93.3947443962097L62.18274111675127,70.40223777294159L53.2994923857868,70.93818783760071L44.41624365482234,103.43496799468993L35.53299492385787,69.15244758129118L26.6497461928934,108.90481173992157L17.766497461928935,107.17840790748596L8.883248730964468,131.69488608837125L0,157.82212018966675Z" fill="#36b7b4" opacity="0.3"/></g><g class="mark-area role-mark layer_5_marks" role="graphics-object" aria-roledescription="area mark container"><path aria-label="weekx: Jan 01, 2020; min0: 0.30971288681; min_hired_week: 0.473915964365" role="graphics-symbol" aria-roledescription="area mark" d="M0,222.57177829742432L8.883248730964468,192.80550181865692L17.766497461928935,196.00867033004758L26.6497461928934,176.96727365255356L35.53299492385787,195.62684297561646L44.41624365482234,185.08789241313934L53.2994923857868,169.90155279636383L62.18274111675127,138.44244480133057L71.06598984771574,190.97538590431213L79.94923857868021,224.47474598884583L88.83248730964468,252.35855877399445L97.71573604060914,203.69417518377304L106.5989847715736,217.37814992666245L115.48223350253807,238.13629448413846L124.36548223350253,230.019311606884L133.24873096446703,205.10939061641693L142.13197969543148,183.82165133953092L151.01522842639594,248.62189516425133L159.89847715736042,221.97277396917343L168.78172588832487,223.75764250755307L177.66497461928935,246.18180394172666L186.5482233502538,251.07102021574974L195.4314720812183,226.8394187092781L204.31472081218274,241.4290376007557L213.1979695431472,231.97573721408844L222.08121827411168,238.38206678628922L230.96446700507613,216.54339432716367L239.8477157360406,195.405039191246L248.73096446700507,228.31839621067047L257.61421319796955,191.03521406650543L266.49746192893406,207.91478753089905L275.3807106598985,180.20346313714978L284.26395939086296,200.63238888978958L293.1472081218274,199.91819113492963L302.0304568527919,181.7339390516281L310.9137055837564,190.21198451519012L319.79695431472084,168.24065446853635L328.6802030456853,81.25290572643277L337.56345177664974,75.67917108535767L355.3299492385787,116.1076158285141L364.21319796954316,179.48983907699582L373.0964467005076,118.01338493824002L381.97969543147207,191.37001335620877L390.8629441624366,197.06865698099134L399.74619289340103,146.80446982383728L408.6294416243655,127.69709825515744L417.51269035532994,203.61081063747403L426.3959390862944,172.21044301986694L435.2791878172589,224.5486557483673L444.16243654822335,208.45657140016556L453.0456852791878,199.28662776947021L464.46700507614213,236.57002598047256L473.3502538071066,205.3060337901115L482.2335025380711,178.48168611526486L491.11675126903555,177.29359418153763L500,162.64260113239288L500,159.20183360576627L491.11675126903555,176.96727365255356L482.2335025380711,172.40515649318695L473.3502538071066,192.80550181865692L464.46700507614213,181.5210089087486L453.0456852791878,167.22327768802643L444.16243654822335,170.36781013011932L435.2791878172589,224.5486557483673L426.3959390862944,167.47436225414276L417.51269035532994,203.61081063747403L408.6294416243655,116.26546382904053L399.74619289340103,127.16928422451016L390.8629441624366,197.06865698099134L381.97969543147207,191.37001335620877L373.0964467005076,118.0132806301117L364.21319796954316,101.81153118610382L355.3299492385787,82.59897232055661L337.56345177664974,47.895240783691406L328.6802030456853,65.14098048210143L319.79695431472084,119.95455920696257L310.9137055837564,152.0432561635971L302.0304568527919,181.7339390516281L293.1472081218274,158.86560380458832L284.26395939086296,162.89788782596588L275.3807106598985,180.20346313714978L266.49746192893406,162.47532069683075L257.61421319796955,104.19169366359708L248.73096446700507,125.85185766220093L239.8477157360406,142.2073125839233L230.96446700507613,154.01572287082672L222.08121827411168,181.30925595760345L213.1979695431472,129.6709656715393L204.31472081218274,175.1503154635429L195.4314720812183,181.41430169343946L186.5482233502538,192.30378717184067L177.66497461928935,177.34769284725186L168.78172588832487,154.734793305397L159.89847715736042,169.99332904815674L151.01522842639594,202.53029763698578L142.13197969543148,158.97816717624664L133.24873096446703,182.52922147512436L124.36548223350253,203.75498682260513L115.48223350253807,207.2951227426529L106.5989847715736,144.93444859981534L97.71573604060914,161.75933480262756L88.83248730964468,179.15566563606262L79.94923857868021,199.9573141336441L71.06598984771574,188.59784603118896L62.18274111675127,106.23871088027951L53.2994923857868,147.97917306423187L44.41624365482234,167.38233268260956L35.53299492385787,159.20183360576627L26.6497461928934,176.96727365255356L17.766497461928935,172.40515649318695L8.883248730964468,192.80550181865692L0,181.5210089087486Z" fill="#36b7b4" opacity="0.3"/></g><g class="mark-line role-mark layer_6_marks" role="graphics-object" aria-roledescription="line mark container"><path aria-label="weekx: Jan 01, 2020; hired_week: 0.30971288681" role="graphics-symbol" aria-roledescription="line mark" d="M0,222.57177829742432L8.883248730964468,186.850893497467L17.766497461928935,196.00867033004758L26.6497461928934,152.16152667999265L35.53299492385787,195.62684297561646L44.41624365482234,185.08789241313934L53.2994923857868,169.90155279636383L62.18274111675127,138.44244480133057L71.06598984771574,190.97538590431213L79.94923857868021,224.47474598884583L88.83248730964468,252.35855877399445L97.71573604060914,203.69417518377304L106.5989847715736,217.37814992666245L115.48223350253807,238.13629448413846L124.36548223350253,230.019311606884L133.24873096446703,205.10939061641693L142.13197969543148,183.82165133953092L151.01522842639594,248.62189516425133L159.89847715736042,221.97277396917343L168.78172588832487,223.75764250755307L177.66497461928935,246.18180394172666L186.5482233502538,251.07102021574974L195.4314720812183,226.8394187092781L204.31472081218274,241.4290376007557L213.1979695431472,231.97573721408844L222.08121827411168,238.38206678628922L230.96446700507613,216.54339432716367L239.8477157360406,195.405039191246L248.73096446700507,228.31839621067047L257.61421319796955,191.03521406650543L266.49746192893406,207.91478753089905L275.3807106598985,175.2942681312561L284.26395939086296,200.63238888978958L293.1472081218274,199.91819113492963L302.0304568527919,163.59980702400205L310.9137055837564,190.21198451519012L319.79695431472084,168.24065446853635L328.6802030456853,81.25290572643277L337.56345177664974,75.67917108535767L355.3299492385787,116.1076158285141L364.21319796954316,179.48983907699582L373.0964467005076,118.01338493824002L381.97969543147207,161.86309158802032L390.8629441624366,155.27420043945312L399.74619289340103,146.80446982383728L408.6294416243655,127.69709825515744L417.51269035532994,102.90715396404265L426.3959390862944,172.21044301986694L435.2791878172589,176.42881274223325L444.16243654822335,208.45657140016556L453.0456852791878,199.28662776947021L464.46700507614213,236.57002598047256L473.3502538071066,205.3060337901115L482.2335025380711,178.48168611526486L491.11675126903555,177.29359418153763L500,162.64260113239288" stroke="#36b7b4" stroke-width="2"/></g><g class="mark-text role-mark layer_7_marks" role="graphics-object" aria-roledescription="text mark container"><text aria-label="text: 2020; x: Sep 07, 2020; y: 0.42" role="graphics-symbol" aria-roledescription="text mark" text-anchor="start" transform="translate(317.25888324873097,193)" font-family="sans-serif" font-size="11px" font-weight="bold" fill="#36b7b4">2020</text></g><g class="mark-text role-mark layer_8_marks" role="graphics-object" aria-roledescription="text mark container"><text aria-label="text: 2015-2019 average; x: May 07, 2020; y: 1.07" role="graphics-symbol" aria-roledescription="text mark" text-anchor="start" transform="translate(161.16751269035535,30.499999999999986)" font-family="sans-serif" font-size="10px" font-weight="lighter" fill="#666A86">2015-2019 average</text></g><g class="mark-text role-mark layer_9_marks" role="graphics-object" aria-roledescription="text mark container"><text aria-label="text: and min-max range; x: May 07, 2020; y: 1.015" role="graphics-symbol" aria-roledescription="text mark" text-anchor="start" transform="translate(161.16751269035535,44.25)" font-family="sans-serif" font-size="10px" font-weight="lighter" fill="#666A86" opacity="0.5">and min-max range</text></g></g><path class="foreground" aria-hidden="true" d="" display="none"/></g></g></g></svg>