<svg xmlns="http://www.w3.org/2000/svg" xmlns:xlink="http://www.w3.org/1999/xlink" version="1.1" class="marks" width="514" height="342" viewBox="0 0 514 342"><rect width="514" height="342" fill="white"/><g fill="none" stroke-miterlimit="10" transform="translate(7,20)"><g class="mark-group role-frame root" role="graphics-object" aria-roledescription="group mark container"><g transform="translate(0,0)"><path class="background" aria-hidden="true" d="M0.5,0.5h500v300h-500Z" stroke="#ddd"/><g><g class="mark-group role-axis" aria-hidden="true"><g transform="translate(0.5,0.5)"><path class="background" aria-hidden="true" d="M0,0h0v0h0Z" pointer-events="none"/><g><g class="mark-rule role-axis-grid" pointer-events="none"><line transform="translate(0,300)" x2="500" y2="0" stroke="#ddd" stroke-width="1" opacity="1"/><line transform="translate(0,240)" x2="500" y2="0" stroke="#ddd" stroke-width="1" opacity="1"/><line transform="translate(0,180)" x2="500" y2="0" stroke="#ddd" stroke-width="1" opacity="1"/><line transform="translate(0,120)" x2="500" y2="0" stroke="#ddd" stroke-width="1" opacity="1"/><line transform="translate(0,60)" x2="500" y2="0" stroke="#ddd" stroke-width="1" opacity="1"/><line transform="translate(0,0)" x2="500" y2="0" stroke="#ddd" stroke-width="1" opacity="1"/></g></g><path class="foreground" aria-hidden="true" d="" pointer-events="none" display="none"/></g></g><g class="mark-group role-axis" role="graphics-symbol" aria-roledescription="axis" aria-label="X-axis for a time scale with values from Wednesday, 01 January 2020, 12:00:00 AM to Friday, 29 January 2021, 12:00:00 AM"><g transform="translate(0.5,300.5)"><path class="background" aria-hidden="true" d="M0,0h0v0h0Z" pointer-events="none"/><g><g class="mark-rule role-axis-tick" pointer-events="none"><line transform="translate(0,0)" x2="0" y2="5" stroke="#888" stroke-width="1" opacity="1"/><line transform="translate(39,0)" x2="0" y2="5" stroke="#888" stroke-width="1" opacity="1"/><line transform="translate(76,0)" x2="0" y2="5" stroke="#888" stroke-width="1" opacity="1"/><line transform="translate(115,0)" x2="0" y2="5" stroke="#888" stroke-width="1" opacity="1"/><line transform="translate(154,0)" x2="0" y2="5" stroke="#888" stroke-width="1" opacity="1"/><line transform="translate(193,0)" x2="0" y2="5" stroke="#888" stroke-width="1" opacity="1"/><line transform="translate(231,0)" x2="0" y2="5" stroke="#888" stroke-width="1" opacity="1"/><line transform="translate(270,0)" x2="0" y2="5" stroke="#888" stroke-width="1" opacity="1"/><line transform="translate(310,0)" x2="0" y2="5" stroke="#888" stroke-width="1" opacity="1"/><line transform="translate(348,0)" x2="0" y2="5" stroke="#888" stroke-width="1" opacity="1"/><line transform="translate(387,0)" x2="0" y2="5" stroke="#888" stroke-width="1" opacity="1"/><line transform="translate(425,0)" x2="0" y2="5" stroke="#888" stroke-width="1" opacity="1"/><line transform="translate(464,0)" x2="0" y2="5" stroke="#888" stroke-width="1" opacity="1"/></g><g class="mark-text role-axis-label" pointer-events="none"><text text-anchor="start" transform="translate(0,15)" font-family="sans-serif" font-size="10px" fill="#000" opacity="1">2020</text><text text-anchor="middle" transform="translate(39.34010152284264,15)" font-family="sans-serif" font-size="10px" fill="#000" opacity="0">February</text><text text-anchor="middle" transform="translate(76.14213197969544,15)" font-family="sans-serif" font-size="10px" fill="#000" opacity="1">March</text><text text-anchor="middle" transform="translate(115.48223350253807,15)" font-family="sans-serif" font-size="10px" fill="#000" opacity="0">April</text><text text-anchor="middle" transform="translate(153.55329949238578,15)" font-family="sans-serif" font-size="10px" fill="#000" opacity="1">May</text><text text-anchor="middle" transform="translate(192.89340101522842,15)" font-family="sans-serif" font-size="10px" fill="#000" opacity="0">June</text><text text-anchor="middle" transform="translate(230.96446700507613,15)" font-family="sans-serif" font-size="10px" fill="#000" opacity="1">July</text><text text-anchor="middle" transform="translate(270.3045685279188,15)" font-family="sans-serif" font-size="10px" fill="#000" opacity="0">August</text><text text-anchor="middle" transform="translate(309.6446700507614,15)" font-family="sans-serif" font-size="10px" fill="#000" opacity="1">September</text><text text-anchor="middle" transform="translate(347.7157360406091,15)" font-family="sans-serif" font-size="10px" fill="#000" opacity="0">October</text><text text-anchor="middle" transform="translate(387.0558375634518,15)" font-family="sans-serif" font-size="10px" fill="#000" opacity="1">November</text><text text-anchor="middle" transform="translate(425.12690355329954,15)" font-family="sans-serif" font-size="10px" fill="#000" opacity="0">December</text><text text-anchor="middle" transform="translate(464.46700507614213,15)" font-family="sans-serif" font-size="10px" fill="#000" opacity="1">2021</text></g><g class="mark-rule role-axis-domain" pointer-events="none"><line transform="translate(0,0)" x2="500" y2="0" stroke="#888" stroke-width="1" opacity="1"/></g></g><path class="foreground" aria-hidden="true" d="" pointer-events="none" display="none"/></g></g><g class="mark-group role-axis" role="graphics-symbol" aria-roledescription="axis" aria-label="Y-axis titled 'percent' for a linear scale with values from 0 to 5"><g transform="translate(0.5,0.5)"><path class="background" aria-hidden="true" d="M0,0h0v0h0Z" pointer-events="none"/><g><g class="mark-text role-axis-label" pointer-events="none"><text text-anchor="start" transform="translate(5,293)" font-family="sans-serif" font-size="10px" fill="#000" opacity="1">0</text><text text-anchor="start" transform="translate(5,233)" font-family="sans-serif" font-size="10px" fill="#000" opacity="1">1</text><text text-anchor="start" transform="translate(5,173)" font-family="sans-serif" font-size="10px" fill="#000" opacity="1">2</text><text text-anchor="start" transform="translate(5,113)" font-family="sans-serif" font-size="10px" fill="#000" opacity="1">3</text><text text-anchor="start" transform="translate(5,52.999999999999986)" font-family="sans-serif" font-size="10px" fill="#000" opacity="1">4</text><text text-anchor="start" transform="translate(5,-7)" font-family="sans-serif" font-size="10px" fill="#000" opacity="1">5</text></g><g class="mark-text role-axis-title" pointer-events="none"><text text-anchor="start" transform="translate(21,-7)" font-family="sans-serif" font-size="10px" font-weight="normal" fill="#000" opacity="1">percent</text></g></g><path class="foreground" aria-hidden="true" d="" pointer-events="none" display="none"/></g></g><g class="mark-rule role-mark layer_0_marks" role="graphics-object" aria-roledescription="rule mark container"><line aria-label="x: Jan 29, 2020" role="graphics-symbol" aria-roledescription="rule mark" transform="translate(35.53299492385787,0)" x2="0" y2="300" stroke="#666A86" stroke-width="1" stroke-dasharray="0,1,1" opacity="0.5"/><line aria-label="x: Mar 18, 2020" role="graphics-symbol" aria-roledescription="rule mark" transform="translate(97.71573604060914,0)" x2="0" y2="300" stroke="#666A86" stroke-width="1" stroke-dasharray="0,1,1" opacity="0.5"/></g><g class="mark-text role-mark layer_1_marks" role="graphics-object" aria-roledescription="text mark container"><text aria-label="text: ➡ First COVID-related death in the UK; x: Jan 29, 2020; y: 4.7" role="graphics-symbol" aria-roledescription="text mark" text-anchor="start" transform="translate(35.53299492385787,15.999999999999982)" font-family="sans-serif" font-size="10px" font-weight="lighter" fill="#666A86">➡ First COVID-related death in the UK</text><text aria-label="text: ➡ Start of first UK lockdown; x: Mar 18, 2020; y: 4.4" role="graphics-symbol" aria-roledescription="text mark" text-anchor="start" transform="translate(97.71573604060914,33.999999999999964)" font-family="sans-serif" font-size="10px" font-weight="lighter" fill="#666A86">➡ Start of first UK lockdown</text></g><g class="mark-area role-mark layer_2_marks" role="graphics-object" aria-roledescription="area mark container"><path aria-label="weekx: Jan 01, 2020; max_hired_week_1624: 2; min_hired_week_1624: 1.20071351528" role="graphics-symbol" aria-roledescription="area mark" d="M0,166.51824474334717L8.883248730964468,196.40090703964233L17.766497461928935,142.93314456939697L26.6497461928934,182.44412183761597L35.53299492385787,116.38611316680907L44.41624365482234,162.0750904083252L53.2994923857868,139.1680097579956L62.18274111675127,129.03250694274902L71.06598984771574,220.0612449645996L79.94923857868021,186.83539152145386L88.83248730964468,141.2233543395996L97.71573604060914,147.72807598114014L106.5989847715736,137.29242324829102L115.48223350253807,193.0323886871338L124.36548223350253,205.20727157592773L133.24873096446703,186.3513708114624L142.13197969543148,150.4727554321289L151.01522842639594,147.3288059234619L159.89847715736042,150.93225002288818L168.78172588832487,159.43975925445557L177.66497461928935,134.4879913330078L186.5482233502538,115.3345012664795L195.4314720812183,138.39534759521484L204.31472081218274,165.42323112487793L213.1979695431472,119.97970104217528L222.08121827411168,65.48555374145508L230.96446700507613,142.67284870147705L239.8477157360406,126.9505262374878L248.73096446700507,60.67965030670166L257.61421319796955,73.69494438171387L266.49746192893406,75.96088886260988L275.3807106598985,98.31647872924805L284.26395939086296,144.81345176696777L293.1472081218274,88.75697135925293L302.0304568527919,124.96381759643553L310.9137055837564,144.22977447509766L319.79695431472084,83.71918201446533L328.6802030456853,64.6795177459717L337.56345177664974,71.36854648590088L355.3299492385787,71.25111579895018L364.21319796954316,45.64653396606444L373.0964467005076,73.31836223602295L381.97969543147207,58.471069335937486L390.8629441624366,130.4257106781006L399.74619289340103,114.94377136230469L408.6294416243655,29.93391036987304L417.51269035532994,113.56305599212646L426.3959390862944,163.8802671432495L435.2791878172589,130.06563663482666L444.16243654822335,167.07128047943115L453.0456852791878,135.53880214691162L464.46700507614213,166.51824474334717L473.3502538071066,196.40090703964233L482.2335025380711,142.93314456939697L491.11675126903555,182.44412183761597L500,116.38611316680907L500,228.85544300079346L491.11675126903555,248.81954669952393L482.2335025380711,268.57516050338745L473.3502538071066,242.52192735671997L464.46700507614213,227.95718908309937L453.0456852791878,213.4855842590332L444.16243654822335,242.98927903175354L435.2791878172589,231.81517124176025L426.3959390862944,224.17641162872314L417.51269035532994,266.44049048423767L408.6294416243655,165.832257270813L399.74619289340103,174.82536792755127L390.8629441624366,228.02862167358398L381.97969543147207,213.18658590316772L373.0964467005076,177.53010749816895L364.21319796954316,182.6172924041748L355.3299492385787,162.90644645690918L337.56345177664974,131.28690719604492L328.6802030456853,135.39108753204346L319.79695431472084,161.62569522857666L310.9137055837564,181.91536903381348L302.0304568527919,197.05923557281494L293.1472081218274,177.79931545257568L284.26395939086296,224.07822847366333L275.3807106598985,196.1130166053772L266.49746192893406,214.55487728118896L257.61421319796955,122.33060359954833L248.73096446700507,153.73176097869873L239.8477157360406,186.5914750099182L230.96446700507613,195.26768445968628L222.08121827411168,188.45856428146362L213.1979695431472,200.43494939804077L204.31472081218274,224.05206441879272L195.4314720812183,248.6559247970581L186.5482233502538,201.82908296585083L177.66497461928935,210.49265384674072L168.78172588832487,236.09539031982422L159.89847715736042,260.5257797241211L151.01522842639594,268.68287801742554L142.13197969543148,260.99478363990784L133.24873096446703,261.114764213562L124.36548223350253,251.06167316436768L115.48223350253807,245.14152646064758L106.5989847715736,184.67775106430054L97.71573604060914,211.61051273345947L88.83248730964468,254.67085361480713L79.94923857868021,225.7632350921631L71.06598984771574,241.54312133789062L62.18274111675127,205.83298444747925L53.2994923857868,231.87066793441772L44.41624365482234,217.83446073532104L35.53299492385787,228.85544300079346L26.6497461928934,248.81954669952393L17.766497461928935,268.57516050338745L8.883248730964468,242.52192735671997L0,227.95718908309937Z" fill="#666A86" opacity="0.15"/></g><g class="mark-line role-mark layer_3_marks" role="graphics-object" aria-roledescription="line mark container"><path aria-label="weekx: Jan 01, 2020; m_hired_week_1624: 1.47130668163" role="graphics-symbol" aria-roledescription="line mark" d="M0,211.72159910202026L8.883248730964468,202.03142166137695L17.766497461928935,190.48375368118286L26.6497461928934,205.64558744430542L35.53299492385787,194.1484522819519L44.41624365482234,189.57282543182373L53.2994923857868,193.4073042869568L62.18274111675127,199.9404501914978L71.06598984771574,226.71707153320312L79.94923857868021,203.26837062835693L88.83248730964468,206.33806943893433L97.71573604060914,174.49593544006348L106.5989847715736,175.22356510162354L115.48223350253807,241.50193333625793L124.36548223350253,230.00410079956055L133.24873096446703,246.66090488433838L142.13197969543148,184.77084875106812L151.01522842639594,229.98766422271729L159.89847715736042,227.5345230102539L168.78172588832487,209.49448585510254L177.66497461928935,205.9526538848877L186.5482233502538,172.52089977264404L195.4314720812183,175.67444801330566L204.31472081218274,185.95825910568237L213.1979695431472,161.29672050476074L222.08121827411168,115.19690036773682L230.96446700507613,173.3213996887207L239.8477157360406,154.28654193878174L248.73096446700507,121.2444019317627L257.61421319796955,87.03689575195312L266.49746192893406,126.84286594390868L275.3807106598985,162.60324954986572L284.26395939086296,161.63156032562256L293.1472081218274,103.50906372070312L302.0304568527919,139.26824569702148L310.9137055837564,154.66501235961914L319.79695431472084,138.3634328842163L328.6802030456853,85.82887172698975L337.56345177664974,104.63388919830321L355.3299492385787,122.59024143218993L364.21319796954316,109.61418628692627L373.0964467005076,110.69679737091064L381.97969543147207,172.60498523712158L390.8629441624366,216.11265420913696L399.74619289340103,120.7564115524292L408.6294416243655,133.46727848052979L417.51269035532994,146.78027629852295L426.3959390862944,203.91645669937134L435.2791878172589,191.467866897583L444.16243654822335,178.21186065673828L453.0456852791878,158.24737071990967L464.46700507614213,211.72159910202026L473.3502538071066,202.03142166137695L482.2335025380711,190.48375368118286L491.11675126903555,205.64558744430542L500,194.1484522819519" stroke="#666A86" stroke-width="1" stroke-dasharray="0,2,2" opacity="0.8"/></g><g class="mark-area role-mark layer_4_marks" role="graphics-object" aria-roledescription="area mark container"><path aria-label="weekx: Jan 01, 2020; max0: 2.22469592094; max_hired_week_1624: 2.22469592094" role="graphics-symbol" aria-roledescription="area mark" d="M0,166.51824474334717L8.883248730964468,196.40090703964233L17.766497461928935,142.93314456939697L26.6497461928934,182.44412183761597L35.53299492385787,116.38611316680907L44.41624365482234,162.0750904083252L53.2994923857868,139.1680097579956L62.18274111675127,129.03250694274902L71.06598984771574,220.0612449645996L79.94923857868021,186.83539152145386L88.83248730964468,141.2233543395996L97.71573604060914,147.72807598114014L106.5989847715736,137.29242324829102L115.48223350253807,193.0323886871338L124.36548223350253,205.20727157592773L133.24873096446703,186.3513708114624L142.13197969543148,150.4727554321289L151.01522842639594,147.3288059234619L159.89847715736042,150.93225002288818L168.78172588832487,159.43975925445557L177.66497461928935,134.4879913330078L186.5482233502538,115.3345012664795L195.4314720812183,138.39534759521484L204.31472081218274,165.42323112487793L213.1979695431472,119.97970104217528L222.08121827411168,65.48555374145508L230.96446700507613,142.67284870147705L239.8477157360406,126.9505262374878L248.73096446700507,60.67965030670166L257.61421319796955,73.69494438171387L266.49746192893406,75.96088886260988L275.3807106598985,98.31647872924805L284.26395939086296,144.81345176696777L293.1472081218274,88.75697135925293L302.0304568527919,124.96381759643553L310.9137055837564,144.22977447509766L319.79695431472084,83.71918201446533L328.6802030456853,64.6795177459717L337.56345177664974,71.36854648590088L355.3299492385787,71.25111579895018L364.21319796954316,45.64653396606444L373.0964467005076,73.31836223602295L381.97969543147207,58.471069335937486L390.8629441624366,130.4257106781006L399.74619289340103,114.94377136230469L408.6294416243655,29.93391036987304L417.51269035532994,113.56305599212646L426.3959390862944,163.8802671432495L435.2791878172589,130.06563663482666L444.16243654822335,167.07128047943115L453.0456852791878,135.53880214691162L464.46700507614213,166.51824474334717L473.3502538071066,196.40090703964233L482.2335025380711,142.93314456939697L491.11675126903555,182.44412183761597L500,116.38611316680907L500,116.38611316680907L491.11675126903555,182.44412183761597L482.2335025380711,142.93314456939697L473.3502538071066,196.40090703964233L464.46700507614213,166.51824474334717L453.0456852791878,135.53880214691162L444.16243654822335,167.07128047943115L435.2791878172589,130.06563663482666L426.3959390862944,163.8802671432495L417.51269035532994,113.56305599212646L408.6294416243655,29.93391036987304L399.74619289340103,114.94377136230469L390.8629441624366,130.4257106781006L381.97969543147207,58.471069335937486L373.0964467005076,73.31836223602295L364.21319796954316,45.64653396606444L355.3299492385787,71.25111579895018L337.56345177664974,71.36854648590088L328.6802030456853,64.6795177459717L319.79695431472084,83.71918201446533L310.9137055837564,144.22977447509766L302.0304568527919,124.96381759643553L293.1472081218274,88.75697135925293L284.26395939086296,144.81345176696777L275.3807106598985,98.31647872924805L266.49746192893406,75.96088886260988L257.61421319796955,73.69494438171387L248.73096446700507,60.67965030670166L239.8477157360406,126.9505262374878L230.96446700507613,142.67284870147705L222.08121827411168,65.48555374145508L213.1979695431472,119.97970104217528L204.31472081218274,165.42323112487793L195.4314720812183,138.39534759521484L186.5482233502538,115.3345012664795L177.66497461928935,134.4879913330078L168.78172588832487,159.43975925445557L159.89847715736042,150.93225002288818L151.01522842639594,147.3288059234619L142.13197969543148,150.4727554321289L133.24873096446703,186.3513708114624L124.36548223350253,205.20727157592773L115.48223350253807,193.0323886871338L106.5989847715736,137.29242324829102L97.71573604060914,147.72807598114014L88.83248730964468,141.2233543395996L79.94923857868021,186.83539152145386L71.06598984771574,220.0612449645996L62.18274111675127,129.03250694274902L53.2994923857868,139.1680097579956L44.41624365482234,162.0750904083252L35.53299492385787,116.38611316680907L26.6497461928934,182.44412183761597L17.766497461928935,142.93314456939697L8.883248730964468,196.40090703964233L0,166.51824474334717Z" fill="#36b7b4" opacity="0.3"/></g><g class="mark-area role-mark layer_5_marks" role="graphics-object" aria-roledescription="area mark container"><path aria-label="weekx: Jan 01, 2020; min0: 0.716747820377; min_hired_week_1624: 1.20071351528" role="graphics-symbol" aria-roledescription="area mark" d="M0,256.995130777359L8.883248730964468,242.52192735671997L17.766497461928935,268.57516050338745L26.6497461928934,248.81954669952393L35.53299492385787,233.5370922088623L44.41624365482234,232.5278091430664L53.2994923857868,231.87066793441772L62.18274111675127,216.44502639770508L71.06598984771574,241.54312133789062L79.94923857868021,263.14449548721313L88.83248730964468,290.23495584726334L97.71573604060914,267.0199978351593L106.5989847715736,253.17238569259644L115.48223350253807,256.89289569854736L124.36548223350253,271.4187687635422L133.24873096446703,261.114764213562L142.13197969543148,260.99478363990784L151.01522842639594,268.68287801742554L159.89847715736042,260.5257797241211L168.78172588832487,236.09539031982422L177.66497461928935,264.87149119377136L186.5482233502538,256.1962938308716L195.4314720812183,248.6559247970581L204.31472081218274,281.6887700557709L213.1979695431472,279.51306760311127L222.08121827411168,248.31122875213623L230.96446700507613,226.0487723350525L239.8477157360406,212.9684543609619L248.73096446700507,248.49388718605042L257.61421319796955,184.8130488395691L266.49746192893406,214.55487728118896L275.3807106598985,196.1130166053772L284.26395939086296,245.88536739349365L293.1472081218274,224.64707851409912L302.0304568527919,197.05923557281494L310.9137055837564,260.1692318916321L319.79695431472084,194.87299919128418L328.6802030456853,135.39108753204346L337.56345177664974,132.8880214691162L355.3299492385787,162.90644645690918L364.21319796954316,219.07920598983765L373.0964467005076,177.53010749816895L381.97969543147207,213.18658590316772L390.8629441624366,228.02862167358398L399.74619289340103,215.6058955192566L408.6294416243655,182.55439281463623L417.51269035532994,266.44049048423767L426.3959390862944,248.67300152778625L435.2791878172589,231.81517124176025L444.16243654822335,242.98927903175354L453.0456852791878,240.36668300628662L464.46700507614213,231.01125240325928L473.3502538071066,266.3863742351532L482.2335025380711,268.57516050338745L491.11675126903555,248.81954669952393L500,242.63413310050964L500,228.85544300079346L491.11675126903555,248.81954669952393L482.2335025380711,268.57516050338745L473.3502538071066,242.52192735671997L464.46700507614213,227.95718908309937L453.0456852791878,213.4855842590332L444.16243654822335,242.98927903175354L435.2791878172589,231.81517124176025L426.3959390862944,224.17641162872314L417.51269035532994,266.44049048423767L408.6294416243655,165.832257270813L399.74619289340103,174.82536792755127L390.8629441624366,228.02862167358398L381.97969543147207,213.18658590316772L373.0964467005076,177.53010749816895L364.21319796954316,182.6172924041748L355.3299492385787,162.90644645690918L337.56345177664974,131.28690719604492L328.6802030456853,135.39108753204346L319.79695431472084,161.62569522857666L310.9137055837564,181.91536903381348L302.0304568527919,197.05923557281494L293.1472081218274,177.79931545257568L284.26395939086296,224.07822847366333L275.3807106598985,196.1130166053772L266.49746192893406,214.55487728118896L257.61421319796955,122.33060359954833L248.73096446700507,153.73176097869873L239.8477157360406,186.5914750099182L230.96446700507613,195.26768445968628L222.08121827411168,188.45856428146362L213.1979695431472,200.43494939804077L204.31472081218274,224.05206441879272L195.4314720812183,248.6559247970581L186.5482233502538,201.82908296585083L177.66497461928935,210.49265384674072L168.78172588832487,236.09539031982422L159.89847715736042,260.5257797241211L151.01522842639594,268.68287801742554L142.13197969543148,260.99478363990784L133.24873096446703,261.114764213562L124.36548223350253,251.06167316436768L115.48223350253807,245.14152646064758L106.5989847715736,184.67775106430054L97.71573604060914,211.61051273345947L88.83248730964468,254.67085361480713L79.94923857868021,225.7632350921631L71.06598984771574,241.54312133789062L62.18274111675127,205.83298444747925L53.2994923857868,231.87066793441772L44.41624365482234,217.83446073532104L35.53299492385787,228.85544300079346L26.6497461928934,248.81954669952393L17.766497461928935,268.57516050338745L8.883248730964468,242.52192735671997L0,227.95718908309937Z" fill="#36b7b4" opacity="0.3"/></g><g class="mark-line role-mark layer_6_marks" role="graphics-object" aria-roledescription="line mark container"><path aria-label="weekx: Jan 01, 2020; hired_week_1624: 0.716747820377" role="graphics-symbol" aria-roledescription="line mark" d="M0,256.995130777359L8.883248730964468,215.00548124313354L17.766497461928935,222.68369436264038L26.6497461928934,207.2690749168396L35.53299492385787,233.5370922088623L44.41624365482234,232.5278091430664L53.2994923857868,231.2387752532959L62.18274111675127,216.44502639770508L71.06598984771574,221.961829662323L79.94923857868021,263.14449548721313L88.83248730964468,290.23495584726334L97.71573604060914,267.0199978351593L106.5989847715736,253.17238569259644L115.48223350253807,256.89289569854736L124.36548223350253,271.4187687635422L133.24873096446703,254.44639205932617L142.13197969543148,227.9426407814026L151.01522842639594,240.49845457077026L159.89847715736042,256.1904215812683L168.78172588832487,220.83282709121704L177.66497461928935,264.87149119377136L186.5482233502538,256.1962938308716L195.4314720812183,237.72764682769775L204.31472081218274,281.6887700557709L213.1979695431472,279.51306760311127L222.08121827411168,248.31122875213623L230.96446700507613,226.0487723350525L239.8477157360406,212.9684543609619L248.73096446700507,248.49388718605042L257.61421319796955,184.8130488395691L266.49746192893406,203.91466856002808L275.3807106598985,186.43496990203857L284.26395939086296,245.88536739349365L293.1472081218274,224.64707851409912L302.0304568527919,188.18255424499512L310.9137055837564,260.1692318916321L319.79695431472084,194.87299919128418L328.6802030456853,112.84894466400146L337.56345177664974,132.8880214691162L355.3299492385787,157.5233030319214L364.21319796954316,219.07920598983765L373.0964467005076,160.84346294403076L381.97969543147207,147.01319217681885L390.8629441624366,212.7082085609436L399.74619289340103,215.6058955192566L408.6294416243655,182.55439281463623L417.51269035532994,153.9102029800415L426.3959390862944,248.67300152778625L435.2791878172589,203.63194942474365L444.16243654822335,203.34621906280518L453.0456852791878,240.36668300628662L464.46700507614213,231.01125240325928L473.3502538071066,266.3863742351532L482.2335025380711,210.82753658294678L491.11675126903555,235.46979904174805L500,242.63413310050964" stroke="#36b7b4" stroke-width="2"/></g><g class="mark-text role-mark layer_7_marks" role="graphics-object" aria-roledescription="text mark container"><text aria-label="text: 2020; x: Sep 07, 2020; y: 0.42" role="graphics-symbol" aria-roledescription="text mark" text-anchor="start" transform="translate(317.25888324873097,272.8)" font-family="sans-serif" font-size="11px" font-weight="bold" fill="#36b7b4">2020</text></g><g class="mark-text role-mark layer_8_marks" role="graphics-object" aria-roledescription="text mark container"><text aria-label="text: 2015-2019 average; x: Sep 07, 2020; y: 4.35" role="graphics-symbol" aria-roledescription="text mark" text-anchor="start" transform="translate(317.25888324873097,37.000000000000036)" font-family="sans-serif" font-size="10px" font-weight="lighter" fill="#666A86">2015-2019 average</text></g><g class="mark-text role-mark layer_9_marks" role="graphics-object" aria-roledescription="text mark container"><text aria-label="text: and min-max range; x: Sep 07, 2020; y: 4.1" role="graphics-symbol" aria-roledescription="text mark" text-anchor="start" transform="translate(317.25888324873097,52.000000000000014)" font-family="sans-serif" font-size="10px" font-weight="lighter" fill="#666A86" opacity="0.5">and min-max range</text></g></g><path class="foreground" aria-hidden="true" d="" display="none"/></g></g></g></svg>