<svg xmlns="http://www.w3.org/2000/svg" xmlns:xlink="http://www.w3.org/1999/xlink" version="1.1" class="marks" width="514" height="342" viewBox="0 0 514 342"><rect width="514" height="342" fill="white"/><g fill="none" stroke-miterlimit="10" transform="translate(7,20)"><g class="mark-group role-frame root" role="graphics-object" aria-roledescription="group mark container"><g transform="translate(0,0)"><path class="background" aria-hidden="true" d="M0.5,0.5h500v300h-500Z" stroke="#ddd"/><g><g class="mark-group role-axis" aria-hidden="true"><g transform="translate(0.5,0.5)"><path class="background" aria-hidden="true" d="M0,0h0v0h0Z" pointer-events="none"/><g><g class="mark-rule role-axis-grid" pointer-events="none"><line transform="translate(0,300)" x2="500" y2="0" stroke="#ddd" stroke-width="1" opacity="1"/><line transform="translate(0,257)" x2="500" y2="0" stroke="#ddd" stroke-width="1" opacity="1"/><line transform="translate(0,214)" x2="500" y2="0" stroke="#ddd" stroke-width="1" opacity="1"/><line transform="translate(0,171)" x2="500" y2="0" stroke="#ddd" stroke-width="1" opacity="1"/><line transform="translate(0,129)" x2="500" y2="0" stroke="#ddd" stroke-width="1" opacity="1"/><line transform="translate(0,86)" x2="500" y2="0" stroke="#ddd" stroke-width="1" opacity="1"/><line transform="translate(0,43)" x2="500" y2="0" stroke="#ddd" stroke-width="1" opacity="1"/><line transform="translate(0,0)" x2="500" y2="0" stroke="#ddd" stroke-width="1" opacity="1"/></g></g><path class="foreground" aria-hidden="true" d="" pointer-events="none" display="none"/></g></g><g class="mark-group role-axis" role="graphics-symbol" aria-roledescription="axis" aria-label="X-axis for a time scale with values from Wednesday, 01 January 2020, 12:00:00 AM to Friday, 29 January 2021, 12:00:00 AM"><g transform="translate(0.5,300.5)"><path class="background" aria-hidden="true" d="M0,0h0v0h0Z" pointer-events="none"/><g><g class="mark-rule role-axis-tick" pointer-events="none"><line transform="translate(0,0)" x2="0" y2="5" stroke="#888" stroke-width="1" opacity="1"/><line transform="translate(39,0)" x2="0" y2="5" stroke="#888" stroke-width="1" opacity="1"/><line transform="translate(76,0)" x2="0" y2="5" stroke="#888" stroke-width="1" opacity="1"/><line transform="translate(115,0)" x2="0" y2="5" stroke="#888" stroke-width="1" opacity="1"/><line transform="translate(154,0)" x2="0" y2="5" stroke="#888" stroke-width="1" opacity="1"/><line transform="translate(193,0)" x2="0" y2="5" stroke="#888" stroke-width="1" opacity="1"/><line transform="translate(231,0)" x2="0" y2="5" stroke="#888" stroke-width="1" opacity="1"/><line transform="translate(270,0)" x2="0" y2="5" stroke="#888" stroke-width="1" opacity="1"/><line transform="translate(310,0)" x2="0" y2="5" stroke="#888" stroke-width="1" opacity="1"/><line transform="translate(348,0)" x2="0" y2="5" stroke="#888" stroke-width="1" opacity="1"/><line transform="translate(387,0)" x2="0" y2="5" stroke="#888" stroke-width="1" opacity="1"/><line transform="translate(425,0)" x2="0" y2="5" stroke="#888" stroke-width="1" opacity="1"/><line transform="translate(464,0)" x2="0" y2="5" stroke="#888" stroke-width="1" opacity="1"/></g><g class="mark-text role-axis-label" pointer-events="none"><text text-anchor="start" transform="translate(0,15)" font-family="sans-serif" font-size="10px" fill="#000" opacity="1">2020</text><text text-anchor="middle" transform="translate(39.34010152284264,15)" font-family="sans-serif" font-size="10px" fill="#000" opacity="0">February</text><text text-anchor="middle" transform="translate(76.14213197969544,15)" font-family="sans-serif" font-size="10px" fill="#000" opacity="1">March</text><text text-anchor="middle" transform="translate(115.48223350253807,15)" font-family="sans-serif" font-size="10px" fill="#000" opacity="0">April</text><text text-anchor="middle" transform="translate(153.55329949238578,15)" font-family="sans-serif" font-size="10px" fill="#000" opacity="1">May</text><text text-anchor="middle" transform="translate(192.89340101522842,15)" font-family="sans-serif" font-size="10px" fill="#000" opacity="0">June</text><text text-anchor="middle" transform="translate(230.96446700507613,15)" font-family="sans-serif" font-size="10px" fill="#000" opacity="1">July</text><text text-anchor="middle" transform="translate(270.3045685279188,15)" font-family="sans-serif" font-size="10px" fill="#000" opacity="0">August</text><text text-anchor="middle" transform="translate(309.6446700507614,15)" font-family="sans-serif" font-size="10px" fill="#000" opacity="1">September</text><text text-anchor="middle" transform="translate(347.7157360406091,15)" font-family="sans-serif" font-size="10px" fill="#000" opacity="0">October</text><text text-anchor="middle" transform="translate(387.0558375634518,15)" font-family="sans-serif" font-size="10px" fill="#000" opacity="1">November</text><text text-anchor="middle" transform="translate(425.12690355329954,15)" font-family="sans-serif" font-size="10px" fill="#000" opacity="0">December</text><text text-anchor="middle" transform="translate(464.46700507614213,15)" font-family="sans-serif" font-size="10px" fill="#000" opacity="1">2021</text></g><g class="mark-rule role-axis-domain" pointer-events="none"><line transform="translate(0,0)" x2="500" y2="0" stroke="#888" stroke-width="1" opacity="1"/></g></g><path class="foreground" aria-hidden="true" d="" pointer-events="none" display="none"/></g></g><g class="mark-group role-axis" role="graphics-symbol" aria-roledescription="axis" aria-label="Y-axis titled 'percent' for a linear scale with values from 0.00 to 0.35"><g transform="translate(0.5,0.5)"><path class="background" aria-hidden="true" d="M0,0h0v0h0Z" pointer-events="none"/><g><g class="mark-text role-axis-label" pointer-events="none"><text text-anchor="start" transform="translate(5,293)" font-family="sans-serif" font-size="10px" fill="#000" opacity="1">0.00</text><text text-anchor="start" transform="translate(5,250.1428571428571)" font-family="sans-serif" font-size="10px" fill="#000" opacity="1">0.05</text><text text-anchor="start" transform="translate(5,207.28571428571425)" font-family="sans-serif" font-size="10px" fill="#000" opacity="1">0.10</text><text text-anchor="start" transform="translate(5,164.42857142857142)" font-family="sans-serif" font-size="10px" fill="#000" opacity="1">0.15</text><text text-anchor="start" transform="translate(5,121.57142857142856)" font-family="sans-serif" font-size="10px" fill="#000" opacity="1">0.20</text><text text-anchor="start" transform="translate(5,78.71428571428571)" font-family="sans-serif" font-size="10px" fill="#000" opacity="1">0.25</text><text text-anchor="start" transform="translate(5,35.85714285714284)" font-family="sans-serif" font-size="10px" fill="#000" opacity="1">0.30</text><text text-anchor="start" transform="translate(5,-7)" font-family="sans-serif" font-size="10px" fill="#000" opacity="1">0.35</text></g><g class="mark-text role-axis-title" pointer-events="none"><text text-anchor="start" transform="translate(31,-7)" font-family="sans-serif" font-size="10px" font-weight="normal" fill="#000" opacity="1">percent</text></g></g><path class="foreground" aria-hidden="true" d="" pointer-events="none" display="none"/></g></g><g class="mark-rule role-mark layer_0_marks" role="graphics-object" aria-roledescription="rule mark container"><line aria-label="x: Jan 29, 2020" role="graphics-symbol" aria-roledescription="rule mark" transform="translate(35.53299492385787,0)" x2="0" y2="300" stroke="#666A86" stroke-width="1" stroke-dasharray="0,1,1" opacity="0.5"/><line aria-label="x: Mar 18, 2020" role="graphics-symbol" aria-roledescription="rule mark" transform="translate(97.71573604060914,0)" x2="0" y2="300" stroke="#666A86" stroke-width="1" stroke-dasharray="0,1,1" opacity="0.5"/></g><g class="mark-text role-mark layer_1_marks" role="graphics-object" aria-roledescription="text mark container"><text aria-label="text: ➡ First COVID-related death in the UK; x: Jan 29, 2020; y: 0.006" role="graphics-symbol" aria-roledescription="text mark" text-anchor="start" transform="translate(35.53299492385787,292.8571428571429)" font-family="sans-serif" font-size="10px" font-weight="lighter" fill="#666A86">➡ First COVID-related death in the UK</text><text aria-label="text: ➡ Start of first UK lockdown; x: Mar 18, 2020; y: 0.025" role="graphics-symbol" aria-roledescription="text mark" text-anchor="start" transform="translate(97.71573604060914,276.57142857142856)" font-family="sans-serif" font-size="10px" font-weight="lighter" fill="#666A86">➡ Start of first UK lockdown</text></g><g class="mark-area role-mark layer_2_marks" role="graphics-object" aria-roledescription="area mark container"><path aria-label="weekx: Jan 01, 2020; max_quit_week: 0.19; min_quit_week: 0.155835524201" role="graphics-symbol" aria-roledescription="area mark" d="M0,133.1350258418492L8.883248730964468,133.8454152856554L17.766497461928935,117.9944540773119L26.6497461928934,133.05250321115767L35.53299492385787,133.65568092891147L44.41624365482234,132.5049110821315L53.2994923857868,129.94504911558968L62.18274111675127,160.9121995312827L71.06598984771574,157.7910533973149L79.94923857868021,137.20636367797852L88.83248730964468,133.41380953788757L97.71573604060914,161.24245609555922L106.5989847715736,130.75377345085144L115.48223350253807,112.19505837985444L124.36548223350253,137.49052456447055L133.24873096446703,160.87552990232192L142.13197969543148,146.2728432246617L151.01522842639594,122.10582068988252L159.89847715736042,122.16367977006092L168.78172588832487,143.58108043670654L177.66497461928935,100.32398445265632L186.5482233502538,146.07223953519548L195.4314720812183,109.10551122256685L204.31472081218274,126.03650859424043L213.1979695431472,132.1298360824585L222.08121827411168,105.37653820855274L230.96446700507613,147.04681379454476L239.8477157360406,117.97663654599872L248.73096446700507,104.81710604258943L257.61421319796955,114.31063158171516L266.49746192893406,114.0602537563869L275.3807106598985,125.65535392080035L284.26395939086296,110.16992671149116L293.1472081218274,96.10076972416468L302.0304568527919,106.86598164694648L310.9137055837564,99.91877930504933L319.79695431472084,99.72027029309952L328.6802030456853,80.77508722032819L337.56345177664974,57.49172483171735L355.3299492385787,99.19822301183426L364.21319796954316,14.629743780408578L373.0964467005076,54.433981009892044L381.97969543147207,49.13978576660156L390.8629441624366,89.24628240721565L399.74619289340103,91.12645983695984L408.6294416243655,108.41138107436042L417.51269035532994,76.45052330834523L426.3959390862944,122.5750284535544L435.2791878172589,123.47125666482106L444.16243654822335,117.19251189913068L453.0456852791878,144.72680517605372L464.46700507614213,133.1350258418492L473.3502538071066,133.8454152856554L482.2335025380711,117.9944540773119L491.11675126903555,133.05250321115767L500,133.65568092891147L500,201.46532229014807L491.11675126903555,193.03050935268402L482.2335025380711,168.76340849058968L473.3502538071066,198.02117432866774L464.46700507614213,166.42669354166304L453.0456852791878,184.1994319643293L444.16243654822335,170.9761926106044L435.2791878172589,170.77293225697107L426.3959390862944,176.3038899217333L417.51269035532994,135.29747383935108L408.6294416243655,137.83416662897383L399.74619289340103,147.88866979735238L390.8629441624366,127.52791898591175L381.97969543147207,160.1858573300498L373.0964467005076,164.8662737437657L364.21319796954316,135.7956622328077L355.3299492385787,130.39035967418124L337.56345177664974,117.4877720219748L328.6802030456853,156.30619525909424L319.79695431472084,147.00343864304676L310.9137055837564,146.78861924580164L302.0304568527919,162.89110779762268L293.1472081218274,145.19299864768982L284.26395939086296,162.48829109328133L275.3807106598985,165.0392506803785L266.49746192893406,177.3731333868844L257.61421319796955,147.68090077808924L248.73096446700507,196.8383201531001L239.8477157360406,182.37698589052474L230.96446700507613,202.61450835636683L222.08121827411168,187.14476568358285L213.1979695431472,170.50849199295044L204.31472081218274,169.32920132364546L195.4314720812183,173.08817676135473L186.5482233502538,171.57562800816126L177.66497461928935,184.59753564425878L168.78172588832487,170.46064649309432L159.89847715736042,204.66198538030898L151.01522842639594,219.90755285535536L142.13197969543148,185.2629150663103L133.24873096446703,189.14781383105688L124.36548223350253,182.21946358680725L115.48223350253807,182.7369511127472L106.5989847715736,179.1925779410771L97.71573604060914,207.21283001559124L88.83248730964468,184.13556984492712L79.94923857868021,183.08445044926233L71.06598984771574,199.12535037313185L62.18274111675127,175.2531281539372L53.2994923857868,183.04142015320912L44.41624365482234,192.91201957634516L35.53299492385787,201.46532229014807L26.6497461928934,193.03050935268402L17.766497461928935,168.76340849058968L8.883248730964468,198.02117432866774L0,166.42669354166304Z" fill="#666A86" opacity="0.15"/></g><g class="mark-line role-mark layer_3_marks" role="graphics-object" aria-roledescription="line mark container"><path aria-label="weekx: Jan 01, 2020; m_quit_week: 0.178205192089" role="graphics-symbol" aria-roledescription="line mark" d="M0,147.25269249507357L8.883248730964468,172.48163989612036L17.766497461928935,143.75202655792236L26.6497461928934,166.16190842219763L35.53299492385787,161.1899742058345L44.41624365482234,172.84707171576363L53.2994923857868,147.31424280575342L62.18274111675127,168.52612239973885L71.06598984771574,186.60613979612074L79.94923857868021,163.28043682234627L88.83248730964468,145.77637910842896L97.71573604060914,180.16449553625924L106.5989847715736,168.37978873934065L115.48223350253807,179.0807553700038L124.36548223350253,148.0937693800245L133.24873096446703,187.03759227480208L142.13197969543148,163.93488304955616L151.01522842639594,173.69659117289953L159.89847715736042,182.15437531471252L168.78172588832487,149.10344226019723L177.66497461928935,160.78170367649622L186.5482233502538,166.3141812597002L195.4314720812183,143.66424168859209L204.31472081218274,156.1033819402967L213.1979695431472,145.11084641729082L222.08121827411168,166.21099284717016L230.96446700507613,180.83696365356445L239.8477157360406,166.50896072387695L248.73096446700507,106.61073752811976L257.61421319796955,136.1778770174299L266.49746192893406,154.85667841775074L275.3807106598985,137.94247678347995L284.26395939086296,139.99280844415938L293.1472081218274,122.13204247610908L302.0304568527919,139.94049259594507L310.9137055837564,125.13135245868135L319.79695431472084,131.9083367075239L328.6802030456853,99.559439931597L337.56345177664974,103.16048434802461L355.3299492385787,122.36478158405848L364.21319796954316,79.58025251116071L373.0964467005076,116.2152426583426L381.97969543147207,118.02564433642793L390.8629441624366,115.7094929899488L399.74619289340103,111.83836289814539L408.6294416243655,131.2396364552634L417.51269035532994,123.15497313226972L426.3959390862944,138.74086822782243L435.2791878172589,151.79980312074935L444.16243654822335,147.52353174345834L453.0456852791878,163.9003336429596L464.46700507614213,147.25269249507357L473.3502538071066,172.48163989612036L482.2335025380711,143.75202655792236L491.11675126903555,166.16190842219763L500,161.1899742058345" stroke="#666A86" stroke-width="1" stroke-dasharray="0,2,2" opacity="0.8"/></g><g class="mark-area role-mark layer_4_marks" role="graphics-object" aria-roledescription="area mark container"><path aria-label="weekx: Jan 01, 2020; max0: 0.194675803185; max_quit_week: 0.194675803185" role="graphics-symbol" aria-roledescription="area mark" d="M0,133.1350258418492L8.883248730964468,133.8454152856554L17.766497461928935,117.9944540773119L26.6497461928934,133.05250321115767L35.53299492385787,133.65568092891147L44.41624365482234,132.5049110821315L53.2994923857868,129.94504911558968L62.18274111675127,160.9121995312827L71.06598984771574,156.540709733963L79.94923857868021,137.20636367797852L88.83248730964468,133.41380953788757L97.71573604060914,161.24245609555922L106.5989847715736,130.75377345085144L115.48223350253807,112.19505837985444L124.36548223350253,137.49052456447055L133.24873096446703,160.87552990232192L142.13197969543148,146.2728432246617L151.01522842639594,122.10582068988252L159.89847715736042,122.16367977006092L168.78172588832487,143.58108043670654L177.66497461928935,100.32398445265632L186.5482233502538,146.07223953519548L195.4314720812183,109.10551122256685L204.31472081218274,126.03650859424043L213.1979695431472,132.1298360824585L222.08121827411168,105.37653820855274L230.96446700507613,147.04681379454476L239.8477157360406,117.97663654599872L248.73096446700507,104.81710604258943L257.61421319796955,114.31063158171516L266.49746192893406,114.0602537563869L275.3807106598985,125.65535392080035L284.26395939086296,110.16992671149116L293.1472081218274,96.10076972416468L302.0304568527919,106.86598164694648L310.9137055837564,99.91877930504933L319.79695431472084,99.72027029309952L328.6802030456853,80.77508722032819L337.56345177664974,57.49172483171735L355.3299492385787,99.19822301183426L364.21319796954316,14.629743780408578L373.0964467005076,54.433981009892044L381.97969543147207,49.13978576660156L390.8629441624366,89.24628240721565L399.74619289340103,91.12645983695984L408.6294416243655,108.41138107436042L417.51269035532994,76.45052330834523L426.3959390862944,122.5750284535544L435.2791878172589,123.47125666482106L444.16243654822335,117.19251189913068L453.0456852791878,144.72680517605372L464.46700507614213,133.1350258418492L473.3502538071066,133.8454152856554L482.2335025380711,117.9944540773119L491.11675126903555,133.05250321115767L500,133.65568092891147L500,133.65568092891147L491.11675126903555,133.05250321115767L482.2335025380711,117.9944540773119L473.3502538071066,133.8454152856554L464.46700507614213,133.1350258418492L453.0456852791878,144.72680517605372L444.16243654822335,117.19251189913068L435.2791878172589,123.47125666482106L426.3959390862944,122.5750284535544L417.51269035532994,76.45052330834523L408.6294416243655,108.41138107436042L399.74619289340103,91.12645983695984L390.8629441624366,89.24628240721565L381.97969543147207,49.13978576660156L373.0964467005076,54.433981009892044L364.21319796954316,14.629743780408578L355.3299492385787,99.19822301183426L337.56345177664974,57.49172483171735L328.6802030456853,80.77508722032819L319.79695431472084,99.72027029309952L310.9137055837564,99.91877930504933L302.0304568527919,106.86598164694648L293.1472081218274,96.10076972416468L284.26395939086296,110.16992671149116L275.3807106598985,125.65535392080035L266.49746192893406,114.0602537563869L257.61421319796955,114.31063158171516L248.73096446700507,104.81710604258943L239.8477157360406,117.97663654599872L230.96446700507613,147.04681379454476L222.08121827411168,105.37653820855274L213.1979695431472,132.1298360824585L204.31472081218274,126.03650859424043L195.4314720812183,109.10551122256685L186.5482233502538,146.07223953519548L177.66497461928935,100.32398445265632L168.78172588832487,143.58108043670654L159.89847715736042,122.16367977006092L151.01522842639594,122.10582068988252L142.13197969543148,146.2728432246617L133.24873096446703,160.87552990232192L124.36548223350253,137.49052456447055L115.48223350253807,112.19505837985444L106.5989847715736,130.75377345085144L97.71573604060914,161.24245609555922L88.83248730964468,133.41380953788757L79.94923857868021,137.20636367797852L71.06598984771574,157.7910533973149L62.18274111675127,160.9121995312827L53.2994923857868,129.94504911558968L44.41624365482234,132.5049110821315L35.53299492385787,133.65568092891147L26.6497461928934,133.05250321115767L17.766497461928935,117.9944540773119L8.883248730964468,133.8454152856554L0,133.1350258418492Z" fill="#36b7b4" opacity="0.3"/></g><g class="mark-area role-mark layer_5_marks" role="graphics-object" aria-roledescription="area mark container"><path aria-label="weekx: Jan 01, 2020; min0: 0.140353307128; min_quit_week: 0.155835524201" role="graphics-symbol" aria-roledescription="area mark" d="M0,179.6971653188978L8.883248730964468,198.02117432866774L17.766497461928935,178.45999002456665L26.6497461928934,193.03050935268402L35.53299492385787,201.46532229014807L44.41624365482234,192.91201957634516L53.2994923857868,191.54326915740967L62.18274111675127,175.2531281539372L71.06598984771574,199.12535037313185L79.94923857868021,213.81931517805373L88.83248730964468,220.102881533759L97.71573604060914,207.21283001559124L106.5989847715736,180.00633461134774L115.48223350253807,213.0191547530038L124.36548223350253,204.9658796616963L133.24873096446703,197.05954492092133L142.13197969543148,185.2629150663103L151.01522842639594,219.90755285535536L159.89847715736042,204.66198538030898L168.78172588832487,208.05529270853316L177.66497461928935,184.59753564425878L186.5482233502538,172.42159673145838L195.4314720812183,236.5140859569822L204.31472081218274,213.87561602251873L213.1979695431472,195.02317990575514L222.08121827411168,206.38907892363414L230.96446700507613,240.78390726021357L239.8477157360406,227.67244577407837L248.73096446700507,254.98301408120565L257.61421319796955,223.44393048967635L266.49746192893406,231.8876074893134L275.3807106598985,218.77067940575733L284.26395939086296,235.44197508266993L293.1472081218274,227.18593137604847L302.0304568527919,216.76244565418787L310.9137055837564,193.0265371288572L319.79695431472084,231.27183616161346L328.6802030456853,187.5347716467721L337.56345177664974,166.8988517352513L355.3299492385787,155.15284538269043L364.21319796954316,192.9868276630129L373.0964467005076,170.95626762935095L381.97969543147207,201.41948844705306L390.8629441624366,185.2680240358625L399.74619289340103,178.31753918102808L408.6294416243655,173.55154752731323L417.51269035532994,179.336701972144L426.3959390862944,198.56761693954468L435.2791878172589,203.39329413005285L444.16243654822335,233.36288630962372L453.0456852791878,235.01427131039753L464.46700507614213,228.72353962489538L473.3502538071066,215.58006405830383L482.2335025380711,209.9114132778985L491.11675126903555,207.7980497053691L500,205.496848481042L500,201.46532229014807L491.11675126903555,193.03050935268402L482.2335025380711,168.76340849058968L473.3502538071066,198.02117432866774L464.46700507614213,166.42669354166304L453.0456852791878,184.1994319643293L444.16243654822335,170.9761926106044L435.2791878172589,170.77293225697107L426.3959390862944,176.3038899217333L417.51269035532994,135.29747383935108L408.6294416243655,137.83416662897383L399.74619289340103,147.88866979735238L390.8629441624366,127.52791898591175L381.97969543147207,160.1858573300498L373.0964467005076,164.8662737437657L364.21319796954316,135.7956622328077L355.3299492385787,130.39035967418124L337.56345177664974,117.4877720219748L328.6802030456853,156.30619525909424L319.79695431472084,147.00343864304676L310.9137055837564,146.78861924580164L302.0304568527919,162.89110779762268L293.1472081218274,145.19299864768982L284.26395939086296,162.48829109328133L275.3807106598985,165.0392506803785L266.49746192893406,177.3731333868844L257.61421319796955,147.68090077808924L248.73096446700507,196.8383201531001L239.8477157360406,182.37698589052474L230.96446700507613,202.61450835636683L222.08121827411168,187.14476568358285L213.1979695431472,170.50849199295044L204.31472081218274,169.32920132364546L195.4314720812183,173.08817676135473L186.5482233502538,171.57562800816126L177.66497461928935,184.59753564425878L168.78172588832487,170.46064649309432L159.89847715736042,204.66198538030898L151.01522842639594,219.90755285535536L142.13197969543148,185.2629150663103L133.24873096446703,189.14781383105688L124.36548223350253,182.21946358680725L115.48223350253807,182.7369511127472L106.5989847715736,179.1925779410771L97.71573604060914,207.21283001559124L88.83248730964468,184.13556984492712L79.94923857868021,183.08445044926233L71.06598984771574,199.12535037313185L62.18274111675127,175.2531281539372L53.2994923857868,183.04142015320912L44.41624365482234,192.91201957634516L35.53299492385787,201.46532229014807L26.6497461928934,193.03050935268402L17.766497461928935,168.76340849058968L8.883248730964468,198.02117432866774L0,166.42669354166304Z" fill="#36b7b4" opacity="0.3"/></g><g class="mark-line role-mark layer_6_marks" role="graphics-object" aria-roledescription="line mark container"><path aria-label="weekx: Jan 01, 2020; quit_week: 0.140353307128" role="graphics-symbol" aria-roledescription="line mark" d="M0,179.6971653188978L8.883248730964468,182.5244562966483L17.766497461928935,178.45999002456665L26.6497461928934,167.90680033820016L35.53299492385787,190.42953933988295L44.41624365482234,169.64411820684157L53.2994923857868,191.54326915740967L62.18274111675127,163.15985236849104L71.06598984771574,156.540709733963L79.94923857868021,213.81931517805373L88.83248730964468,220.102881533759L97.71573604060914,180.90004665510995L106.5989847715736,180.00633461134774L115.48223350253807,213.0191547530038L124.36548223350253,204.9658796616963L133.24873096446703,197.05954492092133L142.13197969543148,154.63553667068481L151.01522842639594,196.6000058821269L159.89847715736042,151.91418017659865L168.78172588832487,208.05529270853316L177.66497461928935,177.84444860049658L186.5482233502538,172.42159673145838L195.4314720812183,236.5140859569822L204.31472081218274,213.87561602251873L213.1979695431472,195.02317990575514L222.08121827411168,206.38907892363414L230.96446700507613,240.78390726021357L239.8477157360406,227.67244577407837L248.73096446700507,254.98301408120565L257.61421319796955,223.44393048967635L266.49746192893406,231.8876074893134L275.3807106598985,218.77067940575733L284.26395939086296,235.44197508266993L293.1472081218274,227.18593137604847L302.0304568527919,216.76244565418787L310.9137055837564,193.0265371288572L319.79695431472084,231.27183616161346L328.6802030456853,187.5347716467721L337.56345177664974,166.8988517352513L355.3299492385787,155.15284538269043L364.21319796954316,192.9868276630129L373.0964467005076,170.95626762935095L381.97969543147207,201.41948844705306L390.8629441624366,185.2680240358625L399.74619289340103,178.31753918102808L408.6294416243655,173.55154752731323L417.51269035532994,179.336701972144L426.3959390862944,198.56761693954468L435.2791878172589,203.39329413005285L444.16243654822335,233.36288630962372L453.0456852791878,235.01427131039753L464.46700507614213,228.72353962489538L473.3502538071066,215.58006405830383L482.2335025380711,209.9114132778985L491.11675126903555,207.7980497053691L500,205.496848481042" stroke="#36b7b4" stroke-width="2"/></g><g class="mark-text role-mark layer_7_marks" role="graphics-object" aria-roledescription="text mark container"><text aria-label="text: 2020; x: Oct 03, 2020; y: 0.103" role="graphics-symbol" aria-roledescription="text mark" text-anchor="start" transform="translate(350.25380710659897,209.71428571428572)" font-family="sans-serif" font-size="11px" font-weight="bold" fill="#36b7b4">2020</text></g><g class="mark-text role-mark layer_8_marks" role="graphics-object" aria-roledescription="text mark container"><text aria-label="text: 2015-2019 average; x: Jun 17, 2020; y: 0.251" role="graphics-symbol" aria-roledescription="text mark" text-anchor="start" transform="translate(213.1979695431472,82.85714285714285)" font-family="sans-serif" font-size="10px" font-weight="lighter" fill="#666A86">2015-2019 average</text></g><g class="mark-text role-mark layer_9_marks" role="graphics-object" aria-roledescription="text mark container"><text aria-label="text: and min-max range; x: Jun 17, 2020; y: 0.235" role="graphics-symbol" aria-roledescription="text mark" text-anchor="start" transform="translate(213.1979695431472,96.57142857142856)" font-family="sans-serif" font-size="10px" font-weight="lighter" fill="#666A86" opacity="0.5">and min-max range</text></g></g><path class="foreground" aria-hidden="true" d="" display="none"/></g></g></g></svg>