<svg xmlns="http://www.w3.org/2000/svg" xmlns:xlink="http://www.w3.org/1999/xlink" version="1.1" class="marks" width="514" height="342" viewBox="0 0 514 342"><rect width="514" height="342" fill="white"/><g fill="none" stroke-miterlimit="10" transform="translate(7,20)"><g class="mark-group role-frame root" role="graphics-object" aria-roledescription="group mark container"><g transform="translate(0,0)"><path class="background" aria-hidden="true" d="M0.5,0.5h500v300h-500Z" stroke="#ddd"/><g><g class="mark-group role-axis" aria-hidden="true"><g transform="translate(0.5,0.5)"><path class="background" aria-hidden="true" d="M0,0h0v0h0Z" pointer-events="none"/><g><g class="mark-rule role-axis-grid" pointer-events="none"><line transform="translate(0,300)" x2="500" y2="0" stroke="#ddd" stroke-width="1" opacity="1"/><line transform="translate(0,250)" x2="500" y2="0" stroke="#ddd" stroke-width="1" opacity="1"/><line transform="translate(0,200)" x2="500" y2="0" stroke="#ddd" stroke-width="1" opacity="1"/><line transform="translate(0,150)" x2="500" y2="0" stroke="#ddd" stroke-width="1" opacity="1"/><line transform="translate(0,100)" x2="500" y2="0" stroke="#ddd" stroke-width="1" opacity="1"/><line transform="translate(0,50)" x2="500" y2="0" stroke="#ddd" stroke-width="1" opacity="1"/><line transform="translate(0,0)" x2="500" y2="0" stroke="#ddd" stroke-width="1" opacity="1"/></g></g><path class="foreground" aria-hidden="true" d="" pointer-events="none" display="none"/></g></g><g class="mark-group role-axis" role="graphics-symbol" aria-roledescription="axis" aria-label="X-axis for a time scale with values from Wednesday, 01 January 2020, 12:00:00 AM to Friday, 29 January 2021, 12:00:00 AM"><g transform="translate(0.5,300.5)"><path class="background" aria-hidden="true" d="M0,0h0v0h0Z" pointer-events="none"/><g><g class="mark-rule role-axis-tick" pointer-events="none"><line transform="translate(0,0)" x2="0" y2="5" stroke="#888" stroke-width="1" opacity="1"/><line transform="translate(39,0)" x2="0" y2="5" stroke="#888" stroke-width="1" opacity="1"/><line transform="translate(76,0)" x2="0" y2="5" stroke="#888" stroke-width="1" opacity="1"/><line transform="translate(115,0)" x2="0" y2="5" stroke="#888" stroke-width="1" opacity="1"/><line transform="translate(154,0)" x2="0" y2="5" stroke="#888" stroke-width="1" opacity="1"/><line transform="translate(193,0)" x2="0" y2="5" stroke="#888" stroke-width="1" opacity="1"/><line transform="translate(231,0)" x2="0" y2="5" stroke="#888" stroke-width="1" opacity="1"/><line transform="translate(270,0)" x2="0" y2="5" stroke="#888" stroke-width="1" opacity="1"/><line transform="translate(310,0)" x2="0" y2="5" stroke="#888" stroke-width="1" opacity="1"/><line transform="translate(348,0)" x2="0" y2="5" stroke="#888" stroke-width="1" opacity="1"/><line transform="translate(387,0)" x2="0" y2="5" stroke="#888" stroke-width="1" opacity="1"/><line transform="translate(425,0)" x2="0" y2="5" stroke="#888" stroke-width="1" opacity="1"/><line transform="translate(464,0)" x2="0" y2="5" stroke="#888" stroke-width="1" opacity="1"/></g><g class="mark-text role-axis-label" pointer-events="none"><text text-anchor="start" transform="translate(0,15)" font-family="sans-serif" font-size="10px" fill="#000" opacity="1">2020</text><text text-anchor="middle" transform="translate(39.34010152284264,15)" font-family="sans-serif" font-size="10px" fill="#000" opacity="0">February</text><text text-anchor="middle" transform="translate(76.14213197969544,15)" font-family="sans-serif" font-size="10px" fill="#000" opacity="1">March</text><text text-anchor="middle" transform="translate(115.48223350253807,15)" font-family="sans-serif" font-size="10px" fill="#000" opacity="0">April</text><text text-anchor="middle" transform="translate(153.55329949238578,15)" font-family="sans-serif" font-size="10px" fill="#000" opacity="1">May</text><text text-anchor="middle" transform="translate(192.89340101522842,15)" font-family="sans-serif" font-size="10px" fill="#000" opacity="0">June</text><text text-anchor="middle" transform="translate(230.96446700507613,15)" font-family="sans-serif" font-size="10px" fill="#000" opacity="1">July</text><text text-anchor="middle" transform="translate(270.3045685279188,15)" font-family="sans-serif" font-size="10px" fill="#000" opacity="0">August</text><text text-anchor="middle" transform="translate(309.6446700507614,15)" font-family="sans-serif" font-size="10px" fill="#000" opacity="1">September</text><text text-anchor="middle" transform="translate(347.7157360406091,15)" font-family="sans-serif" font-size="10px" fill="#000" opacity="0">October</text><text text-anchor="middle" transform="translate(387.0558375634518,15)" font-family="sans-serif" font-size="10px" fill="#000" opacity="1">November</text><text text-anchor="middle" transform="translate(425.12690355329954,15)" font-family="sans-serif" font-size="10px" fill="#000" opacity="0">December</text><text text-anchor="middle" transform="translate(464.46700507614213,15)" font-family="sans-serif" font-size="10px" fill="#000" opacity="1">2021</text></g><g class="mark-rule role-axis-domain" pointer-events="none"><line transform="translate(0,0)" x2="500" y2="0" stroke="#888" stroke-width="1" opacity="1"/></g></g><path class="foreground" aria-hidden="true" d="" pointer-events="none" display="none"/></g></g><g class="mark-group role-axis" role="graphics-symbol" aria-roledescription="axis" aria-label="Y-axis titled 'percent' for a linear scale with values from 0.00 to 0.12"><g transform="translate(0.5,0.5)"><path class="background" aria-hidden="true" d="M0,0h0v0h0Z" pointer-events="none"/><g><g class="mark-text role-axis-label" pointer-events="none"><text text-anchor="start" transform="translate(5,293)" font-family="sans-serif" font-size="10px" fill="#000" opacity="1">0.00</text><text text-anchor="start" transform="translate(5,242.99999999999997)" font-family="sans-serif" font-size="10px" fill="#000" opacity="1">0.02</text><text text-anchor="start" transform="translate(5,193)" font-family="sans-serif" font-size="10px" fill="#000" opacity="1">0.04</text><text text-anchor="start" transform="translate(5,143)" font-family="sans-serif" font-size="10px" fill="#000" opacity="1">0.06</text><text text-anchor="start" transform="translate(5,92.99999999999997)" font-family="sans-serif" font-size="10px" fill="#000" opacity="1">0.08</text><text text-anchor="start" transform="translate(5,42.999999999999986)" font-family="sans-serif" font-size="10px" fill="#000" opacity="1">0.10</text><text text-anchor="start" transform="translate(5,-7)" font-family="sans-serif" font-size="10px" fill="#000" opacity="1">0.12</text></g><g class="mark-text role-axis-title" pointer-events="none"><text text-anchor="start" transform="translate(31,-7)" font-family="sans-serif" font-size="10px" font-weight="normal" fill="#000" opacity="1">percent</text></g></g><path class="foreground" aria-hidden="true" d="" pointer-events="none" display="none"/></g></g><g class="mark-rule role-mark layer_0_marks" role="graphics-object" aria-roledescription="rule mark container"><line aria-label="x: Jan 29, 2020" role="graphics-symbol" aria-roledescription="rule mark" transform="translate(35.53299492385787,0)" x2="0" y2="300" stroke="#666A86" stroke-width="1" stroke-dasharray="0,1,1" opacity="0.5"/><line aria-label="x: Mar 18, 2020" role="graphics-symbol" aria-roledescription="rule mark" transform="translate(97.71573604060914,0)" x2="0" y2="300" stroke="#666A86" stroke-width="1" stroke-dasharray="0,1,1" opacity="0.5"/></g><g class="mark-text role-mark layer_1_marks" role="graphics-object" aria-roledescription="text mark container"><text aria-label="text: ➡ First COVID-related death in the UK; x: Jan 29, 2020; y: 0.11" role="graphics-symbol" aria-roledescription="text mark" text-anchor="start" transform="translate(35.53299492385787,22.99999999999998)" font-family="sans-serif" font-size="10px" font-weight="lighter" fill="#666A86">➡ First COVID-related death in the UK</text><text aria-label="text: ➡ Start of first UK lockdown; x: Mar 18, 2020; y: 0.103" role="graphics-symbol" aria-roledescription="text mark" text-anchor="start" transform="translate(97.71573604060914,40.500000000000014)" font-family="sans-serif" font-size="10px" font-weight="lighter" fill="#666A86">➡ Start of first UK lockdown</text></g><g class="mark-area role-mark layer_2_marks" role="graphics-object" aria-roledescription="area mark container"><path aria-label="weekx: Jan 01, 2020; max_red_week: 0.04; min_red_week: 0.0210390873253" role="graphics-symbol" aria-roledescription="area mark" d="M0,207.5850564986467L8.883248730964468,195.87764255702496L17.766497461928935,184.5503572374582L26.6497461928934,143.95643696188924L35.53299492385787,192.4609180539846L44.41624365482234,207.7156465500593L53.2994923857868,167.07628704607487L62.18274111675127,171.71823158860207L71.06598984771574,200.87173879146573L79.94923857868021,205.30420094728467L88.83248730964468,193.73466931283474L97.71573604060914,219.08745840191838L106.5989847715736,205.92210553586483L115.48223350253807,166.2941623479128L124.36548223350253,206.34758025407788L133.24873096446703,193.2353127747774L142.13197969543148,179.0348321199417L151.01522842639594,214.69845175743103L159.89847715736042,203.11439149081707L168.78172588832487,235.42165029793975L177.66497461928935,225.09967647492886L186.5482233502538,185.6288846582174L195.4314720812183,209.6872191876173L204.31472081218274,234.24179963767526L213.1979695431472,186.05494610965252L222.08121827411168,190.18834196031094L230.96446700507613,215.84554314613342L239.8477157360406,239.59851562976837L248.73096446700507,192.34275184571743L257.61421319796955,177.0277574658394L266.49746192893406,186.86824217438698L275.3807106598985,219.92846131324768L284.26395939086296,187.42460496723652L293.1472081218274,204.54084239900112L302.0304568527919,177.97699868679047L310.9137055837564,197.83435128629208L319.79695431472084,176.6008764505386L328.6802030456853,224.33855310082433L337.56345177664974,177.00886093080044L355.3299492385787,159.3655042350292L364.21319796954316,208.43151696026322L373.0964467005076,186.63231953978539L381.97969543147207,200.2297781407833L390.8629441624366,224.18625857681036L399.74619289340103,192.62809976935387L408.6294416243655,228.56367956846952L417.51269035532994,183.62238742411137L426.3959390862944,213.91917690634725L435.2791878172589,246.4094778522849L444.16243654822335,206.0407094657421L453.0456852791878,218.1002750992775L464.46700507614213,207.5850564986467L473.3502538071066,195.87764255702496L482.2335025380711,184.5503572374582L491.11675126903555,143.95643696188924L500,192.4609180539846L500,235.04582904279232L491.11675126903555,246.52336463332176L482.2335025380711,240.8850632607937L473.3502538071066,279.63964007794857L464.46700507614213,247.4022816866636L453.0456852791878,272.96649497002363L444.16243654822335,237.13111151009795L435.2791878172589,281.5424729604274L426.3959390862944,279.526384267956L417.51269035532994,263.12828501686454L408.6294416243655,261.5792976692319L399.74619289340103,245.1787257567048L390.8629441624366,248.70952330529687L381.97969543147207,253.58689688146112L373.0964467005076,256.9909181445837L364.21319796954316,263.7812585569918L355.3299492385787,277.32944786548615L337.56345177664974,278.28048886731267L328.6802030456853,275.95646418631077L319.79695431472084,247.54403363913295L310.9137055837564,262.9882303997874L302.0304568527919,244.15306486189363L293.1472081218274,255.17292059957978L284.26395939086296,239.9797385558486L275.3807106598985,252.8061831369996L266.49746192893406,256.67519979178905L257.61421319796955,250.75253769755363L248.73096446700507,267.75651117786765L239.8477157360406,272.33427595347166L230.96446700507613,253.76425329595804L222.08121827411168,243.3830799534917L213.1979695431472,250.94378478825092L204.31472081218274,270.221531111747L195.4314720812183,260.5934740975499L186.5482233502538,288.34844096563756L177.66497461928935,252.69761886447665L168.78172588832487,265.67045571282506L159.89847715736042,265.97314486280084L151.01522842639594,272.2103332169354L142.13197969543148,289.0388734638691L133.24873096446703,271.7608466744423L124.36548223350253,232.0345092564821L115.48223350253807,263.2533243857324L106.5989847715736,225.74033793061972L97.71573604060914,276.02769639343023L88.83248730964468,245.24150621145964L79.94923857868021,252.51615066081283L71.06598984771574,276.0589934885502L62.18274111675127,246.7757064849138L53.2994923857868,249.20655619353053L44.41624365482234,259.38573498278856L35.53299492385787,235.04582904279232L26.6497461928934,246.52336463332176L17.766497461928935,240.8850632607937L8.883248730964468,279.63964007794857L0,247.4022816866636Z" fill="#666A86" opacity="0.15"/></g><g class="mark-line role-mark layer_3_marks" role="graphics-object" aria-roledescription="line mark container"><path aria-label="weekx: Jan 01, 2020; m_red_week: 0.0241000596434" role="graphics-symbol" aria-roledescription="line mark" d="M0,239.7498508915305L8.883248730964468,223.45565930008885L17.766497461928935,222.23614361137152L26.6497461928934,227.636650390923L35.53299492385787,228.36807388812304L44.41624365482234,241.27254467457533L53.2994923857868,242.01244320720434L62.18274111675127,208.8397342711687L71.06598984771574,226.05223786085844L79.94923857868021,245.73771487921476L88.83248730964468,229.09385822713372L97.71573604060914,258.0343859270215L106.5989847715736,209.42372009158134L115.48223350253807,206.1056599020958L124.36548223350253,225.04674475640059L133.24873096446703,220.96940986812115L142.13197969543148,207.27763622999188L151.01522842639594,252.7004500851035L159.89847715736042,236.1731298267841L168.78172588832487,238.230337575078L177.66497461928935,235.42768992483616L186.5482233502538,243.58103722333908L195.4314720812183,256.0606572777033L204.31472081218274,250.83105284720656L213.1979695431472,214.05445151031017L222.08121827411168,230.534022860229L230.96446700507613,227.9035534709692L239.8477157360406,244.99044492840764L248.73096446700507,237.06427048891783L257.61421319796955,221.15513421595094L266.49746192893406,238.13036940991879L275.3807106598985,248.53004347532988L284.26395939086296,225.18151178956032L293.1472081218274,248.07584676891565L302.0304568527919,213.7713573873043L310.9137055837564,237.3118206858635L319.79695431472084,244.50721889734268L328.6802030456853,228.09076327830553L337.56345177664974,229.3489521369338L355.3299492385787,233.5024133324623L364.21319796954316,228.27156558632848L373.0964467005076,244.73847094923255L381.97969543147207,234.92410518229008L390.8629441624366,238.48572950810194L399.74619289340103,225.6504513323307L408.6294416243655,237.68589105457067L417.51269035532994,238.81479837000367L426.3959390862944,249.3976403027773L435.2791878172589,253.08317244052884L444.16243654822335,233.14217310398817L453.0456852791878,223.9792162552476L464.46700507614213,239.7498508915305L473.3502538071066,223.45565930008885L482.2335025380711,222.23614361137152L491.11675126903555,227.636650390923L500,228.36807388812304" stroke="#666A86" stroke-width="1" stroke-dasharray="0,2,2" opacity="0.8"/></g><g class="mark-area role-mark layer_4_marks" role="graphics-object" aria-roledescription="area mark container"><path aria-label="weekx: Jan 01, 2020; max0: 0.0369659774005; max_red_week: 0.0369659774005" role="graphics-symbol" aria-roledescription="area mark" d="M0,207.5850564986467L8.883248730964468,195.87764255702496L17.766497461928935,184.5503572374582L26.6497461928934,143.95643696188924L35.53299492385787,192.4609180539846L44.41624365482234,207.7156465500593L53.2994923857868,167.07628704607487L62.18274111675127,171.71823158860207L71.06598984771574,200.87173879146573L79.94923857868021,205.30420094728467L88.83248730964468,193.73466931283474L97.71573604060914,219.08745840191838L106.5989847715736,205.92210553586483L115.48223350253807,166.2941623479128L124.36548223350253,206.34758025407788L133.24873096446703,193.2353127747774L142.13197969543148,179.0348321199417L151.01522842639594,214.69845175743103L159.89847715736042,203.11439149081707L168.78172588832487,231.11214134842157L177.66497461928935,225.09967647492886L186.5482233502538,185.6288846582174L195.4314720812183,153.67721877992153L204.31472081218274,191.5573675185442L213.1979695431472,186.05494610965252L222.08121827411168,190.18834196031094L230.96446700507613,214.71701301634312L239.8477157360406,212.71001286804676L248.73096446700507,192.34275184571743L257.61421319796955,177.0277574658394L266.49746192893406,167.21716821193692L275.3807106598985,138.4563438594341L284.26395939086296,133.98983255028725L293.1472081218274,149.46412965655324L302.0304568527919,124.92495328187943L310.9137055837564,115.73868542909621L319.79695431472084,93.47838088870046L328.6802030456853,67.56386458873747L337.56345177664974,19.647541642189015L355.3299492385787,89.33393955230713L364.21319796954316,77.28500962257385L373.0964467005076,91.52441024780273L381.97969543147207,143.31965446472168L390.8629441624366,125.36546885967253L399.74619289340103,81.59695863723753L408.6294416243655,100.86419731378555L417.51269035532994,74.32779967784879L426.3959390862944,94.90607976913451L435.2791878172589,95.41158303618428L444.16243654822335,169.27912570536137L453.0456852791878,136.07364818453786L464.46700507614213,171.23916856944558L473.3502538071066,110.01539155840874L482.2335025380711,144.2514892667532L491.11675126903555,143.95643696188924L500,106.12268671393393L500,192.4609180539846L491.11675126903555,143.95643696188924L482.2335025380711,184.5503572374582L473.3502538071066,195.87764255702496L464.46700507614213,207.5850564986467L453.0456852791878,218.1002750992775L444.16243654822335,206.0407094657421L435.2791878172589,246.4094778522849L426.3959390862944,213.91917690634725L417.51269035532994,183.62238742411137L408.6294416243655,228.56367956846952L399.74619289340103,192.62809976935387L390.8629441624366,224.18625857681036L381.97969543147207,200.2297781407833L373.0964467005076,186.63231953978539L364.21319796954316,208.43151696026322L355.3299492385787,159.3655042350292L337.56345177664974,177.00886093080044L328.6802030456853,224.33855310082436L319.79695431472084,176.6008764505386L310.9137055837564,197.83435128629208L302.0304568527919,177.97699868679047L293.1472081218274,204.54084239900112L284.26395939086296,187.42460496723652L275.3807106598985,219.92846131324768L266.49746192893406,186.86824217438698L257.61421319796955,177.0277574658394L248.73096446700507,192.34275184571743L239.8477157360406,239.59851562976837L230.96446700507613,215.84554314613342L222.08121827411168,190.18834196031094L213.1979695431472,186.05494610965252L204.31472081218274,234.24179963767526L195.4314720812183,209.6872191876173L186.5482233502538,185.6288846582174L177.66497461928935,225.09967647492886L168.78172588832487,235.42165029793975L159.89847715736042,203.11439149081707L151.01522842639594,214.69845175743103L142.13197969543148,179.0348321199417L133.24873096446703,193.2353127747774L124.36548223350253,206.34758025407788L115.48223350253807,166.2941623479128L106.5989847715736,205.92210553586483L97.71573604060914,219.08745840191838L88.83248730964468,193.73466931283474L79.94923857868021,205.30420094728467L71.06598984771574,200.87173879146573L62.18274111675127,171.71823158860207L53.2994923857868,167.07628704607487L44.41624365482234,207.7156465500593L35.53299492385787,192.4609180539846L26.6497461928934,143.95643696188924L17.766497461928935,184.5503572374582L8.883248730964468,195.87764255702496L0,207.5850564986467Z" fill="#36b7b4" opacity="0.3"/></g><g class="mark-area role-mark layer_5_marks" role="graphics-object" aria-roledescription="area mark container"><path aria-label="weekx: Jan 01, 2020; min0: 0.0210390873253; min_red_week: 0.0210390873253" role="graphics-symbol" aria-roledescription="area mark" d="M0,247.4022816866636L8.883248730964468,279.63964007794857L17.766497461928935,274.44014996290207L26.6497461928934,246.52336463332176L35.53299492385787,235.04582904279232L44.41624365482234,259.38573498278856L53.2994923857868,249.20655619353053L62.18274111675127,246.7757064849138L71.06598984771574,276.0589934885502L79.94923857868021,259.1436889022589L88.83248730964468,254.50790505856276L97.71573604060914,276.02769639343023L106.5989847715736,244.90809738636017L115.48223350253807,263.2533243857324L124.36548223350253,256.19010645896196L133.24873096446703,271.7608466744423L142.13197969543148,289.0388734638691L151.01522842639594,272.2103332169354L159.89847715736042,265.97314486280084L168.78172588832487,265.67045571282506L177.66497461928935,252.69761886447665L186.5482233502538,288.34844096563756L195.4314720812183,260.5934740975499L204.31472081218274,270.221531111747L213.1979695431472,250.94378478825092L222.08121827411168,243.3830799534917L230.96446700507613,253.76425329595804L239.8477157360406,272.33427595347166L248.73096446700507,267.75651117786765L257.61421319796955,250.75253769755363L266.49746192893406,256.67519979178905L275.3807106598985,252.8061831369996L284.26395939086296,239.9797385558486L293.1472081218274,255.17292059957978L302.0304568527919,244.15306486189363L310.9137055837564,262.9882303997874L319.79695431472084,247.54403363913295L328.6802030456853,275.95646418631077L337.56345177664974,278.28048886731267L355.3299492385787,277.32944786548615L364.21319796954316,263.7812585569918L373.0964467005076,256.9909181445837L381.97969543147207,253.58689688146112L390.8629441624366,248.70952330529687L399.74619289340103,245.1787257567048L408.6294416243655,261.5792976692319L417.51269035532994,263.12828501686454L426.3959390862944,279.526384267956L435.2791878172589,281.5424729604274L444.16243654822335,237.13111151009795L453.0456852791878,272.96649497002363L464.46700507614213,247.4022816866636L473.3502538071066,279.63964007794857L482.2335025380711,240.8850632607937L491.11675126903555,246.52336463332176L500,235.04582904279232L500,235.04582904279232L491.11675126903555,246.52336463332176L482.2335025380711,240.8850632607937L473.3502538071066,279.63964007794857L464.46700507614213,247.4022816866636L453.0456852791878,272.96649497002363L444.16243654822335,237.13111151009795L435.2791878172589,281.5424729604274L426.3959390862944,279.526384267956L417.51269035532994,263.12828501686454L408.6294416243655,261.5792976692319L399.74619289340103,245.1787257567048L390.8629441624366,248.70952330529687L381.97969543147207,253.58689688146112L373.0964467005076,256.9909181445837L364.21319796954316,263.7812585569918L355.3299492385787,277.32944786548615L337.56345177664974,278.28048886731267L328.6802030456853,275.95646418631077L319.79695431472084,247.54403363913295L310.9137055837564,262.9882303997874L302.0304568527919,244.15306486189363L293.1472081218274,255.17292059957978L284.26395939086296,239.9797385558486L275.3807106598985,252.8061831369996L266.49746192893406,256.67519979178905L257.61421319796955,250.75253769755363L248.73096446700507,267.75651117786765L239.8477157360406,272.33427595347166L230.96446700507613,253.76425329595804L222.08121827411168,243.3830799534917L213.1979695431472,250.94378478825092L204.31472081218274,270.221531111747L195.4314720812183,260.5934740975499L186.5482233502538,288.34844096563756L177.66497461928935,252.69761886447665L168.78172588832487,265.67045571282506L159.89847715736042,265.97314486280084L151.01522842639594,272.2103332169354L142.13197969543148,289.0388734638691L133.24873096446703,271.7608466744423L124.36548223350253,232.0345092564821L115.48223350253807,263.2533243857324L106.5989847715736,225.74033793061972L97.71573604060914,276.02769639343023L88.83248730964468,245.24150621145964L79.94923857868021,252.51615066081283L71.06598984771574,276.0589934885502L62.18274111675127,246.7757064849138L53.2994923857868,249.20655619353053L44.41624365482234,259.38573498278856L35.53299492385787,235.04582904279232L26.6497461928934,246.52336463332176L17.766497461928935,240.8850632607937L8.883248730964468,279.63964007794857L0,247.4022816866636Z" fill="#36b7b4" opacity="0.3"/></g><g class="mark-line role-mark layer_6_marks" role="graphics-object" aria-roledescription="line mark container"><path aria-label="weekx: Jan 01, 2020; red_week: 0.0260288193822" role="graphics-symbol" aria-roledescription="line mark" d="M0,234.92795154452324L8.883248730964468,208.00129249691963L17.766497461928935,274.44014996290207L26.6497461928934,230.04722520709038L35.53299492385787,233.95303841680288L44.41624365482234,244.66743897646666L53.2994923857868,242.15479586273432L62.18274111675127,237.46970780193806L71.06598984771574,246.95405941456553L79.94923857868021,259.1436889022589L88.83248730964468,254.50790505856276L97.71573604060914,265.6440410763025L106.5989847715736,244.90809738636017L115.48223350253807,254.66923806816337L124.36548223350253,256.19010645896196L133.24873096446703,232.44562298059464L142.13197969543148,247.7206915616989L151.01522842639594,242.4441624432802L159.89847715736042,206.8481381982565L168.78172588832487,231.11214134842157L177.66497461928935,246.01267855614424L186.5482233502538,216.79896600544453L195.4314720812183,153.67721877992153L204.31472081218274,191.5573675185442L213.1979695431472,211.63850761950016L222.08121827411168,222.460769303143L230.96446700507613,214.71701301634312L239.8477157360406,212.71001286804676L248.73096446700507,193.76811310648918L257.61421319796955,179.2568314820528L266.49746192893406,167.21716821193692L275.3807106598985,138.4563438594341L284.26395939086296,133.98983255028725L293.1472081218274,149.46412965655324L302.0304568527919,124.92495328187943L310.9137055837564,115.73868542909621L319.79695431472084,93.47838088870046L328.6802030456853,67.56386458873747L337.56345177664974,19.647541642189015L355.3299492385787,89.33393955230713L364.21319796954316,77.28500962257385L373.0964467005076,91.52441024780273L381.97969543147207,143.31965446472168L390.8629441624366,125.36546885967253L399.74619289340103,81.59695863723753L408.6294416243655,100.86419731378555L417.51269035532994,74.32779967784879L426.3959390862944,94.90607976913451L435.2791878172589,95.41158303618428L444.16243654822335,169.27912570536137L453.0456852791878,136.07364818453786L464.46700507614213,171.23916856944558L473.3502538071066,110.01539155840874L482.2335025380711,144.2514892667532L491.11675126903555,195.0084112584591L500,106.12268671393393" stroke="#36b7b4" stroke-width="2"/></g><g class="mark-text role-mark layer_7_marks" role="graphics-object" aria-roledescription="text mark container"><text aria-label="text: 2020; x: Oct 03, 2020; y: 0.103" role="graphics-symbol" aria-roledescription="text mark" text-anchor="start" transform="translate(350.25380710659897,40.500000000000014)" font-family="sans-serif" font-size="11px" font-weight="bold" fill="#36b7b4">2020</text></g><g class="mark-text role-mark layer_8_marks" role="graphics-object" aria-roledescription="text mark container"><text aria-label="text: 2015-2019 average; x: Sep 07, 2020; y: 0.01" role="graphics-symbol" aria-roledescription="text mark" text-anchor="start" transform="translate(317.25888324873097,273)" font-family="sans-serif" font-size="10px" font-weight="lighter" fill="#666A86">2015-2019 average</text></g><g class="mark-text role-mark layer_9_marks" role="graphics-object" aria-roledescription="text mark container"><text aria-label="text: and min-max range; x: Sep 07, 2020; y: 0.004" role="graphics-symbol" aria-roledescription="text mark" text-anchor="start" transform="translate(317.25888324873097,288)" font-family="sans-serif" font-size="10px" font-weight="lighter" fill="#666A86" opacity="0.5">and min-max range</text></g></g><path class="foreground" aria-hidden="true" d="" display="none"/></g></g></g></svg>