<svg xmlns="http://www.w3.org/2000/svg" xmlns:xlink="http://www.w3.org/1999/xlink" version="1.1" class="marks" width="514" height="342" viewBox="0 0 514 342"><rect width="514" height="342" fill="white"/><g fill="none" stroke-miterlimit="10" transform="translate(7,20)"><g class="mark-group role-frame root" role="graphics-object" aria-roledescription="group mark container"><g transform="translate(0,0)"><path class="background" aria-hidden="true" d="M0.5,0.5h500v300h-500Z" stroke="#ddd"/><g><g class="mark-group role-axis" aria-hidden="true"><g transform="translate(0.5,0.5)"><path class="background" aria-hidden="true" d="M0,0h0v0h0Z" pointer-events="none"/><g><g class="mark-rule role-axis-grid" pointer-events="none"><line transform="translate(0,300)" x2="500" y2="0" stroke="#ddd" stroke-width="1" opacity="1"/><line transform="translate(0,225)" x2="500" y2="0" stroke="#ddd" stroke-width="1" opacity="1"/><line transform="translate(0,150)" x2="500" y2="0" stroke="#ddd" stroke-width="1" opacity="1"/><line transform="translate(0,75)" x2="500" y2="0" stroke="#ddd" stroke-width="1" opacity="1"/><line transform="translate(0,0)" x2="500" y2="0" stroke="#ddd" stroke-width="1" opacity="1"/></g></g><path class="foreground" aria-hidden="true" d="" pointer-events="none" display="none"/></g></g><g class="mark-group role-axis" role="graphics-symbol" aria-roledescription="axis" aria-label="X-axis for a time scale with values from Wednesday, 01 January 2020, 12:00:00 AM to Friday, 29 January 2021, 12:00:00 AM"><g transform="translate(0.5,300.5)"><path class="background" aria-hidden="true" d="M0,0h0v0h0Z" pointer-events="none"/><g><g class="mark-rule role-axis-tick" pointer-events="none"><line transform="translate(0,0)" x2="0" y2="5" stroke="#888" stroke-width="1" opacity="1"/><line transform="translate(39,0)" x2="0" y2="5" stroke="#888" stroke-width="1" opacity="1"/><line transform="translate(76,0)" x2="0" y2="5" stroke="#888" stroke-width="1" opacity="1"/><line transform="translate(115,0)" x2="0" y2="5" stroke="#888" stroke-width="1" opacity="1"/><line transform="translate(154,0)" x2="0" y2="5" stroke="#888" stroke-width="1" opacity="1"/><line transform="translate(193,0)" x2="0" y2="5" stroke="#888" stroke-width="1" opacity="1"/><line transform="translate(231,0)" x2="0" y2="5" stroke="#888" stroke-width="1" opacity="1"/><line transform="translate(270,0)" x2="0" y2="5" stroke="#888" stroke-width="1" opacity="1"/><line transform="translate(310,0)" x2="0" y2="5" stroke="#888" stroke-width="1" opacity="1"/><line transform="translate(348,0)" x2="0" y2="5" stroke="#888" stroke-width="1" opacity="1"/><line transform="translate(387,0)" x2="0" y2="5" stroke="#888" stroke-width="1" opacity="1"/><line transform="translate(425,0)" x2="0" y2="5" stroke="#888" stroke-width="1" opacity="1"/><line transform="translate(464,0)" x2="0" y2="5" stroke="#888" stroke-width="1" opacity="1"/></g><g class="mark-text role-axis-label" pointer-events="none"><text text-anchor="start" transform="translate(0,15)" font-family="sans-serif" font-size="10px" fill="#000" opacity="1">2020</text><text text-anchor="middle" transform="translate(39.34010152284264,15)" font-family="sans-serif" font-size="10px" fill="#000" opacity="0">February</text><text text-anchor="middle" transform="translate(76.14213197969544,15)" font-family="sans-serif" font-size="10px" fill="#000" opacity="1">March</text><text text-anchor="middle" transform="translate(115.48223350253807,15)" font-family="sans-serif" font-size="10px" fill="#000" opacity="0">April</text><text text-anchor="middle" transform="translate(153.55329949238578,15)" font-family="sans-serif" font-size="10px" fill="#000" opacity="1">May</text><text text-anchor="middle" transform="translate(192.89340101522842,15)" font-family="sans-serif" font-size="10px" fill="#000" opacity="0">June</text><text text-anchor="middle" transform="translate(230.96446700507613,15)" font-family="sans-serif" font-size="10px" fill="#000" opacity="1">July</text><text text-anchor="middle" transform="translate(270.3045685279188,15)" font-family="sans-serif" font-size="10px" fill="#000" opacity="0">August</text><text text-anchor="middle" transform="translate(309.6446700507614,15)" font-family="sans-serif" font-size="10px" fill="#000" opacity="1">September</text><text text-anchor="middle" transform="translate(347.7157360406091,15)" font-family="sans-serif" font-size="10px" fill="#000" opacity="0">October</text><text text-anchor="middle" transform="translate(387.0558375634518,15)" font-family="sans-serif" font-size="10px" fill="#000" opacity="1">November</text><text text-anchor="middle" transform="translate(425.12690355329954,15)" font-family="sans-serif" font-size="10px" fill="#000" opacity="0">December</text><text text-anchor="middle" transform="translate(464.46700507614213,15)" font-family="sans-serif" font-size="10px" fill="#000" opacity="1">2021</text></g><g class="mark-rule role-axis-domain" pointer-events="none"><line transform="translate(0,0)" x2="500" y2="0" stroke="#888" stroke-width="1" opacity="1"/></g></g><path class="foreground" aria-hidden="true" d="" pointer-events="none" display="none"/></g></g><g class="mark-group role-axis" role="graphics-symbol" aria-roledescription="axis" aria-label="Y-axis titled 'percent' for a linear scale with values from 0 to 4"><g transform="translate(0.5,0.5)"><path class="background" aria-hidden="true" d="M0,0h0v0h0Z" pointer-events="none"/><g><g class="mark-text role-axis-label" pointer-events="none"><text text-anchor="start" transform="translate(5,293)" font-family="sans-serif" font-size="10px" fill="#000" opacity="1">0</text><text text-anchor="start" transform="translate(5,218)" font-family="sans-serif" font-size="10px" fill="#000" opacity="1">1</text><text text-anchor="start" transform="translate(5,143)" font-family="sans-serif" font-size="10px" fill="#000" opacity="1">2</text><text text-anchor="start" transform="translate(5,68)" font-family="sans-serif" font-size="10px" fill="#000" opacity="1">3</text><text text-anchor="start" transform="translate(5,-7)" font-family="sans-serif" font-size="10px" fill="#000" opacity="1">4</text></g><g class="mark-text role-axis-title" pointer-events="none"><text text-anchor="start" transform="translate(21,-7)" font-family="sans-serif" font-size="10px" font-weight="normal" fill="#000" opacity="1">percent</text></g></g><path class="foreground" aria-hidden="true" d="" pointer-events="none" display="none"/></g></g><g class="mark-rule role-mark layer_0_marks" role="graphics-object" aria-roledescription="rule mark container"><line aria-label="x: Jan 29, 2020" role="graphics-symbol" aria-roledescription="rule mark" transform="translate(35.53299492385787,0)" x2="0" y2="300" stroke="#666A86" stroke-width="1" stroke-dasharray="0,1,1" opacity="0.5"/><line aria-label="x: Mar 18, 2020" role="graphics-symbol" aria-roledescription="rule mark" transform="translate(97.71573604060914,0)" x2="0" y2="300" stroke="#666A86" stroke-width="1" stroke-dasharray="0,1,1" opacity="0.5"/></g><g class="mark-text role-mark layer_1_marks" role="graphics-object" aria-roledescription="text mark container"><text aria-label="text: ➡ First COVID-related death in the UK; x: Jan 29, 2020; y: 3.7" role="graphics-symbol" aria-roledescription="text mark" text-anchor="start" transform="translate(35.53299492385787,20.499999999999986)" font-family="sans-serif" font-size="10px" font-weight="lighter" fill="#666A86">➡ First COVID-related death in the UK</text><text aria-label="text: ➡ Start of first UK lockdown; x: Mar 18, 2020; y: 3.45" role="graphics-symbol" aria-roledescription="text mark" text-anchor="start" transform="translate(97.71573604060914,39.249999999999986)" font-family="sans-serif" font-size="10px" font-weight="lighter" fill="#666A86">➡ Start of first UK lockdown</text></g><g class="mark-area role-mark layer_2_marks" role="graphics-object" aria-roledescription="area mark container"><path aria-label="weekx: Jan 01, 2020; max_move: 1; min_move: 0.901982367039" role="graphics-symbol" aria-roledescription="area mark" d="M0,199.68877136707306L8.883248730964468,200.845804810524L17.766497461928935,216.21257364749908L26.6497461928934,211.6377890110016L35.53299492385787,183.5017293691635L44.41624365482234,224.62176382541656L53.2994923857868,230.04453778266907L62.18274111675127,196.8965470790863L71.06598984771574,180.79630136489868L79.94923857868021,198.02733063697815L88.83248730964468,213.72412741184235L97.71573604060914,203.85343730449677L106.5989847715736,200.60588121414185L115.48223350253807,148.1549620628357L124.36548223350253,221.59192264080048L133.24873096446703,200.36668181419373L142.13197969543148,211.422461271286L151.01522842639594,205.12103140354156L159.89847715736042,187.66894340515137L168.78172588832487,186.39233708381653L177.66497461928935,167.07866191864014L186.5482233502538,199.09459948539734L195.4314720812183,199.88465309143066L204.31472081218274,165.96229076385498L213.1979695431472,197.9234755039215L222.08121827411168,205.5232733488083L230.96446700507613,124.02076721191406L239.8477157360406,185.6249302625656L248.73096446700507,167.35748648643494L257.61421319796955,189.31645452976227L266.49746192893406,175.22648870944977L275.3807106598985,175.49657821655273L284.26395939086296,127.49503254890442L293.1472081218274,157.31338262557983L302.0304568527919,134.24184322357178L310.9137055837564,168.02786886692047L319.79695431472084,48.20237159729004L328.6802030456853,81.77180886268616L337.56345177664974,97.82620668411255L355.3299492385787,113.94422650337219L364.21319796954316,98.73678088188171L373.0964467005076,149.34518337249756L381.97969543147207,188.86453807353973L390.8629441624366,193.64120364189148L399.74619289340103,190.83078503608704L408.6294416243655,174.60643351078033L417.51269035532994,191.24745726585388L426.3959390862944,194.58807706832886L435.2791878172589,207.6063483953476L444.16243654822335,188.26912343502045L453.0456852791878,204.5722872018814L464.46700507614213,199.68877136707306L473.3502538071066,200.845804810524L482.2335025380711,216.21257364749908L491.11675126903555,211.6377890110016L500,183.5017293691635L500,254.50136214494705L491.11675126903555,270.71923837065697L482.2335025380711,262.52866610884666L473.3502538071066,256.9931834936142L464.46700507614213,232.3513224720955L453.0456852791878,257.35871493816376L444.16243654822335,258.3057090640068L435.2791878172589,252.05224603414536L426.3959390862944,242.08103120326996L417.51269035532994,238.92496973276138L408.6294416243655,230.26884645223618L399.74619289340103,227.9557541012764L390.8629441624366,230.0409346818924L381.97969543147207,260.44742166996L373.0964467005076,187.66958713531494L364.21319796954316,190.40157794952393L355.3299492385787,201.32832527160645L337.56345177664974,162.55894303321838L328.6802030456853,166.0830169916153L319.79695431472084,216.8346405029297L310.9137055837564,231.33859187364578L302.0304568527919,255.55555522441864L293.1472081218274,199.06680285930634L284.26395939086296,222.98146784305573L275.3807106598985,232.7933058142662L266.49746192893406,213.74651491641998L257.61421319796955,233.18542689085007L248.73096446700507,234.3395322561264L239.8477157360406,224.56576824188232L230.96446700507613,233.4108218550682L222.08121827411168,243.9178705215454L213.1979695431472,223.05196523666382L204.31472081218274,237.37632036209106L195.4314720812183,247.83813804388046L186.5482233502538,261.42536848783493L177.66497461928935,238.176991045475L168.78172588832487,260.3178396821022L159.89847715736042,234.1983586549759L151.01522842639594,244.486503303051L142.13197969543148,240.3571218252182L133.24873096446703,241.40639752149582L124.36548223350253,239.62753862142563L115.48223350253807,248.14907759428024L106.5989847715736,246.91831022500992L97.71573604060914,232.08863139152527L88.83248730964468,251.78801715373993L79.94923857868021,247.49718010425568L71.06598984771574,256.611992418766L62.18274111675127,270.4133726656437L53.2994923857868,240.6569078564644L44.41624365482234,262.285852432251L35.53299492385787,254.50136214494705L26.6497461928934,270.71923837065697L17.766497461928935,262.52866610884666L8.883248730964468,256.9931834936142L0,232.3513224720955Z" fill="#666A86" opacity="0.15"/></g><g class="mark-line role-mark layer_3_marks" role="graphics-object" aria-roledescription="line mark container"><path aria-label="weekx: Jan 01, 2020; m_move: 1.07104599476" role="graphics-symbol" aria-roledescription="line mark" d="M0,219.67155039310455L8.883248730964468,227.62392461299896L17.766497461928935,232.13265985250473L26.6497461928934,248.52560609579086L35.53299492385787,245.2531099319458L44.41624365482234,240.5813366174698L53.2994923857868,237.7256914973259L62.18274111675127,203.43895554542542L71.06598984771574,228.8574367761612L79.94923857868021,214.1301155090332L88.83248730964468,230.99494725465775L97.71573604060914,224.25350546836853L106.5989847715736,218.49144101142883L115.48223350253807,202.67047584056854L124.36548223350253,230.58013021945953L133.24873096446703,229.25895005464554L142.13197969543148,236.86170727014542L151.01522842639594,220.79004049301147L159.89847715736042,207.2814255952835L168.78172588832487,234.53303575515747L177.66497461928935,228.01496386528015L186.5482233502538,207.84009397029877L195.4314720812183,228.63331139087677L204.31472081218274,211.45306527614594L213.1979695431472,206.363046169281L222.08121827411168,227.3134857416153L230.96446700507613,194.35024559497833L239.8477157360406,196.69141173362732L248.73096446700507,190.93067944049835L257.61421319796955,215.34735560417175L266.49746192893406,203.8986325263977L275.3807106598985,194.29728984832764L284.26395939086296,195.28897404670715L293.1472081218274,181.31282329559326L302.0304568527919,211.73020005226135L310.9137055837564,202.41929590702057L319.79695431472084,174.2721676826477L328.6802030456853,147.33644127845764L337.56345177664974,137.58888244628906L355.3299492385787,145.40197849273682L364.21319796954316,161.88164055347443L373.0964467005076,176.1466383934021L381.97969543147207,201.6088843345642L390.8629441624366,210.6860786676407L399.74619289340103,210.4883462190628L408.6294416243655,196.08194231987L417.51269035532994,218.9456731081009L426.3959390862944,199.7660368680954L435.2791878172589,240.64896404743195L444.16243654822335,223.19263815879822L453.0456852791878,227.28589475154877L464.46700507614213,219.67155039310455L473.3502538071066,227.62392461299896L482.2335025380711,232.13265985250473L491.11675126903555,248.52560609579086L500,245.2531099319458" stroke="#666A86" stroke-width="1" stroke-dasharray="0,2,2" opacity="0.8"/></g><g class="mark-area role-mark layer_4_marks" role="graphics-object" aria-roledescription="area mark container"><path aria-label="weekx: Jan 01, 2020; max0: 1.33748304844; max_move: 1.33748304844" role="graphics-symbol" aria-roledescription="area mark" d="M0,199.68877136707306L8.883248730964468,200.845804810524L17.766497461928935,216.21257364749908L26.6497461928934,211.6377890110016L35.53299492385787,183.5017293691635L44.41624365482234,224.62176382541656L53.2994923857868,230.04453778266907L62.18274111675127,196.8965470790863L71.06598984771574,180.79630136489868L79.94923857868021,198.02733063697815L88.83248730964468,213.72412741184235L97.71573604060914,203.85343730449677L106.5989847715736,200.60588121414185L115.48223350253807,148.1549620628357L124.36548223350253,221.59192264080048L133.24873096446703,200.36668181419373L142.13197969543148,211.422461271286L151.01522842639594,205.12103140354156L159.89847715736042,187.66894340515137L168.78172588832487,186.39233708381653L177.66497461928935,167.07866191864014L186.5482233502538,199.09459948539734L195.4314720812183,199.88465309143066L204.31472081218274,165.96229076385498L213.1979695431472,197.9234755039215L222.08121827411168,205.5232733488083L230.96446700507613,124.02076721191406L239.8477157360406,185.6249302625656L248.73096446700507,167.35748648643494L257.61421319796955,189.31645452976227L266.49746192893406,175.22648870944977L275.3807106598985,175.49657821655273L284.26395939086296,127.49503254890442L293.1472081218274,157.31338262557983L302.0304568527919,134.24184322357178L310.9137055837564,168.02786886692047L319.79695431472084,48.20237159729004L328.6802030456853,81.77180886268616L337.56345177664974,97.82620668411255L355.3299492385787,113.94422650337219L364.21319796954316,98.73678088188171L373.0964467005076,149.34518337249756L381.97969543147207,188.86453807353973L390.8629441624366,193.64120364189148L399.74619289340103,190.83078503608704L408.6294416243655,174.60643351078033L417.51269035532994,191.24745726585388L426.3959390862944,194.58807706832886L435.2791878172589,207.6063483953476L444.16243654822335,188.26912343502045L453.0456852791878,204.5722872018814L464.46700507614213,199.68877136707306L473.3502538071066,200.845804810524L482.2335025380711,216.21257364749908L491.11675126903555,211.6377890110016L500,183.5017293691635L500,183.5017293691635L491.11675126903555,211.6377890110016L482.2335025380711,216.21257364749908L473.3502538071066,200.845804810524L464.46700507614213,199.68877136707306L453.0456852791878,204.5722872018814L444.16243654822335,188.26912343502045L435.2791878172589,207.6063483953476L426.3959390862944,194.58807706832886L417.51269035532994,191.24745726585388L408.6294416243655,174.60643351078033L399.74619289340103,190.83078503608704L390.8629441624366,193.64120364189148L381.97969543147207,188.86453807353973L373.0964467005076,149.34518337249756L364.21319796954316,98.73678088188171L355.3299492385787,113.94422650337219L337.56345177664974,97.82620668411255L328.6802030456853,81.77180886268616L319.79695431472084,48.20237159729004L310.9137055837564,168.02786886692047L302.0304568527919,134.24184322357178L293.1472081218274,157.31338262557983L284.26395939086296,127.49503254890442L275.3807106598985,175.49657821655273L266.49746192893406,175.22648870944977L257.61421319796955,189.31645452976227L248.73096446700507,167.35748648643494L239.8477157360406,185.6249302625656L230.96446700507613,124.02076721191406L222.08121827411168,205.5232733488083L213.1979695431472,197.9234755039215L204.31472081218274,165.96229076385498L195.4314720812183,199.88465309143066L186.5482233502538,199.09459948539734L177.66497461928935,167.07866191864014L168.78172588832487,186.39233708381653L159.89847715736042,187.66894340515137L151.01522842639594,205.12103140354156L142.13197969543148,211.422461271286L133.24873096446703,200.36668181419373L124.36548223350253,221.59192264080048L115.48223350253807,148.1549620628357L106.5989847715736,200.60588121414185L97.71573604060914,203.85343730449677L88.83248730964468,213.72412741184235L79.94923857868021,198.02733063697815L71.06598984771574,180.79630136489868L62.18274111675127,196.8965470790863L53.2994923857868,230.04453778266907L44.41624365482234,224.62176382541656L35.53299492385787,183.5017293691635L26.6497461928934,211.6377890110016L17.766497461928935,216.21257364749908L8.883248730964468,200.845804810524L0,199.68877136707306Z" fill="#36b7b4" opacity="0.3"/></g><g class="mark-area role-mark layer_5_marks" role="graphics-object" aria-roledescription="area mark container"><path aria-label="weekx: Jan 01, 2020; min0: 0.339593440294; min_move: 0.901982367039" role="graphics-symbol" aria-roledescription="area mark" d="M0,274.53049197793007L8.883248730964468,256.9931834936142L17.766497461928935,262.52866610884666L26.6497461928934,270.71923837065697L35.53299492385787,261.8860110640526L44.41624365482234,262.285852432251L53.2994923857868,257.2938948869705L62.18274111675127,270.4133726656437L71.06598984771574,256.611992418766L79.94923857868021,247.49718010425568L88.83248730964468,256.6167712211609L97.71573604060914,270.4246647655964L106.5989847715736,267.59167090058327L115.48223350253807,294.73524782806635L124.36548223350253,275.25305673480034L133.24873096446703,283.23550410568714L142.13197969543148,267.9729402065277L151.01522842639594,262.8858581185341L159.89847715736042,285.01986488699913L168.78172588832487,295.7383277826011L177.66497461928935,292.3832265660167L186.5482233502538,266.8765068054199L195.4314720812183,288.6139892041683L204.31472081218274,276.56508162617683L213.1979695431472,259.2796638607979L222.08121827411168,277.008917927742L230.96446700507613,269.80992928147316L239.8477157360406,260.34816205501556L248.73096446700507,244.77444291114807L257.61421319796955,277.371259778738L266.49746192893406,240.5943363904953L275.3807106598985,258.0586865544319L284.26395939086296,274.9754346907139L293.1472081218274,264.9697981774807L302.0304568527919,266.7728640139103L310.9137055837564,241.90069288015366L319.79695431472084,244.3666622042656L328.6802030456853,260.81893891096115L337.56345177664974,245.82708925008774L355.3299492385787,250.6063476204872L364.21319796954316,190.40157794952393L373.0964467005076,267.1117477118969L381.97969543147207,260.44742166996L390.8629441624366,265.30044972896576L399.74619289340103,264.09080252051353L408.6294416243655,269.97426599264145L417.51269035532994,243.09317618608475L426.3959390862944,272.71548807621L435.2791878172589,272.091992944479L444.16243654822335,270.96541598439217L453.0456852791878,270.73974162340164L464.46700507614213,275.886869430542L473.3502538071066,262.28979527950287L482.2335025380711,273.2208788394928L491.11675126903555,285.7200611382723L500,288.898903504014L500,254.50136214494705L491.11675126903555,270.71923837065697L482.2335025380711,262.52866610884666L473.3502538071066,256.9931834936142L464.46700507614213,232.3513224720955L453.0456852791878,257.35871493816376L444.16243654822335,258.3057090640068L435.2791878172589,252.05224603414536L426.3959390862944,242.08103120326996L417.51269035532994,238.92496973276138L408.6294416243655,230.26884645223618L399.74619289340103,227.9557541012764L390.8629441624366,230.0409346818924L381.97969543147207,260.44742166996L373.0964467005076,187.66958713531494L364.21319796954316,190.40157794952393L355.3299492385787,201.32832527160645L337.56345177664974,162.55894303321838L328.6802030456853,166.0830169916153L319.79695431472084,216.8346405029297L310.9137055837564,231.33859187364578L302.0304568527919,255.55555522441864L293.1472081218274,199.06680285930634L284.26395939086296,222.98146784305573L275.3807106598985,232.7933058142662L266.49746192893406,213.74651491641998L257.61421319796955,233.18542689085007L248.73096446700507,234.3395322561264L239.8477157360406,224.56576824188232L230.96446700507613,233.4108218550682L222.08121827411168,243.9178705215454L213.1979695431472,223.05196523666382L204.31472081218274,237.37632036209106L195.4314720812183,247.83813804388046L186.5482233502538,261.42536848783493L177.66497461928935,238.176991045475L168.78172588832487,260.3178396821022L159.89847715736042,234.1983586549759L151.01522842639594,244.486503303051L142.13197969543148,240.3571218252182L133.24873096446703,241.40639752149582L124.36548223350253,239.62753862142563L115.48223350253807,248.14907759428024L106.5989847715736,246.91831022500992L97.71573604060914,232.08863139152527L88.83248730964468,251.78801715373993L79.94923857868021,247.49718010425568L71.06598984771574,256.611992418766L62.18274111675127,270.4133726656437L53.2994923857868,240.6569078564644L44.41624365482234,262.285852432251L35.53299492385787,254.50136214494705L26.6497461928934,270.71923837065697L17.766497461928935,262.52866610884666L8.883248730964468,256.9931834936142L0,232.3513224720955Z" fill="#36b7b4" opacity="0.3"/></g><g class="mark-line role-mark layer_6_marks" role="graphics-object" aria-roledescription="line mark container"><path aria-label="weekx: Jan 01, 2020; move: 0.339593440294" role="graphics-symbol" aria-roledescription="line mark" d="M0,274.53049197793007L8.883248730964468,256.51675164699554L17.766497461928935,261.84474527835846L26.6497461928934,215.67195653915405L35.53299492385787,261.8860110640526L44.41624365482234,257.076832652092L53.2994923857868,257.2938948869705L62.18274111675127,232.6506346464157L71.06598984771574,247.9407325387001L79.94923857868021,240.26049077510834L88.83248730964468,256.6167712211609L97.71573604060914,270.4246647655964L106.5989847715736,267.59167090058327L115.48223350253807,294.73524782806635L124.36548223350253,275.25305673480034L133.24873096446703,283.23550410568714L142.13197969543148,267.9729402065277L151.01522842639594,262.8858581185341L159.89847715736042,285.01986488699913L168.78172588832487,295.7383277826011L177.66497461928935,292.3832265660167L186.5482233502538,266.8765068054199L195.4314720812183,288.6139892041683L204.31472081218274,276.56508162617683L213.1979695431472,259.2796638607979L222.08121827411168,277.008917927742L230.96446700507613,269.80992928147316L239.8477157360406,260.34816205501556L248.73096446700507,244.77444291114807L257.61421319796955,277.371259778738L266.49746192893406,240.5943363904953L275.3807106598985,258.0586865544319L284.26395939086296,274.9754346907139L293.1472081218274,264.9697981774807L302.0304568527919,266.7728640139103L310.9137055837564,241.90069288015366L319.79695431472084,244.3666622042656L328.6802030456853,260.81893891096115L337.56345177664974,245.82708925008774L355.3299492385787,250.6063476204872L364.21319796954316,187.07970678806305L373.0964467005076,267.1117477118969L381.97969543147207,257.98773765563965L390.8629441624366,265.30044972896576L399.74619289340103,264.09080252051353L408.6294416243655,269.97426599264145L417.51269035532994,243.09317618608475L426.3959390862944,272.71548807621L435.2791878172589,272.091992944479L444.16243654822335,270.96541598439217L453.0456852791878,270.73974162340164L464.46700507614213,275.886869430542L473.3502538071066,262.28979527950287L482.2335025380711,273.2208788394928L491.11675126903555,285.7200611382723L500,288.898903504014" stroke="#36b7b4" stroke-width="2"/></g><g class="mark-text role-mark layer_7_marks" role="graphics-object" aria-roledescription="text mark container"><text aria-label="text: 2020; x: Oct 03, 2020; y: 0.15" role="graphics-symbol" aria-roledescription="text mark" text-anchor="start" transform="translate(350.25380710659897,286.75)" font-family="sans-serif" font-size="11px" font-weight="bold" fill="#36b7b4">2020</text></g><g class="mark-text role-mark layer_8_marks" role="graphics-object" aria-roledescription="text mark container"><text aria-label="text: 2015-2019 average; x: Jun 17, 2020; y: 2.4" role="graphics-symbol" aria-roledescription="text mark" text-anchor="start" transform="translate(213.1979695431472,118)" font-family="sans-serif" font-size="10px" font-weight="lighter" fill="#666A86">2015-2019 average</text></g><g class="mark-text role-mark layer_9_marks" role="graphics-object" aria-roledescription="text mark container"><text aria-label="text: and min-max range; x: Jun 17, 2020; y: 2.2" role="graphics-symbol" aria-roledescription="text mark" text-anchor="start" transform="translate(213.1979695431472,133)" font-family="sans-serif" font-size="10px" font-weight="lighter" fill="#666A86" opacity="0.5">and min-max range</text></g></g><path class="foreground" aria-hidden="true" d="" display="none"/></g></g></g></svg>